<svg version="1.1" xmlns="http://www.w3.org/2000/svg" xmlns:xlink="http://www.w3.org/1999/xlink" width="41.27246" height="34.5827" viewBox="0,0,41.27246,34.5827"><defs><radialGradient cx="235.875" cy="177.19167" r="17.16339" gradientUnits="userSpaceOnUse" id="color-1"><stop offset="0" stop-color="#df943a"/><stop offset="1" stop-color="#8c5d24"/></radialGradient></defs><g transform="translate(-215.5,-162.56494)"><g data-paper-data="{&quot;isPaintingLayer&quot;:true}" fill-rule="nonzero" stroke="none" stroke-width="0" stroke-linecap="butt" stroke-linejoin="miter" stroke-miterlimit="10" stroke-dasharray="" stroke-dashoffset="0" style="mix-blend-mode: normal"><path d="M215.5,179.2528c0,-1.38041 5.18679,-2.49946 6.56721,-2.49946c1.38041,0 2.49946,1.11904 2.49946,2.49946c0,1.38041 -1.11904,2.49946 -2.49946,2.49946c-1.38041,0 -6.56721,-1.11904 -6.56721,-2.49946z" fill="#371e00"/><path d="M222.33485,192.71984c0,-7.54232 0,-22.44996 0,-26.3378c0,-1.82046 1.82312,-3.67442 3.62078,-3.67442c4.00587,0 19.87172,0 27.14242,0c2.24806,0 3.67441,2.07203 3.67441,4.04991c0,3.84399 0,17.5304 0,25.15769c0,3.12286 -1.97811,5.23001 -3.88898,5.23001c-3.82487,0 -17.76801,0 -25.4259,0c-3.06468,0 -5.12273,-1.74897 -5.12273,-4.42539z" fill="#fffc5d"/><path d="M236.48218,197.14764c0,0 -2.48001,-4.23474 -2.63311,-16.49482c-0.15078,-12.07423 2.63311,-17.83195 2.63311,-17.83195h5.26656c0,0 -2.67464,7.77012 -2.522,17.83195c0.15914,10.4906 2.522,16.49482 2.522,16.49482z" fill="url(#color-1)"/><path d="M222.38695,190.91992c-0.0661,-1.99041 0.0579,-15.49715 -0.14281,-20.89518c-0.3008,-8.08998 3.03278,-7.29739 4.57138,-7.37848c3.47204,-0.18297 5.09194,0 5.09194,0c0,0 -2.76886,8.85945 -2.44469,17.59206c0.31458,8.47449 2.65972,16.85236 2.65972,16.85236c0,0 -3.78499,0.01617 -4.47639,-0.01375c-4.67835,-0.20239 -5.10959,-1.65344 -5.25915,-6.15702z" fill="#8c5d24"/><path d="M243.625,178.23334c0,-0.13512 1.99549,0.63011 3.99983,0.63363c1.86568,0.00328 3.75017,-0.76472 3.75017,-0.63363c0,2.14011 -1.73489,3.875 -3.875,3.875c-2.14011,0 -3.875,-1.73489 -3.875,-3.875z" fill="#ff6565"/></g></g></svg>