<svg version="1.1" xmlns="http://www.w3.org/2000/svg" xmlns:xlink="http://www.w3.org/1999/xlink" width="27.16667" height="9.50001" viewBox="0,0,27.16667,9.50001"><g transform="translate(-226.54691,-154.83374)"><g data-paper-data="{&quot;isPaintingLayer&quot;:true}" fill-rule="nonzero" stroke="none" stroke-width="0" stroke-linecap="butt" stroke-linejoin="miter" stroke-miterlimit="10" stroke-dasharray="" stroke-dashoffset="0" style="mix-blend-mode: normal"><path d="M253.71359,163.16708c0,0.64433 -2.96612,1.16667 -6.625,1.16667c-3.65888,0 -4.79167,-0.35567 -4.79167,-1c0,-0.64433 2.79945,-8.5 6.45833,-8.5c3.65888,0 4.95834,7.689 4.95834,8.33333z" fill="#404040"/><path d="M239.79692,163.16708c0,0.64433 -2.96612,1.16666 -6.625,1.16666c-3.65888,0 -6.625,-0.52233 -6.625,-1.16666c0,-0.64433 4.63278,-8.33334 8.29166,-8.33334c3.65888,0 4.95834,7.68901 4.95834,8.33334z" fill="#404040"/><path d="M238.29692,162.04208c0,0.43723 -7.25,0.43723 -7.25,0c0,-0.43723 1.78964,-5.125 3.79166,-5.125c2.00203,0 3.45834,4.68777 3.45834,5.125z" fill="#ffb7ba"/><path d="M252.21358,161.95873c0,0.43723 -6.41666,0.43723 -6.41666,0c0,-0.43723 1.58393,-5.125 3.35584,-5.125c1.77191,0 3.06082,4.68777 3.06082,5.125z" fill="#ffb7ba"/></g></g></svg>