<svg version="1.1" xmlns="http://www.w3.org/2000/svg" xmlns:xlink="http://www.w3.org/1999/xlink" width="35.72722" height="34.43761" viewBox="0,0,35.72722,34.43761"><g transform="translate(-222.26139,-162.78119)"><g data-paper-data="{&quot;isPaintingLayer&quot;:true}" fill-rule="nonzero" stroke-linejoin="miter" stroke-miterlimit="10" stroke-dasharray="" stroke-dashoffset="0" style="mix-blend-mode: normal"><path d="M222.26139,192.79342c0,-7.54232 0,-22.44996 0,-26.3378c0,-1.82046 1.82312,-3.67442 3.62078,-3.67442c4.00587,0 19.87172,0 27.14242,0c2.24806,0 3.67441,2.07203 3.67441,4.04991c0,3.84399 0,17.5304 0,25.15769c0,3.12286 -1.97811,5.23001 -3.88898,5.23001c-3.82487,0 -17.76801,0 -25.4259,0c-3.06468,0 -5.12273,-1.74897 -5.12273,-4.42539z" fill="#a2774c" stroke="none" stroke-width="0" stroke-linecap="butt"/><path d="M234.9278,179.8434l-3.24324,-1.18919" fill="none" stroke="#000000" stroke-width="0.5" stroke-linecap="round"/><path d="M231.14401,182.11367l4,-0.75676" fill="none" stroke="#000000" stroke-width="0.5" stroke-linecap="round"/><path d="M234.81969,182.8704l-2.91892,1.72973" fill="none" stroke="#000000" stroke-width="0.5" stroke-linecap="round"/><path d="M255.25211,179.51907l2.05405,-1.18919" fill="none" stroke="#000000" stroke-width="0.5" stroke-linecap="round"/><path d="M257.73861,181.78934l-2.27027,-0.43243" fill="none" stroke="#000000" stroke-width="0.5" stroke-linecap="round"/><path d="M255.14401,182.97853l2.16216,1.72973" fill="none" stroke="#000000" stroke-width="0.5" stroke-linecap="round"/><path d="M248.23912,179.46186c0,-0.69036 3.05385,-0.62882 3.05385,0.06154c0,0.69036 -0.86734,1.92692 -1.55769,1.92692c-0.69036,0 -1.49615,-1.29811 -1.49615,-1.98846z" fill="#000000" stroke="none" stroke-width="0.5" stroke-linecap="butt"/><path d="M253.48912,181.1234c0,0 -0.667,2.09231 -1.72308,2.09231c-1.44582,0 -2.09231,-2.09231 -2.09231,-2.09231c0,0 -0.33785,1.99637 -2.03077,1.96923c-1.6505,-0.02646 -2.27692,-1.96923 -2.27692,-1.96923" fill="none" stroke="#000000" stroke-width="0.5" stroke-linecap="round"/></g></g></svg>