<svg version="1.1" xmlns="http://www.w3.org/2000/svg" xmlns:xlink="http://www.w3.org/1999/xlink" width="22.80221" height="15.16778" viewBox="0,0,22.80221,15.16778"><g transform="translate(-228.5425,-152.44321)"><g data-paper-data="{&quot;isPaintingLayer&quot;:true}" fill-rule="nonzero" stroke="none" stroke-width="0" stroke-linecap="butt" stroke-linejoin="miter" stroke-miterlimit="10" stroke-dasharray="" stroke-dashoffset="0" style="mix-blend-mode: normal"><path d="M246.04107,165.94358l-0.08554,-5.38889c0,0 -0.11836,-8.05555 2.26688,-8.11111c2.79813,-0.06517 3.1223,8.5 3.1223,8.5v5z" fill="#f9f9f9"/><path d="M250.92189,166.32213c-0.26614,0.8735 -1.06117,0.12145 -1.24385,0.12145c-0.39887,0 -0.72222,-2.56193 -0.72222,-5.72222c0,-3.16029 -0.45131,-5.80783 0.72222,-5.72222c0.76154,0.05555 1.33715,1.68841 1.47446,5.37355c0.09808,2.63211 -0.0783,5.44955 -0.23061,5.94945z" fill="#ffe6e6"/><path d="M228.55684,163.92338c0,0 -0.70696,-3.93663 7.80673,-6.45816c5.05879,-1.49828 12.97105,-0.70851 12.97105,-0.70851c0,0 -0.36012,0.85012 -0.75339,1.788c-0.09524,0.22712 -1.13685,0.23717 -1.23134,0.46375c-0.05422,0.13003 0.83689,0.48041 0.78533,0.60466c-0.16381,0.3947 -0.30979,0.74987 -0.4098,0.99991c-0.11613,0.29032 -0.25324,0.64332 -0.39381,1.01012c-0.05857,0.15282 -1.06217,0.25248 -1.12067,0.40656c-0.06828,0.17985 0.80879,0.4137 0.74433,0.58485c-0.28292,0.7512 -0.50955,1.36437 -0.50955,1.36437z" fill="#565656"/><path d="M235.56693,166.11025l-0.11111,-5.38889c0,0 -0.15374,-8.05555 2.94445,-8.11111c3.63449,-0.06517 4.05556,8.5 4.05556,8.5v5z" fill="#f9f9f9"/><path d="M239.95582,167.61025c-0.73638,0 -1.33334,-2.78578 -1.33334,-6.22222c0,-3.43644 0.12955,-6.5159 1.38889,-6.22222c0.89105,0.2078 1.17325,2.46118 1.19028,5.27965c0.01029,1.70285 0.18219,4.5188 -0.08652,5.89642c-0.26182,1.34224 -0.96163,1.26838 -1.15931,1.26838z" fill="#ffe6e6"/></g></g></svg>