<svg version="1.1" xmlns="http://www.w3.org/2000/svg" xmlns:xlink="http://www.w3.org/1999/xlink" width="34.78777" height="34.57333" viewBox="0,0,34.78777,34.57333"><g transform="translate(-222.65328,-162.7812)"><g data-paper-data="{&quot;isPaintingLayer&quot;:true}" fill-rule="nonzero" stroke-linejoin="miter" stroke-miterlimit="10" stroke-dasharray="" stroke-dashoffset="0" style="mix-blend-mode: normal"><path d="M222.78121,192.79342c0,-7.54232 0,-22.44996 0,-26.3378c0,-1.82046 1.82312,-3.67442 3.62078,-3.67442c4.00587,0 19.87172,0 27.14242,0c2.24806,0 3.67441,2.07203 3.67441,4.04991c0,3.84399 0,17.5304 0,25.15769c0,3.12286 -1.97811,5.23001 -3.88898,5.23001c-3.82487,0 -17.76801,0 -25.4259,0c-3.06468,0 -5.12273,-1.74897 -5.12273,-4.42539z" fill="#fda05c" stroke="none" stroke-width="0" stroke-linecap="butt"/><path d="M257.1742,177.25674c0,0 0.57068,13.03709 0.04293,16.13733c-0.20842,1.22432 -1.53545,2.83417 -1.89923,3.2481c-0.60164,0.6846 -7.21421,0.66525 -13.84789,0.69387c-7.08747,0.03058 -14.25345,0.07238 -15.90027,-0.32345c-0.81044,-0.1948 -1.75555,-1.36709 -1.991,-1.68413c-1.41112,-1.90012 -0.81797,-3.63493 -0.70955,-5.15707c0.03022,-0.42428 5.24492,3.5989 7.47827,-0.05947c1.10921,-1.81696 -1.06084,-9.10188 0.85507,-12.25107c1.91906,-3.15436 7.92479,-2.17112 9.88053,-1.68435c4.11171,1.02337 6.65244,3.97646 6.65244,3.97646c0,0 1.14084,-2.45994 2.58207,-2.90218c1.67092,-0.51271 6.85663,0.00597 6.85663,0.00597z" fill="#fff0dc" stroke="none" stroke-width="0" stroke-linecap="butt"/><path d="M250.56504,181.76688c0,0 -0.26281,0.70228 -1.54327,0.6827c-1.25618,-0.01921 -1.65036,-1.6735 -1.65036,-1.6735c0,0 -0.67633,1.83066 -1.28745,1.78301c-1.08188,-0.08435 -1.40005,-0.40801 -1.40005,-0.40801" fill="none" stroke="#40290f" stroke-width="1.5" stroke-linecap="round"/><path d="M245.62141,179.11064c0,-0.74924 1.18458,-0.95956 1.93382,-0.95956c0.74924,0 1.44118,0.21032 1.44118,0.95956c0,0.74924 -0.74341,1.82721 -1.49265,1.82721c-0.74924,0 -1.88235,-1.07797 -1.88235,-1.82721z" fill="#fca288" stroke="none" stroke-width="0" stroke-linecap="butt"/></g></g></svg>