<svg version="1.1" xmlns="http://www.w3.org/2000/svg" xmlns:xlink="http://www.w3.org/1999/xlink" width="34.63089" height="34.71532" viewBox="0,0,34.63089,34.71532"><g transform="translate(-222.68456,-162.6226)"><g data-paper-data="{&quot;isPaintingLayer&quot;:true}" fill-rule="nonzero" stroke-linejoin="miter" stroke-miterlimit="10" stroke-dasharray="" stroke-dashoffset="0" style="mix-blend-mode: normal"><path d="M222.7813,192.79346c0,-7.54232 0,-22.44996 0,-26.3378c0,-1.82046 1.82312,-3.67442 3.62078,-3.67442c4.00587,0 19.87172,0 27.14242,0c2.24806,0 3.67441,2.07203 3.67441,4.04991c0,3.84399 0,17.5304 0,25.15769c0,3.12286 -1.97811,5.23001 -3.88898,5.23001c-3.82487,0 -17.76801,0 -25.4259,0c-3.06468,0 -5.12273,-1.74897 -5.12273,-4.42539z" fill="#5479ff" stroke="none" stroke-width="0" stroke-linecap="butt"/><path d="M222.7813,192.79346c0,-7.54232 0,-22.44996 0,-26.3378c0,-1.82046 1.82312,-3.67442 3.62078,-3.67442c4.00587,0 19.87172,0 27.14242,0c2.24806,0 3.67441,2.07203 3.67441,4.04991c0,1.66708 -16.7069,11.70204 -16.7069,11.70204c0,0 1.90299,2.89361 2.21111,7.23443c0.35212,4.96054 -0.97877,11.45123 -2.69901,11.45123c-4.33138,0 -8.81213,0 -12.12008,0c-3.06468,0 -5.12273,-1.74897 -5.12273,-4.42539z" fill="#a2b6ff" stroke="none" stroke-width="0" stroke-linecap="butt"/><path d="M222.7813,175.80543c0,-4.15068 0,-7.7193 0,-9.34978c0,-1.82046 1.82312,-3.67442 3.62078,-3.67442c4.00587,0 19.87172,0 27.14242,0c2.24806,0 3.67441,2.07203 3.67441,4.04991c0,1.62828 0,5.02257 0,8.97429c0,0.19274 -8.85473,2.52176 -17.45612,2.52751c-8.61741,0.00576 -16.98149,-2.31212 -16.98149,-2.52751z" fill="#7291ff" stroke="none" stroke-width="0" stroke-linecap="butt"/><g fill="none" stroke="#3556ce" stroke-width="1.5"><path d="M223.43456,192.30797c0,-7.25613 0,-21.5981 0,-25.33841c0,-1.75138 1.75394,-3.535 3.48339,-3.535c3.85387,0 19.11769,0 26.11251,0c2.16276,0 3.53499,1.9934 3.53499,3.89623c0,3.69813 0,16.86521 0,24.20309c0,3.00437 -1.90306,5.03156 -3.74142,5.03156c-3.67973,0 -17.09381,0 -24.46112,0c-2.94839,0 -4.92835,-1.6826 -4.92835,-4.25747z" stroke-linecap="butt"/><path d="M256.39947,175.68418c0,0 -5.7328,2.23987 -16.76739,2.35211c-10.86942,0.11056 -16.03155,-2.35211 -16.03155,-2.35211" data-paper-data="{&quot;index&quot;:null}" stroke-linecap="round"/><path d="M239.73866,178.02688c0,0 2.9782,2.5561 2.87481,8.49375c-0.13487,7.7454 -2.48279,9.87885 -2.48279,9.87885" stroke-linecap="round"/><path d="M245.09625,178.02688c0,0 2.9782,2.50157 2.87481,8.31252c-0.13487,7.58013 -2.48279,9.66806 -2.48279,9.66806" stroke-linecap="round"/><path d="M249.53914,177.50418c0,0 2.9782,2.61064 2.87481,8.67498c-0.13487,7.91066 -2.48279,10.08964 -2.48279,10.08964" stroke-linecap="round"/><path d="M253.59,177.50419c0,0 2.9782,2.61064 2.87481,8.67498c-0.13488,7.91066 -2.48279,10.08963 -2.48279,10.08963" stroke-linecap="round"/><path d="M256.39947,171.50264c0,0 -5.7328,2.23987 -16.76739,2.35211c-10.86942,0.11056 -16.03155,-2.35211 -16.03155,-2.35211" data-paper-data="{&quot;index&quot;:null}" stroke-linecap="round"/><path d="M256.39947,166.79841c0,0 -5.7328,2.23987 -16.76739,2.35211c-10.86942,0.11056 -16.03155,-2.35211 -16.03155,-2.35211" data-paper-data="{&quot;index&quot;:null}" stroke-linecap="round"/><path d="M253.83857,163.3726c-2.6823,0.66145 -7.18942,2.44237 -13.94514,2.51109c-6.86203,0.0698 -11.58004,-1.67003 -14.02986,-2.38428" data-paper-data="{&quot;index&quot;:null}" stroke-linecap="round"/><path d="M239.89343,195.40639c0,0 -5.1347,-1.94002 -9.67587,-6.90348c-4.74132,-5.18223 -6.13557,-11.26008 -6.13557,-11.26008" stroke-linecap="round"/><path d="M242.01053,192.07188c-1.91385,-1.03122 -4.60939,-2.79484 -7.35008,-5.7904c-2.82357,-3.08615 -4.46011,-6.48992 -5.32205,-8.73851" stroke-linecap="round"/><path d="M242.40711,187.70214c-1.34973,-0.98922 -2.42053,-2.2361 -3.82647,-3.77278c-1.81386,-1.98253 -3.13785,-4.09614 -4.08133,-5.95039" stroke-linecap="round"/><path d="M233.7827,196.58792c-0.67036,-0.49131 -4.7736,-2.16906 -6.74527,-4.61844c-1.99819,-2.48233 -2.90909,-5.47815 -3.38398,-6.41147" stroke-linecap="round"/></g></g></g></svg>