<svg version="1.1" xmlns="http://www.w3.org/2000/svg" xmlns:xlink="http://www.w3.org/1999/xlink" width="34.43761" height="34.95818" viewBox="0,0,34.43761,34.95818"><g transform="translate(-222.85465,-162.85361)"><g data-paper-data="{&quot;isPaintingLayer&quot;:true}" fill-rule="nonzero" stroke-width="0" stroke-linecap="butt" stroke-linejoin="miter" stroke-miterlimit="10" stroke-dasharray="" stroke-dashoffset="0" style="mix-blend-mode: normal"><path d="M222.85465,192.86686c0,-7.54232 0,-22.44996 0,-26.3378c0,-1.82046 1.82312,-3.67442 3.62078,-3.67442c4.00587,0 19.87172,0 27.14242,0c2.24806,0 3.67441,2.07203 3.67441,4.04991c0,3.84399 0,17.5304 0,25.15769c0,3.12286 -1.97811,5.23001 -3.88898,5.23001c-3.82487,0 -17.76801,0 -25.4259,0c-3.06468,0 -5.12273,-1.74897 -5.12273,-4.42539z" fill="#f6f6f6" stroke="#000000"/><path d="M222.89903,166.52558c0,-0.59695 0.27809,-2.03125 1.2262,-2.80112c0.94471,-0.7671 2.55781,-0.87085 3.47392,-0.87085c2.59581,0 9.40025,0 9.40025,0c0,0 -2.39884,6.1765 -4.05275,12.0657c-0.86899,3.09427 -1.79093,7.04097 -3.02967,8.29684c-1.50197,1.03951 -5.13423,-0.62893 -6.30607,-3.34634c-0.74741,-1.73319 -0.69067,-3.82769 -0.71772,-5.65422c-0.03598,-2.42971 0.00584,-4.38522 0.00584,-4.38522c0,0 0,-2.17418 0,-3.30478z" data-paper-data="{&quot;index&quot;:null}" fill="#000000" stroke="none"/><path d="M225.81103,197.37208c-0.51297,-0.21135 -1.06952,-0.49182 -1.39785,-0.80859c-1.17514,-1.13374 -1.16147,-2.73244 -1.25936,-3.29154c-0.48044,-2.7441 1.93588,-5.57177 3.47718,-6.612c1.54176,-1.04053 3.54646,1.68762 6.42262,3.57651c2.26054,1.48459 5.53666,1.88928 6.31744,3.34065c0.5363,0.99692 -0.51408,4.03917 -0.51408,4.03917c0,0 -11.06113,0.5736 -13.04595,-0.2442z" data-paper-data="{&quot;index&quot;:null}" fill="#000000" stroke="none"/><path d="M252.9996,183.53274c0,2.57025 -2.28321,4.57693 -6.80769,4.57693c-4.52448,0 -8.51726,-2.39041 -8.57692,-3.73077c-0.08341,-1.87372 4.05244,-5.57692 8.57692,-5.57692c4.52448,0 6.80769,2.16052 6.80769,4.73077z" fill="#ffb3b3" stroke="none"/><path d="M244.30731,183.95582c0,0.89215 -0.39605,1.61539 -0.88461,1.61539c-0.48856,0 -0.88461,-0.72324 -0.88461,-1.61539c0,-0.89215 0.39605,-1.61538 0.88461,-1.61538c0.48856,0 0.88461,0.72323 0.88461,1.61538z" fill="#000000" stroke="none"/><path d="M249.615,183.99428c0,0.9134 -0.3444,1.65384 -0.76924,1.65384c-0.42484,0 -0.76923,-0.74045 -0.76923,-1.65384c0,-0.9134 0.34439,-1.65384 0.76923,-1.65384c0.42484,0 0.76924,0.74045 0.76924,1.65384z" fill="#000000" stroke="none"/></g></g></svg>