<svg version="1.1" xmlns="http://www.w3.org/2000/svg" xmlns:xlink="http://www.w3.org/1999/xlink" width="32" height="14" viewBox="0,0,32,14"><g transform="translate(-229.95351,-169.62814)"><g data-paper-data="{&quot;isPaintingLayer&quot;:true}" fill-rule="nonzero" stroke-linejoin="miter" stroke-miterlimit="10" stroke-dasharray="" stroke-dashoffset="0" style="mix-blend-mode: normal"><path d="M229.95352,176.69065c0,-3.83148 3.10602,-6.9375 6.9375,-6.9375c3.83148,0 6.9375,3.10602 6.9375,6.9375c0,3.83148 -3.10602,6.9375 -6.9375,6.9375c-3.83148,0 -6.9375,-3.10602 -6.9375,-6.9375z" fill="#ff0000" stroke="none" stroke-width="0" stroke-linecap="butt"/><path d="M248.07852,176.56565c0,-3.83148 3.10602,-6.9375 6.9375,-6.9375c3.83147,0 6.9375,3.10602 6.9375,6.9375c0,3.83148 -3.10602,6.9375 -6.9375,6.9375c-3.83148,0 -6.9375,-3.10602 -6.9375,-6.9375z" fill="#ff0000" stroke="none" stroke-width="0" stroke-linecap="butt"/><path d="M238.45679,174.41171h1.69231" fill="none" stroke="#ad0000" stroke-width="0.5" stroke-linecap="round"/><path d="M241.1491,175.87324h-3.38462" fill="none" stroke="#ad0000" stroke-width="0.5" stroke-linecap="round"/><path d="M238.91833,173.64247v2.84615" fill="none" stroke="#ad0000" stroke-width="0.5" stroke-linecap="round"/><path d="M256.61064,176.95017h2.07692" fill="none" stroke="#ad0000" stroke-width="0.5" stroke-linecap="round"/><path d="M256.61064,175.7194h3.23077" fill="none" stroke="#ad0000" stroke-width="0.5" stroke-linecap="round"/><path d="M257.45679,177.79632v-3" fill="none" stroke="#ad0000" stroke-width="0.5" stroke-linecap="round"/><path d="M259.07218,177.18094v-2.23077" fill="none" stroke="#ad0000" stroke-width="0.5" stroke-linecap="round"/></g></g></svg>