<svg version="1.1" xmlns="http://www.w3.org/2000/svg" xmlns:xlink="http://www.w3.org/1999/xlink" width="34.6688" height="34.48685" viewBox="0,0,34.6688,34.48685"><g transform="translate(-222.55,-162.73195)"><g data-paper-data="{&quot;isPaintingLayer&quot;:true}" fill-rule="nonzero" stroke-linejoin="miter" stroke-miterlimit="10" stroke-dasharray="" stroke-dashoffset="0" style="mix-blend-mode: normal"><path d="M222.7812,192.79342c0,-7.54232 0,-22.44996 0,-26.3378c0,-1.82046 1.82312,-3.67442 3.62078,-3.67442c4.00587,0 19.87172,0 27.14242,0c2.24806,0 3.67441,2.07203 3.67441,4.04991c0,3.84399 0,17.5304 0,25.15769c0,3.12286 -1.97811,5.23001 -3.88898,5.23001c-3.82487,0 -17.76801,0 -25.4259,0c-3.06468,0 -5.12273,-1.74897 -5.12273,-4.42539z" fill="#79a843" stroke="none" stroke-width="0" stroke-linecap="butt"/><path d="M257.12224,165.70502c0,6.09787 -0.3,20.94272 -0.3,27.5c0,0.7565 -1.29995,3.79639 -2.62029,3.79639c-0.39428,0 -0.92415,-0.29315 -0.92415,-0.82474c0,-4.88178 0,-29.87273 0,-32.61228c0,-0.47933 0.50502,-0.83243 0.88718,-0.83243c0.19994,0 2.95726,1.85988 2.95726,2.97306z" data-paper-data="{&quot;index&quot;:null}" fill="#5d8b18" stroke="none" stroke-width="0" stroke-linecap="butt"/><path d="M228.94776,162.93195c0.93147,0 2.32638,0 2.90011,0c0.49149,0 1.14102,0.3531 1.14102,0.83243c0,2.73954 0,27.7305 0,32.61229c0,0.53159 -0.68146,0.82474 -1.18856,0.82474c-0.49812,0 -1.59258,0 -2.47222,0c-0.71223,0 -1.28366,-0.34149 -1.28366,-1.02267c0,-5.43402 0,-30.00583 0,-32.53421c0,-0.41462 0.37793,-0.71257 0.9033,-0.71257z" fill="#589201" stroke="none" stroke-width="0" stroke-linecap="butt"/><path d="M234.11444,162.93195c0.93147,0 2.32637,0 2.90011,0c0.4915,0 1.14102,0.3531 1.14102,0.83243c0,2.73955 0,27.7305 0,32.61228c0,0.53159 -0.68147,0.82474 -1.18857,0.82474c-0.49813,0 -1.59258,0 -2.47222,0c-0.71223,0 -1.28365,-0.34148 -1.28365,-1.02267c0,-5.43402 0,-30.00584 0,-32.53421c0,-0.41462 0.37793,-0.71256 0.90331,-0.71256z" fill="#5d8b18" stroke="none" stroke-width="0" stroke-linecap="butt"/><path d="M239.2811,162.93195c0.93147,0 2.32638,0 2.90011,0c0.49149,0 1.14102,0.3531 1.14102,0.83243c0,2.73954 0,27.7305 0,32.61229c0,0.53159 -0.68146,0.82474 -1.18856,0.82474c-0.49812,0 -1.59258,0 -2.47222,0c-0.71223,0 -1.28366,-0.34149 -1.28366,-1.02267c0,-5.43402 0,-30.00583 0,-32.53421c0,-0.41462 0.37793,-0.71257 0.9033,-0.71257z" fill="#589201" stroke="none" stroke-width="0" stroke-linecap="butt"/><path d="M244.51444,162.89863c0.93147,0 2.32637,0 2.90011,0c0.4915,0 1.14102,0.3531 1.14102,0.83243c0,2.73955 0,27.7305 0,32.61228c0,0.53159 -0.68147,0.82474 -1.18857,0.82474c-0.49813,0 -1.59258,0 -2.47222,0c-0.71223,0 -1.28365,-0.34148 -1.28365,-1.02267c0,-5.43402 0,-30.00584 0,-32.53421c0,-0.41462 0.37793,-0.71256 0.90331,-0.71256z" fill="#467301" stroke="none" stroke-width="0" stroke-linecap="butt"/><path d="M249.6811,162.89863c0.93147,0 2.32638,0 2.90011,0c0.49149,0 1.14102,0.3531 1.14102,0.83243c0,2.73954 0,27.7305 0,32.61229c0,0.53159 -0.68146,0.82474 -1.18856,0.82474c-0.49812,0 -1.59258,0 -2.47222,0c-0.71223,0 -1.28366,-0.34149 -1.28366,-1.02267c0,-5.43402 0,-30.00583 0,-32.53421c0,-0.41462 0.37793,-0.71257 0.9033,-0.71257z" fill="#589201" stroke="none" stroke-width="0" stroke-linecap="butt"/><path d="M225.53057,162.93195c0.4714,0 0.8935,0 1.15065,0c0.4915,0 1.14102,0.3531 1.14102,0.83243c0,2.73955 0,27.7305 0,32.61228c0,0.53159 -0.68147,0.82474 -1.18857,0.82474c-1.69813,0 -3.75587,-2.13989 -3.75587,-2.89639c0,-6.55728 0,-22.30213 0,-28.4c0,-1.11318 2.0724,-2.97306 2.65277,-2.97306z" fill="#467301" stroke="none" stroke-width="0" stroke-linecap="butt"/><path d="M227.75,196.40502v-33.1" fill="none" stroke="#79a843" stroke-width="1" stroke-linecap="round"/><path d="M233.05,163.40502v33.1" fill="none" stroke="#79a843" stroke-width="1" stroke-linecap="round"/><path d="M238.15,196.40502v-33.1" fill="none" stroke="#79a843" stroke-width="1" stroke-linecap="round"/><path d="M243.45,163.40502v33.1" fill="none" stroke="#79a843" stroke-width="1" stroke-linecap="round"/><path d="M248.65,163.50501v33.1" fill="none" stroke="#79a843" stroke-width="1" stroke-linecap="round"/><path d="M253.75,196.50502v-33.1" fill="none" stroke="#79a843" stroke-width="1" stroke-linecap="round"/><path d="M223.15,175.20502h4.5" fill="none" stroke="#79a843" stroke-width="1" stroke-linecap="round"/><path d="M223.05,189.30501h4.1" fill="none" stroke="#79a843" stroke-width="1" stroke-linecap="round"/><path d="M227.85,181.30501h4.8" fill="none" stroke="#79a843" stroke-width="1" stroke-linecap="round"/><path d="M227.75,164.80501h4.9" fill="none" stroke="#79a843" stroke-width="1" stroke-linecap="round"/><path d="M227.85,194.00501h4.9" fill="none" stroke="#79a843" stroke-width="1" stroke-linecap="round"/><path d="M233.45,186.30501h4.5" fill="none" stroke="#79a843" stroke-width="1" stroke-linecap="round"/><path d="M233.15,167.90501h4.3" fill="none" stroke="#79a843" stroke-width="1" stroke-linecap="round"/><path d="M238.65,172.60501h4.3" fill="none" stroke="#79a843" stroke-width="1" stroke-linecap="round"/><path d="M238.55,191.00501h4.3" fill="none" stroke="#79a843" stroke-width="1" stroke-linecap="round"/><path d="M243.55,181.50501h5.1" fill="none" stroke="#79a843" stroke-width="1" stroke-linecap="round"/><path d="M248.85,166.30501h4.8" fill="none" stroke="#79a843" stroke-width="1" stroke-linecap="round"/><path d="M248.85,184.80501h4.6" fill="none" stroke="#79a843" stroke-width="1" stroke-linecap="round"/><path d="M253.75,178.30501h2.9" fill="none" stroke="#79a843" stroke-width="1" stroke-linecap="round"/></g></g></svg>