<svg version="1.1" xmlns="http://www.w3.org/2000/svg" xmlns:xlink="http://www.w3.org/1999/xlink" width="34.43761" height="34.51121" viewBox="0,0,34.43761,34.51121"><g transform="translate(-222.78125,-162.78124)"><g data-paper-data="{&quot;isPaintingLayer&quot;:true}" fill-rule="nonzero" stroke="none" stroke-width="0" stroke-linecap="butt" stroke-linejoin="miter" stroke-miterlimit="10" stroke-dasharray="" stroke-dashoffset="0" style="mix-blend-mode: normal"><path d="M222.78126,192.79346c0,-7.54232 0,-22.44996 0,-26.3378c0,-1.82046 1.82312,-3.67442 3.62078,-3.67442c4.00587,0 19.87172,0 27.14242,0c2.24806,0 3.67441,2.07203 3.67441,4.04991c0,3.84399 0,17.5304 0,25.15769c0,3.12286 -1.97811,5.23001 -3.88898,5.23001c-3.82487,0 -17.76801,0 -25.4259,0c-3.06468,0 -5.12273,-1.74897 -5.12273,-4.42539z" fill="#d58442"/><path d="M254.07028,197.03024c-0.76594,0.28739 -27.46921,0.44241 -28.87951,-0.09494c-2.49778,-0.95171 -2.09058,-2.51614 -2.09058,-3.52778c0,-3.06409 11.08502,-4.38954 20.51429,-4.38954c9.42927,0 13.44104,1.63915 13.44104,4.70324c0,0 -0.69902,2.45121 -2.98524,3.30902z" fill="#ffffff"/></g></g></svg>