<svg version="1.1" xmlns="http://www.w3.org/2000/svg" xmlns:xlink="http://www.w3.org/1999/xlink" width="12.84615" height="17.38462" viewBox="0,0,12.84615,17.38462"><g transform="translate(-233.5,-171.67756)"><g data-paper-data="{&quot;isPaintingLayer&quot;:true}" fill-rule="nonzero" stroke-linecap="butt" stroke-linejoin="miter" stroke-miterlimit="10" stroke-dasharray="" stroke-dashoffset="0" style="mix-blend-mode: normal"><path d="M242.45331,187.83332c-1.16008,0.03002 -7.91948,-4.17629 -7.87516,-8.44315c0.03671,-3.53349 7.4219,-7.13746 7.87516,-7.11241c2.01014,0.11111 2.77778,0.70227 2.77778,2.66667c0,1.75109 0,6.32991 0,9.77778c0,2.18265 -0.80478,3.06006 -2.77778,3.11111z" data-paper-data="{&quot;index&quot;:null}" fill="#fbf6e9" stroke="#875242" stroke-width="0"/><path d="M245.23109,184.61109c0,2.18265 -0.80478,3.06006 -2.77778,3.11111c-1.16008,0.03002 -7.91948,-4.17629 -7.87516,-8.44315c0.00848,-0.81637 0.91502,-2.68875 1.79154,-2.82703c0.23282,-0.03673 -0.59014,1.43525 0.17219,2.65949c0.80524,1.29315 3.1587,4.75307 5.2583,5.21599c1.79298,0.39531 3.43091,-2.14702 3.43091,-1.8275c0,0.72707 0,1.44047 0,2.1111z" data-paper-data="{&quot;index&quot;:null}" fill="#d6b1a7" stroke="#875242" stroke-width="0"/><path d="M242.46345,187.93525c-3.1711,-0.55903 -7.91523,-5.77492 -7.8853,-8.65619c0.02536,-2.44071 4.80491,-6.15157 7.93963,-6.59124c2.22734,-0.3124 2.71331,0.89092 2.71331,2.1455c0,1.75109 0.21485,6.33661 0,9.77778c-0.17647,2.82643 -0.48099,3.72726 -2.76764,3.32415z" data-paper-data="{&quot;index&quot;:null}" fill="none" stroke="#875242" stroke-width="1.5"/><path d="M233.5,189.06217v-17.38462h12.84615v17.38462z" fill="none" stroke="none" stroke-width="0"/></g></g></svg>