<svg version="1.1" xmlns="http://www.w3.org/2000/svg" xmlns:xlink="http://www.w3.org/1999/xlink" width="35.32589" height="34.43761" viewBox="0,0,35.32589,34.43761"><g transform="translate(-224.73588,-163.83727)"><g data-paper-data="{&quot;isPaintingLayer&quot;:true}" fill-rule="nonzero" stroke-linejoin="miter" stroke-miterlimit="10" stroke-dasharray="" stroke-dashoffset="0" style="mix-blend-mode: normal"><path d="M224.73588,193.8495c0,-7.54232 0,-22.44996 0,-26.3378c0,-1.82046 1.82312,-3.67442 3.62078,-3.67442c4.00587,0 19.87172,0 27.14242,0c2.24806,0 3.67441,2.07203 3.67441,4.04991c0,3.84399 0,17.5304 0,25.15769c0,3.12286 -1.97811,5.23001 -3.88898,5.23001c-3.82487,0 -17.76801,0 -25.4259,0c-3.06468,0 -5.12273,-1.74897 -5.12273,-4.42539z" fill="#eeeeee" stroke="none" stroke-width="0" stroke-linecap="butt"/><path d="M259.8774,179.73406c-0.13258,5.47975 0.00706,12.14257 -12.94444,11.86667c-16.92973,-0.21167 -15.3,-8.32976 -15.3,-11.47778c0,-3.14802 -1.22334,-11.53834 17.73333,-11.21111c10.15013,0.00973 10.62222,6.22976 10.51111,10.82222z" fill="#f5d6c1" stroke="none" stroke-width="0" stroke-linecap="butt"/><path d="M228.54157,172.33411c0,0 -2.35715,0.50105 -1.55648,-1.97155c0.81733,-2.52407 2.73965,-0.43465 2.98638,-0.71662c0.10236,-0.11698 -1.35955,-0.9277 0.09301,-2.8959c1.45257,-1.9682 2.96821,0.69096 2.96821,0.69096" fill="none" stroke="#bfbfbf" stroke-width="0.5" stroke-linecap="round"/><g fill="#f6f6f6" stroke="none" stroke-width="0" stroke-linecap="butt"><path d="M231.70462,173.15381c0,-1.18347 0.95939,-2.14286 2.14286,-2.14286c1.18347,0 2.14286,0.95939 2.14286,2.14286c0,1.18347 -0.95939,2.14286 -2.14286,2.14286c-1.18347,0 -2.14286,-0.95939 -2.14286,-2.14286z"/><path d="M234.77605,169.86809c0,-1.73575 1.40711,-3.14286 3.14286,-3.14286c1.73575,0 3.14286,1.40711 3.14286,3.14286c0,1.73575 -1.40711,3.14286 -3.14286,3.14286c-1.73575,0 -3.14286,-1.40711 -3.14286,-3.14286z"/><path d="M240.99034,168.79667c0,-1.933 1.96675,-3.5 4.39286,-3.5c2.42611,0 4.39286,1.567 4.39286,3.5c0,1.933 -1.96675,3.5 -4.39286,3.5c-2.42611,0 -4.39286,-1.567 -4.39286,-3.5z"/><path d="M249.13319,169.93953c0,-1.57796 1.39112,-2.85714 3.10714,-2.85714c1.71603,0 3.10714,1.27919 3.10714,2.85714c0,1.57796 -1.39112,2.85714 -3.10714,2.85714c-1.71603,0 -3.10714,-1.27919 -3.10714,-2.85714z"/><path d="M255.27605,170.26095c0,-1.32154 1.07132,-2.39286 2.39286,-2.39286c1.32154,0 2.39286,1.07132 2.39286,2.39286c0,1.32154 -1.07132,2.39286 -2.39286,2.39286c-1.32154,0 -2.39286,-1.07132 -2.39286,-2.39286z"/></g><g fill="none" stroke="#bfbfbf" stroke-width="0.5" stroke-linecap="round"><path d="M234.46351,192.26292c0,0 -0.99497,1.75264 -3.20642,0.59625c-1.88382,-0.98507 -1.44128,-3.13131 -1.44128,-3.13131"/><path d="M237.77051,194.19845c0,0 -0.6212,1.30181 -2.14707,0.36046c-1.29981,-0.80189 -1.06279,-2.41835 -1.06279,-2.41835"/></g><path d="M231.78607,173.58024c0,0 -0.71624,-1.00494 0.88569,-2.49337c1.07858,-1.00216 2.37443,0.22366 2.4968,0.13847c0.07371,-0.05132 -1.72631,-2.27489 1.49991,-4.00826c2.45483,-1.31892 3.43338,0.57369 3.43338,0.57369" fill="none" stroke="#bfbfbf" stroke-width="0.5" stroke-linecap="round"/><path d="M247.31239,165.63287c0,0 0.8179,0.26186 1.40707,0.85524c0.23353,0.2352 0.67148,0.88506 0.75988,1.5119c0.09926,0.70382 -0.15982,1.37862 -0.03575,1.40483c0.0319,0.00674 0.14114,-0.81932 0.75128,-1.46242c0.57591,-0.60701 1.62106,-1.03952 2.71653,-0.8309c2.36098,0.44964 2.13852,2.33552 2.45137,2.33848c0.26869,0.00254 0.73112,-1.00792 1.41933,-1.35142c0.76172,-0.38019 1.74082,-0.09729 1.74082,-0.09729" fill="none" stroke="#bfbfbf" stroke-width="0.5" stroke-linecap="round"/><path d="M256.47273,191.25483c0,0 2.31296,0.67633 0.43576,2.47381c-1.91627,1.8349 -2.61826,-0.91613 -2.96918,-0.78483c-0.14558,0.05447 0.75725,1.46136 -1.4548,2.50568c-2.21205,1.04431 -2.28587,-2.01556 -2.28587,-2.01556" data-paper-data="{&quot;index&quot;:null}" fill="none" stroke="#bfbfbf" stroke-width="0.5" stroke-linecap="round"/></g></g></svg>