<svg version="1.1" xmlns="http://www.w3.org/2000/svg" xmlns:xlink="http://www.w3.org/1999/xlink" width="485" height="373" viewBox="0,0,485,373"><defs><linearGradient x1="240" y1="-275.20142" x2="240" y2="366.5" gradientUnits="userSpaceOnUse" id="color-1"><stop offset="0" stop-color="#000000"/><stop offset="1" stop-color="#000000" stop-opacity="0"/></linearGradient><linearGradient x1="240" y1="635.20142" x2="240" y2="-6.5" gradientUnits="userSpaceOnUse" id="color-2"><stop offset="0" stop-color="#000000"/><stop offset="1" stop-color="#000000" stop-opacity="0"/></linearGradient></defs><g transform="translate(2.5,6.5)"><g data-paper-data="{&quot;isPaintingLayer&quot;:true}" fill-rule="nonzero" stroke-linejoin="miter" stroke-miterlimit="10" stroke-dasharray="" stroke-dashoffset="0" style="mix-blend-mode: normal"><path d="M-2.5,366.5v-373h485v373zM5.54352,2.60128c-2.1363,0.56878 -3.71018,2.51662 -3.71018,4.83205c0,0.7407 0.16106,1.44379 0.45008,2.07615c-0.40663,0.23236 -0.77703,2.27078 -0.78341,2.59052c-0.09759,4.89028 0.01035,9.78252 0,14.67376c-0.00647,3.05853 2.15856,5.85613 5.33333,5.9929c5.2304,0.22534 18.04319,1.27524 21.70833,-4.83333c1.70072,-2.83453 -0.50654,-11.39238 -2.70833,-13.2619c-0.31288,-0.26566 0.63337,-2.75493 0.66667,-2.90476c0.35999,-1.61994 0.33084,-5.16062 -0.625,-6.83333c-0.7115,-1.24512 -2.9971,-2.44983 -4.375,-2.5c-9.59627,-0.34938 -13.03166,-1.96757 -15.95648,0.16795z" fill="url(#color-1)" stroke="none" stroke-width="0" stroke-linecap="butt"/><path d="M482.5,-6.5v373h-485v-373zM5.54352,2.60128c-2.1363,0.56878 -3.71018,2.51662 -3.71018,4.83205c0,0.7407 0.16106,1.44379 0.45008,2.07615c-0.40663,0.23236 -0.77703,2.27078 -0.78341,2.59052c-0.09759,4.89028 0.01035,9.78252 0,14.67376c-0.00647,3.05853 2.15856,5.85613 5.33333,5.9929c5.2304,0.22534 18.04319,1.27524 21.70833,-4.83333c1.70072,-2.83453 -0.50654,-11.39238 -2.70833,-13.2619c-0.31288,-0.26566 0.63337,-2.75493 0.66667,-2.90476c0.35999,-1.61994 0.33084,-5.16062 -0.625,-6.83333c-0.7115,-1.24512 -2.9971,-2.44983 -4.375,-2.5c-9.59627,-0.34938 -13.03166,-1.96757 -15.95648,0.16795z" data-paper-data="{&quot;index&quot;:null}" fill="url(#color-2)" stroke="none" stroke-width="0" stroke-linecap="butt"/><path d="M27.83334,120.92425c0,-12.75946 0,-34.02004 0,-41.80501c0,-6.07449 6.27961,-11.45257 16.0279,-11.45257c19.61584,0 93.38855,0 124.25751,0c6.71288,0 13.71459,3.92651 13.71459,9.70027c0,13.32513 0,36.48926 0,43.93281c0,4.53725 -5.8567,9.70027 -15.20171,9.70027c-32.38139,0 -106.64655,0 -124.25751,0c-7.32772,0 -14.54078,-4.10807 -14.54078,-10.07576z" fill="#fff6e6" stroke="#774c3f" stroke-width="1.5" stroke-linecap="butt"/><text transform="translate(34.86816,93.63312) scale(0.4538,0.4538)" font-size="40" xml:space="preserve" fill="#5b3f2f" fill-rule="nonzero" stroke="#5b3f2f" stroke-width="2" stroke-linecap="butt" stroke-linejoin="miter" stroke-miterlimit="10" stroke-dasharray="" stroke-dashoffset="0" font-family="Sans Serif" font-weight="normal" text-anchor="start" style="mix-blend-mode: normal"><tspan x="0" dy="0">  Click to open</tspan><tspan x="0" dy="48px">THE ScoreBoard</tspan></text><path d="M56.58334,42.2c0,0 12.14642,0.09595 22.84271,6.76258c11.53015,7.18634 16.65729,18.98742 16.65729,18.98742" fill="none" stroke="#774c3f" stroke-width="7.5" stroke-linecap="round"/><path d="M58.33334,55.2c0,0 -8.81568,-14.18432 -6.25,-16.75c2.37845,-2.37845 21.125,-4.375 21.125,-4.375" fill="none" stroke="#774c3f" stroke-width="7.5" stroke-linecap="round"/><path d="M2.51163,32.775v-30.25h25.82171v30.25z" fill="none" stroke="#774c3f" stroke-width="5" stroke-linecap="butt"/><path d="M11.05186,59.12087c0,0 4.78375,-16.00084 8.40538,-15.77893c3.35734,0.20572 17.2731,12.92464 17.2731,12.92464" data-paper-data="{&quot;index&quot;:null}" fill="none" stroke="#774c3f" stroke-width="7.5" stroke-linecap="round"/><path d="" fill="none" stroke="#774c3f" stroke-width="7.5" stroke-linecap="round"/><path d="M27.51163,85.925c0,0 -6.48143,-9.25389 -7.97769,-15.65457c-1.5037,-6.43249 -1.02231,-22.84543 -1.02231,-22.84543" fill="none" stroke="#774c3f" stroke-width="7.5" stroke-linecap="round"/></g></g></svg>