<svg version="1.1" xmlns="http://www.w3.org/2000/svg" xmlns:xlink="http://www.w3.org/1999/xlink" width="20.83333" height="13.41787" viewBox="0,0,20.83333,13.41787"><g transform="translate(-241.625,-156.85834)"><g data-paper-data="{&quot;isPaintingLayer&quot;:true}" fill="#371e00" fill-rule="nonzero" stroke="none" stroke-width="0" stroke-linecap="butt" stroke-linejoin="miter" stroke-miterlimit="10" stroke-dasharray="" stroke-dashoffset="0" style="mix-blend-mode: normal"><path d="M241.625,169.73334c0,-0.63492 1.82572,-7.64868 4.28435,-11.21044c1.01668,-1.47284 3.66144,-1.66456 3.92399,-1.66456c0.89747,0 1.625,0.72753 1.625,1.625c0,0.89747 -0.72753,1.625 -1.625,1.625c-0.24429,0 -1.96377,-0.8037 -2.88164,0.31304c-2.45418,2.98591 -5.3267,9.96514 -5.3267,9.31196z" data-paper-data="{&quot;index&quot;:null}"/><path d="M252.625,170.23333c0,-0.63492 1.82572,-7.64867 4.28435,-11.21043c1.01668,-1.47284 3.66144,-1.66457 3.92398,-1.66457c0.89747,0 1.625,0.72753 1.625,1.625c0,0.89747 -0.72753,1.625 -1.625,1.625c-0.24429,0 -1.96376,-0.80369 -2.88163,0.31305c-2.45418,2.98591 -5.3267,9.96513 -5.3267,9.31195z"/></g></g></svg>