<svg version="1.1" xmlns="http://www.w3.org/2000/svg" xmlns:xlink="http://www.w3.org/1999/xlink" width="34.54631" height="35.1533" viewBox="0,0,34.54631,35.1533"><defs><linearGradient x1="239.55376" y1="162.70764" x2="239.55376" y2="197.14525" gradientUnits="userSpaceOnUse" id="color-1"><stop offset="0" stop-color="#41fae3"/><stop offset="1" stop-color="#41c4fa"/></linearGradient></defs><g transform="translate(-222.33495,-162.70764)"><g data-paper-data="{&quot;isPaintingLayer&quot;:true}" fill-rule="nonzero" stroke-linejoin="miter" stroke-miterlimit="10" stroke-dasharray="" stroke-dashoffset="0" style="mix-blend-mode: normal"><path d="M222.33495,192.71986c0,-7.54232 0,-22.44996 0,-26.3378c0,-1.82046 1.82312,-3.67442 3.62078,-3.67442c4.00587,0 19.87172,0 27.14242,0c2.24806,0 3.67441,2.07203 3.67441,4.04991c0,3.84399 0,17.5304 0,25.15769c0,3.12286 -1.97811,5.23001 -3.88898,5.23001c-3.82487,0 -17.76801,0 -25.4259,0c-3.06468,0 -5.12273,-1.74897 -5.12273,-4.42539z" fill="url(#color-1)" stroke="none" stroke-width="0" stroke-linecap="butt"/><path d="M226.88844,173.25955c0,-4.21034 3.41316,-7.6235 7.6235,-7.6235c4.21034,0 7.6235,3.41316 7.6235,7.6235c0,4.21034 -3.41316,7.6235 -7.6235,7.6235c-4.21034,0 -7.6235,-3.41316 -7.6235,-7.6235z" fill="none" stroke="#ffffff" stroke-width="1.5" stroke-linecap="butt"/><path d="M243.72367,194.74035c0,-4.27613 3.46649,-7.74262 7.74262,-7.74262c1.75174,0 3.36763,0.58174 4.66497,1.56257c0.31811,0.24051 1.03749,5.11368 -0.17858,7.06807c-1.31143,2.10765 -3.7952,1.29443 -5.7509,1.46425c-3.09964,0.26916 -6.1372,0.04063 -6.2944,-0.66807c-0.12027,-0.5422 -0.1837,-1.1058 -0.1837,-1.68421z" fill="none" stroke="#ffffff" stroke-width="1.5" stroke-linecap="butt"/><path d="M239.67369,174.05366c0,0 -0.45871,1.08685 -1.74309,2.54528c-1.17287,1.33181 -3.0216,2.06059 -3.0216,2.06059" fill="none" stroke="#ffffff" stroke-width="1.5" stroke-linecap="round"/><path d="M248.40895,172.30661c0,-1.1403 0.9244,-2.0647 2.0647,-2.0647c1.1403,0 2.0647,0.9244 2.0647,2.0647c0,1.1403 -0.9244,2.0647 -2.0647,2.0647c-1.1403,0 -2.0647,-0.9244 -2.0647,-2.0647z" fill="none" stroke="#ffffff" stroke-width="1" stroke-linecap="butt"/><path d="M226.96786,192.04036c0,-1.55695 1.26216,-2.81911 2.81911,-2.81911c1.55695,0 2.81911,1.26216 2.81911,2.81911c0,1.55695 -1.26216,2.81911 -2.81911,2.81911c-1.55695,0 -2.81911,-1.26216 -2.81911,-2.81911z" fill="none" stroke="#ffffff" stroke-width="1" stroke-linecap="butt"/><path d="M240.62663,182.19334c0,-0.72366 0.58663,-1.31029 1.31029,-1.31029c0.72366,0 1.31029,0.58663 1.31029,1.31029c0,0.72366 -0.58663,1.31029 -1.31029,1.31029c-0.72366,0 -1.31029,-0.58664 -1.31029,-1.31029z" fill="none" stroke="#ffffff" stroke-width="0.5" stroke-linecap="butt"/></g></g></svg>