<svg version="1.1" xmlns="http://www.w3.org/2000/svg" xmlns:xlink="http://www.w3.org/1999/xlink" width="23.54846" height="5.7396" viewBox="0,0,23.54846,5.7396"><g transform="translate(-234.11676,-173.84584)"><g data-paper-data="{&quot;isPaintingLayer&quot;:true}" fill-rule="nonzero" stroke="none" stroke-width="0" stroke-linecap="butt" stroke-linejoin="miter" stroke-miterlimit="10" stroke-dasharray="" stroke-dashoffset="0" style="mix-blend-mode: normal"><path d="M234.11677,176.79611c0,-1.54051 1.24883,-2.78934 2.78934,-2.78934c1.54051,0 2.78934,1.24883 2.78934,2.78934c0,1.54051 -1.24883,2.78934 -2.78934,2.78934c-1.54051,0 -2.78934,-1.24883 -2.78934,-2.78934z" fill="#5c3300"/><path d="M252.08655,176.63518c0,-1.54051 1.24883,-2.78934 2.78934,-2.78934c1.54051,0 2.78934,1.24883 2.78934,2.78934c0,1.54051 -1.24883,2.78934 -2.78934,2.78934c-1.54051,0 -2.78934,-1.24883 -2.78934,-2.78934z" fill="#5c3300"/><path d="M236.6379,176.04514c0,-0.65176 0.52835,-1.1801 1.18011,-1.1801c0.65176,0 1.1801,0.52835 1.1801,1.1801c0,0.65176 -0.52835,1.1801 -1.1801,1.1801c-0.65176,0 -1.18011,-0.52835 -1.18011,-1.1801z" fill="#ffffff"/><path d="M254.71497,175.99149c0,-0.65176 0.52835,-1.1801 1.1801,-1.1801c0.65175,0 1.18011,0.52835 1.18011,1.1801c0,0.65176 -0.52835,1.1801 -1.18011,1.1801c-0.65176,0 -1.1801,-0.52835 -1.1801,-1.1801z" fill="#ffffff"/></g></g></svg>