<svg version="1.1" xmlns="http://www.w3.org/2000/svg" xmlns:xlink="http://www.w3.org/1999/xlink" width="502.5" height="97.08069" viewBox="0,0,502.5,97.08069"><g transform="translate(11,-272.4527)"><g data-paper-data="{&quot;isPaintingLayer&quot;:true}" fill-rule="nonzero" stroke-linejoin="miter" stroke-miterlimit="10" stroke-dasharray="" stroke-dashoffset="0" style="mix-blend-mode: normal"><path d="M-9.83333,367.30007v-65h500v65z" fill="#65d969" stroke="#469949" stroke-width="0" stroke-linecap="butt"/><path d="M-11,369.5334v-53.66667h501v53.66667z" fill="#f56845" stroke="none" stroke-width="0" stroke-linecap="butt"/><path d="M13.16667,329.63338c0,-2.02504 1.64162,-3.66667 3.66667,-3.66667c2.02504,0 3.66667,1.64162 3.66667,3.66667c0,2.02504 -1.64162,3.66667 -3.66667,3.66667c-2.02504,0 -3.66667,-1.64162 -3.66667,-3.66667z" fill="#cb5639" stroke="none" stroke-width="0" stroke-linecap="butt"/><path d="M52.5,344.96673c0,-2.02504 1.64162,-3.66667 3.66667,-3.66667c2.02504,0 3.66667,1.64162 3.66667,3.66667c0,2.02504 -1.64162,3.66667 -3.66667,3.66667c-2.02504,0 -3.66667,-1.64162 -3.66667,-3.66667z" fill="#cb5639" stroke="none" stroke-width="0" stroke-linecap="butt"/><path d="M92.83333,329.80007c0,-1.19662 0.97005,-2.16667 2.16667,-2.16667c1.19662,0 2.16667,0.97005 2.16667,2.16667c0,1.19662 -0.97005,2.16667 -2.16667,2.16667c-1.19662,0 -2.16667,-0.97005 -2.16667,-2.16667z" fill="#cb5639" stroke="none" stroke-width="0" stroke-linecap="butt"/><path d="M6.5,346.6334c0,-2.57733 2.08934,-4.66667 4.66667,-4.66667c2.57733,0 4.66667,2.08934 4.66667,4.66667c0,2.57733 -2.08934,4.66667 -4.66667,4.66667c-2.57733,0 -4.66667,-2.08934 -4.66667,-4.66667z" fill="#cb5639" stroke="none" stroke-width="0" stroke-linecap="butt"/><path d="M95.5,353.6334c0,-2.39323 1.9401,-4.33333 4.33333,-4.33333c2.39323,0 4.33333,1.9401 4.33333,4.33333c0,2.39323 -1.9401,4.33333 -4.33333,4.33333c-2.39323,0 -4.33333,-1.9401 -4.33333,-4.33333z" fill="#cb5639" stroke="none" stroke-width="0" stroke-linecap="butt"/><path d="M123.16667,332.46672c0,-2.11709 1.71624,-3.83333 3.83333,-3.83333c2.11709,0 3.83333,1.71624 3.83333,3.83333c0,2.11709 -1.71624,3.83333 -3.83333,3.83333c-2.11709,0 -3.83333,-1.71624 -3.83333,-3.83333z" fill="#cb5639" stroke="none" stroke-width="0" stroke-linecap="butt"/><path d="M162.5,347.30007c0,-4.23418 3.43248,-7.66667 7.66667,-7.66667c4.23418,0 7.66667,3.43248 7.66667,7.66667c0,4.23418 -3.43248,7.66667 -7.66667,7.66667c-4.23418,0 -7.66667,-3.43248 -7.66667,-7.66667z" fill="#cb5639" stroke="none" stroke-width="0" stroke-linecap="butt"/><path d="M203.5,331.46672c0,-2.30119 1.86548,-4.16667 4.16667,-4.16667c2.30119,0 4.16667,1.86548 4.16667,4.16667c0,2.30119 -1.86548,4.16667 -4.16667,4.16667c-2.30119,0 -4.16667,-1.86548 -4.16667,-4.16667z" fill="#cb5639" stroke="none" stroke-width="0" stroke-linecap="butt"/><path d="M234.5,351.80007c0,-4.69442 3.80558,-8.5 8.5,-8.5c4.69442,0 8.5,3.80558 8.5,8.5c0,4.69442 -3.80558,8.5 -8.5,8.5c-4.69442,0 -8.5,-3.80558 -8.5,-8.5z" fill="#cb5639" stroke="none" stroke-width="0" stroke-linecap="butt"/><path d="M274.16667,330.30007c0,-1.47276 1.19391,-2.66667 2.66667,-2.66667c1.47276,0 2.66667,1.19391 2.66667,2.66667c0,1.47276 -1.19391,2.66667 -2.66667,2.66667c-1.47276,0 -2.66667,-1.19391 -2.66667,-2.66667z" fill="#cb5639" stroke="none" stroke-width="0" stroke-linecap="butt"/><path d="M307.16667,337.6334c0,-3.4978 2.83553,-6.33333 6.33333,-6.33333c3.4978,0 6.33333,2.83553 6.33333,6.33333c0,3.4978 -2.83553,6.33333 -6.33333,6.33333c-3.4978,0 -6.33333,-2.83553 -6.33333,-6.33333z" fill="#cb5639" stroke="none" stroke-width="0" stroke-linecap="butt"/><path d="M356.5,328.63338c0,-2.94552 2.38781,-5.33333 5.33333,-5.33333c2.94552,0 5.33333,2.38781 5.33333,5.33333c0,2.94552 -2.38781,5.33333 -5.33333,5.33333c-2.94552,0 -5.33333,-2.38781 -5.33333,-5.33333z" fill="#cb5639" stroke="none" stroke-width="0" stroke-linecap="butt"/><path d="M355.5,356.6334c0,-2.94552 2.38781,-5.33333 5.33333,-5.33333c2.94552,0 5.33333,2.38781 5.33333,5.33333c0,2.94552 -2.38781,5.33333 -5.33333,5.33333c-2.94552,0 -5.33333,-2.38781 -5.33333,-5.33333z" fill="#cb5639" stroke="none" stroke-width="0" stroke-linecap="butt"/><path d="M409.16667,338.46673c0,-2.66938 2.16396,-4.83333 4.83333,-4.83333c2.66938,0 4.83333,2.16396 4.83333,4.83333c0,2.66938 -2.16396,4.83333 -4.83333,4.83333c-2.66938,0 -4.83333,-2.16396 -4.83333,-4.83333z" fill="#cb5639" stroke="none" stroke-width="0" stroke-linecap="butt"/><path d="M392.5,357.96673c0,-2.57733 2.08934,-4.66667 4.66667,-4.66667c2.57733,0 4.66667,2.08934 4.66667,4.66667c0,2.57733 -2.08934,4.66667 -4.66667,4.66667c-2.57733,0 -4.66667,-2.08934 -4.66667,-4.66667z" fill="#cb5639" stroke="none" stroke-width="0" stroke-linecap="butt"/><path d="M443.83333,338.96673c0,-1.28866 1.04467,-2.33333 2.33333,-2.33333c1.28866,0 2.33333,1.04467 2.33333,2.33333c0,1.28866 -1.04467,2.33333 -2.33333,2.33333c-1.28866,0 -2.33333,-1.04467 -2.33333,-2.33333z" fill="#cb5639" stroke="none" stroke-width="0" stroke-linecap="butt"/><path d="M469.83333,326.46672c0,-2.48528 2.01472,-4.5 4.5,-4.5c2.48528,0 4.5,2.01472 4.5,4.5c0,2.48528 -2.01472,4.5 -4.5,4.5c-2.48528,0 -4.5,-2.01472 -4.5,-4.5z" fill="#cb5639" stroke="none" stroke-width="0" stroke-linecap="butt"/><path d="M-9.5,302.3167h500" fill="none" stroke="#469949" stroke-width="2" stroke-linecap="round"/><path d="M473.83333,353.96673c0,-2.76142 2.23858,-5 5,-5c2.76142,0 5,2.23858 5,5c0,2.76142 -2.23858,5 -5,5c-2.76142,0 -5,-2.23858 -5,-5z" fill="#cb5639" stroke="none" stroke-width="0" stroke-linecap="butt"/><path d="M200.43244,277.10145c0,-1.51563 1.74702,-4.64874 4.70908,-4.64874c15.11506,0 61.86949,0.09437 69.58324,0.09437c2.11172,0 3.89264,2.18117 3.89264,4.08254c0,2.33638 -2.11493,4.9964 -4.53918,4.9964c-3.79734,0 -15.77851,0 -29.00417,0c-0.99782,0 -11.71625,0 -12.83874,0c-10.82787,0 -21.01148,0 -26.81666,0c-3.12918,0 -4.98618,-3.01389 -4.98618,-4.52457z" fill="#d37b48" stroke="none" stroke-width="0" stroke-linecap="butt"/><path d="M233.93245,310.81383v-29.28054h9.49364v29.28054c0,0 -1.6306,-0.95092 -2.43427,-0.95092c-0.84422,0 -2.51541,0.95092 -2.51541,0.95092c0,0 -1.51465,-0.79244 -2.27197,-0.79244c-0.75733,0 -2.27197,0.79244 -2.27197,0.79244z" fill="#d37b48" stroke="none" stroke-width="0" stroke-linecap="butt"/><path d="M231.89182,310.54254c0,0 1.44833,0 2.60701,0c0.42146,0 1.13721,-1.10327 1.95738,-1.02255c0.76492,0.07527 1.62066,1.3349 2.41318,1.3349c0.87226,0 1.38767,-1.30774 2.15208,-1.41166c0.63104,-0.08579 1.52948,1.02684 2.07765,1.04165c1.0944,0.02956 1.82773,0.05768 1.82773,0.05768" fill="none" stroke="#469949" stroke-width="1.5" stroke-linecap="round"/></g></g></svg>