<svg version="1.1" xmlns="http://www.w3.org/2000/svg" xmlns:xlink="http://www.w3.org/1999/xlink" width="49.25951" height="35.40684" viewBox="0,0,49.25951,35.40684"><defs><linearGradient x1="209.41716" y1="179.59147" x2="226.32351" y2="179.59147" gradientUnits="userSpaceOnUse" id="color-1"><stop offset="0" stop-color="#b3fb49"/><stop offset="1" stop-color="#87d51a"/></linearGradient></defs><g transform="translate(-208.84235,-162.21307)"><g data-paper-data="{&quot;isPaintingLayer&quot;:true}" fill-rule="nonzero" stroke-linejoin="miter" stroke-miterlimit="10" stroke-dasharray="" stroke-dashoffset="0" style="mix-blend-mode: normal"><path d="M214.92428,170.05284c2.09675,1.76316 11.39924,9.58563 11.39924,9.58563c0,0 -8.88064,7.46774 -11.07459,9.31264c-0.9276,0.78002 -1.97969,0.78018 -1.97969,-0.62033c0,-1.26877 2.69881,-3.87972 2.0225,-6.08382c-0.30359,-0.98941 -5.93416,-2.20088 -5.8741,-3.5988c0.0465,-1.08238 5.7227,-2.43058 5.92411,-2.90176c0.71286,-1.66761 -2.07252,-4.69209 -2.07252,-4.95408c0,-1.06997 0.85611,-1.4113 1.65505,-0.73947z" fill="url(#color-1)" stroke="none" stroke-width="0" stroke-linecap="butt"/><path d="M222.85465,192.86686c0,-7.54232 0,-22.44996 0,-26.3378c0,-1.82046 1.82312,-3.67442 3.62078,-3.67442c4.00587,0 19.87172,0 27.14242,0c2.24806,0 3.67441,2.07203 3.67441,4.04991c0,3.84399 0,17.5304 0,25.15769c0,3.12286 -1.97811,5.23001 -3.88898,5.23001c-3.82487,0 -17.76801,0 -25.4259,0c-3.06468,0 -5.12273,-1.74897 -5.12273,-4.42539z" fill="#f7a431" stroke="none" stroke-width="0" stroke-linecap="butt"/><path d="M248.08242,164.15275v20.14286" fill="none" stroke="#f78831" stroke-width="2.5" stroke-linecap="round"/><path d="M240.22528,164.15275v19.85715" fill="none" stroke="#f78831" stroke-width="2.5" stroke-linecap="round"/><path d="M231.7967,164.15275v20.42857" fill="none" stroke="#f78831" stroke-width="2.5" stroke-linecap="round"/><path d="M222.88462,176.94616c0,0 -7.79791,-7.54197 -8.77433,-6.82523c-0.5024,0.36878 0.82858,2.66262 1.14675,4.79602c0.11492,0.77054 -5.72463,2.86562 -5.66422,3.62498c0.10903,1.3706 3.31389,2.4852 5.59714,4.07648c0.57612,0.40152 -1.98806,6.29963 -1.54523,6.72501c1.24029,1.19141 9.39372,-6.70495 9.39372,-6.70495" fill="none" stroke="#7fc223" stroke-width="1.5" stroke-linecap="round"/><path d="M222.96154,174.1c0,0 -0.35629,-2.84715 -0.01336,-5.77979c0.23234,-1.98693 0.53598,-4.13794 2.44934,-4.98906c2.0652,-0.91867 23.55424,0.00026 27.40404,-0.37155c1.48717,-0.14363 4.13974,1.12337 4.17635,5.18315c0.01215,1.34703 0.39773,20.93736 0.37396,23.81197c-0.0314,3.79573 -0.43573,4.39035 -2.57744,4.82907c-3.38484,0.69338 -25.61132,0.8693 -29.2964,0.08612c-2.25651,-0.47957 -2.74726,-11.693 -2.74726,-11.693" fill="none" stroke="#f78831" stroke-width="1.5" stroke-linecap="round"/></g></g></svg>