<svg version="1.1" xmlns="http://www.w3.org/2000/svg" xmlns:xlink="http://www.w3.org/1999/xlink" width="485" height="373" viewBox="0,0,485,373"><defs><linearGradient x1="240" y1="635.20142" x2="240" y2="-6.5" gradientUnits="userSpaceOnUse" id="color-1"><stop offset="0" stop-color="#000000"/><stop offset="1" stop-color="#000000" stop-opacity="0"/></linearGradient><linearGradient x1="240" y1="-275.20142" x2="240" y2="366.5" gradientUnits="userSpaceOnUse" id="color-2"><stop offset="0" stop-color="#000000"/><stop offset="1" stop-color="#000000" stop-opacity="0"/></linearGradient><linearGradient x1="240" y1="-275.20142" x2="240" y2="366.5" gradientUnits="userSpaceOnUse" id="color-3"><stop offset="0" stop-color="#000000"/><stop offset="1" stop-color="#000000" stop-opacity="0"/></linearGradient><linearGradient x1="240" y1="635.20142" x2="240" y2="-6.5" gradientUnits="userSpaceOnUse" id="color-4"><stop offset="0" stop-color="#000000"/><stop offset="1" stop-color="#000000" stop-opacity="0"/></linearGradient></defs><g transform="translate(2.5,6.5)"><g data-paper-data="{&quot;isPaintingLayer&quot;:true}" fill-rule="nonzero" stroke-linejoin="miter" stroke-miterlimit="10" stroke-dasharray="" stroke-dashoffset="0" style="mix-blend-mode: normal"><path d="M482.5,-6.5v373h-485v-373zM189.125,272.93334l1.19318,0.68182l0.68182,1.19318l2.5,0.625h3.66666l0.77975,-0.19494l82.22734,-2.1384l0.04673,0.03115l0.14019,-0.03115h0.13932l1.11456,-0.27864l1.12151,-0.24923l0.12461,-0.0623l0.13932,-0.03483l0.02787,-0.04876l0.37487,-0.18743l1.95656,-1.67705l0.07623,-1.37214l0.76229,-1.14344l-0.35841,-1.61284l0.04862,-0.21877l0.08411,-67.68396l-1,-2l-0.85389,-0.99622l-0.08271,-0.30325l-0.23129,-0.06308l-0.50916,-0.59402l-2.09582,-0.11643l-2.02509,-0.5523l-0.67087,0.40252l-0.23937,-0.0133l-0.17435,0.26154l-0.351,0.2106h-3.57901l-0.04673,-0.03116l-0.14019,0.03116h-0.13932l-1.11456,0.27864l-0.24612,0.05469l-78.30599,-2.33333c-0.85223,0 -1.65466,0.21321 -2.35686,0.58921l-0.14314,0.03579l-0.03767,0.06592c-1.4737,0.86975 -2.504,79.47574 -2.504,79.47574z" data-paper-data="{&quot;index&quot;:null}" fill="url(#color-1)" stroke="none" stroke-width="0" stroke-linecap="butt"/><path d="M-2.5,366.5v-373h485v373zM189.125,272.93334l1.19318,0.68182l0.68182,1.19318l2.5,0.625h3.66666l0.77975,-0.19494l82.22734,-2.1384l0.04673,0.03115l0.14019,-0.03115h0.13932l1.11456,-0.27864l1.12151,-0.24923l0.12461,-0.0623l0.13932,-0.03483l0.02787,-0.04876l0.37487,-0.18743l1.95656,-1.67705l0.07623,-1.37214l0.76229,-1.14344l-0.35841,-1.61284l0.04862,-0.21877l0.08411,-67.68396l-1,-2l-0.85389,-0.99622l-0.08271,-0.30325l-0.23129,-0.06308l-0.50916,-0.59402l-2.09582,-0.11643l-2.02509,-0.5523l-0.67087,0.40252l-0.23937,-0.0133l-0.17435,0.26154l-0.351,0.2106h-3.57901l-0.04673,-0.03116l-0.14019,0.03116h-0.13932l-1.11456,0.27864l-0.24612,0.05469l-78.30599,-2.33333c-0.85223,0 -1.65466,0.21321 -2.35686,0.58921l-0.14314,0.03579l-0.03767,0.06592c-1.4737,0.86975 -2.504,79.47574 -2.504,79.47574z" fill="url(#color-2)" stroke="none" stroke-width="0" stroke-linecap="butt"/><path d="M304.66667,161.92427c0,-12.75946 0,-34.02004 0,-41.80501c0,-6.07449 6.27961,-11.45257 16.0279,-11.45257c19.61584,0 93.38855,0 124.25751,0c6.71288,0 13.71459,3.92651 13.71459,9.70027c0,13.32513 0,36.48926 0,43.93281c0,4.53725 -5.8567,9.70027 -15.20171,9.70027c-32.38139,0 -106.64655,0 -124.25751,0c-7.32772,0 -14.54078,-4.10807 -14.54078,-10.07576z" fill="#fff6e6" stroke="#774c3f" stroke-width="1.5" stroke-linecap="butt"/><text transform="translate(311.53483,135.69909) scale(0.38619,0.38619)" font-size="40" xml:space="preserve" fill="#5b3f2f" fill-rule="nonzero" stroke="#5b3f2f" stroke-width="2" stroke-linecap="butt" stroke-linejoin="miter" stroke-miterlimit="10" stroke-dasharray="" stroke-dashoffset="0" font-family="Sans Serif" font-weight="normal" text-anchor="start" style="mix-blend-mode: normal"><tspan x="0" dy="0">Click on the player </tspan><tspan x="0" dy="48px"> to start the game</tspan></text><g fill="none" stroke="#774c3f" stroke-width="7.5" stroke-linecap="round"><path d="M276.35661,188.42162c0,0 -0.24068,-17.48003 15.20289,-22.34095c13.88568,-4.37056 23.74433,-2.27465 23.74433,-2.27465"/><path d="M291.7258,186.65935c0,0 -12.83935,7.27139 -17.10106,5.83082c-4.15647,-1.405 -8.16136,-14.37022 -8.16136,-14.37022"/></g><path d="" fill="url(#color-3)" stroke="none" stroke-width="0" stroke-linecap="butt"/><path d="" data-paper-data="{&quot;index&quot;:null}" fill="url(#color-4)" stroke="none" stroke-width="0" stroke-linecap="butt"/><path d="M189.58334,273.85001v-80.75h96v80.75z" fill="none" stroke="#774c3f" stroke-width="5" stroke-linecap="butt"/><text transform="translate(331.2015,119.22175) scale(0.22478,0.22478)" font-size="40" xml:space="preserve" fill="#5b3f2f" fill-rule="nonzero" stroke="#5b3f2f" stroke-width="1" stroke-linecap="butt" stroke-linejoin="miter" stroke-miterlimit="10" stroke-dasharray="" stroke-dashoffset="0" font-family="Sans Serif" font-weight="normal" text-anchor="start" style="mix-blend-mode: normal"><tspan x="0" dy="0">[Click to the next page]</tspan></text></g></g></svg>