<svg version="1.1" xmlns="http://www.w3.org/2000/svg" xmlns:xlink="http://www.w3.org/1999/xlink" width="34.49031" height="34.43761" viewBox="0,0,34.49031,34.43761"><g transform="translate(-222.75484,-162.78119)"><g data-paper-data="{&quot;isPaintingLayer&quot;:true}" fill-rule="nonzero" stroke="none" stroke-width="0" stroke-linecap="butt" stroke-linejoin="miter" stroke-miterlimit="10" stroke-dasharray="" stroke-dashoffset="0" style="mix-blend-mode: normal"><path d="M222.80754,192.79342c0,-7.54232 0,-22.44996 0,-26.3378c0,-1.82046 1.82312,-3.67442 3.62078,-3.67442c4.00587,0 19.87172,0 27.14242,0c2.24806,0 3.67441,2.07203 3.67441,4.04991c0,3.84399 0,17.5304 0,25.15769c0,3.12286 -1.97811,5.23001 -3.88898,5.23001c-3.82487,0 -17.76801,0 -25.4259,0c-3.06468,0 -5.12273,-1.74897 -5.12273,-4.42539z" fill="#fafafa"/><path d="M222.75485,174.95943v-6.1c0,0 8.27876,3.3109 12.50063,3.89547c2.84217,0.39353 7.19594,-0.45039 11.29936,-0.39497c4.5363,0.06126 8.70001,0.9995 8.70001,0.9995c0,0 -4.57551,0.57373 -9.03487,1.74744c-4.16519,1.09627 -8.12698,2.79253 -10.96612,2.9323c-4.67756,0.23028 -12.499,-3.07974 -12.499,-3.07974z" fill="#565656"/><path d="M222.75484,183.65942v-4.8c0,0 9.88684,2.37967 13.70812,2.4752c4.15134,0.10378 10.29188,-1.8752 10.29188,-1.8752c0,0 -2.39519,5.11666 -11.81401,4.91995c-4.04043,-0.08438 -12.18599,-0.71995 -12.18599,-0.71995z" fill="#565656"/><path d="M222.85484,192.45942v-5.9c0,0 6.70645,2.01035 10.99974,1.89072c2.36486,-0.06589 5.92828,-2.22258 9.72003,-2.74808c5.72171,-0.79297 11.58023,-0.04264 11.58023,-0.04264c0,0 -6.2451,1.48114 -11.50251,3.45913c-3.00375,1.13009 -4.94417,2.96123 -7.08264,3.41143c-4.52637,0.95292 -13.71485,-0.07056 -13.71485,-0.07056z" fill="#565656"/></g></g></svg>