<svg version="1.1" xmlns="http://www.w3.org/2000/svg" xmlns:xlink="http://www.w3.org/1999/xlink" width="34.14127" height="34.34202" viewBox="0,0,34.14127,34.34202"><g transform="translate(-222.95044,-162.95042)"><g data-paper-data="{&quot;isPaintingLayer&quot;:true}" fill-rule="nonzero" stroke-linejoin="miter" stroke-miterlimit="10" stroke-dasharray="" stroke-dashoffset="0" style="mix-blend-mode: normal"><path d="M222.95045,192.66769c0,-7.4682 0,-22.22932 0,-26.07895c0,-1.80256 1.8052,-3.63831 3.5852,-3.63831c3.96649,0 19.67642,0 26.87566,0c2.22596,0 3.63829,2.05166 3.63829,4.0101c0,3.80621 0,17.35811 0,24.91043c0,3.09217 -1.95867,5.17861 -3.85076,5.17861c-3.78728,0 -17.59338,0 -25.17601,0c-3.03456,0 -5.07238,-1.73179 -5.07238,-4.3819z" fill="#1c7e3d" stroke="none" stroke-width="0" stroke-linecap="butt"/><path d="M245.76451,186.56555c0,0 0.30769,-1.69881 0.23077,-2.61538c-0.06915,-0.82393 -2.07692,-2.69231 -2.07692,-2.69231h4.99999c0,0 -1.07692,1.71164 -1.07692,2.53846c0,0.83964 1,2.30769 1,2.30769z" fill="#16622f" stroke="none" stroke-width="0" stroke-linecap="butt"/><path d="M254.0703,197.03024c-0.76594,0.28739 -27.46921,0.44241 -28.87951,-0.09494c-2.49778,-0.95171 -2.01366,-1.90076 -2.01366,-2.9124c0,-3.06409 16.08502,-6.38954 25.51429,-6.38954c9.42927,0 8.36412,3.02377 8.36412,6.08786c0,0 -0.69902,2.45121 -2.98524,3.30902z" fill="#16622f" stroke="none" stroke-width="0" stroke-linecap="butt"/><path d="M228.45679,195.10402c0,0 -0.76216,-2.47552 0,-3c0.76923,-0.52935 0,-2.15385 0,-2.15385" fill="none" stroke="#000000" stroke-width="0.5" stroke-linecap="round"/><path d="M231.2255,196.2835c0,0 -1.01621,-3.30069 0,-4c1.02564,-0.70579 0,-2.8718 0,-2.8718" fill="none" stroke="#000000" stroke-width="0.5" stroke-linecap="round"/><path d="M233.76396,195.89889c0,0 -1.01621,-3.30069 0,-4c1.02564,-0.7058 0,-2.8718 0,-2.8718" fill="none" stroke="#000000" stroke-width="0.5" stroke-linecap="round"/><path d="M255.69122,188.10401c0,0 -1.02564,2.16601 0,2.8718c1.01622,0.69931 0,4 0,4" data-paper-data="{&quot;index&quot;:null}" fill="none" stroke="#000000" stroke-width="0.5" stroke-linecap="round"/></g></g></svg>