<svg version="1.1" xmlns="http://www.w3.org/2000/svg" xmlns:xlink="http://www.w3.org/1999/xlink" width="34.43761" height="34.43761" viewBox="0,0,34.43761,34.43761"><g transform="translate(-222.78119,-162.78119)"><g data-paper-data="{&quot;isPaintingLayer&quot;:true}" fill-rule="nonzero" stroke="none" stroke-width="0" stroke-linecap="butt" stroke-linejoin="miter" stroke-miterlimit="10" stroke-dasharray="" stroke-dashoffset="0" style="mix-blend-mode: normal"><path d="M222.7812,192.79342c0,-7.54232 0,-22.44996 0,-26.3378c0,-1.82046 1.82312,-3.67442 3.62078,-3.67442c4.00587,0 19.87172,0 27.14242,0c2.24806,0 3.67441,2.07203 3.67441,4.04991c0,3.84399 0,17.5304 0,25.15769c0,3.12286 -1.97811,5.23001 -3.88898,5.23001c-3.82487,0 -17.76801,0 -25.4259,0c-3.06468,0 -5.12273,-1.74897 -5.12273,-4.42539z" fill="#ffbb3e"/><path d="M226.83334,174.16667c0,-2.57733 2.08934,-4.66666 4.66666,-4.66666c2.57733,0 4.66666,2.08934 4.66666,4.66666c0,2.57733 -2.08934,4.66666 -4.66666,4.66666c-2.57733,0 -4.66666,-2.08934 -4.66666,-4.66666z" fill="#ffac1a"/><path d="M247.83334,169.66667c0,-1.47276 1.19391,-2.66666 2.66666,-2.66666c1.47276,0 2.66666,1.19391 2.66666,2.66666c0,1.47276 -1.19391,2.66666 -2.66666,2.66666c-1.47276,0 -2.66666,-1.19391 -2.66666,-2.66666z" fill="#ffac1a"/><path d="M240.16667,184.91667c0,-3.08359 2.49975,-5.58334 5.58334,-5.58334c3.08359,0 5.58334,2.49975 5.58334,5.58334c0,3.08359 -2.49975,5.58334 -5.58334,5.58334c-3.08359,0 -5.58334,-2.49975 -5.58334,-5.58334z" fill="#ffac1a"/><path d="M228.5,190c0,-1.65686 1.34314,-3 3,-3c1.65686,0 3,1.34314 3,3c0,1.65686 -1.34314,3 -3,3c-1.65686,0 -3,-1.34314 -3,-3z" fill="#ffac1a"/><path d="M227.21594,173.49853c0,-2.57733 2.08934,-4.66666 4.66667,-4.66666c2.57733,0 4.66666,2.08934 4.66666,4.66666c0,2.57733 -2.08934,4.66667 -4.66666,4.66667c-2.57733,0 -4.66667,-2.08934 -4.66667,-4.66667z" fill="#fb9502"/><path d="M248.21594,168.99853c0,-1.47276 1.19391,-2.66666 2.66667,-2.66666c1.47276,0 2.66666,1.19391 2.66666,2.66666c0,1.47276 -1.19391,2.66667 -2.66666,2.66667c-1.47276,0 -2.66667,-1.19391 -2.66667,-2.66667z" fill="#fb9502"/><path d="M240.54927,184.24853c0,-3.08359 2.49975,-5.58333 5.58334,-5.58333c3.08359,0 5.58333,2.49974 5.58333,5.58333c0,3.08359 -2.49974,5.58334 -5.58333,5.58334c-3.08359,0 -5.58334,-2.49975 -5.58334,-5.58334z" fill="#fb9502"/><path d="M228.88261,189.33187c0,-1.65686 1.34314,-3 3,-3c1.65686,0 3,1.34314 3,3c0,1.65686 -1.34314,3 -3,3c-1.65686,0 -3,-1.34314 -3,-3z" fill="#fb9502"/><path d="M222.7812,193.62675c0,-0.16299 8.57979,1.99192 17.76884,2.01949c10.77124,0.03231 16.66877,-2.05801 16.66877,-1.99077c0,3.12286 -1.97811,3.56334 -3.88898,3.56334c-3.82487,0 -17.76801,0 -25.4259,0c-3.06468,0 -5.12273,-0.91564 -5.12273,-3.59206z" fill="#e99903"/></g></g></svg>