<svg version="1.1" xmlns="http://www.w3.org/2000/svg" xmlns:xlink="http://www.w3.org/1999/xlink" width="691.67044" height="596.3342" viewBox="0,0,691.67044,596.3342"><defs><linearGradient x1="-20.48636" y1="296.4792" x2="345.77646" y2="181.12086" gradientUnits="userSpaceOnUse" id="color-1"><stop offset="0" stop-color="#ffffff" stop-opacity="0"/><stop offset="1" stop-color="#ffffff"/></linearGradient><radialGradient cx="195.8505" cy="246.55325" r="35.21719" gradientUnits="userSpaceOnUse" id="color-2"><stop offset="0" stop-color="#df943a"/><stop offset="1" stop-color="#8c5d24"/></radialGradient></defs><g transform="translate(42.96052,10.69991)"><g data-paper-data="{&quot;isPaintingLayer&quot;:true}" stroke-dasharray="" stroke-dashoffset="0" style="mix-blend-mode: normal"><path d="M-8.5,364.3001v-375h502v375z" fill="#77d2ff" fill-rule="nonzero" stroke="none" stroke-width="NaN" stroke-linecap="butt" stroke-linejoin="miter" stroke-miterlimit="10"/><g fill="#ffffff" fill-rule="nonzero" stroke="none" stroke-width="0" stroke-linecap="butt" stroke-linejoin="miter" stroke-miterlimit="10"><g><path d="M351.46994,60.31913c0,-8.53866 6.92195,-15.4606 15.4606,-15.4606c8.53864,0 15.4606,6.92195 15.4606,15.4606c0,8.53866 -6.92195,15.4606 -15.4606,15.4606c-8.53864,0 -15.4606,-6.92195 -15.4606,-15.4606z"/><path d="M372.54012,52.65724c0,-10.20104 8.2696,-18.47061 18.47063,-18.47061c10.20104,0 18.47061,8.26958 18.47061,18.47061c0,10.20104 -8.26958,18.47061 -18.47061,18.47061c-10.20104,0 -18.47063,-8.26958 -18.47063,-18.47061z"/><path d="M334.77797,64.83417c0,-6.64958 5.39053,-12.04011 12.04011,-12.04011c6.64956,0 12.04011,5.39053 12.04011,12.04011c0,6.64956 -5.39053,12.04011 -12.04011,12.04011c-6.64956,0 -12.04011,-5.39053 -12.04011,-12.04011z"/><path d="M414.8173,76.87426c-8.53866,0 -15.4606,-6.92193 -15.4606,-15.4606c0,-8.53866 6.92195,-15.4606 15.4606,-15.4606c8.53866,0 15.4606,6.92193 15.4606,15.4606c0,8.53866 -6.92195,15.4606 -15.4606,15.4606z" data-paper-data="{&quot;index&quot;:null}"/><path d="M433.83518,77.1479c-4.83606,0 -8.75644,-3.9204 -8.75644,-8.75644c0,-4.83606 3.9204,-8.75646 8.75644,-8.75646c4.83606,0 8.75646,3.9204 8.75646,8.75646c0,4.83606 -3.9204,8.75644 -8.75646,8.75644z" data-paper-data="{&quot;index&quot;:null}"/><path d="M346.81806,76.87426v-10.67191h90.3008v10.67191z"/></g><g><path d="M33.54282,43.36643c0,-7.32131 5.93509,-13.25643 13.25643,-13.25643c7.32131,0 13.25643,5.93511 13.25643,13.25643c0,7.32131 -5.93509,13.25643 -13.25643,13.25643c-7.32131,0 -13.25643,-5.93509 -13.25643,-13.25643z"/><path d="M51.6091,36.79684c0,-8.74671 7.09062,-15.83733 15.83733,-15.83733c8.74671,0 15.83733,7.09062 15.83733,15.83733c0,8.74671 -7.09062,15.83733 -15.83733,15.83733c-8.74671,0 -15.83733,-7.0906 -15.83733,-15.83733z"/><path d="M19.23057,47.23776c0,-5.70157 4.62203,-10.32359 10.32359,-10.32359c5.70157,0 10.32359,4.62203 10.32359,10.32359c0,5.70157 -4.62203,10.32359 -10.32359,10.32359c-5.70157,0 -10.32359,-4.62203 -10.32359,-10.32359z"/><path d="M87.85899,57.56135c-7.32133,0 -13.25643,-5.93509 -13.25643,-13.25643c0,-7.32131 5.93509,-13.25643 13.25643,-13.25643c7.32133,0 13.25643,5.93511 13.25643,13.25643c0,7.32131 -5.93509,13.25643 -13.25643,13.25643z" data-paper-data="{&quot;index&quot;:null}"/><path d="M104.16556,57.796c-4.14659,0 -7.50806,-3.36147 -7.50806,-7.50806c0,-4.14659 3.36147,-7.50808 7.50806,-7.50808c4.14659,0 7.50808,3.36149 7.50808,7.50808c0,4.14659 -3.36149,7.50806 -7.50808,7.50806z" data-paper-data="{&quot;index&quot;:null}"/><path d="M29.55416,57.56135v-9.15045h77.42693v9.15045z"/></g><g><path d="M136.21365,141.91511c0,-9.85018 7.98514,-17.83534 17.83532,-17.83534c9.85018,0 17.83534,7.98516 17.83534,17.83534c0,9.85018 -7.98516,17.83532 -17.83534,17.83532c-9.85018,0 -17.83532,-7.98516 -17.83532,-17.83532z"/><path d="M160.52019,133.07638c0,-11.76791 9.53977,-21.30768 21.30768,-21.30768c11.76791,0 21.30768,9.53977 21.30768,21.30768c0,11.76791 -9.53977,21.30768 -21.30768,21.30768c-11.76791,0 -21.30768,-9.53977 -21.30768,-21.30768z"/><path d="M116.95783,147.12366c0,-7.67093 6.21851,-13.88944 13.88944,-13.88944c7.67093,0 13.88944,6.21851 13.88944,13.88944c0,7.67093 -6.21851,13.88944 -13.88944,13.88944c-7.67093,0 -13.88944,-6.21851 -13.88944,-13.88944z"/><path d="M209.29112,161.01316c-9.85018,0 -17.83532,-7.98514 -17.83532,-17.83532c0,-9.85018 7.98514,-17.83532 17.83532,-17.83532c9.85018,0 17.83532,7.98516 17.83532,17.83532c0,9.85018 -7.98514,17.83532 -17.83532,17.83532z" data-paper-data="{&quot;index&quot;:null}"/><path d="M231.23015,161.3288c-5.57884,0 -10.10142,-4.52255 -10.10142,-10.10142c0,-5.57884 4.52255,-10.10142 10.10142,-10.10142c5.57884,0 10.10142,4.52255 10.10142,10.10142c0,5.57884 -4.52255,10.10142 -10.10142,10.10142z" data-paper-data="{&quot;index&quot;:null}"/><path d="M130.84727,161.01316v-12.31111h104.1709v12.31111z"/></g><g><path d="M324.90724,204.78068c0,-10.84638 8.79275,-19.63913 19.63913,-19.63913c10.84638,0 19.63911,8.79275 19.63911,19.63913c0,10.84638 -8.79275,19.63913 -19.63911,19.63913c-10.84638,0 -19.63913,-8.79275 -19.63913,-19.63913z"/><path d="M351.67208,195.04804c0,-12.95808 10.50461,-23.46268 23.46268,-23.46268c12.95808,0 23.46268,10.50461 23.46268,23.46268c0,12.95808 -10.50461,23.46266 -23.46268,23.46266c-12.95808,0 -23.46268,-10.50461 -23.46268,-23.46266z"/><path d="M303.70394,210.516c0,-8.44674 6.84744,-15.29418 15.29418,-15.29418c8.44674,0 15.29418,6.84744 15.29418,15.29418c0,8.44674 -6.84744,15.29418 -15.29418,15.29418c-8.44674,0 -15.29418,-6.84744 -15.29418,-15.29418z"/><path d="M405.37554,225.81021c-10.8464,0 -19.63911,-8.79273 -19.63911,-19.63911c0,-10.8464 8.79273,-19.63911 19.63911,-19.63911c10.8464,0 19.63911,8.79273 19.63911,19.63911c0,10.8464 -8.79273,19.63911 -19.63911,19.63911z" data-paper-data="{&quot;index&quot;:null}"/><path d="M429.53339,226.15779c-6.14309,0 -11.12305,-4.97996 -11.12305,-11.12305c0,-6.14309 4.97996,-11.12305 11.12305,-11.12305c6.14309,0 11.12305,4.97996 11.12305,11.12305c0,6.14309 -4.97996,11.12305 -11.12305,11.12305z" data-paper-data="{&quot;index&quot;:null}"/><path d="M318.99812,225.81021v-13.5562h114.70641v13.5562z"/></g><g><path d="M45.97176,250.58313c0,-7.24468 5.87299,-13.11767 13.11767,-13.11767c7.24468,0 13.11767,5.87299 13.11767,13.11767c0,7.24468 -5.87299,13.11767 -13.11767,13.11767c-7.24468,0 -13.11767,-5.87299 -13.11767,-13.11767z"/><path d="M63.84896,244.08235c0,-8.65517 7.0164,-15.67157 15.67157,-15.67157c8.65516,0 15.67157,7.0164 15.67157,15.67157c0,8.65517 -7.0164,15.67155 -15.67157,15.67155c-8.65516,0 -15.67157,-7.0164 -15.67157,-15.67155z"/><path d="M31.80932,254.41396c0,-5.64189 4.57366,-10.21555 10.21555,-10.21555c5.64189,0 10.21555,4.57366 10.21555,10.21555c0,5.64189 -4.57366,10.21555 -10.21555,10.21555c-5.64189,0 -10.21555,-4.57364 -10.21555,-10.21555z"/><path d="M99.71943,264.62947c-7.2447,0 -13.11767,-5.87299 -13.11767,-13.11767c0,-7.2447 5.87299,-13.11767 13.11767,-13.11767c7.2447,0 13.11767,5.87297 13.11767,13.11767c0,7.2447 -5.87299,13.11767 -13.11767,13.11767z" data-paper-data="{&quot;index&quot;:null}"/><path d="M115.85531,264.86163c-4.10318,0 -7.42948,-3.32629 -7.42948,-7.42948c0,-4.10318 3.32629,-7.4295 7.42948,-7.4295c4.10318,0 7.4295,3.32629 7.4295,7.4295c0,4.10318 -3.32629,7.42948 -7.4295,7.42948z" data-paper-data="{&quot;index&quot;:null}"/><path d="M42.02486,264.62947v-9.05468h76.6165v9.05468z"/></g><g><path d="M243.97899,53.7129c0,-11.76779 9.53969,-21.30749 21.30749,-21.30749c11.76779,0 21.30749,9.53969 21.30749,21.30749c0,11.76779 -9.53969,21.30749 -21.30749,21.30749c-11.76779,0 -21.30749,-9.5397 -21.30749,-21.30749z"/><path d="M273.01752,43.15343c0,-14.05889 11.39697,-25.45586 25.45586,-25.45586c14.05889,0 25.45586,11.39697 25.45586,25.45586c0,14.05889 -11.39697,25.45586 -25.45586,25.45586c-14.05889,0 -25.45586,-11.39697 -25.45586,-25.45586z"/><path d="M220.97443,59.93545c0,-9.1643 7.42913,-16.59346 16.59346,-16.59346c9.1643,0 16.59346,7.42913 16.59346,16.59346c0,9.1643 -7.42913,16.59346 -16.59346,16.59346c-9.1643,0 -16.59346,-7.42913 -16.59346,-16.59346z"/><path d="M331.28315,76.5289c-11.76781,0 -21.30749,-9.53969 -21.30749,-21.30749c0,-11.76781 9.53969,-21.30749 21.30749,-21.30749c11.76781,0 21.30749,9.53969 21.30749,21.30749c0,11.76781 -9.53969,21.30749 -21.30749,21.30749z" data-paper-data="{&quot;index&quot;:null}"/><path d="M357.49325,76.906c-6.66494,0 -12.06796,-5.40301 -12.06796,-12.06796c0,-6.66494 5.40301,-12.06796 12.06796,-12.06796c6.66494,0 12.06798,5.40301 12.06798,12.06798c0,6.66494 -5.40301,12.06796 -12.06796,12.06796z" data-paper-data="{&quot;index&quot;:null}"/><path d="M237.56789,76.5289v-14.70783h124.45085v14.70783z"/></g></g><path d="M-4.41429,347.50805l-32.14413,-102.05761l366.26281,-115.35837l32.14413,102.05761z" fill="url(#color-1)" fill-rule="nonzero" stroke="none" stroke-width="0" stroke-linecap="butt" stroke-linejoin="miter" stroke-miterlimit="10"/><path d="M30.01819,580.85709l-71.72809,-232.17253l612.38441,-189.19193l71.7281,232.17252z" fill="#65d969" fill-rule="nonzero" stroke="#469949" stroke-width="2" stroke-linecap="butt" stroke-linejoin="miter" stroke-miterlimit="10"/><path d="M31.49407,585.63429l-65.23419,-211.15278l617.21585,-190.68457l65.23419,211.15279z" fill="#f56845" fill-rule="nonzero" stroke="none" stroke-width="0" stroke-linecap="butt" stroke-linejoin="miter" stroke-miterlimit="10"/><path d="M188.5,350.31718c0,-8.56041 6.93959,-15.5 15.5,-15.5c8.56041,0 15.5,6.93959 15.5,15.5c0,8.56041 -6.93959,15.5 -15.5,15.5c-8.56041,0 -15.5,-6.93959 -15.5,-15.5z" fill="#cb5639" fill-rule="nonzero" stroke="none" stroke-width="0" stroke-linecap="butt" stroke-linejoin="miter" stroke-miterlimit="10"/><path d="M130.5,353.31718c0,-4.14214 3.35786,-7.5 7.5,-7.5c4.14214,0 7.5,3.35786 7.5,7.5c0,4.14214 -3.35786,7.5 -7.5,7.5c-4.14214,0 -7.5,-3.35786 -7.5,-7.5z" fill="#cb5639" fill-rule="nonzero" stroke="none" stroke-width="0" stroke-linecap="butt" stroke-linejoin="miter" stroke-miterlimit="10"/><path d="M275.5,336.81718c0,-6.07513 4.92487,-11 11,-11c6.07513,0 11,4.92487 11,11c0,6.07513 -4.92487,11 -11,11c-6.07513,0 -11,-4.92487 -11,-11z" fill="#cb5639" fill-rule="nonzero" stroke="none" stroke-width="0" stroke-linecap="butt" stroke-linejoin="miter" stroke-miterlimit="10"/><path d="M354.5,300.31715c0,-12.42641 10.07359,-22.5 22.5,-22.5c12.42641,0 22.5,10.07359 22.5,22.5c0,12.42641 -10.07359,22.5 -22.5,22.5c-12.42641,0 -22.5,-10.07359 -22.5,-22.5z" fill="#cb5639" fill-rule="nonzero" stroke="none" stroke-width="0" stroke-linecap="butt" stroke-linejoin="miter" stroke-miterlimit="10"/><path d="M442.5,263.31715c0,-3.03757 2.46243,-5.5 5.5,-5.5c3.03757,0 5.5,2.46243 5.5,5.5c0,3.03757 -2.46243,5.5 -5.5,5.5c-3.03757,0 -5.5,-2.46243 -5.5,-5.5z" fill="#cb5639" fill-rule="nonzero" stroke="none" stroke-width="0" stroke-linecap="butt" stroke-linejoin="miter" stroke-miterlimit="10"/><path d="M310.5,289.81715c0,-4.97056 4.02944,-9 9,-9c4.97056,0 9,4.02944 9,9c0,4.97056 -4.02944,9 -9,9c-4.97056,0 -9,-4.02944 -9,-9z" fill="#cb5639" fill-rule="nonzero" stroke="none" stroke-width="0" stroke-linecap="butt" stroke-linejoin="miter" stroke-miterlimit="10"/><path d="M401.5,348.31718c0,-4.69442 3.80558,-8.5 8.5,-8.5c4.69442,0 8.5,3.80558 8.5,8.5c0,4.69442 -3.80558,8.5 -8.5,8.5c-4.69442,0 -8.5,-3.80558 -8.5,-8.5z" fill="#cb5639" fill-rule="nonzero" stroke="none" stroke-width="0" stroke-linecap="butt" stroke-linejoin="miter" stroke-miterlimit="10"/><path d="M447.5,307.81715c0,-7.73199 6.26801,-14 14,-14c7.73199,0 14,6.26801 14,14c0,7.73199 -6.26801,14 -14,14c-7.73199,0 -14,-6.26801 -14,-14z" fill="#cb5639" fill-rule="nonzero" stroke="none" stroke-width="0" stroke-linecap="butt" stroke-linejoin="miter" stroke-miterlimit="10"/><path d="M347.5,344.81718c0,-3.86599 3.13401,-7 7,-7c3.86599,0 7,3.13401 7,7c0,3.86599 -3.13401,7 -7,7c-3.86599,0 -7,-3.13401 -7,-7z" fill="#cb5639" fill-rule="nonzero" stroke="none" stroke-width="0" stroke-linecap="butt" stroke-linejoin="miter" stroke-miterlimit="10"/><path d="M239.5,310.81715c0,-3.86599 3.13401,-7 7,-7c3.86599,0 7,3.13401 7,7c0,3.86599 -3.13401,7 -7,7c-3.86599,0 -7,-3.13401 -7,-7z" fill="#cb5639" fill-rule="nonzero" stroke="none" stroke-width="0" stroke-linecap="butt" stroke-linejoin="miter" stroke-miterlimit="10"/><g fill-rule="nonzero" stroke="none" stroke-width="0" stroke-linecap="butt" stroke-linejoin="miter" stroke-miterlimit="10"><path d="M158.06368,264.93445c-0.97636,-2.65883 8.2225,-8.48287 10.88136,-9.45924c2.65883,-0.97636 5.60575,0.38754 6.58212,3.04639c0.97636,2.65883 -0.38754,5.60575 -3.04639,6.58212c-2.65883,0.97636 -13.44072,2.48958 -14.41709,-0.16927z" fill="#371e00"/><path d="M180.75364,286.03927c-5.33468,-14.5274 -15.87885,-43.24128 -18.62872,-50.72972c-1.28761,-3.50642 0.91263,-8.36686 4.37514,-9.63834c7.71578,-2.83335 38.27529,-14.05526 52.27952,-19.19782c4.33003,-1.59005 8.5429,1.39207 9.94185,5.2017c2.71885,7.40398 12.39925,33.76563 17.79402,48.45669c2.2088,6.015 -0.11089,11.47274 -3.79145,12.82429c-7.36715,2.70533 -34.22329,12.56731 -48.9733,17.98373c-5.90294,2.16765 -11.10403,0.25458 -12.99706,-4.90052z" fill="#fffc5d"/><path d="M211.13486,284.56129c0,0 -7.77202,-6.4025 -16.73846,-29.90858c-8.83052,-23.14975 -7.54085,-36.20885 -7.54085,-36.20885l10.14402,-3.72504c0,0 0.34413,16.85794 7.75486,36.13026c7.72652,20.09358 16.52445,29.98717 16.52445,29.98717z" fill="url(#color-2)"/><path d="M179.58091,282.53554c-1.53513,-3.78701 -10.84961,-29.8903 -15.05422,-40.14558c-6.30142,-15.3695 0.68005,-16.20072 3.58622,-17.44516c6.55815,-2.80819 9.80768,-3.60153 9.80768,-3.60153c0,0 0.93313,19.02276 7.73409,35.61352c6.59992,16.10037 17.0426,30.57842 17.0426,30.57842c0,0 -7.2789,2.70827 -8.63178,3.13966c-9.15421,2.91917 -11.01115,0.42929 -14.4846,-8.13936z" fill="#8c5d24"/><path d="M211.5147,243.07805c-0.09557,-0.26026 4.28923,-0.19774 8.15231,-1.60863c3.59584,-1.31328 6.68239,-4.12544 6.77511,-3.87294c1.5137,4.12211 -0.60082,8.6908 -4.72292,10.2045c-4.12211,1.5137 -8.6908,-0.60082 -10.2045,-4.72292z" fill="#ff6565"/><path d="M192.1841,247.03491c-1.0896,-2.9672 0.4325,-6.2559 3.3997,-7.3455c2.9672,-1.0896 6.2559,0.4325 7.3455,3.3997c1.0896,2.9672 -0.4325,6.2559 -3.3997,7.3455c-2.9672,1.0896 -6.2559,-0.4325 -7.3455,-3.3997z" fill="#5c3300"/><path d="M226.68221,234.01493c-1.0896,-2.9672 0.4325,-6.2559 3.3997,-7.3455c2.9672,-1.0896 6.2559,0.4325 7.3455,3.3997c1.0896,2.9672 -0.4325,6.2559 -3.3997,7.3455c-2.9672,1.0896 -6.2559,-0.4325 -7.3455,-3.3997z" fill="#5c3300"/><path d="M196.50894,243.80527c-0.46099,-1.25537 0.18298,-2.64671 1.43835,-3.1077c1.25537,-0.46099 2.64671,0.18298 3.1077,1.43833c0.46099,1.25537 -0.18298,2.64671 -1.43833,3.1077c-1.25537,0.46099 -2.64673,-0.18297 -3.10772,-1.43832z" fill="#ffffff"/><path d="M231.28957,230.91603c-0.46099,-1.25537 0.18298,-2.64671 1.43833,-3.1077c1.25535,-0.46098 2.64673,0.18297 3.10772,1.43832c0.46099,1.25537 -0.18298,2.64671 -1.43835,3.1077c-1.25537,0.46099 -2.64671,-0.18298 -3.1077,-1.43833z" fill="#ffffff"/><path d="M201.65041,228.12064c-0.44908,-1.22293 -1.89336,-16.02359 0.32303,-24.62295c0.91651,-3.55596 5.87502,-5.79587 6.38073,-5.98158c1.72863,-0.63478 3.64452,0.25195 4.2793,1.98058c0.63478,1.72863 -0.25195,3.64452 -1.98058,4.2793c-0.47053,0.17279 -4.35091,-0.15905 -5.32897,2.64114c-2.61511,7.48706 -3.21152,22.96161 -3.67351,21.70351z" data-paper-data="{&quot;index&quot;:null}" fill="#371e00"/><path d="M223.19136,221.30339c-0.44908,-1.22293 -1.89335,-16.02358 0.32303,-24.62294c0.91651,-3.55596 5.87502,-5.79589 6.3807,-5.98159c1.72863,-0.63478 3.64452,0.25195 4.2793,1.98058c0.63478,1.72863 -0.25195,3.64452 -1.98058,4.2793c-0.47053,0.17279 -4.35088,-0.15904 -5.32894,2.64115c-2.61511,7.48706 -3.21152,22.96159 -3.67352,21.70349z" fill="#371e00"/></g><g fill-rule="nonzero" stroke-linejoin="miter" stroke-miterlimit="10"><path d="M383.56866,99.26942c0.97027,3.01591 -11.97215,9.87766 -28.90773,15.32613c-16.93558,5.44846 -31.45113,7.42042 -32.4214,4.4045c-0.32817,-1.02005 -12.07213,-30.61382 5.76611,-14.46222c2.31002,2.09161 -0.6624,-13.57754 4.89338,-18.59469c4.1222,-3.72254 17.21615,3.2937 18.11991,2.10461c0.48992,-0.64463 -1.79906,-13.88387 3.94601,-15.73216c16.93558,-5.44846 27.63344,23.93789 28.60371,26.9538z" fill="#ff3838" stroke="#000000" stroke-width="0" stroke-linecap="butt"/><path d="M322.4804,228.99416c-8.15423,-25.34597 -24.27133,-75.44309 -28.47459,-88.50818c-1.96815,-6.11766 2.15407,-14.31892 8.1951,-16.26242c13.46173,-4.33087 66.77891,-21.48392 91.2121,-29.34449c7.55461,-2.43045 14.58799,2.99054 16.72634,9.63721c4.15585,12.91773 18.95265,58.91091 27.19874,84.54242c3.37622,10.49437 -0.99312,19.71404 -7.41459,21.77994c-12.85348,4.13518 -59.7094,19.20953 -85.44374,27.48871c-10.29886,3.31332 -19.1058,-0.33907 -21.99936,-9.33318z" fill="#fffd6a" stroke="none" stroke-width="2" stroke-linecap="butt"/><path d="M403.90885,154.09052c0.2242,0.6969 -3.68652,10.76253 -7.71468,12.05845c-4.38868,1.41191 -12.80368,-3.49479 -13.02789,-4.19169c-0.2242,-0.6969 1.07421,-11.28613 7.44578,-13.33598c6.37158,-2.04984 13.07261,4.7723 13.29682,5.4692z" fill="#ffce38" stroke="none" stroke-width="2" stroke-linecap="butt"/><path d="M438.17059,192.70672c0.95929,2.98177 1.53198,11.37828 -5.22346,16.73265c-2.26324,1.79386 -90.99185,30.91423 -96.31211,30.63319c-9.42271,-0.4978 -12.67147,-6.64464 -13.76518,-10.04425c-3.31268,-10.29687 17.21548,-32.47774 48.90254,-42.67201c31.68706,-10.19427 63.08558,-4.94642 66.39826,5.35045z" fill="#efba58" stroke="none" stroke-width="2" stroke-linecap="butt"/><g fill="none" stroke-width="5" stroke-linecap="round"><path d="M404.56567,154.27713c0,0 -6.31909,4.59047 -10.07005,5.79722c-3.5708,1.14879 -11.92181,1.27793 -11.92181,1.27793" stroke="#6d4006"/><path d="M346.71111,154.96249l16.7342,1.10588l-10.3788,13.84593" stroke="#5c3300"/><path d="M422.7068,147.20084l-16.50521,-5.19692l12.95024,-10.65587" data-paper-data="{&quot;index&quot;:null}" stroke="#5c3300"/></g></g><g fill-rule="nonzero" stroke-linejoin="miter" stroke-miterlimit="10"><g><path d="M207.00352,66.45476c0,-4.96171 4.02227,-8.98399 8.98399,-8.98399c4.96171,0 8.98399,4.02227 8.98399,8.98399c0,4.96171 -4.02227,8.98399 -8.98399,8.98399c-4.96171,0 -8.98399,-4.02227 -8.98399,-8.98399z" fill="#ffffff" stroke="none" stroke-width="0.5" stroke-linecap="butt"/><path d="M82.62521,19.73803c0,-4.96171 4.02227,-8.98399 8.98399,-8.98399c4.96171,0 8.98399,4.02227 8.98399,8.98399c0,4.96171 -4.02227,8.98399 -8.98399,8.98399c-4.96171,0 -8.98399,-4.02227 -8.98399,-8.98399z" fill="#ffffff" stroke="none" stroke-width="0.5" stroke-linecap="butt"/><g fill="none" stroke="#ffffff" stroke-width="20" stroke-linecap="round"><path d="M191.20313,89.67057l13.86101,14.88776"/><path d="M67.95848,50.51888l0.34224,-4.96257"/><path d="M77.07691,56.92741l-19.09246,-0.99729"/><path d="M250.31813,107.08801l-19.09246,-0.99729"/><path d="M17.56979,57.32822c0,0 6.17784,-35.49827 15.05888,-35.25145c7.8157,0.21721 14.71662,35.5937 14.71662,35.5937"/><path d="M39.64465,42.95381l-15.9145,0.17113"/><path d="M56.41482,55.78809l-0.17113,-26.35303"/><path d="M59.6661,33.71314c0,0 11.50597,-6.43204 16.51156,1.03074c4.7276,7.04832 1.96978,22.24206 1.96978,22.24206"/><path d="M92.35079,31.48854v25.66853"/><path d="M106.89627,58.0127v-28.57763"/><path d="M107.58078,34.56873c0,0 11.67784,-7.87043 16.4137,-0.06047c4.14112,6.82917 2.92327,22.64878 2.92327,22.64878"/><path d="M127.77336,34.56873c0,0 11.67784,-7.87043 16.41368,-0.06047c4.14112,6.82917 2.92327,22.64878 2.92327,22.64878"/><path d="M159.94459,32.34414c0,0 11.77362,-5.80829 16.97753,1.58376c5.74477,8.16031 1.33268,25.6249 1.33268,25.6249"/><path d="M176.54356,49.28538c0,0 -0.0348,2.86516 -2.12528,5.18874c-2.21606,2.46317 -6.57278,4.3813 -9.47799,3.94595c-4.59881,-0.68914 -6.88136,-3.86048 -6.85423,-5.02716c0.02517,-1.08189 -0.96797,-6.2998 4.05284,-8.59018c5.46086,-2.49112 15.08913,-0.82217 15.08913,-0.82217"/><path d="M191.08905,18.14092v38.84505"/><path d="M92.63597,70.50468c0,0 -18.57106,-3.7337 -19.26064,6.47677c-0.25112,3.71845 2.83681,6.77009 7.15809,9.18198c6.10377,3.40678 13.81679,6.21834 10.6712,13.73793c-3.81828,9.12771 -18.24788,4.14355 -18.24788,4.14355"/><path d="M114.02642,78.71864h-15.05888"/><path d="M114.53979,106.26957c0,0 -9.0039,-0.39183 -10.03358,-14.42947c-0.45345,-6.182 1.64853,-21.16424 1.64853,-21.16424"/><path d="M126.17619,80.77214c0,0 11.77362,-5.80829 16.97753,1.58376c5.74477,8.16031 1.33268,25.6249 1.33268,25.6249"/><path d="M142.77515,97.71339c0,0 -0.03479,2.86516 -2.12526,5.18874c-2.21606,2.46317 -6.57278,4.38129 -9.47799,3.94593c-4.59881,-0.68914 -6.88136,-3.86048 -6.85423,-5.02716c0.02517,-1.08189 -0.96797,-6.2998 4.05284,-8.59018c5.46086,-2.49112 15.08913,-0.82217 15.08913,-0.82217"/><path d="M173.74854,103.01823c0,0 -17.08734,6.34992 -16.59899,-10.78078c0.49697,-17.43328 16.59899,-12.3209 16.59899,-12.3209"/><path d="M184.70041,65.37099v39.87179"/><path d="M189.32076,89.84169l13.34763,-12.14978"/><path d="M215.6738,104.72944v-26.69528"/><path d="M230.3334,79.34612l0.17113,26.35303"/><path d="M233.75586,83.62422c0,0 11.50597,-6.43204 16.51156,1.03074c4.7276,7.04832 1.96978,22.24206 1.96978,22.24206"/><path d="M282.18384,103.36049c0,0 -18.11408,6.00766 -17.62573,-11.12304c0.32584,-19.14451 17.62573,-9.06955 17.62573,-9.06955"/><path d="M285.44448,75.74317c0,0 4.61448,27.8919 -2.46493,39.5075c-4.94834,8.11903 -17.38539,1.56215 -17.38539,1.56215"/><path d="M203.58564,87.89353h2.59538"/></g><path d="M108.52394,65.15381l56.69895,8.78435" fill="none" stroke="#ffffff" stroke-width="20" stroke-linecap="round"/><path d="M176.80226,93.90257l-14.77368,-5.19074" fill="none" stroke="#ffffff" stroke-width="20" stroke-linecap="round"/></g><g><g><path d="M39.64466,42.95383l-15.9145,0.17113" fill="none" stroke="#ffdede" stroke-width="8" stroke-linecap="round"/><path d="M17.56979,57.32822c0,0 6.17784,-35.49827 15.05888,-35.25145c7.8157,0.21721 14.71662,35.5937 14.71662,35.5937" fill="none" stroke="#ffdede" stroke-width="8" stroke-linecap="round"/><path d="M56.2437,29.43507l0.17113,26.35303" fill="none" stroke="#ffdede" stroke-width="8" stroke-linecap="round"/><path d="M59.6661,33.71314c0,0 11.50597,-6.43204 16.51156,1.03074c4.7276,7.04832 1.96978,22.24206 1.96978,22.24206" fill="none" stroke="#ffdede" stroke-width="8" stroke-linecap="round"/><path d="M92.35079,57.15709v-25.66853" fill="none" stroke="#ffdede" stroke-width="8" stroke-linecap="round"/><path d="M106.89627,58.0127v-28.57763" fill="none" stroke="#ffdede" stroke-width="8" stroke-linecap="round"/><path d="M107.58078,34.56879c0,0 11.67784,-7.87043 16.4137,-0.06047c4.14112,6.82917 2.92327,22.64878 2.92327,22.64878" fill="none" stroke="#ffdede" stroke-width="8" stroke-linecap="round"/><path d="M127.77336,34.56879c0,0 11.67784,-7.87043 16.41368,-0.06047c4.14112,6.82917 2.92327,22.64878 2.92327,22.64878" fill="none" stroke="#ffdede" stroke-width="8" stroke-linecap="round"/><path d="M176.54356,49.28542c0,0 -0.0348,2.86516 -2.12528,5.18874c-2.21606,2.46317 -6.57278,4.3813 -9.47799,3.94595c-4.59881,-0.68914 -6.88136,-3.86048 -6.85423,-5.02716c0.02517,-1.08189 -0.96797,-6.2998 4.05284,-8.59018c5.46086,-2.49112 15.08913,-0.82217 15.08913,-0.82217" fill="none" stroke="#ffdede" stroke-width="8" stroke-linecap="round"/><path d="M191.08905,56.98599v-38.84505" fill="none" stroke="#ffdede" stroke-width="8" stroke-linecap="round"/><path d="M159.94459,32.34414c0,0 11.77362,-5.80829 16.97753,1.58376c5.74477,8.16031 1.33268,25.6249 1.33268,25.6249" fill="none" stroke="#ffdede" stroke-width="8" stroke-linecap="round"/><path d="M85.8195,19.47849c0,-3.14243 2.54743,-5.68986 5.68986,-5.68986c3.14243,0 5.68986,2.54743 5.68986,5.68986c0,3.14243 -2.54743,5.68986 -5.68986,5.68986c-3.14243,0 -5.68986,-2.54743 -5.68986,-5.68986z" fill="#ffdede" stroke="none" stroke-width="0.5" stroke-linecap="butt"/></g><g fill="none" stroke="#fff15b" stroke-width="8" stroke-linecap="round"><path d="M92.63597,70.50472c0,0 -18.57106,-3.7337 -19.26064,6.47677c-0.25112,3.71845 2.83681,6.77009 7.15809,9.18198c6.10377,3.40678 13.81679,6.21834 10.6712,13.73793c-3.81828,9.12771 -18.24788,4.14355 -18.24788,4.14355"/><path d="M114.02642,78.71864h-15.05888"/><path d="M114.53979,106.26957c0,0 -9.0039,-0.39183 -10.03358,-14.42947c-0.45345,-6.182 1.64853,-21.16424 1.64853,-21.16424"/><path d="M142.77515,97.71339c0,0 -0.03479,2.86516 -2.12526,5.18874c-2.21606,2.46317 -6.57278,4.38129 -9.47799,3.94593c-4.59881,-0.68914 -6.88136,-3.86048 -6.85423,-5.02716c0.02517,-1.08189 -0.96797,-6.2998 4.05284,-8.59018c5.46086,-2.49112 15.08913,-0.82217 15.08913,-0.82217"/><path d="M173.74854,103.01823c0,0 -17.08734,6.34992 -16.59899,-10.78078c0.49697,-17.43328 16.59899,-12.3209 16.59899,-12.3209"/><path d="M203.3101,104.52694l-13.98931,-14.68524l13.34763,-12.14978"/><path d="M184.70045,65.37104v39.87179"/><path d="M126.17619,80.77214c0,0 11.77362,-5.80829 16.97753,1.58376c5.74477,8.16031 1.33268,25.6249 1.33268,25.6249"/></g><g><path d="M230.3334,79.34612l0.17113,26.35303" fill="none" stroke="#d2ffc6" stroke-width="8" stroke-linecap="round"/><path d="M215.6738,104.72946v-26.69528" fill="none" stroke="#d2ffc6" stroke-width="8" stroke-linecap="round"/><path d="M233.75586,83.62422c0,0 11.50597,-6.43204 16.51156,1.03074c4.7276,7.04832 1.96978,22.24206 1.96978,22.24206" fill="none" stroke="#d2ffc6" stroke-width="8" stroke-linecap="round"/><path d="M282.18384,103.36049c0,0 -18.11408,6.00766 -17.62573,-11.12304c0.32584,-19.14452 17.62573,-9.06955 17.62573,-9.06955" fill="none" stroke="#d2ffc6" stroke-width="8" stroke-linecap="round"/><path d="M285.44448,75.74317c0,0 4.61448,27.8919 -2.46493,39.5075c-4.94834,8.11903 -17.38539,1.56215 -17.38539,1.56215" fill="none" stroke="#d2ffc6" stroke-width="8" stroke-linecap="round"/><path d="M210.19782,66.19522c0,-3.14243 2.54743,-5.68986 5.68986,-5.68986c3.14243,0 5.68986,2.54743 5.68986,5.68986c0,3.14243 -2.54743,5.68986 -5.68986,5.68986c-3.14243,0 -5.68986,-2.54743 -5.68986,-5.68986z" fill="#d2ffc6" stroke="none" stroke-width="0.5" stroke-linecap="butt"/></g></g><path d="M206.28405,64.05625c0,0 1.94211,-7.38818 9.92853,-7.17828c8.54834,0.22467 10.09066,10.51838 10.09066,10.51838c0,0 2.10848,-1.52778 5.02921,-0.99957c3.39982,0.61485 4.83465,3.50082 4.83465,3.50082c0,0 5.10911,-0.85567 10.57776,-0.07137c6.75056,0.96814 11.22043,4.62933 11.22043,4.62933c0,0 5.40525,-3.32403 8.61144,-4.29243c3.02273,-0.91299 10.10776,-1.36158 10.10776,-1.36158c0,0 3.44302,-4.92206 9.62294,-4.13941c6.8493,0.86742 9.74414,5.43855 9.74414,5.43855" fill="none" stroke="#65d969" stroke-width="2.5" stroke-linecap="round"/></g><path d="M95.82175,268.33925c-2.76723,2.80119 -11.56797,-0.98403 -18.4657,-7.79812c-6.89772,-6.8141 -6.93471,-11.12654 -4.16751,-13.92772c2.76724,-2.8012 7.29076,-3.03036 14.18849,3.78373c6.89772,6.8141 11.21194,15.14093 8.44473,17.9421z" fill="#e9e9e9" fill-rule="nonzero" stroke="none" stroke-width="0" stroke-linecap="butt" stroke-linejoin="miter" stroke-miterlimit="10"/><path d="M80.55926,261.59326c-5.06312,-5.52187 -4.75614,-9.00808 -2.51368,-11.06423c2.24245,-2.05613 5.57118,-1.9036 10.63433,3.61825c5.06312,5.52187 7.73284,12.4261 5.49038,14.48222c-2.24245,2.05613 -8.54788,-1.51439 -13.611,-7.03627z" data-paper-data="{&quot;index&quot;:null}" fill="#f5b8b8" fill-rule="nonzero" stroke="none" stroke-width="0" stroke-linecap="butt" stroke-linejoin="miter" stroke-miterlimit="10"/><path d="M74.21839,257.26289c9.81688,2.43784 18.1222,7.60872 17.13218,11.59537c-0.98999,3.98665 -10.90042,5.27938 -20.7173,2.84154c-9.81685,-2.43783 -12.1472,-6.28631 -11.15721,-10.27295c0.99,-3.98665 4.92548,-6.60181 14.74235,-4.16398z" fill="#fafafa" fill-rule="nonzero" stroke="none" stroke-width="0" stroke-linecap="butt" stroke-linejoin="miter" stroke-miterlimit="10"/><path d="M76.73219,259.78391c7.27092,1.80561 13.42228,5.63545 12.68905,8.58819c-0.73325,2.95274 -8.07346,3.91021 -15.34438,2.1046c-7.27092,-1.80561 -8.99689,-4.656 -8.26364,-7.60872c0.73327,-2.95273 3.64808,-4.88968 10.91901,-3.08409z" fill="#ffbfbf" fill-rule="nonzero" stroke="none" stroke-width="0" stroke-linecap="butt" stroke-linejoin="miter" stroke-miterlimit="10"/><path d="M75.56427,315.4032c-3.28679,-10.26515 -9.78324,-30.55455 -11.47749,-35.84593c-0.79332,-2.47766 0.88004,-5.79539 3.32667,-6.57878c5.45202,-1.74568 27.04555,-8.65969 36.94102,-11.82812c3.05962,-0.97966 5.90385,1.21881 6.76577,3.91072c1.67513,5.2317 7.6394,23.85899 10.96322,34.23978c1.36088,4.25023 -0.41309,7.9801 -3.0138,8.81282c-5.20567,1.6668 -24.18238,7.74295 -34.60482,11.0801c-4.17105,1.33553 -7.73423,-0.14797 -8.90056,-3.7906z" fill="#fafafa" fill-rule="nonzero" stroke="none" stroke-width="0" stroke-linecap="butt" stroke-linejoin="miter" stroke-miterlimit="10"/><path d="M122.41833,300.77816c0.38667,1.20762 0.6138,4.60702 -2.12395,6.7708c-0.91721,0.72492 -36.85274,12.46371 -39.00633,12.34695c-3.81423,-0.2068 -5.12595,-2.69699 -5.5668,-4.07384c-1.33527,-4.17025 6.9874,-13.13801 19.8207,-17.2471c12.8333,-4.10908 25.54113,-1.96705 26.8764,2.2032z" fill="#ededed" fill-rule="nonzero" stroke="none" stroke-width="0" stroke-linecap="butt" stroke-linejoin="miter" stroke-miterlimit="10"/><path d="M85.41479,285.44723l6.77373,0.45707l-4.20932,5.5993" fill="none" fill-rule="nonzero" stroke="#5c3300" stroke-width="3" stroke-linecap="round" stroke-linejoin="miter" stroke-miterlimit="10"/><path d="M116.18379,282.34776l-6.67874,-2.11308l5.2485,-4.30646" data-paper-data="{&quot;index&quot;:null}" fill="none" fill-rule="nonzero" stroke="#5c3300" stroke-width="3" stroke-linecap="round" stroke-linejoin="miter" stroke-miterlimit="10"/><path d="M107.04608,289.52333c0,1.05067 -0.89328,1.9024 -1.9952,1.9024c-1.10192,0 -1.9952,-0.85174 -1.9952,-1.9024c0,-1.05067 0.89328,-1.9024 1.9952,-1.9024c1.10192,0 1.9952,0.85174 1.9952,1.9024z" fill="#ff6565" fill-rule="nonzero" stroke="none" stroke-width="0" stroke-linecap="butt" stroke-linejoin="miter" stroke-miterlimit="10"/><path d="M109.71312,286.69354c0,0 0.32684,1.23663 -2.07099,1.72428c-2.15598,0.43847 -2.8188,-2.73364 -3.48889,-2.29211c-0.69812,0.46001 0.1593,2.73737 -1.01013,3.56326c-1.5362,1.0849 -3.21761,0.58929 -3.21761,0.58929" fill="none" fill-rule="nonzero" stroke="#6d4006" stroke-width="1.5" stroke-linecap="round" stroke-linejoin="miter" stroke-miterlimit="10"/><path d="M107.43167,288.47488c0,0 1.23007,2.16073 -1.17878,3.19824c-2.43848,1.05027 -3.92523,-1.35039 -3.92523,-1.35039" fill="none" fill-rule="nonzero" stroke="#6d4006" stroke-width="1.5" stroke-linecap="round" stroke-linejoin="miter" stroke-miterlimit="10"/><path d="M74.46434,324.60234c1.42951,5.33481 -1.73622,10.81814 -7.07099,12.24757l-23.66989,6.34222c-5.33477,1.42942 -10.81811,-1.73644 -12.24762,-7.07125l-13.25376,-49.46199c-1.42951,-5.33481 1.73622,-10.81814 7.07099,-12.24757l23.66989,-6.34222c5.33477,-1.42942 10.81811,1.73643 12.24763,7.07124z" fill="none" fill-rule="evenodd" stroke="#ffffff" stroke-width="16.97" stroke-linecap="round" stroke-linejoin="round" stroke-miterlimit="1.5"/><path d="M74.46434,324.60234c1.42951,5.33481 -1.73622,10.81814 -7.07099,12.24757l-23.66989,6.34222c-5.33477,1.42942 -10.81811,-1.73644 -12.24762,-7.07125l-13.25376,-49.46199c-1.42951,-5.33481 1.73622,-10.81814 7.07099,-12.24757l23.66989,-6.34222c5.33477,-1.42942 10.81811,1.73643 12.24763,7.07124z" fill="#000000" fill-rule="evenodd" stroke="none" stroke-width="1" stroke-linecap="round" stroke-linejoin="round" stroke-miterlimit="1.5"/><path d="M36.05421,336.0243l-13.8224,-51.5856l34.3908,-9.21516l13.8224,51.5856z" fill="#ffffff" fill-rule="evenodd" stroke="none" stroke-width="1" stroke-linecap="round" stroke-linejoin="round" stroke-miterlimit="1.5"/><path d="M56.57396,305.96326v-7.5478" fill="none" fill-rule="evenodd" stroke="#000000" stroke-width="5.33" stroke-linecap="round" stroke-linejoin="round" stroke-miterlimit="1.5"/><path d="M36.10096,295.93746v7.5478" fill="none" fill-rule="evenodd" stroke="#000000" stroke-width="5.33" stroke-linecap="round" stroke-linejoin="round" stroke-miterlimit="1.5"/><path d="M53.29602,313.95211c-4.87042,2.81194 -11.10724,1.14078 -13.91917,-3.72965" fill="none" fill-rule="evenodd" stroke="#000000" stroke-width="6" stroke-linecap="round" stroke-linejoin="round" stroke-miterlimit="1.5"/></g></g></svg>