<svg version="1.1" xmlns="http://www.w3.org/2000/svg" xmlns:xlink="http://www.w3.org/1999/xlink" width="12.84615" height="17.38462" viewBox="0,0,12.84615,17.38462"><g transform="translate(-233.57692,-171.30768)"><g data-paper-data="{&quot;isPaintingLayer&quot;:true}" fill-rule="nonzero" stroke-linecap="butt" stroke-linejoin="miter" stroke-miterlimit="10" stroke-dasharray="" stroke-dashoffset="0" style="mix-blend-mode: normal"><path d="M234.69198,184.35234c0,-3.44787 0,-8.02669 0,-9.77778c0,-1.9644 0.76764,-2.55556 2.77778,-2.66667c0.45326,-0.02505 7.83845,3.57892 7.87516,7.11241c0.04432,4.26686 -6.71508,8.47317 -7.87516,8.44315c-1.973,-0.05105 -2.77778,-0.92846 -2.77778,-3.11111z" data-paper-data="{&quot;index&quot;:null}" fill="#fbf6e9" stroke="#875242" stroke-width="0"/><path d="M234.69198,184.24123c0,-0.67063 0,-1.38403 0,-2.1111c0,-0.31952 1.63793,2.22281 3.43091,1.8275c2.0996,-0.46292 4.45306,-3.92284 5.2583,-5.21599c0.76233,-1.22424 -0.06063,-2.69622 0.17219,-2.65949c0.87652,0.13828 1.78306,2.01066 1.79154,2.82703c0.04432,4.26686 -6.71508,8.47317 -7.87516,8.44315c-1.973,-0.05105 -2.77778,-0.92846 -2.77778,-3.11111z" data-paper-data="{&quot;index&quot;:null}" fill="#d6b1a7" stroke="#875242" stroke-width="0"/><path d="M234.69198,184.24123c-0.21485,-3.44117 0,-8.02669 0,-9.77778c0,-1.25458 0.48597,-2.4579 2.71331,-2.1455c3.13472,0.43967 7.91427,4.15053 7.93963,6.59124c0.02993,2.88127 -4.7142,8.09716 -7.8853,8.65619c-2.28665,0.40311 -2.59117,-0.49772 -2.76764,-3.32415z" data-paper-data="{&quot;index&quot;:null}" fill="none" stroke="#875242" stroke-width="1.5"/><path d="M233.57692,188.6923v-17.38462h12.84615v17.38462z" data-paper-data="{&quot;index&quot;:null}" fill="none" stroke="none" stroke-width="0"/></g></g></svg>