<svg version="1.1" xmlns="http://www.w3.org/2000/svg" xmlns:xlink="http://www.w3.org/1999/xlink" width="141.79246" height="26.20956" viewBox="0,0,141.79246,26.20956"><g transform="translate(-234.25911,-142.44757)"><g data-paper-data="{&quot;isPaintingLayer&quot;:true}" fill-rule="nonzero" stroke-linejoin="miter" stroke-miterlimit="10" stroke-dasharray="" stroke-dashoffset="0" style="mix-blend-mode: normal"><g><g stroke-width="7"><path d="M259.42234,148.63757c0,-1.65223 1.3394,-2.99164 2.99163,-2.99164c1.65223,0 2.99164,1.3394 2.99164,2.99164c0,1.65223 -1.3394,2.99164 -2.99164,2.99164c-1.65223,0 -2.99163,-1.3394 -2.99163,-2.99164z" fill="#ffffff" stroke="none" stroke-linecap="butt"/><g fill="none" stroke="#ffffff" stroke-linecap="round"><path d=""/><path d="M254.65234,157.23497l-0.11397,1.65251"/><path d="M251.21705,160.68941l6.35772,0.33209"/><path d=""/><path d="M237.75911,161.15498c0,0 2.0572,-11.8208 5.01456,-11.73861c2.6026,0.07233 4.90059,11.85257 4.90059,11.85257"/><path d="M239.81049,156.42533l5.29947,-0.05698"/><path d="M250.69437,160.64211l-0.05698,-8.77546"/><path d="M251.77704,153.29124c0,0 3.83145,-2.14185 5.49829,0.34323c1.57428,2.34706 0.65593,7.40653 0.65593,7.40653"/><path d="M262.66093,152.55045v8.54753"/><path d="M267.50452,161.3829v-9.51625"/><path d="M267.73246,153.57615c0,0 3.88868,-2.62083 5.4657,-0.02014c1.37898,2.27409 0.97344,7.54197 0.97344,7.54197"/><path d="M274.45652,153.57615c0,0 3.88868,-2.62083 5.4657,-0.02014c1.37898,2.27409 0.97343,7.54197 0.97343,7.54197"/><path d="M285.16943,152.83537c0,0 3.92057,-1.93414 5.65346,0.52739c1.91299,2.71735 0.44378,8.53301 0.44378,8.53301"/><path d="M290.69682,158.47674c0,0 -0.01159,0.95409 -0.70771,1.72783c-0.73794,0.82022 -2.18871,1.45896 -3.15614,1.31399c-1.53139,-0.22948 -2.29147,-1.28553 -2.28243,-1.67403c0.00838,-0.36026 -0.32233,-2.09781 1.34958,-2.8605c1.81844,-0.82953 5.02463,-0.27378 5.02463,-0.27378"/><path d="M295.54042,148.10574v12.93527"/><path d=""/><path d=""/><path d=""/><path d=""/><path d=""/><path d=""/><path d="M293.41303,163.83319"/><path d=""/><path d=""/><path d=""/><path d=""/><path d=""/><path d=""/><path d=""/></g><path d="" fill="none" stroke="#ffffff" stroke-linecap="round"/><path d="" fill="none" stroke="#ffffff" stroke-linecap="round"/></g><g stroke-width="7"><path d="M344.89888,148.38807c0,-1.65223 1.3394,-2.99164 2.99163,-2.99164c1.65223,0 2.99164,1.3394 2.99164,2.99164c0,1.65223 -1.3394,2.99164 -2.99164,2.99164c-1.65223,0 -2.99163,-1.3394 -2.99163,-2.99164z" fill="#ffffff" stroke="none" stroke-linecap="butt"/><g fill="none" stroke="#ffffff" stroke-linecap="round"><path d="M339.63741,156.11885l4.61566,4.95758"/><path d="M352.96477,161.5867l6.35773,0.33209"/><path d="M306.81489,149.73668c0,0 -6.1841,-1.24331 -6.41373,2.15674c-0.08362,1.23823 0.94465,2.25442 2.38362,3.05757c2.03253,1.13444 4.60094,2.07068 3.55347,4.57468c-1.27148,3.03949 -6.07648,1.37979 -6.07648,1.37979"/><path d="M308.92328,152.47189h5.01456"/><path d="M314.10878,161.64626c0,0 -2.99827,-0.13047 -3.34115,-4.80496c-0.151,-2.05858 0.54895,-7.04762 0.54895,-7.04762"/><path d="M317.98366,153.15571c0,0 3.92057,-1.93414 5.65346,0.52738c1.91299,2.71735 0.44378,8.53301 0.44378,8.53301"/><path d="M323.51106,158.79708c0,0 -0.01158,0.95409 -0.7077,1.72783c-0.73794,0.82022 -2.18871,1.45895 -3.15614,1.31398c-1.53139,-0.22948 -2.29147,-1.28553 -2.28244,-1.67403c0.00838,-0.36026 -0.32233,-2.09781 1.34958,-2.8605c1.81844,-0.82953 5.02463,-0.27378 5.02463,-0.27378"/><path d="M333.82509,160.56357c0,0 -5.69002,2.1145 -5.5274,-3.58996c0.16549,-5.80522 5.5274,-4.10282 5.5274,-4.10282"/><path d="M337.47202,161.30435v-13.27717"/><path d="M339.01058,156.17583l4.44471,-4.04583"/><path d="M347.78605,161.1334v-8.88943"/><path d="M352.66765,152.68085l0.05698,8.77546"/><path d="M353.80732,154.10544c0,0 3.83144,-2.14185 5.49829,0.34323c1.57428,2.34706 0.65593,7.40653 0.65593,7.40653"/><path d="M369.93367,160.67754c0,0 -6.03193,2.00054 -5.86931,-3.70393c0.1085,-6.37506 5.86931,-3.02013 5.86931,-3.02013"/><path d="M371.01945,151.48108c0,0 1.53661,9.28791 -0.82081,13.15586c-1.64778,2.70361 -5.78928,0.52019 -5.78928,0.52019"/><path d="M343.76074,155.5271h0.86426"/></g><path d="M334.84197,157.52809l-4.91959,-1.72849" fill="none" stroke="#ffffff" stroke-linecap="round"/></g><g><g fill="none" stroke="none" stroke-width="1" stroke-linecap="butt" font-family="sans-serif" font-weight="normal" font-size="12" text-anchor="start"/><g fill="none" stroke="#fff15b" stroke-width="3.5" stroke-linecap="round"><path d="M306.81489,149.73669c0,0 -6.1841,-1.2433 -6.41373,2.15675c-0.08362,1.23823 0.94465,2.25441 2.38362,3.05756c2.03253,1.13444 4.60094,2.07069 3.55347,4.57469c-1.27148,3.03949 -6.07648,1.37978 -6.07648,1.37978"/><path d="M308.92328,152.47189h5.01456"/><path d="M314.10878,161.64626c0,0 -2.99827,-0.13047 -3.34115,-4.80496c-0.151,-2.05858 0.54895,-7.04762 0.54895,-7.04762"/><path d="M323.51106,158.79708c0,0 -0.01158,0.95409 -0.7077,1.72783c-0.73794,0.82022 -2.18871,1.45895 -3.15614,1.31398c-1.53139,-0.22948 -2.29147,-1.28553 -2.28244,-1.67403c0.00838,-0.36026 -0.32233,-2.09781 1.34958,-2.8605c1.81844,-0.82953 5.02463,-0.27378 5.02463,-0.27378"/><path d="M333.82509,160.56357c0,0 -5.69002,2.1145 -5.5274,-3.58996c0.16549,-5.80522 5.5274,-4.10282 5.5274,-4.10282"/><path d="M343.66899,161.06597l-4.6584,-4.89014l4.44472,-4.04583"/><path d="M337.47204,148.02719v13.27717"/><path d="M317.98366,153.15571c0,0 3.92057,-1.93414 5.65346,0.52738c1.91299,2.71735 0.44378,8.53301 0.44378,8.53301"/></g><g stroke-width="3.5"><path d="M352.66765,152.68085l0.05698,8.77546" fill="none" stroke="#d2ffc6" stroke-linecap="round"/><path d="M347.78605,161.13341v-8.88944" fill="none" stroke="#d2ffc6" stroke-linecap="round"/><path d="M353.80732,154.10544c0,0 3.83144,-2.14185 5.49829,0.34323c1.57428,2.34706 0.65593,7.40653 0.65593,7.40653" fill="none" stroke="#d2ffc6" stroke-linecap="round"/><path d="M369.93367,160.67754c0,0 -6.03193,2.00054 -5.86931,-3.70393c0.1085,-6.37506 5.86931,-3.02013 5.86931,-3.02013" fill="none" stroke="#d2ffc6" stroke-linecap="round"/><path d="M371.01945,151.48108c0,0 1.53661,9.28791 -0.82081,13.15586c-1.64778,2.70361 -5.78928,0.52019 -5.78928,0.52019" fill="none" stroke="#d2ffc6" stroke-linecap="round"/><path d="M345.96257,148.30165c0,-1.04642 0.84828,-1.89471 1.8947,-1.89471c1.04642,0 1.8947,0.84829 1.8947,1.89471c0,1.04642 -0.84828,1.8947 -1.8947,1.8947c-1.04642,0 -1.8947,-0.84828 -1.8947,-1.8947z" fill="#d2ffc6" stroke="none" stroke-linecap="butt"/></g></g><path d="M344.6593,146.33937c0,0 0.64672,-2.46024 3.30617,-2.39034c2.84656,0.07482 3.36016,3.50259 3.36016,3.50259c0,0 0.70211,-0.50875 1.67471,-0.33285c1.13213,0.20475 1.60992,1.16576 1.60992,1.16576c0,0 1.70132,-0.28494 3.52236,-0.02377c2.24791,0.32238 3.73636,1.54156 3.73636,1.54156c0,0 1.79993,-1.10689 2.86758,-1.42937c1.00656,-0.30402 3.36585,-0.4534 3.36585,-0.4534c0,0 1.14652,-1.63903 3.20441,-1.37841c2.2808,0.28885 3.24477,1.81101 3.24477,1.81101" fill="none" stroke="#65d969" stroke-width="3" stroke-linecap="round"/><g stroke-width="3.5"><g><path d="M245.10997,156.36835l-5.29948,0.05698" fill="none" stroke="#ffdede" stroke-linecap="round"/><path d="M237.75911,161.15498c0,0 2.0572,-11.8208 5.01456,-11.73861c2.6026,0.07233 4.90059,11.85257 4.90059,11.85257" fill="none" stroke="#ffdede" stroke-linecap="round"/><path d="M250.63739,151.86665l0.05699,8.77547" fill="none" stroke="#ffdede" stroke-linecap="round"/><path d="M251.77704,153.29124c0,0 3.83145,-2.14185 5.49829,0.34323c1.57428,2.34706 0.65593,7.40653 0.65593,7.40653" fill="none" stroke="#ffdede" stroke-linecap="round"/><path d="M262.66093,152.55046v8.54753" fill="none" stroke="#ffdede" stroke-linecap="round"/><path d="M267.50452,161.3829v-9.51625" fill="none" stroke="#ffdede" stroke-linecap="round"/><path d="M267.73246,153.57616c0,0 3.88868,-2.62082 5.4657,-0.02013c1.37898,2.27409 0.97344,7.54197 0.97344,7.54197" fill="none" stroke="#ffdede" stroke-linecap="round"/><path d="M274.45652,153.57616c0,0 3.88868,-2.62082 5.4657,-0.02013c1.37898,2.27409 0.97343,7.54197 0.97343,7.54197" fill="none" stroke="#ffdede" stroke-linecap="round"/><path d="M290.69682,158.47675c0,0 -0.01159,0.95408 -0.70771,1.72783c-0.73794,0.82022 -2.18871,1.45896 -3.15614,1.31399c-1.53139,-0.22948 -2.29147,-1.28553 -2.28243,-1.67403c0.00838,-0.36026 -0.32233,-2.09781 1.34958,-2.8605c1.81844,-0.82953 5.02463,-0.27378 5.02463,-0.27378" fill="none" stroke="#ffdede" stroke-linecap="round"/><path d="M295.54042,161.04101v-12.93526" fill="none" stroke="#ffdede" stroke-linecap="round"/><path d="M285.16943,152.83537c0,0 3.92057,-1.93414 5.65346,0.52739c1.91299,2.71735 0.44378,8.53301 0.44378,8.53301" fill="none" stroke="#ffdede" stroke-linecap="round"/><path d="M260.48603,148.55115c0,-1.04642 0.84829,-1.89471 1.89471,-1.89471c1.04642,0 1.8947,0.84829 1.8947,1.89471c0,1.04642 -0.84828,1.8947 -1.8947,1.8947c-1.04642,0 -1.89471,-0.84828 -1.89471,-1.8947z" fill="#ffdede" stroke="none" stroke-linecap="butt"/></g><g fill="none" stroke="#fff15b" stroke-linecap="round"><path d=""/><path d=""/><path d=""/><path d=""/><path d=""/><path d=""/><path d=""/><path d=""/></g><g fill="none" stroke="#d2ffc6" stroke-linecap="round"><path d=""/><path d=""/><path d=""/><path d=""/><path d=""/></g></g></g></g></g></svg>