<svg version="1.1" xmlns="http://www.w3.org/2000/svg" xmlns:xlink="http://www.w3.org/1999/xlink" width="485" height="373" viewBox="0,0,485,373"><defs><linearGradient x1="240" y1="-275.20142" x2="240" y2="366.5" gradientUnits="userSpaceOnUse" id="color-1"><stop offset="0" stop-color="#000000"/><stop offset="1" stop-color="#000000" stop-opacity="0"/></linearGradient><linearGradient x1="240" y1="635.20142" x2="240" y2="-6.5" gradientUnits="userSpaceOnUse" id="color-2"><stop offset="0" stop-color="#000000"/><stop offset="1" stop-color="#000000" stop-opacity="0"/></linearGradient></defs><g transform="translate(2.5,6.5)"><g data-paper-data="{&quot;isPaintingLayer&quot;:true}" fill-rule="nonzero" stroke-linejoin="miter" stroke-miterlimit="10" stroke-dasharray="" stroke-dashoffset="0" style="mix-blend-mode: normal"><path d="M-2.5,366.5v-373h485v373zM192.68072,127.10644c-1.20347,0.91306 -1.98072,2.35867 -1.98072,3.98581c0,1.02731 0.30982,1.98226 0.84112,2.7765c-2.60384,1.48791 0.54131,9.29046 0.55888,11.71859c0.0351,4.85048 0.18887,9.69986 0.2,14.55046c0.01623,7.07727 -1.80314,17.86971 3.60492,23.54707c3.17374,3.33178 8.49145,-0.56362 11.99291,-0.59263c4.06725,-0.0337 8.13479,-0.00327 12.20218,0c14.60245,0.01173 42.4573,0.58094 47.23352,0.6c6.32634,0.02525 18.16949,3.25099 21.34148,-2.3c1.89002,-3.30754 0.8248,-23.01269 0.825,-23.3c0.0015,-2.1046 0.83115,-4.34415 0.83115,-6.52049c0,-4.22273 -2.45578,-8.29624 -1.60421,-12.78727c0.62834,-3.3138 0.65088,-10.37833 -3.12694,-12.26724c-2.5555,-1.27775 -4.44622,-0.01779 -6.86142,0.175c-7.22166,0.57647 -15.18388,-0.01329 -22.2541,0c-1.23503,0.00232 -20.2939,-1.3825 -29.13466,0.34929c-8.59889,1.68441 -17.52459,0.06504 -26.2869,0.05071c-1.36779,-0.00224 -2.61361,-0.47859 -3.86283,-0.77107c-0.47355,-0.14874 -0.97745,-0.22893 -1.50009,-0.22893c-0.0847,0 -0.1689,0.00211 -0.25256,0.00627c-0.72204,0.01104 -1.46367,0.17786 -2.24744,0.61873c-0.19372,0.10897 -0.36535,0.24017 -0.51928,0.38919z" fill="url(#color-1)" stroke="none" stroke-width="0" stroke-linecap="butt"/><path d="M482.5,-6.5v373h-485v-373zM192.68072,127.10644c-1.20347,0.91306 -1.98072,2.35867 -1.98072,3.98581c0,1.02731 0.30982,1.98226 0.84112,2.7765c-2.60384,1.48791 0.54131,9.29046 0.55888,11.71859c0.0351,4.85048 0.18887,9.69986 0.2,14.55046c0.01623,7.07727 -1.80314,17.86971 3.60492,23.54707c3.17374,3.33178 8.49145,-0.56362 11.99291,-0.59263c4.06725,-0.0337 8.13479,-0.00327 12.20218,0c14.60245,0.01173 42.4573,0.58094 47.23352,0.6c6.32634,0.02525 18.16949,3.25099 21.34148,-2.3c1.89002,-3.30754 0.8248,-23.01269 0.825,-23.3c0.0015,-2.1046 0.83115,-4.34415 0.83115,-6.52049c0,-4.22273 -2.45578,-8.29624 -1.60421,-12.78727c0.62834,-3.3138 0.65088,-10.37833 -3.12694,-12.26724c-2.5555,-1.27775 -4.44622,-0.01779 -6.86142,0.175c-7.22166,0.57647 -15.18388,-0.01329 -22.2541,0c-1.23503,0.00232 -20.2939,-1.3825 -29.13466,0.34929c-8.59889,1.68441 -17.52459,0.06504 -26.2869,0.05071c-1.36779,-0.00224 -2.61361,-0.47859 -3.86283,-0.77107c-0.47355,-0.14874 -0.97745,-0.22893 -1.50009,-0.22893c-0.0847,0 -0.1689,0.00211 -0.25256,0.00627c-0.72204,0.01104 -1.46367,0.17786 -2.24744,0.61873c-0.19372,0.10897 -0.36535,0.24017 -0.51928,0.38919z" data-paper-data="{&quot;index&quot;:null}" fill="url(#color-2)" stroke="none" stroke-width="0" stroke-linecap="butt"/><path d="M318.16667,163.29926c0,-16.08363 0,-42.88315 0,-52.69631c0,-7.65705 6.27961,-14.43627 16.0279,-14.43627c19.61584,0 93.38855,0 124.25751,0c6.71288,0 13.71459,4.94947 13.71459,12.22744c0,16.79668 0,45.99567 0,55.37846c0,5.71932 -5.8567,12.22744 -15.20171,12.22744c-32.38139,0 -106.64655,0 -124.25751,0c-7.32772,0 -14.54078,-5.17833 -14.54078,-12.70076z" fill="#fff6e6" stroke="#774c3f" stroke-width="1.5" stroke-linecap="butt"/><text transform="translate(321.53483,122.69909) scale(0.38619,0.38619)" font-size="40" xml:space="preserve" fill="#5b3f2f" fill-rule="nonzero" stroke="#5b3f2f" stroke-width="2" stroke-linecap="butt" stroke-linejoin="miter" stroke-miterlimit="10" stroke-dasharray="" stroke-dashoffset="0" font-family="Sans Serif" font-weight="normal" text-anchor="start" style="mix-blend-mode: normal"><tspan x="0" dy="0">Click to buy the skin</tspan></text><path d="M192.58334,184.35001v-57.25h96v57.25z" fill="none" stroke="#774c3f" stroke-width="5" stroke-linecap="butt"/><text transform="translate(330.66667,135.51955) scale(0.24343,0.24343)" font-size="40" xml:space="preserve" fill="#5b3f2f" fill-rule="nonzero" stroke="none" stroke-width="1" stroke-linecap="butt" stroke-linejoin="miter" stroke-miterlimit="10" stroke-dasharray="" stroke-dashoffset="0" font-family="Sans Serif" font-weight="normal" text-anchor="start" style="mix-blend-mode: normal"><tspan x="0" dy="0">(The higher the cost goes,</tspan><tspan x="0" dy="46.150000000000006px">the more the score multipier</tspan><tspan x="0" dy="46.150000000000006px">E.g. Chicken= 1 per block</tspan><tspan x="0" dy="46.150000000000006px">        Bee       = 2 per block)</tspan></text><path d="M290.16667,112.4c0,0 5.03458,-11.47903 16.10345,-14.74138c22.30511,-6.57403 22.39655,3.74138 22.39655,3.74138" fill="none" stroke="#774c3f" stroke-width="7.5" stroke-linecap="round"/><path d="M310.66667,107.9c0,0 -17.79503,10.71329 -22.09769,9.00846c-4.51997,-1.79093 -4.40231,-19.50846 -4.40231,-19.50846" fill="none" stroke="#774c3f" stroke-width="7.5" stroke-linecap="round"/></g></g></svg>