<svg version="1.1" xmlns="http://www.w3.org/2000/svg" xmlns:xlink="http://www.w3.org/1999/xlink" width="12.48554" height="16.29087" viewBox="0,0,12.48554,16.29087"><g transform="translate(-213.56132,-177.14955)"><g data-paper-data="{&quot;isPaintingLayer&quot;:true}" fill-rule="nonzero" stroke-linejoin="miter" stroke-miterlimit="10" stroke-dasharray="" stroke-dashoffset="0" style="mix-blend-mode: normal"><path d="M213.60936,190.53086c0.1915,-2.14998 0.95149,-7.91015 0.4375,-11.25c-0.375,-2.4367 3.02722,-2.10632 3.82127,-1.70484c1.87209,0.94656 8.05373,5.26734 8.05373,5.26734v6.125c0,0 -6.17369,2.98895 -7.99098,3.96053c-2.3324,1.24697 -4.50902,-0.29299 -4.32152,-2.39803z" fill="#fa9b2f" stroke="none" stroke-width="0" stroke-linecap="butt"/><path d="M217.42186,177.46837c0,0 -0.86631,5.22492 -0.89559,7.62551c-0.03281,2.69114 0.39559,8.24949 0.39559,8.24949c0,0 -2.37386,0.60819 -3.11354,-1.22049c-0.74591,-1.84406 0.4341,-6.44881 0.44787,-7.59175c0.01198,-0.99384 -0.67953,-5.22046 -0.05607,-6.29639c1.07695,-1.85852 3.22174,-0.76638 3.22174,-0.76638z" fill="#000000" stroke="none" stroke-width="0" stroke-linecap="butt"/><path d="M217.92186,187.53086l7.3125,-1.25" fill="none" stroke="#fa8500" stroke-width="0.5" stroke-linecap="round"/><path d="M218.73436,182.46836l7.0625,2.0625" fill="none" stroke="#fa8500" stroke-width="0.5" stroke-linecap="round"/></g></g></svg>