<svg version="1.1" xmlns="http://www.w3.org/2000/svg" xmlns:xlink="http://www.w3.org/1999/xlink" width="34.43761" height="34.50123" viewBox="0,0,34.43761,34.50123"><g transform="translate(-222.78119,-162.74939)"><g data-paper-data="{&quot;isPaintingLayer&quot;:true}" fill-rule="nonzero" stroke-linejoin="miter" stroke-miterlimit="10" stroke-dasharray="" stroke-dashoffset="0" style="mix-blend-mode: normal"><path d="M222.7812,192.82524c0,-7.54232 0,-22.44996 0,-26.3378c0,-1.82046 1.82312,-3.67442 3.62078,-3.67442c4.00587,0 19.87172,0 27.14242,0c2.24806,0 3.67441,2.07203 3.67441,4.04991c0,3.84399 0,17.5304 0,25.15769c0,3.12286 -1.97811,5.23001 -3.88898,5.23001c-3.82487,0 -17.76801,0 -25.4259,0c-3.06468,0 -5.12273,-1.74897 -5.12273,-4.42539z" fill="#ffffff" stroke="none" stroke-width="0" stroke-linecap="butt"/><path d="M243.09484,169.6869c0,0 -0.86895,-2.384 -1.76828,-3.90113c-0.63457,-1.0705 -2.29422,-2.97387 -2.29422,-2.97387h2.3125c0,0 0.89271,1.15508 1.36693,2.42364c0.84963,2.27284 0.38307,4.45136 0.38307,4.45136z" fill="#565656" stroke="none" stroke-width="0" stroke-linecap="butt"/><path d="M246.71984,175.2494c0,0 -0.5461,-4.71205 -1.31195,-6.90019c-0.68297,-1.95135 -2.93805,-5.59981 -2.93805,-5.59981h3.125c0,0 1.28563,2.07712 1.81683,4.85582c0.75509,3.94988 -0.69183,7.64418 -0.69183,7.64418z" fill="#565656" stroke="none" stroke-width="0" stroke-linecap="butt"/><path d="M249.69007,168.32976c0,0 -0.77922,-2.10793 -1.38396,-3.08373c-0.52331,-0.84441 -2.03568,-2.43412 -2.03568,-2.43412h2.3125c0,0 0.95409,1.55111 1.12526,2.40426c0.19481,0.97088 -0.01812,3.1136 -0.01812,3.1136z" fill="#565656" stroke="none" stroke-width="0" stroke-linecap="butt"/><path d="M222.82826,173.10654c0,0 -0.07984,-6.91542 0.2131,-8.1743c0.20422,-0.87763 2.00118,-1.96856 2.00118,-1.96856c0,0 0.53232,8.54654 1.88118,11.34061c1.31705,2.72816 6.11882,5.23081 6.11882,5.23081c0,0 -4.80389,-0.24751 -6.43592,-1.41832c-1.65339,-1.18614 -3.77836,-5.01025 -3.77836,-5.01025z" fill="#565656" stroke="none" stroke-width="0" stroke-linecap="butt"/><path d="M222.97112,183.39226v-4.57143c0,0 1.47437,2.45774 2.58105,3.31488c1.29283,1.00131 4.70466,2.32798 4.70466,2.32798c0,0 -3.33991,0.4269 -4.67673,0.23031c-0.97727,-0.14371 -2.60899,-1.30174 -2.60899,-1.30174z" fill="#565656" stroke="none" stroke-width="0" stroke-linecap="butt"/><path d="M222.89969,191.53511v-4.64285c0,0 2.35996,2.80302 3.90688,3.77825c1.72033,1.08455 6.02169,2.72175 6.02169,2.72175c0,0 -5.00516,0.30016 -6.8185,-0.03902c-1.37067,-0.25638 -3.11007,-1.81813 -3.11007,-1.81813z" fill="#565656" stroke="none" stroke-width="0" stroke-linecap="butt"/><path d="M256.22884,183.53011c0,3.21329 -4.21259,5.81818 -9.40909,5.81818c-5.1965,0 -9.40909,-2.60489 -9.40909,-5.81818c0,-3.21329 4.21259,-5.81818 9.40909,-5.81818c5.1965,0 9.40909,2.60489 9.40909,5.81818z" fill="#565656" stroke="none" stroke-width="0" stroke-linecap="butt"/><path d="M245.39968,181.60654v1.21428" fill="none" stroke="#000000" stroke-width="1" stroke-linecap="round"/><path d="M250.89968,181.60654v1.14286" fill="none" stroke="#000000" stroke-width="1" stroke-linecap="round"/></g></g></svg>