<svg version="1.1" xmlns="http://www.w3.org/2000/svg" xmlns:xlink="http://www.w3.org/1999/xlink" width="35.12147" height="34.09914" viewBox="0,0,35.12147,34.09914"><g transform="translate(-222.86715,-163.03381)"><g data-paper-data="{&quot;isPaintingLayer&quot;:true}" fill-rule="nonzero" stroke-linejoin="miter" stroke-miterlimit="10" stroke-dasharray="" stroke-dashoffset="0" style="mix-blend-mode: normal"><path d="M222.86716,192.75108c0,-7.4682 0,-22.22932 0,-26.07895c0,-1.80256 1.8052,-3.63831 3.5852,-3.63831c3.96649,0 19.67642,0 26.87566,0c2.22596,0 3.63829,2.05166 3.63829,4.0101c0,3.80621 0,17.35811 0,24.91043c0,3.09217 -1.95867,5.17861 -3.85076,5.17861c-3.78728,0 -17.59338,0 -25.17601,0c-3.03456,0 -5.07238,-1.73179 -5.07238,-4.3819z" fill="#636363" stroke="none" stroke-width="0" stroke-linecap="butt"/><path d="M257.04964,175.61319c0,5.42219 0,11.77322 0,16.45267c0,2.97582 -1.95867,4.98375 -3.85076,4.98375c-2.90566,0 -11.7086,0 -19.07382,0c-2.70064,0 -5.26104,-1.78302 -5.47605,-6.00556c-0.10469,-2.05605 0.15195,-9.80985 0.17557,-12.33535c0.08872,-9.48427 11.01746,-11.42817 15.27037,-11.46449c10.36325,-0.0885 12.95468,5.36228 12.95468,8.36899z" fill="#ffffff" stroke="none" stroke-width="0" stroke-linecap="butt"/><path d="M234.92781,179.84344l-3.24324,-1.18919" fill="none" stroke="#000000" stroke-width="0.5" stroke-linecap="round"/><path d="M235.14403,181.35695l-4,0.75676" fill="none" stroke="#000000" stroke-width="0.5" stroke-linecap="round"/><path d="M231.90079,184.60016l2.91892,-1.72973" fill="none" stroke="#000000" stroke-width="0.5" stroke-linecap="round"/><path d="M255.25212,179.51911l2.05405,-1.18919" fill="none" stroke="#000000" stroke-width="0.5" stroke-linecap="round"/><path d="M257.73863,181.78938l-2.27027,-0.43243" fill="none" stroke="#000000" stroke-width="0.5" stroke-linecap="round"/><path d="M255.14403,182.97857l2.16216,1.72973" fill="none" stroke="#000000" stroke-width="0.5" stroke-linecap="round"/><path d="M248.23914,179.4619c0,-0.69036 3.05385,-0.62882 3.05385,0.06154c0,0.69036 -0.86734,1.92692 -1.55769,1.92692c-0.69036,0 -1.49615,-1.29811 -1.49615,-1.98846z" fill="#000000" stroke="none" stroke-width="0.5" stroke-linecap="butt"/><path d="M253.48914,181.12344c0,0 -0.667,2.09231 -1.72308,2.09231c-1.44582,0 -2.09231,-2.09231 -2.09231,-2.09231c0,0 -0.33785,1.99637 -2.03077,1.96923c-1.6505,-0.02646 -2.27692,-1.96923 -2.27692,-1.96923" fill="none" stroke="#000000" stroke-width="0.5" stroke-linecap="round"/></g></g></svg>