<svg version="1.1" xmlns="http://www.w3.org/2000/svg" xmlns:xlink="http://www.w3.org/1999/xlink" width="567.39189" height="66.03092" viewBox="0,0,567.39189,66.03092"><g transform="translate(41.68759,-301.26915)"><g data-paper-data="{&quot;isPaintingLayer&quot;:true}" fill-rule="nonzero" stroke-linejoin="miter" stroke-miterlimit="10" stroke-dasharray="" stroke-dashoffset="0" style="mix-blend-mode: normal"><path d="M-36.60133,367.30008c-0.02325,-0.95177 -0.04654,-1.90353 -0.06988,-2.85528c-0.68926,-9.34485 -2.52424,-18.56115 -4.1971,-27.79536c0.95273,-6.78783 1.90798,-13.57534 2.8659,-20.36258c-0.19173,-0.38777 -0.43324,-0.73274 -0.71513,-1.04299c0.33212,-1.71988 0.66322,-3.43976 0.99282,-5.15977l-3.23846,-6.6338c0.08947,-0.3834 0.17893,-0.76681 0.26839,-1.15021h559.79182c0.74841,3.88118 1.52501,7.75341 2.1397,11.60628c1.66612,10.44312 2.77632,20.97374 3.71949,31.50679c0.49958,5.57912 -1.50445,12.13888 0.44634,17.15078c0.01664,0.11121 0.03364,0.22267 0.051,0.33438l0,2.16651c0,0.76841 0.08667,1.51658 0.25076,2.23526z" fill="#65d969" stroke="#469949" stroke-width="0" stroke-linecap="butt"/><path d="M524.23903,365.08263h-560.89461c-0.00521,-0.21262 -0.01042,-0.42523 -0.01563,-0.63783c-0.68926,-9.34485 -2.52424,-18.56115 -4.1971,-27.79536c0.95273,-6.78783 1.90798,-13.57534 2.8659,-20.36258c-0.19173,-0.38777 -0.43324,-0.73274 -0.71513,-1.04299c0.2464,-1.27595 0.49223,-2.5519 0.73731,-3.82791h558.79945c0.14541,0.83096 0.28521,1.66113 0.41752,2.4904c1.2642,7.92394 2.20834,15.89825 3.00231,23.88577z" fill="#f56845" stroke="none" stroke-width="0" stroke-linecap="butt"/><path d="M-40.68758,302.26916h559.77864" fill="none" stroke="#469949" stroke-width="2" stroke-linecap="round"/><path d="M13.16668,329.6334c0,-2.02504 1.64162,-3.66667 3.66667,-3.66667c2.02504,0 3.66667,1.64162 3.66667,3.66667c0,2.02504 -1.64162,3.66667 -3.66667,3.66667c-2.02504,0 -3.66667,-1.64162 -3.66667,-3.66667z" fill="#cb5639" stroke="none" stroke-width="0" stroke-linecap="butt"/><path d="M52.50001,344.96675c0,-2.02504 1.64162,-3.66667 3.66667,-3.66667c2.02504,0 3.66667,1.64162 3.66667,3.66667c0,2.02504 -1.64162,3.66667 -3.66667,3.66667c-2.02504,0 -3.66667,-1.64162 -3.66667,-3.66667z" fill="#cb5639" stroke="none" stroke-width="0" stroke-linecap="butt"/><path d="M92.83334,329.80009c0,-1.19662 0.97005,-2.16667 2.16667,-2.16667c1.19662,0 2.16667,0.97005 2.16667,2.16667c0,1.19662 -0.97005,2.16667 -2.16667,2.16667c-1.19662,0 -2.16667,-0.97005 -2.16667,-2.16667z" fill="#cb5639" stroke="none" stroke-width="0" stroke-linecap="butt"/><path d="M-21.30787,349.9627c0,-2.57733 2.08934,-4.66667 4.66667,-4.66667c2.57733,0 4.66667,2.08934 4.66667,4.66667c0,2.57733 -2.08934,4.66667 -4.66667,4.66667c-2.57733,0 -4.66667,-2.08934 -4.66667,-4.66667z" fill="#cb5639" stroke="none" stroke-width="0" stroke-linecap="butt"/><path d="M95.50001,353.63342c0,-2.39323 1.9401,-4.33333 4.33333,-4.33333c2.39323,0 4.33333,1.9401 4.33333,4.33333c0,2.39323 -1.9401,4.33333 -4.33333,4.33333c-2.39323,0 -4.33333,-1.9401 -4.33333,-4.33333z" fill="#cb5639" stroke="none" stroke-width="0" stroke-linecap="butt"/><path d="M123.16668,332.46674c0,-2.11709 1.71624,-3.83333 3.83333,-3.83333c2.11709,0 3.83333,1.71624 3.83333,3.83333c0,2.11709 -1.71624,3.83333 -3.83333,3.83333c-2.11709,0 -3.83333,-1.71624 -3.83333,-3.83333z" fill="#cb5639" stroke="none" stroke-width="0" stroke-linecap="butt"/><path d="M162.5,347.30009c0,-4.23418 3.43248,-7.66667 7.66667,-7.66667c4.23418,0 7.66667,3.43248 7.66667,7.66667c0,4.23418 -3.43248,7.66667 -7.66667,7.66667c-4.23418,0 -7.66667,-3.43248 -7.66667,-7.66667z" fill="#cb5639" stroke="none" stroke-width="0" stroke-linecap="butt"/><path d="M203.50001,331.46674c0,-2.30119 1.86548,-4.16667 4.16667,-4.16667c2.30119,0 4.16667,1.86548 4.16667,4.16667c0,2.30119 -1.86548,4.16667 -4.16667,4.16667c-2.30119,0 -4.16667,-1.86548 -4.16667,-4.16667z" fill="#cb5639" stroke="none" stroke-width="0" stroke-linecap="butt"/><path d="M236.3646,348.6948c0,-4.69442 3.80558,-8.5 8.5,-8.5c4.69442,0 8.5,3.80558 8.5,8.5c0,4.69442 -3.80558,8.5 -8.5,8.5c-4.69442,0 -8.5,-3.80558 -8.5,-8.5z" fill="#cb5639" stroke="none" stroke-width="0" stroke-linecap="butt"/><path d="M274.16668,330.30009c0,-1.47276 1.19391,-2.66667 2.66667,-2.66667c1.47276,0 2.66667,1.19391 2.66667,2.66667c0,1.47276 -1.19391,2.66667 -2.66667,2.66667c-1.47276,0 -2.66667,-1.19391 -2.66667,-2.66667z" fill="#cb5639" stroke="none" stroke-width="0" stroke-linecap="butt"/><path d="M307.16668,337.63342c0,-3.4978 2.83553,-6.33333 6.33333,-6.33333c3.4978,0 6.33333,2.83553 6.33333,6.33333c0,3.4978 -2.83553,6.33333 -6.33333,6.33333c-3.4978,0 -6.33333,-2.83553 -6.33333,-6.33333z" fill="#cb5639" stroke="none" stroke-width="0" stroke-linecap="butt"/><path d="M356.50001,328.6334c0,-2.94552 2.38781,-5.33333 5.33333,-5.33333c2.94552,0 5.33333,2.38781 5.33333,5.33333c0,2.94552 -2.38781,5.33333 -5.33333,5.33333c-2.94552,0 -5.33333,-2.38781 -5.33333,-5.33333z" fill="#cb5639" stroke="none" stroke-width="0" stroke-linecap="butt"/><path d="M355.50001,356.63342c0,-2.94552 2.38781,-5.33333 5.33333,-5.33333c2.94552,0 5.33333,2.38781 5.33333,5.33333c0,2.94552 -2.38781,5.33333 -5.33333,5.33333c-2.94552,0 -5.33333,-2.38781 -5.33333,-5.33333z" fill="#cb5639" stroke="none" stroke-width="0" stroke-linecap="butt"/><path d="M409.16668,338.46675c0,-2.66938 2.16396,-4.83333 4.83333,-4.83333c2.66938,0 4.83333,2.16396 4.83333,4.83333c0,2.66938 -2.16396,4.83333 -4.83333,4.83333c-2.66938,0 -4.83333,-2.16396 -4.83333,-4.83333z" fill="#cb5639" stroke="none" stroke-width="0" stroke-linecap="butt"/><path d="M392.50001,357.96675c0,-2.57733 2.08934,-4.66667 4.66667,-4.66667c2.57733,0 4.66667,2.08934 4.66667,4.66667c0,2.57733 -2.08934,4.66667 -4.66667,4.66667c-2.57733,0 -4.66667,-2.08934 -4.66667,-4.66667z" fill="#cb5639" stroke="none" stroke-width="0" stroke-linecap="butt"/><path d="M443.83334,338.96675c0,-1.28866 1.04467,-2.33333 2.33333,-2.33333c1.28866,0 2.33333,1.04467 2.33333,2.33333c0,1.28866 -1.04467,2.33333 -2.33333,2.33333c-1.28866,0 -2.33333,-1.04467 -2.33333,-2.33333z" fill="#cb5639" stroke="none" stroke-width="0" stroke-linecap="butt"/><path d="M469.83334,326.46674c0,-2.48528 2.01472,-4.5 4.5,-4.5c2.48528,0 4.5,2.01472 4.5,4.5c0,2.48528 -2.01472,4.5 -4.5,4.5c-2.48528,0 -4.5,-2.01472 -4.5,-4.5z" fill="#cb5639" stroke="none" stroke-width="0" stroke-linecap="butt"/><path d="M469.83334,353.96675c0,-2.76142 2.23858,-5 5,-5c2.76142,0 5,2.23858 5,5c0,2.76142 -2.23858,5 -5,5c-2.76142,0 -5,-2.23858 -5,-5z" fill="#cb5639" stroke="none" stroke-width="0" stroke-linecap="butt"/><path d="M518.84386,348.07374c0,-4.69442 -3.84664,-8.5 -8.5917,-8.5c-4.74507,0 -8.5917,3.80558 -8.5917,8.5c0,4.69442 3.84664,8.5 8.5917,8.5c4.74506,0 8.5917,-3.80558 8.5917,-8.5z" fill="#cb5639" stroke="none" stroke-width="0" stroke-linecap="butt"/><path d="" fill="#cb5639" stroke="none" stroke-width="0" stroke-linecap="butt"/><path d="M497.45734,337.70846c0,-3.25117 -2.66402,-5.88675 -5.95027,-5.88675c-3.28624,0 -5.95027,2.63558 -5.95027,5.88675c0,3.25117 2.66402,5.88675 5.95027,5.88675c3.28624,0 5.95027,-2.63559 5.95027,-5.88675z" fill="#cb5639" stroke="none" stroke-width="0" stroke-linecap="butt"/><path d="M522.65656,324.56912c0,-3.15096 -2.58192,-5.70531 -5.76687,-5.70531c-3.18494,0 -5.76686,2.55435 -5.76686,5.70531c0,3.15096 2.58191,5.70531 5.76686,5.70531c3.18494,0 5.76687,-2.55435 5.76687,-5.70531z" fill="#cb5639" stroke="none" stroke-width="0" stroke-linecap="butt"/><path d="M-22.31589,320.91115c0,-4.2364 3.43428,-7.67067 7.67067,-7.67067c4.2364,0 7.67067,3.43428 7.67067,7.67067c0,4.2364 -3.43428,7.67067 -7.67067,7.67067c-4.2364,0 -7.67067,-3.43428 -7.67067,-7.67067z" fill="#cb5639" stroke="none" stroke-width="0" stroke-linecap="butt"/><path d="" fill="#cb5639" stroke="none" stroke-width="0" stroke-linecap="butt"/><path d="" fill="#cb5639" stroke="none" stroke-width="0" stroke-linecap="butt"/></g></g></svg>