<svg version="1.1" xmlns="http://www.w3.org/2000/svg" xmlns:xlink="http://www.w3.org/1999/xlink" width="34.90651" height="14.15141" viewBox="0,0,34.90651,14.15141"><g transform="translate(-220.9997,-155.62723)"><g data-paper-data="{&quot;isPaintingLayer&quot;:true}" fill-rule="nonzero" stroke="none" stroke-width="0" stroke-linecap="butt" stroke-linejoin="miter" stroke-miterlimit="10" stroke-dasharray="" stroke-dashoffset="0" style="mix-blend-mode: normal"><path d="M222.73209,165.98931c-2.35244,-2.41362 -2.30284,-6.27725 0.11078,-8.62969c2.41362,-2.35244 6.27725,-2.30284 8.62969,0.11078c2.35244,2.41362 5.03111,9.07649 2.61749,11.42892c-2.41362,2.35244 -9.00553,-0.4964 -11.35797,-2.91002z" fill="#f48b40"/><path d="M224.71398,165.57931c-1.64136,-1.56654 -1.70203,-4.16706 -0.13549,-5.80842c1.56654,-1.64136 4.16705,-1.70204 5.80843,-0.13551c1.64136,1.56654 3.37556,5.76429 1.80903,7.40567c-1.56654,1.64136 -5.8406,0.1048 -7.48196,-1.46174z" fill="#fbf6e9"/><path d="M246.39226,158.0386c2.11014,-2.20349 5.60703,-2.27917 7.81052,-0.16904c2.20349,2.11014 2.27917,5.60703 0.16904,7.81052c-2.11014,2.20349 -8.0543,4.83473 -10.2578,2.72458c-2.20349,-2.11014 0.1681,-8.16257 2.27824,-10.36608z" fill="#dc7d39"/><path d="M246.82501,159.81878c1.36599,-1.53379 3.71672,-1.6698 5.25051,-0.30381c1.53379,1.36599 1.6698,3.71673 0.30381,5.25051c-1.36599,1.53379 -5.10949,3.23365 -6.64328,1.86765c-1.53379,-1.36599 -0.27705,-5.28057 1.08896,-6.81436z" fill="#f5e6d2"/></g></g></svg>