<svg version="1.1" xmlns="http://www.w3.org/2000/svg" xmlns:xlink="http://www.w3.org/1999/xlink" width="34.43761" height="34.43761" viewBox="0,0,34.43761,34.43761"><g transform="translate(-222.78121,-162.7812)"><g data-paper-data="{&quot;isPaintingLayer&quot;:true}" fill-rule="nonzero" stroke="none" stroke-linecap="butt" stroke-linejoin="miter" stroke-miterlimit="10" stroke-dasharray="" stroke-dashoffset="0" style="mix-blend-mode: normal"><path d="M222.78121,192.79342c0,-7.54232 0,-22.44996 0,-26.3378c0,-1.82046 1.82312,-3.67442 3.62078,-3.67442c4.00587,0 19.87172,0 27.14242,0c2.24806,0 3.67441,2.07203 3.67441,4.04991c0,3.84399 0,17.5304 0,25.15769c0,3.12286 -1.97811,5.23001 -3.88898,5.23001c-3.82487,0 -17.76801,0 -25.4259,0c-3.06468,0 -5.12273,-1.74897 -5.12273,-4.42539z" fill="#724236" stroke-width="0"/><path d="M228.68105,168.44314c0,1.68754 -1.43628,4.64379 -2.26471,4.64379c-0.82843,0 -0.73529,-1.36802 -0.73529,-3.05556c0,-1.68754 -0.09313,-3.05556 0.73529,-3.05556c0.82843,0 2.26471,-0.22022 2.26471,1.46732z" fill="#8b5d4f" stroke-width="0"/><path d="M231.09281,176.14902c0,2.45279 -0.59161,2.91176 -2.26471,2.91176c-1.6731,0 -2.61765,-0.34132 -2.61765,-2.79412c0,-1.29755 0.90897,-2.11219 1.51421,-2.92419c0.53886,-0.72295 1.2566,-1.86993 2.04462,-1.86993c1.6731,0 1.32353,2.22368 1.32353,4.67647z" fill="#8b5d4f" stroke-width="0"/><path d="M256.01,188.24c0,2.92711 -0.95802,4.7 -3.25,4.7c-1.09471,0 -0.7851,-1.00976 -1.31215,-1.96573c-0.57643,-1.04555 -1.93785,-2.10522 -1.93785,-3.63426c0,-2.92711 1.65802,-3.6 3.95,-3.6c2.29198,0 2.55,1.57289 2.55,4.5z" fill="#8b5d4f" stroke-width="0"/><path d="M251.01,192.69c0,2.07107 -1.24609,1.65 -3.4,1.65c-2.15391,0 -3.3,0.42107 -3.3,-1.65c0,-2.07107 0.74609,-3.65 2.9,-3.65c2.15391,0 3.8,1.57893 3.8,3.65z" fill="#8b5d4f" stroke-width="0"/><path d="M254.61,167.64c0,1.98823 0.49427,4.7 -2.35,4.7c-1.15616,0 -1.78255,-1.68284 -3.66195,-2.15212c-2.74411,-0.68519 -6.68805,-0.36784 -6.68805,-1.54788c0,-1.98822 2.40573,-2.5 5.25,-2.5c2.84427,0 7.45,-0.48822 7.45,1.5z" fill="#8b5d4f" stroke-width="0"/><path d="M228.18105,167.84314c0,1.68754 -1.43628,4.64379 -2.26471,4.64379c-0.82843,0 -0.73529,-1.36802 -0.73529,-3.05556c0,-1.68754 -0.09313,-3.05556 0.73529,-3.05556c0.82843,0 2.26471,-0.22022 2.26471,1.46732z" fill="#663529" stroke-width="0"/><path d="M230.59281,175.64902c0,2.45279 -0.59161,2.91176 -2.26471,2.91176c-1.6731,0 -2.61765,-0.34132 -2.61765,-2.79412c0,-1.29755 0.90897,-2.11219 1.51421,-2.92419c0.53886,-0.72295 1.2566,-1.86993 2.04462,-1.86993c1.6731,0 1.32353,2.22368 1.32353,4.67647z" fill="#663529" stroke-width="0"/><path d="M255.51,187.74c0,2.92711 -0.95802,4.7 -3.25,4.7c-1.09471,0 -0.7851,-1.00976 -1.31215,-1.96573c-0.57643,-1.04555 -1.93785,-2.10522 -1.93785,-3.63426c0,-2.92711 1.65802,-3.6 3.95,-3.6c2.29198,0 2.55,1.57289 2.55,4.5z" fill="#663529" stroke-width="0"/><path d="M250.51,192.19c0,2.07107 -1.24609,1.65 -3.4,1.65c-2.15391,0 -3.3,0.42107 -3.3,-1.65c0,-2.07107 0.74609,-3.65 2.9,-3.65c2.15391,0 3.8,1.57893 3.8,3.65z" fill="#663529" stroke-width="0"/><path d="M254.11,167.14c0,1.98823 0.49427,4.7 -2.35,4.7c-1.15616,0 -1.78255,-1.68284 -3.66195,-2.15212c-2.74411,-0.68519 -6.68805,-0.36784 -6.68805,-1.54788c0,-1.98822 2.40573,-2.5 5.25,-2.5c2.84427,0 7.45,-0.48822 7.45,1.5z" fill="#663529" stroke-width="0"/><path d="M227.43669,193.07835c0.53049,0.87321 1.74613,0.90402 1.50432,1.05093c-0.24181,0.14691 -1.56807,0.0501 -2.09857,-0.82312c-0.53049,-0.87321 -0.06434,-2.19216 0.17747,-2.33907c0.24181,-0.14691 -0.11372,1.23804 0.41677,2.11126z" fill="#8b5d4f" stroke-width="0"/><path d="M251.16666,173.48649c0.91855,0.44743 1.95762,-0.18428 1.83371,0.07009c-0.12391,0.25437 -1.29171,0.89041 -2.21026,0.44298c-0.91855,-0.44743 -1.24,-1.8089 -1.1161,-2.06326c0.12391,-0.25437 0.5741,1.10276 1.49265,1.55019z" fill="#8b5d4f" stroke-width="0"/><path d="M229.56,168.74c0,-0.41421 0.33579,-0.75 0.75,-0.75c0.41421,0 0.75,0.33579 0.75,0.75c0,0.41421 -0.33579,0.75 -0.75,0.75c-0.41421,0 -0.75,-0.33579 -0.75,-0.75z" fill="#8b5d4f" stroke-width="0.5"/><path d="M241.46,193.34c0,-0.41421 0.33579,-0.75 0.75,-0.75c0.41421,0 0.75,0.33579 0.75,0.75c0,0.41421 -0.33579,0.75 -0.75,0.75c-0.41421,0 -0.75,-0.33579 -0.75,-0.75z" fill="#8b5d4f" stroke-width="0.5"/><path d="M246.86,186.64c0,-0.30376 0.24624,-0.55 0.55,-0.55c0.30376,0 0.55,0.24624 0.55,0.55c0,0.30376 -0.24624,0.55 -0.55,0.55c-0.30376,0 -0.55,-0.24624 -0.55,-0.55z" fill="#8b5d4f" stroke-width="0.5"/><path d="M246.96,171.54c0,-0.30376 0.24624,-0.55 0.55,-0.55c0.30376,0 0.55,0.24624 0.55,0.55c0,0.30376 -0.24624,0.55 -0.55,0.55c-0.30376,0 -0.55,-0.24624 -0.55,-0.55z" fill="#8b5d4f" stroke-width="0.5"/><path d="M233.02995,193.3528c-2.45162,0.0759 -4.66341,0.49412 -4.71519,-1.17818c-0.02439,-0.78764 1.09983,-1.54053 1.80576,-2.10151c0.79288,-0.63008 1.579,-1.56382 2.87593,-1.60398c2.45163,-0.0759 2.82201,0.85763 2.87379,2.52993c0.05177,1.6723 -0.38867,2.27783 -2.84028,2.35373z" data-paper-data="{&quot;index&quot;:null}" fill="#8b5d4f" stroke-width="0"/><path d="M232.50459,192.76903c-2.45162,0.0759 -4.66341,0.49412 -4.71519,-1.17818c-0.02439,-0.78764 1.09983,-1.54053 1.80576,-2.10151c0.79288,-0.63008 1.579,-1.56382 2.87593,-1.60398c2.45163,-0.0759 2.82201,0.85763 2.87379,2.52993c0.05177,1.6723 -0.38867,2.27783 -2.84028,2.35373z" data-paper-data="{&quot;index&quot;:null}" fill="#663529" stroke-width="0"/><path d="M230.61152,179.97147c0.04532,0.49794 -0.45263,0.54326 -0.45263,0.54326l-0.00281,-0.00949c-1.0429,0.30419 -1.92283,0.31431 -2.94073,-0.07686c0,0 -0.46564,-0.18215 -0.28349,-0.64779c0.18215,-0.46564 0.64779,-0.28349 0.64779,-0.28349c0.79626,0.31823 1.47135,0.29741 2.29224,0.04937l0.19636,-0.02762c0,0 0.49794,-0.04532 0.54326,0.45263z" fill="#8b5d4f" stroke-width="0.5"/></g></g></svg>