<svg version="1.1" xmlns="http://www.w3.org/2000/svg" xmlns:xlink="http://www.w3.org/1999/xlink" width="23.25" height="21.19955" viewBox="0,0,23.25,21.19955"><g transform="translate(-201.46358,-166.8289)"><g data-paper-data="{&quot;isPaintingLayer&quot;:true}" fill-rule="nonzero" stroke="none" stroke-width="0" stroke-linecap="butt" stroke-linejoin="miter" stroke-miterlimit="10" stroke-dasharray="" stroke-dashoffset="0" style="mix-blend-mode: normal"><path d="M201.54692,171.70875c0,-2.69239 2.18551,-4.99995 4.875,-4.875c3.58756,0.16667 5.14847,1.77815 8.06843,5.17849c3.73112,4.34494 1.74972,8.50387 3.95595,11.18381c2.81288,3.41683 6.26729,2.93657 6.26729,3.92937c0,1.42354 -5.94414,1.39481 -10.45236,-1.77608c-1.79292,-1.26106 -2.51706,-5.74303 -4.9845,-8.1599c-1.55289,-1.52107 -4.35162,-0.94201 -5.91197,-1.75687c-1.51701,-0.79223 -1.81784,-2.98877 -1.81784,-3.72382z" fill="#404040"/><path d="M201.46359,171.70875c0,-2.69239 2.18261,-4.875 4.875,-4.875c0.9209,0 -0.16348,9.74702 -1.72383,8.93215c-2.7118,0.08846 -3.15117,-3.62662 -3.15117,-4.05715z" fill="#ffffff"/></g></g></svg>