<svg version="1.1" xmlns="http://www.w3.org/2000/svg" xmlns:xlink="http://www.w3.org/1999/xlink" width="27.59439" height="16.43078" viewBox="0,0,27.59439,16.43078"><g transform="translate(-226.93103,-151.01191)"><g data-paper-data="{&quot;isPaintingLayer&quot;:true}" fill-rule="nonzero" stroke="none" stroke-width="0" stroke-linecap="butt" stroke-linejoin="miter" stroke-miterlimit="10" stroke-dasharray="" stroke-dashoffset="0" style="mix-blend-mode: normal"><path d="M226.93104,156.73499c0,-3.53462 4.03461,-5.72308 7.56923,-5.72308c3.53462,0 6.64615,0.64999 6.64615,4.18462c0,3.53462 0.33462,11.63077 -3.2,11.63077c-3.53462,0 -11.01538,-6.55769 -11.01538,-10.09231z" fill="#a2774c"/><path d="M254.50028,157.47346c-0.18075,1.89466 -2.52189,9.96923 -5.78462,9.96923c-3.26273,0 -6.09231,-8.68136 -6.09231,-10.58462c0,-1.90326 0.85513,-4.68573 6.4,-4.73846c4.18259,-0.03978 5.72308,2.77366 5.47692,5.35385z" fill="#a2774c"/><path d="M231.11567,157.47346c0,-1.73332 1.79086,-3.13846 4,-3.13846c2.20914,0 4,1.40514 4,3.13846c0,1.73332 -0.99086,6.52308 -3.2,6.52308c-2.20914,0 -4.8,-4.78975 -4.8,-6.52308z" fill="#ffbec1"/><path d="M252.46951,158.40837c-0.33571,1.84552 -2.12339,5.11953 -3.90769,5.11953c-1.7843,0 -3.12717,-3.06453 -2.98462,-4.93491c0.24615,-3.22965 1.87723,-3.58107 3.66154,-3.58107c1.7843,0 3.66154,1.02833 3.23077,3.39645z" fill="#ffbec1"/></g></g></svg>