<svg version="1.1" xmlns="http://www.w3.org/2000/svg" xmlns:xlink="http://www.w3.org/1999/xlink" width="428.04254" height="223.85406" viewBox="0,0,428.04254,223.85406"><g transform="translate(-13.01817,-15.47832)"><g data-paper-data="{&quot;isPaintingLayer&quot;:true}" fill="#ffffff" fill-rule="nonzero" stroke="none" stroke-width="0" stroke-linecap="butt" stroke-linejoin="miter" stroke-miterlimit="10" stroke-dasharray="" stroke-dashoffset="0" style="mix-blend-mode: normal"><g><path d="M364.88529,37.32442c0,-7.13809 5.78655,-12.92465 12.92465,-12.92465c7.13809,0 12.92465,5.78657 12.92465,12.92465c0,7.13809 -5.78655,12.92465 -12.92465,12.92465c-7.13809,0 -12.92465,-5.78655 -12.92465,-12.92465z"/><path d="M382.49942,30.91927c0,-8.5278 6.91316,-15.44095 15.44095,-15.44095c8.5278,0 15.44095,6.91316 15.44095,15.44095c0,8.5278 -6.91316,15.44095 -15.44095,15.44095c-8.5278,0 -15.44095,-6.91314 -15.44095,-15.44095z"/><path d="M350.93123,41.09886c0,-5.55887 4.50635,-10.06521 10.06523,-10.06521c5.55887,0 10.06523,4.50635 10.06523,10.06521c0,5.55887 -4.50635,10.06521 -10.06521,10.06521c-5.55887,0 -10.06521,-4.50635 -10.06521,-10.06521z"/><path d="M417.84207,51.16407c-7.13809,0 -12.92465,-5.78655 -12.92465,-12.92465c0,-7.13809 5.78655,-12.92465 12.92465,-12.92465c7.13809,0 12.92465,5.78657 12.92465,12.92465c0,7.13809 -5.78655,12.92465 -12.92465,12.92465z" data-paper-data="{&quot;index&quot;:null}"/><path d="M433.74053,51.39284c-4.0428,0 -7.32016,-3.27735 -7.32016,-7.32016c0,-4.0428 3.27735,-7.32018 7.32016,-7.32018c4.0428,0 7.32018,3.27735 7.32018,7.32018c0,4.0428 -3.27735,7.32016 -7.32018,7.32016z" data-paper-data="{&quot;index&quot;:null}"/><path d="M360.99646,51.16407v-8.92144h75.48913v8.92144z"/></g><g><path d="M31.79208,220.40459c0,-9.60366 7.78529,-17.38895 17.38895,-17.38895c9.60366,0 17.38895,7.78531 17.38895,17.38895c0,9.60366 -7.78531,17.38895 -17.38895,17.38895c-9.60366,0 -17.38895,-7.78531 -17.38895,-17.38895z"/><path d="M55.4903,211.78706c0,-11.4734 9.30102,-20.77442 20.77442,-20.77442c11.4734,0 20.77442,9.30102 20.77442,20.77442c0,11.4734 -9.30102,20.77442 -20.77442,20.77442c-11.4734,0 -20.77442,-9.30102 -20.77442,-20.77442z"/><path d="M13.01817,225.48278c0,-7.47895 6.06288,-13.54183 13.54183,-13.54183c7.47895,0 13.54183,6.06288 13.54183,13.54183c0,7.47895 -6.06288,13.54183 -13.54183,13.54183c-7.47895,0 -13.54183,-6.06288 -13.54183,-13.54183z"/><path d="M103.0406,239.02461c-9.60366,0 -17.38895,-7.78529 -17.38895,-17.38895c0,-9.60366 7.78529,-17.38895 17.38895,-17.38895c9.60366,0 17.38895,7.78531 17.38895,17.38895c0,9.60366 -7.78529,17.38895 -17.38895,17.38895z" data-paper-data="{&quot;index&quot;:null}"/><path d="M124.43055,239.33238c-5.43923,0 -9.84862,-4.40937 -9.84862,-9.84862c0,-5.43923 4.40937,-9.84862 9.84862,-9.84862c5.43923,0 9.84862,4.40937 9.84862,9.84862c0,5.43923 -4.40937,9.84862 -9.84862,9.84862z" data-paper-data="{&quot;index&quot;:null}"/><path d="M26.56001,239.02461v-12.00299h101.56378v12.00299z"/></g><g><path d="M112.53719,106.20626c0,-7.21458 5.84858,-13.06317 13.06317,-13.06317c7.21458,0 13.06317,5.84858 13.06317,13.06317c0,7.21458 -5.84858,13.06317 -13.06317,13.06317c-7.21458,0 -13.06317,-5.84859 -13.06317,-13.06317z"/><path d="M130.3401,99.73247c0,-8.6192 6.98724,-15.60644 15.60644,-15.60644c8.6192,0 15.60644,6.98724 15.60644,15.60644c0,8.6192 -6.98724,15.60644 -15.60644,15.60644c-8.6192,0 -15.60644,-6.98724 -15.60644,-15.60644z"/><path d="M98.4336,110.02117c0,-5.61844 4.55466,-10.1731 10.1731,-10.1731c5.61844,0 10.1731,4.55466 10.1731,10.1731c0,5.61844 -4.55466,10.1731 -10.1731,10.1731c-5.61844,0 -10.1731,-4.55466 -10.1731,-10.1731z"/><path d="M166.0615,120.19425c-7.2146,0 -13.06317,-5.84858 -13.06317,-13.06317c0,-7.2146 5.84858,-13.06317 13.06317,-13.06317c7.2146,0 13.06317,5.84858 13.06317,13.06317c0,7.2146 -5.84858,13.06317 -13.06317,13.06317z" data-paper-data="{&quot;index&quot;:null}"/><path d="M182.13035,120.42545c-4.08613,0 -7.3986,-3.31247 -7.3986,-7.3986c0,-4.08613 3.31247,-7.3986 7.3986,-7.3986c4.08613,0 7.39862,3.31247 7.39862,7.39862c0,4.08613 -3.31247,7.3986 -7.3986,7.3986z" data-paper-data="{&quot;index&quot;:null}"/><path d="M108.60668,120.19425v-9.01705h76.29815v9.01705z"/></g><g><path d="M298.49606,195.99046c0,-7.13809 5.78655,-12.92465 12.92465,-12.92465c7.13809,0 12.92465,5.78657 12.92465,12.92465c0,7.13809 -5.78655,12.92465 -12.92465,12.92465c-7.13809,0 -12.92465,-5.78655 -12.92465,-12.92465z"/><path d="M316.1102,189.58535c0,-8.5278 6.91316,-15.44095 15.44095,-15.44095c8.5278,0 15.44095,6.91316 15.44095,15.44095c0,8.5278 -6.91316,15.44095 -15.44095,15.44095c-8.5278,0 -15.44095,-6.91314 -15.44095,-15.44095z"/><path d="M284.54201,199.76494c0,-5.55887 4.50635,-10.06521 10.06523,-10.06521c5.55887,0 10.06523,4.50635 10.06523,10.06521c0,5.55887 -4.50635,10.06521 -10.06521,10.06521c-5.55887,0 -10.06521,-4.50635 -10.06521,-10.06521z"/><path d="M351.45285,209.83015c-7.13809,0 -12.92465,-5.78655 -12.92465,-12.92465c0,-7.13809 5.78655,-12.92465 12.92465,-12.92465c7.13809,0 12.92465,5.78657 12.92465,12.92465c0,7.13809 -5.78655,12.92465 -12.92465,12.92465z" data-paper-data="{&quot;index&quot;:null}"/><path d="M367.35129,210.0589c-4.0428,0 -7.32016,-3.27735 -7.32016,-7.32016c0,-4.0428 3.27735,-7.32018 7.32016,-7.32018c4.0428,0 7.32018,3.27735 7.32018,7.32018c0,4.0428 -3.27735,7.32016 -7.32018,7.32016z" data-paper-data="{&quot;index&quot;:null}"/><path d="M294.60724,209.83015v-8.92144h75.48913v8.92144z"/></g></g></g></svg>