<svg version="1.1" xmlns="http://www.w3.org/2000/svg" xmlns:xlink="http://www.w3.org/1999/xlink" width="11.02238" height="12.81884" viewBox="0,0,11.02238,12.81884"><g transform="translate(-220.40889,-172.44472)"><g data-paper-data="{&quot;isPaintingLayer&quot;:true}" fill-rule="nonzero" stroke="none" stroke-width="0" stroke-linecap="butt" stroke-linejoin="miter" stroke-miterlimit="10" stroke-dasharray="" stroke-dashoffset="0" style="mix-blend-mode: normal"><path d="M223.9663,184.67192c-0.57448,0.77723 -2.07026,0.7416 -2.84749,0.16712c-0.77723,-0.57448 -0.9416,-2.17026 -0.36712,-2.94749c0.3252,-0.43997 3.1318,-3.68296 5.58528,-6.18637c1.88072,-1.91899 3.49257,-0.83073 2.27891,1.44283c-1.73273,3.24592 -4.31174,7.06684 -4.64958,7.52392z" data-paper-data="{&quot;index&quot;:null}" fill="#f5d6c1"/><path d="M227.07412,174.6233c0,-1.20319 0.97538,-2.17857 2.17857,-2.17857c1.20319,0 2.17857,0.97538 2.17857,2.17857c0,1.20319 -0.97538,2.17857 -2.17857,2.17857c-1.20319,0 -2.17857,-0.97538 -2.17857,-2.17857z" fill="#f6f6f6"/></g></g></svg>