<svg version="1.1" xmlns="http://www.w3.org/2000/svg" xmlns:xlink="http://www.w3.org/1999/xlink" width="485" height="373" viewBox="0,0,485,373"><defs><linearGradient x1="240" y1="-275.20142" x2="240" y2="366.5" gradientUnits="userSpaceOnUse" id="color-1"><stop offset="0" stop-color="#000000"/><stop offset="1" stop-color="#000000" stop-opacity="0"/></linearGradient><linearGradient x1="240" y1="635.20142" x2="240" y2="-6.5" gradientUnits="userSpaceOnUse" id="color-2"><stop offset="0" stop-color="#000000"/><stop offset="1" stop-color="#000000" stop-opacity="0"/></linearGradient></defs><g transform="translate(2.5,6.5)"><g data-paper-data="{&quot;isPaintingLayer&quot;:true}" fill-rule="nonzero" stroke-linejoin="miter" stroke-miterlimit="10" stroke-dasharray="" stroke-dashoffset="0" style="mix-blend-mode: normal"><path d="M-2.5,366.5v-373h485v373zM3.61191,5.75268c-0.42316,0.05289 -2.26529,3.94876 -2.11191,4.63899c1.33072,5.98826 0.86013,11.92514 1.19453,17.9444c0.14958,2.69248 6.62938,3.75519 8.47214,3.76393c6.01698,0.02854 12.03426,-0.04447 18.05114,0c4.46023,0.03296 17.02241,3.09301 20.4558,-3.07986c1.6966,-3.0503 -0.60434,-6.43705 -1.17361,-9.43381c-0.55322,-2.91228 1.47837,-10.83552 0.51738,-12.51726c-2.86784,-5.01872 -7.10357,-3.24411 -12.1567,-3.3024c-3.77965,-0.04361 -7.53885,-1.36449 -11.4145,-1.36449c-1.89703,0 -3.38859,1.25598 -5.22837,1.36449c-3.89347,0.22962 -7.52845,0.08902 -11.38447,-0.33333c-0.94719,-0.10375 -3.13073,-0.02123 -3.53767,0.69092z" fill="url(#color-1)" stroke="none" stroke-width="0" stroke-linecap="butt"/><path d="M482.5,-6.5v373h-485v-373zM3.61191,5.75268c-0.42316,0.05289 -2.26529,3.94876 -2.11191,4.63899c1.33072,5.98826 0.86013,11.92514 1.19453,17.9444c0.14958,2.69248 6.62938,3.75519 8.47214,3.76393c6.01698,0.02854 12.03426,-0.04447 18.05114,0c4.46023,0.03296 17.02241,3.09301 20.4558,-3.07986c1.6966,-3.0503 -0.60434,-6.43705 -1.17361,-9.43381c-0.55322,-2.91228 1.47837,-10.83552 0.51738,-12.51726c-2.86784,-5.01872 -7.10357,-3.24411 -12.1567,-3.3024c-3.77965,-0.04361 -7.53885,-1.36449 -11.4145,-1.36449c-1.89703,0 -3.38859,1.25598 -5.22837,1.36449c-3.89347,0.22962 -7.52845,0.08902 -11.38447,-0.33333c-0.94719,-0.10375 -3.13073,-0.02123 -3.53767,0.69092z" data-paper-data="{&quot;index&quot;:null}" fill="url(#color-2)" stroke="none" stroke-width="0" stroke-linecap="butt"/><path d="M7.33334,94.92425c0,-12.75946 0,-34.02004 0,-41.80501c0,-6.07449 6.27961,-11.45257 16.0279,-11.45257c19.61584,0 93.38855,0 124.25751,0c6.71288,0 13.71459,3.92651 13.71459,9.70027c0,13.32513 0,36.48926 0,43.93281c0,4.53725 -5.8567,9.70027 -15.20171,9.70027c-32.38139,0 -106.64655,0 -124.25751,0c-7.32772,0 -14.54078,-4.10807 -14.54078,-10.07576z" fill="#fff6e6" stroke="#774c3f" stroke-width="1.5" stroke-linecap="butt"/><text transform="translate(8.36816,69.44107) scale(0.54569,0.54569)" font-size="40" xml:space="preserve" fill="#5b3f2f" fill-rule="nonzero" stroke="#5b3f2f" stroke-width="2" stroke-linecap="butt" stroke-linejoin="miter" stroke-miterlimit="10" stroke-dasharray="" stroke-dashoffset="0" font-family="Sans Serif" font-weight="normal" text-anchor="start" style="mix-blend-mode: normal"><tspan x="0" dy="0">Score Counter </tspan><tspan x="0" dy="48px">     is HERE!!!</tspan></text><path d="M65.58334,20.2c0,0 12.14642,0.09595 22.84271,6.76258c11.53015,7.18634 16.65729,18.98742 16.65729,18.98742" fill="none" stroke="#774c3f" stroke-width="7.5" stroke-linecap="round"/><path d="M67.33334,33.2c0,0 -8.81568,-14.18432 -6.25,-16.75c2.37845,-2.37845 21.125,-4.375 21.125,-4.375" fill="none" stroke="#774c3f" stroke-width="7.5" stroke-linecap="round"/><path d="M2.51163,32.775v-30.25h47.82171v30.25z" fill="none" stroke="#774c3f" stroke-width="5" stroke-linecap="butt"/></g></g></svg>