<svg version="1.1" xmlns="http://www.w3.org/2000/svg" xmlns:xlink="http://www.w3.org/1999/xlink" width="34.87175" height="34.51121" viewBox="0,0,34.87175,34.51121"><g transform="translate(-222.78127,-162.78124)"><g data-paper-data="{&quot;isPaintingLayer&quot;:true}" fill-rule="nonzero" stroke="none" stroke-width="0" stroke-linecap="butt" stroke-linejoin="miter" stroke-miterlimit="10" stroke-dasharray="" stroke-dashoffset="0" style="mix-blend-mode: normal"><path d="M222.78127,192.79346c0,-7.54232 0,-22.44996 0,-26.3378c0,-1.82046 1.82312,-3.67442 3.62078,-3.67442c4.00587,0 19.87172,0 27.14242,0c2.24806,0 3.67441,2.07203 3.67441,4.04991c0,3.84399 0,17.5304 0,25.15769c0,3.12286 -1.97811,5.23001 -3.88898,5.23001c-3.82487,0 -17.76801,0 -25.4259,0c-3.06468,0 -5.12273,-1.74897 -5.12273,-4.42539z" fill="#d58442"/><path d="M253.91111,183.83254c-0.08696,2.70731 -1.44685,2.91682 -4.06283,3.13499c-0.12033,0.01003 -0.01837,-0.80705 -1.21519,-0.8167c-0.87723,-0.00707 -0.8782,0.83033 -1.00189,0.82091c-2.68884,-0.2048 -4.51934,-0.47856 -4.60897,-3.1392c-0.10412,-3.09079 2.27089,-3.27778 5.27778,-3.27778c3.00689,0 5.70492,0.35738 5.61111,3.27778z" fill="#ffffff"/><path d="M238.53606,173.58531c-1.02472,-0.41232 -2.94844,-2.15157 -2.53612,-3.17629c0.41232,-1.02472 3.00454,-0.94689 4.02926,-0.53457c1.02472,0.41232 1.52118,1.57728 1.10886,2.602c-0.41232,1.02472 -1.57727,1.52118 -2.602,1.10886z" fill="#ffffff"/><path d="M254.42132,172.47644c-0.41232,-1.02472 0.08414,-2.18968 1.10886,-2.602c0.46633,-0.18764 0.50727,-0.38934 1.26966,-0.36605c0.91292,0.02788 1.24821,3.66459 0.22348,4.07691c-1.02472,0.41232 -2.18968,-0.08414 -2.602,-1.10886z" data-paper-data="{&quot;index&quot;:null}" fill="#ffffff"/><path d="M251.50834,180.08254c-0.05555,0.82775 -1.47209,2.51389 -3.01389,2.51389c-1.5418,0 -2.87291,-1.68893 -2.79167,-2.51389c0.0881,-0.89456 5.85354,-0.71503 5.80555,0z" fill="#02000d"/><path d="M254.07029,197.03024c-0.76594,0.28739 -27.46921,0.44241 -28.87951,-0.09494c-2.49778,-0.95171 -2.09058,-2.51614 -2.09058,-3.52778c0,-3.06409 11.08502,-4.38954 20.51429,-4.38954c9.42927,0 13.44104,1.63915 13.44104,4.70324c0,0 -0.69902,2.45121 -2.98524,3.30902z" fill="#ffffff"/></g></g></svg>