<svg version="1.1" xmlns="http://www.w3.org/2000/svg" xmlns:xlink="http://www.w3.org/1999/xlink" width="426.73848" height="235.90091" viewBox="0,0,426.73848,235.90091"><g transform="translate(-27.85316,-19.69755)"><g data-paper-data="{&quot;isPaintingLayer&quot;:true}" fill="#ffffff" fill-rule="nonzero" stroke="none" stroke-width="0" stroke-linecap="butt" stroke-linejoin="miter" stroke-miterlimit="10" stroke-dasharray="" stroke-dashoffset="0" style="mix-blend-mode: normal"><g><path d="M363.46994,62.31911c0,-8.53866 6.92195,-15.4606 15.4606,-15.4606c8.53864,0 15.4606,6.92195 15.4606,15.4606c0,8.53866 -6.92195,15.4606 -15.4606,15.4606c-8.53864,0 -15.4606,-6.92195 -15.4606,-15.4606z"/><path d="M384.54012,54.65722c0,-10.20104 8.2696,-18.47061 18.47063,-18.47061c10.20104,0 18.47061,8.26958 18.47061,18.47061c0,10.20104 -8.26958,18.47061 -18.47061,18.47061c-10.20104,0 -18.47063,-8.26958 -18.47063,-18.47061z"/><path d="M346.77797,66.83415c0,-6.64958 5.39053,-12.04011 12.04011,-12.04011c6.64956,0 12.04011,5.39053 12.04011,12.04011c0,6.64956 -5.39053,12.04011 -12.04011,12.04011c-6.64956,0 -12.04011,-5.39053 -12.04011,-12.04011z"/><path d="M426.8173,78.87424c-8.53866,0 -15.4606,-6.92193 -15.4606,-15.4606c0,-8.53866 6.92195,-15.4606 15.4606,-15.4606c8.53866,0 15.4606,6.92193 15.4606,15.4606c0,8.53866 -6.92195,15.4606 -15.4606,15.4606z" data-paper-data="{&quot;index&quot;:null}"/><path d="M445.83518,79.1479c-4.83606,0 -8.75644,-3.9204 -8.75644,-8.75644c0,-4.83606 3.9204,-8.75646 8.75644,-8.75646c4.83606,0 8.75646,3.9204 8.75646,8.75646c0,4.83606 -3.9204,8.75644 -8.75646,8.75644z" data-paper-data="{&quot;index&quot;:null}"/><path d="M358.81806,78.87426v-10.67191h90.3008v10.67191z"/></g><g><path d="M45.54282,45.3664c0,-7.32131 5.93509,-13.25643 13.25643,-13.25643c7.32131,0 13.25643,5.93511 13.25643,13.25643c0,7.32131 -5.93509,13.25643 -13.25643,13.25643c-7.32131,0 -13.25643,-5.93509 -13.25643,-13.25643z"/><path d="M63.6091,38.79686c0,-8.74671 7.09062,-15.83733 15.83733,-15.83733c8.74671,0 15.83733,7.09062 15.83733,15.83733c0,8.74671 -7.09062,15.83733 -15.83733,15.83733c-8.74671,0 -15.83733,-7.0906 -15.83733,-15.83733z"/><path d="M31.23057,49.23774c0,-5.70157 4.62203,-10.32359 10.32359,-10.32359c5.70157,0 10.32359,4.62203 10.32359,10.32359c0,5.70157 -4.62203,10.32359 -10.32359,10.32359c-5.70157,0 -10.32359,-4.62203 -10.32359,-10.32359z"/><path d="M99.85899,59.56133c-7.32133,0 -13.25643,-5.93509 -13.25643,-13.25643c0,-7.32131 5.93509,-13.25643 13.25643,-13.25643c7.32133,0 13.25643,5.93511 13.25643,13.25643c0,7.32131 -5.93509,13.25643 -13.25643,13.25643z" data-paper-data="{&quot;index&quot;:null}"/><path d="M116.16556,59.79597c-4.14659,0 -7.50806,-3.36147 -7.50806,-7.50806c0,-4.14659 3.36147,-7.50808 7.50806,-7.50808c4.14659,0 7.50808,3.36149 7.50808,7.50808c0,4.14659 -3.36149,7.50806 -7.50808,7.50806z" data-paper-data="{&quot;index&quot;:null}"/><path d="M41.55416,59.56133v-9.15045h77.42693v9.15045z"/></g><g><path d="M222.39831,192.70167c0,-10.84638 8.79275,-19.63913 19.63913,-19.63913c10.84638,0 19.63911,8.79275 19.63911,19.63913c0,10.84638 -8.79275,19.63913 -19.63911,19.63913c-10.84638,0 -19.63913,-8.79275 -19.63913,-19.63913z"/><path d="M249.16315,182.96902c0,-12.95808 10.50461,-23.46268 23.46268,-23.46268c12.95808,0 23.46268,10.50461 23.46268,23.46268c0,12.95808 -10.50461,23.46266 -23.46268,23.46266c-12.95808,0 -23.46268,-10.50461 -23.46268,-23.46266z"/><path d="M201.19501,198.43701c0,-8.44674 6.84744,-15.29418 15.29418,-15.29418c8.44674,0 15.29418,6.84744 15.29418,15.29418c0,8.44674 -6.84744,15.29418 -15.29418,15.29418c-8.44674,0 -15.29418,-6.84744 -15.29418,-15.29418z"/><path d="M302.86661,213.73119c-10.8464,0 -19.63911,-8.79273 -19.63911,-19.63911c0,-10.8464 8.79273,-19.63911 19.63911,-19.63911c10.8464,0 19.63911,8.79273 19.63911,19.63911c0,10.8464 -8.79273,19.63911 -19.63911,19.63911z" data-paper-data="{&quot;index&quot;:null}"/><path d="M327.02446,214.07878c-6.14309,0 -11.12305,-4.97996 -11.12305,-11.12305c0,-6.14309 4.97996,-11.12305 11.12305,-11.12305c6.14309,0 11.12305,4.97996 11.12305,11.12305c0,6.14309 -4.97996,11.12305 -11.12305,11.12305z" data-paper-data="{&quot;index&quot;:null}"/><path d="M216.48919,213.73119v-13.5562h114.70641v13.5562z"/></g><g><path d="M42.0156,241.3199c0,-7.24468 5.87299,-13.11767 13.11767,-13.11767c7.24468,0 13.11767,5.87299 13.11767,13.11767c0,7.24468 -5.87299,13.11767 -13.11767,13.11767c-7.24468,0 -13.11767,-5.87299 -13.11767,-13.11767z"/><path d="M59.8928,234.81912c0,-8.65517 7.0164,-15.67157 15.67157,-15.67157c8.65516,0 15.67157,7.0164 15.67157,15.67157c0,8.65517 -7.0164,15.67155 -15.67157,15.67155c-8.65516,0 -15.67157,-7.0164 -15.67157,-15.67155z"/><path d="M27.85316,245.15073c0,-5.64189 4.57366,-10.21555 10.21555,-10.21555c5.64189,0 10.21555,4.57366 10.21555,10.21555c0,5.64189 -4.57366,10.21555 -10.21555,10.21555c-5.64189,0 -10.21555,-4.57364 -10.21555,-10.21555z"/><path d="M95.76327,255.36626c-7.2447,0 -13.11767,-5.87299 -13.11767,-13.11767c0,-7.2447 5.87299,-13.11767 13.11767,-13.11767c7.2447,0 13.11767,5.87297 13.11767,13.11767c0,7.2447 -5.87299,13.11767 -13.11767,13.11767z" data-paper-data="{&quot;index&quot;:null}"/><path d="M111.89915,255.59845c-4.10318,0 -7.42948,-3.32629 -7.42948,-7.42948c0,-4.10318 3.32629,-7.4295 7.42948,-7.4295c4.10318,0 7.4295,3.32629 7.4295,7.4295c0,4.10318 -3.32629,7.42948 -7.4295,7.42948z" data-paper-data="{&quot;index&quot;:null}"/><path d="M38.0687,255.36626v-9.05468h76.6165v9.05468z"/></g><g><path d="M255.97899,55.71288c0,-11.76779 9.53969,-21.30749 21.30749,-21.30749c11.76779,0 21.30749,9.53969 21.30749,21.30749c0,11.76779 -9.53969,21.30749 -21.30749,21.30749c-11.76779,0 -21.30749,-9.5397 -21.30749,-21.30749z"/><path d="M285.01752,45.15341c0,-14.05889 11.39697,-25.45586 25.45586,-25.45586c14.05889,0 25.45586,11.39697 25.45586,25.45586c0,14.05889 -11.39697,25.45586 -25.45586,25.45586c-14.05889,0 -25.45586,-11.39697 -25.45586,-25.45586z"/><path d="M232.97443,61.93543c0,-9.1643 7.42913,-16.59346 16.59346,-16.59346c9.1643,0 16.59346,7.42913 16.59346,16.59346c0,9.1643 -7.42913,16.59346 -16.59346,16.59346c-9.1643,0 -16.59346,-7.42913 -16.59346,-16.59346z"/><path d="M343.28315,78.52888c-11.76781,0 -21.30749,-9.53969 -21.30749,-21.30749c0,-11.76781 9.53969,-21.30749 21.30749,-21.30749c11.76781,0 21.30749,9.53969 21.30749,21.30749c0,11.76781 -9.53969,21.30749 -21.30749,21.30749z" data-paper-data="{&quot;index&quot;:null}"/><path d="M369.49325,78.906c-6.66494,0 -12.06796,-5.40301 -12.06796,-12.06796c0,-6.66494 5.40301,-12.06796 12.06796,-12.06796c6.66494,0 12.06798,5.40301 12.06798,12.06798c0,6.66494 -5.40301,12.06796 -12.06796,12.06796z" data-paper-data="{&quot;index&quot;:null}"/><path d="M249.56789,78.52888v-14.70783h124.45085v14.70783z"/></g></g></g></svg>