<svg version="1.1" xmlns="http://www.w3.org/2000/svg" xmlns:xlink="http://www.w3.org/1999/xlink" width="36.07638" height="35.68876" viewBox="0,0,36.07638,35.68876"><g transform="translate(-222.29167,-162.81894)"><g data-paper-data="{&quot;isPaintingLayer&quot;:true}" fill-rule="nonzero" stroke-linejoin="miter" stroke-miterlimit="10" stroke-dasharray="" stroke-dashoffset="0" style="mix-blend-mode: normal"><path d="M222.85466,192.86686c0,-7.54232 0,-22.44996 0,-26.3378c0,-1.82046 1.82312,-3.67442 3.62078,-3.67442c0.20851,0 0.77457,0 0.77457,0c0,0 -0.07613,1.06665 0.05304,1.49632c0.2989,0.99419 1.00251,1.28146 1.00251,1.28146l1.02605,-2.81348c0,0 -0.15861,2.77972 1.52995,2.78271c0.2894,0.00051 0.81195,-0.31581 1.3515,-0.89705c0.63211,-0.68096 1.26686,-1.64274 1.26686,-1.64274c0,0 0.44051,1.05544 0.35943,1.77949c-0.09595,0.85686 0.6324,1.4138 0.6324,1.4138l1.1091,-2.99509c0,0 0.34956,1.05766 0.72173,1.81363c0.33106,0.67246 1.00245,1.02997 1.32291,1.01362c0.20694,-0.01056 0.02326,-0.74354 0.40589,-1.43281c0.39947,-0.71961 1.36125,-1.39655 1.36125,-1.39655c0,0 0.04926,1.59195 0.37868,2.1455c0.2953,0.49622 1.50669,1.02268 1.50669,1.02268c0,0 0.11992,-1.14058 0.33418,-1.66527c0.23698,-0.58033 1.02641,-1.66664 1.02641,-1.66664c0,0 0.45971,1.17713 0.90282,1.67576c0.46971,0.52856 1.8403,1.41102 1.8403,1.41102c0,0 0.8542,-1.02519 1.12767,-1.56346c0.29203,-0.5748 0.12806,-1.67181 0.12806,-1.67181c0,0 1.04958,0.87522 1.4464,1.3483c0.37556,0.44772 0.87427,1.4183 0.87427,1.4183c0,0 0.2839,-1.25976 0.58624,-1.74079c0.29423,-0.46811 1.20416,-1.10766 1.20416,-1.10766l0.41832,1.5002l0.91139,1.15374c0,0 0.57102,-0.59119 0.74592,-1.02694c0.17558,-0.43742 0.30554,-1.59259 0.30554,-1.59259c0,0 0.35784,-0.04364 0.48816,-0.04364c2.24806,0 3.67441,2.07203 3.67441,4.04991c0,3.84399 0,17.5304 0,25.15769c0,3.12286 -1.97811,5.23001 -3.88898,5.23001c-0.19357,0 -1.04109,-0.50933 -1.04109,-0.50933c0,0 -0.60494,0.70481 -0.92967,0.94885c-0.28566,0.21468 -0.91654,0.43864 -0.91654,0.43864c0,0 -0.13652,-1.03707 -0.48491,-1.45266c-0.3938,-0.46976 -1.75841,-1.22335 -1.75841,-1.22335c0,0 -0.74749,1.1364 -0.9903,1.66172c-0.21899,0.47377 -0.4025,1.35157 -0.4025,1.35157c0,0 -1.07844,-0.90499 -1.34544,-1.39548c-0.27463,-0.50449 -0.28009,-1.59064 -0.28009,-1.59064c0,0 -1.66143,0.74087 -2.21982,1.23061c-0.53014,0.46497 -1.0502,1.6374 -1.0502,1.6374c0,0 -0.94135,-0.24498 -1.25025,-0.46635c-0.41797,-0.29952 -1.0308,-1.16831 -1.0308,-1.16831c0,0 -0.8935,0.06104 -1.11607,0.21101c-0.32782,0.22089 -0.66048,0.98604 -0.66048,0.98604c0,0 -1.36673,0.39318 -1.99573,0.14486c-0.63061,-0.24895 -1.78312,-1.63671 -1.78312,-1.63671c0,0 -0.45153,0.92506 -0.7328,1.25328c-0.32382,0.37788 -0.98942,0.49718 -0.98942,0.49718c0,0 -0.48312,-0.62254 -0.83533,-0.98888c-0.35159,-0.3657 -1.38718,-0.81835 -1.38718,-0.81835l-1.83334,0.88889c0,0 -0.26336,0 -0.39241,0c-3.06468,0 -5.12273,-1.74897 -5.12273,-4.42539z" fill="#f2c674" stroke="none" stroke-width="0" stroke-linecap="butt"/><path d="M228.15453,166.53473c0,0 0.35464,2.79536 0.27978,6.39076c-0.06916,3.32171 -0.57,7.32631 -0.53104,10.44031c0.01802,1.4406 0.58459,2.90185 0.58459,3.77865c0,2.77062 -0.33333,5.76528 -0.33333,5.76528" fill="none" stroke="#e8aa37" stroke-width="0.5" stroke-linecap="round"/><path d="M231.37675,166.77084c0,0 0.77778,3.52836 0.77778,6.15139c0,0.69113 -0.56943,1.71639 -0.59348,2.78166c-0.01907,0.84484 0.18599,1.89417 0.17055,2.89031c-0.0191,1.23286 -0.3755,5.44003 -0.40059,6.77763c-0.03183,1.69688 0.28969,3.88979 0.28954,5.21708c-0.00043,3.69539 -0.2438,5.18192 -0.2438,5.18192" fill="none" stroke="#e8aa37" stroke-width="0.5" stroke-linecap="round"/><path d="M234.52953,167.64584c0,0 -0.03974,2.92367 0.62445,7.61829c0.38919,2.75088 -1.02142,5.93121 -1.01132,8.76811c0.00521,1.46543 0.34812,3.16571 0.36362,4.33288c0.01471,1.1078 0.46769,2.36033 0.46769,3.00156c0,1.93857 -0.44444,3.90417 -0.44444,3.90417" fill="none" stroke="#e8aa37" stroke-width="0.5" stroke-linecap="round"/><path d="M238.15453,166.88195c0,0 0.8788,3.26138 0.44444,5.81805c-0.28009,1.64863 0.12776,4.94296 0.05682,8.22559c-0.02127,0.98436 -1.15733,1.9913 -1.18452,2.99586c-0.02423,0.89511 0.52789,2.23277 0.53983,3.10642c0.01973,1.44358 0.595,3.13353 0.61322,4.34195c0.04808,3.18866 -0.46979,5.01213 -0.46979,5.01213" fill="none" stroke="#e8aa37" stroke-width="0.5" stroke-linecap="round"/><path d="M241.77953,167.28473c0,0 0.3686,-0.19723 0.4325,3.63674c0.0112,0.67223 -0.52544,4.16078 -0.49645,4.90292c0.07117,1.82223 0.68409,4.31467 0.70795,6.2057c0.01991,1.57746 -0.51125,3.6508 -0.48137,5.00329c0.03694,1.67197 0.50403,3.40768 0.50403,4.33328c0,2.33345 -0.66667,4.79306 -0.66667,4.79306" fill="none" stroke="#e8aa37" stroke-width="0.5" stroke-linecap="round"/><path d="M245.46008,166.9375c0,0 0.66667,2.44974 0.66667,4.31805c0,0.38883 -1.11625,1.32384 -1.12563,1.89529c-0.00666,0.40593 0.43418,2.29504 0.43325,2.77125c-0.00219,1.11747 0.99713,3.92134 0.99752,5.22231c0.00031,1.06225 -0.91641,3.0036 -0.96283,4.01895c-0.06877,1.5041 0.56999,3.51176 0.5645,4.65034c-0.01263,2.61773 -0.57347,3.49882 -0.57347,3.49882" fill="none" stroke="#e8aa37" stroke-width="0.5" stroke-linecap="round"/><path d="M249.02953,192.78473c0,0 -0.44444,-2.64225 -0.44444,-3.8625c0,-0.58665 0.56614,-2.62778 0.58405,-3.78119c0.01353,-0.87098 -0.42377,-3.07045 -0.42151,-4.10813c0.00374,-1.71565 0.69187,-3.95552 0.72142,-5.66869c0.02134,-1.23731 -0.66466,-3.29067 -0.70499,-4.33678c-0.11509,-2.98518 0.26547,-4.11771 0.26547,-4.11771" fill="none" stroke="#e8aa37" stroke-width="0.5" stroke-linecap="round"/><path d="M252.40453,195.15973c0,0 -0.27202,-2.05396 -0.27849,-5.12607c-0.00278,-1.31949 0.31527,-2.82681 0.27725,-4.43987c-0.03602,-1.52827 -0.50088,-3.55989 -0.49387,-5.11567c0.0041,-0.90967 0.5638,-2.02709 0.56793,-2.88881c0.00341,-0.71066 -0.21343,-3.27054 -0.20571,-3.888c0.0138,-1.10476 0.57733,-2.68887 0.57733,-3.33464c0,-1.98638 -0.44444,-4.20694 -0.44444,-4.20694" fill="none" stroke="#e8aa37" stroke-width="0.5" stroke-linecap="round"/><path d="M255.52953,192.40973c0,0 -0.55556,-1.93936 -0.55556,-3.70972c0,-0.73025 0.45935,-1.96367 0.48426,-3.33004c0.02545,-1.39548 0.59912,-3.37442 0.61183,-5.1143c0.00321,-0.44058 -1.32947,-3.10808 -1.33109,-3.55572c-0.00591,-1.6367 0.70603,-4.05801 0.77756,-5.43777c0.21795,-4.20447 0.013,-6.10245 0.013,-6.10245" fill="none" stroke="#e8aa37" stroke-width="0.5" stroke-linecap="round"/><path d="M224.90453,167.15973c0,0 0.55556,3.04599 0.55556,5.31805c0,0.87075 -0.68668,2.15144 -0.7191,3.65509c-0.05439,2.52199 0.29254,6.00456 0.32909,8.89888c0.01239,0.98093 -0.54418,1.91655 -0.5533,2.77954c-0.03248,3.07178 0.38776,5.22344 0.38776,5.22344" fill="none" stroke="#e8aa37" stroke-width="0.5" stroke-linecap="round"/><g><path d="M222.29168,174.72072c0,-0.64889 0,-1.62062 0,-2.0203c0,-0.34239 0.37165,-0.79487 0.87615,-0.79487c2.88344,0 29.18704,0 34.32524,0c0.55951,0 0.86806,0.47473 0.86806,0.82799c0,0.34701 0,1.10944 0,1.72222c0,0.49616 -0.35942,0.89423 -1.07639,0.89423c-5.71944,0 -31.58189,0 -34.24307,0c-0.4364,0 -0.74999,-0.26328 -0.74999,-0.62927z" fill="#f25151" stroke="none" stroke-width="0" stroke-linecap="butt"/><path d="M257.8264,172.30299c0,0 0.04166,1.98832 0.04166,2.21902c0,0.20868 -0.1668,0.46368 -0.625,0.46368c-3.01746,0 -34.375,-0.03312 -34.375,-0.03312" fill="none" stroke="#d33333" stroke-width="1" stroke-linecap="round"/></g><g><path d="M222.29168,190.05406c0,-0.64889 0,-1.62062 0,-2.0203c0,-0.34239 0.37165,-0.79487 0.87615,-0.79487c2.88344,0 29.18704,0 34.32524,0c0.55951,0 0.86806,0.47473 0.86806,0.82799c0,0.34701 0,1.10944 0,1.72222c0,0.49616 -0.35942,0.89423 -1.07639,0.89423c-5.71944,0 -31.58189,0 -34.24307,0c-0.4364,0 -0.74999,-0.26328 -0.74999,-0.62927z" fill="#f25151" stroke="none" stroke-width="0" stroke-linecap="butt"/><path d="M257.8264,187.63632c0,0 0.04166,1.98832 0.04166,2.21902c0,0.20868 -0.1668,0.46368 -0.625,0.46368c-3.01746,0 -34.375,-0.03312 -34.375,-0.03312" fill="none" stroke="#d33333" stroke-width="1" stroke-linecap="round"/></g></g></g></svg>