<svg version="1.1" xmlns="http://www.w3.org/2000/svg" xmlns:xlink="http://www.w3.org/1999/xlink" width="27.33828" height="22.35119" viewBox="0,0,27.33828,22.35119"><g transform="translate(-224.11282,-144.01919)"><g data-paper-data="{&quot;isPaintingLayer&quot;:true}" fill-rule="nonzero" stroke="none" stroke-width="0" stroke-linecap="butt" stroke-linejoin="miter" stroke-miterlimit="10" stroke-dasharray="" stroke-dashoffset="0" style="mix-blend-mode: normal"><path d="M245.17869,165.90892c-2.73985,-0.29152 -4.50932,-6.7576 -3.79149,-13.50428c0.71784,-6.74668 3.06081,-8.64863 5.80064,-8.35712c2.73986,0.29152 4.83904,2.6661 4.12121,9.41278c-0.71784,6.74668 -3.39052,12.74013 -6.13035,12.44862z" fill="#e9e9e9"/><path d="M235.34091,151.75635c2.94994,6.43403 3.74521,13.23372 1.13233,14.43169c-2.61286,1.19798 -7.64442,-3.65941 -10.59436,-10.09344c-2.94993,-6.43401 -1.86147,-9.38809 0.75139,-10.58607c2.61287,-1.19798 5.76071,-0.1862 8.71065,6.24782z" fill="#fafafa"/><path d="M235.05866,154.23156c2.18488,4.7654 2.7739,9.80162 0.83867,10.68892c-1.93524,0.88729 -5.66189,-2.71036 -7.84677,-7.47576c-2.18488,-4.7654 -1.3787,-6.95335 0.55653,-7.84063c1.93524,-0.88728 4.26671,-0.13792 6.4516,4.62748z" fill="#ffbfbf"/><path d="M242.20936,154.61603c0.81145,-5.17921 2.85252,-6.53247 4.95582,-6.20293c2.10328,0.32954 3.47232,2.21707 2.66089,7.39628c-0.81145,5.17921 -3.42347,9.6523 -5.52675,9.32275c-2.10328,-0.32954 -2.90139,-5.33689 -2.08993,-10.5161z" data-paper-data="{&quot;index&quot;:null}" fill="#f5b8b8"/></g></g></svg>