<svg version="1.1" xmlns="http://www.w3.org/2000/svg" xmlns:xlink="http://www.w3.org/1999/xlink" width="264.27134" height="142.83023" viewBox="0,0,264.27134,142.83023"><g transform="translate(-107.82693,-108.5842)"><g data-paper-data="{&quot;isPaintingLayer&quot;:true}" fill-rule="nonzero" stroke-linejoin="miter" stroke-miterlimit="10" stroke-dasharray="" stroke-dashoffset="0" style="mix-blend-mode: normal"><g stroke-width="3"><path d="M370.59818,136.54096c0,3.1507 -10.05427,6.159 -10.05427,9.80084c0,3.39167 10.05427,7.38943 10.05427,11.07922c0,3.89332 -2.53168,9.1799 -3.20727,16.01134c-0.57265,5.79071 0.69371,7.14467 0.69371,14.11631c0,4.69007 1.93338,9.90812 2.14475,14.52798c0.69059,15.09665 0.36884,27.92922 0.36884,29.78878c0,8.47951 -8.40815,17.57847 -17.70491,17.57847c-8.98661,0 -28.90319,-3.33702 -53.86186,-3.30712c-8.54071,0.01022 -17.35483,3.80074 -26.95332,3.66265c-11.39695,-0.16401 -24.69818,-2.39524 -36.60467,-2.37907c-15.06279,0.02043 -30.19208,2.56356 -44.52438,2.49409c-5.92573,-0.02874 -14.20662,-2.60115 -19.75036,-2.60115c-6.46402,0 -13.70127,-1.80712 -19.45392,-1.41221c-9.01036,0.61855 -15.94402,3.5428 -22.55845,3.5428c-12.37309,0 -19.85941,-13.85818 -19.85941,-25.89464c0,-3.04209 11.13148,-6.33111 11.13148,-9.80083c0,-3.26718 -11.13148,-6.69462 -11.13148,-10.22696c0,-8.05339 0,-16.65214 0,-25.14127c0,-1.42453 8.61794,-2.41985 8.61794,-3.8351c0,-1.85957 -8.61794,-4.13452 -8.61794,-5.96573c0,-17.98931 0,-28.93717 0,-36.85284c0,-9.56463 6.97759,-20.30562 19.14125,-20.30562c4.54841,0 10.5807,-1.73868 16.45908,-0.86871c5.64387,0.83528 11.08969,4.27519 17.5955,4.52817c10.0739,0.39172 20.9674,-1.8134 32.01846,-1.78818c7.70223,0.01758 13.84781,-2.06145 21.90107,-1.95697c11.74308,0.15234 23.72473,1.92795 35.55262,1.84583c11.82741,-0.08212 24.17351,-3.11081 35.18666,-3.09684c7.68536,0.00975 16.83132,1.30173 23.69586,1.32015c4.01553,0.01078 9.29368,1.29493 12.93038,1.29493c15.43361,0 26.51418,-1.27839 32.31723,-1.27839c7.76776,0 14.47323,13.44552 14.47323,25.12003z" data-paper-data="{&quot;index&quot;:null}" fill="#bd793e" stroke="#5b3f2f" stroke-linecap="butt"/><path d="M349.19452,140.9c0,0 -11.29683,-0.99709 -28.76376,-0.40733c-12.28734,0.41487 -27.62802,2.49902 -44.23734,2.43354c-13.13046,-0.05176 -27.94719,-2.58684 -41.49886,-2.5888c-24.51342,-0.00354 -47.95908,1.70488 -65.25027,0.86947c-9.4146,-0.45486 -18.82752,-1.30689 -23.24978,-1.30689c-8.9031,0 -17,1 -17,1" fill="none" stroke="#bd6b24" stroke-linecap="round"/><path d="M348.69453,178.89999c0,0 -17.78964,1.75 -33.5,1.75c-8.80278,0 -24.98059,-3.02472 -42.98969,-2.24679c-19.84449,0.85722 -42.04387,5.1883 -65.01321,3.25215c-27.91216,-2.35279 -53.70486,-0.55205 -68.24638,-0.5843c-7.55095,-0.01674 -12.25073,-2.17105 -12.25073,-2.17105" fill="none" stroke="#bd6b24" stroke-linecap="round"/><path d="M348.69452,218.4c0,0 -9.94716,2.02674 -27.75599,2.1526c-7.14452,0.05049 -16.39339,-2.09283 -25.48281,-1.893c-9.58622,0.21075 -22.15223,2.56994 -32.76468,2.49704c-8.77222,-0.06027 -19.19187,-3.3755 -27.99303,-3.44541c-18.10983,-0.14384 -35.71803,2.36385 -50.50818,1.30811c-18.63465,-1.33016 -33.89834,2.13066 -40.49531,2.13066c-7.28555,0 -15,-2.75 -15,-2.75" fill="none" stroke="#bd6b24" stroke-linecap="round"/></g><text transform="translate(182.63917,137.98548) scale(0.49879,0.49879)" font-size="40" xml:space="preserve" fill="#5b3f2f" fill-rule="nonzero" stroke="#5b3f2f" stroke-width="2" stroke-linecap="butt" stroke-linejoin="miter" stroke-miterlimit="10" stroke-dasharray="" stroke-dashoffset="0" font-family="Sans Serif" font-weight="normal" text-anchor="start" style="mix-blend-mode: normal"><tspan x="0" dy="0">Score Board</tspan></text><text transform="translate(123.82061,177.04599) scale(0.44492,0.44492)" font-size="40" xml:space="preserve" fill="#5b3f2f" fill-rule="nonzero" stroke="#5b3f2f" stroke-width="2" stroke-linecap="butt" stroke-linejoin="miter" stroke-miterlimit="10" stroke-dasharray="" stroke-dashoffset="0" font-family="Sans Serif" font-weight="normal" text-anchor="start" style="mix-blend-mode: normal"><tspan x="0" dy="0">Personal Best:</tspan></text><text transform="translate(123.82061,215.71266) scale(0.44492,0.44492)" font-size="40" xml:space="preserve" fill="#5b3f2f" fill-rule="nonzero" stroke="#5b3f2f" stroke-width="2" stroke-linecap="butt" stroke-linejoin="miter" stroke-miterlimit="10" stroke-dasharray="" stroke-dashoffset="0" font-family="Sans Serif" font-weight="normal" text-anchor="start" style="mix-blend-mode: normal"><tspan x="0" dy="0">World Record:</tspan></text></g></g></svg>