<svg version="1.1" xmlns="http://www.w3.org/2000/svg" xmlns:xlink="http://www.w3.org/1999/xlink" width="35.83463" height="37.06892" viewBox="0,0,35.83463,37.06892"><g transform="translate(-220.93786,-160.88569)"><g data-paper-data="{&quot;isPaintingLayer&quot;:true}" fill-rule="nonzero" stroke-linejoin="miter" stroke-miterlimit="10" stroke-dasharray="" stroke-dashoffset="0" style="mix-blend-mode: normal"><path d="M222.33488,192.79331c0,-7.54232 0,-22.44996 0,-26.3378c0,-1.82046 1.82312,-3.67442 3.62078,-3.67442c4.00587,0 19.87172,0 27.14242,0c2.24806,0 3.67441,2.07203 3.67441,4.04991c0,3.84399 0,17.5304 0,25.15769c0,3.12286 -1.97811,5.23001 -3.88898,5.23001c-3.82487,0 -17.76801,0 -25.4259,0c-3.06468,0 -5.12273,-1.74897 -5.12273,-4.42539z" fill="#ffd26b" stroke="none" stroke-width="0" stroke-linecap="butt"/><path d="M225.7205,197.21353c-2.49778,-0.95171 -3.2813,-2.67078 -3.2813,-3.68242c0,-1.10408 -0.1206,-6.09165 -0.1206,-6.09165c0,0 10.83128,3.16281 17.56498,3.11783c6.99918,-0.04675 16.80803,-2.90903 16.80803,-2.90903c0,0 0.04622,4.86873 -0.14268,5.6818c-0.12896,0.55509 -0.13366,3.26238 -3.40822,3.79682c-3.29318,0.53748 -26.78466,0.32881 -27.42021,0.08665z" fill="#fffec1" stroke="none" stroke-width="0" stroke-linecap="butt"/><path d="M246.20793,178.13867c0,0 0.79174,-0.70529 1.49341,-0.7788c0.86771,-0.0909 1.68368,0.48332 1.71993,0.96246c0.11094,1.46643 -1.74827,1.50888 -1.78104,1.66431c-0.06255,0.29671 1.82962,-0.6174 1.88521,1.01202c0.03667,1.07493 -0.89574,1.463 -1.76908,1.33308c-0.61005,-0.09076 -1.25369,-0.6007 -1.25369,-0.6007" fill="#ff7a26" stroke="#6d4006" stroke-width="1" stroke-linecap="round"/><path d="M236.37661,164.09015c0,0 -0.08758,-0.63072 -0.13103,-1.34241c-0.03249,-0.53218 -0.12569,-1.15053 0.32487,-1.36205c0.5015,-0.23543 0.73374,0.09383 1.06451,0.39042c0.6095,0.54651 1.10934,1.40558 1.10934,1.40558" fill="#ffd26b" stroke="#6d4006" stroke-width="1" stroke-linecap="round"/><path d="M222.71765,169.55472c0,0 -0.39038,-0.61315 -0.78286,-1.33867c-0.29349,-0.54252 -0.68257,-1.13919 -0.39746,-1.63645c0.31734,-0.55348 0.68283,-0.34673 1.11743,-0.23437c0.80082,0.20704 1.66241,0.81093 1.66241,0.81093" fill="#ffd26b" stroke="#6d4006" stroke-width="1" stroke-linecap="round"/><path d="M226.50032,179.99877c0,0 -0.65024,-0.32487 -1.3601,-0.745c-0.53082,-0.31417 -1.17146,-0.62557 -1.18287,-1.19864c-0.0127,-0.63787 0.40707,-0.64867 0.83754,-0.77596c0.7932,-0.23455 1.84271,-0.16009 1.84271,-0.16009" fill="#ffd26b" stroke="#6d4006" stroke-width="1" stroke-linecap="round"/><path d="M232.72028,170.05326c0,0 -0.69486,-0.21335 -1.46422,-0.51085c-0.5753,-0.22246 -1.25847,-0.42412 -1.3641,-0.98749c-0.11757,-0.62707 0.29469,-0.70684 0.69832,-0.90328c0.74374,-0.36197 1.7912,-0.46137 1.7912,-0.46137" fill="#ffd26b" stroke="#6d4006" stroke-width="1" stroke-linecap="round"/><path d="M230.09129,194.08967c0,0 -0.7077,0.16588 -1.52214,0.2966c-0.60902,0.09775 -1.30075,0.26784 -1.67587,-0.16555c-0.41754,-0.48239 -0.10165,-0.75904 0.148,-1.13211c0.46,-0.68744 1.31465,-1.30112 1.31465,-1.30112" fill="#fffec1" stroke="#6d4006" stroke-width="1" stroke-linecap="round"/><path d="M238.32436,196.33255c0,0 -0.48152,0.54451 -1.07046,1.12206c-0.44039,0.43187 -0.90645,0.97058 -1.46309,0.83387c-0.61959,-0.15218 -0.52179,-0.56054 -0.5338,-1.00928c-0.02214,-0.82685 0.32038,-1.8217 0.32038,-1.8217" fill="#fffec1" stroke="#6d4006" stroke-width="1" stroke-linecap="round"/><path d="M240.85414,188.48278c0,0 -0.71452,0.13344 -1.53408,0.22693c-0.61285,0.0699 -1.31159,0.2083 -1.66658,-0.24174c-0.39513,-0.50092 -0.06696,-0.76288 0.19943,-1.12419c0.49085,-0.66576 1.37258,-1.23987 1.37258,-1.23987" fill="#ffd26b" stroke="#6d4006" stroke-width="1" stroke-linecap="round"/><path d="M250.53506,166.86906c0,0 0.23342,-0.59244 0.54505,-1.23376c0.23302,-0.47956 0.45548,-1.06398 0.95184,-1.02699c0.55248,0.04117 0.59311,0.44204 0.73561,0.86283c0.26259,0.77537 0.27616,1.76919 0.27616,1.76919" fill="#ffd26b" stroke="#6d4006" stroke-width="1" stroke-linecap="round"/><path d="M253.67762,192.08668c0,0 -0.10783,0.71884 -0.28782,1.52383c-0.1346,0.60196 -0.23261,1.3075 -0.77406,1.49559c-0.60268,0.20935 -0.74276,-0.1865 -0.99694,-0.5565c-0.46838,-0.68177 -0.72215,-1.70286 -0.72215,-1.70286" fill="#fffec1" stroke="#6d4006" stroke-width="1" stroke-linecap="round"/><path d="M234.59006,180.92482c0,0 -4.70615,-2.09986 -7.33635,-1.26863c-1.43237,0.45267 -2.03317,7.51624 -0.64299,8.08866c2.62876,1.08242 8.06404,-1.56923 8.06404,-1.56923" fill="#ff7a26" stroke="#6d4006" stroke-width="1" stroke-linecap="round"/><path d="M228.67475,182.945h3.6" fill="none" stroke="#6d4006" stroke-width="1" stroke-linecap="round"/><path d="M229.27475,185.045l2.8,-0.2" fill="none" stroke="#6d4006" stroke-width="1" stroke-linecap="round"/></g></g></svg>