<svg version="1.1" xmlns="http://www.w3.org/2000/svg" xmlns:xlink="http://www.w3.org/1999/xlink" width="238.62678" height="97.37317" viewBox="0,0,238.62678,97.37317"><defs><linearGradient x1="139.35548" y1="157.63848" x2="139.35548" y2="165.63848" gradientUnits="userSpaceOnUse" id="color-1"><stop offset="0" stop-color="#dbfff9"/><stop offset="1" stop-color="#51ffc8"/></linearGradient><linearGradient x1="139.99831" y1="144.13741" x2="139.99831" y2="173.85276" gradientUnits="userSpaceOnUse" id="color-2"><stop offset="0" stop-color="#dbfff9"/><stop offset="1" stop-color="#51ffc8"/></linearGradient><linearGradient x1="159.92692" y1="150.28133" x2="159.92692" y2="172.28133" gradientUnits="userSpaceOnUse" id="color-3"><stop offset="0" stop-color="#dbfff9"/><stop offset="1" stop-color="#51ffc8"/></linearGradient><linearGradient x1="170.76067" y1="151.70217" x2="170.76067" y2="173.28133" gradientUnits="userSpaceOnUse" id="color-4"><stop offset="0" stop-color="#dbfff9"/><stop offset="1" stop-color="#51ffc8"/></linearGradient><linearGradient x1="189.99835" y1="151.9956" x2="189.99835" y2="173.4242" gradientUnits="userSpaceOnUse" id="color-5"><stop offset="0" stop-color="#dbfff9"/><stop offset="1" stop-color="#51ffc8"/></linearGradient><linearGradient x1="202.14119" y1="150.28133" x2="202.14119" y2="174.13848" gradientUnits="userSpaceOnUse" id="color-6"><stop offset="0" stop-color="#dbfff9"/><stop offset="1" stop-color="#51ffc8"/></linearGradient><linearGradient x1="210.85378" y1="151.63186" x2="210.85378" y2="173.42419" gradientUnits="userSpaceOnUse" id="color-7"><stop offset="0" stop-color="#dbfff9"/><stop offset="1" stop-color="#51ffc8"/></linearGradient><linearGradient x1="227.71091" y1="151.63186" x2="227.71091" y2="173.42419" gradientUnits="userSpaceOnUse" id="color-8"><stop offset="0" stop-color="#dbfff9"/><stop offset="1" stop-color="#51ffc8"/></linearGradient><linearGradient x1="252.83871" y1="161.9673" x2="252.83871" y2="174.53025" gradientUnits="userSpaceOnUse" id="color-9"><stop offset="0" stop-color="#dbfff9"/><stop offset="1" stop-color="#51ffc8"/></linearGradient><linearGradient x1="272.4269" y1="140.85277" x2="272.4269" y2="173.28133" gradientUnits="userSpaceOnUse" id="color-10"><stop offset="0" stop-color="#dbfff9"/><stop offset="1" stop-color="#51ffc8"/></linearGradient><linearGradient x1="182.02214" y1="184.01087" x2="182.02214" y2="213.70087" gradientUnits="userSpaceOnUse" id="color-11"><stop offset="0" stop-color="#dbfff9"/><stop offset="1" stop-color="#51ffc8"/></linearGradient><linearGradient x1="201.80785" y1="187.4242" x2="201.80785" y2="195.4242" gradientUnits="userSpaceOnUse" id="color-12"><stop offset="0" stop-color="#dbfff9"/><stop offset="1" stop-color="#51ffc8"/></linearGradient><linearGradient x1="204.30728" y1="184.70991" x2="204.30728" y2="214.4242" gradientUnits="userSpaceOnUse" id="color-13"><stop offset="0" stop-color="#dbfff9"/><stop offset="1" stop-color="#51ffc8"/></linearGradient><linearGradient x1="224.64822" y1="202.3959" x2="224.64822" y2="214.95882" gradientUnits="userSpaceOnUse" id="color-14"><stop offset="0" stop-color="#dbfff9"/><stop offset="1" stop-color="#51ffc8"/></linearGradient><linearGradient x1="251.01785" y1="191.84092" x2="251.01785" y2="212.67072" gradientUnits="userSpaceOnUse" id="color-15"><stop offset="0" stop-color="#dbfff9"/><stop offset="1" stop-color="#51ffc8"/></linearGradient><linearGradient x1="276.78999" y1="190.56705" x2="276.78999" y2="212.96941" gradientUnits="userSpaceOnUse" id="color-16"><stop offset="0" stop-color="#dbfff9"/><stop offset="1" stop-color="#51ffc8"/></linearGradient><linearGradient x1="292.9507" y1="190.85277" x2="292.9507" y2="213.13849" gradientUnits="userSpaceOnUse" id="color-17"><stop offset="0" stop-color="#dbfff9"/><stop offset="1" stop-color="#51ffc8"/></linearGradient><linearGradient x1="305.26023" y1="191.94801" x2="305.26023" y2="213.94801" gradientUnits="userSpaceOnUse" id="color-18"><stop offset="0" stop-color="#dbfff9"/><stop offset="1" stop-color="#51ffc8"/></linearGradient><linearGradient x1="316.094" y1="193.36885" x2="316.094" y2="214.94801" gradientUnits="userSpaceOnUse" id="color-19"><stop offset="0" stop-color="#dbfff9"/><stop offset="1" stop-color="#51ffc8"/></linearGradient><linearGradient x1="341.11332" y1="192.92681" x2="341.11332" y2="212.84796" gradientUnits="userSpaceOnUse" id="color-20"><stop offset="0" stop-color="#dbfff9"/><stop offset="1" stop-color="#51ffc8"/></linearGradient><linearGradient x1="343.52768" y1="188.94022" x2="343.52768" y2="225.31393" gradientUnits="userSpaceOnUse" id="color-21"><stop offset="0" stop-color="#dbfff9"/><stop offset="1" stop-color="#51ffc8"/></linearGradient><linearGradient x1="267.09357" y1="180.28134" x2="267.09357" y2="213.56705" gradientUnits="userSpaceOnUse" id="color-22"><stop offset="0" stop-color="#dbfff9"/><stop offset="1" stop-color="#51ffc8"/></linearGradient><linearGradient x1="254.74539" y1="150.89898" x2="254.74539" y2="175.4242" gradientUnits="userSpaceOnUse" id="color-23"><stop offset="0" stop-color="#dbfff9"/><stop offset="1" stop-color="#51ffc8"/></linearGradient><linearGradient x1="226.5549" y1="191.32757" x2="226.5549" y2="215.85277" gradientUnits="userSpaceOnUse" id="color-24"><stop offset="0" stop-color="#dbfff9"/><stop offset="1" stop-color="#51ffc8"/></linearGradient></defs><g transform="translate(-120.06978,-133.35276)"><g data-paper-data="{&quot;isPaintingLayer&quot;:true}" fill-rule="nonzero" stroke-linejoin="miter" stroke-miterlimit="10" stroke-dasharray="" stroke-dashoffset="0" style="mix-blend-mode: normal"><path d="M169.6352,167.88249l0.28571,-4.14285" fill="none" stroke="#ffffff" stroke-width="15" stroke-linecap="round"/><path d="M161.30869,172.39988l15.93874,0.83256" fill="none" stroke="#ffffff" stroke-width="15" stroke-linecap="round"/><path d="M314.54591,205.61463l-0.28571,4.14286" fill="none" stroke="#ffffff" stroke-width="15" stroke-linecap="round"/><path d="M305.93369,214.27488l15.93874,0.83256" fill="none" stroke="#ffffff" stroke-width="15" stroke-linecap="round"/><path d="M335.54591,211.51939v-14.66667h14.66667v14.66667z" fill="#ffffff" stroke="none" stroke-width="0" stroke-linecap="butt"/><path d="M277.54591,209.18606v-16h14v16z" fill="#ffffff" stroke="none" stroke-width="0" stroke-linecap="butt"/><path d="M184.87925,207.18606v-53.66667h84.33333v53.66667z" fill="#ffffff" stroke="none" stroke-width="NaN" stroke-linecap="butt"/><path d="M285.71259,181.18607c0,-4.14213 3.35787,-7.5 7.5,-7.5c4.14213,0 7.5,3.35787 7.5,7.5c0,4.14213 -3.35787,7.5 -7.5,7.5c-4.14213,0 -7.5,-3.35787 -7.5,-7.5z" fill="#ffffff" stroke="none" stroke-width="0.5" stroke-linecap="butt"/><path d="M181.87926,142.18607c0,-4.14213 3.35787,-7.5 7.5,-7.5c4.14213,0 7.5,3.35787 7.5,7.5c0,4.14213 -3.35787,7.5 -7.5,7.5c-4.14213,0 -7.5,-3.35787 -7.5,-7.5z" fill="#ffffff" stroke="none" stroke-width="0.5" stroke-linecap="butt"/><path d="M127.56978,173.56704c0,0 5.15738,-29.63462 12.57143,-29.42857c6.52469,0.18133 12.28571,29.71428 12.28571,29.71428" fill="none" stroke="#ffffff" stroke-width="15" stroke-linecap="round"/><path d="M132.71258,161.70988l13.28572,-0.14286" fill="none" stroke="#ffffff" stroke-width="15" stroke-linecap="round"/><path d="M159.85548,150.28133l0.14286,22" fill="none" stroke="#ffffff" stroke-width="15" stroke-linecap="round"/><path d="M162.71258,153.85277c0,0 9.6054,-5.36959 13.78416,0.86048c3.94669,5.88407 1.64441,18.56809 1.64441,18.56809" fill="none" stroke="#ffffff" stroke-width="15" stroke-linecap="round"/><path d="M189.99835,151.99561v21.42857" fill="none" stroke="#ffffff" stroke-width="15" stroke-linecap="round"/><path d="M202.14119,174.13847v-23.85714" fill="none" stroke="#ffffff" stroke-width="15" stroke-linecap="round"/><path d="M202.71263,154.56704c0,0 9.74888,-6.57038 13.70246,-0.05048c3.45708,5.70112 2.4404,18.90762 2.4404,18.90762" fill="none" stroke="#ffffff" stroke-width="15" stroke-linecap="round"/><path d="M219.56977,154.56704c0,0 9.74888,-6.57038 13.70245,-0.05048c3.45708,5.70112 2.4404,18.90762 2.4404,18.90762" fill="none" stroke="#ffffff" stroke-width="15" stroke-linecap="round"/><path d="M246.42692,152.70988c0,0 9.82884,-4.84887 14.17316,1.32215c4.79584,6.81238 1.11255,21.39214 1.11255,21.39214" fill="none" stroke="#ffffff" stroke-width="15" stroke-linecap="round"/><path d="M260.28405,166.85275c0,0 -0.02905,2.39189 -1.77422,4.33166c-1.85001,2.0563 -5.48708,3.65759 -7.9124,3.29415c-3.83917,-0.57531 -5.74469,-3.2228 -5.72204,-4.19677c0.02101,-0.90318 -0.80808,-5.25919 3.38339,-7.17124c4.55883,-2.07963 12.59669,-0.68636 12.59669,-0.68636" fill="none" stroke="#ffffff" stroke-width="15" stroke-linecap="round"/><path d="M272.4269,173.28133v-32.42857" fill="none" stroke="#ffffff" stroke-width="15" stroke-linecap="round"/><path d="M190.23643,184.56704c0,0 -15.50347,-3.11696 -16.07914,5.40693c-0.20964,3.10423 2.36822,5.6518 5.97571,7.66529c5.09554,2.84404 11.53451,5.19119 8.90852,11.46868c-3.18757,7.61998 -15.23367,3.45911 -15.23367,3.45911" fill="none" stroke="#ffffff" stroke-width="15" stroke-linecap="round"/><path d="M208.09357,191.4242h-12.57143" fill="none" stroke="#ffffff" stroke-width="15" stroke-linecap="round"/><path d="M208.52214,214.4242c0,0 -7.51662,-0.32711 -8.37622,-12.04599c-0.37855,-5.16085 1.37622,-17.6683 1.37622,-17.6683" fill="none" stroke="#ffffff" stroke-width="15" stroke-linecap="round"/><path d="M218.23643,193.13848c0,0 9.82884,-4.84887 14.17316,1.32215c4.79584,6.81238 1.11255,21.39214 1.11255,21.39214" fill="none" stroke="#ffffff" stroke-width="15" stroke-linecap="round"/><path d="M232.09355,207.28134c0,0 -0.02904,2.39189 -1.77421,4.33166c-1.85001,2.0563 -5.48708,3.65758 -7.9124,3.29414c-3.83917,-0.57531 -5.74469,-3.2228 -5.72204,-4.19677c0.02101,-0.90318 -0.80808,-5.25919 3.38339,-7.17124c4.55883,-2.07963 12.59669,-0.68636 12.59669,-0.68636" fill="none" stroke="#ffffff" stroke-width="15" stroke-linecap="round"/><path d="M257.95071,211.70992c0,0 -14.26483,5.30103 -13.85715,-9c0.41488,-14.55363 13.85715,-10.28572 13.85715,-10.28572" fill="none" stroke="#ffffff" stroke-width="15" stroke-linecap="round"/><path d="M267.09355,213.56705v-33.28571" fill="none" stroke="#ffffff" stroke-width="15" stroke-linecap="round"/><path d="M282.09355,190.56704l-11.14285,10.14286" fill="none" stroke="#ffffff" stroke-width="15" stroke-linecap="round"/><path d="M284.09356,212.99562l-11.57143,-12.42858" fill="none" stroke="#ffffff" stroke-width="15" stroke-linecap="round"/><path d="M292.9507,190.85276v22.28572" fill="none" stroke="#ffffff" stroke-width="15" stroke-linecap="round"/><path d="M305.33167,213.94801l-0.14286,-22" fill="none" stroke="#ffffff" stroke-width="15" stroke-linecap="round"/><path d="M308.04594,195.51944c0,0 9.6054,-5.36959 13.78416,0.86048c3.94669,5.88407 1.64441,18.56809 1.64441,18.56809" fill="none" stroke="#ffffff" stroke-width="15" stroke-linecap="round"/><path d="M348.47452,211.99563c0,0 -15.12197,5.01531 -14.71429,-9.28572c0.27202,-15.98219 14.71429,-7.57143 14.71429,-7.57143" fill="none" stroke="#ffffff" stroke-width="15" stroke-linecap="round"/><path d="M351.19656,188.94022c0,0 3.85225,23.28468 -2.05777,32.9816c-4.13097,6.77792 -14.51365,1.30411 -14.51365,1.30411" fill="none" stroke="#ffffff" stroke-width="15" stroke-linecap="round"/><path d="M145.99831,161.56704l-13.28572,0.14286" fill="none" stroke="url(#color-1)" stroke-width="8" stroke-linecap="round"/><path d="M127.56978,173.56705c0,0 5.15738,-29.63462 12.57143,-29.42857c6.52469,0.18133 12.28571,29.71428 12.28571,29.71428" fill="none" stroke="url(#color-2)" stroke-width="8" stroke-linecap="round"/><path d="M159.99834,172.28133l-0.14286,-22" fill="none" stroke="url(#color-3)" stroke-width="8" stroke-linecap="round"/><path d="M162.71258,153.85277c0,0 9.6054,-5.36959 13.78416,0.86048c3.94669,5.88407 1.64441,18.56809 1.64441,18.56809" fill="none" stroke="url(#color-4)" stroke-width="8" stroke-linecap="round"/><path d="M189.99835,151.99562v21.42857" fill="none" stroke="url(#color-5)" stroke-width="8" stroke-linecap="round"/><path d="M202.14119,150.28134v23.85714" fill="none" stroke="url(#color-6)" stroke-width="8" stroke-linecap="round"/><path d="M202.71263,154.56705c0,0 9.74888,-6.57038 13.70246,-0.05048c3.45708,5.70112 2.4404,18.90762 2.4404,18.90762" fill="none" stroke="url(#color-7)" stroke-width="8" stroke-linecap="round"/><path d="M219.56977,154.56705c0,0 9.74888,-6.57038 13.70245,-0.05048c3.45708,5.70112 2.4404,18.90762 2.4404,18.90762" fill="none" stroke="url(#color-8)" stroke-width="8" stroke-linecap="round"/><path d="M260.28405,166.85276c0,0 -0.02905,2.39189 -1.77422,4.33166c-1.85001,2.0563 -5.48708,3.65759 -7.9124,3.29415c-3.83917,-0.57531 -5.74469,-3.2228 -5.72204,-4.19677c0.02101,-0.90318 -0.80808,-5.25919 3.38339,-7.17124c4.55883,-2.07963 12.59669,-0.68636 12.59669,-0.68636" fill="none" stroke="url(#color-9)" stroke-width="8" stroke-linecap="round"/><path d="M272.4269,173.28134v-32.42857" fill="none" stroke="url(#color-10)" stroke-width="8" stroke-linecap="round"/><path d="M190.23643,184.56705c0,0 -15.50347,-3.11696 -16.07914,5.40693c-0.20964,3.10423 2.36822,5.6518 5.97571,7.66529c5.09554,2.84404 11.53451,5.19119 8.90852,11.46868c-3.18757,7.61998 -15.23367,3.45911 -15.23367,3.45911" fill="none" stroke="url(#color-11)" stroke-width="8" stroke-linecap="round"/><path d="M208.09357,191.4242h-12.57143" fill="none" stroke="url(#color-12)" stroke-width="8" stroke-linecap="round"/><path d="M208.52214,214.4242c0,0 -7.51662,-0.32711 -8.37622,-12.04599c-0.37855,-5.16085 1.37622,-17.6683 1.37622,-17.6683" fill="none" stroke="url(#color-13)" stroke-width="8" stroke-linecap="round"/><path d="M232.09355,207.28134c0,0 -0.02904,2.39189 -1.77421,4.33166c-1.85001,2.0563 -5.48708,3.65758 -7.9124,3.29414c-3.83917,-0.57531 -5.74469,-3.2228 -5.72204,-4.19677c0.02101,-0.90318 -0.80808,-5.25919 3.38339,-7.17124c4.55883,-2.07963 12.59669,-0.68636 12.59669,-0.68636" fill="none" stroke="url(#color-14)" stroke-width="8" stroke-linecap="round"/><path d="M257.95071,211.70992c0,0 -14.26483,5.30103 -13.85715,-9c0.41488,-14.55363 13.85715,-10.28572 13.85715,-10.28572" fill="none" stroke="url(#color-15)" stroke-width="8" stroke-linecap="round"/><path d="M282.62926,212.96942l-11.67854,-12.25951l11.14285,-10.14286" fill="none" stroke="url(#color-16)" stroke-width="8" stroke-linecap="round"/><path d="M292.9507,213.13849v-22.28572" fill="none" stroke="url(#color-17)" stroke-width="8" stroke-linecap="round"/><path d="M305.33167,213.94801l-0.14286,-22" fill="none" stroke="url(#color-18)" stroke-width="8" stroke-linecap="round"/><path d="M308.04594,195.51944c0,0 9.6054,-5.36959 13.78416,0.86048c3.94669,5.88407 1.64441,18.56809 1.64441,18.56809" fill="none" stroke="url(#color-19)" stroke-width="8" stroke-linecap="round"/><path d="M348.47452,211.99563c0,0 -15.12197,5.01531 -14.71429,-9.28572c0.27202,-15.9822 14.71429,-7.57143 14.71429,-7.57143" fill="none" stroke="url(#color-20)" stroke-width="8" stroke-linecap="round"/><path d="M351.19656,188.94022c0,0 3.85225,23.28468 -2.05777,32.9816c-4.13097,6.77792 -14.51365,1.30411 -14.51365,1.30411" fill="none" stroke="url(#color-21)" stroke-width="8" stroke-linecap="round"/><path d="M267.09357,180.28134v33.28571" fill="none" stroke="url(#color-22)" stroke-width="8" stroke-linecap="round"/><path d="M246.42692,152.70988c0,0 9.82884,-4.84887 14.17316,1.32215c4.79584,6.81238 1.11255,21.39214 1.11255,21.39214" fill="none" stroke="url(#color-23)" stroke-width="8" stroke-linecap="round"/><path d="M218.23643,193.13848c0,0 9.82884,-4.84887 14.17316,1.32215c4.79584,6.81238 1.11255,21.39214 1.11255,21.39214" fill="none" stroke="url(#color-24)" stroke-width="8" stroke-linecap="round"/><path d="M184.54591,141.9694c0,-2.62336 2.12664,-4.75 4.75,-4.75c2.62336,0 4.75,2.12664 4.75,4.75c0,2.62336 -2.12664,4.75 -4.75,4.75c-2.62336,0 -4.75,-2.12664 -4.75,-4.75z" fill="#dbfff9" stroke="none" stroke-width="0.5" stroke-linecap="butt"/><path d="M288.37926,180.9694c0,-2.62336 2.12664,-4.75 4.75,-4.75c2.62336,0 4.75,2.12664 4.75,4.75c0,2.62336 -2.12664,4.75 -4.75,4.75c-2.62336,0 -4.75,-2.12664 -4.75,-4.75z" fill="#dbfff9" stroke="none" stroke-width="0.5" stroke-linecap="butt"/></g></g></svg>