<svg version="1.1" xmlns="http://www.w3.org/2000/svg" xmlns:xlink="http://www.w3.org/1999/xlink" width="34.43761" height="34.43761" viewBox="0,0,34.43761,34.43761"><g transform="translate(-221.44786,-162.44786)"><g data-paper-data="{&quot;isPaintingLayer&quot;:true}" fill-rule="nonzero" stroke-linejoin="miter" stroke-miterlimit="10" stroke-dasharray="" stroke-dashoffset="0" style="mix-blend-mode: normal"><path d="M221.44786,192.46008c0,-7.54232 0,-22.44996 0,-26.3378c0,-1.82046 1.82312,-3.67442 3.62078,-3.67442c4.00587,0 19.87172,0 27.14242,0c2.24806,0 3.67441,2.07203 3.67441,4.04991c0,3.84399 0,17.5304 0,25.15769c0,3.12286 -1.97811,5.23001 -3.88898,5.23001c-3.82487,0 -17.76801,0 -25.4259,0c-3.06468,0 -5.12273,-1.74897 -5.12273,-4.42539z" fill="#e3e3e4" stroke="none" stroke-width="0" stroke-linecap="butt"/><path d="M251.54937,180.94583c-0.44822,0.921 -7.64115,0.6644 -7.8125,-0.0625c-0.19161,-0.81287 1.51196,-3.78125 3.53125,-3.78125c2.01929,0 4.81632,2.7443 4.28125,3.84375z" fill="#ecbe55" stroke="none" stroke-width="0" stroke-linecap="butt"/><path d="M251.76812,172.9625l1.58333,-1.16667" fill="none" stroke="#b5b9b2" stroke-width="1" stroke-linecap="round"/><path d="M238.93478,172.79583l-1.41667,-1" fill="none" stroke="#b5b9b2" stroke-width="1" stroke-linecap="round"/><path d="M251.23687,181.53959c0,0 -4.56361,0.32625 -6.54386,0.0521c-1.55582,-0.21539 -1.20614,-1.1771 -1.20614,-1.1771" fill="none" stroke="#6d4006" stroke-width="1" stroke-linecap="round"/><path d="M221.44786,192.46008c0,-2.32728 0,-4.16832 0,-7.358c0,-0.30883 12.17806,5.98727 15.53319,7.43076c0.49364,0.21238 2.8704,-2.46458 2.8704,-2.46458c0,0 12.86867,6.81721 12.14504,6.81721c-3.82487,0 -17.76801,0 -25.4259,0c-3.06468,0 -5.12273,-1.74897 -5.12273,-4.42539z" fill="#5e3924" stroke="none" stroke-width="0" stroke-linecap="butt"/></g></g></svg>