<svg version="1.1" xmlns="http://www.w3.org/2000/svg" xmlns:xlink="http://www.w3.org/1999/xlink" width="12.23555" height="25.62088" viewBox="0,0,12.23555,25.62088"><defs><linearGradient x1="216.15666" y1="188.70971" x2="222.9845" y2="188.70971" gradientUnits="userSpaceOnUse" id="color-1"><stop offset="0" stop-color="#02000d"/><stop offset="1" stop-color="#9b6030"/></linearGradient></defs><g transform="translate(-215.52221,-166.66587)"><g data-paper-data="{&quot;isPaintingLayer&quot;:true}" fill-rule="nonzero" stroke="none" stroke-width="0" stroke-linecap="butt" stroke-linejoin="miter" stroke-miterlimit="10" stroke-dasharray="" stroke-dashoffset="0" style="mix-blend-mode: normal"><path d="M222.54276,192.18061c-0.56668,0.50552 -4.03927,-0.89775 -4.84934,-2.03075c-1.33847,-1.87204 -1.77229,-4.68128 -1.41927,-4.99621c0.32423,-0.28924 1.02246,2.48386 2.64477,3.9239c1.21308,1.07679 3.44971,0.84234 3.6791,1.09948c0.53616,0.60102 0.51142,1.49806 -0.05526,2.00358z" fill="url(#color-1)"/><path d="M215.52222,179.55476c0,-3.06825 6.9873,-12.88889 10.05555,-12.88889c3.06825,0 2,9.82064 2,12.88889c0,3.06825 -3.43175,5.55556 -6.5,5.55556c-3.06825,0 -5.55555,-2.48731 -5.55555,-5.55556z" fill="#02000d"/></g></g></svg>