<svg version="1.1" xmlns="http://www.w3.org/2000/svg" xmlns:xlink="http://www.w3.org/1999/xlink" width="38.85244" height="41.51758" viewBox="0,0,38.85244,41.51758"><defs><linearGradient x1="238.46643" y1="156.30125" x2="238.46643" y2="165.8444" gradientUnits="userSpaceOnUse" id="color-1"><stop offset="0" stop-color="#574973"/><stop offset="1" stop-color="#4c7494"/></linearGradient></defs><g transform="translate(-222.18128,-156.30126)"><g data-paper-data="{&quot;isPaintingLayer&quot;:true}" fill-rule="nonzero" stroke-linejoin="miter" stroke-miterlimit="10" stroke-dasharray="" stroke-dashoffset="0" style="mix-blend-mode: normal"><path d="M230.84143,165.7194c0,0 1.76923,-0.79889 1.76923,-4.23077c0,-1.60966 -1.76923,-5.14423 -1.76923,-5.14423c0,0 4.6077,-0.51462 9.0404,2.01082c6.19634,3.53025 6.2096,7.48918 6.2096,7.48918z" fill="url(#color-1)" stroke="none" stroke-width="0" stroke-linecap="butt"/><path d="M222.18128,193.23925c0,-7.80514 0,-23.23225 0,-27.25556c0,-1.88389 1.88665,-3.80246 3.74695,-3.80246c4.14545,0 20.56417,0 28.08822,0c2.32639,0 3.80244,2.14423 3.80244,4.19103c0,3.97794 0,18.14126 0,26.03432c0,3.23168 -2.04704,5.41226 -4.0245,5.41226c-3.95815,0 -18.38715,0 -26.31188,0c-3.17147,0 -5.30123,-1.80992 -5.30123,-4.5796z" fill="#678dad" stroke="none" stroke-width="0" stroke-linecap="butt"/><path d="M248.07267,185.82873c4.89669,-0.07778 9.74622,-3.38402 9.74622,-3.26318c0,3.00662 0,7.50592 0,9.84103c0,3.23168 -2.04704,5.41226 -4.0245,5.41226c-3.95815,0 -18.38715,0 -26.31188,0c-0.81322,0 -2.31026,-0.22943 -3.20179,-0.78688c-0.76876,-0.48068 -0.95908,-1.26936 -1.38548,-1.60869c-0.14075,-0.11201 3.01507,0.714 5.7751,-2.12695c4.04079,-4.15925 6.84912,-11.59682 6.84912,-11.59682c0,0 5.16396,4.2466 12.55321,4.12923z" fill="#d2d2d6" stroke="none" stroke-width="0" stroke-linecap="butt"/><path d="M260.22605,181.91171c0,0.70097 -2.68606,4.34616 -9.76923,4.57692c-6.77948,0.18655 -13.92307,-2.36176 -14.23076,-4.42308c-0.05761,-0.38592 24.00001,-0.46462 24.00001,-0.15384z" fill="#7b7b7e" stroke="none" stroke-width="0" stroke-linecap="butt"/><path d="M260.7645,181.60402c0,1.16829 -4.87434,0.88462 -11.07692,0.88462c-6.20258,0 -11.38462,0.28368 -11.38462,-0.88462c0,-1.16829 5.02819,-2.11538 11.23077,-2.11538c6.20258,0 11.23077,0.94709 11.23077,2.11538z" fill="#678dad" stroke="none" stroke-width="0" stroke-linecap="butt"/><path d="M260.53373,182.10402c0,0 -20.39554,0.09482 -23.7668,-0.05476c-1.11802,-0.04961 -1.54089,-0.94524 -1.54089,-0.94524" fill="none" stroke="#000000" stroke-width="1" stroke-linecap="round"/></g></g></svg>