<svg version="1.1" xmlns="http://www.w3.org/2000/svg" xmlns:xlink="http://www.w3.org/1999/xlink" width="34.59482" height="34.6827" viewBox="0,0,34.59482,34.6827"><g transform="translate(-222.17775,-162.56494)"><g data-paper-data="{&quot;isPaintingLayer&quot;:true}" fill-rule="nonzero" stroke="none" stroke-width="0" stroke-linecap="butt" stroke-linejoin="miter" stroke-miterlimit="10" stroke-dasharray="" stroke-dashoffset="0" style="mix-blend-mode: normal"><path d="M222.33496,192.71986c0,-7.54232 0,-22.44996 0,-26.3378c0,-1.82046 1.82312,-3.67442 3.62078,-3.67442c4.00587,0 19.87172,0 27.14242,0c2.24806,0 3.67441,2.07203 3.67441,4.04991c0,3.84399 0,17.5304 0,25.15769c0,3.12286 -1.97811,5.23001 -3.88898,5.23001c-3.82487,0 -17.76801,0 -25.4259,0c-3.06468,0 -5.12273,-1.74897 -5.12273,-4.42539z" fill="#faa341"/><path d="M233.68219,197.14764c0,0 2.11999,-5.03474 1.96689,-17.29482c-0.15078,-12.07423 -1.26689,-17.03195 -1.26689,-17.03195h8.66656c0,0 -2.5,11.01333 -2.5,15.99892c0,6.19283 1.7,18.42785 1.7,18.42785z" fill="#f6f6f6"/><path d="M222.38696,190.91992c-0.0661,-1.99041 0.0579,-15.49715 -0.14281,-20.89518c-0.6008,-8.48998 3.03278,-7.29739 4.57138,-7.37848c3.47204,-0.18297 5.09194,0 5.09194,0c0,0 -3.66886,10.35945 -3.34469,19.09206c0.31458,8.47449 3.55972,15.35236 3.55972,15.35236c0,0 -3.78499,0.01617 -4.47639,-0.01375c-4.67835,-0.20239 -5.10959,-1.65344 -5.25915,-6.15702z" fill="#f6f6f6"/><path d="M243.62501,178.23334c0,-0.13512 1.99549,0.63011 3.99983,0.63363c1.86568,0.00328 3.75017,-0.76472 3.75017,-0.63363c0,2.14011 -1.73489,3.875 -3.875,3.875c-2.14011,0 -3.875,-1.73489 -3.875,-3.875z" fill="#ff6565"/></g></g></svg>