<svg version="1.1" xmlns="http://www.w3.org/2000/svg" xmlns:xlink="http://www.w3.org/1999/xlink" width="34.75524" height="34.43761" viewBox="0,0,34.75524,34.43761"><g transform="translate(-222.77462,-162.78121)"><g data-paper-data="{&quot;isPaintingLayer&quot;:true}" fill-rule="nonzero" stroke-linejoin="miter" stroke-miterlimit="10" stroke-dasharray="" stroke-dashoffset="0" style="mix-blend-mode: normal"><path d="M222.78121,192.79343c0,-7.54232 0,-22.44996 0,-26.3378c0,-1.82046 1.82312,-3.67442 3.62078,-3.67442c4.00587,0 19.87172,0 27.14242,0c2.24806,0 3.67441,2.07203 3.67441,4.04991c0,3.84399 0,17.5304 0,25.15769c0,3.12286 -1.97811,5.23001 -3.88898,5.23001c-3.82487,0 -17.76801,0 -25.4259,0c-3.06468,0 -5.12273,-1.74897 -5.12273,-4.42539z" fill="#ffffff" stroke="none" stroke-width="0" stroke-linecap="butt"/><path d="M230.48512,181.59261c-3.10332,-5.15687 0.64016,-8.38003 2.80229,-10.9275c2.16214,-2.54746 7.38003,-3.45984 9.92749,-1.2977c2.54746,2.16214 2.85984,5.98003 0.69771,8.52749c-2.16214,2.54746 -11.01394,7.70837 -13.42749,3.69771z" fill="#202020" stroke="none" stroke-width="0" stroke-linecap="butt"/><path d="M249.45001,173.88001c0,-2.78904 2.26096,-5.05 5.05,-5.05c0.61923,0 2.28477,0.68518 2.75942,1.75129c0.20099,0.45145 0.60202,12.74871 -0.25942,12.74871c-2.78904,0 -7.55,-6.66096 -7.55,-9.45z" fill="#202020" stroke="none" stroke-width="0" stroke-linecap="butt"/><path d="M250.85001,179.38001c0,0.52467 -0.57599,1.85 -2.15,1.85c-1.57401,0 -2.65,-1.32533 -2.65,-1.85c0,-0.52467 0.77599,-0.95 2.35,-0.95c1.57401,0 2.45,0.42533 2.45,0.95z" fill="#000000" stroke="none" stroke-width="0" stroke-linecap="butt"/><path d="M253.95002,183.03c0,0 0.1994,1.89179 -2.5,1.9c-1.15489,0.00352 -1.92219,-0.74255 -2.33443,-1.30071c-0.24602,-0.3331 -0.46685,-0.31936 -0.70663,0.01478c-0.39299,0.54763 -1.15801,1.24086 -2.45895,1.08594c-2.39595,-0.28533 -2.6,-1.7 -2.6,-1.7" fill="none" stroke="#000000" stroke-width="1" stroke-linecap="round"/><path d="M222.78121,192.79343c0,-1.63688 0,-3.62065 0,-5.76342c0,-0.15688 -0.4547,3.75207 6.18549,4.68075c6.61109,0.9246 18.8127,0.91872 25.06888,0.27828c3.11933,-0.31932 3.48324,-1.47267 3.48324,-1.40023c0,3.12286 -2.27811,6.63001 -4.18898,6.63001c-3.82487,0 -17.76801,0 -25.4259,0c-3.06468,0 -5.12273,-1.74897 -5.12273,-4.42539z" fill="#09000c" stroke="none" stroke-width="0" stroke-linecap="butt"/></g></g></svg>