<?xml version="1.0" encoding="UTF-8"?>
<!DOCTYPE svg  PUBLIC '-//W3C//DTD SVG 1.1//EN'  'http://www.w3.org/Graphics/SVG/1.1/DTD/svg11.dtd'>
<svg clip-rule="evenodd" fill-rule="evenodd" stroke-linecap="round" stroke-linejoin="round" stroke-miterlimit="1.5" version="1.1" viewBox="0 0 480 360" xml:space="preserve" xmlns="http://www.w3.org/2000/svg">
    <g transform="matrix(.52425 -.14047 .11519 .42988 -106.18 273.24)">
        <path d="m297 101.47c0-12.41-8.249-22.47-18.425-22.47h-45.15c-10.176 0-18.425 10.06-18.425 22.47v115.06c0 12.41 8.249 22.47 18.425 22.47h45.15c10.176 0 18.425-10.06 18.425-22.47v-115.06z" fill="none" stroke="#fff" stroke-width="16.97px"/>
    </g>
    <g transform="matrix(.52425 -.14047 .11519 .42988 -106.18 273.24)">
        <path d="m297 101.47c0-12.41-8.249-22.47-18.425-22.47h-45.15c-10.176 0-18.425 10.06-18.425 22.47v115.06c0 12.41 8.249 22.47 18.425 22.47h45.15c10.176 0 18.425-10.06 18.425-22.47v-115.06z"/>
    </g>
    <g transform="matrix(.4194 -.11238 .08639 .32241 -74.764 283.13)">
        <rect x="215" y="79" width="82" height="160" fill="#fff"/>
    </g>
    <g transform="matrix(-.96916 -.045878 0 .75478 99.217 84.567)">
        <path d="m44 286v10" fill="none" stroke="#000" stroke-width="5.33px"/>
    </g>
    <g transform="matrix(-.96916 -.045878 0 .75478 78.744 82.089)">
        <path d="m44 286v10" fill="none" stroke="#000" stroke-width="5.33px"/>
    </g>
    <g transform="matrix(.65366 -.37739 .37739 .65366 -97.938 126.73)">
        <path d="m49.5 315c-7.451 0-13.5-6.049-13.5-13.5" fill="none" stroke="#000" stroke-width="6px"/>
    </g>
</svg>
