<svg version="1.1" xmlns="http://www.w3.org/2000/svg" xmlns:xlink="http://www.w3.org/1999/xlink" width="17.61538" height="20.23077" viewBox="0,0,17.61538,20.23077"><g transform="translate(-231.19231,-169.88461)"><g data-paper-data="{&quot;isPaintingLayer&quot;:true}" fill-rule="nonzero" stroke-linejoin="miter" stroke-miterlimit="10" stroke-dasharray="" stroke-dashoffset="0" style="mix-blend-mode: normal"><g><path d="M242.92387,185.04222c0,0.15392 -1.24597,0.14674 -2.95235,0.14674c-1.70638,0 -2.92273,0.04487 -2.92273,-0.10905c0,-0.09329 1.53884,-0.64969 1.86374,-1.96025c0.21028,-0.8482 0.0019,-1.94109 1.15593,-2.05028c1.33507,-0.12633 0.75508,1.5196 1.28608,2.42933c0.56508,0.9681 1.56934,1.46415 1.56934,1.54349z" fill="#ffde00" stroke="#ff9f00" stroke-width="1" stroke-linecap="butt"/><path d="M235.44588,178.3831c0,0 -1.55833,-0.9405 -2.54301,-2.37857c-0.84702,-1.23701 -1.1713,-2.96511 -0.85313,-3.35573c0.46429,-0.57005 2.54558,-0.47169 2.54558,-0.47169" fill="none" stroke="#ff9f00" stroke-width="1" stroke-linecap="round"/><path d="M245.38124,172.11411c0,0 2.08129,-0.09834 2.54558,0.47169c0.31815,0.39062 -0.00611,2.11871 -0.85315,3.35572c-0.9847,1.43807 -2.54301,2.37858 -2.54301,2.37858" data-paper-data="{&quot;index&quot;:null}" fill="none" stroke="#ff9f00" stroke-width="1" stroke-linecap="round"/><path d="M237.05148,187.22452c0,0 0,-1.65242 0,-2.03555c0,-0.15072 0.13286,-0.31503 0.29079,-0.31503c0.5795,0 4.10668,0 5.2585,0c0.22848,0 0.36349,0.19376 0.36349,0.36349c0,0.39685 0,1.98708 0,1.98708z" fill="#ffde00" stroke="#ff9f00" stroke-width="1" stroke-linecap="butt"/><path d="M234.7736,189.35701c0,0 0,-1.00847 0,-1.35703c0,-0.21848 0.35444,-0.53313 0.74267,-0.53313c1.17957,0 7.24157,0 9.19274,0c0.38148,0 0.60581,0.31464 0.60581,0.53313c0,0.34856 0,1.35703 0,1.35703z" fill="#ffde00" stroke="#ff9f00" stroke-width="1" stroke-linecap="butt"/><path d="M239.97755,181.91666c-0.93405,0.02856 -3.02704,-0.49426 -4.09183,-2.91875c-1.31563,-2.99563 -1.23535,-7.64823 -1.02255,-7.96416c0.39431,-0.5854 9.92342,-0.55808 10.28358,-0.10094c0.29153,0.37004 0.33548,5.30531 -1.10257,8.42477c-1.01856,2.20948 -3.11982,2.53014 -4.06663,2.55908z" fill="#ffde00" stroke="#ff9f00" stroke-width="1" stroke-linecap="butt"/><path d="M231.19231,190.11539v-20.23077h17.61538v20.23077z" fill="none" stroke="none" stroke-width="0" stroke-linecap="butt"/></g></g></g></svg>