<svg version="1.1" xmlns="http://www.w3.org/2000/svg" xmlns:xlink="http://www.w3.org/1999/xlink" width="34.91425" height="34.78105" viewBox="0,0,34.91425,34.78105"><g transform="translate(-222.10399,-162.69039)"><g data-paper-data="{&quot;isPaintingLayer&quot;:true}" fill="#ffbb41" fill-rule="nonzero" stroke="#ffe660" stroke-width="1" stroke-linecap="butt" stroke-linejoin="miter" stroke-miterlimit="10" stroke-dasharray="" stroke-dashoffset="0" style="mix-blend-mode: normal"><path d="M222.72641,173.02742c0,-0.76209 0,-3.36678 0,-4.68427c0,-0.47021 0.2204,-0.89575 0.56893,-1.0844c1.11932,-0.60584 3.56015,-2.20917 4.26596,-2.5912c0.37286,-0.20182 1.17318,-0.21088 1.52911,-0.01504c0.62178,0.34211 2.65862,1.74499 3.86472,2.40859c0.54394,0.29928 0.91891,0.80749 0.91891,1.11274c0,0.63486 0,3.03503 0,4.51495c0,0.70288 -0.33045,1.40426 -0.64709,1.60173c-0.68063,0.42449 -3.29079,2.05231 -4.41107,2.75099c-0.31776,0.19817 -0.93731,0.05863 -1.31578,-0.17741c-0.71035,-0.44302 -3.14768,-1.96307 -4.23848,-2.64336c-0.32875,-0.20503 -0.5352,-0.78306 -0.5352,-1.19332z"/><path d="M244.99033,192.48489c0,-0.76209 0,-3.36678 0,-4.68427c0,-0.47021 0.2204,-0.89575 0.56893,-1.0844c1.11932,-0.60584 3.56015,-2.20917 4.26596,-2.5912c0.37286,-0.20182 1.17318,-0.21088 1.5291,-0.01504c0.62178,0.34211 2.65863,1.74499 3.86472,2.40859c0.54394,0.29928 0.91891,0.80749 0.91891,1.11274c0,0.63486 0,3.03503 0,4.51495c0,0.70288 -0.33045,1.40425 -0.64709,1.60172c-0.68063,0.42449 -3.29078,2.05232 -4.41107,2.751c-0.31776,0.19817 -0.93731,0.05863 -1.31578,-0.17741c-0.71035,-0.44302 -3.14768,-1.96307 -4.23849,-2.64336c-0.32875,-0.20503 -0.53519,-0.78306 -0.53519,-1.19332z"/><path d="M234.04447,192.51455c0,-0.76209 0,-3.36677 0,-4.68426c0,-0.47021 0.2204,-0.89576 0.56893,-1.0844c1.11932,-0.60584 3.56015,-2.20917 4.26596,-2.5912c0.37286,-0.20182 1.17318,-0.21087 1.52911,-0.01504c0.62178,0.34211 2.65863,1.74498 3.86472,2.40859c0.54394,0.29928 0.9189,0.80749 0.9189,1.11275c0,0.63486 0,3.03503 0,4.51494c0,0.70288 -0.33045,1.40426 -0.64709,1.60173c-0.68063,0.42449 -3.29078,2.05232 -4.41107,2.751c-0.31776,0.19817 -0.93732,0.05862 -1.31579,-0.17742c-0.71035,-0.44302 -3.14768,-1.96307 -4.23848,-2.64336c-0.32875,-0.20503 -0.5352,-0.78307 -0.5352,-1.19333z"/><path d="M222.92642,192.62742c0,-0.76209 0,-3.36678 0,-4.68427c0,-0.47021 0.2204,-0.89575 0.56892,-1.0844c1.11932,-0.60584 3.56015,-2.20917 4.26596,-2.5912c0.37286,-0.20182 1.17318,-0.21088 1.52911,-0.01504c0.62178,0.34211 2.65863,1.74499 3.86472,2.40859c0.54394,0.29928 0.91891,0.80749 0.91891,1.11274c0,0.63486 0,3.03503 0,4.51495c0,0.70288 -0.33045,1.40426 -0.64709,1.60173c-0.68063,0.42449 -3.29078,2.05231 -4.41107,2.75099c-0.31776,0.19817 -0.93732,0.05863 -1.31579,-0.17741c-0.71035,-0.44302 -3.14768,-1.96307 -4.23848,-2.64336c-0.32875,-0.20503 -0.53519,-0.78306 -0.53519,-1.19332z"/><path d="M250.0743,182.68863c0,-0.76209 0,-3.36678 0,-4.68426c0,-0.47021 0.2204,-0.89576 0.56893,-1.0844c1.11932,-0.60584 3.56015,-2.20916 4.26596,-2.5912c0.37286,-0.20182 1.17318,-0.21088 1.52911,-0.01505c0.15372,0.08458 0.00849,12.21249 -0.27453,12.389c-0.31776,0.19817 -0.93732,0.05863 -1.31579,-0.17741c-0.71035,-0.44302 -3.14768,-1.96307 -4.23848,-2.64336c-0.32875,-0.20503 -0.53519,-0.78307 -0.53519,-1.19333z"/><path d="M239.45625,182.63219c0,-0.76209 0,-3.36677 0,-4.68426c0,-0.47021 0.2204,-0.89576 0.56893,-1.0844c1.11932,-0.60584 3.56015,-2.20917 4.26596,-2.59121c0.37286,-0.20182 1.17318,-0.21087 1.52911,-0.01504c0.62178,0.34211 2.65863,1.74499 3.86472,2.40859c0.54394,0.29928 0.9189,0.80749 0.9189,1.11274c0,0.63486 0,3.03503 0,4.51495c0,0.70288 -0.33045,1.40426 -0.64709,1.60173c-0.68063,0.42449 -3.29078,2.05232 -4.41106,2.75099c-0.31776,0.19817 -0.93732,0.05863 -1.31579,-0.17741c-0.71035,-0.44302 -3.14768,-1.96307 -4.23848,-2.64336c-0.32875,-0.20503 -0.5352,-0.78306 -0.5352,-1.19332z"/><path d="M228.33817,182.74507c0,-0.76209 0,-3.36678 0,-4.68427c0,-0.47021 0.2204,-0.89575 0.56893,-1.0844c1.11932,-0.60584 3.56015,-2.20917 4.26596,-2.5912c0.37286,-0.20182 1.17318,-0.21088 1.52911,-0.01504c0.62178,0.34211 2.65863,1.74499 3.86472,2.40859c0.54394,0.29928 0.91891,0.80749 0.91891,1.11274c0,0.63486 0,3.03503 0,4.51495c0,0.70288 -0.33045,1.40426 -0.64709,1.60173c-0.68063,0.42449 -3.29078,2.05231 -4.41107,2.75099c-0.31776,0.19817 -0.93732,0.05863 -1.31579,-0.17741c-0.71035,-0.44302 -3.14768,-1.96307 -4.23848,-2.64336c-0.32875,-0.20503 -0.5352,-0.78306 -0.5352,-1.19332z"/><path d="M223.06469,174.17932c0.37286,-0.20182 1.17318,-0.21088 1.5291,-0.01504c0.62178,0.34211 2.65863,1.74499 3.86472,2.40859c0.54394,0.29928 0.91891,0.80749 0.91891,1.11274c0,0.63486 0,3.03503 0,4.51495c0,0.70288 -0.33045,1.40426 -0.64709,1.60173c-0.68063,0.42449 -3.29078,2.05231 -4.41107,2.75099c-0.31776,0.19817 -0.93732,0.05863 -1.31579,-0.17741c-0.17175,-0.10711 -0.12107,-12.09789 0.06121,-12.19655z"/><path d="M244.96253,172.97099c0,-0.76209 0,-3.36678 0,-4.68427c0,-0.47021 0.2204,-0.89576 0.56892,-1.0844c1.11932,-0.60584 3.56015,-2.20916 4.26597,-2.5912c0.37286,-0.20182 1.17318,-0.21088 1.5291,-0.01504c0.62178,0.34211 2.65863,1.74498 3.86472,2.40859c0.54394,0.29928 0.91891,0.80749 0.91891,1.11275c0,0.63486 0,3.03503 0,4.51495c0,0.70288 -0.33045,1.40425 -0.64709,1.60172c-0.68063,0.42449 -3.29078,2.05232 -4.41107,2.751c-0.31776,0.19817 -0.93732,0.05863 -1.31579,-0.17741c-0.71035,-0.44302 -3.14768,-1.96307 -4.23848,-2.64336c-0.32875,-0.20503 -0.53519,-0.78306 -0.53519,-1.19332z"/><path d="M233.84448,172.91455c0,-0.76209 0,-3.36677 0,-4.68426c0,-0.47021 0.2204,-0.89576 0.56893,-1.0844c1.11932,-0.60584 3.56015,-2.20917 4.26596,-2.59121c0.37286,-0.20182 1.17318,-0.21087 1.5291,-0.01504c0.62178,0.34211 2.65863,1.74499 3.86472,2.40859c0.54394,0.29928 0.9189,0.80749 0.9189,1.11275c0,0.63486 0,3.03503 0,4.51494c0,0.70288 -0.33045,1.40426 -0.64709,1.60173c-0.68063,0.42449 -3.29078,2.05232 -4.41107,2.75099c-0.31776,0.19817 -0.93731,0.05863 -1.31578,-0.17741c-0.71035,-0.44302 -3.14768,-1.96307 -4.23848,-2.64336c-0.32875,-0.20503 -0.5352,-0.78306 -0.5352,-1.19332z"/><path d="M250.2021,163.51914c0,-0.36471 2.79412,-0.621 4.39335,0.33031c1.74244,1.03651 2.28027,3.31948 1.69612,3.68379c-0.31776,0.19817 -0.93732,0.05863 -1.31579,-0.17741c-0.71035,-0.44302 -3.14768,-1.96307 -4.23848,-2.64336c-0.32875,-0.20503 -0.5352,-0.78307 -0.5352,-1.19333z"/><path d="M239.17014,163.63277c0,-0.23827 11.14762,-0.62483 11.14762,-0.33863c0,0.70288 -0.33045,1.40426 -0.64709,1.60173c-0.68063,0.42449 -3.29078,2.05232 -4.41107,2.75099c-0.31776,0.19817 -0.93731,0.05863 -1.31578,-0.17741c-0.71035,-0.44302 -3.14768,-1.96307 -4.23849,-2.64336c-0.32875,-0.20503 -0.53519,-0.78306 -0.53519,-1.19332z"/><path d="M228.11611,163.6816c0,-0.3345 11.24286,-0.69278 11.24286,0.13757c0,0.70288 -0.42569,0.92807 -0.74233,1.12554c-0.68063,0.42449 -3.29079,2.05231 -4.41107,2.75099c-0.31776,0.19817 -0.93731,0.05863 -1.31578,-0.17741c-0.71035,-0.44302 -3.14768,-1.96307 -4.23849,-2.64336c-0.32875,-0.20503 -0.53519,-0.78307 -0.53519,-1.19333z"/><path d="M228.18596,163.70114c0,0.70288 -0.33045,1.40426 -0.64709,1.60173c-0.68063,0.42449 -3.81459,2.5285 -4.93488,3.22718c-0.15548,0.09697 -0.18587,-2.72599 1.08821,-4.00211c1.32977,-1.3319 4.49375,-1.58258 4.49375,-0.8268z"/><path d="M254.37307,193.58221c0.37847,-0.23604 0.99802,-0.37558 1.31579,-0.17741c0.08669,0.05406 0.11861,2.04568 -1.28725,2.74127c-1.49256,0.73849 -4.87489,0.62734 -4.71532,0.52782c0,0 3.97642,-2.64865 4.68678,-3.09167z" data-paper-data="{&quot;index&quot;:null}"/><path d="M240.46364,195.5626c1.0908,-0.68029 3.52813,-2.20034 4.23849,-2.64336c0.37847,-0.23604 0.99802,-0.37559 1.31578,-0.17741c1.12028,0.69868 3.73043,2.32651 4.41107,2.75099c0.30238,0.18858 0.01818,1.38142 -0.74417,1.21201c-2.00319,-0.44515 -7.01214,-0.20745 -9.74962,-0.08315c0.03799,-0.39336 0.23424,-0.87559 0.52845,-1.05907z" data-paper-data="{&quot;index&quot;:null}"/><path d="M229.25948,195.79413c1.0908,-0.68029 3.52813,-2.20034 4.23849,-2.64336c0.37847,-0.23604 0.99802,-0.37559 1.31578,-0.17741c1.12028,0.69868 3.73044,2.3265 4.41107,2.75099c0.31664,0.19747 0.74233,0.42266 0.74233,1.12554c0,0.041 -0.02741,0.0791 -0.07952,0.11444c-1.08991,0.04952 -2.04572,0.09176 -2.71356,0.0849c-2.63341,-0.02702 -5.65197,0.16693 -8.4497,-0.07591c0.00466,-0.40929 0.21012,-0.97651 0.53511,-1.17919z" data-paper-data="{&quot;index&quot;:null}"/><path d="M223.1723,192.11695c1.12028,0.69868 4.25424,2.8027 4.93488,3.22718c0.30821,0.19221 0.62951,0.86187 0.64639,1.54561c-0.97867,-0.08384 -1.93061,-0.22079 -2.82992,-0.43896c-0.76615,-0.18587 -1.57824,-0.94757 -2.38717,-1.49542c-0.52737,-1.33064 -0.4812,-2.91139 -0.36418,-2.83841z" data-paper-data="{&quot;index&quot;:null}"/></g></g></svg>