<svg version="1.1" xmlns="http://www.w3.org/2000/svg" xmlns:xlink="http://www.w3.org/1999/xlink" width="36.63842" height="36.74905" viewBox="0,0,36.63842,36.74905"><g transform="translate(-221.53994,-161.75209)"><g data-paper-data="{&quot;isPaintingLayer&quot;:true}" stroke-linejoin="miter" stroke-miterlimit="10" stroke-dasharray="" stroke-dashoffset="0" style="mix-blend-mode: normal"><path d="M223.5652,179.82137c0,-9.15272 7.41974,-16.57247 16.57248,-16.57247c9.15272,0 16.57247,7.41974 16.57247,16.57247c0,9.15272 -7.41974,16.57248 -16.57247,16.57248c-9.15272,0 -16.57248,-7.41974 -16.57248,-16.57248z" fill="#853131" fill-rule="nonzero" stroke="none" stroke-width="0" stroke-linecap="butt"/><path d="M256.22475,178.71192c-0.44311,9.14199 -7.0037,17.68192 -16.15642,17.68192c-5.48567,0 -9.93277,-4.32949 -12.94906,-8.43577c-1.08671,-1.47941 12.452,5.65415 18.45214,-0.54912c8.02692,-8.40447 1.53682,-18.24032 3.63722,-19.44107c1.48636,-1.03253 7.29349,5.02171 7.01613,10.74404z" fill="#541f1f" fill-rule="nonzero" stroke="none" stroke-width="0" stroke-linecap="butt"/><path d="M234.2437,195.83911c0,0 -5.9907,-2.25941 -9.00442,-7.83525c-3.0835,-5.70494 -3.10903,-14.79723 4.35858,-20.94122c4.57571,-3.84539 14.39009,-5.00419 19.49067,-1.32828c5.09844,3.67436 6.5815,8.40104 6.5815,8.40104" fill="none" fill-rule="nonzero" stroke="#d82d2d" stroke-width="3.5" stroke-linecap="round"/><path d="M224.77867,178.81593c0,-1.18717 0.96239,-2.14957 2.14956,-2.14957c1.18717,0 2.14956,0.9624 2.14956,2.14957c0,1.18717 -0.96239,2.14956 -2.14956,2.14956c-1.18717,0 -2.14956,-0.96239 -2.14956,-2.14956z" fill="#d63e3e" fill-rule="nonzero" stroke="none" stroke-width="0" stroke-linecap="butt"/><path d="M227.45283,173.30626c-1.26402,-2.89326 1.2092,-5.19534 4.69177,-6.57369c3.48258,-1.37834 6.69959,-1.50064 7.91975,1.58227c1.25004,3.15842 -1.2092,5.19534 -4.69177,6.57369c-3.48258,1.37834 -6.49523,1.67835 -7.91975,-1.58227z" fill="#d63e3e" fill-rule="nonzero" stroke="none" stroke-width="0" stroke-linecap="butt"/><path d="M255.32333,173.23399c0,0 4.06484,9.55328 -3.39771,18.51401c-7.00358,8.4096 -18.79138,3.67506 -18.79138,3.67506" fill="none" fill-rule="nonzero" stroke="#f54747" stroke-width="3.5" stroke-linecap="round"/><path d="M248.85015,177.75362c0,3.41682 -5.58852,7.61821 -8.3805,10.28498c-0.34705,0.33148 -1.22514,1.61 -2.3389,1.59741c-0.89682,-0.01014 -2.06364,-1.2481 -2.33152,-1.49999c-2.78169,-2.61547 -8.42721,-6.78111 -8.42721,-10.3824c0,-3.74399 2.77694,-6.78802 6.19713,-6.78802c1.75716,0 3.38881,0.81391 4.54979,2.18128c1.16098,-1.36738 2.80832,-2.18128 4.54979,-2.18128c3.42019,0 6.19713,3.04403 6.18143,6.78802z" fill="#542d2d" fill-rule="evenodd" stroke="none" stroke-width="1" stroke-linecap="butt"/><path d="M250.73904,177.19807c0,3.41682 -5.58852,7.61821 -8.3805,10.28498c-0.34705,0.33148 -1.22514,1.61 -2.3389,1.59741c-0.89682,-0.01014 -2.06364,-1.2481 -2.33152,-1.49999c-2.78169,-2.61547 -8.42721,-6.78111 -8.42721,-10.3824c0,-3.74399 2.77694,-6.78802 6.19713,-6.78802c1.75716,0 3.38881,0.81391 4.54979,2.18128c1.16098,-1.36738 2.80832,-2.18128 4.54979,-2.18128c3.42019,0 6.19713,3.04403 6.18143,6.78802z" fill="#ffffff" fill-rule="evenodd" stroke="none" stroke-width="1" stroke-linecap="butt"/></g></g></svg>