<svg version="1.1" xmlns="http://www.w3.org/2000/svg" xmlns:xlink="http://www.w3.org/1999/xlink" width="37.48805" height="32.57143" viewBox="0,0,37.48805,32.57143"><g transform="translate(-221.68544,-161.0109)"><g data-paper-data="{&quot;isPaintingLayer&quot;:true}" fill="#eeeeee" fill-rule="nonzero" stroke="none" stroke-width="0" stroke-linecap="butt" stroke-linejoin="miter" stroke-miterlimit="10" stroke-dasharray="" stroke-dashoffset="0" style="mix-blend-mode: normal"><path d="M223.20463,171.0109c0,-2.28804 1.85482,-4.14286 4.14286,-4.14286c2.28804,0 4.14285,1.85483 4.14285,4.14286c0,2.28804 -1.85482,4.14285 -4.14285,4.14285c-2.28804,0 -4.14286,-1.85482 -4.14286,-4.14285z"/><path d="M235.27606,164.68946c0,-1.99217 1.82284,-3.60714 4.07143,-3.60714c2.24859,0 4.07143,1.61497 4.07143,3.60714c0,1.99217 -1.82283,3.60715 -4.07143,3.60715c-2.24859,0 -4.07143,-1.61498 -4.07143,-3.60715z"/><path d="M242.06178,164.40375c0,-1.87383 1.91878,-3.39285 4.28571,-3.39285c2.36694,0 4.28571,1.51903 4.28571,3.39285c0,1.87383 -1.91877,3.39286 -4.28571,3.39286c-2.36694,0 -4.28571,-1.51903 -4.28571,-3.39286z"/><path d="M249.84749,163.97518c0,-1.12429 0.91142,-2.03572 2.03571,-2.03572c1.12429,0 2.03572,0.91142 2.03572,2.03572c0,1.12429 -0.91142,2.03572 -2.03572,2.03572c-1.12429,0 -2.03571,-0.91142 -2.03571,-2.03572z"/><path d="M230.91892,163.93946c0,-1.02567 1.19924,-1.85714 2.67857,-1.85714c1.47933,0 2.67857,0.83147 2.67857,1.85714c0,1.02567 -1.19924,1.85715 -2.67857,1.85715c-1.47933,0 -2.67857,-0.83148 -2.67857,-1.85715z"/><path d="M223.06178,189.83233c0,-2.07107 1.59898,-3.75 3.57142,-3.75c1.97244,0 3.57143,1.67893 3.57143,3.75c0,2.07107 -1.59899,3.75 -3.57143,3.75c-1.97244,0 -3.57142,-1.67893 -3.57142,-3.75z"/><path d="M221.70463,180.86804c0.1485,-4.1 0.19597,-7.07143 3.53571,-7c2.2678,0.0485 4.96429,3.18303 4.96429,7.28572c0,4.10269 -2.41481,5.99918 -4.67857,6.14286c-1.12545,0.07143 -4.10715,1.45982 -3.82143,-6.42857z"/><path d="M224.73588,186.3875c0,-7.40803 0,-16.05091 0,-18.87583c0,-1.82046 1.82312,-3.67442 3.62078,-3.67442c4.00587,0 19.87172,0 27.14242,0c2.24806,0 3.67441,2.07203 3.67441,4.04991c0,0.39851 -1.11377,8.69666 -6.25291,11.67108c-10.20356,5.90557 -28.1847,8.10925 -28.1847,6.82926z"/></g></g></svg>