<svg version="1.1" xmlns="http://www.w3.org/2000/svg" xmlns:xlink="http://www.w3.org/1999/xlink" width="485" height="373" viewBox="0,0,485,373"><defs><linearGradient x1="240" y1="-275.20142" x2="240" y2="366.5" gradientUnits="userSpaceOnUse" id="color-1"><stop offset="0" stop-color="#000000"/><stop offset="1" stop-color="#000000" stop-opacity="0"/></linearGradient><linearGradient x1="240" y1="635.20142" x2="240" y2="-6.5" gradientUnits="userSpaceOnUse" id="color-2"><stop offset="0" stop-color="#000000"/><stop offset="1" stop-color="#000000" stop-opacity="0"/></linearGradient></defs><g transform="translate(2.5,6.5)"><g data-paper-data="{&quot;isPaintingLayer&quot;:true}" fill-rule="nonzero" stroke-linejoin="miter" stroke-miterlimit="10" stroke-dasharray="" stroke-dashoffset="0" style="mix-blend-mode: normal"><path d="M-2.5,366.5v-373h485v373zM155.37804,221.86887c-2.11992,0.57968 -3.67804,2.51957 -3.67804,4.82338c0,0.43284 0.055,0.85285 0.1584,1.25339c-0.49846,1.82769 1.92437,6.37878 2.19089,8.54376c0.69404,5.6378 -0.98044,12.91564 -0.98044,18.52335c0,1.5564 0.33659,5.81543 1.23853,6.67459c2.72802,2.59861 5.01762,2.58582 8.79262,2.40492c0.30594,-0.01466 1.7163,-0.56311 1.9931,-0.41208c1.73885,0.94879 6.15458,2.53576 8.08641,2.04323c1.36625,-0.34833 2.63681,-1.22199 4.04673,-1.23116c2.30297,-0.01497 8.69114,0.78159 9.84876,-2.7c1.14985,-3.45821 -0.76133,-6.01851 -0.775,-9.39509c-0.02065,-5.10232 -0.03382,-10.20483 0,-15.30708c0.03037,-4.58274 3.10027,-9.3286 0.375,-14.09782c-2.99339,-5.23844 -9.575,-1.49199 -13.97215,-1.15071c-4.41539,0.34269 -8.61352,-2.63643 -12.88236,-2.18044c-1.94148,0.20738 -3.29234,1.03881 -4.44245,2.20777zM291.81592,223.31152c-1.89648,1.0837 -0.0109,8.68491 0.25402,10.31742c0.09478,0.58406 0.24079,1.33531 0.39292,2.15536c-1.26429,0.90736 -2.08786,2.38994 -2.08786,4.06488c0,1.55253 0.70759,2.93978 1.81787,3.85687c-1.01688,2.67001 -0.93345,5.08928 -0.44854,8.37046c0.56761,3.84079 -1.7424,9.49722 3.80484,10.88403c2.65885,0.66471 5.2453,-1.34837 7.82092,-1.36136c5.91823,-0.02985 11.83942,0.18253 17.7549,0c0.46696,-0.01441 3.10453,-0.71021 3.53553,-1.46447c1.75356,-3.06873 1.27561,-6.1646 0.61058,-9.36584c0.98641,-0.91331 1.60389,-2.21939 1.60389,-3.66969c0,-1.3191 -0.51081,-2.51889 -1.34542,-3.41236c0.62095,-0.61479 1.25062,-1.22266 1.20678,-2.01181c-0.15182,-2.73283 -1.81561,-4.28945 -1.86136,-6.69135c-0.05702,-2.99348 1.82059,-8.91719 0.125,-11.88447c-1.84807,-3.23412 -5.89067,-2.28903 -9.03881,-2.25c-4.52838,0.05614 -9.06006,-0.15361 -13.58619,0c-1.05462,0.03579 -1.84525,1.4742 -2.88612,1.30072c-1.18584,-0.19764 -2.24258,-0.86715 -3.36388,-1.30072z" fill="url(#color-1)" stroke="none" stroke-width="0" stroke-linecap="butt"/><path d="M482.5,-6.5v373h-485v-373zM155.37804,221.86887c-2.11992,0.57968 -3.67804,2.51957 -3.67804,4.82338c0,0.43284 0.055,0.85285 0.1584,1.25339c-0.49846,1.82769 1.92437,6.37878 2.19089,8.54376c0.69404,5.6378 -0.98044,12.91564 -0.98044,18.52335c0,1.5564 0.33659,5.81543 1.23853,6.67459c2.72802,2.59861 5.01762,2.58582 8.79262,2.40492c0.30594,-0.01466 1.7163,-0.56311 1.9931,-0.41208c1.73885,0.94879 6.15458,2.53576 8.08641,2.04323c1.36625,-0.34833 2.63681,-1.22199 4.04673,-1.23116c2.30297,-0.01497 8.69114,0.78159 9.84876,-2.7c1.14985,-3.45821 -0.76133,-6.01851 -0.775,-9.39509c-0.02065,-5.10232 -0.03382,-10.20483 0,-15.30708c0.03037,-4.58274 3.10027,-9.3286 0.375,-14.09782c-2.99339,-5.23844 -9.575,-1.49199 -13.97215,-1.15071c-4.41539,0.34269 -8.61352,-2.63643 -12.88236,-2.18044c-1.94148,0.20738 -3.29234,1.03881 -4.44245,2.20777zM291.81592,223.31152c-1.89648,1.0837 -0.0109,8.68491 0.25402,10.31742c0.09478,0.58406 0.24079,1.33531 0.39292,2.15536c-1.26429,0.90736 -2.08786,2.38994 -2.08786,4.06488c0,1.55253 0.70759,2.93978 1.81787,3.85687c-1.01688,2.67001 -0.93345,5.08928 -0.44854,8.37046c0.56761,3.84079 -1.7424,9.49722 3.80484,10.88403c2.65885,0.66471 5.2453,-1.34837 7.82092,-1.36136c5.91823,-0.02985 11.83942,0.18253 17.7549,0c0.46696,-0.01441 3.10453,-0.71021 3.53553,-1.46447c1.75356,-3.06873 1.27561,-6.1646 0.61058,-9.36584c0.98641,-0.91331 1.60389,-2.21939 1.60389,-3.66969c0,-1.3191 -0.51081,-2.51889 -1.34542,-3.41236c0.62095,-0.61479 1.25062,-1.22266 1.20678,-2.01181c-0.15182,-2.73283 -1.81561,-4.28945 -1.86136,-6.69135c-0.05702,-2.99348 1.82059,-8.91719 0.125,-11.88447c-1.84807,-3.23412 -5.89067,-2.28903 -9.03881,-2.25c-4.52838,0.05614 -9.06006,-0.15361 -13.58619,0c-1.05462,0.03579 -1.84525,1.4742 -2.88612,1.30072c-1.18584,-0.19764 -2.24258,-0.86715 -3.36388,-1.30072z" data-paper-data="{&quot;index&quot;:null}" fill="url(#color-2)" stroke="none" stroke-width="0" stroke-linecap="butt"/><path d="M165.33335,187.92426c0,-12.75946 0,-34.02004 0,-41.80501c0,-6.07449 6.27961,-11.45257 16.0279,-11.45257c19.61584,0 93.38855,0 124.25751,0c6.71288,0 13.71459,3.92651 13.71459,9.70027c0,13.32513 0,36.48926 0,43.93281c0,4.53725 -5.8567,9.70027 -15.20171,9.70027c-32.38139,0 -106.64655,0 -124.25751,0c-7.32772,0 -14.54078,-4.10807 -14.54078,-10.07576z" fill="#fff6e6" stroke="#774c3f" stroke-width="1.5" stroke-linecap="butt"/><text transform="translate(176.86817,161.69909) scale(0.38619,0.38619)" font-size="40" xml:space="preserve" fill="#5b3f2f" fill-rule="nonzero" stroke="#5b3f2f" stroke-width="2" stroke-linecap="butt" stroke-linejoin="miter" stroke-miterlimit="10" stroke-dasharray="" stroke-dashoffset="0" font-family="Sans Serif" font-weight="normal" text-anchor="start" style="mix-blend-mode: normal"><tspan x="0" dy="0">Arrows to explore</tspan><tspan x="0" dy="48px">     more skins!</tspan></text><g data-paper-data="{&quot;index&quot;:null}" fill="none" stroke="#774c3f" stroke-width="7.5" stroke-linecap="round"><path d="M172.55352,213.8178c0,0 -0.1806,-13.11628 11.40761,-16.76371c10.41923,-3.27948 17.81674,-1.7068 17.81674,-1.7068"/><path d="M184.08591,212.49546c0,0 -9.63411,5.45614 -12.83191,4.3752c-3.11884,-1.05425 -6.12394,-10.78281 -6.12394,-10.78281"/></g><g data-paper-data="{&quot;index&quot;:null}" fill="none" stroke="#774c3f" stroke-width="7.5" stroke-linecap="round"><path d="M275.46339,194.01396c0,0 7.39751,-1.57269 17.81675,1.7068c11.5882,3.64743 11.40761,16.7637 11.40761,16.7637"/><path d="M312.1112,204.75452c0,0 -3.0051,9.72855 -6.12394,10.7828c-3.1978,1.08095 -12.83192,-4.3752 -12.83192,-4.3752"/></g><path d="M290.83335,262.35001v-41.75h36.25v41.75z" fill="none" stroke="#774c3f" stroke-width="5" stroke-linecap="butt"/><path d="M152.33334,263.35001v-41.75h36.25v41.75z" fill="none" stroke="#774c3f" stroke-width="5" stroke-linecap="butt"/></g></g></svg>