<svg version="1.1" xmlns="http://www.w3.org/2000/svg" xmlns:xlink="http://www.w3.org/1999/xlink" width="27.49034" height="20.07227" viewBox="0,0,27.49034,20.07227"><defs><linearGradient x1="203.93756" y1="190.64269" x2="227.18756" y2="190.64269" gradientUnits="userSpaceOnUse" id="color-1"><stop offset="0" stop-color="#484c5d"/><stop offset="1" stop-color="#678dad"/></linearGradient></defs><g transform="translate(-203.93756,-177.85866)"><g data-paper-data="{&quot;isPaintingLayer&quot;:true}" fill-rule="nonzero" stroke="none" stroke-width="0" stroke-linecap="butt" stroke-linejoin="miter" stroke-miterlimit="10" stroke-dasharray="" stroke-dashoffset="0" style="mix-blend-mode: normal"><path d="M209.56256,186.43094c0,0 -5.6298,-0.827 -5.625,-2.75c0.00124,-0.49724 13.74657,-0.31581 14.12685,-0.17272c1.36252,0.51269 -1.97595,1.92103 -1.00318,2.79919c1.19921,1.08257 1.96056,2.31634 3.56947,3.22429c2.0952,1.18239 4.93186,1.89923 4.93186,1.89923l1.625,6.5c0,0 -7.33423,-1.84485 -10.31215,-3.78789c-2.89472,-1.88876 -7.31285,-7.71211 -7.31285,-7.71211z" fill="url(#color-1)"/><path d="M217.82218,194.48863l9.07693,0.5c0,0 0.78612,2.88947 0.34615,2.88461c-2.11336,-0.02329 -4.37622,-1.0742 -6.40232,-1.85035c-1.22405,-0.46891 -3.02076,-1.53427 -3.02076,-1.53427z" fill="#d2d2d6"/><path d="M219.80395,187.67194c-0.92697,-1.81635 4.43607,-8.48199 6.25242,-9.40896c1.81635,-0.92697 4.04023,-0.206 4.96721,1.61035c0.92697,1.81635 0.20598,4.04024 -1.61035,4.9672c-1.81635,0.92697 -8.6823,4.64775 -9.60926,2.83141z" fill="#484c5d"/></g></g></svg>