<svg version="1.1" xmlns="http://www.w3.org/2000/svg" xmlns:xlink="http://www.w3.org/1999/xlink" width="625.8048" height="366" viewBox="0,0,625.8048,366"><defs><linearGradient x1="-74.5" y1="179.30007" x2="76.5" y2="179.30007" gradientUnits="userSpaceOnUse" id="color-1"><stop offset="0" stop-color="#e8f146"/><stop offset="1" stop-color="#e8f146" stop-opacity="0"/></linearGradient><linearGradient x1="551.3048" y1="179.30007" x2="400.3048" y2="179.30007" gradientUnits="userSpaceOnUse" id="color-2"><stop offset="0" stop-color="#e8f146"/><stop offset="1" stop-color="#e8f146" stop-opacity="0"/></linearGradient></defs><g transform="translate(74.5,3.69994)"><g data-paper-data="{&quot;isPaintingLayer&quot;:true}" fill-rule="nonzero" stroke-linejoin="miter" stroke-miterlimit="10" stroke-dasharray="" stroke-dashoffset="0" style="mix-blend-mode: normal"><path d="M-74.5,362.30007v-366h151v366z" fill="url(#color-1)" stroke="none" stroke-width="NaN" stroke-linecap="butt"/><path d="M400.3048,362.30007v-366h151v366z" data-paper-data="{&quot;index&quot;:null}" fill="url(#color-2)" stroke="none" stroke-width="NaN" stroke-linecap="butt"/><g><path d="M10.16519,26.42137c0,-9.15272 7.41974,-16.57247 16.57248,-16.57247c9.15272,0 16.57247,7.41974 16.57247,16.57247c0,9.15272 -7.41974,16.57248 -16.57247,16.57248c-9.15272,0 -16.57248,-7.41974 -16.57248,-16.57248z" fill="#448446" stroke="none" stroke-width="0" stroke-linecap="butt"/><path d="M42.82474,25.31192c-0.44311,9.14199 -7.0037,17.68192 -16.15642,17.68192c-5.48567,0 -9.93277,-4.32949 -12.94906,-8.43577c-1.08671,-1.47941 12.452,5.65415 18.45214,-0.54912c8.02692,-8.40447 1.53682,-18.24032 3.63722,-19.44107c1.48636,-1.03253 7.29349,5.02171 7.01613,10.74404z" fill="#2c5345" stroke="none" stroke-width="0" stroke-linecap="butt"/><path d="M20.84369,42.43912c0,0 -5.9907,-2.25941 -9.00442,-7.83525c-3.0835,-5.70494 -3.10903,-14.79723 4.35858,-20.94122c4.57571,-3.84539 14.39009,-5.00419 19.49067,-1.32828c5.09844,3.67436 6.5815,8.40104 6.5815,8.40104" fill="none" stroke="#91b326" stroke-width="3.5" stroke-linecap="round"/><path d="M11.37865,25.41593c0,-1.18717 0.96239,-2.14957 2.14956,-2.14957c1.18717,0 2.14956,0.9624 2.14956,2.14957c0,1.18717 -0.96239,2.14956 -2.14956,2.14956c-1.18717,0 -2.14956,-0.96239 -2.14956,-2.14956z" fill="#ced63d" stroke="none" stroke-width="0" stroke-linecap="butt"/><path d="M14.05281,19.90624c-1.26402,-2.89326 1.2092,-5.19534 4.69177,-6.57369c3.48258,-1.37834 6.69959,-1.50064 7.91975,1.58227c1.25004,3.15842 -1.2092,5.19534 -4.69177,6.57369c-3.48258,1.37834 -6.49523,1.67835 -7.91975,-1.58227z" fill="#ced63d" stroke="none" stroke-width="0" stroke-linecap="butt"/><path d="M17.48869,26.71017c0.45483,-1.68792 1.82748,-6.78197 2.41596,-8.96591c0.16848,-0.62523 0.78316,-1.01195 1.34243,-1.01195c1.55221,0 8.97367,0 12.39433,0c1.05836,0 1.14816,1.02473 0.69633,1.81545c-0.8515,1.49013 -3.68425,6.44743 -3.68425,6.44743c0,0 2.82763,-0.02185 3.8733,-0.02591c1.22801,-0.00476 1.92468,1.36137 0.73463,2.28623c-1.58049,1.22828 -8.01136,6.41272 -11.78199,9.45678c-1.65133,1.33314 -2.17821,-0.42195 -1.83129,-1.93442c0.30191,-1.31619 0.88666,-3.86545 1.17332,-5.11516c0.10228,-0.44589 -0.14961,-0.72034 -0.46343,-0.71437c-0.50114,0.00952 -2.06728,0.03929 -3.40087,0.06463c-1.13394,0.02155 -1.75197,-1.25076 -1.46848,-2.30279z" fill="#2c5345" stroke="none" stroke-width="0" stroke-linecap="butt"/><path d="M18.24731,28.24127c0.42749,-1.58645 1.71763,-6.37429 2.27073,-8.42694c0.15835,-0.58765 0.73608,-0.95112 1.26174,-0.95112c1.4589,0 8.43425,0 11.64927,0c0.99475,0 1.07914,0.96313 0.65447,1.70632c-0.80031,1.40055 -3.46278,6.05986 -3.46278,6.05986c0,0 2.65766,-0.02054 3.64047,-0.02435c1.1542,-0.00448 1.80899,1.27954 0.69047,2.14879c-1.48549,1.15444 -7.52978,6.02723 -11.07374,8.8883c-1.55206,1.25299 -2.04727,-0.39659 -1.7212,-1.81814c0.28376,-1.23707 0.83336,-3.63308 1.10279,-4.80767c0.09613,-0.41908 -0.14062,-0.67704 -0.43557,-0.67143c-0.47102,0.00895 -1.94301,0.03693 -3.19643,0.06075c-1.06577,0.02026 -1.64665,-1.17557 -1.38021,-2.16436z" fill="#ffffff" stroke="none" stroke-width="0" stroke-linecap="butt"/><path d="M41.92332,19.83397c0,0 4.06484,9.55328 -3.39771,18.51401c-7.00358,8.4096 -18.79138,3.67506 -18.79138,3.67506" fill="none" stroke="#ced63d" stroke-width="3.5" stroke-linecap="round"/></g></g></g></svg>