<svg version="1.1" xmlns="http://www.w3.org/2000/svg" xmlns:xlink="http://www.w3.org/1999/xlink" width="34.43761" height="34.43761" viewBox="0,0,34.43761,34.43761"><g transform="translate(-222.33487,-162.70764)"><g data-paper-data="{&quot;isPaintingLayer&quot;:true}" fill-rule="nonzero" stroke="none" stroke-width="0" stroke-linecap="butt" stroke-linejoin="miter" stroke-miterlimit="10" stroke-dasharray="" stroke-dashoffset="0" style="mix-blend-mode: normal"><path d="M222.33488,192.71986c0,-7.54232 0,-22.44996 0,-26.3378c0,-1.82046 1.82312,-3.67442 3.62078,-3.67442c4.00587,0 19.87172,0 27.14242,0c2.24806,0 3.67441,2.07203 3.67441,4.04991c0,3.84399 0,17.5304 0,25.15769c0,3.12286 -1.97811,5.23001 -3.88898,5.23001c-3.82487,0 -17.76801,0 -25.4259,0c-3.06468,0 -5.12273,-1.74897 -5.12273,-4.42539z" fill="#ddded7"/><g fill="#babab5"><path d="M225.25003,187.59167c0,-2.99154 2.42512,-5.41667 5.41667,-5.41667c2.99154,0 5.41667,2.42512 5.41667,5.41667c0,2.99154 -2.42512,5.41667 -5.41667,5.41667c-2.99154,0 -5.41667,-2.42512 -5.41667,-5.41667z"/><path d="M224.75003,170.8c0,-2.53131 2.05203,-4.58333 4.58333,-4.58333c2.53131,0 4.58333,2.05203 4.58333,4.58333c0,2.53131 -2.05203,4.58333 -4.58333,4.58333c-2.53131,0 -4.58333,-2.05203 -4.58333,-4.58333z"/><path d="M248.62503,187.25834c0,-1.79493 1.45507,-3.25 3.25,-3.25c1.79493,0 3.25,1.45507 3.25,3.25c0,1.79493 -1.45507,3.25 -3.25,3.25c-1.79493,0 -3.25,-1.45507 -3.25,-3.25z"/><path d="M238.9167,178.05c0,-2.20914 1.79086,-4 4,-4c2.20914,0 4,1.79086 4,4c0,2.20914 -1.79086,4 -4,4c-2.20914,0 -4,-1.79086 -4,-4z"/><path d="M248.25003,167.46667c0,-1.61083 1.30584,-2.91667 2.91667,-2.91667c1.61083,0 2.91667,1.30584 2.91667,2.91667c0,1.61083 -1.30584,2.91667 -2.91667,2.91667c-1.61083,0 -2.91667,-1.30584 -2.91667,-2.91667z"/><path d="M222.33488,192.71986c0,-0.26806 8.79036,1.68763 17.10097,1.64141c8.88874,-0.04943 17.33664,-2.08304 17.33664,-1.82103c0,3.12286 -1.97811,4.60501 -3.88898,4.60501c-3.82487,0 -17.76801,0 -25.4259,0c-3.06468,0 -5.12273,-1.74897 -5.12273,-4.42539z"/></g></g></g></svg>