<svg version="1.1" xmlns="http://www.w3.org/2000/svg" xmlns:xlink="http://www.w3.org/1999/xlink" width="22.18225" height="12.83752" viewBox="0,0,22.18225,12.83752"><g transform="translate(-229.20719,-156.30703)"><g data-paper-data="{&quot;isPaintingLayer&quot;:true}" fill-rule="nonzero" stroke-linejoin="miter" stroke-miterlimit="10" stroke-dasharray="" stroke-dashoffset="0" style="mix-blend-mode: normal"><path d="M251.29891,164.32661c0,3.75253 -3.74055,4.81795 -11.27572,4.81795c-7.53517,0 -10.59919,-1.1817 -10.59919,-4.93422c0,-2.59035 0.15535,-5.33453 3.63807,-6.13768c1.56256,-0.36034 4.60241,1.70769 6.93611,1.70769c2.21433,0 3.44942,-4.49334 6.70109,-3.25858c3.70921,1.40849 4.59963,5.15505 4.59963,7.80484z" fill="#fa992b" stroke="none" stroke-width="0" stroke-linecap="butt"/><path d="M242.78603,164.28412l-1.2931,-4.16688" fill="none" stroke="#fa8500" stroke-width="1" stroke-linecap="round"/><path d="M229.71137,163.7204c0,0 -0.20983,-4.4155 2.34297,-5.49875c2.04185,-0.86645 6.70513,1.58025 8.34331,1.39001c1.45084,-0.16849 3.67884,-2.95965 5.69259,-2.70269c3.30245,0.42141 4.7992,4.35196 4.7992,4.35196" fill="none" stroke="#000000" stroke-width="1" stroke-linecap="round"/><path d="M233.8421,163.97923l-0.32328,-3.45546" fill="none" stroke="#fa8500" stroke-width="1" stroke-linecap="round"/><path d="M236.99583,161.34358l1.39367,2.08005" fill="none" stroke="#fa8500" stroke-width="1" stroke-linecap="round"/><path d="M246.34204,163.47107l-1.07758,-3.96362" fill="none" stroke="#fa8500" stroke-width="1" stroke-linecap="round"/></g></g></svg>