<svg version="1.1" xmlns="http://www.w3.org/2000/svg" xmlns:xlink="http://www.w3.org/1999/xlink" width="441.46417" height="191.60107" viewBox="0,0,441.46417,191.60107"><g transform="translate(-18.91969,-87.75799)"><g data-paper-data="{&quot;isPaintingLayer&quot;:true}" fill-rule="nonzero" stroke-linejoin="miter" stroke-miterlimit="10" stroke-dasharray="" stroke-dashoffset="0" style="mix-blend-mode: normal"><g><path d="M285.7126,181.18609c0,-4.14213 3.35787,-7.5 7.5,-7.5c4.14213,0 7.5,3.35787 7.5,7.5c0,4.14213 -3.35787,7.5 -7.5,7.5c-4.14213,0 -7.5,-3.35787 -7.5,-7.5z" fill="#ffffff" stroke="none" stroke-width="0.5" stroke-linecap="butt"/><path d="M181.87927,142.18608c0,-4.14213 3.35787,-7.5 7.5,-7.5c4.14213,0 7.5,3.35787 7.5,7.5c0,4.14213 -3.35787,7.5 -7.5,7.5c-4.14213,0 -7.5,-3.35787 -7.5,-7.5z" fill="#ffffff" stroke="none" stroke-width="0.5" stroke-linecap="butt"/><g fill="none" stroke="#ffffff" stroke-width="20" stroke-linecap="round"><path d="M272.52214,200.56706l11.57143,12.42858"/><path d="M169.63521,167.88251l0.28571,-4.14285"/><path d="M161.3087,172.3999l15.93874,0.83256"/><path d="M321.87244,215.10746l-15.93874,-0.83256"/><path d="M127.56979,173.56706c0,0 5.15738,-29.63462 12.57143,-29.42857c6.52469,0.18133 12.28571,29.71428 12.28571,29.71428"/><path d="M132.71257,161.7099l13.28572,-0.14286"/><path d="M159.85548,150.28134l0.14286,22"/><path d="M162.71257,153.85278c0,0 9.6054,-5.36959 13.78416,0.86048c3.94669,5.88407 1.64441,18.56809 1.64441,18.56809"/><path d="M189.99836,173.42419v-21.42857"/><path d="M202.1412,174.13849v-23.85714"/><path d="M202.71264,154.56705c0,0 9.74888,-6.57038 13.70246,-0.05048c3.45708,5.70112 2.4404,18.90762 2.4404,18.90762"/><path d="M219.56978,154.56705c0,0 9.74888,-6.57038 13.70245,-0.05048c3.45708,5.70112 2.4404,18.90762 2.4404,18.90762"/><path d="M246.42693,152.7099c0,0 9.82884,-4.84887 14.17316,1.32215c4.79584,6.81238 1.11255,21.39214 1.11255,21.39214"/><path d="M260.28406,166.85276c0,0 -0.02905,2.39189 -1.77422,4.33166c-1.85001,2.0563 -5.48708,3.65759 -7.9124,3.29415c-3.83917,-0.57531 -5.74469,-3.2228 -5.72204,-4.19677c0.02101,-0.90318 -0.80808,-5.25919 3.38339,-7.17124c4.55883,-2.07963 12.59669,-0.68636 12.59669,-0.68636"/><path d="M272.4269,173.28135v-32.42857"/><path d="M190.23644,184.56706c0,0 -15.50347,-3.11696 -16.07914,5.40693c-0.20964,3.10423 2.36822,5.6518 5.97571,7.66529c5.09554,2.84404 11.53451,5.19119 8.90852,11.46868c-3.18757,7.61998 -15.23367,3.45911 -15.23367,3.45911"/><path d="M208.09358,191.42422h-12.57143"/><path d="M208.52215,214.42422c0,0 -7.51662,-0.32711 -8.37622,-12.04599c-0.37855,-5.16085 1.37622,-17.6683 1.37622,-17.6683"/><path d="M218.23644,193.13849c0,0 9.82884,-4.84887 14.17316,1.32215c4.79584,6.81238 1.11255,21.39214 1.11255,21.39214"/><path d="M232.09356,207.28136c0,0 -0.02904,2.39189 -1.77421,4.33166c-1.85001,2.0563 -5.48708,3.65758 -7.9124,3.29414c-3.83917,-0.57531 -5.74469,-3.2228 -5.72204,-4.19677c0.02101,-0.90318 -0.80808,-5.25919 3.38339,-7.17124c4.55883,-2.07963 12.59669,-0.68636 12.59669,-0.68636"/><path d="M257.95072,211.70994c0,0 -14.26483,5.30103 -13.85715,-9c0.41488,-14.55363 13.85715,-10.28572 13.85715,-10.28572"/><path d="M267.09355,180.28136v33.28571"/><path d="M270.9507,200.70992l11.14285,-10.14286"/><path d="M292.95071,213.13849v-22.28572"/><path d="M305.33168,213.94803l-0.14286,-22"/><path d="M308.04595,195.51946c0,0 9.6054,-5.36959 13.78416,0.86048c3.94669,5.88407 1.64441,18.56809 1.64441,18.56809"/><path d="M348.47453,211.99565c0,0 -15.12197,5.01531 -14.71429,-9.28572c0.27202,-15.98219 14.71429,-7.57143 14.71429,-7.57143"/><path d="M351.19657,188.94024c0,0 3.85225,23.28468 -2.05777,32.9816c-4.13097,6.77792 -14.51365,1.30411 -14.51365,1.30411"/><path d="M282.85929,199.08355h2.16667"/></g><path d="M203.50001,180.10002l47.33334,7.33334" fill="none" stroke="#ffffff" stroke-width="20" stroke-linecap="round"/><path d="M260.50002,204.10002l-12.33334,-4.33333" fill="none" stroke="#ffffff" stroke-width="20" stroke-linecap="round"/></g><g><g><path d="M132.71258,161.70992l13.28572,-0.14286" fill="none" stroke="#ffdede" stroke-width="8" stroke-linecap="round"/><path d="M127.56979,173.56707c0,0 5.15738,-29.63462 12.57143,-29.42857c6.52469,0.18133 12.28571,29.71428 12.28571,29.71428" fill="none" stroke="#ffdede" stroke-width="8" stroke-linecap="round"/><path d="M159.99835,172.28135l-0.14286,-22" fill="none" stroke="#ffdede" stroke-width="8" stroke-linecap="round"/><path d="M162.71257,153.85278c0,0 9.6054,-5.36959 13.78416,0.86048c3.94669,5.88407 1.64441,18.56809 1.64441,18.56809" fill="none" stroke="#ffdede" stroke-width="8" stroke-linecap="round"/><path d="M189.99836,151.99564v21.42857" fill="none" stroke="#ffdede" stroke-width="8" stroke-linecap="round"/><path d="M202.1412,150.28135v23.85714" fill="none" stroke="#ffdede" stroke-width="8" stroke-linecap="round"/><path d="M202.71264,154.56707c0,0 9.74888,-6.57038 13.70246,-0.05048c3.45708,5.70112 2.4404,18.90762 2.4404,18.90762" fill="none" stroke="#ffdede" stroke-width="8" stroke-linecap="round"/><path d="M219.56978,154.56707c0,0 9.74888,-6.57038 13.70245,-0.05048c3.45708,5.70112 2.4404,18.90762 2.4404,18.90762" fill="none" stroke="#ffdede" stroke-width="8" stroke-linecap="round"/><path d="M260.28406,166.85278c0,0 -0.02905,2.39189 -1.77422,4.33166c-1.85001,2.0563 -5.48708,3.65759 -7.9124,3.29415c-3.83917,-0.57531 -5.74469,-3.2228 -5.72204,-4.19677c0.02101,-0.90318 -0.80808,-5.25919 3.38339,-7.17124c4.55883,-2.07963 12.59669,-0.68636 12.59669,-0.68636" fill="none" stroke="#ffdede" stroke-width="8" stroke-linecap="round"/><path d="M272.4269,173.28136v-32.42857" fill="none" stroke="#ffdede" stroke-width="8" stroke-linecap="round"/><path d="M246.42693,152.7099c0,0 9.82884,-4.84887 14.17316,1.32215c4.79584,6.81238 1.11255,21.39214 1.11255,21.39214" fill="none" stroke="#ffdede" stroke-width="8" stroke-linecap="round"/><path d="M184.54592,141.96942c0,-2.62336 2.12664,-4.75 4.75,-4.75c2.62336,0 4.75,2.12664 4.75,4.75c0,2.62336 -2.12664,4.75 -4.75,4.75c-2.62336,0 -4.75,-2.12664 -4.75,-4.75z" fill="#ffdede" stroke="none" stroke-width="0.5" stroke-linecap="butt"/></g><g fill="none" stroke="#fff15b" stroke-width="8" stroke-linecap="round"><path d="M190.23644,184.56707c0,0 -15.50347,-3.11696 -16.07914,5.40693c-0.20964,3.10423 2.36822,5.6518 5.97571,7.66529c5.09554,2.84404 11.53451,5.19119 8.90852,11.46868c-3.18757,7.61998 -15.23367,3.45911 -15.23367,3.45911"/><path d="M208.09358,191.42422h-12.57143"/><path d="M208.52215,214.42422c0,0 -7.51662,-0.32711 -8.37622,-12.04599c-0.37855,-5.16085 1.37622,-17.6683 1.37622,-17.6683"/><path d="M232.09356,207.28136c0,0 -0.02904,2.39189 -1.77421,4.33166c-1.85001,2.0563 -5.48708,3.65758 -7.9124,3.29414c-3.83917,-0.57531 -5.74469,-3.2228 -5.72204,-4.19677c0.02101,-0.90318 -0.80808,-5.25919 3.38339,-7.17124c4.55883,-2.07963 12.59669,-0.68636 12.59669,-0.68636"/><path d="M257.95072,211.70994c0,0 -14.26483,5.30103 -13.85715,-9c0.41488,-14.55363 13.85715,-10.28572 13.85715,-10.28572"/><path d="M282.62926,212.96943l-11.67854,-12.25951l11.14285,-10.14286"/><path d="M267.09358,180.28136v33.28571"/><path d="M218.23644,193.13849c0,0 9.82884,-4.84887 14.17316,1.32215c4.79584,6.81238 1.11255,21.39214 1.11255,21.39214"/></g><g><path d="M305.33168,213.94803l-0.14286,-22" fill="none" stroke="#d2ffc6" stroke-width="8" stroke-linecap="round"/><path d="M292.95071,213.13851v-22.28572" fill="none" stroke="#d2ffc6" stroke-width="8" stroke-linecap="round"/><path d="M308.04595,195.51946c0,0 9.6054,-5.36959 13.78416,0.86048c3.94669,5.88407 1.64441,18.56809 1.64441,18.56809" fill="none" stroke="#d2ffc6" stroke-width="8" stroke-linecap="round"/><path d="M348.47453,211.99565c0,0 -15.12197,5.01531 -14.71429,-9.28572c0.27202,-15.9822 14.71429,-7.57143 14.71429,-7.57143" fill="none" stroke="#d2ffc6" stroke-width="8" stroke-linecap="round"/><path d="M351.19657,188.94024c0,0 3.85225,23.28468 -2.05777,32.9816c-4.13097,6.77792 -14.51365,1.30411 -14.51365,1.30411" fill="none" stroke="#d2ffc6" stroke-width="8" stroke-linecap="round"/><path d="M288.37926,180.96942c0,-2.62336 2.12664,-4.75 4.75,-4.75c2.62336,0 4.75,2.12664 4.75,4.75c0,2.62336 -2.12664,4.75 -4.75,4.75c-2.62336,0 -4.75,-2.12664 -4.75,-4.75z" fill="#d2ffc6" stroke="none" stroke-width="0.5" stroke-linecap="butt"/></g></g><path d="M18.91969,279.35907v-191.60107h441.46417v191.60107z" fill="none" stroke="none" stroke-width="NaN" stroke-linecap="butt"/><path d="M285.11197,179.18378c0,0 1.62131,-6.16779 8.28852,-5.99256c7.13631,0.18756 8.42387,8.78094 8.42387,8.78094c0,0 1.7602,-1.27542 4.19848,-0.83446c2.83823,0.51329 4.03606,2.92255 4.03606,2.92255c0,0 4.26518,-0.71433 8.83051,-0.05958c5.63549,0.80822 9.36702,3.86465 9.36702,3.86465c0,0 4.5124,-2.77496 7.18899,-3.5834c2.52343,-0.76218 8.43815,-1.13667 8.43815,-1.13667c0,0 2.8743,-4.10903 8.03341,-3.45566c5.71792,0.72414 8.13459,4.5402 8.13459,4.5402" fill="none" stroke="#65d969" stroke-width="2.5" stroke-linecap="round"/></g></g></svg>