<svg version="1.1" xmlns="http://www.w3.org/2000/svg" xmlns:xlink="http://www.w3.org/1999/xlink" width="34.43761" height="34.5848" viewBox="0,0,34.43761,34.5848"><g transform="translate(-222.33492,-162.70764)"><g data-paper-data="{&quot;isPaintingLayer&quot;:true}" fill-rule="nonzero" stroke-linejoin="miter" stroke-miterlimit="10" stroke-dasharray="" stroke-dashoffset="0" style="mix-blend-mode: normal"><path d="M222.33493,192.71986c0,-7.54232 0,-22.44996 0,-26.3378c0,-1.82046 1.82312,-3.67442 3.62078,-3.67442c4.00587,0 19.87172,0 27.14242,0c2.24806,0 3.67441,2.07203 3.67441,4.04991c0,3.84399 0,17.5304 0,25.15769c0,3.12286 -1.97811,5.23001 -3.88898,5.23001c-3.82487,0 -17.76801,0 -25.4259,0c-3.06468,0 -5.12273,-1.74897 -5.12273,-4.42539z" fill="#fafafa" stroke="none" stroke-width="0" stroke-linecap="butt"/><path d="M256.68048,192.9712c0,0.8873 -0.57401,3.20122 -2.86023,4.05903c-0.76594,0.28739 -27.21921,0.44241 -28.62951,-0.09494c-2.49778,-0.95171 -2.84058,-2.89114 -2.84058,-3.90278c0,-3.06409 7.46002,-7.26454 16.88929,-7.26454c9.42927,0 17.44104,4.13915 17.44104,7.20324z" fill="#ededed" stroke="none" stroke-width="0" stroke-linecap="butt"/><path d="M250.95243,180.75303c0,0 -0.04136,0.80268 -1.56977,0.63505c-1.37425,-0.15072 -1.16308,-2.17605 -1.6487,-2.04022c-0.50593,0.14152 -0.42919,1.66868 -1.28728,1.93885c-1.12721,0.35489 -2.03847,-0.26389 -2.03847,-0.26389" fill="none" stroke="#6d4006" stroke-width="1" stroke-linecap="round"/></g></g></svg>