<svg version="1.1" xmlns="http://www.w3.org/2000/svg" xmlns:xlink="http://www.w3.org/1999/xlink" width="12.25941" height="11.77251" viewBox="0,0,12.25941,11.77251"><g transform="translate(-215.74309,-187.65266)"><g data-paper-data="{&quot;isPaintingLayer&quot;:true}" fill="#f6f6f6" fill-rule="nonzero" stroke="none" stroke-width="0" stroke-linecap="butt" stroke-linejoin="miter" stroke-miterlimit="10" stroke-dasharray="" stroke-dashoffset="0" style="mix-blend-mode: normal"><path d="M227.23373,193.58218c0,0.11056 0.5408,0.29807 0.53424,0.40697c-0.00883,0.14648 -0.56764,0.21365 -0.58794,0.35674c-0.01709,0.12046 0.37635,0.47283 0.3513,0.59059c-0.02454,0.11538 -0.46742,-0.00379 -0.49933,0.10874c-0.0527,0.18583 0.19567,0.67853 0.12386,0.85564c-0.05085,0.12541 -0.41727,-0.06244 -0.47717,0.05809c-0.0794,0.15976 0.17029,0.62599 0.07587,0.77635c-0.10944,0.17429 -0.56548,0.03101 -0.69364,0.19126c-0.10258,0.12828 0.0223,0.87368 -0.09136,0.9921c-0.07174,0.07475 -0.37881,-0.47442 -0.4547,-0.40385c-0.05457,0.05074 -0.00654,0.59268 -0.06316,0.64117c-0.13405,0.11481 -0.37739,-0.2691 -0.52225,-0.16756c-0.10021,0.07024 0.03031,0.49996 -0.07467,0.56346c-0.10627,0.06429 -0.44809,-0.23771 -0.55889,-0.18065c-0.107,0.0551 -0.1383,0.52133 -0.24921,0.56938c-0.10061,0.04359 -0.28051,-0.33035 -0.3841,-0.29279c-0.09556,0.03465 -0.19234,0.53309 -0.29024,0.56244c-0.21945,0.06577 -0.44455,-0.34841 -0.67429,-0.31072c-0.1703,0.02794 -0.43776,0.43656 -0.60561,0.44813c-0.11405,0.00786 -0.12632,-0.37681 -0.24741,-0.37681c-0.12291,0 -0.45578,0.46228 -0.58118,0.45419c-0.20972,-0.01355 -0.21166,-0.50464 -0.40707,-0.53987c-0.06918,-0.01247 -0.23944,0.46604 -0.30467,0.45096c-0.16348,-0.03781 -0.21458,-0.57606 -0.37908,-0.6297c-0.07707,-0.02513 -0.36066,0.31081 -0.43616,0.28234c-0.09147,-0.03449 0.02553,-0.43415 -0.06349,-0.4734c-0.06782,-0.0299 -0.49767,0.45706 -0.56399,0.42448c-0.11456,-0.05627 0.13593,-0.63472 0.02613,-0.69871c-0.0602,-0.03509 -0.50833,0.44691 -0.56702,0.40959c-0.12121,-0.07708 0.14954,-0.6771 0.03517,-0.76335c-0.07922,-0.05974 -0.44175,0.34479 -0.51748,0.28087c-0.08249,-0.06963 0.12216,-0.60809 0.04402,-0.68247c-0.07117,-0.06775 -0.73645,0.1476 -0.80384,0.07607c-0.07581,-0.08045 0.44679,-0.44826 0.376,-0.53326c-0.07616,-0.09145 -0.61576,0.12547 -0.68583,0.02904c-0.08767,-0.12063 0.29595,-0.55597 0.21833,-0.68387c-0.046,-0.07581 -0.5825,0.00263 -0.6248,-0.07557c-0.07826,-0.14465 0.34222,-0.44874 0.27718,-0.60098c-0.03728,-0.08727 -0.59054,-0.27937 -0.62328,-0.36894c-0.05286,-0.14463 0.41853,-0.18851 0.37802,-0.33864c-0.03715,-0.13765 -0.87222,-0.38112 -0.8985,-0.5229c-0.02128,-0.11482 0.76432,-0.12728 0.75044,-0.24454c-0.01327,-0.11215 -0.56724,-0.09581 -0.57351,-0.20996c-0.00547,-0.09948 0.53589,-0.32924 0.53589,-0.43009c0,-0.12692 -0.43431,-0.25264 -0.42303,-0.37706c0.00799,-0.08813 0.45902,-0.17559 0.47173,-0.26237c0.01644,-0.11218 -0.37808,-0.43048 -0.35523,-0.54023c0.02936,-0.14101 0.47791,-0.07267 0.51471,-0.20934c0.04144,-0.1539 -0.43464,-0.64177 -0.38629,-0.78965c0.05175,-0.15827 0.62882,0.02389 0.70154,-0.12686c0.05335,-0.1106 -0.4078,-0.55592 -0.34715,-0.66217c0.04275,-0.07489 0.6055,0.18818 0.65175,0.11556c0.07564,-0.11877 -0.31053,-0.54537 -0.22595,-0.65773c0.05996,-0.07965 0.58851,0.15329 0.65275,0.07703c0.08196,-0.0973 -0.14359,-0.68408 -0.05499,-0.7756c0.07184,-0.07419 0.45674,0.34587 0.53272,0.27566c0.06969,-0.06439 -0.11803,-0.47132 -0.04501,-0.53893c0.06271,-0.05807 0.38574,0.22252 0.4508,0.17325c0.07949,-0.0602 0.00523,-0.45509 0.08807,-0.51089c0.10004,-0.06739 0.35793,0.20533 0.46259,0.14463c0.08563,-0.04967 0.0432,-0.43388 0.13173,-0.47888c0.06206,-0.03154 0.25436,0.27492 0.31778,0.24574c0.0977,-0.04496 0.19698,-0.39801 0.29772,-0.43719c0.14414,-0.05605 0.29129,0.20485 0.44114,0.16115c0.08592,-0.02505 0.30228,-0.41078 0.38991,-0.43161c0.14936,-0.03551 0.17158,0.29796 0.32547,0.27517c0.09775,-0.01447 0.19635,-0.25952 0.29574,-0.26866c0.16469,-0.01516 0.33153,0.21029 0.50018,0.21029c0.11759,0 0.31202,-0.3849 0.42774,-0.37748c0.08523,0.00547 0.09219,0.40158 0.17629,0.41096c0.11269,0.01257 0.3798,-0.59325 0.49028,-0.57384c0.07533,0.01324 -0.00534,0.6499 0.06887,0.66623c0.12554,0.02762 0.35308,-0.32905 0.47517,-0.29284c0.1133,0.0336 0.12139,0.45949 0.23144,0.50021c0.09033,0.03342 0.20542,-0.18992 0.29339,-0.15187c0.09844,0.04258 0.16945,0.34711 0.26474,0.39529c0.0839,0.04242 0.50647,-0.35352 0.59181,-0.30692c0.16235,0.08866 -0.0135,0.62526 0.13106,0.72832c0.0893,0.06367 0.4615,-0.25866 0.54644,-0.18979c0.07207,0.05844 -0.14249,0.50739 -0.0737,0.56942c0.06376,0.0575 0.30746,-0.27098 0.36829,-0.20866c0.04667,0.04781 -0.08891,0.48555 -0.044,0.53561c0.06474,0.0722 0.5422,-0.29402 0.60315,-0.21842c0.09951,0.12342 -0.22071,0.69085 -0.13178,0.81801c0.03717,0.05316 0.38433,-0.12627 0.41958,-0.07189c0.05634,0.0869 -0.20073,0.40855 -0.14943,0.49849c0.0499,0.08749 0.61559,-0.31592 0.66056,-0.22565c0.03437,0.069 -0.45094,0.63111 -0.41954,0.70168c0.04427,0.09949 0.57787,-0.29179 0.61608,-0.18928c0.04307,0.11556 -0.41008,0.72531 -0.37498,0.84456c0.0336,0.11416 0.95228,-0.22618 0.98537,-0.1229c0.02711,0.08463 -0.82986,0.61185 -0.81375,0.71011c0.01988,0.12134 0.54933,0.22754 0.55566,0.36257c0.00868,0.1849 -0.51005,0.40117 -0.51005,0.57678z"/></g></g></svg>