<svg version="1.1" xmlns="http://www.w3.org/2000/svg" xmlns:xlink="http://www.w3.org/1999/xlink" width="83.2" height="40.4" viewBox="0,0,83.2,40.4"><g transform="translate(-198.3,-158.86)"><g data-paper-data="{&quot;isPaintingLayer&quot;:true}" fill-rule="nonzero" stroke-linejoin="miter" stroke-miterlimit="10" stroke-dasharray="" stroke-dashoffset="0" style="mix-blend-mode: normal"><path d="M201.39446,192.23708c0,-0.78483 2.9721,-1.53419 2.9721,-2.44136c0,-0.84486 -2.9721,-1.84069 -2.9721,-2.7598c0,-0.96981 0.74838,-2.28669 0.94809,-3.98838c0.16928,-1.44245 -0.20507,-3.19127 -0.20507,-4.92789c0,-1.16828 -0.57152,-2.46809 -0.634,-3.61888c-0.20414,-3.76054 -0.10903,-6.95709 -0.10903,-7.42031c0,-2.11222 2.4855,-4.37875 5.23367,-4.37875c2.65649,0 8.54394,0.83124 15.92186,0.82379c2.52468,-0.00255 5.13018,-0.94675 7.96755,-0.91236c3.369,0.04085 7.30092,0.59665 10.82054,0.59262c4.45265,-0.00509 8.92494,-0.63858 13.16165,-0.62127c1.75168,0.00716 4.19956,0.64794 5.83831,0.64794c1.9108,0 4.05017,0.45015 5.75069,0.35178c2.66351,-0.15408 4.71314,-0.8825 6.6684,-0.8825c3.65755,0 5.87055,2.12352 5.87055,5.12177c0,0.75778 -3.29053,1.57706 -3.29053,2.44136c0,0.81385 3.29053,1.66761 3.29053,2.54751c0,2.00608 0,4.14801 0,6.26262c0,0.35485 -2.54751,0.60278 -2.54751,0.95531c0,0.46321 2.54751,1.0299 2.54751,1.48605c0,4.48109 0,8.53669 0,10.50846c0,2.38253 -2.06261,5.05807 -5.65826,5.05807c-1.34453,0 -3.12772,0.4331 -4.86539,0.21639c-1.66836,-0.20807 -3.27817,-1.06494 -5.20133,-1.12796c-2.9779,-0.09758 -6.19808,0.45171 -9.46483,0.44543c-2.27682,-0.00438 -4.09349,0.5135 -6.47408,0.48748c-3.47132,-0.03795 -7.01316,-0.48025 -10.50955,-0.45979c-3.49625,0.02046 -7.14582,0.77489 -10.40137,0.77141c-2.27184,-0.00243 -4.97543,-0.32426 -7.00463,-0.32884c-1.18701,-0.00269 -2.74726,-0.32256 -3.82229,-0.32256c-4.56226,0 -7.83774,0.31844 -9.55315,0.31844c-2.29619,0 -4.27837,-1.93769 -4.27837,-4.84578z" fill="#bd793e" stroke="#5b3f2f" stroke-width="2" stroke-linecap="butt"/><path d="M268.82536,173.34342c0,0 -2.82275,0.6236 -7.41437,0.30721c-2.05913,-0.14189 -4.5906,-1.40559 -7.18113,-1.38632c-2.91128,0.02165 -6.08149,1.087 -9.33835,1.16541c-3.43901,0.08281 -7.10973,1.01498 -10.51153,1.02462c-2.44301,0.00691 -5.53506,-0.8653 -7.73408,-0.86647c-2.44991,-0.00131 -5.55351,-0.57931 -7.4394,-0.56428c-2.2218,0.01771 -4.96686,0.90362 -5.98842,0.90362c-2.00799,0 -4.37853,-0.5838 -4.37853,-0.5838" fill="none" stroke="#6b4626" stroke-width="1.5" stroke-linecap="round"/><path d="M211.17482,186.65656c0,0 2.82275,-0.62358 7.41439,-0.3072c2.05913,0.14188 4.59061,1.40559 7.18113,1.38632c2.91129,-0.02166 6.08149,-1.08701 9.33836,-1.16542c3.439,-0.08281 7.10972,-1.01499 10.51152,-1.02462c2.443,-0.00692 5.53508,0.86529 7.73408,0.86647c2.44991,0.0013 5.55351,0.57931 7.4394,0.56428c2.2218,-0.01771 4.96685,-0.90362 5.98841,-0.90362c2.00799,0 4.37853,0.5838 4.37853,0.5838" data-paper-data="{&quot;index&quot;:null}" fill="none" stroke="#6b4626" stroke-width="1.5" stroke-linecap="round"/><text transform="translate(219.02902,187.91856) scale(0.65988,0.65988)" font-size="40" xml:space="preserve" fill="#5b3f2f" fill-rule="nonzero" stroke="#5b3f2f" stroke-width="2" stroke-linecap="butt" stroke-linejoin="miter" stroke-miterlimit="10" stroke-dasharray="" stroke-dashoffset="0" font-family="Sans Serif" font-weight="normal" text-anchor="start" style="mix-blend-mode: normal"><tspan x="0" dy="0">Yes</tspan></text><path d="M198.3,199.26v-40.4h83.2v40.4z" fill="none" stroke="none" stroke-width="none" stroke-linecap="butt"/></g></g></svg>