<svg version="1.1" xmlns="http://www.w3.org/2000/svg" xmlns:xlink="http://www.w3.org/1999/xlink" width="230.28107" height="124.63892" viewBox="0,0,230.28107,124.63892"><g transform="translate(-124.82693,-117.67995)"><g data-paper-data="{&quot;isPaintingLayer&quot;:true}" fill-rule="nonzero" stroke-linejoin="miter" stroke-miterlimit="10" stroke-dasharray="" stroke-dashoffset="0" style="mix-blend-mode: normal"><path d="M353.60792,142.1948c0,2.74081 -8.74625,5.35774 -8.74625,8.52579c0,2.95043 8.74625,6.4281 8.74625,9.63786c0,3.38682 -2.20232,7.98563 -2.79002,13.92833c-0.49815,5.03736 0.60346,6.21518 0.60346,12.27984c0,4.07991 1.68186,8.61912 1.86573,12.63795c0.60075,13.13264 0.32086,24.29575 0.32086,25.91339c0,7.37636 -7.31429,15.29159 -15.40158,15.29159c-7.81749,0 -25.14301,-2.90289 -46.85467,-2.87688c-7.4296,0.00889 -15.09704,3.30628 -23.44681,3.18616c-9.91426,-0.14267 -21.48505,-2.08363 -31.84256,-2.06956c-13.10319,0.01777 -26.26422,2.23005 -38.73195,2.16962c-5.15482,-0.025 -12.3584,-2.26275 -17.18092,-2.26275c-5.62308,0 -11.91879,-1.57202 -16.92305,-1.22849c-7.83815,0.53808 -13.86977,3.0819 -19.62369,3.0819c-10.7634,0 -17.27579,-12.05529 -17.27579,-22.52586c0,-2.64633 9.68332,-5.50746 9.68332,-8.52578c0,-2.84213 -9.68332,-5.82368 -9.68332,-8.89648c0,-7.00568 0,-14.48577 0,-21.8705c0,-1.2392 7.49678,-2.10504 7.49678,-3.33617c0,-1.61765 -7.49678,-3.59664 -7.49678,-5.18961c0,-15.64898 0,-25.17257 0,-32.05845c0,-8.32031 6.06984,-17.66395 16.65106,-17.66395c3.95668,0 9.2042,-1.51249 14.31783,-0.75569c4.90963,0.72661 9.64697,3.71901 15.3064,3.93907c8.76333,0.34076 18.23963,-1.57748 27.853,-1.55555c6.7002,0.01529 12.04627,-1.79326 19.05184,-1.70238c10.21536,0.13252 20.63825,1.67713 30.92738,1.6057c10.28872,-0.07144 21.02864,-2.70611 30.60903,-2.69395c6.68553,0.00848 14.64164,1.13238 20.61313,1.1484c3.49313,0.00938 8.08461,1.12647 11.24819,1.12647c13.42576,0 23.0648,-1.11208 28.1129,-1.11208c6.75721,0 12.59033,11.69632 12.59033,21.85202z" data-paper-data="{&quot;index&quot;:null}" fill="#bd793e" stroke="#5b3f2f" stroke-width="3" stroke-linecap="butt"/><path d="M334.98879,145.98675c0,0 -9.82716,-0.86737 -25.02172,-0.35434c-10.68881,0.3609 -24.03373,2.17391 -38.48225,2.11695c-11.42224,-0.04503 -24.31138,-2.2503 -36.10004,-2.25201c-21.32433,-0.00308 -41.71981,1.48308 -56.76149,0.75636c-8.1898,-0.39568 -16.37814,-1.13687 -20.22508,-1.13687c-7.74485,0 -14.78837,0.8699 -14.78837,0.8699" fill="none" stroke="#bd6b24" stroke-width="3" stroke-linecap="round"/><path d="M334.55384,179.0431c0,0 -15.47528,1.52233 -29.1418,1.52233c-7.65758,0 -21.73072,-2.63122 -37.39692,-1.95449c-17.26281,0.7457 -36.57414,4.51332 -56.55527,2.82906c-24.28091,-2.0467 -46.71809,-0.48023 -59.36782,-0.50829c-6.5686,-0.01456 -10.65696,-1.88861 -10.65696,-1.88861" fill="none" stroke="#bd6b24" stroke-width="3" stroke-linecap="round"/><path d="M334.55383,206.4451c0,0 -8.65308,1.76307 -24.14506,1.87256c-6.21505,0.04392 -14.26068,-1.82056 -22.16761,-1.64673c-8.33909,0.18333 -19.27032,2.2356 -28.50214,2.17219c-7.63099,-0.05243 -16.69509,-2.93636 -24.35126,-2.99718c-15.75382,-0.12513 -31.07127,2.05632 -43.93728,1.13793c-16.21036,-1.15711 -29.48831,1.85347 -35.22705,1.85347c-6.33773,0 -13.04857,-2.39224 -13.04857,-2.39224" fill="none" stroke="#bd6b24" stroke-width="3" stroke-linecap="round"/><g><g stroke-width="7"><path d="M180.37854,152.20848c0,-2.27292 1.84256,-4.1155 4.1155,-4.1155c2.27292,0 4.11551,1.84257 4.11551,4.1155c0,2.27292 -1.84257,4.11551 -4.11551,4.11551c-2.27292,0 -4.1155,-1.84257 -4.1155,-4.11551z" fill="#ffffff" stroke="none" stroke-linecap="butt"/><g fill="none" stroke="#ffffff" stroke-linecap="round"><path d=""/><path d=""/><path d="M150.57713,169.42828c0,0 2.83002,-16.2615 6.89837,-16.14843c3.58032,0.0995 6.74158,16.3052 6.74158,16.3052"/><path d="M153.39914,162.92185l7.29031,-0.07839"/><path d="M168.29337,156.65063l0.07839,12.07212"/><path d="M169.86114,158.61038c0,0 5.27079,-2.94648 7.56382,0.47217c2.16568,3.22879 0.90234,10.18893 0.90234,10.18893"/><path d="M184.83376,157.59131v11.75856"/><path d="M191.49693,169.74182v-13.0912"/><path d="M191.8105,159.00232c0,0 5.34953,-3.60538 7.51899,-0.0277c1.89702,3.12839 1.33913,10.37524 1.33913,10.37524"/><path d="M201.06058,159.00232c0,0 5.34954,-3.60538 7.51899,-0.0277c1.89702,3.12839 1.33912,10.37524 1.33912,10.37524"/><path d="M215.79798,157.98325c0,0 5.39341,-2.66073 7.77728,0.72551c2.63163,3.73818 0.6105,11.73858 0.6105,11.73858"/><path d="M223.40184,165.7439c0,0 -0.01594,1.3125 -0.97357,2.37692c-1.01516,1.12835 -3.01094,2.00704 -4.3418,1.80761c-2.10668,-0.31569 -3.1523,-1.76845 -3.13987,-2.30291c0.01153,-0.49561 -0.44343,-2.88589 1.85657,-3.9351c2.50158,-1.14116 6.91223,-0.37663 6.91223,-0.37663"/><path d="M230.06503,151.47686v17.79463"/><path d=""/><path d=""/><path d=""/><path d=""/><path d=""/><path d=""/><path d="M227.13844,173.11261"/><path d=""/><path d=""/><path d=""/><path d=""/><path d=""/><path d=""/><path d=""/></g><path d="" fill="none" stroke="#ffffff" stroke-linecap="round"/><path d="" fill="none" stroke="#ffffff" stroke-linecap="round"/></g><g stroke-width="7"><path d="M297.96588,151.86525c0,-2.27292 1.84257,-4.1155 4.1155,-4.1155c2.27292,0 4.11551,1.84257 4.11551,4.1155c0,2.27292 -1.84258,4.1155 -4.11551,4.1155c-2.27292,0 -4.1155,-1.84256 -4.1155,-4.1155z" fill="#ffffff" stroke="none" stroke-linecap="butt"/><g fill="none" stroke="#ffffff" stroke-linecap="round"><path d="M290.72784,162.50023l6.34962,6.81998"/><path d="M245.57495,153.72049c0,0 -8.50727,-1.71038 -8.82316,2.96696c-0.11504,1.70339 1.29953,3.10133 3.27907,4.2062c2.7961,1.56063 6.32937,2.84858 4.8884,6.29324c-1.74913,4.18134 -8.35922,1.89814 -8.35922,1.89814"/><path d="M255.37376,157.48324h-6.89837"/><path d="M255.60893,170.10411c0,0 -4.12463,-0.17949 -4.59631,-6.61003c-0.20772,-2.83193 0.75518,-9.69519 0.75518,-9.69519"/><path d="M260.93948,158.42393c0,0 5.39341,-2.66073 7.77728,0.72551c2.63164,3.73818 0.61049,11.73858 0.61049,11.73858"/><path d="M268.54333,166.18459c0,0 -0.01594,1.3125 -0.97356,2.37692c-1.01516,1.12835 -3.01094,2.00703 -4.3418,1.8076c-2.10668,-0.31569 -3.15231,-1.76845 -3.13987,-2.3029c0.01153,-0.49561 -0.44342,-2.8859 1.85658,-3.93511c2.50158,-1.14116 6.91223,-0.37663 6.91223,-0.37663"/><path d="M282.73201,168.6147c0,0 -7.82758,2.90886 -7.60387,-4.93859c0.22766,-7.98605 7.60387,-5.64411 7.60387,-5.64411"/><path d="M287.74899,169.63376v-18.26497"/><path d="M289.86553,162.57862l6.11444,-5.56573"/><path d="M301.93767,169.3986v-12.22891"/><path d="M308.65313,157.77068l0.07839,12.07212"/><path d="M310.22092,159.73044c0,0 5.2708,-2.94647 7.56383,0.47218c2.16568,3.22879 0.90234,10.18893 0.90234,10.18893"/><path d="M332.40543,168.77147c0,0 -8.29793,2.75208 -8.07423,-5.09537c0.14927,-8.76996 8.07423,-4.1547 8.07423,-4.1547"/><path d="M333.8991,156.1202c0,0 2.11387,12.77708 -1.12915,18.0981c-2.2668,3.71928 -7.96412,0.71561 -7.96412,0.71561"/><path d="M296.40017,161.68619h1.18893"/></g><path d="M277.36319,162.06106l6.76772,2.37783" fill="none" stroke="#ffffff" stroke-linecap="round"/></g><g><g fill="none" stroke="none" stroke-width="1" stroke-linecap="butt" font-family="sans-serif" font-weight="normal" font-size="12" text-anchor="start"/><g fill="none" stroke="#fff15b" stroke-width="3.5" stroke-linecap="round"><path d="M245.57495,153.7205c0,0 -8.50727,-1.71038 -8.82316,2.96696c-0.11504,1.70339 1.29953,3.10132 3.27907,4.2062c2.7961,1.56063 6.32937,2.84859 4.8884,6.29325c-1.74913,4.18134 -8.35922,1.89812 -8.35922,1.89812"/><path d="M255.37376,157.48324h-6.89837"/><path d="M255.60893,170.10411c0,0 -4.12463,-0.17949 -4.59631,-6.61003c-0.20772,-2.83193 0.75518,-9.69519 0.75518,-9.69519"/><path d="M268.54333,166.18459c0,0 -0.01594,1.3125 -0.97356,2.37692c-1.01516,1.12835 -3.01094,2.00703 -4.3418,1.8076c-2.10668,-0.31569 -3.15231,-1.76845 -3.13987,-2.3029c0.01153,-0.49561 -0.44342,-2.8859 1.85658,-3.93511c2.50158,-1.14116 6.91223,-0.37663 6.91223,-0.37663"/><path d="M282.73201,168.6147c0,0 -7.82758,2.90886 -7.60387,-4.93859c0.22766,-7.98605 7.60387,-5.64411 7.60387,-5.64411"/><path d="M296.27395,169.30582l-6.4084,-6.7272l6.11445,-5.56573"/><path d="M287.74901,151.36879v18.26498"/><path d="M260.93948,158.42393c0,0 5.39341,-2.66073 7.77728,0.72551c2.63164,3.73818 0.61049,11.73858 0.61049,11.73858"/></g><g stroke-width="3.5"><path d="M308.65313,157.77068l0.07839,12.07212" fill="none" stroke="#d2ffc6" stroke-linecap="round"/><path d="M301.93767,157.16969v12.22892" fill="none" stroke="#d2ffc6" stroke-linecap="round"/><path d="M310.22092,159.73044c0,0 5.2708,-2.94647 7.56383,0.47218c2.16568,3.22879 0.90234,10.18893 0.90234,10.18893" fill="none" stroke="#d2ffc6" stroke-linecap="round"/><path d="M332.40543,168.77147c0,0 -8.29793,2.75208 -8.07423,-5.09537c0.14927,-8.76997 8.07423,-4.1547 8.07423,-4.1547" fill="none" stroke="#d2ffc6" stroke-linecap="round"/><path d="M333.8991,156.1202c0,0 2.11387,12.77708 -1.12915,18.0981c-2.2668,3.71928 -7.96412,0.71561 -7.96412,0.71561" fill="none" stroke="#d2ffc6" stroke-linecap="round"/><path d="M299.42917,151.74636c0,-1.43953 1.16696,-2.60649 2.60649,-2.60649c1.43953,0 2.60648,1.16696 2.60648,2.60649c0,1.43953 -1.16695,2.60649 -2.60648,2.60649c-1.43953,0 -2.60649,-1.16696 -2.60649,-2.60649z" fill="#d2ffc6" stroke="none" stroke-linecap="butt"/></g></g><g stroke-width="3.5"><g><path d="M153.39914,162.92185l7.29032,-0.0784" fill="none" stroke="#ffdede" stroke-linecap="round"/><path d="M150.57713,169.42828c0,0 2.83002,-16.2615 6.89837,-16.14843c3.58032,0.0995 6.74158,16.3052 6.74158,16.3052" fill="none" stroke="#ffdede" stroke-linecap="round"/><path d="M168.29336,156.65062l0.0784,12.07213" fill="none" stroke="#ffdede" stroke-linecap="round"/><path d="M169.86114,158.61038c0,0 5.27079,-2.94648 7.56382,0.47217c2.16568,3.22879 0.90234,10.18893 0.90234,10.18893" fill="none" stroke="#ffdede" stroke-linecap="round"/><path d="M184.83376,157.59131v11.75857" fill="none" stroke="#ffdede" stroke-linecap="round"/><path d="M191.49693,169.74182v-13.0912" fill="none" stroke="#ffdede" stroke-linecap="round"/><path d="M191.8105,159.00234c0,0 5.34953,-3.60539 7.51899,-0.02771c1.89702,3.12839 1.33913,10.37524 1.33913,10.37524" fill="none" stroke="#ffdede" stroke-linecap="round"/><path d="M201.06058,159.00234c0,0 5.34954,-3.60539 7.51899,-0.02771c1.89702,3.12839 1.33912,10.37524 1.33912,10.37524" fill="none" stroke="#ffdede" stroke-linecap="round"/><path d="M223.40184,165.74393c0,0 -0.01594,1.3125 -0.97357,2.37692c-1.01516,1.12835 -3.01094,2.00704 -4.3418,1.80761c-2.10668,-0.31569 -3.1523,-1.76845 -3.13987,-2.30291c0.01153,-0.49561 -0.44343,-2.88589 1.85657,-3.9351c2.50158,-1.14116 6.91223,-0.37663 6.91223,-0.37663" fill="none" stroke="#ffdede" stroke-linecap="round"/><path d="M230.06503,169.27149v-17.79462" fill="none" stroke="#ffdede" stroke-linecap="round"/><path d="M215.79798,157.98325c0,0 5.39341,-2.66073 7.77728,0.72551c2.63163,3.73818 0.6105,11.73858 0.6105,11.73858" fill="none" stroke="#ffdede" stroke-linecap="round"/><path d="M181.84181,152.0896c0,-1.43953 1.16697,-2.60649 2.60649,-2.60649c1.43953,0 2.60649,1.16696 2.60649,2.60649c0,1.43953 -1.16696,2.60648 -2.60649,2.60648c-1.43953,0 -2.60649,-1.16695 -2.60649,-2.60648z" fill="#ffdede" stroke="none" stroke-linecap="butt"/></g><g fill="none" stroke="#fff15b" stroke-linecap="round"><path d=""/><path d=""/><path d=""/><path d=""/><path d=""/><path d=""/><path d=""/><path d=""/></g><g fill="none" stroke="#d2ffc6" stroke-linecap="round"><path d=""/><path d=""/><path d=""/><path d=""/><path d=""/></g></g></g><text transform="translate(139.06287,145.55829) scale(0.57403,0.57403)" font-size="40" xml:space="preserve" fill="#5b3f2f" fill-rule="nonzero" stroke="#5b3f2f" stroke-width="2" stroke-linecap="butt" stroke-linejoin="miter" stroke-miterlimit="10" stroke-dasharray="" stroke-dashoffset="0" font-family="Sans Serif" font-weight="normal" text-anchor="start" style="mix-blend-mode: normal"><tspan x="0" dy="0">Hello, welcome to</tspan><tspan x="0" dy="48px"> </tspan><tspan x="0" dy="48px">Are you new here?</tspan><tspan x="0" dy="48px">  Need a tutorial?</tspan></text></g></g></svg>