<svg version="1.1" xmlns="http://www.w3.org/2000/svg" xmlns:xlink="http://www.w3.org/1999/xlink" width="34.09915" height="34.09914" viewBox="0,0,34.09915,34.09914"><defs><radialGradient cx="239.45679" cy="178.41171" r="17.04958" gradientUnits="userSpaceOnUse" id="color-1"><stop offset="0" stop-color="#ad0000"/><stop offset="1" stop-color="#ff0000"/></radialGradient></defs><g transform="translate(-222.95045,-162.95043)"><g data-paper-data="{&quot;isPaintingLayer&quot;:true}" fill-rule="nonzero" stroke-linejoin="miter" stroke-miterlimit="10" stroke-dasharray="" stroke-dashoffset="0" style="mix-blend-mode: normal"><path d="M222.95046,192.66769c0,-7.4682 0,-22.22932 0,-26.07895c0,-1.80256 1.8052,-3.63831 3.5852,-3.63831c3.96649,0 19.67642,0 26.87566,0c2.22596,0 3.63829,2.05166 3.63829,4.0101c0,3.80621 0,17.35811 0,24.91043c0,3.09217 -1.95867,5.17861 -3.85076,5.17861c-3.78728,0 -17.59338,0 -25.17601,0c-3.03456,0 -5.07238,-1.73179 -5.07238,-4.3819z" fill="url(#color-1)" stroke="none" stroke-width="0" stroke-linecap="butt"/><path d="M243.99525,165.41171c0,0 7.53074,-0.39004 9.03681,2.41195c1.76146,3.27713 0.88627,16.04959 0.88627,16.04959" fill="none" stroke="#ff3838" stroke-width="1.5" stroke-linecap="round"/></g></g></svg>