<svg version="1.1" xmlns="http://www.w3.org/2000/svg" xmlns:xlink="http://www.w3.org/1999/xlink" width="34.43761" height="34.5848" viewBox="0,0,34.43761,34.5848"><g transform="translate(-222.33486,-162.70764)"><g data-paper-data="{&quot;isPaintingLayer&quot;:true}" fill-rule="nonzero" stroke-linejoin="miter" stroke-miterlimit="10" stroke-dasharray="" stroke-dashoffset="0" style="mix-blend-mode: normal"><path d="M222.33487,192.71986c0,-7.54232 0,-22.44996 0,-26.3378c0,-1.82046 1.82312,-3.67442 3.62078,-3.67442c4.00587,0 19.87172,0 27.14242,0c2.24806,0 3.67441,2.07203 3.67441,4.04991c0,3.84399 0,17.5304 0,25.15769c0,3.12286 -1.97811,5.23001 -3.88898,5.23001c-3.82487,0 -17.76801,0 -25.4259,0c-3.06468,0 -5.12273,-1.74897 -5.12273,-4.42539z" fill="#fffd6a" stroke="none" stroke-width="0" stroke-linecap="butt"/><path d="M250.7915,179.58541c0,0.20738 -1.92783,2.58244 -3.12651,2.58244c-1.30596,0 -3.1495,-2.05321 -3.1495,-2.26059c0,-0.20738 1.26881,-2.95027 3.16483,-2.95027c1.89602,0 3.11119,2.42104 3.11119,2.62842z" fill="#ffce38" stroke="none" stroke-width="0" stroke-linecap="butt"/><path d="M250.95243,179.69272c0,0 -2.10228,0.68967 -3.21847,0.68967c-1.06258,0 -3.32575,-0.68967 -3.32575,-0.68967" fill="none" stroke="#6d4006" stroke-width="1" stroke-linecap="round"/><path d="M256.68048,192.9712c0,0.8873 -0.57401,3.20122 -2.86023,4.05903c-0.76594,0.28739 -27.21921,0.44241 -28.62951,-0.09494c-2.49778,-0.95171 -2.84058,-2.89114 -2.84058,-3.90278c0,-3.06409 7.46002,-7.26454 16.88929,-7.26454c9.42927,0 17.44104,4.13915 17.44104,7.20324z" fill="#efba58" stroke="none" stroke-width="0" stroke-linecap="butt"/></g></g></svg>