<svg xmlns="http://www.w3.org/2000/svg" width="500" height="500" viewBox="0 0 500 500"><defs><style>.cls-1{fill:#006aac;}.cls-2{fill:#f470f0;}.cls-3{fill:#00c2ff;}.cls-4{fill:#41bf2e;}.cls-5{fill:#fdad00;}.cls-6{fill:#fdec00;}</style></defs><g id="Painting"><path class="cls-1" d="M324.58,410.37c1-46.74,39.1-84.87,85.83-85.84a88.11,88.11,0,0,1,14.7.91c37.43,5.48,71.93-21.37,74.37-59.12q.52-8.29.52-16.73A249.45,249.45,0,0,0,250,0C111.93,0,0,111.93,0,250A249.45,249.45,0,0,0,249.64,500q8.45,0,16.74-.53c37.76-2.44,64.61-37,59.12-74.4A89.25,89.25,0,0,1,324.58,410.37Z"/><circle class="cls-2" cx="219.36" cy="379.69" r="53.34"/><circle class="cls-3" cx="219.36" cy="120.31" r="53.34"/><circle class="cls-4" cx="102.52" cy="250" r="53.34"/><path class="cls-5" d="M408.19,479.06h0c-16.66,0-30-12.46-29.62-27.57l7.9-285.11h42.31l9,285C438.28,466.54,424.88,479.06,408.19,479.06Z"/><path class="cls-6" d="M475.67,106.57a68.05,68.05,0,1,1-136.1,0c0-34.3,56.68-77.8,66.58-85.14a2.46,2.46,0,0,1,2.94,0C419,28.77,475.67,72.27,475.67,106.57Z"/><path class="cls-4" d="M409.09,21.43a2.46,2.46,0,0,0-2.94,0C397.2,28.07,350,64.28,341,96.51l.15.18c4.42,5.48,10.48,13,22.38,13s17.95-7.5,22.37-13c4.12-5.09,6-7,9.93-7s5.8,1.93,9.92,7c4.42,5.48,10.48,13,22.38,13s17.95-7.5,22.37-13c4.12-5.1,6-7,9.93-7s5.81,1.93,9.93,7a62.92,62.92,0,0,0,5,5.66C471.15,68.81,418.59,28.47,409.09,21.43Z"/></g></svg>