<?xml version="1.0" encoding="utf-8"?>
<!-- Generator: Adobe Illustrator 26.5.0, SVG Export Plug-In . SVG Version: 6.00 Build 0)  -->
<svg version="1.1" id="Business_V2" xmlns="http://www.w3.org/2000/svg" xmlns:xlink="http://www.w3.org/1999/xlink" x="0px"
	 y="0px" viewBox="0 0 500 500" style="enable-background:new 0 0 500 500;" xml:space="preserve">
<style type="text/css">
	.st0{fill:#008D5A;}
	.st1{fill:#41BF2E;}
	.st2{fill:#FFFFFF;}
	.st3{fill:#FDEC00;}
</style>
<g id="business">
	<path class="st0" d="M374.5,56v96.7c0,8.8-7.2,16-16,16h-14c-8.8,0-16-7.2-16-16V56c0-8.8,7.2-16,16-16h14
		C367.4,40,374.5,47.2,374.5,56z"/>
	<path class="st0" d="M0,400h500v84c0,8.8-7.2,16-16,16H16c-8.8,0-16-7.2-16-16V400L0,400z"/>
	<path class="st1" d="M439.1,132.5H60.9c-7.8,0-14.4,5.6-15.8,13.2L0,400h500l-45.2-254.3C453.5,138.1,446.8,132.5,439.1,132.5
		L439.1,132.5z"/>
	<path class="st2" d="M86.3,79.2H190c8.8,0,16,7.2,16,16v175.1c0,8.8-7.2,16-16,16H86.3c-8.8,0-16-7.2-16-16V95.2
		C70.3,86.4,77.5,79.2,86.3,79.2z"/>
	<g>
		<path class="st1" d="M267.5,0h168c8.8,0,16,7.2,16,16v48c0,8.8-7.2,16-16,16h-168c-8.8,0-16-7.2-16-16V16
			C251.5,7.2,258.7,0,267.5,0z"/>
		<path class="st3" d="M279.5,20h144c4.4,0,8,3.6,8,8v24c0,4.4-3.6,8-8,8h-144c-4.4,0-8-3.6-8-8V28C271.5,23.6,275.1,20,279.5,20z"
			/>
	</g>
	<g>
		<g>
			<path class="st0" d="M265,248h4c11,0,20,9,20,20l0,0c0,11-9,20-20,20h-4c-11,0-20-9-20-20l0,0C245,257,254,248,265,248z"/>
			<path class="st0" d="M335,248h4c11,0,20,9,20,20l0,0c0,11-9,20-20,20h-4c-11,0-20-9-20-20l0,0C315,257,324,248,335,248z"/>
			<path class="st0" d="M405,248h4c11,0,20,9,20,20l0,0c0,11-9,20-20,20h-4c-11,0-20-9-20-20l0,0C385,257,394,248,405,248z"/>
			<path class="st0" d="M265,314h4c11,0,20,9,20,20l0,0c0,11-9,20-20,20h-4c-11,0-20-9-20-20l0,0C245,323,254,314,265,314z"/>
			<path class="st0" d="M335,314h4c11,0,20,9,20,20l0,0c0,11-9,20-20,20h-4c-11,0-20-9-20-20l0,0C315,323,324,314,335,314z"/>
			<path class="st0" d="M405,314h4c11,0,20,9,20,20l0,0c0,11-9,20-20,20h-4c-11,0-20-9-20-20l0,0C385,323,394,314,405,314z"/>
		</g>
		<path class="st3" d="M260,176h153c8.8,0,16,7.2,16,16v14c0,8.8-7.2,16-16,16H260c-8.8,0-16-7.2-16-16v-14
			C244,183.2,251.2,176,260,176z"/>
	</g>
</g>
</svg>
