<svg viewBox="0 0 500 500" xmlns="http://www.w3.org/2000/svg"><circle cx="192.02" cy="237.88" fill="#fdad00" r="191.87"/><circle cx="192.02" cy="237.88" fill="#fff" r="141.01"/><g fill="#fdad00"><rect height="71.94" rx="23.24" transform="matrix(-1 0 0 -1 389.16 72.78)" width="47.12" x="171.02" y=".42"/><path d="m42.39 31.79h47.12v71.94h-47.12z" transform="matrix(.70710678 -.70710678 .70710678 .70710678 -28.6 66.48)"/><rect height="42" rx="16" transform="matrix(.70710678 -.70710678 .70710678 .70710678 -19.72 46.7)" width="107.99" x="-7.48" y="26.15"/></g><circle cx="190.79" cy="238.16" fill="#13202d" r="27.09"/><path d="m249.92 162.12-73.62 53.14 38.7 34.74 43.22-80.63a5.66 5.66 0 0 0 -8.3-7.25z" fill="#13202d"/><path d="m492.5 328.33-.68-.52a19.53 19.53 0 0 0 -27.41 3.47l-20.15 26-41.43-32.12-8.83-6.47a87.45 87.45 0 0 0 12.19.87 86.08 86.08 0 1 0 -77.5-48.56l-41.05-31.8a19.54 19.54 0 0 0 -27.41 3.47l-.53.68-32.12 41.42a19.55 19.55 0 0 0 3.47 27.42l.68.52a19.54 19.54 0 0 0 27.41-3.47l20.15-26 29.27 22.76-89.62 161.4a20 20 0 0 0 6.47 27.49 20 20 0 0 0 27.49-6.46l52.44-82.26 5.37-7.15 48.16 28.37-25.19 42.75a19.55 19.55 0 0 0 6.92 26.76l.74.43a19.53 19.53 0 0 0 26.75-6.92l34.28-58.16c.16-.26.35-.51.5-.77l1.17-2a18.82 18.82 0 0 0 -6.66-25.77l-31.84-18.71 16.06-25.76 54.3 42.11a19.55 19.55 0 0 0 27.42-3.47l.52-.68 32.16-41.45a19.55 19.55 0 0 0 -3.5-27.42z" fill="#008d5a"/></svg>