<?xml version="1.0" encoding="UTF-8"?><svg id="Art" xmlns="http://www.w3.org/2000/svg" width="500" height="500" viewBox="0 0 500 500"><defs><style>.cls-1{fill:#00c2ff;}.cls-2{fill:#006aac;}.cls-3{fill:#008d5a;}.cls-4{fill:#fdec00;}</style></defs><g id="Art-2"><g id="picture"><rect class="cls-4" x="143.12" y="58.18" width="356.88" height="381.04" rx="42" ry="42"/><rect class="cls-1" x="179.42" y="92.29" width="284.29" height="312.81" rx="16" ry="16"/><path class="cls-3" d="M413.76,135.36c-.65-1.36-2.51-1.54-3.41-.33l-97.81,131.6-78.27-53.48c-.6-.41-1.37-.46-2.02-.14l-52.84,26.37v149.73c0,8.84,7.16,16,16,16h252.29c8.84,0,16-7.16,16-16V239.64l-49.95-104.28Z"/><circle class="cls-4" cx="286.21" cy="163.4" r="27.09"/></g><g id="Crayon"><path class="cls-2" d="M286.86,425.64L186.49,132.63c-2.86-8.36-11.96-12.81-20.32-9.95l-1.61,.55L76.41,6.36C72.28,.88,65.1-1.32,58.61,.9L21.12,13.75c-6.49,2.22-10.81,8.36-10.72,15.22l2.02,146.37-1.61,.55c-8.36,2.86-12.82,11.96-9.95,20.32L101.24,489.23c2.86,8.36,11.96,12.81,20.32,9.95l155.35-53.21c8.36-2.86,12.82-11.96,9.95-20.32Z"/><rect class="cls-1" x="45.76" y="188.04" width="196.21" height="245.77" transform="translate(-93 63.4) rotate(-18.91)"/><ellipse class="cls-2" cx="143.86" cy="310.93" rx="45.36" ry="84.04" transform="translate(-93 63.4) rotate(-18.91)"/></g></g></svg>