<svg viewBox="0 0 500 500" xmlns="http://www.w3.org/2000/svg"><rect fill="#fff" height="382.26" rx="16" transform="matrix(.98030566 .19748625 -.19748625 .98030566 61.89 -61.39)" width="257.8" x="209.83" y="88.45"/><path d="m330.16 339a9.49 9.49 0 0 1 -13.16-2.64l-33.88-51c-36.38-54.74 22.5-93.88 58.88-39.14 51.78-34.41 90.92 24.47 39.14 58.89z" fill="#f70000"/><path d="m432.83 183.4a3.63 3.63 0 0 1 -5-1l-12.93-19.46c-13.9-20.94 8.56-35.85 22.45-14.94 19.76-13.14 34.7 9.34 14.94 22.47z" fill="#f70000"/><path d="m337.07 383.05c-30.39-38.31-87.17-48.47-94.67-101.05l-8.2-57.53h25.33a26.08 26.08 0 0 0 26.08-26.08v-.63a26.08 26.08 0 0 0 -26.08-26.08h-7.24a99.24 99.24 0 1 0 -135.62 0h-9.19a26.07 26.07 0 0 0 -26.08 26.06v.63a26.07 26.07 0 0 0 26.08 26.08h26.3c-2.35 18-7.4 56.68-7.42 56.8-6.9 52.75-63.49 62.88-94.36 100.75-20.18 24.76-31.94 59.24-31.94 89.91a28.1 28.1 0 0 0 28.1 28.09h311.84a28.09 28.09 0 0 0 28.09-28.09c-.03-30.34-11.43-64.15-31.02-88.86z" fill="#006aac"/></svg>