<svg height="500" viewBox="0 0 500 500" width="500" xmlns="http://www.w3.org/2000/svg"><rect fill="#006aac" height="231.87" rx="16" width="362.47" x="68.58" y="268.03"/><path d="m331.55 81.86a81.86 81.86 0 1 0 -122.7 70.92v21.39h82v-21.59a81.79 81.79 0 0 0 40.7-70.72z" fill="#fdec00"/><path d="m208.85 174.17h82a0 0 0 0 1 0 0v24.78a16 16 0 0 1 -16 16h-50a16 16 0 0 1 -16-16v-24.78a0 0 0 0 1 0 0z" fill="#006aac"/><path d="m223.37 213.58h52.63a0 0 0 0 1 0 0v2.15a10.25 10.25 0 0 1 -10.23 10.27h-32.15a10.25 10.25 0 0 1 -10.25-10.25v-2.15a0 0 0 0 1 0-.02z" fill="#006aac"/><g fill="#00c2ff"><path d="m489.69 330.22a10 10 0 0 1 -5-1.35l-73.14-42.26a10 10 0 1 1 10-17.32l73.14 42.26a10 10 0 0 1 -5 18.67z"/><path d="m9.76 330.22a10 10 0 0 1 -5-18.67l73.14-42.26a10 10 0 1 1 10 17.32l-73.14 42.26a10 10 0 0 1 -5 1.35z"/><path d="m382.27 356.46h-264.93a16 16 0 0 1 -14.68-9.64l-28.49-65.65a9.4 9.4 0 0 1 8.62-13.17h333.85a9.39 9.39 0 0 1 8.63 13.12l-28.27 65.67a16 16 0 0 1 -14.73 9.67z"/></g></svg>