<svg fill="none" height="61" viewBox="0 0 438 61" width="438" xmlns="http://www.w3.org/2000/svg" xmlns:xlink="http://www.w3.org/1999/xlink"><filter id="a" color-interpolation-filters="sRGB" filterUnits="userSpaceOnUse" height="51.8062" width="361" x="38" y="9"><feFlood flood-opacity="0" result="BackgroundImageFix"/><feColorMatrix in="SourceAlpha" type="matrix" values="0 0 0 0 0 0 0 0 0 0 0 0 0 0 0 0 0 0 127 0"/><feOffset dy="4"/><feGaussianBlur stdDeviation="3.5"/><feColorMatrix type="matrix" values="0 0 0 0 0 0 0 0 0 0 0 0 0 0 0 0 0 0 0.3 0"/><feBlend in2="BackgroundImageFix" mode="normal" result="effect1_dropShadow"/><feBlend in="SourceGraphic" in2="effect1_dropShadow" mode="normal" result="shape"/></filter><ellipse cx="219" cy="31.2425" fill="#3e96ee" rx="219" ry="23.2425"/><ellipse cx="219" cy="30.5" fill="#2dd92d" rx="55" ry="30.5"/><g filter="url(#a)"><path d="m58.1354 49.8062c-1.5844 0-3.096-.2566-4.4957-.7626-2.0397-.7382-3.7765-1.9056-5.1601-3.4726-1.3819-1.5653-2.3815-3.4884-2.968-5.7133-.58-2.204-.6675-4.6278-.2592-7.207.3953-2.4936 1.147-4.9279 2.2374-7.2349 1.087-2.2999 2.4576-4.3905 4.0713-6.214 1.6249-1.8358 3.5123-3.3784 5.6104-4.5877 2.1304-1.2268 4.4569-1.9946 6.9162-2.2825.0081-.0018.0162-.0018.0243-.0035.4779-.0489.9785-.0733 1.4889-.0733.4196 0 .857.0157 1.3009.0488 1.0272.0751 2.0478.2915 3.0328.6405 1.0126.3577 1.9587.8725 2.8142 1.5269.9186.705 1.6735 1.6176 2.2438 2.7135.5719 1.0994.9073 2.4047.9964 3.8792.0858 1.4152-.1215 3.0625-.6141 4.8931-.1782.6648-.7047 1.1517-1.3414 1.2424l-8.3014 1.1919c-.0713.0105-.1426.0157-.2139.0157-.4406 0-.8667-.1937-1.1745-.5427-.3581-.4048-.5136-.9702-.418-1.5199.1085-.6317.175-1.225.196-1.7643.0195-.506-.0356-.8027-.0842-.9632-.0049-.014-.0081-.0262-.013-.0384 0 0-.0437.007-.0534.007-.7583.0942-1.4193.3909-2.0203.9057-.7064.6037-1.3269 1.3244-1.8486 2.1429-.5524.869-1.0239 1.7869-1.3981 2.7239-.3856.9633-.6691 1.8114-.8457 2.5216-.243.979-.4002 1.9527-.4666 2.9003-.0583.8376 0 1.5705.1734 2.1795.1361.4764.3434.8167.6529 1.0732.2009.1658.5573.253 1.0287.253.1037 0 .2139-.0035.3257-.0122.6091-.0419 1.1308-.1623 1.5585-.3595.4472-.2059.8344-.4589 1.1487-.7521.3143-.2914.5783-.6229.7841-.9842.2284-.3996.4115-.8201.5443-1.2459.222-.7155.8425-1.1936 1.5359-1.1936.0275 0 .0551 0 .0843.0017l9.335.5166c.1442.0087.2867.0366.4212.0837.0308-.6648.1004-1.3402.2122-2.026.3241-2.0068.9138-3.9263 1.753-5.7045.8457-1.7939 1.9279-3.3906 3.2159-4.7482 1.3042-1.3751 2.8287-2.4727 4.5314-3.2632 1.7092-.794 3.5821-1.225 5.5667-1.2844h.0194c.0681-.0017.1345-.0017.2025-.0017 1.7384 0 3.3553.3926 4.8053 1.1657 1.5034.8009 2.7687 1.9335 3.7618 3.3661.9753 1.4065 1.6723 3.0643 2.0693 4.9263.042.2006.081.4031.115.6072.1-.2355.205-.4694.314-.6997.836-1.7712 1.905-3.3505 3.177-4.6924 1.29-1.3594 2.796-2.4448 4.48-3.2248 1.689-.7836 3.539-1.2111 5.501-1.2704h.02c.066-.0018.133-.0018.199-.0018 1.719 0 3.318.3874 4.754 1.1518 1.485.7922 2.737 1.9125 3.721 3.3295.965 1.3908 1.652 3.0294 2.044 4.8704.277 1.2983.373 2.6629.287 4.0746l5.465-16.6197c.215-.6526.768-1.1081 1.411-1.1587l9.056-.705c.039-.0035.078-.0052.117-.0052.499 0 .974.2478 1.281.6771.333.4624.428 1.0732.253 1.6263l-9.602 30.5573c-.196.6265-.705 1.0784-1.312 1.1692l-9.749 1.4501c-.074.0105-.147.0157-.222.0157-.482 0-.946-.2321-1.255-.6422-.358-.4729-.46-1.1115-.271-1.6857l1.841-5.598c-.718 1.129-1.533 2.1586-2.439 3.073-1.326 1.3419-2.831 2.4221-4.473 3.2108-1.68.808-3.425 1.2181-5.184 1.2198-.063.0018-.125.0018-.188.0018-1.748 0-3.363-.3962-4.8-1.1779-1.479-.8045-2.725-1.9196-3.705-3.3156-.968-1.3803-1.658-3.0137-2.0515-4.8582-.0469-.2198-.0891-.4415-.1247-.6648-.1458.3263-.2997.6491-.4634.9667-.9218 1.7957-2.0656 3.3906-3.3989 4.7395-1.3431 1.3577-2.866 2.4501-4.5266 3.2493-1.6995.8167-3.4638 1.232-5.2443 1.2337-.0632.0018-.1263.0018-.1895.0018-1.7676 0-3.4006-.4014-4.8555-1.1919-1.4953-.8132-2.7558-1.9422-3.7456-3.3539-.9122-1.3001-1.5813-2.8253-1.9895-4.5371-.4585 1.204-1.0304 2.3104-1.7076 3.3051-1.0466 1.5356-2.2876 2.8583-3.6906 3.928-1.3836 1.0558-2.9324 1.9126-4.6043 2.5478-1.6412.623-3.352 1.0522-5.0839 1.2791-.721.1029-1.4468.1536-2.1467.1536zm28.253-12.505c.1588 0 .3499-.0698.5687-.2094.3936-.2495.7857-.616 1.1648-1.0871.4067-.5043.7777-1.1064 1.1001-1.7904.3191-.6754.554-1.3891.6966-2.1185.1183-.616.2479-1.3454.3807-2.1638.1151-.7085.1572-1.3873.1264-2.0138-.0211-.4485-.1118-.8149-.2657-1.0907-.0308-.0122-.1037-.0349-.243-.0418-.1815.0087-.3969.1134-.6448.3123-.4131.3333-.8182.794-1.2038 1.3699-.4115.6125-.7711 1.3088-1.0692 2.0661-.2933.7469-.4958 1.485-.5978 2.1953-.0033.0244-.0081.0488-.0114.0732-.0923.4921-.1798 1.0872-.2608 1.7678-.0713.5985-.0875 1.1779-.047 1.7223.0292.3961.1069.7329.2317 1.0034.0113.0035.0243.0052.0405.0087.0113-.0035.0227-.0035.034-.0035zm24.4996-.0855c.152 0 .337-.068.549-.2041.387-.2461.771-.6056 1.145-1.068.4-.4973.765-1.0906 1.082-1.7625.315-.6648.545-1.3663.687-2.0853.117-.6055.243-1.3262.375-2.1342.113-.698.155-1.3646.124-1.9823-.021-.4345-.107-.7905-.254-1.0593-.032-.0122-.1-.0314-.225-.0384-.174.0088-.384.11-.624.3037-.405.328-.804.7818-1.184 1.3471-.405.6038-.76 1.2879-1.053 2.0348-.29.7346-.488 1.4623-.588 2.1603-.004.0244-.008.0489-.012.0733-.09.4869-.176 1.0732-.257 1.7433-.072.5881-.086 1.1587-.047 1.6944.029.3839.103.7102.222.972.008.0017.017.0035.029.0052zm155.525 12.559c-1.58 0-3.09-.2565-4.485-.7608-2.035-.7347-3.767-1.9003-5.145-3.4621-1.379-1.5618-2.375-3.4779-2.96-5.6993-.58-2.197-.666-4.6156-.259-7.1896.393-2.4884 1.145-4.9157 2.232-7.2139 1.084-2.2947 2.451-4.3783 4.06-6.1966 1.62-1.8306 3.503-3.3697 5.596-4.5738 2.124-1.2232 4.445-1.9893 6.898-2.2755.008-.0017.016-.0017.024-.0035.477-.0488.976-.0733 1.486-.0733.42 0 .856.0157 1.296.0489 1.026.075 2.043.2897 3.025.6387 1.009.3577 1.954.869 2.806 1.5234.917.7032 1.67 1.6141 2.239 2.7083.57 1.0959.906 2.3976.995 3.8705.086 1.4117-.12 3.0538-.613 4.8791-.154.5723-.567 1.0138-1.085 1.1831l.967-.0454c.024-.0017.047-.0017.07-.0017.486 0 .946.2338 1.255.6422.324.4257.441.9929.316 1.5269-.189.8201-.4 1.6874-.628 2.5896 1.053-1.4379 2.329-2.621 3.807-3.532-.13-.0872-.248-.1937-.353-.3193-.433-.5218-.535-1.2739-.258-1.9073l3.044-6.9487c.187-.4258.525-.7522.937-.9057.777-.2879 1.628-.5218 2.53-.6928.781-.1448 1.677-.2321 2.667-.26.117-.0035.233-.0052.352-.0052.923 0 1.926.1029 2.982.3053.023.0053.045.0088.068.014.697.1675 1.476.3979 2.315.6841.992.3402 1.923.8934 2.769 1.6438.872.7748 1.597 1.8183 2.158 3.1044.567 1.3.842 2.8898.842 4.8599 0 .3944-.071.8952-.233 1.6264l-.029.1291c-.138.6073-.313 1.3018-.518 2.0731l-.221.8097c-.191.6928-.402 1.4379-.63 2.2249-.22.7644-.45 1.5339-.68 2.2895l-.627 2.04c-.621 2.0155-1.308 4.2177-2.042 6.5456-.18.5706-.62 1.0016-1.166 1.1377l-8.844 2.225c-.123.0314-.247.0453-.368.0453-.481 0-.946-.2321-1.257-.6456-.373-.4956-.465-1.1692-.243-1.7555-.535.0645-1.076.0977-1.616.0977-.92 0-1.832-.1152-2.713-.3403-.94-.2408-1.794-.6282-2.541-1.1535-.811-.5706-1.464-1.3279-1.942-2.2511-.484-.937-.731-2.0504-.731-3.3085 0-.007 0-.014 0-.0192.002-.1135.004-.2269.007-.3403-.326.6875-.682 1.3646-1.063 2.026-.8 1.3873-1.789 2.6594-2.937 3.7797-1.155 1.1273-2.52 2.0958-4.055 2.8793-1.549.7905-3.352 1.3227-5.356 1.5828-.723.0959-1.447.1465-2.145.1465zm27.948-12.538c.079.0366.175.0645.283.0837.017-.0471.094-.2861.094-.2861.187-.5777.384-1.164.584-1.7364-.245.178-.702.623-.948 1.8463-.005.0349-.01.0663-.013.0925zm-22.635-13.0267c-.064 0-.136.0052-.212.0157-.006 0-.013.0018-.019.0018-.812.1012-1.546.3891-2.249.8794-.763.5323-1.453 1.2041-2.054 1.9981-.619.8167-1.139 1.7206-1.544 2.6856-.405.9668-.687 1.9405-.834 2.895-.151.9685-.2 1.8567-.148 2.6403.044.6491.186 1.2005.425 1.6368.05.0925.105.178.165.2583-.029-.2077-.025-.4223.018-.6317l1.471-7.3693c.155-.7765.777-1.3419 1.513-1.3768l4.159-.1955c-.23-.3787-.316-.8446-.232-1.2965.249-1.3455.023-1.8323-.054-1.9492-.077-.1187-.139-.192-.405-.192zm-89.303 25.2157c-.481 0-.946-.2321-1.257-.6456-.384-.5096-.47-1.2076-.224-1.8061-.56.0698-1.126.1047-1.693.1047-.934 0-1.861-.117-2.755-.3456-.953-.2443-1.821-.6386-2.578-1.1709-.821-.5776-1.484-1.3454-1.968-2.2807-.339-.6544-.563-1.3926-.668-2.2058-.492 1.4484-1.038 2.9492-1.636 4.4935-.238.616-.783 1.0331-1.403 1.0715l-8.285.513c-.031.0017-.062.0035-.094.0035-.511 0-.995-.26-1.301-.705-.326-.4729-.409-1.0889-.221-1.6403l.269-.7888c.864-2.5547 1.59-4.8878 2.157-6.9278.261-.944.5-1.8881.714-2.806.094-.4083.178-.7957.248-1.1604-.381 1.1971-.808 2.4517-1.275 3.7378l-.183.4991c-.604 1.6403-1.204 3.3383-1.781 5.0501-.17.5061-.547.897-1.022 1.0645-1.022.356-2.257.6143-3.776.787-.546.0611-1.126.0925-1.727.0925-1.076 0-2.26-.1012-3.518-.3001-.489-.0768-.918-.3909-1.166-.8516s-.287-1.0174-.105-1.513c.836-2.2912 1.526-4.3765 2.049-6.1966.194-.698.379-1.4065.548-2.0975-.021.0489-.041.0977-.06.1466l-.247.6195c-.126.3193-.243.6177-.346.8917-.383 1.0069-.737 1.9771-1.055 2.8845l-.768 2.2319c-.095.2775-.186.5462-.274.8027l-.239.7591c-.195.6178-.381 1.225-.553 1.8026-.199.6649-.748 1.1395-1.395 1.2024l-7.661.7503c-.049.0053-.099.007-.148.007-.479 0-.938-.2303-1.247-.6317-.34-.4432-.457-1.04-.31-1.5932l.517-1.9405c.253-.9475.498-1.8567.732-2.7257.002-.007.004-.014.007-.021.167-.588.329-1.1918.483-1.7939l.28-1.0819.301-1.1465c.075-.2879.146-.5619.209-.8201l.112-.4503c.086-.3402.159-.6055.224-.8184.283-1.1342.74-2.5774 1.357-4.2875l.172-.4712c.698-1.8986 1.581-4.2561 2.63-7.0133.168-.445.5-.794.917-.9667.38-.1571.904-.3159 1.65-.4956l.136-.0332c.749-.178 1.548-.342 2.379-.4921.682-.1221 1.349-.2321 1.983-.328l.374-.0559c.668-.096 1.176-.1431 1.555-.1431.122 0 .234.0053.337.014.49.0436.934.3246 1.209.7626.159.253.249.5409.272.8376.627-.2112 1.298-.3979 2.006-.5602.784-.1814 1.579-.2722 2.365-.2722.211 0 .423.007.634.0192.016.0017.032.0017.048.0035.843.0785 1.567.3403 2.155.7765.538.3996.982.8987 1.319 1.4833.162.281.304.5776.426.8882.082-.0506.167-.0994.251-.15.799-.4782 1.615-.9284 2.427-1.3385.828-.4188 1.644-.78 2.425-1.0732.851-.3211 1.602-.4764 2.299-.4764h.07l.116.0035c1.873.0506 2.912 1.0226 3.453 1.8288.641.958 1.038 2.1708 1.178 3.6035.123 1.2704.077 2.7135-.137 4.2858-.139 1.0191-.315 2.0644-.526 3.1219 1.077-1.4641 2.382-2.6664 3.895-3.5913-.146-.0907-.281-.2077-.397-.349-.433-.5218-.535-1.2739-.256-1.9073l3.101-7.0779c.186-.4258.525-.7521.936-.9057.791-.2931 1.656-.5304 2.573-.705.794-.1465 1.703-.2355 2.712-.2652.118-.0035.236-.0052.358-.0052.938 0 1.959.1047 3.033.3088.022.0035.045.0088.068.014.708.1693 1.5.4031 2.354.6963 1.006.3455 1.952.9056 2.809 1.6682.885.7853 1.622 1.8463 2.19 3.1498.321.7364.551 1.5653.691 2.5024l.912-3.1864c.191-.6667.732-1.1483 1.377-1.2216l.319-.0366c.452-.0471 1.058-.096 1.818-.1483l2.069-.1449c.085-.2443.168-.4799.246-.7067l.313-.9162.837-2.4901.216-.6265c.082-.2373.16-.4607.236-.6718.18-.5026.564-.8865 1.04-1.0436.642-.2111 1.431-.3961 2.409-.5706.916-.1623 1.873-.3123 2.85-.4467.826-.1134 1.633-.2199 2.398-.3141l.718-.089c.669-.0855 1.219-.1728 1.631-.2565.1-.021.202-.0314.303-.0314.473 0 .93.2233 1.241.6229.377.4834.483 1.15.274 1.7398l-.23.6562c-.073.2094-.146.417-.216.6212l-.283.8236c-.127.3648-.261.7417-.402 1.1378l-.251.691c-.091.2478-.183.4974-.28.7574l-.19.5026.556-.0559c.447-.0454.873-.082 1.268-.1099l.23-.014c.478-.0279.893-.0436 1.243-.0436.455 0 .889.2059 1.196.5689.252.2984.4.6788.421 1.0767.094-.2984.189-.5951.285-.8935.371-1.157.752-2.3087 1.132-3.4203.384-1.122.757-2.1551 1.107-3.0695.18-.4694.539-.8306.985-.9912.3-.1081.695-.2094 1.249-.3176l.373-.0715c.4-.0733.831-.1466 1.291-.2181.624-.096 1.286-.1798 1.973-.2478l.783-.0768c.26-.0244.513-.0489.759-.0698l.367-.0332c.539-.0471 1.035-.0855 1.479-.1116l.186-.0105c.272-.0157.502-.0227.706-.0227.237 0 .436.0105.606.0297.493.0593.932.356 1.194.8097.263.4519.319 1.0086.153 1.5112l-2.426 7.3343c.639-.1448 1.351-.2687 2.121-.3682.612-.0785 1.236-.1186 1.853-.1186.412 0 .83.0174 1.243.0523.007 0 .013.0018.02.0018 1.769.1727 3.118.8166 4.011 1.9125.842 1.0331 1.333 2.3558 1.463 3.9281.112 1.3786-.016 2.9474-.386 4.6627-.342 1.595-.795 3.2912-1.349 5.0414-.545 1.7189-1.152 3.5075-1.807 5.3171-.643 1.7782-1.25 3.511-1.808 5.1514-.18.5305-.586.9353-1.092 1.0836-1.093.3246-2.441.5445-4.12.6719-.414.0314-.85.0471-1.294.0471-1.353 0-2.871-.1483-4.509-.4432-.489-.0873-.915-.4136-1.153-.883s-.264-1.0313-.07-1.5234c1.197-3.0259 2.198-5.8023 2.975-8.2523l.105-.335c.335-1.0575.649-2.115.938-3.1481.277-.9929.486-1.8864.622-2.6559 0-.0053.002-.0105.003-.0157-.202.2687-.389.5688-.552.8934-.217.431-.402.8481-.553 1.2407-.429 1.1029-.823 2.225-1.178 3.3435l-.194.6195c-.248.7957-.475 1.5513-.672 2.2389l-.075.2583c-.312 1.0906-.606 2.1638-.868 3.1969-.185.7207-.775 1.2354-1.466 1.2791l-8.713.5549c-.033.0017-.063.0035-.096.0035-.484 0-.946-.2339-1.255-.6422-.329-.4345-.444-1.0121-.311-1.5531l.239-.9667c.358-1.4344.713-2.8113 1.057-4.0956l.338-1.314.17-.6666c.114-.445.222-.8725.324-1.2844l.311-1.2459c.054-.2129.106-.4119.154-.6021l.159-.6037c.099-.3805.148-.5986.172-.712.008-.0367.016-.0733.026-.11l.236-.8725s.342-1.2337.345-1.2477c-.264.3263-.636.5427-1.049.5898l-5.196.6003-.005.014c-.416 1.2669-.815 2.4448-1.184 3.504-.397 1.1378-.692 2.2476-.875 3.3016l-.041.2426c.122.0454.256.0698.365.082.165.0192.34.0279.522.0279.304 0 .635-.0279.981-.0802.65-.0995 1.246-.2129 1.771-.3368.115-.0262.23-.0402.344-.0402.466 0 .915.2164 1.228.6056.387.4851.497 1.1587.286 1.7572l-2.551 7.2489c-.19.5374-.613.9405-1.133 1.0767-.949.2495-1.957.4659-2.992.6456-1.071.185-2.147.2862-3.195.3002-.081.0017-.164.0017-.245.0017-.978 0-1.926-.082-2.82-.2443-1.087-.1972-2.063-.5916-2.899-1.1674-.883-.609-1.589-1.4327-2.101-2.4466-.491-.9719-.737-2.1603-.735-3.5319 0-.0052.001-.1989.001-.1989.002-.8272.141-1.773.43-2.8863.252-.9825.555-2.0278.897-3.1044.251-.7905.514-1.5915.781-2.382 0 0 .295-.8638.309-.9039l-2.354.3402c-.071.0105-.144.0158-.215.0158-.329 0-.65-.1082-.919-.3072l-.103.3804c-.195.705-.41 1.4659-.64 2.2633-.224.7731-.457 1.5566-.692 2.3314l-.638 2.0784c-.634 2.0573-1.334 4.2997-2.079 6.666-.18.5706-.62 1.0016-1.165 1.1377l-9.008 2.2668c-.128.0384-.252.0541-.374.0541zm1.347-12.0075c.092.0471.207.0802.341.1012.02-.0559.106-.3194.106-.3194.131-.4066.269-.8236.41-1.2355l.215-.6229c-.514.3437-.859.9824-1.055 1.9527-.008.0506-.014.0924-.017.1239zm166.94 11.1001c-1.701 0-3.163-.3193-4.344-.9475-1.255-.6684-2.273-1.609-3.025-2.7973-.714-1.1291-1.213-2.4396-1.485-3.8897-.243-1.3001-.371-2.6682-.378-4.0677-.759 2.656-1.736 5.5265-2.917 8.5786-.239.6177-.783 1.0331-1.403 1.0715l-8.227.5095c-.031.0018-.062.0035-.094.0035-.511 0-.995-.26-1.301-.705-.326-.4729-.409-1.0889-.221-1.6403l.268-.7835c.858-2.5373 1.578-4.853 2.14-6.879.257-.9353.497-1.8741.708-2.7868.078-.3315.146-.6509.207-.9545-.363 1.1308-.766 2.3121-1.205 3.5215l-.182.4955c-.599 1.6282-1.194 3.3139-1.769 5.0153-.17.506-.547.8987-1.022 1.0644-1.016.3543-2.242.6108-3.752.7818-.543.0611-1.12.0925-1.716.0925-1.069 0-2.244-.0995-3.493-.2967-.489-.0767-.918-.3908-1.166-.8515s-.287-1.0174-.106-1.513c.832-2.2772 1.517-4.3469 2.035-6.1512.18-.6457.35-1.2966.507-1.9318 0 .0018-.246.6195-.246.6195-.125.3176-.241.6143-.345.8865-.379.9982-.732 1.9632-1.047 2.8619l-.882 2.5669-.153.4485-.238.7521c-.194.6212-.379 1.2232-.549 1.7886-.199.6649-.749 1.1395-1.395 1.2024l-7.608.7451c-.049.0052-.099.007-.147.007-.48 0-.939-.2304-1.248-.6335-.34-.4432-.457-1.04-.309-1.5932l.512-1.9265c.251-.9406.494-1.8428.727-2.7066.002-.0069.003-.0139.006-.0209.166-.5828.326-1.1831.48-1.7799l.279-1.075.299-1.1395c.075-.2844.145-.5584.208-.8149l.112-.4467c.085-.3386.158-.6038.221-.8132.312-1.2442.809-2.7921 1.522-4.7308l.878-2.368c.505-1.3524 1.087-2.895 1.732-4.5912.168-.445.5-.794.917-.9667.377-.1571.899-.3124 1.641-.4939l.136-.0331c.744-.1763 1.536-.3403 2.36-.4887.678-.1221 1.34-.2303 1.969-.3263l.371-.0541c.664-.096 1.168-.1413 1.547-.1413.122 0 .232.0052.335.0139.49.0437.934.3246 1.209.7626.156.2478.246.5323.271.8219.618-.2076 1.281-.3909 1.978-.5531.777-.1798 1.57-.2705 2.351-.2705.209 0 .419.007.628.0192.016.0017.033.0017.049.0035.839.0785 1.56.3385 2.145.773.534.3979.977.8935 1.312 1.4763.159.2757.298.5671.42.8708.077-.0471.157-.0943.238-.1431.794-.4747 1.604-.9214 2.41-1.3297.822-.4153 1.634-.7748 2.41-1.0662.845-.3194 1.594-.4747 2.286-.4747h.068l.115.0035c1.864.0506 2.898 1.0174 3.436 1.8201.638.9528 1.033 2.1586 1.171 3.5843.123 1.2634.078 2.696-.136 4.2578-.006.0437-.011.0873-.018.1309.66-1.4012 1.471-2.8042 2.422-4.1846l.222-.3176c.916-1.3332 2.11-2.5721 3.542-3.668 1.435-1.0976 2.994-1.9265 4.637-2.4623 1.265-.4135 2.566-.6229 3.865-.6229.421 0 .849.0226 1.272.0663 1.826.1867 3.537.9248 5.085 2.19.953.7783 1.68 1.8951 2.163 3.3208.426 1.2582.69 2.6175.786 4.0397.094 1.3978.039 2.7816-.162 4.1113-.214 1.4153-.596 2.6263-1.137 3.5966-.294.5252-.82.848-1.39.848-.788 0-1.643.0332-2.554.0995l1.697.1832c.52.0559.983.3787 1.242.8673.261.4886.285 1.0819.068 1.5932-.554 1.3088-1.244 2.5635-2.049 3.7274-.835 1.2076-1.844 2.2808-3.002 3.1917-1.16.9109-2.494 1.6456-3.965 2.183-1.476.5392-3.156.8289-4.993.8568-.078.0053-.157.007-.236.007zm1.233-10.8646c.222 0 .309-.0331.311-.0331.05-.0227.105-.0611.162-.1204.116-.1187.238-.2792.363-.4817 0 0 .194-.3176.207-.3385-.4.0227-.791.0401-1.167.0524-.024.1954-.024.3926 0 .595.018.1414.047.2461.081.3246.013.0017.028.0017.043.0017zm20.949 10.2015c-1.456 0-2.722-.2373-3.759-.705-1.108-.5008-2.02-1.1639-2.71-1.9754-.7-.8236-1.196-1.7607-1.469-2.7885-.26-.9668-.358-1.9039-.295-2.7868.034-.4747.246-.9144.589-1.2163.316-.2792.739-.5811 1.293-.9266l1.818-1.1151c.395-.2443.791-.4851 1.183-.7242l.585-.356c.351-.2129.651-.4049.899-.5759-.084-.0418-.169-.0837-.251-.1273-.647-.3403-1.232-.7557-1.739-1.2338-.687-.6491-1.116-1.4972-1.242-2.4518-.159-1.1918-.052-2.3558.314-3.4569.337-1.0103.826-1.9527 1.455-2.8042.594-.8045 1.294-1.5514 2.078-2.218.739-.6282 1.484-1.1883 2.215-1.6665.719-.4711 1.414-.8795 2.064-1.2145l.407-.2077c.461-.2321.834-.4101 1.145-.5427.005-.0017.011-.0052.016-.007 1.326-.5532 2.756-.9004 4.248-1.0313.431-.0384.862-.0576 1.282-.0576 1.035 0 2.044.1169 2.999.3473 1.409.3403 2.66.9545 3.713 1.8218 1.184.9755 1.937 2.2476 2.236 3.785.147.7591-.188 1.5304-.822 1.8968l-6.244 3.5965c-.137.0803-.282.1362-.429.1693l.01.0035c.706.2478 1.351.6195 1.92 1.1081.557.4799 1.035 1.047 1.417 1.684.392.6491.672 1.3628.836 2.1184.172.7923.188 1.5915.052 2.3733-.229 1.3751-.719 2.7414-1.458 4.0624-.745 1.3332-1.782 2.5443-3.08 3.6-1.273 1.0348-2.847 1.8934-4.676 2.5513-1.816.6526-3.943 1.0103-6.321 1.0662-.097.0035-.188.0052-.279.0052zm3.691-10.6412c.022.0017.047.0017.069.0017.128 0 .274-.0209.435-.061.184-.0472.367-.1082.544-.1833-.02-.0087-.041-.0192-.062-.0279-.484-.2199-1.035-.4275-1.638-.616l-1.845-.5793-.021-.0053c.118.2374.229.4468.327.623.104.1832.217.3281.339.431.086.0733.233.1361.415.1815.356.0855.839.1658 1.437.2356zm4.321-9.3918c.225.0995.455.2007.688.3002.439.1867.864.3629 1.264.5235-.209-.2653-.47-.4904-.794-.6893-.186-.1152-.446-.1728-.77-.1728-.055 0-.111.0018-.168.0053-.073.0087-.146.0209-.22.0331z" fill="#f3f000"/><path d="m239.432 22.9955c1.347.1326 2.328.5741 2.94 1.3262s.969 1.7293 1.066 2.9299-.018 2.574-.35 4.1183c-.33 1.5444-.766 3.1672-1.306 4.8704-.539 1.7031-1.134 3.4517-1.782 5.2473-.648 1.7957-1.255 3.5232-1.819 5.1863-.98.2896-2.249.4955-3.804.6142-1.556.1187-3.364-.007-5.423-.3769 1.219-3.08 2.225-5.8703 3.019-8.3727l.106-.3385c.344-1.082.661-2.1517.956-3.2074.295-1.0558.516-1.9998.661-2.8304.148-.8324.203-1.5112.166-2.04-.038-.5287-.203-.8045-.496-.8324-.491-.0523-.932.0454-1.324.2967s-.747.5741-1.066.9702-.601.8376-.846 1.3262c-.244.4887-.453.9563-.625 1.4065-.441 1.1343-.846 2.2825-1.213 3.4447l-.196.623c-.255.8167-.483 1.5775-.686 2.2825l-.074.2618c-.319 1.1081-.613 2.1917-.883 3.2475l-8.713.5549.24-.9667c.358-1.4327.706-2.7869 1.046-4.0607l.344-1.328.172-.6701c.115-.4485.223-.8795.327-1.2931l.311-1.2477c.052-.2041.102-.3996.15-.5846l.158-.6002c.089-.3438.154-.6143.194-.808l.237-.8725.33-1.1971c.167-.5933.358-1.2547.574-1.9824l.073-.2443c.26-.8795.547-1.8166.857-2.8112l.116-.3752c.355-1.1343.716-2.2773 1.084-3.4255s.742-2.2773 1.121-3.3854.742-2.1115 1.084-3.0084c.22-.0785.564-.1658 1.029-.2565l.361-.0698c.374-.0698.787-.1379 1.238-.2077.601-.0925 1.231-.171 1.894-.2373l.779-.0768c.254-.0244.505-.0471.75-.0698l.365-.0331c.525-.0454 1.004-.0821 1.435-.1082l.181-.0105c.478-.0262.828-.0262 1.049 0l-3.456 10.4527c.784-.2635 1.593-.5008 2.427-.7119.711-.185 1.526-.3368 2.445-.4555.92-.1221 1.847-.1413 2.777-.0628zm-174.283 12.4909c-.1717.5567-.4067 1.0924-.7015 1.609-.2949.5165-.6643.9807-1.1065 1.3908-.4423.41-.9656.7556-1.5683 1.033-.6027.2775-1.2977.4433-2.0851.4973-1.0579.0803-1.876-.1186-2.4528-.5968-.5784-.4763-.9834-1.1255-1.2183-1.9474-.2333-.8219-.3143-1.7625-.2398-2.8217.0745-1.0593.2463-2.1325.5168-3.2196.196-.794.5039-1.7154.9219-2.7624.4179-1.047.9348-2.0539 1.5504-3.0207.6156-.9667 1.3398-1.8078 2.1774-2.5233.836-.7154 1.7837-1.1395 2.8417-1.2721l.0972-.014c.4455-.0558.8019.0227 1.066.2321.2835.2251.4925.5567.627.9929.1361.438.1912.9668.1652 1.5898-.0243.6229-.0988 1.2913-.2219 2.0068l8.3014-1.1919c.4423-1.6421.627-3.073.5541-4.2928-.0746-1.218-.3386-2.265-.7939-3.1393-.4552-.8743-1.045-1.5897-1.7708-2.1464s-1.5196-.9877-2.3799-1.2913c-.8603-.3054-1.74-.4904-2.6375-.5567-.8976-.0663-1.74-.0593-2.5274.0192-2.2633.2653-4.3726.9598-6.3281 2.0871-1.9555 1.1255-3.689 2.5442-5.2021 4.2526-1.5132 1.7084-2.7801 3.6437-3.8008 5.8023s-1.7157 4.4044-2.0851 6.7358-.2948 4.4777.222 6.4374c.5168 1.9614 1.3771 3.6227 2.5824 4.9873 1.2054 1.3646 2.7056 2.3715 4.5007 3.0207 1.795.6491 3.7764.8271 5.9409.5357 1.6233-.2111 3.2045-.609 4.7404-1.1919 1.5375-.5828 2.9389-1.3576 4.2058-2.3243 1.2669-.9668 2.3734-2.1464 3.3212-3.5372s1.6541-3.0137 2.1223-4.8687zm26.8953-7.6607c-.0373-.7625-.2106-1.4099-.5217-1.9457-.311-.5339-.8376-.8149-1.5828-.8428-.546 0-1.0919.2199-1.6379.6613-.546.4415-1.0612 1.0226-1.5456 1.7451-.4844.7224-.8992 1.5234-1.2475 2.4064s-.5832 1.752-.708 2.6071c-.0988.5339-.1928 1.1622-.2786 1.8846-.0875.7224-.1053 1.417-.0551 2.0853.0502.6684.1993 1.2495.4471 1.745.2479.4939.6708.7818 1.2653.8621.5217.0541 1.0547-.0942 1.6007-.4415s1.0677-.8289 1.5634-1.4431c.4958-.6143.9364-1.3298 1.322-2.1464.384-.815.6642-1.6648.8376-2.546.1247-.6422.2544-1.3838.3904-2.2267.1378-.8394.188-1.6421.1507-2.4047zm2.7736 14.0982c-1.2167 1.2302-2.5759 2.2057-4.0778 2.9281-1.5018.7225-3.0344 1.0837-4.5978 1.0837-1.5893.0262-3.0215-.3071-4.2998-1.0034-1.2782-.6963-2.3394-1.6438-3.1835-2.8479-.844-1.2023-1.4402-2.621-1.7869-4.2509-.3484-1.6316-.3727-3.3696-.0746-5.2141.2981-1.8446.8311-3.5826 1.6007-5.2142.7695-1.6316 1.7384-3.0608 2.9048-4.291 1.1665-1.2303 2.5128-2.1988 4.0406-2.9073 1.5261-.7085 3.1835-1.0889 4.9704-1.143 1.5634-.0261 2.9843.3002 4.2625.9825 1.2783.6823 2.3395 1.6316 3.1835 2.8479.8441 1.2163 1.4403 2.6402 1.787 4.2718s.3726 3.3697.0745 5.2142-.8683 3.5895-1.7124 5.2333c-.8441 1.6421-1.8745 3.08-3.0912 4.3103zm20.2921-6.9505c-.379.8045-.815 1.5112-1.304 2.1185-.49.6072-1.005 1.0819-1.544 1.4257-.54.3437-1.066.4886-1.58.4362-.588-.0785-1.004-.3629-1.249-.8516-.245-.4886-.392-1.0627-.441-1.7223-.048-.6596-.031-1.3454.055-2.0591.086-.7138.178-1.3332.276-1.8602.123-.8446.355-1.7015.698-2.5722.343-.8708.753-1.663 1.231-2.375s.987-1.2861 1.525-1.7224c.539-.4362 1.077-.6526 1.617-.6526.735.0262 1.255.3036 1.561.8306.307.527.478 1.1675.516 1.9196.037.7521-.013 1.5443-.148 2.375-.134.8306-.264 1.5635-.385 2.197-.174.869-.449 1.7066-.828 2.5128zm8.764-7.7392c-.343-1.6089-.931-3.0154-1.764-4.216s-1.881-2.1377-3.141-2.8113c-1.262-.6736-2.665-.9964-4.208-.9702-1.764.0523-3.399.4293-4.905 1.1273-1.507.698-2.835 1.656-3.987 2.8706-1.152 1.2145-2.108 2.6262-2.866 4.2352-.76 1.6089-1.287 3.3242-1.58 5.1461-.293 1.8218-.269 3.5354.073 5.1461.343 1.6089.932 3.0084 1.764 4.1968.833 1.1883 1.881 2.1237 3.142 2.8112 1.262.6858 2.676 1.0156 4.244.9895 1.544 0 3.057-.356 4.538-1.068s2.824-1.6752 4.025-2.8898c1.2-1.2145 2.217-2.6315 3.05-4.2561.833-1.6229 1.397-3.3452 1.69-5.1653s.267-3.5372-.075-5.1461zm8.858-12.3531-10.293 31.3007 9.748-1.4502 9.603-30.5573zm37.063 5.9697-.117-.0034c-.512-.0053-1.108.1221-1.79.3786-.734.2757-1.491.6125-2.273 1.0069-.783.3944-1.559.8219-2.328 1.2826-.77.4607-1.449.876-2.035 1.2442-.073-.4205-.172-.862-.293-1.3227-.122-.4607-.294-.8813-.514-1.2634-.22-.3822-.507-.705-.862-.9668-.355-.2635-.813-.4205-1.375-.4746-.856-.0524-1.711.0192-2.567.2164-.855.1972-1.637.4275-2.345.691-.832.3159-1.638.6841-2.419 1.1064l.807-2.8043c-.294-.0262-.807.0139-1.54.1186l-.369.0541c-.62.0925-1.269.2007-1.939.3211-.807.1449-1.57.3019-2.291.4747l-.133.0314c-.653.1588-1.127.2984-1.426.4223-1.051 2.7641-1.924 5.0937-2.621 6.9888l-.17.466c-.608 1.6839-1.047 3.0677-1.316 4.1531-.058.1903-.129.4468-.21.7714l-.112.4502c-.066.2635-.138.5462-.215.8446l-.3 1.1395-.279 1.0784c-.159.6195-.324 1.2303-.494 1.8358-.235.869-.478 1.7747-.731 2.7205l-.516 1.9405 7.661-.7504c.175-.5828.361-1.1919.561-1.8288l.244-.7765c.089-.2635.185-.5393.284-.8289l.771-2.2406c.324-.9249.68-1.9039 1.072-2.9334.107-.2793.226-.5846.357-.9162l.248-.623c.231-.5793.5-1.1185.807-1.6194.306-.5008.635-.9144.989-1.2442.355-.3298.752-.4799 1.191-.4537.269.0262.441.2304.514.6125.073.3822.079.876.018 1.4816-.062.6055-.183 1.2895-.367 2.0539-.183.7625-.385 1.5408-.604 2.3296-.538 1.8689-1.234 3.9752-2.09 6.3188 1.833.2896 3.446.3559 4.839.1971 1.394-.1588 2.542-.3943 3.446-.7102.587-1.738 1.186-3.436 1.797-5.0937l.182-.4956c.536-1.4781 1.014-2.8933 1.432-4.244.39-.7625.782-1.3558 1.173-1.7764.39-.4205.917-.6055 1.576-.5532.269.0262.428.2705.476.7312.049.4607.025 1.0592-.073 1.7974-.097.7364-.256 1.5792-.476 2.5268-.22.9475-.465 1.9091-.734 2.8828-.578 2.0818-1.307 4.4254-2.187 7.029l-.269.7887 8.285-.513c1.711-4.4219 2.97-8.3971 3.777-11.9256.342-1.5007.611-2.9683.807-4.4027s.238-2.7187.128-3.8495c-.111-1.1326-.404-2.0539-.88-2.7642-.478-.7137-1.204-1.0819-2.182-1.1081zm12.406 16.0927c-.098.5305-.068.9546.093 1.2722.16.3176.393.5636.701.7364.308.1727.664.2792 1.071.3176s.794.0192 1.163-.0594l.076-.1832c.117-.2914.248-.6579.393-1.0976l.048-.1501c.131-.4066.266-.8097.402-1.211l.381-1.0977c.111-.3228.215-.6299.311-.9179l.345-1.0627c.005-.0157.01-.0296.014-.0436l.008-.0279c.007-.0192.012-.0367.017-.0541-1.181-.2914-2.239-.1396-3.176.4572-.936.5968-1.552 1.6386-1.847 3.1218zm13.992-7.6537c-.148.6492-.339 1.4048-.572 2.2668l-.161.5864c-.192.698-.403 1.4431-.633 2.2371-.222.7661-.451 1.5339-.685 2.3069l-.637 2.0731c-.634 2.0557-1.325 4.2736-2.074 6.6538l-9.008 2.2668c.172-.3978.332-.7957.48-1.1936.099-.2757.209-.5601.33-.8533l.519-1.2145c-.616.2914-1.317.5165-2.105.6753-.787.1588-1.587.2391-2.399.2391s-1.606-.0995-2.382-.2984c-.776-.199-1.464-.5096-2.067-.9336-.603-.4241-1.082-.9807-1.44-1.67-.357-.6893-.535-1.5234-.535-2.5059.025-2.3331.616-4.401 1.773-6.2036 1.156-1.8026 2.645-3.1951 4.466-4.1759.836-.4502 1.68-.8027 2.529-1.054.849-.2512 1.661-.417 2.437-.4973s1.502-.0995 2.177-.0593c.676.0401 1.274.1134 1.79.2181.025-.2652.056-.5165.093-.7556s.048-.4642.037-.6753c-.013-.2129-.079-.4049-.202-.5759-.124-.1727-.333-.3385-.627-.4973-.665-.3176-1.496-.438-2.492-.3577-.996.0802-1.962.239-2.898.4763-1.109.2915-2.239.6492-3.396 1.0732l3.101-7.0778c.714-.2653 1.489-.4764 2.326-.6369.715-.1327 1.538-.2129 2.474-.2391.935-.0262 1.957.0663 3.064.2792.664.1588 1.403.3769 2.214.6561.812.2792 1.569.7294 2.27 1.3524.702.623 1.286 1.4711 1.753 2.5443.468 1.0732.702 2.4727.702 4.195 0 .2478-.065.6632-.193 1.2442zm24.014-6.2175c.185-.6509.29-1.1221.315-1.4135-.321 0-.703.014-1.147.0401l-.226.014c-.38.0262-.785.0611-1.216.1047l-.391.0401-1.199.1187c-.542.0523-1.072.0803-1.591.0803l1.159-3.0748c.095-.2565.188-.5043.275-.7416l.25-.6858c.139-.3892.27-.7609.393-1.1151l.284-.8237c.071-.2059.144-.417.219-.6317l.23-.6561c-.449.0925-1.032.185-1.748.2757l-.718.089c-.761.0943-1.554.199-2.377.3124-.96.1326-1.892.2792-2.791.438s-1.633.3315-2.2.5183c-.075.2076-.151.424-.229.6509l-.212.6177-.841 2.4989-.316.9214c-.133.3821-.275.7922-.431 1.2285l-.191.5357c-.246.0174-.489.0349-.729.0523l-2.378.1676c-.749.0523-1.332.0994-1.752.1431l-.319.0366-2.292 8.0062 4.956-.7172c-.246.8498-.549 1.7922-.906 2.8287l-.266.7783c-.264.78-.52 1.5618-.769 2.3488-.332 1.0488-.622 2.0522-.868 3.0067-.247.9563-.37 1.766-.37 2.4291l-.001.1937c-.002 1.0819.178 1.9806.537 2.6943.383.7574.9 1.3611 1.554 1.8131.653.452 1.418.7574 2.293.9162.874.1588 1.799.232 2.773.2198.974-.0139 1.96-.1064 2.958-.2792.998-.1727 1.954-.3786 2.866-.6177l2.552-7.2489c-.567.1326-1.196.253-1.886.3577-.69.1065-1.325.1257-1.905.0594s-1.055-.2583-1.424-.5776c-.369-.3194-.493-.8237-.369-1.513l.048-.2897c.201-1.1587.519-2.3575.951-3.5947.368-1.054.758-2.2092 1.173-3.4691l.344-1.0523 6.213-.7172c.086-.2304.212-.5951.38-1.0941l.208-.6178c.084-.2548.17-.5148.257-.78l.264-.8132c.218-.691.422-1.3629.606-2.012zm62.433 9.5279c.343-1.321.649-2.5618.92-3.7239l-15.231.7137-1.471 7.3692 6.474-.1186c-.073.185-.245.4293-.515.7329-.271.3036-.638.6073-1.103.9109-.467.3036-1.024.5811-1.674.8324s-1.367.4031-2.151.4554c-1.055.0786-1.925-.0523-2.612-.3961-.687-.3437-1.213-.8516-1.581-1.5251-.368-.6736-.583-1.4728-.643-2.3977s-.007-1.9422.165-3.0503c.172-1.1099.491-2.2197.956-3.3278.466-1.1099 1.054-2.1324 1.766-3.0713.711-.9371 1.521-1.7241 2.428-2.3575.907-.6335 1.889-1.0174 2.944-1.1482.956-.1327 1.673.171 2.151.9109s.584 1.8357.313 3.2894l8.277-1.1884c.441-1.6386.625-3.0643.553-4.2788-.073-1.2146-.337-2.2581-.791-3.1306s-1.042-1.5845-1.766-2.1394c-.724-.555-1.515-.9842-2.373-1.2879-.859-.3036-1.736-.4886-2.631-.5549-.896-.0663-1.736-.0593-2.52.0192-2.256.2635-4.359.958-6.308 2.0801-1.949 1.122-3.68 2.5355-5.188 4.2404-1.508 1.7032-2.772 3.6314-3.789 5.7848-1.018 2.1534-1.711 4.3922-2.079 6.7166s-.295 4.4638.22 6.4183c.516 1.9544 1.374 3.6122 2.575 4.9733 1.2 1.3611 2.697 2.3645 4.487 3.0119 1.791.6474 3.766.8254 5.924.5358 1.838-.2374 3.457-.7138 4.855-1.4257 1.398-.7137 2.618-1.5775 3.66-2.5949 1.042-1.0173 1.924-2.1534 2.649-3.408.724-1.2547 1.336-2.5495 1.838-3.8827.504-1.3402.927-2.6665 1.271-3.9874zm10.148 4.1898c-.097.52-.066.9371.091 1.2494.157.3124.387.5532.688.7225.302.1692.653.2739 1.052.3123.398.0384.779.0192 1.142-.0593l.074-.1797c.115-.2862.243-.6457.386-1.0785l.049-.1466c.192-.5985.392-1.1901.597-1.7764l.17-.4886c.111-.3176.211-.6177.305-.9022l.339-1.0435c.008-.0244.014-.0471.021-.0681l.013-.0419.003-.0122c-1.16-.2862-2.199-.1361-3.117.4485-.919.5863-1.523 1.6072-1.813 3.0643zm13.738-7.5141c-.131.5793-.298 1.2459-.5 1.9963l-.219.8044c-.189.6841-.397 1.417-.622 2.197-.217.7522-.442 1.506-.672 2.2651l-.626 2.0364c-.622 2.0191-1.301 4.1969-2.036 6.5317l-8.844 2.2249c.168-.3909.325-.78.471-1.1709.097-.2705.204-.5497.324-.8376l.509-1.1936c-.604.2862-1.293.5078-2.066.6631s-1.558.2338-2.355.2338c-.798 0-1.577-.0977-2.338-.2931-.762-.1955-1.437-.5009-2.03-.9179-.592-.4171-1.063-.9633-1.415-1.6403-.35-.6771-.524-1.4973-.524-2.4588.024-2.2912.604-4.3207 1.74-6.0902 1.135-1.7694 2.597-3.1358 4.385-4.099.822-.4433 1.649-.7871 2.484-1.0349.834-.2477 1.631-.41 2.393-.4886.761-.0785 1.474-.0977 2.138-.0593s1.251.1099 1.758.2146c.024-.26.055-.5078.091-.7416.035-.2338.048-.4554.035-.6631-.011-.2077-.077-.3961-.199-.5654-.121-.1693-.326-.3316-.616-.4886-.652-.3124-1.467-.4293-2.446-.3508-.978.0786-1.926.2339-2.845.4677-1.087.2862-2.198.6369-3.334 1.054l3.044-6.9487c.702-.26 1.462-.4677 2.283-.6247.701-.1309 1.51-.2077 2.428-.2339.919-.0261 1.922.0646 3.009.274.653.1553 1.377.3717 2.174.6439.797.274 1.541.7155 2.229 1.328.689.6125 1.262 1.4449 1.723 2.4989.46 1.054.688 2.4273.688 4.1183 0 .2425-.063.6509-.189 1.2215zm32.177-8.432-.116-.0035c-.509-.0035-1.102.1204-1.778.3752-.727.2739-1.48.6072-2.256.9999-.776.3926-1.548.8166-2.312 1.2738-.765.4572-1.439.8691-2.021 1.2355-.073-.4188-.17-.8568-.291-1.314-.122-.4572-.292-.876-.511-1.2547-.218-.3786-.503-.6997-.855-.9597-.352-.2618-.807-.4188-1.366-.4712-.849-.0523-1.699.0192-2.548.2164-.849.1954-1.627.424-2.33.6858-.824.3141-1.626.6788-2.402 1.0976l.8-2.7833c-.292-.0262-.8.0122-1.529.1169l-.368.0541c-.618.0925-1.259.1989-1.927.3193-.8.1431-1.558.3002-2.274.4712l-.131.0314c-.648.1571-1.12.2967-1.416.4188-.642 1.6892-1.219 3.2144-1.727 4.5772l-.877 2.3628c-.692 1.8829-1.183 3.4116-1.474 4.5877-.059.1885-.128.4432-.209.7661l-.112.4484c-.065.2618-.136.5428-.214.8394l-.298 1.1325-.277 1.0697c-.157.6143-.321 1.2216-.491 1.8236-.233.862-.475 1.7625-.726 2.7013l-.512 1.9265 7.608-.7451c.174-.5793.36-1.1849.558-1.8166l.243-.7713.16-.4694c.039-.1152.079-.2338.122-.3542l.766-2.225c.321-.9196.676-1.8898 1.064-2.9124.107-.2775.224-.5811.355-.9092l.246-.6195c.23-.5758.498-1.1116.801-1.6071.303-.4974.63-.9092.983-1.2355.352-.3263.747-.4764 1.183-.4502.267.0261.437.2286.51.6072.073.3787.08.8691.018 1.4711-.06.602-.181 1.2808-.365 2.0382-.181.7573-.382 1.5286-.601 2.3139-.534 1.8567-1.224 3.9473-2.075 6.2734 1.819.2879 3.422.3525 4.805.1954 1.384-.157 2.524-.3926 3.422-.705.583-1.7258 1.178-3.4115 1.784-5.0588l.179-.4921c.533-1.4676 1.007-2.8723 1.423-4.2143.389-.7573.776-1.3454 1.165-1.7642s.91-.602 1.565-.5497c.267.0262.424.2688.473.726.048.4572.024 1.0522-.073 1.7834s-.254 1.5688-.473 2.5093c-.219.9406-.462 1.8952-.728 2.8619-.573 2.0679-1.297 4.394-2.172 6.9801l-.267.7836 8.226-.5096c1.7-4.3922 2.949-8.3378 3.749-11.8418.341-1.4903.606-2.9474.801-4.3713.194-1.424.236-2.6996.128-3.8234-.109-1.1238-.4-2.0382-.874-2.7449-.473-.7067-1.19-1.0715-2.161-1.0976zm19.975 6.5386c0-.274-.056-.5095-.164-.705-.109-.1954-.298-.3071-.564-.3333-1.359-.157-2.403.0593-3.13.6474s-1.298 1.3664-1.711 2.3331c.292.0786.674.1169 1.147.1169s.964-.0069 1.475-.0192c.408-.0104.795-.0244 1.164-.0436l.53-.0296c.326-.0175.587-.0245.781-.0245.122-.3403.23-.6788.327-1.0191.098-.3403.145-.6491.145-.9231zm-.24 7.0883-.925.0873c-1.238.1169-2.445.2216-3.623.3141-1.178.0907-2.25.1378-3.222.1378-.146.2356-.274.5951-.383 1.0785-.108.4833-.132.9737-.073 1.471.06.4974.219.9284.474 1.2931.254.3647.673.5497 1.255.5497.365 0 .668-.0524.911-.1571s.466-.2617.674-.4711c.205-.2094.406-.4712.601-.7835l.171-.281c.149-.246.31-.5183.483-.8167l8.7.9406c-.51 1.2023-1.134 2.3401-1.874 3.4116-.741 1.0714-1.627 2.012-2.657 2.8234-1.031.8115-2.209 1.4571-3.532 1.9405-1.322.4834-2.821.7381-4.496.7643-1.554.0262-2.833-.2286-3.841-.7643s-1.808-1.2739-2.403-2.2162c-.594-.9423-1.007-2.026-1.238-3.2545-.23-1.2285-.345-2.5093-.345-3.8426 0-2.2214.365-4.2142 1.092-5.9802.686-1.6613 1.596-3.3155 2.733-4.9646l.216-.3089c.825-1.2023 1.887-2.2999 3.185-3.2929 1.298-.9929 2.688-1.731 4.169-2.2161 1.48-.4852 2.985-.6475 4.513-.4904s2.949.7713 4.259 1.8428c.704.5758 1.245 1.4187 1.62 2.5285.376 1.1116.606 2.3.692 3.5686s.036 2.5024-.146 3.7047c-.181 1.2023-.49 2.1953-.928 2.9805-1.019 0-2.129.0524-3.331.1571-.899.0768-1.809.1588-2.731.246zm25.698-6.8963 6.244-3.5966c-.217-1.1203-.763-2.0399-1.633-2.7571s-1.901-1.218-3.085-1.506c-1.186-.2862-2.45-.3717-3.793-.2547-1.343.1169-2.606.424-3.792.9196-.279.1204-.631.2862-1.053.4991l-.401.2041c-.604.3124-1.245.6911-1.924 1.1343s-1.361.958-2.051 1.5444c-.691.5863-1.295 1.232-1.815 1.9352-.52.7033-.92 1.4728-1.197 2.3069-.277.8342-.357 1.7067-.237 2.6193.073.548.308 1.0104.708 1.3873.399.3787.859.7033 1.379.9773.52.2739 1.058.4955 1.615.6648.371.1134.705.2112 1 .2949l.415.1152 1.869.5863c.666.2077 1.27.4363 1.815.6841.544.2478.986.5025 1.325.7626.339.26.471.5479.399.8603-.073.3123-.242.6003-.509.8603-.268.26-.569.4764-.907.6456-.339.1693-.691.3002-1.054.3909-.362.0908-.701.1239-1.015.0977-.678-.0785-1.228-.1692-1.651-.2739s-.775-.274-1.053-.5078c-.279-.2339-.52-.534-.726-.8987-.165-.2915-.348-.6509-.553-1.0767l-.155-.3316c-.339.26-.799.5672-1.379.9197l-.583.3542c-.39.2373-.783.4781-1.178.7207l-1.808 1.1098c-.473.2949-.831.5497-1.077.7661-.049.6771.031 1.4013.236 2.1708.206.7696.575 1.4659 1.107 2.0923.533.6247 1.246 1.1395 2.142 1.5444.896.4048 2.02.5933 3.376.5671 2.226-.0523 4.175-.3787 5.844-.9772 1.668-.5985 3.073-1.3611 4.21-2.2877 1.138-.9249 2.027-1.9615 2.669-3.1079.641-1.1465 1.057-2.307 1.252-3.4796.097-.548.084-1.1012-.036-1.6613-.121-.5602-.327-1.0819-.617-1.5636-.29-.4816-.648-.9056-1.071-1.2704-.423-.3647-.901-.6386-1.434-.8219l-1.39-.5462c-.495-.1954-1.019-.4118-1.568-.6456-.642-.274-1.246-.548-1.814-.8219-.569-.274-.95-.5026-1.144-.6841-.266-.2338-.345-.4764-.237-.7242.109-.2478.332-.4764.673-.684.338-.2077.738-.3787 1.197-.5078.46-.1309.896-.2216 1.307-.274.75-.0524 1.379.0785 1.888.3909.507.3141.931.691 1.27 1.1343z" fill="#f00"/></g><path d="m240 14.1264c0-.7439.171-1.4344.514-2.0715.346-.6371.823-1.1379 1.43-1.5025.612-.3683 1.271-.5524 1.978-.5524s1.364.1841 1.972.5524c.608.3646 1.083.8654 1.425 1.5025.346.6371.52 1.3276.52 2.0715 0 .7255-.166 1.4049-.498 2.0384-.331.6334-.802 1.1434-1.414 1.5301-.607.383-1.276.5745-2.005.5745-.725 0-1.394-.1897-2.005-.569-.608-.383-1.079-.8912-1.414-1.5246s-.503-1.3165-.503-2.0494zm.635 0c0 .6334.148 1.2208.442 1.7622.295.5376.694.9593 1.199 1.2649.508.3057 1.057.4585 1.646.4585.593 0 1.143-.1546 1.652-.464.508-.313.906-.7365 1.193-1.2705.291-.534.436-1.1177.436-1.7511 0-.6297-.145-1.2097-.436-1.74-.287-.534-.685-.9538-1.193-1.2595-.509-.3094-1.059-.464-1.652-.464-.589 0-1.138.1528-1.646.4585-.508.3019-.91.7218-1.204 1.2594-.291.5377-.437 1.1196-.437 1.7456zm2.475.4143v1.8671h-.779v-4.6898h1.525c.563 0 1 .1215 1.309.3645.313.2394.469.5893.469 1.0496 0 .453-.235.7991-.707 1.0385.45.1841.676.5598.68 1.1269v.337c0 .3167.031.545.094.6849v.0884h-.801c-.052-.1326-.078-.3683-.078-.7071 0-.3424-.005-.545-.016-.6076-.059-.3535-.3-.5377-.724-.5524zm0-.7071h.862c.265-.0073.478-.0718.641-.1933.162-.1215.243-.2817.243-.4806 0-.2688-.072-.4585-.216-.569-.143-.1141-.399-.1712-.768-.1712h-.762z" fill="#000"/></svg>