<svg width="68" height="42" fill="none" xmlns="http://www.w3.org/2000/svg"><g clip-path="url(#a)"><path d="M33.764 42c11.598 0 21-9.402 21-21 0-11.597-9.402-20.999-21-20.999s-21 9.402-21 21c0 11.597 9.402 20.998 21 20.998Z" fill="#3E96EE"/><path d="M33.73 28.69c18.627 0 33.728-3.479 33.728-7.77 0-4.29-15.1-7.769-33.729-7.769C15.101 13.151 0 16.63 0 20.921c0 4.29 15.101 7.769 33.73 7.769Z" fill="#29C629"/><path d="M12.766 12.016h-7.54v5.89h7.54v-5.89Zm45.766 0h-7.54v5.89h7.54v-5.89Z" fill="#FFF737"/><path d="M6.86 20.695a5.17 5.17 0 0 1-1.655-.26 4.67 4.67 0 0 1-1.924-1.206 4.688 4.688 0 0 1-1.11-1.978c-.213-.751-.246-1.57-.099-2.436a8.18 8.18 0 0 1 .778-2.335 8.438 8.438 0 0 1 1.411-2 7.756 7.756 0 0 1 1.96-1.487 6.717 6.717 0 0 1 2.471-.754 6.23 6.23 0 0 1 1-.008 4.67 4.67 0 0 1 1.134.222c.39.128.753.311 1.082.546.377.268.686.614.918 1.028.234.417.37.902.405 1.442.033.506-.04 1.057-.222 1.684a1.214 1.214 0 0 1-1.005.865l-2.64.352a1.214 1.214 0 0 1-1.308-.811 4.055 4.055 0 0 0-.376.68 4.86 4.86 0 0 0-.235.648l-.001.002c-.066.246-.108.49-.126.726-.009.12-.005.21.004.278a.728.728 0 0 0 .214-.047.72.72 0 0 0 .184-.109.544.544 0 0 0 .11-.127c.046-.074.08-.147.106-.223a1.213 1.213 0 0 1 1.213-.828l2.968.152a1.215 1.215 0 0 1 1.11 1.53 5.545 5.545 0 0 1-.867 1.837 5.846 5.846 0 0 1-1.333 1.317 6.625 6.625 0 0 1-1.636.84c-.57.2-1.163.34-1.763.412a6.21 6.21 0 0 1-.768.049Zm-.638-8.741a6.015 6.015 0 0 0-1.209 1.628 5.74 5.74 0 0 0-.547 1.641c-.087.506-.073.965.041 1.366.11.39.285.706.533.966.247.26.553.449.938.578.193.065.401.106.623.124a2.032 2.032 0 0 1-.768-.362 2.338 2.338 0 0 1-.81-1.183 3.469 3.469 0 0 1-.126-1.279c.03-.387.097-.781.202-1.172a7.193 7.193 0 0 1 .957-2.08 4.69 4.69 0 0 1 .166-.227Zm3.584 5.069a2.98 2.98 0 0 1-.662.681 4.01 4.01 0 0 0 .479-.29c.157-.112.306-.238.443-.378l-.26-.013Zm-.397-6.377c.134.055.245.123.334.188l.002.002a1.792 1.792 0 0 1 .648.947l.418-.056c0-.038 0-.072-.002-.1a1.008 1.008 0 0 0-.1-.413.7.7 0 0 0-.208-.238 1.588 1.588 0 0 0-.432-.217 2.24 2.24 0 0 0-.66-.113Z" fill="#FFF737"/><path d="M15.554 20.035c-.669 0-1.29-.142-1.847-.424a4.059 4.059 0 0 1-1.424-1.185 4.448 4.448 0 0 1-.778-1.703 5.047 5.047 0 0 1-.036-2.005 6.621 6.621 0 0 1 .618-1.867 5.993 5.993 0 0 1 1.148-1.573 5.38 5.38 0 0 1 1.642-1.097 5.453 5.453 0 0 1 2.012-.433h.015a4.101 4.101 0 0 1 1.9.413 3.983 3.983 0 0 1 1.437 1.194c.367.49.627 1.064.774 1.704.146.634.158 1.308.037 2.005a6.102 6.102 0 0 1-.673 1.91 6.34 6.34 0 0 1-1.206 1.559c-.48.45-1.025.814-1.62 1.08a4.749 4.749 0 0 1-2 .422Zm-1.53-5.544c-.07.208-.125.423-.163.643-.066.378-.062.73.01 1.045l.007.028a4.145 4.145 0 0 1 .018-.933c.03-.23.061-.43.096-.609.01-.058.02-.116.033-.174Zm4.66-.699c-.006.21-.028.426-.067.644-.045.259-.088.49-.13.69l-.001.006a4.254 4.254 0 0 1-.125.459c.142-.3.242-.616.299-.943.054-.308.062-.59.024-.856Z" fill="#FFF737"/><path d="M23.179 20.035c-.669 0-1.29-.142-1.847-.424a4.059 4.059 0 0 1-1.424-1.185 4.448 4.448 0 0 1-.778-1.703 5.047 5.047 0 0 1-.036-2.005 6.621 6.621 0 0 1 .618-1.867 5.993 5.993 0 0 1 1.148-1.573 5.38 5.38 0 0 1 1.642-1.097 5.453 5.453 0 0 1 2.012-.433h.015a4.102 4.102 0 0 1 1.9.413 3.983 3.983 0 0 1 1.437 1.194c.367.49.627 1.064.774 1.704.146.634.158 1.308.037 2.005a6.102 6.102 0 0 1-.673 1.91 6.34 6.34 0 0 1-1.206 1.559c-.48.45-1.025.814-1.62 1.08a4.749 4.749 0 0 1-2 .422Zm-1.53-5.544c-.07.208-.125.423-.163.643-.066.378-.062.73.01 1.045l.007.028a4.139 4.139 0 0 1 .018-.933c.03-.23.061-.43.096-.609.01-.058.02-.116.033-.174Zm4.66-.699c-.006.21-.028.426-.067.644-.045.259-.088.49-.13.69l-.001.006a4.254 4.254 0 0 1-.125.459c.142-.3.242-.616.299-.943.054-.308.062-.59.024-.856Z" fill="#FFF737"/><path d="M26.788 20.188a1.213 1.213 0 0 1-1.144-1.62l3.32-9.372c.161-.455.576-.77 1.057-.806l2.92-.211a1.214 1.214 0 0 1 1.238 1.6l-3.097 9.15c-.147.435-.528.75-.983.813l-3.144.434a1.194 1.194 0 0 1-.166.012Zm4.2-9.434-2.39 6.744.425-.058 2.27-6.708-.306.022Z" fill="#FFF737"/><path d="M38.566 19.882a1.214 1.214 0 0 1-1.188-.967 8.538 8.538 0 0 1-.714.104c-.545.057-1.168.035-1.852-.065a1.214 1.214 0 0 1-.305-.087c-.188.165-.427.27-.687.294l-2.452.223a1.214 1.214 0 0 1-1.277-1.542 358.355 358.355 0 0 1 .555-1.92c.05-.183.1-.362.149-.532.045-.157.084-.299.117-.423.037-.139.069-.25.097-.34a14.4 14.4 0 0 1 .51-1.473c.226-.57.51-1.273.845-2.09.127-.31.375-.553.687-.673.162-.062.375-.122.673-.187.25-.055.517-.107.795-.153.272-.045.534-.085.778-.117.338-.045.563-.057.753-.042.29.024.56.152.763.356l.15-.034a4.303 4.303 0 0 1 1.144-.09l.038.003a2.1 2.1 0 0 1 1.022.35c.152.105.288.226.406.361.107-.053.214-.105.32-.155.286-.134.569-.25.841-.346a2.83 2.83 0 0 1 1.053-.179c.685.02 1.267.315 1.64.831.278.384.448.857.505 1.406.045.435.03.921-.047 1.446a15.4 15.4 0 0 1-.28 1.42c-.272 1.104-.698 2.355-1.267 3.72a1.214 1.214 0 0 1-1.05.746l-2.652.152a1.087 1.087 0 0 1-.07.002Zm1.914-6.78c.249.213.439.533.488.963.028.244.02.52-.027.844a8.77 8.77 0 0 1-.177.874 21.793 21.793 0 0 1-.455 1.569l.07-.004c.38-.976.672-1.87.868-2.666.1-.405.179-.807.236-1.194a3.44 3.44 0 0 0 .034-.84v-.013c-.19.067-.39.15-.594.246a10.48 10.48 0 0 0-.443.22Zm-4.02-.188c.348.195.6.541.69.974.05.24.058.507.024.816a5.466 5.466 0 0 1-.149.784c-.061.24-.131.488-.206.736 0 .004-.002.008-.003.01-.033.109-.069.22-.106.332l.018-.003c.118-.313.238-.622.358-.924a26.9 26.9 0 0 0 .493-1.344 1.21 1.21 0 0 1 .088-.202c.155-.28.315-.511.487-.702-.17-.17-.29-.391-.335-.635a2.849 2.849 0 0 0-.048-.21c-.1.006-.198.02-.3.04a5.309 5.309 0 0 0-.605.165 5.675 5.675 0 0 0-.406.162Zm-2.08-.368a178.55 178.55 0 0 0-.604 1.5 11.97 11.97 0 0 0-.452 1.31 4.184 4.184 0 0 0-.08.285 36.111 36.111 0 0 1 .483-1.185c.102-.236.223-.46.359-.667.158-.241.34-.45.537-.621a1.8 1.8 0 0 1 .365-.244 1.21 1.21 0 0 1-.371-.425c-.08.015-.16.03-.237.047Z" fill="#FFF737"/><path d="M45.656 20.562a1.213 1.213 0 0 1-1.096-.692 4.46 4.46 0 0 1-.95-.12 3.269 3.269 0 0 1-1.038-.442 2.588 2.588 0 0 1-.85-.919 2.704 2.704 0 0 1-.323-1.328v-.014c.01-.93.271-1.772.775-2.504.295-.428.645-.8 1.046-1.11a1.212 1.212 0 0 1 .095-.75l.985-2.087c.14-.296.393-.523.703-.63.286-.098.596-.178.923-.235l.005-.001c.283-.049.606-.078.96-.088a6.123 6.123 0 0 1 1.269.11c.245.055.517.13.808.223.405.128.784.337 1.126.618.362.299.659.693.884 1.172.227.485.338 1.059.338 1.753 0 .185-.032.393-.105.694-.05.207-.117.45-.196.72a49.386 49.386 0 0 1-.558 1.783c-.231.7-.496 1.493-.789 2.355a1.214 1.214 0 0 1-.873.792l-2.862.669a1.215 1.215 0 0 1-.277.031Zm2.317-4.07-.12.334a5.936 5.936 0 0 1-.208.533 1.21 1.21 0 0 1-.226.331l.166-.039c.137-.406.266-.794.388-1.16Zm-4.128.721c.019.034.037.05.058.064a.858.858 0 0 0 .272.11 2.032 2.032 0 0 0 .579.053 1.73 1.73 0 0 1-.212-.306c-.13-.239-.262-.641-.151-1.191l.003-.016a3.39 3.39 0 0 1 .113-.403 2.67 2.67 0 0 0-.334.395 2.01 2.01 0 0 0-.346 1.148c0 .1.015.14.018.146Zm2.548-1.517Zm1.828-1.189.014.025c.12.215.172.46.15.7l.054-.168c.089-.287.172-.56.246-.813.07-.237.125-.444.168-.617.02-.085.03-.135.035-.16-.005-.398-.069-.595-.108-.678a.963.963 0 0 0-.23-.33 1.18 1.18 0 0 0-.083-.063c.124.208.197.442.213.685v.004c.01.154.001.313-.026.473a2.102 2.102 0 0 0-.018.142c-.031.311-.18.597-.415.8Z" fill="#FFF737"/><path d="M53.19 20.487c-.351 0-.692-.028-1.014-.082a3.136 3.136 0 0 1-1.18-.445 2.639 2.639 0 0 1-.904-.976c-.22-.407-.328-.893-.317-1.445a3.92 3.92 0 0 1 .162-1.026c.079-.286.174-.591.28-.907a1.213 1.213 0 0 1-.951-1.554l.727-2.358a1.212 1.212 0 0 1 1.019-.847c.155-.019.39-.038.72-.059l.204-.013a99.11 99.11 0 0 0 .3-.83 23.2 23.2 0 0 1 .13-.347c.135-.349.423-.616.78-.725A6.73 6.73 0 0 1 54 8.684c.295-.048.607-.094.928-.135.31-.04.61-.076.893-.108.306-.034.48-.062.571-.08a1.214 1.214 0 0 1 1.361 1.626c-.059.156-.117.309-.17.455l-.021.056a1.213 1.213 0 0 1 1.205 1.325c-.016.176-.062.38-.148.661a17.17 17.17 0 0 1-.207.634l-.21.596c-.072.198-.125.339-.161.43-.167.418-.551.71-.998.758l-1.212.13a48.399 48.399 0 0 1-.248.672l.075-.016a1.214 1.214 0 0 1 1.393 1.616l-.81 2.135a1.212 1.212 0 0 1-.848.75 13.58 13.58 0 0 1-1.003.2 7.678 7.678 0 0 1-1.2.098Zm-.964-2.66a.224.224 0 0 0 .08.09.757.757 0 0 0 .275.094c.204.035.427.05.663.048a5.21 5.21 0 0 0 .636-.049 1.915 1.915 0 0 1-.376-.236c-.472-.377-.674-.963-.554-1.608.075-.438.202-.895.375-1.356.145-.385.303-.824.471-1.304.155-.443.55-.757 1.017-.807l.061-.007a1.213 1.213 0 0 1-.27-1.319l.14-.348-.336.053-.035.1-.192.525a35.58 35.58 0 0 1-.253.67c-.17.44-.58.742-1.051.773l-.247.017a1.216 1.216 0 0 1 .527 1.398 18.28 18.28 0 0 1-.308.894c-.109.291-.216.591-.318.89-.098.288-.184.563-.255.818a1.587 1.587 0 0 0-.073.391v.028a.686.686 0 0 0 .024.245Z" fill="#FFF737"/><path d="M61.415 20.498a9.6 9.6 0 0 1-1.558-.14 1.214 1.214 0 0 1-1.008-1.072l-2.3.136a1.214 1.214 0 0 1-1.244-1.523c.141-.533.281-1.04.416-1.51a133.1 133.1 0 0 0 .447-1.628 4.835 4.835 0 0 0 .081-.309 44.055 44.055 0 0 1 .399-1.31c.096-.3.202-.623.317-.962.11-.327.227-.67.348-1.023.122-.351.245-.697.367-1.028.126-.341.248-.655.362-.933.135-.326.404-.578.739-.69a3.67 3.67 0 0 1 .491-.117 14.675 14.675 0 0 1 1.223-.168 64.9 64.9 0 0 1 .617-.054c.204-.016.39-.029.553-.038.227-.01.39-.01.53.006a1.213 1.213 0 0 1 1.01 1.614l-.392 1.103c.227-.01.455-.005.682.013l.015.001c.748.068 1.334.338 1.74.801.37.42.583.946.638 1.563a5.167 5.167 0 0 1-.138 1.6 16.07 16.07 0 0 1-.45 1.56 40.437 40.437 0 0 1-.587 1.604 74.038 74.038 0 0 0-.572 1.512c-.135.37-.44.65-.818.754-.394.109-.869.181-1.45.223-.147.01-.3.015-.458.015Zm.788-3.529a28.77 28.77 0 0 1-.39 1.084c.106-.01.202-.019.288-.029.112-.297.229-.602.35-.911.2-.514.385-1.02.55-1.506.159-.464.288-.91.383-1.324.076-.33.105-.613.085-.84a.594.594 0 0 0-.025-.134.959.959 0 0 0-.148-.024 3.27 3.27 0 0 0-.727.025c.142.205.24.467.264.786.02.266-.003.568-.071.922-.055.287-.136.61-.24.96-.098.324-.205.658-.319.991Zm-3.61-1.88a7.78 7.78 0 0 1-.091.34 30.71 30.71 0 0 0-.123.449 96.142 96.142 0 0 1-.28 1.02l.233-.013a32.27 32.27 0 0 1 .365-1.13 17.2 17.2 0 0 1 .414-1.095c.07-.17.155-.348.253-.528a3.39 3.39 0 0 1 .42-.611c.085-.098.176-.189.272-.272a1.213 1.213 0 0 1-.24-1.217l.48-1.346a6.5 6.5 0 0 0-.245.035l-.093.25c-.116.315-.234.644-.35.978-.119.347-.234.686-.342 1.007a64.448 64.448 0 0 0-.539 1.677c-.06.204-.105.353-.134.456ZM15.135 32.736c-.615 0-1.2-.092-1.747-.275a4.92 4.92 0 0 1-2.03-1.271 4.943 4.943 0 0 1-1.169-2.085c-.225-.794-.26-1.66-.104-2.575a8.68 8.68 0 0 1 .826-2.481c.4-.786.905-1.5 1.5-2.125a8.228 8.228 0 0 1 2.081-1.58 7.125 7.125 0 0 1 2.618-.799 6.607 6.607 0 0 1 1.058-.009 4.94 4.94 0 0 1 1.196.234c.41.135.792.328 1.138.574.393.28.716.642.96 1.075.243.435.386.943.422 1.51.03.465-.024.967-.166 1.528a1.214 1.214 0 0 1 .46 1.274c-.095.38-.204.79-.323 1.216-.13.462-.29.931-.479 1.395-.197.485-.44.962-.723 1.417a6.29 6.29 0 0 1-1.122 1.343 6.344 6.344 0 0 1-1.548 1.021 6.585 6.585 0 0 1-2.034.561 6.56 6.56 0 0 1-.813.052Zm-1.027-9.073a6.567 6.567 0 0 0-1.034 1.488 6.259 6.259 0 0 0-.596 1.787c-.095.556-.08 1.061.046 1.504.123.433.317.784.593 1.074.275.29.616.5 1.043.643.436.146.937.186 1.49.117l.006-.001a4.18 4.18 0 0 0 1.287-.345c.351-.166.66-.366.92-.593a4.5 4.5 0 0 1-.288.192 4.412 4.412 0 0 1-.792.368c-.327.118-.686.19-1.066.213-.565.04-1.065-.04-1.486-.236a2.39 2.39 0 0 1-1.075-.97 2.93 2.93 0 0 1-.385-1.291 5.36 5.36 0 0 1 .07-1.255c.075-.454.216-.911.419-1.358a5.626 5.626 0 0 1 .848-1.336Zm3.692 3.128a1.214 1.214 0 0 1 .827 1.63 6.93 6.93 0 0 0 .5-.992c.095-.235.182-.472.259-.707l-1.586.07Zm-.852-4.604c.654 0 1.223.29 1.592.819.08.116.148.238.203.369l.718-.096a1.577 1.577 0 0 0 0-.193 1.148 1.148 0 0 0-.118-.48.853.853 0 0 0-.25-.285 1.791 1.791 0 0 0-.487-.244 2.492 2.492 0 0 0-.604-.119 4.175 4.175 0 0 0-.657.004 4.638 4.638 0 0 0-1.708.523l-.017.009a3.5 3.5 0 0 1 1.04-.289c.098-.012.194-.018.288-.018Z" fill="#FFF737"/><path d="M24.14 32.593a1.215 1.215 0 0 1-1.12-.743 4.708 4.708 0 0 1-1.055-.127c-.4-.095-.765-.25-1.086-.462a2.69 2.69 0 0 1-.885-.954 2.815 2.815 0 0 1-.334-1.382v-.014c.011-.98.286-1.868.816-2.638a5.218 5.218 0 0 1 1.149-1.207 1.214 1.214 0 0 1 .082-.801l1.058-2.24a1.21 1.21 0 0 1 .702-.63 6.43 6.43 0 0 1 .978-.25h.005a6.966 6.966 0 0 1 1.017-.093 6.467 6.467 0 0 1 1.34.116c.261.058.55.137.86.236.424.135.82.353 1.178.648.379.312.69.725.925 1.227.239.508.354 1.111.354 1.843 0 .192-.033.408-.11.724-.055.223-.123.475-.21.77a54.855 54.855 0 0 1-.597 1.909c-.248.752-.533 1.602-.847 2.527a1.214 1.214 0 0 1-.873.792l-3.071.717a1.215 1.215 0 0 1-.277.032Zm1.52-2.823a.109.109 0 0 1 .004.007l.614-.144c.227-.673.436-1.3.624-1.869l.001-.003a53.048 53.048 0 0 0 .572-1.827c.075-.256.136-.48.181-.666.025-.102.036-.16.041-.186-.004-.45-.08-.676-.124-.772a1.1 1.1 0 0 0-.271-.385 1.108 1.108 0 0 0-.37-.208l-.06-.018c.037.038.071.079.104.121l.003.004c.188.245.297.536.317.843v.003c.01.159 0 .323-.027.488-.008.05-.015.104-.02.159a1.214 1.214 0 0 1-.474.847 1.213 1.213 0 0 1 .147 1.07 32.205 32.205 0 0 1-.31.866c-.068.178-.134.36-.198.543a6.369 6.369 0 0 1-.22.564c-.113.243-.302.44-.533.562Zm-3.572-.84c0 .146.028.197.03.199a.265.265 0 0 0 .092.102c.087.056.194.1.32.13.17.04.347.061.527.061a3.2 3.2 0 0 0 .31-.014 1.764 1.764 0 0 1-.344-.448c-.193-.355-.245-.765-.154-1.219l.003-.015a3.15 3.15 0 0 1 .26-.757c-.254.185-.47.41-.656.68-.254.368-.381.788-.388 1.281Z" fill="#FFF737"/><path d="M36.358 31.863a1.214 1.214 0 0 1-1.203-1.053 8.857 8.857 0 0 1-.847.127c-.578.061-1.24.038-1.965-.069a1.21 1.21 0 0 1-.357-.11 1.22 1.22 0 0 1-.73.332l-2.63.24a1.214 1.214 0 0 1-1.277-1.543 373.219 373.219 0 0 1 .595-2.062c.054-.197.108-.389.16-.57.048-.169.09-.322.126-.455.039-.148.073-.268.104-.363.114-.42.292-.936.545-1.573.241-.611.546-1.365.905-2.242.127-.31.376-.553.688-.673.169-.065.394-.127.709-.197.266-.059.552-.113.849-.163.29-.048.57-.09.832-.126.356-.047.592-.06.789-.044.307.025.591.166.797.391l.209-.047a4.529 4.529 0 0 1 1.204-.094l.037.002c.404.036.758.157 1.054.36l.002.002c.176.121.33.263.463.424.135-.069.27-.134.403-.197.304-.143.605-.267.895-.368.398-.14.757-.2 1.098-.187.707.021 1.307.325 1.69.855.29.4.466.893.526 1.466.048.46.031.974-.05 1.53a16.427 16.427 0 0 1-.3 1.517c-.29 1.179-.746 2.518-1.355 3.98a1.214 1.214 0 0 1-1.05.744l-2.846.164a1.359 1.359 0 0 1-.07.002Zm1.893-7.202c.127.09.24.201.331.332.145.206.235.451.266.727.03.254.02.542-.029.883-.04.276-.103.589-.188.929-.079.317-.168.644-.266.97-.078.264-.166.542-.26.83l.262-.014c.42-1.072.74-2.053.955-2.925.107-.437.193-.872.255-1.29.051-.355.064-.666.037-.924a1.323 1.323 0 0 0-.018-.12c-.023.006-.05.015-.08.025a7.137 7.137 0 0 0-.666.275c-.198.092-.4.194-.599.302ZM31.802 24c-.257.633-.48 1.188-.666 1.657a12.972 12.972 0 0 0-.487 1.41c-.01.028-.032.1-.073.254-.039.148-.085.317-.138.501l-.155.55c-.035.13-.071.255-.107.378l.07-.006.03-.088.008-.024c.093-.253.201-.547.323-.874a35.487 35.487 0 0 1 .64-1.594 4.53 4.53 0 0 1 .378-.702c.165-.252.354-.47.56-.648.16-.138.335-.245.521-.319a1.212 1.212 0 0 1-.535-.566c-.127.023-.25.047-.369.072Zm2.088.472c.435.173.758.56.862 1.064.052.249.06.527.025.85a5.85 5.85 0 0 1-.158.828c-.066.256-.14.52-.22.787l-.003.01a20.84 20.84 0 0 1-.158.49c.077-.01.148-.02.214-.031.132-.353.267-.7.4-1.04.202-.505.38-.992.532-1.446a1.21 1.21 0 0 1 .088-.202c.18-.327.367-.59.57-.8a1.214 1.214 0 0 1-.398-.694 3.526 3.526 0 0 0-.07-.3c-.136.003-.27.018-.408.048a5.825 5.825 0 0 0-.661.18 6.06 6.06 0 0 0-.614.255Z" fill="#FFF737"/><path d="M43.84 32.405c-.69 0-1.294-.125-1.794-.372a3.323 3.323 0 0 1-1.297-1.117 4.047 4.047 0 0 1-.614-1.487 7.455 7.455 0 0 1-.144-1.474c0-.881.162-1.693.483-2.413a9.761 9.761 0 0 1 1.158-1.929 6.05 6.05 0 0 1 1.37-1.318 6.197 6.197 0 0 1 1.791-.883 5.223 5.223 0 0 1 2.029-.204 4.057 4.057 0 0 1 2.091.833c.43.326.756.785.967 1.362.168.461.272.957.31 1.474.035.5.014.996-.064 1.473-.087.537-.248 1.003-.478 1.386-.06.102-.136.193-.22.27.071.27.05.559-.07.818-.21.462-.472.905-.778 1.316a5.53 5.53 0 0 1-1.178 1.163 5.754 5.754 0 0 1-1.546.792 6.29 6.29 0 0 1-2.016.31Zm-.277-7.32c-.367.482-.66.968-.871 1.443-.181.408-.273.888-.273 1.427 0 .346.032.68.095.993.048.237.127.434.242.602.088.13.204.227.365.306.106.053.3.113.644.12a1.636 1.636 0 0 1-.907-.601 2.067 2.067 0 0 1-.395-.986 2.484 2.484 0 0 1 .05-.916c.072-.297.17-.537.3-.733.19-.282.486-.47.815-.524a1.214 1.214 0 0 1-.065-1.131Zm2.277 4.212a2.478 2.478 0 0 1-.317.314 3.056 3.056 0 0 0 .485-.297l-.168-.017Zm1.939-3.997c-.018.104-.043.21-.076.317a6.497 6.497 0 0 1-.107.317l.14-.009a3.81 3.81 0 0 0 .043-.625Z" fill="#FFF737"/><path d="M51.304 32.178c-.6 0-1.11-.09-1.554-.277a3.283 3.283 0 0 1-1.169-.797 2.885 2.885 0 0 1-.655-1.157 3.196 3.196 0 0 1-.126-1.128c.026-.33.185-.637.443-.847.147-.121.333-.244.583-.386l.583-.332.025-.014a1.918 1.918 0 0 1-.542-1.09 2.94 2.94 0 0 1 .14-1.426c.141-.392.346-.759.609-1.088.237-.298.515-.574.827-.82a8.38 8.38 0 0 1 .833-.581 9.813 9.813 0 0 1 1.35-.681l.012-.005a5.897 5.897 0 0 1 1.656-.374 5.596 5.596 0 0 1 1.68.107c.581.13 1.1.368 1.54.704.532.407.883.96 1.018 1.604.11.527-.14 1.065-.615 1.319l-1.308.7a2.794 2.794 0 0 1 .771 1.372c.08.343.088.69.025 1.03a4.51 4.51 0 0 1-.588 1.527 4.795 4.795 0 0 1-1.234 1.343c-.498.377-1.107.686-1.808.92-.692.23-1.494.357-2.384.376h-.005l-.107.001Zm-.91-2.691c.05.047.139.11.293.175.086.035.288.094.678.088a8.24 8.24 0 0 0 .264-.01 2.094 2.094 0 0 1-.878-.457l-.138.078-.22.126Zm4.364-2.256c.119.197.189.416.203.642.036-.1.063-.198.08-.295l.003-.013c0-.005.002-.013-.003-.035a.36.36 0 0 0-.05-.117.516.516 0 0 0-.112-.123.322.322 0 0 0-.107-.055c-.005 0-.01-.003-.014-.004Zm-3.462-1.61a2.137 2.137 0 0 0 .41.164c.136.04.255.072.358.098a1.384 1.384 0 0 1-.277-1.003c-.09.086-.173.175-.247.268a1.379 1.379 0 0 0-.223.397.498.498 0 0 0-.021.076Z" fill="#FFF737"/><path d="M12.055 15.923a4.318 4.318 0 0 1-.674 1.437 4.61 4.61 0 0 1-1.056 1.044 5.404 5.404 0 0 1-1.337.686c-.49.172-.992.29-1.508.352-.688.086-1.318.033-1.889-.158a3.455 3.455 0 0 1-1.43-.892 3.468 3.468 0 0 1-.822-1.472c-.164-.579-.187-1.212-.07-1.9.117-.688.338-1.35.663-1.988a7.197 7.197 0 0 1 1.208-1.713 6.506 6.506 0 0 1 1.654-1.255 5.486 5.486 0 0 1 2.012-.616c.25-.024.518-.025.803-.006.286.02.565.075.839.164.274.09.526.217.757.382.23.164.418.375.563.633.144.258.228.567.252.927.024.36-.035.782-.176 1.267l-2.64.352a4.03 4.03 0 0 0 .07-.593 1.289 1.289 0 0 0-.052-.469.579.579 0 0 0-.199-.293c-.09-.067-.213-.088-.37-.065a1.76 1.76 0 0 0-.903.375c-.266.212-.497.46-.692.745-.196.286-.36.583-.493.892a5.182 5.182 0 0 0-.457 1.765c-.023.313.002.59.076.833.075.243.203.434.387.575.184.14.444.2.78.176a1.91 1.91 0 0 0 1.161-.451c.142-.122.259-.259.353-.411a2.28 2.28 0 0 0 .223-.475l2.968.152Zm7.801-1.067a4.871 4.871 0 0 1-.54 1.531c-.266.48-.59.901-.973 1.26a4.61 4.61 0 0 1-1.285.857 3.522 3.522 0 0 1-1.449.317 2.86 2.86 0 0 1-1.354-.293 2.839 2.839 0 0 1-1.003-.833 3.228 3.228 0 0 1-.563-1.244 3.83 3.83 0 0 1-.024-1.525c.094-.54.262-1.047.505-1.525a4.75 4.75 0 0 1 .915-1.255 4.155 4.155 0 0 1 2.838-1.185 2.88 2.88 0 0 1 1.344.288c.402.2.737.477 1.003.833.265.356.453.772.563 1.249.109.477.117.985.023 1.525Zm-2.557.024c.039-.188.08-.405.123-.652a3.11 3.11 0 0 0 .047-.703 1.175 1.175 0 0 0-.164-.57c-.098-.156-.264-.238-.5-.246a.858.858 0 0 0-.515.194 2.363 2.363 0 0 0-.487.51 3.596 3.596 0 0 0-.616 1.466c-.031.157-.06.34-.088.552a2.927 2.927 0 0 0-.017.61c.015.195.062.365.14.51.079.145.212.229.4.252a.825.825 0 0 0 .504-.129c.172-.101.336-.242.492-.422.157-.18.296-.39.417-.628.12-.238.209-.487.264-.745Zm10.181-.024a4.868 4.868 0 0 1-.539 1.531c-.266.48-.59.901-.974 1.26-.383.36-.81.646-1.284.857a3.521 3.521 0 0 1-1.449.317c-.5.008-.952-.09-1.355-.293a2.839 2.839 0 0 1-1.003-.833 3.228 3.228 0 0 1-.563-1.244 3.828 3.828 0 0 1-.023-1.525c.094-.54.262-1.047.504-1.525a4.75 4.75 0 0 1 .915-1.255 4.154 4.154 0 0 1 2.84-1.185 2.88 2.88 0 0 1 1.342.288c.403.2.738.477 1.003.833.266.356.454.772.563 1.249.11.477.117.985.024 1.525Zm-2.556.024c.039-.188.08-.405.123-.652.043-.246.058-.48.046-.703a1.175 1.175 0 0 0-.164-.57c-.098-.156-.263-.238-.498-.246a.858.858 0 0 0-.516.194 2.34 2.34 0 0 0-.487.51 3.6 3.6 0 0 0-.616 1.466c-.031.157-.06.34-.088.552a2.934 2.934 0 0 0-.018.61c.016.195.063.365.141.51.078.145.211.229.399.252a.826.826 0 0 0 .505-.129 2.02 2.02 0 0 0 .492-.422 3.1 3.1 0 0 0 .416-.628 3.03 3.03 0 0 0 .264-.745Zm8.106-5.491-3.098 9.15-3.144.434 3.32-9.373 2.921-.211Zm8.715 1.983c.313.007.546.117.698.328.153.211.247.485.282.821a4.63 4.63 0 0 1-.041 1.144c-.063.426-.149.862-.258 1.308-.259 1.048-.662 2.229-1.209 3.542l-2.65.153c.32-.868.581-1.642.785-2.323.086-.289.164-.575.235-.856.07-.282.12-.532.152-.75.031-.22.04-.398.024-.535-.016-.136-.067-.209-.153-.217-.211-.015-.38.04-.504.165-.126.125-.25.3-.376.527-.148.446-.32.915-.516 1.408a55.07 55.07 0 0 0-.575 1.513 5.52 5.52 0 0 1-1.102.211c-.446.047-.962.028-1.549-.058a27.26 27.26 0 0 0 .669-1.877c.07-.235.135-.465.194-.692.058-.227.097-.43.117-.61a1.46 1.46 0 0 0-.006-.44c-.024-.114-.078-.175-.164-.182a.521.521 0 0 0-.382.135 1.774 1.774 0 0 0-.316.37 3.051 3.051 0 0 0-.258.48 27.088 27.088 0 0 0-.575 1.431l-.3.81c-.093.273-.18.532-.258.774l-2.451.223a329.703 329.703 0 0 1 .557-1.93c.05-.184.1-.358.147-.522.046-.164.088-.313.123-.446a5.61 5.61 0 0 1 .088-.305c.093-.352.252-.809.475-1.372.222-.563.502-1.255.838-2.077.102-.039.268-.084.5-.135.23-.05.474-.097.732-.14.258-.043.505-.08.74-.112a2.77 2.77 0 0 1 .492-.035l-.258.833c.25-.125.508-.235.774-.329.227-.078.477-.146.75-.205.274-.059.548-.08.822-.065a.91.91 0 0 1 .44.141.964.964 0 0 1 .276.288c.07.113.125.238.164.375.039.137.07.268.094.393.188-.11.404-.232.65-.37.247-.136.495-.263.746-.38a7.76 7.76 0 0 1 .727-.3c.235-.082.438-.119.61-.111Zm8.357 2.147c0 .078-.024.213-.07.404-.048.192-.108.415-.183.669a47.022 47.022 0 0 1-.545 1.742 302.7 302.7 0 0 1-.786 2.346l-2.862.669c.054-.117.105-.235.152-.352.04-.102.084-.207.135-.317l.135-.293a3.055 3.055 0 0 1-.669.199 4.14 4.14 0 0 1-.762.07c-.258 0-.51-.029-.755-.087a2.049 2.049 0 0 1-.654-.276 1.378 1.378 0 0 1-.456-.493 1.503 1.503 0 0 1-.169-.739 3.219 3.219 0 0 1 .56-1.83A3.712 3.712 0 0 1 44.589 14a4.55 4.55 0 0 1 2.839-.41c.008-.078.018-.153.03-.223.011-.07.015-.137.011-.2a.307.307 0 0 0-.064-.17.575.575 0 0 0-.2-.146c-.211-.094-.475-.13-.792-.106-.316.024-.623.07-.92.141-.352.086-.712.192-1.08.317l.986-2.088a4.85 4.85 0 0 1 1.525-.258c.297-.008.621.02.973.082.212.047.446.111.704.193.258.082.499.215.722.4.222.183.408.433.557.75.148.317.223.73.223 1.238Zm-2.926 1.607c-.375-.086-.712-.041-1.009.135-.297.176-.492.483-.586.92-.032.157-.022.282.029.376.05.094.125.166.223.217a.91.91 0 0 0 .34.094c.13.012.252.006.37-.018.046-.101.1-.242.164-.422.062-.18.127-.358.193-.534a24.149 24.149 0 0 0 .276-.768Zm10.382-3.414a2.348 2.348 0 0 1-.1.417 16.87 16.87 0 0 1-.194.592 44.25 44.25 0 0 1-.352.974l-1.97.21c-.172.493-.333.937-.481 1.332a6.223 6.223 0 0 0-.317 1.144c-.04.203 0 .352.117.445a.85.85 0 0 0 .452.17c.184.02.385.015.604-.017.218-.03.418-.066.598-.105l-.81 2.135c-.289.07-.592.13-.909.181-.316.051-.63.078-.938.082a4.904 4.904 0 0 1-.88-.064 1.924 1.924 0 0 1-.727-.27 1.437 1.437 0 0 1-.493-.534c-.121-.223-.178-.506-.17-.85 0-.196.04-.434.117-.716.079-.281.17-.576.276-.885.106-.31.215-.616.328-.921.114-.305.21-.583.288-.833l-1.572.211.727-2.358c.133-.015.352-.033.657-.052l.986-.065a38.341 38.341 0 0 0 .434-1.167 56.831 56.831 0 0 1 .27-.733 5.54 5.54 0 0 1 .697-.153c.286-.047.581-.09.886-.129.305-.039.596-.074.874-.105.277-.031.499-.063.663-.094-.063.164-.122.32-.176.469a36.369 36.369 0 0 1-.41 1.056l-.306.75c.165 0 .333-.007.505-.023.172-.015.34-.031.504-.047.164-.015.317-.027.458-.035a6.71 6.71 0 0 1 .363-.012Zm5.842.364c.43.039.742.17.938.393.196.223.309.512.34.868.031.356-.006.762-.111 1.22-.106.457-.245.938-.416 1.442a38.796 38.796 0 0 1-.57 1.555c-.207.532-.4 1.044-.58 1.537a6.438 6.438 0 0 1-1.214.181c-.497.036-1.074-.002-1.73-.111.406-.954.738-1.814.996-2.58.11-.322.212-.638.305-.951a8.46 8.46 0 0 0 .212-.839 2.42 2.42 0 0 0 .052-.604c-.011-.156-.064-.238-.158-.246a.676.676 0 0 0-.422.088c-.126.074-.24.17-.34.287a2.159 2.159 0 0 0-.27.393 4.446 4.446 0 0 0-.2.417c-.14.336-.27.676-.387 1.02a31.37 31.37 0 0 0-.586 1.9l-2.78.165c.14-.532.277-1.029.41-1.49a101.995 101.995 0 0 0 .317-1.155c.046-.176.09-.333.129-.47.039-.136.066-.24.082-.31a44.137 44.137 0 0 1 .387-1.273c.094-.293.197-.608.31-.945l.347-1.014c.117-.34.236-.675.358-1.003a24.4 24.4 0 0 1 .345-.892c.07-.023.18-.048.329-.076a13.366 13.366 0 0 1 1.114-.152c.212-.02.413-.037.605-.053.191-.016.363-.027.516-.035.152-.008.264-.008.334 0l-1.103 3.097c.25-.078.509-.149.774-.211.227-.055.487-.1.78-.135.294-.036.589-.041.886-.018ZM21 25.437c-.092.37-.197.764-.314 1.183-.118.42-.263.842-.435 1.266a8.148 8.148 0 0 1-.63 1.233c-.247.4-.55.76-.906 1.083a5.112 5.112 0 0 1-1.253.825c-.478.227-1.032.378-1.661.453-.739.092-1.415.036-2.027-.17a3.705 3.705 0 0 1-1.536-.956 3.723 3.723 0 0 1-.881-1.58c-.176-.621-.202-1.301-.076-2.04.126-.738.363-1.45.712-2.134a7.725 7.725 0 0 1 1.296-1.838 6.989 6.989 0 0 1 1.775-1.347 5.885 5.885 0 0 1 2.16-.661c.268-.025.555-.027.862-.006.306.02.606.08.9.176.294.096.564.233.812.409.247.176.449.403.604.68.155.277.246.608.27.994.026.387-.037.84-.188 1.36l-2.833.378c.093-.462.057-.81-.107-1.045-.163-.235-.409-.331-.736-.29a2.32 2.32 0 0 0-1.008.366 3.61 3.61 0 0 0-.83.748 4.395 4.395 0 0 0-.605.976 4.25 4.25 0 0 0-.327 1.058 4.127 4.127 0 0 0-.057.969c.021.294.095.548.22.761.127.215.307.376.542.485.235.11.533.151.894.126.268-.017.514-.065.736-.145a3.17 3.17 0 0 0 .573-.264c.16-.096.285-.193.378-.29a.902.902 0 0 0 .176-.232l-2.216.038.504-2.342L21 25.437Zm7.91-.315c0 .084-.024.229-.075.434-.05.206-.115.445-.195.718a54.172 54.172 0 0 1-.585 1.87c-.252.763-.533 1.603-.843 2.517l-3.072.718a7.69 7.69 0 0 0 .163-.378c.042-.11.09-.222.145-.34l.145-.315c-.21.093-.45.164-.718.215-.269.05-.541.075-.818.075-.277 0-.547-.031-.81-.094a2.198 2.198 0 0 1-.703-.296 1.484 1.484 0 0 1-.488-.529 1.615 1.615 0 0 1-.182-.793c.008-.739.209-1.393.602-1.964a3.98 3.98 0 0 1 1.518-1.322 4.868 4.868 0 0 1 2.436-.51c.23.013.434.036.61.07.009-.084.02-.164.032-.24.012-.075.017-.146.012-.214a.33.33 0 0 0-.069-.182.614.614 0 0 0-.214-.158c-.226-.1-.51-.138-.85-.113a6.34 6.34 0 0 0-.988.15 13.73 13.73 0 0 0-1.158.34l1.058-2.24a5.245 5.245 0 0 1 1.636-.277c.319-.008.667.021 1.045.088.226.05.478.12.755.208s.535.23.774.428c.24.197.439.466.598.806.16.34.24.782.24 1.328Zm-3.139 1.724c-.403-.092-.764-.044-1.083.145-.319.19-.528.518-.63.989-.033.168-.022.302.032.402a.557.557 0 0 0 .24.233.974.974 0 0 0 .365.1c.138.014.27.007.396-.018.05-.11.11-.26.176-.453.067-.193.137-.384.208-.573a26.07 26.07 0 0 0 .296-.825Zm13.999-4.028c.336.009.585.126.749.353.164.226.264.52.302.88.038.362.023.771-.044 1.228-.067.458-.16.926-.277 1.404-.277 1.125-.709 2.392-1.296 3.802l-2.846.164c.345-.932.626-1.763.844-2.493.092-.31.176-.617.252-.92.075-.301.13-.57.163-.805.034-.235.042-.426.026-.573-.017-.146-.072-.224-.164-.232-.227-.017-.407.041-.541.176a2.526 2.526 0 0 0-.403.566c-.16.479-.344.982-.554 1.51-.21.53-.416 1.071-.617 1.625-.31.1-.705.176-1.184.226-.478.05-1.032.03-1.661-.063.293-.747.532-1.418.717-2.014.076-.252.145-.499.208-.742.063-.244.105-.462.126-.655.02-.193.019-.35-.006-.472-.026-.122-.084-.187-.176-.196a.56.56 0 0 0-.41.145 1.895 1.895 0 0 0-.34.397 3.35 3.35 0 0 0-.276.516 32.65 32.65 0 0 0-.617 1.535c-.122.328-.229.617-.321.87-.101.293-.194.57-.277.83l-2.631.24a354.99 354.99 0 0 1 .598-2.072c.054-.197.107-.384.157-.56.05-.176.094-.335.132-.478.038-.143.07-.252.095-.328.1-.377.27-.868.51-1.473.239-.604.539-1.347.9-2.228.109-.042.287-.09.535-.145a20.905 20.905 0 0 1 1.58-.27c.251-.034.428-.046.528-.038l-.277.894c.269-.134.546-.252.831-.353.244-.084.512-.157.806-.22a3.32 3.32 0 0 1 .881-.07.98.98 0 0 1 .472.152c.122.084.22.187.296.308.076.122.135.256.177.403.042.147.075.288.1.422a39.5 39.5 0 0 1 .7-.397c.264-.146.53-.283.799-.409a8.27 8.27 0 0 1 .78-.32c.252-.089.47-.129.655-.12Zm8.838 4.293c-.353 0-.737.017-1.152.05-.416.034-.838.07-1.266.108-.428.038-.845.071-1.252.1-.407.03-.779.044-1.114.044a1.14 1.14 0 0 0-.133.347 1.275 1.275 0 0 0-.025.472c.021.16.076.298.164.415.088.118.233.176.434.176a.85.85 0 0 0 .315-.05.736.736 0 0 0 .233-.15c.07-.068.14-.152.207-.253.067-.1.143-.218.227-.352l3.009.302a6.03 6.03 0 0 1-.649 1.096 4.29 4.29 0 0 1-.919.906c-.357.26-.764.468-1.22.623a5.063 5.063 0 0 1-1.556.246c-.537.008-.98-.074-1.328-.246a2.114 2.114 0 0 1-.83-.711 2.825 2.825 0 0 1-.429-1.045 6.203 6.203 0 0 1-.12-1.234c0-.713.127-1.353.378-1.92a8.537 8.537 0 0 1 1.02-1.693 4.827 4.827 0 0 1 1.102-1.057 4.97 4.97 0 0 1 1.441-.712 4.016 4.016 0 0 1 1.561-.157c.529.05 1.02.248 1.473.592.243.184.43.455.56.812.13.357.21.738.24 1.145.029.407.012.804-.05 1.19-.064.386-.17.705-.322.957Zm-2.178-1.523c.042-.109.08-.218.113-.327.034-.11.05-.208.05-.296a.433.433 0 0 0-.056-.227c-.038-.063-.103-.098-.195-.107-.47-.05-.831.02-1.083.208-.252.189-.45.439-.592.75.1.024.233.037.397.037a20.41 20.41 0 0 0 1.007-.025 7.27 7.27 0 0 1 .358-.013Zm10.94-1.75-2.166 1.158a1.584 1.584 0 0 0-.44-.365c-.177-.1-.395-.143-.655-.126a3.322 3.322 0 0 0-.453.088 1.71 1.71 0 0 0-.416.164.54.54 0 0 0-.233.22c-.038.08-.01.158.082.233.067.059.2.133.397.22a21.522 21.522 0 0 0 1.259.504l.396.145c.184.059.35.147.497.264.147.118.27.254.372.41.1.155.172.322.214.503.042.18.046.359.012.535a3.283 3.283 0 0 1-.434 1.12c-.222.37-.53.703-.925 1.001-.395.298-.881.544-1.46.737-.58.193-1.255.298-2.027.314-.47.009-.86-.052-1.171-.182a2.082 2.082 0 0 1-.743-.497 1.677 1.677 0 0 1-.384-.674 1.98 1.98 0 0 1-.082-.699c.093-.075.231-.165.416-.27l.585-.334.61-.346c.202-.113.361-.212.479-.296.092.185.174.336.245.453.071.118.155.214.252.29.096.075.218.13.365.164.147.033.338.063.573.088.109.008.226-.002.352-.032.126-.03.248-.071.365-.126.118-.054.223-.124.315-.208a.558.558 0 0 0 .176-.277c.026-.1-.02-.193-.138-.277a2.441 2.441 0 0 0-.46-.245 5.849 5.849 0 0 0-.63-.22l-.648-.19a16.07 16.07 0 0 1-.49-.132 3.333 3.333 0 0 1-.56-.214 2.152 2.152 0 0 1-.48-.315.714.714 0 0 1-.245-.446 1.731 1.731 0 0 1 .082-.844c.097-.268.235-.516.416-.742.18-.227.39-.435.63-.624.238-.189.475-.354.71-.497a8.712 8.712 0 0 1 1.17-.592 4.69 4.69 0 0 1 1.317-.295c.465-.038.904-.01 1.315.081.411.093.768.254 1.07.485.303.23.491.527.567.888Z" fill="#FC0D1B"/></g><defs><clipPath id="a"><path fill="#fff" d="M0 0h67.458v42H0z"/></clipPath></defs></svg>