<?xml version="1.0" encoding="UTF-8"?><svg id="Trivia_-_Arts" xmlns="http://www.w3.org/2000/svg" width="500" height="500" viewBox="0 0 500 500"><defs><style>.cls-1{fill:#008d5a;}.cls-2{fill:#fff;}</style></defs><g id="arts"><rect class="cls-1" y=".25" width="500" height="500" rx="42" ry="42"/><path class="cls-2" d="M329.99,122.32c-.01-.06-.02-.13-.03-.19-.07-.39-.16-.78-.26-1.17-.02-.06-.04-.13-.05-.19-.11-.39-.23-.77-.36-1.15-.02-.05-.04-.1-.06-.15-.14-.39-.3-.78-.47-1.16,0-.02-.02-.03-.02-.05-.17-.38-.36-.75-.56-1.11-.02-.03-.04-.07-.05-.1-.2-.35-.41-.7-.63-1.03-.04-.05-.07-.11-.11-.16-.22-.32-.45-.64-.69-.94-.04-.06-.09-.11-.13-.17-.24-.3-.49-.59-.76-.86-.04-.05-.09-.09-.13-.13-.27-.28-.55-.55-.84-.8-.03-.02-.06-.05-.08-.07-.29-.25-.6-.49-.91-.71-.02-.02-.04-.03-.07-.05-.31-.22-.64-.42-.97-.61-.05-.03-.1-.06-.15-.09-.32-.18-.65-.33-.98-.47-.06-.03-.12-.05-.18-.08-.33-.13-.68-.25-1.02-.35-.06-.02-.12-.03-.18-.05-.36-.09-.72-.17-1.08-.22-.04,0-.09,0-.13-.01-.38-.05-.77-.08-1.16-.08,0,0-.02,0-.03,0-.32,0-.63,.02-.95,.06-.08,0-.16,.02-.24,.03-.32,.04-.65,.09-.98,.17-2.49,.58-4.95,1.14-7.39,1.69-.67,.15-1.33,.29-2,.44-1.76,.39-3.51,.78-5.25,1.14-.81,.17-1.61,.33-2.42,.5-1.57,.33-3.14,.66-4.69,.97-.99,.2-1.96,.38-2.94,.57-1.35,.26-2.71,.54-4.04,.79-1,.19-1.98,.36-2.98,.54-1.3,.24-2.6,.48-3.88,.71-1.05,.19-2.08,.35-3.12,.53-1.21,.21-2.42,.42-3.62,.62-1.05,.17-2.09,.33-3.13,.49-1.17,.18-2.35,.37-3.51,.55-1.02,.15-2.03,.29-3.04,.43-1.17,.17-2.34,.34-3.5,.5-1.01,.14-2.01,.26-3.02,.38-1.14,.15-2.29,.3-3.43,.44-.98,.12-1.95,.22-2.93,.33-1.15,.13-2.3,.27-3.44,.38-.97,.1-1.92,.18-2.89,.28-1.13,.11-2.27,.23-3.4,.33-.97,.09-1.94,.15-2.9,.23-1.11,.09-2.22,.18-3.32,.26-.94,.07-1.87,.12-2.8,.18-1.12,.07-2.24,.15-3.36,.21-.94,.05-1.86,.08-2.8,.13-1.1,.05-2.21,.11-3.3,.15-.95,.03-1.89,.05-2.84,.08-1.07,.03-2.15,.07-3.22,.09-.94,.02-1.87,.02-2.8,.03-1.07,.01-2.15,.03-3.22,.03-.04,0-.07,0-.11,0-.95,0-1.9-.02-2.85-.03-1,0-2.01,0-3.01-.03-.99-.02-1.98-.05-2.98-.08-.99-.03-1.98-.05-2.97-.08-.98-.04-1.95-.09-2.92-.13-1-.05-2.01-.08-3.01-.14-.96-.05-1.93-.12-2.89-.18-1.01-.06-2.02-.12-3.03-.2-.99-.07-1.98-.16-2.97-.24-.98-.08-1.97-.15-2.95-.25-.96-.09-1.93-.19-2.89-.29-1.01-.1-2.03-.2-3.04-.31-.92-.1-1.85-.22-2.77-.33-1.06-.13-2.11-.24-3.17-.38-.92-.12-1.84-.25-2.76-.38-1.07-.15-2.13-.28-3.2-.44-.96-.14-1.92-.3-2.88-.45-1.03-.16-2.07-.31-3.1-.48-1-.16-2.01-.35-3.02-.52-1-.17-2-.34-3.01-.52-1.04-.19-2.09-.39-3.13-.59-.98-.19-1.96-.36-2.94-.56-1.11-.22-2.22-.46-3.34-.69-.93-.19-1.85-.37-2.78-.57-1.16-.25-2.33-.51-3.5-.77-.89-.2-1.78-.39-2.68-.59-1.13-.26-2.28-.54-3.42-.81-.95-.22-1.88-.44-2.83-.67-1.14-.28-2.3-.58-3.45-.87-.96-.24-1.91-.47-2.87-.72-2.12-.55-4.25-1.11-6.4-1.7-.36-.1-.72-.17-1.08-.22-.07,0-.13-.02-.2-.03-.34-.04-.68-.07-1.02-.07-.06,0-.12,0-.18,0-.37,0-.74,.03-1.11,.08-.03,0-.06,.01-.09,.02-.37,.05-.73,.13-1.09,.23-.02,0-.05,.01-.07,.02-.36,.1-.71,.23-1.05,.37-.05,.02-.1,.04-.15,.06-.33,.14-.66,.31-.98,.49-.05,.03-.11,.06-.16,.09-.32,.18-.63,.38-.93,.6-.04,.03-.09,.06-.13,.1-.31,.23-.62,.47-.91,.73-.02,.01-.03,.03-.05,.04-.29,.26-.58,.54-.85,.84-.02,.02-.04,.04-.07,.07-.27,.29-.53,.6-.78,.91-.04,.05-.07,.09-.11,.14-.24,.31-.47,.63-.69,.96-.04,.05-.07,.11-.11,.16-.22,.33-.42,.68-.62,1.03-.03,.05-.05,.09-.07,.14-.2,.37-.39,.75-.56,1.13,0,0,0,.02-.01,.03-.17,.38-.33,.78-.47,1.17-.01,.04-.03,.08-.04,.12-.14,.38-.25,.77-.36,1.16-.02,.06-.04,.13-.05,.19-.1,.38-.19,.77-.26,1.16-.01,.07-.02,.14-.04,.2-.07,.39-.12,.79-.16,1.19,0,.05,0,.1-.01,.15-.04,.42-.06,.83-.06,1.25v133.52c0,1,.01,1.99,.04,2.98,0,.37,.03,.75,.04,1.12,.02,.61,.04,1.23,.07,1.84,.02,.46,.06,.91,.09,1.37,.03,.52,.06,1.05,.1,1.57,.03,.45,.08,.9,.12,1.35,.05,.52,.09,1.05,.14,1.57,.04,.44,.1,.87,.15,1.31,.06,.53,.11,1.06,.18,1.59,.06,.47,.13,.94,.2,1.41,.07,.49,.13,.98,.21,1.47,.07,.48,.16,.95,.24,1.43,.08,.48,.15,.95,.24,1.43,.09,.49,.18,.97,.28,1.45,.09,.46,.17,.92,.26,1.38,.1,.51,.22,1.02,.33,1.52,.09,.43,.18,.86,.28,1.28,.12,.52,.25,1.04,.38,1.56,.1,.4,.19,.81,.3,1.21,.14,.54,.29,1.07,.43,1.6,.1,.38,.2,.77,.31,1.15,.16,.55,.33,1.1,.49,1.65,.11,.36,.21,.71,.32,1.07,.17,.56,.36,1.11,.54,1.66,.11,.35,.22,.69,.34,1.04,.19,.56,.39,1.12,.59,1.68,.12,.33,.23,.66,.35,.99,.21,.56,.42,1.12,.64,1.68,.12,.32,.24,.64,.36,.96,.23,.57,.46,1.14,.7,1.71,.12,.3,.24,.59,.36,.89,.25,.6,.51,1.19,.78,1.78,.12,.26,.23,.53,.35,.79,.27,.61,.56,1.21,.84,1.81,.11,.24,.23,.49,.34,.73,.29,.6,.59,1.2,.89,1.8,.12,.23,.23,.47,.35,.71,.31,.61,.64,1.22,.96,1.83,.11,.21,.22,.43,.34,.64,.34,.63,.69,1.25,1.04,1.86,.11,.19,.21,.38,.32,.57,.36,.63,.73,1.25,1.1,1.86,.11,.18,.21,.36,.31,.53,.38,.63,.77,1.25,1.16,1.87,.1,.16,.2,.33,.31,.49,.41,.64,.83,1.27,1.25,1.9,.09,.14,.18,.28,.28,.42,.43,.64,.87,1.27,1.31,1.89,.09,.13,.18,.26,.27,.39,.46,.65,.93,1.29,1.4,1.93,.07,.1,.15,.2,.22,.31,.48,.65,.97,1.28,1.47,1.92,.07,.09,.14,.19,.22,.28,.5,.64,1.01,1.27,1.53,1.9,.07,.08,.14,.17,.21,.25,.53,.65,1.07,1.28,1.62,1.92,.06,.06,.11,.13,.16,.2,.55,.64,1.11,1.27,1.67,1.89,.05,.06,.1,.12,.16,.18,.58,.64,1.16,1.27,1.75,1.89,.04,.04,.08,.09,.12,.13,.6,.63,1.21,1.25,1.82,1.87,.04,.04,.07,.07,.11,.11,.63,.63,1.26,1.25,1.9,1.87,.02,.02,.05,.04,.07,.07,.65,.62,1.31,1.24,1.97,1.85,.01,.01,.03,.03,.04,.04,.68,.62,1.36,1.23,2.05,1.83,0,0,0,0,0,0,20.18,17.55,46.5,28.22,75.32,28.33h0c.16,0,.32,0,.48,0h0c63.82,0,115.55-51.73,115.55-115.55V124.94c0-.42-.02-.85-.06-1.28,0-.04,0-.09-.01-.13-.04-.4-.1-.81-.17-1.21Zm-189.67,94.81c-.8,0-1.61-.12-2.42-.38-4.21-1.33-6.55-5.83-5.21-10.04,2.87-9.08,15.05-21.86,33.14-21.86,16.96,0,31.65,10.19,33.43,23.19,.6,4.38-2.46,8.41-6.84,9.01-4.38,.61-8.41-2.46-9.01-6.84-.46-3.36-6.73-9.36-17.58-9.36s-17.01,7.95-17.88,10.69c-1.08,3.41-4.23,5.59-7.62,5.59Zm137.95,48.82c-3.31,32.2-30.52,57.32-63.6,57.32s-60.28-25.12-63.6-57.32c-.36-3.54,2.43-6.62,5.98-6.62h115.22c3.56,0,6.35,3.08,5.98,6.62Zm11.03-48.9c-4.38,.61-8.41-2.46-9.01-6.84-.46-3.36-6.73-9.36-17.58-9.36s-17.01,7.95-17.88,10.69c-1.08,3.41-4.23,5.59-7.62,5.59-.8,0-1.61-.12-2.42-.38-4.21-1.33-6.55-5.83-5.21-10.04,2.87-9.08,15.05-21.86,33.14-21.86,16.96,0,31.65,10.19,33.43,23.19,.6,4.38-2.46,8.41-6.84,9.01Zm114.46-65.3v133.52c0,63.82-51.73,115.55-115.55,115.55h0c-10.05,0-19.8-1.29-29.09-3.7,21.82-6.97,41.82-19.08,58.48-35.74,27.49-27.49,42.63-64.04,42.63-102.92v-115.09c9.32-1.76,18.95-3.8,29.01-6.14,7.81-1.82,14.52,6.5,14.52,14.52Z"/></g></svg>