<?xml version="1.0" encoding="UTF-8"?><svg id="Trivia_-_Sports" xmlns="http://www.w3.org/2000/svg" width="500" height="500" viewBox="0 0 500 500"><defs><style>.cls-1{fill:#006cb0;}.cls-2{fill:#fff;}</style></defs><g id="sports"><rect class="cls-1" y="0" width="500" height="500" rx="42" ry="42"/><path class="cls-2" d="M247.96,122.23c-55.14,19.14-99.51,61.29-121.64,114.96,.31,1.38,.63,2.78,1,4.19,7.22,27.95,26.19,58.81,52.04,84.66,23.36,23.36,50.81,41.1,76.5,49.63,58.53-22.18,104.33-70.24,123.44-130.22-9.08-24.22-26.01-49.64-47.86-71.49-25.49-25.49-55.84-44.28-83.48-51.73Zm56.36,110.16c-1.95,1.95-4.51,2.93-7.07,2.93s-5.12-.98-7.07-2.93l-7.52-7.52-18.52,18.51,7.52,7.52c3.91,3.91,3.91,10.24,0,14.14-1.95,1.95-4.51,2.93-7.07,2.93s-5.12-.98-7.07-2.93l-7.52-7.52-18.52,18.51,7.53,7.53c3.91,3.91,3.91,10.24,0,14.14-1.95,1.95-4.51,2.93-7.07,2.93s-5.12-.98-7.07-2.93l-29.19-29.19c-3.91-3.91-3.91-10.24,0-14.14,3.91-3.9,10.24-3.9,14.14,0l7.52,7.52,18.51-18.51-7.52-7.52c-3.91-3.91-3.91-10.24,0-14.14,3.91-3.9,10.24-3.9,14.14,0l7.52,7.52,18.52-18.52-7.52-7.52c-3.91-3.91-3.91-10.24,0-14.14,3.91-3.9,10.24-3.9,14.14,0l29.19,29.19c3.91,3.91,3.91,10.24,0,14.14Zm-94.79,154.88c-8.75,1.13-17.66,1.72-26.72,1.72,0,0-42.72-1.54-56.85-15.66-14.07-14.07-14.97-58.51-14.97-58.51,0-9.61,.68-19.05,1.97-28.31,10.99,21.14,26.37,41.92,45.18,60.73,16.03,16.03,33.49,29.57,51.39,40.03ZM299.3,111.58c5.13-.39,10.3-.58,15.53-.58,0,0,42.12,1.2,57.7,15.78,16.47,15.41,16.47,56.04,16.47,56.04,0,4.85-.18,9.66-.51,14.42-9.79-15.48-21.87-30.52-35.83-44.49-16.62-16.62-34.78-30.56-53.36-41.16Z"/></g></svg>