<?xml version="1.0" encoding="UTF-8"?><svg id="Trivia_-_Science" xmlns="http://www.w3.org/2000/svg" width="500" height="500" viewBox="0 0 500 500"><defs><style>.cls-1{fill:#fff;}.cls-2{fill:#4a8200;}</style></defs><g id="science"><rect class="cls-2" y="-.13" width="500" height="500" rx="42" ry="42"/><path class="cls-1" d="M350.42,305.2l-38.31-28.19v-48.43c0-8.28-6.72-15-15-15h-41.89c3.1-7.22,6.97-14.03,11.57-20.38l13.8,2.65c35.03,6.71,68.87-16.24,75.59-51.27,1.51-7.9-3.66-15.53-11.56-17.04l-4.81-.92c-35.03-6.71-68.87,16.24-75.59,51.27l-.59,3.08c-7.08,8.49-12.88,17.86-17.31,27.96-1.33-10.96-4.11-22.58-9.79-35.01-1.38-3.03-2.91-5.99-4.55-8.91v-9.41c0-38.3-31.05-69.34-69.34-69.34h-5.26c-8.63,0-15.63,7-15.63,15.63,0,38.3,31.05,69.34,69.34,69.34h12.92c1.22,2.25,2.37,4.53,3.42,6.84,5.75,12.58,8.26,24.38,9.32,35.5h-43.32c-8.28,0-15,6.72-15,15v48.16l-38.6,28.52c-19.04,14.07-26.56,37.7-19.16,60.19,7.41,22.49,27.5,37.03,51.18,37.03h146.62c23.71,0,43.8-14.55,51.19-37.08,7.39-22.52-.17-46.15-19.26-60.2Zm-187.43,20.26l39.37-29.09c.1-.07,.18-.15,.27-.22,.22-.17,.43-.34,.64-.53,.18-.16,.35-.31,.52-.48,.17-.17,.34-.34,.51-.51,.18-.19,.36-.38,.53-.58,.14-.16,.28-.33,.41-.5,.17-.21,.33-.43,.49-.65,.13-.18,.24-.36,.36-.55,.14-.22,.28-.44,.4-.66,.12-.21,.23-.42,.34-.64,.11-.21,.21-.42,.3-.63,.11-.24,.2-.49,.3-.73,.08-.2,.15-.4,.22-.6,.09-.26,.16-.52,.24-.79,.06-.2,.11-.41,.16-.61,.06-.26,.11-.52,.16-.79,.04-.23,.08-.46,.11-.69,.03-.24,.05-.48,.07-.72,.02-.27,.03-.54,.04-.81,0-.12,.02-.24,.02-.36v-40.73h73.67v40.73c0,.11,.01,.21,.02,.32,.01,4.59,2.11,9.12,6.09,12.05l39.12,28.78H162.99Z"/></g></svg>