<?xml version="1.0" encoding="UTF-8"?><svg id="Escape" xmlns="http://www.w3.org/2000/svg" width="500" height="500" viewBox="0 0 500 500"><defs><style>.cls-1{fill:#00c2ff;}.cls-2{fill:#006aac;}.cls-3{fill:#fdec00;}</style></defs><path class="cls-3" d="M141.86,41.45h245.83c8.83,0,16,7.17,16,16V458.55H141.86V41.45h0Z"/><path class="cls-3" d="M490,477.66H10c-5.53,0-10-4.48-10-10s4.48-10,10-10H490c5.53,0,10,4.48,10,10s-4.48,10-10,10Z"/><path class="cls-2" d="M339.24,499.77l-229.45-38.93c-7.79-1.32-13.48-8.07-13.48-15.96V55.13c0-7.9,5.7-14.64,13.48-15.96L339.24,.23c9.88-1.68,18.9,5.94,18.9,15.96V483.81c0,10.02-9.02,17.64-18.9,15.96Z"/><g><circle class="cls-1" cx="292.82" cy="243.46" r="23.95"/><path class="cls-1" d="M280.73,263.74h24.19l5.35,23.16c.44,1.89-.91,3.59-2.86,3.59h-29.17c-1.96,0-3.3-1.7-2.86-3.59l5.35-23.16Z"/></g></svg>