<svg enable-background="new 0 0 500 500" viewBox="0 0 500 500" xmlns="http://www.w3.org/2000/svg"><path d="m500 266v218c0 8.8-7.2 16-16 16h-93c-8.8 0-16-7.2-16-16v-9.2c0-69-56-125-125-125-69.3 0-125 57-125 126.3v7.9c0 8.8-7.2 16-16 16h-93c-8.8 0-16-7.2-16-16v-218c0-8.8 7.2-16 16-16h468c8.8 0 16 7.2 16 16z" fill="#006aac"/><path d="m98.8 125.9h93c8.8 0 16 7.2 16 16v92.1c0 8.8-7.2 16-16 16h-93c-8.8 0-16-7.2-16-16v-92.1c0-8.8 7.2-16 16-16z" fill="#fdec00"/><path d="m307.9 125.9h93c8.8 0 16 7.2 16 16v92.1c0 8.8-7.2 16-16 16h-93c-8.8 0-16-7.2-16-16v-92.1c0-8.8 7.1-16 16-16z" fill="#00c2ff"/><path d="m240.9 2.7-139.8 93.9c-13.1 8.8-6.9 29.3 8.9 29.3h279.7c15.8 0 22-20.5 8.9-29.3l-139.8-93.9c-5.4-3.6-12.5-3.6-17.9 0z" fill="#f70000"/></svg>