<?xml version="1.0" encoding="UTF-8"?><svg id="Other_Math" xmlns="http://www.w3.org/2000/svg" width="500" height="500" viewBox="0 0 500 500"><defs><style>.cls-1{fill:#f70000;}.cls-2{fill:#fdad00;}.cls-3{fill:#fdec00;}</style></defs><g id="other_math"><path class="cls-3" d="M0,16.79V483.24C0,492.5,7.5,500,16.76,500H483.21c14.93,0,22.41-18.05,11.85-28.61L28.61,4.94C18.05-5.61,0,1.86,0,16.79Zm133.34,240.56l109.31,109.31c10.56,10.56,3.08,28.61-11.85,28.61H121.49c-9.25,0-16.76-7.5-16.76-16.76v-109.31c0-14.93,18.05-22.41,28.61-11.85Z"/><g><path class="cls-2" d="M285.91,334.13c1.95,1.95,4.51,2.93,7.07,2.93s5.12-.98,7.07-2.93l28.87-28.87-14.14-14.14-28.87,28.87c-3.91,3.91-3.9,10.24,0,14.14Z"/><path class="cls-2" d="M353.08,379.1c1.95,1.95,4.51,2.93,7.07,2.93s5.12-.98,7.07-2.93l17.77-17.78-14.14-14.14-17.77,17.78c-3.91,3.91-3.9,10.24,0,14.14Z"/><path class="cls-2" d="M68.68,112.76c2.56,0,5.12-.98,7.07-2.93l28.87-28.87-14.14-14.14-28.87,28.87c-3.91,3.91-3.9,10.24,0,14.14,1.95,1.95,4.51,2.93,7.07,2.93Z"/><path class="cls-2" d="M173.76,207.84c-3.9,3.91-3.9,10.24,0,14.14,1.95,1.95,4.51,2.93,7.07,2.93s5.12-.98,7.07-2.93l28.87-28.87-14.14-14.14-28.87,28.87Z"/><path class="cls-2" d="M426.93,403.26l-28.87,28.87c-3.91,3.91-3.91,10.24,0,14.14,1.95,1.95,4.51,2.93,7.07,2.93s5.12-.98,7.07-2.93l28.87-28.87-14.14-14.14Z"/><path class="cls-2" d="M128.78,140.67c-3.9,3.91-3.9,10.24,0,14.14,1.95,1.95,4.51,2.93,7.07,2.93s5.12-.98,7.07-2.93l17.78-17.78-14.14-14.14-17.78,17.78Z"/><path class="cls-2" d="M255.07,266.96l17.77-17.77-14.14-14.14-17.77,17.77c-3.9,3.91-3.9,10.24,0,14.14,1.95,1.95,4.51,2.93,7.07,2.93s5.12-.98,7.07-2.93Z"/></g><path class="cls-1" d="M490.37,299.63c-3.91-3.9-10.24-3.9-14.14,0l-10.43,10.43L187.94,32.2l10.43-10.43c3.91-3.91,3.91-10.24,0-14.14-3.91-3.9-10.24-3.9-14.14,0l-34.5,34.5c-3.91,3.91-3.91,10.24,0,14.14,1.95,1.95,4.51,2.93,7.07,2.93s5.12-.98,7.07-2.93l9.93-9.93L451.66,324.2l-9.93,9.93c-3.91,3.91-3.91,10.24,0,14.14,1.95,1.95,4.51,2.93,7.07,2.93s5.12-.98,7.07-2.93l34.5-34.5c3.91-3.91,3.91-10.24,0-14.14Z"/></g></svg>