<svg height="78" viewBox="0 0 78 78" width="78" xmlns="http://www.w3.org/2000/svg"><g fill="none" fill-rule="evenodd"><g transform="translate(7 6)"><g fill-rule="nonzero"><g fill="#5db3e4" transform="translate(12 13)"><path d="m20 52.0562-.1052-.0559h.2104z"/><path d="m20 .9341-19.4 10.1409v19.8506l19.4 10.1409 19.4-10.1409v-19.8506z"/></g><path d="m30.7 3.63504-26.4819 14.06846 7.1078 4.1037 19.3741-10.1274z" fill="#f33324"/><path d="m2.59998 48.1539v-28.3823l7.40002 4.2724v19.8375z" fill="#0061e1"/><path d="m4.1503 50.261 26.5497 14.1045v-8.0448l-19.4425-10.163z" fill="#fbb441"/><path d="m60.1238 50.1154-26.8238 14.2502v-8.0448l19.7186-10.3075z" fill="#f33324"/><path d="m61.4 47.85-7.4-4.2724v-19.2298l7.4-4.2724z" fill="#0061e1"/><path d="m60.056 17.8491-26.756-14.21409v8.04479l19.6503 10.2718z" fill="#fbb441"/></g><path d="m32 0 32 17v34l-32 17-32-17v-34zm-27.7819 17.7033 26.4819-14.06854v8.04484l-19.3741 10.1273zm-1.6181 2.068v28.3823l7.4-4.2724v-19.8375zm28.1 44.5939-26.5497-14.1045 7.1072-4.1033 19.4425 10.163zm1.1948.6348.1052.0559.1052-.0559zm1.4052-.6347 26.8238-14.2502-7.1052-4.1021-19.7186 10.3075zm20.7-20.7879 7.4 4.2723v-27.7746l-7.4 4.2724zm-20.7-39.94266 26.756 14.21416-7.1057 4.1024-19.6503-10.2718zm-20.7 20.43996 19.4-10.1409 19.4 10.1409v19.8506l-19.4 10.1409-19.4-10.1409z" fill="#000" stroke="#000" stroke-width=".2"/></g><g fill="#ffee52" fill-rule="nonzero" stroke="#000" stroke-linejoin="round" stroke-width="3" transform="translate(5 2)"><path d="m56.3006 42.267c-.4246-.4362-1.0707-.5725-1.6353-.3451s-.9358.7735-.9395 1.3822l-.0321 5.2642-4.6394 2.3222c-.5397.2702-.865.8376-.8253 1.4399.0396.6023.4364 1.1222 1.0069 1.3193l4.9534 1.7112.8008 5.2265c.0919.5998.5361 1.0851 1.1254 1.2297.5893.1445 1.2076-.0803 1.5666-.5695l3.078-4.1946 5.126.8901c.5978.1038 1.1993-.1628 1.5239-.6754.3246-.5127.3084-1.1704-.0411-1.6664l-3.0455-4.3224 2.3844-4.6668c.2746-.5375.2003-1.1873-.1886-1.6489s-1.0166-.6452-1.593-.4658l-4.9537 1.5418z"/><path d="m11.875 42.267c.4245-.4362 1.0706-.5725 1.6353-.3451.5646.2274.9358.7735.9395 1.3822l.0321 5.2642 4.6393 2.3222c.5398.2702.865.8376.8254 1.4399s-.4364 1.1222-1.007 1.3193l-4.9533 1.7112-.8008 5.2265c-.0919.5998-.5361 1.0851-1.1254 1.2297-.5893.1445-1.2077-.0803-1.5667-.5695l-3.0779-4.1946-5.12602.8901c-.59783.1038-1.19933-.1628-1.52393-.6754-.32461-.5127-.30838-1.1704.04112-1.6664l3.04548-4.3224-2.38434-4.6668c-.27462-.5375-.20031-1.1873.18859-1.6489s1.01661-.6452 1.59295-.4658l4.95375 1.5418z"/><path d="m35.9757 73.5658c-.2309.5632-.7792.9311-1.3879.9311s-1.1571-.3679-1.3879-.9311l-1.9966-4.871-5.1711-.4206c-.6016-.049-1.1153-.4537-1.3035-1.0272-.1883-.5735-.0144-1.204.4411-1.6l3.9553-3.438-1.21-5.1472c-.1388-.5907.0919-1.2068.5845-1.5611.4926-.3542 1.1502-.3768 1.6659-.0571l4.4223 2.7408 4.4222-2.7408c.5158-.3197 1.1733-.2971 1.666.0571.4926.3543.7233.9704.5844 1.5611l-1.21 5.1472 3.9553 3.438c.4556.396.6294 1.0265.4412 1.6-.1883.5735-.702.9782-1.3036 1.0272l-5.171.4206z"/><path d="m33.1999 1.4311c.2308-.56323.7792-.9311 1.3879-.9311s1.157.36787 1.3879.9311l1.9966 4.87095 5.171.42066c.6016.04894 1.1153.45373 1.3036 1.02722.1882.5735.0144 1.20397-.4412 1.59997l-3.9553 3.438 1.21 5.1472c.1389.5907-.0918 1.2068-.5844 1.5611-.4927.3542-1.1502.3768-1.666.0571l-4.4222-2.7408-4.4223 2.7408c-.5157.3197-1.1733.2971-1.6659-.0571-.4926-.3543-.7233-.9704-.5845-1.5611l1.21-5.1472-3.9553-3.438c-.4555-.396-.6294-1.02647-.4411-1.59997.1882-.5735.7019-.97828 1.3035-1.02722l5.1711-.42066z"/></g><path d="m0 0h78v78h-78z"/></g></svg>