<?xml version="1.0" encoding="UTF-8"?><svg id="Virtual_pet" xmlns="http://www.w3.org/2000/svg" width="500" height="500" viewBox="0 0 500 500"><defs><style>.cls-1{fill:#f470f0;}.cls-2{fill:#00c2ff;}.cls-3{fill:#006aac;}.cls-4{fill:#fdec00;}.cls-5{fill:#21465f;}</style></defs><g id="Virtual_pet-2"><path class="cls-3" d="M500,384.5c0,154-500,154-500,0V116c0-154.67,500-154.67,500,0V384.5Z"/><g><g id="Buttons"><circle class="cls-2" cx="129.17" cy="405" r="32.17"/><circle class="cls-2" cx="250" cy="422" r="40"/><circle class="cls-2" cx="370.83" cy="405" r="32.17"/></g><g id="Screen"><rect class="cls-1" x="79" y="88" width="342" height="245" rx="42" ry="42"/><g id="Pet"><g><path class="cls-4" d="M247.39,293.29c-40.1,0-93.61-18.81-93.61-42.02v-13.78c0-51.7,41.91-93.61,93.61-93.61h0c51.7,0,93.61,41.91,93.61,93.61v13.78c0,23.2-44.57,42.02-93.61,42.02Z"/><path class="cls-4" d="M330.17,131.93l-53.79,25.94,59.72,50.36,4.69-69c.47-5.72-5.46-9.8-10.63-7.3Z"/><path class="cls-4" d="M164.48,131.93l53.79,25.94-59.72,50.36-4.69-69c-.47-5.72,5.46-9.8,10.63-7.3Z"/></g><g id="Face"><rect class="cls-5" x="277.53" y="191.61" width="23.98" height="37.14" rx="11.99" ry="11.99"/><rect class="cls-5" x="194.03" y="191.61" width="23.98" height="37.14" rx="11.99" ry="11.99"/><path class="cls-5" d="M246.78,246.66c-7.6,0-17.04-4.4-19.67-11.75-.93-2.6,.42-5.46,3.02-6.39,2.6-.93,5.46,.42,6.39,3.02,.39,1.09,3.94,5.13,10.26,5.13s9.87-3.19,10.03-4.21c.42-2.73,2.98-4.6,5.71-4.18,2.73,.42,4.6,2.98,4.18,5.71-1.12,7.23-9.68,12.67-19.91,12.67Z"/></g></g></g></g></g></svg>