<svg height="78" viewBox="0 0 78 78" width="78" xmlns="http://www.w3.org/2000/svg"><g fill="none" fill-rule="evenodd"><g transform="translate(7 5)"><g fill-rule="nonzero"><path d="m32 65.0562-.1052-.0559h.2104z" fill="#5db3e4"/><path d="m32 13.9341-19.4 10.1409v19.8506l19.4 10.1409 19.4-10.1409v-19.8506z" fill="#5db3e4"/><g fill="#c0def0"><path d="m30.7 3.63501-26.48192 14.06849 7.10782 4.1037 19.3741-10.1274z"/><path d="m2.59998 48.1539v-28.3823l7.40002 4.2724v19.8375z"/><path d="m4.15027 50.2611 26.54973 14.1045v-8.0448l-19.4425-10.1631z"/><path d="m60.1238 50.1155-26.8238 14.2501v-8.0448l19.7186-10.3075z"/><path d="m61.4 47.8501-7.4-4.2724v-19.2299l7.4-4.2724z"/><path d="m60.056 17.8491-26.756-14.21409v8.04479l19.6503 10.2718z"/></g></g><g fill="#000"><path d="m32 0 32 17v34l-32 17-32-17v-34zm-27.78191 17.7033 26.48191-14.06854v8.04484l-19.3741 10.1273zm-1.61809 2.068v28.3823l7.4-4.2724v-19.8375zm28.1 44.5939-26.5497-14.1045 7.1072-4.1033 19.4425 10.163zm1.1948.6348.1052.0559.1052-.0559zm1.4052-.6347 26.8238-14.2502-7.1052-4.1021-19.7186 10.3075zm20.7-20.7879 7.4 4.2723v-27.7746l-7.4 4.2724zm-20.7-39.94266 26.756 14.21416-7.1057 4.1024-19.6503-10.2718zm-20.7 20.43996 19.4-10.1409 19.4 10.1409v19.8506l-19.4 10.1409-19.4-10.1409z" stroke="#000" stroke-width=".2"/><path d="m37.6589 38.021c0-1.863-1.472-3.289-3.312-3.933 1.702-.598 3.059-1.702 3.059-3.611 0-2.875-3.082-4.048-5.911-4.048-2.852 0-5.911 1.173-5.911 4.048 0 1.909 1.334 3.013 3.036 3.611-1.84.644-3.289 2.07-3.289 3.933 0 2.875 2.944 4.255 6.164 4.255s6.164-1.403 6.164-4.255zm-3.588-7.038c0 1.15-1.633 1.679-2.576 1.817-.943-.138-2.599-.667-2.599-1.817 0-1.104 1.081-1.748 2.599-1.748 1.495 0 2.576.644 2.576 1.748zm.276 6.624c0 1.127-1.288 1.863-2.852 1.863-1.61 0-2.852-.736-2.852-1.863 0-1.288 1.886-1.909 2.852-2.047.943.138 2.852.759 2.852 2.047z" fill-rule="nonzero"/></g></g><path d="m0 0h78v78h-78z"/></g></svg>