<svg height="500" viewBox="0 0 500 500" width="500" xmlns="http://www.w3.org/2000/svg"><path d="m237.54 378.78a25 25 0 0 1 -24.21-31.31l57.43-220.31a25 25 0 1 1 48.38 12.61l-57.43 220.31a25 25 0 0 1 -24.17 18.7z" fill="#fdad00"/><circle cx="304.27" cy="97.72" fill="#fdec00" r="97.7"/><g fill="#f70000"><rect height="166.31" rx="42" width="449.4" x="25.3" y="333.69"/><path d="m488.27 257.9-25.53-22.76a.79.79 0 0 1 0-1.16l37.08-35a.6.6 0 0 0 -.61-1l-73.78 25.9a.6.6 0 0 0 -.2 1l23.52 21a.77.77 0 0 1 0 1.15l-37.45 35a.59.59 0 0 0 .59 1l76.16-24a.6.6 0 0 0 .22-1.13z"/><path d="m.7 156.82 51.68-13.18a1.22 1.22 0 0 0 .86-1.58l-26.14-75.16a.93.93 0 0 1 1.56-1l83.51 88.85a.93.93 0 0 1 -.45 1.54l-47.63 12.19a1.23 1.23 0 0 0 -.85 1.6l26.76 75.27a.93.93 0 0 1 -1.54 1l-88.19-87.97a.93.93 0 0 1 .43-1.56z"/></g><circle cx="369.89" cy="416.85" fill="#fdec00" r="32.09"/></svg>