<?xml version="1.0" encoding="utf-8"?>
<!-- Generator: Adobe Illustrator 26.0.1, SVG Export Plug-In . SVG Version: 6.00 Build 0)  -->
<svg version="1.1" id="Layer_1" xmlns="http://www.w3.org/2000/svg" xmlns:xlink="http://www.w3.org/1999/xlink" x="0px" y="0px"
	 width="7px" height="7px" viewBox="0 0 7 7" enable-background="new 0 0 7 7" xml:space="preserve">
<g>
	<g>
		<path fill="#FFFFFF" d="M0.9,7C0.7,7,0.4,6.9,0.3,6.7c-0.4-0.4-0.4-0.9,0-1.3l5.2-5.2c0.4-0.4,0.9-0.4,1.3,0
			c0.4,0.4,0.4,0.9,0,1.3L1.6,6.7C1.4,6.9,1.1,7,0.9,7z"/>
	</g>
	<g>
		<path fill="#FFFFFF" d="M6.1,7C5.9,7,5.6,6.9,5.4,6.7L0.3,1.6c-0.4-0.4-0.4-0.9,0-1.3c0.4-0.4,0.9-0.4,1.3,0l5.2,5.2
			c0.4,0.4,0.4,0.9,0,1.3C6.6,6.9,6.3,7,6.1,7z"/>
	</g>
</g>
</svg>
