<svg enable-background="new 0 0 500 500" viewBox="0 0 500 500" xmlns="http://www.w3.org/2000/svg"><circle cx="233.9" cy="266.2" fill="#006aac" r="233.8"/><circle cx="233.9" cy="266.2" fill="#00abfb" r="178.6"/><circle cx="233.9" cy="266.2" fill="#f70000" r="122.7"/><circle cx="233.9" cy="266.2" fill="#fdec00" r="68.1"/><g fill="#008d5a"><path d="m233.9 281.2c-4 0-7.9-1.6-10.9-4.6-5.7-6-5.5-15.5.5-21.2l169.2-161.4c6-5.7 15.5-5.5 21.2.5s5.5 15.5-.5 21.2l-169.2 161.4c-2.9 2.7-6.6 4.1-10.3 4.1z"/><path d="m491.6 58.2-54.9 3.4-6-54.7c-.5-4.3-4.3-7.3-8.6-6.9-2 .2-3.8 1.2-5.1 2.7l-37.5 44.5c-6.4 7.6-9.2 17.6-7.6 27.5l8.6 53.5 54.2-.7c10-.1 19.4-4.6 25.8-12.2l37.5-44.4c2.8-3.3 2.3-8.2-.9-10.9-1.5-1.3-3.5-1.9-5.5-1.8z"/></g></svg>