<svg viewBox="0 0 500 500" xmlns="http://www.w3.org/2000/svg"><path d="m500.06 316.36c2.21 101.64-112.06 184.07-250.28 184.07-103.4 0-221.61-55.92-245.92-164.94-9.82-44.06 1-82.08 16.06-123a1008.26 1008.26 0 0 1 45.08-103.85 2 2 0 0 1 3.83.72c2.61 29.75 2.82 69 38 76.48 17.52 3.7 35.86-2.4 51-12 49.87-31.49 64.08-96.1 50.88-150.5-1-4.28-2.62-13.52-5.62-20.13a2 2 0 0 1 2.78-2.55c34.8 17.94 70.83 33.07 100.61 59.53 26.31 23.37 46.69 55.59 48 90.71.67 17.36-3.28 34.54-4.73 51.86s-.08 35.86 9.92 50.09c11 15.67 32.2 23.44 50.77 18.6 13.4-3.49 24.81-13.39 30.79-25.77 4.8-9.94 7.19-28.16 8.15-37.45a2 2 0 0 1 3.7-.9c16.72 25.33 46.11 68.79 46.98 109.03z" fill="#f70000"/><path d="m127.23 410.68c.42-19.56 14.71-40.68 22.81-53a1 1 0 0 1 1.8.44c.47 4.51 1.63 13.36 4 18.19a23 23 0 0 0 39.64 3.49c4.86-6.92 5.53-15.93 4.82-24.35s-2.62-16.76-2.3-25.2c.66-17.07 10.56-32.72 23.35-44.08 14.47-12.86 32-20.22 48.9-28.94a1 1 0 0 1 1.35 1.26c-1.45 3.22-2.22 7.71-2.73 9.79-6.41 26.43.49 57.83 24.73 73.14 44.25 28 52.36 72.63 30.23 119.24-9.75 20.52-26.68 34.44-49.22 38.08-55.86 9.02-148.9-17.94-147.38-88.06z" fill="#fdad00"/></svg>