<svg height="500" viewBox="0 0 500 500" width="500" xmlns="http://www.w3.org/2000/svg"><path d="m191.81 492.57a14.86 14.86 0 0 1 -3.71-.47 251.16 251.16 0 0 1 -134.54-87.61 249.82 249.82 0 0 1 19.67-331.12 250 250 0 0 1 275-53.06 15 15 0 1 1 -11.82 27.57 219.85 219.85 0 0 0 -306.34 202.12 217.52 217.52 0 0 0 47.05 135.92 221 221 0 0 0 118.38 77.08 15 15 0 0 1 -3.69 29.54z" fill="#00c2ff"/><path d="m370.06 50.67-25.35-49.58a2 2 0 0 0 -3.55 0l-29.83 57.09a2 2 0 0 0 2 2.9l55.18-7.52a2 2 0 0 0 1.55-2.89z" fill="#00c2ff"/><path d="m491.19 300.15-.79-.61a22.74 22.74 0 0 0 -31.9 4l-23.45 30.24-48.22-37.39-10.29-7.5a100.16 100.16 0 1 0 -76-55.47l-47.77-37.05a22.75 22.75 0 0 0 -31.91 4l-.61.79-37.38 48.21a22.75 22.75 0 0 0 4 31.91l.79.61a22.75 22.75 0 0 0 31.91-4l23.43-30.19 34.07 26.41-104.26 187.89a23.23 23.23 0 0 0 7.52 32 23.23 23.23 0 0 0 32-7.52l61-95.74 6.25-8.33 56.05 33-29.28 49.79a22.74 22.74 0 0 0 8 31.14l.86.51a22.75 22.75 0 0 0 31.14-8.05l39.89-67.7c.19-.3.41-.59.59-.9l1.36-2.3a21.9 21.9 0 0 0 -7.76-30l-37.05-21.84 18.69-30 63.2 49a22.74 22.74 0 0 0 31.91-4l.61-.78 37.39-48.21a22.74 22.74 0 0 0 -3.99-31.92z" fill="#006aac"/><g fill="#fdec00"><path d="m387.15 201.14a12.11 12.11 0 0 1 -12.15-12.14v-16a12.11 12.11 0 0 1 24.21 0v16a12.1 12.1 0 0 1 -12.06 12.14z"/><path d="m451 201.14a12.1 12.1 0 0 1 -12.1-12.1v-16.04a12.11 12.11 0 0 1 24.21 0v16a12.11 12.11 0 0 1 -12.11 12.14z"/></g></svg>