<?xml version="1.0" encoding="utf-8"?>
<!-- Generator: Adobe Illustrator 26.5.0, SVG Export Plug-In . SVG Version: 6.00 Build 0)  -->
<svg version="1.1" id="Multiply-divide_V2" xmlns="http://www.w3.org/2000/svg" xmlns:xlink="http://www.w3.org/1999/xlink" x="0px"
	 y="0px" viewBox="0 0 500 500" style="enable-background:new 0 0 500 500;" xml:space="preserve">
<style type="text/css">
	.st0{fill:#006AAC;}
	.st1{fill:#FDEC00;}
	.st2{fill:#00C2FF;}
	.st3{fill:#13202D;}
</style>
<g id="multiply-divide">
	<path class="st0" d="M42.5,0.2h416c23.2,0,42,18.8,42,42v416c0,23.2-18.8,42-42,42h-416c-23.2,0-42-18.8-42-42v-416
		C0.5,19,19.3,0.2,42.5,0.2z"/>
	<path class="st1" d="M86.6,53.2h109.5c18.3,0,33.1,14.8,33.1,33.1v109.5c0,18.3-14.8,33.1-33.1,33.1H86.6
		c-18.3,0-33.1-14.8-33.1-33.1V86.3C53.5,68.1,68.3,53.2,86.6,53.2z"/>
	<path class="st2" d="M304.9,53.2h109.5c18.3,0,33.1,14.8,33.1,33.1v109.5c0,18.3-14.8,33.1-33.1,33.1H304.9
		c-18.3,0-33.1-14.8-33.1-33.1V86.3C271.8,68.1,286.6,53.2,304.9,53.2z"/>
	<path class="st1" d="M86.6,271.5h109.5c18.3,0,33.1,14.8,33.1,33.1v109.5c0,18.3-14.8,33.1-33.1,33.1H86.6
		c-18.3,0-33.1-14.8-33.1-33.1V304.6C53.5,286.3,68.3,271.5,86.6,271.5z"/>
	<path class="st2" d="M304.9,271.5h109.5c18.3,0,33.1,14.8,33.1,33.1v109.5c0,18.3-14.8,33.1-33.1,33.1H304.9
		c-18.3,0-33.1-14.8-33.1-33.1V304.6C271.8,286.3,286.6,271.5,304.9,271.5z"/>
	<path id="divide" class="st3" d="M176.8,151.1h-70.9c-5.5,0-10-4.5-10-10s4.5-10,10-10h70.9c5.5,0,10,4.5,10,10
		S182.3,151.1,176.8,151.1L176.8,151.1z M141.3,92.3c-7.3,0-13.3,5.9-13.3,13.3s5.9,13.3,13.3,13.3s13.3-5.9,13.3-13.3
		S148.7,92.3,141.3,92.3z M141.3,163.3c-7.3,0-13.3,5.9-13.3,13.3s5.9,13.3,13.3,13.3s13.3-5.9,13.3-13.3S148.7,163.3,141.3,163.3z"
		/>
	<path class="st3" d="M155.5,359.6l28.4-28.4c3.9-3.9,3.9-10.2,0-14.1c-3.9-3.9-10.2-3.9-14.1,0l-28.4,28.4L113,317.1
		c-3.9-3.9-10.2-3.9-14.1,0c-3.9,3.9-3.9,10.2,0,14.1l28.4,28.4L98.8,388c-3.9,3.9-3.9,10.2,0,14.1c1.9,2,4.5,2.9,7.1,2.9
		s5.1-1,7.1-2.9l28.4-28.4l28.4,28.4c1.9,2,4.5,2.9,7.1,2.9s5.1-1,7.1-2.9c3.9-3.9,3.9-10.2,0-14.1L155.5,359.6L155.5,359.6z"/>
</g>
</svg>
