<?xml version="1.0" encoding="UTF-8"?><svg id="Creative" xmlns="http://www.w3.org/2000/svg" width="500" height="500" viewBox="0 0 500 500"><defs><style>.cls-1{fill:#f70000;}.cls-2{fill:#00c2ff;}.cls-3{fill:#006aac;}.cls-4{fill:#fdec00;}</style></defs><g id="Creative-2"><g><path class="cls-1" d="M486,243c0,19.6-2.32,38.65-6.7,56.91l-43.81-10.2c3.64-15.12,5.51-30.77,5.51-46.71,0-52.89-20.59-102.61-57.99-140.01-37.4-37.4-87.12-57.99-140.01-57.99s-102.61,20.59-140,57.99c-37.4,37.4-58,87.12-58,140.01,0,3.58,.09,7.14,.29,10.69,0,21.04-45.05,21.04-45.05,0-.16-3.54-.24-7.11-.24-10.69C0,108.79,108.8,0,243,0s243,108.79,243,243Z"/><path class="cls-4" d="M441,243c0,16.08-1.93,31.72-5.57,46.7l-43.83-10.21c2.88-11.69,4.4-23.92,4.4-36.49,0-84.37-68.63-153-153-153S90,158.63,90,243c0,3.59,.12,7.16,.37,10.69-11.4-26.34-38.19-19.38-45.08,0-.19-3.54-.29-7.1-.29-10.69,0-109.18,88.82-198,198-198s198,88.82,198,198Z"/><path class="cls-2" d="M396,243c0,12.57-1.52,24.8-4.4,36.49l-43.84-10.21c2.12-8.41,3.24-17.22,3.24-26.28,0-59.55-48.45-108-108-108s-108,48.45-108,108c0,3.61,.18,7.17,.53,10.69,0,32.33-45.16,32.33-45.16,0-.25-3.53-.37-7.1-.37-10.69,0-84.37,68.64-153,153-153s153,68.63,153,153Z"/><circle class="cls-3" cx="242.74" cy="249.62" r="36"/></g><g id="Brush"><path class="cls-3" d="M474.15,421.53l-1.7,7.82c-4.94,22.66-27.32,37.03-49.98,32.09l-20.76-4.53-5.2,23.86c-2.87,13.18-15.89,21.54-29.07,18.66-13.17-2.87-21.53-15.88-18.65-29.06l5.2-23.86-25.32-5.52c-22.66-4.94-37.03-27.32-32.09-49.98l1.7-7.82,175.87,38.34Z"/><path class="cls-4" d="M326.49,268.91h148.22c8.83,0,16,7.17,16,16v119h-180.22v-119c0-8.83,7.17-16,16-16Z" transform="translate(80.85 -77.61) rotate(12.3)"/><path class="cls-1" d="M499.59,305.38l-7.04,32.29-11.87-2.59c-6.95-1.52-14.04,.87-19.05,5.92-4.27,4.31-10.59,6.4-16.95,5.02-9.89-2.16-16.17-11.9-14.04-21.78,1.05-4.88-.51-10.02-4.5-13-6.46-4.82-12.4-2.05-17.53,1.2-21.42,13.57-94.8-2.22-90.41-21.06l5.32-24.38c1.89-8.69,10.47-14.19,19.16-12.3l144.63,31.53c8.69,1.89,14.19,10.47,12.3,19.16Z"/></g><g id="music_note"><ellipse class="cls-2" cx="83.23" cy="432.95" rx="31.1" ry="24.78"/><path class="cls-2" d="M101.18,444.89c-7.27,0-13.17-5.9-13.17-13.17v-75.65c0-7.27,5.9-13.17,13.17-13.17s13.17,5.9,13.17,13.17v75.65c0,7.27-5.9,13.17-13.17,13.17Z"/><path class="cls-2" d="M186.78,431.84c-7.27,0-13.17-5.9-13.17-13.17v-75.65c0-7.27,5.9-13.17,13.17-13.17s13.17,5.9,13.17,13.17v75.65c0,7.27-5.9,13.17-13.17,13.17Z"/><path class="cls-2" d="M101.16,369.23c-6.4,0-12.01-4.67-13-11.18-1.1-7.19,3.84-13.9,11.03-15l85.6-13.05c7.19-1.09,13.9,3.84,15,11.03,1.1,7.19-3.84,13.9-11.03,15l-85.6,13.05c-.67,.1-1.34,.15-2,.15Z"/><ellipse class="cls-2" cx="168.88" cy="421.18" rx="31.1" ry="24.78"/></g></g></svg>