<svg viewBox="0 0 500 500" xmlns="http://www.w3.org/2000/svg"><rect fill="#006aac" height="500" rx="42" width="500"/><path d="m86.16 217.27h70.16a20.61 20.61 0 0 1 20.61 20.61v35.12a55.69 55.69 0 0 1 -55.69 55.69 55.69 55.69 0 0 1 -55.69-55.69v-35.12a20.61 20.61 0 0 1 20.61-20.61z" fill="#fdad00"/><path d="m325.48 256.13 9.41 19.07a6.1 6.1 0 0 0 4.59 3.34l21 3.06a6.09 6.09 0 0 1 3.43 10.4l-15.24 14.85a6.1 6.1 0 0 0 -1.75 5.39l3.6 21a6.09 6.09 0 0 1 -8.84 6.42l-18.83-9.9a6.11 6.11 0 0 0 -5.67 0l-18.83 9.9a6.09 6.09 0 0 1 -8.84-6.42l3.59-21a6.07 6.07 0 0 0 -1.75-5.39l-15.23-14.85a6.09 6.09 0 0 1 3.37-10.39l21.06-3.06a6.08 6.08 0 0 0 4.58-3.34l9.42-19.07a6.09 6.09 0 0 1 10.93-.01z" fill="#fdec00"/><path d="m206.02 395.74h227.98v104.26h-227.98z" fill="#fdad00"/><path d="m437.75 428.9h-235.48a20 20 0 1 1 0-40h235.48a20 20 0 0 1 0 40z" fill="#41bf2e"/><path d="m176.93 252.7h-112.67a20 20 0 0 1 0-40h112.67a20 20 0 0 1 0 40z" fill="#41bf2e"/><path d="m287.75 67.15h119.17a20.61 20.61 0 0 1 20.61 20.61v35.08a55.69 55.69 0 0 1 -55.69 55.69h-49a55.69 55.69 0 0 1 -55.69-55.69v-35.08a20.61 20.61 0 0 1 20.6-20.61z" fill="#fdad00"/><path d="m427.53 102.58h-162.24a20 20 0 0 1 0-40h162.24a20 20 0 0 1 0 40z" fill="#41bf2e"/><path d="m150.25 170.68-11.63-11.63a6.22 6.22 0 0 0 -4.45-1.83 27 27 0 1 0 -27.14 0 6.22 6.22 0 0 0 -4.45 1.83l-11.58 11.63a6.26 6.26 0 0 0 0 8.86 6.28 6.28 0 0 0 8.86 0l3.18-3.19v13.22 16.43a6.27 6.27 0 1 0 12.53 0v-10.12h10.18v10.12a6.26 6.26 0 1 0 12.52 0v-29.65l3.19 3.19a6.28 6.28 0 0 0 8.86 0 6.28 6.28 0 0 0 -.07-8.86z" fill="#13202d"/><g fill="#008d5a"><path d="m117.17 143.09a3.41 3.41 0 0 1 -3.41-3.41v-4.52a3.41 3.41 0 1 1 6.82 0v4.52a3.41 3.41 0 0 1 -3.41 3.41z"/><path d="m136.59 143.09a3.41 3.41 0 0 1 -3.41-3.41v-4.52a3.41 3.41 0 0 1 6.82 0v4.52a3.41 3.41 0 0 1 -3.41 3.41z"/></g></svg>