<?xml version="1.0" encoding="UTF-8"?><svg id="Trivia_-_Food" xmlns="http://www.w3.org/2000/svg" width="500" height="500" viewBox="0 0 500 500"><defs><style>.cls-1{fill:#fff;}.cls-2{fill:#f50000;}</style></defs><g id="food"><rect class="cls-2" y="-.35" width="500" height="500" rx="42" ry="42"/><path class="cls-1" d="M229,169.53v24c0,26.8-17.57,49.49-41.82,57.19h.76l8.04,122.07c1.06,15.65-11.35,28.93-27.04,28.93h0c-15.69,0-28.1-13.28-27.04-28.93l8.04-122.07h.88c-24.25-7.7-41.82-30.39-41.82-57.19v-24c0-33.14,26.86-60,60-60h0c33.14,0,60,26.86,60,60Zm151.33-59.98c-5.31,.34-9.33,5-9.33,10.32v75.66c0,4.42-3.58,8-8,8h-14c-4.42,0-8-3.58-8-8V119.87c0-5.33-4.02-9.98-9.33-10.32-5.82-.38-10.67,4.24-10.67,9.98v76c0,4.42-3.58,8-8,8h-14c-4.42,0-8-3.58-8-8V119.87c0-5.33-4.02-9.98-9.33-10.32-5.82-.38-10.67,4.24-10.67,9.98v84c0,24.47,17.59,44.83,40.81,49.14l-7.92,120.11c-1.06,15.65,11.36,28.93,27.04,28.93h0c15.69,0,28.1-13.28,27.05-28.93l-7.91-120.09c23.28-4.27,40.93-24.65,40.93-49.16V119.53c0-5.74-4.84-10.36-10.67-9.98Z"/></g></svg>