<svg height="500" viewBox="0 0 500 500" width="500" xmlns="http://www.w3.org/2000/svg"><path d="m304.21 124.24a54.21 54.21 0 0 1 -54.21 54.21v71.55h-70.8a54.2 54.2 0 0 0 -108.4 0h-70.8v-208a42 42 0 0 1 42-42h208v70a54.21 54.21 0 0 1 54.21 54.24z" fill="#fdec00"/><path d="m500 250h-66.79v.45a54.21 54.21 0 0 1 -108.42 0c0-.15 0-.3 0-.45h-74.79v-71.55a54.21 54.21 0 0 0 0-108.45v-70h208a42 42 0 0 1 42 42z" fill="#00c2ff"/><path d="m195.79 379.47a54.21 54.21 0 0 0 54.21 54.21v66.32h-208a42 42 0 0 1 -42-42v-208h70.8a54.2 54.2 0 0 1 108.4 0h70.8v75.25a54.21 54.21 0 0 0 -54.21 54.22z" fill="#fdad00"/><path d="m500 250v208a42 42 0 0 1 -42 42h-208v-66.32a54.22 54.22 0 0 1 0-108.43v-75.25h74.81v.45a54.21 54.21 0 0 0 108.42 0c0-.15 0-.3 0-.45z" fill="#006aac"/></svg>