<?xml version="1.0" encoding="UTF-8"?><svg id="Helping" xmlns="http://www.w3.org/2000/svg" width="500" height="500" viewBox="0 0 500 500"><defs><style>.cls-1{fill:#00c2ff;}.cls-2{fill:#008d5a;}.cls-3{fill:#fdad00;}.cls-4{fill:#fdec00;}.cls-5{fill:#13202d;}</style></defs><g><path class="cls-2" d="M42.4-.02h114V155.98H.4V41.98C.4,18.78,19.2-.02,42.4-.02Z"/><rect class="cls-2" x="172.4" y="-.25" width="156" height="156"/><path class="cls-1" d="M344.4-.25h114c23.2,0,42,18.8,42,42v114h-156V-.25Z"/><path class="cls-1" d="M.4,171.75H156.4v156H42.4c-23.2,0-42-18.8-42-42v-114Z"/><rect class="cls-2" x="172.4" y="171.75" width="156" height="156"/><path class="cls-2" d="M344.4,171.75h156v114c0,23.2-18.8,42-42,42h-114V171.75Z"/><g id="controls"><g><rect class="cls-3" x=".4" y="343.75" width="156" height="156" rx="42" ry="42"/><rect class="cls-3" x="172.4" y="343.75" width="156" height="156" rx="42" ry="42"/><rect class="cls-3" x="344.4" y="343.75" width="156" height="156" rx="42" ry="42"/></g><path class="cls-4" d="M293.74,417.43l-37.69-37.69c-3.12-3.12-8.19-3.12-11.31,0l-37.69,37.69c-5.04,5.04-1.47,13.66,5.66,13.66h22.69v25.67c0,8.28,6.72,15,15,15s15-6.72,15-15v-25.67h22.69c7.13,0,10.7-8.62,5.66-13.66Z"/><path class="cls-4" d="M464.73,416.42l-37.69-37.69c-5.04-5.04-13.66-1.47-13.66,5.66v22.69h-25.67c-8.28,0-15,6.72-15,15s6.72,15,15,15h25.67v22.69c0,7.13,8.62,10.7,13.66,5.66l37.69-37.69c3.12-3.12,3.12-8.19,0-11.31Z"/><path class="cls-4" d="M109.07,407.07h-25.67v-22.69c0-7.13-8.62-10.7-13.66-5.66l-37.69,37.69c-3.12,3.12-3.12,8.19,0,11.31l37.69,37.69c5.04,5.04,13.66,1.47,13.66-5.66v-22.69h25.67c8.28,0,15-6.72,15-15s-6.72-15-15-15Z"/></g></g><g id="player"><path class="cls-5" d="M299.31,219.09l-19.57-19.61c-2.07-2.07-4.78-3.1-7.49-3.09,13.53-7.89,22.63-22.57,22.63-39.38,0-25.16-20.36-45.55-45.48-45.55s-45.48,20.39-45.48,45.55c0,16.81,9.1,31.49,22.63,39.38-2.71,0-5.42,1.02-7.49,3.09l-19.57,19.61c-4.12,4.13-4.12,10.81,0,14.94h0c4.12,4.13,10.8,4.13,14.91,0l5.36-5.37v22.29h-.03v27.73c0,5.83,4.72,10.56,10.55,10.56s10.55-4.73,10.55-10.56v-17.09h17.12v17.09c0,5.83,4.72,10.56,10.55,10.56s10.55-4.73,10.55-10.56v-50.02l5.36,5.37c4.12,4.13,10.8,4.13,14.91,0h0c4.12-4.13,4.12-10.81,0-14.94Z"/></g><path class="cls-4" d="M84.06,34.74l10.07,20.41c.95,1.92,2.78,3.26,4.91,3.57l22.53,3.27c5.35,.78,7.48,7.35,3.61,11.12l-16.3,15.89c-1.54,1.5-2.24,3.65-1.87,5.77l3.85,22.44c.91,5.32-4.68,9.39-9.46,6.87l-20.15-10.59c-1.9-1-4.17-1-6.07,0l-20.15,10.59c-4.78,2.51-10.37-1.55-9.46-6.87l3.85-22.44c.36-2.11-.34-4.27-1.87-5.77l-16.3-15.89c-3.87-3.77-1.73-10.34,3.61-11.12l22.53-3.27c2.12-.31,3.96-1.64,4.91-3.57l10.07-20.41c2.39-4.84,9.3-4.84,11.69,0Z"/></svg>