<svg height="78" viewBox="0 0 78 78" width="78" xmlns="http://www.w3.org/2000/svg"><g fill="none" fill-rule="evenodd"><g transform="translate(7 5)"><g fill-rule="nonzero"><path d="m32 65.0562-.1052-.0559h.2104z" fill="#5db3e4"/><path d="m32 13.9341-19.4 10.1409v19.8506l19.4 10.1409 19.4-10.1409v-19.8506z" fill="#5db3e4"/><g fill="#c0def0"><path d="m30.7 3.63501-26.48192 14.06849 7.10782 4.1037 19.3741-10.1274z"/><path d="m2.59998 48.1539v-28.3823l7.40002 4.2724v19.8375z"/><path d="m4.15027 50.2611 26.54973 14.1045v-8.0448l-19.4425-10.1631z"/><path d="m60.1238 50.1155-26.8238 14.2501v-8.0448l19.7186-10.3075z"/><path d="m61.4 47.8501-7.4-4.2724v-19.2299l7.4-4.2724z"/><path d="m60.056 17.8491-26.756-14.21409v8.04479l19.6503 10.2718z"/></g></g><g fill="#000"><path d="m32 0 32 17v34l-32 17-32-17v-34zm-27.78191 17.7033 26.48191-14.06854v8.04484l-19.3741 10.1273zm-1.61809 2.068v28.3823l7.4-4.2724v-19.8375zm28.1 44.5939-26.5497-14.1045 7.1072-4.1033 19.4425 10.163zm1.1948.6348.1052.0559.1052-.0559zm1.4052-.6347 26.8238-14.2502-7.1052-4.1021-19.7186 10.3075zm20.7-20.7879 7.4 4.2723v-27.7746l-7.4 4.2724zm-20.7-39.94266 26.756 14.21416-7.1057 4.1024-19.6503-10.2718zm-20.7 20.43996 19.4-10.1409 19.4 10.1409v19.8506l-19.4 10.1409-19.4-10.1409z" stroke="#000" stroke-width=".2"/><path d="m30.913 37.768c0-2.3-2.024-3.519-3.588-3.68 1.702-.299 3.358-1.564 3.358-3.496 0-2.553-2.208-4.163-5.796-4.163-2.116 0-3.772.621-5.037 1.633-.322.253-.483.621-.483.989 0 .805.713 1.38 1.426 1.38.276 0 .552-.069.782-.23.897-.575 1.909-.874 2.967-.874 1.61 0 2.852.598 2.852 1.817 0 1.265-1.38 1.725-3.381 1.633-.897 0-1.495.621-1.495 1.426 0 1.035.851 1.61 2.047 1.449 2.139 0 3.082.552 3.082 1.771 0 1.15-1.035 1.955-2.898 1.955-1.058 0-2.277-.368-3.289-.966-.253-.161-.529-.23-.805-.23-.759 0-1.495.621-1.495 1.449 0 .23.069.437.184.621.713 1.196 3.312 2.024 5.52 2.024 3.68 0 6.049-1.863 6.049-4.508zm13.706 2.76c0-.759-.644-1.403-1.403-1.403h-4.991c3.979-2.898 6.141-5.175 6.141-7.797 0-3.059-2.599-4.899-5.865-4.899-1.932 0-4.508.828-5.244 2.001-.138.207-.207.437-.207.667 0 .828.667 1.472 1.426 1.472.345 0 .644-.092.943-.299.874-.598 1.932-.943 3.151-.943 1.265 0 2.484.667 2.484 2.001 0 1.794-1.84 3.473-7.567 7.705-.437.322-.69.851-.69 1.38 0 .92.736 1.587 1.541 1.587h8.878c.759 0 1.403-.644 1.403-1.472z" fill-rule="nonzero"/></g></g><path d="m0 0h78v78h-78z"/></g></svg>