<svg viewBox="0 0 500 500" xmlns="http://www.w3.org/2000/svg"><path d="m318.78 209.66 50-151.35-137.18-45.31-50 151.35-163.26 154.18c-32.17 30.37-20.22 84.08 21.79 98l52.5 17.34 137.17 45.25 52.5 17.34c42 13.87 83.6-22.16 75.84-65.72z" fill="#00c2ff"/><rect fill="#00c2ff" height="49.86" rx="24.73" transform="matrix(.94953502 .31366102 -.31366102 .94953502 31.31 -89.75)" width="221.74" x="183.76" y="27.53"/><path d="m304 115.8h41.3a0 0 0 0 1 0 0v18.95a0 0 0 0 1 0 0h-41.3a9.4 9.4 0 0 1 -9.4-9.4v-.15a9.4 9.4 0 0 1 9.4-9.4z" fill="#006aac" transform="matrix(.94953502 .31366102 -.31366102 .94953502 55.42 -94.01)"/><path d="m291.76 152.76h41.34a0 0 0 0 1 0 0v18.94a0 0 0 0 1 0 0h-41.34a9.4 9.4 0 0 1 -9.4-9.4v-.15a9.4 9.4 0 0 1 9.4-9.39z" fill="#006aac" transform="matrix(.94953502 .31366102 -.31366102 .94953502 66.39 -88.32)"/><g fill="#814fa5"><path d="m282.3 496.46-242.18-80c-42-13.88-53.95-67.59-21.78-98l73.59-69.46c.38.14.77.27 1.15.39 22.84 7.55 37.76-.33 55.05-9.46 18.28-9.65 39-20.6 69.19-10.63s40.29 31.1 49.24 49.74c8.45 17.62 15.73 32.84 38.58 40.38 13 4.31 23.49 3.59 33.28.48l19.72 110.8c7.76 43.6-33.83 79.64-75.84 65.76z"/><circle cx="101.73" cy="151.74" r="25.91"/><circle cx="80.21" cy="48.73" r="12.96"/><circle cx="461.06" cy="171.5" r="38.87"/></g></svg>