<svg enable-background="new 0 0 500 500" viewBox="0 0 500 500" xmlns="http://www.w3.org/2000/svg"><path d="m42 0h416c23.2 0 42 18.8 42 42v390.7c0 23.2-18.8 42-42 42h-416c-23.2 0-42-18.8-42-42v-390.7c0-23.2 18.8-42 42-42z" fill="#006aac"/><path d="m0 354.3h500v103.7c0 23.2-18.8 42-42 42h-416c-23.2 0-42-18.8-42-42z" fill="#008d5a"/><path d="m242 327.7h127.5v107.8c0 8.8-7.2 16-16 16h-95.5c-8.8 0-16-7.2-16-16z" fill="#006aac"/><path d="m369.5 248.8h130.5v166.3h-130.5z" fill="#008d5a"/><path d="m257 360.2c0 11-9 20-20 20l-237-.1v-40l237 .1c11 0 20 8.9 20 20z" fill="#41bf2e"/><path d="m500 241.1v40h-128.4c-11 0-20-9-20-20s9-20 20-20z" fill="#41bf2e"/><path d="m146.9 229h79.3c8.8 0 16 7.2 16 16v79.3c0 8.8-7.2 16-16 16h-79.3c-8.8 0-16-7.2-16-16v-79.3c0-8.9 7.2-16 16-16z" fill="#fdad00"/><path d="m368.5 82.8 10.1 20.4c.9 1.9 2.8 3.3 4.9 3.6l22.5 3.3c3.6.5 6 3.8 5.5 7.4-.2 1.4-.9 2.7-1.9 3.7l-16.3 15.9c-1.5 1.5-2.2 3.7-1.9 5.8l3.9 22.4c.6 3.5-1.8 6.9-5.3 7.5-1.4.2-2.9 0-4.1-.7l-20.1-10.6c-1.9-1-4.2-1-6.1 0l-20.1 10.6c-3.2 1.7-7.1.4-8.8-2.7-.7-1.3-.9-2.7-.7-4.1l3.9-22.4c.4-2.1-.3-4.3-1.9-5.8l-16.3-15.9c-2.6-2.5-2.6-6.6-.1-9.2 1-1 2.3-1.7 3.7-1.9l22.5-3.3c2.1-.3 4-1.6 4.9-3.6l10.1-20.4c1.6-3.2 5.5-4.6 8.7-3 1.2.7 2.3 1.7 2.9 3z" fill="#fdec00"/><g fill="#13202d"><circle cx="97.7" cy="257.3" r="28.6"/><path d="m86.5 282.1h24.3c3 0 5.5 2.5 5.5 5.5v35.5h-35.3v-35.5c0-3 2.5-5.5 5.5-5.5z"/><path d="m103.1 316.4h13.3v17.8c0 3.5-2.8 6.3-6.3 6.3h-.8c-3.5 0-6.3-2.8-6.3-6.3z"/><path d="m83.6 314.8 12.5 4.6-6.1 16.7c-1.2 3.2-4.8 4.9-8 3.7l-.7-.3c-3.3-1.2-4.9-4.7-3.8-8z"/><path d="m102.9 289.3v-.8c0-3.5 2.8-6.3 6.3-6.3h18.2c3.5 0 6.3 2.8 6.3 6.3v.8c0 3.5-2.8 6.3-6.3 6.3h-18.2c-3.5-.1-6.3-2.9-6.3-6.3z"/></g><path d="m110.1 261.1c-2 0-3.6-1.6-3.6-3.6v-4.8c0-2 1.6-3.6 3.6-3.6s3.6 1.6 3.6 3.6v4.8c0 2-1.6 3.6-3.6 3.6z" fill="#008d5a"/></svg>