<?xml version="1.0" encoding="utf-8"?>
<!-- Generator: Adobe Illustrator 26.5.0, SVG Export Plug-In . SVG Version: 6.00 Build 0)  -->
<svg version="1.1" id="Gears" xmlns="http://www.w3.org/2000/svg" xmlns:xlink="http://www.w3.org/1999/xlink" x="0px" y="0px"
	 viewBox="0 0 500 447.5" style="enable-background:new 0 0 500 447.5;" xml:space="preserve">
<style type="text/css">
	.st0{fill:#FDEC00;}
	.st1{fill:#00C2FF;}
	.st2{fill:#FDAD00;}
</style>
<path class="st0" d="M217,118.3V98.7c0-4.6-3.7-8.3-8.3-8.3h-12.6c-5.5,0-10.3-3.4-12.2-8.6c-0.9-2.7-2-5.3-3.2-7.8
	c-2.4-4.9-1.3-10.8,2.5-14.7l8.9-8.9c3.2-3.2,3.2-8.5,0-11.7l-13.9-13.9c-3.2-3.2-8.5-3.2-11.7,0l-8.9,8.9
	c-3.9,3.9-9.8,4.9-14.7,2.5c-2.5-1.2-5.1-2.3-7.8-3.2c-5.1-1.8-8.6-6.7-8.6-12.2V8.3c0-4.6-3.7-8.3-8.3-8.3H98.7
	c-4.6,0-8.3,3.7-8.3,8.3v12.7c0,5.5-3.4,10.3-8.6,12.2c-2.7,0.9-5.3,2-7.8,3.2c-4.9,2.4-10.8,1.3-14.7-2.5l-8.9-8.9
	c-3.2-3.2-8.5-3.2-11.7,0L24.8,38.7c-3.2,3.2-3.2,8.5,0,11.7l8.9,8.9c3.9,3.9,4.9,9.7,2.5,14.7c-1.2,2.5-2.3,5.1-3.2,7.8
	c-1.8,5.2-6.7,8.6-12.2,8.6H8.3c-4.6,0-8.3,3.7-8.3,8.3v19.6c0,4.6,3.7,8.3,8.3,8.3h12.7c5.5,0,10.3,3.4,12.2,8.6
	c0.9,2.7,2,5.3,3.2,7.8c2.4,4.9,1.3,10.8-2.5,14.7l-8.9,8.9c-3.2,3.2-3.2,8.5,0,11.7l13.9,13.9c3.2,3.2,8.5,3.2,11.7,0l8.9-8.9
	c3.9-3.9,9.7-4.9,14.7-2.5c2.5,1.2,5.1,2.3,7.8,3.2c5.2,1.8,8.6,6.7,8.6,12.2v12.6c0,4.6,3.7,8.3,8.3,8.3h19.6
	c4.6,0,8.3-3.7,8.3-8.3v-12.6c0-5.5,3.4-10.3,8.6-12.2c2.7-0.9,5.3-2,7.8-3.2c4.9-2.4,10.8-1.3,14.7,2.5l8.9,8.9
	c3.2,3.2,8.5,3.2,11.7,0l13.9-13.9c3.2-3.2,3.2-8.5,0-11.7l-8.9-8.9c-3.9-3.9-4.9-9.8-2.5-14.7c1.2-2.5,2.3-5.1,3.2-7.8
	c1.8-5.1,6.7-8.6,12.2-8.6h12.6C213.3,126.6,217,122.9,217,118.3L217,118.3z M111.1,148.4C87,150,67.1,130.1,68.6,105.9
	C69.9,86,86,69.9,105.9,68.6c24.1-1.5,44,18.4,42.5,42.5C147.2,131,131,147.2,111.1,148.4z"/>
<path class="st1" d="M258.7,347.1v-20c0-4.6-3.8-8.4-8.4-8.4h-12.9c-5.6,0-10.5-3.5-12.4-8.7c-1-2.7-2.1-5.4-3.3-7.9
	c-2.4-5-1.4-11,2.6-14.9l9.1-9.1c3.3-3.3,3.3-8.6,0-11.9l-14.1-14.1c-3.3-3.3-8.6-3.3-11.9,0l-9.1,9.1c-3.9,3.9-9.9,5-14.9,2.6
	c-2.6-1.2-5.2-2.3-7.9-3.3c-5.2-1.9-8.7-6.8-8.7-12.4v-12.9c0-4.6-3.8-8.4-8.4-8.4h-19.9c-4.6,0-8.4,3.8-8.4,8.4v12.9
	c0,5.6-3.5,10.5-8.7,12.4c-2.7,1-5.4,2.1-7.9,3.3c-5,2.4-11,1.4-14.9-2.6l-9.1-9.1c-3.3-3.3-8.6-3.3-11.9,0l-14.1,14.1
	c-3.3,3.3-3.3,8.6,0,11.9l9.1,9.1c3.9,3.9,5,9.9,2.6,14.9c-1.2,2.6-2.3,5.2-3.3,7.9c-1.8,5.2-6.8,8.7-12.4,8.7H46.4
	c-4.7,0-8.4,3.8-8.4,8.4v20c0,4.6,3.8,8.4,8.4,8.4h12.9c5.6,0,10.5,3.5,12.4,8.7c1,2.7,2.1,5.4,3.3,7.9c2.4,5,1.4,11-2.6,14.9
	l-9.1,9.1c-3.3,3.3-3.3,8.6,0,11.9l14.1,14.1c3.3,3.3,8.6,3.3,11.9,0l9.1-9.1c3.9-3.9,9.9-5,14.9-2.6c2.6,1.2,5.2,2.3,7.9,3.3
	c5.2,1.9,8.7,6.8,8.7,12.4v12.9c0,4.6,3.8,8.4,8.4,8.4h19.9c4.6,0,8.4-3.8,8.4-8.4v-12.9c0-5.5,3.5-10.5,8.7-12.4
	c2.7-1,5.4-2.1,7.9-3.3c5-2.4,11-1.4,14.9,2.6l9.1,9.1c3.3,3.3,8.6,3.3,11.9,0l14.1-14.1c3.3-3.3,3.3-8.6,0-11.9l-9.1-9.1
	c-3.9-3.9-5-9.9-2.6-14.9c1.2-2.6,2.3-5.2,3.3-7.9c1.9-5.2,6.8-8.7,12.4-8.7h12.9C254.9,355.6,258.7,351.8,258.7,347.1z M151,377.8
	c-24.6,1.5-44.8-18.7-43.2-43.2c1.3-20.2,17.7-36.7,37.9-38c24.6-1.5,44.8,18.7,43.2,43.2C187.7,360.1,171.2,376.5,151,377.8z"/>
<path class="st2" d="M500,181.6l-1.1-25.5c-0.3-5.9-5.3-10.5-11.2-10.3l-16.4,0.7c-7.1,0.3-13.6-3.8-16.3-10.4
	c-1.4-3.4-2.9-6.7-4.6-9.9c-3.4-6.3-2.4-14,2.4-19.2L463.8,95c4-4.4,3.7-11.2-0.7-15.2l-18.8-17.2c-4.4-4-11.2-3.7-15.2,0.7
	L418,75.4c-4.8,5.2-12.4,6.9-18.9,4.1c-3.4-1.4-6.8-2.7-10.3-3.7c-6.8-2.1-11.5-8.2-11.8-15.3l-0.7-16.4
	c-0.3-5.9-5.3-10.5-11.2-10.3L339.5,35c-5.9,0.3-10.5,5.3-10.3,11.2l0.7,16.4c0.3,7.1-3.8,13.6-10.4,16.3c-3.4,1.4-6.7,2.9-10,4.7
	c-6.3,3.3-14,2.4-19.2-2.4l-12.1-11.1c-4.4-4-11.2-3.7-15.2,0.7l-17.2,18.8c-4,4.4-3.7,11.2,0.7,15.2l12.1,11.1
	c5.2,4.8,6.9,12.4,4.1,18.9c-1.4,3.4-2.7,6.8-3.7,10.3c-2.1,6.8-8.2,11.5-15.3,11.8l-16.4,0.7c-5.9,0.3-10.5,5.3-10.3,11.2l1.1,25.5
	c0.3,5.9,5.3,10.5,11.2,10.3l16.4-0.7c7.1-0.3,13.6,3.8,16.3,10.4c1.4,3.4,2.9,6.7,4.6,9.9c3.4,6.3,2.4,14-2.4,19.2l-11.1,12.1
	c-4,4.4-3.7,11.2,0.7,15.2l18.8,17.2c4.4,4,11.2,3.7,15.2-0.7l11.1-12.1c4.8-5.2,12.4-6.9,18.9-4.1c3.4,1.4,6.8,2.7,10.3,3.7
	c6.8,2.1,11.5,8.2,11.8,15.3l0.7,16.4c0.3,5.9,5.3,10.5,11.2,10.3l25.5-1.1c5.9-0.3,10.5-5.3,10.3-11.2l-0.7-16.4
	c-0.3-7.1,3.8-13.6,10.4-16.3c3.4-1.4,6.7-2.9,10-4.6c6.3-3.4,14-2.4,19.2,2.4l12.1,11.1c4.4,4,11.2,3.7,15.2-0.7l17.2-18.8
	c4-4.4,3.7-11.2-0.7-15.2l-12.1-11.1c-5.2-4.8-6.9-12.4-4.1-18.9c1.4-3.4,2.7-6.8,3.7-10.3c2.1-6.8,8.2-11.5,15.3-11.8l16.4-0.7
	C495.7,192.6,500.3,187.6,500,181.6L500,181.6z M364.3,226.9c-31.2,3.4-58.2-21.3-57.7-52.7c0.5-25.9,20.5-47.8,46.3-50.6
	c31.2-3.4,58.2,21.3,57.7,52.7C410.1,202.2,390,224.1,364.3,226.9L364.3,226.9z"/>
</svg>
