<svg viewBox="0 0 500 500" xmlns="http://www.w3.org/2000/svg"><ellipse cx="265.28" cy="265.23" fill="#006aac" rx="234.72" ry="234.61"/><ellipse cx="265.28" cy="265.23" fill="#fff" rx="172.5" ry="172.42"/><g fill="#006aac"><rect height="87.96" rx="23.24" transform="matrix(-1 0 0 -1 536.81 87.77)" width="57.64" x="239.59" y="-.1"/><path d="m53.2 39.25h57.63v87.98h-57.63z" transform="matrix(.70723018 -.70698336 .70698336 .70723018 -34.84 82.35)"/><path d="m111.78 40.85-70.78 70.71a16 16 0 0 1 -22.65 0l-13.66-13.66a16 16 0 0 1 0-22.65l70.76-70.72a16 16 0 0 1 22.65 0l13.68 13.67a16 16 0 0 1 0 22.65z"/></g><path d="m265.28 265.23-100.44-98.78a140.94 140.94 0 0 1 235.21 57.67z" fill="#f70000"/><ellipse cx="269.44" cy="266.38" fill="#13202d" rx="33.14" ry="33.12"/><path d="m384.68 223.07-116.1 10.19 18.88 60.74 100.63-60.42a5.67 5.67 0 0 0 -3.41-10.51z" fill="#13202d"/></svg>