<?xml version="1.0" encoding="UTF-8"?><svg id="Simulation" xmlns="http://www.w3.org/2000/svg" width="500" height="500" viewBox="0 0 500 500"><defs><style>.cls-1{fill:#006aac;}.cls-2{fill:#fdec00;}.cls-3{fill:#21465f;}.cls-4{fill:#41bf2e;}</style></defs><g id="Simulation-2"><path class="cls-1" d="M42,429.92H458c23.18,0,42,18.82,42,42v12c0,8.83-7.17,16-16,16H16C7.17,499.92,0,492.75,0,483.92v-12C0,448.74,18.82,429.92,42,429.92Z"/><path class="cls-4" d="M20.09-.08H480.39c10.21,0,17.81,9.43,15.63,19.41l-89.52,410.59H93.5L4.46,19.31C2.29,9.34,9.89-.08,20.09-.08Z"/><g id="cityscape"><path class="cls-3" d="M228.25,105.21h53c8.83,0,16,7.17,16,16v211.4h-85V121.21c0-8.83,7.17-16,16-16Z"/><path class="cls-3" d="M292.07,220.02h74.18c8.83,0,16,7.17,16,16v80.6c0,8.83-7.17,16-16,16h-74.18v-112.6h0Z"/><path class="cls-3" d="M143.25,185.8h74.26v146.82h-74.26c-8.83,0-16-7.17-16-16v-114.82c0-8.83,7.17-16,16-16Z"/><g><g><rect class="cls-2" x="263.25" y="129.92" width="17" height="24" rx="8.5" ry="8.5"/><rect class="cls-2" x="228.25" y="129.92" width="17" height="24" rx="8.5" ry="8.5"/></g><g><rect class="cls-2" x="263.25" y="179.25" width="17" height="24" rx="8.5" ry="8.5"/><rect class="cls-2" x="228.25" y="179.25" width="17" height="24" rx="8.5" ry="8.5"/></g><g><rect class="cls-2" x="263.25" y="228.58" width="17" height="24" rx="8.5" ry="8.5"/><rect class="cls-2" x="228.25" y="228.58" width="17" height="24" rx="8.5" ry="8.5"/></g></g><g><rect class="cls-2" x="345.25" y="244.92" width="17" height="24" rx="8.5" ry="8.5"/><rect class="cls-2" x="310.25" y="244.92" width="17" height="24" rx="8.5" ry="8.5"/></g><g><rect class="cls-2" x="144.25" y="210.92" width="61" height="16" rx="8" ry="8"/><rect class="cls-2" x="144.25" y="251.92" width="61" height="16" rx="8" ry="8"/></g></g></g></svg>