<svg viewBox="0 0 500 500" xmlns="http://www.w3.org/2000/svg" xmlns:xlink="http://www.w3.org/1999/xlink"><clipPath id="a"><path d="m319.13 192.94a9.15 9.15 0 0 0 -12.27-12.27l-109.66 54.42a16.22 16.22 0 0 0 -7.3 7.3l-54.42 109.66a9.15 9.15 0 0 0 12.27 12.27l109.66-54.42a16.22 16.22 0 0 0 7.3-7.3z"/></clipPath><circle cx="227" cy="273" fill="#fdad00" r="227"/><path d="m367.58 273a25.71 25.71 0 0 1 24.29-25.67 167 167 0 0 0 -139.28-139.21 25.71 25.71 0 0 1 -51.18 0 167 167 0 0 0 -139.29 139.29 25.71 25.71 0 0 1 0 51.18 167 167 0 0 0 139.29 139.29 25.71 25.71 0 0 1 51.18 0 167 167 0 0 0 139.28-139.21 25.71 25.71 0 0 1 -24.29-25.67z" fill="#fff"/><g clip-path="url(#a)"><path d="m307.13 180.53-114.81 57 70 70 57-114.81a9.06 9.06 0 0 0 -12.19-12.19z" fill="#f70000"/><path d="m135.34 352.32 57-114.81 70 70-114.81 57a9.06 9.06 0 0 1 -12.19-12.19z" fill="#13202d"/></g><path d="m397.83 63.52h.74a27.5 27.5 0 0 1 27.5 27.48v29.36a28.24 28.24 0 0 1 -28.24 28.24 27.5 27.5 0 0 1 -27.5-27.5v-30.1a27.5 27.5 0 0 1 27.5-27.5z" fill="#fdad00" transform="matrix(-.70710678 -.70710678 .70710678 -.70710678 604.77 462.65)"/><circle cx="437" cy="63" fill="none" r="55.5" stroke="#fdad00" stroke-miterlimit="10" stroke-width="15"/></svg>