<svg width="65" height="40" viewBox="0 0 65 40" fill="none" xmlns="http://www.w3.org/2000/svg">
<g id="Coolmath Games" clip-path="url(#clip0_881_90354)">
<g id="Blue_Circle">
<g id="Blue_Circle-2">
<path id="Vector" d="M32.5333 39.9993C43.5786 39.9993 52.5325 31.0454 52.5325 20.0001C52.5325 8.95486 43.5786 0.000915527 32.5333 0.000915527C21.4881 0.000915527 12.5341 8.95486 12.5341 20.0001C12.5341 31.0454 21.4881 39.9993 32.5333 39.9993Z" fill="#3E96EE"/>
</g>
</g>
<g id="Shape_1">
<g id="Shape_1-2">
<path id="Vector_2" d="M32.5 27.324C50.2411 27.324 64.623 24.0112 64.623 19.9247C64.623 15.8382 50.2411 12.5254 32.5 12.5254C14.759 12.5254 0.377014 15.8382 0.377014 19.9247C0.377014 24.0112 14.759 27.324 32.5 27.324Z" fill="#29C629"/>
</g>
</g>
<g id="new_text_expand_opt_b">
<path id="Vector_3" d="M12.5348 11.4429H5.35492V17.0532H12.5348V11.4429Z" fill="#FFF737"/>
<path id="Vector_4" d="M56.1215 11.4429H48.9416V17.0532H56.1215V11.4429Z" fill="#FFF737"/>
<g id="Group">
<g id="Group_2">
<path id="Vector_5" d="M6.91 19.7102C6.35534 19.7102 5.82772 19.6272 5.33432 19.4614C4.61203 19.2189 3.9954 18.8325 3.50131 18.313C3.00792 17.7944 2.65232 17.1607 2.44493 16.4298C2.24193 15.7143 2.21002 14.9339 2.35036 14.1101C2.48123 13.3425 2.73047 12.5943 3.09092 11.8862C3.44929 11.1821 3.90153 10.5415 4.43516 9.98194C4.97572 9.41502 5.60368 8.93827 6.30193 8.56487C7.0226 8.17968 7.80847 7.93876 8.63804 7.84859C8.64382 7.8479 8.64937 7.84743 8.65515 7.84697C8.95341 7.819 9.27363 7.81645 9.6068 7.83911C9.97327 7.86431 10.3365 7.93529 10.6875 8.05043C11.0583 8.17228 11.4047 8.34707 11.7182 8.57019C12.077 8.82567 12.3711 9.15514 12.5924 9.54981C12.8148 9.94656 12.9445 10.4085 12.978 10.9227C13.0095 11.405 12.9406 11.9296 12.7669 12.5271C12.6391 12.9671 12.2636 13.2901 11.8095 13.3506L9.29583 13.6859C8.92867 13.7347 8.56059 13.605 8.30534 13.3365C8.18881 13.2138 8.10211 13.069 8.04893 12.9132C7.9072 13.121 7.78674 13.3388 7.69125 13.561C7.58721 13.8026 7.51183 14.01 7.46721 14.1781C7.46721 14.1788 7.46675 14.1795 7.46652 14.1804C7.40363 14.4142 7.3634 14.647 7.34652 14.872C7.33797 14.9853 7.34167 15.0717 7.34999 15.1365C7.4538 15.1265 7.51761 15.1069 7.55391 15.0914C7.62674 15.0602 7.6857 15.0253 7.72917 14.988C7.77333 14.9499 7.80755 14.9106 7.8346 14.8667C7.8776 14.7966 7.91044 14.7272 7.93471 14.6542C8.0991 14.1615 8.57169 13.8387 9.09075 13.8655L11.9173 14.0107C12.2664 14.0288 12.5887 14.2038 12.794 14.4868C12.9993 14.77 13.0652 15.1307 12.9736 15.468C12.7954 16.1244 12.5177 16.7128 12.148 17.2171C11.7887 17.707 11.3617 18.1288 10.8787 18.4712C10.4098 18.8036 9.88564 19.073 9.32057 19.2718C8.77816 19.4626 8.21332 19.5946 7.64131 19.6642C7.39299 19.6952 7.14884 19.7104 6.91 19.7104V19.7102ZM6.30285 11.3847C6.2365 11.4471 6.17176 11.5114 6.10887 11.5775C5.73015 11.9745 5.40831 12.4313 5.15167 12.9354C4.89688 13.4355 4.72139 13.9615 4.62984 14.4988C4.54776 14.9799 4.56117 15.4174 4.66937 15.7989C4.7748 16.1707 4.94081 16.4717 5.17664 16.7195C5.41178 16.9669 5.70403 17.1468 6.07026 17.2696C6.25453 17.3313 6.45267 17.3709 6.6633 17.3882C6.39025 17.3223 6.14586 17.2072 5.93176 17.043C5.56808 16.7644 5.30126 16.3748 5.16092 15.9166C5.04832 15.5499 5.00786 15.1397 5.04092 14.6986C5.06867 14.33 5.13317 13.9543 5.23329 13.5818C5.30797 13.3014 5.41756 12.9955 5.56761 12.6464C5.72298 12.2855 5.9172 11.9338 6.14471 11.6013C6.19534 11.5273 6.24806 11.4552 6.30262 11.3849L6.30285 11.3847ZM9.7157 16.2123C9.58068 16.4056 9.42068 16.5824 9.23826 16.7392C9.18924 16.7813 9.13861 16.822 9.08589 16.8613C9.24635 16.7785 9.39849 16.686 9.5416 16.5845C9.69166 16.4782 9.83269 16.3582 9.96402 16.225L9.71547 16.2123H9.7157ZM9.33768 10.1392C9.46577 10.1919 9.57166 10.2562 9.65628 10.3183C9.65697 10.3188 9.65767 10.3195 9.65836 10.32C9.93419 10.5241 10.1411 10.8154 10.2567 11.1623C10.2632 11.1819 10.2697 11.202 10.2755 11.2221L10.6731 11.1692C10.6736 11.1327 10.6727 11.1005 10.671 11.073C10.6602 10.9079 10.6274 10.7722 10.576 10.6804C10.5217 10.5835 10.4586 10.5112 10.3776 10.4536C10.2523 10.3644 10.1178 10.2968 9.96656 10.2471C9.79847 10.1921 9.62437 10.1579 9.44958 10.1459C9.41189 10.1433 9.37444 10.1412 9.33768 10.1396V10.1392Z" fill="#FFF737"/>
<path id="Vector_6" d="M15.1902 19.0806C14.5535 19.0806 13.9623 18.9449 13.4314 18.6767C12.8908 18.4041 12.4344 18.0242 12.0749 17.5484C11.7239 17.0842 11.4747 16.538 11.3344 15.9258C11.1959 15.3237 11.1843 14.6812 11.2999 14.017C11.4086 13.392 11.6067 12.7936 11.8886 12.239C12.1755 11.6744 12.5433 11.1703 12.9819 10.741C13.4323 10.3003 13.9581 9.94864 14.5451 9.6957C15.1366 9.44114 15.7812 9.30241 16.4618 9.28322C16.4667 9.28322 16.4713 9.28299 16.4762 9.28299C17.1291 9.27305 17.7381 9.4053 18.2863 9.67651C18.8324 9.94702 19.2927 10.3294 19.6546 10.8136C20.0037 11.2811 20.2516 11.827 20.3917 12.4367C20.5302 13.0401 20.5417 13.6824 20.4264 14.346C20.3154 14.9841 20.0997 15.5961 19.7852 16.1649C19.4745 16.7267 19.0884 17.2261 18.6373 17.6497C18.1797 18.079 17.6607 18.4252 17.094 18.6781C16.4988 18.9435 15.8792 19.0788 15.2519 19.0802C15.2314 19.0804 15.2108 19.0806 15.1902 19.0806ZM13.7336 13.8005C13.6665 13.9985 13.6143 14.2031 13.5778 14.413C13.5153 14.7725 13.5186 15.1073 13.5879 15.4084C13.59 15.4172 13.5921 15.4259 13.5942 15.4347C13.5919 15.4128 13.5898 15.3906 13.5882 15.3681C13.5669 15.1032 13.5745 14.8264 13.6111 14.546C13.6393 14.3277 13.6696 14.1374 13.7031 13.9663C13.7121 13.9111 13.7223 13.8558 13.7338 13.8003L13.7336 13.8005ZM18.1716 13.1349C18.1656 13.3349 18.1443 13.5404 18.108 13.7485C18.065 13.9948 18.0232 14.2156 17.9836 14.4056C17.9834 14.4072 17.983 14.4089 17.9827 14.4105C17.9513 14.5582 17.9115 14.7041 17.8637 14.8479C17.9987 14.5624 18.0944 14.2611 18.1485 13.9499C18.1996 13.6565 18.2072 13.3881 18.1716 13.1349Z" fill="#FFF737"/>
<path id="Vector_7" d="M22.452 19.0806C21.8152 19.0806 21.224 18.9449 20.6932 18.6767C20.1526 18.4041 19.6962 18.0242 19.3367 17.5484C18.9857 17.0842 18.7365 16.538 18.5961 15.9258C18.4576 15.3237 18.4461 14.6812 18.5617 14.017C18.6704 13.392 18.8685 12.7936 19.1503 12.239C19.4373 11.6744 19.8051 11.1703 20.2437 10.741C20.6941 10.3003 21.2199 9.94864 21.8069 9.6957C22.3983 9.44114 23.0429 9.30241 23.7236 9.28322C23.7285 9.28322 23.7331 9.28299 23.738 9.28299C24.3907 9.27305 24.9999 9.4053 25.5481 9.67651C26.0942 9.94702 26.5545 10.3294 26.9164 10.8136C27.2655 11.2811 27.5133 11.827 27.6535 12.4367C27.7919 13.0401 27.8035 13.6824 27.6881 14.346C27.5772 14.9841 27.3614 15.5961 27.047 16.1649C26.7363 16.7267 26.3501 17.2261 25.8991 17.6497C25.4415 18.079 24.9224 18.4252 24.3557 18.6781C23.7606 18.9435 23.141 19.0788 22.5137 19.0802C22.4931 19.0804 22.4726 19.0806 22.452 19.0806ZM20.9954 13.8005C20.9283 13.9985 20.8761 14.2031 20.8395 14.413C20.7771 14.7725 20.7804 15.1073 20.8497 15.4084C20.8518 15.4172 20.8539 15.4259 20.856 15.4347C20.8536 15.4128 20.8516 15.3906 20.8499 15.3681C20.8287 15.1032 20.8363 14.8264 20.8728 14.546C20.901 14.3277 20.9313 14.1374 20.9649 13.9663C20.9739 13.9111 20.984 13.8558 20.9956 13.8003L20.9954 13.8005ZM25.4334 13.1349C25.4274 13.3349 25.4061 13.5404 25.3698 13.7485C25.3268 13.9948 25.285 14.2156 25.2454 14.4056C25.2452 14.4072 25.2447 14.4089 25.2445 14.4105C25.2131 14.5582 25.1733 14.7041 25.1254 14.8479C25.2605 14.5624 25.3562 14.2611 25.4103 13.9499C25.4614 13.6565 25.469 13.3881 25.4334 13.1349Z" fill="#FFF737"/>
<path id="Vector_8" d="M25.8896 19.2256C25.5448 19.2256 25.2147 19.0714 24.9936 18.7999C24.7386 18.4871 24.6653 18.064 24.8001 17.6837L27.9619 8.75721C28.1152 8.32439 28.5103 8.02336 28.9683 7.99006L31.7502 7.78891C32.1363 7.76094 32.5111 7.92833 32.7481 8.23468C32.9851 8.54103 33.0528 8.94564 32.9287 9.31257L29.9792 18.0268C29.8388 18.4416 29.4761 18.7414 29.0423 18.8013L26.0482 19.2147C25.9952 19.2221 25.9425 19.2256 25.89 19.2256H25.8896ZM29.8888 10.2416L27.6137 16.6645L28.0178 16.6088L30.1801 10.2205L29.8888 10.2416Z" fill="#FFF737"/>
<path id="Vector_9" d="M37.1063 18.9349C36.7413 18.9349 36.3961 18.7622 36.1773 18.4668C36.0763 18.3303 36.0083 18.1759 35.9748 18.0145C35.7672 18.0543 35.5413 18.0871 35.2948 18.113C34.7758 18.1676 34.1823 18.147 33.5312 18.0513C33.4301 18.0365 33.3328 18.0085 33.241 17.969C33.0614 18.1255 32.8336 18.2263 32.586 18.2487L30.251 18.461C29.8714 18.4957 29.4992 18.3405 29.2559 18.0469C29.0127 17.7532 28.9302 17.3586 29.0349 16.9921C29.1609 16.5512 29.2892 16.1061 29.4161 15.6689C29.4175 15.6641 29.4189 15.6592 29.4205 15.6543C29.4677 15.4999 29.5156 15.3346 29.5632 15.163C29.6111 14.9896 29.6589 14.8192 29.7054 14.6572C29.7482 14.5076 29.7856 14.3723 29.8166 14.2546C29.8517 14.1219 29.8823 14.0153 29.9095 13.9302C30.0117 13.5541 30.171 13.0947 30.3955 12.5273C30.6101 11.9851 30.8806 11.3155 31.1994 10.537C31.3201 10.2422 31.5571 10.0106 31.8542 9.89613C32.008 9.83694 32.2114 9.7803 32.4947 9.71787C32.7328 9.66539 32.9871 9.6166 33.2519 9.57244C33.5113 9.52944 33.7603 9.49175 33.9929 9.46077C34.315 9.418 34.5291 9.4062 34.7099 9.421C34.9871 9.44366 35.2442 9.56527 35.4366 9.75949C35.4837 9.74862 35.5316 9.73776 35.5797 9.72758C35.9399 9.65036 36.3064 9.62169 36.6696 9.64227C36.6814 9.64296 36.6932 9.64389 36.705 9.64481C37.0767 9.67741 37.4044 9.78955 37.6783 9.97821C37.8233 10.0783 37.9528 10.1932 38.0656 10.322C38.1673 10.2709 38.2691 10.2214 38.3701 10.174C38.6422 10.0464 38.9118 9.93567 39.1712 9.8448C39.5338 9.71787 39.8619 9.66215 40.174 9.6744C40.8267 9.69383 41.3811 9.97451 41.736 10.4656C42.0003 10.8316 42.1621 11.282 42.2167 11.8043C42.2602 12.2188 42.2449 12.6822 42.1716 13.1816C42.1069 13.6225 42.0169 14.0777 41.9048 14.5351C41.6461 15.5854 41.2403 16.7771 40.6986 18.0779C40.5284 18.4864 40.1398 18.762 39.6979 18.7874L37.1729 18.9326C37.1507 18.934 37.1285 18.9345 37.1063 18.9345V18.9349ZM38.9292 12.4773C39.1664 12.6808 39.3472 12.9853 39.3944 13.3955C39.4207 13.6276 39.4122 13.8898 39.368 14.1991C39.3326 14.447 39.276 14.7267 39.1999 15.0315C39.1292 15.3145 39.0494 15.6053 38.9632 15.8962C38.903 16.0973 38.8374 16.3073 38.7669 16.5255L38.8334 16.5216C39.1958 15.5922 39.473 14.7406 39.6596 13.9832C39.7543 13.5971 39.83 13.2142 39.8841 12.8456C39.9294 12.5372 39.9405 12.2676 39.9171 12.0447C39.9167 12.041 39.9162 12.0373 39.916 12.0336C39.7358 12.0975 39.546 12.1761 39.3511 12.2674C39.2112 12.3328 39.0702 12.4031 38.9292 12.4773ZM35.1011 12.2986C35.4319 12.485 35.6728 12.8142 35.7582 13.2262C35.8056 13.4551 35.813 13.7094 35.7811 14.004C35.7561 14.2343 35.7096 14.478 35.6391 14.7501C35.5801 14.9785 35.514 15.2148 35.4428 15.4518C35.4419 15.455 35.4407 15.4585 35.4398 15.4618C35.4079 15.5644 35.3744 15.6696 35.339 15.7771C35.3448 15.7762 35.3505 15.7755 35.3563 15.7746C35.4687 15.4759 35.5824 15.1815 35.6967 14.8941C35.8742 14.4463 36.0321 14.0156 36.166 13.6142C36.1882 13.5476 36.2164 13.4831 36.2504 13.4216C36.3974 13.1548 36.5498 12.9349 36.714 12.7532C36.5512 12.5906 36.4384 12.3807 36.3947 12.1483C36.3831 12.0861 36.3679 12.0193 36.3494 11.9493C36.2548 11.9541 36.1602 11.9668 36.0638 11.9874C35.852 12.0327 35.658 12.0854 35.487 12.1442C35.3568 12.1902 35.2278 12.2417 35.1011 12.2979V12.2986ZM33.1201 11.9481C32.8984 12.4931 32.7055 12.9723 32.5448 13.3779C32.3499 13.8701 32.2119 14.2669 32.1345 14.5575C32.1284 14.5802 32.1217 14.6028 32.1141 14.6252C32.1074 14.6449 32.0882 14.7062 32.051 14.8463C32.0466 14.8627 32.0422 14.8791 32.0378 14.896C32.1199 14.6826 32.2091 14.4578 32.3046 14.2243C32.3594 14.0907 32.4244 13.9376 32.4979 13.7675C32.5948 13.543 32.7097 13.3291 32.8394 13.1323C32.9904 12.9028 33.1629 12.7037 33.3513 12.5409C33.4588 12.4482 33.5756 12.3703 33.699 12.3081C33.6722 12.2891 33.6463 12.2688 33.6209 12.2473C33.5057 12.1495 33.4133 12.0325 33.3457 11.9037C33.2688 11.9183 33.1936 11.9331 33.1201 11.9483V11.9481Z" fill="#FFF737"/>
<path id="Vector_10" d="M43.8587 19.583C43.5152 19.583 43.1838 19.4298 42.9616 19.156C42.9027 19.0834 42.8537 19.0053 42.8146 18.9232C42.508 18.9172 42.2042 18.8788 41.9104 18.8085C41.5474 18.7218 41.2146 18.5803 40.9219 18.3882C40.5832 18.1662 40.3102 17.8719 40.1113 17.5135C39.9079 17.1466 39.8047 16.7212 39.8047 16.2486C39.8047 16.2442 39.8047 16.2398 39.8047 16.2354C39.8149 15.3496 40.063 14.5471 40.5425 13.8505C40.8234 13.4424 41.1568 13.0887 41.5393 12.7923C41.4937 12.5562 41.5217 12.3065 41.629 12.0797L42.5674 10.0911C42.7004 9.80923 42.9418 9.59282 43.2366 9.49132C43.5091 9.39745 43.8051 9.32207 44.1161 9.26705C44.1177 9.26681 44.1191 9.26658 44.1207 9.26635C44.39 9.21988 44.6978 9.1919 45.0349 9.18289C45.3953 9.17364 45.7852 9.20578 46.1949 9.27837C46.2113 9.28138 46.2275 9.28462 46.2436 9.28809C46.4772 9.34011 46.7363 9.41109 47.0136 9.49941C47.399 9.62195 47.7597 9.82032 48.0854 10.0888C48.4302 10.3729 48.7132 10.7484 48.9275 11.2048C49.1441 11.6667 49.2493 12.2129 49.2493 12.8746C49.2493 13.0508 49.2193 13.2482 49.1492 13.5351C49.1011 13.7321 49.0382 13.9631 48.9629 14.2211C48.8884 14.4757 48.8056 14.7492 48.7166 15.0343C48.6278 15.3189 48.5319 15.6169 48.4311 15.9193C48.2112 16.5864 47.9585 17.341 47.6799 18.1618C47.5516 18.5401 47.2371 18.8252 46.8482 18.916L44.1223 19.5528C44.0349 19.5731 43.9468 19.583 43.8592 19.583H43.8587ZM46.0658 15.7057C46.027 15.8114 45.9888 15.918 45.9519 16.0245C45.8786 16.2354 45.8134 16.4012 45.7528 16.5323C45.6985 16.65 45.6254 16.7561 45.5378 16.8474L45.6957 16.8104C45.8261 16.4236 45.9498 16.0544 46.0658 15.7055V15.7057ZM42.1339 16.3931C42.1522 16.4257 42.1688 16.4409 42.1894 16.4544C42.2588 16.4999 42.3455 16.535 42.4479 16.5596C42.5926 16.5942 42.7441 16.6116 42.8981 16.6116C42.9318 16.6116 42.9658 16.6109 42.9996 16.6097C42.9226 16.5205 42.8553 16.4229 42.7984 16.3179C42.675 16.0904 42.5487 15.7073 42.6537 15.1834C42.6546 15.1783 42.6558 15.1732 42.6569 15.1681C42.6865 15.0303 42.7228 14.9027 42.7647 14.7843C42.6484 14.8965 42.5429 15.0218 42.447 15.161C42.2308 15.4752 42.1226 15.8329 42.1166 16.2544C42.1173 16.3487 42.1316 16.388 42.1337 16.3931H42.1339ZM44.5607 14.9487C44.5607 14.9487 44.5614 14.9492 44.5616 14.9492C44.5616 14.9492 44.5614 14.9492 44.5611 14.9492C44.5611 14.9492 44.5607 14.9492 44.5604 14.949L44.5607 14.9487ZM46.3017 13.816C46.3063 13.8239 46.3109 13.8318 46.3153 13.8396C46.43 14.0445 46.4788 14.2773 46.4584 14.5071C46.4755 14.453 46.4924 14.3992 46.5091 14.346C46.5939 14.0736 46.6728 13.8133 46.7435 13.5719C46.8094 13.3467 46.863 13.149 46.9033 12.9849C46.9232 12.9039 46.9326 12.8558 46.937 12.8318C46.9326 12.4528 46.8714 12.2656 46.8344 12.1863C46.7678 12.0445 46.6919 11.9359 46.615 11.8723C46.5886 11.8506 46.5622 11.8307 46.5359 11.8126C46.6545 12.0106 46.7241 12.233 46.7391 12.4644C46.7391 12.4656 46.7391 12.467 46.7391 12.4681C46.7481 12.6147 46.7398 12.7664 46.7144 12.9187C46.7072 12.9615 46.7012 13.0073 46.6966 13.0545C46.6674 13.3504 46.5255 13.6225 46.3019 13.8156L46.3017 13.816Z" fill="#FFF737"/>
<path id="Vector_11" d="M51.0341 19.5107C50.6995 19.5107 50.3754 19.4845 50.0688 19.4325C49.6512 19.362 49.273 19.2193 48.9446 19.0087C48.5826 18.7768 48.2929 18.464 48.0841 18.0795C47.8732 17.6922 47.7715 17.2291 47.7817 16.7031C47.7833 16.4127 47.8337 16.093 47.9357 15.7263C48.0113 15.4539 48.1012 15.163 48.2032 14.8622C47.9398 14.8165 47.6966 14.6798 47.5192 14.4703C47.2645 14.1693 47.1805 13.7594 47.2968 13.3825L47.9895 11.137C48.1246 10.6996 48.5049 10.3828 48.9597 10.3297C49.1076 10.3123 49.3319 10.2941 49.6457 10.2739C49.7092 10.27 49.7738 10.2658 49.8394 10.2615C49.8898 10.1234 49.9384 9.99002 49.9839 9.86355C50.0341 9.72344 50.0822 9.59095 50.1263 9.47073C50.1682 9.35628 50.21 9.24484 50.25 9.14056C50.3781 8.80832 50.6521 8.55376 50.9927 8.45018C51.2156 8.38243 51.4817 8.32371 51.8058 8.2703C52.0861 8.22429 52.3834 8.18082 52.6893 8.14152C52.9852 8.1036 53.271 8.06915 53.5394 8.03886C53.8307 8.00603 53.9961 7.97944 54.0837 7.96279C54.4955 7.88418 54.9174 8.0347 55.1865 8.35608C55.4557 8.67745 55.5299 9.11929 55.3803 9.51073C55.3236 9.65916 55.2689 9.80482 55.2178 9.94424C55.2113 9.96204 55.2046 9.97984 55.1979 9.99811C55.5213 9.99903 55.8298 10.1357 56.048 10.3747C56.267 10.6147 56.3749 10.9357 56.3454 11.2593C56.3301 11.427 56.2866 11.6212 56.2045 11.8892C56.1451 12.0836 56.0785 12.2871 56.0073 12.4931C55.9414 12.6836 55.8739 12.8746 55.8066 13.0607C55.7384 13.2491 55.6885 13.383 55.6536 13.4706C55.4947 13.8685 55.129 14.146 54.7031 14.1917L53.5491 14.3154C53.4724 14.5279 53.3982 14.7295 53.3269 14.9184C53.3223 14.9307 53.3177 14.9432 53.3131 14.9554C53.3371 14.9506 53.3609 14.9455 53.3841 14.9404C53.7984 14.8502 54.2289 14.9938 54.5059 15.3152C54.7829 15.6363 54.8617 16.0833 54.7112 16.4798L53.9403 18.513C53.8051 18.8695 53.5029 19.1363 53.1325 19.2265C52.8298 19.3 52.5085 19.3643 52.1771 19.4177C51.8213 19.4748 51.4641 19.506 51.1148 19.5104C51.0879 19.5107 51.0611 19.5109 51.0343 19.5109L51.0341 19.5107ZM50.1162 16.9771C50.1435 17.0268 50.1691 17.0474 50.1927 17.0626C50.2577 17.1043 50.3455 17.1346 50.4542 17.153C50.6489 17.1859 50.8609 17.2011 51.0852 17.1984C51.2833 17.1958 51.487 17.1803 51.6916 17.1524C51.5633 17.0913 51.4435 17.0164 51.3328 16.9276C50.8833 16.5681 50.6914 16.0104 50.8054 15.3961C50.8773 14.9783 50.9975 14.5436 51.1628 14.1041C51.3006 13.7377 51.4516 13.3199 51.6114 12.8621C51.7587 12.4406 52.1355 12.1414 52.5797 12.0938L52.6382 12.0875C52.5845 12.0344 52.5355 11.9756 52.4925 11.9116C52.2777 11.5925 52.2354 11.1877 52.3801 10.8314C52.4275 10.7142 52.4724 10.6036 52.5147 10.4998C52.4056 10.516 52.2985 10.5327 52.1943 10.5498C52.1832 10.5808 52.1718 10.6124 52.1603 10.6446C52.1032 10.8036 52.0419 10.9717 51.9783 11.1451C51.9094 11.3326 51.828 11.5477 51.7367 11.784C51.5744 12.2031 51.1839 12.4901 50.7356 12.5199C50.656 12.5252 50.5777 12.5303 50.5007 12.5356C50.6056 12.5997 50.7011 12.6808 50.7827 12.7775C51.0375 13.0794 51.1203 13.4905 51.0024 13.8676C50.9226 14.1226 50.8239 14.4088 50.709 14.7184C50.6056 14.9961 50.5039 15.2814 50.4063 15.567C50.3129 15.8407 50.2313 16.1027 50.1638 16.3454C50.0991 16.578 50.0942 16.6892 50.0942 16.7179C50.0942 16.7267 50.0942 16.7355 50.094 16.7443C50.0903 16.904 50.1136 16.9692 50.1169 16.9773L50.1162 16.9771Z" fill="#FFF737"/>
<path id="Vector_12" d="M58.8674 19.5222C58.4154 19.5222 57.9183 19.4774 57.3835 19.3884C57.0339 19.3301 56.7301 19.1146 56.5597 18.8036C56.4848 18.667 56.4392 18.5188 56.4235 18.3676L54.234 18.4968C53.864 18.5188 53.5057 18.3616 53.271 18.0746C53.0363 17.7877 52.9536 17.4053 53.0483 17.0469C53.1827 16.5392 53.3161 16.0553 53.4449 15.6079C53.4902 15.4463 53.539 15.2699 53.5986 15.0535C53.6557 14.8447 53.7013 14.6766 53.7415 14.5256C53.7898 14.3441 53.8319 14.1913 53.8701 14.0581C53.9112 13.9136 53.9267 13.8491 53.9313 13.8281C53.9362 13.8066 53.9415 13.7851 53.9477 13.7638C53.9783 13.6567 54.0252 13.497 54.0915 13.275C54.1556 13.0598 54.2328 12.8112 54.3274 12.516C54.4185 12.2311 54.52 11.9227 54.6291 11.5995C54.7338 11.2887 54.8455 10.9611 54.9611 10.6256C55.0765 10.2911 55.1939 9.96158 55.3102 9.64668C55.43 9.3216 55.5463 9.02242 55.6554 8.75769C55.7835 8.44718 56.0402 8.20764 56.3588 8.10152C56.4802 8.06106 56.6247 8.02638 56.8267 7.98892C56.9842 7.96002 57.1581 7.93205 57.359 7.90314C57.5599 7.87448 57.7724 7.84974 57.9916 7.82939C58.1971 7.81043 58.3943 7.79332 58.5791 7.77806C58.773 7.76234 58.9497 7.75032 59.1057 7.74222C59.3217 7.73136 59.4766 7.73298 59.6095 7.74754C59.961 7.78592 60.2757 7.98314 60.4634 8.28279C60.6511 8.58243 60.6916 8.95144 60.573 9.28461L60.1989 10.335C60.4151 10.3262 60.6322 10.3304 60.8486 10.3475C60.8532 10.3479 60.8578 10.3482 60.8627 10.3486C61.5755 10.4136 62.1332 10.6705 62.5204 11.1116C62.8714 11.5121 63.0753 12.0124 63.1271 12.5994C63.1674 13.0588 63.1232 13.5712 62.9958 14.1228C62.8871 14.5936 62.7429 15.0939 62.5669 15.61C62.3986 16.1031 62.2106 16.6169 62.0081 17.1369C61.8136 17.6358 61.6305 18.1202 61.4638 18.5771C61.3355 18.9287 61.0449 19.1962 60.6842 19.2954C60.3089 19.3985 59.8572 19.4677 59.3034 19.507C59.1633 19.5169 59.0179 19.5218 58.8676 19.5218L58.8674 19.5222ZM59.6181 16.1609C59.5085 16.4865 59.3846 16.8312 59.247 17.1928C59.3478 17.1845 59.4389 17.1752 59.5212 17.1655C59.6276 16.8825 59.7388 16.5924 59.8537 16.2978C60.0444 15.8084 60.2208 15.3258 60.3785 14.8639C60.529 14.422 60.6518 13.9978 60.7427 13.6031C60.8153 13.2882 60.8426 13.0186 60.8236 12.802C60.8185 12.7435 60.8093 12.7021 60.8003 12.675C60.7707 12.6674 60.7249 12.6584 60.659 12.6521C60.4558 12.6366 60.2516 12.6408 60.0516 12.6649C60.0227 12.6683 59.994 12.672 59.9661 12.6757C60.1018 12.8718 60.1947 13.1208 60.2176 13.4248C60.2366 13.678 60.2146 13.9652 60.1501 14.303C60.0981 14.5758 60.0209 14.8835 59.9207 15.2178C59.8283 15.5258 59.7265 15.8433 59.6181 16.1612V16.1609ZM56.1794 14.37C56.1592 14.4556 56.1308 14.5621 56.0931 14.6944C56.0587 14.8149 56.0203 14.9543 55.9757 15.1217C55.934 15.278 55.8871 15.4507 55.8284 15.6655C55.784 15.8268 55.7456 15.966 55.71 16.0939L55.931 16.0809C55.9463 16.0308 55.9618 15.9804 55.9773 15.93C56.0614 15.6548 56.1625 15.3432 56.2783 15.004C56.3976 14.6542 56.5306 14.3034 56.6734 13.9617C56.74 13.8001 56.821 13.6308 56.9141 13.4588C57.0281 13.2477 57.1629 13.0519 57.3148 12.8769C57.3953 12.7839 57.4817 12.6975 57.5731 12.6184C57.291 12.3037 57.2024 11.8591 57.3449 11.4591L57.8013 10.1771C57.7624 10.1822 57.7243 10.1872 57.6866 10.1928C57.6461 10.1986 57.6068 10.2043 57.5687 10.2101C57.5393 10.2874 57.5097 10.3669 57.4797 10.4483C57.3689 10.7481 57.257 11.0614 57.1472 11.3803C57.0334 11.7104 56.9234 12.033 56.8203 12.3389C56.7151 12.6512 56.6173 12.9479 56.5299 13.2214C56.4402 13.5014 56.3676 13.7353 56.3077 13.9363C56.2499 14.1302 56.2078 14.2727 56.1798 14.3702L56.1794 14.37Z" fill="#FFF737"/>
</g>
<g id="Group_3">
<path id="Vector_13" d="M14.7914 31.1771C14.2053 31.1771 13.6481 31.0895 13.1274 30.9147C12.3653 30.6588 11.7152 30.2516 11.1947 29.7041C10.6747 29.1578 10.3 28.4894 10.081 27.7183C9.86645 26.9627 9.83315 26.1375 9.98159 25.2661C10.1205 24.4509 10.3853 23.656 10.7684 22.9034C11.1492 22.1552 11.6299 21.4743 12.1968 20.8796C12.7706 20.2776 13.4377 19.7715 14.1789 19.3752C14.9426 18.9671 15.7756 18.7116 16.6554 18.6159C16.6612 18.6152 16.6667 18.6147 16.6725 18.6143C16.9881 18.5847 17.327 18.5819 17.6801 18.606C18.0664 18.6325 18.4493 18.7075 18.8193 18.8286C19.2091 18.9569 19.5732 19.1405 19.9027 19.3749C20.2775 19.642 20.5847 19.9863 20.8162 20.3985C21.0486 20.8133 21.1843 21.2967 21.2194 21.8361C21.2483 22.2794 21.1963 22.758 21.0606 23.2925C21.139 23.3499 21.2106 23.4174 21.2733 23.4944C21.504 23.7771 21.5877 24.1522 21.4992 24.5059C21.4085 24.8682 21.305 25.2578 21.1912 25.6638C21.068 26.1035 20.9147 26.5502 20.7355 26.9918C20.5478 27.4543 20.3161 27.9086 20.047 28.3421C19.7552 28.8119 19.3954 29.2417 18.9776 29.6202C18.5552 30.0026 18.0593 30.3302 17.5035 30.5933C16.9377 30.8613 16.2861 31.041 15.5664 31.1277C15.3033 31.1605 15.045 31.1767 14.7919 31.1767L14.7914 31.1771ZM13.8132 22.5362C13.4259 22.954 13.0948 23.4301 12.8287 23.9528C12.5515 24.4973 12.3605 25.0698 12.2606 25.655C12.1704 26.184 12.1855 26.6658 12.305 27.0873C12.422 27.4998 12.6067 27.8344 12.8696 28.1106C13.1318 28.3862 13.4564 28.5865 13.8629 28.7229C14.2776 28.8621 14.7551 28.8993 15.282 28.8336L15.2876 28.8329C15.7601 28.7763 16.1726 28.6655 16.5132 28.5044C16.8475 28.346 17.1418 28.1562 17.3885 27.9393C17.3046 28.0017 17.2135 28.0626 17.1148 28.1222C16.8979 28.2535 16.6443 28.3714 16.3611 28.4732C16.0494 28.5851 15.7077 28.6535 15.3458 28.6764C14.8078 28.7134 14.3317 28.6378 13.9308 28.4512C13.492 28.2478 13.147 27.9368 12.9061 27.5273C12.6955 27.1692 12.572 26.7553 12.5397 26.2978C12.5133 25.9292 12.5357 25.5267 12.6065 25.1024C12.6784 24.6701 12.8125 24.2347 13.0053 23.809C13.1974 23.3838 13.4444 22.9855 13.7389 22.625C13.7634 22.5952 13.7882 22.5656 13.8132 22.5365V22.5362ZM17.3294 25.5153C17.6015 25.5847 17.8429 25.7519 18.0036 25.9909C18.2174 26.3091 18.2593 26.7118 18.1168 27.0665C18.3023 26.7613 18.4623 26.4441 18.5927 26.1227C18.6835 25.8985 18.7663 25.6733 18.8398 25.4497L17.3296 25.5153H17.3294ZM16.5183 21.1305C17.1407 21.1305 17.6831 21.4061 18.0343 21.9101C18.1108 22.0202 18.1751 22.1372 18.2271 22.2613L18.9113 22.17C18.9154 22.0963 18.9147 22.0357 18.9115 21.9867C18.899 21.7943 18.8611 21.6405 18.7989 21.5293C18.7351 21.4156 18.6572 21.3268 18.5612 21.2584C18.4197 21.1576 18.2678 21.0813 18.0974 21.0253C17.9104 20.964 17.7166 20.9259 17.5222 20.9125C17.2968 20.8972 17.0861 20.8981 16.8963 20.9155C16.3074 20.9807 15.7749 21.1437 15.2691 21.4142C15.2637 21.417 15.2587 21.4197 15.2533 21.4225C15.5671 21.2806 15.8989 21.1883 16.2443 21.1474C16.337 21.1358 16.4286 21.13 16.5183 21.13V21.1305Z" fill="#FFF737"/>
<path id="Vector_14" d="M23.3671 31.0407C23.0235 31.0407 22.6922 30.8872 22.4698 30.6137C22.3997 30.5272 22.3433 30.4329 22.3014 30.3332C21.9604 30.3307 21.6222 30.2898 21.2957 30.2119C20.9156 30.121 20.5676 29.973 20.2617 29.7723C19.9098 29.5418 19.6261 29.2357 19.4194 28.8632C19.2081 28.4822 19.1011 28.0394 19.1011 27.547C19.1011 27.5426 19.1011 27.5382 19.1011 27.5338C19.1117 26.6002 19.3732 25.7549 19.8779 25.0212C20.1847 24.5757 20.5507 24.1914 20.972 23.8722C20.9119 23.6213 20.9359 23.3522 21.0506 23.1089L22.0578 20.9749C22.1907 20.6931 22.4321 20.4769 22.7269 20.3751C23.0152 20.2757 23.3285 20.196 23.6579 20.1379C23.6596 20.1377 23.6612 20.1375 23.6626 20.137C23.9476 20.088 24.2736 20.0582 24.6313 20.0487C25.0121 20.0387 25.4251 20.073 25.8593 20.1499C25.8754 20.1527 25.8919 20.156 25.9078 20.1597C26.1564 20.2149 26.432 20.2905 26.727 20.3844C27.1302 20.5127 27.5078 20.7203 27.8488 21.0015C28.209 21.2986 28.5052 21.6916 28.7297 22.1698C28.9567 22.6542 29.067 23.2285 29.067 23.9258C29.067 24.1077 29.0356 24.3138 28.9618 24.6146C28.9098 24.8275 28.8446 25.067 28.7628 25.3473C28.6828 25.6203 28.5942 25.9132 28.499 26.2184C28.4037 26.5241 28.3008 26.8432 28.1933 27.1662C27.9572 27.8822 27.686 28.6921 27.3871 29.5728C27.2588 29.9511 26.9443 30.2361 26.5554 30.327L23.63 31.0104C23.5426 31.0308 23.4545 31.0407 23.3668 31.0407H23.3671ZM24.8158 28.3518C24.817 28.3539 24.8181 28.356 24.8193 28.3583L25.4036 28.2219C25.62 27.5805 25.8193 26.9837 25.998 26.4416C25.9984 26.4404 25.9987 26.4395 25.9991 26.4383C26.1023 26.1285 26.2008 25.8231 26.2921 25.5304C26.3832 25.2379 26.468 24.9581 26.5441 24.6983C26.6151 24.4553 26.6731 24.2418 26.7166 24.0647C26.7404 23.9674 26.7508 23.9126 26.7552 23.8872C26.751 23.4592 26.6798 23.2433 26.6368 23.1517C26.5591 22.9862 26.4722 22.8627 26.3786 22.7855C26.2646 22.6916 26.1492 22.6269 26.0262 22.5876C26.007 22.5816 25.988 22.5755 25.9691 22.5695C26.0045 22.6065 26.0375 22.6451 26.0685 22.6854C26.0694 22.6865 26.0704 22.6879 26.0713 22.6891C26.25 22.9224 26.3543 23.1998 26.3732 23.4916C26.3732 23.4927 26.3732 23.4939 26.3732 23.4951C26.3825 23.646 26.3739 23.8026 26.3478 23.9598C26.3397 24.0076 26.3332 24.0585 26.3279 24.111C26.2962 24.4312 26.1328 24.7235 25.8768 24.9179C25.8956 24.9454 25.9131 24.9736 25.9295 25.003C26.0891 25.2878 26.121 25.6268 26.0169 25.9361C25.9927 26.008 25.9455 26.1435 25.9099 26.2446C25.8556 26.3992 25.792 26.5726 25.721 26.7611C25.657 26.9308 25.5938 27.1044 25.5335 27.2783C25.4558 27.5016 25.3869 27.6771 25.3231 27.8154C25.2158 28.0475 25.0364 28.2343 24.8158 28.3513V28.3518ZM21.4131 27.5527C21.4138 27.6905 21.44 27.7393 21.4411 27.7412C21.4654 27.7851 21.4911 27.8133 21.5294 27.8383C21.612 27.8924 21.7139 27.9342 21.8335 27.9627C21.9953 28.0013 22.1643 28.0209 22.3361 28.0209C22.4349 28.0209 22.5336 28.0163 22.6314 28.0068C22.5007 27.8841 22.39 27.7407 22.3035 27.5807C22.1199 27.2427 22.0705 26.8517 22.1567 26.4201C22.1576 26.415 22.1588 26.4099 22.1599 26.4048C22.2194 26.1271 22.3056 25.8887 22.408 25.6844C22.1662 25.8603 21.9595 26.0744 21.7826 26.3313C21.5405 26.6829 21.4196 27.0825 21.4131 27.5523V27.5527Z" fill="#FFF737"/>
<path id="Vector_15" d="M35.004 30.3453C34.6389 30.3453 34.2937 30.1726 34.075 29.8771C33.9568 29.7175 33.8838 29.533 33.8584 29.3423C33.6149 29.3922 33.3472 29.4325 33.051 29.4637C32.5009 29.5215 31.8711 29.4995 31.1794 29.3978C31.0601 29.3802 30.9458 29.3446 30.8399 29.2928C30.6545 29.4701 30.4115 29.5848 30.1452 29.6091L27.6393 29.8368C27.2597 29.8713 26.8875 29.7164 26.6442 29.4227C26.401 29.1291 26.3185 28.7344 26.4232 28.368C26.5582 27.8952 26.696 27.4175 26.8322 26.9481C26.8336 26.9433 26.835 26.9384 26.8366 26.9336C26.8875 26.7671 26.939 26.5888 26.9901 26.4043C27.0419 26.2168 27.0932 26.0339 27.1425 25.8619C27.1885 25.7008 27.2287 25.5551 27.2622 25.4284C27.2997 25.2867 27.3323 25.1729 27.3614 25.0825C27.4703 24.6816 27.6403 24.1908 27.8805 23.5841C28.1108 23.0024 28.4009 22.2842 28.7429 21.4493C28.8636 21.1546 29.1006 20.9226 29.3979 20.8084C29.5588 20.7465 29.7734 20.6868 30.073 20.6207C30.3269 20.5647 30.5988 20.5125 30.8813 20.4653C31.1583 20.4193 31.4247 20.3791 31.6739 20.3458C32.0133 20.3007 32.2378 20.288 32.4253 20.3035C32.7183 20.3275 32.9888 20.4619 33.1844 20.676C33.2498 20.6602 33.3164 20.6452 33.3835 20.6309C33.7626 20.5497 34.1485 20.5194 34.5305 20.5412C34.5423 20.5419 34.5541 20.5428 34.5658 20.5437C34.9501 20.5775 35.2879 20.6928 35.5697 20.8868C35.5704 20.8873 35.5711 20.8877 35.5716 20.8882C35.7385 21.0036 35.886 21.1386 36.0123 21.2919C36.1406 21.2267 36.2689 21.164 36.3963 21.1041C36.6858 20.9684 36.9725 20.8505 37.2483 20.7541C37.6273 20.6214 37.9692 20.5631 38.2938 20.5761C38.9676 20.596 39.5391 20.885 39.9042 21.3904C40.1791 21.7709 40.3474 22.2405 40.4045 22.7862C40.4503 23.2239 40.4341 23.714 40.3567 24.2432C40.2875 24.7138 40.1916 25.1998 40.0718 25.6878C39.7953 26.811 39.3611 28.0859 38.7812 29.4778C38.611 29.8863 38.2224 30.1619 37.7806 30.1874L35.0708 30.3432C35.0486 30.3443 35.0264 30.345 35.0042 30.345L35.004 30.3453ZM36.8065 23.486C36.9276 23.5716 37.0347 23.6779 37.1221 23.8026C37.2599 23.9989 37.3452 24.2319 37.3755 24.495C37.403 24.7366 37.3937 25.0111 37.3475 25.3359C37.3098 25.599 37.2497 25.8966 37.1688 26.2205C37.0932 26.5227 37.0081 26.8335 36.9156 27.1447C36.8405 27.396 36.7575 27.66 36.6673 27.9356L36.9168 27.9213C37.3165 26.9007 37.6219 25.9662 37.8263 25.1362C37.9288 24.7193 38.0104 24.3057 38.0689 23.9075C38.1183 23.5695 38.1306 23.2731 38.1047 23.0271C38.1001 22.9827 38.0943 22.9448 38.0878 22.9124C38.0659 22.9189 38.0404 22.9268 38.0118 22.9369C37.8097 23.0077 37.5963 23.0955 37.3773 23.1982C37.1882 23.2867 36.9968 23.3834 36.8065 23.486ZM30.6649 22.8585C30.4196 23.4606 30.2069 23.9894 30.0303 24.4354C29.8199 24.9667 29.6707 25.3958 29.5868 25.7105C29.5808 25.7331 29.5741 25.7558 29.5665 25.778C29.5574 25.8053 29.5362 25.8733 29.4973 26.0203C29.4601 26.1613 29.4157 26.322 29.3655 26.4977C29.3181 26.6635 29.2687 26.8397 29.2183 27.0217C29.1843 27.1444 29.15 27.2647 29.1158 27.3814L29.1822 27.3754C29.1917 27.3479 29.2011 27.3199 29.2106 27.2922C29.2132 27.2845 29.2159 27.2769 29.2187 27.2693C29.307 27.0281 29.4106 26.7481 29.5265 26.4367C29.6439 26.1202 29.7796 25.7736 29.9297 25.4071C29.9889 25.2631 30.0582 25.0992 30.1364 24.9184C30.2383 24.6818 30.3595 24.4569 30.4957 24.25C30.6536 24.01 30.8335 23.8021 31.0298 23.6326C31.1821 23.5013 31.3488 23.3998 31.5257 23.3295C31.4526 23.2909 31.383 23.244 31.3183 23.1889C31.1868 23.0773 31.0848 22.9404 31.0157 22.7896C30.895 22.8118 30.7775 22.835 30.6647 22.8588L30.6649 22.8585ZM32.6535 23.3071C33.0679 23.4722 33.3751 23.8409 33.4745 24.3209C33.5236 24.5577 33.5312 24.822 33.4979 25.1292C33.4713 25.3722 33.4223 25.63 33.3478 25.9181C33.2847 26.1623 33.2142 26.4145 33.1381 26.6681C33.1372 26.6714 33.1361 26.6749 33.1351 26.6781C33.0887 26.8284 33.0385 26.9837 32.9849 27.144C33.0581 27.1345 33.1259 27.1248 33.1883 27.1146C33.3146 26.7787 33.4422 26.4476 33.5703 26.125C33.7612 25.6432 33.9314 25.1794 34.0757 24.747C34.0979 24.6805 34.1261 24.616 34.1601 24.5545C34.3316 24.2432 34.5097 23.9933 34.703 23.7922C34.508 23.6232 34.3728 23.3915 34.324 23.1318C34.3074 23.0437 34.2847 22.9478 34.2563 22.8468C34.1272 22.8488 33.9992 22.8639 33.8681 22.8918C33.6373 22.9413 33.4258 22.9989 33.2387 23.0629C33.0399 23.1332 32.8436 23.2151 32.654 23.3066L32.6535 23.3071Z" fill="#FFF737"/>
<path id="Vector_16" d="M42.1293 30.8614C41.4715 30.8614 40.897 30.7425 40.4212 30.5076C39.9102 30.2554 39.4945 29.8974 39.1858 29.4438C38.904 29.03 38.707 28.5532 38.6009 28.0272C38.5102 27.5794 38.464 27.1068 38.464 26.6236C38.464 25.7845 38.6184 25.0113 38.9234 24.3256C39.1974 23.709 39.5685 23.0909 40.0265 22.4884C40.3689 22.0269 40.8075 21.6045 41.3307 21.233C41.8579 20.8584 42.4322 20.5754 43.0373 20.3918C43.6675 20.2006 44.3175 20.1352 44.9692 20.1974C45.6876 20.2658 46.3579 20.5329 46.9613 20.9909C47.3712 21.3021 47.6811 21.7388 47.8817 22.2884C48.0417 22.7277 48.1409 23.1998 48.1765 23.6925C48.2108 24.1691 48.1906 24.6407 48.1164 25.0953C48.0332 25.6062 47.8799 26.0504 47.6609 26.4152C47.6029 26.5121 47.5317 26.5986 47.4508 26.6728C47.5192 26.9292 47.4984 27.2046 47.3856 27.4515C47.1849 27.8913 46.9354 28.3128 46.6441 28.7044C46.3317 29.1243 45.9544 29.4968 45.5223 29.8119C45.0895 30.1275 44.594 30.3814 44.0497 30.5661C43.5013 30.752 42.884 30.8514 42.2144 30.8611C42.1857 30.8616 42.1573 30.8618 42.1291 30.8618L42.1293 30.8614ZM41.8655 23.8898C41.5164 24.3494 41.2376 24.8118 41.0362 25.2645C40.8637 25.6527 40.7761 26.11 40.7761 26.6233C40.7761 26.9528 40.8066 27.2709 40.8669 27.569C40.9125 27.7948 40.9878 27.9824 41.097 28.1428C41.1809 28.2663 41.2912 28.3588 41.4445 28.4344C41.5455 28.4843 41.7312 28.5414 42.0581 28.5486C41.6005 28.43 41.3298 28.1562 41.1948 27.9759C40.9906 27.704 40.8637 27.3877 40.8179 27.037C40.7793 26.7456 40.795 26.4515 40.8648 26.1646C40.9337 25.8816 41.0276 25.6534 41.1522 25.4666C41.3316 25.1975 41.614 25.018 41.9277 24.967C41.9087 24.9355 41.8912 24.9031 41.8752 24.8696C41.7268 24.5605 41.7233 24.2014 41.8655 23.8895V23.8898ZM44.0342 27.9021C43.9741 27.9738 43.9119 28.0402 43.8479 28.1005C43.8104 28.1359 43.7718 28.1694 43.7323 28.2011C43.8867 28.1248 44.0298 28.0388 44.1605 27.9435C44.172 27.9352 44.1834 27.9266 44.1947 27.9181L44.0342 27.9019V27.9021ZM45.8807 24.0948C45.8642 24.194 45.8402 24.2948 45.809 24.3968C45.7778 24.4981 45.7435 24.5991 45.707 24.699C45.7516 24.696 45.796 24.6932 45.84 24.6904C45.8696 24.4974 45.8832 24.2981 45.8807 24.0946V24.0948Z" fill="#FFF737"/>
<path id="Vector_17" d="M49.2378 30.6456C48.6667 30.6456 48.1816 30.5589 47.7578 30.3813C47.3081 30.1931 46.9336 29.9376 46.6448 29.6225C46.3482 29.2986 46.1382 28.9279 46.0208 28.5203C45.9149 28.152 45.8747 27.7909 45.901 27.4464C45.9251 27.1312 46.0774 26.8397 46.3223 26.6394C46.4631 26.5243 46.6397 26.4076 46.8776 26.2723C47.0534 26.1724 47.2383 26.0672 47.4332 25.9555C47.4411 25.9511 47.449 25.9465 47.4566 25.9421C47.175 25.658 46.9972 25.3017 46.9403 24.9045C46.8735 24.4379 46.9186 23.981 47.0746 23.5466C47.2087 23.1727 47.4039 22.8238 47.654 22.5099C47.8797 22.2264 48.1447 21.9637 48.4413 21.7295C48.7044 21.5219 48.9715 21.3353 49.2348 21.1753C49.49 21.0202 49.7374 20.8852 49.9703 20.7735C50.1943 20.666 50.3744 20.5851 50.5205 20.5266C50.5245 20.5249 50.5282 20.5236 50.5321 20.5219C51.0262 20.3305 51.5568 20.2107 52.1094 20.1659C52.6668 20.1206 53.2049 20.155 53.7087 20.2681C54.2631 20.3927 54.7567 20.6184 55.1764 20.939C55.6825 21.3258 56.0175 21.8537 56.1458 22.4662C56.251 22.9686 56.0122 23.4802 55.5595 23.7223L54.3144 24.3884C54.4559 24.529 54.5812 24.683 54.6892 24.8492C54.8578 25.1093 54.9787 25.3937 55.049 25.6952C55.125 26.0228 55.1327 26.3523 55.0723 26.676C54.9833 27.1717 54.7946 27.6612 54.5119 28.1307C54.2245 28.6079 53.8291 29.0385 53.3369 29.4102C52.8624 29.7686 52.283 30.0632 51.6148 30.2858C50.9561 30.5052 50.1922 30.6259 49.3444 30.6447C49.3428 30.6447 49.3412 30.6447 49.3395 30.6447C49.3053 30.6453 49.2711 30.6456 49.2376 30.6456H49.2378ZM48.371 28.0822C48.4186 28.1268 48.5033 28.1867 48.6508 28.2487C48.7326 28.2829 48.925 28.3391 49.2963 28.333C49.3818 28.3312 49.4655 28.328 49.5479 28.3236C49.2669 28.2519 49.0163 28.1314 48.8041 27.965C48.7724 27.9402 48.7416 27.9146 48.7113 27.888C48.6676 27.9127 48.624 27.9379 48.5798 27.9629C48.5088 28.0033 48.4392 28.0433 48.3708 28.0822H48.371ZM52.5274 25.9338C52.6407 26.1215 52.7071 26.3299 52.7212 26.5451C52.7554 26.4506 52.7808 26.3569 52.7972 26.2647C52.7979 26.2605 52.7989 26.2561 52.7996 26.2519C52.8005 26.2469 52.8019 26.2395 52.7972 26.2191C52.7878 26.1787 52.7725 26.1426 52.7494 26.107C52.7214 26.0637 52.6863 26.0256 52.6426 25.9905C52.6148 25.9683 52.582 25.9511 52.5411 25.9382C52.5364 25.9368 52.5318 25.9352 52.5272 25.9338H52.5274ZM49.2304 24.4011C49.2466 24.4102 49.2635 24.4189 49.2808 24.4273C49.3906 24.4809 49.5051 24.5246 49.6211 24.5574C49.7499 24.594 49.8637 24.6249 49.9613 24.6504C49.7502 24.3702 49.6572 24.0305 49.6981 23.6953C49.6117 23.7764 49.5331 23.8617 49.4625 23.95C49.3689 24.0677 49.2995 24.1912 49.2503 24.3281C49.2415 24.3523 49.2348 24.3764 49.2302 24.4009L49.2304 24.4011Z" fill="#FFF737"/>
</g>
</g>
<g id="Group_4">
<g id="Group_5">
<path id="Vector_18" d="M11.8581 15.1647C11.7166 15.6861 11.5023 16.1422 11.2158 16.5332C10.9291 16.9242 10.5939 17.2557 10.2103 17.5276C9.82648 17.7995 9.40198 18.0173 8.93656 18.1812C8.47091 18.3449 7.99254 18.4566 7.501 18.5165C6.84552 18.5983 6.24577 18.5482 5.7022 18.3658C5.1584 18.1831 4.70408 17.9003 4.33924 17.5168C3.97416 17.1332 3.71359 16.6659 3.55729 16.1147C3.40077 15.5635 3.37857 14.9603 3.49024 14.3048C3.60192 13.6496 3.81232 13.0184 4.12144 12.4112C4.43033 11.8043 4.81414 11.2605 5.27216 10.7801C5.73018 10.2996 6.25525 9.90125 6.84737 9.58473C7.43949 9.26821 8.07809 9.07284 8.76339 8.99816C9.00176 8.97573 9.25678 8.97411 9.52868 8.99261C9.80058 9.01134 10.0667 9.06359 10.3275 9.14914C10.5881 9.23491 10.8283 9.35584 11.0482 9.51213C11.2678 9.66843 11.4465 9.86958 11.5843 10.1154C11.7221 10.3611 11.8021 10.6555 11.8246 10.9979C11.847 11.3405 11.791 11.7428 11.6569 12.2045L9.14326 12.5398C9.18048 12.3386 9.20268 12.1507 9.21031 11.9756C9.21771 11.8006 9.20083 11.6517 9.16014 11.5287C9.11921 11.4057 9.05586 11.3128 8.97032 11.2494C8.88454 11.1863 8.76732 11.1657 8.61842 11.1879C8.2982 11.2254 8.01127 11.3442 7.7581 11.5454C7.50469 11.7465 7.28505 11.983 7.09893 12.2547C6.91257 12.5266 6.75628 12.8096 6.62981 13.1037C6.50311 13.398 6.40993 13.6568 6.35051 13.8801C6.26843 14.1855 6.21641 14.4872 6.19421 14.785C6.17179 15.0831 6.19606 15.3476 6.26681 15.5783C6.33756 15.8093 6.46033 15.9917 6.63559 16.1258C6.81061 16.2599 7.05823 16.3156 7.37846 16.2934C7.61683 16.2786 7.827 16.2319 8.00965 16.1538C8.19207 16.0756 8.35045 15.979 8.48455 15.8634C8.61865 15.748 8.73032 15.6176 8.8198 15.4724C8.90928 15.3272 8.9798 15.1765 9.03205 15.0199L11.8586 15.1651L11.8581 15.1647Z" fill="#FC0D1B"/>
<path id="Vector_19" d="M19.2875 14.1481C19.198 14.6621 19.0267 15.1481 18.7735 15.6061C18.5201 16.0641 18.211 16.4646 17.8461 16.807C17.481 17.1496 17.0734 17.4215 16.6228 17.6224C16.1722 17.8236 15.7123 17.9242 15.243 17.9242C14.7662 17.9316 14.3362 17.8386 13.9526 17.6449C13.5688 17.4513 13.2504 17.1868 12.9975 16.8516C12.7441 16.5163 12.5654 16.1217 12.4613 15.6674C12.3568 15.213 12.3496 14.7289 12.4389 14.2149C12.5284 13.7009 12.6884 13.217 12.9193 12.7625C13.1501 12.3081 13.4405 11.9098 13.7907 11.5671C14.1408 11.2247 14.5449 10.9547 15.003 10.7572C15.461 10.56 15.9581 10.4539 16.4945 10.4388C16.9636 10.4314 17.39 10.5225 17.7738 10.7126C18.1573 10.9024 18.4757 11.1669 18.7289 11.5059C18.982 11.8448 19.1608 12.2416 19.265 12.6956C19.3693 13.15 19.3767 13.6341 19.2875 14.1481ZM16.8519 14.1705C16.8892 13.9918 16.9282 13.7851 16.9692 13.5504C17.0101 13.3157 17.0251 13.0924 17.0138 12.8801C17.0027 12.6679 16.9504 12.4873 16.8575 12.3382C16.7643 12.1893 16.6062 12.1112 16.3826 12.1035C16.2187 12.1035 16.0547 12.165 15.891 12.2878C15.7271 12.4108 15.5727 12.5726 15.4275 12.7738C15.2823 12.9749 15.1574 13.1983 15.0531 13.4441C14.9486 13.6898 14.8781 13.9319 14.8409 14.1703C14.8111 14.3194 14.7831 14.4942 14.7572 14.6954C14.7311 14.8965 14.7255 15.0903 14.7403 15.2764C14.7551 15.4627 14.7997 15.6246 14.8744 15.7624C14.9489 15.9002 15.0756 15.9802 15.2543 16.0026C15.4106 16.0176 15.5708 15.9767 15.7347 15.8796C15.8984 15.783 16.055 15.6489 16.2039 15.4773C16.3528 15.306 16.485 15.1069 16.6004 14.8796C16.7158 14.6526 16.7994 14.4161 16.8517 14.1703L16.8519 14.1705Z" fill="#FC0D1B"/>
<path id="Vector_20" d="M26.5492 14.1481C26.4598 14.6621 26.2884 15.1481 26.0353 15.6061C25.7819 16.0641 25.4727 16.4646 25.1079 16.807C24.7428 17.1496 24.3352 17.4215 23.8846 17.6224C23.434 17.8236 22.9741 17.9242 22.5047 17.9242C22.028 17.9316 21.5979 17.8386 21.2144 17.6449C20.8306 17.4513 20.5122 17.1868 20.2593 16.8516C20.0059 16.5163 19.8271 16.1217 19.7231 15.6674C19.6186 15.213 19.6114 14.7289 19.7007 14.2149C19.7901 13.7009 19.9501 13.217 20.1811 12.7625C20.4119 12.3081 20.7023 11.9098 21.0525 11.5671C21.4026 11.2247 21.8067 10.9547 22.2647 10.7572C22.7228 10.56 23.2199 10.4539 23.7563 10.4388C24.2254 10.4314 24.6517 10.5225 25.0355 10.7126C25.4191 10.9024 25.7375 11.1669 25.9907 11.5059C26.2438 11.8448 26.4225 12.2416 26.5268 12.6956C26.6311 13.15 26.6385 13.6341 26.5492 14.1481ZM24.1137 14.1705C24.1509 13.9918 24.19 13.7851 24.2309 13.5504C24.2719 13.3157 24.2869 13.0924 24.2756 12.8801C24.2645 12.6679 24.2122 12.4873 24.1193 12.3382C24.0261 12.1893 23.8679 12.1112 23.6444 12.1035C23.4804 12.1035 23.3165 12.165 23.1528 12.2878C22.9889 12.4108 22.8344 12.5726 22.6892 12.7738C22.544 12.9749 22.4192 13.1983 22.3149 13.4441C22.2104 13.6898 22.1399 13.9319 22.1027 14.1703C22.0728 14.3194 22.0449 14.4942 22.019 14.6954C21.9928 14.8965 21.9873 15.0903 22.0021 15.2764C22.0169 15.4627 22.0615 15.6246 22.1362 15.7624C22.2106 15.9002 22.3373 15.9802 22.5161 16.0026C22.6724 16.0176 22.8326 15.9767 22.9965 15.8796C23.1602 15.783 23.3167 15.6489 23.4656 15.4773C23.6145 15.306 23.7468 15.1069 23.8622 14.8796C23.9775 14.6526 24.0612 14.4161 24.1135 14.1703L24.1137 14.1705Z" fill="#FC0D1B"/>
<path id="Vector_21" d="M31.8335 8.94171L28.884 17.6559L25.8898 18.0693L29.0516 9.14286L31.8335 8.94171Z" fill="#FC0D1B"/>
<path id="Vector_22" d="M40.1343 10.83C40.4321 10.8374 40.6538 10.9417 40.799 11.1428C40.9442 11.344 41.0337 11.6048 41.0672 11.9248C41.1007 12.245 41.0875 12.6082 41.0281 13.014C40.9685 13.42 40.8866 13.8352 40.7824 14.2597C40.5366 15.2578 40.1528 16.3824 39.6316 17.6337L37.1066 17.7789C37.412 16.9521 37.6613 16.2148 37.8553 15.5667C37.9371 15.2914 38.0116 15.0192 38.0786 14.7513C38.1457 14.4831 38.194 14.2449 38.2238 14.0361C38.2534 13.8278 38.261 13.6581 38.2462 13.5277C38.2312 13.3976 38.1829 13.3287 38.101 13.321C37.8999 13.3062 37.7397 13.3585 37.6206 13.4776C37.5013 13.5969 37.3822 13.7642 37.2631 13.9802C37.1217 14.4047 36.9577 14.8516 36.7716 15.3207C36.5852 15.7899 36.4028 16.2703 36.2241 16.7618C35.9485 16.8513 35.5985 16.9184 35.174 16.963C34.7495 17.0076 34.2579 16.9891 33.6993 16.907C33.9599 16.2442 34.1721 15.6484 34.3361 15.1196C34.4031 14.8962 34.4646 14.6766 34.5203 14.4604C34.5763 14.2445 34.6133 14.0509 34.632 13.8794C34.6505 13.7081 34.6487 13.5684 34.6265 13.4604C34.604 13.3525 34.552 13.2947 34.4699 13.2873C34.3358 13.2799 34.2147 13.3226 34.1069 13.4158C33.999 13.509 33.8984 13.6264 33.8052 13.7677C33.712 13.9092 33.6302 14.062 33.5594 14.2257C33.4885 14.3897 33.4272 14.5349 33.3752 14.6613C33.2411 14.9892 33.1199 15.2981 33.0119 15.5887C32.904 15.8791 32.8089 16.1362 32.7271 16.3595C32.6376 16.6204 32.5555 16.8661 32.4813 17.0969L30.1464 17.3091C30.2805 16.84 30.4072 16.4005 30.5262 15.9908C30.5785 15.8194 30.6284 15.6463 30.677 15.4713C30.7253 15.2965 30.772 15.1305 30.8166 14.9742C30.8613 14.8176 30.9003 14.6764 30.9339 14.5497C30.9674 14.4232 30.9954 14.3263 31.0175 14.2593C31.107 13.924 31.2578 13.4884 31.47 12.952C31.6823 12.4158 31.9486 11.7567 32.2688 10.9745C32.3655 10.9373 32.5239 10.8945 32.7437 10.846C32.9634 10.7976 33.1962 10.753 33.442 10.7119C33.6878 10.6709 33.9224 10.6356 34.1458 10.6057C34.3691 10.5761 34.5257 10.5648 34.6149 10.5722L34.3691 11.3655C34.6075 11.2464 34.8533 11.1421 35.1064 11.0527C35.3224 10.9782 35.5608 10.913 35.8216 10.857C36.0821 10.8011 36.3427 10.7808 36.6035 10.7955C36.7748 10.8106 36.9145 10.8552 37.0225 10.9296C37.1304 11.0041 37.2181 11.0954 37.2851 11.2034C37.3522 11.3114 37.4042 11.4307 37.4416 11.5608C37.4789 11.6912 37.5087 11.8161 37.5311 11.9352C37.7098 11.8309 37.9165 11.7137 38.1512 11.5833C38.3859 11.4531 38.6222 11.3319 38.8606 11.2203C39.0989 11.1086 39.3297 11.0136 39.5533 10.9354C39.7768 10.8573 39.9704 10.8219 40.1343 10.8293V10.83Z" fill="#FC0D1B"/>
<path id="Vector_23" d="M48.0929 12.8743C48.0929 12.9488 48.0704 13.0773 48.0258 13.2597C47.9812 13.4424 47.9234 13.6546 47.8526 13.8965C47.7819 14.1386 47.7019 14.4031 47.6124 14.6897C47.5229 14.9767 47.4298 15.2652 47.3331 15.5556C47.1098 16.2335 46.8601 16.9782 46.5845 17.79L43.8585 18.4268C43.9106 18.3151 43.9591 18.2034 44.0037 18.0915C44.041 17.9946 44.0837 17.8943 44.1323 17.7898C44.1806 17.6855 44.2234 17.5926 44.2608 17.5105C44.0745 17.5926 43.8622 17.6557 43.6241 17.7003C43.3857 17.7449 43.1436 17.7673 42.8981 17.7673C42.6526 17.7673 42.4128 17.7394 42.1793 17.6837C41.9455 17.6277 41.7379 17.5403 41.5562 17.421C41.3744 17.3019 41.2297 17.1456 41.1222 16.9519C41.0149 16.7584 40.9608 16.5237 40.9608 16.2481C40.9682 15.5928 41.1465 15.0118 41.4949 14.5052C41.8436 13.9989 42.2926 13.6077 42.8419 13.3321C43.0951 13.2056 43.3503 13.1069 43.6072 13.0359C43.8641 12.9652 44.1101 12.9187 44.3445 12.8963C44.579 12.8738 44.7989 12.8683 45.0037 12.8796C45.2086 12.8907 45.3891 12.9113 45.5457 12.9411C45.5531 12.8667 45.5623 12.7959 45.5736 12.7289C45.5847 12.6618 45.5884 12.5987 45.5847 12.5391C45.5808 12.4796 45.5605 12.4255 45.5232 12.377C45.4858 12.3287 45.4227 12.282 45.3334 12.2373C45.1323 12.1479 44.8809 12.1143 44.5792 12.1368C44.2775 12.1592 43.9852 12.2038 43.7022 12.2709C43.367 12.3529 43.0243 12.4535 42.6743 12.5726L43.6128 10.584C43.8287 10.5095 44.0634 10.4499 44.3166 10.4052C44.5325 10.368 44.782 10.3458 45.0652 10.3382C45.3482 10.3308 45.6573 10.3569 45.9926 10.4163C46.1937 10.461 46.4171 10.5225 46.6628 10.6006C46.9086 10.6788 47.1377 10.8055 47.35 10.9805C47.5622 11.1555 47.7391 11.3939 47.8806 11.6956C48.0221 11.9973 48.0929 12.3902 48.0929 12.8743ZM45.3066 14.4049C44.9491 14.3231 44.6287 14.3658 44.3457 14.5335C44.0625 14.7011 43.8766 14.9933 43.7871 15.4104C43.7573 15.5596 43.7665 15.6786 43.8151 15.7679C43.8634 15.8573 43.9341 15.9262 44.0273 15.9746C44.1203 16.0231 44.2285 16.0527 44.3512 16.064C44.4742 16.0751 44.5915 16.0696 44.7031 16.0472C44.7478 15.9505 44.7998 15.8164 44.8597 15.6449C44.9191 15.4735 44.9806 15.3041 45.0439 15.1364C45.1071 14.9688 45.163 14.8162 45.2116 14.6784C45.2599 14.5406 45.2916 14.4493 45.3066 14.4047V14.4049Z" fill="#FC0D1B"/>
<path id="Vector_24" d="M55.194 11.1539C55.1866 11.236 55.1549 11.368 55.0989 11.5504C55.043 11.7331 54.9817 11.9211 54.9147 12.1146C54.8476 12.3083 54.7824 12.4926 54.7191 12.6676C54.6557 12.8427 54.609 12.9675 54.5794 13.042L52.7025 13.2431C52.5386 13.7122 52.3857 14.1351 52.2445 14.5111C52.103 14.8872 52.0024 15.2502 51.9427 15.6003C51.9053 15.794 51.9427 15.9355 52.0544 16.0248C52.1661 16.114 52.3094 16.1684 52.4845 16.1868C52.6595 16.2056 52.8512 16.2 53.0597 16.1702C53.268 16.1406 53.4581 16.1071 53.6294 16.0696L52.8585 18.1029C52.5829 18.1699 52.2944 18.2275 51.9927 18.276C51.691 18.3244 51.3932 18.3505 51.0988 18.3542C50.8045 18.3579 50.5252 18.3373 50.2609 18.2927C49.9964 18.2481 49.7655 18.1623 49.5682 18.0358C49.3708 17.9093 49.2145 17.7396 49.0991 17.5274C48.9835 17.3151 48.9296 17.0453 48.937 16.7175C48.937 16.5313 48.9743 16.3041 49.0487 16.0359C49.1232 15.7677 49.2108 15.4868 49.3114 15.1924C49.4119 14.8983 49.5162 14.6059 49.6242 14.3155C49.7322 14.0251 49.8233 13.7608 49.8979 13.5222L48.4009 13.7233L49.0936 11.4779C49.22 11.4631 49.4288 11.4462 49.7192 11.4277C50.0096 11.4092 50.3224 11.3886 50.6577 11.3662C50.7472 11.1354 50.8253 10.9287 50.8924 10.7461C50.9594 10.5637 51.0188 10.3997 51.0711 10.2545C51.1231 10.1093 51.1698 9.98078 51.2107 9.86911C51.2517 9.75744 51.2907 9.65316 51.328 9.55629C51.4993 9.50427 51.7208 9.45571 51.9927 9.41109C52.2646 9.36647 52.5457 9.32554 52.8361 9.28832C53.1265 9.25109 53.404 9.21757 53.6685 9.18774C53.9327 9.15815 54.1434 9.12832 54.2997 9.09827C54.24 9.25479 54.1841 9.40369 54.132 9.54519C54.0798 9.68669 54.022 9.83952 53.9589 10.0032C53.8955 10.1671 53.8229 10.3496 53.7411 10.5507C53.659 10.7519 53.5623 10.9902 53.4507 11.2658C53.6072 11.2658 53.7672 11.2584 53.9311 11.2434C54.0948 11.2286 54.255 11.2138 54.4116 11.1988C54.5679 11.184 54.7133 11.1729 54.8472 11.1653C54.9813 11.1579 55.0966 11.1542 55.1935 11.1542L55.194 11.1539Z" fill="#FC0D1B"/>
<path id="Vector_25" d="M60.7575 11.5003C61.167 11.5377 61.465 11.6624 61.6513 11.8746C61.8375 12.0869 61.9454 12.3624 61.9753 12.7014C62.0049 13.0403 61.9697 13.4276 61.8691 13.8632C61.7686 14.299 61.6363 14.7571 61.4726 15.2373C61.3087 15.7177 61.1281 16.2111 60.9307 16.7177C60.7332 17.2243 60.549 17.7121 60.3776 18.1812C60.0796 18.2631 59.6942 18.3209 59.2214 18.3544C58.7483 18.3879 58.1992 18.3526 57.5735 18.2483C57.9608 17.3396 58.2773 16.5205 58.5231 15.7903C58.6274 15.4849 58.7243 15.1834 58.8135 14.8854C58.903 14.5876 58.9698 14.3212 59.0147 14.0866C59.0593 13.8519 59.0762 13.6602 59.0648 13.5113C59.0537 13.3624 59.0033 13.2843 58.9141 13.2766C58.765 13.2618 58.6309 13.2898 58.5118 13.3603C58.3925 13.4313 58.2845 13.5224 58.1879 13.6341C58.091 13.7458 58.0052 13.8706 57.931 14.0084C57.8565 14.1462 57.7932 14.2785 57.7412 14.4049C57.6071 14.7252 57.4843 15.0493 57.3724 15.3769C57.2607 15.7048 57.1639 16.0026 57.082 16.2708C56.9851 16.5836 56.8956 16.889 56.8138 17.1868L54.166 17.3433C54.3001 16.837 54.4305 16.364 54.557 15.9244C54.6092 15.7383 54.6613 15.5501 54.7133 15.3603C54.7653 15.1705 54.8139 14.9915 54.8585 14.8241C54.9031 14.6567 54.944 14.5076 54.9815 14.3772C55.0187 14.247 55.0446 14.1481 55.0596 14.0812C55.0892 13.977 55.1359 13.8186 55.1993 13.6063C55.2624 13.3941 55.3389 13.1483 55.4284 12.869C55.5179 12.5897 55.6164 12.2901 55.7244 11.9696C55.8323 11.6494 55.9422 11.3273 56.0538 11.0032C56.1655 10.679 56.279 10.3609 56.3946 10.0481C56.51 9.73524 56.6198 9.45224 56.7241 9.19907C56.7911 9.17665 56.8954 9.1526 57.0369 9.12647C57.1784 9.10058 57.3403 9.07445 57.5229 9.04833C57.7053 9.02243 57.8972 9 58.0982 8.98128C58.2993 8.96278 58.491 8.94613 58.6736 8.9311C58.8561 8.91631 59.02 8.90521 59.1652 8.89758C59.3104 8.89018 59.4165 8.89018 59.4835 8.89758L58.4334 11.8471C58.6718 11.7726 58.9176 11.7056 59.1707 11.6459C59.3867 11.5939 59.6343 11.5509 59.9136 11.5174C60.1929 11.4839 60.474 11.4783 60.757 11.5007L60.7575 11.5003Z" fill="#FC0D1B"/>
</g>
<g id="Group_6">
<path id="Vector_26" d="M20.3772 24.2254C20.2891 24.5773 20.1892 24.9528 20.0775 25.3526C19.9654 25.7523 19.8276 26.1539 19.6639 26.5576C19.5 26.9613 19.3002 27.353 19.0644 27.7326C18.8285 28.1123 18.5407 28.4561 18.201 28.7638C17.8612 29.0715 17.4637 29.3333 17.008 29.5492C16.5523 29.7652 16.0249 29.909 15.4254 29.9809C14.7218 30.0687 14.0784 30.0149 13.4951 29.819C12.9115 29.623 12.4239 29.3196 12.0324 28.9079C11.6408 28.4963 11.361 27.9948 11.1932 27.4032C11.0253 26.8117 11.0013 26.1643 11.1213 25.4608C11.2413 24.7575 11.4669 24.08 11.7987 23.4285C12.1302 22.7772 12.542 22.1936 13.0336 21.678C13.5251 21.1624 14.0886 20.7349 14.7242 20.395C15.3595 20.0554 16.0448 19.8455 16.7803 19.7655C17.036 19.7414 17.3097 19.7396 17.6015 19.7594C17.8933 19.7796 18.1789 19.8355 18.4588 19.9273C18.7386 20.0193 18.9964 20.149 19.2322 20.3169C19.4678 20.4847 19.6597 20.7005 19.8077 20.9643C19.9555 21.2281 20.0415 21.5439 20.0655 21.9115C20.0896 22.2794 20.0294 22.7108 19.8856 23.2065L17.1879 23.5663C17.2758 23.1268 17.2418 22.795 17.0859 22.5712C16.9301 22.3476 16.6964 22.2556 16.3845 22.2953C16.0407 22.3353 15.7209 22.4512 15.4252 22.6431C15.1295 22.835 14.8657 23.0729 14.6338 23.3563C14.4019 23.6403 14.21 23.9498 14.0583 24.2856C13.9064 24.6213 13.8023 24.957 13.7466 25.2927C13.6907 25.6284 13.6726 25.9361 13.6927 26.2159C13.7126 26.4959 13.7827 26.7375 13.9024 26.9412C14.0224 27.1451 14.1942 27.2991 14.418 27.4027C14.6416 27.5067 14.9255 27.5465 15.2693 27.5227C15.5251 27.5067 15.7588 27.461 15.9708 27.3849C16.1826 27.3091 16.3643 27.2251 16.5162 27.1331C16.6679 27.0413 16.7879 26.9493 16.876 26.8573C16.9639 26.7655 17.0198 26.6915 17.0439 26.6356L14.9336 26.6716L15.4132 24.4416L20.3769 24.2259L20.3772 24.2254Z" fill="#FC0D1B"/>
<path id="Vector_27" d="M27.9113 23.9258C27.9113 24.0058 27.8873 24.1436 27.8394 24.3395C27.7915 24.5355 27.7293 24.7633 27.6535 25.0229C27.5774 25.2828 27.4917 25.5665 27.3957 25.8742C27.2998 26.1819 27.1996 26.4918 27.0961 26.8034C26.8563 27.5308 26.5883 28.3303 26.2929 29.2013L23.3674 29.8847C23.4231 29.7647 23.4754 29.645 23.5232 29.525C23.5632 29.4209 23.609 29.3132 23.661 29.2013C23.7128 29.0894 23.7588 28.9895 23.7988 28.9016C23.5988 28.9897 23.3711 29.0575 23.1154 29.1056C22.8594 29.1534 22.5998 29.1775 22.3362 29.1775C22.0726 29.1775 21.8153 29.1474 21.5647 29.0875C21.3138 29.0276 21.0909 28.9338 20.8958 28.8057C20.7009 28.6778 20.5455 28.51 20.4301 28.3021C20.315 28.0943 20.257 27.8425 20.257 27.5468C20.2651 26.8434 20.456 26.2201 20.8301 25.6763C21.2042 25.1327 21.686 24.7131 22.2759 24.4174C22.5475 24.2814 22.8213 24.1758 23.0971 24.0997C23.3729 24.0239 23.6367 23.9737 23.8885 23.9499C24.1403 23.9258 24.3759 23.9198 24.596 23.9318C24.8157 23.9439 25.0097 23.9658 25.1775 23.9977C25.1854 23.918 25.1955 23.8419 25.2076 23.77C25.2196 23.6981 25.2235 23.6303 25.2196 23.5661C25.2154 23.5023 25.1935 23.4442 25.1537 23.3922C25.1137 23.3404 25.0457 23.2902 24.9498 23.2424C24.7341 23.1464 24.4642 23.1104 24.1405 23.1344C23.8169 23.1584 23.5031 23.2063 23.1993 23.2782C22.8395 23.3663 22.4719 23.474 22.0962 23.6019L23.1033 21.4679C23.335 21.3881 23.5868 21.324 23.8587 21.276C24.0904 21.236 24.3581 21.2121 24.6619 21.2041C24.9655 21.1962 25.2973 21.2242 25.657 21.288C25.8728 21.3358 26.1127 21.402 26.3763 21.4859C26.6401 21.5698 26.8859 21.7058 27.1136 21.8935C27.3414 22.0815 27.5312 22.3372 27.6831 22.6609C27.8348 22.9846 27.9108 23.4063 27.9108 23.9258H27.9113ZM24.9211 25.5683C24.5375 25.4805 24.1937 25.5262 23.8899 25.7061C23.5861 25.886 23.3863 26.1997 23.2904 26.6474C23.2583 26.8074 23.2682 26.9352 23.3205 27.0309C23.3722 27.1269 23.4483 27.2009 23.5482 27.2527C23.6481 27.3047 23.7639 27.3366 23.8959 27.3486C24.0279 27.3606 24.1537 27.3546 24.2735 27.3306C24.3214 27.2268 24.3773 27.083 24.4413 26.8989C24.5052 26.7151 24.5713 26.5331 24.6393 26.3535C24.707 26.1736 24.7671 26.0099 24.8191 25.862C24.8709 25.7142 24.9049 25.6162 24.9211 25.5683Z" fill="#FC0D1B"/>
<path id="Vector_28" d="M38.2534 21.7317C38.573 21.7398 38.8109 21.8517 38.9667 22.0674C39.1226 22.2831 39.2185 22.5631 39.2546 22.9067C39.2906 23.2505 39.2765 23.6401 39.2127 24.0757C39.1487 24.5115 39.0608 24.9568 38.9489 25.4125C38.6851 26.4837 38.2733 27.6906 37.714 29.0334L35.0043 29.1893C35.3319 28.3021 35.5997 27.5107 35.8075 26.8152C35.8954 26.5195 35.9754 26.2277 36.0473 25.9399C36.1192 25.652 36.1712 25.3963 36.2031 25.1725C36.235 24.9489 36.2431 24.767 36.2271 24.6271C36.211 24.4874 36.1592 24.4132 36.0713 24.4054C35.8556 24.3894 35.6836 24.4454 35.5557 24.5732C35.4279 24.7011 35.2998 24.8809 35.1721 25.1126C35.0202 25.5683 34.8443 26.0479 34.6445 26.5514C34.4445 27.055 34.2489 27.5706 34.057 28.098C33.7613 28.1939 33.3856 28.2658 32.9299 28.3137C32.4742 28.3615 31.9468 28.3419 31.3473 28.2538C31.627 27.5424 31.8548 26.9031 32.0307 26.3355C32.1026 26.0957 32.1685 25.8601 32.2286 25.6282C32.2885 25.3965 32.3285 25.1887 32.3486 25.0046C32.3685 24.8208 32.3667 24.671 32.3426 24.5549C32.3186 24.4391 32.2626 24.3771 32.1748 24.3691C32.031 24.3612 31.9008 24.407 31.7852 24.5069C31.6691 24.607 31.5614 24.7327 31.4615 24.8844C31.3614 25.0363 31.2735 25.2002 31.1977 25.376C31.1216 25.5519 31.0557 25.7077 30.9998 25.8435C30.856 26.1954 30.7258 26.5269 30.6102 26.8386C30.4941 27.1502 30.3924 27.4261 30.3045 27.6658C30.2086 27.9458 30.1205 28.2094 30.0407 28.4573L27.5349 28.685C27.6787 28.1814 27.8149 27.71 27.9425 27.2702C27.9985 27.0864 28.0524 26.9005 28.1044 26.7128C28.1562 26.5251 28.2063 26.347 28.2542 26.1792C28.3021 26.0113 28.3441 25.8596 28.3802 25.7235C28.4163 25.5875 28.4461 25.4837 28.4701 25.4118C28.5661 25.052 28.7279 24.5845 28.9557 24.0091C29.1834 23.4336 29.4692 22.7261 29.813 21.8868C29.9168 21.8468 30.0867 21.801 30.3226 21.749C30.5582 21.697 30.8081 21.6491 31.0719 21.6052C31.3357 21.5613 31.5875 21.5234 31.8273 21.4912C32.067 21.4593 32.2349 21.4473 32.3308 21.4552L32.067 22.3065C32.3228 22.1786 32.5866 22.0667 32.8585 21.9707C33.0901 21.891 33.3458 21.8209 33.6258 21.761C33.9056 21.7012 34.1851 21.6792 34.4651 21.6951C34.6489 21.7113 34.7987 21.7592 34.9148 21.839C35.0307 21.919 35.1245 22.017 35.1967 22.1328C35.2686 22.2489 35.3245 22.3767 35.3645 22.5164C35.4045 22.6563 35.4364 22.7904 35.4605 22.918C35.6524 22.8061 35.8741 22.6803 36.1259 22.5404C36.3777 22.4008 36.6313 22.2706 36.8872 22.1509C37.143 22.0309 37.3908 21.9291 37.6306 21.8452C37.8703 21.7613 38.0782 21.7234 38.2539 21.7312L38.2534 21.7317Z" fill="#FC0D1B"/>
<path id="Vector_29" d="M46.6701 25.8201C46.3343 25.8201 45.9686 25.8363 45.573 25.8679C45.1774 25.9001 44.7758 25.9338 44.3679 25.9699C43.9603 26.006 43.5626 26.0379 43.1749 26.0658C42.7872 26.0938 42.4334 26.1077 42.1139 26.1077C42.066 26.1796 42.024 26.2896 41.9881 26.4374C41.952 26.5854 41.9442 26.7352 41.9641 26.8871C41.984 27.039 42.036 27.171 42.1199 27.2827C42.2038 27.3948 42.3416 27.4505 42.5335 27.4505C42.6535 27.4505 42.7532 27.4346 42.8332 27.4027C42.9129 27.3708 42.9869 27.3229 43.0549 27.2589C43.1226 27.1951 43.1888 27.1151 43.2528 27.0191C43.3166 26.9232 43.3888 26.8113 43.4685 26.6834L46.3341 26.9712C46.1663 27.3391 45.9603 27.6866 45.7166 28.0145C45.4726 28.3423 45.1809 28.6299 44.8412 28.8778C44.5013 29.1256 44.1138 29.3236 43.6782 29.4713C43.2424 29.619 42.749 29.6969 42.1976 29.705C41.6859 29.7129 41.2642 29.635 40.9327 29.4713C40.6009 29.3076 40.3371 29.0817 40.1412 28.7939C39.9452 28.506 39.8094 28.1744 39.7336 27.7987C39.6575 27.423 39.6196 27.0314 39.6196 26.6237C39.6196 25.9445 39.7396 25.3348 39.9794 24.7954C40.2191 24.256 40.5428 23.7184 40.9505 23.1827C41.2221 22.8151 41.5719 22.4794 41.9997 22.1755C42.4272 21.872 42.8847 21.6461 43.3726 21.4981C43.86 21.3504 44.3557 21.3002 44.8592 21.3483C45.3628 21.3961 45.8303 21.5841 46.262 21.9117C46.4936 22.0877 46.6714 22.3455 46.7956 22.6851C46.9195 23.025 46.9954 23.3885 47.0233 23.7762C47.0513 24.1639 47.0354 24.5417 46.9755 24.9091C46.9156 25.277 46.8136 25.5805 46.6698 25.8203L46.6701 25.8201ZM44.5959 24.3692C44.6359 24.2654 44.6717 24.1614 44.7039 24.0576C44.7358 23.9538 44.7517 23.8597 44.7517 23.7757C44.7517 23.6918 44.7337 23.6199 44.6979 23.56C44.662 23.5001 44.5998 23.4661 44.512 23.4581C44.0641 23.4102 43.7208 23.4761 43.4808 23.656C43.241 23.8358 43.0531 24.0738 42.9173 24.3695C43.0133 24.3935 43.1391 24.4055 43.2949 24.4055C43.4507 24.4055 43.6126 24.4037 43.7804 24.3995C43.9483 24.3956 44.106 24.3896 44.2539 24.3815C44.4017 24.3736 44.5157 24.3695 44.5957 24.3695L44.5959 24.3692Z" fill="#FC0D1B"/>
<path id="Vector_30" d="M55.0145 22.7027L52.9524 23.8058C52.8403 23.6701 52.7006 23.554 52.5327 23.4581C52.3649 23.3621 52.157 23.3221 51.9092 23.3381C51.7732 23.3543 51.6292 23.382 51.4775 23.422C51.3256 23.462 51.1936 23.514 51.0819 23.5779C50.97 23.6419 50.896 23.7117 50.8602 23.7878C50.8241 23.8639 50.85 23.9376 50.9381 24.0095C51.0019 24.0655 51.1279 24.1355 51.3157 24.2195C51.5034 24.3034 51.7032 24.3873 51.9152 24.4712C52.127 24.5552 52.3267 24.6312 52.5147 24.699C52.7025 24.767 52.8282 24.813 52.8923 24.8368C53.068 24.8927 53.2259 24.9767 53.3658 25.0886C53.5054 25.2007 53.6236 25.3304 53.7195 25.4782C53.8155 25.6261 53.8832 25.7859 53.9235 25.9577C53.9635 26.1297 53.9674 26.2994 53.9355 26.4673C53.8714 26.827 53.7336 27.1826 53.5219 27.5343C53.3101 27.8862 53.0162 28.2039 52.6407 28.4875C52.265 28.7715 51.8014 29.0052 51.25 29.189C50.6986 29.3728 50.0549 29.4727 49.3197 29.4887C48.8718 29.4965 48.5003 29.4387 48.2045 29.3148C47.9088 29.1909 47.6728 29.033 47.4971 28.8413C47.3213 28.6494 47.1993 28.4358 47.1313 28.1999C47.0635 27.9643 47.0374 27.7424 47.0534 27.5345C47.1415 27.4626 47.2732 27.3768 47.449 27.2767C47.6247 27.1768 47.8106 27.0709 48.0064 26.959C48.2022 26.8471 48.396 26.7373 48.5879 26.6293C48.7798 26.5214 48.9315 26.4275 49.0436 26.3475C49.1315 26.5234 49.2094 26.6673 49.2773 26.7792C49.3451 26.8911 49.4251 26.9831 49.5171 27.055C49.6089 27.1269 49.725 27.1789 49.8648 27.2108C50.0045 27.243 50.1865 27.2707 50.4103 27.2947C50.5141 27.3028 50.626 27.2929 50.746 27.2647C50.866 27.2367 50.9816 27.1969 51.0937 27.1447C51.2056 27.0927 51.3055 27.0268 51.3934 26.9468C51.4812 26.867 51.5372 26.7789 51.5612 26.683C51.5853 26.587 51.5411 26.4992 51.4294 26.4192C51.3173 26.3394 51.1716 26.2615 50.9917 26.1854C50.8119 26.1096 50.6121 26.0398 50.3922 25.9755C50.1724 25.9117 49.9666 25.8516 49.7747 25.7956C49.6468 25.7637 49.4908 25.7218 49.3072 25.6696C49.1231 25.6178 48.9453 25.5496 48.7735 25.4657C48.6015 25.3817 48.4499 25.2819 48.3178 25.166C48.1861 25.0502 48.1081 24.9082 48.0841 24.7404C48.0441 24.4606 48.07 24.1929 48.162 23.9372C48.2538 23.6814 48.3856 23.4456 48.5576 23.2299C48.7294 23.0142 48.9294 22.8163 49.1571 22.6364C49.3849 22.4565 49.6108 22.2988 49.8346 22.1629C50.0581 22.0269 50.2702 21.9111 50.4699 21.8151C50.6697 21.7192 50.8297 21.6473 50.9494 21.5994C51.3409 21.4477 51.7587 21.3536 52.2024 21.3176C52.646 21.2815 53.0636 21.3076 53.4553 21.3955C53.8467 21.4836 54.1866 21.6373 54.4744 21.857C54.7623 22.0769 54.9419 22.3587 55.0141 22.7023L55.0145 22.7027Z" fill="#FC0D1B"/>
</g>
</g>
</g>
</g>
<defs>
<clipPath id="clip0_881_90354">
<rect width="64.246" height="40" fill="white" transform="translate(0.377014)"/>
</clipPath>
</defs>
</svg>
