<?xml version="1.0" encoding="UTF-8"?><svg id="Sliding" xmlns="http://www.w3.org/2000/svg" width="500" height="500" viewBox="0 0 500 500"><defs><style>.cls-1{fill:#f470f0;}.cls-2{fill:#fdec00;}.cls-3{fill:#814fa5;}</style></defs><g id="Sliding-2"><g><rect class="cls-3" x="333" width="167" height="333" rx="42" ry="42"/><g id="Arrows"><path class="cls-1" d="M421.92,48.66l27.69,27.69c5.04,5.04,1.47,13.66-5.66,13.66h-55.37c-7.13,0-10.7-8.62-5.66-13.66l27.69-27.69c3.12-3.12,8.19-3.12,11.31,0Z"/><path class="cls-1" d="M410.6,284.34l-27.69-27.69c-5.04-5.04-1.47-13.66,5.66-13.66h55.37c7.13,0,10.7,8.62,5.66,13.66l-27.69,27.69c-3.12,3.12-8.19,3.12-11.31,0Z"/></g></g><g><rect class="cls-3" x="83" y="250" width="167" height="333" rx="42" ry="42" transform="translate(-250 583) rotate(-90)"/><g id="Arrows-2"><path class="cls-1" d="M48.66,411.08l27.69-27.69c5.04-5.04,13.66-1.47,13.66,5.66v55.37c0,7.13-8.62,10.7-13.66,5.66l-27.69-27.69c-3.12-3.12-3.12-8.19,0-11.31Z"/><path class="cls-1" d="M284.34,422.4l-27.69,27.69c-5.04,5.04-13.66,1.47-13.66-5.66v-55.37c0-7.13,8.62-10.7,13.66-5.66l27.69,27.69c3.12,3.12,3.12,8.19,0,11.31Z"/></g></g><g><path class="cls-2" d="M247.76,181.29c10.72,2.63,17.31,13.49,14.69,24.21s-13.49,17.31-24.21,14.69c-10.72-2.63-17.31-13.49-14.69-24.21,2.63-10.72,13.49-17.31,24.21-14.69m3.8-15.54c-19.32-4.73-38.83,7.1-43.56,26.42-4.73,19.32,7.1,38.83,26.42,43.56,19.32,4.73,38.83-7.1,43.56-26.42,4.73-19.32-7.1-38.83-26.42-43.56h0Z"/><path class="cls-2" d="M227.82,231.14l-6.17,25.19-16.18-3.96c-4.29-1.05-8.62,1.58-9.67,5.87l-2.59,10.59c-1.05,4.29,1.58,8.62,5.87,9.67l16.18,3.96,7.77,1.9h0c4.29,1.05,8.62-1.58,9.67-5.87l10.66-43.55-15.54-3.8Z"/></g><g><rect class="cls-3" x=".17" y=".33" width="166.67" height="166.67" rx="42" ry="42"/><g id="Arrows-3"><path class="cls-1" d="M89.16,34.32l27.69,27.69c5.04,5.04,1.47,13.66-5.66,13.66H55.82c-7.13,0-10.7-8.62-5.66-13.66l27.69-27.69c3.12-3.12,8.19-3.12,11.31,0Z"/><path class="cls-1" d="M77.85,133.01l-27.69-27.69c-5.04-5.04-1.47-13.66,5.66-13.66h55.37c7.13,0,10.7,8.62,5.66,13.66l-27.69,27.69c-3.12,3.12-8.19,3.12-11.31,0Z"/></g></g></g></svg>