<svg width="16" height="15" viewBox="0 0 16 15" fill="none" xmlns="http://www.w3.org/2000/svg">
<path d="M8.39677 0.54865L9.93998 3.63349C10.0856 3.92368 10.366 4.12621 10.6924 4.17307L14.1451 4.66731C14.965 4.7852 15.2914 5.77821 14.6984 6.34802L12.2004 8.74969C11.9644 8.97641 11.8571 9.30136 11.9138 9.62179L12.5038 13.0134C12.6433 13.8175 11.7866 14.4327 11.0541 14.0518L7.96614 12.4512C7.67496 12.3 7.32709 12.3 7.03592 12.4512L3.94795 14.0518C3.21542 14.4312 2.35876 13.8175 2.49822 13.0134L3.08822 9.62179C3.14339 9.30287 3.03612 8.97641 2.80165 8.74969L0.303691 6.34802C-0.289382 5.77821 0.0385702 4.7852 0.85692 4.66731L4.30962 4.17307C4.63451 4.12621 4.91648 3.92519 5.06207 3.63349L6.60529 0.54865C6.97155 -0.182884 8.0305 -0.182884 8.39677 0.54865Z" fill="#FFE420"/>
</svg>
