<svg viewBox="0 0 500 500" xmlns="http://www.w3.org/2000/svg"><rect fill="#006aac" height="485.8" rx="242.9" width="485.8" x="14.2" y="14.2"/><g fill="#fdec00"><path d="m498.22 286.58a241.81 241.81 0 0 1 -57.22 129.19 142 142 0 0 1 -82.24-114.49 13.34 13.34 0 0 1 13.28-14.7z"/><path d="m439.45 247.5a18.77 18.77 0 0 1 -18.77-18.78v-35.95a18.77 18.77 0 0 1 37.54 0v35.95a18.78 18.78 0 0 1 -18.77 18.78z"/><path d="m167.49 91.32v-15.14a6.39 6.39 0 0 0 -6.39-6.39h-9.76a9.93 9.93 0 0 1 -9.34-6.62 60 60 0 0 0 -2.5-6 10 10 0 0 1 1.95-11.33l6.91-6.9a6.4 6.4 0 0 0 0-9l-10.71-10.7a6.37 6.37 0 0 0 -9 0l-6.9 6.9a10 10 0 0 1 -11.34 2 60 60 0 0 0 -6-2.5 10 10 0 0 1 -6.62-9.38v-9.87a6.39 6.39 0 0 0 -6.47-6.39h-15.14a6.39 6.39 0 0 0 -6.39 6.39v9.76a9.93 9.93 0 0 1 -6.62 9.38 60 60 0 0 0 -6 2.5 10 10 0 0 1 -11.33-2l-6.9-6.9a6.39 6.39 0 0 0 -9 0l-10.7 10.7a6.39 6.39 0 0 0 0 9l6.9 6.9a10 10 0 0 1 2 11.33 60 60 0 0 0 -2.5 6 9.93 9.93 0 0 1 -9.38 6.62h-9.87a6.39 6.39 0 0 0 -6.39 6.5v15.14a6.39 6.39 0 0 0 6.39 6.38h9.76a10 10 0 0 1 9.38 6.62 60 60 0 0 0 2.5 6 10 10 0 0 1 -2 11.34l-6.9 6.9a6.37 6.37 0 0 0 0 9l10.7 10.71a6.4 6.4 0 0 0 9 0l6.9-6.91a10 10 0 0 1 11.33-1.95 60 60 0 0 0 6 2.5 9.93 9.93 0 0 1 6.62 9.38v9.76a6.39 6.39 0 0 0 6.39 6.39h15.25a6.39 6.39 0 0 0 6.38-6.39v-9.76a10 10 0 0 1 6.62-9.38 60 60 0 0 0 6-2.5 10 10 0 0 1 11.34 1.95l6.9 6.91a6.39 6.39 0 0 0 9 0l10.71-10.71a6.39 6.39 0 0 0 0-9l-6.91-6.91a10 10 0 0 1 -1.95-11.33 60 60 0 0 0 2.5-6 10 10 0 0 1 9.38-6.62h9.76a6.39 6.39 0 0 0 6.44-6.38zm-81.74 23.23a30.87 30.87 0 1 1 28.8-28.8 30.87 30.87 0 0 1 -28.8 28.8z"/></g><path d="m191.15 236.63v-10.85a4.58 4.58 0 0 0 -4.58-4.58h-7a7.14 7.14 0 0 1 -6.73-4.74 43.11 43.11 0 0 0 -1.79-4.32 7.14 7.14 0 0 1 1.4-8.12l4.95-5a4.59 4.59 0 0 0 0-6.47l-7.67-7.67a4.58 4.58 0 0 0 -6.48 0l-4.95 4.94a7.14 7.14 0 0 1 -8.12 1.4 43.11 43.11 0 0 0 -4.32-1.79 7.13 7.13 0 0 1 -4.74-6.72v-7a4.58 4.58 0 0 0 -4.57-4.58h-10.84a4.58 4.58 0 0 0 -4.58 4.58v7a7.13 7.13 0 0 1 -4.74 6.72 43.11 43.11 0 0 0 -4.32 1.79 7.14 7.14 0 0 1 -8.12-1.4l-5-4.94a4.57 4.57 0 0 0 -6.47 0l-7.68 7.67a4.59 4.59 0 0 0 0 6.47l5 5a7.14 7.14 0 0 1 1.4 8.12 43.11 43.11 0 0 0 -1.79 4.32 7.13 7.13 0 0 1 -6.73 4.74h-7a4.58 4.58 0 0 0 -4.58 4.58v10.85a4.58 4.58 0 0 0 4.58 4.58h7a7.12 7.12 0 0 1 6.73 4.79 43.93 43.93 0 0 0 1.79 4.31 7.15 7.15 0 0 1 -1.4 8.13l-5 4.94a4.6 4.6 0 0 0 0 6.48l7.68 7.67a4.57 4.57 0 0 0 6.47 0l5-5a7.14 7.14 0 0 1 8.12-1.4 43.11 43.11 0 0 0 4.32 1.79 7.14 7.14 0 0 1 4.74 6.73v7a4.58 4.58 0 0 0 4.58 4.58h10.85a4.58 4.58 0 0 0 4.57-4.58v-7a7.14 7.14 0 0 1 4.74-6.73 43.11 43.11 0 0 0 4.32-1.79 7.14 7.14 0 0 1 8.12 1.4l4.95 5a4.58 4.58 0 0 0 6.48 0l7.67-7.67a4.6 4.6 0 0 0 0-6.48l-4.95-4.95a7.14 7.14 0 0 1 -1.4-8.12 43.93 43.93 0 0 0 1.79-4.31 7.13 7.13 0 0 1 6.73-4.74h7a4.58 4.58 0 0 0 4.57-4.63zm-58.58 16.65a22.13 22.13 0 1 1 20.64-20.64 22.14 22.14 0 0 1 -20.64 20.64z" fill="#00c2ff"/><path d="m385.84 140.17-.84-19.65a8.31 8.31 0 0 0 -8.66-7.92l-12.67.57a12.91 12.91 0 0 1 -12.57-8 77.64 77.64 0 0 0 -3.59-7.67 12.94 12.94 0 0 1 1.87-14.82l8.56-9.36a8.31 8.31 0 0 0 -.53-11.73l-14.56-13.3a8.29 8.29 0 0 0 -11.72.52l-8.56 9.36a12.92 12.92 0 0 1 -14.57 3.19 80.36 80.36 0 0 0 -8-2.88 12.94 12.94 0 0 1 -9.13-11.8l-.56-12.68a8.3 8.3 0 0 0 -8.66-7.92l-19.65.92a8.3 8.3 0 0 0 -7.92 8.67l.57 12.66a12.91 12.91 0 0 1 -8 12.57 77.64 77.64 0 0 0 -7.67 3.59 12.94 12.94 0 0 1 -14.82-1.87l-9.36-8.55a8.3 8.3 0 0 0 -11.73.52l-13.3 14.5a8.3 8.3 0 0 0 .52 11.73l9.36 8.55a12.92 12.92 0 0 1 3.19 14.63 80.36 80.36 0 0 0 -2.88 8 12.91 12.91 0 0 1 -11.8 9.13l-12.66.57a8.3 8.3 0 0 0 -7.92 8.67l.88 19.64a8.3 8.3 0 0 0 8.67 7.92l12.66-.57a12.93 12.93 0 0 1 12.57 8 78.89 78.89 0 0 0 3.64 7.64 12.92 12.92 0 0 1 -1.87 14.81l-8.55 9.36a8.3 8.3 0 0 0 .52 11.73l14.52 13.27a8.31 8.31 0 0 0 11.73-.53l8.55-9.36a12.92 12.92 0 0 1 14.59-3.19 77.9 77.9 0 0 0 8 2.88 12.91 12.91 0 0 1 9.13 11.8l.57 12.66a8.3 8.3 0 0 0 8.67 7.92l19.64-.88a8.3 8.3 0 0 0 7.92-8.66l-.57-12.67a12.92 12.92 0 0 1 8-12.57 77.64 77.64 0 0 0 7.67-3.59 12.94 12.94 0 0 1 14.82 1.87l9.36 8.56a8.31 8.31 0 0 0 11.73-.53l13.27-14.52a8.3 8.3 0 0 0 -.53-11.72l-9.36-8.56a12.92 12.92 0 0 1 -3.19-14.59 77.9 77.9 0 0 0 2.88-8 12.94 12.94 0 0 1 11.8-9.13l12.66-.57a8.29 8.29 0 0 0 7.88-8.62zm-104.73 34.93a40.11 40.11 0 1 1 35.7-39.1 40.11 40.11 0 0 1 -35.7 39.1z" fill="#fdad00"/></svg>