<svg enable-background="new 0 0 500 500" viewBox="0 0 500 500" xmlns="http://www.w3.org/2000/svg"><path d="m123.2 297.5 22.6 45.9c2.1 4.3 6.2 7.3 11 8l50.6 7.4c8 1.1 13.6 8.6 12.4 16.6-.5 3.2-2 6.2-4.3 8.4l-36.5 35.6c-3.5 3.4-5 8.2-4.2 13l8.6 50.4c1.4 8-4 15.5-12 16.9-3.2.5-6.4 0-9.3-1.5l-45.3-23.8c-4.3-2.2-9.4-2.2-13.6 0l-45.3 23.8c-7.2 3.8-16 1-19.8-6.1-1.5-2.9-2-6.1-1.5-9.3l8.7-50.4c.8-4.8-.7-9.6-4.2-13l-36.6-35.7c-5.8-5.6-5.9-14.9-.3-20.7 2.3-2.3 5.2-3.8 8.4-4.3l50.6-7.4c4.8-.7 8.9-3.7 11-8l22.7-45.9c3.6-7.3 12.4-10.2 19.6-6.6 2.9 1.5 5.3 3.8 6.7 6.7z" fill="#814fa5"/><path d="m134.8 410.7c-4 0-7.8-1.6-10.6-4.4l-19.3-19.3c-5.7-6.1-5.3-15.5.7-21.2 5.8-5.4 14.7-5.4 20.5 0l19.3 19.3c5.9 5.9 5.9 15.4 0 21.2-2.9 2.8-6.7 4.4-10.6 4.4z" fill="#f470f0"/><path d="m403.2 297.5 22.6 45.9c2.1 4.3 6.2 7.3 11 8l50.6 7.4c8 1.1 13.6 8.6 12.4 16.6-.5 3.2-2 6.2-4.3 8.4l-36.5 35.6c-3.5 3.4-5 8.2-4.2 13l8.6 50.4c1.4 8-4 15.5-12 16.9-3.2.5-6.4 0-9.3-1.5l-45.3-23.8c-4.3-2.2-9.4-2.2-13.6 0l-45.2 23.9c-7.2 3.8-16 1-19.8-6.1-1.5-2.9-2-6.1-1.5-9.3l8.6-50.4c.8-4.8-.7-9.6-4.2-13l-36.6-35.7c-5.8-5.6-5.9-14.9-.3-20.7 2.3-2.3 5.2-3.8 8.4-4.3l50.6-7.4c4.8-.7 8.9-3.7 11-8l22.7-45.8c3.6-7.2 12.4-10.2 19.7-6.6 2.9 1.3 5.2 3.6 6.6 6.5z" fill="#814fa5"/><path d="m416.8 410.7c-4 0-7.8-1.6-10.6-4.4l-19.3-19.3c-5.6-6.1-5.1-15.6 1-21.2 5.7-5.2 14.5-5.2 20.2 0l19.3 19.3c5.9 5.9 5.9 15.4 0 21.2-2.9 2.8-6.7 4.4-10.6 4.4z" fill="#f470f0"/><path d="m267.2 10.7 29.6 60.1c2.8 5.7 8.2 9.6 14.4 10.5l66.3 9.6c10.5 1.5 17.7 11.3 16.2 21.7-.6 4.2-2.6 8-5.6 11l-48 46.8c-4.5 4.4-6.6 10.8-5.5 17l11.3 66c1.8 10.4-5.2 20.3-15.6 22.1-4.2.7-8.4 0-12.2-1.9l-59.3-31.2c-5.6-2.9-12.3-2.9-17.8 0l-59.3 31.2c-9.4 4.9-21 1.3-25.9-8-2-3.7-2.6-8-1.9-12.2l11.3-66c1.1-6.2-1-12.6-5.5-17l-48-46.8c-7.6-7.4-7.7-19.5-.3-27.1 2.9-3 6.8-5 11-5.6l66.3-9.6c6.2-.9 11.6-4.8 14.4-10.5l29.6-60.1c4.6-9.5 16.1-13.5 25.6-8.8 3.9 1.8 7 4.9 8.9 8.8z" fill="#814fa5"/><path d="m284.1 142.3c-4 0-7.8-1.6-10.6-4.4l-19.3-19.3c-5.9-5.9-5.9-15.4 0-21.2s15.4-5.9 21.2 0l19.3 19.3c5.9 5.9 5.8 15.4 0 21.2-2.8 2.8-6.6 4.4-10.6 4.4z" fill="#f470f0"/></svg>