<svg enable-background="new 0 0 500 500" viewBox="0 0 500 500" xmlns="http://www.w3.org/2000/svg"><g fill="#fdec00"><path d="m368.7 37.4c-6.2-6.3-6.2-16.4 0-22.6.9-.9 1.9-1.7 3-2.4 39.8-24.2 91.7-11.6 115.9 28.2 16.4 26.9 16.4 60.8 0 87.8-4.6 7.6-14.4 10-22 5.4-1.1-.7-2.1-1.5-3-2.4z"/><path d="m131.3 37.4c6.2-6.3 6.2-16.4 0-22.6-.9-.9-1.9-1.7-3-2.4-39.9-24.2-91.8-11.6-116 28.2-16.4 26.9-16.4 60.7 0 87.7 4.6 7.6 14.4 10 22 5.4 1.1-.7 2.1-1.5 3-2.4z"/><path d="m136.7 500c-8.3 0-15-6.7-15-15 0-2 .4-3.9 1.1-5.7l23-55.8c3.2-7.7 11.9-11.3 19.6-8.2 7.7 3.2 11.3 11.9 8.2 19.6l-23 55.8c-2.3 5.6-7.8 9.3-13.9 9.3z"/><path d="m365.4 500c-6.1 0-11.6-3.7-13.9-9.3l-23-55.8c-3.3-7.6.1-16.4 7.7-19.8 7.6-3.3 16.4.1 19.8 7.7.1.2.2.4.2.6l23 55.8c3.2 7.7-.5 16.4-8.2 19.6-1.7.8-3.7 1.2-5.6 1.2z"/></g><circle cx="253.7" cy="238.2" fill="#006aac" r="238.2"/><path d="m410.8 148.2-157.2 90.8v-181.9c65 0 124.9 34.7 157.2 91.1z" fill="#41bf2e"/><path d="m434.7 238.2c.1 32-8.4 63.5-24.6 91.1l-156.6-90.4 157.2-90.8c15.8 27.5 24.1 58.5 24 90.1z" fill="#fdec00"/><path d="m253.6 238.9-156.5 90.4c50.3 86.5 161.3 115.7 247.7 65.4 27.1-15.8 49.6-38.3 65.4-65.4z" fill="#00c2ff"/><path d="m96.4 148.2c-32.1 56.2-31.9 125.2.6 181.1l156.5-90.4v-181.8c-64.8 0-124.8 34.7-157.1 91.1z" fill="#fdad00"/><path d="m253.7 253.2c-8.3 0-15-6.7-15-15v-71.5c0-8.3 6.7-15 15-15s15 6.7 15 15v71.5c0 8.3-6.7 15-15 15z" fill="#13202d"/><path d="m342.5 304.6c-2.6 0-5.2-.7-7.5-2l-88.9-51.4c-7.2-4.1-9.6-13.3-5.5-20.5s13.3-9.6 20.5-5.5l88.9 51.4c7.2 4.1 9.6 13.3 5.5 20.5-2.6 4.6-7.6 7.5-13 7.5z" fill="#13202d"/></svg>