<?xml version="1.0" encoding="UTF-8"?><svg id="Music" xmlns="http://www.w3.org/2000/svg" width="500" height="500" viewBox="0 0 500 500"><defs><style>.cls-1{fill:#f470f0;}.cls-2{fill:#00c2ff;}.cls-3{fill:#006aac;}.cls-4{fill:#fdad00;}.cls-5{fill:#fdec00;}</style></defs><g id="Music-2"><g><path class="cls-3" d="M216.91,36.16C98.09,36.16,1.77,132.48,1.77,251.3s96.32,215.14,215.14,215.14,215.14-96.32,215.14-215.14S335.73,36.16,216.91,36.16Zm0,300.9c-47.36,0-85.76-38.4-85.76-85.76s38.4-85.76,85.76-85.76,85.76,38.4,85.76,85.76-38.4,85.76-85.76,85.76Z"/><path class="cls-1" d="M216.91,163.5c-48.49,0-87.8,39.31-87.8,87.8s39.31,87.8,87.8,87.8,87.8-39.31,87.8-87.8-39.31-87.8-87.8-87.8Zm0,138.37c-27.93,0-50.57-22.64-50.57-50.57s22.64-50.57,50.57-50.57,50.57,22.64,50.57,50.57-22.64,50.57-50.57,50.57Z"/></g><g id="Mic"><circle class="cls-2" cx="411.55" cy="232.5" r="81.06"/><path class="cls-4" d="M346.56,475.17h48.28v7.48c0,8.83-7.17,16-16,16h-16.28c-8.83,0-16-7.17-16-16v-7.48h0Z" transform="translate(81.89 -52.61) rotate(9.12)"/><path class="cls-5" d="M399.21,479.6l-53.29-8.56c-8.44-1.35-14.32-9.1-13.36-17.59l14.53-159.6,106.49,17.1-36.16,156.12c-1.75,8.37-9.76,13.88-18.2,12.53Z"/><rect class="cls-4" x="335.97" y="292.4" width="128.71" height="20" rx="10" ry="10" transform="translate(53.01 -59.64) rotate(9.12)"/><path class="cls-5" d="M490.01,265.25c-.53,0-1.06-.04-1.6-.13l-160.08-25.7c-5.45-.88-9.16-6.01-8.29-11.46,.88-5.45,5.99-9.17,11.46-8.29l160.08,25.7c5.45,.88,9.16,6.01,8.29,11.46-.79,4.92-5.04,8.42-9.86,8.42Z"/></g><g id="music_note"><ellipse class="cls-5" cx="35.43" cy="117.46" rx="35.43" ry="28.24"/><path class="cls-5" d="M55.87,131.06c-8.28,0-15-6.72-15-15V29.87c0-8.28,6.72-15,15-15s15,6.72,15,15V116.06c0,8.28-6.72,15-15,15Z"/><path class="cls-5" d="M153.39,116.19c-8.28,0-15-6.72-15-15V15C138.39,6.72,145.11,0,153.39,0s15,6.72,15,15V101.19c0,8.28-6.72,15-15,15Z"/><path class="cls-5" d="M55.85,44.87c-7.29,0-13.68-5.32-14.81-12.74-1.25-8.19,4.38-15.84,12.57-17.09L151.13,.17c8.18-1.25,15.84,4.38,17.09,12.57s-4.38,15.84-12.57,17.09l-97.52,14.87c-.77,.12-1.53,.17-2.28,.17Z"/><ellipse class="cls-5" cx="133.01" cy="104.05" rx="35.43" ry="28.24"/></g></g></svg>