<svg viewBox="0 0 500 500" xmlns="http://www.w3.org/2000/svg"><rect fill="#fceb00" height="381.97" rx="42" width="381.97" x="118.03" y="108.34"/><rect fill="#f70000" height="381.97" rx="42" transform="matrix(.98710835 -.16005347 .16005347 .98710835 -31.3 37.3)" width="381.97" x="24.9" y="21.93"/><path d="m308 274.37q1.33 8.17-3.52 16.15t-15.06 9.63a22.18 22.18 0 0 1 -12.85-1.66 20.05 20.05 0 0 1 -9.51-8.79l-11-19.78-83.45 13.53-4.48 22.29a19.84 19.84 0 0 1 -6.39 11.37 22.84 22.84 0 0 1 -11.74 5.65q-9.93 1.62-17-4.27a23 23 0 0 1 -8.47-14.35 19.28 19.28 0 0 1 .18-8.12l33.2-155.42a33.28 33.28 0 0 1 10.11-18 34 34 0 0 1 18.15-9.08 35.69 35.69 0 0 1 22 1.67 32.83 32.83 0 0 1 16.83 14.53l80.32 137a25.74 25.74 0 0 1 2.68 7.65zm-69.23-39.08-43.92-78.83-16.77 88.67z" fill="#fff"/><rect fill="#f60000" height="53.9" rx="16" transform="matrix(-.30087225 .95366445 -.95366445 -.30087225 614.63 -371.31)" width="53.9" x="416.46" y="12.67"/><rect fill="#00c2ff" height="66.52" rx="16" transform="matrix(.46159379 .88709141 -.88709141 .46159379 433.55 -233.71)" width="66.52" x="376.03" y="207.02"/><rect fill="#fdec00" height="47.98" rx="16" transform="matrix(.46159379 .88709141 -.88709141 .46159379 434.22 231.06)" width="47.98" x="2.79" y="449.23"/></svg>