<svg enable-background="new 0 0 500 500" viewBox="0 0 500 500" xmlns="http://www.w3.org/2000/svg"><path d="m319 0h139c23.2 0 42 18.8 42 42v139c0 23.2-18.8 42-42 42h-139c-23.2 0-42-18.8-42-42v-139c0-23.2 18.8-42 42-42z" fill="#006aac"/><path d="m42.1 277h139c23.2 0 42 18.8 42 42v139c0 23.2-18.8 42-42 42h-139c-23.2 0-42-18.8-42-42v-139c0-23.2 18.8-42 42-42z" fill="#006aac"/><path d="m42.1 0h139c23.2 0 42 18.8 42 42v139c0 23.2-18.8 42-42 42h-139c-23.2 0-42-18.8-42-42v-139c0-23.2 18.8-42 42-42z" fill="#fdec00"/><path d="m104.2 64.4-49.4 85.5c-2.5 4.3-1 9.9 3.3 12.4 1.4.8 2.9 1.2 4.5 1.2h98.7c5 0 9.1-4.1 9.1-9.1 0-1.6-.4-3.1-1.2-4.5l-49.4-85.5c-2.5-4.3-8-5.8-12.4-3.3-1.2.8-2.4 1.9-3.2 3.3z" fill="#fdad00"/><path d="m319 277h139c23.2 0 42 18.8 42 42v139c0 23.2-18.8 42-42 42h-139c-23.2 0-42-18.8-42-42v-139c0-23.2 18.8-42 42-42z" fill="#fdad00"/><path d="m381.1 341.1-49.4 85.5c-2.5 4.3-1 9.9 3.3 12.4 1.4.8 2.9 1.2 4.5 1.2h98.7c5 0 9.1-4.1 9.1-9.1 0-1.6-.4-3.1-1.2-4.5l-49.4-85.5c-2.5-4.3-8-5.8-12.4-3.3-1.3.8-2.4 1.9-3.2 3.3z" fill="#fdec00"/></svg>