<svg height="500" viewBox="0 0 500 500" width="500" xmlns="http://www.w3.org/2000/svg"><g fill="#008d5a"><path d="m42 370.12h72c23.2 0 42 21 42 46.94v36c0 25.94-18.8 46.94-42 46.94h-72c-23.2 0-42-21-42-46.94v-36c0-25.93 18.8-46.94 42-46.94z"/><path d="m214 298.92h72c23.2 0 42 19.21 42 42.91v115.26c0 23.7-18.8 42.91-42 42.91h-72c-23.2 0-42-19.21-42-42.91v-115.26c0-23.7 18.8-42.91 42-42.91z"/><path d="m386 189.69h72c23.2 0 42 17.85 42 39.87v230.57c0 22-18.8 39.87-42 39.87h-72c-23.2 0-42-17.85-42-39.87v-230.57c0-22.02 18.8-39.87 42-39.87z"/></g><path d="m438.88 112.37a10 10 0 0 1 -10-10v-82.37h-82.38a10 10 0 0 1 0-20h92.38a10 10 0 0 1 10 10v92.37a10 10 0 0 1 -10 10z" fill="#fdec00"/><path d="m250.08 208.8a10 10 0 0 1 -7.08-17.07l188.8-188.8a10 10 0 0 1 14.2 14.14l-188.8 188.8a10 10 0 0 1 -7.12 2.93z" fill="#fdec00"/><path d="m61.21 309.37a10 10 0 0 1 -7.08-17.07l144.72-144.72a10 10 0 0 1 14.15 0l44.15 44.15a10 10 0 1 1 -14.15 14.14l-37.08-37.08-137.64 137.65a10 10 0 0 1 -7.07 2.93z" fill="#fdec00"/></svg>