<svg viewBox="0 0 500 500" xmlns="http://www.w3.org/2000/svg"><path d="m318.86 23.3h111.38a73 73 0 0 1 73 73v81.42a0 0 0 0 1 0 0h-257.36a0 0 0 0 1 0 0v-81.43a73 73 0 0 1 73-73z" fill="#f70000" transform="matrix(.90630779 .42261826 -.42261826 .90630779 77.57 -148.88)"/><path d="m236.14 92.86-96.81 207.6a33.69 33.69 0 0 0 -2.23 22l36.9 154.69c4.48 18.82 23.67 27.76 41 19.1l142.19-71.16a33.69 33.69 0 0 0 15.43-15.87l96.81-207.6z" fill="#fdad00"/><path d="m215 496.25 142.19-71.16c.84-.43 1.67-.89 2.48-1.38l-223.06-104c.14.93.32 1.86.54 2.78l36.85 154.66c4.46 18.85 23.65 27.76 41 19.1z" fill="#fdec00"/><path d="m253.66 476.87-38.66 19.38c-17.3 8.66-36.49-.29-41-19.1l-10-42.11z" fill="#006aac"/><path d="m122.17 473.57a201.78 201.78 0 0 1 -39-29c-5.42-5.17-74.46-72.76-64-141 12.43-81.1 127.62-100.94 125-177-.56-16.26-6.22-26.87-8-30-27.17-47.67-112.41-39.89-121-39" fill="none" stroke="#006aac" stroke-linecap="round" stroke-linejoin="round" stroke-width="30"/></svg>