<svg viewBox="0 0 500 500" xmlns="http://www.w3.org/2000/svg"><rect fill="#00c2ff" height="381.97" rx="42" transform="matrix(-1 0 0 -1 381.97 400.17)" width="381.97" y="9.1"/><rect fill="#006aac" height="381.97" rx="42" transform="matrix(-.98710835 .16005347 -.16005347 -.98710835 608.36 525.16)" width="381.97" x="92.04" y="96.1"/><rect fill="#006aac" height="53.9" rx="16" transform="matrix(.30087225 -.95366445 .95366445 .30087225 -399.15 379.11)" width="53.9" x="32.06" y="434.86"/><rect fill="#00c2ff" height="47.98" rx="16" transform="matrix(-.46159379 -.88709141 .88709141 -.46159379 667.87 458.94)" width="47.98" x="449.23" y="2.79"/><path d="m370.9 363.66a20 20 0 0 0 -23-16.51l-26.53 4.33c-.05-.74-.13-1.49-.25-2.26l-25.07-153.75a22.68 22.68 0 0 0 -9.89-15.61 25.35 25.35 0 0 0 -34.54 5.79l-37.5 52.85a17 17 0 0 0 -3.25 13.12 16.37 16.37 0 0 0 7.25 11.38 17.15 17.15 0 0 0 12.77 3 15.7 15.7 0 0 0 10.62-6.53l18.21-26 20 122.54q.19 1.14.48 2.22l-25 4.08a20 20 0 0 0 6.45 39.48l92.72-15.14a20 20 0 0 0 16.53-22.99z" fill="#fff"/></svg>