<svg enable-background="new 0 0 500 500" viewBox="0 0 500 500" xmlns="http://www.w3.org/2000/svg"><path d="m252.6 182.7c-16.6 0-30-13.4-30-30 0-12.7 8-24 20-28.3l217.4-77.2c15.7-5.1 32.7 3.4 37.8 19.2 5 15.2-2.9 31.7-17.8 37.4l-217.4 77.2c-3.2 1.1-6.6 1.7-10 1.7z" fill="#006aac"/><path d="m341.5 500h-194.2c-9.1 0-17-6.4-19-15.3l-46.5-211.5c-2.3-10.5 4.3-20.9 14.8-23.2 1.4-.3 2.8-.5 4.2-.5h287.1c10.8 0 19.5 8.7 19.5 19.5 0 1.4-.2 2.8-.5 4.2l-46.4 211.5c-2 8.9-9.9 15.3-19 15.3z" fill="#006aac"/><circle cx="291.5" cy="67.5" fill="#fdec00" r="46.6"/><g fill="#41bf2e"><circle cx="298.8" cy="423.2" r="46.6"/><circle cx="191.5" cy="423.2" r="46.6"/><circle cx="246.2" cy="335.1" r="46.6"/></g><path d="m134 72.6-107.5-12.8c-16.5-1.8-28.4-16.7-26.6-33.1 1.9-16.5 16.7-28.4 33.2-26.5.2 0 .3 0 .5.1l107.5 12.7c16.4 2.4 27.7 17.6 25.3 34-2.3 15.8-16.5 27-32.4 25.6z" fill="#006aac"/></svg>