<svg viewBox="0 0 500 500" xmlns="http://www.w3.org/2000/svg"><path d="m500 14.39v219.89a38.72 38.72 0 0 1 -38.72 38.72h-422.56a38.72 38.72 0 0 1 -38.72-38.72v-219.89a14.39 14.39 0 0 1 14.39-14.39h71.22a14.39 14.39 0 0 1 14.39 14.39v71.23a14.39 14.39 0 0 0 14.39 14.38h71.22a14.39 14.39 0 0 0 14.39-14.38v-71.23a14.39 14.39 0 0 1 14.39-14.39h71.22a14.39 14.39 0 0 1 14.39 14.39v71.23a14.39 14.39 0 0 0 14.39 14.38h71.22a14.39 14.39 0 0 0 14.39-14.38v-71.23a14.39 14.39 0 0 1 14.39-14.39h71.22a14.39 14.39 0 0 1 14.39 14.39z" fill="#41bf2e"/><path d="m38.5 273h418a0 0 0 0 1 0 0v191.58a35.42 35.42 0 0 1 -35.42 35.42h-347.17a35.42 35.42 0 0 1 -35.41-35.42v-191.58a0 0 0 0 1 0 0z" fill="#008d5a"/><path d="m247.5 323a75 75 0 0 1 75 75v102a0 0 0 0 1 0 0h-150a0 0 0 0 1 0 0v-102a75 75 0 0 1 75-75z" fill="#fdad00"/><g fill="#008d5a"><circle cx="247.78" cy="186.5" r="28.8"/><circle cx="418.04" cy="186.5" r="28.8"/><circle cx="69.96" cy="186.5" r="28.8"/></g></svg>