<?xml version="1.0" encoding="UTF-8"?><svg id="Rotation" xmlns="http://www.w3.org/2000/svg" width="500" height="500" viewBox="0 0 500 500"><defs><style>.cls-1{fill:#f70000;}.cls-2{fill:#fdad00;}.cls-3{fill:#fdec00;}</style></defs><g id="Rotation-2"><g><rect class="cls-1" x="177.47" y="177.46" width="250" height="395.06" rx="42" ry="42" transform="translate(677.46 72.52) rotate(90)"/><path class="cls-2" d="M368.18,458.74h15.14c3.53,0,6.39-2.86,6.39-6.39v-9.76c0-4.21,2.64-7.98,6.61-9.38,2.06-.73,4.07-1.56,6.03-2.5,3.81-1.82,8.35-1.03,11.33,1.95l6.9,6.9c2.49,2.49,6.54,2.49,9.03,0l10.7-10.7c2.49-2.49,2.49-6.54,0-9.03l-6.9-6.9c-2.98-2.98-3.77-7.52-1.95-11.33,.93-1.95,1.77-3.97,2.5-6.03,1.4-3.97,5.17-6.61,9.38-6.61h9.76c3.53,0,6.39-2.86,6.39-6.39v-15.14c0-3.53-2.86-6.39-6.39-6.39h-9.76c-4.21,0-7.98-2.64-9.38-6.61-.73-2.06-1.56-4.07-2.5-6.03-1.82-3.81-1.03-8.35,1.95-11.33l6.9-6.9c2.49-2.49,2.49-6.54,0-9.03l-10.7-10.7c-2.49-2.49-6.54-2.49-9.03,0l-6.9,6.9c-2.98,2.98-7.52,3.77-11.33,1.95-1.95-.93-3.97-1.77-6.03-2.5-3.97-1.4-6.61-5.17-6.61-9.38v-9.76c0-3.53-2.86-6.39-6.39-6.39h-15.14c-3.53,0-6.39,2.86-6.39,6.39v9.76c0,4.21-2.64,7.98-6.61,9.38-2.06,.73-4.07,1.56-6.03,2.5-3.81,1.82-8.35,1.03-11.33-1.95l-6.9-6.9c-2.49-2.49-6.54-2.49-9.03,0l-10.7,10.7c-2.49,2.49-2.49,6.54,0,9.03l6.9,6.9c2.98,2.98,3.77,7.52,1.95,11.33-.93,1.95-1.77,3.97-2.5,6.03-1.4,3.97-5.17,6.61-9.38,6.61h-9.76c-3.53,0-6.39,2.86-6.39,6.39v15.14c0,3.53,2.86,6.39,6.39,6.39h9.76c4.21,0,7.98,2.64,9.38,6.61,.73,2.06,1.56,4.07,2.5,6.03,1.82,3.81,1.03,8.35-1.95,11.33l-6.9,6.9c-2.49,2.49-2.49,6.54,0,9.03l10.7,10.7c2.49,2.49,6.54,2.49,9.03,0l6.9-6.9c2.98-2.98,7.52-3.77,11.33-1.95,1.95,.93,3.97,1.77,6.03,2.5,3.97,1.4,6.61,5.17,6.61,9.38v9.76c0,3.53,2.86,6.39,6.39,6.39Zm-23.24-81.74c-1.18-18.63,14.18-33.99,32.81-32.81,15.36,.97,27.83,13.44,28.8,28.8,1.18,18.63-14.18,33.99-32.81,32.81-15.36-.97-27.83-13.44-28.8-28.8Z"/></g><g><rect class="cls-2" y="0" width="250" height="395.06" rx="42" ry="42"/><path class="cls-3" d="M208.75,131.81v-15.14c0-3.53-2.86-6.39-6.39-6.39h-9.76c-4.21,0-7.98-2.64-9.38-6.61-.73-2.06-1.56-4.07-2.5-6.03-1.82-3.81-1.03-8.35,1.95-11.33l6.9-6.9c2.49-2.49,2.49-6.54,0-9.03l-10.7-10.7c-2.49-2.49-6.54-2.49-9.03,0l-6.9,6.9c-2.98,2.98-7.52,3.77-11.33,1.95-1.95-.93-3.97-1.77-6.03-2.5-3.97-1.4-6.61-5.17-6.61-9.38v-9.76c0-3.53-2.86-6.39-6.39-6.39h-15.14c-3.53,0-6.39,2.86-6.39,6.39v9.76c0,4.21-2.64,7.98-6.61,9.38-2.06,.73-4.07,1.56-6.03,2.5-3.81,1.82-8.35,1.03-11.33-1.95l-6.9-6.9c-2.49-2.49-6.54-2.49-9.03,0l-10.7,10.7c-2.49,2.49-2.49,6.54,0,9.03l6.9,6.9c2.98,2.98,3.77,7.52,1.95,11.33-.93,1.95-1.77,3.97-2.5,6.03-1.4,3.97-5.17,6.61-9.38,6.61h-9.76c-3.53,0-6.39,2.86-6.39,6.39v15.14c0,3.53,2.86,6.39,6.39,6.39h9.76c4.21,0,7.98,2.64,9.38,6.61,.73,2.06,1.56,4.07,2.5,6.03,1.82,3.81,1.03,8.35-1.95,11.33l-6.9,6.9c-2.49,2.49-2.49,6.54,0,9.03l10.7,10.7c2.49,2.49,6.54,2.49,9.03,0l6.9-6.9c2.98-2.98,7.52-3.77,11.33-1.95,1.95,.93,3.97,1.77,6.03,2.5,3.97,1.4,6.61,5.17,6.61,9.38v9.76c0,3.53,2.86,6.39,6.39,6.39h15.14c3.53,0,6.39-2.86,6.39-6.39v-9.76c0-4.21,2.64-7.98,6.61-9.38,2.06-.73,4.07-1.56,6.03-2.5,3.81-1.82,8.35-1.03,11.33,1.95l6.9,6.9c2.49,2.49,6.54,2.49,9.03,0l10.7-10.7c2.49-2.49,2.49-6.54,0-9.03l-6.9-6.9c-2.98-2.98-3.77-7.52-1.95-11.33,.93-1.95,1.77-3.97,2.5-6.03,1.4-3.97,5.17-6.61,9.38-6.61h9.76c3.53,0,6.39-2.86,6.39-6.39Zm-81.74,23.24c-18.63,1.18-33.99-14.18-32.81-32.81,.97-15.36,13.44-27.83,28.8-28.8,18.63-1.18,33.99,14.18,32.81,32.81-.97,15.36-13.44,27.83-28.8,28.8Z"/></g><path class="cls-3" d="M427.02,158.39h-22.08c.02-.28,.04-.56,.04-.84,0-51.94-42.25-94.19-94.19-94.19-8.28,0-15,6.72-15,15s6.72,15,15,15c35.39,0,64.19,28.79,64.19,64.19,0,.28,.03,.56,.04,.84h-19.84c-7.13,0-10.7,8.62-5.66,13.66l35.92,35.92c3.12,3.12,8.19,3.12,11.31,0l35.92-35.92c5.04-5.04,1.47-13.66-5.66-13.66Z"/></g></svg>