<?xml version="1.0" encoding="UTF-8"?><svg id="Trivia_-_Places" xmlns="http://www.w3.org/2000/svg" width="500" height="500" viewBox="0 0 500 500"><defs><style>.cls-1{fill:#fff;}.cls-2{fill:#984a00;}</style></defs><g id="places"><rect class="cls-2" y="-.74" width="500" height="500" rx="42" ry="42"/><path class="cls-1" d="M395.9,176.48h-50.25c-8.28,0-15,6.72-15,15s6.72,15,15,15h35.25v104.19l-255.16-34.63v-69.55h33.8c8.28,0,15-6.72,15-15s-6.72-15-15-15h-48.8c-8.28,0-15,6.72-15,15v195.15c0,8.28,6.72,15,15,15H395.9c8.28,0,15-6.72,15-15V191.48c0-8.28-6.72-15-15-15ZM125.74,296.21l76.85,10.43v64.98H125.74v-75.41Zm96.85,75.41v-62.27l158.32,21.49v40.78H222.59Zm29.77-289.21c-37.97,0-68.75,30.78-68.75,68.75,0,45.49,58.05,104.91,67.47,114.25,.72,.71,1.86,.72,2.59,.02,9.5-9.06,67.44-66.3,67.44-114.27,0-37.97-30.78-68.75-68.75-68.75Zm0,99c-15.95,0-28.88-12.93-28.88-28.88s12.93-28.88,28.88-28.88,28.88,12.93,28.88,28.88-12.93,28.88-28.88,28.88Z"/></g></svg>