<svg height="78" viewBox="0 0 78 78" width="78" xmlns="http://www.w3.org/2000/svg"><g fill="none" fill-rule="evenodd"><g transform="translate(7 5)"><g fill-rule="nonzero"><path d="m32 65.0562-.1052-.0559h.2104z" fill="#fce163"/><path d="m32 13.9341-19.4 10.1409v19.8506l19.4 10.1409 19.4-10.1409v-19.8506z" fill="#fce163"/><path d="m30.7 3.63501-26.48192 14.06849 7.10782 4.1037 19.3741-10.1274z" fill="#f33324"/><path d="m2.59998 48.1539v-28.3823l7.40002 4.2724v19.8375z" fill="#c0def0"/><path d="m4.15027 50.2611 26.54973 14.1045v-8.0448l-19.4425-10.1631z" fill="#c0def0"/><path d="m60.1238 50.1155-26.8238 14.2501v-8.0448l19.7186-10.3075z" fill="#f33324"/><g fill="#c0def0"><path d="m61.4 47.8501-7.4-4.2724v-19.2299l7.4-4.2724z"/><path d="m60.056 17.8491-26.756-14.21409v8.04479l19.6503 10.2718z"/></g></g><path d="m32 0 32 17v34l-32 17-32-17v-34zm-27.78191 17.7033 26.48191-14.06854v8.04484l-19.3741 10.1273zm-1.61809 2.068v28.3823l7.4-4.2724v-19.8375zm28.1 44.5939-26.5497-14.1045 7.1072-4.1033 19.4425 10.163zm1.1948.6348.1052.0559.1052-.0559zm1.4052-.6347 26.8238-14.2502-7.1052-4.1021-19.7186 10.3075zm20.7-20.7879 7.4 4.2723v-27.7746l-7.4 4.2724zm-20.7-39.94266 26.756 14.21416-7.1057 4.1024-19.6503-10.2718zm-20.7 20.43996 19.4-10.1409 19.4 10.1409v19.8506l-19.4 10.1409-19.4-10.1409z" fill="#000" stroke="#000" stroke-width=".2"/></g><path d="m0 0h78v78h-78z"/></g></svg>