<svg enable-background="new 0 0 500 500" viewBox="0 0 500 500" xmlns="http://www.w3.org/2000/svg"><path d="m250 32.7c127 0 230 103 230 230v109.6h-460v-109.6c0-127 103-230 230-230z" fill="#fdec00"/><path d="m20 406.4h460l-36.6 27.6c-56.9 43-124.5 66-193.8 66-70.7 0-139.6-24-197.2-68.6z" fill="#fdec00"/><g fill="#fdad00"><path d="m286.2 263.9h-72.4c-8.2 0-15.1-6.3-15.9-14.5l-22.3-231.8c-.9-8.8 5.5-16.6 14.3-17.5.5-.1 1.1-.1 1.6-.1h117c8.8 0 16 7.2 16 16 0 .5 0 1.1-.1 1.6l-22.3 231.8c-.8 8.2-7.7 14.5-15.9 14.5z"/><path d="m16 319.8h468c8.8 0 16 7.2 16 16v54.6c0 8.8-7.2 16-16 16h-468c-8.8 0-16-7.2-16-16v-54.6c0-8.9 7.2-16 16-16z"/><path d="m369.5 198c-.5 0-1.1 0-1.6-.1-5.5-.9-9.2-6-8.3-11.4l17.4-110.1c.9-5.5 6-9.2 11.4-8.3s9.2 6 8.3 11.4l-17.4 110.1c-.7 4.8-4.9 8.4-9.8 8.4z"/><path d="m130.5 198c-4.9 0-9.1-3.6-9.9-8.4l-17.4-110.1c-1-5.4 2.7-10.6 8.1-11.6s10.6 2.7 11.6 8.1c0 .1 0 .2.1.4l17.4 110.1c.9 5.5-2.9 10.6-8.3 11.4-.6.1-1.1.1-1.6.1z"/></g></svg>