<?xml version="1.0" encoding="UTF-8"?><svg id="Trivia" xmlns="http://www.w3.org/2000/svg" width="500" height="500" viewBox="0 0 500 500"><defs><style>.cls-1{fill:#f70000;}.cls-2{fill:#f470f0;}.cls-3{fill:#00c2ff;}.cls-4{fill:#006aac;}.cls-5{fill:#fdec00;}</style></defs><g id="Trivia-2"><g><path class="cls-1" d="M400.06,44h84c8.84,0,16,7.16,16,16v55.82c0,8.84-7.16,16-16,16h-84V44Z"/><path class="cls-3" d="M400.06,151.82h84c8.84,0,16,7.16,16,16v55.82c0,8.84-7.16,16-16,16h-84v-87.82Z"/><path class="cls-2" d="M400.06,259.63h84c8.84,0,16,7.16,16,16v55.82c0,8.84-7.16,16-16,16h-84v-87.82Z"/><path class="cls-5" d="M400.06,367.45h84c8.84,0,16,7.16,16,16v55.82c0,8.84-7.16,16-16,16h-84v-87.82Z"/></g><g><path class="cls-4" d="M315.06,0H44.16C19.81,0,.06,18.8,.06,42V458c0,23.2,19.74,42,44.1,42H375.96c24.36,0,44.1-18.8,44.1-42V42c0-23.2-19.74-42-44.1-42h-60.9Z"/><path id="question_mark" class="cls-5" d="M209.6,320.09c-12.26-.44-21.79-10.88-21.79-23.14v-21.98c0-12.44,10-22.74,22.44-22.72,35.34,.08,51.44-23.41,51.44-45.23,0-28.27-23-51.27-51.27-51.27s-51.27,23-51.27,51.27c0,12.62-10.34,22.83-23.01,22.61-12.64-.22-22.36-11.07-22.22-23.71,.62-55.25,47.9-99.5,104.2-95.1,50.51,3.94,89.57,47.03,88.78,97.69-.68,43.52-30.98,77.74-73.87,86.69v2.29c0,12.76-10.58,23.06-23.44,22.6Zm.83,16.6c-14.16,0-25.63,11.48-25.63,25.63s11.48,25.63,25.63,25.63,25.63-11.48,25.63-25.63-11.48-25.63-25.63-25.63Z"/></g></g></svg>