<?xml version="1.0" encoding="UTF-8"?><svg id="Trivia_-_Fun" xmlns="http://www.w3.org/2000/svg" width="500" height="500" viewBox="0 0 500 500"><defs><style>.cls-1{fill:#fff;}.cls-2{fill:#814fa5;}</style></defs><g id="fun"><rect class="cls-2" y="0" width="500" height="500" rx="42" ry="42"/><path class="cls-1" d="M354.86,121.17c7.58,11.77,20.66,19.07,34.71,19.27,7.11,.1,13.22,5.09,15.06,11.96l30.64,114.33c1.83,6.82-.96,14.14-7.03,17.74-10.62,6.3-17.86,16.99-19.94,28.97-1.06,6.11-5.72,10.98-11.72,12.58l-236.25,63.3c-5.99,1.61-12.46-.27-16.44-5.04-7.79-9.34-19.4-14.97-31.75-15.12-7.06-.08-13.13-5.04-14.96-11.85l-30.48-113.74c-1.83-6.85,1.24-13.95,7.31-17.6,12.22-7.35,19.9-20.51,20.31-34.74,.21-7.1,4.86-13.28,11.72-15.12l231.18-61.94c6.78-1.82,13.83,1.1,17.62,7Zm-120.95,97.96l-3.02,15.16c-.37,1.85-1.63,3.4-3.36,4.15l-14.2,6.11c-6.09,2.62-6.54,11.09-.75,14.33l13.48,7.56c1.65,.92,2.74,2.6,2.91,4.48l1.42,15.39c.61,6.6,8.52,9.64,13.39,5.14l11.35-10.49c1.39-1.28,3.32-1.8,5.16-1.38l15.08,3.41c6.47,1.46,11.8-5.13,9.03-11.15l-6.47-14.04c-.79-1.72-.69-3.71,.28-5.33l7.9-13.29c3.39-5.7-1.23-12.81-7.81-12.03l-15.35,1.81c-1.88,.22-3.74-.49-4.99-1.91l-10.19-11.62c-4.37-4.98-12.56-2.79-13.86,3.71Zm-69.41,134.4l210.57-56.42h0c13.85-3.71,22.1-18,18.38-31.84l-26.14-97.56c-1.8-6.71-6.1-12.32-12.11-15.79-6.01-3.47-13.02-4.4-19.73-2.6l-210.57,56.42c-13.85,3.71-22.1,18-18.38,31.84l26.14,97.56c1.8,6.71,6.1,12.32,12.11,15.79,4.01,2.31,8.45,3.5,12.96,3.5,2.26,0,4.53-.3,6.77-.9Zm180.7-184.29c1.39,.8,2.38,2.09,2.8,3.64l26.14,97.56c.42,1.55,.2,3.17-.6,4.55-.8,1.39-2.09,2.38-3.64,2.8l-210.57,56.42c-3.19,.86-6.49-1.05-7.35-4.24l-26.14-97.56c-.86-3.2,1.05-6.49,4.24-7.35l210.57-56.42c.52-.14,1.04-.21,1.56-.21,1.04,0,2.07,.27,2.99,.81Zm27.28,118.21h0Z"/></g></svg>