<svg width="16" height="16" viewBox="0 0 16 16" fill="none" xmlns="http://www.w3.org/2000/svg">
<g id="Close 1" clip-path="url(#clip0_832_83611)">
<g id="Fullscreen">
<path id="Vector" d="M1.00013 15.9833C0.733464 15.9833 0.466797 15.9167 0.266797 15.7167C-0.133203 15.3167 -0.133203 14.7167 0.266797 14.3167L14.2668 0.316663C14.6668 -0.0833374 15.2668 -0.0833374 15.6668 0.316663C16.0668 0.716663 16.0668 1.31666 15.6668 1.71666L1.6668 15.7167C1.53346 15.85 1.2668 15.9833 1.00013 15.9833Z" fill="white"/>
<path id="Vector_2" d="M15.0002 15.9833C14.7335 15.9833 14.4668 15.9167 14.2668 15.7167L0.266846 1.71667C-0.0664876 1.31667 -0.0664876 0.65 0.266846 0.25C0.666846 -0.0833333 1.33351 -0.0833333 1.73351 0.25L15.7335 14.25C16.1335 14.65 16.1335 15.25 15.7335 15.65C15.5335 15.85 15.2668 15.9833 15.0002 15.9833Z" fill="white"/>
</g>
</g>
<defs>
<clipPath id="clip0_832_83611">
<rect width="16" height="16" fill="white"/>
</clipPath>
</defs>
</svg>
