<svg width="17" height="18" viewBox="0 0 17 18" fill="none" xmlns="http://www.w3.org/2000/svg">
<g id="Search">
<path id="Vector" d="M6.79 1.75C9.85 1.75 12.33 4.24 12.33 7.29C12.33 10.34 9.84 12.83 6.79 12.83C3.74 12.83 1.25 10.35 1.25 7.29C1.25 4.23 3.74 1.75 6.79 1.75ZM6.79 0.5C3.04 0.5 0 3.54 0 7.29C0 11.04 3.04 14.08 6.79 14.08C10.54 14.08 13.58 11.04 13.58 7.29C13.58 3.54 10.54 0.5 6.79 0.5Z" fill="#8FCBED"/>
<path id="Vector_2" d="M16.3801 17.5C16.2201 17.5 16.0601 17.44 15.9401 17.32L11.0401 12.42C10.8001 12.18 10.8001 11.78 11.0401 11.54C11.2801 11.3 11.6801 11.3 11.9201 11.54L16.8201 16.44C17.0601 16.68 17.0601 17.08 16.8201 17.32C16.7001 17.44 16.5401 17.5 16.3801 17.5Z" fill="#8FCBED"/>
</g>
</svg>
