<svg enable-background="new 0 0 500 500" viewBox="0 0 500 500" xmlns="http://www.w3.org/2000/svg"><g fill="#fdec00"><path d="m53.2 15 9.8 19.8c.9 1.9 2.7 3.2 4.8 3.5l21.9 3.2c3.5.5 5.8 3.7 5.3 7.2-.2 1.4-.8 2.6-1.8 3.6l-15.9 15.4c-1.5 1.5-2.2 3.5-1.8 5.6l3.7 21.7c.6 3.4-1.7 6.7-5.1 7.3-1.4.2-2.8 0-4-.6l-19.6-10.3c-1.8-1-4-1-5.9 0l-19.6 10.3c-3.1 1.6-6.9.4-8.5-2.7-.6-1.2-.9-2.6-.6-4l3.7-21.8c.3-2-.3-4.1-1.8-5.6l-15.8-15.4c-2.5-2.4-2.6-6.4-.1-8.9 1-1 2.2-1.6 3.6-1.8l21.9-3.2c2.1-.3 3.8-1.6 4.8-3.5l9.6-19.8c1.5-3.1 5.3-4.4 8.5-2.9 1.3.6 2.3 1.6 2.9 2.9z"/><path d="m95.2 255.6v-8.6c0-2-1.6-3.6-3.6-3.6h-5.6c-2.4 0-4.5-1.5-5.3-3.8-.4-1.2-.9-2.3-1.4-3.4-1-2.2-.6-4.7 1.1-6.4l3.9-3.9c1.4-1.4 1.4-3.7 0-5.1l-6.1-6.1c-1.4-1.4-3.7-1.4-5.1 0l-3.9 3.9c-1.7 1.7-4.3 2.1-6.4 1.1-1.1-.5-2.3-1-3.4-1.4-2.2-.8-3.7-3-3.7-5.4v-5.5c0-2-1.6-3.6-3.6-3.6h-8.6c-2 0-3.6 1.6-3.6 3.6v5.5c0 2.4-1.5 4.5-3.8 5.3-1.2.4-2.3.9-3.4 1.4-2.2 1-4.7.6-6.4-1.1l-3.9-3.9c-1.4-1.4-3.7-1.4-5.1 0l-6.1 6.1c-1.4 1.4-1.4 3.7 0 5.1l3.9 3.9c1.7 1.7 2.1 4.3 1.1 6.4-.5 1.1-1 2.2-1.4 3.4-.8 2.3-2.9 3.8-5.3 3.8h-5.6c-2 0-3.6 1.6-3.6 3.6v8.6c0 2 1.6 3.6 3.6 3.6h5.5c2.4 0 4.5 1.5 5.3 3.7.4 1.2.9 2.3 1.4 3.4 1 2.2.6 4.7-1.1 6.4l-3.9 3.9c-1.4 1.4-1.4 3.7 0 5.1l6.1 6.1c1.4 1.4 3.7 1.4 5.1 0l3.9-3.9c1.7-1.7 4.3-2.1 6.4-1.1 1.1.5 2.3 1 3.4 1.4 2.3.8 3.8 2.9 3.8 5.3v5.5c0 2 1.6 3.6 3.6 3.6h8.6c2 0 3.6-1.6 3.6-3.6v-5.5c0-2.4 1.5-4.5 3.8-5.3 1.2-.4 2.3-.9 3.4-1.4 2.2-1 4.7-.6 6.4 1.1l3.9 3.9c1.4 1.4 3.7 1.4 5.1 0l6.1-6.1c1.4-1.4 1.4-3.7 0-5.1l-3.9-3.9c-1.7-1.7-2.1-4.3-1.1-6.4.5-1.1 1-2.3 1.4-3.5.8-2.2 2.9-3.7 5.3-3.7h5.5c2 .3 3.7-1.3 3.7-3.4 0 .1 0 .1 0 0zm-46.3 13.2c-9.6.6-18-6.7-18.6-16.3s6.7-18 16.3-18.6 18 6.7 18.6 16.3v2.3c-.6 8.8-7.6 15.8-16.3 16.3z"/><circle cx="47.2" cy="434.8" r="45.8"/></g><path d="m309.4 182.7v135h-117.3c-23.2 0-42-18.8-42-42v-51c0-23.2 18.8-42 42-42z" fill="#00c2ff"/><path d="m500 224.7v51c0 23.2-18.8 42-42 42h-148.6v-135h148.6c23.2 0 42 18.8 42 42z" fill="#006aac"/><path d="m192.1 365.2h266c23.2 0 42 18.8 42 42v51c0 23.2-18.8 42-42 42h-266c-23.2 0-42-18.8-42-42v-51c0-23.2 18.8-42 42-42z" fill="#00c2ff"/><path d="m500 42.2v51c0 23.2-18.8 42-42 42h-47.7v-135h47.7c23.2 0 42 18.8 42 42z" fill="#006aac"/><path d="m410.4.2v135h-218.3c-23.2 0-42-18.8-42-42v-51c0-23.2 18.8-42 42-42h218.3z" fill="#00c2ff"/></svg>