<?xml version="1.0" encoding="utf-8"?>
<!-- Generator: Adobe Illustrator 26.5.0, SVG Export Plug-In . SVG Version: 6.00 Build 0)  -->
<svg version="1.1" id="Desktop" xmlns="http://www.w3.org/2000/svg" xmlns:xlink="http://www.w3.org/1999/xlink" x="0px" y="0px"
	 viewBox="0 0 65 40" style="enable-background:new 0 0 65 40;" xml:space="preserve">
<style type="text/css">
	.st0{fill:#FFFFFF;}
</style>
<path class="st0" d="M41.9,0H3.5C1.6,0,0,1.6,0,3.5v25C0,30.5,1.6,32,3.5,32h14.4c0,0.3,0,0.5,0,0.8c0,2-0.7,3.9-1.8,5.4h-3.8
	c-0.5,0-0.9,0.4-0.9,0.9s0.4,0.9,0.9,0.9h20.8c0.5,0,0.9-0.4,0.9-0.9s-0.4-0.9-0.9-0.9h-3.8c-1.1-1.5-1.8-3.4-1.8-5.4
	c0-0.3,0-0.5,0.1-0.8h14.3c1.9,0,3.5-1.6,3.5-3.5v-25C45.5,1.6,43.9,0,41.9,0z M43.6,25.3H1.8V3.5c0-0.9,0.8-1.7,1.7-1.7h38.4
	c0.9,0,1.7,0.8,1.7,1.7V25.3z"/>
<g>
	<path class="st0" d="M61.2,1.9c0.9,0,1.6,0.7,1.6,1.6v33c0,0.9-0.7,1.6-1.6,1.6h-9.3c-0.9,0-1.6-0.7-1.6-1.6v-33
		c0-0.9,0.7-1.6,1.6-1.6H61.2z M61.2,0h-9.3c-1.9,0-3.5,1.6-3.5,3.5v33c0,1.9,1.6,3.5,3.5,3.5h9.3c1.9,0,3.5-1.6,3.5-3.5v-33
		C64.7,1.6,63.2,0,61.2,0z"/>
	<path class="st0" d="M60.2,7.8h-7.3c-0.5,0-0.9-0.4-0.9-0.9S52.4,6,52.9,6h7.3c0.5,0,0.9,0.4,0.9,0.9S60.7,7.8,60.2,7.8z"/>
	<path class="st0" d="M60.2,13.8h-7.3c-0.5,0-0.9-0.4-0.9-0.9s0.4-0.9,0.9-0.9h7.3c0.5,0,0.9,0.4,0.9,0.9S60.7,13.8,60.2,13.8z"/>
	<path class="st0" d="M56.5,30.9c0.5,0,0.9-0.4,0.9-0.9c0-0.5-0.4-0.9-0.9-0.9c-0.5,0-0.9,0.4-0.9,0.9C55.6,30.5,56,30.9,56.5,30.9z
		"/>
</g>
</svg>
