<svg enable-background="new 0 0 500 500" viewBox="0 0 500 500" xmlns="http://www.w3.org/2000/svg"><path d="m16 0h81c8.8 0 16 7.2 16 16v81c0 8.8-7.2 16-16 16h-81c-8.8 0-16-7.2-16-16v-81c0-8.8 7.2-16 16-16z" fill="#814fa5"/><path d="m145 0h81c8.8 0 16 7.2 16 16v81c0 8.8-7.2 16-16 16h-81c-8.8 0-16-7.2-16-16v-81c0-8.8 7.2-16 16-16z" fill="#fdec00"/><path d="m274 0h81c8.8 0 16 7.2 16 16v81c0 8.8-7.2 16-16 16h-81c-8.8 0-16-7.2-16-16v-81c0-8.8 7.2-16 16-16z" fill="#006aac"/><path d="m403 0h81c8.8 0 16 7.2 16 16v81c0 8.8-7.2 16-16 16h-81c-8.8 0-16-7.2-16-16v-81c0-8.8 7.2-16 16-16z" fill="#41bf2e"/><path d="m16 129h81c8.8 0 16 7.2 16 16v81c0 8.8-7.2 16-16 16h-81c-8.8 0-16-7.2-16-16v-81c0-8.8 7.2-16 16-16z" fill="#006aac"/><path d="m145 129h81c8.8 0 16 7.2 16 16v81c0 8.8-7.2 16-16 16h-81c-8.8 0-16-7.2-16-16v-81c0-8.8 7.2-16 16-16z" fill="#fdec00"/><path d="m403 129h81c8.8 0 16 7.2 16 16v81c0 8.8-7.2 16-16 16h-81c-8.8 0-16-7.2-16-16v-81c0-8.8 7.2-16 16-16z" fill="#006aac"/><path d="m16 258h81c8.8 0 16 7.2 16 16v81c0 8.8-7.2 16-16 16h-81c-8.8 0-16-7.2-16-16v-81c0-8.8 7.2-16 16-16z" fill="#006aac"/><path d="m403 258h81c8.8 0 16 7.2 16 16v81c0 8.8-7.2 16-16 16h-81c-8.8 0-16-7.2-16-16v-81c0-8.8 7.2-16 16-16z" fill="#814fa5"/><path d="m16 387h81c8.8 0 16 7.2 16 16v81c0 8.8-7.2 16-16 16h-81c-8.8 0-16-7.2-16-16v-81c0-8.8 7.2-16 16-16z" fill="#41bf2e"/><path d="m145 387h81c8.8 0 16 7.2 16 16v81c0 8.8-7.2 16-16 16h-81c-8.8 0-16-7.2-16-16v-81c0-8.8 7.2-16 16-16z" fill="#41bf2e"/><path d="m274 387h81c8.8 0 16 7.2 16 16v81c0 8.8-7.2 16-16 16h-81c-8.8 0-16-7.2-16-16v-81c0-8.8 7.2-16 16-16z" fill="#fdec00"/><path d="m403 387h81c8.8 0 16 7.2 16 16v81c0 8.8-7.2 16-16 16h-81c-8.8 0-16-7.2-16-16v-81c0-8.8 7.2-16 16-16z" fill="#814fa5"/></svg>