<svg viewBox="0 0 500 500" xmlns="http://www.w3.org/2000/svg"><path d="m255.5 51.17 49.07-47.7a12.54 12.54 0 0 1 20.8 5.53l18.63 65.89a8.35 8.35 0 0 0 10.08 5.82l66.35-16.78a12.53 12.53 0 0 1 15.22 15.22l-16.77 66.35a8.36 8.36 0 0 0 5.83 10.09l65.84 18.64a12.53 12.53 0 0 1 5.58 20.77l-47.71 49.07a8.36 8.36 0 0 0 0 11.65l47.71 49.06a12.54 12.54 0 0 1 -5.58 20.8l-65.84 18.64a8.35 8.35 0 0 0 -5.83 10.09l16.78 66.34a12.53 12.53 0 0 1 -15.22 15.22l-66.35-16.78a8.35 8.35 0 0 0 -10.09 5.85l-18.64 65.85a12.54 12.54 0 0 1 -20.8 5.57l-49.06-47.71a8.35 8.35 0 0 0 -11.64 0l-49.07 47.71a12.54 12.54 0 0 1 -20.8-5.57l-18.64-65.85a8.35 8.35 0 0 0 -10.08-5.83l-66.35 16.78a12.53 12.53 0 0 1 -15.22-15.22l16.78-66.34a8.36 8.36 0 0 0 -5.83-10.09l-65.84-18.64a12.54 12.54 0 0 1 -5.58-20.8l47.71-49.06a8.36 8.36 0 0 0 0-11.65l-47.71-49.09a12.53 12.53 0 0 1 5.58-20.79l65.84-18.64a8.37 8.37 0 0 0 5.83-10.09l-16.78-66.33a12.53 12.53 0 0 1 15.22-15.22l66.35 16.78a8.35 8.35 0 0 0 10.08-5.82l18.65-65.89a12.54 12.54 0 0 1 20.8-5.57l49.07 47.7a8.35 8.35 0 0 0 11.63.04z" fill="#f70000"/><path d="m316.8 217h-34.24v-34.21a32.88 32.88 0 0 0 -32.88-32.88 32.88 32.88 0 0 0 -32.88 32.88v34.21h-34.24a32.88 32.88 0 0 0 -32.88 32.88 32.88 32.88 0 0 0 32.88 32.88h34.24v34.24a32.88 32.88 0 0 0 32.88 32.88 32.88 32.88 0 0 0 32.88-32.88v-34.21h34.24a32.88 32.88 0 0 0 32.88-32.88 32.88 32.88 0 0 0 -32.88-32.91z" fill="#fdec00"/></svg>