<svg xmlns="http://www.w3.org/2000/svg" width="500" height="500" viewBox="0 0 500 500"><defs><style>.cls-1{fill:#006aac;}.cls-2{fill:#fdec00;}.cls-3{fill:#fdad00;}.cls-4{fill:#21465f;}</style></defs><g id="Critical_thinking" data-name="Critical thinking"><path class="cls-1" d="M429.76,147.66a91.6,91.6,0,0,0,9.78-42.18c-.45-49.61-40.81-90.29-90.42-91.11a91.62,91.62,0,0,0-57.37,18.86,3.08,3.08,0,0,1-4.17-.4A97.73,97.73,0,0,0,215.37,0c-52.72-.5-96.85,41.47-98.85,94.15a98,98,0,0,0,5,35.13,3.1,3.1,0,0,1-3.81,4,92.2,92.2,0,0,0-24.29-3.65C42.82,128.81.68,169.69,0,220.33a92,92,0,0,0,142.76,77.94,3.11,3.11,0,0,1,4.81,2.37,96.29,96.29,0,0,0,191.16,8.07A3.11,3.11,0,0,1,344,307a91.68,91.68,0,0,0,68.62,25.84c47.51-2.31,85.73-41.14,87.34-88.67a92,92,0,0,0-68.21-92.08A3.11,3.11,0,0,1,429.76,147.66Z"/><circle class="cls-1" cx="404" cy="409.79" r="30"/><circle class="cls-1" cx="480" cy="480" r="20"/><path class="cls-2" d="M324.13,169.48a74.46,74.46,0,1,0-109,66H215v24.7H284.4v-24.7h-.17A74.42,74.42,0,0,0,324.13,169.48Z"/><path class="cls-3" d="M271.35,198.76a7.5,7.5,0,0,0-10.61,0L249,210.46l-11.69-11.7a7.5,7.5,0,0,0-10.61,10.61l14.8,14.8v28.89a7.5,7.5,0,0,0,15,0V224.17l14.81-14.8A7.5,7.5,0,0,0,271.35,198.76Z"/><path class="cls-4" d="M283.9,253.23H214.18a7.5,7.5,0,0,0,0,15h1.69A34.74,34.74,0,0,0,249.68,295h0a34.73,34.73,0,0,0,33.8-26.79h.42a7.5,7.5,0,0,0,0-15Z"/></g></svg>