<?xml version="1.0" encoding="UTF-8"?><svg id="Trivia_-_Style" xmlns="http://www.w3.org/2000/svg" width="500" height="500" viewBox="0 0 500 500"><defs><style>.cls-1{fill:#fff;}.cls-2{fill:#e51278;}</style></defs><g id="style"><rect class="cls-2" x="0" y="0" width="500" height="500" rx="42" ry="42"/><path class="cls-1" d="M406.29,245.29c9.71,0,17.18-8.57,15.85-18.19l-9.37-67.87h0c-3.15-27.41-26.35-48.11-53.95-48.11h-29.17c-3.64,0-6.78,2.46-7.73,5.97-8.61,31.65-37.53,54.92-71.91,54.92s-63.3-23.27-71.91-54.92c-.96-3.51-4.1-5.97-7.74-5.97h-28.67c-27.43,.03-50.62,20.28-54.35,47.46-.04,.26-.07,.53-.11,.8l-9.35,67.72c-1.33,9.62,6.14,18.19,15.85,18.19h45.94c1.17,0,2.09,1,1.99,2.17l-10.37,124.09c-.78,9.33,6.58,17.33,15.94,17.33h205.56c9.36,0,16.72-8,15.94-17.33,0,0-9.55-126.26-8.38-126.26h45.94Z"/></g></svg>