<?xml version="1.0" encoding="UTF-8"?><svg id="Trivia_-_History" xmlns="http://www.w3.org/2000/svg" width="500" height="500" viewBox="0 0 500 500"><defs><style>.cls-1{fill:#fff;}.cls-2{fill:#d34600;}</style></defs><g id="history"><rect class="cls-2" y="0" width="500" height="500" rx="42" ry="42"/><path class="cls-1" d="M260.15,103.47l137.68,92.44c13.12,8.81,6.89,29.28-8.92,29.28H113.55c-15.8,0-22.04-20.47-8.92-29.28L242.31,103.47c5.39-3.62,12.44-3.62,17.84,0Zm120.33,256.72h-4.02v-112.28c0-2.08-1.68-3.76-3.76-3.76h-28.26c-2.08,0-3.76,1.68-3.76,3.76v112.28h-35.78v-112.28c0-2.08-1.68-3.76-3.76-3.76h-28.26c-2.08,0-3.76,1.68-3.76,3.76v112.28h-35.78v-112.28c0-2.08-1.68-3.76-3.76-3.76h-28.26c-2.08,0-3.76,1.68-3.76,3.76v112.28h-35.78v-112.28c0-2.08-1.68-3.76-3.76-3.76h-28.26c-2.08,0-3.76,1.68-3.76,3.76v112.28h-6.36c-13.71,0-24.82,11.11-24.82,24.82,0,4.15,3.37,7.52,7.52,7.52H397.77c4.15,0,7.52-3.37,7.52-7.52,0-13.71-11.11-24.82-24.82-24.82Z"/></g></svg>