<?xml version="1.0" encoding="UTF-8"?><svg id="Trivia_-_Health" xmlns="http://www.w3.org/2000/svg" width="500" height="500" viewBox="0 0 500 500"><defs><style>.cls-1{fill:#0081ad;}.cls-2{fill:#fff;}</style></defs><g id="health"><rect class="cls-1" y=".25" width="500" height="500" rx="42" ry="42"/><path class="cls-2" d="M252,147.7C149.75,45.44,19.87,175.32,122.12,277.58l118.57,118.57c6.25,6.25,16.38,6.25,22.63,0l118.57-118.57c95.16-95.16-34.72-225.04-129.88-129.88Zm100.47,83.18h-17.75v17.75c0,8.28-6.72,15-15,15s-15-6.72-15-15v-17.75h-17.75c-8.28,0-15-6.72-15-15s6.72-15,15-15h17.75v-17.75c0-8.28,6.72-15,15-15s15,6.72,15,15v17.75h17.75c8.28,0,15,6.72,15,15s-6.72,15-15,15Z"/></g></svg>