<?xml version="1.0" encoding="utf-8"?>
<!-- Generator: Adobe Illustrator 26.5.0, SVG Export Plug-In . SVG Version: 6.00 Build 0)  -->
<svg version="1.1" id="One_button" xmlns="http://www.w3.org/2000/svg" xmlns:xlink="http://www.w3.org/1999/xlink" x="0px" y="0px"
	 viewBox="0 0 500 500" style="enable-background:new 0 0 500 500;" xml:space="preserve">
<style type="text/css">
	.st0{fill:#814FA5;}
	.st1{fill:#F470F0;}
	.st2{fill:#FDEC00;}
</style>
<g id="One_button-2">
	<path class="st0" d="M42,0h416c23.2,0,42,18.8,42,42v416c0,23.2-18.8,42-42,42H42c-23.2,0-42-18.8-42-42V42C0,18.8,18.8,0,42,0z"/>
	<path class="st1" d="M42,0h416c23.2,0,42,17.6,42,39.3v341.4c0,21.7-18.8,39.3-42,39.3H42c-23.2,0-42-17.6-42-39.3V39.3
		C0,17.6,18.8,0,42,0z"/>
	<path class="st2" d="M390.1,200.9L260.2,71c-5.6-5.6-14.8-5.6-20.4,0L109.9,200.9c-9.1,9.1-2.7,24.6,10.2,24.6h79.3
		c4,0,7.2,3.2,7.2,7.2V299c0,23.8,18.8,43.6,42.6,44c24.3,0.4,44.1-19.1,44.1-43.3v-66.9c0-4,3.2-7.2,7.2-7.2h79.3
		C392.7,225.5,399.2,210,390.1,200.9L390.1,200.9z"/>
</g>
</svg>
