<svg version="1.1" xmlns="http://www.w3.org/2000/svg" xmlns:xlink="http://www.w3.org/1999/xlink" width="392.26628" height="96.98569" viewBox="0,0,392.26628,96.98569"><g transform="translate(-43.86686,-131.50716)"><g data-paper-data="{&quot;isPaintingLayer&quot;:true}" fill-rule="nonzero" stroke="none" stroke-miterlimit="10" stroke-dasharray="" stroke-dashoffset="0" style="mix-blend-mode: normal"><path d="M92.35971,131.50716h295.28058c26.86503,0 48.49285,21.62781 48.49285,48.49284c0,26.86505 -21.62782,48.49285 -48.49285,48.49285h-295.28058c-26.86504,0 -48.49285,-21.6278 -48.49285,-48.49285c0,-26.86503 21.62781,-48.49284 48.49285,-48.49284z" fill-opacity="0.2008" fill="#000000" stroke-width="0.365" stroke-linecap="round" stroke-linejoin="round"/><path d="M92.85558,168.22474c0,-0.69668 0.01244,-1.20676 0.03733,-1.53022c0.04977,-0.34834 0.19906,-0.74646 0.44786,-1.19432c0.423,-0.79621 1.57998,-1.19432 3.47099,-1.19432c2.09006,0 3.32172,0.5474 3.69494,1.64219c0.1493,0.49763 0.22394,1.26898 0.22394,2.314v24.78217c0,0.72156 -0.02488,1.24408 -0.07464,1.56754c-0.02488,0.32346 -0.16173,0.70912 -0.41056,1.15699c-0.423,0.79621 -1.57998,1.19432 -3.47099,1.19432c-2.09006,0 -3.30926,-0.55984 -3.65761,-1.67951c-0.17416,-0.47275 -0.26126,-1.23164 -0.26126,-2.27667zM117.37124,173.48721c2.96092,0 5.42422,1.13212 7.38986,3.39635c1.99054,2.26424 2.9858,5.03855 2.9858,8.32293v7.83774c0,0.6718 -0.02488,1.18188 -0.07464,1.53022c-0.04977,0.34834 -0.17416,0.73402 -0.37322,1.15699c-0.423,0.79621 -1.57998,1.19432 -3.47099,1.19432c-2.11494,0 -3.33415,-0.5474 -3.65761,-1.64219c-0.17416,-0.52252 -0.26126,-1.28142 -0.26126,-2.27667v-7.83774c0,-1.21921 -0.34834,-2.16471 -1.04502,-2.83652c-0.69668,-0.69668 -1.64219,-1.04502 -2.83652,-1.04502c-1.16944,0 -2.11494,0.36079 -2.83652,1.08236c-0.72156,0.69668 -1.08236,1.62975 -1.08236,2.7992v7.87506c0,0.6718 -0.02488,1.18188 -0.07464,1.53022c-0.04977,0.34834 -0.1866,0.73402 -0.41056,1.15699c-0.3981,0.79621 -1.54267,1.19432 -3.43368,1.19432c-1.891,0 -3.03556,-0.3981 -3.43368,-1.19432c-0.22394,-0.44786 -0.36079,-0.84598 -0.41056,-1.19432c-0.02488,-0.34834 -0.03733,-0.85842 -0.03733,-1.53022v-15.78744c0,-0.64692 0.01244,-1.14455 0.03733,-1.4929c0.04977,-0.34834 0.19906,-0.72156 0.44786,-1.11968c0.423,-0.74646 1.56754,-1.11968 3.43368,-1.11968c1.81637,0 2.92359,0.3359 3.32172,1.00771c0.29858,0.52252 0.44786,1.13212 0.44786,1.82881c0.1244,-0.19906 0.3981,-0.48519 0.82109,-0.85842c0.423,-0.3981 0.82109,-0.72156 1.19432,-0.97038c1.02015,-0.6718 2.13984,-1.00771 3.35902,-1.00771zM153.63849,174.00972c1.54267,0.92062 2.314,1.90344 2.314,2.94848c0,0.59716 -0.29858,1.41826 -0.89575,2.4633l-9.21867,15.78744c-0.29858,0.52252 -0.78378,0.98282 -1.45558,1.38094c-0.64692,0.3981 -1.29385,0.59716 -1.94078,0.59716c-0.62205,0 -1.23164,-0.1493 -1.82881,-0.44786c-0.57229,-0.32346 -0.97038,-0.64692 -1.19432,-0.97038l-0.41056,-0.48519l-9.256,-15.86207c-0.59716,-0.99526 -0.89575,-1.80392 -0.89575,-2.42596c0,-1.06992 0.77133,-2.06518 2.314,-2.9858c1.11968,-0.64692 2.00298,-0.97038 2.6499,-0.97038c0.6718,0 1.19432,0.19906 1.56754,0.59716c0.37322,0.3981 0.7589,0.99526 1.15699,1.79148l5.85964,11.2341l5.82232,-11.2341c0.32346,-0.5474 0.57229,-0.94551 0.74646,-1.19432c0.17416,-0.27369 0.43543,-0.53496 0.78378,-0.78378c0.34834,-0.24882 0.82109,-0.37322 1.41826,-0.37322c0.59716,0 1.41826,0.31102 2.4633,0.93306zM172.29721,175.98782c0.17416,-1.66707 1.34361,-2.5006 3.50832,-2.5006c1.16944,0 2.02786,0.08709 2.57526,0.26126c0.57229,0.17416 0.97038,0.48519 1.19432,0.93306c0.22394,0.44786 0.36079,0.84598 0.41056,1.19432c0.04977,0.32346 0.07464,0.83352 0.07464,1.53022v15.60083c0,0.6718 -0.02488,1.18188 -0.07464,1.53022c-0.04977,0.34834 -0.17416,0.74646 -0.37322,1.19432c-0.423,0.77133 -1.44314,1.15699 -3.06045,1.15699c-1.61732,0 -2.69967,-0.19906 -3.24705,-0.59716c-0.5474,-0.423 -0.87086,-1.02015 -0.97038,-1.79148c-1.0948,1.59244 -2.92359,2.38863 -5.48642,2.38863c-2.56282,0 -4.95146,-1.16944 -7.16593,-3.50832c-2.18959,-2.36376 -3.28438,-5.10076 -3.28438,-8.21095c0,-3.11022 1.10724,-5.82232 3.32172,-8.13631c2.21447,-2.33888 4.64043,-3.50832 7.27789,-3.50832c1.02015,0 1.94078,0.1866 2.76186,0.55984c0.82109,0.34834 1.39338,0.68425 1.71684,1.00771c0.34834,0.29858 0.62205,0.59716 0.82109,0.89575zM164.19822,185.24382c0,0.97038 0.38566,1.85368 1.15699,2.6499c0.77133,0.79621 1.7044,1.19432 2.7992,1.19432c1.0948,0 2.00298,-0.3981 2.72455,-1.19432c0.74646,-0.82109 1.11968,-1.7044 1.11968,-2.6499c0,-0.97038 -0.34834,-1.86613 -1.04502,-2.68723c-0.69668,-0.84598 -1.64219,-1.26898 -2.83652,-1.26898c-1.16944,0 -2.11494,0.423 -2.83652,1.26898c-0.72156,0.82109 -1.08236,1.71684 -1.08236,2.68723zM183.62926,166.3586c0,-0.69668 0.01244,-1.20676 0.03733,-1.53022c0.04977,-0.34834 0.1866,-0.74646 0.41056,-1.19432c0.3981,-0.79621 1.5551,-1.19432 3.47099,-1.19432c1.81637,0 2.94848,0.3981 3.39635,1.19432c0.22394,0.44786 0.36079,0.84598 0.41056,1.19432c0.04977,0.34834 0.07464,0.87086 0.07464,1.56754v20.63937c0,1.06992 0.08709,1.74172 0.26126,2.01541c0.17416,0.27369 0.55984,0.41056 1.15699,0.41056c0.62205,0 1.03258,0.02488 1.23164,0.07464c0.22394,0.04977 0.48519,0.17416 0.78378,0.37322c0.59716,0.3981 0.89575,1.45558 0.89575,3.17242c0,1.86613 -0.29858,3.01069 -0.89575,3.43368c-0.77133,0.5474 -2.61258,0.63448 -5.52374,0.26126c-2.2891,-0.29858 -3.78201,-1.05748 -4.4787,-2.27667c-0.82109,-1.44314 -1.23164,-3.75713 -1.23164,-6.94199zM198.20139,177.40609c0,-0.69668 0.01244,-1.20676 0.03733,-1.53022c0.04977,-0.34834 0.1866,-0.74646 0.41056,-1.19432c0.3981,-0.77133 1.5551,-1.15699 3.47099,-1.15699c1.41826,0 2.42596,0.24882 3.02312,0.74646c0.49763,0.423 0.77133,1.06992 0.82109,1.94078c0.02488,0.29858 0.03733,0.72156 0.03733,1.26898v15.60083c0,0.69668 -0.02488,1.21921 -0.07464,1.56754c-0.04977,0.32346 -0.1866,0.70912 -0.41056,1.15699c-0.3981,0.77133 -1.54267,1.15699 -3.43368,1.15699c-1.891,0 -3.03556,-0.3981 -3.43368,-1.19432c-0.22394,-0.44786 -0.36079,-0.83352 -0.41056,-1.15699c-0.02488,-0.32346 -0.03733,-0.84598 -0.03733,-1.56754zM205.51662,169.15779c-0.22394,0.423 -0.62205,0.72156 -1.19432,0.89575c-0.5474,0.17416 -1.29385,0.26126 -2.23936,0.26126c-0.92062,0 -1.66707,-0.08709 -2.23936,-0.26126c-0.57229,-0.17416 -0.97038,-0.48519 -1.19432,-0.93306c-0.22394,-0.44786 -0.36079,-0.84598 -0.41056,-1.19432c-0.02488,-0.34834 -0.03733,-0.85842 -0.03733,-1.53022c0,-0.69668 0.01244,-1.20676 0.03733,-1.53022c0.04977,-0.34834 0.1866,-0.73402 0.41056,-1.15699c0.3981,-0.79621 1.5551,-1.19432 3.47099,-1.19432c1.86613,0 2.99826,0.3981 3.39635,1.19432c0.22394,0.44786 0.36079,0.84598 0.41056,1.19432c0.04977,0.34834 0.07464,0.87086 0.07464,1.56754c0,0.6718 -0.02488,1.18188 -0.07464,1.53022c-0.04977,0.32346 -0.1866,0.70912 -0.41056,1.15699zM225.31514,163.7087c0.22394,-0.44786 0.6096,-0.7589 1.15699,-0.93306c0.57229,-0.17416 1.31872,-0.26126 2.23936,-0.26126c0.94551,0 1.7044,0.08709 2.27667,0.26126c0.57229,0.17416 0.97038,0.48519 1.19432,0.93306c0.22394,0.44786 0.34834,0.84598 0.37322,1.19432c0.04977,0.34834 0.07464,0.85842 0.07464,1.53022v26.61098c0,0.6718 -0.02488,1.18188 -0.07464,1.53022c-0.02488,0.34834 -0.16173,0.73402 -0.41056,1.15699c-0.44786,0.79621 -1.7044,1.19432 -3.76957,1.19432c-2.06518,0 -3.20975,-0.73402 -3.43368,-2.20203c-1.24408,1.44314 -2.9858,2.16471 -5.22516,2.16471c-2.66234,0 -5.10076,-1.16944 -7.31522,-3.50832c-2.18959,-2.33888 -3.28438,-5.05099 -3.28438,-8.13631c0,-3.11022 1.10724,-5.83476 3.32172,-8.17364c2.21447,-2.36376 4.64043,-3.54564 7.27789,-3.54564c2.18959,0 3.89398,0.74646 5.1132,2.23936v-9.36795c0,-0.69668 0.02488,-1.20676 0.07464,-1.53022c0.04977,-0.34834 0.1866,-0.73402 0.41056,-1.15699zM218.07455,187.93104c0.77133,0.79621 1.7044,1.19432 2.7992,1.19432c1.0948,0 2.00298,-0.3981 2.72455,-1.19432c0.74646,-0.82109 1.11968,-1.7044 1.11968,-2.6499c0,-0.97038 -0.34834,-1.86613 -1.04502,-2.68723c-0.69668,-0.84598 -1.64219,-1.26898 -2.83652,-1.26898c-1.19432,0 -2.15227,0.41056 -2.87384,1.23164c-0.69668,0.82109 -1.04502,1.71684 -1.04502,2.68723c0,0.97038 0.38566,1.86613 1.15699,2.68723zM254.84076,185.24382c0,1.24408 0.41056,2.21447 1.23164,2.91115c0.84598,0.69668 1.72928,1.04502 2.6499,1.04502c0.94551,0 1.82881,-0.27369 2.6499,-0.82109c0.82109,-0.5474 1.48046,-0.82109 1.9781,-0.82109c0.89575,0 1.9781,0.78378 3.24705,2.35132c0.6718,0.87086 1.00771,1.64219 1.00771,2.314c0,1.14455 -0.80865,2.20203 -2.42596,3.17242c-1.69194,1.19432 -3.76957,1.79148 -6.23287,1.79148c-2.76186,0 -5.42422,-0.99526 -7.98702,-2.9858c-1.21921,-0.94551 -2.21447,-2.21447 -2.9858,-3.8069c-0.77133,-1.59244 -1.15699,-3.34658 -1.15699,-5.26248c0,-1.9159 0.38566,-3.64517 1.15699,-5.18783c0.77133,-1.56754 1.7666,-2.83652 2.9858,-3.8069c2.4633,-1.94078 5.0883,-2.91115 7.87506,-2.91115c1.14455,0 2.2518,0.16173 3.32172,0.48519c1.06992,0.29858 1.85368,0.59716 2.35132,0.89575l0.70912,0.44786c0.52252,0.34834 0.93306,0.62205 1.23164,0.82109c0.77133,0.59716 1.15699,1.28142 1.15699,2.05274c0,0.74646 -0.31102,1.59244 -0.93306,2.53793c-1.06992,1.64219 -2.09006,2.4633 -3.06045,2.4633c-0.57229,0 -1.36848,-0.32346 -2.38863,-0.97038c-0.5474,-0.52252 -1.31872,-0.78378 -2.314,-0.78378c-0.99526,0 -1.92834,0.36079 -2.7992,1.08236c-0.84598,0.72156 -1.26898,1.71684 -1.26898,2.9858zM269.85551,185.24382c0,-3.55808 1.24408,-6.49414 3.73226,-8.80813c2.48817,-2.33888 5.33712,-3.50832 8.54687,-3.50832c3.20975,0 6.04625,1.15699 8.50954,3.47099c2.48817,2.314 3.73226,5.25003 3.73226,8.80813c0,2.4633 -0.64692,4.65287 -1.94078,6.56877c-1.26898,1.9159 -2.82406,3.33415 -4.66532,4.25478c-1.81637,0.89575 -3.70738,1.34361 -5.67302,1.34361c-1.96565,0 -3.8691,-0.48519 -5.71035,-1.45558c-1.84124,-0.97038 -3.39635,-2.40109 -4.66532,-4.29209c-1.24408,-1.891 -1.86613,-4.0184 -1.86613,-6.38215zM279.14882,188.45356c0.97038,0.72156 1.94078,1.08236 2.91115,1.08236c0.97038,0 1.94078,-0.37322 2.91115,-1.11968c0.99526,-0.74646 1.4929,-1.84124 1.4929,-3.28438c0,-1.46802 -0.46032,-2.55036 -1.38094,-3.24705c-0.92062,-0.72156 -1.9159,-1.08236 -2.9858,-1.08236c-1.06992,0 -2.06518,0.37322 -2.9858,1.11968c-0.92062,0.72156 -1.38094,1.80392 -1.38094,3.24705c0,1.44314 0.47275,2.53793 1.41826,3.28438zM313.01532,163.7087c0.22394,-0.44786 0.6096,-0.7589 1.15699,-0.93306c0.57229,-0.17416 1.31872,-0.26126 2.23936,-0.26126c0.94551,0 1.7044,0.08709 2.27667,0.26126c0.57229,0.17416 0.97038,0.48519 1.19432,0.93306c0.22394,0.44786 0.34834,0.84598 0.37322,1.19432c0.04977,0.34834 0.07464,0.85842 0.07464,1.53022v26.61098c0,0.6718 -0.02488,1.18188 -0.07464,1.53022c-0.02488,0.34834 -0.16173,0.73402 -0.41056,1.15699c-0.44786,0.79621 -1.7044,1.19432 -3.76957,1.19432c-2.06518,0 -3.20975,-0.73402 -3.43368,-2.20203c-1.24408,1.44314 -2.9858,2.16471 -5.22516,2.16471c-2.66234,0 -5.10076,-1.16944 -7.31522,-3.50832c-2.18959,-2.33888 -3.28438,-5.05099 -3.28438,-8.13631c0,-3.11022 1.10724,-5.83476 3.32172,-8.17364c2.21447,-2.36376 4.64043,-3.54564 7.27789,-3.54564c2.18959,0 3.89398,0.74646 5.1132,2.23936v-9.36795c0,-0.69668 0.02488,-1.20676 0.07464,-1.53022c0.04977,-0.34834 0.1866,-0.73402 0.41056,-1.15699zM305.77476,187.93104c0.77133,0.79621 1.7044,1.19432 2.7992,1.19432c1.0948,0 2.00298,-0.3981 2.72455,-1.19432c0.74646,-0.82109 1.11968,-1.7044 1.11968,-2.6499c0,-0.97038 -0.34834,-1.86613 -1.04502,-2.68723c-0.69668,-0.84598 -1.64219,-1.26898 -2.83652,-1.26898c-1.19432,0 -2.15227,0.41056 -2.87384,1.23164c-0.69668,0.82109 -1.04502,1.71684 -1.04502,2.68723c0,0.97038 0.38566,1.86613 1.15699,2.68723zM346.53141,182.44462c0,1.81637 -0.46032,3.15998 -1.38094,4.03084c-0.89575,0.87086 -1.891,1.30629 -2.9858,1.30629h-10.56228c0,0.82109 0.48519,1.51778 1.45558,2.09006c0.99526,0.57229 1.99054,0.85842 2.9858,0.85842c1.71684,0 3.06045,-0.17416 4.03084,-0.52252l0.48519,-0.1866c0.72156,-0.32346 1.31872,-0.48519 1.79148,-0.48519c0.94551,0 1.7666,0.65936 2.4633,1.9781c0.37322,0.82109 0.55984,1.50534 0.55984,2.05274c0,2.66234 -3.15998,3.99351 -9.47993,3.99351c-2.18959,0 -4.1428,-0.37322 -5.85964,-1.11968c-1.71684,-0.77133 -3.04801,-1.79148 -3.99351,-3.06045c-1.86613,-2.38863 -2.7992,-5.07586 -2.7992,-8.06168c0,-3.73226 1.20676,-6.71806 3.62028,-8.95741c2.41352,-2.23936 5.43666,-3.35902 9.06937,-3.35902c4.13036,0 7.16593,1.45558 9.1067,4.36674c0.99526,1.54267 1.4929,3.23462 1.4929,5.07586zM337.12612,183.7136c1.14455,0 1.71684,-0.47275 1.71684,-1.41826c0,-0.6718 -0.26126,-1.21921 -0.78378,-1.64219c-0.52252,-0.423 -1.26898,-0.63448 -2.23936,-0.63448c-0.97038,0 -1.92834,0.3981 -2.87384,1.19432c-0.94551,0.79621 -1.41826,1.62975 -1.41826,2.5006zM356.3533,189.61056c0.49763,0.49763 0.74646,1.35605 0.74646,2.57526v0.70912c0,0.69668 -0.02488,1.21921 -0.07464,1.56754c-0.02488,0.34834 -0.16173,0.77133 -0.41056,1.26898c-0.44786,0.84598 -1.57998,1.26898 -3.39635,1.26898c-1.81637,0 -3.01069,-0.29858 -3.58297,-0.89575c-0.57229,-0.59716 -0.85842,-1.7044 -0.85842,-3.32172c0,-1.19432 0.1493,-2.07763 0.44786,-2.6499c0.29858,-0.59716 0.74646,-0.98282 1.34361,-1.15699c0.62205,-0.19906 1.56754,-0.29858 2.83652,-0.29858c1.26898,0 2.2518,0.31102 2.94848,0.93306zM364.30299,189.98378c0.24882,-0.49763 0.6718,-0.83352 1.26898,-1.00771c0.59716,-0.19906 1.54267,-0.29858 2.83652,-0.29858c1.31872,0 2.26424,0.28613 2.83652,0.85842c0.59716,0.57229 0.89575,1.69194 0.89575,3.35902c0,1.16944 -0.1493,2.0403 -0.44786,2.61258c-0.29858,0.57229 -0.7589,0.97038 -1.38094,1.19432c-0.59716,0.19906 -1.54267,0.29858 -2.83652,0.29858c-1.29385,0 -2.23936,-0.28613 -2.83652,-0.85842c-0.57229,-0.57229 -0.85842,-1.46802 -0.85842,-2.68723v-0.6718c0,-0.72156 0.02488,-1.24408 0.07464,-1.56754c0.04977,-0.34834 0.19906,-0.7589 0.44786,-1.23164zM379.30666,189.98378c0.24882,-0.49763 0.6718,-0.83352 1.26898,-1.00771c0.59716,-0.19906 1.54267,-0.29858 2.83652,-0.29858c1.31872,0 2.26424,0.28613 2.83652,0.85842c0.59716,0.57229 0.89575,1.69194 0.89575,3.35902c0,1.74172 -0.32346,2.84896 -0.97038,3.32172c-0.72156,0.52252 -1.85368,0.78378 -3.39635,0.78378c-1.51778,0 -2.57526,-0.29858 -3.17242,-0.89575c-0.57229,-0.59716 -0.85842,-1.7044 -0.85842,-3.32172c0.04977,-0.72156 0.08709,-1.24408 0.11196,-1.56754c0.04977,-0.34834 0.19906,-0.7589 0.44786,-1.23164z" fill="#ff6767" stroke-width="1" stroke-linecap="square" stroke-linejoin="miter"/></g></g></svg>