<svg version="1.1" xmlns="http://www.w3.org/2000/svg" xmlns:xlink="http://www.w3.org/1999/xlink" width="6.81379" height="8.31268" viewBox="0,0,6.81379,8.31268"><defs><linearGradient x1="240.04069" y1="178.25643" x2="240.04069" y2="181.73715" gradientUnits="userSpaceOnUse" id="color-1"><stop offset="0" stop-color="#ffffff"/><stop offset="1" stop-color="#e5e5e5"/></linearGradient></defs><g transform="translate(-236.5931,-175.84366)"><g data-paper-data="{&quot;isPaintingLayer&quot;:true}" fill-rule="nonzero" stroke-width="0" stroke-linecap="butt" stroke-linejoin="miter" stroke-miterlimit="10" stroke-dasharray="" stroke-dashoffset="0" style="mix-blend-mode: normal"><path d="M239.9376,178.27591c0.05093,-0.01691 0.10275,-0.02316 0.14579,-0.01745c0.05567,0.00707 0.12029,0.03522 0.16512,0.07202c0.01289,0.01041 0.25332,0.2515 0.53465,0.53583c0.55299,0.55891 0.53269,0.53713 0.55702,0.59682c0.0176,0.04282 0.0233,0.07362 0.02273,0.12412c-0.00018,0.03853 -0.00154,0.05018 -0.0091,0.07767c-0.05635,0.20955 -0.299,0.30231 -0.48075,0.18326c-0.02067,-0.01338 -0.07125,-0.06282 -0.26946,-0.26258c0,0 -0.04816,-0.04842 -0.07897,-0.0794c-0.0316,-0.03178 -0.07652,-0.08102 -0.12056,-0.07273c-0.04019,0.00756 -0.04567,0.0688 -0.04591,0.1097c-0.00135,0.23789 -0.00488,0.86177 -0.00488,0.86177l-0.00569,1.06527l-0.00725,0.02588c-0.03723,0.13485 -0.14386,0.22661 -0.27799,0.23958c-0.16812,0.01605 -0.31813,-0.10189 -0.34292,-0.27006c-0.00408,-0.02624 -0.004,-0.18005 0.00027,-1.07988c0,0 0.00258,-0.54459 0.00387,-0.81669c0.00021,-0.04447 0.01064,-0.09357 -0.02438,-0.12099c-0.03055,-0.02391 -0.08279,-0.00431 -0.11038,0.02299c-0.04322,0.04276 -0.11074,0.10955 -0.11074,0.10955c-0.26286,0.26006 -0.26675,0.2636 -0.32094,0.28567c-0.04541,0.01889 -0.06973,0.02363 -0.12154,0.02372c-0.06314,0.00001 -0.1068,-0.01086 -0.15751,-0.0396c-0.16372,-0.09241 -0.20965,-0.30535 -0.0998,-0.46157c0.01565,-0.02259 1.02679,-1.02774 1.06482,-1.05863c0.02339,-0.01932 0.07047,-0.04628 0.09448,-0.05428z" data-paper-data="{&quot;origRot&quot;:0,&quot;index&quot;:null}" fill="url(#color-1)" stroke="#ffffff"/><path d="M236.59311,175.84366h6.81379v8.31268h-6.81379z" data-paper-data="{&quot;index&quot;:null}" fill="none" stroke="none"/></g></g></svg>