<svg version="1.1" xmlns="http://www.w3.org/2000/svg" xmlns:xlink="http://www.w3.org/1999/xlink" width="389.97725" height="389.97725" viewBox="0,0,389.97725,389.97725"><g transform="translate(-45.01137,14.98862)"><g data-paper-data="{&quot;isPaintingLayer&quot;:true}" fill-rule="nonzero" stroke="none" stroke-width="0" stroke-linecap="butt" stroke-linejoin="miter" stroke-miterlimit="10" stroke-dasharray="" stroke-dashoffset="0" style="mix-blend-mode: normal"><path d="M45.01137,374.98863v-389.97725h389.97725v389.97725z" fill="none"/><path d="M397.25304,204.6056c8.83268,27.37625 9.06319,51.74227 2.97698,53.70652c-6.08621,1.96349 -11.96913,-22.59601 -20.80257,-49.97226c-8.83268,-27.37625 -17.26934,-47.20387 -11.18237,-49.16736c6.08621,-1.96349 20.17603,18.0561 29.00871,45.43311z" data-paper-data="{&quot;index&quot;:null}" fill="#693a00"/><path d="M110.38471,167.17232c5.97814,2.27109 -3.45765,21.64223 -13.67339,48.53327c-10.21574,26.89105 -17.3419,51.11952 -23.32079,48.84767c-5.97814,-2.27109 -4.5059,-26.59479 5.70833,-53.48508c10.21574,-26.89105 25.3062,-46.16696 31.28434,-43.89663z" fill="#693a00"/></g></g></svg>