<svg version="1.1" xmlns="http://www.w3.org/2000/svg" xmlns:xlink="http://www.w3.org/1999/xlink" width="207.59882" height="207.59882" viewBox="0,0,207.59882,207.59882"><defs><radialGradient cx="233.75836" cy="180" r="103.79941" gradientUnits="userSpaceOnUse" id="color-1"><stop offset="0" stop-color="#ffc800"/><stop offset="1" stop-color="#ffc800" stop-opacity="0"/></radialGradient><radialGradient cx="233.75836" cy="178.32013" r="45.03296" gradientUnits="userSpaceOnUse" id="color-2"><stop offset="0" stop-color="#ffac33"/><stop offset="1" stop-color="#ffbb55"/></radialGradient><radialGradient cx="233.75836" cy="179.39292" r="37.23478" gradientUnits="userSpaceOnUse" id="color-3"><stop offset="0" stop-color="#ffc433"/><stop offset="1" stop-color="#ffd56a"/></radialGradient></defs><g transform="translate(-129.95897,-76.20059)"><g data-paper-data="{&quot;isPaintingLayer&quot;:true}" fill-rule="nonzero" stroke="none" stroke-linecap="butt" stroke-linejoin="miter" stroke-miterlimit="10" stroke-dasharray="" stroke-dashoffset="0" style="mix-blend-mode: normal"><path d="M129.95897,180c0,-57.32683 46.47259,-103.79941 103.79941,-103.79941c57.32683,0 103.79941,46.47259 103.79941,103.79941c0,57.32683 -46.47259,103.79941 -103.79941,103.79941c-57.32683,0 -103.79941,-46.47259 -103.79941,-103.79941z" fill="url(#color-1)" stroke-width="0"/><g><path d="M176.5956,186.23207c0,-32.1096 25.73777,-58.13955 57.48697,-58.13955c31.74916,0 57.48691,26.03 57.48691,58.13955c0,32.1096 -25.73777,58.1396 -57.48691,58.1396c-31.74916,0 -57.48697,-26.03 -57.48697,-58.1396z" fill="#ffb84d" stroke-width="0"/><path d="M175.94727,178.30714c0,-31.96575 25.88291,-57.87914 57.8111,-57.87914c31.92819,0 57.8111,25.91338 57.8111,57.87914c0,31.96575 -25.88291,57.87914 -57.8111,57.87914c-31.92819,0 -57.8111,-25.91338 -57.8111,-57.87914z" fill="#fff75c" stroke-width="0"/><path d="M188.7254,178.32013c0,-24.90029 20.16197,-45.08596 45.03296,-45.08596c24.87102,0 45.03296,20.18569 45.03296,45.08596c0,24.90029 -20.16197,45.08602 -45.03296,45.08602c-24.87102,0 -45.03296,-20.18569 -45.03296,-45.08602z" fill="url(#color-2)" stroke-width="0"/><path d="M196.52359,179.39292c0,-20.58842 16.67058,-37.27859 37.23478,-37.27859c20.5642,0 37.23478,16.69021 37.23478,37.27859c0,20.58842 -16.67058,37.27859 -37.23478,37.27859c-20.5642,0 -37.23478,-16.69021 -37.23478,-37.27859z" fill="url(#color-3)" stroke-width="0"/><g fill="#fffcc7"><g stroke-width="0"><path d="M225.75655,202.82293v-47.21659h8.57626v47.21659z"/><path d="M225.72483,155.65696c0,-2.3609 1.91987,-4.27475 4.28814,-4.27475c2.36827,0 4.28814,1.91385 4.28814,4.27475c0,2.3609 -1.91987,4.27475 -4.28814,4.27475c-2.36827,0 -4.28814,-1.91385 -4.28814,-4.27475z"/><path d="M225.72483,202.78773c0,-2.3609 1.91987,-4.27475 4.28814,-4.27475c2.36827,0 4.28814,1.91385 4.28814,4.27475c0,2.3609 -1.91987,4.27475 -4.28814,4.27475c-2.36827,0 -4.28814,-1.91385 -4.28814,-4.27475z"/></g><path d="M236.64586,169.74605c-3.35278,0.34183 -7.27748,0.8255 -7.38038,2.0503c-0.05583,0.66445 4.89973,0.41266 8.82413,2.86021c4.32392,2.69672 7.65861,8.19778 7.65861,11.01341c0,9.7707 -8.62865,14.81775 -19.00036,15.14847c-1.90032,0.06058 -4.02546,0.38319 -5.67623,-0.56009c-4.25516,-2.43151 -4.15963,-8.90045 0,-11.27737c0.82556,-0.47175 9.15764,-1.3964 9.12265,-3.43795c-0.06916,-4.03421 -13.68131,-3.16911 -13.81723,-13.81703c-0.01495,-1.17187 0.28278,-2.75746 0.5761,-3.93077c1.84654,-7.38622 9.78702,-9.95696 16.66622,-10.7871c1.92489,-0.23229 6.736,-0.77566 7.68807,0.89048c1.89938,1.12099 3.17355,3.18853 3.17355,5.55374c0,2.09714 -1.00173,3.96032 -2.55282,5.1371c-0.19838,0.19205 -4.83436,1.25516 -5.28233,1.15663z" stroke-width="0.5"/></g></g></g></g></svg>