<svg version="1.1" xmlns="http://www.w3.org/2000/svg" xmlns:xlink="http://www.w3.org/1999/xlink" width="64.28037" height="64.26093" viewBox="0,0,64.28037,64.26093"><g transform="translate(-396.85966,-147.86952)"><g data-paper-data="{&quot;isPaintingLayer&quot;:true}" fill-rule="nonzero" stroke-miterlimit="10" stroke-dasharray="" stroke-dashoffset="0" style="mix-blend-mode: normal"><path d="" data-paper-data="{&quot;index&quot;:null}" fill-opacity="0.2008" fill="#000000" stroke="none" stroke-width="0.365" stroke-linecap="round" stroke-linejoin="round"/><g stroke-linejoin="miter"><g fill="none"><g stroke="#ffffff" stroke-width="6.5" stroke-linecap="round"><path d=""/><path d=""/><path d=""/></g><g stroke="none" stroke-width="1" stroke-linecap="butt" font-family="sans-serif" font-weight="normal" font-size="12" text-anchor="start"/></g><path d="" data-paper-data="{&quot;index&quot;:null}" fill="none" stroke="#ffffff" stroke-width="7.5" stroke-linecap="round"/><path d="" data-paper-data="{&quot;index&quot;:null}" fill="#ffffff" stroke="none" stroke-width="7.5" stroke-linecap="butt"/></g><g fill="#ffffff" stroke="none" stroke-width="0" stroke-linecap="butt" stroke-linejoin="miter"><g><path d=""/><path d=""/></g><g><path d=""/><path d=""/></g><g><path d=""/><path d=""/></g></g><g stroke="none" stroke-linecap="butt" stroke-linejoin="miter"><g><g><g fill="none" stroke-width="1" font-family="sans-serif" font-weight="normal" font-size="12" text-anchor="start"/><g fill="none" stroke-width="1" font-family="sans-serif" font-weight="normal" font-size="12" text-anchor="start"/><g fill="#ffffff" stroke-width="0"><path d=""/></g></g><path d="" fill="#ffffff" stroke-width="0"/></g><g fill="#ffffff" stroke-width="0"><path d="" data-paper-data="{&quot;origRot&quot;:0,&quot;index&quot;:null}"/><path d="" data-paper-data="{&quot;origRot&quot;:0,&quot;index&quot;:null}"/><path d="" data-paper-data="{&quot;origRot&quot;:0,&quot;index&quot;:null}"/><path d="" data-paper-data="{&quot;origRot&quot;:0,&quot;index&quot;:null}"/><path d="" data-paper-data="{&quot;origRot&quot;:0,&quot;index&quot;:null}"/><path d=""/></g></g><g stroke-linejoin="miter"><g stroke-width="7.5"><path d="" data-paper-data="{&quot;index&quot;:null}" fill="none" stroke="#ffffff" stroke-linecap="round"/><path d="" data-paper-data="{&quot;index&quot;:null}" fill="#ffffff" stroke="none" stroke-linecap="butt"/></g><g fill="none"><g stroke="#ffffff" stroke-width="6.5" stroke-linecap="round"><path d=""/><path d=""/><path d=""/></g><g stroke="none" stroke-width="1" stroke-linecap="butt" font-family="sans-serif" font-weight="normal" font-size="12" text-anchor="start"/></g></g><g fill="#ffffff" stroke="none" stroke-width="0" stroke-linecap="butt" stroke-linejoin="miter"><path d=""/><path d=""/></g><path d="" fill="none" stroke="#ffffff" stroke-width="6.5" stroke-linecap="round" stroke-linejoin="miter"/><path d="" fill="none" stroke="#ffffff" stroke-width="6.5" stroke-linecap="round" stroke-linejoin="miter"/><path d="" fill="none" stroke="#ffffff" stroke-width="6.5" stroke-linecap="round" stroke-linejoin="miter"/><path d="" data-paper-data="{&quot;index&quot;:null}" fill="none" stroke="#ffffff" stroke-width="7.5" stroke-linecap="round" stroke-linejoin="miter"/><path d="" data-paper-data="{&quot;index&quot;:null}" fill="#ffffff" stroke="none" stroke-width="7.5" stroke-linecap="butt" stroke-linejoin="miter"/><path d="" fill="#ffffff" stroke="none" stroke-width="0" stroke-linecap="butt" stroke-linejoin="miter"/><path d="" fill="#ffffff" stroke="none" stroke-width="0" stroke-linecap="butt" stroke-linejoin="miter"/><path d="" data-paper-data="{&quot;origRot&quot;:0,&quot;index&quot;:null}" fill="#ffffff" stroke="none" stroke-width="0" stroke-linecap="butt" stroke-linejoin="miter"/><path d="" data-paper-data="{&quot;origRot&quot;:0,&quot;index&quot;:null}" fill="#ffffff" stroke="none" stroke-width="0" stroke-linecap="butt" stroke-linejoin="miter"/><path d="" data-paper-data="{&quot;origRot&quot;:0,&quot;index&quot;:null}" fill="#ffffff" stroke="none" stroke-width="0" stroke-linecap="butt" stroke-linejoin="miter"/><path d="" data-paper-data="{&quot;origRot&quot;:0,&quot;index&quot;:null}" fill="#ffffff" stroke="none" stroke-width="0" stroke-linecap="butt" stroke-linejoin="miter"/><path d="" data-paper-data="{&quot;origRot&quot;:0,&quot;index&quot;:null}" fill="#ffffff" stroke="none" stroke-width="0" stroke-linecap="butt" stroke-linejoin="miter"/><path d="" fill="#ffffff" stroke="none" stroke-width="0" stroke-linecap="butt" stroke-linejoin="miter"/><path d="" data-paper-data="{&quot;index&quot;:null}" fill="none" stroke="#ffffff" stroke-width="7.5" stroke-linecap="round" stroke-linejoin="miter"/><path d="" data-paper-data="{&quot;index&quot;:null}" fill="#ffffff" stroke="none" stroke-width="7.5" stroke-linecap="butt" stroke-linejoin="miter"/><path d="" fill="none" stroke="#ffffff" stroke-width="6.5" stroke-linecap="round" stroke-linejoin="miter"/><path d="" fill="none" stroke="#ffffff" stroke-width="6.5" stroke-linecap="round" stroke-linejoin="miter"/><path d="" fill="none" stroke="#ffffff" stroke-width="6.5" stroke-linecap="round" stroke-linejoin="miter"/><path d="" fill="#ffffff" stroke="none" stroke-width="0" stroke-linecap="butt" stroke-linejoin="miter"/><path d="" fill="#ffffff" stroke="none" stroke-width="0" stroke-linecap="butt" stroke-linejoin="miter"/><path d="M461.13993,200.01809c0.02279,7.98625 -3.64981,12.0145 -11.6739,12.02625c-7.1844,0.01052 -26.66182,0.05777 -39.85694,0.08606c-8.23478,0.01765 -12.88344,-4.26213 -12.74648,-11.96974c0.2306,-12.97741 0.5776,-32.79247 0.35257,-40.14192c0.1914,-8.03181 4.09508,-12.14978 12.25079,-12.14922c13.25076,0.00091 32.92463,0.02472 39.88097,0.14891c8.00167,0.14286 11.69047,4.57548 11.69047,12.19275c0,7.12658 0.06557,26.85559 0.10253,39.80692z" fill-opacity="0.2008" fill="#000000" stroke="none" stroke-width="0" stroke-linecap="butt" stroke-linejoin="miter"/><path d="M424.10043,181.83074l0.03913,-0.39131c0,-1.56526 0.4435,-2.80441 1.33047,-3.71748c0.91307,-0.93915 1.83918,-1.53918 2.77832,-1.80004c0.93915,-0.26087 1.6957,-0.61306 2.26962,-1.05655c0.60002,-0.46957 0.90002,-1.06959 0.90002,-1.80004c0,-0.73045 -0.19565,-1.27829 -0.58697,-1.64352c-0.39131,-0.39132 -1.05654,-0.58697 -1.9957,-0.58697c-0.93915,0 -1.59134,0.13045 -1.95657,0.39131c-0.36523,0.23479 -0.57392,0.43045 -0.6261,0.58697l-0.15653,0.54783c-0.31305,0.96524 -0.73044,1.73483 -1.2522,2.30875c-0.49566,0.57392 -1.14786,0.86089 -1.95657,0.86089c-0.78262,0 -1.70873,-0.22174 -2.77832,-0.66523c-2.26962,-0.8348 -3.40443,-2.00874 -3.40443,-3.52182c0,-0.57392 0.10434,-1.13481 0.31305,-1.68265c0.20871,-0.54784 0.37826,-0.99133 0.50871,-1.33047c0.15652,-0.36523 0.52176,-0.97828 1.09568,-1.83917c0.60002,-0.88697 1.27828,-1.65657 2.03483,-2.30875c0.75655,-0.67828 1.82612,-1.29133 3.20877,-1.83917c1.38265,-0.57392 2.9218,-0.86089 4.6175,-0.86089c3.5479,0 6.45667,1.16089 8.72628,3.48269c2.26962,2.2957 3.40443,4.96967 3.40443,8.02192c0,1.4609 -0.27391,2.8305 -0.82175,4.10878c-0.52175,1.2522 -1.16089,2.24354 -1.91743,2.97398c-1.46091,1.40873 -2.85659,2.36093 -4.18706,2.85659l-0.11739,0.03913c0,0.10434 -0.02608,0.33913 -0.07826,0.70436c-0.05218,0.36523 -0.26087,0.79567 -0.6261,1.29133c-0.33913,0.46958 -0.86089,0.79568 -1.56525,0.97829c-0.67828,0.18261 -1.51308,0.27392 -2.50441,0.27392c-0.96524,0 -1.81309,-0.10434 -2.54353,-0.31305c-0.70437,-0.20871 -1.21307,-0.57393 -1.52612,-1.09568c-0.31305,-0.52175 -0.49566,-0.96524 -0.54784,-1.33047c-0.05218,-0.39131 -0.07826,-0.93915 -0.07826,-1.64351zM424.02216,189.69613c0.33913,-0.65219 0.91307,-1.10873 1.72178,-1.3696c0.80871,-0.28697 1.98265,-0.43045 3.52182,-0.43045c1.56525,0 2.73919,0.39132 3.52182,1.17394c0.80871,0.78263 1.21308,2.17831 1.21308,4.18705c0,1.40873 -0.20871,2.51746 -0.6261,3.32617c-0.39132,0.78262 -0.99133,1.30438 -1.80004,1.56525c-0.80871,0.23479 -1.96961,0.35218 -3.48269,0.35218c-1.51307,0 -2.72614,-0.4174 -3.63921,-1.25221c-0.70436,-0.70436 -1.05655,-1.82612 -1.05655,-3.36529v-0.7435c0,-0.75654 0.02608,-1.35655 0.07826,-1.80004c0.05218,-0.44349 0.23479,-0.99133 0.54784,-1.64352z" fill="#ffffff" stroke="none" stroke-width="1" stroke-linecap="square" stroke-linejoin="miter"/></g></g></svg>