<svg version="1.1" xmlns="http://www.w3.org/2000/svg" xmlns:xlink="http://www.w3.org/1999/xlink" width="113.13184" height="113.13184" viewBox="0,0,113.13184,113.13184"><g transform="translate(-183.43408,-123.43408)"><g data-paper-data="{&quot;isPaintingLayer&quot;:true}" fill-rule="nonzero" stroke-linejoin="miter" stroke-miterlimit="10" stroke-dasharray="" stroke-dashoffset="0" style="mix-blend-mode: normal"><path d="M183.43408,236.56592v-113.13184h113.13184v113.13184z" fill="none" stroke="none" stroke-width="0" stroke-linecap="butt"/><path d="M240.21873,226.38044c-7.21959,0 -13.38178,-1.45851 -18.48654,-4.37552c-5.03185,-2.91701 -8.89688,-6.74559 -11.59511,-11.48573c-2.62531,-4.74014 -3.93797,-9.91784 -3.93797,-15.53308c0,-2.55239 0.32816,-5.03185 0.98449,-7.43837c0.65632,-2.40653 1.49496,-4.66721 2.51592,-6.78204c1.02096,-2.18776 2.00544,-4.12028 2.95348,-5.79756c1.02096,-1.67728 1.93252,-3.06285 2.7347,-4.15674l24.83106,-34.56657c0.43756,-0.43756 0.94803,-0.98449 1.53144,-1.64081c0.58341,-0.65632 1.49496,-0.98449 2.7347,-0.98449h6.89144c0.80218,0 1.42204,0.29171 1.85959,0.8751c0.51048,0.58341 0.76572,1.23973 0.76572,1.96899c0,0.36464 -0.03647,0.72924 -0.10939,1.09388c-0.07292,0.29171 -0.18231,0.51048 -0.32816,0.65632l-19.14288,26.69065c1.09388,-0.36464 2.3336,-0.61986 3.7192,-0.76572c1.38557,-0.14585 2.62531,-0.21877 3.7192,-0.21877c4.81307,0.07292 9.15212,0.94803 13.01716,2.62531c3.93797,1.67728 7.32899,3.93797 10.17307,6.78204c2.84409,2.77116 4.99537,6.01633 6.45388,9.73552c1.53144,3.7192 2.29716,7.65716 2.29716,11.81389c0,5.4694 -1.31266,10.61062 -3.93797,15.4237c-2.62531,4.81307 -6.45388,8.71457 -11.48573,11.7045c-4.95892,2.91701 -11.01172,4.37552 -18.15838,4.37552zM240.10935,215.22292c3.64625,0 7.03729,-0.76572 10.17307,-2.29716c3.13578,-1.60435 5.65172,-3.90149 7.54776,-6.89144c1.96899,-2.98993 2.95348,-6.70912 2.95348,-11.15757c0,-4.37552 -0.94803,-8.05825 -2.84409,-11.04817c-1.89605,-2.98993 -4.44844,-5.25062 -7.65716,-6.78204c-3.13578,-1.53144 -6.52681,-2.29716 -10.17307,-2.29716c-3.7192,0 -7.14668,0.76572 -10.28245,2.29716c-3.13578,1.53144 -5.68817,3.79211 -7.65716,6.78204c-1.89605,2.98993 -2.84409,6.67266 -2.84409,11.04817c0,4.44844 0.94803,8.16763 2.84409,11.15757c1.96899,2.98993 4.52136,5.28708 7.65716,6.89144c3.13578,1.53144 6.56328,2.29716 10.28245,2.29716z" fill="#ffffff" stroke="#ffffff" stroke-width="5" stroke-linecap="square"/></g></g></svg>