<svg version="1.1" xmlns="http://www.w3.org/2000/svg" xmlns:xlink="http://www.w3.org/1999/xlink" width="389.97725" height="389.97725" viewBox="0,0,389.97725,389.97725"><g transform="translate(-45.01138,14.98861)"><g data-paper-data="{&quot;isPaintingLayer&quot;:true}" fill-rule="nonzero" stroke="none" stroke-width="0" stroke-linecap="butt" stroke-linejoin="miter" stroke-miterlimit="10" stroke-dasharray="" stroke-dashoffset="0" style="mix-blend-mode: normal"><path d="M45.01138,374.98865v-389.97725h389.97725v389.97725z" fill="none"/><path d="M121.08719,176.07152c0.31969,-59.32113 1.51381,-71.04237 43.41973,-75.77273c3.99727,-0.45119 4.86036,0.91524 4.86036,0.91524l12.0568,12.67502l36.08877,-2.18569l11.99029,-15.74042c0,0 6.08924,-0.75653 8.30818,-0.78147c119.85528,-1.36492 119.34135,-2.16755 118.43443,79.52437c0.56078,49.54978 1.52968,56.27765 -116.96521,57.20573c-116.83824,0.91448 -118.64151,-0.73159 -118.19334,-55.84081z" fill="#e2d2a3"/><path d="M122.5118,150.00878c-0.79658,-13.27434 15.23027,-40.01272 41.23632,-39.34689c4.04639,0.10354 3.67002,-0.82454 3.67002,-0.82454l18.37579,14.69972l32.10208,-1.74356l13.06953,-15.31265c0,0 9.60508,-2.55677 10.79844,-2.55677c46.5524,0 83.89952,4.26481 113.62169,35.54083c22.70635,23.89442 -175.01665,77.13841 -227.75503,60.2462c-11.83309,-3.79019 -5.11807,-50.70233 -5.11807,-50.70233z" fill="#ffedb8"/><path d="M121.26404,180.65754c0.06802,-12.54805 0.17458,-21.6853 0.69758,-30.65554c0.28795,-4.94122 235.62184,-10.39561 235.88258,-3.00267c0.31818,9.03145 0.18819,19.69914 0.04837,32.29329c0.56078,49.54978 -0.90919,56.27765 -125.91957,59.81163c-1.50701,0.01209 -9.95349,0.61293 -9.95349,0.61293l-11.03197,15.29527l-34.54926,0.1315l-12.31905,-16.44253c0,0 -5.93128,-1.23039 -8.56287,-1.34829c-29.68513,-3.21278 -34.63391,-14.58711 -34.29155,-56.69483z" fill="#ffedb8"/></g></g></svg>