<svg version="1.1" xmlns="http://www.w3.org/2000/svg" xmlns:xlink="http://www.w3.org/1999/xlink" width="720" height="540" viewBox="0,0,720,540"><defs><clipPath id="clip-1"><rect x="-240" y="-180" transform="scale(0.5,0.5)" width="1440" height="1080" fill="none" fill-rule="nonzero" stroke-width="0.5" stroke-linecap="butt"/></clipPath></defs><g transform="translate(120,90)"><g clip-path="url(#clip-1)" data-paper-data="{&quot;isPaintingLayer&quot;:true}" stroke="none" stroke-linejoin="miter" stroke-miterlimit="10" stroke-dasharray="" stroke-dashoffset="0" style="mix-blend-mode: normal"><path d="M-240,-180h960v720h-960z" fill-opacity="0" fill="#000000" fill-rule="evenodd" stroke-width="1" stroke-linecap="square"/><path d="M113.56693,43.62897h-5.17187v14.35938h-2.125v-14.35937h-5.15625v-1.75h12.45313zM113.98975,51.8946c0,-1.17708 0.22917,-2.23437 0.6875,-3.17187c0.46875,-0.9375 1.11458,-1.65625 1.9375,-2.15625c0.82292,-0.51042 1.76042,-0.76562 2.8125,-0.76562c1.63542,0 2.95313,0.5625 3.95313,1.6875c1.01042,1.125 1.51563,2.625 1.51563,4.5v0.14063c0,1.16667 -0.22396,2.21354 -0.67187,3.14063c-0.44792,0.92708 -1.08854,1.65104 -1.92187,2.17188c-0.82292,0.51042 -1.77604,0.76563 -2.85937,0.76563c-1.61458,0 -2.92708,-0.5625 -3.9375,-1.6875c-1.01042,-1.125 -1.51562,-2.61979 -1.51562,-4.48437zM116.05225,52.12897c0,1.33333 0.30729,2.40104 0.92188,3.20313c0.61458,0.80208 1.4375,1.20313 2.46875,1.20313c1.04167,0 1.86979,-0.40625 2.48438,-1.21875c0.61458,-0.8125 0.92188,-1.95312 0.92188,-3.42187c0,-1.3125 -0.3125,-2.375 -0.9375,-3.1875c-0.625,-0.82292 -1.45312,-1.23437 -2.48437,-1.23437c-1.01042,0 -1.82812,0.40625 -2.45312,1.21875c-0.61458,0.80208 -0.92187,1.94792 -0.92187,3.4375zM132.58216,51.91022c0,-1.875 0.43229,-3.35937 1.29688,-4.45312c0.86458,-1.10417 2.00521,-1.65625 3.42188,-1.65625c1.45833,0 2.59896,0.51563 3.42188,1.54688l0.09375,-1.32812h1.875v11.6875c0,1.54167 -0.45833,2.76042 -1.375,3.65625c-0.91667,0.89583 -2.15104,1.34375 -3.70312,1.34375c-0.86458,0 -1.70833,-0.1875 -2.53125,-0.5625c-0.82292,-0.36458 -1.45312,-0.86979 -1.89062,-1.51562l1.0625,-1.21875c0.875,1.08333 1.94792,1.625 3.21875,1.625c0.98958,0 1.76042,-0.28125 2.3125,-0.84375c0.5625,-0.5625 0.84375,-1.35417 0.84375,-2.375v-1.01562c-0.8125,0.9375 -1.92708,1.40625 -3.34375,1.40625c-1.40625,0 -2.54167,-0.5625 -3.40625,-1.6875c-0.86458,-1.125 -1.29687,-2.66146 -1.29687,-4.60937zM134.64466,52.12897c0,1.35417 0.27604,2.41667 0.82813,3.1875c0.55208,0.77083 1.32292,1.15625 2.3125,1.15625c1.29167,0 2.23958,-0.58854 2.84375,-1.76562v-5.45312c-0.625,-1.14583 -1.5625,-1.71875 -2.8125,-1.71875c-1,0 -1.78125,0.39063 -2.34375,1.17188c-0.55208,0.77083 -0.82812,1.91146 -0.82812,3.42188zM150.74622,58.2071c-1.625,0 -2.94792,-0.53125 -3.96875,-1.59375c-1.01042,-1.0625 -1.51562,-2.48958 -1.51562,-4.28125v-0.375c0,-1.1875 0.22396,-2.24479 0.67188,-3.17187c0.45833,-0.9375 1.09375,-1.66667 1.90625,-2.1875c0.8125,-0.53125 1.69792,-0.79687 2.65625,-0.79687c1.55208,0 2.76042,0.51563 3.625,1.54688c0.86458,1.02083 1.29688,2.48438 1.29688,4.39063v0.84375h-8.10937c0.03125,1.1875 0.375,2.14583 1.03125,2.875c0.65625,0.71875 1.49479,1.07813 2.51563,1.07813c0.71875,0 1.32813,-0.14583 1.82813,-0.4375c0.51042,-0.29167 0.95313,-0.68229 1.32813,-1.17187l1.25,0.96875c-1,1.54167 -2.50521,2.3125 -4.51562,2.3125zM150.49622,47.47272c-0.83333,0 -1.53125,0.30208 -2.09375,0.90625c-0.55208,0.60417 -0.89583,1.44792 -1.03125,2.53125h6v-0.15625c-0.0625,-1.04167 -0.34375,-1.84896 -0.84375,-2.42187c-0.5,-0.57292 -1.17708,-0.85937 -2.03125,-0.85937zM160.56168,43.11335v2.90625h2.23438v1.57813h-2.23437v7.42188c0,0.47917 0.09896,0.83854 0.29688,1.07813c0.19792,0.23958 0.53646,0.35938 1.01563,0.35938c0.23958,0 0.5625,-0.04167 0.96875,-0.125v1.65625c-0.53125,0.14583 -1.05208,0.21875 -1.5625,0.21875c-0.91667,0 -1.60937,-0.27604 -2.07812,-0.82812c-0.45833,-0.55208 -0.6875,-1.33854 -0.6875,-2.35937v-7.42187h-2.1875v-1.57812h2.1875v-2.90625zM173.57132,43.11335v2.90625h2.23438v1.57813h-2.23437v7.42188c0,0.47917 0.09896,0.83854 0.29688,1.07813c0.19792,0.23958 0.53646,0.35938 1.01563,0.35938c0.23958,0 0.5625,-0.04167 0.96875,-0.125v1.65625c-0.53125,0.14583 -1.05208,0.21875 -1.5625,0.21875c-0.91667,0 -1.60937,-0.27604 -2.07812,-0.82812c-0.45833,-0.55208 -0.6875,-1.33854 -0.6875,-2.35937v-7.42187h-2.1875v-1.57812h2.1875v-2.90625zM180.23783,47.47272c0.90625,-1.11458 2.08854,-1.67187 3.54688,-1.67187c2.53125,0 3.80729,1.42708 3.82813,4.28125v7.90625h-2.04687v-7.92187c-0.01042,-0.86458 -0.20833,-1.5 -0.59375,-1.90625c-0.38542,-0.41667 -0.98958,-0.625 -1.8125,-0.625c-0.66667,0 -1.25,0.17708 -1.75,0.53125c-0.5,0.35417 -0.89062,0.81771 -1.17187,1.39063v8.53125h-2.04687v-17h2.04688zM195.63834,58.2071c-1.625,0 -2.94792,-0.53125 -3.96875,-1.59375c-1.01042,-1.0625 -1.51562,-2.48958 -1.51562,-4.28125v-0.375c0,-1.1875 0.22396,-2.24479 0.67188,-3.17187c0.45833,-0.9375 1.09375,-1.66667 1.90625,-2.1875c0.8125,-0.53125 1.69792,-0.79687 2.65625,-0.79687c1.55208,0 2.76042,0.51563 3.625,1.54688c0.86458,1.02083 1.29688,2.48438 1.29688,4.39063v0.84375h-8.10937c0.03125,1.1875 0.375,2.14583 1.03125,2.875c0.65625,0.71875 1.49479,1.07813 2.51563,1.07813c0.71875,0 1.32813,-0.14583 1.82813,-0.4375c0.51042,-0.29167 0.95313,-0.68229 1.32813,-1.17187l1.25,0.96875c-1,1.54167 -2.50521,2.3125 -4.51562,2.3125zM195.38834,47.47272c-0.83333,0 -1.53125,0.30208 -2.09375,0.90625c-0.55208,0.60417 -0.89583,1.44792 -1.03125,2.53125h6v-0.15625c-0.0625,-1.04167 -0.34375,-1.84896 -0.84375,-2.42187c-0.5,-0.57292 -1.17708,-0.85937 -2.03125,-0.85937zM213.07816,56.53522c0.72917,0 1.36458,-0.21875 1.90625,-0.65625c0.55208,-0.44792 0.85938,-1 0.92188,-1.65625h1.9375c-0.04167,0.67708 -0.28125,1.32813 -0.71875,1.95313c-0.42708,0.61458 -1.00521,1.10938 -1.73437,1.48438c-0.72917,0.36458 -1.5,0.54688 -2.3125,0.54688c-1.625,0 -2.92187,-0.54167 -3.89062,-1.625c-0.95833,-1.09375 -1.4375,-2.58333 -1.4375,-4.46875v-0.34375c0,-1.16667 0.21354,-2.20312 0.64063,-3.10937c0.42708,-0.90625 1.04167,-1.60937 1.84375,-2.10937c0.80208,-0.5 1.75,-0.75 2.84375,-0.75c1.34375,0 2.45833,0.40104 3.34375,1.20313c0.88542,0.80208 1.35938,1.84375 1.42188,3.125h-1.9375c-0.0625,-0.77083 -0.35937,-1.40625 -0.89062,-1.90625c-0.52083,-0.5 -1.16667,-0.75 -1.9375,-0.75c-1.04167,0 -1.84896,0.375 -2.42187,1.125c-0.57292,0.75 -0.85937,1.83333 -0.85937,3.25v0.39063c0,1.375 0.28125,2.4375 0.84375,3.1875c0.57292,0.73958 1.38542,1.10938 2.4375,1.10938zM219.59354,51.8946c0,-1.17708 0.22917,-2.23437 0.6875,-3.17187c0.46875,-0.9375 1.11458,-1.65625 1.9375,-2.15625c0.82292,-0.51042 1.76042,-0.76562 2.8125,-0.76562c1.63542,0 2.95313,0.5625 3.95313,1.6875c1.01042,1.125 1.51563,2.625 1.51563,4.5v0.14063c0,1.16667 -0.22396,2.21354 -0.67187,3.14063c-0.44792,0.92708 -1.08854,1.65104 -1.92187,2.17188c-0.82292,0.51042 -1.77604,0.76563 -2.85937,0.76563c-1.61458,0 -2.92708,-0.5625 -3.9375,-1.6875c-1.01042,-1.125 -1.51562,-2.61979 -1.51562,-4.48437zM221.65604,52.12897c0,1.33333 0.30729,2.40104 0.92188,3.20313c0.61458,0.80208 1.4375,1.20313 2.46875,1.20313c1.04167,0 1.86979,-0.40625 2.48438,-1.21875c0.61458,-0.8125 0.92188,-1.95312 0.92188,-3.42187c0,-1.3125 -0.3125,-2.375 -0.9375,-3.1875c-0.625,-0.82292 -1.45312,-1.23437 -2.48437,-1.23437c-1.01042,0 -1.82812,0.40625 -2.45312,1.21875c-0.61458,0.80208 -0.92187,1.94792 -0.92187,3.4375zM235.28031,57.98835h-2.04687v-11.96875h2.04688zM233.07719,42.84772c0,-0.33333 0.09896,-0.61458 0.29688,-0.84375c0.20833,-0.22917 0.51042,-0.34375 0.90625,-0.34375c0.39583,0 0.69792,0.11458 0.90625,0.34375c0.20833,0.22917 0.3125,0.51042 0.3125,0.84375c0,0.33333 -0.10417,0.60938 -0.3125,0.82813c-0.20833,0.21875 -0.51042,0.32813 -0.90625,0.32813c-0.39583,0 -0.69792,-0.10937 -0.90625,-0.32812c-0.19792,-0.21875 -0.29687,-0.49479 -0.29687,-0.82812zM240.4972,46.0196l0.0625,1.5c0.91667,-1.14583 2.11458,-1.71875 3.59375,-1.71875c2.53125,0 3.80729,1.42708 3.82813,4.28125v7.90625h-2.04687v-7.92187c-0.01042,-0.86458 -0.20833,-1.5 -0.59375,-1.90625c-0.38542,-0.41667 -0.98958,-0.625 -1.8125,-0.625c-0.66667,0 -1.25,0.17708 -1.75,0.53125c-0.5,0.35417 -0.89062,0.81771 -1.17187,1.39063v8.53125h-2.04687v-11.96875zM258.02921,54.81647c0,-0.55208 -0.20833,-0.97917 -0.625,-1.28125c-0.41667,-0.3125 -1.14583,-0.57812 -2.1875,-0.79687c-1.03125,-0.22917 -1.85417,-0.49479 -2.46875,-0.79687c-0.60417,-0.3125 -1.05208,-0.68229 -1.34375,-1.10937c-0.29167,-0.42708 -0.4375,-0.9375 -0.4375,-1.53125c0,-0.97917 0.41667,-1.80729 1.25,-2.48437c0.83333,-0.67708 1.89583,-1.01562 3.1875,-1.01562c1.35417,0 2.45313,0.34896 3.29688,1.04688c0.84375,0.69792 1.26563,1.59375 1.26563,2.6875h-2.0625c0,-0.5625 -0.23958,-1.04687 -0.71875,-1.45312c-0.46875,-0.40625 -1.0625,-0.60937 -1.78125,-0.60937c-0.75,0 -1.33854,0.16667 -1.76562,0.5c-0.41667,0.32292 -0.625,0.74479 -0.625,1.26563c0,0.48958 0.19271,0.86458 0.57813,1.125c0.39583,0.25 1.10417,0.48958 2.125,0.71875c1.03125,0.21875 1.85938,0.48958 2.48438,0.8125c0.63542,0.3125 1.10417,0.69271 1.40625,1.14063c0.3125,0.44792 0.46875,0.99479 0.46875,1.64063c0,1.0625 -0.42708,1.91667 -1.28125,2.5625c-0.85417,0.64583 -1.96354,0.96875 -3.32812,0.96875c-0.95833,0 -1.80729,-0.16667 -2.54687,-0.5c-0.73958,-0.34375 -1.31771,-0.81771 -1.73437,-1.42187c-0.41667,-0.61458 -0.625,-1.27604 -0.625,-1.98437h2.04688c0.04167,0.6875 0.31771,1.23438 0.82813,1.64063c0.51042,0.39583 1.1875,0.59375 2.03125,0.59375c0.77083,0 1.39063,-0.15625 1.85938,-0.46875c0.46875,-0.3125 0.70313,-0.72917 0.70313,-1.25zM271.13257,43.11335v2.90625h2.23437v1.57813h-2.23437v7.42188c0,0.47917 0.09896,0.83854 0.29688,1.07813c0.19792,0.23958 0.53646,0.35938 1.01563,0.35938c0.23958,0 0.5625,-0.04167 0.96875,-0.125v1.65625c-0.53125,0.14583 -1.05208,0.21875 -1.5625,0.21875c-0.91667,0 -1.60937,-0.27604 -2.07812,-0.82812c-0.45833,-0.55208 -0.6875,-1.33854 -0.6875,-2.35937v-7.42187h-2.1875v-1.57812h2.1875v-2.90625zM277.79908,47.47272c0.90625,-1.11458 2.08854,-1.67187 3.54688,-1.67187c2.53125,0 3.80729,1.42708 3.82813,4.28125v7.90625h-2.04687v-7.92187c-0.01042,-0.86458 -0.20833,-1.5 -0.59375,-1.90625c-0.38542,-0.41667 -0.98958,-0.625 -1.8125,-0.625c-0.66667,0 -1.25,0.17708 -1.75,0.53125c-0.5,0.35417 -0.89062,0.81771 -1.17187,1.39063v8.53125h-2.04687v-17h2.04688zM287.68397,51.8946c0,-1.17708 0.22917,-2.23437 0.6875,-3.17187c0.46875,-0.9375 1.11458,-1.65625 1.9375,-2.15625c0.82292,-0.51042 1.76042,-0.76562 2.8125,-0.76562c1.63542,0 2.95313,0.5625 3.95313,1.6875c1.01042,1.125 1.51563,2.625 1.51563,4.5v0.14063c0,1.16667 -0.22396,2.21354 -0.67187,3.14063c-0.44792,0.92708 -1.08854,1.65104 -1.92187,2.17188c-0.82292,0.51042 -1.77604,0.76563 -2.85937,0.76563c-1.61458,0 -2.92708,-0.5625 -3.9375,-1.6875c-1.01042,-1.125 -1.51562,-2.61979 -1.51562,-4.48437zM289.74647,52.12897c0,1.33333 0.30729,2.40104 0.92188,3.20313c0.61458,0.80208 1.4375,1.20313 2.46875,1.20313c1.04167,0 1.86979,-0.40625 2.48438,-1.21875c0.61458,-0.8125 0.92188,-1.95312 0.92188,-3.42187c0,-1.3125 -0.3125,-2.375 -0.9375,-3.1875c-0.625,-0.82292 -1.45312,-1.23437 -2.48437,-1.23437c-1.01042,0 -1.82812,0.40625 -2.45312,1.21875c-0.61458,0.80208 -0.92187,1.94792 -0.92187,3.4375zM308.54261,56.80085c-0.79167,0.9375 -1.95833,1.40625 -3.5,1.40625c-1.28125,0 -2.25521,-0.36979 -2.92187,-1.10937c-0.66667,-0.73958 -1.00521,-1.83854 -1.01562,-3.29687v-7.78125h2.04688v7.73438c0,1.8125 0.73958,2.71875 2.21875,2.71875c1.5625,0 2.60417,-0.58333 3.125,-1.75v-8.70312h2.04688v11.96875h-1.95312zM313.15736,51.91022c0,-1.875 0.43229,-3.35937 1.29688,-4.45312c0.86458,-1.10417 2.00521,-1.65625 3.42188,-1.65625c1.45833,0 2.59896,0.51563 3.42188,1.54688l0.09375,-1.32812h1.875v11.6875c0,1.54167 -0.45833,2.76042 -1.375,3.65625c-0.91667,0.89583 -2.15104,1.34375 -3.70312,1.34375c-0.86458,0 -1.70833,-0.1875 -2.53125,-0.5625c-0.82292,-0.36458 -1.45312,-0.86979 -1.89062,-1.51562l1.0625,-1.21875c0.875,1.08333 1.94792,1.625 3.21875,1.625c0.98958,0 1.76042,-0.28125 2.3125,-0.84375c0.5625,-0.5625 0.84375,-1.35417 0.84375,-2.375v-1.01562c-0.8125,0.9375 -1.92708,1.40625 -3.34375,1.40625c-1.40625,0 -2.54167,-0.5625 -3.40625,-1.6875c-0.86458,-1.125 -1.29687,-2.66146 -1.29687,-4.60937zM315.21986,52.12897c0,1.35417 0.27604,2.41667 0.82813,3.1875c0.55208,0.77083 1.32292,1.15625 2.3125,1.15625c1.29167,0 2.23958,-0.58854 2.84375,-1.76562v-5.45312c-0.625,-1.14583 -1.5625,-1.71875 -2.8125,-1.71875c-1,0 -1.78125,0.39063 -2.34375,1.17188c-0.55208,0.77083 -0.82812,1.91146 -0.82812,3.42188zM328.39954,47.47272c0.90625,-1.11458 2.08854,-1.67187 3.54688,-1.67187c2.53125,0 3.80729,1.42708 3.82813,4.28125v7.90625h-2.04687v-7.92187c-0.01042,-0.86458 -0.20833,-1.5 -0.59375,-1.90625c-0.38542,-0.41667 -0.98958,-0.625 -1.8125,-0.625c-0.66667,0 -1.25,0.17708 -1.75,0.53125c-0.5,0.35417 -0.89062,0.81771 -1.17187,1.39063v8.53125h-2.04687v-17h2.04688zM338.76881,61.19147l-1.15625,-0.79687c0.6875,-0.95833 1.04688,-1.95312 1.07813,-2.98437v-1.84375h2v1.60938c0,0.73958 -0.18229,1.47917 -0.54687,2.21875c-0.36458,0.75 -0.82292,1.34896 -1.375,1.79688zM358.99659,52.12897c0,1.82292 -0.41667,3.29167 -1.25,4.40625c-0.83333,1.11458 -1.95833,1.67188 -3.375,1.67188c-1.45833,0 -2.60417,-0.45833 -3.4375,-1.375v5.76563h-2.04687v-16.57812h1.875l0.09375,1.32813c0.83333,-1.03125 1.98958,-1.54687 3.46875,-1.54687c1.44792,0 2.58854,0.54167 3.42188,1.625c0.83333,1.08333 1.25,2.58854 1.25,4.51563zM356.94971,51.91022c0,-1.35417 -0.28646,-2.42187 -0.85937,-3.20312c-0.57292,-0.78125 -1.35937,-1.17187 -2.35937,-1.17187c-1.23958,0 -2.17187,0.54688 -2.79687,1.64063v5.71875c0.61458,1.09375 1.55208,1.64063 2.8125,1.64063c0.97917,0 1.75521,-0.38542 2.32813,-1.15625c0.58333,-0.78125 0.875,-1.9375 0.875,-3.46875zM367.37946,47.84772c-0.30208,-0.04167 -0.63542,-0.0625 -1,-0.0625c-1.34375,0 -2.25521,0.56771 -2.73437,1.70313v8.5h-2.04687v-11.96875h2l0.03125,1.375c0.66667,-1.0625 1.61458,-1.59375 2.84375,-1.59375c0.40625,0 0.70833,0.05208 0.90625,0.15625zM374.02308,58.2071c-1.625,0 -2.94792,-0.53125 -3.96875,-1.59375c-1.01042,-1.0625 -1.51562,-2.48958 -1.51562,-4.28125v-0.375c0,-1.1875 0.22396,-2.24479 0.67188,-3.17187c0.45833,-0.9375 1.09375,-1.66667 1.90625,-2.1875c0.8125,-0.53125 1.69792,-0.79687 2.65625,-0.79687c1.55208,0 2.76042,0.51563 3.625,1.54688c0.86458,1.02083 1.29688,2.48438 1.29688,4.39063v0.84375h-8.10937c0.03125,1.1875 0.375,2.14583 1.03125,2.875c0.65625,0.71875 1.49479,1.07813 2.51563,1.07813c0.71875,0 1.32813,-0.14583 1.82813,-0.4375c0.51042,-0.29167 0.95313,-0.68229 1.32813,-1.17187l1.25,0.96875c-1,1.54167 -2.50521,2.3125 -4.51562,2.3125zM373.77308,47.47272c-0.83333,0 -1.53125,0.30208 -2.09375,0.90625c-0.55208,0.60417 -0.89583,1.44792 -1.03125,2.53125h6v-0.15625c-0.0625,-1.04167 -0.34375,-1.84896 -0.84375,-2.42187c-0.5,-0.57292 -1.17708,-0.85937 -2.03125,-0.85937zM388.02601,54.81647c0,-0.55208 -0.20833,-0.97917 -0.625,-1.28125c-0.41667,-0.3125 -1.14583,-0.57812 -2.1875,-0.79687c-1.03125,-0.22917 -1.85417,-0.49479 -2.46875,-0.79687c-0.60417,-0.3125 -1.05208,-0.68229 -1.34375,-1.10937c-0.29167,-0.42708 -0.4375,-0.9375 -0.4375,-1.53125c0,-0.97917 0.41667,-1.80729 1.25,-2.48437c0.83333,-0.67708 1.89583,-1.01562 3.1875,-1.01562c1.35417,0 2.45313,0.34896 3.29688,1.04688c0.84375,0.69792 1.26563,1.59375 1.26563,2.6875h-2.0625c0,-0.5625 -0.23958,-1.04687 -0.71875,-1.45312c-0.46875,-0.40625 -1.0625,-0.60937 -1.78125,-0.60937c-0.75,0 -1.33854,0.16667 -1.76562,0.5c-0.41667,0.32292 -0.625,0.74479 -0.625,1.26563c0,0.48958 0.19271,0.86458 0.57813,1.125c0.39583,0.25 1.10417,0.48958 2.125,0.71875c1.03125,0.21875 1.85938,0.48958 2.48438,0.8125c0.63542,0.3125 1.10417,0.69271 1.40625,1.14063c0.3125,0.44792 0.46875,0.99479 0.46875,1.64063c0,1.0625 -0.42708,1.91667 -1.28125,2.5625c-0.85417,0.64583 -1.96354,0.96875 -3.32812,0.96875c-0.95833,0 -1.80729,-0.16667 -2.54687,-0.5c-0.73958,-0.34375 -1.31771,-0.81771 -1.73437,-1.42187c-0.41667,-0.61458 -0.625,-1.27604 -0.625,-1.98437h2.04688c0.04167,0.6875 0.31771,1.23438 0.82813,1.64063c0.51042,0.39583 1.1875,0.59375 2.03125,0.59375c0.77083,0 1.39063,-0.15625 1.85938,-0.46875c0.46875,-0.3125 0.70313,-0.72917 0.70313,-1.25zM399.70814,54.81647c0,-0.55208 -0.20833,-0.97917 -0.625,-1.28125c-0.41667,-0.3125 -1.14583,-0.57812 -2.1875,-0.79687c-1.03125,-0.22917 -1.85417,-0.49479 -2.46875,-0.79687c-0.60417,-0.3125 -1.05208,-0.68229 -1.34375,-1.10937c-0.29167,-0.42708 -0.4375,-0.9375 -0.4375,-1.53125c0,-0.97917 0.41667,-1.80729 1.25,-2.48437c0.83333,-0.67708 1.89583,-1.01562 3.1875,-1.01562c1.35417,0 2.45313,0.34896 3.29688,1.04688c0.84375,0.69792 1.26563,1.59375 1.26563,2.6875h-2.0625c0,-0.5625 -0.23958,-1.04687 -0.71875,-1.45312c-0.46875,-0.40625 -1.0625,-0.60937 -1.78125,-0.60937c-0.75,0 -1.33854,0.16667 -1.76562,0.5c-0.41667,0.32292 -0.625,0.74479 -0.625,1.26563c0,0.48958 0.19271,0.86458 0.57813,1.125c0.39583,0.25 1.10417,0.48958 2.125,0.71875c1.03125,0.21875 1.85938,0.48958 2.48438,0.8125c0.63542,0.3125 1.10417,0.69271 1.40625,1.14063c0.3125,0.44792 0.46875,0.99479 0.46875,1.64063c0,1.0625 -0.42708,1.91667 -1.28125,2.5625c-0.85417,0.64583 -1.96354,0.96875 -3.32812,0.96875c-0.95833,0 -1.80729,-0.16667 -2.54687,-0.5c-0.73958,-0.34375 -1.31771,-0.81771 -1.73437,-1.42187c-0.41667,-0.61458 -0.625,-1.27604 -0.625,-1.98437h2.04688c0.04167,0.6875 0.31771,1.23438 0.82813,1.64063c0.51042,0.39583 1.1875,0.59375 2.03125,0.59375c0.77083,0 1.39063,-0.15625 1.85938,-0.46875c0.46875,-0.3125 0.70313,-0.72917 0.70313,-1.25z" fill="#000000" fill-rule="nonzero" stroke-width="1" stroke-linecap="square"/><path d="M104.89505,70.11334v2.90625h2.23438v1.57813h-2.23437v7.42188c0,0.47917 0.09896,0.83854 0.29688,1.07813c0.19792,0.23958 0.53646,0.35938 1.01563,0.35938c0.23958,0 0.5625,-0.04167 0.96875,-0.125v1.65625c-0.53125,0.14583 -1.05208,0.21875 -1.5625,0.21875c-0.91667,0 -1.60937,-0.27604 -2.07812,-0.82812c-0.45833,-0.55208 -0.6875,-1.33854 -0.6875,-2.35937v-7.42187h-2.1875v-1.57812h2.1875v-2.90625zM111.56158,74.47271c0.90625,-1.11458 2.08854,-1.67187 3.54688,-1.67187c2.53125,0 3.80729,1.42708 3.82813,4.28125v7.90625h-2.04687v-7.92187c-0.01042,-0.86458 -0.20833,-1.5 -0.59375,-1.90625c-0.38542,-0.41667 -0.98958,-0.625 -1.8125,-0.625c-0.66667,0 -1.25,0.17708 -1.75,0.53125c-0.5,0.35417 -0.89062,0.81771 -1.17187,1.39063v8.53125h-2.04687v-17h2.04688zM124.2121,84.98834h-2.04687v-11.96875h2.04688zM122.00897,69.84771c0,-0.33333 0.09896,-0.61458 0.29688,-0.84375c0.20833,-0.22917 0.51042,-0.34375 0.90625,-0.34375c0.39583,0 0.69792,0.11458 0.90625,0.34375c0.20833,0.22917 0.3125,0.51042 0.3125,0.84375c0,0.33333 -0.10417,0.60938 -0.3125,0.82813c-0.20833,0.21875 -0.51042,0.32813 -0.90625,0.32813c-0.39583,0 -0.69792,-0.10937 -0.90625,-0.32812c-0.19792,-0.21875 -0.29687,-0.49479 -0.29687,-0.82812zM134.46021,81.81646c0,-0.55208 -0.20833,-0.97917 -0.625,-1.28125c-0.41667,-0.3125 -1.14583,-0.57812 -2.1875,-0.79687c-1.03125,-0.22917 -1.85417,-0.49479 -2.46875,-0.79687c-0.60417,-0.3125 -1.05208,-0.68229 -1.34375,-1.10937c-0.29167,-0.42708 -0.4375,-0.9375 -0.4375,-1.53125c0,-0.97917 0.41667,-1.80729 1.25,-2.48437c0.83333,-0.67708 1.89583,-1.01562 3.1875,-1.01562c1.35417,0 2.45313,0.34896 3.29688,1.04688c0.84375,0.69792 1.26563,1.59375 1.26563,2.6875h-2.0625c0,-0.5625 -0.23958,-1.04687 -0.71875,-1.45312c-0.46875,-0.40625 -1.0625,-0.60937 -1.78125,-0.60937c-0.75,0 -1.33854,0.16667 -1.76562,0.5c-0.41667,0.32292 -0.625,0.74479 -0.625,1.26563c0,0.48958 0.19271,0.86458 0.57813,1.125c0.39583,0.25 1.10417,0.48958 2.125,0.71875c1.03125,0.21875 1.85938,0.48958 2.48438,0.8125c0.63542,0.3125 1.10417,0.69271 1.40625,1.14063c0.3125,0.44792 0.46875,0.99479 0.46875,1.64063c0,1.0625 -0.42708,1.91667 -1.28125,2.5625c-0.85417,0.64583 -1.96354,0.96875 -3.32812,0.96875c-0.95833,0 -1.80729,-0.16667 -2.54687,-0.5c-0.73958,-0.34375 -1.31771,-0.81771 -1.73437,-1.42187c-0.41667,-0.61458 -0.625,-1.27604 -0.625,-1.98437h2.04688c0.04167,0.6875 0.31771,1.23438 0.82813,1.64063c0.51042,0.39583 1.1875,0.59375 2.03125,0.59375c0.77083,0 1.39063,-0.15625 1.85938,-0.46875c0.46875,-0.3125 0.70313,-0.72917 0.70313,-1.25zM154.92297,79.12896c0,1.83333 -0.42187,3.30729 -1.26562,4.42188c-0.84375,1.10417 -1.97396,1.65625 -3.39062,1.65625c-1.51042,0 -2.67708,-0.53646 -3.5,-1.60937l-0.10937,1.39063h-1.875v-17h2.04688v6.34375c0.82292,-1.02083 1.95833,-1.53125 3.40625,-1.53125c1.45833,0 2.60417,0.55208 3.4375,1.65625c0.83333,1.09375 1.25,2.59375 1.25,4.5zM152.8761,78.91021c0,-1.39583 -0.27083,-2.47396 -0.8125,-3.23437c-0.54167,-0.76042 -1.31771,-1.14062 -2.32812,-1.14062c-1.34375,0 -2.3125,0.625 -2.90625,1.875v5.1875c0.625,1.25 1.60417,1.875 2.9375,1.875c0.97917,0 1.73958,-0.38021 2.28125,-1.14062c0.55208,-0.76042 0.82813,-1.90104 0.82813,-3.42187zM164.88391,83.80084c-0.79167,0.9375 -1.95833,1.40625 -3.5,1.40625c-1.28125,0 -2.25521,-0.36979 -2.92187,-1.10937c-0.66667,-0.73958 -1.00521,-1.83854 -1.01562,-3.29687v-7.78125h2.04688v7.73438c0,1.8125 0.73958,2.71875 2.21875,2.71875c1.5625,0 2.60417,-0.58333 3.125,-1.75v-8.70312h2.04688v11.96875h-1.95312zM172.76425,70.11334v2.90625h2.23438v1.57813h-2.23437v7.42188c0,0.47917 0.09896,0.83854 0.29688,1.07813c0.19792,0.23958 0.53646,0.35938 1.01563,0.35938c0.23958,0 0.5625,-0.04167 0.96875,-0.125v1.65625c-0.53125,0.14583 -1.05208,0.21875 -1.5625,0.21875c-0.91667,0 -1.60937,-0.27604 -2.07812,-0.82812c-0.45833,-0.55208 -0.6875,-1.33854 -0.6875,-2.35937v-7.42187h-2.1875v-1.57812h2.1875v-2.90625zM180.16513,70.11334v2.90625h2.23438v1.57813h-2.23437v7.42188c0,0.47917 0.09896,0.83854 0.29688,1.07813c0.19792,0.23958 0.53646,0.35938 1.01563,0.35938c0.23958,0 0.5625,-0.04167 0.96875,-0.125v1.65625c-0.53125,0.14583 -1.05208,0.21875 -1.5625,0.21875c-0.91667,0 -1.60937,-0.27604 -2.07812,-0.82812c-0.45833,-0.55208 -0.6875,-1.33854 -0.6875,-2.35937v-7.42187h-2.1875v-1.57812h2.1875v-2.90625zM184.01654,78.89459c0,-1.17708 0.22917,-2.23437 0.6875,-3.17187c0.46875,-0.9375 1.11458,-1.65625 1.9375,-2.15625c0.82292,-0.51042 1.76042,-0.76562 2.8125,-0.76562c1.63542,0 2.95313,0.5625 3.95313,1.6875c1.01042,1.125 1.51563,2.625 1.51563,4.5v0.14063c0,1.16667 -0.22396,2.21354 -0.67187,3.14063c-0.44792,0.92708 -1.08854,1.65104 -1.92187,2.17188c-0.82292,0.51042 -1.77604,0.76563 -2.85937,0.76563c-1.61458,0 -2.92708,-0.5625 -3.9375,-1.6875c-1.01042,-1.125 -1.51562,-2.61979 -1.51562,-4.48437zM186.07904,79.12896c0,1.33333 0.30729,2.40104 0.92188,3.20313c0.61458,0.80208 1.4375,1.20313 2.46875,1.20313c1.04167,0 1.86979,-0.40625 2.48438,-1.21875c0.61458,-0.8125 0.92188,-1.95312 0.92188,-3.42187c0,-1.3125 -0.3125,-2.375 -0.9375,-3.1875c-0.625,-0.82292 -1.45312,-1.23437 -2.48437,-1.23437c-1.01042,0 -1.82812,0.40625 -2.45312,1.21875c-0.61458,0.80208 -0.92187,1.94792 -0.92187,3.4375zM199.42206,73.01959l0.0625,1.5c0.91667,-1.14583 2.11458,-1.71875 3.59375,-1.71875c2.53125,0 3.80729,1.42708 3.82813,4.28125v7.90625h-2.04687v-7.92187c-0.01042,-0.86458 -0.20833,-1.5 -0.59375,-1.90625c-0.38542,-0.41667 -0.98958,-0.625 -1.8125,-0.625c-0.66667,0 -1.25,0.17708 -1.75,0.53125c-0.5,0.35417 -0.89062,0.81771 -1.17187,1.39063v8.53125h-2.04687v-11.96875zM218.37534,70.11334v2.90625h2.23438v1.57813h-2.23437v7.42188c0,0.47917 0.09896,0.83854 0.29688,1.07813c0.19792,0.23958 0.53646,0.35938 1.01563,0.35938c0.23958,0 0.5625,-0.04167 0.96875,-0.125v1.65625c-0.53125,0.14583 -1.05208,0.21875 -1.5625,0.21875c-0.91667,0 -1.60937,-0.27604 -2.07812,-0.82812c-0.45833,-0.55208 -0.6875,-1.33854 -0.6875,-2.35937v-7.42187h-2.1875v-1.57812h2.1875v-2.90625zM222.22675,78.89459c0,-1.17708 0.22917,-2.23437 0.6875,-3.17187c0.46875,-0.9375 1.11458,-1.65625 1.9375,-2.15625c0.82292,-0.51042 1.76042,-0.76562 2.8125,-0.76562c1.63542,0 2.95313,0.5625 3.95313,1.6875c1.01042,1.125 1.51563,2.625 1.51563,4.5v0.14063c0,1.16667 -0.22396,2.21354 -0.67187,3.14063c-0.44792,0.92708 -1.08854,1.65104 -1.92187,2.17188c-0.82292,0.51042 -1.77604,0.76563 -2.85937,0.76563c-1.61458,0 -2.92708,-0.5625 -3.9375,-1.6875c-1.01042,-1.125 -1.51562,-2.61979 -1.51562,-4.48437zM224.28925,79.12896c0,1.33333 0.30729,2.40104 0.92188,3.20313c0.61458,0.80208 1.4375,1.20313 2.46875,1.20313c1.04167,0 1.86979,-0.40625 2.48438,-1.21875c0.61458,-0.8125 0.92188,-1.95312 0.92188,-3.42187c0,-1.3125 -0.3125,-2.375 -0.9375,-3.1875c-0.625,-0.82292 -1.45312,-1.23437 -2.48437,-1.23437c-1.01042,0 -1.82812,0.40625 -2.45312,1.21875c-0.61458,0.80208 -0.92187,1.94792 -0.92187,3.4375zM247.08475,74.84771c-0.30208,-0.04167 -0.63542,-0.0625 -1,-0.0625c-1.34375,0 -2.25521,0.56771 -2.73437,1.70313v8.5h-2.04687v-11.96875h2l0.03125,1.375c0.66667,-1.0625 1.61458,-1.59375 2.84375,-1.59375c0.40625,0 0.70833,0.05208 0.90625,0.15625zM255.91782,84.98834c-0.11458,-0.23958 -0.20833,-0.66146 -0.28125,-1.26562c-0.95833,0.98958 -2.09375,1.48438 -3.40625,1.48438c-1.1875,0 -2.16146,-0.33333 -2.92187,-1c-0.75,-0.66667 -1.125,-1.51042 -1.125,-2.53125c0,-1.25 0.47396,-2.21875 1.42188,-2.90625c0.94792,-0.6875 2.28125,-1.03125 4,-1.03125h2v-0.95312c0,-0.70833 -0.21875,-1.27604 -0.65625,-1.70312c-0.42708,-0.42708 -1.05729,-0.64062 -1.89062,-0.64062c-0.72917,0 -1.34375,0.1875 -1.84375,0.5625c-0.48958,0.36458 -0.73437,0.80729 -0.73437,1.32813h-2.04687c0,-0.59375 0.20833,-1.16667 0.625,-1.71875c0.42708,-0.5625 1.00521,-1.00521 1.73438,-1.32812c0.72917,-0.32292 1.52604,-0.48437 2.39063,-0.48437c1.38542,0 2.46875,0.34375 3.25,1.03125c0.78125,0.6875 1.1875,1.63542 1.21875,2.84375v5.51563c0,1.09375 0.13542,1.96875 0.40625,2.625v0.17188zM252.52719,83.42584c0.63542,0 1.23958,-0.16667 1.8125,-0.5c0.58333,-0.33333 1.00521,-0.76562 1.26563,-1.29687v-2.45312h-1.60937c-2.51042,0 -3.76562,0.73438 -3.76562,2.20313c0,0.64583 0.21354,1.15104 0.64063,1.51563c0.42708,0.35417 0.97917,0.53125 1.65625,0.53125zM265.64783,83.53521c0.72917,0 1.36458,-0.21875 1.90625,-0.65625c0.55208,-0.44792 0.85938,-1 0.92188,-1.65625h1.9375c-0.04167,0.67708 -0.28125,1.32813 -0.71875,1.95313c-0.42708,0.61458 -1.00521,1.10938 -1.73437,1.48438c-0.72917,0.36458 -1.5,0.54688 -2.3125,0.54688c-1.625,0 -2.92187,-0.54167 -3.89062,-1.625c-0.95833,-1.09375 -1.4375,-2.58333 -1.4375,-4.46875v-0.34375c0,-1.16667 0.21354,-2.20312 0.64063,-3.10937c0.42708,-0.90625 1.04167,-1.60937 1.84375,-2.10937c0.80208,-0.5 1.75,-0.75 2.84375,-0.75c1.34375,0 2.45833,0.40104 3.34375,1.20313c0.88542,0.80208 1.35938,1.84375 1.42188,3.125h-1.9375c-0.0625,-0.77083 -0.35937,-1.40625 -0.89062,-1.90625c-0.52083,-0.5 -1.16667,-0.75 -1.9375,-0.75c-1.04167,0 -1.84896,0.375 -2.42187,1.125c-0.57292,0.75 -0.85937,1.83333 -0.85937,3.25v0.39063c0,1.375 0.28125,2.4375 0.84375,3.1875c0.57292,0.73958 1.38542,1.10938 2.4375,1.10938zM277.67884,85.20709c-1.625,0 -2.94792,-0.53125 -3.96875,-1.59375c-1.01042,-1.0625 -1.51562,-2.48958 -1.51562,-4.28125v-0.375c0,-1.1875 0.22396,-2.24479 0.67188,-3.17187c0.45833,-0.9375 1.09375,-1.66667 1.90625,-2.1875c0.8125,-0.53125 1.69792,-0.79687 2.65625,-0.79687c1.55208,0 2.76042,0.51563 3.625,1.54688c0.86458,1.02083 1.29688,2.48438 1.29688,4.39063v0.84375h-8.10937c0.03125,1.1875 0.375,2.14583 1.03125,2.875c0.65625,0.71875 1.49479,1.07813 2.51563,1.07813c0.71875,0 1.32813,-0.14583 1.82813,-0.4375c0.51042,-0.29167 0.95313,-0.68229 1.32813,-1.17187l1.25,0.96875c-1,1.54167 -2.50521,2.3125 -4.51562,2.3125zM277.42884,74.47271c-0.83333,0 -1.53125,0.30208 -2.09375,0.90625c-0.55208,0.60417 -0.89583,1.44792 -1.03125,2.53125h6v-0.15625c-0.0625,-1.04167 -0.34375,-1.84896 -0.84375,-2.42187c-0.5,-0.57292 -1.17708,-0.85937 -2.03125,-0.85937zM289.7749,78.89459c0,-1.17708 0.22917,-2.23437 0.6875,-3.17187c0.46875,-0.9375 1.11458,-1.65625 1.9375,-2.15625c0.82292,-0.51042 1.76042,-0.76562 2.8125,-0.76562c1.63542,0 2.95313,0.5625 3.95313,1.6875c1.01042,1.125 1.51563,2.625 1.51563,4.5v0.14063c0,1.16667 -0.22396,2.21354 -0.67187,3.14063c-0.44792,0.92708 -1.08854,1.65104 -1.92187,2.17188c-0.82292,0.51042 -1.77604,0.76563 -2.85937,0.76563c-1.61458,0 -2.92708,-0.5625 -3.9375,-1.6875c-1.01042,-1.125 -1.51562,-2.61979 -1.51562,-4.48437zM291.8374,79.12896c0,1.33333 0.30729,2.40104 0.92188,3.20313c0.61458,0.80208 1.4375,1.20313 2.46875,1.20313c1.04167,0 1.86979,-0.40625 2.48438,-1.21875c0.61458,-0.8125 0.92188,-1.95312 0.92188,-3.42187c0,-1.3125 -0.3125,-2.375 -0.9375,-3.1875c-0.625,-0.82292 -1.45312,-1.23437 -2.48437,-1.23437c-1.01042,0 -1.82812,0.40625 -2.45312,1.21875c-0.61458,0.80208 -0.92187,1.94792 -0.92187,3.4375zM305.18042,73.01959l0.0625,1.5c0.91667,-1.14583 2.11458,-1.71875 3.59375,-1.71875c2.53125,0 3.80729,1.42708 3.82813,4.28125v7.90625h-2.04687v-7.92187c-0.01042,-0.86458 -0.20833,-1.5 -0.59375,-1.90625c-0.38542,-0.41667 -0.98958,-0.625 -1.8125,-0.625c-0.66667,0 -1.25,0.17708 -1.75,0.53125c-0.5,0.35417 -0.89062,0.81771 -1.17187,1.39063v8.53125h-2.04687v-11.96875zM317.96247,84.98834h-2.04687v-17h2.04688zM323.46057,84.98834h-2.04687v-11.96875h2.04688zM321.25745,69.84771c0,-0.33333 0.09896,-0.61458 0.29688,-0.84375c0.20833,-0.22917 0.51042,-0.34375 0.90625,-0.34375c0.39583,0 0.69792,0.11458 0.90625,0.34375c0.20833,0.22917 0.3125,0.51042 0.3125,0.84375c0,0.33333 -0.10417,0.60938 -0.3125,0.82813c-0.20833,0.21875 -0.51042,0.32813 -0.90625,0.32813c-0.39583,0 -0.69792,-0.10937 -0.90625,-0.32812c-0.19792,-0.21875 -0.29687,-0.49479 -0.29687,-0.82812zM328.67743,73.01959l0.0625,1.5c0.91667,-1.14583 2.11458,-1.71875 3.59375,-1.71875c2.53125,0 3.80729,1.42708 3.82813,4.28125v7.90625h-2.04687v-7.92187c-0.01042,-0.86458 -0.20833,-1.5 -0.59375,-1.90625c-0.38542,-0.41667 -0.98958,-0.625 -1.8125,-0.625c-0.66667,0 -1.25,0.17708 -1.75,0.53125c-0.5,0.35417 -0.89062,0.81771 -1.17187,1.39063v8.53125h-2.04687v-11.96875zM344.20947,85.20709c-1.625,0 -2.94792,-0.53125 -3.96875,-1.59375c-1.01042,-1.0625 -1.51562,-2.48958 -1.51562,-4.28125v-0.375c0,-1.1875 0.22396,-2.24479 0.67188,-3.17187c0.45833,-0.9375 1.09375,-1.66667 1.90625,-2.1875c0.8125,-0.53125 1.69792,-0.79687 2.65625,-0.79687c1.55208,0 2.76042,0.51563 3.625,1.54688c0.86458,1.02083 1.29688,2.48438 1.29688,4.39063v0.84375h-8.10937c0.03125,1.1875 0.375,2.14583 1.03125,2.875c0.65625,0.71875 1.49479,1.07813 2.51563,1.07813c0.71875,0 1.32813,-0.14583 1.82813,-0.4375c0.51042,-0.29167 0.95313,-0.68229 1.32813,-1.17187l1.25,0.96875c-1,1.54167 -2.50521,2.3125 -4.51562,2.3125zM343.95947,74.47271c-0.83333,0 -1.53125,0.30208 -2.09375,0.90625c-0.55208,0.60417 -0.89583,1.44792 -1.03125,2.53125h6v-0.15625c-0.0625,-1.04167 -0.34375,-1.84896 -0.84375,-2.42187c-0.5,-0.57292 -1.17708,-0.85937 -2.03125,-0.85937zM359.63367,70.11334v2.90625h2.23438v1.57813h-2.23437v7.42188c0,0.47917 0.09896,0.83854 0.29688,1.07813c0.19792,0.23958 0.53646,0.35938 1.01563,0.35938c0.23958,0 0.5625,-0.04167 0.96875,-0.125v1.65625c-0.53125,0.14583 -1.05208,0.21875 -1.5625,0.21875c-0.91667,0 -1.60937,-0.27604 -2.07812,-0.82812c-0.45833,-0.55208 -0.6875,-1.33854 -0.6875,-2.35937v-7.42187h-2.1875v-1.57812h2.1875v-2.90625zM363.48505,78.89459c0,-1.17708 0.22917,-2.23437 0.6875,-3.17187c0.46875,-0.9375 1.11458,-1.65625 1.9375,-2.15625c0.82292,-0.51042 1.76042,-0.76562 2.8125,-0.76562c1.63542,0 2.95313,0.5625 3.95313,1.6875c1.01042,1.125 1.51563,2.625 1.51563,4.5v0.14063c0,1.16667 -0.22396,2.21354 -0.67187,3.14063c-0.44792,0.92708 -1.08854,1.65104 -1.92187,2.17188c-0.82292,0.51042 -1.77604,0.76563 -2.85937,0.76563c-1.61458,0 -2.92708,-0.5625 -3.9375,-1.6875c-1.01042,-1.125 -1.51562,-2.61979 -1.51562,-4.48437zM365.54755,79.12896c0,1.33333 0.30729,2.40104 0.92188,3.20313c0.61458,0.80208 1.4375,1.20313 2.46875,1.20313c1.04167,0 1.86979,-0.40625 2.48438,-1.21875c0.61458,-0.8125 0.92188,-1.95312 0.92188,-3.42187c0,-1.3125 -0.3125,-2.375 -0.9375,-3.1875c-0.625,-0.82292 -1.45312,-1.23437 -2.48437,-1.23437c-1.01042,0 -1.82812,0.40625 -2.45312,1.21875c-0.61458,0.80208 -0.92187,1.94792 -0.92187,3.4375zM385.34308,70.11334v2.90625h2.23438v1.57813h-2.23437v7.42188c0,0.47917 0.09896,0.83854 0.29688,1.07813c0.19792,0.23958 0.53646,0.35938 1.01563,0.35938c0.23958,0 0.5625,-0.04167 0.96875,-0.125v1.65625c-0.53125,0.14583 -1.05208,0.21875 -1.5625,0.21875c-0.91667,0 -1.60937,-0.27604 -2.07812,-0.82812c-0.45833,-0.55208 -0.6875,-1.33854 -0.6875,-2.35937v-7.42187h-2.1875v-1.57812h2.1875v-2.90625zM392.00958,74.47271c0.90625,-1.11458 2.08854,-1.67187 3.54688,-1.67187c2.53125,0 3.80729,1.42708 3.82813,4.28125v7.90625h-2.04687v-7.92187c-0.01042,-0.86458 -0.20833,-1.5 -0.59375,-1.90625c-0.38542,-0.41667 -0.98958,-0.625 -1.8125,-0.625c-0.66667,0 -1.25,0.17708 -1.75,0.53125c-0.5,0.35417 -0.89062,0.81771 -1.17187,1.39063v8.53125h-2.04687v-17h2.04688zM407.4101,85.20709c-1.625,0 -2.94792,-0.53125 -3.96875,-1.59375c-1.01042,-1.0625 -1.51562,-2.48958 -1.51562,-4.28125v-0.375c0,-1.1875 0.22396,-2.24479 0.67188,-3.17187c0.45833,-0.9375 1.09375,-1.66667 1.90625,-2.1875c0.8125,-0.53125 1.69792,-0.79687 2.65625,-0.79687c1.55208,0 2.76042,0.51563 3.625,1.54688c0.86458,1.02083 1.29688,2.48438 1.29688,4.39063v0.84375h-8.10937c0.03125,1.1875 0.375,2.14583 1.03125,2.875c0.65625,0.71875 1.49479,1.07813 2.51563,1.07813c0.71875,0 1.32813,-0.14583 1.82813,-0.4375c0.51042,-0.29167 0.95313,-0.68229 1.32813,-1.17187l1.25,0.96875c-1,1.54167 -2.50521,2.3125 -4.51562,2.3125zM407.1601,74.47271c-0.83333,0 -1.53125,0.30208 -2.09375,0.90625c-0.55208,0.60417 -0.89583,1.44792 -1.03125,2.53125h6v-0.15625c-0.0625,-1.04167 -0.34375,-1.84896 -0.84375,-2.42187c-0.5,-0.57292 -1.17708,-0.85937 -2.03125,-0.85937z" fill="#000000" fill-rule="nonzero" stroke-width="1" stroke-linecap="square"/><path d="M104.89505,97.11334v2.90625h2.23438v1.57813h-2.23437v7.42188c0,0.47917 0.09896,0.83854 0.29688,1.07813c0.19792,0.23958 0.53646,0.35938 1.01563,0.35938c0.23958,0 0.5625,-0.04167 0.96875,-0.125v1.65625c-0.53125,0.14583 -1.05208,0.21875 -1.5625,0.21875c-0.91667,0 -1.60937,-0.27604 -2.07812,-0.82812c-0.45833,-0.55208 -0.6875,-1.33854 -0.6875,-2.35937v-7.42187h-2.1875v-1.57812h2.1875v-2.90625zM108.74646,105.89459c0,-1.17708 0.22917,-2.23437 0.6875,-3.17187c0.46875,-0.9375 1.11458,-1.65625 1.9375,-2.15625c0.82292,-0.51042 1.76042,-0.76562 2.8125,-0.76562c1.63542,0 2.95313,0.5625 3.95313,1.6875c1.01042,1.125 1.51563,2.625 1.51563,4.5v0.14063c0,1.16667 -0.22396,2.21354 -0.67187,3.14063c-0.44792,0.92708 -1.08854,1.65104 -1.92187,2.17188c-0.82292,0.51042 -1.77604,0.76563 -2.85937,0.76563c-1.61458,0 -2.92708,-0.5625 -3.9375,-1.6875c-1.01042,-1.125 -1.51562,-2.61979 -1.51562,-4.48437zM110.80896,106.12897c0,1.33333 0.30729,2.40104 0.92188,3.20313c0.61458,0.80208 1.4375,1.20313 2.46875,1.20313c1.04167,0 1.86979,-0.40625 2.48438,-1.21875c0.61458,-0.8125 0.92188,-1.95312 0.92188,-3.42187c0,-1.3125 -0.3125,-2.375 -0.9375,-3.1875c-0.625,-0.82292 -1.45312,-1.23437 -2.48437,-1.23437c-1.01042,0 -1.82812,0.40625 -2.45312,1.21875c-0.61458,0.80208 -0.92187,1.94792 -0.92187,3.4375zM132.32385,106.12897c0,1.82292 -0.41667,3.29167 -1.25,4.40625c-0.83333,1.11458 -1.95833,1.67188 -3.375,1.67188c-1.45833,0 -2.60417,-0.45833 -3.4375,-1.375v5.76563h-2.04687v-16.57812h1.875l0.09375,1.32813c0.83333,-1.03125 1.98958,-1.54687 3.46875,-1.54687c1.44792,0 2.58854,0.54167 3.42188,1.625c0.83333,1.08333 1.25,2.58854 1.25,4.51563zM130.27698,105.91022c0,-1.35417 -0.28646,-2.42187 -0.85937,-3.20312c-0.57292,-0.78125 -1.35937,-1.17187 -2.35937,-1.17187c-1.23958,0 -2.17187,0.54688 -2.79687,1.64063v5.71875c0.61458,1.09375 1.55208,1.64063 2.8125,1.64063c0.97917,0 1.75521,-0.38542 2.32813,-1.15625c0.58333,-0.78125 0.875,-1.9375 0.875,-3.46875zM139.98731,105.89459c0,-1.17708 0.22917,-2.23437 0.6875,-3.17187c0.46875,-0.9375 1.11458,-1.65625 1.9375,-2.15625c0.82292,-0.51042 1.76042,-0.76562 2.8125,-0.76562c1.63542,0 2.95313,0.5625 3.95313,1.6875c1.01042,1.125 1.51563,2.625 1.51563,4.5v0.14063c0,1.16667 -0.22396,2.21354 -0.67187,3.14063c-0.44792,0.92708 -1.08854,1.65104 -1.92187,2.17188c-0.82292,0.51042 -1.77604,0.76563 -2.85937,0.76563c-1.61458,0 -2.92708,-0.5625 -3.9375,-1.6875c-1.01042,-1.125 -1.51562,-2.61979 -1.51562,-4.48437zM142.04981,106.12897c0,1.33333 0.30729,2.40104 0.92188,3.20313c0.61458,0.80208 1.4375,1.20313 2.46875,1.20313c1.04167,0 1.86979,-0.40625 2.48438,-1.21875c0.61458,-0.8125 0.92188,-1.95312 0.92188,-3.42187c0,-1.3125 -0.3125,-2.375 -0.9375,-3.1875c-0.625,-0.82292 -1.45312,-1.23437 -2.48437,-1.23437c-1.01042,0 -1.82812,0.40625 -2.45312,1.21875c-0.61458,0.80208 -0.92187,1.94792 -0.92187,3.4375zM154.47095,111.98834v-10.39062h-1.90625v-1.57812h1.90625v-1.23437c0,-1.28125 0.33854,-2.27083 1.01563,-2.96875c0.6875,-0.69792 1.66146,-1.04687 2.92188,-1.04687c0.46875,0 0.9375,0.0625 1.40625,0.1875l-0.125,1.65625c-0.34375,-0.07292 -0.70833,-0.10937 -1.09375,-0.10937c-0.66667,0 -1.18229,0.19792 -1.54687,0.59375c-0.35417,0.38542 -0.53125,0.9375 -0.53125,1.65625v1.26563h2.54688v1.57813h-2.54687v10.39063zM174.32022,111.98834c-0.11458,-0.23958 -0.20833,-0.66146 -0.28125,-1.26562c-0.95833,0.98958 -2.09375,1.48438 -3.40625,1.48438c-1.1875,0 -2.16146,-0.33333 -2.92187,-1c-0.75,-0.66667 -1.125,-1.51042 -1.125,-2.53125c0,-1.25 0.47396,-2.21875 1.42188,-2.90625c0.94792,-0.6875 2.28125,-1.03125 4,-1.03125h2v-0.95312c0,-0.70833 -0.21875,-1.27604 -0.65625,-1.70312c-0.42708,-0.42708 -1.05729,-0.64062 -1.89062,-0.64062c-0.72917,0 -1.34375,0.1875 -1.84375,0.5625c-0.48958,0.36458 -0.73437,0.80729 -0.73437,1.32813h-2.04687c0,-0.59375 0.20833,-1.16667 0.625,-1.71875c0.42708,-0.5625 1.00521,-1.00521 1.73438,-1.32812c0.72917,-0.32292 1.52604,-0.48437 2.39063,-0.48437c1.38542,0 2.46875,0.34375 3.25,1.03125c0.78125,0.6875 1.1875,1.63542 1.21875,2.84375v5.51563c0,1.09375 0.13542,1.96875 0.40625,2.625v0.17188zM170.9296,110.42584c0.63542,0 1.23958,-0.16667 1.8125,-0.5c0.58333,-0.33333 1.00521,-0.76562 1.26563,-1.29687v-2.45312h-1.60937c-2.51042,0 -3.76562,0.73438 -3.76562,2.20313c0,0.64583 0.21354,1.15104 0.64063,1.51563c0.42708,0.35417 0.97917,0.53125 1.65625,0.53125zM191.83087,108.81647c0,-0.55208 -0.20833,-0.97917 -0.625,-1.28125c-0.41667,-0.3125 -1.14583,-0.57812 -2.1875,-0.79687c-1.03125,-0.22917 -1.85417,-0.49479 -2.46875,-0.79687c-0.60417,-0.3125 -1.05208,-0.68229 -1.34375,-1.10937c-0.29167,-0.42708 -0.4375,-0.9375 -0.4375,-1.53125c0,-0.97917 0.41667,-1.80729 1.25,-2.48437c0.83333,-0.67708 1.89583,-1.01562 3.1875,-1.01562c1.35417,0 2.45313,0.34896 3.29688,1.04688c0.84375,0.69792 1.26563,1.59375 1.26563,2.6875h-2.0625c0,-0.5625 -0.23958,-1.04687 -0.71875,-1.45312c-0.46875,-0.40625 -1.0625,-0.60937 -1.78125,-0.60937c-0.75,0 -1.33854,0.16667 -1.76562,0.5c-0.41667,0.32292 -0.625,0.74479 -0.625,1.26563c0,0.48958 0.19271,0.86458 0.57813,1.125c0.39583,0.25 1.10417,0.48958 2.125,0.71875c1.03125,0.21875 1.85938,0.48958 2.48438,0.8125c0.63542,0.3125 1.10417,0.69271 1.40625,1.14063c0.3125,0.44792 0.46875,0.99479 0.46875,1.64063c0,1.0625 -0.42708,1.91667 -1.28125,2.5625c-0.85417,0.64583 -1.96354,0.96875 -3.32812,0.96875c-0.95833,0 -1.80729,-0.16667 -2.54687,-0.5c-0.73958,-0.34375 -1.31771,-0.81771 -1.73437,-1.42187c-0.41667,-0.61458 -0.625,-1.27604 -0.625,-1.98437h2.04688c0.04167,0.6875 0.31771,1.23438 0.82813,1.64063c0.51042,0.39583 1.1875,0.59375 2.03125,0.59375c0.77083,0 1.39063,-0.15625 1.85938,-0.46875c0.46875,-0.3125 0.70313,-0.72917 0.70313,-1.25zM201.513,112.20709c-1.625,0 -2.94792,-0.53125 -3.96875,-1.59375c-1.01042,-1.0625 -1.51562,-2.48958 -1.51562,-4.28125v-0.375c0,-1.1875 0.22396,-2.24479 0.67188,-3.17187c0.45833,-0.9375 1.09375,-1.66667 1.90625,-2.1875c0.8125,-0.53125 1.69792,-0.79687 2.65625,-0.79687c1.55208,0 2.76042,0.51563 3.625,1.54688c0.86458,1.02083 1.29688,2.48438 1.29688,4.39063v0.84375h-8.10937c0.03125,1.1875 0.375,2.14583 1.03125,2.875c0.65625,0.71875 1.49479,1.07813 2.51563,1.07813c0.71875,0 1.32813,-0.14583 1.82813,-0.4375c0.51042,-0.29167 0.95313,-0.68229 1.32813,-1.17187l1.25,0.96875c-1,1.54167 -2.50521,2.3125 -4.51562,2.3125zM201.263,101.47272c-0.83333,0 -1.53125,0.30208 -2.09375,0.90625c-0.55208,0.60417 -0.89583,1.44792 -1.03125,2.53125h6v-0.15625c-0.0625,-1.04167 -0.34375,-1.84896 -0.84375,-2.42187c-0.5,-0.57292 -1.17708,-0.85937 -2.03125,-0.85937zM210.46906,100.01959l0.0625,1.32813c0.875,-1.03125 2.05729,-1.54687 3.54688,-1.54687c1.67708,0 2.81771,0.64063 3.42188,1.92188c0.39583,-0.57292 0.91146,-1.03646 1.54688,-1.39062c0.64583,-0.35417 1.40104,-0.53125 2.26563,-0.53125c2.625,0 3.95833,1.39063 4,4.17188v8.01563h-2.04687v-7.90625c0,-0.85417 -0.19792,-1.48958 -0.59375,-1.90625c-0.38542,-0.42708 -1.03646,-0.64062 -1.95312,-0.64062c-0.76042,0 -1.39062,0.22917 -1.89062,0.6875c-0.5,0.44792 -0.79167,1.05729 -0.875,1.82813v7.9375h-2.0625v-7.84375c0,-1.73958 -0.84896,-2.60937 -2.54687,-2.60937c-1.34375,0 -2.26562,0.57292 -2.76562,1.71875v8.73438h-2.04687v-11.96875zM230.62335,111.98834h-2.04687v-11.96875h2.04688zM228.42023,96.84772c0,-0.33333 0.09896,-0.61458 0.29688,-0.84375c0.20833,-0.22917 0.51042,-0.34375 0.90625,-0.34375c0.39583,0 0.69792,0.11458 0.90625,0.34375c0.20833,0.22917 0.3125,0.51042 0.3125,0.84375c0,0.33333 -0.10417,0.60938 -0.3125,0.82813c-0.20833,0.21875 -0.51042,0.32813 -0.90625,0.32813c-0.39583,0 -0.69792,-0.10937 -0.90625,-0.32812c-0.19792,-0.21875 -0.29687,-0.49479 -0.29687,-0.82812zM238.16834,105.98834h-5.40625v-1.67187h5.40625zM245.93436,101.84772c-0.30208,-0.04167 -0.63542,-0.0625 -1,-0.0625c-1.34375,0 -2.25521,0.56771 -2.73437,1.70313v8.5h-2.04687v-11.96875h2l0.03125,1.375c0.66667,-1.0625 1.61458,-1.59375 2.84375,-1.59375c0.40625,0 0.70833,0.05208 0.90625,0.15625zM254.76743,111.98834c-0.11458,-0.23958 -0.20833,-0.66146 -0.28125,-1.26562c-0.95833,0.98958 -2.09375,1.48438 -3.40625,1.48438c-1.1875,0 -2.16146,-0.33333 -2.92187,-1c-0.75,-0.66667 -1.125,-1.51042 -1.125,-2.53125c0,-1.25 0.47396,-2.21875 1.42188,-2.90625c0.94792,-0.6875 2.28125,-1.03125 4,-1.03125h2v-0.95312c0,-0.70833 -0.21875,-1.27604 -0.65625,-1.70312c-0.42708,-0.42708 -1.05729,-0.64062 -1.89062,-0.64062c-0.72917,0 -1.34375,0.1875 -1.84375,0.5625c-0.48958,0.36458 -0.73437,0.80729 -0.73437,1.32813h-2.04687c0,-0.59375 0.20833,-1.16667 0.625,-1.71875c0.42708,-0.5625 1.00521,-1.00521 1.73438,-1.32812c0.72917,-0.32292 1.52604,-0.48437 2.39063,-0.48437c1.38542,0 2.46875,0.34375 3.25,1.03125c0.78125,0.6875 1.1875,1.63542 1.21875,2.84375v5.51563c0,1.09375 0.13542,1.96875 0.40625,2.625v0.17188zM251.3768,110.42584c0.63542,0 1.23958,-0.16667 1.8125,-0.5c0.58333,-0.33333 1.00521,-0.76562 1.26563,-1.29687v-2.45312h-1.60937c-2.51042,0 -3.76562,0.73438 -3.76562,2.20313c0,0.64583 0.21354,1.15104 0.64063,1.51563c0.42708,0.35417 0.97917,0.53125 1.65625,0.53125zM261.63806,100.01959l0.0625,1.5c0.91667,-1.14583 2.11458,-1.71875 3.59375,-1.71875c2.53125,0 3.80729,1.42708 3.82813,4.28125v7.90625h-2.04687v-7.92187c-0.01042,-0.86458 -0.20833,-1.5 -0.59375,-1.90625c-0.38542,-0.41667 -0.98958,-0.625 -1.8125,-0.625c-0.66667,0 -1.25,0.17708 -1.75,0.53125c-0.5,0.35417 -0.89062,0.81771 -1.17187,1.39063v8.53125h-2.04687v-11.96875zM271.70133,105.91022c0,-1.84375 0.43228,-3.32292 1.29684,-4.4375c0.875,-1.11458 2.02083,-1.67187 3.4375,-1.67187c1.39583,0 2.50521,0.47917 3.32813,1.4375v-6.25h2.04688v17h-1.89062l-0.09375,-1.28125c-0.82292,1 -1.96354,1.5 -3.42187,1.5c-1.38542,0 -2.51562,-0.56771 -3.39062,-1.70312c-0.87498,-1.13542 -1.31247,-2.61458 -1.31247,-4.4375zM273.74817,106.12897c0,1.36458 0.28125,2.43229 0.84375,3.20313c0.5625,0.76042 1.33854,1.14063 2.32813,1.14063c1.29167,0 2.23958,-0.58333 2.84375,-1.75v-5.5c-0.61458,-1.125 -1.55729,-1.6875 -2.82812,-1.6875c-1,0 -1.78125,0.39063 -2.34375,1.17188c-0.5625,0.77083 -0.84375,1.91146 -0.84375,3.42188zM284.43177,105.89459c0,-1.17708 0.22917,-2.23437 0.6875,-3.17187c0.46875,-0.9375 1.11458,-1.65625 1.9375,-2.15625c0.82292,-0.51042 1.76042,-0.76562 2.8125,-0.76562c1.63542,0 2.95313,0.5625 3.95313,1.6875c1.01042,1.125 1.51563,2.625 1.51563,4.5v0.14063c0,1.16667 -0.22396,2.21354 -0.67187,3.14063c-0.44792,0.92708 -1.08854,1.65104 -1.92187,2.17188c-0.82292,0.51042 -1.77604,0.76563 -2.85937,0.76563c-1.61458,0 -2.92708,-0.5625 -3.9375,-1.6875c-1.01042,-1.125 -1.51562,-2.61979 -1.51562,-4.48437zM286.49427,106.12897c0,1.33333 0.30729,2.40104 0.92188,3.20313c0.61458,0.80208 1.4375,1.20313 2.46875,1.20313c1.04167,0 1.86979,-0.40625 2.48438,-1.21875c0.61458,-0.8125 0.92188,-1.95312 0.92188,-3.42187c0,-1.3125 -0.3125,-2.375 -0.9375,-3.1875c-0.625,-0.82292 -1.45312,-1.23437 -2.48437,-1.23437c-1.01042,0 -1.82812,0.40625 -2.45312,1.21875c-0.61458,0.80208 -0.92187,1.94792 -0.92187,3.4375zM299.82166,100.01959l0.0625,1.32813c0.875,-1.03125 2.05729,-1.54687 3.54688,-1.54687c1.67708,0 2.81771,0.64063 3.42188,1.92188c0.39583,-0.57292 0.91146,-1.03646 1.54688,-1.39062c0.64583,-0.35417 1.40104,-0.53125 2.26563,-0.53125c2.625,0 3.95833,1.39063 4,4.17188v8.01563h-2.04687v-7.90625c0,-0.85417 -0.19792,-1.48958 -0.59375,-1.90625c-0.38542,-0.42708 -1.03646,-0.64062 -1.95312,-0.64062c-0.76042,0 -1.39062,0.22917 -1.89062,0.6875c-0.5,0.44792 -0.79167,1.05729 -0.875,1.82813v7.9375h-2.0625v-7.84375c0,-1.73958 -0.84896,-2.60937 -2.54687,-2.60937c-1.34375,0 -2.26562,0.57292 -2.76562,1.71875v8.73438h-2.04687v-11.96875zM319.97596,111.98834h-2.04687v-17h2.04688zM327.17719,108.98834l2.78125,-8.96875h2.1875l-4.8125,13.8125c-0.73958,1.98958 -1.92187,2.98438 -3.54687,2.98438l-0.39062,-0.03125l-0.76562,-0.14062v-1.65625l0.5625,0.04688c0.6875,0 1.22396,-0.14062 1.60938,-0.42187c0.39583,-0.28125 0.71875,-0.79687 0.96875,-1.54687l0.45313,-1.20312l-4.26562,-11.84375h2.23438z" fill="#000000" fill-rule="nonzero" stroke-width="1" stroke-linecap="square"/><path d="M101.62943,132.91022c0,-1.875 0.43229,-3.35937 1.29688,-4.45312c0.86458,-1.10417 2.00521,-1.65625 3.42188,-1.65625c1.45833,0 2.59896,0.51563 3.42188,1.54688l0.09375,-1.32812h1.875v11.6875c0,1.54167 -0.45833,2.76042 -1.375,3.65625c-0.91667,0.89583 -2.15104,1.34375 -3.70312,1.34375c-0.86458,0 -1.70833,-0.1875 -2.53125,-0.5625c-0.82292,-0.36458 -1.45312,-0.86979 -1.89062,-1.51562l1.0625,-1.21875c0.875,1.08333 1.94792,1.625 3.21875,1.625c0.98958,0 1.76042,-0.28125 2.3125,-0.84375c0.5625,-0.5625 0.84375,-1.35417 0.84375,-2.375v-1.01562c-0.8125,0.9375 -1.92708,1.40625 -3.34375,1.40625c-1.40625,0 -2.54167,-0.5625 -3.40625,-1.6875c-0.86458,-1.125 -1.29687,-2.66146 -1.29687,-4.60937zM103.69193,133.12897c0,1.35417 0.27604,2.41667 0.82813,3.1875c0.55208,0.77083 1.32292,1.15625 2.3125,1.15625c1.29167,0 2.23958,-0.58854 2.84375,-1.76562v-5.45312c-0.625,-1.14583 -1.5625,-1.71875 -2.8125,-1.71875c-1,0 -1.78125,0.39063 -2.34375,1.17188c-0.55208,0.77083 -0.82812,1.91146 -0.82812,3.42188zM119.79352,139.20709c-1.625,0 -2.94792,-0.53125 -3.96875,-1.59375c-1.01042,-1.0625 -1.51562,-2.48958 -1.51562,-4.28125v-0.375c0,-1.1875 0.22396,-2.24479 0.67188,-3.17187c0.45833,-0.9375 1.09375,-1.66667 1.90625,-2.1875c0.8125,-0.53125 1.69792,-0.79687 2.65625,-0.79687c1.55208,0 2.76042,0.51563 3.625,1.54688c0.86458,1.02083 1.29688,2.48438 1.29688,4.39063v0.84375h-8.10937c0.03125,1.1875 0.375,2.14583 1.03125,2.875c0.65625,0.71875 1.49479,1.07813 2.51563,1.07813c0.71875,0 1.32813,-0.14583 1.82813,-0.4375c0.51042,-0.29167 0.95313,-0.68229 1.32813,-1.17187l1.25,0.96875c-1,1.54167 -2.50521,2.3125 -4.51562,2.3125zM119.54352,128.47272c-0.83333,0 -1.53125,0.30208 -2.09375,0.90625c-0.55208,0.60417 -0.89583,1.44792 -1.03125,2.53125h6v-0.15625c-0.0625,-1.04167 -0.34375,-1.84896 -0.84375,-2.42187c-0.5,-0.57292 -1.17708,-0.85937 -2.03125,-0.85937zM128.7652,127.01959l0.0625,1.5c0.91667,-1.14583 2.11458,-1.71875 3.59375,-1.71875c2.53125,0 3.80729,1.42708 3.82813,4.28125v7.90625h-2.04687v-7.92187c-0.01042,-0.86458 -0.20833,-1.5 -0.59375,-1.90625c-0.38542,-0.41667 -0.98958,-0.625 -1.8125,-0.625c-0.66667,0 -1.25,0.17708 -1.75,0.53125c-0.5,0.35417 -0.89062,0.81771 -1.17187,1.39063v8.53125h-2.04687v-11.96875zM144.29722,139.20709c-1.625,0 -2.94792,-0.53125 -3.96875,-1.59375c-1.01042,-1.0625 -1.51562,-2.48958 -1.51562,-4.28125v-0.375c0,-1.1875 0.22396,-2.24479 0.67188,-3.17187c0.45833,-0.9375 1.09375,-1.66667 1.90625,-2.1875c0.8125,-0.53125 1.69792,-0.79687 2.65625,-0.79687c1.55208,0 2.76042,0.51563 3.625,1.54688c0.86458,1.02083 1.29688,2.48438 1.29688,4.39063v0.84375h-8.10937c0.03125,1.1875 0.375,2.14583 1.03125,2.875c0.65625,0.71875 1.49479,1.07813 2.51563,1.07813c0.71875,0 1.32813,-0.14583 1.82813,-0.4375c0.51042,-0.29167 0.95313,-0.68229 1.32813,-1.17187l1.25,0.96875c-1,1.54167 -2.50521,2.3125 -4.51562,2.3125zM144.04722,128.47272c-0.83333,0 -1.53125,0.30208 -2.09375,0.90625c-0.55208,0.60417 -0.89583,1.44792 -1.03125,2.53125h6v-0.15625c-0.0625,-1.04167 -0.34375,-1.84896 -0.84375,-2.42187c-0.5,-0.57292 -1.17708,-0.85937 -2.03125,-0.85937zM157.11268,128.84772c-0.30208,-0.04167 -0.63542,-0.0625 -1,-0.0625c-1.34375,0 -2.25521,0.56771 -2.73437,1.70313v8.5h-2.04687v-11.96875h2l0.03125,1.375c0.66667,-1.0625 1.61458,-1.59375 2.84375,-1.59375c0.40625,0 0.70833,0.05208 0.90625,0.15625zM165.94574,138.98834c-0.11458,-0.23958 -0.20833,-0.66146 -0.28125,-1.26562c-0.95833,0.98958 -2.09375,1.48438 -3.40625,1.48438c-1.1875,0 -2.16146,-0.33333 -2.92187,-1c-0.75,-0.66667 -1.125,-1.51042 -1.125,-2.53125c0,-1.25 0.47396,-2.21875 1.42188,-2.90625c0.94792,-0.6875 2.28125,-1.03125 4,-1.03125h2v-0.95312c0,-0.70833 -0.21875,-1.27604 -0.65625,-1.70312c-0.42708,-0.42708 -1.05729,-0.64062 -1.89062,-0.64062c-0.72917,0 -1.34375,0.1875 -1.84375,0.5625c-0.48958,0.36458 -0.73437,0.80729 -0.73437,1.32813h-2.04687c0,-0.59375 0.20833,-1.16667 0.625,-1.71875c0.42708,-0.5625 1.00521,-1.00521 1.73438,-1.32812c0.72917,-0.32292 1.52604,-0.48437 2.39063,-0.48437c1.38542,0 2.46875,0.34375 3.25,1.03125c0.78125,0.6875 1.1875,1.63542 1.21875,2.84375v5.51563c0,1.09375 0.13542,1.96875 0.40625,2.625v0.17188zM162.55512,137.42584c0.63542,0 1.23958,-0.16667 1.8125,-0.5c0.58333,-0.33333 1.00521,-0.76562 1.26563,-1.29687v-2.45312h-1.60937c-2.51042,0 -3.76562,0.73438 -3.76562,2.20313c0,0.64583 0.21354,1.15104 0.64063,1.51563c0.42708,0.35417 0.97917,0.53125 1.65625,0.53125zM173.66013,124.11334v2.90625h2.23438v1.57813h-2.23437v7.42188c0,0.47917 0.09896,0.83854 0.29688,1.07813c0.19792,0.23958 0.53646,0.35938 1.01563,0.35938c0.23958,0 0.5625,-0.04167 0.96875,-0.125v1.65625c-0.53125,0.14583 -1.05208,0.21875 -1.5625,0.21875c-0.91667,0 -1.60937,-0.27604 -2.07812,-0.82812c-0.45833,-0.55208 -0.6875,-1.33854 -0.6875,-2.35937v-7.42187h-2.1875v-1.57812h2.1875v-2.90625zM183.24851,139.20709c-1.625,0 -2.94792,-0.53125 -3.96875,-1.59375c-1.01042,-1.0625 -1.51562,-2.48958 -1.51562,-4.28125v-0.375c0,-1.1875 0.22396,-2.24479 0.67188,-3.17187c0.45833,-0.9375 1.09375,-1.66667 1.90625,-2.1875c0.8125,-0.53125 1.69792,-0.79687 2.65625,-0.79687c1.55208,0 2.76042,0.51563 3.625,1.54688c0.86458,1.02083 1.29688,2.48438 1.29688,4.39063v0.84375h-8.10937c0.03125,1.1875 0.375,2.14583 1.03125,2.875c0.65625,0.71875 1.49479,1.07813 2.51563,1.07813c0.71875,0 1.32813,-0.14583 1.82813,-0.4375c0.51042,-0.29167 0.95313,-0.68229 1.32813,-1.17187l1.25,0.96875c-1,1.54167 -2.50521,2.3125 -4.51562,2.3125zM182.99851,128.47272c-0.83333,0 -1.53125,0.30208 -2.09375,0.90625c-0.55208,0.60417 -0.89583,1.44792 -1.03125,2.53125h6v-0.15625c-0.0625,-1.04167 -0.34375,-1.84896 -0.84375,-2.42187c-0.5,-0.57292 -1.17708,-0.85937 -2.03125,-0.85937zM189.78272,132.91022c0,-1.84375 0.43229,-3.32292 1.29688,-4.4375c0.875,-1.11458 2.02083,-1.67187 3.4375,-1.67187c1.39583,0 2.50521,0.47917 3.32813,1.4375v-6.25h2.04688v17h-1.89062l-0.09375,-1.28125c-0.82292,1 -1.96354,1.5 -3.42187,1.5c-1.38542,0 -2.51562,-0.56771 -3.39062,-1.70312c-0.875,-1.13542 -1.3125,-2.61458 -1.3125,-4.4375zM191.82959,133.12897c0,1.36458 0.28125,2.43229 0.84375,3.20313c0.5625,0.76042 1.33854,1.14063 2.32813,1.14063c1.29167,0 2.23958,-0.58333 2.84375,-1.75v-5.5c-0.61458,-1.125 -1.55729,-1.6875 -2.82812,-1.6875c-1,0 -1.78125,0.39063 -2.34375,1.17188c-0.5625,0.77083 -0.84375,1.91146 -0.84375,3.42188zM211.45005,124.11334v2.90625h2.23438v1.57813h-2.23437v7.42188c0,0.47917 0.09896,0.83854 0.29688,1.07813c0.19792,0.23958 0.53646,0.35938 1.01563,0.35938c0.23958,0 0.5625,-0.04167 0.96875,-0.125v1.65625c-0.53125,0.14583 -1.05208,0.21875 -1.5625,0.21875c-0.91667,0 -1.60937,-0.27604 -2.07812,-0.82812c-0.45833,-0.55208 -0.6875,-1.33854 -0.6875,-2.35937v-7.42187h-2.1875v-1.57812h2.1875v-2.90625zM215.30146,132.89459c0,-1.17708 0.22917,-2.23437 0.6875,-3.17187c0.46875,-0.9375 1.11458,-1.65625 1.9375,-2.15625c0.82292,-0.51042 1.76042,-0.76562 2.8125,-0.76562c1.63542,0 2.95313,0.5625 3.95313,1.6875c1.01042,1.125 1.51563,2.625 1.51563,4.5v0.14063c0,1.16667 -0.22396,2.21354 -0.67187,3.14063c-0.44792,0.92708 -1.08854,1.65104 -1.92187,2.17188c-0.82292,0.51042 -1.77604,0.76563 -2.85937,0.76563c-1.61458,0 -2.92708,-0.5625 -3.9375,-1.6875c-1.01042,-1.125 -1.51562,-2.61979 -1.51562,-4.48437zM217.36396,133.12897c0,1.33333 0.30729,2.40104 0.92188,3.20313c0.61458,0.80208 1.4375,1.20313 2.46875,1.20313c1.04167,0 1.86979,-0.40625 2.48438,-1.21875c0.61458,-0.8125 0.92188,-1.95312 0.92188,-3.42187c0,-1.3125 -0.3125,-2.375 -0.9375,-3.1875c-0.625,-0.82292 -1.45312,-1.23437 -2.48437,-1.23437c-1.01042,0 -1.82812,0.40625 -2.45312,1.21875c-0.61458,0.80208 -0.92187,1.94792 -0.92187,3.4375zM239.36323,136.16022l2.3125,-9.14062h2.04688l-3.48437,11.96875h-1.67187l-2.90625,-9.07812l-2.82812,9.07813h-1.65625l-3.48437,-11.96875h2.04688l2.35938,8.95313l2.78125,-8.95312h1.64063zM250.76359,139.20709c-1.625,0 -2.94792,-0.53125 -3.96875,-1.59375c-1.01042,-1.0625 -1.51562,-2.48958 -1.51562,-4.28125v-0.375c0,-1.1875 0.22396,-2.24479 0.67188,-3.17187c0.45833,-0.9375 1.09375,-1.66667 1.90625,-2.1875c0.8125,-0.53125 1.69792,-0.79687 2.65625,-0.79687c1.55208,0 2.76042,0.51563 3.625,1.54688c0.86458,1.02083 1.29688,2.48438 1.29688,4.39063v0.84375h-8.10937c0.03125,1.1875 0.375,2.14583 1.03125,2.875c0.65625,0.71875 1.49479,1.07813 2.51563,1.07813c0.71875,0 1.32813,-0.14583 1.82813,-0.4375c0.51042,-0.29167 0.95313,-0.68229 1.32813,-1.17187l1.25,0.96875c-1,1.54167 -2.50521,2.3125 -4.51562,2.3125zM250.51359,128.47272c-0.83333,0 -1.53125,0.30208 -2.09375,0.90625c-0.55208,0.60417 -0.89583,1.44792 -1.03125,2.53125h6v-0.15625c-0.0625,-1.04167 -0.34375,-1.84896 -0.84375,-2.42187c-0.5,-0.57292 -1.17708,-0.85937 -2.03125,-0.85937zM263.57905,128.84772c-0.30208,-0.04167 -0.63542,-0.0625 -1,-0.0625c-1.34375,0 -2.25521,0.56771 -2.73437,1.70313v8.5h-2.04687v-11.96875h2l0.03125,1.375c0.66667,-1.0625 1.61458,-1.59375 2.84375,-1.59375c0.40625,0 0.70833,0.05208 0.90625,0.15625zM264.14972,137.91022c0,-0.35417 0.10417,-0.64583 0.3125,-0.875c0.20833,-0.23958 0.52083,-0.35937 0.9375,-0.35937c0.42708,0 0.75,0.11979 0.96875,0.35938c0.21875,0.22917 0.32813,0.52083 0.32813,0.875c0,0.34375 -0.10937,0.63021 -0.32812,0.85938c-0.21875,0.22917 -0.54167,0.34375 -0.96875,0.34375c-0.41667,0 -0.72917,-0.11458 -0.9375,-0.34375c-0.20833,-0.22917 -0.3125,-0.51562 -0.3125,-0.85937z" fill="#000000" fill-rule="nonzero" stroke-width="1" stroke-linecap="square"/><path d="M105.91068,295.91022l0.3125,2.125l0.45313,-1.92187l3.1875,-11.23437h1.78125l3.10938,11.23438l0.45313,1.95313l0.34375,-2.17187l2.5,-11.01562h2.125l-3.90625,16.10938h-1.9375l-3.3125,-11.73437l-0.25,-1.23437l-0.26562,1.23438l-3.4375,11.73438h-1.9375l-3.89062,-16.10937h2.125zM124.26148,290.47272c0.90625,-1.11458 2.08854,-1.67187 3.54688,-1.67187c2.53125,0 3.80729,1.42708 3.82813,4.28125v7.90625h-2.04687v-7.92187c-0.01042,-0.86458 -0.20833,-1.5 -0.59375,-1.90625c-0.38542,-0.41667 -0.98958,-0.625 -1.8125,-0.625c-0.66667,0 -1.25,0.17708 -1.75,0.53125c-0.5,0.35417 -0.89062,0.81771 -1.17187,1.39063v8.53125h-2.04687v-17h2.04688zM136.91199,300.98834h-2.04687v-11.96875h2.04688zM134.70887,285.84772c0,-0.33333 0.09896,-0.61458 0.29688,-0.84375c0.20833,-0.22917 0.51042,-0.34375 0.90625,-0.34375c0.39583,0 0.69792,0.11458 0.90625,0.34375c0.20833,0.22917 0.3125,0.51042 0.3125,0.84375c0,0.33333 -0.10417,0.60938 -0.3125,0.82813c-0.20833,0.21875 -0.51042,0.32813 -0.90625,0.32813c-0.39583,0 -0.69792,-0.10937 -0.90625,-0.32812c-0.19792,-0.21875 -0.29687,-0.49479 -0.29687,-0.82812zM142.4101,300.98834h-2.04687v-17h2.04688zM150.65824,301.20709c-1.625,0 -2.94792,-0.53125 -3.96875,-1.59375c-1.01042,-1.0625 -1.51562,-2.48958 -1.51562,-4.28125v-0.375c0,-1.1875 0.22396,-2.24479 0.67188,-3.17187c0.45833,-0.9375 1.09375,-1.66667 1.90625,-2.1875c0.8125,-0.53125 1.69792,-0.79687 2.65625,-0.79687c1.55208,0 2.76042,0.51563 3.625,1.54688c0.86458,1.02083 1.29688,2.48438 1.29688,4.39063v0.84375h-8.10937c0.03125,1.1875 0.375,2.14583 1.03125,2.875c0.65625,0.71875 1.49479,1.07813 2.51563,1.07813c0.71875,0 1.32813,-0.14583 1.82813,-0.4375c0.51042,-0.29167 0.95313,-0.68229 1.32813,-1.17187l1.25,0.96875c-1,1.54167 -2.50521,2.3125 -4.51562,2.3125zM150.40824,290.47272c-0.83333,0 -1.53125,0.30208 -2.09375,0.90625c-0.55208,0.60417 -0.89583,1.44792 -1.03125,2.53125h6v-0.15625c-0.0625,-1.04167 -0.34375,-1.84896 -0.84375,-2.42187c-0.5,-0.57292 -1.17708,-0.85937 -2.03125,-0.85937zM167.22306,297.98834l2.78125,-8.96875h2.1875l-4.8125,13.8125c-0.73958,1.98958 -1.92187,2.98438 -3.54687,2.98438l-0.39062,-0.03125l-0.76562,-0.14062v-1.65625l0.5625,0.04688c0.6875,0 1.22396,-0.14062 1.60938,-0.42187c0.39583,-0.28125 0.71875,-0.79687 0.96875,-1.54687l0.45313,-1.20312l-4.26562,-11.84375h2.23438zM173.30796,294.89459c0,-1.17708 0.22917,-2.23437 0.6875,-3.17187c0.46875,-0.9375 1.11458,-1.65625 1.9375,-2.15625c0.82292,-0.51042 1.76042,-0.76562 2.8125,-0.76562c1.63542,0 2.95313,0.5625 3.95313,1.6875c1.01042,1.125 1.51563,2.625 1.51563,4.5v0.14063c0,1.16667 -0.22396,2.21354 -0.67187,3.14063c-0.44792,0.92708 -1.08854,1.65104 -1.92187,2.17188c-0.82292,0.51042 -1.77604,0.76563 -2.85937,0.76563c-1.61458,0 -2.92708,-0.5625 -3.9375,-1.6875c-1.01042,-1.125 -1.51562,-2.61979 -1.51562,-4.48437zM175.37046,295.12897c0,1.33333 0.30729,2.40104 0.92188,3.20313c0.61458,0.80208 1.4375,1.20313 2.46875,1.20313c1.04167,0 1.86979,-0.40625 2.48438,-1.21875c0.61458,-0.8125 0.92188,-1.95312 0.92188,-3.42187c0,-1.3125 -0.3125,-2.375 -0.9375,-3.1875c-0.625,-0.82292 -1.45312,-1.23437 -2.48437,-1.23437c-1.01042,0 -1.82812,0.40625 -2.45312,1.21875c-0.61458,0.80208 -0.92187,1.94792 -0.92187,3.4375zM194.1666,299.80084c-0.79167,0.9375 -1.95833,1.40625 -3.5,1.40625c-1.28125,0 -2.25521,-0.36979 -2.92187,-1.10937c-0.66667,-0.73958 -1.00521,-1.83854 -1.01562,-3.29687v-7.78125h2.04688v7.73438c0,1.8125 0.73958,2.71875 2.21875,2.71875c1.5625,0 2.60417,-0.58333 3.125,-1.75v-8.70312h2.04688v11.96875h-1.95312zM200.51569,285.22272l-0.23437,4.07813h-1.42187l0.01563,-5.3125h1.64063zM208.99628,290.84772c-0.30208,-0.04167 -0.63542,-0.0625 -1,-0.0625c-1.34375,0 -2.25521,0.56771 -2.73437,1.70313v8.5h-2.04687v-11.96875h2l0.03125,1.375c0.66667,-1.0625 1.61458,-1.59375 2.84375,-1.59375c0.40625,0 0.70833,0.05208 0.90625,0.15625zM215.6399,301.20709c-1.625,0 -2.94792,-0.53125 -3.96875,-1.59375c-1.01042,-1.0625 -1.51562,-2.48958 -1.51562,-4.28125v-0.375c0,-1.1875 0.22396,-2.24479 0.67188,-3.17187c0.45833,-0.9375 1.09375,-1.66667 1.90625,-2.1875c0.8125,-0.53125 1.69792,-0.79687 2.65625,-0.79687c1.55208,0 2.76042,0.51563 3.625,1.54688c0.86458,1.02083 1.29688,2.48438 1.29688,4.39063v0.84375h-8.10937c0.03125,1.1875 0.375,2.14583 1.03125,2.875c0.65625,0.71875 1.49479,1.07813 2.51563,1.07813c0.71875,0 1.32813,-0.14583 1.82813,-0.4375c0.51042,-0.29167 0.95313,-0.68229 1.32813,-1.17187l1.25,0.96875c-1,1.54167 -2.50521,2.3125 -4.51562,2.3125zM215.3899,290.47272c-0.83333,0 -1.53125,0.30208 -2.09375,0.90625c-0.55208,0.60417 -0.89583,1.44792 -1.03125,2.53125h6v-0.15625c-0.0625,-1.04167 -0.34375,-1.84896 -0.84375,-2.42187c-0.5,-0.57292 -1.17708,-0.85937 -2.03125,-0.85937zM238.39222,295.12897c0,1.82292 -0.41667,3.29167 -1.25,4.40625c-0.83333,1.11458 -1.95833,1.67188 -3.375,1.67188c-1.45833,0 -2.60417,-0.45833 -3.4375,-1.375v5.76563h-2.04687v-16.57812h1.875l0.09375,1.32813c0.83333,-1.03125 1.98958,-1.54687 3.46875,-1.54687c1.44792,0 2.58854,0.54167 3.42188,1.625c0.83333,1.08333 1.25,2.58854 1.25,4.51563zM236.34534,294.91022c0,-1.35417 -0.28646,-2.42187 -0.85937,-3.20312c-0.57292,-0.78125 -1.35937,-1.17187 -2.35937,-1.17187c-1.23958,0 -2.17187,0.54688 -2.79687,1.64063v5.71875c0.61458,1.09375 1.55208,1.64063 2.8125,1.64063c0.97917,0 1.75521,-0.38542 2.32813,-1.15625c0.58333,-0.78125 0.875,-1.9375 0.875,-3.46875zM243.21256,300.98834h-2.04687v-17h2.04688zM253.88255,300.98834c-0.11458,-0.23958 -0.20833,-0.66146 -0.28125,-1.26562c-0.95833,0.98958 -2.09375,1.48438 -3.40625,1.48438c-1.1875,0 -2.16146,-0.33333 -2.92187,-1c-0.75,-0.66667 -1.125,-1.51042 -1.125,-2.53125c0,-1.25 0.47396,-2.21875 1.42188,-2.90625c0.94792,-0.6875 2.28125,-1.03125 4,-1.03125h2v-0.95312c0,-0.70833 -0.21875,-1.27604 -0.65625,-1.70312c-0.42708,-0.42708 -1.05729,-0.64062 -1.89062,-0.64062c-0.72917,0 -1.34375,0.1875 -1.84375,0.5625c-0.48958,0.36458 -0.73437,0.80729 -0.73437,1.32813h-2.04687c0,-0.59375 0.20833,-1.16667 0.625,-1.71875c0.42708,-0.5625 1.00521,-1.00521 1.73438,-1.32812c0.72917,-0.32292 1.52604,-0.48437 2.39063,-0.48437c1.38542,0 2.46875,0.34375 3.25,1.03125c0.78125,0.6875 1.1875,1.63542 1.21875,2.84375v5.51563c0,1.09375 0.13542,1.96875 0.40625,2.625v0.17188zM250.49192,299.42584c0.63542,0 1.23958,-0.16667 1.8125,-0.5c0.58333,-0.33333 1.00521,-0.76562 1.26563,-1.29687v-2.45312h-1.60937c-2.51042,0 -3.76562,0.73438 -3.76562,2.20313c0,0.64583 0.21354,1.15104 0.64063,1.51563c0.42708,0.35417 0.97917,0.53125 1.65625,0.53125zM262.57154,297.98834l2.78125,-8.96875h2.1875l-4.8125,13.8125c-0.73958,1.98958 -1.92187,2.98438 -3.54687,2.98438l-0.39062,-0.03125l-0.76562,-0.14062v-1.65625l0.5625,0.04688c0.6875,0 1.22396,-0.14062 1.60938,-0.42187c0.39583,-0.28125 0.71875,-0.79687 0.96875,-1.54687l0.45313,-1.20312l-4.26562,-11.84375h2.23438zM271.58811,300.98834h-2.04687v-11.96875h2.04688zM269.38499,285.84772c0,-0.33333 0.09896,-0.61458 0.29688,-0.84375c0.20833,-0.22917 0.51042,-0.34375 0.90625,-0.34375c0.39583,0 0.69792,0.11458 0.90625,0.34375c0.20833,0.22917 0.3125,0.51042 0.3125,0.84375c0,0.33333 -0.10417,0.60938 -0.3125,0.82813c-0.20833,0.21875 -0.51042,0.32813 -0.90625,0.32813c-0.39583,0 -0.69792,-0.10937 -0.90625,-0.32812c-0.19792,-0.21875 -0.29687,-0.49479 -0.29687,-0.82812zM276.805,289.01959l0.0625,1.5c0.91667,-1.14583 2.11458,-1.71875 3.59375,-1.71875c2.53125,0 3.80729,1.42708 3.82813,4.28125v7.90625h-2.04687v-7.92187c-0.01042,-0.86458 -0.20833,-1.5 -0.59375,-1.90625c-0.38542,-0.41667 -0.98958,-0.625 -1.8125,-0.625c-0.66667,0 -1.25,0.17708 -1.75,0.53125c-0.5,0.35417 -0.89062,0.81771 -1.17187,1.39063v8.53125h-2.04687v-11.96875zM286.88386,294.91022c0,-1.875 0.43229,-3.35937 1.29688,-4.45312c0.86458,-1.10417 2.00521,-1.65625 3.42188,-1.65625c1.45833,0 2.59896,0.51563 3.42188,1.54688l0.09375,-1.32812h1.875v11.6875c0,1.54167 -0.45833,2.76042 -1.375,3.65625c-0.91667,0.89583 -2.15104,1.34375 -3.70312,1.34375c-0.86458,0 -1.70833,-0.1875 -2.53125,-0.5625c-0.82292,-0.36458 -1.45312,-0.86979 -1.89062,-1.51562l1.0625,-1.21875c0.875,1.08333 1.94792,1.625 3.21875,1.625c0.98958,0 1.76042,-0.28125 2.3125,-0.84375c0.5625,-0.5625 0.84375,-1.35417 0.84375,-2.375v-1.01562c-0.8125,0.9375 -1.92708,1.40625 -3.34375,1.40625c-1.40625,0 -2.54167,-0.5625 -3.40625,-1.6875c-0.86458,-1.125 -1.29687,-2.66146 -1.29687,-4.60937zM288.94636,295.12897c0,1.35417 0.27604,2.41667 0.82813,3.1875c0.55208,0.77083 1.32292,1.15625 2.3125,1.15625c1.29167,0 2.23958,-0.58854 2.84375,-1.76562v-5.45312c-0.625,-1.14583 -1.5625,-1.71875 -2.8125,-1.71875c-1,0 -1.78125,0.39063 -2.34375,1.17188c-0.55208,0.77083 -0.82812,1.91146 -0.82812,3.42188zM300.01667,304.19147l-1.15625,-0.79687c0.6875,-0.95833 1.04688,-1.95312 1.07813,-2.98437v-1.84375h2v1.60938c0,0.73958 -0.18229,1.47917 -0.54687,2.21875c-0.36458,0.75 -0.82292,1.34896 -1.375,1.79688zM320.24451,295.12897c0,1.82292 -0.41667,3.29167 -1.25,4.40625c-0.83333,1.11458 -1.95833,1.67188 -3.375,1.67188c-1.45833,0 -2.60417,-0.45833 -3.4375,-1.375v5.76563h-2.04687v-16.57812h1.875l0.09375,1.32813c0.83333,-1.03125 1.98958,-1.54687 3.46875,-1.54687c1.44792,0 2.58854,0.54167 3.42188,1.625c0.83333,1.08333 1.25,2.58854 1.25,4.51563zM318.19764,294.91022c0,-1.35417 -0.28646,-2.42187 -0.85937,-3.20312c-0.57292,-0.78125 -1.35937,-1.17187 -2.35937,-1.17187c-1.23958,0 -2.17187,0.54688 -2.79687,1.64063v5.71875c0.61458,1.09375 1.55208,1.64063 2.8125,1.64063c0.97917,0 1.75521,-0.38542 2.32813,-1.15625c0.58333,-0.78125 0.875,-1.9375 0.875,-3.46875zM330.2367,299.80084c-0.79167,0.9375 -1.95833,1.40625 -3.5,1.40625c-1.28125,0 -2.25521,-0.36979 -2.92187,-1.10937c-0.66667,-0.73958 -1.00521,-1.83854 -1.01562,-3.29687v-7.78125h2.04688v7.73438c0,1.8125 0.73958,2.71875 2.21875,2.71875c1.5625,0 2.60417,-0.58333 3.125,-1.75v-8.70312h2.04688v11.96875h-1.95312zM342.30451,297.81647c0,-0.55208 -0.20833,-0.97917 -0.625,-1.28125c-0.41667,-0.3125 -1.14583,-0.57812 -2.1875,-0.79687c-1.03125,-0.22917 -1.85417,-0.49479 -2.46875,-0.79687c-0.60417,-0.3125 -1.05208,-0.68229 -1.34375,-1.10937c-0.29167,-0.42708 -0.4375,-0.9375 -0.4375,-1.53125c0,-0.97917 0.41667,-1.80729 1.25,-2.48437c0.83333,-0.67708 1.89583,-1.01562 3.1875,-1.01562c1.35417,0 2.45313,0.34896 3.29688,1.04688c0.84375,0.69792 1.26563,1.59375 1.26563,2.6875h-2.0625c0,-0.5625 -0.23958,-1.04687 -0.71875,-1.45312c-0.46875,-0.40625 -1.0625,-0.60937 -1.78125,-0.60937c-0.75,0 -1.33854,0.16667 -1.76562,0.5c-0.41667,0.32292 -0.625,0.74479 -0.625,1.26563c0,0.48958 0.19271,0.86458 0.57813,1.125c0.39583,0.25 1.10417,0.48958 2.125,0.71875c1.03125,0.21875 1.85938,0.48958 2.48438,0.8125c0.63542,0.3125 1.10417,0.69271 1.40625,1.14063c0.3125,0.44792 0.46875,0.99479 0.46875,1.64063c0,1.0625 -0.42708,1.91667 -1.28125,2.5625c-0.85417,0.64583 -1.96354,0.96875 -3.32812,0.96875c-0.95833,0 -1.80729,-0.16667 -2.54687,-0.5c-0.73958,-0.34375 -1.31771,-0.81771 -1.73437,-1.42187c-0.41667,-0.61458 -0.625,-1.27604 -0.625,-1.98437h2.04688c0.04167,0.6875 0.31771,1.23438 0.82813,1.64063c0.51042,0.39583 1.1875,0.59375 2.03125,0.59375c0.77083,0 1.39063,-0.15625 1.85938,-0.46875c0.46875,-0.3125 0.70313,-0.72917 0.70313,-1.25zM349.06476,290.47272c0.90625,-1.11458 2.08854,-1.67187 3.54688,-1.67187c2.53125,0 3.80729,1.42708 3.82813,4.28125v7.90625h-2.04687v-7.92187c-0.01042,-0.86458 -0.20833,-1.5 -0.59375,-1.90625c-0.38542,-0.41667 -0.98958,-0.625 -1.8125,-0.625c-0.66667,0 -1.25,0.17708 -1.75,0.53125c-0.5,0.35417 -0.89062,0.81771 -1.17187,1.39063v8.53125h-2.04687v-17h2.04688zM364.55842,294.89459c0,-1.17708 0.22917,-2.23437 0.6875,-3.17187c0.46875,-0.9375 1.11458,-1.65625 1.9375,-2.15625c0.82292,-0.51042 1.76042,-0.76562 2.8125,-0.76562c1.63542,0 2.95313,0.5625 3.95313,1.6875c1.01042,1.125 1.51563,2.625 1.51563,4.5v0.14063c0,1.16667 -0.22396,2.21354 -0.67187,3.14063c-0.44792,0.92708 -1.08854,1.65104 -1.92187,2.17188c-0.82292,0.51042 -1.77604,0.76563 -2.85937,0.76563c-1.61458,0 -2.92708,-0.5625 -3.9375,-1.6875c-1.01042,-1.125 -1.51562,-2.61979 -1.51562,-4.48437zM366.62092,295.12897c0,1.33333 0.30729,2.40104 0.92188,3.20313c0.61458,0.80208 1.4375,1.20313 2.46875,1.20313c1.04167,0 1.86979,-0.40625 2.48438,-1.21875c0.61458,-0.8125 0.92188,-1.95312 0.92188,-3.42187c0,-1.3125 -0.3125,-2.375 -0.9375,-3.1875c-0.625,-0.82292 -1.45312,-1.23437 -2.48437,-1.23437c-1.01042,0 -1.82812,0.40625 -2.45312,1.21875c-0.61458,0.80208 -0.92187,1.94792 -0.92187,3.4375zM380.80768,286.11334v2.90625h2.23438v1.57813h-2.23437v7.42188c0,0.47917 0.09896,0.83854 0.29688,1.07813c0.19792,0.23958 0.53646,0.35938 1.01563,0.35938c0.23958,0 0.5625,-0.04167 0.96875,-0.125v1.65625c-0.53125,0.14583 -1.05208,0.21875 -1.5625,0.21875c-0.91667,0 -1.60937,-0.27604 -2.07812,-0.82812c-0.45833,-0.55208 -0.6875,-1.33854 -0.6875,-2.35937v-7.42187h-2.1875v-1.57812h2.1875v-2.90625zM387.47419,290.47272c0.90625,-1.11458 2.08854,-1.67187 3.54688,-1.67187c2.53125,0 3.80729,1.42708 3.82813,4.28125v7.90625h-2.04687v-7.92187c-0.01042,-0.86458 -0.20833,-1.5 -0.59375,-1.90625c-0.38542,-0.41667 -0.98958,-0.625 -1.8125,-0.625c-0.66667,0 -1.25,0.17708 -1.75,0.53125c-0.5,0.35417 -0.89062,0.81771 -1.17187,1.39063v8.53125h-2.04687v-17h2.04688zM402.8747,301.20709c-1.625,0 -2.94792,-0.53125 -3.96875,-1.59375c-1.01042,-1.0625 -1.51562,-2.48958 -1.51562,-4.28125v-0.375c0,-1.1875 0.22396,-2.24479 0.67188,-3.17187c0.45833,-0.9375 1.09375,-1.66667 1.90625,-2.1875c0.8125,-0.53125 1.69792,-0.79687 2.65625,-0.79687c1.55208,0 2.76042,0.51563 3.625,1.54688c0.86458,1.02083 1.29688,2.48438 1.29688,4.39063v0.84375h-8.10937c0.03125,1.1875 0.375,2.14583 1.03125,2.875c0.65625,0.71875 1.49479,1.07813 2.51563,1.07813c0.71875,0 1.32813,-0.14583 1.82813,-0.4375c0.51042,-0.29167 0.95313,-0.68229 1.32813,-1.17187l1.25,0.96875c-1,1.54167 -2.50521,2.3125 -4.51562,2.3125zM402.6247,290.47272c-0.83333,0 -1.53125,0.30208 -2.09375,0.90625c-0.55208,0.60417 -0.89583,1.44792 -1.03125,2.53125h6v-0.15625c-0.0625,-1.04167 -0.34375,-1.84896 -0.84375,-2.42187c-0.5,-0.57292 -1.17708,-0.85937 -2.03125,-0.85937zM415.69013,290.84772c-0.30208,-0.04167 -0.63542,-0.0625 -1,-0.0625c-1.34375,0 -2.25521,0.56771 -2.73437,1.70313v8.5h-2.04687v-11.96875h2l0.03125,1.375c0.66667,-1.0625 1.61458,-1.59375 2.84375,-1.59375c0.40625,0 0.70833,0.05208 0.90625,0.15625z" fill="#000000" fill-rule="nonzero" stroke-width="1" stroke-linecap="square"/><path d="M112.22318,322.12897c0,1.82292 -0.41667,3.29167 -1.25,4.40625c-0.83333,1.11458 -1.95833,1.67188 -3.375,1.67188c-1.45833,0 -2.60417,-0.45833 -3.4375,-1.375v5.76563h-2.04687v-16.57812h1.875l0.09375,1.32813c0.83333,-1.03125 1.98958,-1.54687 3.46875,-1.54687c1.44792,0 2.58854,0.54167 3.42188,1.625c0.83333,1.08333 1.25,2.58854 1.25,4.51563zM110.17631,321.91022c0,-1.35417 -0.28646,-2.42187 -0.85937,-3.20312c-0.57292,-0.78125 -1.35937,-1.17187 -2.35937,-1.17187c-1.23958,0 -2.17187,0.54688 -2.79687,1.64063v5.71875c0.61458,1.09375 1.55208,1.64063 2.8125,1.64063c0.97917,0 1.75521,-0.38542 2.32813,-1.15625c0.58333,-0.78125 0.875,-1.9375 0.875,-3.46875zM117.04352,327.98834h-2.04687v-17h2.04688zM127.71351,327.98834c-0.11458,-0.23958 -0.20833,-0.66146 -0.28125,-1.26562c-0.95833,0.98958 -2.09375,1.48438 -3.40625,1.48438c-1.1875,0 -2.16146,-0.33333 -2.92187,-1c-0.75,-0.66667 -1.125,-1.51042 -1.125,-2.53125c0,-1.25 0.47396,-2.21875 1.42188,-2.90625c0.94792,-0.6875 2.28125,-1.03125 4,-1.03125h2v-0.95312c0,-0.70833 -0.21875,-1.27604 -0.65625,-1.70312c-0.42708,-0.42708 -1.05729,-0.64062 -1.89062,-0.64062c-0.72917,0 -1.34375,0.1875 -1.84375,0.5625c-0.48958,0.36458 -0.73437,0.80729 -0.73437,1.32813h-2.04687c0,-0.59375 0.20833,-1.16667 0.625,-1.71875c0.42708,-0.5625 1.00521,-1.00521 1.73438,-1.32812c0.72917,-0.32292 1.52604,-0.48437 2.39063,-0.48437c1.38542,0 2.46875,0.34375 3.25,1.03125c0.78125,0.6875 1.1875,1.63542 1.21875,2.84375v5.51563c0,1.09375 0.13542,1.96875 0.40625,2.625v0.17188zM124.32288,326.42584c0.63542,0 1.23958,-0.16667 1.8125,-0.5c0.58333,-0.33333 1.00521,-0.76562 1.26563,-1.29687v-2.45312h-1.60937c-2.51042,0 -3.76562,0.73438 -3.76562,2.20313c0,0.64583 0.21354,1.15104 0.64063,1.51563c0.42708,0.35417 0.97917,0.53125 1.65625,0.53125zM136.4025,324.98834l2.78125,-8.96875h2.1875l-4.8125,13.8125c-0.73958,1.98958 -1.92187,2.98438 -3.54687,2.98438l-0.39062,-0.03125l-0.76562,-0.14062v-1.65625l0.5625,0.04688c0.6875,0 1.22396,-0.14062 1.60938,-0.42187c0.39583,-0.28125 0.71875,-0.79687 0.96875,-1.54687l0.45313,-1.20312l-4.26562,-11.84375h2.23438zM148.02518,328.20709c-1.625,0 -2.94792,-0.53125 -3.96875,-1.59375c-1.01042,-1.0625 -1.51562,-2.48958 -1.51562,-4.28125v-0.375c0,-1.1875 0.22396,-2.24479 0.67188,-3.17187c0.45833,-0.9375 1.09375,-1.66667 1.90625,-2.1875c0.8125,-0.53125 1.69792,-0.79687 2.65625,-0.79687c1.55208,0 2.76042,0.51563 3.625,1.54688c0.86458,1.02083 1.29688,2.48438 1.29688,4.39063v0.84375h-8.10937c0.03125,1.1875 0.375,2.14583 1.03125,2.875c0.65625,0.71875 1.49479,1.07813 2.51563,1.07813c0.71875,0 1.32813,-0.14583 1.82813,-0.4375c0.51042,-0.29167 0.95313,-0.68229 1.32813,-1.17187l1.25,0.96875c-1,1.54167 -2.50521,2.3125 -4.51562,2.3125zM147.77518,317.47272c-0.83333,0 -1.53125,0.30208 -2.09375,0.90625c-0.55208,0.60417 -0.89583,1.44792 -1.03125,2.53125h6v-0.15625c-0.0625,-1.04167 -0.34375,-1.84896 -0.84375,-2.42187c-0.5,-0.57292 -1.17708,-0.85937 -2.03125,-0.85937zM160.84064,317.84772c-0.30208,-0.04167 -0.63542,-0.0625 -1,-0.0625c-1.34375,0 -2.25521,0.56771 -2.73437,1.70313v8.5h-2.04687v-11.96875h2l0.03125,1.375c0.66667,-1.0625 1.61458,-1.59375 2.84375,-1.59375c0.40625,0 0.70833,0.05208 0.90625,0.15625zM169.69452,324.81647c0,-0.55208 -0.20833,-0.97917 -0.625,-1.28125c-0.41667,-0.3125 -1.14583,-0.57812 -2.1875,-0.79687c-1.03125,-0.22917 -1.85417,-0.49479 -2.46875,-0.79687c-0.60417,-0.3125 -1.05208,-0.68229 -1.34375,-1.10937c-0.29167,-0.42708 -0.4375,-0.9375 -0.4375,-1.53125c0,-0.97917 0.41667,-1.80729 1.25,-2.48437c0.83333,-0.67708 1.89583,-1.01562 3.1875,-1.01562c1.35417,0 2.45313,0.34896 3.29688,1.04688c0.84375,0.69792 1.26563,1.59375 1.26563,2.6875h-2.0625c0,-0.5625 -0.23958,-1.04687 -0.71875,-1.45312c-0.46875,-0.40625 -1.0625,-0.60937 -1.78125,-0.60937c-0.75,0 -1.33854,0.16667 -1.76562,0.5c-0.41667,0.32292 -0.625,0.74479 -0.625,1.26563c0,0.48958 0.19271,0.86458 0.57813,1.125c0.39583,0.25 1.10417,0.48958 2.125,0.71875c1.03125,0.21875 1.85938,0.48958 2.48438,0.8125c0.63542,0.3125 1.10417,0.69271 1.40625,1.14063c0.3125,0.44792 0.46875,0.99479 0.46875,1.64063c0,1.0625 -0.42708,1.91667 -1.28125,2.5625c-0.85417,0.64583 -1.96354,0.96875 -3.32812,0.96875c-0.95833,0 -1.80729,-0.16667 -2.54687,-0.5c-0.73958,-0.34375 -1.31771,-0.81771 -1.73437,-1.42187c-0.41667,-0.61458 -0.625,-1.27604 -0.625,-1.98437h2.04688c0.04167,0.6875 0.31771,1.23438 0.82813,1.64063c0.51042,0.39583 1.1875,0.59375 2.03125,0.59375c0.77083,0 1.39063,-0.15625 1.85938,-0.46875c0.46875,-0.3125 0.70313,-0.72917 0.70313,-1.25zM174.3454,331.19147l-1.15625,-0.79687c0.6875,-0.95833 1.04688,-1.95312 1.07813,-2.98437v-1.84375h2v1.60938c0,0.73958 -0.18229,1.47917 -0.54687,2.21875c-0.36458,0.75 -0.82292,1.34896 -1.375,1.79688zM194.60447,322.12897c0,1.83333 -0.42187,3.30729 -1.26562,4.42188c-0.84375,1.10417 -1.97396,1.65625 -3.39062,1.65625c-1.51042,0 -2.67708,-0.53646 -3.5,-1.60937l-0.10937,1.39063h-1.875v-17h2.04688v6.34375c0.82292,-1.02083 1.95833,-1.53125 3.40625,-1.53125c1.45833,0 2.60417,0.55208 3.4375,1.65625c0.83333,1.09375 1.25,2.59375 1.25,4.5zM192.55759,321.91022c0,-1.39583 -0.27083,-2.47396 -0.8125,-3.23437c-0.54167,-0.76042 -1.31771,-1.14062 -2.32812,-1.14062c-1.34375,0 -2.3125,0.625 -2.90625,1.875v5.1875c0.625,1.25 1.60417,1.875 2.9375,1.875c0.97917,0 1.73958,-0.38021 2.28125,-1.14062c0.55208,-0.76042 0.82813,-1.90104 0.82813,-3.42187zM204.5654,326.80084c-0.79167,0.9375 -1.95833,1.40625 -3.5,1.40625c-1.28125,0 -2.25521,-0.36979 -2.92187,-1.10937c-0.66667,-0.73958 -1.00521,-1.83854 -1.01562,-3.29687v-7.78125h2.04688v7.73438c0,1.8125 0.73958,2.71875 2.21875,2.71875c1.5625,0 2.60417,-0.58333 3.125,-1.75v-8.70312h2.04688v11.96875h-1.95312zM213.58637,324.98834l2.78125,-8.96875h2.1875l-4.8125,13.8125c-0.73958,1.98958 -1.92187,2.98438 -3.54687,2.98438l-0.39062,-0.03125l-0.76562,-0.14062v-1.65625l0.5625,0.04688c0.6875,0 1.22396,-0.14062 1.60938,-0.42187c0.39583,-0.28125 0.71875,-0.79687 0.96875,-1.54687l0.45313,-1.20312l-4.26562,-11.84375h2.23438zM236.13355,322.12897c0,1.83333 -0.42187,3.30729 -1.26562,4.42188c-0.84375,1.10417 -1.97396,1.65625 -3.39062,1.65625c-1.51042,0 -2.67708,-0.53646 -3.5,-1.60937l-0.10937,1.39063h-1.875v-17h2.04688v6.34375c0.82292,-1.02083 1.95833,-1.53125 3.40625,-1.53125c1.45833,0 2.60417,0.55208 3.4375,1.65625c0.83333,1.09375 1.25,2.59375 1.25,4.5zM234.08668,321.91022c0,-1.39583 -0.27083,-2.47396 -0.8125,-3.23437c-0.54167,-0.76042 -1.31771,-1.14062 -2.32812,-1.14062c-1.34375,0 -2.3125,0.625 -2.90625,1.875v5.1875c0.625,1.25 1.60417,1.875 2.9375,1.875c0.97917,0 1.73958,-0.38021 2.28125,-1.14062c0.55208,-0.76042 0.82813,-1.90104 0.82813,-3.42187zM238.15699,321.89459c0,-1.17708 0.22917,-2.23437 0.6875,-3.17187c0.46875,-0.9375 1.11458,-1.65625 1.9375,-2.15625c0.82292,-0.51042 1.76042,-0.76562 2.8125,-0.76562c1.63542,0 2.95313,0.5625 3.95313,1.6875c1.01042,1.125 1.51563,2.625 1.51563,4.5v0.14063c0,1.16667 -0.22396,2.21354 -0.67187,3.14063c-0.44792,0.92708 -1.08854,1.65104 -1.92187,2.17188c-0.82292,0.51042 -1.77604,0.76563 -2.85937,0.76563c-1.61458,0 -2.92708,-0.5625 -3.9375,-1.6875c-1.01042,-1.125 -1.51562,-2.61979 -1.51562,-4.48437zM240.21949,322.12897c0,1.33333 0.30729,2.40104 0.92188,3.20313c0.61458,0.80208 1.4375,1.20313 2.46875,1.20313c1.04167,0 1.86979,-0.40625 2.48438,-1.21875c0.61458,-0.8125 0.92188,-1.95312 0.92188,-3.42187c0,-1.3125 -0.3125,-2.375 -0.9375,-3.1875c-0.625,-0.82292 -1.45312,-1.23437 -2.48437,-1.23437c-1.01042,0 -1.82812,0.40625 -2.45312,1.21875c-0.61458,0.80208 -0.92187,1.94792 -0.92187,3.4375zM251.07813,321.89459c0,-1.17708 0.22917,-2.23437 0.6875,-3.17187c0.46875,-0.9375 1.11458,-1.65625 1.9375,-2.15625c0.82292,-0.51042 1.76042,-0.76562 2.8125,-0.76562c1.63542,0 2.95313,0.5625 3.95313,1.6875c1.01042,1.125 1.51563,2.625 1.51563,4.5v0.14063c0,1.16667 -0.22396,2.21354 -0.67187,3.14063c-0.44792,0.92708 -1.08854,1.65104 -1.92187,2.17188c-0.82292,0.51042 -1.77604,0.76563 -2.85937,0.76563c-1.61458,0 -2.92708,-0.5625 -3.9375,-1.6875c-1.01042,-1.125 -1.51562,-2.61979 -1.51562,-4.48437zM253.14063,322.12897c0,1.33333 0.30729,2.40104 0.92188,3.20313c0.61458,0.80208 1.4375,1.20313 2.46875,1.20313c1.04167,0 1.86979,-0.40625 2.48438,-1.21875c0.61458,-0.8125 0.92188,-1.95312 0.92188,-3.42187c0,-1.3125 -0.3125,-2.375 -0.9375,-3.1875c-0.625,-0.82292 -1.45312,-1.23437 -2.48437,-1.23437c-1.01042,0 -1.82812,0.40625 -2.45312,1.21875c-0.61458,0.80208 -0.92187,1.94792 -0.92187,3.4375zM271.5149,324.81647c0,-0.55208 -0.20833,-0.97917 -0.625,-1.28125c-0.41667,-0.3125 -1.14583,-0.57812 -2.1875,-0.79687c-1.03125,-0.22917 -1.85417,-0.49479 -2.46875,-0.79687c-0.60417,-0.3125 -1.05208,-0.68229 -1.34375,-1.10937c-0.29167,-0.42708 -0.4375,-0.9375 -0.4375,-1.53125c0,-0.97917 0.41667,-1.80729 1.25,-2.48437c0.83333,-0.67708 1.89583,-1.01562 3.1875,-1.01562c1.35417,0 2.45313,0.34896 3.29688,1.04688c0.84375,0.69792 1.26563,1.59375 1.26563,2.6875h-2.0625c0,-0.5625 -0.23958,-1.04687 -0.71875,-1.45312c-0.46875,-0.40625 -1.0625,-0.60937 -1.78125,-0.60937c-0.75,0 -1.33854,0.16667 -1.76562,0.5c-0.41667,0.32292 -0.625,0.74479 -0.625,1.26563c0,0.48958 0.19271,0.86458 0.57813,1.125c0.39583,0.25 1.10417,0.48958 2.125,0.71875c1.03125,0.21875 1.85938,0.48958 2.48438,0.8125c0.63542,0.3125 1.10417,0.69271 1.40625,1.14063c0.3125,0.44792 0.46875,0.99479 0.46875,1.64063c0,1.0625 -0.42708,1.91667 -1.28125,2.5625c-0.85417,0.64583 -1.96354,0.96875 -3.32812,0.96875c-0.95833,0 -1.80729,-0.16667 -2.54687,-0.5c-0.73958,-0.34375 -1.31771,-0.81771 -1.73437,-1.42187c-0.41667,-0.61458 -0.625,-1.27604 -0.625,-1.98437h2.04688c0.04167,0.6875 0.31771,1.23438 0.82813,1.64063c0.51042,0.39583 1.1875,0.59375 2.03125,0.59375c0.77083,0 1.39063,-0.15625 1.85938,-0.46875c0.46875,-0.3125 0.70313,-0.72917 0.70313,-1.25zM279.00953,313.11334v2.90625h2.23438v1.57813h-2.23437v7.42188c0,0.47917 0.09896,0.83854 0.29688,1.07813c0.19792,0.23958 0.53646,0.35938 1.01563,0.35938c0.23958,0 0.5625,-0.04167 0.96875,-0.125v1.65625c-0.53125,0.14583 -1.05208,0.21875 -1.5625,0.21875c-0.91667,0 -1.60937,-0.27604 -2.07812,-0.82812c-0.45833,-0.55208 -0.6875,-1.33854 -0.6875,-2.35937v-7.42187h-2.1875v-1.57812h2.1875v-2.90625zM290.59791,324.81647c0,-0.55208 -0.20833,-0.97917 -0.625,-1.28125c-0.41667,-0.3125 -1.14583,-0.57812 -2.1875,-0.79687c-1.03125,-0.22917 -1.85417,-0.49479 -2.46875,-0.79687c-0.60417,-0.3125 -1.05208,-0.68229 -1.34375,-1.10937c-0.29167,-0.42708 -0.4375,-0.9375 -0.4375,-1.53125c0,-0.97917 0.41667,-1.80729 1.25,-2.48437c0.83333,-0.67708 1.89583,-1.01562 3.1875,-1.01562c1.35417,0 2.45313,0.34896 3.29688,1.04688c0.84375,0.69792 1.26563,1.59375 1.26563,2.6875h-2.0625c0,-0.5625 -0.23958,-1.04687 -0.71875,-1.45312c-0.46875,-0.40625 -1.0625,-0.60937 -1.78125,-0.60937c-0.75,0 -1.33854,0.16667 -1.76562,0.5c-0.41667,0.32292 -0.625,0.74479 -0.625,1.26563c0,0.48958 0.19271,0.86458 0.57813,1.125c0.39583,0.25 1.10417,0.48958 2.125,0.71875c1.03125,0.21875 1.85938,0.48958 2.48438,0.8125c0.63542,0.3125 1.10417,0.69271 1.40625,1.14063c0.3125,0.44792 0.46875,0.99479 0.46875,1.64063c0,1.0625 -0.42708,1.91667 -1.28125,2.5625c-0.85417,0.64583 -1.96354,0.96875 -3.32812,0.96875c-0.95833,0 -1.80729,-0.16667 -2.54687,-0.5c-0.73958,-0.34375 -1.31771,-0.81771 -1.73437,-1.42187c-0.41667,-0.61458 -0.625,-1.27604 -0.625,-1.98437h2.04688c0.04167,0.6875 0.31771,1.23438 0.82813,1.64063c0.51042,0.39583 1.1875,0.59375 2.03125,0.59375c0.77083,0 1.39063,-0.15625 1.85938,-0.46875c0.46875,-0.3125 0.70313,-0.72917 0.70313,-1.25zM301.93568,327.98834v-10.39062h-1.90625v-1.57812h1.90625v-1.23437c0,-1.28125 0.33854,-2.27083 1.01563,-2.96875c0.6875,-0.69792 1.66146,-1.04687 2.92188,-1.04687c0.46875,0 0.9375,0.0625 1.40625,0.1875l-0.125,1.65625c-0.34375,-0.07292 -0.70833,-0.10937 -1.09375,-0.10937c-0.66667,0 -1.18229,0.19792 -1.54687,0.59375c-0.35417,0.38542 -0.53125,0.9375 -0.53125,1.65625v1.26563h2.54688v1.57813h-2.54687v10.39063zM314.56684,317.84772c-0.30208,-0.04167 -0.63542,-0.0625 -1,-0.0625c-1.34375,0 -2.25521,0.56771 -2.73437,1.70313v8.5h-2.04687v-11.96875h2l0.03125,1.375c0.66667,-1.0625 1.61458,-1.59375 2.84375,-1.59375c0.40625,0 0.70833,0.05208 0.90625,0.15625zM315.68372,321.89459c0,-1.17708 0.22917,-2.23437 0.6875,-3.17187c0.46875,-0.9375 1.11458,-1.65625 1.9375,-2.15625c0.82292,-0.51042 1.76042,-0.76562 2.8125,-0.76562c1.63542,0 2.95313,0.5625 3.95313,1.6875c1.01042,1.125 1.51563,2.625 1.51563,4.5v0.14063c0,1.16667 -0.22396,2.21354 -0.67187,3.14063c-0.44792,0.92708 -1.08854,1.65104 -1.92187,2.17188c-0.82292,0.51042 -1.77604,0.76563 -2.85937,0.76563c-1.61458,0 -2.92708,-0.5625 -3.9375,-1.6875c-1.01042,-1.125 -1.51562,-2.61979 -1.51562,-4.48437zM317.74622,322.12897c0,1.33333 0.30729,2.40104 0.92188,3.20313c0.61458,0.80208 1.4375,1.20313 2.46875,1.20313c1.04167,0 1.86979,-0.40625 2.48438,-1.21875c0.61458,-0.8125 0.92188,-1.95312 0.92188,-3.42187c0,-1.3125 -0.3125,-2.375 -0.9375,-3.1875c-0.625,-0.82292 -1.45312,-1.23437 -2.48437,-1.23437c-1.01042,0 -1.82812,0.40625 -2.45312,1.21875c-0.61458,0.80208 -0.92187,1.94792 -0.92187,3.4375zM331.07362,316.01959l0.0625,1.32813c0.875,-1.03125 2.05729,-1.54687 3.54688,-1.54687c1.67708,0 2.81771,0.64063 3.42188,1.92188c0.39583,-0.57292 0.91146,-1.03646 1.54688,-1.39062c0.64583,-0.35417 1.40104,-0.53125 2.26563,-0.53125c2.625,0 3.95833,1.39063 4,4.17188v8.01563h-2.04687v-7.90625c0,-0.85417 -0.19792,-1.48958 -0.59375,-1.90625c-0.38542,-0.42708 -1.03646,-0.64062 -1.95312,-0.64062c-0.76042,0 -1.39062,0.22917 -1.89062,0.6875c-0.5,0.44792 -0.79167,1.05729 -0.875,1.82813v7.9375h-2.0625v-7.84375c0,-1.73958 -0.84896,-2.60937 -2.54687,-2.60937c-1.34375,0 -2.26562,0.57292 -2.76562,1.71875v8.73438h-2.04687v-11.96875zM357.39918,313.11334v2.90625h2.23438v1.57813h-2.23437v7.42188c0,0.47917 0.09896,0.83854 0.29688,1.07813c0.19792,0.23958 0.53646,0.35938 1.01563,0.35938c0.23958,0 0.5625,-0.04167 0.96875,-0.125v1.65625c-0.53125,0.14583 -1.05208,0.21875 -1.5625,0.21875c-0.91667,0 -1.60937,-0.27604 -2.07812,-0.82812c-0.45833,-0.55208 -0.6875,-1.33854 -0.6875,-2.35937v-7.42187h-2.1875v-1.57812h2.1875v-2.90625zM364.06568,317.47272c0.90625,-1.11458 2.08854,-1.67187 3.54688,-1.67187c2.53125,0 3.80729,1.42708 3.82813,4.28125v7.90625h-2.04687v-7.92187c-0.01042,-0.86458 -0.20833,-1.5 -0.59375,-1.90625c-0.38542,-0.41667 -0.98958,-0.625 -1.8125,-0.625c-0.66667,0 -1.25,0.17708 -1.75,0.53125c-0.5,0.35417 -0.89062,0.81771 -1.17187,1.39063v8.53125h-2.04687v-17h2.04688zM379.4662,328.20709c-1.625,0 -2.94792,-0.53125 -3.96875,-1.59375c-1.01042,-1.0625 -1.51562,-2.48958 -1.51562,-4.28125v-0.375c0,-1.1875 0.22396,-2.24479 0.67188,-3.17187c0.45833,-0.9375 1.09375,-1.66667 1.90625,-2.1875c0.8125,-0.53125 1.69792,-0.79687 2.65625,-0.79687c1.55208,0 2.76042,0.51563 3.625,1.54688c0.86458,1.02083 1.29688,2.48438 1.29688,4.39063v0.84375h-8.10937c0.03125,1.1875 0.375,2.14583 1.03125,2.875c0.65625,0.71875 1.49479,1.07813 2.51563,1.07813c0.71875,0 1.32813,-0.14583 1.82813,-0.4375c0.51042,-0.29167 0.95313,-0.68229 1.32813,-1.17187l1.25,0.96875c-1,1.54167 -2.50521,2.3125 -4.51562,2.3125zM379.2162,317.47272c-0.83333,0 -1.53125,0.30208 -2.09375,0.90625c-0.55208,0.60417 -0.89583,1.44792 -1.03125,2.53125h6v-0.15625c-0.0625,-1.04167 -0.34375,-1.84896 -0.84375,-2.42187c-0.5,-0.57292 -1.17708,-0.85937 -2.03125,-0.85937z" fill="#000000" fill-rule="nonzero" stroke-width="1" stroke-linecap="square"/><path d="M109.08255,351.81647c0,-0.55208 -0.20833,-0.97917 -0.625,-1.28125c-0.41667,-0.3125 -1.14583,-0.57812 -2.1875,-0.79687c-1.03125,-0.22917 -1.85417,-0.49479 -2.46875,-0.79687c-0.60417,-0.3125 -1.05208,-0.68229 -1.34375,-1.10937c-0.29167,-0.42708 -0.4375,-0.9375 -0.4375,-1.53125c0,-0.97917 0.41667,-1.80729 1.25,-2.48437c0.83333,-0.67708 1.89583,-1.01562 3.1875,-1.01562c1.35417,0 2.45313,0.34896 3.29688,1.04688c0.84375,0.69792 1.26563,1.59375 1.26563,2.6875h-2.0625c0,-0.5625 -0.23958,-1.04687 -0.71875,-1.45312c-0.46875,-0.40625 -1.0625,-0.60937 -1.78125,-0.60937c-0.75,0 -1.33854,0.16667 -1.76562,0.5c-0.41667,0.32292 -0.625,0.74479 -0.625,1.26563c0,0.48958 0.19271,0.86458 0.57813,1.125c0.39583,0.25 1.10417,0.48958 2.125,0.71875c1.03125,0.21875 1.85938,0.48958 2.48438,0.8125c0.63542,0.3125 1.10417,0.69271 1.40625,1.14063c0.3125,0.44792 0.46875,0.99479 0.46875,1.64063c0,1.0625 -0.42708,1.91667 -1.28125,2.5625c-0.85417,0.64583 -1.96354,0.96875 -3.32812,0.96875c-0.95833,0 -1.80729,-0.16667 -2.54687,-0.5c-0.73958,-0.34375 -1.31771,-0.81771 -1.73437,-1.42187c-0.41667,-0.61458 -0.625,-1.27604 -0.625,-1.98437h2.04688c0.04167,0.6875 0.31771,1.23438 0.82813,1.64063c0.51042,0.39583 1.1875,0.59375 2.03125,0.59375c0.77083,0 1.39063,-0.15625 1.85938,-0.46875c0.46875,-0.3125 0.70313,-0.72917 0.70313,-1.25zM115.8428,344.47272c0.90625,-1.11458 2.08854,-1.67187 3.54688,-1.67187c2.53125,0 3.80729,1.42708 3.82813,4.28125v7.90625h-2.04687v-7.92187c-0.01042,-0.86458 -0.20833,-1.5 -0.59375,-1.90625c-0.38542,-0.41667 -0.98958,-0.625 -1.8125,-0.625c-0.66667,0 -1.25,0.17708 -1.75,0.53125c-0.5,0.35417 -0.89062,0.81771 -1.17187,1.39063v8.53125h-2.04687v-17h2.04688zM125.72769,348.8946c0,-1.17708 0.22917,-2.23437 0.6875,-3.17187c0.46875,-0.9375 1.11458,-1.65625 1.9375,-2.15625c0.82292,-0.51042 1.76042,-0.76562 2.8125,-0.76562c1.63542,0 2.95313,0.5625 3.95313,1.6875c1.01042,1.125 1.51563,2.625 1.51563,4.5v0.14063c0,1.16667 -0.22396,2.21354 -0.67187,3.14063c-0.44792,0.92708 -1.08854,1.65104 -1.92187,2.17188c-0.82292,0.51042 -1.77604,0.76563 -2.85937,0.76563c-1.61458,0 -2.92708,-0.5625 -3.9375,-1.6875c-1.01042,-1.125 -1.51562,-2.61979 -1.51562,-4.48437zM127.79019,349.12897c0,1.33333 0.30729,2.40104 0.92188,3.20313c0.61458,0.80208 1.4375,1.20313 2.46875,1.20313c1.04167,0 1.86979,-0.40625 2.48438,-1.21875c0.61458,-0.8125 0.92188,-1.95312 0.92188,-3.42187c0,-1.3125 -0.3125,-2.375 -0.9375,-3.1875c-0.625,-0.82292 -1.45312,-1.23437 -2.48437,-1.23437c-1.01042,0 -1.82812,0.40625 -2.45312,1.21875c-0.61458,0.80208 -0.92187,1.94792 -0.92187,3.4375zM149.30508,349.12897c0,1.82292 -0.41667,3.29167 -1.25,4.40625c-0.83333,1.11458 -1.95833,1.67188 -3.375,1.67188c-1.45833,0 -2.60417,-0.45833 -3.4375,-1.375v5.76563h-2.04687v-16.57812h1.875l0.09375,1.32813c0.83333,-1.03125 1.98958,-1.54687 3.46875,-1.54687c1.44792,0 2.58854,0.54167 3.42188,1.625c0.83333,1.08333 1.25,2.58854 1.25,4.51563zM147.25821,348.91022c0,-1.35417 -0.28646,-2.42187 -0.85937,-3.20312c-0.57292,-0.78125 -1.35937,-1.17187 -2.35937,-1.17187c-1.23958,0 -2.17187,0.54688 -2.79687,1.64063v5.71875c0.61458,1.09375 1.55208,1.64063 2.8125,1.64063c0.97917,0 1.75521,-0.38542 2.32813,-1.15625c0.58333,-0.78125 0.875,-1.9375 0.875,-3.46875zM151.84418,358.19147l-1.15625,-0.79687c0.6875,-0.95833 1.04688,-1.95312 1.07813,-2.98437v-1.84375h2v1.60938c0,0.73958 -0.18229,1.47917 -0.54687,2.21875c-0.36458,0.75 -0.82292,1.34896 -1.375,1.79688zM169.35321,354.98835c-0.11458,-0.23958 -0.20833,-0.66146 -0.28125,-1.26562c-0.95833,0.98958 -2.09375,1.48438 -3.40625,1.48438c-1.1875,0 -2.16146,-0.33333 -2.92187,-1c-0.75,-0.66667 -1.125,-1.51042 -1.125,-2.53125c0,-1.25 0.47396,-2.21875 1.42188,-2.90625c0.94792,-0.6875 2.28125,-1.03125 4,-1.03125h2v-0.95312c0,-0.70833 -0.21875,-1.27604 -0.65625,-1.70312c-0.42708,-0.42708 -1.05729,-0.64062 -1.89062,-0.64062c-0.72917,0 -1.34375,0.1875 -1.84375,0.5625c-0.48958,0.36458 -0.73437,0.80729 -0.73437,1.32813h-2.04687c0,-0.59375 0.20833,-1.16667 0.625,-1.71875c0.42708,-0.5625 1.00521,-1.00521 1.73438,-1.32812c0.72917,-0.32292 1.52604,-0.48437 2.39063,-0.48437c1.38542,0 2.46875,0.34375 3.25,1.03125c0.78125,0.6875 1.1875,1.63542 1.21875,2.84375v5.51563c0,1.09375 0.13542,1.96875 0.40625,2.625v0.17188zM165.96259,353.42585c0.63542,0 1.23958,-0.16667 1.8125,-0.5c0.58333,-0.33333 1.00521,-0.76562 1.26563,-1.29687v-2.45312h-1.60937c-2.51042,0 -3.76562,0.73438 -3.76562,2.20313c0,0.64583 0.21354,1.15104 0.64063,1.51563c0.42708,0.35417 0.97917,0.53125 1.65625,0.53125zM176.22385,343.0196l0.0625,1.5c0.91667,-1.14583 2.11458,-1.71875 3.59375,-1.71875c2.53125,0 3.80729,1.42708 3.82813,4.28125v7.90625h-2.04687v-7.92187c-0.01042,-0.86458 -0.20833,-1.5 -0.59375,-1.90625c-0.38542,-0.41667 -0.98958,-0.625 -1.8125,-0.625c-0.66667,0 -1.25,0.17708 -1.75,0.53125c-0.5,0.35417 -0.89062,0.81771 -1.17187,1.39063v8.53125h-2.04687v-11.96875zM186.28711,348.91022c0,-1.84375 0.43229,-3.32292 1.29688,-4.4375c0.875,-1.11458 2.02083,-1.67187 3.4375,-1.67187c1.39583,0 2.50521,0.47917 3.32813,1.4375v-6.25h2.04688v17h-1.89062l-0.09375,-1.28125c-0.82292,1 -1.96354,1.5 -3.42187,1.5c-1.38542,0 -2.51562,-0.56771 -3.39062,-1.70312c-0.875,-1.13542 -1.3125,-2.61458 -1.3125,-4.4375zM188.33398,349.12897c0,1.36458 0.28125,2.43229 0.84375,3.20313c0.5625,0.76042 1.33854,1.14063 2.32813,1.14063c1.29167,0 2.23958,-0.58333 2.84375,-1.75v-5.5c-0.61458,-1.125 -1.55729,-1.6875 -2.82812,-1.6875c-1,0 -1.78125,0.39063 -2.34375,1.17188c-0.5625,0.77083 -0.84375,1.91146 -0.84375,3.42188zM215.28256,349.12897c0,1.82292 -0.41667,3.29167 -1.25,4.40625c-0.83333,1.11458 -1.95833,1.67188 -3.375,1.67188c-1.45833,0 -2.60417,-0.45833 -3.4375,-1.375v5.76563h-2.04687v-16.57812h1.875l0.09375,1.32813c0.83333,-1.03125 1.98958,-1.54687 3.46875,-1.54687c1.44792,0 2.58854,0.54167 3.42188,1.625c0.83333,1.08333 1.25,2.58854 1.25,4.51563zM213.23569,348.91022c0,-1.35417 -0.28646,-2.42187 -0.85937,-3.20312c-0.57292,-0.78125 -1.35937,-1.17187 -2.35937,-1.17187c-1.23958,0 -2.17187,0.54688 -2.79687,1.64063v5.71875c0.61458,1.09375 1.55208,1.64063 2.8125,1.64063c0.97917,0 1.75521,-0.38542 2.32813,-1.15625c0.58333,-0.78125 0.875,-1.9375 0.875,-3.46875zM223.66541,344.84772c-0.30208,-0.04167 -0.63542,-0.0625 -1,-0.0625c-1.34375,0 -2.25521,0.56771 -2.73437,1.70313v8.5h-2.04687v-11.96875h2l0.03125,1.375c0.66667,-1.0625 1.61458,-1.59375 2.84375,-1.59375c0.40625,0 0.70833,0.05208 0.90625,0.15625zM230.30902,355.2071c-1.625,0 -2.94792,-0.53125 -3.96875,-1.59375c-1.01042,-1.0625 -1.51562,-2.48958 -1.51562,-4.28125v-0.375c0,-1.1875 0.22396,-2.24479 0.67188,-3.17187c0.45833,-0.9375 1.09375,-1.66667 1.90625,-2.1875c0.8125,-0.53125 1.69792,-0.79687 2.65625,-0.79687c1.55208,0 2.76042,0.51563 3.625,1.54688c0.86458,1.02083 1.29688,2.48438 1.29688,4.39063v0.84375h-8.10937c0.03125,1.1875 0.375,2.14583 1.03125,2.875c0.65625,0.71875 1.49479,1.07813 2.51563,1.07813c0.71875,0 1.32813,-0.14583 1.82813,-0.4375c0.51042,-0.29167 0.95313,-0.68229 1.32813,-1.17187l1.25,0.96875c-1,1.54167 -2.50521,2.3125 -4.51562,2.3125zM230.05902,344.47272c-0.83333,0 -1.53125,0.30208 -2.09375,0.90625c-0.55208,0.60417 -0.89583,1.44792 -1.03125,2.53125h6v-0.15625c-0.0625,-1.04167 -0.34375,-1.84896 -0.84375,-2.42187c-0.5,-0.57292 -1.17708,-0.85937 -2.03125,-0.85937zM244.31195,351.81647c0,-0.55208 -0.20833,-0.97917 -0.625,-1.28125c-0.41667,-0.3125 -1.14583,-0.57812 -2.1875,-0.79687c-1.03125,-0.22917 -1.85417,-0.49479 -2.46875,-0.79687c-0.60417,-0.3125 -1.05208,-0.68229 -1.34375,-1.10937c-0.29167,-0.42708 -0.4375,-0.9375 -0.4375,-1.53125c0,-0.97917 0.41667,-1.80729 1.25,-2.48437c0.83333,-0.67708 1.89583,-1.01562 3.1875,-1.01562c1.35417,0 2.45313,0.34896 3.29688,1.04688c0.84375,0.69792 1.26563,1.59375 1.26563,2.6875h-2.0625c0,-0.5625 -0.23958,-1.04687 -0.71875,-1.45312c-0.46875,-0.40625 -1.0625,-0.60937 -1.78125,-0.60937c-0.75,0 -1.33854,0.16667 -1.76562,0.5c-0.41667,0.32292 -0.625,0.74479 -0.625,1.26563c0,0.48958 0.19271,0.86458 0.57813,1.125c0.39583,0.25 1.10417,0.48958 2.125,0.71875c1.03125,0.21875 1.85938,0.48958 2.48438,0.8125c0.63542,0.3125 1.10417,0.69271 1.40625,1.14063c0.3125,0.44792 0.46875,0.99479 0.46875,1.64063c0,1.0625 -0.42708,1.91667 -1.28125,2.5625c-0.85417,0.64583 -1.96354,0.96875 -3.32812,0.96875c-0.95833,0 -1.80729,-0.16667 -2.54687,-0.5c-0.73958,-0.34375 -1.31771,-0.81771 -1.73437,-1.42187c-0.41667,-0.61458 -0.625,-1.27604 -0.625,-1.98437h2.04688c0.04167,0.6875 0.31771,1.23438 0.82813,1.64063c0.51042,0.39583 1.1875,0.59375 2.03125,0.59375c0.77083,0 1.39063,-0.15625 1.85938,-0.46875c0.46875,-0.3125 0.70313,-0.72917 0.70313,-1.25zM255.99408,351.81647c0,-0.55208 -0.20833,-0.97917 -0.625,-1.28125c-0.41667,-0.3125 -1.14583,-0.57812 -2.1875,-0.79687c-1.03125,-0.22917 -1.85417,-0.49479 -2.46875,-0.79687c-0.60417,-0.3125 -1.05208,-0.68229 -1.34375,-1.10937c-0.29167,-0.42708 -0.4375,-0.9375 -0.4375,-1.53125c0,-0.97917 0.41667,-1.80729 1.25,-2.48437c0.83333,-0.67708 1.89583,-1.01562 3.1875,-1.01562c1.35417,0 2.45313,0.34896 3.29688,1.04688c0.84375,0.69792 1.26563,1.59375 1.26563,2.6875h-2.0625c0,-0.5625 -0.23958,-1.04687 -0.71875,-1.45312c-0.46875,-0.40625 -1.0625,-0.60937 -1.78125,-0.60937c-0.75,0 -1.33854,0.16667 -1.76562,0.5c-0.41667,0.32292 -0.625,0.74479 -0.625,1.26563c0,0.48958 0.19271,0.86458 0.57813,1.125c0.39583,0.25 1.10417,0.48958 2.125,0.71875c1.03125,0.21875 1.85938,0.48958 2.48438,0.8125c0.63542,0.3125 1.10417,0.69271 1.40625,1.14063c0.3125,0.44792 0.46875,0.99479 0.46875,1.64063c0,1.0625 -0.42708,1.91667 -1.28125,2.5625c-0.85417,0.64583 -1.96354,0.96875 -3.32812,0.96875c-0.95833,0 -1.80729,-0.16667 -2.54687,-0.5c-0.73958,-0.34375 -1.31771,-0.81771 -1.73437,-1.42187c-0.41667,-0.61458 -0.625,-1.27604 -0.625,-1.98437h2.04688c0.04167,0.6875 0.31771,1.23438 0.82813,1.64063c0.51042,0.39583 1.1875,0.59375 2.03125,0.59375c0.77083,0 1.39063,-0.15625 1.85938,-0.46875c0.46875,-0.3125 0.70313,-0.72917 0.70313,-1.25zM277.32666,340.62897h-5.17187v14.35938h-2.12503v-14.35937h-5.15625v-1.75h12.45316zM287.33936,340.11335v2.90625h2.23438v1.57813h-2.23437v7.42188c0,0.47917 0.09896,0.83854 0.29688,1.07813c0.19792,0.23958 0.53646,0.35938 1.01563,0.35938c0.23958,0 0.5625,-0.04167 0.96875,-0.125v1.65625c-0.53125,0.14583 -1.05208,0.21875 -1.5625,0.21875c-0.91667,0 -1.60937,-0.27604 -2.07812,-0.82812c-0.45833,-0.55208 -0.6875,-1.33854 -0.6875,-2.35937v-7.42187h-2.1875v-1.57812h2.1875v-2.90625zM291.19074,348.8946c0,-1.17708 0.22917,-2.23437 0.6875,-3.17187c0.46875,-0.9375 1.11458,-1.65625 1.9375,-2.15625c0.82292,-0.51042 1.76042,-0.76562 2.8125,-0.76562c1.63542,0 2.95313,0.5625 3.95313,1.6875c1.01042,1.125 1.51563,2.625 1.51563,4.5v0.14063c0,1.16667 -0.22396,2.21354 -0.67187,3.14063c-0.44792,0.92708 -1.08854,1.65104 -1.92187,2.17188c-0.82292,0.51042 -1.77604,0.76563 -2.85937,0.76563c-1.61458,0 -2.92708,-0.5625 -3.9375,-1.6875c-1.01042,-1.125 -1.51562,-2.61979 -1.51562,-4.48437zM293.25324,349.12897c0,1.33333 0.30729,2.40104 0.92188,3.20313c0.61458,0.80208 1.4375,1.20313 2.46875,1.20313c1.04167,0 1.86979,-0.40625 2.48438,-1.21875c0.61458,-0.8125 0.92188,-1.95312 0.92188,-3.42187c0,-1.3125 -0.3125,-2.375 -0.9375,-3.1875c-0.625,-0.82292 -1.45312,-1.23437 -2.48437,-1.23437c-1.01042,0 -1.82812,0.40625 -2.45312,1.21875c-0.61458,0.80208 -0.92187,1.94792 -0.92187,3.4375zM315.06439,353.53522c0.72917,0 1.36458,-0.21875 1.90625,-0.65625c0.55208,-0.44792 0.85938,-1 0.92188,-1.65625h1.9375c-0.04167,0.67708 -0.28125,1.32813 -0.71875,1.95313c-0.42708,0.61458 -1.00521,1.10938 -1.73437,1.48438c-0.72917,0.36458 -1.5,0.54688 -2.3125,0.54688c-1.625,0 -2.92187,-0.54167 -3.89062,-1.625c-0.95833,-1.09375 -1.4375,-2.58333 -1.4375,-4.46875v-0.34375c0,-1.16667 0.21354,-2.20312 0.64063,-3.10937c0.42708,-0.90625 1.04167,-1.60937 1.84375,-2.10937c0.80208,-0.5 1.75,-0.75 2.84375,-0.75c1.34375,0 2.45833,0.40104 3.34375,1.20313c0.88542,0.80208 1.35938,1.84375 1.42188,3.125h-1.9375c-0.0625,-0.77083 -0.35937,-1.40625 -0.89062,-1.90625c-0.52083,-0.5 -1.16667,-0.75 -1.9375,-0.75c-1.04167,0 -1.84896,0.375 -2.42187,1.125c-0.57292,0.75 -0.85937,1.83333 -0.85937,3.25v0.39063c0,1.375 0.28125,2.4375 0.84375,3.1875c0.57292,0.73958 1.38542,1.10938 2.4375,1.10938zM324.17352,344.47272c0.90625,-1.11458 2.08854,-1.67187 3.54688,-1.67187c2.53125,0 3.80729,1.42708 3.82813,4.28125v7.90625h-2.04687v-7.92187c-0.01042,-0.86458 -0.20833,-1.5 -0.59375,-1.90625c-0.38542,-0.41667 -0.98958,-0.625 -1.8125,-0.625c-0.66667,0 -1.25,0.17708 -1.75,0.53125c-0.5,0.35417 -0.89062,0.81771 -1.17187,1.39063v8.53125h-2.04687v-17h2.04688zM341.99591,354.98835c-0.11458,-0.23958 -0.20833,-0.66146 -0.28125,-1.26562c-0.95833,0.98958 -2.09375,1.48438 -3.40625,1.48438c-1.1875,0 -2.16146,-0.33333 -2.92187,-1c-0.75,-0.66667 -1.125,-1.51042 -1.125,-2.53125c0,-1.25 0.47396,-2.21875 1.42188,-2.90625c0.94792,-0.6875 2.28125,-1.03125 4,-1.03125h2v-0.95312c0,-0.70833 -0.21875,-1.27604 -0.65625,-1.70312c-0.42708,-0.42708 -1.05729,-0.64062 -1.89062,-0.64062c-0.72917,0 -1.34375,0.1875 -1.84375,0.5625c-0.48958,0.36458 -0.73437,0.80729 -0.73437,1.32813h-2.04687c0,-0.59375 0.20833,-1.16667 0.625,-1.71875c0.42708,-0.5625 1.00521,-1.00521 1.73438,-1.32812c0.72917,-0.32292 1.52604,-0.48437 2.39063,-0.48437c1.38542,0 2.46875,0.34375 3.25,1.03125c0.78125,0.6875 1.1875,1.63542 1.21875,2.84375v5.51563c0,1.09375 0.13542,1.96875 0.40625,2.625v0.17188zM338.60529,353.42585c0.63542,0 1.23958,-0.16667 1.8125,-0.5c0.58333,-0.33333 1.00521,-0.76562 1.26563,-1.29687v-2.45312h-1.60937c-2.51042,0 -3.76562,0.73438 -3.76562,2.20313c0,0.64583 0.21354,1.15104 0.64063,1.51563c0.42708,0.35417 0.97917,0.53125 1.65625,0.53125zM349.71033,340.11335v2.90625h2.23438v1.57813h-2.23437v7.42188c0,0.47917 0.09896,0.83854 0.29688,1.07813c0.19792,0.23958 0.53646,0.35938 1.01563,0.35938c0.23958,0 0.5625,-0.04167 0.96875,-0.125v1.65625c-0.53125,0.14583 -1.05208,0.21875 -1.5625,0.21875c-0.91667,0 -1.60937,-0.27604 -2.07812,-0.82812c-0.45833,-0.55208 -0.6875,-1.33854 -0.6875,-2.35937v-7.42187h-2.18756v-1.57812h2.18756v-2.90625zM354.37683,353.91022c0,-0.35417 0.10417,-0.64583 0.3125,-0.875c0.20833,-0.23958 0.52083,-0.35937 0.9375,-0.35937c0.42708,0 0.75,0.11979 0.96875,0.35938c0.21875,0.22917 0.32813,0.52083 0.32813,0.875c0,0.34375 -0.10937,0.63021 -0.32812,0.85938c-0.21875,0.22917 -0.54167,0.34375 -0.96875,0.34375c-0.41667,0 -0.72917,-0.11458 -0.9375,-0.34375c-0.20833,-0.22917 -0.3125,-0.51562 -0.3125,-0.85937z" fill="#000000" fill-rule="nonzero" stroke-width="1" stroke-linecap="square"/></g></g></svg>