<svg version="1.1" xmlns="http://www.w3.org/2000/svg" xmlns:xlink="http://www.w3.org/1999/xlink" width="5.16" height="5.16" viewBox="0,0,5.16,5.16"><g transform="translate(-237.42,-177.42)"><g data-paper-data="{&quot;isPaintingLayer&quot;:true}" fill-rule="nonzero" stroke="none" stroke-width="0" stroke-linecap="butt" stroke-linejoin="miter" stroke-miterlimit="10" stroke-dasharray="" stroke-dashoffset="0" style="mix-blend-mode: normal"><path d="M237.42,182.58v-5.16h5.16v5.16z" data-paper-data="{&quot;index&quot;:null}" fill="none"/><path d="M242.08071,179.55102c-0.11687,0.36224 -0.3033,0.62713 -0.38383,0.60115c-0.08054,-0.02598 0.03109,-0.28833 0.14796,-0.65056c0.11688,-0.36223 0.19472,-0.68719 0.27525,-0.66121c0.08053,0.02599 0.07748,0.34839 -0.03939,0.71062z" data-paper-data="{&quot;index&quot;:null}" fill="#693a00"/><path d="M238.28499,179.83027c0.0791,0.03005 -0.04575,0.28636 -0.18092,0.64217c-0.13517,0.35581 -0.22946,0.67639 -0.30857,0.64633c-0.0791,-0.03005 -0.05962,-0.35189 0.07553,-0.70769c0.13517,-0.35581 0.33484,-0.61086 0.41394,-0.58082z" fill="#693a00"/><path d="M240.33773,180.61856c0.06365,0 0.11524,0.23745 0.11524,0.53036c0,0.29291 -0.05159,0.53036 -0.11524,0.53036c-0.06365,0 -0.11524,-0.23745 -0.11524,-0.53036c0,-0.29291 0.05159,-0.53036 0.11524,-0.53036z" data-paper-data="{&quot;index&quot;:null}" fill="#693a00"/><path d="M239.69607,180.40926c0.06365,0 0.11524,0.23745 0.11524,0.53036c0,0.29291 -0.05159,0.53036 -0.11524,0.53036c-0.06365,0 -0.11524,-0.23745 -0.11524,-0.53036c0,-0.29291 0.05159,-0.53036 0.11524,-0.53036z" data-paper-data="{&quot;index&quot;:null}" fill="#693a00"/><path d="M242.01537,179.90165c0.00545,1.01079 0.01053,1.23685 -0.52482,1.31284c-0.03985,0.00428 -0.07817,0.02362 -0.07817,0.02362l-0.14851,0.22431l-0.52862,-0.00082l-0.1643,-0.16966c0,0 -0.50686,0.00622 -0.57158,0.00571c-2.04659,-0.01603 -2.02985,-0.00532 -2.04555,-1.41956c-0.01566,-1.41096 -0.02454,-1.42238 2.04555,-1.39881c0.15256,0.00174 0.45825,0.01864 0.45825,0.01864l0.1761,0.20589l0.57301,0.04115l0.16281,-0.21527c0,0 0.06115,0.00615 0.08983,0.0074c0.47129,0.02056 0.5512,0.47386 0.55601,1.36457z" data-paper-data="{&quot;index&quot;:null}" fill="#ffab19"/></g></g></svg>