<svg version="1.1" xmlns="http://www.w3.org/2000/svg" xmlns:xlink="http://www.w3.org/1999/xlink" width="215" height="215" viewBox="0,0,215,215"><g transform="translate(-132.5,-72.5)"><g data-paper-data="{&quot;isPaintingLayer&quot;:true}" fill-rule="nonzero" stroke="none" stroke-linejoin="miter" stroke-miterlimit="10" stroke-dasharray="" stroke-dashoffset="0" style="mix-blend-mode: normal"><path d="M245.55149,185.51596c0.77335,0 1.32574,0.0947 1.65718,0.28409c0.33143,0.17361 0.55239,0.44192 0.66287,0.80491c0.11048,0.36299 0.16572,0.84437 0.16572,1.44412c0,0.58397 -0.06313,1.05744 -0.18938,1.42043c-0.11048,0.36299 -0.30775,0.60763 -0.59184,0.7339c-0.41034,0.22095 -0.99431,0.33143 -1.75186,0.33143h-11.0557c-0.67866,0 -1.2626,-0.25252 -1.75186,-0.75757c-0.48926,-0.50504 -0.73388,-1.09689 -0.73388,-1.77554c0,-1.02587 0.34723,-1.96492 1.04165,-2.81718c0.71022,-0.85226 1.56248,-1.58614 2.55678,-2.20166c1.01009,-0.61552 2.01229,-1.21525 3.00659,-1.79922c1.01009,-0.59973 1.86236,-1.27839 2.55678,-2.03596c0.71022,-0.75757 1.06533,-1.55458 1.06533,-2.39106c0,-0.17361 -0.07102,-0.41034 -0.21306,-0.71022c-0.12625,-0.31565 -0.2683,-0.57606 -0.42613,-0.78123c-0.15783,-0.20518 -0.41034,-0.38668 -0.75757,-0.54449c-0.33143,-0.17361 -0.79702,-0.26041 -1.39675,-0.26041c-0.59973,0 -1.12056,0.22095 -1.56248,0.66287c-0.44192,0.44192 -0.69443,0.88382 -0.75757,1.32574l-0.11836,0.6392v0.16572c0,0.41034 -0.01579,0.726 -0.04735,0.94696c-0.01579,0.20518 -0.10259,0.43403 -0.26041,0.68655c-0.28409,0.45769 -1.01797,0.68655 -2.20166,0.68655c-1.32574,0 -2.10697,-0.3551 -2.34371,-1.06532c-0.0947,-0.29988 -0.14205,-0.78123 -0.14205,-1.4441c0,-1.95704 0.70233,-3.70892 2.10699,-5.2556c1.40465,-1.56248 3.24333,-2.34371 5.51603,-2.34371c2.2727,0 4.11137,0.78913 5.51603,2.36739c1.42043,1.56248 2.13065,3.35379 2.13065,5.37398c0,1.07321 -0.23674,2.0912 -0.71022,3.05394c-0.47348,0.96274 -1.04165,1.73609 -1.70452,2.32004c-1.38887,1.23105 -2.6278,2.06752 -3.7168,2.50944l-0.71022,0.28409v0.14205z" fill="#ffffff" stroke-width="1" stroke-linecap="square"/><path d="M132.5,287.5v-215h215v215z" fill="none" stroke-width="0" stroke-linecap="butt"/></g></g></svg>