<svg version="1.1" xmlns="http://www.w3.org/2000/svg" xmlns:xlink="http://www.w3.org/1999/xlink" width="134" height="134" viewBox="0,0,134,134"><g transform="translate(-173,-113)"><g data-paper-data="{&quot;isPaintingLayer&quot;:true}" fill-rule="nonzero" stroke-linecap="butt" stroke-linejoin="miter" stroke-miterlimit="10" stroke-dasharray="" stroke-dashoffset="0" style="mix-blend-mode: normal"><path d="M216.78685,182.20102c0.15714,-6.71326 1.85654,-11.85671 21.74085,-16.85815c13.64967,-2.14302 25.55238,7.98053 25.87827,17.33665c-0.26571,7.55965 -4.41613,9.6666 -23.54622,10.55281c-1.66864,0.0773 -2.85836,1.59021 -4.61185,2.05211c-2.62601,0.69174 -5.74656,0.40043 -7.46339,0.41291c-2.18115,0.01586 -2.42965,-2.15217 -3.9764,-2.28639c-7.74979,-0.67246 -8.2017,-3.5006 -8.02124,-11.20996z" fill="#ff6680" stroke="#ffffff" stroke-width="5"/><path d="M216.78685,182.20102c0.15714,-6.71326 1.85654,-11.85671 21.74085,-16.85815c13.64967,-2.14302 25.55238,7.98053 25.87827,17.33665c-0.26571,7.55965 -4.41613,9.6666 -23.54622,10.55281c-1.66864,0.0773 -2.85836,1.59021 -4.61185,2.05211c-2.62601,0.69174 -5.74656,0.40043 -7.46339,0.41291c-2.18115,0.01586 -2.42965,-2.15217 -3.9764,-2.28639c-7.74979,-0.67246 -8.2017,-3.5006 -8.02124,-11.20996z" fill="#ff6680" stroke="none" stroke-width="0"/><path d="M257.45066,179.3608c0.95201,5.86164 0.43717,6.37756 -11.94691,7.46831c-12.6704,1.11596 -13.21756,-0.39958 -13.51858,-7.27617c-0.28626,-6.53919 5.36259,-7.59243 12.74213,-7.44441c9.36834,0.1879 11.8202,1.69142 12.72336,7.25226z" data-paper-data="{&quot;index&quot;:null}" fill="#df596f" stroke="none" stroke-width="0"/><g fill="#ffffff" stroke="none" stroke-width="0"><path d="M240.59558,179.94216c0.05559,1.81674 -0.70266,3.3141 -1.69363,3.34441c-0.99095,0.03033 -1.83935,-1.41786 -1.89493,-3.23461c-0.05559,-1.81674 0.70267,-3.3141 1.69362,-3.34442c0.99095,-0.03033 1.83934,1.41787 1.89493,3.23462z"/><path d="M254.92858,178.66251c0.05558,1.81674 -0.70266,3.3141 -1.69362,3.34442c-0.99095,0.03033 -1.83935,-1.41786 -1.89493,-3.23462c-0.05558,-1.81674 0.70267,-3.3141 1.69362,-3.34442c0.99095,-0.03033 1.83935,1.41786 1.89493,3.23461z"/><path d="M249.73529,179.48288c0,0 -1.23328,3.28554 -3.39477,3.40531c-3.62684,0.201 -4.60554,-2.45722 -4.60554,-2.45722c0,0 1.61334,0.24762 3.74723,-0.11692c2.13387,-0.36453 4.25307,-0.83119 4.25307,-0.83119z"/></g><path d="M173,247v-134h134v134z" fill="none" stroke="none" stroke-width="0"/></g></g></svg>