<svg version="1.1" xmlns="http://www.w3.org/2000/svg" xmlns:xlink="http://www.w3.org/1999/xlink" width="215" height="215" viewBox="0,0,215,215"><g transform="translate(-132.5,-72.5)"><g data-paper-data="{&quot;isPaintingLayer&quot;:true}" fill-rule="nonzero" stroke="none" stroke-linejoin="miter" stroke-miterlimit="10" stroke-dasharray="" stroke-dashoffset="0" style="mix-blend-mode: normal"><path d="M234.24721,171.98636c0.55239,-0.77335 1.32574,-1.41254 2.32004,-1.91758c0.99431,-0.52083 2.13854,-0.78123 3.43272,-0.78123c1.29418,0 2.42263,0.25252 3.38537,0.75757c0.97851,0.50504 1.74397,1.13634 2.29637,1.89391c0.56817,0.75757 1.01798,1.64138 1.34942,2.65148c0.56817,1.70452 0.85226,3.50374 0.85226,5.39765c0,3.40904 -0.73388,6.11575 -2.20166,8.12015c-0.55239,0.75757 -1.31785,1.38098 -2.29636,1.87024c-0.96274,0.48926 -2.0833,0.7339 -3.36169,0.7339c-1.27839,0 -2.41474,-0.25252 -3.40904,-0.75757c-0.97851,-0.50504 -1.75186,-1.12056 -2.32004,-1.84656c-0.55239,-0.74178 -1.01009,-1.61772 -1.37308,-2.6278c-0.53661,-1.62561 -0.80491,-3.46429 -0.80491,-5.51601c0,-1.87812 0.22095,-3.48795 0.66287,-4.82947c0.44192,-1.34152 0.93117,-2.39106 1.46778,-3.14862zM239.9763,185.66987c1.94126,0 2.91189,-1.84656 2.91189,-5.53969v-0.16571c0,-3.78783 -0.96274,-5.68174 -2.88822,-5.68174c-1.92547,0 -2.88822,1.90181 -2.88822,5.70541c0,3.78783 0.95485,5.68174 2.86455,5.68174z" fill="#ffffff" stroke-width="1" stroke-linecap="square"/><path d="M132.5,287.5v-215h215v215z" fill="none" stroke-width="0" stroke-linecap="butt"/></g></g></svg>