<svg version="1.1" xmlns="http://www.w3.org/2000/svg" xmlns:xlink="http://www.w3.org/1999/xlink" width="112.64419" height="25.95512" viewBox="0,0,112.64419,25.95512"><g transform="translate(-183.67791,-167.02244)"><g data-paper-data="{&quot;isPaintingLayer&quot;:true}" fill-rule="nonzero" stroke-miterlimit="10" stroke-dasharray="" stroke-dashoffset="0" style="mix-blend-mode: normal"><path d="M196.65547,167.02244h86.68907c7.18957,0 12.97756,5.78799 12.97756,12.97756c0,7.18957 -5.788,12.97756 -12.97756,12.97756h-86.68907c-7.18957,0 -12.97756,-5.78799 -12.97756,-12.97756c0,-7.18957 5.78799,-12.97756 12.97756,-12.97756z" fill="#000000" stroke="none" stroke-width="0.365" stroke-linecap="round" stroke-linejoin="round"/><path d="M199.6744,184.30417c-0.09688,0 -0.1714,-0.02981 -0.22356,-0.08943c-0.05216,-0.05962 -0.07826,-0.13041 -0.07826,-0.21238v-8.71903c0,-0.09688 0.02608,-0.17513 0.07826,-0.23475c0.05216,-0.05962 0.12668,-0.08943 0.22356,-0.08943h3.0293c0.91662,0 1.65438,0.13786 2.21329,0.41359c0.56636,0.27573 0.97624,0.68559 1.22961,1.22961c0.26084,0.53657 0.39497,1.19608 0.40241,1.97856c0.00745,0.40241 0.01118,0.7564 0.01118,1.06193c0,0.29808 -0.00373,0.64089 -0.01118,1.02839c-0.0149,0.81974 -0.14905,1.50162 -0.40241,2.04562c-0.25337,0.53657 -0.65578,0.93524 -1.20725,1.19607c-0.54401,0.26084 -1.26687,0.39125 -2.16857,0.39125zM200.68047,183.17516h2.02326c0.61853,0 1.11037,-0.0857 1.47553,-0.25709c0.36517,-0.1714 0.6297,-0.4434 0.79366,-0.816c0.16395,-0.37261 0.24965,-0.86818 0.25709,-1.4867c0.0149,-0.26084 0.02236,-0.49185 0.02236,-0.69306c0,-0.20122 0,-0.40241 0,-0.60363c0,-0.20122 -0.00745,-0.42849 -0.02236,-0.68188c-0.0149,-0.86445 -0.21984,-1.50162 -0.6148,-1.91148c-0.38752,-0.41733 -1.04702,-0.62598 -1.97855,-0.62598h-1.95619v7.07584zM211.24016,184.43832c-0.67814,0 -1.24451,-0.12668 -1.69909,-0.38006c-0.45458,-0.26084 -0.8011,-0.61853 -1.03958,-1.07311c-0.23847,-0.46203 -0.37261,-0.9874 -0.40241,-1.57613c-0.00745,-0.14905 -0.01118,-0.34279 -0.01118,-0.58128c0,-0.23847 0.00373,-0.42849 0.01118,-0.57008c0.02981,-0.59618 0.16395,-1.12155 0.40241,-1.57613c0.24592,-0.45458 0.59618,-0.80856 1.05075,-1.06193c0.45458,-0.26084 1.01722,-0.39125 1.68792,-0.39125c0.66325,0 1.22215,0.13041 1.67673,0.39125c0.45458,0.25337 0.80484,0.60736 1.05075,1.06193c0.24592,0.45458 0.38006,0.97996 0.40241,1.57613c0.00745,0.1416 0.01118,0.33163 0.01118,0.57008c0,0.23847 -0.00373,0.43223 -0.01118,0.58128c-0.02236,0.58872 -0.15649,1.1141 -0.40241,1.57613c-0.23847,0.45458 -0.58499,0.81229 -1.03958,1.07311c-0.45458,0.25337 -1.01722,0.38006 -1.68792,0.38006zM211.24016,183.40992c0.55146,0 0.99113,-0.17513 1.31903,-0.52538c0.3279,-0.35025 0.50674,-0.86445 0.53657,-1.5426c0.00745,-0.13413 0.01118,-0.30181 0.01118,-0.50302c0,-0.20866 -0.00373,-0.38006 -0.01118,-0.5142c-0.02981,-0.67814 -0.20866,-1.19235 -0.53657,-1.5426c-0.3279,-0.35025 -0.76758,-0.52538 -1.31903,-0.52538c-0.55146,0 -0.99487,0.17513 -1.33021,0.52538c-0.33535,0.35025 -0.51046,0.86445 -0.52538,1.5426c-0.00745,0.13413 -0.01118,0.30555 -0.01118,0.5142c0,0.20122 0.00373,0.36888 0.01118,0.50302c0.0149,0.67814 0.19003,1.19235 0.52538,1.5426c0.33535,0.35025 0.77875,0.52538 1.33021,0.52538zM218.64412,184.43832c-0.56636,0 -1.05075,-0.12668 -1.45316,-0.38006c-0.39497,-0.25337 -0.69678,-0.60736 -0.90543,-1.06193c-0.20122,-0.45458 -0.30181,-0.97624 -0.30181,-1.56495v-3.75589c0,-0.08943 0.02981,-0.16395 0.08943,-0.22356c0.05962,-0.05962 0.13413,-0.08943 0.22356,-0.08943h0.67069c0.08197,0 0.15276,0.02981 0.21238,0.08943c0.05962,0.05962 0.08943,0.13413 0.08943,0.22356v3.68882c0,1.32648 0.57755,1.98973 1.73263,1.98973c0.55146,0 0.99487,-0.17513 1.33021,-0.52538c0.33535,-0.35025 0.50302,-0.83837 0.50302,-1.46434v-3.68882c0,-0.08943 0.02608,-0.16395 0.07826,-0.22356c0.05962,-0.05962 0.13413,-0.08943 0.22356,-0.08943h0.67069c0.08943,0 0.16022,0.02981 0.21238,0.08943c0.05216,0.05962 0.07826,0.13413 0.07826,0.22356v6.32688c0,0.08197 -0.02608,0.15276 -0.07826,0.21238c-0.05216,0.05962 -0.12296,0.08943 -0.21238,0.08943h-0.62598c-0.08943,0 -0.16395,-0.02981 -0.22356,-0.08943c-0.05962,-0.05962 -0.08943,-0.13041 -0.08943,-0.21238v-0.59244c-0.23847,0.31299 -0.5291,0.56264 -0.8719,0.74894c-0.34279,0.1863 -0.79366,0.27945 -1.35257,0.27945zM227.51726,184.43832c-0.5291,0 -0.97249,-0.09315 -1.33021,-0.27945c-0.3577,-0.19375 -0.64461,-0.43595 -0.86072,-0.72659v0.57008c0,0.08197 -0.02981,0.15276 -0.08943,0.21238c-0.05216,0.05962 -0.12296,0.08943 -0.21238,0.08943h-0.6148c-0.08943,0 -0.16395,-0.02981 -0.22356,-0.08943c-0.05216,-0.05962 -0.07826,-0.13041 -0.07826,-0.21238v-8.86435c0,-0.08943 0.02608,-0.16395 0.07826,-0.22356c0.05962,-0.05962 0.13413,-0.08943 0.22356,-0.08943h0.65951c0.08197,0 0.14905,0.02981 0.20122,0.08943c0.05962,0.05962 0.08943,0.13413 0.08943,0.22356v3.06286c0.22356,-0.27573 0.51046,-0.50674 0.86072,-0.69306c0.35025,-0.1863 0.78247,-0.27945 1.29668,-0.27945c0.49929,0 0.92407,0.08943 1.27431,0.26828c0.35025,0.1714 0.63716,0.40987 0.86072,0.7154c0.23101,0.29808 0.40241,0.64089 0.5142,1.02839c0.11924,0.38006 0.19003,0.77875 0.21238,1.19607c0.00745,0.1416 0.01118,0.27573 0.01118,0.40241c0,0.11924 -0.00373,0.24965 -0.01118,0.39125c-0.02236,0.43223 -0.09315,0.83837 -0.21238,1.21842c-0.11178,0.38006 -0.28318,0.71913 -0.5142,1.01722c-0.22356,0.29808 -0.51046,0.53657 -0.86072,0.7154c-0.35025,0.1714 -0.77502,0.25709 -1.27431,0.25709zM227.2378,183.35402c0.46203,0 0.82346,-0.1006 1.08429,-0.30181c0.26828,-0.20122 0.45831,-0.46203 0.57008,-0.78247c0.11924,-0.3279 0.1863,-0.67814 0.20122,-1.05075c0.00745,-0.25337 0.00745,-0.51046 0,-0.7713c-0.0149,-0.37261 -0.08197,-0.71913 -0.20122,-1.03958c-0.11178,-0.3279 -0.30181,-0.59244 -0.57008,-0.79366c-0.26084,-0.20122 -0.62226,-0.30181 -1.08429,-0.30181c-0.41733,0 -0.76385,0.09688 -1.03958,0.29063c-0.27573,0.19375 -0.48439,0.4434 -0.62598,0.74894c-0.13413,0.30555 -0.20494,0.61108 -0.21238,0.91662c-0.00745,0.14905 -0.01118,0.32418 -0.01118,0.52538c0,0.19375 0.00373,0.36143 0.01118,0.50302c0.0149,0.33535 0.0857,0.65951 0.21238,0.97249c0.13413,0.31299 0.33535,0.5738 0.60363,0.78247c0.27573,0.20122 0.6297,0.30181 1.06193,0.30181zM232.35106,184.30417c-0.08943,0 -0.16395,-0.02981 -0.22356,-0.08943c-0.05216,-0.05962 -0.07826,-0.13041 -0.07826,-0.21238v-8.86435c0,-0.08943 0.02608,-0.16395 0.07826,-0.22356c0.05962,-0.05962 0.13413,-0.08943 0.22356,-0.08943h0.62598c0.09688,0 0.1714,0.02981 0.22356,0.08943c0.05962,0.05962 0.08943,0.13413 0.08943,0.22356v8.86435c0,0.08197 -0.02981,0.15276 -0.08943,0.21238c-0.05216,0.05962 -0.12668,0.08943 -0.22356,0.08943zM238.05355,184.43832c-0.92407,0 -1.65811,-0.28318 -2.2021,-0.84955c-0.54401,-0.56636 -0.84209,-1.33766 -0.89426,-2.31389c-0.00745,-0.11924 -0.01118,-0.26828 -0.01118,-0.44712c0,-0.1863 0.00373,-0.33535 0.01118,-0.44712c0.02981,-0.63342 0.17513,-1.18862 0.43595,-1.66556c0.26084,-0.47695 0.6148,-0.84209 1.06193,-1.09547c0.44712,-0.26084 0.97624,-0.39125 1.58732,-0.39125c0.67069,0 1.23333,0.14532 1.68792,0.43595c0.46203,0.28318 0.81229,0.68559 1.05075,1.20725c0.24592,0.52165 0.36888,1.13645 0.36888,1.84441v0.22356c0,0.09688 -0.02981,0.17513 -0.08943,0.23475c-0.05962,0.05216 -0.13413,0.07826 -0.22356,0.07826h-4.61661c0,0.00745 0,0.02608 0,0.0559c0,0.02236 0,0.04098 0,0.0559c0.02236,0.36517 0.10433,0.70796 0.24592,1.02839c0.1416,0.31299 0.34653,0.57008 0.6148,0.7713c0.27573,0.19375 0.59618,0.29063 0.96132,0.29063c0.31299,0 0.57755,-0.04844 0.79366,-0.14532c0.21611,-0.10433 0.39125,-0.21611 0.52538,-0.33535c0.13413,-0.11924 0.22356,-0.21238 0.26828,-0.27945c0.07452,-0.11178 0.13413,-0.17886 0.17886,-0.20122c0.04471,-0.02236 0.11552,-0.03354 0.21238,-0.03354h0.65951c0.08197,0 0.14905,0.02608 0.20122,0.07826c0.05962,0.04471 0.0857,0.11178 0.07826,0.20122c-0.00745,0.13413 -0.07826,0.29808 -0.21238,0.49185c-0.13413,0.19375 -0.32418,0.38377 -0.57008,0.57008c-0.24592,0.1863 -0.54773,0.33907 -0.90543,0.45831c-0.3577,0.11924 -0.76385,0.17886 -1.21842,0.17886zM236.22032,180.32472h3.65529v-0.03354c0,-0.40241 -0.07452,-0.76012 -0.22356,-1.07311c-0.1416,-0.31299 -0.35025,-0.55891 -0.62598,-0.73776c-0.27573,-0.1863 -0.60363,-0.27945 -0.98369,-0.27945c-0.38752,0 -0.71913,0.09315 -0.99487,0.27945c-0.26828,0.17886 -0.47321,0.42477 -0.6148,0.73776c-0.1416,0.31299 -0.21238,0.67069 -0.21238,1.07311zM248.9654,184.43832c-0.45458,0 -0.88309,-0.0559 -1.28551,-0.16767c-0.40241,-0.11924 -0.76385,-0.29437 -1.08429,-0.52538c-0.31299,-0.23101 -0.56264,-0.52538 -0.74894,-0.88309c-0.1863,-0.3577 -0.29063,-0.77502 -0.31299,-1.25197c0,-0.08197 0.02608,-0.14905 0.07826,-0.20122c0.05962,-0.05962 0.13413,-0.08943 0.22356,-0.08943h0.7154c0.09688,0 0.17513,0.02981 0.23475,0.08943c0.05962,0.05216 0.09688,0.12296 0.11178,0.21238c0.03726,0.40241 0.15276,0.72659 0.34653,0.97249c0.19375,0.23847 0.4434,0.41733 0.74894,0.53657c0.30555,0.11178 0.64089,0.16767 1.00604,0.16767c0.67069,0 1.18489,-0.21984 1.5426,-0.65951c0.3577,-0.44712 0.53657,-1.03958 0.53657,-1.77734v-4.73958h-4.73958c-0.08943,0 -0.16395,-0.02608 -0.22356,-0.07826c-0.05216,-0.05962 -0.07826,-0.13413 -0.07826,-0.22356v-0.54773c0,-0.08943 0.02608,-0.16395 0.07826,-0.22356c0.05962,-0.05962 0.13413,-0.08943 0.22356,-0.08943h5.75679c0.09688,0 0.1714,0.02981 0.22356,0.08943c0.05962,0.05962 0.08943,0.13786 0.08943,0.23475v5.60031c0,0.72287 -0.13786,1.35257 -0.41359,1.88912c-0.27573,0.5291 -0.66698,0.93897 -1.17371,1.22961c-0.50674,0.29063 -1.12527,0.43595 -1.85559,0.43595zM257.01617,184.43832c-0.56636,0 -1.05075,-0.12668 -1.45316,-0.38006c-0.39497,-0.25337 -0.69678,-0.60736 -0.90543,-1.06193c-0.20122,-0.45458 -0.30181,-0.97624 -0.30181,-1.56495v-3.75589c0,-0.08943 0.02981,-0.16395 0.08943,-0.22356c0.05962,-0.05962 0.13413,-0.08943 0.22356,-0.08943h0.67069c0.08197,0 0.15276,0.02981 0.21238,0.08943c0.05962,0.05962 0.08943,0.13413 0.08943,0.22356v3.68882c0,1.32648 0.57755,1.98973 1.73263,1.98973c0.55146,0 0.99487,-0.17513 1.33021,-0.52538c0.33535,-0.35025 0.50302,-0.83837 0.50302,-1.46434v-3.68882c0,-0.08943 0.02608,-0.16395 0.07826,-0.22356c0.05962,-0.05962 0.13413,-0.08943 0.22356,-0.08943h0.67069c0.08943,0 0.16022,0.02981 0.21238,0.08943c0.05216,0.05962 0.07826,0.13413 0.07826,0.22356v6.32688c0,0.08197 -0.02608,0.15276 -0.07826,0.21238c-0.05216,0.05962 -0.12296,0.08943 -0.21238,0.08943h-0.62598c-0.08943,0 -0.16395,-0.02981 -0.22356,-0.08943c-0.05962,-0.05962 -0.08943,-0.13041 -0.08943,-0.21238v-0.59244c-0.23847,0.31299 -0.5291,0.56264 -0.8719,0.74894c-0.34279,0.1863 -0.79366,0.27945 -1.35257,0.27945zM262.77061,184.30417c-0.08943,0 -0.16395,-0.02981 -0.22356,-0.08943c-0.05962,-0.05962 -0.08943,-0.13041 -0.08943,-0.21238v-6.32688c0,-0.08943 0.02981,-0.16395 0.08943,-0.22356c0.05962,-0.05962 0.13413,-0.08943 0.22356,-0.08943h0.60363c0.08197,0 0.15276,0.02981 0.21238,0.08943c0.05962,0.05962 0.08943,0.13413 0.08943,0.22356v0.45831c0.20122,-0.27573 0.45831,-0.49557 0.7713,-0.65951c0.31299,-0.16395 0.68932,-0.24592 1.12901,-0.24592c0.99859,-0.00745 1.71028,0.40241 2.13504,1.22961c0.20122,-0.37261 0.49557,-0.67069 0.88309,-0.89426c0.39497,-0.22356 0.84209,-0.33535 1.34138,-0.33535c0.46203,0 0.88309,0.10805 1.26313,0.32418c0.38006,0.20866 0.67814,0.5291 0.89426,0.96132c0.21611,0.43223 0.32418,0.97249 0.32418,1.62085v3.86766c0,0.08197 -0.02981,0.15276 -0.08943,0.21238c-0.05216,0.05962 -0.12296,0.08943 -0.21238,0.08943h-0.62598c-0.08943,0 -0.16395,-0.02981 -0.22356,-0.08943c-0.05962,-0.05962 -0.08943,-0.13041 -0.08943,-0.21238v-3.7447c0,-0.49929 -0.07079,-0.89054 -0.21238,-1.17371c-0.1416,-0.28318 -0.33535,-0.48067 -0.58128,-0.59244c-0.23847,-0.11924 -0.49929,-0.17886 -0.78247,-0.17886c-0.23101,0 -0.46576,0.05962 -0.70423,0.17886c-0.23847,0.11178 -0.43595,0.30927 -0.59244,0.59244c-0.15649,0.28318 -0.23475,0.67442 -0.23475,1.17371v3.7447c0,0.08197 -0.02981,0.15276 -0.08943,0.21238c-0.05962,0.05962 -0.13413,0.08943 -0.22356,0.08943h-0.62598c-0.08943,0 -0.16395,-0.02981 -0.22356,-0.08943c-0.05216,-0.05962 -0.07826,-0.13041 -0.07826,-0.21238v-3.7447c0,-0.49929 -0.07826,-0.89054 -0.23475,-1.17371c-0.14905,-0.28318 -0.34279,-0.48067 -0.58128,-0.59244c-0.23847,-0.11924 -0.49185,-0.17886 -0.76012,-0.17886c-0.23101,0 -0.46948,0.05962 -0.7154,0.17886c-0.23847,0.11178 -0.43595,0.30927 -0.59244,0.59244c-0.14905,0.28318 -0.22356,0.67069 -0.22356,1.16254v3.75589c0,0.08197 -0.02981,0.15276 -0.08943,0.21238c-0.05962,0.05962 -0.13413,0.08943 -0.22356,0.08943zM274.64709,186.84163c-0.08943,0 -0.16395,-0.02981 -0.22356,-0.08943c-0.05216,-0.05962 -0.07826,-0.13413 -0.07826,-0.22356v-8.85315c0,-0.08943 0.02608,-0.16395 0.07826,-0.22356c0.05962,-0.05962 0.13413,-0.08943 0.22356,-0.08943h0.6148c0.08943,0 0.16022,0.02981 0.21238,0.08943c0.05962,0.05962 0.08943,0.13413 0.08943,0.22356v0.58128c0.21611,-0.29063 0.50302,-0.53282 0.86072,-0.72659c0.3577,-0.20122 0.8011,-0.30181 1.33021,-0.30181c0.49929,0 0.92407,0.0857 1.27431,0.25709c0.35025,0.1714 0.63716,0.40241 0.86072,0.69306c0.23101,0.29063 0.40241,0.62598 0.5142,1.00604c0.11924,0.37261 0.19003,0.7713 0.21238,1.19607c0.00745,0.1416 0.01118,0.29437 0.01118,0.45831c0,0.15649 -0.00373,0.30555 -0.01118,0.44712c-0.02236,0.41733 -0.09315,0.816 -0.21238,1.19607c-0.11178,0.38006 -0.28318,0.7154 -0.5142,1.00604c-0.22356,0.28318 -0.51046,0.5142 -0.86072,0.69306c-0.35025,0.1714 -0.77502,0.25709 -1.27431,0.25709c-0.5142,0 -0.94642,-0.09315 -1.29668,-0.27945c-0.35025,-0.19375 -0.63716,-0.43595 -0.86072,-0.72659v3.09637c0,0.08943 -0.02981,0.16395 -0.08943,0.22356c-0.05216,0.05962 -0.11924,0.08943 -0.20122,0.08943zM277.47517,183.35402c0.46203,0 0.82346,-0.1006 1.08429,-0.30181c0.26828,-0.20122 0.45831,-0.46203 0.57008,-0.78247c0.11924,-0.3279 0.1863,-0.67814 0.20122,-1.05075c0.00745,-0.25337 0.00745,-0.51046 0,-0.7713c-0.0149,-0.37261 -0.08197,-0.71913 -0.20122,-1.03958c-0.11178,-0.3279 -0.30181,-0.59244 -0.57008,-0.79366c-0.26084,-0.20122 -0.62226,-0.30181 -1.08429,-0.30181c-0.43223,0 -0.78621,0.10433 -1.06193,0.31299c-0.26828,0.20122 -0.46948,0.46203 -0.60363,0.78247c-0.12668,0.31299 -0.19747,0.63342 -0.21238,0.96132c-0.00745,0.1416 -0.01118,0.30927 -0.01118,0.50302c0,0.19375 0.00373,0.36888 0.01118,0.52538c0.00745,0.30555 0.07826,0.61108 0.21238,0.91662c0.1416,0.30555 0.35025,0.55519 0.62598,0.74894c0.27573,0.19375 0.62226,0.29063 1.03958,0.29063z" fill="#ffffff" stroke="#ffffff" stroke-width="0.5" stroke-linecap="square" stroke-linejoin="miter"/></g></g></svg>