<svg version="1.1" xmlns="http://www.w3.org/2000/svg" xmlns:xlink="http://www.w3.org/1999/xlink" width="70.37938" height="102.39768" viewBox="0,0,70.37938,102.39768"><g transform="translate(-204.81031,-128.80116)"><g data-paper-data="{&quot;isPaintingLayer&quot;:true}" fill="#ffffff" fill-rule="nonzero" stroke-linecap="square" stroke-linejoin="miter" stroke-miterlimit="10" stroke-dasharray="" stroke-dashoffset="0" style="mix-blend-mode: normal"><path d="M227.14105,131.30116l18.79785,0.20657h11.56792c2.0657,0 3.64941,0.06885 4.75111,0.20657c1.1017,0.13772 2.40999,0.61971 3.92482,1.44599c3.09855,1.51483 4.64783,5.50854 4.64783,11.98105c0,5.99053 -1.48043,9.70879 -4.44125,11.15477c-1.37715,0.82628 -2.61657,1.3427 -3.71826,1.54928c-1.03285,0.13772 -2.51327,0.20657 -4.44125,0.20657l-20.14057,-0.82628c0.55086,0.06885 0.03444,2.20342 -1.54928,6.40366c0,-0.96401 1.06729,-1.44599 3.20183,-1.44599c8.46937,0 16.07801,3.20183 22.82597,9.60549c6.74796,6.33483 10.12192,14.1156 10.12192,23.3424c0,9.15791 -3.20183,17.04202 -9.60549,23.65225c-6.40366,6.61024 -14.3566,9.91535 -23.85882,9.91535c-8.12507,0 -15.4583,-2.0657 -21.9997,-6.1971c-1.58372,-1.03285 -2.71985,-1.89357 -3.40841,-2.58212l-0.92957,-0.82628c-3.71826,-3.23628 -5.57739,-6.30038 -5.57739,-9.19236c0,-2.96083 1.75585,-6.23153 5.26754,-9.81207c2.89198,-3.23628 5.8184,-4.85439 8.77922,-4.85439c3.0297,0 6.40366,1.54928 10.12192,4.64783c1.1017,1.23942 3.13298,1.85913 6.09381,1.85913c2.96083,0 5.06096,-0.55086 6.30038,-1.65256c1.23942,-1.1017 1.85913,-2.65097 1.85913,-4.64783c0,-1.99686 -0.72299,-3.58054 -2.16899,-4.75111c-1.37715,-1.17057 -2.96083,-1.75585 -4.75111,-1.75585c-1.79028,0 -3.23628,0.55086 -4.33797,1.65256c-2.6854,2.27227 -5.43967,3.40841 -8.26279,3.40841c-2.75425,0 -5.74952,-0.86072 -8.98578,-2.58212c-3.16739,-1.72141 -5.37082,-3.20183 -6.61024,-4.44125c-1.23942,-1.30827 -1.85913,-2.6854 -1.85913,-4.1314c0,-1.51483 0.82628,-8.36607 2.47884,-20.5537c1.65256,-12.18763 2.51327,-18.55685 2.58212,-19.10771c0.13772,-0.61971 0.48199,-1.65256 1.03285,-3.09855c0.61971,-1.44599 1.3427,-2.75425 2.16899,-3.92482c0.82628,-1.23942 2.13454,-2.34112 3.92482,-3.30511c1.85913,-1.03285 3.92482,-1.54928 6.1971,-1.54928z" stroke="#28a5da" stroke-width="5"/><path d="M227.14105,131.30116l18.79785,0.20657h11.56792c2.0657,0 3.64941,0.06885 4.75111,0.20657c1.1017,0.13772 2.40999,0.61971 3.92482,1.44599c3.09855,1.51483 4.64783,5.50854 4.64783,11.98105c0,5.99053 -1.48043,9.70879 -4.44125,11.15477c-1.37715,0.82628 -2.61657,1.3427 -3.71826,1.54928c-1.03285,0.13772 -2.51327,0.20657 -4.44125,0.20657l-20.14057,-0.82628c0.55086,0.06885 0.03444,2.20342 -1.54928,6.40366c0,-0.96401 1.06729,-1.44599 3.20183,-1.44599c8.46937,0 16.07801,3.20183 22.82597,9.60549c6.74796,6.33483 10.12192,14.1156 10.12192,23.3424c0,9.15791 -3.20183,17.04202 -9.60549,23.65225c-6.40366,6.61024 -14.3566,9.91535 -23.85882,9.91535c-8.12507,0 -15.4583,-2.0657 -21.9997,-6.1971c-1.58372,-1.03285 -2.71985,-1.89357 -3.40841,-2.58212l-0.92957,-0.82628c-3.71826,-3.23628 -5.57739,-6.30038 -5.57739,-9.19236c0,-2.96083 1.75585,-6.23153 5.26754,-9.81207c2.89198,-3.23628 5.8184,-4.85439 8.77922,-4.85439c3.0297,0 6.40366,1.54928 10.12192,4.64783c1.1017,1.23942 3.13298,1.85913 6.09381,1.85913c2.96083,0 5.06096,-0.55086 6.30038,-1.65256c1.23942,-1.1017 1.85913,-2.65097 1.85913,-4.64783c0,-1.99686 -0.72299,-3.58054 -2.16899,-4.75111c-1.37715,-1.17057 -2.96083,-1.75585 -4.75111,-1.75585c-1.79028,0 -3.23628,0.55086 -4.33797,1.65256c-2.6854,2.27227 -5.43967,3.40841 -8.26279,3.40841c-2.75425,0 -5.74952,-0.86072 -8.98578,-2.58212c-3.16739,-1.72141 -5.37082,-3.20183 -6.61024,-4.44125c-1.23942,-1.30827 -1.85913,-2.6854 -1.85913,-4.1314c0,-1.51483 0.82628,-8.36607 2.47884,-20.5537c1.65256,-12.18763 2.51327,-18.55685 2.58212,-19.10771c0.13772,-0.61971 0.48199,-1.65256 1.03285,-3.09855c0.61971,-1.44599 1.3427,-2.75425 2.16899,-3.92482c0.82628,-1.23942 2.13454,-2.34112 3.92482,-3.30511c1.85913,-1.03285 3.92482,-1.54928 6.1971,-1.54928z" stroke="none" stroke-width="1"/></g></g></svg>