<svg version="1.1" xmlns="http://www.w3.org/2000/svg" xmlns:xlink="http://www.w3.org/1999/xlink" width="168.52274" height="74.19583" viewBox="0,0,168.52274,74.19583"><g transform="translate(-81.58261,-250.42476)"><g data-paper-data="{&quot;isPaintingLayer&quot;:true}" stroke-linecap="butt" stroke-linejoin="miter" stroke-miterlimit="10" stroke-dasharray="" stroke-dashoffset="0" style="mix-blend-mode: normal"><path d="M146.32914,302.15123c-0.04974,0.07113 -2.965,0.11168 -3.01428,0.18572c-13.11842,19.70921 -38.64746,26.39138 -36.83798,17.47165c1.27517,-6.28691 6.50597,-13.63256 5.34477,-16.98498l-5.56446,0.03547c-13.03431,0.08307 -23.66666,-10.39567 -23.74958,-23.40457c-0.00831,-1.30301 0.06149,-6.98072 0.2574,-8.22747c1.75999,-11.20118 11.43505,-19.80253 23.16386,-19.87729l119.93995,-0.41392c11.52845,-0.07348 21.1794,8.11692 23.31153,19.01289c0.27829,1.42213 0.45651,7.28907 0.46608,8.79104c0.08292,13.00893 -10.41617,23.62235 -23.4493,23.70542z" fill="#ffffff" fill-rule="evenodd" stroke="#46b4dc" stroke-width="1.85"/><text transform="translate(99.8642,285.13622) rotate(-0.36517) scale(0.52013,0.52013)" font-size="40" xml:space="preserve" fill="#575757" fill-rule="nonzero" stroke="none" stroke-width="1" stroke-linecap="butt" stroke-linejoin="miter" stroke-miterlimit="10" stroke-dasharray="" stroke-dashoffset="0" font-family="Sans Serif" font-weight="normal" text-anchor="start" style="mix-blend-mode: normal"><tspan x="0" dy="0">Please wait</tspan></text></g></g></svg>