<svg version="1.1" xmlns="http://www.w3.org/2000/svg" xmlns:xlink="http://www.w3.org/1999/xlink" width="134" height="134" viewBox="0,0,134,134"><g transform="translate(-173,-113)"><g data-paper-data="{&quot;isPaintingLayer&quot;:true}" fill-rule="nonzero" stroke-linecap="butt" stroke-linejoin="miter" stroke-miterlimit="10" stroke-dasharray="" stroke-dashoffset="0" style="mix-blend-mode: normal"><path d="M216.79865,179.34625c0.93569,-7.55004 3.04549,-11.67218 8.75587,-13.87896c1.56193,-0.6036 2.07443,2.71144 4.22481,2.3635c1.52347,-0.24651 4.18951,0.8371 6.4331,-0.4017c1.44721,-0.7991 2.42957,-4.12289 3.78295,-4.18143c13.58015,-0.58753 24.01161,1.47782 23.68772,15.58671c-0.3406,14.83686 -1.30079,18.12425 -24.65988,16.17907c-1.63863,-0.13646 -2.97681,1.41034 -4.74311,1.69627c-2.6452,0.42819 -5.65883,-0.31855 -7.33696,-0.53457c-2.13198,-0.27444 -2.12206,-2.75281 -3.617,-3.11147c-7.4902,-1.79701 -7.60201,-5.04711 -6.52748,-13.7174z" fill="#9966ff" stroke="#ffffff" stroke-width="5"/><path d="M216.79865,179.34625c0.93569,-7.55004 3.04549,-11.67218 8.75587,-13.87896c1.56193,-0.6036 2.07443,2.71144 4.22481,2.3635c1.52347,-0.24651 4.18951,0.8371 6.4331,-0.4017c1.44721,-0.7991 2.42957,-4.12289 3.78295,-4.18143c13.58015,-0.58753 24.01161,1.47782 23.68772,15.58671c-0.3406,14.83686 -1.30079,18.12425 -24.65988,16.17907c-1.63863,-0.13646 -2.97681,1.41034 -4.74311,1.69627c-2.6452,0.42819 -5.65883,-0.31855 -7.33696,-0.53457c-2.13198,-0.27444 -2.12206,-2.75281 -3.617,-3.11147c-7.4902,-1.79701 -7.60201,-5.04711 -6.52748,-13.7174z" fill="#9966ff" stroke="none" stroke-width="0"/><path d="M223.61322,180.49703c0.80402,-9.39455 1.2595,-9.5785 16.11636,-10.04051c16.60235,-1.09454 17.00743,0.56748 16.94147,9.09592c-0.06935,8.96849 -0.71071,10.96759 -17.26185,10.10893c-16.17712,-0.83927 -16.76062,-1.48693 -15.79599,-9.16434z" fill="#7d53d0" stroke="none" stroke-width="0"/><path d="M233.43239,180.25961c-0.20704,1.97462 -1.24802,3.48382 -2.3251,3.37088c-1.07707,-0.11293 -1.78236,-1.80524 -1.57531,-3.77986c0.20704,-1.97462 1.24803,-3.48382 2.3251,-3.37089c1.07707,0.11293 1.78235,1.80525 1.57531,3.77987z" fill="#ffffff" stroke="none" stroke-width="0"/><path d="M250.468,180.14937c-0.20705,1.97462 -1.24802,3.48382 -2.3251,3.37089c-1.07707,-0.11293 -1.78236,-1.80524 -1.57531,-3.77987c0.20705,-1.97462 1.24803,-3.48382 2.3251,-3.37089c1.07707,0.11293 1.78236,1.80524 1.57531,3.77986z" fill="#ffffff" stroke="none" stroke-width="0"/><path d="M244.55944,180.10681c0,0 -1.81816,3.37487 -4.17537,3.18659c-3.95526,-0.3159 -4.62361,-3.3371 -4.62361,-3.3371c0,0 1.70986,0.50532 4.0732,0.42461c2.36332,-0.0807 4.72578,-0.27411 4.72578,-0.27411z" fill="#ffffff" stroke="none" stroke-width="0"/><path d="M173,247v-134h134v134z" fill="none" stroke="none" stroke-width="0"/></g></g></svg>