<svg version="1.1" xmlns="http://www.w3.org/2000/svg" xmlns:xlink="http://www.w3.org/1999/xlink" width="5.16" height="5.16" viewBox="0,0,5.16,5.16"><defs><linearGradient x1="239.98385" y1="178.47459" x2="239.98385" y2="181.46242" gradientUnits="userSpaceOnUse" id="color-1"><stop offset="0" stop-color="#ffb64d"/><stop offset="1" stop-color="#ffcb4a"/></linearGradient></defs><g transform="translate(-237.42,-177.42)"><g data-paper-data="{&quot;isPaintingLayer&quot;:true}" fill-rule="nonzero" stroke="none" stroke-width="0" stroke-linecap="butt" stroke-linejoin="miter" stroke-miterlimit="10" stroke-dasharray="" stroke-dashoffset="0" style="mix-blend-mode: normal"><path d="M237.42,182.58v-5.16h5.16v5.16z" data-paper-data="{&quot;index&quot;:null}" fill="none"/><path d="M241.67136,180.13757c0.00612,-0.08017 0.17469,-0.24245 0.37357,-0.33012c0.19887,-0.08767 0.35274,-0.06754 0.34662,0.01263c-0.00611,0.08017 -0.17834,0.13257 -0.37722,0.22026c-0.19888,0.08767 -0.34909,0.17743 -0.34298,0.09726z" data-paper-data="{&quot;index&quot;:null}" fill="#693a00"/><path d="M238.41445,179.98089c0.06355,0.04924 -0.10377,0.10044 -0.30222,0.1891c-0.19844,0.08867 -0.35283,0.18124 -0.41639,0.13198c-0.06355,-0.04924 0.02474,-0.17686 0.22317,-0.26552c0.19844,-0.08867 0.43187,-0.10482 0.49542,-0.05558z" fill="#693a00"/><path d="M240.33773,180.54595c0.06365,0 0.11524,0.23745 0.11524,0.53036c0,0.29291 -0.05159,0.53036 -0.11524,0.53036c-0.06365,0 -0.11524,-0.23745 -0.11524,-0.53036c0,-0.29291 0.05159,-0.53036 0.11524,-0.53036z" data-paper-data="{&quot;index&quot;:null}" fill="#693a00"/><path d="M239.69607,180.48187c0.06365,0 0.11524,0.23745 0.11524,0.53036c0,0.29291 -0.05159,0.53036 -0.11524,0.53036c-0.06365,0 -0.11524,-0.23745 -0.11524,-0.53036c0,-0.29291 0.05159,-0.53036 0.11524,-0.53036z" data-paper-data="{&quot;index&quot;:null}" fill="#693a00"/><path d="M242.01537,179.90165c0.00545,1.01079 0.01053,1.23685 -0.52482,1.31284c-0.03985,0.00428 -0.07817,0.02362 -0.07817,0.02362l-0.14851,0.22431l-0.52862,-0.00082l-0.1643,-0.16966c0,0 -0.50686,0.00622 -0.57158,0.00571c-2.04659,-0.01603 -2.02985,-0.00532 -2.04555,-1.41956c-0.01566,-1.41096 -0.02454,-1.42238 2.04555,-1.39881c0.15256,0.00174 0.45825,0.01864 0.45825,0.01864l0.1761,0.20589l0.57301,0.04115l0.16281,-0.21527c0,0 0.06115,0.00615 0.08983,0.0074c0.47129,0.02056 0.5512,0.47386 0.55601,1.36457z" data-paper-data="{&quot;index&quot;:null}" fill="url(#color-1)"/></g></g></svg>