<svg version="1.1" xmlns="http://www.w3.org/2000/svg" xmlns:xlink="http://www.w3.org/1999/xlink" width="134" height="134" viewBox="0,0,134,134"><g transform="translate(-173,-113)"><g data-paper-data="{&quot;isPaintingLayer&quot;:true}" fill-rule="nonzero" stroke-linecap="butt" stroke-linejoin="miter" stroke-miterlimit="10" stroke-dasharray="" stroke-dashoffset="0" style="mix-blend-mode: normal"><path d="M200.95112,175.16463c1.87755,-7.39451 4.76507,-11.23639 11.64674,-12.7334c1.88232,-0.40947 2.13344,2.9501 4.67448,2.8668c1.80026,-0.05903 4.79261,1.34442 7.53518,0.38651c1.76909,-0.61791 3.26008,-3.80354 4.84261,-3.6964c49.40611,3.82217 51.54091,6.4962 49.69172,20.48852c-1.94459,14.71429 -1.52662,20.33937 -54.13806,10.98514c-1.89443,-0.33593 -3.61452,1.03892 -5.70173,1.10747c-3.1258,0.10265 -6.55816,-1.00823 -8.49032,-1.42811c-2.4547,-0.53343 -2.18459,-2.99707 -3.88847,-3.53642c-8.5371,-2.70239 -8.32826,-5.94841 -6.17212,-14.4401z" data-paper-data="{&quot;index&quot;:null}" fill="#5cb1d6" stroke="#ffffff" stroke-width="5"/><path d="M200.95112,175.16463c1.87755,-7.39451 4.76507,-11.23639 11.64674,-12.7334c1.88232,-0.40947 2.13344,2.9501 4.67448,2.8668c1.80026,-0.05903 4.79261,1.34442 7.53518,0.38651c1.76909,-0.61791 3.26008,-3.80354 4.84261,-3.6964c49.40611,3.82217 51.54091,6.4962 49.69172,20.48852c-1.94459,14.71429 -1.52662,20.33937 -54.13806,10.98514c-1.89443,-0.33593 -3.61452,1.03892 -5.70173,1.10747c-3.1258,0.10265 -6.55816,-1.00823 -8.49032,-1.42811c-2.4547,-0.53343 -2.18459,-2.99707 -3.88847,-3.53642c-8.5371,-2.70239 -8.32826,-5.94841 -6.17212,-14.4401z" data-paper-data="{&quot;index&quot;:null}" fill="#5cb1d6" stroke="none" stroke-width="0"/><path d="M234.06224,178.8321c1.18413,-10.76458 0.50761,-11.71132 22.37298,-9.2823c16.23882,1.80397 17.52972,2.71524 16.17168,11.23073c-1.63158,11.35323 -2.41589,13.87434 -13.387,12.53437c-26.25487,-4.02518 -26.31564,-3.95595 -25.15766,-14.4828z" data-paper-data="{&quot;index&quot;:null}" fill="#519bbb" stroke="none" stroke-width="0"/><path d="M250.26563,177.24914c-0.21441,2.431 -1.46315,4.30691 -2.78916,4.18997c-1.326,-0.11695 -2.22713,-2.18247 -2.01272,-4.61348c0.21441,-2.431 1.46315,-4.30691 2.78916,-4.18997c1.326,0.11695 2.22713,2.18247 2.01272,4.61348z" data-paper-data="{&quot;index&quot;:null}" fill="#ffffff" stroke="none" stroke-width="0"/><path d="M269.82958,180.42301c-0.21441,2.431 -1.46315,4.30691 -2.78916,4.18997c-1.326,-0.11695 -2.22713,-2.18247 -2.01272,-4.61348c0.21441,-2.431 1.46315,-4.30691 2.78916,-4.18997c1.326,0.11695 2.22713,2.18247 2.01272,4.61348z" data-paper-data="{&quot;index&quot;:null}" fill="#ffffff" stroke="none" stroke-width="0"/><path d="M263.89796,180.95564c0,0 -3.24756,3.41406 -5.98196,2.42842c-4.58817,-1.65382 -4.40361,-5.45266 -4.40361,-5.45266c0,0 1.86421,1.15224 4.69286,1.8209c2.82864,0.66865 5.69272,1.20337 5.69272,1.20337z" data-paper-data="{&quot;index&quot;:null}" fill="#ffffff" stroke="none" stroke-width="0"/><path d="M173,247v-134h134v134z" data-paper-data="{&quot;index&quot;:null}" fill="none" stroke="none" stroke-width="0"/></g></g></svg>