<svg version="1.1" xmlns="http://www.w3.org/2000/svg" xmlns:xlink="http://www.w3.org/1999/xlink" width="134" height="134" viewBox="0,0,134,134"><g transform="translate(-173,-113)"><g data-paper-data="{&quot;isPaintingLayer&quot;:true}" fill-rule="nonzero" stroke-linecap="butt" stroke-linejoin="miter" stroke-miterlimit="10" stroke-dasharray="" stroke-dashoffset="0" style="mix-blend-mode: normal"><path d="M212.60707,183.74912c-0.17188,-7.62721 1.58096,-12.10218 7.81011,-15.38792c1.70384,-0.89873 2.84573,2.27078 5.27159,1.50984c1.71865,-0.53912 4.9776,0.01146 7.36333,-1.64611c1.53891,-1.06923 2.12206,-4.53784 3.67545,-4.85853c15.58705,-3.21806 27.97761,-3.2082 29.94422,10.76811c2.06808,14.69744 1.5045,18.12584 -25.79701,20.74637c-1.91518,0.18383 -3.20412,1.9692 -5.19668,2.59435c-2.98406,0.93624 -6.58856,0.7854 -8.56257,0.89844c-2.50789,0.14361 -2.90759,-2.30234 -4.69368,-2.36555c-8.949,-0.31674 -9.61734,-3.50007 -9.81472,-12.259z" data-paper-data="{&quot;index&quot;:null}" fill="#9966ff" stroke="#ffffff" stroke-width="5"/><path d="M212.60707,183.74912c-0.17188,-7.62721 1.58096,-12.10218 7.81011,-15.38792c1.70384,-0.89873 2.84573,2.27078 5.27159,1.50984c1.71865,-0.53912 4.9776,0.01146 7.36333,-1.64611c1.53891,-1.06923 2.12206,-4.53784 3.67545,-4.85853c15.58705,-3.21806 27.97761,-3.2082 29.94422,10.76811c2.06808,14.69744 1.5045,18.12584 -25.79701,20.74637c-1.91518,0.18383 -3.20412,1.9692 -5.19668,2.59435c-2.98406,0.93624 -6.58856,0.7854 -8.56257,0.89844c-2.50789,0.14361 -2.90759,-2.30234 -4.69368,-2.36555c-8.949,-0.31674 -9.61734,-3.50007 -9.81472,-12.259z" data-paper-data="{&quot;index&quot;:null}" fill="#9966ff" stroke="none" stroke-width="0"/><path d="M231.0581,181.64765c-0.1654,-7.33884 2.61814,-9.84809 14.57534,-12.31672c9.41882,-1.94457 16.9061,-1.93861 18.09446,6.50688c1.24969,8.88126 0.90914,10.95294 -15.58843,12.53646c-16.12477,1.54773 -16.90703,1.00921 -17.08137,-6.7266z" data-paper-data="{&quot;index&quot;:null}" fill="#ffffff" stroke="none" stroke-width="0"/><path d="M243.75675,177.73596c0.44464,2.39959 -0.25596,4.54145 -1.56483,4.78398c-1.30887,0.24252 -2.73037,-1.50612 -3.175,-3.90572c-0.44464,-2.39959 0.27741,-5.12242 1.56483,-4.78398c2.01708,0.53026 2.73037,1.50612 3.175,3.90572z" data-paper-data="{&quot;index&quot;:null}" fill="#7d53d0" stroke="none" stroke-width="0"/><path d="M258.27752,171.7074c1.12494,-0.71167 2.73037,1.50612 3.175,3.90572c0.44464,2.39959 -0.25596,4.54145 -1.56483,4.78398c-1.30888,0.24252 -2.73037,-1.50612 -3.175,-3.90572c-0.44464,-2.39959 -0.45609,-3.50549 1.56483,-4.78398z" data-paper-data="{&quot;index&quot;:null}" fill="#7d53d0" stroke="none" stroke-width="0"/><path d="M251.39774,181.71545c-4.8654,0.33813 -6.22938,-3.21221 -6.22938,-3.21221c0,0 2.17064,0.30206 5.0286,-0.22751c2.85794,-0.52957 5.69427,-1.19598 5.69427,-1.19598c0,0 -1.59387,4.43419 -4.49349,4.63569z" data-paper-data="{&quot;index&quot;:null}" fill="#9966ff" stroke="none" stroke-width="0"/><path d="M173,247v-134h134v134z" fill="none" stroke="none" stroke-width="0"/></g></g></svg>