<svg version="1.1" xmlns="http://www.w3.org/2000/svg" xmlns:xlink="http://www.w3.org/1999/xlink" width="215" height="215" viewBox="0,0,215,215"><g transform="translate(-132.5,-72.5)"><g data-paper-data="{&quot;isPaintingLayer&quot;:true}" fill-rule="nonzero" stroke="none" stroke-linejoin="miter" stroke-miterlimit="10" stroke-dasharray="" stroke-dashoffset="0" style="mix-blend-mode: normal"><path d="M242.85265,170.40018c0.15783,-0.2683 0.41824,-0.44979 0.78124,-0.54449c0.37879,-0.11048 0.86015,-0.16571 1.44412,-0.16571c0.59973,0 1.07321,0.06313 1.42043,0.18938c0.36299,0.11048 0.62342,0.30777 0.78124,0.59186c0.15783,0.2683 0.24463,0.51293 0.26043,0.7339c0.03156,0.22095 0.04735,0.55239 0.04735,0.99431v15.71947c0,0.726 -0.0947,1.2626 -0.28409,1.60982c-0.17361,0.34723 -0.44192,0.58397 -0.80491,0.71022c-0.36299,0.11048 -0.8207,0.16572 -1.37308,0.16572c-0.53661,0 -0.97062,-0.04735 -1.30205,-0.14205c-0.31565,-0.0947 -0.56028,-0.20518 -0.73388,-0.33143c-0.17361,-0.14205 -0.29198,-0.33143 -0.3551,-0.56817c-0.11048,-0.33143 -0.16571,-0.8207 -0.16571,-1.46778v-3.45639h-7.67034c-1.32574,0 -2.10697,-0.36299 -2.34371,-1.089c-0.0947,-0.29988 -0.14205,-0.70233 -0.14205,-1.20736c0,-0.50504 0.02368,-0.88382 0.07102,-1.13634l2.36739,-9.46956c0.11048,-0.42613 0.20518,-0.74967 0.28409,-0.97062c0.0947,-0.23674 0.2683,-0.45769 0.52083,-0.66287c0.25252,-0.20518 0.57606,-0.30775 0.97064,-0.30775c0.39457,0 0.8286,0.06313 1.30207,0.18938c1.30995,0.36299 1.96494,0.97064 1.96494,1.8229c0,0.29988 -0.06313,0.69443 -0.18938,1.18369c-0.01579,0.03156 -0.02366,0.06313 -0.02366,0.0947l-1.72818,6.88911h4.61642v-7.71769c0,-0.44192 0.00789,-0.76546 0.02368,-0.97062c0.03156,-0.20518 0.11838,-0.43403 0.26043,-0.68653z" fill="#ffffff" stroke-width="1" stroke-linecap="square"/><path d="M132.5,287.5v-215h215v215z" fill="none" stroke-width="0" stroke-linecap="butt"/></g></g></svg>