<svg version="1.1" xmlns="http://www.w3.org/2000/svg" xmlns:xlink="http://www.w3.org/1999/xlink" width="508.8665" height="376.75632" viewBox="0,0,508.8665,376.75632"><defs><linearGradient x1="251.40353" y1="-1.83681" x2="251.40353" y2="374.91951" gradientUnits="userSpaceOnUse" id="color-1"><stop offset="0" stop-color="#000000"/><stop offset="1" stop-color="#6c6c6c"/></linearGradient></defs><g transform="translate(3.02972,1.83681)"><g data-paper-data="{&quot;isPaintingLayer&quot;:true}" fill-rule="nonzero" stroke-linejoin="miter" stroke-miterlimit="10" stroke-dasharray="" stroke-dashoffset="0" style="mix-blend-mode: normal"><path d="M-3.02972,374.91951v-376.75632h508.8665v376.75632z" fill="url(#color-1)" stroke="none" stroke-width="0" stroke-linecap="butt"/><path d="M113.66071,128.46989h30.42775c1.1609,0 2.0163,0.13747 2.5662,0.41242c0.5499,0.27495 0.9165,0.70265 1.0998,1.2831c0.1833,0.58044 0.27495,1.3442 0.27495,2.29125c0,0.94704 -0.09165,1.7108 -0.27495,2.29125c-0.1833,0.5499 -0.48879,0.93178 -0.9165,1.14562c-0.67209,0.33605 -1.60387,0.50407 -2.79532,0.50407h-10.44808v27.49495c0,0.85539 -0.03055,1.48168 -0.09165,1.87882c-0.0611,0.39714 -0.22912,0.87067 -0.50407,1.42057c-0.27495,0.51935 -0.76374,0.88595 -1.4664,1.0998c-0.67209,0.21384 -1.57333,0.32077 -2.70367,0.32077c-1.13034,0 -2.03158,-0.10693 -2.70367,-0.32077c-0.67209,-0.21384 -1.14562,-0.58044 -1.42057,-1.0998c-0.27495,-0.5499 -0.44297,-1.02343 -0.50407,-1.42057c-0.0611,-0.4277 -0.09165,-1.06925 -0.09165,-1.92465v-27.44913h-10.49391c-1.1609,0 -2.0163,-0.13747 -2.5662,-0.41242c-0.5499,-0.27495 -0.9165,-0.70265 -1.0998,-1.2831c-0.1833,-0.58044 -0.27495,-1.3442 -0.27495,-2.29125c0,-0.94704 0.09165,-1.69552 0.27495,-2.24542c0.1833,-0.58044 0.48879,-0.99287 0.9165,-1.23727c0.67209,-0.30549 1.60387,-0.45825 2.79532,-0.45825zM157.26106,168.52087c-3.66599,0 -6.72098,-1.39003 -9.16498,-4.17007c-2.41344,-2.8106 -3.62017,-6.21691 -3.62017,-10.21896v-9.57741c0,-0.88595 0.01528,-1.5275 0.04582,-1.92465c0.0611,-0.39714 0.22912,-0.87067 0.50407,-1.42057c0.48879,-0.9776 1.90937,-1.4664 4.26172,-1.4664c2.53565,0 4.03259,0.68737 4.49084,2.06212c0.21384,0.58044 0.32077,1.51222 0.32077,2.79532v9.57741c0,1.49694 0.4277,2.67313 1.2831,3.52852c0.85539,0.82485 2.00102,1.23727 3.43687,1.23727c1.43585,0 2.59674,-0.44297 3.48269,-1.32892c0.9165,-0.88595 1.37475,-2.03158 1.37475,-3.43687v-9.71488c0,-0.82485 0.01528,-1.43585 0.04582,-1.833c0.0611,-0.4277 0.2444,-0.9165 0.5499,-1.4664c0.48879,-0.94704 1.8941,-1.42057 4.21589,-1.42057c2.29125,0 3.69654,0.48879 4.21589,1.4664c0.2444,0.5499 0.39714,1.03869 0.45825,1.4664c0.0611,0.39714 0.09165,1.02343 0.09165,1.87882v19.33812c0,0.82485 -0.03055,1.45112 -0.09165,1.87882c-0.0611,0.39714 -0.22912,0.85539 -0.50407,1.37475c-0.5499,0.94704 -1.95519,1.42057 -4.21589,1.42057c-2.23014,0 -3.60489,-0.44297 -4.12424,-1.32892c-0.3666,-0.611 -0.5499,-1.35947 -0.5499,-2.24542c-0.15275,0.27495 -0.48879,0.65683 -1.00815,1.14562c-0.48879,0.45825 -0.96232,0.84013 -1.42057,1.14562c-1.25255,0.82485 -2.61202,1.23727 -4.07842,1.23727zM197.20044,140.10942c0.70265,0.21384 1.2831,0.59572 1.74135,1.14562c0.45825,0.51935 0.68737,1.35947 0.68737,2.52037c0,1.1609 -0.35132,2.444 -1.05397,3.84929c-0.70265,1.37475 -1.7108,2.06212 -3.02444,2.06212c-0.64155,0 -1.26782,-0.13747 -1.87882,-0.41242c-0.611,-0.30549 -1.40529,-0.45825 -2.3829,-0.45825c-0.9776,0 -1.8941,0.35132 -2.7495,1.05397c-0.85539,0.67209 -1.2831,1.49694 -1.2831,2.47455v11.50206c0,0.85539 -0.03055,1.49694 -0.09165,1.92465c-0.0611,0.39714 -0.22912,0.87067 -0.50407,1.42057c-0.5499,0.94704 -1.97047,1.42057 -4.26172,1.42057c-1.77189,0 -3.03972,-0.30549 -3.80347,-0.9165c-0.58044,-0.51935 -0.90122,-1.31364 -0.96232,-2.3829c0,-0.3666 0,-0.88595 0,-1.55805v-19.20064c0,-0.85539 0.01528,-1.48168 0.04582,-1.87882c0.0611,-0.4277 0.22912,-0.90122 0.50407,-1.42057c0.48879,-0.9776 1.90937,-1.4664 4.26172,-1.4664c2.16905,0 3.52852,0.41242 4.07842,1.23727c0.4277,0.58044 0.64155,1.19145 0.64155,1.833c0.15275,-0.27495 0.39714,-0.59572 0.7332,-0.96232c0.3666,-0.3666 1.11508,-0.85539 2.24542,-1.4664c1.13034,-0.611 2.12323,-0.9165 2.97862,-0.9165c0.85539,0 1.57333,0.04582 2.15377,0.13747c0.611,0.09165 1.25255,0.2444 1.92465,0.45825zM218.67671,139.78864c3.63545,0 6.65989,1.39003 9.07333,4.17007c2.444,2.78004 3.66599,6.18636 3.66599,10.21896v9.62323c0,0.82485 -0.03055,1.45112 -0.09165,1.87882c-0.0611,0.4277 -0.21384,0.90122 -0.45825,1.42057c-0.51935,0.9776 -1.93993,1.4664 -4.26172,1.4664c-2.59674,0 -4.0937,-0.67209 -4.49084,-2.0163c-0.21384,-0.64155 -0.32077,-1.57333 -0.32077,-2.79532v-9.62323c0,-1.49694 -0.4277,-2.65785 -1.2831,-3.48269c-0.85539,-0.85539 -2.0163,-1.2831 -3.48269,-1.2831c-1.43585,0 -2.59674,0.44297 -3.48269,1.32892c-0.88595,0.85539 -1.32892,2.00102 -1.32892,3.43687v9.66906c0,0.82485 -0.03055,1.45112 -0.09165,1.87882c-0.0611,0.4277 -0.22912,0.90122 -0.50407,1.42057c-0.48879,0.9776 -1.8941,1.4664 -4.21589,1.4664c-2.32179,0 -3.7271,-0.48879 -4.21589,-1.4664c-0.27495,-0.5499 -0.44297,-1.03869 -0.50407,-1.4664c-0.03055,-0.4277 -0.04582,-1.05397 -0.04582,-1.87882v-19.38394c0,-0.7943 0.01528,-1.40529 0.04582,-1.833c0.0611,-0.4277 0.2444,-0.88595 0.5499,-1.37475c0.51935,-0.9165 1.92465,-1.37475 4.21589,-1.37475c2.23014,0 3.58962,0.41242 4.07842,1.23727c0.3666,0.64155 0.5499,1.39003 0.5499,2.24542c0.15275,-0.2444 0.48879,-0.59572 1.00815,-1.05397c0.51935,-0.48879 1.00815,-0.88595 1.4664,-1.19145c1.25255,-0.82485 2.6273,-1.23727 4.12424,-1.23727zM248.81327,154.2235c0,-4.36865 1.5275,-7.97354 4.58249,-10.81468c3.05499,-2.87169 6.55296,-4.30754 10.49391,-4.30754c3.94094,0 7.42364,1.42057 10.44808,4.26172c3.05499,2.84115 4.58249,6.44603 4.58249,10.81468c0,3.02444 -0.7943,5.71284 -2.3829,8.06519c-1.55805,2.35235 -3.46741,4.0937 -5.72812,5.22404c-2.23014,1.0998 -4.55195,1.6497 -6.96539,1.6497c-2.41344,0 -4.75051,-0.59572 -7.01121,-1.78717c-2.2607,-1.19145 -4.17007,-2.94807 -5.72812,-5.26987c-1.5275,-2.32179 -2.29125,-4.93381 -2.29125,-7.83606zM260.22369,158.16444c1.19145,0.88595 2.3829,1.32892 3.57434,1.32892c1.19145,0 2.3829,-0.45825 3.57434,-1.37475c1.22199,-0.9165 1.833,-2.2607 1.833,-4.03259c0,-1.80245 -0.56518,-3.13137 -1.69552,-3.98677c-1.13034,-0.88595 -2.35235,-1.32892 -3.66599,-1.32892c-1.31364,0 -2.53565,0.45825 -3.66599,1.37475c-1.13034,0.88595 -1.69552,2.21488 -1.69552,3.98677c0,1.77189 0.58044,3.11609 1.74135,4.03259zM318.62296,139.78864c2.50509,0 3.98677,0.68737 4.44502,2.06212c0.21384,0.70265 0.32077,1.61915 0.32077,2.7495c0,1.13034 -0.12219,2.03158 -0.3666,2.70367c-0.2444,0.67209 -0.611,1.1609 -1.0998,1.4664c-0.76374,0.4277 -1.87882,0.64155 -3.34522,0.64155l-3.52852,-0.22912v14.66398c0,1.37475 -0.16802,2.41344 -0.50407,3.11609c-0.33605,0.67209 -0.87067,1.11508 -1.60387,1.32892c-0.70265,0.21384 -1.61915,0.32077 -2.7495,0.32077c-1.13034,0 -2.03158,-0.12219 -2.70367,-0.3666c-0.67209,-0.2444 -1.1609,-0.62627 -1.4664,-1.14562c-0.27495,-0.51935 -0.44297,-0.99287 -0.50407,-1.42057c-0.0611,-0.45825 -0.09165,-1.0998 -0.09165,-1.92465v-14.5265c-1.74135,0.12219 -3.1772,0.1833 -4.30754,0.1833l-5.36152,-0.22912v14.66398c0,1.37475 -0.1833,2.41344 -0.5499,3.11609c-0.33605,0.67209 -0.85539,1.11508 -1.55805,1.32892c-0.70265,0.21384 -1.61915,0.32077 -2.7495,0.32077c-1.13034,0 -2.04684,-0.12219 -2.7495,-0.3666c-0.67209,-0.2444 -1.1609,-0.62627 -1.4664,-1.14562c-0.27495,-0.51935 -0.44297,-0.99287 -0.50407,-1.42057c-0.03055,-0.45825 -0.04582,-1.0998 -0.04582,-1.92465v-14.5265c-0.70265,0.12219 -1.45112,0.1833 -2.24542,0.1833c-0.7943,0 -1.4664,-0.30549 -2.0163,-0.9165c-0.51935,-0.64155 -0.77902,-1.7108 -0.77902,-3.20774c0,-1.49694 0.09165,-2.58148 0.27495,-3.25357c0.1833,-0.67209 0.44297,-1.14562 0.77902,-1.42057c0.58044,-0.48879 1.29838,-0.7332 2.15377,-0.7332l1.833,0.22912v-2.88697c0,-2.8106 0.99287,-5.36152 2.97862,-7.65276c2.0163,-2.29125 4.91855,-3.43687 8.70674,-3.43687c0.85539,0 1.48168,0.03055 1.87882,0.09165c0.4277,0.0611 0.9165,0.21384 1.4664,0.45825c0.9776,0.51935 1.4664,1.95519 1.4664,4.30754c0,1.74135 -0.30549,2.97862 -0.9165,3.71182c-0.51935,0.611 -1.31364,0.93178 -2.3829,0.96232c-0.33605,0.03055 -0.85539,0.04582 -1.55805,0.04582c-1.3442,0 -2.0163,0.45825 -2.0163,1.37475v3.02444c1.95519,-0.15275 3.65071,-0.22912 5.08657,-0.22912l4.58249,0.22912v-2.88697c0,-2.8106 1.00815,-5.36152 3.02444,-7.65276c2.0163,-2.29125 4.91855,-3.43687 8.70674,-3.43687c0.85539,0 1.48168,0.03055 1.87882,0.09165c0.4277,0.0611 0.9165,0.21384 1.4664,0.45825c0.9776,0.51935 1.4664,1.95519 1.4664,4.30754c0,1.74135 -0.30549,2.97862 -0.9165,3.71182c-0.51935,0.611 -1.31364,0.93178 -2.3829,0.96232c-0.3666,0.03055 -0.88595,0.04582 -1.55805,0.04582c-1.37475,0 -2.06212,0.45825 -2.06212,1.37475v3.02444z" fill="#ffffff" stroke="none" stroke-width="1" stroke-linecap="square"/><path d="M100.08899,202.97917l-3.52852,-0.22912v7.56111c0,0.9776 0.15275,1.69552 0.45825,2.15377c0.30549,0.4277 0.88595,0.64155 1.74135,0.64155c0.85539,0 1.51222,0.03055 1.97047,0.09165c0.45825,0.0611 0.93178,0.22912 1.42057,0.50407c0.85539,0.48879 1.2831,1.7108 1.2831,3.66599c0,2.29125 -0.50407,3.69654 -1.51222,4.21589c-0.5499,0.2444 -1.03869,0.39714 -1.4664,0.45825c-0.4277,0.0611 -1.03869,0.09165 -1.833,0.09165c-3.78819,0 -6.67516,-0.85539 -8.66091,-2.5662c-1.95519,-1.7108 -2.9328,-4.61304 -2.9328,-8.70674v-8.11101c-0.70265,0.12219 -1.45112,0.1833 -2.24542,0.1833c-0.7943,0 -1.4664,-0.30549 -2.0163,-0.9165c-0.51935,-0.64155 -0.77902,-1.7108 -0.77902,-3.20774c0,-1.49694 0.09165,-2.58148 0.27495,-3.25357c0.1833,-0.67209 0.44297,-1.14562 0.77902,-1.42057c0.58044,-0.48879 1.29838,-0.7332 2.15377,-0.7332l1.833,0.22912v-5.63647c0,-0.85539 0.01528,-1.48168 0.04582,-1.87882c0.0611,-0.39714 0.2444,-0.82485 0.5499,-1.2831c0.45825,-0.9165 1.86354,-1.37475 4.21589,-1.37475c2.47455,0 3.95622,0.67209 4.44502,2.0163c0.1833,0.58044 0.27495,1.51222 0.27495,2.79532v5.36152c1.58859,-0.15275 2.79532,-0.22912 3.62017,-0.22912c0.82485,0 1.43585,0.03055 1.833,0.09165c0.4277,0.0611 0.9165,0.22912 1.4664,0.50407c0.94704,0.48879 1.42057,1.8941 1.42057,4.21589c0,2.29125 -0.48879,3.69654 -1.4664,4.21589c-0.5499,0.27495 -1.03869,0.44297 -1.4664,0.50407c-0.39714,0.03055 -1.02343,0.04582 -1.87882,0.04582zM120.71513,222.04233c-3.66599,0 -6.72098,-1.39003 -9.16498,-4.17007c-2.41344,-2.8106 -3.62017,-6.21691 -3.62017,-10.21896v-9.57741c0,-0.88595 0.01528,-1.5275 0.04582,-1.92465c0.0611,-0.39714 0.22912,-0.87067 0.50407,-1.42057c0.48879,-0.9776 1.90937,-1.4664 4.26172,-1.4664c2.53565,0 4.03259,0.68737 4.49084,2.06212c0.21384,0.58044 0.32077,1.51222 0.32077,2.79532v9.57741c0,1.49694 0.4277,2.67313 1.2831,3.52852c0.85539,0.82485 2.00102,1.23727 3.43687,1.23727c1.43585,0 2.59674,-0.44297 3.48269,-1.32892c0.9165,-0.88595 1.37475,-2.03158 1.37475,-3.43687v-9.71488c0,-0.82485 0.01528,-1.43585 0.04582,-1.833c0.0611,-0.4277 0.2444,-0.9165 0.5499,-1.4664c0.48879,-0.94704 1.8941,-1.42057 4.21589,-1.42057c2.29125,0 3.69654,0.48879 4.21589,1.4664c0.2444,0.5499 0.39714,1.03869 0.45825,1.4664c0.0611,0.39714 0.09165,1.02343 0.09165,1.87882v19.33812c0,0.82485 -0.03055,1.45112 -0.09165,1.87882c-0.0611,0.39714 -0.22912,0.85539 -0.50407,1.37475c-0.5499,0.94704 -1.95519,1.42057 -4.21589,1.42057c-2.23014,0 -3.60489,-0.44297 -4.12424,-1.32892c-0.3666,-0.611 -0.5499,-1.35947 -0.5499,-2.24542c-0.15275,0.27495 -0.48879,0.65683 -1.00815,1.14562c-0.48879,0.45825 -0.96232,0.84013 -1.42057,1.14562c-1.25255,0.82485 -2.61202,1.23727 -4.07842,1.23727zM160.65451,193.63088c0.70265,0.21384 1.2831,0.59572 1.74135,1.14562c0.45825,0.51935 0.68737,1.35947 0.68737,2.52037c0,1.1609 -0.35132,2.444 -1.05397,3.84929c-0.70265,1.37475 -1.7108,2.06212 -3.02444,2.06212c-0.64155,0 -1.26782,-0.13747 -1.87882,-0.41242c-0.611,-0.30549 -1.40529,-0.45825 -2.3829,-0.45825c-0.9776,0 -1.8941,0.35132 -2.7495,1.05397c-0.85539,0.67209 -1.2831,1.49694 -1.2831,2.47455v11.50206c0,0.85539 -0.03055,1.49694 -0.09165,1.92465c-0.0611,0.39714 -0.22912,0.87067 -0.50407,1.42057c-0.5499,0.94704 -1.97047,1.42057 -4.26172,1.42057c-1.77189,0 -3.03972,-0.30549 -3.80347,-0.9165c-0.58044,-0.51935 -0.90122,-1.31364 -0.96232,-2.3829c0,-0.3666 0,-0.88595 0,-1.55805v-19.20064c0,-0.85539 0.01528,-1.48168 0.04582,-1.87882c0.0611,-0.4277 0.22912,-0.90122 0.50407,-1.42057c0.48879,-0.9776 1.90937,-1.4664 4.26172,-1.4664c2.16905,0 3.52852,0.41242 4.07842,1.23727c0.4277,0.58044 0.64155,1.19145 0.64155,1.833c0.15275,-0.27495 0.39714,-0.59572 0.7332,-0.96232c0.3666,-0.3666 1.11508,-0.85539 2.24542,-1.4664c1.13034,-0.611 2.12323,-0.9165 2.97862,-0.9165c0.85539,0 1.57333,0.04582 2.15377,0.13747c0.611,0.09165 1.25255,0.2444 1.92465,0.45825zM181.90164,193.35593c3.23829,0 6.21691,1.45112 8.93586,4.35337c2.71895,2.87169 4.07842,6.21691 4.07842,10.03566c0,3.78819 -1.35947,7.11814 -4.07842,9.98983c-2.68839,2.87169 -5.59064,4.30754 -8.70674,4.30754c-3.08555,0 -5.28515,-0.88595 -6.59879,-2.65785c-0.27495,1.80245 -1.833,2.70367 -4.67414,2.70367c-2.32179,0 -3.7271,-0.48879 -4.21589,-1.4664c-0.27495,-0.5499 -0.44297,-1.03869 -0.50407,-1.4664c-0.03055,-0.4277 -0.04582,-1.05397 -0.04582,-1.87882v-32.67317c0,-0.85539 0.01528,-1.48168 0.04582,-1.87882c0.0611,-0.4277 0.22912,-0.90122 0.50407,-1.42057c0.48879,-0.9776 1.90937,-1.4664 4.26172,-1.4664c2.29125,0 3.68127,0.48879 4.17007,1.4664c0.27495,0.5499 0.44297,1.03869 0.50407,1.4664c0.0611,0.4277 0.09165,1.05397 0.09165,1.87882v11.36458c1.43585,-1.77189 3.51324,-2.65785 6.23219,-2.65785zM177.09004,211.04435c0.9165,0.9776 2.04684,1.4664 3.39104,1.4664c1.3442,0 2.48983,-0.48879 3.43687,-1.4664c0.94704,-1.00815 1.42057,-2.10795 1.42057,-3.29939c0,-1.19145 -0.44297,-2.29125 -1.32892,-3.29939c-0.85539,-1.00815 -2.0163,-1.51222 -3.48269,-1.51222c-1.4664,0 -2.6273,0.51935 -3.48269,1.55805c-0.85539,1.00815 -1.2831,2.10795 -1.2831,3.29939c0,1.1609 0.44297,2.24542 1.32892,3.25357zM197.65845,207.74496c0,-4.36865 1.5275,-7.97354 4.58249,-10.81468c3.05499,-2.87169 6.55296,-4.30754 10.49391,-4.30754c3.94094,0 7.42364,1.42057 10.44808,4.26172c3.05499,2.84115 4.58249,6.44603 4.58249,10.81468c0,3.02444 -0.7943,5.71284 -2.3829,8.06519c-1.55805,2.35235 -3.46741,4.0937 -5.72812,5.22404c-2.23014,1.0998 -4.55195,1.6497 -6.96539,1.6497c-2.41344,0 -4.75051,-0.59572 -7.01121,-1.78717c-2.2607,-1.19145 -4.17007,-2.94807 -5.72812,-5.26987c-1.5275,-2.32179 -2.29125,-4.93381 -2.29125,-7.83606zM209.06882,211.6859c1.19145,0.88595 2.3829,1.32892 3.57434,1.32892c1.19145,0 2.3829,-0.45825 3.57434,-1.37475c1.22199,-0.9165 1.833,-2.2607 1.833,-4.03259c0,-1.80245 -0.56518,-3.13137 -1.69552,-3.98677c-1.13034,-0.88595 -2.35235,-1.32892 -3.66599,-1.32892c-1.31364,0 -2.53565,0.45825 -3.66599,1.37475c-1.13034,0.88595 -1.69552,2.21488 -1.69552,3.98677c0,1.77189 0.58044,3.11609 1.74135,4.03259zM254.54928,197.11358c1.7108,-2.5662 3.77292,-3.84929 6.18636,-3.84929c3.7271,0 6.50714,1.57333 8.34014,4.71997c0.39714,-0.51935 0.87067,-1.08452 1.42057,-1.69552c0.58044,-0.611 1.48168,-1.26782 2.70367,-1.97047c1.25255,-0.70265 2.53565,-1.05397 3.84929,-1.05397c2.90225,0 5.33097,1.11508 7.28616,3.34522c1.98575,2.23014 2.97862,5.94196 2.97862,11.13546v9.57741c0,0.82485 -0.03055,1.45112 -0.09165,1.87882c-0.03055,0.4277 -0.19858,0.9165 -0.50407,1.4664c-0.45825,0.9776 -1.86354,1.4664 -4.21589,1.4664c-2.29125,0 -3.69654,-0.50407 -4.21589,-1.51222c-0.2444,-0.5499 -0.39714,-1.03869 -0.45825,-1.4664c-0.0611,-0.4277 -0.09165,-1.05397 -0.09165,-1.87882v-9.57741c0,-3.1772 -1.13034,-4.76579 -3.39104,-4.76579c-1.25255,0 -2.10795,0.4277 -2.5662,1.2831c-0.45825,0.82485 -0.68737,2.00102 -0.68737,3.52852v9.57741c0,0.88595 -0.03055,1.5275 -0.09165,1.92465c-0.0611,0.39714 -0.22912,0.87067 -0.50407,1.42057c-0.51935,0.9776 -1.95519,1.4664 -4.30754,1.4664c-2.29125,0 -3.68127,-0.50407 -4.17007,-1.51222c-0.27495,-0.5499 -0.44297,-1.03869 -0.50407,-1.4664c-0.03055,-0.4277 -0.04582,-1.05397 -0.04582,-1.87882v-9.57741c0,-3.1772 -1.13034,-4.76579 -3.39104,-4.76579c-2.1996,0 -3.29939,1.58859 -3.29939,4.76579v9.66906c0,0.85539 -0.03055,1.49694 -0.09165,1.92465c-0.0611,0.39714 -0.22912,0.87067 -0.50407,1.42057c-0.5499,0.94704 -1.97047,1.42057 -4.26172,1.42057c-2.32179,0 -3.7271,-0.48879 -4.21589,-1.4664c-0.27495,-0.5499 -0.44297,-1.02343 -0.50407,-1.42057c-0.03055,-0.39714 -0.04582,-1.03869 -0.04582,-1.92465v-19.24647c0,-0.85539 0.01528,-1.48168 0.04582,-1.87882c0.0611,-0.4277 0.2444,-0.90122 0.5499,-1.42057c0.5499,-0.9776 1.84828,-1.4664 3.89512,-1.4664c2.04684,0 3.37576,0.33605 3.98677,1.00815c0.611,0.64155 0.9165,1.57333 0.9165,2.79532zM290.8927,207.74496c0,-4.36865 1.5275,-7.97354 4.58249,-10.81468c3.05499,-2.87169 6.55296,-4.30754 10.49391,-4.30754c3.94094,0 7.42364,1.42057 10.44808,4.26172c3.05499,2.84115 4.58249,6.44603 4.58249,10.81468c0,3.02444 -0.7943,5.71284 -2.3829,8.06519c-1.55805,2.35235 -3.46741,4.0937 -5.72812,5.22404c-2.23014,1.0998 -4.55195,1.6497 -6.96539,1.6497c-2.41344,0 -4.75051,-0.59572 -7.01121,-1.78717c-2.2607,-1.19145 -4.17007,-2.94807 -5.72812,-5.26987c-1.5275,-2.32179 -2.29125,-4.93381 -2.29125,-7.83606zM302.3031,211.6859c1.19145,0.88595 2.3829,1.32892 3.57434,1.32892c1.19145,0 2.3829,-0.45825 3.57434,-1.37475c1.22199,-0.9165 1.833,-2.2607 1.833,-4.03259c0,-1.80245 -0.56518,-3.13137 -1.69552,-3.98677c-1.13034,-0.88595 -2.35235,-1.32892 -3.66599,-1.32892c-1.31364,0 -2.53565,0.45825 -3.66599,1.37475c-1.13034,0.88595 -1.69552,2.21488 -1.69552,3.98677c0,1.77189 0.58044,3.11609 1.74135,4.03259zM343.8847,181.30398c0.27495,-0.5499 0.74848,-0.93178 1.42057,-1.14562c0.70265,-0.21384 1.61915,-0.32077 2.7495,-0.32077c1.1609,0 2.09267,0.10693 2.79532,0.32077c0.70265,0.21384 1.19145,0.59572 1.4664,1.14562c0.27495,0.5499 0.4277,1.03869 0.45825,1.4664c0.0611,0.4277 0.09165,1.05397 0.09165,1.87882v32.67317c0,0.82485 -0.03055,1.45112 -0.09165,1.87882c-0.03055,0.4277 -0.19858,0.90122 -0.50407,1.42057c-0.5499,0.9776 -2.09267,1.4664 -4.62832,1.4664c-2.53565,0 -3.94094,-0.90122 -4.21589,-2.70367c-1.5275,1.77189 -3.66599,2.65785 -6.41549,2.65785c-3.26885,0 -6.26273,-1.43585 -8.98168,-4.30754c-2.68839,-2.87169 -4.03259,-6.20164 -4.03259,-9.98983c0,-3.81875 1.35947,-7.16397 4.07842,-10.03566c2.71895,-2.90225 5.69757,-4.35337 8.93586,-4.35337c2.68839,0 4.78107,0.9165 6.27801,2.7495v-11.50206c0,-0.85539 0.03055,-1.48168 0.09165,-1.87882c0.0611,-0.4277 0.22912,-0.90122 0.50407,-1.42057zM334.99463,211.04435c0.94704,0.9776 2.09267,1.4664 3.43687,1.4664c1.3442,0 2.45927,-0.48879 3.34522,-1.4664c0.9165,-1.00815 1.37475,-2.09267 1.37475,-3.25357c0,-1.19145 -0.4277,-2.29125 -1.2831,-3.29939c-0.85539,-1.03869 -2.0163,-1.55805 -3.48269,-1.55805c-1.4664,0 -2.64257,0.50407 -3.52852,1.51222c-0.85539,1.00815 -1.2831,2.10795 -1.2831,3.29939c0,1.19145 0.47353,2.29125 1.42057,3.29939zM385.03602,204.30809c0,2.23014 -0.56518,3.87984 -1.69552,4.94909c-1.0998,1.06925 -2.32179,1.60387 -3.66599,1.60387h-12.96845c0,1.00815 0.59572,1.86354 1.78717,2.5662c1.22199,0.70265 2.444,1.05397 3.66599,1.05397c2.10795,0 3.75764,-0.21384 4.94909,-0.64155l0.59572,-0.22912c0.88595,-0.39714 1.61915,-0.59572 2.1996,-0.59572c1.1609,0 2.16905,0.80957 3.02444,2.42872c0.45825,1.00815 0.68737,1.84828 0.68737,2.52037c0,3.26885 -3.87984,4.90327 -11.63953,4.90327c-2.68839,0 -5.08657,-0.45825 -7.19451,-1.37475c-2.10795,-0.94704 -3.74236,-2.1996 -4.90327,-3.75764c-2.29125,-2.9328 -3.43687,-6.23219 -3.43687,-9.89818c0,-4.58249 1.48168,-8.24849 4.44502,-10.99798c2.96334,-2.7495 6.67516,-4.12424 11.13546,-4.12424c5.07129,0 8.79839,1.78717 11.18128,5.36152c1.22199,1.8941 1.833,3.97149 1.833,6.23219zM373.4881,205.86614c1.40529,0 2.10795,-0.58044 2.10795,-1.74135c0,-0.82485 -0.32077,-1.49694 -0.96232,-2.0163c-0.64155,-0.51935 -1.55805,-0.77902 -2.7495,-0.77902c-1.19145,0 -2.36762,0.48879 -3.52852,1.4664c-1.1609,0.9776 -1.74135,2.00102 -1.74135,3.07027zM397.09541,213.10647c0.611,0.611 0.9165,1.8941 0.9165,3.84929v0.1833c0,0.88595 -0.03055,1.54277 -0.09165,1.97047c-0.03055,0.39714 -0.21384,0.90122 -0.5499,1.51222c-0.5499,1.03869 -1.93993,1.55805 -4.17007,1.55805c-2.1996,0 -3.65071,-0.33605 -4.35337,-1.00815c-0.70265,-0.70265 -1.05397,-2.0163 -1.05397,-3.94094v-0.22912c0,-0.85539 0.01528,-1.49694 0.04582,-1.92465c0.0611,-0.4277 0.2444,-0.9165 0.5499,-1.4664c0.5499,-1.0998 1.92465,-1.6497 4.12424,-1.6497c2.1996,0 3.7271,0.38188 4.58249,1.14562z" fill="#ffffff" stroke="none" stroke-width="1" stroke-linecap="square"/><path d="M120.30286,265.29575c-0.17572,0 -0.3109,-0.05407 -0.40552,-0.16221c-0.09462,-0.10814 -0.14193,-0.23655 -0.14193,-0.38525v-15.81541c0,-0.17572 0.04731,-0.31766 0.14193,-0.4258c0.09462,-0.10814 0.2298,-0.16221 0.40552,-0.16221h1.23685c0.17572,0 0.31766,0.05407 0.4258,0.16221c0.10814,0.10814 0.16221,0.25007 0.16221,0.4258v6.67086h8.3335v-6.67086c0,-0.17572 0.04731,-0.31766 0.14193,-0.4258c0.10814,-0.10814 0.24331,-0.16221 0.40552,-0.16221h1.23685c0.17572,0 0.31766,0.05407 0.4258,0.16221c0.10814,0.10814 0.16221,0.25007 0.16221,0.4258v15.81541c0,0.14869 -0.05407,0.27711 -0.16221,0.38525c-0.10814,0.10814 -0.25007,0.16221 -0.4258,0.16221h-1.23685c-0.16221,0 -0.29738,-0.05407 -0.40552,-0.16221c-0.09462,-0.10814 -0.14193,-0.23655 -0.14193,-0.38525v-6.95472h-8.3335v6.95472c0,0.14869 -0.05407,0.27711 -0.16221,0.38525c-0.10814,0.10814 -0.25007,0.16221 -0.4258,0.16221zM141.76554,265.53906c-1.67616,0 -3.00763,-0.51366 -3.9944,-1.54099c-0.98677,-1.02732 -1.52747,-2.42638 -1.62209,-4.19717c-0.01352,-0.21628 -0.02028,-0.48663 -0.02028,-0.81105c0,-0.33793 0.00676,-0.60828 0.02028,-0.81105c0.05407,-1.14898 0.31766,-2.15603 0.79077,-3.02115c0.47311,-0.86511 1.11519,-1.52747 1.92624,-1.98706c0.81105,-0.47311 1.77079,-0.70967 2.87922,-0.70967c1.21657,0 2.23714,0.26359 3.0617,0.79077c0.83808,0.51366 1.4734,1.24361 1.90596,2.18983c0.44608,0.94622 0.66911,2.06141 0.66911,3.34557v0.40552c0,0.17572 -0.05407,0.31766 -0.16221,0.4258c-0.10814,0.09462 -0.24331,0.14193 -0.40552,0.14193h-8.37406c0,0.01352 0,0.04731 0,0.10138c0,0.04055 0,0.07434 0,0.10138c0.04055,0.66235 0.18925,1.28416 0.44608,1.86541c0.25683,0.56773 0.62856,1.03408 1.11519,1.39906c0.50014,0.35146 1.0814,0.52718 1.74375,0.52718c0.56773,0 1.0476,-0.08787 1.43961,-0.26359c0.39201,-0.18925 0.70967,-0.39201 0.95298,-0.60828c0.24331,-0.21628 0.40552,-0.38525 0.48663,-0.5069c0.13517,-0.20276 0.24331,-0.32442 0.32442,-0.36497c0.0811,-0.04055 0.20952,-0.06083 0.38525,-0.06083h1.19629c0.14869,0 0.27035,0.04731 0.36497,0.14193c0.10814,0.0811 0.15545,0.20276 0.14193,0.36497c-0.01352,0.24331 -0.14193,0.5407 -0.38525,0.89215c-0.24331,0.35146 -0.58801,0.69615 -1.03408,1.03408c-0.44608,0.33793 -0.99353,0.61505 -1.64237,0.83132c-0.64884,0.21628 -1.38554,0.32442 -2.2101,0.32442zM138.44024,258.07743h6.63031v-0.06083c0,-0.72994 -0.13517,-1.37878 -0.40552,-1.94651c-0.25683,-0.56773 -0.63532,-1.01381 -1.13547,-1.33823c-0.50014,-0.33793 -1.09491,-0.5069 -1.7843,-0.5069c-0.7029,0 -1.30444,0.16897 -1.80458,0.5069c-0.48663,0.32442 -0.85836,0.77049 -1.11519,1.33823c-0.25683,0.56773 -0.38525,1.21657 -0.38525,1.94651zM150.84195,265.29575c-0.16221,0 -0.29738,-0.05407 -0.40552,-0.16221c-0.10814,-0.10814 -0.16221,-0.23655 -0.16221,-0.38525v-11.45603c0,-0.16221 0.05407,-0.29738 0.16221,-0.40552c0.10814,-0.12166 0.24331,-0.18249 0.40552,-0.18249h1.11519c0.16221,0 0.29738,0.06083 0.40552,0.18249c0.10814,0.10814 0.16221,0.24331 0.16221,0.40552v1.05436c0.32442,-0.5407 0.77049,-0.94622 1.33823,-1.21657c0.56773,-0.28387 1.25712,-0.4258 2.06817,-0.4258h0.9327c0.16221,0 0.29738,0.05407 0.40552,0.16221c0.10814,0.10814 0.16221,0.24331 0.16221,0.40552v0.99353c0,0.14869 -0.05407,0.27711 -0.16221,0.38525c-0.10814,0.09462 -0.24331,0.14193 -0.40552,0.14193h-1.45988c-0.86511,0 -1.54775,0.25683 -2.04789,0.77049c-0.50014,0.50014 -0.75022,1.18953 -0.75022,2.06817v7.11693c0,0.14869 -0.06083,0.27711 -0.18249,0.38525c-0.10814,0.10814 -0.24331,0.16221 -0.40552,0.16221zM164.28045,265.53906c-1.67616,0 -3.00763,-0.51366 -3.9944,-1.54099c-0.98677,-1.02732 -1.52747,-2.42638 -1.62209,-4.19717c-0.01352,-0.21628 -0.02028,-0.48663 -0.02028,-0.81105c0,-0.33793 0.00676,-0.60828 0.02028,-0.81105c0.05407,-1.14898 0.31766,-2.15603 0.79077,-3.02115c0.47311,-0.86511 1.11519,-1.52747 1.92624,-1.98706c0.81105,-0.47311 1.77079,-0.70967 2.87922,-0.70967c1.21657,0 2.23714,0.26359 3.0617,0.79077c0.83808,0.51366 1.4734,1.24361 1.90596,2.18983c0.44608,0.94622 0.66911,2.06141 0.66911,3.34557v0.40552c0,0.17572 -0.05407,0.31766 -0.16221,0.4258c-0.10814,0.09462 -0.24331,0.14193 -0.40552,0.14193h-8.37406c0,0.01352 0,0.04731 0,0.10138c0,0.04055 0,0.07434 0,0.10138c0.04055,0.66235 0.18925,1.28416 0.44608,1.86541c0.25683,0.56773 0.62856,1.03408 1.11519,1.39906c0.50014,0.35146 1.0814,0.52718 1.74375,0.52718c0.56773,0 1.0476,-0.08787 1.43961,-0.26359c0.39201,-0.18925 0.70967,-0.39201 0.95298,-0.60828c0.24331,-0.21628 0.40552,-0.38525 0.48663,-0.5069c0.13517,-0.20276 0.24331,-0.32442 0.32442,-0.36497c0.0811,-0.04055 0.20952,-0.06083 0.38525,-0.06083h1.19629c0.14869,0 0.27035,0.04731 0.36497,0.14193c0.10814,0.0811 0.15545,0.20276 0.14193,0.36497c-0.01352,0.24331 -0.14193,0.5407 -0.38525,0.89215c-0.24331,0.35146 -0.58801,0.69615 -1.03408,1.03408c-0.44608,0.33793 -0.99353,0.61505 -1.64237,0.83132c-0.64884,0.21628 -1.38554,0.32442 -2.2101,0.32442zM160.95519,258.07743h6.63031v-0.06083c0,-0.72994 -0.13517,-1.37878 -0.40552,-1.94651c-0.25683,-0.56773 -0.63532,-1.01381 -1.13547,-1.33823c-0.50014,-0.33793 -1.09491,-0.5069 -1.7843,-0.5069c-0.7029,0 -1.30444,0.16897 -1.80458,0.5069c-0.48663,0.32442 -0.85836,0.77049 -1.11519,1.33823c-0.25683,0.56773 -0.38525,1.21657 -0.38525,1.94651zM172.01796,252.78536c-0.12166,0 -0.22304,-0.04731 -0.30414,-0.14193c-0.06759,-0.10814 -0.09462,-0.2298 -0.0811,-0.36497l0.56773,-3.46722c0.02704,-0.18925 0.08787,-0.35146 0.18249,-0.48663c0.10814,-0.14869 0.27035,-0.22304 0.48663,-0.22304h1.62209c0.10814,0 0.196,0.04731 0.26359,0.14193c0.0811,0.0811 0.12166,0.17572 0.12166,0.28387c0,0.12166 -0.03379,0.25007 -0.10138,0.38525l-1.25712,3.30501c-0.06759,0.16221 -0.15545,0.29738 -0.26359,0.40552c-0.09462,0.10814 -0.23655,0.16221 -0.4258,0.16221zM181.06963,265.53906c-0.90567,0 -1.68292,-0.10814 -2.33176,-0.32442c-0.63532,-0.2298 -1.15574,-0.5069 -1.56126,-0.83132c-0.40552,-0.32442 -0.70967,-0.64884 -0.91243,-0.97326c-0.20276,-0.32442 -0.3109,-0.58125 -0.32442,-0.77049c-0.01352,-0.17572 0.04055,-0.3109 0.16221,-0.40552c0.13517,-0.10814 0.27035,-0.16221 0.40552,-0.16221h1.07464c0.0811,0 0.14869,0.01352 0.20276,0.04055c0.06759,0.02704 0.14869,0.09462 0.24331,0.20276c0.20276,0.2298 0.43256,0.45959 0.68939,0.68939c0.27035,0.21628 0.59477,0.39876 0.97326,0.54746c0.37849,0.14869 0.84484,0.22304 1.39906,0.22304c0.82456,0 1.50044,-0.15545 2.02762,-0.46635c0.5407,-0.32442 0.81105,-0.79077 0.81105,-1.39906c0,-0.40552 -0.10814,-0.72994 -0.32442,-0.97326c-0.21628,-0.24331 -0.60152,-0.45959 -1.15574,-0.64884c-0.55422,-0.18925 -1.31795,-0.39201 -2.29121,-0.60828c-0.97326,-0.2298 -1.74375,-0.5069 -2.31148,-0.83132c-0.55422,-0.33793 -0.95298,-0.7367 -1.19629,-1.19629c-0.24331,-0.45959 -0.36497,-0.98002 -0.36497,-1.56126c0,-0.59477 0.17572,-1.16926 0.52718,-1.72347c0.35146,-0.55422 0.87187,-1.00705 1.56126,-1.3585c0.68939,-0.36497 1.54775,-0.54746 2.57507,-0.54746c0.83808,0 1.5545,0.10814 2.14927,0.32442c0.60828,0.20276 1.10167,0.46635 1.48016,0.79077c0.39201,0.3109 0.68263,0.6218 0.87188,0.9327c0.20276,0.29738 0.3109,0.55422 0.32442,0.77049c0.01352,0.16221 -0.04055,0.29738 -0.16221,0.40552c-0.10814,0.09462 -0.2298,0.14193 -0.36497,0.14193h-1.03408c-0.10814,0 -0.20276,-0.02028 -0.28387,-0.06083c-0.06759,-0.05407 -0.12842,-0.1149 -0.18249,-0.18249c-0.16221,-0.20276 -0.35821,-0.40552 -0.58801,-0.60828c-0.21628,-0.21628 -0.50014,-0.39201 -0.8516,-0.52718c-0.33793,-0.14869 -0.79077,-0.22304 -1.3585,-0.22304c-0.79753,0 -1.39906,0.16897 -1.80458,0.5069c-0.40552,0.33793 -0.60828,0.77049 -0.60828,1.29767c0,0.29738 0.08787,0.56773 0.26359,0.81105c0.17572,0.24331 0.51366,0.46635 1.01381,0.66911c0.50014,0.18925 1.24361,0.39876 2.23038,0.62856c1.06788,0.20276 1.90596,0.48663 2.51424,0.8516c0.6218,0.35146 1.06112,0.76373 1.31795,1.23685c0.25683,0.45959 0.38525,0.99353 0.38525,1.60182c0,0.67587 -0.196,1.29767 -0.58801,1.86541c-0.39201,0.56773 -0.97326,1.02057 -1.74375,1.3585c-0.77049,0.32442 -1.72347,0.48663 -2.85894,0.48663zM196.54473,269.89844c-0.13517,0 -0.25007,-0.04731 -0.34469,-0.14193c-0.09462,-0.09462 -0.14193,-0.20952 -0.14193,-0.34469c0,-0.06759 0.00676,-0.13517 0.02028,-0.20276c0.02704,-0.05407 0.06083,-0.13517 0.10138,-0.24331l1.86541,-4.4202l-4.62297,-10.92885c-0.0811,-0.18925 -0.12166,-0.32442 -0.12166,-0.40552c0,-0.14869 0.04731,-0.27035 0.14193,-0.36497c0.09462,-0.09462 0.21628,-0.14193 0.36497,-0.14193h1.19629c0.17572,0 0.30414,0.04055 0.38525,0.12166c0.0811,0.0811 0.14193,0.17572 0.18249,0.28387l3.69026,8.82013l3.77137,-8.82013c0.05407,-0.10814 0.12166,-0.20276 0.20276,-0.28387c0.09462,-0.0811 0.2298,-0.12166 0.40552,-0.12166h1.13547c0.14869,0 0.27035,0.04731 0.36497,0.14193c0.09462,0.09462 0.14193,0.20952 0.14193,0.34469c0,0.0811 -0.04055,0.22304 -0.12166,0.4258l-6.87362,15.87624c-0.05407,0.10814 -0.12842,0.20276 -0.22304,0.28387c-0.0811,0.0811 -0.20952,0.12166 -0.38525,0.12166zM212.4328,265.53906c-1.23009,0 -2.25741,-0.2298 -3.08198,-0.68939c-0.82456,-0.47311 -1.45312,-1.12195 -1.88568,-1.94651c-0.43256,-0.83808 -0.67587,-1.79106 -0.72994,-2.85894c-0.01352,-0.27035 -0.02028,-0.6218 -0.02028,-1.05436c0,-0.43256 0.00676,-0.77726 0.02028,-1.03408c0.05407,-1.0814 0.29738,-2.03438 0.72994,-2.85894c0.44608,-0.82456 1.0814,-1.46664 1.90596,-1.92624c0.82456,-0.47311 1.84513,-0.70967 3.0617,-0.70967c1.20305,0 2.21686,0.23655 3.04142,0.70967c0.82456,0.45959 1.45988,1.10167 1.90596,1.92624c0.44608,0.82456 0.68939,1.77754 0.72994,2.85894c0.01352,0.25683 0.02028,0.60152 0.02028,1.03408c0,0.43256 -0.00676,0.78401 -0.02028,1.05436c-0.04055,1.06788 -0.28387,2.02086 -0.72994,2.85894c-0.43256,0.82456 -1.06112,1.4734 -1.88568,1.94651c-0.82456,0.45959 -1.84513,0.68939 -3.0617,0.68939zM212.4328,263.67366c1.00029,0 1.79782,-0.31766 2.39259,-0.95298c0.59477,-0.63532 0.91919,-1.56803 0.97326,-2.79811c0.01352,-0.24331 0.02028,-0.54746 0.02028,-0.91243c0,-0.37849 -0.00676,-0.68939 -0.02028,-0.9327c-0.05407,-1.23009 -0.37849,-2.16279 -0.97326,-2.79811c-0.59477,-0.63532 -1.39229,-0.95298 -2.39259,-0.95298c-1.00029,0 -1.80458,0.31766 -2.41286,0.95298c-0.60828,0.63532 -0.92594,1.56803 -0.95298,2.79811c-0.01352,0.24331 -0.02028,0.55422 -0.02028,0.9327c0,0.36497 0.00676,0.66911 0.02028,0.91243c0.02704,1.23009 0.34469,2.16279 0.95298,2.79811c0.60828,0.63532 1.41257,0.95298 2.41286,0.95298zM225.8628,265.53906c-1.02732,0 -1.90596,-0.2298 -2.6359,-0.68939c-0.71643,-0.45959 -1.26388,-1.10167 -1.64237,-1.92624c-0.36497,-0.82456 -0.54746,-1.77079 -0.54746,-2.83866v-6.81279c0,-0.16221 0.05407,-0.29738 0.16221,-0.40552c0.10814,-0.10814 0.24331,-0.16221 0.40552,-0.16221h1.21657c0.14869,0 0.27711,0.05407 0.38525,0.16221c0.10814,0.10814 0.16221,0.24331 0.16221,0.40552v6.69113c0,2.4061 1.0476,3.60916 3.14281,3.60916c1.00029,0 1.80458,-0.31766 2.41286,-0.95298c0.60828,-0.63532 0.91243,-1.52071 0.91243,-2.65618v-6.69113c0,-0.16221 0.04731,-0.29738 0.14193,-0.40552c0.10814,-0.10814 0.24331,-0.16221 0.40552,-0.16221h1.21657c0.16221,0 0.29063,0.05407 0.38525,0.16221c0.09462,0.10814 0.14193,0.24331 0.14193,0.40552v11.47631c0,0.14869 -0.04731,0.27711 -0.14193,0.38525c-0.09462,0.10814 -0.22304,0.16221 -0.38525,0.16221h-1.13547c-0.16221,0 -0.29738,-0.05407 -0.40552,-0.16221c-0.10814,-0.10814 -0.16221,-0.23655 -0.16221,-0.38525v-1.07464c-0.43256,0.56773 -0.95974,1.02057 -1.58154,1.3585c-0.6218,0.33793 -1.43961,0.5069 -2.45342,0.5069zM236.30075,265.29575c-0.16221,0 -0.29738,-0.05407 -0.40552,-0.16221c-0.10814,-0.10814 -0.16221,-0.23655 -0.16221,-0.38525v-11.45603c0,-0.16221 0.05407,-0.29738 0.16221,-0.40552c0.10814,-0.12166 0.24331,-0.18249 0.40552,-0.18249h1.11519c0.16221,0 0.29738,0.06083 0.40552,0.18249c0.10814,0.10814 0.16221,0.24331 0.16221,0.40552v1.05436c0.32442,-0.5407 0.77049,-0.94622 1.33823,-1.21657c0.56773,-0.28387 1.25712,-0.4258 2.06817,-0.4258h0.9327c0.16221,0 0.29738,0.05407 0.40552,0.16221c0.10814,0.10814 0.16221,0.24331 0.16221,0.40552v0.99353c0,0.14869 -0.05407,0.27711 -0.16221,0.38525c-0.10814,0.09462 -0.24331,0.14193 -0.40552,0.14193h-1.45988c-0.86511,0 -1.54775,0.25683 -2.04789,0.77049c-0.50014,0.50014 -0.75022,1.18953 -0.75022,2.06817v7.11693c0,0.14869 -0.06083,0.27711 -0.18249,0.38525c-0.10814,0.10814 -0.24331,0.16221 -0.40552,0.16221zM254.66634,265.53906c-0.90567,0 -1.68292,-0.10814 -2.33176,-0.32442c-0.63532,-0.2298 -1.15574,-0.5069 -1.56126,-0.83132c-0.40552,-0.32442 -0.70967,-0.64884 -0.91243,-0.97326c-0.20276,-0.32442 -0.3109,-0.58125 -0.32442,-0.77049c-0.01352,-0.17572 0.04055,-0.3109 0.16221,-0.40552c0.13517,-0.10814 0.27035,-0.16221 0.40552,-0.16221h1.07464c0.0811,0 0.14869,0.01352 0.20276,0.04055c0.06759,0.02704 0.14869,0.09462 0.24331,0.20276c0.20276,0.2298 0.43256,0.45959 0.68939,0.68939c0.27035,0.21628 0.59477,0.39876 0.97326,0.54746c0.37849,0.14869 0.84484,0.22304 1.39906,0.22304c0.82456,0 1.50044,-0.15545 2.02762,-0.46635c0.5407,-0.32442 0.81105,-0.79077 0.81105,-1.39906c0,-0.40552 -0.10814,-0.72994 -0.32442,-0.97326c-0.21628,-0.24331 -0.60152,-0.45959 -1.15574,-0.64884c-0.55422,-0.18925 -1.31795,-0.39201 -2.29121,-0.60828c-0.97326,-0.2298 -1.74375,-0.5069 -2.31148,-0.83132c-0.55422,-0.33793 -0.95298,-0.7367 -1.19629,-1.19629c-0.24331,-0.45959 -0.36497,-0.98002 -0.36497,-1.56126c0,-0.59477 0.17572,-1.16926 0.52718,-1.72347c0.35146,-0.55422 0.87187,-1.00705 1.56126,-1.3585c0.68939,-0.36497 1.54775,-0.54746 2.57507,-0.54746c0.83808,0 1.5545,0.10814 2.14927,0.32442c0.60828,0.20276 1.10167,0.46635 1.48016,0.79077c0.39201,0.3109 0.68263,0.6218 0.87187,0.9327c0.20276,0.29738 0.3109,0.55422 0.32442,0.77049c0.01352,0.16221 -0.04055,0.29738 -0.16221,0.40552c-0.10814,0.09462 -0.2298,0.14193 -0.36497,0.14193h-1.03408c-0.10814,0 -0.20276,-0.02028 -0.28387,-0.06083c-0.06759,-0.05407 -0.12842,-0.1149 -0.18249,-0.18249c-0.16221,-0.20276 -0.35821,-0.40552 -0.58801,-0.60828c-0.21628,-0.21628 -0.50014,-0.39201 -0.8516,-0.52718c-0.33793,-0.14869 -0.79077,-0.22304 -1.3585,-0.22304c-0.79753,0 -1.39906,0.16897 -1.80458,0.5069c-0.40552,0.33793 -0.60828,0.77049 -0.60828,1.29767c0,0.29738 0.08787,0.56773 0.26359,0.81105c0.17572,0.24331 0.51366,0.46635 1.01381,0.66911c0.50014,0.18925 1.24361,0.39876 2.23038,0.62856c1.06788,0.20276 1.90596,0.48663 2.51424,0.8516c0.6218,0.35146 1.06112,0.76373 1.31795,1.23685c0.25683,0.45959 0.38525,0.99353 0.38525,1.60182c0,0.67587 -0.196,1.29767 -0.58801,1.86541c-0.39201,0.56773 -0.97326,1.02057 -1.74375,1.3585c-0.77049,0.32442 -1.72347,0.48663 -2.85894,0.48663zM266.16173,265.53906c-0.79753,0 -1.52747,-0.16221 -2.18983,-0.48663c-0.66235,-0.32442 -1.19629,-0.75698 -1.60182,-1.29767c-0.40552,-0.55422 -0.60828,-1.17602 -0.60828,-1.86541c0,-1.12195 0.45284,-2.0141 1.3585,-2.67645c0.90567,-0.66235 2.08168,-1.09491 3.52805,-1.29767l3.60916,-0.5069v-0.70967c0,-0.77049 -0.22304,-1.37202 -0.66911,-1.80458c-0.43256,-0.44608 -1.14898,-0.66911 -2.14927,-0.66911c-0.5407,0 -0.99353,0.0811 -1.3585,0.24331c-0.36497,0.16221 -0.66235,0.35821 -0.89215,0.58801c-0.21628,0.2298 -0.39201,0.45284 -0.52718,0.66911c-0.05407,0.14869 -0.12166,0.25683 -0.20276,0.32442c-0.06759,0.06759 -0.15545,0.10138 -0.26359,0.10138h-1.05436c-0.14869,0 -0.27711,-0.05407 -0.38525,-0.16221c-0.09462,-0.10814 -0.14193,-0.23655 -0.14193,-0.38525c0,-0.24331 0.08787,-0.5407 0.26359,-0.89215c0.18925,-0.35146 0.47987,-0.69615 0.87188,-1.03408c0.39201,-0.33793 0.88539,-0.6218 1.48016,-0.8516c0.60828,-0.24331 1.35174,-0.36497 2.23038,-0.36497c0.95974,0 1.77079,0.12842 2.43314,0.38525c0.66235,0.24331 1.18278,0.57449 1.56126,0.99353c0.37849,0.41904 0.6556,0.89891 0.83132,1.43961c0.17572,0.52718 0.26359,1.06788 0.26359,1.62209v7.84688c0,0.14869 -0.05407,0.27711 -0.16221,0.38525c-0.10814,0.10814 -0.24331,0.16221 -0.40552,0.16221h-1.11519c-0.17572,0 -0.3109,-0.05407 -0.40552,-0.16221c-0.09462,-0.10814 -0.14193,-0.23655 -0.14193,-0.38525v-1.05436c-0.21628,0.29738 -0.50014,0.58801 -0.8516,0.87187c-0.35146,0.27035 -0.79753,0.50014 -1.33823,0.68939c-0.52718,0.18925 -1.18278,0.28387 -1.96679,0.28387zM266.6889,263.71421c0.66235,0 1.26388,-0.13517 1.80458,-0.40552c0.55422,-0.28387 0.98677,-0.72318 1.29767,-1.31795c0.3109,-0.60828 0.46635,-1.36526 0.46635,-2.27093v-0.66911l-2.79811,0.40552c-1.14898,0.16221 -2.0141,0.43256 -2.59535,0.81105c-0.58125,0.37849 -0.87188,0.85836 -0.87188,1.43961c0,0.45959 0.12842,0.83808 0.38525,1.13547c0.27035,0.29738 0.60828,0.52042 1.01381,0.66911c0.41904,0.13517 0.8516,0.20276 1.29767,0.20276zM280.15513,265.29575c-0.2298,0 -0.41904,-0.05407 -0.56773,-0.16221c-0.13517,-0.12166 -0.24331,-0.27035 -0.32442,-0.44608l-4.48103,-11.23299c-0.02704,-0.0811 -0.04055,-0.16221 -0.04055,-0.24331c0,-0.14869 0.04731,-0.27035 0.14193,-0.36497c0.09462,-0.09462 0.21628,-0.14193 0.36497,-0.14193h1.15574c0.18925,0 0.33118,0.04731 0.4258,0.14193c0.09462,0.09462 0.15545,0.18249 0.18249,0.26359l3.69026,9.55007l3.66999,-9.55007c0.04055,-0.0811 0.10138,-0.16897 0.18249,-0.26359c0.09462,-0.09462 0.2298,-0.14193 0.40552,-0.14193h1.17602c0.13517,0 0.25007,0.04731 0.34469,0.14193c0.10814,0.09462 0.16221,0.21628 0.16221,0.36497c0,0.0811 -0.01352,0.16221 -0.04055,0.24331l-4.50131,11.23299c-0.06759,0.17572 -0.16897,0.32442 -0.30414,0.44608c-0.13517,0.10814 -0.33118,0.16221 -0.58801,0.16221zM293.77624,265.53906c-1.67616,0 -3.00763,-0.51366 -3.9944,-1.54099c-0.98677,-1.02732 -1.52747,-2.42638 -1.62209,-4.19717c-0.01352,-0.21628 -0.02028,-0.48663 -0.02028,-0.81105c0,-0.33793 0.00676,-0.60828 0.02028,-0.81105c0.05407,-1.14898 0.31766,-2.15603 0.79077,-3.02115c0.47311,-0.86511 1.11519,-1.52747 1.92624,-1.98706c0.81105,-0.47311 1.77079,-0.70967 2.87922,-0.70967c1.21657,0 2.23714,0.26359 3.0617,0.79077c0.83808,0.51366 1.4734,1.24361 1.90596,2.18983c0.44608,0.94622 0.66911,2.06141 0.66911,3.34557v0.40552c0,0.17572 -0.05407,0.31766 -0.16221,0.4258c-0.10814,0.09462 -0.24331,0.14193 -0.40552,0.14193h-8.37406c0,0.01352 0,0.04731 0,0.10138c0,0.04055 0,0.07434 0,0.10138c0.04055,0.66235 0.18925,1.28416 0.44608,1.86541c0.25683,0.56773 0.62856,1.03408 1.11519,1.39906c0.50014,0.35146 1.0814,0.52718 1.74375,0.52718c0.56773,0 1.0476,-0.08787 1.43961,-0.26359c0.39201,-0.18925 0.70967,-0.39201 0.95298,-0.60828c0.24331,-0.21628 0.40552,-0.38525 0.48663,-0.5069c0.13517,-0.20276 0.24331,-0.32442 0.32442,-0.36497c0.0811,-0.04055 0.20952,-0.06083 0.38525,-0.06083h1.19629c0.14869,0 0.27035,0.04731 0.36497,0.14193c0.10814,0.0811 0.15545,0.20276 0.14193,0.36497c-0.01352,0.24331 -0.14193,0.5407 -0.38525,0.89215c-0.24331,0.35146 -0.58801,0.69615 -1.03408,1.03408c-0.44608,0.33793 -0.99353,0.61505 -1.64237,0.83132c-0.64884,0.21628 -1.38554,0.32442 -2.2101,0.32442zM290.45095,258.07743h6.63031v-0.06083c0,-0.72994 -0.13517,-1.37878 -0.40552,-1.94651c-0.25683,-0.56773 -0.63532,-1.01381 -1.13547,-1.33823c-0.50014,-0.33793 -1.09491,-0.5069 -1.7843,-0.5069c-0.7029,0 -1.30444,0.16897 -1.80458,0.5069c-0.48663,0.32442 -0.85836,0.77049 -1.11519,1.33823c-0.25683,0.56773 -0.38525,1.21657 -0.38525,1.94651zM307.37424,265.53906c-1.14898,0 -2.14251,-0.22304 -2.9806,-0.66911c-0.82456,-0.44608 -1.46664,-1.0814 -1.92624,-1.90596c-0.44608,-0.83808 -0.68263,-1.83837 -0.70967,-3.00087c-0.01352,-0.24331 -0.02028,-0.56097 -0.02028,-0.95298c0,-0.40552 0.00676,-0.72994 0.02028,-0.97326c0.02704,-1.1625 0.26359,-2.15603 0.70967,-2.9806c0.45959,-0.83808 1.10167,-1.48016 1.92624,-1.92624c0.83808,-0.44608 1.83162,-0.66911 2.9806,-0.66911c0.9327,0 1.73023,0.12842 2.39259,0.38525c0.67587,0.25683 1.23009,0.58801 1.66265,0.99353c0.44608,0.40552 0.77726,0.84484 0.99353,1.31795c0.21628,0.45959 0.33118,0.89891 0.34469,1.31795c0.02704,0.16221 -0.02028,0.29738 -0.14193,0.40552c-0.10814,0.09462 -0.24331,0.14193 -0.40552,0.14193h-1.15574c-0.16221,0 -0.28387,-0.03379 -0.36497,-0.10138c-0.0811,-0.0811 -0.16221,-0.20952 -0.24331,-0.38525c-0.29738,-0.79753 -0.69615,-1.35174 -1.19629,-1.66265c-0.50014,-0.32442 -1.12195,-0.48663 -1.86541,-0.48663c-0.95974,0 -1.74375,0.29738 -2.35203,0.89215c-0.60828,0.59477 -0.9327,1.5545 -0.97326,2.87922c-0.02704,0.58125 -0.02704,1.14223 0,1.68292c0.04055,1.33823 0.36497,2.30472 0.97326,2.89949c0.60828,0.59477 1.39229,0.89215 2.35203,0.89215c0.74346,0 1.36526,-0.16221 1.86541,-0.48663c0.50014,-0.32442 0.89891,-0.88539 1.19629,-1.68292c0.0811,-0.17572 0.16221,-0.30414 0.24331,-0.38525c0.0811,-0.0811 0.20276,-0.12166 0.36497,-0.12166h1.15574c0.16221,0 0.29738,0.05407 0.40552,0.16221c0.12166,0.10814 0.16897,0.24331 0.14193,0.40552c-0.01352,0.33793 -0.08787,0.68263 -0.22304,1.03408c-0.12166,0.35146 -0.32442,0.70967 -0.60828,1.07464c-0.28387,0.36497 -0.63532,0.68939 -1.05436,0.97326c-0.41904,0.28387 -0.91919,0.51366 -1.50044,0.68939c-0.58125,0.16221 -1.25036,0.24331 -2.00734,0.24331zM320.81913,265.53906c-1.23009,0 -2.25741,-0.2298 -3.08198,-0.68939c-0.82456,-0.47311 -1.45312,-1.12195 -1.88568,-1.94651c-0.43256,-0.83808 -0.67587,-1.79106 -0.72994,-2.85894c-0.01352,-0.27035 -0.02028,-0.6218 -0.02028,-1.05436c0,-0.43256 0.00676,-0.77726 0.02028,-1.03408c0.05407,-1.0814 0.29738,-2.03438 0.72994,-2.85894c0.44608,-0.82456 1.0814,-1.46664 1.90596,-1.92624c0.82456,-0.47311 1.84513,-0.70967 3.0617,-0.70967c1.20305,0 2.21686,0.23655 3.04142,0.70967c0.82456,0.45959 1.45988,1.10167 1.90596,1.92624c0.44608,0.82456 0.68939,1.77754 0.72994,2.85894c0.01352,0.25683 0.02028,0.60152 0.02028,1.03408c0,0.43256 -0.00676,0.78401 -0.02028,1.05436c-0.04055,1.06788 -0.28387,2.02086 -0.72994,2.85894c-0.43256,0.82456 -1.06112,1.4734 -1.88568,1.94651c-0.82456,0.45959 -1.84513,0.68939 -3.0617,0.68939zM320.81913,263.67366c1.00029,0 1.79782,-0.31766 2.39259,-0.95298c0.59477,-0.63532 0.91919,-1.56803 0.97326,-2.79811c0.01352,-0.24331 0.02028,-0.54746 0.02028,-0.91243c0,-0.37849 -0.00676,-0.68939 -0.02028,-0.9327c-0.05407,-1.23009 -0.37849,-2.16279 -0.97326,-2.79811c-0.59477,-0.63532 -1.39229,-0.95298 -2.39259,-0.95298c-1.00029,0 -1.80458,0.31766 -2.41286,0.95298c-0.60828,0.63532 -0.92594,1.56803 -0.95298,2.79811c-0.01352,0.24331 -0.02028,0.55422 -0.02028,0.9327c0,0.36497 0.00676,0.66911 0.02028,0.91243c0.02704,1.23009 0.34469,2.16279 0.95298,2.79811c0.60828,0.63532 1.41257,0.95298 2.41286,0.95298zM334.14777,265.53906c-0.87864,0 -1.64237,-0.15545 -2.29121,-0.46635c-0.64884,-0.32442 -1.18278,-0.75698 -1.60182,-1.29767c-0.40552,-0.5407 -0.70967,-1.15574 -0.91243,-1.84513c-0.20276,-0.68939 -0.31766,-1.42609 -0.34469,-2.2101c-0.01352,-0.25683 -0.02028,-0.49339 -0.02028,-0.70967c0,-0.2298 0.00676,-0.47311 0.02028,-0.72994c0.02704,-0.75698 0.14193,-1.48016 0.34469,-2.16955c0.20276,-0.7029 0.5069,-1.32471 0.91243,-1.86541c0.41904,-0.55422 0.95298,-0.98677 1.60182,-1.29767c0.64884,-0.32442 1.41257,-0.48663 2.29121,-0.48663c0.95974,0 1.75051,0.16897 2.37231,0.5069c0.63532,0.33793 1.15574,0.75698 1.56126,1.25712v-5.55567c0,-0.16221 0.04731,-0.29738 0.14193,-0.40552c0.10814,-0.10814 0.24331,-0.16221 0.40552,-0.16221h1.15574c0.16221,0 0.29738,0.05407 0.40552,0.16221c0.10814,0.10814 0.16221,0.24331 0.16221,0.40552v16.079c0,0.14869 -0.05407,0.27711 -0.16221,0.38525c-0.10814,0.10814 -0.24331,0.16221 -0.40552,0.16221h-1.07464c-0.17572,0 -0.31766,-0.05407 -0.4258,-0.16221c-0.09462,-0.10814 -0.14193,-0.23655 -0.14193,-0.38525v-1.03408c-0.40552,0.52718 -0.9327,0.96649 -1.58154,1.31795c-0.63532,0.33793 -1.43961,0.5069 -2.41286,0.5069zM334.65468,263.57227c0.81105,0 1.45988,-0.18249 1.94651,-0.54746c0.48663,-0.37849 0.84484,-0.8516 1.07464,-1.41933c0.24331,-0.56773 0.37849,-1.15574 0.40552,-1.76403c0.01352,-0.25683 0.02028,-0.56097 0.02028,-0.91243c0,-0.36497 -0.00676,-0.68263 -0.02028,-0.95298c-0.02704,-0.55422 -0.16897,-1.10843 -0.4258,-1.66265c-0.24331,-0.55422 -0.60828,-1.00705 -1.09491,-1.3585c-0.48663,-0.35146 -1.12195,-0.52718 -1.90596,-0.52718c-0.82456,0 -1.48016,0.18249 -1.96679,0.54746c-0.47311,0.36497 -0.81781,0.84484 -1.03408,1.43961c-0.20276,0.58125 -0.32442,1.20981 -0.36497,1.88568c-0.01352,0.47311 -0.01352,0.93946 0,1.39906c0.04055,0.67587 0.16221,1.31119 0.36497,1.90596c0.21628,0.58125 0.56097,1.05436 1.03408,1.41933c0.48663,0.36497 1.14223,0.54746 1.96679,0.54746zM348.99866,265.53906c-1.67616,0 -3.00763,-0.51366 -3.9944,-1.54099c-0.98677,-1.02732 -1.52747,-2.42638 -1.62209,-4.19717c-0.01352,-0.21628 -0.02028,-0.48663 -0.02028,-0.81105c0,-0.33793 0.00676,-0.60828 0.02028,-0.81105c0.05407,-1.14898 0.31766,-2.15603 0.79077,-3.02115c0.47311,-0.86511 1.11519,-1.52747 1.92624,-1.98706c0.81105,-0.47311 1.77079,-0.70967 2.87922,-0.70967c1.21657,0 2.23714,0.26359 3.0617,0.79077c0.83808,0.51366 1.4734,1.24361 1.90596,2.18983c0.44608,0.94622 0.66911,2.06141 0.66911,3.34557v0.40552c0,0.17572 -0.05407,0.31766 -0.16221,0.4258c-0.10814,0.09462 -0.24331,0.14193 -0.40552,0.14193h-8.37406c0,0.01352 0,0.04731 0,0.10138c0,0.04055 0,0.07434 0,0.10138c0.04055,0.66235 0.18925,1.28416 0.44608,1.86541c0.25683,0.56773 0.62856,1.03408 1.11519,1.39906c0.50014,0.35146 1.0814,0.52718 1.74375,0.52718c0.56773,0 1.0476,-0.08787 1.43961,-0.26359c0.39201,-0.18925 0.70967,-0.39201 0.95298,-0.60828c0.24331,-0.21628 0.40552,-0.38525 0.48663,-0.5069c0.13517,-0.20276 0.24331,-0.32442 0.32442,-0.36497c0.0811,-0.04055 0.20952,-0.06083 0.38525,-0.06083h1.19629c0.14869,0 0.27035,0.04731 0.36497,0.14193c0.10814,0.0811 0.15545,0.20276 0.14193,0.36497c-0.01352,0.24331 -0.14193,0.5407 -0.38525,0.89215c-0.24331,0.35146 -0.58801,0.69615 -1.03408,1.03408c-0.44608,0.33793 -0.99353,0.61505 -1.64237,0.83132c-0.64884,0.21628 -1.38554,0.32442 -2.2101,0.32442zM345.67338,258.07743h6.63031v-0.06083c0,-0.72994 -0.13517,-1.37878 -0.40552,-1.94651c-0.25683,-0.56773 -0.63532,-1.01381 -1.13547,-1.33823c-0.50014,-0.33793 -1.09491,-0.5069 -1.7843,-0.5069c-0.7029,0 -1.30444,0.16897 -1.80458,0.5069c-0.48663,0.32442 -0.85836,0.77049 -1.11519,1.33823c-0.25683,0.56773 -0.38525,1.21657 -0.38525,1.94651zM357.95345,256.82031c-0.16221,0 -0.29738,-0.04731 -0.40552,-0.14193c-0.10814,-0.10814 -0.16221,-0.24331 -0.16221,-0.40552v-1.7032c0,-0.16221 0.05407,-0.29063 0.16221,-0.38525c0.10814,-0.10814 0.24331,-0.16221 0.40552,-0.16221h1.74375c0.16221,0 0.29063,0.05407 0.38525,0.16221c0.10814,0.09462 0.16221,0.22304 0.16221,0.38525v1.7032c0,0.16221 -0.05407,0.29738 -0.16221,0.40552c-0.09462,0.09462 -0.22304,0.14193 -0.38525,0.14193zM357.95345,265.29575c-0.16221,0 -0.29738,-0.05407 -0.40552,-0.16221c-0.10814,-0.10814 -0.16221,-0.23655 -0.16221,-0.38525v-1.7032c0,-0.16221 0.05407,-0.29738 0.16221,-0.40552c0.10814,-0.10814 0.24331,-0.16221 0.40552,-0.16221h1.74375c0.16221,0 0.29063,0.05407 0.38525,0.16221c0.10814,0.10814 0.16221,0.24331 0.16221,0.40552v1.7032c0,0.14869 -0.05407,0.27711 -0.16221,0.38525c-0.09462,0.10814 -0.22304,0.16221 -0.38525,0.16221z" fill="#ffffff" stroke="#ffffff" stroke-width="0.5" stroke-linecap="square"/></g></g></svg>