<svg version="1.1" xmlns="http://www.w3.org/2000/svg" xmlns:xlink="http://www.w3.org/1999/xlink" width="119.31086" height="25.95512" viewBox="0,0,119.31086,25.95512"><g transform="translate(-180.34457,-167.02244)"><g data-paper-data="{&quot;isPaintingLayer&quot;:true}" fill-rule="nonzero" stroke-miterlimit="10" stroke-dasharray="" stroke-dashoffset="0" style="mix-blend-mode: normal"><path d="M193.32213,167.02244h93.35574c7.18957,0 12.97756,5.78799 12.97756,12.97756c0,7.18957 -5.788,12.97756 -12.97756,12.97756h-93.35574c-7.18957,0 -12.97756,-5.78799 -12.97756,-12.97756c0,-7.18957 5.78799,-12.97756 12.97756,-12.97756z" fill="#000000" stroke="none" stroke-width="0.365" stroke-linecap="round" stroke-linejoin="round"/><path d="M196.28356,184.72278c-0.07452,0 -0.13786,-0.02608 -0.19003,-0.07826c-0.05216,-0.05216 -0.07826,-0.11552 -0.07826,-0.19003c0,-0.04471 0.00373,-0.09315 0.01118,-0.14532l3.30875,-8.64077c0.03726,-0.08197 0.0857,-0.14905 0.14532,-0.20122c0.06706,-0.05962 0.16022,-0.08943 0.27945,-0.08943h0.91662c0.11924,0 0.20866,0.02981 0.26828,0.08943c0.06706,0.05216 0.11924,0.11924 0.15649,0.20122l3.29758,8.64077c0.0149,0.05216 0.02236,0.1006 0.02236,0.14532c0,0.07452 -0.02608,0.13786 -0.07826,0.19003c-0.05216,0.05216 -0.11552,0.07826 -0.19003,0.07826h-0.68188c-0.10433,0 -0.18258,-0.02608 -0.23475,-0.07826c-0.04471,-0.05216 -0.07826,-0.1006 -0.1006,-0.14532l-0.72659,-1.9003h-4.38187l-0.72659,1.9003c-0.0149,0.04471 -0.04844,0.09315 -0.1006,0.14532c-0.05216,0.05216 -0.13041,0.07826 -0.23475,0.07826zM198.41862,181.44757h3.59939l-1.79969,-4.72839zM208.39867,184.85693c-0.63342,0 -1.18117,-0.12296 -1.6432,-0.36888c-0.45458,-0.24592 -0.80856,-0.59618 -1.06193,-1.05075c-0.24592,-0.46203 -0.37633,-1.01349 -0.39125,-1.65438c-0.00745,-0.13413 -0.01118,-0.30927 -0.01118,-0.52538c0,-0.22356 0.00373,-0.40241 0.01118,-0.53657c0.0149,-0.64089 0.14532,-1.18862 0.39125,-1.6432c0.25337,-0.46203 0.60736,-0.816 1.06193,-1.06193c0.46203,-0.24592 1.00977,-0.36888 1.6432,-0.36888c0.5142,0 0.95388,0.07079 1.31903,0.21238c0.37261,0.1416 0.67814,0.32418 0.91662,0.54773c0.24592,0.22356 0.42849,0.46576 0.54773,0.72659c0.11924,0.25337 0.18258,0.49557 0.19003,0.72659c0.0149,0.08943 -0.01118,0.16395 -0.07826,0.22356c-0.05962,0.05216 -0.13413,0.07826 -0.22356,0.07826h-0.63716c-0.08943,0 -0.15649,-0.01864 -0.20122,-0.0559c-0.04471,-0.04471 -0.08943,-0.11552 -0.13413,-0.21238c-0.16395,-0.43967 -0.38377,-0.74522 -0.65951,-0.91662c-0.27573,-0.17886 -0.61853,-0.26828 -1.02839,-0.26828c-0.5291,0 -0.96132,0.16395 -1.29668,0.49185c-0.33535,0.3279 -0.5142,0.857 -0.53657,1.58732c-0.0149,0.32044 -0.0149,0.6297 0,0.92779c0.02236,0.73776 0.20122,1.2706 0.53657,1.59848c0.33535,0.3279 0.76758,0.49185 1.29668,0.49185c0.40987,0 0.75267,-0.08943 1.02839,-0.26828c0.27573,-0.17886 0.49557,-0.48811 0.65951,-0.92779c0.04471,-0.09688 0.08943,-0.16767 0.13413,-0.21238c0.04471,-0.04471 0.11178,-0.06706 0.20122,-0.06706h0.63716c0.08943,0 0.16395,0.02981 0.22356,0.08943c0.06706,0.05962 0.09315,0.13413 0.07826,0.22356c-0.00745,0.1863 -0.04844,0.37633 -0.12296,0.57008c-0.06706,0.19375 -0.17886,0.39125 -0.33535,0.59244c-0.15649,0.20122 -0.35025,0.38006 -0.58128,0.53657c-0.23101,0.15649 -0.50674,0.28318 -0.8272,0.38006c-0.32044,0.08943 -0.68932,0.13413 -1.10665,0.13413zM213.28455,184.72278c-0.08943,0 -0.16395,-0.02981 -0.22356,-0.08943c-0.05216,-0.05962 -0.07826,-0.13041 -0.07826,-0.21238v-8.86433c0,-0.08943 0.02608,-0.16395 0.07826,-0.22356c0.05962,-0.05962 0.13413,-0.08943 0.22356,-0.08943h0.67069c0.09688,0 0.1714,0.02981 0.22356,0.08943c0.05216,0.05962 0.07826,0.13413 0.07826,0.22356v3.10755c0.23847,-0.30555 0.53282,-0.55146 0.88309,-0.73776c0.35025,-0.1863 0.78993,-0.27945 1.31903,-0.27945c0.58128,0 1.07311,0.12668 1.47553,0.38006c0.40241,0.25337 0.70796,0.60736 0.91662,1.06193c0.21611,0.44712 0.32418,0.96878 0.32418,1.56495v3.76706c0,0.08197 -0.02981,0.15276 -0.08943,0.21238c-0.05216,0.05962 -0.12668,0.08943 -0.22356,0.08943h-0.67069c-0.08943,0 -0.16395,-0.02981 -0.22356,-0.08943c-0.05216,-0.05962 -0.07826,-0.13041 -0.07826,-0.21238v-3.7c0,-0.62598 -0.15276,-1.1141 -0.45831,-1.46434c-0.29808,-0.35025 -0.74148,-0.52538 -1.33021,-0.52538c-0.55146,0 -0.99859,0.17513 -1.34138,0.52538c-0.33535,0.35025 -0.50302,0.83837 -0.50302,1.46434v3.7c0,0.08197 -0.02608,0.15276 -0.07826,0.21238c-0.05216,0.05962 -0.12668,0.08943 -0.22356,0.08943zM221.40159,184.72278c-0.08943,0 -0.16395,-0.02981 -0.22356,-0.08943c-0.05962,-0.05962 -0.08943,-0.13041 -0.08943,-0.21238v-6.32688c0,-0.08943 0.02981,-0.16395 0.08943,-0.22356c0.05962,-0.05962 0.13413,-0.08943 0.22356,-0.08943h0.63716c0.08943,0 0.16395,0.02981 0.22356,0.08943c0.05962,0.05962 0.08943,0.13413 0.08943,0.22356v6.32688c0,0.08197 -0.02981,0.15276 -0.08943,0.21238c-0.05962,0.05962 -0.13413,0.08943 -0.22356,0.08943zM221.2898,176.48443c-0.08943,0 -0.16395,-0.02608 -0.22356,-0.07826c-0.05216,-0.05962 -0.07826,-0.13413 -0.07826,-0.22356v-0.72659c0,-0.08943 0.02608,-0.16395 0.07826,-0.22356c0.05962,-0.05962 0.13413,-0.08943 0.22356,-0.08943h0.83837c0.08943,0 0.16395,0.02981 0.22356,0.08943c0.06706,0.05962 0.1006,0.13413 0.1006,0.22356v0.72659c0,0.08943 -0.03354,0.16395 -0.1006,0.22356c-0.05962,0.05216 -0.13413,0.07826 -0.22356,0.07826zM227.10189,184.85693c-0.92407,0 -1.65811,-0.28318 -2.2021,-0.84955c-0.54401,-0.56636 -0.84209,-1.33766 -0.89426,-2.31389c-0.00745,-0.11924 -0.01118,-0.26828 -0.01118,-0.44712c0,-0.1863 0.00373,-0.33535 0.01118,-0.44712c0.02981,-0.63342 0.17513,-1.18862 0.43595,-1.66556c0.26084,-0.47695 0.6148,-0.84209 1.06193,-1.09547c0.44712,-0.26084 0.97624,-0.39125 1.58732,-0.39125c0.67069,0 1.23333,0.14532 1.68792,0.43595c0.46203,0.28318 0.81229,0.68559 1.05075,1.20725c0.24592,0.52165 0.36888,1.13645 0.36888,1.84441v0.22356c0,0.09688 -0.02981,0.17513 -0.08943,0.23475c-0.05962,0.05216 -0.13413,0.07826 -0.22356,0.07826h-4.61661c0,0.00745 0,0.02608 0,0.0559c0,0.02236 0,0.04098 0,0.0559c0.02236,0.36517 0.10433,0.70796 0.24592,1.02839c0.1416,0.31299 0.34653,0.57008 0.6148,0.7713c0.27573,0.19375 0.59618,0.29063 0.96132,0.29063c0.31299,0 0.57755,-0.04844 0.79366,-0.14532c0.21611,-0.10433 0.39125,-0.21611 0.52538,-0.33535c0.13413,-0.11924 0.22356,-0.21238 0.26828,-0.27945c0.07452,-0.11178 0.13413,-0.17886 0.17886,-0.20122c0.04471,-0.02236 0.11552,-0.03354 0.21238,-0.03354h0.65951c0.08197,0 0.14905,0.02608 0.20122,0.07826c0.05962,0.04471 0.0857,0.11178 0.07826,0.20122c-0.00745,0.13413 -0.07826,0.29808 -0.21238,0.49185c-0.13413,0.19375 -0.32418,0.38377 -0.57008,0.57008c-0.24592,0.1863 -0.54773,0.33907 -0.90543,0.45831c-0.3577,0.11924 -0.76385,0.17886 -1.21842,0.17886zM225.26866,180.74333h3.65529v-0.03354c0,-0.40241 -0.07452,-0.76012 -0.22356,-1.07311c-0.1416,-0.31299 -0.35025,-0.55891 -0.62598,-0.73776c-0.27573,-0.1863 -0.60363,-0.27945 -0.98369,-0.27945c-0.38752,0 -0.71913,0.09315 -0.99487,0.27945c-0.26828,0.17886 -0.47321,0.42477 -0.6148,0.73776c-0.1416,0.31299 -0.21238,0.67069 -0.21238,1.07311zM233.96686,184.72278c-0.12668,0 -0.23101,-0.02981 -0.31299,-0.08943c-0.07452,-0.06706 -0.13413,-0.14905 -0.17886,-0.24592l-2.47038,-6.19274c-0.0149,-0.04471 -0.02236,-0.08943 -0.02236,-0.13413c0,-0.08197 0.02608,-0.14905 0.07826,-0.20122c0.05216,-0.05216 0.11924,-0.07826 0.20122,-0.07826h0.63716c0.10433,0 0.18258,0.02608 0.23475,0.07826c0.05216,0.05216 0.0857,0.1006 0.1006,0.14532l2.03444,5.26495l2.02326,-5.26495c0.02236,-0.04471 0.0559,-0.09315 0.1006,-0.14532c0.05216,-0.05216 0.12668,-0.07826 0.22356,-0.07826h0.64834c0.07452,0 0.13786,0.02608 0.19003,0.07826c0.05962,0.05216 0.08943,0.11924 0.08943,0.20122c0,0.04471 -0.00745,0.08943 -0.02236,0.13413l-2.48158,6.19274c-0.03726,0.09688 -0.09315,0.17886 -0.16767,0.24592c-0.07452,0.05962 -0.18258,0.08943 -0.32418,0.08943zM241.47616,184.85693c-0.92407,0 -1.65811,-0.28318 -2.2021,-0.84955c-0.54401,-0.56636 -0.84209,-1.33766 -0.89426,-2.31389c-0.00745,-0.11924 -0.01118,-0.26828 -0.01118,-0.44712c0,-0.1863 0.00373,-0.33535 0.01118,-0.44712c0.02981,-0.63342 0.17513,-1.18862 0.43595,-1.66556c0.26084,-0.47695 0.6148,-0.84209 1.06193,-1.09547c0.44712,-0.26084 0.97624,-0.39125 1.58732,-0.39125c0.67069,0 1.23333,0.14532 1.68792,0.43595c0.46203,0.28318 0.81229,0.68559 1.05075,1.20725c0.24592,0.52165 0.36888,1.13645 0.36888,1.84441v0.22356c0,0.09688 -0.02981,0.17513 -0.08943,0.23475c-0.05962,0.05216 -0.13413,0.07826 -0.22356,0.07826h-4.61661c0,0.00745 0,0.02608 0,0.0559c0,0.02236 0,0.04098 0,0.0559c0.02236,0.36517 0.10433,0.70796 0.24592,1.02839c0.1416,0.31299 0.34653,0.57008 0.6148,0.7713c0.27573,0.19375 0.59618,0.29063 0.96132,0.29063c0.31299,0 0.57755,-0.04844 0.79366,-0.14532c0.21611,-0.10433 0.39125,-0.21611 0.52538,-0.33535c0.13413,-0.11924 0.22356,-0.21238 0.26828,-0.27945c0.07452,-0.11178 0.13413,-0.17886 0.17886,-0.20122c0.04471,-0.02236 0.11552,-0.03354 0.21238,-0.03354h0.65951c0.08197,0 0.14905,0.02608 0.20122,0.07826c0.05962,0.04471 0.0857,0.11178 0.07826,0.20122c-0.00745,0.13413 -0.07826,0.29808 -0.21238,0.49185c-0.13413,0.19375 -0.32418,0.38377 -0.57008,0.57008c-0.24592,0.1863 -0.54773,0.33907 -0.90543,0.45831c-0.3577,0.11924 -0.76385,0.17886 -1.21842,0.17886zM239.64293,180.74333h3.65529v-0.03354c0,-0.40241 -0.07452,-0.76012 -0.22356,-1.07311c-0.1416,-0.31299 -0.35025,-0.55891 -0.62598,-0.73776c-0.27573,-0.1863 -0.60363,-0.27945 -0.98369,-0.27945c-0.38752,0 -0.71913,0.09315 -0.99487,0.27945c-0.26828,0.17886 -0.47321,0.42477 -0.6148,0.73776c-0.1416,0.31299 -0.21238,0.67069 -0.21238,1.07311zM246.47999,184.72278c-0.08943,0 -0.16395,-0.02981 -0.22356,-0.08943c-0.05962,-0.05962 -0.08943,-0.13041 -0.08943,-0.21238v-6.32688c0,-0.08943 0.02981,-0.16395 0.08943,-0.22356c0.05962,-0.05962 0.13413,-0.08943 0.22356,-0.08943h0.60363c0.08197,0 0.15276,0.02981 0.21238,0.08943c0.05962,0.05962 0.08943,0.13413 0.08943,0.22356v0.45831c0.20122,-0.27573 0.45831,-0.49557 0.7713,-0.65951c0.31299,-0.16395 0.68932,-0.24592 1.12901,-0.24592c0.99859,-0.00745 1.71028,0.40241 2.13504,1.22961c0.20122,-0.37261 0.49557,-0.67069 0.88309,-0.89426c0.39497,-0.22356 0.84209,-0.33535 1.34138,-0.33535c0.46203,0 0.88309,0.10805 1.26313,0.32418c0.38006,0.20866 0.67814,0.5291 0.89426,0.96132c0.21611,0.43223 0.32418,0.97249 0.32418,1.62085v3.86766c0,0.08197 -0.02981,0.15276 -0.08943,0.21238c-0.05216,0.05962 -0.12296,0.08943 -0.21238,0.08943h-0.62598c-0.08943,0 -0.16395,-0.02981 -0.22356,-0.08943c-0.05962,-0.05962 -0.08943,-0.13041 -0.08943,-0.21238v-3.7447c0,-0.49929 -0.07079,-0.89054 -0.21238,-1.17371c-0.1416,-0.28318 -0.33535,-0.48067 -0.58128,-0.59244c-0.23847,-0.11924 -0.49929,-0.17886 -0.78247,-0.17886c-0.23101,0 -0.46576,0.05962 -0.70423,0.17886c-0.23847,0.11178 -0.43595,0.30927 -0.59244,0.59244c-0.15649,0.28318 -0.23475,0.67442 -0.23475,1.17371v3.7447c0,0.08197 -0.02981,0.15276 -0.08943,0.21238c-0.05962,0.05962 -0.13413,0.08943 -0.22356,0.08943h-0.62598c-0.08943,0 -0.16395,-0.02981 -0.22356,-0.08943c-0.05216,-0.05962 -0.07826,-0.13041 -0.07826,-0.21238v-3.7447c0,-0.49929 -0.07826,-0.89054 -0.23475,-1.17371c-0.14905,-0.28318 -0.34279,-0.48067 -0.58128,-0.59244c-0.23847,-0.11924 -0.49185,-0.17886 -0.76012,-0.17886c-0.23101,0 -0.46948,0.05962 -0.7154,0.17886c-0.23847,0.11178 -0.43595,0.30927 -0.59244,0.59244c-0.14905,0.28318 -0.22356,0.67069 -0.22356,1.16254v3.75589c0,0.08197 -0.02981,0.15276 -0.08943,0.21238c-0.05962,0.05962 -0.13413,0.08943 -0.22356,0.08943zM260.81569,184.85693c-0.92407,0 -1.65811,-0.28318 -2.2021,-0.84955c-0.54401,-0.56636 -0.84209,-1.33766 -0.89426,-2.31389c-0.00745,-0.11924 -0.01118,-0.26828 -0.01118,-0.44712c0,-0.1863 0.00373,-0.33535 0.01118,-0.44712c0.02981,-0.63342 0.17513,-1.18862 0.43595,-1.66556c0.26084,-0.47695 0.6148,-0.84209 1.06193,-1.09547c0.44712,-0.26084 0.97624,-0.39125 1.58732,-0.39125c0.67069,0 1.23333,0.14532 1.68792,0.43595c0.46203,0.28318 0.81229,0.68559 1.05075,1.20725c0.24592,0.52165 0.36888,1.13645 0.36888,1.84441v0.22356c0,0.09688 -0.02981,0.17513 -0.08943,0.23475c-0.05962,0.05216 -0.13413,0.07826 -0.22356,0.07826h-4.61661c0,0.00745 0,0.02608 0,0.0559c0,0.02236 0,0.04098 0,0.0559c0.02236,0.36517 0.10433,0.70796 0.24592,1.02839c0.1416,0.31299 0.34653,0.57008 0.6148,0.7713c0.27573,0.19375 0.59618,0.29063 0.96132,0.29063c0.31299,0 0.57755,-0.04844 0.79366,-0.14532c0.21611,-0.10433 0.39125,-0.21611 0.52538,-0.33535c0.13413,-0.11924 0.22356,-0.21238 0.26828,-0.27945c0.07452,-0.11178 0.13413,-0.17886 0.17886,-0.20122c0.04471,-0.02236 0.11552,-0.03354 0.21238,-0.03354h0.65951c0.08197,0 0.14905,0.02608 0.20122,0.07826c0.05962,0.04471 0.0857,0.11178 0.07826,0.20122c-0.00745,0.13413 -0.07826,0.29808 -0.21238,0.49185c-0.13413,0.19375 -0.32418,0.38377 -0.57008,0.57008c-0.24592,0.1863 -0.54773,0.33907 -0.90543,0.45831c-0.3577,0.11924 -0.76385,0.17886 -1.21842,0.17886zM258.98246,180.74333h3.65529v-0.03354c0,-0.40241 -0.07452,-0.76012 -0.22356,-1.07311c-0.1416,-0.31299 -0.35025,-0.55891 -0.62598,-0.73776c-0.27573,-0.1863 -0.60363,-0.27945 -0.98369,-0.27945c-0.38752,0 -0.71913,0.09315 -0.99487,0.27945c-0.26828,0.17886 -0.47321,0.42477 -0.6148,0.73776c-0.1416,0.31299 -0.21238,0.67069 -0.21238,1.07311zM265.81952,184.72278c-0.08943,0 -0.16395,-0.02981 -0.22356,-0.08943c-0.05962,-0.05962 -0.08943,-0.13041 -0.08943,-0.21238v-6.32688c0,-0.08943 0.02981,-0.16395 0.08943,-0.22356c0.05962,-0.05962 0.13413,-0.08943 0.22356,-0.08943h0.62598c0.08943,0 0.16022,0.02981 0.21238,0.08943c0.05962,0.05962 0.08943,0.13413 0.08943,0.22356v0.58128c0.23101,-0.29808 0.52165,-0.54401 0.8719,-0.73776c0.3577,-0.19375 0.81229,-0.29063 1.36374,-0.29063c0.5738,0 1.06193,0.12668 1.46434,0.38006c0.40987,0.25337 0.71913,0.60736 0.92779,1.06193c0.20866,0.44712 0.31299,0.96878 0.31299,1.56495v3.76706c0,0.08197 -0.02981,0.15276 -0.08943,0.21238c-0.05216,0.05962 -0.12296,0.08943 -0.21238,0.08943h-0.67069c-0.08943,0 -0.16395,-0.02981 -0.22356,-0.08943c-0.05216,-0.05962 -0.07826,-0.13041 -0.07826,-0.21238v-3.7c0,-0.62598 -0.15276,-1.1141 -0.45831,-1.46434c-0.30555,-0.35025 -0.74894,-0.52538 -1.33021,-0.52538c-0.55146,0 -0.99487,0.17513 -1.33021,0.52538c-0.33535,0.35025 -0.50302,0.83837 -0.50302,1.46434v3.7c0,0.08197 -0.02981,0.15276 -0.08943,0.21238c-0.05962,0.05962 -0.13041,0.08943 -0.21238,0.08943zM276.21754,184.72278c-0.49929,0 -0.90543,-0.09315 -1.21842,-0.27945c-0.31299,-0.19375 -0.54029,-0.46576 -0.68188,-0.816c-0.1416,-0.3577 -0.21238,-0.77502 -0.21238,-1.25197v-3.52113h-1.03958c-0.08943,0 -0.16395,-0.02981 -0.22356,-0.08943c-0.05962,-0.05962 -0.08943,-0.13413 -0.08943,-0.22356v-0.44712c0,-0.08943 0.02981,-0.16395 0.08943,-0.22356c0.05962,-0.05962 0.13413,-0.08943 0.22356,-0.08943h1.03958v-2.22446c0,-0.08943 0.02981,-0.16395 0.08943,-0.22356c0.05962,-0.05962 0.13413,-0.08943 0.22356,-0.08943h0.62598c0.08943,0 0.16022,0.02981 0.21238,0.08943c0.05962,0.05962 0.08943,0.13413 0.08943,0.22356v2.22446h1.65438c0.09688,0 0.1714,0.02981 0.22356,0.08943c0.05962,0.05962 0.08943,0.13413 0.08943,0.22356v0.44712c0,0.08943 -0.02981,0.16395 -0.08943,0.22356c-0.05216,0.05962 -0.12668,0.08943 -0.22356,0.08943h-1.65438v3.42054c0,0.42477 0.07079,0.7564 0.21238,0.99487c0.1416,0.23847 0.39497,0.3577 0.76012,0.3577h0.816c0.08943,0 0.16395,0.02981 0.22356,0.08943c0.05962,0.05962 0.08943,0.13413 0.08943,0.22356v0.48067c0,0.08197 -0.02981,0.15276 -0.08943,0.21238c-0.05962,0.05962 -0.13413,0.08943 -0.22356,0.08943zM281.12316,184.85693c-0.49929,0 -0.92779,-0.05962 -1.28551,-0.17886c-0.35025,-0.12668 -0.63716,-0.27945 -0.86072,-0.45831c-0.22356,-0.17886 -0.39125,-0.3577 -0.50302,-0.53657c-0.11178,-0.17886 -0.1714,-0.32044 -0.17886,-0.42477c-0.00745,-0.09688 0.02236,-0.1714 0.08943,-0.22356c0.07452,-0.05962 0.14905,-0.08943 0.22356,-0.08943h0.59244c0.04471,0 0.08197,0.00745 0.11178,0.02236c0.03726,0.0149 0.08197,0.05216 0.13413,0.11178c0.11178,0.12668 0.23847,0.25337 0.38006,0.38006c0.14905,0.11924 0.3279,0.21984 0.53657,0.30181c0.20866,0.08197 0.46576,0.12296 0.7713,0.12296c0.45458,0 0.8272,-0.0857 1.11781,-0.25709c0.29808,-0.17886 0.44712,-0.43595 0.44712,-0.7713c0,-0.22356 -0.05962,-0.40241 -0.17886,-0.53657c-0.11924,-0.13413 -0.33163,-0.25337 -0.63716,-0.3577c-0.30555,-0.10433 -0.72659,-0.21611 -1.26313,-0.33535c-0.53657,-0.12668 -0.96132,-0.27945 -1.27431,-0.45831c-0.30555,-0.1863 -0.52538,-0.40614 -0.65951,-0.65951c-0.13413,-0.25337 -0.20122,-0.54029 -0.20122,-0.86072c0,-0.3279 0.09688,-0.64461 0.29063,-0.95015c0.19375,-0.30555 0.48067,-0.55519 0.86072,-0.74894c0.38006,-0.20122 0.85328,-0.30181 1.41963,-0.30181c0.46203,0 0.857,0.05962 1.18489,0.17886c0.33535,0.11178 0.60736,0.25709 0.816,0.43595c0.21611,0.1714 0.37633,0.34279 0.48067,0.5142c0.11178,0.16395 0.1714,0.30555 0.17886,0.42477c0.00745,0.08943 -0.02236,0.16395 -0.08943,0.22356c-0.05962,0.05216 -0.12668,0.07826 -0.20122,0.07826h-0.57008c-0.05962,0 -0.11178,-0.01118 -0.15649,-0.03354c-0.03726,-0.02981 -0.07079,-0.06335 -0.1006,-0.1006c-0.08943,-0.11178 -0.19747,-0.22356 -0.32418,-0.33535c-0.11924,-0.11924 -0.27573,-0.21611 -0.46948,-0.29063c-0.1863,-0.08197 -0.43595,-0.12296 -0.74894,-0.12296c-0.43967,0 -0.7713,0.09315 -0.99487,0.27945c-0.22356,0.1863 -0.33535,0.42477 -0.33535,0.7154c0,0.16395 0.04844,0.31299 0.14532,0.44712c0.09688,0.13413 0.28318,0.25709 0.55891,0.36888c0.27573,0.10433 0.68559,0.21984 1.22961,0.34653c0.58872,0.11178 1.05075,0.26828 1.3861,0.46948c0.34279,0.19375 0.58499,0.42105 0.72659,0.68188c0.1416,0.25337 0.21238,0.54773 0.21238,0.88309c0,0.37261 -0.10805,0.7154 -0.32418,1.02839c-0.21611,0.31299 -0.53657,0.56264 -0.96132,0.74894c-0.42477,0.17886 -0.95015,0.26828 -1.57613,0.26828z" fill="#ffffff" stroke="#ffffff" stroke-width="0.5" stroke-linecap="square" stroke-linejoin="miter"/></g></g></svg>