<svg version="1.1" xmlns="http://www.w3.org/2000/svg" xmlns:xlink="http://www.w3.org/1999/xlink" width="210.88432" height="226.68309" viewBox="0,0,210.88432,226.68309"><g transform="translate(-134.55784,-72.35481)"><g data-paper-data="{&quot;isPaintingLayer&quot;:true}" fill="#000000" fill-rule="evenodd" stroke="none" stroke-width="1" stroke-linecap="round" stroke-linejoin="round" stroke-miterlimit="10" stroke-dasharray="" stroke-dashoffset="0" style="mix-blend-mode: normal"><path d="M342.27551,75.52278c3.84715,3.73964 3.11009,11.29078 3.11009,11.29078l-0.48745,196.93931c0,0 0.9754,8.10408 -2.80645,12.13232c-3.78184,4.02823 -11.44496,3.04757 -11.44496,3.04757l-180.7478,-1.10052c0,0 -8.32191,0.54927 -12.14069,-3.26008c-3.81879,-3.80935 -3.15648,-11.99928 -3.15648,-11.99928l-0.01078,-196.54414c0,0 -0.17257,-6.81444 3.22798,-10.16016c3.40055,-3.34572 10.40151,-3.24956 10.40151,-3.24956l182.32849,-0.22754c0,0 7.8794,-0.60836 11.72654,3.13129z" data-paper-data="{&quot;origRot&quot;:0,&quot;index&quot;:null}" opacity="0.42445"/></g></g></svg>