<svg version="1.1" xmlns="http://www.w3.org/2000/svg" xmlns:xlink="http://www.w3.org/1999/xlink" width="508.8665" height="376.75632" viewBox="0,0,508.8665,376.75632"><defs><linearGradient x1="251.40353" y1="-1.83681" x2="251.40353" y2="374.91951" gradientUnits="userSpaceOnUse" id="color-1"><stop offset="0" stop-color="#000000"/><stop offset="1" stop-color="#6c6c6c"/></linearGradient></defs><g transform="translate(3.02972,1.83681)"><g data-paper-data="{&quot;isPaintingLayer&quot;:true}" fill-rule="nonzero" stroke-linejoin="miter" stroke-miterlimit="10" stroke-dasharray="" stroke-dashoffset="0" style="mix-blend-mode: normal"><path d="M-3.02972,374.91951v-376.75632h508.8665v376.75632z" fill="url(#color-1)" stroke="none" stroke-width="0" stroke-linecap="butt"/><path d="M120.30286,265.29576c-0.17572,0 -0.3109,-0.05407 -0.40552,-0.16221c-0.09462,-0.10814 -0.14193,-0.23655 -0.14193,-0.38525v-15.81541c0,-0.17572 0.04731,-0.31766 0.14193,-0.4258c0.09462,-0.10814 0.2298,-0.16221 0.40552,-0.16221h1.23685c0.17572,0 0.31766,0.05407 0.4258,0.16221c0.10814,0.10814 0.16221,0.25007 0.16221,0.4258v6.67086h8.3335v-6.67086c0,-0.17572 0.04731,-0.31766 0.14193,-0.4258c0.10814,-0.10814 0.24331,-0.16221 0.40552,-0.16221h1.23685c0.17572,0 0.31766,0.05407 0.4258,0.16221c0.10814,0.10814 0.16221,0.25007 0.16221,0.4258v15.81541c0,0.14869 -0.05407,0.27711 -0.16221,0.38525c-0.10814,0.10814 -0.25007,0.16221 -0.4258,0.16221h-1.23685c-0.16221,0 -0.29738,-0.05407 -0.40552,-0.16221c-0.09462,-0.10814 -0.14193,-0.23655 -0.14193,-0.38525v-6.95472h-8.3335v6.95472c0,0.14869 -0.05407,0.27711 -0.16221,0.38525c-0.10814,0.10814 -0.25007,0.16221 -0.4258,0.16221zM141.76554,265.53907c-1.67616,0 -3.00763,-0.51366 -3.9944,-1.54099c-0.98677,-1.02732 -1.52747,-2.42638 -1.62209,-4.19717c-0.01352,-0.21628 -0.02028,-0.48663 -0.02028,-0.81105c0,-0.33793 0.00676,-0.60828 0.02028,-0.81105c0.05407,-1.14898 0.31766,-2.15603 0.79077,-3.02115c0.47311,-0.86511 1.11519,-1.52747 1.92624,-1.98706c0.81105,-0.47311 1.77079,-0.70967 2.87922,-0.70967c1.21657,0 2.23714,0.26359 3.0617,0.79077c0.83808,0.51366 1.4734,1.24361 1.90596,2.18983c0.44608,0.94622 0.66911,2.06141 0.66911,3.34557v0.40552c0,0.17572 -0.05407,0.31766 -0.16221,0.4258c-0.10814,0.09462 -0.24331,0.14193 -0.40552,0.14193h-8.37406c0,0.01352 0,0.04731 0,0.10138c0,0.04055 0,0.07434 0,0.10138c0.04055,0.66235 0.18925,1.28416 0.44608,1.86541c0.25683,0.56773 0.62856,1.03408 1.11519,1.39906c0.50014,0.35146 1.0814,0.52718 1.74375,0.52718c0.56773,0 1.0476,-0.08787 1.43961,-0.26359c0.39201,-0.18925 0.70967,-0.39201 0.95298,-0.60828c0.24331,-0.21628 0.40552,-0.38525 0.48663,-0.5069c0.13517,-0.20276 0.24331,-0.32442 0.32442,-0.36497c0.0811,-0.04055 0.20952,-0.06083 0.38525,-0.06083h1.19629c0.14869,0 0.27035,0.04731 0.36497,0.14193c0.10814,0.0811 0.15545,0.20276 0.14193,0.36497c-0.01352,0.24331 -0.14193,0.5407 -0.38525,0.89215c-0.24331,0.35146 -0.58801,0.69615 -1.03408,1.03408c-0.44608,0.33793 -0.99353,0.61505 -1.64237,0.83132c-0.64884,0.21628 -1.38554,0.32442 -2.2101,0.32442zM138.44024,258.07743h6.63031v-0.06083c0,-0.72994 -0.13517,-1.37878 -0.40552,-1.94651c-0.25683,-0.56773 -0.63532,-1.01381 -1.13547,-1.33823c-0.50014,-0.33793 -1.09491,-0.5069 -1.7843,-0.5069c-0.7029,0 -1.30444,0.16897 -1.80458,0.5069c-0.48663,0.32442 -0.85836,0.77049 -1.11519,1.33823c-0.25683,0.56773 -0.38525,1.21657 -0.38525,1.94651zM150.84196,265.29576c-0.16221,0 -0.29738,-0.05407 -0.40552,-0.16221c-0.10814,-0.10814 -0.16221,-0.23655 -0.16221,-0.38525v-11.45603c0,-0.16221 0.05407,-0.29738 0.16221,-0.40552c0.10814,-0.12166 0.24331,-0.18249 0.40552,-0.18249h1.11519c0.16221,0 0.29738,0.06083 0.40552,0.18249c0.10814,0.10814 0.16221,0.24331 0.16221,0.40552v1.05436c0.32442,-0.5407 0.77049,-0.94622 1.33823,-1.21657c0.56773,-0.28387 1.25712,-0.4258 2.06817,-0.4258h0.9327c0.16221,0 0.29738,0.05407 0.40552,0.16221c0.10814,0.10814 0.16221,0.24331 0.16221,0.40552v0.99353c0,0.14869 -0.05407,0.27711 -0.16221,0.38525c-0.10814,0.09462 -0.24331,0.14193 -0.40552,0.14193h-1.45988c-0.86511,0 -1.54775,0.25683 -2.04789,0.77049c-0.50014,0.50014 -0.75022,1.18953 -0.75022,2.06817v7.11693c0,0.14869 -0.06083,0.27711 -0.18249,0.38525c-0.10814,0.10814 -0.24331,0.16221 -0.40552,0.16221zM164.28045,265.53907c-1.67616,0 -3.00763,-0.51366 -3.9944,-1.54099c-0.98677,-1.02732 -1.52747,-2.42638 -1.62209,-4.19717c-0.01352,-0.21628 -0.02028,-0.48663 -0.02028,-0.81105c0,-0.33793 0.00676,-0.60828 0.02028,-0.81105c0.05407,-1.14898 0.31766,-2.15603 0.79077,-3.02115c0.47311,-0.86511 1.11519,-1.52747 1.92624,-1.98706c0.81105,-0.47311 1.77079,-0.70967 2.87922,-0.70967c1.21657,0 2.23714,0.26359 3.0617,0.79077c0.83808,0.51366 1.4734,1.24361 1.90596,2.18983c0.44608,0.94622 0.66911,2.06141 0.66911,3.34557v0.40552c0,0.17572 -0.05407,0.31766 -0.16221,0.4258c-0.10814,0.09462 -0.24331,0.14193 -0.40552,0.14193h-8.37406c0,0.01352 0,0.04731 0,0.10138c0,0.04055 0,0.07434 0,0.10138c0.04055,0.66235 0.18925,1.28416 0.44608,1.86541c0.25683,0.56773 0.62856,1.03408 1.11519,1.39906c0.50014,0.35146 1.0814,0.52718 1.74375,0.52718c0.56773,0 1.0476,-0.08787 1.43961,-0.26359c0.39201,-0.18925 0.70967,-0.39201 0.95298,-0.60828c0.24331,-0.21628 0.40552,-0.38525 0.48663,-0.5069c0.13517,-0.20276 0.24331,-0.32442 0.32442,-0.36497c0.0811,-0.04055 0.20952,-0.06083 0.38525,-0.06083h1.19629c0.14869,0 0.27035,0.04731 0.36497,0.14193c0.10814,0.0811 0.15545,0.20276 0.14193,0.36497c-0.01352,0.24331 -0.14193,0.5407 -0.38525,0.89215c-0.24331,0.35146 -0.58801,0.69615 -1.03408,1.03408c-0.44608,0.33793 -0.99353,0.61505 -1.64237,0.83132c-0.64884,0.21628 -1.38554,0.32442 -2.2101,0.32442zM160.95519,258.07743h6.63031v-0.06083c0,-0.72994 -0.13517,-1.37878 -0.40552,-1.94651c-0.25683,-0.56773 -0.63532,-1.01381 -1.13547,-1.33823c-0.50014,-0.33793 -1.09491,-0.5069 -1.7843,-0.5069c-0.7029,0 -1.30444,0.16897 -1.80458,0.5069c-0.48663,0.32442 -0.85836,0.77049 -1.11519,1.33823c-0.25683,0.56773 -0.38525,1.21657 -0.38525,1.94651zM172.01796,252.78537c-0.12166,0 -0.22304,-0.04731 -0.30414,-0.14193c-0.06759,-0.10814 -0.09462,-0.2298 -0.0811,-0.36497l0.56773,-3.46722c0.02704,-0.18925 0.08787,-0.35146 0.18249,-0.48663c0.10814,-0.14869 0.27035,-0.22304 0.48663,-0.22304h1.62209c0.10814,0 0.196,0.04731 0.26359,0.14193c0.0811,0.0811 0.12166,0.17572 0.12166,0.28387c0,0.12166 -0.03379,0.25007 -0.10138,0.38525l-1.25712,3.30501c-0.06759,0.16221 -0.15545,0.29738 -0.26359,0.40552c-0.09462,0.10814 -0.23655,0.16221 -0.4258,0.16221zM181.06964,265.53907c-0.90567,0 -1.68292,-0.10814 -2.33176,-0.32442c-0.63532,-0.2298 -1.15574,-0.5069 -1.56126,-0.83132c-0.40552,-0.32442 -0.70967,-0.64884 -0.91243,-0.97326c-0.20276,-0.32442 -0.3109,-0.58125 -0.32442,-0.77049c-0.01352,-0.17572 0.04055,-0.3109 0.16221,-0.40552c0.13517,-0.10814 0.27035,-0.16221 0.40552,-0.16221h1.07464c0.0811,0 0.14869,0.01352 0.20276,0.04055c0.06759,0.02704 0.14869,0.09462 0.24331,0.20276c0.20276,0.2298 0.43256,0.45959 0.68939,0.68939c0.27035,0.21628 0.59477,0.39876 0.97326,0.54746c0.37849,0.14869 0.84484,0.22304 1.39906,0.22304c0.82456,0 1.50044,-0.15545 2.02762,-0.46635c0.5407,-0.32442 0.81105,-0.79077 0.81105,-1.39906c0,-0.40552 -0.10814,-0.72994 -0.32442,-0.97326c-0.21628,-0.24331 -0.60152,-0.45959 -1.15574,-0.64884c-0.55422,-0.18925 -1.31795,-0.39201 -2.29121,-0.60828c-0.97326,-0.2298 -1.74375,-0.5069 -2.31148,-0.83132c-0.55422,-0.33793 -0.95298,-0.7367 -1.19629,-1.19629c-0.24331,-0.45959 -0.36497,-0.98002 -0.36497,-1.56126c0,-0.59477 0.17572,-1.16926 0.52718,-1.72347c0.35146,-0.55422 0.87187,-1.00705 1.56126,-1.3585c0.68939,-0.36497 1.54775,-0.54746 2.57507,-0.54746c0.83808,0 1.5545,0.10814 2.14927,0.32442c0.60828,0.20276 1.10167,0.46635 1.48016,0.79077c0.39201,0.3109 0.68263,0.6218 0.87188,0.9327c0.20276,0.29738 0.3109,0.55422 0.32442,0.77049c0.01352,0.16221 -0.04055,0.29738 -0.16221,0.40552c-0.10814,0.09462 -0.2298,0.14193 -0.36497,0.14193h-1.03408c-0.10814,0 -0.20276,-0.02028 -0.28387,-0.06083c-0.06759,-0.05407 -0.12842,-0.1149 -0.18249,-0.18249c-0.16221,-0.20276 -0.35821,-0.40552 -0.58801,-0.60828c-0.21628,-0.21628 -0.50014,-0.39201 -0.8516,-0.52718c-0.33793,-0.14869 -0.79077,-0.22304 -1.3585,-0.22304c-0.79753,0 -1.39906,0.16897 -1.80458,0.5069c-0.40552,0.33793 -0.60828,0.77049 -0.60828,1.29767c0,0.29738 0.08787,0.56773 0.26359,0.81105c0.17572,0.24331 0.51366,0.46635 1.01381,0.66911c0.50014,0.18925 1.24361,0.39876 2.23038,0.62856c1.06788,0.20276 1.90596,0.48663 2.51424,0.8516c0.6218,0.35146 1.06112,0.76373 1.31795,1.23685c0.25683,0.45959 0.38525,0.99353 0.38525,1.60182c0,0.67587 -0.196,1.29767 -0.58801,1.86541c-0.39201,0.56773 -0.97326,1.02057 -1.74375,1.3585c-0.77049,0.32442 -1.72347,0.48663 -2.85894,0.48663zM196.54473,269.89844c-0.13517,0 -0.25007,-0.04731 -0.34469,-0.14193c-0.09462,-0.09462 -0.14193,-0.20952 -0.14193,-0.34469c0,-0.06759 0.00676,-0.13517 0.02028,-0.20276c0.02704,-0.05407 0.06083,-0.13517 0.10138,-0.24331l1.86541,-4.4202l-4.62297,-10.92885c-0.0811,-0.18925 -0.12166,-0.32442 -0.12166,-0.40552c0,-0.14869 0.04731,-0.27035 0.14193,-0.36497c0.09462,-0.09462 0.21628,-0.14193 0.36497,-0.14193h1.19629c0.17572,0 0.30414,0.04055 0.38525,0.12166c0.0811,0.0811 0.14193,0.17572 0.18249,0.28387l3.69026,8.82013l3.77137,-8.82013c0.05407,-0.10814 0.12166,-0.20276 0.20276,-0.28387c0.09462,-0.0811 0.2298,-0.12166 0.40552,-0.12166h1.13547c0.14869,0 0.27035,0.04731 0.36497,0.14193c0.09462,0.09462 0.14193,0.20952 0.14193,0.34469c0,0.0811 -0.04055,0.22304 -0.12166,0.4258l-6.87362,15.87624c-0.05407,0.10814 -0.12842,0.20276 -0.22304,0.28387c-0.0811,0.0811 -0.20952,0.12166 -0.38525,0.12166zM212.4328,265.53907c-1.23009,0 -2.25741,-0.2298 -3.08198,-0.68939c-0.82456,-0.47311 -1.45312,-1.12195 -1.88568,-1.94651c-0.43256,-0.83808 -0.67587,-1.79106 -0.72994,-2.85894c-0.01352,-0.27035 -0.02028,-0.6218 -0.02028,-1.05436c0,-0.43256 0.00676,-0.77726 0.02028,-1.03408c0.05407,-1.0814 0.29738,-2.03438 0.72994,-2.85894c0.44608,-0.82456 1.0814,-1.46664 1.90596,-1.92624c0.82456,-0.47311 1.84513,-0.70967 3.0617,-0.70967c1.20305,0 2.21686,0.23655 3.04142,0.70967c0.82456,0.45959 1.45988,1.10167 1.90596,1.92624c0.44608,0.82456 0.68939,1.77754 0.72994,2.85894c0.01352,0.25683 0.02028,0.60152 0.02028,1.03408c0,0.43256 -0.00676,0.78401 -0.02028,1.05436c-0.04055,1.06788 -0.28387,2.02086 -0.72994,2.85894c-0.43256,0.82456 -1.06112,1.4734 -1.88568,1.94651c-0.82456,0.45959 -1.84513,0.68939 -3.0617,0.68939zM212.4328,263.67367c1.00029,0 1.79782,-0.31766 2.39259,-0.95298c0.59477,-0.63532 0.91919,-1.56803 0.97326,-2.79811c0.01352,-0.24331 0.02028,-0.54746 0.02028,-0.91243c0,-0.37849 -0.00676,-0.68939 -0.02028,-0.9327c-0.05407,-1.23009 -0.37849,-2.16279 -0.97326,-2.79811c-0.59477,-0.63532 -1.39229,-0.95298 -2.39259,-0.95298c-1.00029,0 -1.80458,0.31766 -2.41286,0.95298c-0.60828,0.63532 -0.92594,1.56803 -0.95298,2.79811c-0.01352,0.24331 -0.02028,0.55422 -0.02028,0.9327c0,0.36497 0.00676,0.66911 0.02028,0.91243c0.02704,1.23009 0.34469,2.16279 0.95298,2.79811c0.60828,0.63532 1.41257,0.95298 2.41286,0.95298zM225.86284,265.53907c-1.02732,0 -1.90596,-0.2298 -2.6359,-0.68939c-0.71643,-0.45959 -1.26388,-1.10167 -1.64237,-1.92624c-0.36497,-0.82456 -0.54746,-1.77079 -0.54746,-2.83866v-6.81279c0,-0.16221 0.05407,-0.29738 0.16221,-0.40552c0.10814,-0.10814 0.24331,-0.16221 0.40552,-0.16221h1.21657c0.14869,0 0.27711,0.05407 0.38525,0.16221c0.10814,0.10814 0.16221,0.24331 0.16221,0.40552v6.69113c0,2.4061 1.0476,3.60916 3.14281,3.60916c1.00029,0 1.80458,-0.31766 2.41286,-0.95298c0.60828,-0.63532 0.91243,-1.52071 0.91243,-2.65618v-6.69113c0,-0.16221 0.04731,-0.29738 0.14193,-0.40552c0.10814,-0.10814 0.24331,-0.16221 0.40552,-0.16221h1.21657c0.16221,0 0.29063,0.05407 0.38525,0.16221c0.09462,0.10814 0.14193,0.24331 0.14193,0.40552v11.47631c0,0.14869 -0.04731,0.27711 -0.14193,0.38525c-0.09462,0.10814 -0.22304,0.16221 -0.38525,0.16221h-1.13547c-0.16221,0 -0.29738,-0.05407 -0.40552,-0.16221c-0.10814,-0.10814 -0.16221,-0.23655 -0.16221,-0.38525v-1.07464c-0.43256,0.56773 -0.95974,1.02057 -1.58154,1.3585c-0.6218,0.33793 -1.43961,0.5069 -2.45342,0.5069zM236.30079,265.29576c-0.16221,0 -0.29738,-0.05407 -0.40552,-0.16221c-0.10814,-0.10814 -0.16221,-0.23655 -0.16221,-0.38525v-11.45603c0,-0.16221 0.05407,-0.29738 0.16221,-0.40552c0.10814,-0.12166 0.24331,-0.18249 0.40552,-0.18249h1.11519c0.16221,0 0.29738,0.06083 0.40552,0.18249c0.10814,0.10814 0.16221,0.24331 0.16221,0.40552v1.05436c0.32442,-0.5407 0.77049,-0.94622 1.33823,-1.21657c0.56773,-0.28387 1.25712,-0.4258 2.06817,-0.4258h0.9327c0.16221,0 0.29738,0.05407 0.40552,0.16221c0.10814,0.10814 0.16221,0.24331 0.16221,0.40552v0.99353c0,0.14869 -0.05407,0.27711 -0.16221,0.38525c-0.10814,0.09462 -0.24331,0.14193 -0.40552,0.14193h-1.45988c-0.86511,0 -1.54775,0.25683 -2.04789,0.77049c-0.50014,0.50014 -0.75022,1.18953 -0.75022,2.06817v7.11693c0,0.14869 -0.06083,0.27711 -0.18249,0.38525c-0.10814,0.10814 -0.24331,0.16221 -0.40552,0.16221zM254.66634,265.53907c-0.90567,0 -1.68292,-0.10814 -2.33176,-0.32442c-0.63532,-0.2298 -1.15574,-0.5069 -1.56126,-0.83132c-0.40552,-0.32442 -0.70967,-0.64884 -0.91243,-0.97326c-0.20276,-0.32442 -0.3109,-0.58125 -0.32442,-0.77049c-0.01352,-0.17572 0.04055,-0.3109 0.16221,-0.40552c0.13517,-0.10814 0.27035,-0.16221 0.40552,-0.16221h1.07464c0.0811,0 0.14869,0.01352 0.20276,0.04055c0.06759,0.02704 0.14869,0.09462 0.24331,0.20276c0.20276,0.2298 0.43256,0.45959 0.68939,0.68939c0.27035,0.21628 0.59477,0.39876 0.97326,0.54746c0.37849,0.14869 0.84484,0.22304 1.39906,0.22304c0.82456,0 1.50044,-0.15545 2.02762,-0.46635c0.5407,-0.32442 0.81105,-0.79077 0.81105,-1.39906c0,-0.40552 -0.10814,-0.72994 -0.32442,-0.97326c-0.21628,-0.24331 -0.60152,-0.45959 -1.15574,-0.64884c-0.55422,-0.18925 -1.31795,-0.39201 -2.29121,-0.60828c-0.97326,-0.2298 -1.74375,-0.5069 -2.31148,-0.83132c-0.55422,-0.33793 -0.95298,-0.7367 -1.19629,-1.19629c-0.24331,-0.45959 -0.36497,-0.98002 -0.36497,-1.56126c0,-0.59477 0.17572,-1.16926 0.52718,-1.72347c0.35146,-0.55422 0.87187,-1.00705 1.56126,-1.3585c0.68939,-0.36497 1.54775,-0.54746 2.57507,-0.54746c0.83808,0 1.5545,0.10814 2.14927,0.32442c0.60828,0.20276 1.10167,0.46635 1.48016,0.79077c0.39201,0.3109 0.68263,0.6218 0.87187,0.9327c0.20276,0.29738 0.3109,0.55422 0.32442,0.77049c0.01352,0.16221 -0.04055,0.29738 -0.16221,0.40552c-0.10814,0.09462 -0.2298,0.14193 -0.36497,0.14193h-1.03408c-0.10814,0 -0.20276,-0.02028 -0.28387,-0.06083c-0.06759,-0.05407 -0.12842,-0.1149 -0.18249,-0.18249c-0.16221,-0.20276 -0.35821,-0.40552 -0.58801,-0.60828c-0.21628,-0.21628 -0.50014,-0.39201 -0.8516,-0.52718c-0.33793,-0.14869 -0.79077,-0.22304 -1.3585,-0.22304c-0.79753,0 -1.39906,0.16897 -1.80458,0.5069c-0.40552,0.33793 -0.60828,0.77049 -0.60828,1.29767c0,0.29738 0.08787,0.56773 0.26359,0.81105c0.17572,0.24331 0.51366,0.46635 1.01381,0.66911c0.50014,0.18925 1.24361,0.39876 2.23038,0.62856c1.06788,0.20276 1.90596,0.48663 2.51424,0.8516c0.6218,0.35146 1.06112,0.76373 1.31795,1.23685c0.25683,0.45959 0.38525,0.99353 0.38525,1.60182c0,0.67587 -0.196,1.29767 -0.58801,1.86541c-0.39201,0.56773 -0.97326,1.02057 -1.74375,1.3585c-0.77049,0.32442 -1.72347,0.48663 -2.85894,0.48663zM266.16173,265.53907c-0.79753,0 -1.52747,-0.16221 -2.18983,-0.48663c-0.66235,-0.32442 -1.19629,-0.75698 -1.60182,-1.29767c-0.40552,-0.55422 -0.60828,-1.17602 -0.60828,-1.86541c0,-1.12195 0.45284,-2.0141 1.3585,-2.67645c0.90567,-0.66235 2.08168,-1.09491 3.52805,-1.29767l3.60916,-0.5069v-0.70967c0,-0.77049 -0.22304,-1.37202 -0.66911,-1.80458c-0.43256,-0.44608 -1.14898,-0.66911 -2.14927,-0.66911c-0.5407,0 -0.99353,0.0811 -1.3585,0.24331c-0.36497,0.16221 -0.66235,0.35821 -0.89215,0.58801c-0.21628,0.2298 -0.39201,0.45284 -0.52718,0.66911c-0.05407,0.14869 -0.12166,0.25683 -0.20276,0.32442c-0.06759,0.06759 -0.15545,0.10138 -0.26359,0.10138h-1.05436c-0.14869,0 -0.27711,-0.05407 -0.38525,-0.16221c-0.09462,-0.10814 -0.14193,-0.23655 -0.14193,-0.38525c0,-0.24331 0.08787,-0.5407 0.26359,-0.89215c0.18925,-0.35146 0.47987,-0.69615 0.87188,-1.03408c0.39201,-0.33793 0.88539,-0.6218 1.48016,-0.8516c0.60828,-0.24331 1.35174,-0.36497 2.23038,-0.36497c0.95974,0 1.77079,0.12842 2.43314,0.38525c0.66235,0.24331 1.18278,0.57449 1.56126,0.99353c0.37849,0.41904 0.6556,0.89891 0.83132,1.43961c0.17572,0.52718 0.26359,1.06788 0.26359,1.62209v7.84688c0,0.14869 -0.05407,0.27711 -0.16221,0.38525c-0.10814,0.10814 -0.24331,0.16221 -0.40552,0.16221h-1.11519c-0.17572,0 -0.3109,-0.05407 -0.40552,-0.16221c-0.09462,-0.10814 -0.14193,-0.23655 -0.14193,-0.38525v-1.05436c-0.21628,0.29738 -0.50014,0.58801 -0.8516,0.87187c-0.35146,0.27035 -0.79753,0.50014 -1.33823,0.68939c-0.52718,0.18925 -1.18278,0.28387 -1.96679,0.28387zM266.6889,263.71422c0.66235,0 1.26388,-0.13517 1.80458,-0.40552c0.55422,-0.28387 0.98677,-0.72318 1.29767,-1.31795c0.3109,-0.60828 0.46635,-1.36526 0.46635,-2.27093v-0.66911l-2.79811,0.40552c-1.14898,0.16221 -2.0141,0.43256 -2.59535,0.81105c-0.58125,0.37849 -0.87188,0.85836 -0.87188,1.43961c0,0.45959 0.12842,0.83808 0.38525,1.13547c0.27035,0.29738 0.60828,0.52042 1.01381,0.66911c0.41904,0.13517 0.8516,0.20276 1.29767,0.20276zM280.15513,265.29576c-0.2298,0 -0.41904,-0.05407 -0.56773,-0.16221c-0.13517,-0.12166 -0.24331,-0.27035 -0.32442,-0.44608l-4.48103,-11.23299c-0.02704,-0.0811 -0.04055,-0.16221 -0.04055,-0.24331c0,-0.14869 0.04731,-0.27035 0.14193,-0.36497c0.09462,-0.09462 0.21628,-0.14193 0.36497,-0.14193h1.15574c0.18925,0 0.33118,0.04731 0.4258,0.14193c0.09462,0.09462 0.15545,0.18249 0.18249,0.26359l3.69026,9.55007l3.66999,-9.55007c0.04055,-0.0811 0.10138,-0.16897 0.18249,-0.26359c0.09462,-0.09462 0.2298,-0.14193 0.40552,-0.14193h1.17602c0.13517,0 0.25007,0.04731 0.34469,0.14193c0.10814,0.09462 0.16221,0.21628 0.16221,0.36497c0,0.0811 -0.01352,0.16221 -0.04055,0.24331l-4.50131,11.23299c-0.06759,0.17572 -0.16897,0.32442 -0.30414,0.44608c-0.13517,0.10814 -0.33118,0.16221 -0.58801,0.16221zM293.77624,265.53907c-1.67616,0 -3.00763,-0.51366 -3.9944,-1.54099c-0.98677,-1.02732 -1.52747,-2.42638 -1.62209,-4.19717c-0.01352,-0.21628 -0.02028,-0.48663 -0.02028,-0.81105c0,-0.33793 0.00676,-0.60828 0.02028,-0.81105c0.05407,-1.14898 0.31766,-2.15603 0.79077,-3.02115c0.47311,-0.86511 1.11519,-1.52747 1.92624,-1.98706c0.81105,-0.47311 1.77079,-0.70967 2.87922,-0.70967c1.21657,0 2.23714,0.26359 3.0617,0.79077c0.83808,0.51366 1.4734,1.24361 1.90596,2.18983c0.44608,0.94622 0.66911,2.06141 0.66911,3.34557v0.40552c0,0.17572 -0.05407,0.31766 -0.16221,0.4258c-0.10814,0.09462 -0.24331,0.14193 -0.40552,0.14193h-8.37406c0,0.01352 0,0.04731 0,0.10138c0,0.04055 0,0.07434 0,0.10138c0.04055,0.66235 0.18925,1.28416 0.44608,1.86541c0.25683,0.56773 0.62856,1.03408 1.11519,1.39906c0.50014,0.35146 1.0814,0.52718 1.74375,0.52718c0.56773,0 1.0476,-0.08787 1.43961,-0.26359c0.39201,-0.18925 0.70967,-0.39201 0.95298,-0.60828c0.24331,-0.21628 0.40552,-0.38525 0.48663,-0.5069c0.13517,-0.20276 0.24331,-0.32442 0.32442,-0.36497c0.0811,-0.04055 0.20952,-0.06083 0.38525,-0.06083h1.19629c0.14869,0 0.27035,0.04731 0.36497,0.14193c0.10814,0.0811 0.15545,0.20276 0.14193,0.36497c-0.01352,0.24331 -0.14193,0.5407 -0.38525,0.89215c-0.24331,0.35146 -0.58801,0.69615 -1.03408,1.03408c-0.44608,0.33793 -0.99353,0.61505 -1.64237,0.83132c-0.64884,0.21628 -1.38554,0.32442 -2.2101,0.32442zM290.45095,258.07743h6.63031v-0.06083c0,-0.72994 -0.13517,-1.37878 -0.40552,-1.94651c-0.25683,-0.56773 -0.63532,-1.01381 -1.13547,-1.33823c-0.50014,-0.33793 -1.09491,-0.5069 -1.7843,-0.5069c-0.7029,0 -1.30444,0.16897 -1.80458,0.5069c-0.48663,0.32442 -0.85836,0.77049 -1.11519,1.33823c-0.25683,0.56773 -0.38525,1.21657 -0.38525,1.94651zM307.37424,265.53907c-1.14898,0 -2.14251,-0.22304 -2.9806,-0.66911c-0.82456,-0.44608 -1.46664,-1.0814 -1.92624,-1.90596c-0.44608,-0.83808 -0.68263,-1.83837 -0.70967,-3.00087c-0.01352,-0.24331 -0.02028,-0.56097 -0.02028,-0.95298c0,-0.40552 0.00676,-0.72994 0.02028,-0.97326c0.02704,-1.1625 0.26359,-2.15603 0.70967,-2.9806c0.45959,-0.83808 1.10167,-1.48016 1.92624,-1.92624c0.83808,-0.44608 1.83162,-0.66911 2.9806,-0.66911c0.9327,0 1.73023,0.12842 2.39259,0.38525c0.67587,0.25683 1.23009,0.58801 1.66265,0.99353c0.44608,0.40552 0.77726,0.84484 0.99353,1.31795c0.21628,0.45959 0.33118,0.89891 0.34469,1.31795c0.02704,0.16221 -0.02028,0.29738 -0.14193,0.40552c-0.10814,0.09462 -0.24331,0.14193 -0.40552,0.14193h-1.15574c-0.16221,0 -0.28387,-0.03379 -0.36497,-0.10138c-0.0811,-0.0811 -0.16221,-0.20952 -0.24331,-0.38525c-0.29738,-0.79753 -0.69615,-1.35174 -1.19629,-1.66265c-0.50014,-0.32442 -1.12195,-0.48663 -1.86541,-0.48663c-0.95974,0 -1.74375,0.29738 -2.35203,0.89215c-0.60828,0.59477 -0.9327,1.5545 -0.97326,2.87922c-0.02704,0.58125 -0.02704,1.14223 0,1.68292c0.04055,1.33823 0.36497,2.30472 0.97326,2.89949c0.60828,0.59477 1.39229,0.89215 2.35203,0.89215c0.74346,0 1.36526,-0.16221 1.86541,-0.48663c0.50014,-0.32442 0.89891,-0.88539 1.19629,-1.68292c0.0811,-0.17572 0.16221,-0.30414 0.24331,-0.38525c0.0811,-0.0811 0.20276,-0.12166 0.36497,-0.12166h1.15574c0.16221,0 0.29738,0.05407 0.40552,0.16221c0.12166,0.10814 0.16897,0.24331 0.14193,0.40552c-0.01352,0.33793 -0.08787,0.68263 -0.22304,1.03408c-0.12166,0.35146 -0.32442,0.70967 -0.60828,1.07464c-0.28387,0.36497 -0.63532,0.68939 -1.05436,0.97326c-0.41904,0.28387 -0.91919,0.51366 -1.50044,0.68939c-0.58125,0.16221 -1.25036,0.24331 -2.00734,0.24331zM320.81913,265.53907c-1.23009,0 -2.25741,-0.2298 -3.08198,-0.68939c-0.82456,-0.47311 -1.45312,-1.12195 -1.88568,-1.94651c-0.43256,-0.83808 -0.67587,-1.79106 -0.72994,-2.85894c-0.01352,-0.27035 -0.02028,-0.6218 -0.02028,-1.05436c0,-0.43256 0.00676,-0.77726 0.02028,-1.03408c0.05407,-1.0814 0.29738,-2.03438 0.72994,-2.85894c0.44608,-0.82456 1.0814,-1.46664 1.90596,-1.92624c0.82456,-0.47311 1.84513,-0.70967 3.0617,-0.70967c1.20305,0 2.21686,0.23655 3.04142,0.70967c0.82456,0.45959 1.45988,1.10167 1.90596,1.92624c0.44608,0.82456 0.68939,1.77754 0.72994,2.85894c0.01352,0.25683 0.02028,0.60152 0.02028,1.03408c0,0.43256 -0.00676,0.78401 -0.02028,1.05436c-0.04055,1.06788 -0.28387,2.02086 -0.72994,2.85894c-0.43256,0.82456 -1.06112,1.4734 -1.88568,1.94651c-0.82456,0.45959 -1.84513,0.68939 -3.0617,0.68939zM320.81913,263.67367c1.00029,0 1.79782,-0.31766 2.39259,-0.95298c0.59477,-0.63532 0.91919,-1.56803 0.97326,-2.79811c0.01352,-0.24331 0.02028,-0.54746 0.02028,-0.91243c0,-0.37849 -0.00676,-0.68939 -0.02028,-0.9327c-0.05407,-1.23009 -0.37849,-2.16279 -0.97326,-2.79811c-0.59477,-0.63532 -1.39229,-0.95298 -2.39259,-0.95298c-1.00029,0 -1.80458,0.31766 -2.41286,0.95298c-0.60828,0.63532 -0.92594,1.56803 -0.95298,2.79811c-0.01352,0.24331 -0.02028,0.55422 -0.02028,0.9327c0,0.36497 0.00676,0.66911 0.02028,0.91243c0.02704,1.23009 0.34469,2.16279 0.95298,2.79811c0.60828,0.63532 1.41257,0.95298 2.41286,0.95298zM334.14777,265.53907c-0.87864,0 -1.64237,-0.15545 -2.29121,-0.46635c-0.64884,-0.32442 -1.18278,-0.75698 -1.60182,-1.29767c-0.40552,-0.5407 -0.70967,-1.15574 -0.91243,-1.84513c-0.20276,-0.68939 -0.31766,-1.42609 -0.34469,-2.2101c-0.01352,-0.25683 -0.02028,-0.49339 -0.02028,-0.70967c0,-0.2298 0.00676,-0.47311 0.02028,-0.72994c0.02704,-0.75698 0.14193,-1.48016 0.34469,-2.16955c0.20276,-0.7029 0.5069,-1.32471 0.91243,-1.86541c0.41904,-0.55422 0.95298,-0.98677 1.60182,-1.29767c0.64884,-0.32442 1.41257,-0.48663 2.29121,-0.48663c0.95974,0 1.75051,0.16897 2.37231,0.5069c0.63532,0.33793 1.15574,0.75698 1.56126,1.25712v-5.55567c0,-0.16221 0.04731,-0.29738 0.14193,-0.40552c0.10814,-0.10814 0.24331,-0.16221 0.40552,-0.16221h1.15574c0.16221,0 0.29738,0.05407 0.40552,0.16221c0.10814,0.10814 0.16221,0.24331 0.16221,0.40552v16.079c0,0.14869 -0.05407,0.27711 -0.16221,0.38525c-0.10814,0.10814 -0.24331,0.16221 -0.40552,0.16221h-1.07464c-0.17572,0 -0.31766,-0.05407 -0.4258,-0.16221c-0.09462,-0.10814 -0.14193,-0.23655 -0.14193,-0.38525v-1.03408c-0.40552,0.52718 -0.9327,0.96649 -1.58154,1.31795c-0.63532,0.33793 -1.43961,0.5069 -2.41286,0.5069zM334.65468,263.57228c0.81105,0 1.45988,-0.18249 1.94651,-0.54746c0.48663,-0.37849 0.84484,-0.8516 1.07464,-1.41933c0.24331,-0.56773 0.37849,-1.15574 0.40552,-1.76403c0.01352,-0.25683 0.02028,-0.56097 0.02028,-0.91243c0,-0.36497 -0.00676,-0.68263 -0.02028,-0.95298c-0.02704,-0.55422 -0.16897,-1.10843 -0.4258,-1.66265c-0.24331,-0.55422 -0.60828,-1.00705 -1.09491,-1.3585c-0.48663,-0.35146 -1.12195,-0.52718 -1.90596,-0.52718c-0.82456,0 -1.48016,0.18249 -1.96679,0.54746c-0.47311,0.36497 -0.81781,0.84484 -1.03408,1.43961c-0.20276,0.58125 -0.32442,1.20981 -0.36497,1.88568c-0.01352,0.47311 -0.01352,0.93946 0,1.39906c0.04055,0.67587 0.16221,1.31119 0.36497,1.90596c0.21628,0.58125 0.56097,1.05436 1.03408,1.41933c0.48663,0.36497 1.14223,0.54746 1.96679,0.54746zM348.99866,265.53907c-1.67616,0 -3.00763,-0.51366 -3.9944,-1.54099c-0.98677,-1.02732 -1.52747,-2.42638 -1.62209,-4.19717c-0.01352,-0.21628 -0.02028,-0.48663 -0.02028,-0.81105c0,-0.33793 0.00676,-0.60828 0.02028,-0.81105c0.05407,-1.14898 0.31766,-2.15603 0.79077,-3.02115c0.47311,-0.86511 1.11519,-1.52747 1.92624,-1.98706c0.81105,-0.47311 1.77079,-0.70967 2.87922,-0.70967c1.21657,0 2.23714,0.26359 3.0617,0.79077c0.83808,0.51366 1.4734,1.24361 1.90596,2.18983c0.44608,0.94622 0.66911,2.06141 0.66911,3.34557v0.40552c0,0.17572 -0.05407,0.31766 -0.16221,0.4258c-0.10814,0.09462 -0.24331,0.14193 -0.40552,0.14193h-8.37406c0,0.01352 0,0.04731 0,0.10138c0,0.04055 0,0.07434 0,0.10138c0.04055,0.66235 0.18925,1.28416 0.44608,1.86541c0.25683,0.56773 0.62856,1.03408 1.11519,1.39906c0.50014,0.35146 1.0814,0.52718 1.74375,0.52718c0.56773,0 1.0476,-0.08787 1.43961,-0.26359c0.39201,-0.18925 0.70967,-0.39201 0.95298,-0.60828c0.24331,-0.21628 0.40552,-0.38525 0.48663,-0.5069c0.13517,-0.20276 0.24331,-0.32442 0.32442,-0.36497c0.0811,-0.04055 0.20952,-0.06083 0.38525,-0.06083h1.19629c0.14869,0 0.27035,0.04731 0.36497,0.14193c0.10814,0.0811 0.15545,0.20276 0.14193,0.36497c-0.01352,0.24331 -0.14193,0.5407 -0.38525,0.89215c-0.24331,0.35146 -0.58801,0.69615 -1.03408,1.03408c-0.44608,0.33793 -0.99353,0.61505 -1.64237,0.83132c-0.64884,0.21628 -1.38554,0.32442 -2.2101,0.32442zM345.67338,258.07743h6.63031v-0.06083c0,-0.72994 -0.13517,-1.37878 -0.40552,-1.94651c-0.25683,-0.56773 -0.63532,-1.01381 -1.13547,-1.33823c-0.50014,-0.33793 -1.09491,-0.5069 -1.7843,-0.5069c-0.7029,0 -1.30444,0.16897 -1.80458,0.5069c-0.48663,0.32442 -0.85836,0.77049 -1.11519,1.33823c-0.25683,0.56773 -0.38525,1.21657 -0.38525,1.94651zM357.95345,256.82032c-0.16221,0 -0.29738,-0.04731 -0.40552,-0.14193c-0.10814,-0.10814 -0.16221,-0.24331 -0.16221,-0.40552v-1.7032c0,-0.16221 0.05407,-0.29063 0.16221,-0.38525c0.10814,-0.10814 0.24331,-0.16221 0.40552,-0.16221h1.74375c0.16221,0 0.29063,0.05407 0.38525,0.16221c0.10814,0.09462 0.16221,0.22304 0.16221,0.38525v1.7032c0,0.16221 -0.05407,0.29738 -0.16221,0.40552c-0.09462,0.09462 -0.22304,0.14193 -0.38525,0.14193zM357.95345,265.29576c-0.16221,0 -0.29738,-0.05407 -0.40552,-0.16221c-0.10814,-0.10814 -0.16221,-0.23655 -0.16221,-0.38525v-1.7032c0,-0.16221 0.05407,-0.29738 0.16221,-0.40552c0.10814,-0.10814 0.24331,-0.16221 0.40552,-0.16221h1.74375c0.16221,0 0.29063,0.05407 0.38525,0.16221c0.10814,0.10814 0.16221,0.24331 0.16221,0.40552v1.7032c0,0.14869 -0.05407,0.27711 -0.16221,0.38525c-0.09462,0.10814 -0.22304,0.16221 -0.38525,0.16221z" fill="#ffffff" stroke="#ffffff" stroke-width="0.5" stroke-linecap="square"/><g fill="#ffffff" stroke="none" stroke-width="1" stroke-linecap="square"><path d="M132.56133,165.53481c0.41877,1.0004 0.62817,1.72163 0.62817,2.16367c0,1.04693 -0.87244,1.93102 -2.61734,2.65224c-0.88408,0.39551 -1.59366,0.59326 -2.12877,0.59326c-0.5351,0 -0.97714,-0.12796 -1.32612,-0.38388c-0.34898,-0.27918 -0.6049,-0.54673 -0.76775,-0.80266c-0.27918,-0.5351 -1.36102,-3.05938 -3.24551,-7.57284l-1.29122,0.10469h-5.26958v4.71121c0,0.62817 -0.02327,1.10509 -0.0698,1.43081c-0.02327,0.32572 -0.15122,0.69795 -0.38388,1.11673c-0.39551,0.7445 -1.47734,1.11673 -3.24551,1.11673c-1.95428,0 -3.09427,-0.51183 -3.41999,-1.5355c-0.16285,-0.48857 -0.24429,-1.20979 -0.24429,-2.16367v-23.1373c0,-0.65142 0.01164,-1.12837 0.03489,-1.43081c0.04653,-0.32572 0.18613,-0.69795 0.41877,-1.11673c0.39551,-0.7445 1.47734,-1.11673 3.24551,-1.11673h9.00365c2.44285,0 4.8159,0.88408 7.11917,2.65224c1.11673,0.86082 2.03571,2.03571 2.75693,3.52469c0.72122,1.46572 1.08184,3.09427 1.08184,4.8857c0,3.1408 -1.04693,5.72325 -3.1408,7.74733c0.62817,1.48897 1.58205,3.67592 2.86163,6.5608zM116.54319,154.89097h5.33938c0.81428,0 1.61694,-0.30245 2.40796,-0.90735c0.81428,-0.6049 1.22143,-1.51225 1.22143,-2.72203c0,-1.23306 -0.40714,-2.16367 -1.22143,-2.79183c-0.79102,-0.62817 -1.61694,-0.94224 -2.47774,-0.94224h-5.26958zM155.78661,157.12443c0,1.69835 -0.43041,2.95469 -1.29122,3.76897c-0.83755,0.81428 -1.76815,1.22143 -2.79183,1.22143h-9.8761c0,0.76775 0.45367,1.41917 1.36102,1.95428c0.9306,0.5351 1.86123,0.80266 2.79183,0.80266c1.6053,0 2.86163,-0.16285 3.76897,-0.48857l0.45367,-0.17449c0.6747,-0.30245 1.23306,-0.45367 1.6751,-0.45367c0.88408,0 1.65183,0.61653 2.30326,1.84959c0.34898,0.76775 0.52347,1.40756 0.52347,1.91938c0,2.48938 -2.95469,3.73408 -8.86407,3.73408c-2.04734,0 -3.87366,-0.34898 -5.47896,-1.04693c-1.6053,-0.72122 -2.84999,-1.6751 -3.73408,-2.86163c-1.7449,-2.23347 -2.61734,-4.74612 -2.61734,-7.53794c0,-3.48979 1.12837,-6.28162 3.38509,-8.37549c2.25672,-2.09387 5.08346,-3.1408 8.48018,-3.1408c3.86203,0 6.70039,1.36102 8.51508,4.08306c0.9306,1.44245 1.39592,3.02448 1.39592,4.74612zM146.99235,158.31095c1.0702,0 1.6053,-0.44204 1.6053,-1.32612c0,-0.62817 -0.24429,-1.13999 -0.73286,-1.5355c-0.48857,-0.39551 -1.18653,-0.59326 -2.09387,-0.59326c-0.90735,0 -1.80306,0.37224 -2.68714,1.11673c-0.88408,0.7445 -1.32612,1.52388 -1.32612,2.33816zM165.38919,159.74176c0,1.16327 0.38388,2.07061 1.15163,2.72203c0.79102,0.65142 1.61694,0.97714 2.47774,0.97714c0.88408,0 1.70999,-0.25592 2.47774,-0.76775c0.76775,-0.51183 1.38428,-0.76775 1.84959,-0.76775c0.83755,0 1.84959,0.73286 3.03611,2.19856c0.62817,0.81428 0.94224,1.5355 0.94224,2.16367c0,1.0702 -0.75611,2.05898 -2.26836,2.96632c-1.58205,1.11673 -3.52469,1.6751 -5.82794,1.6751c-2.58245,0 -5.07183,-0.9306 -7.46815,-2.79183c-1.13999,-0.88408 -2.07061,-2.07061 -2.79183,-3.55958c-0.72122,-1.48897 -1.08184,-3.12918 -1.08184,-4.9206c0,-1.79143 0.36062,-3.40836 1.08184,-4.85081c0.72122,-1.46572 1.65183,-2.65224 2.79183,-3.55958c2.30326,-1.81469 4.75774,-2.72203 7.36346,-2.72203c1.0702,0 2.10551,0.15122 3.10591,0.45367c1.0004,0.27918 1.73326,0.55837 2.19856,0.83755l0.66306,0.41877c0.48857,0.32572 0.87244,0.58163 1.15163,0.76775c0.72122,0.55837 1.08184,1.19816 1.08184,1.91938c0,0.69795 -0.29082,1.48897 -0.87244,2.37305c-1.0004,1.5355 -1.95428,2.30326 -2.86163,2.30326c-0.5351,0 -1.27959,-0.30245 -2.23347,-0.90735c-0.51183,-0.48857 -1.23306,-0.73286 -2.16367,-0.73286c-0.9306,0 -1.80306,0.33734 -2.61734,1.01204c-0.79102,0.6747 -1.18653,1.6053 -1.18653,2.79183zM179.4285,159.74176c0,-3.32693 1.16327,-6.07223 3.48979,-8.2359c2.32652,-2.18693 4.99039,-3.2804 7.99161,-3.2804c3.00122,0 5.65345,1.08184 7.95672,3.24551c2.32652,2.16367 3.48979,4.90897 3.48979,8.2359c0,2.30326 -0.6049,4.3506 -1.81469,6.14202c-1.18653,1.79143 -2.6406,3.11755 -4.36224,3.97835c-1.69835,0.83755 -3.46653,1.25632 -5.30448,1.25632c-1.83795,0 -3.61774,-0.45367 -5.33938,-1.36102c-1.72163,-0.90735 -3.17571,-2.24511 -4.36224,-4.01326c-1.16327,-1.76815 -1.7449,-3.75733 -1.7449,-5.96754zM188.11807,162.74298c0.90735,0.6747 1.81469,1.01204 2.72203,1.01204c0.90735,0 1.81469,-0.34898 2.72203,-1.04693c0.9306,-0.69795 1.39592,-1.72163 1.39592,-3.07102c0,-1.37265 -0.43041,-2.38469 -1.29122,-3.03611c-0.86082,-0.6747 -1.79143,-1.01204 -2.79183,-1.01204c-1.0004,0 -1.93102,0.34898 -2.79183,1.04693c-0.86082,0.6747 -1.29122,1.68674 -1.29122,3.03611c0,1.34938 0.44204,2.37305 1.32612,3.07102zM217.27176,148.74893c2.76857,0 5.07183,1.05857 6.90978,3.17571c1.86123,2.11714 2.79183,4.71121 2.79183,7.78223v7.32855c0,0.62817 -0.02327,1.10509 -0.0698,1.43081c-0.04653,0.32572 -0.16285,0.68633 -0.34898,1.08184c-0.39551,0.7445 -1.47734,1.11673 -3.24551,1.11673c-1.97754,0 -3.11755,-0.51183 -3.41999,-1.5355c-0.16285,-0.48857 -0.24429,-1.19816 -0.24429,-2.12877v-7.32855c0,-1.13999 -0.32572,-2.02408 -0.97714,-2.65224c-0.65142,-0.65142 -1.5355,-0.97714 -2.65224,-0.97714c-1.09347,0 -1.97754,0.33734 -2.65224,1.01204c-0.6747,0.65142 -1.01204,1.52388 -1.01204,2.61734v7.36346c0,0.62817 -0.02327,1.10509 -0.0698,1.43081c-0.04653,0.32572 -0.17449,0.68633 -0.38388,1.08184c-0.37224,0.7445 -1.44245,1.11673 -3.2106,1.11673c-1.76815,0 -2.83837,-0.37224 -3.2106,-1.11673c-0.20938,-0.41877 -0.33734,-0.79102 -0.38388,-1.11673c-0.02327,-0.32572 -0.03489,-0.80266 -0.03489,-1.43081v-14.7618c0,-0.6049 0.01164,-1.0702 0.03489,-1.39592c0.04653,-0.32572 0.18613,-0.6747 0.41877,-1.04693c0.39551,-0.69795 1.46572,-1.04693 3.2106,-1.04693c1.69835,0 2.73367,0.31408 3.10591,0.94224c0.27918,0.48857 0.41877,1.05857 0.41877,1.70999c0.11633,-0.18613 0.37224,-0.45367 0.76775,-0.80266c0.39551,-0.37224 0.76775,-0.6747 1.11673,-0.90735c0.95388,-0.62817 2.00082,-0.94224 3.1408,-0.94224zM242.52257,148.74893c2.76857,0 5.07183,1.05857 6.90978,3.17571c1.86123,2.11714 2.79183,4.71121 2.79183,7.78223v7.32855c0,0.62817 -0.02327,1.10509 -0.0698,1.43081c-0.04653,0.32572 -0.16285,0.68633 -0.34898,1.08184c-0.39551,0.7445 -1.47734,1.11673 -3.24551,1.11673c-1.97754,0 -3.11755,-0.51183 -3.41999,-1.5355c-0.16285,-0.48857 -0.24429,-1.19816 -0.24429,-2.12877v-7.32855c0,-1.13999 -0.32572,-2.02408 -0.97714,-2.65224c-0.65142,-0.65142 -1.53546,-0.97714 -2.6521,-0.97714c-1.09347,0 -1.97754,0.33734 -2.65224,1.01204c-0.6747,0.65142 -1.01204,1.52388 -1.01204,2.61734v7.36346c0,0.62817 -0.02327,1.10509 -0.0698,1.43081c-0.04653,0.32572 -0.17449,0.68633 -0.38388,1.08184c-0.37224,0.7445 -1.44245,1.11673 -3.2106,1.11673c-1.76815,0 -2.83837,-0.37224 -3.2106,-1.11673c-0.20938,-0.41877 -0.33734,-0.79102 -0.38388,-1.11673c-0.02327,-0.32572 -0.03489,-0.80266 -0.03489,-1.43081v-14.7618c0,-0.6049 0.01164,-1.0702 0.03489,-1.39592c0.04653,-0.32572 0.18613,-0.6747 0.41877,-1.04693c0.39551,-0.69795 1.46572,-1.04693 3.2106,-1.04693c1.69835,0 2.73367,0.31408 3.10591,0.94224c0.27918,0.48857 0.41877,1.05857 0.41877,1.70999c0.11633,-0.18613 0.37224,-0.45367 0.76775,-0.80266c0.39551,-0.37224 0.76775,-0.6747 1.11673,-0.90735c0.95388,-0.62817 2.00077,-0.94224 3.14067,-0.94224zM276.70736,157.12443c0,1.69835 -0.43041,2.95469 -1.29122,3.76897c-0.83755,0.81428 -1.76815,1.22143 -2.79183,1.22143h-9.8761c0,0.76775 0.45367,1.41917 1.36102,1.95428c0.9306,0.5351 1.86123,0.80266 2.79183,0.80266c1.6053,0 2.86163,-0.16285 3.76897,-0.48857l0.45367,-0.17449c0.6747,-0.30245 1.23306,-0.45367 1.6751,-0.45367c0.88408,0 1.65183,0.61653 2.30326,1.84959c0.34898,0.76775 0.52347,1.40756 0.52347,1.91938c0,2.48938 -2.95469,3.73408 -8.86407,3.73408c-2.04734,0 -3.87366,-0.34898 -5.47896,-1.04693c-1.6053,-0.72122 -2.84999,-1.6751 -3.73408,-2.86163c-1.7449,-2.23347 -2.61734,-4.74612 -2.61734,-7.53794c0,-3.48979 1.12837,-6.28162 3.38509,-8.37549c2.25672,-2.09387 5.08346,-3.1408 8.48018,-3.1408c3.86203,0 6.70039,1.36102 8.51508,4.08306c0.9306,1.44245 1.39592,3.02448 1.39592,4.74612zM267.9131,158.31095c1.0702,0 1.6053,-0.44204 1.6053,-1.32612c0,-0.62817 -0.24429,-1.13999 -0.73286,-1.5355c-0.48857,-0.39551 -1.18653,-0.59326 -2.09387,-0.59326c-0.90735,0 -1.80306,0.37224 -2.68714,1.11673c-0.88408,0.7445 -1.32612,1.52388 -1.32612,2.33816zM286.30986,159.74176c0,1.16327 0.38388,2.07061 1.15163,2.72203c0.79102,0.65142 1.61694,0.97714 2.47774,0.97714c0.88408,0 1.70999,-0.25592 2.47774,-0.76775c0.76775,-0.51183 1.38428,-0.76775 1.84959,-0.76775c0.83755,0 1.84959,0.73286 3.03611,2.19856c0.62817,0.81428 0.94224,1.5355 0.94224,2.16367c0,1.0702 -0.75611,2.05898 -2.26836,2.96632c-1.58205,1.11673 -3.52469,1.6751 -5.82794,1.6751c-2.58245,0 -5.07183,-0.9306 -7.46815,-2.79183c-1.13999,-0.88408 -2.07061,-2.07061 -2.79183,-3.55958c-0.72122,-1.48897 -1.08184,-3.12918 -1.08184,-4.9206c0,-1.79143 0.36062,-3.40836 1.08184,-4.85081c0.72122,-1.46572 1.65183,-2.65224 2.79183,-3.55958c2.30326,-1.81469 4.75774,-2.72203 7.36346,-2.72203c1.0702,0 2.10551,0.15122 3.10591,0.45367c1.0004,0.27918 1.73326,0.55837 2.19856,0.83755l0.66306,0.41877c0.48857,0.32572 0.87244,0.58163 1.15163,0.76775c0.72122,0.55837 1.08184,1.19816 1.08184,1.91938c0,0.69795 -0.29082,1.48897 -0.87244,2.37305c-1.0004,1.5355 -1.95428,2.30326 -2.86163,2.30326c-0.5351,0 -1.27959,-0.30245 -2.23347,-0.90735c-0.51183,-0.48857 -1.23306,-0.73286 -2.16367,-0.73286c-0.9306,0 -1.80306,0.33734 -2.61734,1.01204c-0.79102,0.6747 -1.18653,1.6053 -1.18653,2.79183zM313.2982,156.11239l-2.68714,-0.17449v5.75815c0,0.7445 0.11633,1.29122 0.34898,1.64019c0.23265,0.32572 0.6747,0.48857 1.32612,0.48857c0.65142,0 1.15163,0.02327 1.50061,0.0698c0.34898,0.04653 0.70959,0.17449 1.08184,0.38388c0.65142,0.37224 0.97714,1.30286 0.97714,2.79183c0,1.7449 -0.38388,2.81509 -1.15163,3.2106c-0.41877,0.18613 -0.79102,0.30245 -1.11673,0.34898c-0.32572,0.04653 -0.79102,0.0698 -1.39592,0.0698c-2.88489,0 -5.08346,-0.65142 -6.5957,-1.95428c-1.48897,-1.30286 -2.23347,-3.51305 -2.23347,-6.6306v-6.17693c-0.5351,0.09305 -1.10509,0.13959 -1.70999,0.13959c-0.6049,0 -1.11673,-0.23265 -1.5355,-0.69795c-0.39551,-0.48857 -0.59326,-1.30286 -0.59326,-2.44285c0,-1.13999 0.0698,-1.96592 0.20938,-2.47774c0.13959,-0.51183 0.33734,-0.87244 0.59326,-1.08184c0.44204,-0.37224 0.98877,-0.55837 1.64019,-0.55837l1.39592,0.17449v-4.29244c0,-0.65142 0.01164,-1.12837 0.03489,-1.43081c0.04653,-0.30245 0.18613,-0.62817 0.41877,-0.97714c0.34898,-0.69795 1.41917,-1.04693 3.2106,-1.04693c1.88448,0 3.01286,0.51183 3.38509,1.5355c0.13959,0.44204 0.20938,1.15163 0.20938,2.12877v4.08306c1.20979,-0.11633 2.12877,-0.17449 2.75693,-0.17449c0.62817,0 1.09347,0.02327 1.39592,0.0698c0.32572,0.04653 0.69795,0.17449 1.11673,0.38388c0.72122,0.37224 1.08184,1.44245 1.08184,3.2106c0,1.7449 -0.37224,2.81509 -1.11673,3.2106c-0.41877,0.20938 -0.79102,0.33734 -1.11673,0.38388c-0.30245,0.02327 -0.77939,0.03489 -1.43081,0.03489zM342.54929,156.11239l-2.68714,-0.17449v5.75815c0,0.7445 0.11633,1.29122 0.34898,1.64019c0.23265,0.32572 0.6747,0.48857 1.32612,0.48857c0.65142,0 1.15163,0.02327 1.50061,0.0698c0.34898,0.04653 0.70959,0.17449 1.08184,0.38388c0.65142,0.37224 0.97714,1.30286 0.97714,2.79183c0,1.7449 -0.38388,2.81509 -1.15163,3.2106c-0.41877,0.18613 -0.79102,0.30245 -1.11673,0.34898c-0.32572,0.04653 -0.79102,0.0698 -1.39592,0.0698c-2.88489,0 -5.08346,-0.65142 -6.5957,-1.95428c-1.48897,-1.30286 -2.23347,-3.51305 -2.23347,-6.6306v-6.17693c-0.5351,0.09305 -1.10509,0.13959 -1.70999,0.13959c-0.6049,0 -1.11673,-0.23265 -1.5355,-0.69795c-0.39551,-0.48857 -0.59326,-1.30286 -0.59326,-2.44285c0,-1.13999 0.0698,-1.96592 0.20938,-2.47774c0.13959,-0.51183 0.33734,-0.87244 0.59326,-1.08184c0.44204,-0.37224 0.98877,-0.55837 1.64019,-0.55837l1.39592,0.17449v-4.29244c0,-0.65142 0.01164,-1.12837 0.03489,-1.43081c0.04653,-0.30245 0.18613,-0.62817 0.41877,-0.97714c0.34898,-0.69795 1.41917,-1.04693 3.2106,-1.04693c1.88448,0 3.01286,0.51183 3.38509,1.5355c0.13959,0.44204 0.20938,1.15163 0.20938,2.12877v4.08306c1.20979,-0.11633 2.12877,-0.17449 2.75693,-0.17449c0.62817,0 1.09347,0.02327 1.39592,0.0698c0.32572,0.04653 0.69795,0.17449 1.11673,0.38388c0.72122,0.37224 1.08184,1.44245 1.08184,3.2106c0,1.7449 -0.37224,2.81509 -1.11673,3.2106c-0.41877,0.20938 -0.79102,0.33734 -1.11673,0.38388c-0.30245,0.02327 -0.77939,0.03489 -1.43081,0.03489zM347.89236,159.74176c0,-3.32693 1.16327,-6.07223 3.48979,-8.2359c2.32652,-2.18693 4.99039,-3.2804 7.99161,-3.2804c3.00122,0 5.65345,1.08184 7.95672,3.24551c2.32652,2.16367 3.48979,4.90897 3.48979,8.2359c0,2.30326 -0.6049,4.3506 -1.81469,6.14202c-1.18653,1.79143 -2.6406,3.11755 -4.36224,3.97835c-1.69835,0.83755 -3.46653,1.25632 -5.30448,1.25632c-1.83795,0 -3.61774,-0.45367 -5.33938,-1.36102c-1.72163,-0.90735 -3.17571,-2.24511 -4.36224,-4.01326c-1.16327,-1.76815 -1.7449,-3.75733 -1.7449,-5.96754zM356.58192,162.74298c0.90735,0.6747 1.81469,1.01204 2.72203,1.01204c0.90735,0 1.81469,-0.34898 2.72203,-1.04693c0.9306,-0.69795 1.39592,-1.72163 1.39592,-3.07102c0,-1.37265 -0.43041,-2.38469 -1.29122,-3.03611c-0.86082,-0.6747 -1.79143,-1.01204 -2.79183,-1.01204c-1.0004,0 -1.93102,0.34898 -2.79183,1.04693c-0.86082,0.6747 -1.29122,1.68674 -1.29122,3.03611c0,1.34938 0.44204,2.37305 1.32612,3.07102z"/><path d="M234.22108,189.47479c1.86123,0.65142 2.79183,1.5355 2.79183,2.65224c0,0.37224 -0.16285,1.04693 -0.48857,2.02408l-8.02652,23.1373c-0.04653,0.20938 -0.13959,0.45367 -0.27918,0.73286c-0.13959,0.25592 -0.51183,0.61653 -1.11673,1.08184c-0.58163,0.46531 -1.29122,0.69795 -2.12877,0.69795c-0.81428,0 -1.52388,-0.23265 -2.12877,-0.69795c-0.58163,-0.46531 -0.96551,-0.91898 -1.15163,-1.36102l-4.8857,-14.37792c-3.09427,9.11998 -4.67632,13.7614 -4.74612,13.92425c-0.04653,0.16285 -0.16285,0.40714 -0.34898,0.73286c-0.18613,0.30245 -0.40714,0.57001 -0.66306,0.80266c-0.62817,0.65142 -1.39592,0.97714 -2.30326,0.97714c-0.88408,0 -1.61694,-0.20938 -2.19856,-0.62817c-0.55837,-0.41877 -0.9306,-0.83755 -1.11673,-1.25632l-0.31408,-0.62817l-8.02652,-23.1373c-0.30245,-0.90735 -0.45367,-1.58205 -0.45367,-2.02408c0,-1.11673 0.9306,-1.98918 2.79183,-2.61734c0.81428,-0.27918 1.54714,-0.41877 2.19856,-0.41877c0.65142,0 1.15163,0.22102 1.50061,0.66306c0.34898,0.44204 0.65142,1.11673 0.90735,2.02408l4.60652,13.92425l4.53672,-13.71486c0.39551,-1.16327 1.10509,-1.96592 2.12877,-2.40796c0.44204,-0.18613 1.01204,-0.27918 1.70999,-0.27918c0.72122,0 1.38428,0.23265 1.98918,0.69795c0.6049,0.44204 1.0004,0.88408 1.18653,1.32612l4.78101,14.48262l4.57163,-14.02895c0.23265,-0.62817 0.41877,-1.09347 0.55837,-1.39592c0.13959,-0.30245 0.39551,-0.59326 0.76775,-0.87244c0.37224,-0.30245 0.83755,-0.45367 1.39592,-0.45367c0.55837,0 1.20979,0.13959 1.95428,0.41877zM238.05862,201.54945c0,-0.65142 0.01164,-1.12837 0.03489,-1.43081c0.04653,-0.32572 0.17449,-0.69795 0.38388,-1.11673c0.37224,-0.72122 1.45408,-1.08184 3.24551,-1.08184c1.32612,0 2.26836,0.23265 2.82673,0.69795c0.46531,0.39551 0.72122,1.0004 0.76775,1.81469c0.02327,0.27918 0.03489,0.6747 0.03489,1.18653v14.58732c0,0.65142 -0.02327,1.13999 -0.0698,1.46572c-0.04653,0.30245 -0.17449,0.66306 -0.38388,1.08184c-0.37224,0.72122 -1.44245,1.08184 -3.2106,1.08184c-1.76815,0 -2.83837,-0.37224 -3.2106,-1.11673c-0.20938,-0.41877 -0.33734,-0.77939 -0.38388,-1.08184c-0.02327,-0.30245 -0.03489,-0.79102 -0.03489,-1.46572zM244.89861,193.83702c-0.20938,0.39551 -0.58163,0.6747 -1.11673,0.83755c-0.51183,0.16285 -1.20979,0.24429 -2.09387,0.24429c-0.86082,0 -1.55877,-0.08144 -2.09387,-0.24429c-0.5351,-0.16285 -0.90735,-0.45367 -1.11673,-0.87244c-0.20938,-0.41877 -0.33734,-0.79102 -0.38388,-1.11673c-0.02327,-0.32572 -0.03489,-0.80266 -0.03489,-1.43081c0,-0.65142 0.01164,-1.12837 0.03489,-1.43081c0.04653,-0.32572 0.17449,-0.68633 0.38388,-1.08184c0.37224,-0.7445 1.45408,-1.11673 3.24551,-1.11673c1.7449,0 2.80347,0.37224 3.17571,1.11673c0.20938,0.41877 0.33734,0.79102 0.38388,1.11673c0.04653,0.32572 0.0698,0.81428 0.0698,1.46572c0,0.62817 -0.02327,1.10509 -0.0698,1.43081c-0.04653,0.30245 -0.17449,0.66306 -0.38388,1.08184zM268.88996,189.3003c0.62817,0 1.10509,0.02327 1.43081,0.0698c0.32572,0.02327 0.68633,0.15122 1.08184,0.38388c0.39551,0.20938 0.6747,0.58163 0.83755,1.11673c0.18613,0.5351 0.27918,1.24469 0.27918,2.12877c0,0.88408 -0.09305,1.59366 -0.27918,2.12877c-0.16285,0.5351 -0.45367,0.90735 -0.87244,1.11673c-0.39551,0.20938 -0.75611,0.33734 -1.08184,0.38388c-0.32572,0.02327 -0.82591,0.03489 -1.50061,0.03489h-12.73773v4.22264h8.201c0.6747,0 1.16327,0.02327 1.46572,0.0698c0.32572,0.02327 0.69795,0.15122 1.11673,0.38388c0.72122,0.41877 1.08184,1.51225 1.08184,3.2804c0,1.95428 -0.52347,3.10591 -1.57041,3.45489c-0.44204,0.13959 -1.15163,0.20938 -2.12877,0.20938h-8.1661v7.88692c0,0.6747 -0.02327,1.16327 -0.0698,1.46572c-0.02327,0.30245 -0.15122,0.66306 -0.38388,1.08184c-0.39551,0.7445 -1.47734,1.11673 -3.24551,1.11673c-1.95428,0 -3.09427,-0.52347 -3.41999,-1.57041c-0.16285,-0.44204 -0.24429,-1.15163 -0.24429,-2.12877v-23.17219c0,-1.41917 0.25592,-2.38469 0.76775,-2.89653c0.5351,-0.51183 1.5355,-0.76775 3.00122,-0.76775zM274.39276,201.54945c0,-0.65142 0.01164,-1.12837 0.03489,-1.43081c0.04653,-0.32572 0.17449,-0.69795 0.38388,-1.11673c0.37224,-0.72122 1.45408,-1.08184 3.24551,-1.08184c1.32612,0 2.26836,0.23265 2.82673,0.69795c0.46531,0.39551 0.72122,1.0004 0.76775,1.81469c0.02327,0.27918 0.03489,0.6747 0.03489,1.18653v14.58732c0,0.65142 -0.02327,1.13999 -0.0698,1.46572c-0.04653,0.30245 -0.17449,0.66306 -0.38388,1.08184c-0.37224,0.72122 -1.44245,1.08184 -3.2106,1.08184c-1.76815,0 -2.83837,-0.37224 -3.2106,-1.11673c-0.20938,-0.41877 -0.33734,-0.77939 -0.38388,-1.08184c-0.02327,-0.30245 -0.03489,-0.79102 -0.03489,-1.46572zM281.23275,193.83702c-0.20938,0.39551 -0.58163,0.6747 -1.11673,0.83755c-0.51183,0.16285 -1.20979,0.24429 -2.09387,0.24429c-0.86082,0 -1.55877,-0.08144 -2.09387,-0.24429c-0.5351,-0.16285 -0.90735,-0.45367 -1.11673,-0.87244c-0.20938,-0.41877 -0.33734,-0.79102 -0.38388,-1.11673c-0.02327,-0.32572 -0.03489,-0.80266 -0.03489,-1.43081c0,-0.65142 0.01164,-1.12837 0.03489,-1.43081c0.04653,-0.32572 0.17449,-0.68633 0.38388,-1.08184c0.37224,-0.7445 1.45408,-1.11673 3.24551,-1.11673c1.7449,0 2.80347,0.37224 3.17571,1.11673c0.20938,0.41877 0.33734,0.79102 0.38388,1.11673c0.04653,0.32572 0.0698,0.81428 0.0698,1.46572c0,0.62817 -0.02327,1.10509 -0.0698,1.43081c-0.04653,0.30245 -0.17449,0.66306 -0.38388,1.08184z"/></g></g></g></svg>