<svg version="1.1" xmlns="http://www.w3.org/2000/svg" xmlns:xlink="http://www.w3.org/1999/xlink" width="53.33735" height="100.64184" viewBox="0,0,53.33735,100.64184"><g transform="translate(-213.33133,-129.67908)"><g data-paper-data="{&quot;isPaintingLayer&quot;:true}" fill="#ffffff" fill-rule="nonzero" stroke-linecap="square" stroke-linejoin="miter" stroke-miterlimit="10" stroke-dasharray="" stroke-dashoffset="0" style="mix-blend-mode: normal"><path d="M241.75585,135.89734c2.47884,-2.47884 5.19869,-3.71826 8.15951,-3.71826c2.96083,0 5.26753,0.24101 6.92009,0.72299c1.72141,0.48199 3.09856,1.1017 4.1314,1.85913c1.03284,0.75744 1.85913,2.03126 2.47884,3.82155c0.48199,1.58372 0.72299,3.99367 0.72299,7.22994v68.68448c0,1.99686 -0.06885,3.58054 -0.20657,4.75111c-0.13772,1.1017 -0.61971,2.41 -1.44599,3.92482c-1.65256,3.09855 -5.57739,4.64782 -11.77448,4.64782c-6.05937,0 -9.94979,-1.48042 -11.6712,-4.44125c-0.82628,-1.58372 -1.30827,-2.96083 -1.44599,-4.1314c-0.13772,-1.23942 -0.20657,-2.89198 -0.20657,-4.95768l1.44599,-41.8304l0.92957,1.23943c-3.85599,2.89198 -7.2988,4.33797 -10.3285,4.33797c-3.0297,0 -6.05938,-1.687 -9.08908,-5.06097c-3.0297,-3.44284 -4.54453,-6.61023 -4.54453,-9.50221c0,-2.89198 1.75585,-5.88725 5.26753,-8.98578l20.34713,-18.38472z" stroke="#28a5da" stroke-width="5"/><path d="M241.75585,135.89734c2.47884,-2.47884 5.19869,-3.71826 8.15951,-3.71826c2.96083,0 5.26753,0.24101 6.92009,0.72299c1.72141,0.48199 3.09856,1.1017 4.1314,1.85913c1.03284,0.75744 1.85913,2.03126 2.47884,3.82155c0.48199,1.58372 0.72299,3.99367 0.72299,7.22994v68.68448c0,1.99686 -0.06885,3.58054 -0.20657,4.75111c-0.13772,1.1017 -0.61971,2.41 -1.44599,3.92482c-1.65256,3.09855 -5.57739,4.64782 -11.77448,4.64782c-6.05937,0 -9.94979,-1.48042 -11.6712,-4.44125c-0.82628,-1.58372 -1.30827,-2.96083 -1.44599,-4.1314c-0.13772,-1.23942 -0.20657,-2.89198 -0.20657,-4.95768l1.44599,-41.8304l0.92957,1.23943c-3.85599,2.89198 -7.2988,4.33797 -10.3285,4.33797c-3.0297,0 -6.05938,-1.687 -9.08908,-5.06097c-3.0297,-3.44284 -4.54453,-6.61023 -4.54453,-9.50221c0,-2.89198 1.75585,-5.88725 5.26753,-8.98578l20.34713,-18.38472z" stroke="none" stroke-width="1"/></g></g></svg>