<svg version="1.1" xmlns="http://www.w3.org/2000/svg" xmlns:xlink="http://www.w3.org/1999/xlink" width="389.97725" height="389.97725" viewBox="0,0,389.97725,389.97725"><g transform="translate(-45.01138,14.98861)"><g data-paper-data="{&quot;isPaintingLayer&quot;:true}" fill-rule="nonzero" stroke="none" stroke-width="0" stroke-linecap="butt" stroke-linejoin="miter" stroke-miterlimit="10" stroke-dasharray="" stroke-dashoffset="0" style="mix-blend-mode: normal"><path d="M45.01138,374.98865v-389.97725h389.97725v389.97725z" fill="none"/><path d="M185.45006,171.20588c0,12.29335 -5.06441,22.25818 -11.31161,22.25818c-6.24719,0 -11.31161,-9.96558 -11.31161,-22.25818c0,-12.29335 5.06441,-22.25818 11.31161,-22.25818c6.24719,0 11.31161,9.96558 11.31161,22.25818z" fill="#693a00"/><path d="M314.61945,171.20588c0,12.2926 -5.06441,22.25818 -11.31161,22.25818c-6.24719,0 -11.31085,-9.96558 -11.31085,-22.25818c0,-12.2926 5.06366,-22.25818 11.31085,-22.25818c6.24719,0 11.31161,9.96558 11.31161,22.25818z" fill="#693a00"/></g></g></svg>