<svg version="1.1" xmlns="http://www.w3.org/2000/svg" xmlns:xlink="http://www.w3.org/1999/xlink" width="215" height="215" viewBox="0,0,215,215"><g transform="translate(-132.5,-72.5)"><g data-paper-data="{&quot;isPaintingLayer&quot;:true}" fill-rule="nonzero" stroke="none" stroke-linejoin="miter" stroke-miterlimit="10" stroke-dasharray="" stroke-dashoffset="0" style="mix-blend-mode: normal"><path d="M240.75753,170.34102c0.48926,-0.48926 1.01798,-0.73388 1.58615,-0.73388c0.58397,0 1.03376,0.04735 1.34942,0.14205c0.33143,0.0947 0.57606,0.20518 0.7339,0.33143c0.17361,0.11048 0.30777,0.30777 0.40246,0.59186c0.0947,0.31565 0.14205,0.8128 0.14205,1.49146v15.74314c0,0.44192 -0.01579,0.77335 -0.04735,0.99431c-0.01579,0.20518 -0.10259,0.44981 -0.26041,0.7339c-0.2683,0.50504 -1.0022,0.75757 -2.20166,0.75757c-1.16791,0 -1.89391,-0.24463 -2.178,-0.73388c-0.15783,-0.28409 -0.25252,-0.53661 -0.28409,-0.75757c-0.01579,-0.23674 -0.02366,-0.58397 -0.02366,-1.04165v-10.08508l-0.37879,0.33143c-0.77335,0.58397 -1.43622,0.87594 -1.98861,0.87594c-0.53661,0 -1.10478,-0.33143 -1.70452,-0.99431c-0.58397,-0.66287 -0.87593,-1.24683 -0.87593,-1.75186c0,-0.50504 0.33933,-1.05744 1.01798,-1.65718l4.64009,-4.19028z" fill="#ffffff" stroke-width="1" stroke-linecap="square"/><path d="M132.5,287.5v-215h215v215z" fill="none" stroke-width="0" stroke-linecap="butt"/></g></g></svg>