<svg version="1.1" xmlns="http://www.w3.org/2000/svg" xmlns:xlink="http://www.w3.org/1999/xlink" width="113.13184" height="113.13184" viewBox="0,0,113.13184,113.13184"><g transform="translate(-183.43408,-123.43408)"><g data-paper-data="{&quot;isPaintingLayer&quot;:true}" stroke-linejoin="miter" stroke-miterlimit="10" stroke-dasharray="" stroke-dashoffset="0" style="mix-blend-mode: normal"><path d="M183.43408,236.56592v-113.13184h113.13184v113.13184z" fill="none" fill-rule="nonzero" stroke="none" stroke-width="0" stroke-linecap="butt"/><path d="" fill="#ffffff" fill-rule="evenodd" stroke="#ffffff" stroke-width="5" stroke-linecap="square"/><path d="M254.22797,227.97415c-0.8751,0 -1.60435,-0.29171 -2.18776,-0.8751c-0.58341,-0.58341 -0.8751,-1.27619 -0.8751,-2.07837v-18.81472h-42.33311c-0.80218,0 -1.49496,-0.29171 -2.07837,-0.8751c-0.58341,-0.58341 -0.8751,-1.31266 -0.8751,-2.18776v-5.25062c0,-0.29171 0.10939,-0.80218 0.32816,-1.53144c0.21877,-0.80218 0.58341,-1.56789 1.09388,-2.29716l39.16086,-55.35027c1.09388,-1.45851 2.7347,-2.18776 4.92245,-2.18776h9.29797c0.8751,0 1.60435,0.29171 2.18776,0.8751c0.58341,0.58341 0.8751,1.31266 0.8751,2.18776v55.24088h11.7045c1.02096,0 1.78667,0.29171 2.29716,0.8751c0.58341,0.51048 0.8751,1.20327 0.8751,2.07837v5.36001c0,0.8751 -0.29171,1.60435 -0.8751,2.18776c-0.51048,0.58341 -1.20327,0.8751 -2.07837,0.8751h-11.92329v18.81472c0,0.80218 -0.29171,1.49496 -0.8751,2.07837c-0.58341,0.58341 -1.31266,0.8751 -2.18776,0.8751zM219.88017,195.04839h31.5037v-44.73964z" fill="#ffffff" fill-rule="nonzero" stroke="#ffffff" stroke-width="5" stroke-linecap="square"/></g></g></svg>