<svg version="1.1" xmlns="http://www.w3.org/2000/svg" xmlns:xlink="http://www.w3.org/1999/xlink" width="76.16334" height="108.54012" viewBox="0,0,76.16334,108.54012"><g transform="translate(-201.91833,-121.63236)"><g data-paper-data="{&quot;isPaintingLayer&quot;:true}" fill="#ffffff" fill-rule="nonzero" stroke-linecap="square" stroke-linejoin="miter" stroke-miterlimit="10" stroke-dasharray="" stroke-dashoffset="0" style="mix-blend-mode: normal"><path d="M250.48342,136.36878c0.89512,-1.58372 2.37556,-2.65097 4.44125,-3.20183c2.0657,-0.55086 4.5101,-0.82628 7.33323,-0.82628c2.82313,0 5.19869,0.3443 7.12667,1.03285c1.99686,0.61971 3.44284,1.75585 4.33797,3.40841c0.96401,1.58372 1.51483,2.99526 1.65256,4.23468c0.13772,1.17057 0.20657,2.75425 0.20657,4.75111v68.581c0,3.58054 -0.51643,6.36923 -1.54928,8.36607c-1.03285,1.99686 -2.58212,3.33956 -4.64783,4.02812c-1.99686,0.61971 -4.30353,0.92957 -6.92009,0.92957c-2.61657,0 -4.78555,-0.24101 -6.50696,-0.72299c-1.65256,-0.48199 -3.0297,-1.13614 -4.1314,-1.96241c-1.1017,-0.89512 -1.85913,-2.10014 -2.27227,-3.61497c-0.55086,-1.65256 -0.82628,-4.02812 -0.82628,-7.12667v-12.60056h-30.98548c-6.95454,0 -11.15477,-2.16899 -12.60076,-6.50696c-0.48199,-1.51483 -0.72299,-3.47724 -0.72299,-5.88725c0,-2.40999 0.13772,-4.26912 0.41314,-5.57739l10.3285,-41.41726c0.48199,-1.92798 0.96401,-3.51169 1.44599,-4.75111c0.48199,-1.30827 1.44599,-2.54769 2.89198,-3.71826c1.51483,-1.23942 3.33956,-1.85913 5.4741,-1.85913c2.13454,0 4.33797,0.30986 6.61024,0.92957c6.95454,1.92798 10.43178,5.37082 10.43178,10.3285c0,1.51483 -0.30986,3.51169 -0.92957,5.99053c-1.1017,-0.27541 -1.1017,-0.30986 0,-0.10328l-6.81681,27.26722h14.4599v-31.19206c0,-1.99686 0.06885,-3.54613 0.20657,-4.64783c0.13772,-1.17057 0.65415,-2.54769 1.54928,-4.1314z" stroke="#28a5da" stroke-width="5"/><path d="M250.48342,136.36878c0.89512,-1.58372 2.37556,-2.65097 4.44125,-3.20183c2.0657,-0.55086 4.5101,-0.82628 7.33323,-0.82628c2.82313,0 5.19869,0.3443 7.12667,1.03285c1.99686,0.61971 3.44284,1.75585 4.33797,3.40841c0.96401,1.58372 1.51483,2.99526 1.65256,4.23468c0.13772,1.17057 0.20657,2.75425 0.20657,4.75111v68.581c0,3.58054 -0.51643,6.36923 -1.54928,8.36607c-1.03285,1.99686 -2.58212,3.33956 -4.64783,4.02812c-1.99686,0.61971 -4.30353,0.92957 -6.92009,0.92957c-2.61657,0 -4.78555,-0.24101 -6.50696,-0.72299c-1.65256,-0.48199 -3.0297,-1.13614 -4.1314,-1.96241c-1.1017,-0.89512 -1.85913,-2.10014 -2.27227,-3.61497c-0.55086,-1.65256 -0.82628,-4.02812 -0.82628,-7.12667v-12.60056h-30.98548c-6.95454,0 -11.15477,-2.16899 -12.60076,-6.50696c-0.48199,-1.51483 -0.72299,-3.47724 -0.72299,-5.88725c0,-2.40999 0.13772,-4.26912 0.41314,-5.57739l10.3285,-41.41726c0.48199,-1.92798 0.96401,-3.51169 1.44599,-4.75111c0.48199,-1.30827 1.44599,-2.54769 2.89198,-3.71826c1.51483,-1.23942 3.33956,-1.85913 5.4741,-1.85913c2.13454,0 4.33797,0.30986 6.61024,0.92957c6.95454,1.92798 10.43178,5.37082 10.43178,10.3285c0,1.51483 -0.30986,3.51169 -0.92957,5.99053c-1.1017,-0.27541 -1.1017,-0.30986 0,-0.10328l-6.81681,27.26722h14.4599v-31.19206c0,-1.99686 0.06885,-3.54613 0.20657,-4.64783c0.13772,-1.17057 0.65415,-2.54769 1.54928,-4.1314z" stroke="none" stroke-width="1"/></g></g></svg>