<svg version="1.1" xmlns="http://www.w3.org/2000/svg" xmlns:xlink="http://www.w3.org/1999/xlink" width="56.17752" height="25.95512" viewBox="0,0,56.17752,25.95512"><g transform="translate(-211.91124,-167.02244)"><g data-paper-data="{&quot;isPaintingLayer&quot;:true}" fill-rule="nonzero" stroke-miterlimit="10" stroke-dasharray="" stroke-dashoffset="0" style="mix-blend-mode: normal"><path d="M224.8888,167.02244h30.2224c7.18957,0 12.97756,5.78799 12.97756,12.97756c0,7.18957 -5.788,12.97756 -12.97756,12.97756h-30.2224c-7.18957,0 -12.97756,-5.78799 -12.97756,-12.97756c0,-7.18957 5.78799,-12.97756 12.97756,-12.97756z" fill="#000000" stroke="none" stroke-width="0.365" stroke-linecap="round" stroke-linejoin="round"/><path d="M227.11148,184.47191c-0.0969,0 -0.17146,-0.02982 -0.22364,-0.08946c-0.05218,-0.05963 -0.07827,-0.13045 -0.07827,-0.21245v-8.72169c0,-0.0969 0.02609,-0.17518 0.07827,-0.23481c0.05218,-0.05963 0.12673,-0.08946 0.22364,-0.08946h0.68208c0.0969,0 0.17518,0.02982 0.23481,0.08946c0.05963,0.05963 0.08945,0.13791 0.08945,0.23481v3.67876h4.59566v-3.67876c0,-0.0969 0.02609,-0.17518 0.07827,-0.23481c0.05963,-0.05963 0.13418,-0.08946 0.22364,-0.08946h0.68208c0.0969,0 0.17518,0.02982 0.23481,0.08946c0.05963,0.05963 0.08945,0.13791 0.08945,0.23481v8.72169c0,0.082 -0.02982,0.15282 -0.08945,0.21245c-0.05963,0.05963 -0.13791,0.08946 -0.23481,0.08946h-0.68208c-0.08945,0 -0.164,-0.02982 -0.22364,-0.08946c-0.05218,-0.05963 -0.07827,-0.13045 -0.07827,-0.21245v-3.83531h-4.59566v3.83531c0,0.082 -0.02982,0.15282 -0.08945,0.21245c-0.05963,0.05963 -0.13791,0.08946 -0.23481,0.08946zM238.94744,184.60608c-0.92435,0 -1.65861,-0.28327 -2.20279,-0.84981c-0.54417,-0.56653 -0.84235,-1.33808 -0.89453,-2.31461c-0.00745,-0.11927 -0.01118,-0.26836 -0.01118,-0.44726c0,-0.18636 0.00373,-0.33545 0.01118,-0.44726c0.02982,-0.63362 0.17518,-1.18898 0.43608,-1.66607c0.26091,-0.47708 0.61499,-0.84236 1.06225,-1.09581c0.44726,-0.26091 0.97653,-0.39136 1.58779,-0.39136c0.6709,0 1.23371,0.14535 1.68843,0.43608c0.46218,0.28327 0.81253,0.68581 1.05107,1.20762c0.24599,0.52181 0.36899,1.1368 0.36899,1.84498v0.22363c0,0.0969 -0.02982,0.17518 -0.08945,0.23481c-0.05963,0.05218 -0.13418,0.07827 -0.22364,0.07827h-4.61802c0,0.00745 0,0.02609 0,0.0559c0,0.02237 0,0.041 0,0.05591c0.02237,0.36526 0.10437,0.70817 0.246,1.02871c0.14164,0.31309 0.34663,0.57027 0.61499,0.77154c0.27581,0.19382 0.59636,0.29073 0.96162,0.29073c0.31309,0 0.57772,-0.04846 0.7939,-0.14536c0.21618,-0.10437 0.39136,-0.21617 0.52553,-0.33544c0.13418,-0.11927 0.22364,-0.21246 0.26836,-0.27955c0.07455,-0.11182 0.13419,-0.1789 0.17891,-0.20127c0.04472,-0.02237 0.11554,-0.03355 0.21245,-0.03355h0.65972c0.082,0 0.14909,0.02609 0.20127,0.07827c0.05963,0.04472 0.08573,0.11182 0.07828,0.20127c-0.00745,0.13418 -0.07828,0.29817 -0.21246,0.49199c-0.13418,0.19382 -0.32426,0.3839 -0.57026,0.57027c-0.24599,0.18636 -0.5479,0.33918 -0.90572,0.45845c-0.35781,0.11927 -0.76408,0.1789 -1.2188,0.1789zM237.11364,180.49124h3.65641v-0.03355c0,-0.40254 -0.07455,-0.76036 -0.22364,-1.07344c-0.14164,-0.31309 -0.35036,-0.55908 -0.62618,-0.73798c-0.27581,-0.18636 -0.60381,-0.27955 -0.98398,-0.27955c-0.38763,0 -0.71935,0.09319 -0.99516,0.27955c-0.26836,0.1789 -0.47335,0.4249 -0.61499,0.73798c-0.14164,0.31309 -0.21246,0.6709 -0.21246,1.07344zM243.96398,184.47191c-0.08945,0 -0.164,-0.02982 -0.22364,-0.08946c-0.05218,-0.05963 -0.07827,-0.13045 -0.07827,-0.21245v-8.86705c0,-0.08945 0.02609,-0.164 0.07827,-0.22364c0.05963,-0.05963 0.13418,-0.08945 0.22364,-0.08945h0.62617c0.0969,0 0.17146,0.02982 0.22364,0.08945c0.05963,0.05963 0.08945,0.13418 0.08945,0.22364v8.86705c0,0.082 -0.02982,0.15282 -0.08945,0.21245c-0.05218,0.05963 -0.12673,0.08946 -0.22364,0.08946zM247.20826,187.01014c-0.08945,0 -0.164,-0.02982 -0.22364,-0.08945c-0.05218,-0.05963 -0.07827,-0.13418 -0.07827,-0.22363v-8.85587c0,-0.08945 0.02609,-0.164 0.07827,-0.22364c0.05963,-0.05963 0.13418,-0.08945 0.22364,-0.08945h0.61499c0.08945,0 0.16027,0.02982 0.21245,0.08945c0.05963,0.05963 0.08945,0.13418 0.08945,0.22364v0.58145c0.21618,-0.29073 0.50317,-0.53299 0.86098,-0.72681c0.35782,-0.20127 0.80136,-0.3019 1.33062,-0.3019c0.49944,0 0.92434,0.08572 1.2747,0.25718c0.35036,0.17146 0.63736,0.40254 0.86099,0.69326c0.23109,0.29073 0.40254,0.62617 0.51436,1.00634c0.11927,0.37273 0.19009,0.77154 0.21245,1.19644c0.00746,0.14164 0.01119,0.29445 0.01119,0.45844c0,0.15654 -0.00373,0.30563 -0.01119,0.44727c-0.02236,0.41745 -0.09318,0.81626 -0.21245,1.19644c-0.11181,0.38018 -0.28327,0.71562 -0.51436,1.00635c-0.22363,0.28327 -0.51063,0.51435 -0.86099,0.69326c-0.35036,0.17146 -0.77526,0.25718 -1.2747,0.25718c-0.51436,0 -0.94672,-0.09318 -1.29708,-0.27954c-0.35036,-0.19382 -0.63735,-0.43608 -0.86098,-0.72681v3.09732c0,0.08945 -0.02982,0.164 -0.08945,0.22363c-0.05218,0.05963 -0.11927,0.08945 -0.20127,0.08945zM250.03721,183.52146c0.46217,0 0.82371,-0.10064 1.08462,-0.30191c0.26836,-0.20127 0.45845,-0.46218 0.57026,-0.78271c0.11927,-0.32799 0.18636,-0.67835 0.20127,-1.05107c0.00746,-0.25345 0.00746,-0.51063 0,-0.77154c-0.01491,-0.37273 -0.082,-0.71936 -0.20127,-1.0399c-0.11181,-0.32799 -0.30191,-0.59262 -0.57026,-0.79389c-0.2609,-0.20127 -0.62244,-0.30191 -1.08462,-0.30191c-0.43236,0 -0.78644,0.10436 -1.06226,0.31309c-0.26836,0.20127 -0.46963,0.46218 -0.60381,0.78271c-0.12672,0.31309 -0.19754,0.63363 -0.21245,0.96162c-0.00745,0.14164 -0.01118,0.30936 -0.01118,0.50317c0,0.19382 0.00373,0.369 0.01118,0.52554c0.00745,0.30563 0.07827,0.61126 0.21245,0.91689c0.14164,0.30563 0.35036,0.55536 0.62618,0.74917c0.27581,0.19382 0.62244,0.29072 1.03989,0.29072z" fill="#ffffff" stroke="#ffffff" stroke-width="0.5" stroke-linecap="square" stroke-linejoin="miter"/></g></g></svg>