<svg version="1.1" xmlns="http://www.w3.org/2000/svg" xmlns:xlink="http://www.w3.org/1999/xlink" width="19.68383" height="19.68383" viewBox="0,0,19.68383,19.68383"><defs><linearGradient x1="240.00003" y1="176.34574" x2="240.00003" y2="183.65433" gradientUnits="userSpaceOnUse" id="color-1"><stop offset="0" stop-color="#ca2828"/><stop offset="1" stop-color="#d15353"/></linearGradient><linearGradient x1="240.00005" y1="176.04294" x2="240.00005" y2="183.95707" gradientUnits="userSpaceOnUse" id="color-2"><stop offset="0" stop-color="#ff6666"/><stop offset="1" stop-color="#ff3333"/></linearGradient><linearGradient x1="239.20069" y1="178.30517" x2="239.20069" y2="182.51833" gradientUnits="userSpaceOnUse" id="color-3"><stop offset="0" stop-color="#e65c5c"/><stop offset="1" stop-color="#e62e2e"/></linearGradient><linearGradient x1="238.74055" y1="179.02769" x2="238.74055" y2="181.79585" gradientUnits="userSpaceOnUse" id="color-4"><stop offset="0" stop-color="#993f3f"/><stop offset="1" stop-color="#692020"/></linearGradient></defs><g transform="translate(-230.15827,-170.15827)"><g data-paper-data="{&quot;isPaintingLayer&quot;:true}" fill-rule="nonzero" stroke-linecap="butt" stroke-linejoin="miter" stroke-miterlimit="10" stroke-dasharray="" stroke-dashoffset="0" style="mix-blend-mode: normal"><path d="M236.34574,180.00003c0,-2.01822 1.63607,-3.65429 3.65429,-3.65429c2.01822,0 3.65429,1.63607 3.65429,3.65429c0,2.01822 -1.63607,3.65429 -3.65429,3.65429c-2.01822,0 -3.65429,-1.63607 -3.65429,-3.65429z" fill="url(#color-1)" stroke="none" stroke-width="0"/><path d="M230.15827,189.8421v-19.68383h19.68383v19.68383z" fill="none" stroke="none" stroke-width="0"/><path d="M236.04294,180.00005c0,-0.86813 0.27956,-1.67096 0.75356,-2.32339c0.17533,-0.24133 1.15234,2.54132 1.37658,2.34545c0.21623,-0.18887 -0.32189,-3.358 -0.06806,-3.49672c0.56277,-0.30757 1.20846,-0.4824 1.89498,-0.4824c0.69604,0 1.3501,0.17971 1.91833,0.49526c0.26326,0.1462 -3.94858,3.27651 -3.72653,3.47666c0.20118,0.18134 4.84033,-2.57193 5.00085,-2.35313c0.48059,0.65508 0.76442,1.46353 0.76442,2.33827c0,0.94262 -0.32959,1.80825 -0.87981,2.48795c-0.14714,0.18177 -4.62141,-2.62894 -4.79803,-2.47585c-0.19271,0.16704 3.90962,3.29496 3.687,3.42267c-0.57924,0.3323 -1.25054,0.52229 -1.96623,0.52229c-0.68584,0 -1.33092,-0.17448 -1.89329,-0.48147c-0.2378,-0.12981 0.31426,-3.28673 0.10921,-3.46076c-0.19055,-0.16173 -1.14065,2.66224 -1.29763,2.46761c-0.54755,-0.67887 -0.87536,-1.54237 -0.87536,-2.48244z" fill="url(#color-2)" stroke="none" stroke-width="0"/><g><path d="M236.82671,180.14431c0,-0.62293 0.13925,-1.51612 0.55046,-1.74302c0.45429,-0.25068 1.21437,0.19862 1.90256,0.19862c0.65455,0 1.14854,-0.45542 1.55825,-0.23406c0.411,0.22206 0.73674,1.12188 0.73674,1.77847c0,1.31113 -1.06289,2.37401 -2.37402,2.37401c-1.31113,0 -2.37401,-1.06288 -2.37401,-2.37401z" data-paper-data="{&quot;index&quot;:null}" fill="#ffffff" stroke="url(#color-3)" stroke-width="1"/><path d="M236.82673,180.14437c0,-0.62293 0.13925,-1.51612 0.55046,-1.74302c0.45429,-0.25068 1.21437,0.19862 1.90256,0.19862c0.65455,0 1.14853,-0.45542 1.55825,-0.23406c0.411,0.22206 0.73674,1.12188 0.73674,1.77847c0,1.31113 -1.06288,2.37401 -2.37401,2.37401c-1.31113,0 -2.37402,-1.06288 -2.37402,-2.37401z" data-paper-data="{&quot;index&quot;:null}" fill="#ffffff" stroke="#000000" stroke-width="0"/><path d="M237.2352,180.29056c0,-0.4804 0.18037,-1.26283 0.18037,-1.26283c0,0 0.97396,0.2711 1.32494,0.2711c0.43847,0 1.26627,-0.22447 1.26627,-0.22447c0,0 0.23904,0.82332 0.23904,1.21623c0,0.83136 -0.67396,1.50531 -1.50531,1.50531c-0.83136,0 -1.50531,-0.67396 -1.50531,-1.50531z" fill="url(#color-4)" stroke="none" stroke-width="0"/></g></g></g></svg>