<svg version="1.1" xmlns="http://www.w3.org/2000/svg" xmlns:xlink="http://www.w3.org/1999/xlink" width="19.68383" height="19.68383" viewBox="0,0,19.68383,19.68383"><defs><linearGradient x1="240.01332" y1="175.98942" x2="240.01332" y2="180.5581" gradientUnits="userSpaceOnUse" id="color-1"><stop offset="0" stop-color="#ffbf66"/><stop offset="1" stop-color="#ffd080"/></linearGradient></defs><g transform="translate(-230.15812,-170.15814)"><g data-paper-data="{&quot;isPaintingLayer&quot;:true}" fill-rule="nonzero" stroke="none" stroke-linecap="butt" stroke-linejoin="miter" stroke-miterlimit="10" stroke-dasharray="" stroke-dashoffset="0" style="mix-blend-mode: normal"><path d="M236.0114,183.11202c0,-0.90569 0,-5.86465 0,-5.86465l1.33808,-1.25302h5.39754l1.24525,1.41431c0,0 0,4.71747 0,5.59223c0,0.48661 -0.45071,1.00658 -0.98404,1.00658c-1.67422,0 -5.14253,0 -6.08653,0c-0.44661,0 -0.91029,-0.40885 -0.91029,-0.89545z" data-paper-data="{&quot;index&quot;:null}" fill="#ffbe4d" stroke-width="0"/><path d="M230.15813,189.84198v-19.68383h19.68383v19.68383z" data-paper-data="{&quot;index&quot;:null}" fill="none" stroke-width="0"/><path d="M236.00779,176.98929c0,-0.53019 0.42981,-0.97534 0.96,-0.97534c0.53019,0 6.31484,1.94308 6.31484,1.94308c0,0 -5.78465,-0.00774 -6.31484,-0.00774c-0.53019,0 -0.96,-0.4298 -0.96,-0.96z" fill="#ffe3b3" stroke-width="0.5"/><path d="M236.96333,176.00465c0,0 5.54192,-0.0076 6.07212,-0.0076c0.53019,0 0.96,0.42981 0.96,0.96c0,0.53019 -0.4298,0.96 -0.96,0.96c-0.5302,0 -6.07212,-1.9124 -6.07212,-1.9124z" fill="#ffe3b3" stroke-width="0.5"/><path d="M243.3649,180.5581c-0.88444,0 -4.89637,0 -6.53973,0c-0.4194,0 -0.79609,-0.39477 -0.79609,-0.65709c0,-0.44195 -0.01538,-2.94395 -0.01538,-2.94395h7.98384c0,0 0,2.45885 0,2.94395c0,0.31071 -0.30662,0.65709 -0.63263,0.65709z" data-paper-data="{&quot;index&quot;:null}" fill="url(#color-1)" stroke-width="0"/></g></g></svg>