<svg version="1.1" xmlns="http://www.w3.org/2000/svg" xmlns:xlink="http://www.w3.org/1999/xlink" width="9.03361" height="9.03361" viewBox="0,0,9.03361,9.03361"><defs><linearGradient x1="242.07907" y1="176.63925" x2="242.07907" y2="179.76705" gradientUnits="userSpaceOnUse" id="color-1"><stop offset="0" stop-color="#ff6f00"/><stop offset="1" stop-color="#ff0000"/></linearGradient></defs><g transform="translate(-235.46815,-175.53165)"><g data-paper-data="{&quot;isPaintingLayer&quot;:true}" fill-rule="nonzero" stroke-linecap="butt" stroke-linejoin="miter" stroke-miterlimit="10" stroke-dasharray="" stroke-dashoffset="0" style="mix-blend-mode: normal"><path d="M240.51517,178.20315c0,-0.86372 0.70018,-1.5639 1.5639,-1.5639c0.86372,0 1.5639,0.70018 1.5639,1.5639c0,0.86372 -0.70018,1.5639 -1.5639,1.5639c-0.86372,0 -1.5639,-0.70018 -1.5639,-1.5639z" fill="url(#color-1)" stroke="none" stroke-width="0"/><path d="M241.04911,178.3043c0,-0.26583 0.05942,-0.647 0.2349,-0.74382c0.19386,-0.10697 0.51823,0.08476 0.81191,0.08476c0.27933,0 0.49013,-0.19435 0.66498,-0.09988c0.17539,0.09476 0.3144,0.47876 0.3144,0.75895c0,0.55952 -0.45358,1.01309 -1.01309,1.01309c-0.55952,0 -1.01309,-0.45358 -1.01309,-1.01309z" data-paper-data="{&quot;index&quot;:null}" fill="#ffffff" stroke="none" stroke-width="0"/><path d="M241.41982,178.3043c0,-0.205 0.07697,-0.53891 0.07697,-0.53891c0,0 0.41563,0.11569 0.56541,0.11569c0.18711,0 0.54037,-0.0958 0.54037,-0.0958c0,0 0.10201,0.35135 0.10201,0.51902c0,0.35478 -0.2876,0.64238 -0.64238,0.64238c-0.35478,0 -0.64238,-0.2876 -0.64238,-0.64238z" fill="#000000" stroke="none" stroke-width="0"/><path d="M241.534,177.1422c0.00057,0.11438 -0.1547,0.39617 -0.42146,0.39617c-0.50278,0 -0.91035,-1.49197 -0.91035,-1.49197c0,0 0.49187,0.71648 0.99464,0.71648c0.2499,0 0.33628,0.20256 0.33717,0.37931z" fill="#d10000" stroke="none" stroke-width="NaN"/><path d="M243.0344,176.76289c0.50278,0 0.99464,-0.71648 0.99464,-0.71648c0,0 -0.40758,1.49197 -0.91036,1.49197c-0.26676,0 -0.42203,-0.28179 -0.42146,-0.39617c0.00089,-0.17675 0.08727,-0.37931 0.33717,-0.37931z" data-paper-data="{&quot;index&quot;:null}" fill="#d10000" stroke="none" stroke-width="NaN"/><path d="M235.94815,184.08526v-8.07361h8.07361v8.07361z" fill="none" stroke="#ffffff" stroke-width="0.96"/></g></g></svg>