<svg version="1.1" xmlns="http://www.w3.org/2000/svg" xmlns:xlink="http://www.w3.org/1999/xlink" width="373.83074" height="80.43103" viewBox="0,0,373.83074,80.43103"><g transform="translate(-53.08463,-139.78448)"><g data-paper-data="{&quot;isPaintingLayer&quot;:true}" fill-rule="nonzero" stroke="none" stroke-miterlimit="10" stroke-dasharray="" stroke-dashoffset="0" style="mix-blend-mode: normal"><path d="M93.30015,139.78448h293.3997c22.27939,0 40.21552,17.93612 40.21552,40.21551c0,22.27941 -17.93613,40.21552 -40.21552,40.21552h-293.3997c-22.2794,0 -40.21552,-17.93611 -40.21552,-40.21552c0,-22.27939 17.93612,-40.21551 40.21552,-40.21551z" fill-opacity="0.2008" fill="#000000" stroke-width="0.365" stroke-linecap="round" stroke-linejoin="round"/><path d="M147.90015,154.57619l7.56247,15.625c0.3125,0.63541 0.46875,1.10938 0.46875,1.42188c0,0.66666 -0.54167,1.27084 -1.625,1.8125c-0.63542,0.32291 -1.13542,0.48438 -1.5,0.48438c-0.36458,0 -0.66667,-0.08334 -0.90625,-0.25c-0.22917,-0.16666 -0.39583,-0.34375 -0.5,-0.53125c-0.09375,-0.1875 -0.23437,-0.46875 -0.42187,-0.84375l-1.45312,-3.03125h-7.7656l-1.45312,3.03125c-0.1875,0.375 -0.33334,0.64584 -0.4375,0.8125c-0.10416,0.16666 -0.27084,0.33854 -0.5,0.51563c-0.22916,0.17709 -0.52604,0.26563 -0.89062,0.26563c-0.36459,0 -0.86459,-0.15625 -1.5,-0.46875c-1.08334,-0.53125 -1.625,-1.13021 -1.625,-1.79687c0,-0.3125 0.15625,-0.78646 0.46875,-1.42187l7.5625,-15.65625c0.20834,-0.42708 0.52084,-0.77083 0.9375,-1.03125c0.42709,-0.27083 0.86979,-0.40625 1.32813,-0.40625c1.01041,0 1.76041,0.48958 2.25,1.46875zM145.63453,161.29494l-1.85937,3.82813h3.73438zM168.88898,168.2637l0.51563,-0.35937c0.63542,-0.375 1.08333,-0.5625 1.34375,-0.5625c0.57292,0 1.19792,0.52084 1.875,1.5625c0.40625,0.65625 0.60938,1.18229 0.60938,1.57813c0,0.38541 -0.125,0.70834 -0.375,0.96875c-0.25,0.26041 -0.54687,0.49479 -0.89062,0.70313c-0.33333,0.20834 -0.65625,0.40625 -0.96875,0.59375c-0.30208,0.1875 -0.93229,0.43229 -1.89062,0.73438c-0.94792,0.29166 -1.86458,0.4375 -2.75,0.4375c-0.88542,0 -1.78125,-0.11459 -2.6875,-0.34375c-0.90625,-0.23959 -1.83854,-0.63541 -2.79687,-1.1875c-0.95833,-0.55209 -1.82292,-1.22396 -2.59375,-2.01562c-0.76042,-0.79166 -1.39062,-1.80729 -1.89062,-3.04687c-0.48958,-1.23959 -0.73437,-2.58854 -0.73437,-4.04687c0,-1.45834 0.23958,-2.77604 0.71875,-3.95312c0.48958,-1.1875 1.10938,-2.16667 1.85938,-2.9375c0.76042,-0.78125 1.625,-1.43229 2.59375,-1.95312c1.83333,-1.01042 3.67188,-1.51562 5.51563,-1.51562c0.88542,0 1.77604,0.13542 2.67188,0.40625c0.90625,0.27083 1.59375,0.54688 2.0625,0.82813l0.67188,0.39063c0.33333,0.20833 0.59375,0.375 0.78125,0.5c0.48958,0.39583 0.73438,0.84375 0.73438,1.34375c0,0.48958 -0.19792,1.00521 -0.59375,1.54688c-0.72917,1 -1.38021,1.5 -1.95312,1.5c-0.33333,0 -0.80729,-0.20312 -1.42187,-0.60937c-0.79167,-0.63542 -1.83854,-0.95312 -3.14062,-0.95312c-1.21875,0 -2.41667,0.42188 -3.59375,1.26563c-0.55208,0.40625 -1.01562,0.98437 -1.39062,1.73437c-0.375,0.75 -0.5625,1.59896 -0.5625,2.54688c0,0.9375 0.1875,1.78125 0.5625,2.53125c0.375,0.73959 0.84896,1.32291 1.42188,1.75c1.14583,0.82291 2.33333,1.23438 3.5625,1.23438c0.57292,0 1.11458,-0.07291 1.625,-0.21875c0.52083,-0.15625 0.89063,-0.30729 1.10938,-0.45312zM187.76044,153.87308c0.15625,-0.28125 0.41146,-0.47917 0.76563,-0.59375c0.35417,-0.11458 0.80208,-0.17187 1.34375,-0.17187c0.54167,0 0.96875,0.04688 1.28125,0.14063c0.32292,0.09375 0.56771,0.20833 0.73438,0.34375c0.16667,0.125 0.29688,0.3125 0.39063,0.5625c0.09375,0.3125 0.14063,0.79688 0.14063,1.45313v15.54687c0,0.42709 -0.01562,0.75 -0.04687,0.96875c-0.02083,0.20834 -0.10937,0.45313 -0.26562,0.73438c-0.26042,0.5 -0.98958,0.75 -2.1875,0.75c-1.30208,0 -2.06771,-0.34375 -2.29687,-1.03125c-0.10417,-0.32291 -0.15625,-0.80729 -0.15625,-1.45312v-5.6875h-7.42187v5.71875c0,0.42709 -0.01562,0.75 -0.04687,0.96875c-0.03125,0.20834 -0.11979,0.45313 -0.26562,0.73438c-0.26042,0.5 -0.98958,0.75 -2.1875,0.75c-1.30208,0 -2.06771,-0.34375 -2.29687,-1.03125c-0.10417,-0.32291 -0.15625,-0.80729 -0.15625,-1.45312v-15.54687c0,-0.42708 0.01042,-0.74479 0.03125,-0.95312c0.03125,-0.21875 0.11979,-0.46875 0.26563,-0.75c0.26042,-0.51042 0.98958,-0.76562 2.1875,-0.76562c1.3125,0 2.08854,0.34896 2.32813,1.04688c0.09375,0.3125 0.14063,0.79688 0.14063,1.45313v5.71875h7.42188v-5.75c0,-0.42708 0.01042,-0.74479 0.03125,-0.95312c0.03125,-0.21875 0.11979,-0.46875 0.26563,-0.75zM194.66065,155.57619c0,-0.42708 0.01042,-0.74479 0.03125,-0.95312c0.03125,-0.21875 0.11979,-0.46875 0.26563,-0.75c0.26042,-0.51042 0.98958,-0.76562 2.1875,-0.76562c1.3125,0 2.08854,0.34896 2.32813,1.04688c0.09375,0.3125 0.14063,0.79688 0.14063,1.45313v15.5625c0,0.44791 -0.01562,0.77604 -0.04687,0.98438c-0.03125,0.20834 -0.11979,0.45313 -0.26562,0.73438c-0.26042,0.5 -0.98958,0.75 -2.1875,0.75c-1.30208,0 -2.06771,-0.35416 -2.29687,-1.0625c-0.10417,-0.30209 -0.15625,-0.77604 -0.15625,-1.42187zM206.80982,168.68558h8.625c0.42708,0 0.74479,0.01563 0.95313,0.04688c0.21875,0.02084 0.46875,0.10938 0.75,0.26563c0.51042,0.26041 0.76563,0.98438 0.76563,2.17188c0,1.3125 -0.34896,2.07813 -1.04687,2.29688c-0.3125,0.11459 -0.79687,0.17188 -1.45312,0.17188h-11.09375c-1.30208,0 -2.06771,-0.35416 -2.29687,-1.0625c-0.10417,-0.30209 -0.15625,-0.77604 -0.15625,-1.42187v-15.57812c0,-0.94792 0.17708,-1.59375 0.53125,-1.9375c0.35417,-0.35417 1.02604,-0.53125 2.01563,-0.53125h11.03125c0.42708,0 0.74479,0.01563 0.95313,0.04688c0.21875,0.03125 0.46875,0.11979 0.75,0.26563c0.51042,0.26042 0.76563,0.98958 0.76563,2.1875c0,1.30208 -0.34896,2.06771 -1.04687,2.29688c-0.3125,0.11458 -0.79687,0.17188 -1.45312,0.17188h-8.59375v2.82812h5.54688c0.42708,0 0.74479,0.01563 0.95313,0.04688c0.21875,0.02084 0.46875,0.10416 0.75,0.25c0.5,0.26041 0.75,0.98959 0.75,2.1875c0,1.3125 -0.35417,2.07813 -1.0625,2.29688c-0.3125,0.11459 -0.79687,0.17188 -1.45312,0.17188h-5.48437zM238.45515,153.41994c1.09375,0.54167 1.64063,1.14063 1.64063,1.79688c0,0.30208 -0.14062,0.75 -0.42187,1.34375l-7.71875,15.67187c-0.20833,0.41666 -0.52604,0.75 -0.95312,1c-0.41667,0.25 -0.84896,0.375 -1.29687,0.375h-0.26562c-0.46875,0 -0.91667,-0.125 -1.34375,-0.375c-0.41667,-0.25 -0.72917,-0.58334 -0.9375,-1l-7.71875,-15.67187c-0.28125,-0.59375 -0.42187,-1.04167 -0.42187,-1.34375c0,-0.65625 0.55208,-1.25521 1.65625,-1.79687c0.61458,-0.3125 1.08333,-0.46875 1.40625,-0.46875c0.32292,0 0.56771,0.03646 0.73438,0.10938c0.17708,0.07292 0.33854,0.20313 0.48438,0.39063c0.16667,0.21875 0.31771,0.46354 0.45313,0.73438c0.14583,0.27083 0.50521,1.04688 1.07813,2.32813c0.58333,1.28125 1.20313,2.64062 1.85938,4.07812c0.66667,1.4375 1.29167,2.79688 1.875,4.07813c0.59375,1.27084 0.92708,1.98438 1,2.14063l5.60938,-12.26562c0.14583,-0.35417 0.27604,-0.63542 0.39063,-0.84375c0.33333,-0.5 0.73958,-0.75 1.21875,-0.75c0.48958,0 1.04688,0.15625 1.67188,0.46875zM246.59797,168.68558h8.625c0.42708,0 0.74479,0.01563 0.95313,0.04688c0.21875,0.02084 0.46875,0.10938 0.75,0.26563c0.51042,0.26041 0.76563,0.98438 0.76563,2.17188c0,1.3125 -0.34896,2.07813 -1.04687,2.29688c-0.3125,0.11459 -0.79687,0.17188 -1.45312,0.17188h-11.09375c-1.30208,0 -2.06771,-0.35416 -2.29687,-1.0625c-0.10417,-0.30209 -0.15625,-0.77604 -0.15625,-1.42187v-15.57812c0,-0.94792 0.17708,-1.59375 0.53125,-1.9375c0.35417,-0.35417 1.02604,-0.53125 2.01563,-0.53125h11.03125c0.42708,0 0.74479,0.01563 0.95313,0.04688c0.21875,0.03125 0.46875,0.11979 0.75,0.26563c0.51042,0.26042 0.76563,0.98958 0.76563,2.1875c0,1.30208 -0.34896,2.06771 -1.04687,2.29688c-0.3125,0.11458 -0.79687,0.17188 -1.45312,0.17188h-8.59375v2.82812h5.54688c0.42708,0 0.74479,0.01563 0.95313,0.04688c0.21875,0.02084 0.46875,0.10416 0.75,0.25c0.5,0.26041 0.75,0.98959 0.75,2.1875c0,1.3125 -0.35417,2.07813 -1.0625,2.29688c-0.3125,0.11459 -0.79687,0.17188 -1.45312,0.17188h-5.48437zM281.32142,153.90433c0.14583,0.28125 0.22917,0.53646 0.25,0.76563c0.03125,0.21875 0.04688,0.54167 0.04688,0.96875v15.53125c0,1.29166 -0.35417,2.04688 -1.0625,2.26563c-0.35417,0.11459 -0.80208,0.17188 -1.34375,0.17188c-0.54167,0 -0.97396,-0.04687 -1.29687,-0.14062c-0.3125,-0.09375 -0.55208,-0.20312 -0.71875,-0.32812c-0.16667,-0.13541 -0.29687,-0.32291 -0.39062,-0.5625c-0.09375,-0.32291 -0.14062,-0.80729 -0.14062,-1.45312v-9.39062c-0.46875,0.58334 -1.15104,1.50521 -2.04687,2.76563c-0.89583,1.26041 -1.46354,2.05209 -1.70312,2.375c-0.23958,0.3125 -0.40625,0.53125 -0.5,0.65625c-0.09375,0.11459 -0.32292,0.28125 -0.6875,0.5c-0.36458,0.20834 -0.76042,0.3125 -1.1875,0.3125c-0.41667,0 -0.79687,-0.09375 -1.14062,-0.28125c-0.34375,-0.19791 -0.58854,-0.39062 -0.73437,-0.57812l-0.23437,-0.3125c-0.375,-0.46875 -1.11458,-1.46354 -2.21875,-2.98437c-1.09375,-1.52084 -1.6875,-2.33854 -1.78125,-2.45312v9.4375c0,0.4375 -0.01562,0.76563 -0.04687,0.98438c-0.02083,0.20834 -0.10937,0.44271 -0.26562,0.70313c-0.28125,0.5 -1.00521,0.75 -2.17187,0.75c-1.14583,0 -1.85937,-0.25 -2.14062,-0.75c-0.14583,-0.26041 -0.23437,-0.5 -0.26562,-0.71875c-0.02083,-0.22916 -0.03125,-0.56771 -0.03125,-1.01562v-15.54687c0,-0.42708 0.01042,-0.74479 0.03125,-0.95312c0.03125,-0.21875 0.11979,-0.46875 0.26563,-0.75c0.28125,-0.48958 1.01042,-0.73437 2.1875,-0.73437c0.51042,0 0.94271,0.0625 1.29688,0.1875c0.36458,0.125 0.60417,0.25 0.71875,0.375l0.17188,0.17188l6.35938,8.34375c3.16667,-4.19791 5.28646,-6.96875 6.35938,-8.3125c0.3125,-0.51042 1.0625,-0.76562 2.25,-0.76562c1.1875,0 1.91146,0.25521 2.17188,0.76563zM288.82215,168.68558h8.625c0.42708,0 0.74479,0.01563 0.95313,0.04688c0.21875,0.02084 0.46875,0.10938 0.75,0.26563c0.51042,0.26041 0.76563,0.98438 0.76563,2.17188c0,1.3125 -0.34896,2.07813 -1.04687,2.29688c-0.3125,0.11459 -0.79687,0.17188 -1.45312,0.17188h-11.09375c-1.30208,0 -2.06771,-0.35416 -2.29687,-1.0625c-0.10417,-0.30209 -0.15625,-0.77604 -0.15625,-1.42187v-15.57812c0,-0.94792 0.17708,-1.59375 0.53125,-1.9375c0.35417,-0.35417 1.02604,-0.53125 2.01563,-0.53125h11.03125c0.42708,0 0.74479,0.01563 0.95313,0.04688c0.21875,0.03125 0.46875,0.11979 0.75,0.26563c0.51042,0.26042 0.76563,0.98958 0.76563,2.1875c0,1.30208 -0.34896,2.06771 -1.04687,2.29688c-0.3125,0.11458 -0.79687,0.17188 -1.45312,0.17188h-8.59375v2.82812h5.54688c0.42708,0 0.74479,0.01563 0.95313,0.04688c0.21875,0.02084 0.46875,0.10416 0.75,0.25c0.5,0.26041 0.75,0.98959 0.75,2.1875c0,1.3125 -0.35417,2.07813 -1.0625,2.29688c-0.3125,0.11459 -0.79687,0.17188 -1.45312,0.17188h-5.48437zM314.9831,153.96683c0.17708,-0.32292 0.44271,-0.54167 0.79688,-0.65625c0.35417,-0.11458 0.79688,-0.17187 1.32813,-0.17187c0.53125,0 0.95833,0.04688 1.28125,0.14063c0.33333,0.09375 0.57813,0.20833 0.73438,0.34375c0.16667,0.125 0.28646,0.31771 0.35938,0.57813c0.11458,0.30208 0.17188,0.78125 0.17188,1.4375v15.53125c0,0.44791 -0.01562,0.77604 -0.04687,0.98438c-0.03125,0.20834 -0.11979,0.45313 -0.26562,0.73438c-0.26042,0.5 -0.98958,0.75 -2.1875,0.75c-0.72917,0 -1.23437,-0.05729 -1.51562,-0.17187c-0.28125,-0.11459 -0.51042,-0.29166 -0.6875,-0.53125c-4.20833,-5.59375 -6.97396,-9.25 -8.29687,-10.96875v9.20313c0,0.44791 -0.01562,0.77604 -0.04687,0.98438c-0.02083,0.20834 -0.10937,0.45313 -0.26562,0.73438c-0.26042,0.5 -0.98437,0.75 -2.17187,0.75c-1.16667,0 -1.88021,-0.25 -2.14062,-0.75c-0.14583,-0.28125 -0.23437,-0.53125 -0.26562,-0.75c-0.02083,-0.22916 -0.03125,-0.55729 -0.03125,-0.98437v-15.625c0,-0.71875 0.08854,-1.23958 0.26563,-1.5625c0.17708,-0.32292 0.44271,-0.54167 0.79688,-0.65625c0.35417,-0.11458 0.80729,-0.17187 1.35938,-0.17187c0.5625,0 1.00521,0.05208 1.32813,0.15625c0.33333,0.10417 0.56771,0.22396 0.70313,0.35938c0.07292,0.05208 0.28646,0.29167 0.64063,0.71875c3.9375,5.35417 6.56771,8.89062 7.89063,10.60937v-9.45312c0,-0.71875 0.08854,-1.23958 0.26563,-1.5625zM323.23695,153.09183h15.5625c0.59375,0 1.03125,0.07292 1.3125,0.21875c0.28125,0.13542 0.46875,0.35417 0.5625,0.65625c0.09375,0.29167 0.14063,0.68229 0.14063,1.17188c0,0.47917 -0.04687,0.86458 -0.14062,1.15625c-0.09375,0.29167 -0.25,0.48958 -0.46875,0.59375c-0.34375,0.17708 -0.82292,0.26563 -1.4375,0.26563h-5.34375v14.07812c0,0.42709 -0.01562,0.74479 -0.04687,0.95313c-0.02083,0.20834 -0.10417,0.44791 -0.25,0.71875c-0.13542,0.26041 -0.38021,0.44791 -0.73437,0.5625c-0.35417,0.11459 -0.82292,0.17188 -1.40625,0.17188c-0.57292,0 -1.03646,-0.05729 -1.39062,-0.17187c-0.34375,-0.11459 -0.58854,-0.30209 -0.73437,-0.5625c-0.13542,-0.27084 -0.21875,-0.51562 -0.25,-0.73437c-0.02083,-0.21875 -0.03125,-0.54166 -0.03125,-0.96875v-14.04687h-5.375c-0.59375,0 -1.03125,-0.06771 -1.3125,-0.20312c-0.28125,-0.14583 -0.46875,-0.36979 -0.5625,-0.67187c-0.09375,-0.30208 -0.14062,-0.69271 -0.14062,-1.17187c0,-0.48958 0.04688,-0.875 0.14063,-1.15625c0.09375,-0.29167 0.25,-0.49479 0.46875,-0.60937c0.34375,-0.16667 0.82292,-0.25 1.4375,-0.25zM340.73817,159.49808c0.96875,0 1.63542,0.1875 2,0.5625c0.36458,0.375 0.54688,1.07291 0.54688,2.09375c-0.02083,0.44791 -0.04687,0.78125 -0.07812,1c-0.02083,0.21875 -0.11979,0.47396 -0.29687,0.76563c-0.27083,0.54166 -0.97396,0.8125 -2.10937,0.8125c-1.125,0 -1.86979,-0.18229 -2.23437,-0.54687c-0.36458,-0.36459 -0.54687,-1.06771 -0.54687,-2.10937c0,-1.08334 0.19271,-1.77604 0.57813,-2.07812c0.46875,-0.33334 1.18229,-0.5 2.14063,-0.5zM340.73817,168.43558c0.96875,0 1.63542,0.18229 2,0.54688c0.36458,0.36459 0.54688,1.06771 0.54688,2.10938c-0.02083,0.44791 -0.04687,0.78125 -0.07812,1c-0.02083,0.20834 -0.11979,0.46354 -0.29687,0.76563c-0.27083,0.54166 -0.97396,0.8125 -2.10937,0.8125c-1.125,0 -1.86979,-0.18229 -2.23437,-0.54687c-0.36458,-0.36459 -0.54687,-1.06771 -0.54687,-2.10937c0,-1.08334 0.19271,-1.77604 0.57813,-2.07812c0.46875,-0.33334 1.18229,-0.5 2.14063,-0.5z" fill="#ffffff" stroke-width="1" stroke-linecap="square" stroke-linejoin="miter"/><path d="M77.01298,203.79869c-0.17709,0 -0.3125,-0.05208 -0.40625,-0.15625c-0.09375,-0.10417 -0.14062,-0.23437 -0.14062,-0.39062v-15.67187c0,-0.17708 0.04688,-0.31771 0.14063,-0.42187c0.09375,-0.10417 0.22916,-0.15625 0.40625,-0.15625h6.09375c1.1875,0 2.21354,0.19271 3.07813,0.57813c0.875,0.38542 1.55209,0.95834 2.03125,1.71875c0.47916,0.75 0.71875,1.69792 0.71875,2.84375c0,1.13542 -0.23959,2.07813 -0.71875,2.82813c-0.47916,0.75 -1.15625,1.31771 -2.03125,1.70313c-0.86459,0.38542 -1.89062,0.57813 -3.07812,0.57813h-4.25v6c0,0.15625 -0.05209,0.28646 -0.15625,0.39063c-0.10416,0.10417 -0.24479,0.15625 -0.42187,0.15625zM78.84111,195.23619h4.14063c1.1875,0 2.07813,-0.26562 2.67188,-0.79687c0.59375,-0.53125 0.89063,-1.29687 0.89063,-2.29687c0,-1 -0.29166,-1.77083 -0.875,-2.3125c-0.57291,-0.54167 -1.46875,-0.8125 -2.6875,-0.8125h-4.14062zM92.13969,203.79869c-0.16666,0 -0.30209,-0.05208 -0.40625,-0.15625c-0.10416,-0.10417 -0.15625,-0.23437 -0.15625,-0.39062v-15.9375c0,-0.16667 0.05209,-0.30208 0.15625,-0.40625c0.10416,-0.10417 0.23959,-0.15625 0.40625,-0.15625h1.125c0.17709,0 0.3125,0.05208 0.40625,0.15625c0.09375,0.10417 0.14063,0.23958 0.14063,0.40625v15.9375c0,0.15625 -0.04687,0.28646 -0.14062,0.39063c-0.09375,0.10417 -0.22916,0.15625 -0.40625,0.15625zM100.86232,204.03308c-0.79166,0 -1.51562,-0.15625 -2.17187,-0.46875c-0.65625,-0.32292 -1.1875,-0.75521 -1.59375,-1.29687c-0.39584,-0.55208 -0.59375,-1.17187 -0.59375,-1.85937c0,-1.10416 0.44791,-1.98437 1.34375,-2.64062c0.89584,-0.65625 2.0625,-1.08333 3.5,-1.28125l3.57813,-0.51562v-0.6875c0,-0.77083 -0.22396,-1.36979 -0.67187,-1.79687c-0.4375,-0.4375 -1.15104,-0.65625 -2.14062,-0.65625c-0.69791,0 -1.27084,0.14583 -1.71875,0.4375c-0.44791,0.28125 -0.76041,0.64583 -0.9375,1.09375c-0.09375,0.23958 -0.26041,0.35938 -0.5,0.35938h-1.09375c-0.17709,0 -0.30729,-0.05208 -0.39062,-0.15625c-0.08334,-0.10417 -0.125,-0.22396 -0.125,-0.35937c0,-0.23958 0.08854,-0.53646 0.26563,-0.89062c0.1875,-0.35417 0.47396,-0.69791 0.85938,-1.03125c0.38541,-0.34375 0.875,-0.63021 1.46875,-0.85937c0.60416,-0.22916 1.33854,-0.34375 2.20313,-0.34375c0.95834,0 1.76563,0.125 2.42188,0.375c0.65625,0.25 1.17188,0.58334 1.54688,1c0.375,0.40625 0.64584,0.875 0.8125,1.40625c0.16666,0.53125 0.25,1.06771 0.25,1.60938v7.78125c0,0.15625 -0.05209,0.28646 -0.15625,0.39063c-0.10416,0.10417 -0.23437,0.15625 -0.39062,0.15625h-1.10937c-0.17709,0 -0.3125,-0.05208 -0.40625,-0.15625c-0.09375,-0.10417 -0.14062,-0.23437 -0.14062,-0.39062v-1.03125c-0.20834,0.28125 -0.48959,0.5625 -0.84375,0.84375c-0.35416,0.28125 -0.79687,0.51563 -1.32812,0.70313c-0.52084,0.17708 -1.16666,0.26563 -1.9375,0.26563zM101.37794,202.23619c0.65625,0 1.25521,-0.14062 1.79688,-0.42187c0.54166,-0.28125 0.96875,-0.71354 1.28125,-1.29687c0.3125,-0.59375 0.46875,-1.33854 0.46875,-2.23437v-0.67187l-2.78125,0.40625c-1.13541,0.15625 -1.99479,0.42188 -2.57812,0.79688c-0.57291,0.375 -0.85937,0.85416 -0.85937,1.4375c0,0.44792 0.13021,0.82292 0.39063,1.125c0.27084,0.29167 0.60938,0.51042 1.01563,0.65625c0.40625,0.13542 0.82813,0.20313 1.26563,0.20313zM112.54939,208.36119c-0.125,0 -0.23437,-0.05209 -0.32812,-0.15625c-0.09375,-0.09375 -0.14062,-0.20312 -0.14062,-0.32812c0,-0.0625 0.00521,-0.125 0.01563,-0.1875c0.02084,-0.0625 0.05209,-0.14583 0.09375,-0.25l1.85938,-4.39062l-4.59375,-10.8125c-0.07291,-0.19791 -0.10937,-0.33333 -0.10937,-0.40625c0,-0.14583 0.04688,-0.26562 0.14063,-0.35937c0.09375,-0.10416 0.21354,-0.15625 0.35938,-0.15625h1.17188c0.17709,0 0.30209,0.04167 0.375,0.125c0.08334,0.08334 0.15104,0.17709 0.20313,0.28125l3.64063,8.73438l3.75,-8.73437c0.05209,-0.10416 0.11979,-0.19792 0.20313,-0.28125c0.09375,-0.08333 0.22396,-0.125 0.39063,-0.125h1.14063c0.14584,0 0.26563,0.05208 0.35938,0.15625c0.09375,0.09375 0.14063,0.20313 0.14063,0.32813c0,0.08334 -0.04166,0.22916 -0.125,0.4375l-6.8125,15.71875c-0.05209,0.10416 -0.11979,0.19791 -0.20312,0.28125c-0.08334,0.08334 -0.21354,0.125 -0.39062,0.125zM133.23683,203.79869c-0.89584,0 -1.625,-0.17187 -2.1875,-0.51562c-0.55209,-0.34375 -0.95834,-0.82812 -1.21875,-1.45312c-0.25,-0.63542 -0.375,-1.38541 -0.375,-2.25v-6.34375h-1.875c-0.15625,0 -0.28646,-0.05208 -0.39062,-0.15625c-0.10416,-0.10417 -0.15625,-0.23437 -0.15625,-0.39062v-0.8125c0,-0.16666 0.05209,-0.30208 0.15625,-0.40625c0.10416,-0.10416 0.23438,-0.15625 0.39063,-0.15625h1.875v-4c0,-0.16667 0.05209,-0.30208 0.15625,-0.40625c0.10416,-0.10417 0.23438,-0.15625 0.39063,-0.15625h1.125c0.16666,0 0.30209,0.05208 0.40625,0.15625c0.10416,0.10417 0.15625,0.23958 0.15625,0.40625v4h2.96875c0.17709,0 0.3125,0.05208 0.40625,0.15625c0.09375,0.10417 0.14063,0.23959 0.14063,0.40625v0.8125c0,0.15625 -0.04687,0.28646 -0.14062,0.39063c-0.09375,0.10417 -0.22916,0.15625 -0.40625,0.15625h-2.96875v6.17188c0,0.75 0.125,1.34375 0.375,1.78125c0.26041,0.42708 0.71875,0.64063 1.375,0.64063h1.45313c0.16666,0 0.30209,0.05208 0.40625,0.15625c0.10416,0.10417 0.15625,0.23438 0.15625,0.39063v0.875c0,0.15625 -0.05209,0.28646 -0.15625,0.39063c-0.10416,0.10417 -0.23959,0.15625 -0.40625,0.15625zM142.7458,204.03308c-1.66666,0 -2.98959,-0.50521 -3.96875,-1.51562c-0.96875,-1.02083 -1.5,-2.41146 -1.59375,-4.17187c-0.02084,-0.20833 -0.03125,-0.47396 -0.03125,-0.79687c0,-0.33333 0.01041,-0.60417 0.03125,-0.8125c0.0625,-1.13541 0.32291,-2.13021 0.78125,-2.98437c0.46875,-0.85416 1.10416,-1.51041 1.90625,-1.96875c0.8125,-0.46875 1.76563,-0.70312 2.85938,-0.70312c1.20834,0 2.22396,0.25521 3.04688,0.76563c0.83334,0.51041 1.46354,1.23959 1.89063,2.1875c0.4375,0.9375 0.65625,2.04167 0.65625,3.3125v0.40625c0,0.17708 -0.05209,0.3125 -0.15625,0.40625c-0.10416,0.09375 -0.23959,0.14063 -0.40625,0.14063h-8.29687c0,0.02083 0,0.05729 0,0.10938c0,0.04167 0,0.07813 0,0.10938c0.03125,0.65625 0.17188,1.27083 0.42188,1.84375c0.26041,0.5625 0.63541,1.02084 1.125,1.375c0.48959,0.35417 1.0625,0.53125 1.71875,0.53125c0.57291,0 1.05209,-0.08854 1.4375,-0.26562c0.38541,-0.17708 0.69791,-0.375 0.9375,-0.59375c0.23959,-0.21875 0.39584,-0.39062 0.46875,-0.51562c0.14584,-0.1875 0.26041,-0.30208 0.34375,-0.34375c0.08334,-0.04167 0.20834,-0.0625 0.375,-0.0625h1.1875c0.14584,0 0.27084,0.04688 0.375,0.14063c0.10416,0.08333 0.14584,0.20313 0.125,0.35938c-0.02084,0.23958 -0.15104,0.53125 -0.39062,0.875c-0.23959,0.34375 -0.57812,0.6875 -1.01562,1.03125c-0.4375,0.33333 -0.98437,0.60938 -1.64062,0.82813c-0.64584,0.20833 -1.375,0.3125 -2.1875,0.3125zM139.46455,196.64244h6.57813v-0.0625c0,-0.71875 -0.13541,-1.35937 -0.40625,-1.92187c-0.26041,-0.5625 -0.64062,-1.00521 -1.14062,-1.32812c-0.48959,-0.33333 -1.07812,-0.5 -1.76562,-0.5c-0.6875,0 -1.27604,0.16667 -1.76562,0.5c-0.48959,0.32292 -0.86459,0.76563 -1.125,1.32813c-0.25,0.5625 -0.375,1.20313 -0.375,1.92188zM151.74827,203.79869c-0.15625,0 -0.28646,-0.05208 -0.39062,-0.15625c-0.10417,-0.10417 -0.15625,-0.23437 -0.15625,-0.39062v-11.375c0,-0.16666 0.05208,-0.30208 0.15625,-0.40625c0.10417,-0.10416 0.23438,-0.15625 0.39063,-0.15625h1.125c0.16667,0 0.30208,0.05208 0.40625,0.15625c0.10417,0.10417 0.15625,0.23959 0.15625,0.40625v1.04688c0.40625,-0.54166 0.92708,-0.98437 1.5625,-1.32812c0.63542,-0.34375 1.44792,-0.51562 2.4375,-0.51562c1.04167,0 1.92708,0.22916 2.65625,0.6875c0.72917,0.44792 1.28125,1.07813 1.65625,1.89063c0.375,0.8125 0.5625,1.75521 0.5625,2.82813v6.76562c0,0.15625 -0.05208,0.28646 -0.15625,0.39063c-0.10417,0.10417 -0.23437,0.15625 -0.39062,0.15625h-1.20312c-0.16667,0 -0.30208,-0.05208 -0.40625,-0.15625c-0.10417,-0.10417 -0.15625,-0.23437 -0.15625,-0.39062v-6.65625c0,-1.11458 -0.27083,-1.98958 -0.8125,-2.625c-0.54167,-0.63542 -1.33854,-0.95312 -2.39062,-0.95312c-1,0 -1.80208,0.31771 -2.40625,0.95313c-0.59375,0.63542 -0.89062,1.51042 -0.89062,2.625v6.65625c0,0.15625 -0.05208,0.28646 -0.15625,0.39063c-0.10417,0.10417 -0.23437,0.15625 -0.39062,0.15625zM175.93782,204.03308c-0.89583,0 -1.66667,-0.10937 -2.3125,-0.32812c-0.63542,-0.22917 -1.15625,-0.5 -1.5625,-0.8125c-0.39583,-0.32292 -0.69271,-0.64583 -0.89062,-0.96875c-0.19792,-0.32292 -0.30208,-0.57812 -0.3125,-0.76562c-0.02083,-0.17708 0.03125,-0.3125 0.15625,-0.40625c0.13542,-0.09375 0.26563,-0.14062 0.39063,-0.14062h1.07813c0.08333,0 0.15104,0.01042 0.20313,0.03125c0.05208,0.02083 0.13021,0.08854 0.23438,0.20313c0.20833,0.22917 0.4375,0.45833 0.6875,0.6875c0.26042,0.21875 0.57813,0.40104 0.95313,0.54688c0.375,0.13542 0.84375,0.20313 1.40625,0.20313c0.8125,0 1.47917,-0.15625 2,-0.46875c0.53125,-0.3125 0.79688,-0.77083 0.79688,-1.375c0,-0.39583 -0.10937,-0.71354 -0.32812,-0.95312c-0.20833,-0.25 -0.58854,-0.46875 -1.14062,-0.65625c-0.55208,-0.1875 -1.30729,-0.38542 -2.26562,-0.59375c-0.95833,-0.22917 -1.71875,-0.50521 -2.28125,-0.82812c-0.5625,-0.33333 -0.96354,-0.72396 -1.20312,-1.17187c-0.23958,-0.45833 -0.35937,-0.97916 -0.35937,-1.5625c0,-0.59375 0.17708,-1.16146 0.53125,-1.70312c0.35417,-0.55209 0.86979,-1.00521 1.54688,-1.35937c0.67708,-0.35417 1.52604,-0.53125 2.54688,-0.53125c0.83333,0 1.54688,0.10416 2.14063,0.3125c0.59375,0.20834 1.08333,0.46875 1.46875,0.78125c0.38542,0.3125 0.67188,0.61979 0.85938,0.92188c0.19792,0.30208 0.30208,0.55729 0.3125,0.76563c0.02083,0.15625 -0.02604,0.28646 -0.14062,0.39063c-0.11458,0.10417 -0.24479,0.15625 -0.39062,0.15625h-1c-0.11458,0 -0.20833,-0.02083 -0.28125,-0.0625c-0.07292,-0.05208 -0.14062,-0.10937 -0.20312,-0.17187c-0.15625,-0.20833 -0.34375,-0.41667 -0.5625,-0.625c-0.21875,-0.20833 -0.5,-0.38021 -0.84375,-0.51562c-0.34375,-0.13542 -0.79687,-0.20312 -1.35937,-0.20312c-0.79167,0 -1.39062,0.17188 -1.79687,0.51563c-0.39583,0.33333 -0.59375,0.75521 -0.59375,1.26563c0,0.30208 0.08854,0.57292 0.26563,0.8125c0.17708,0.23958 0.51042,0.45833 1,0.65625c0.5,0.1875 1.23958,0.39063 2.21875,0.60938c1.05208,0.20833 1.88021,0.48958 2.48438,0.84375c0.61458,0.35417 1.04688,0.76563 1.29688,1.23438c0.26042,0.45833 0.39063,0.98958 0.39063,1.59375c0,0.67709 -0.19271,1.29688 -0.57812,1.85938c-0.38542,0.55208 -0.96354,0.99479 -1.73437,1.32813c-0.76042,0.32292 -1.70312,0.48438 -2.82812,0.48438zM184.41218,203.79869c-0.15625,0 -0.28646,-0.05208 -0.39062,-0.15625c-0.10417,-0.10417 -0.15625,-0.23437 -0.15625,-0.39062v-11.375c0,-0.16666 0.05208,-0.30208 0.15625,-0.40625c0.10417,-0.10416 0.23438,-0.15625 0.39063,-0.15625h1.15625c0.15625,0 0.28646,0.05208 0.39063,0.15625c0.10417,0.10417 0.15625,0.23959 0.15625,0.40625v11.375c0,0.15625 -0.05208,0.28646 -0.15625,0.39063c-0.10417,0.10417 -0.23437,0.15625 -0.39062,0.15625zM184.22468,188.98619c-0.16667,0 -0.30208,-0.05208 -0.40625,-0.15625c-0.10417,-0.10417 -0.15625,-0.23437 -0.15625,-0.39062v-1.29687c0,-0.15625 0.05208,-0.29167 0.15625,-0.40625c0.10417,-0.11458 0.23958,-0.17187 0.40625,-0.17187h1.5c0.16667,0 0.30208,0.05729 0.40625,0.17188c0.11458,0.11458 0.17188,0.25 0.17188,0.40625v1.29688c0,0.15625 -0.05729,0.28646 -0.17187,0.39063c-0.10417,0.10417 -0.23958,0.15625 -0.40625,0.15625zM190.22017,203.79869c-0.15625,0 -0.28646,-0.05208 -0.39062,-0.15625c-0.10417,-0.10417 -0.15625,-0.23437 -0.15625,-0.39062v-11.375c0,-0.16666 0.05208,-0.30208 0.15625,-0.40625c0.10417,-0.10416 0.23438,-0.15625 0.39063,-0.15625h1.125c0.16667,0 0.30208,0.05208 0.40625,0.15625c0.10417,0.10417 0.15625,0.23959 0.15625,0.40625v1.04688c0.40625,-0.54166 0.92708,-0.98437 1.5625,-1.32812c0.63542,-0.34375 1.44792,-0.51562 2.4375,-0.51562c1.04167,0 1.92708,0.22916 2.65625,0.6875c0.72917,0.44792 1.28125,1.07813 1.65625,1.89063c0.375,0.8125 0.5625,1.75521 0.5625,2.82813v6.76562c0,0.15625 -0.05208,0.28646 -0.15625,0.39063c-0.10417,0.10417 -0.23437,0.15625 -0.39062,0.15625h-1.20312c-0.16667,0 -0.30208,-0.05208 -0.40625,-0.15625c-0.10417,-0.10417 -0.15625,-0.23437 -0.15625,-0.39062v-6.65625c0,-1.11458 -0.27083,-1.98958 -0.8125,-2.625c-0.54167,-0.63542 -1.33854,-0.95312 -2.39062,-0.95312c-1,0 -1.80208,0.31771 -2.40625,0.95313c-0.59375,0.63542 -0.89062,1.51042 -0.89062,2.625v6.65625c0,0.15625 -0.05208,0.28646 -0.15625,0.39063c-0.10417,0.10417 -0.23437,0.15625 -0.39062,0.15625zM209.32661,209.07994c-1.09375,0 -1.98958,-0.14584 -2.6875,-0.4375c-0.6875,-0.28125 -1.22917,-0.63021 -1.625,-1.04687c-0.39583,-0.40625 -0.67708,-0.8125 -0.84375,-1.21875c-0.16667,-0.40625 -0.25521,-0.72916 -0.26562,-0.96875c-0.02083,-0.15625 0.02604,-0.29167 0.14063,-0.40625c0.125,-0.11458 0.26042,-0.17187 0.40625,-0.17187h1.15625c0.14583,0 0.26563,0.03125 0.35938,0.09375c0.09375,0.0625 0.17188,0.19792 0.23438,0.40625c0.09375,0.23958 0.23438,0.50521 0.42188,0.79688c0.19792,0.30208 0.49479,0.5625 0.89063,0.78125c0.40625,0.21875 0.96875,0.32813 1.6875,0.32813c0.75,0 1.38021,-0.10417 1.89063,-0.3125c0.52083,-0.20833 0.91146,-0.5625 1.17188,-1.0625c0.26042,-0.5 0.39063,-1.1875 0.39063,-2.0625v-1.625c-0.38542,0.48958 -0.89062,0.90104 -1.51562,1.23438c-0.61458,0.32292 -1.39583,0.48438 -2.34375,0.48438c-0.89583,0 -1.66667,-0.15625 -2.3125,-0.46875c-0.63542,-0.3125 -1.15625,-0.73437 -1.5625,-1.26562c-0.40625,-0.54167 -0.71354,-1.15625 -0.92187,-1.84375c-0.19792,-0.6875 -0.3125,-1.40625 -0.34375,-2.15625c-0.01042,-0.44792 -0.01042,-0.88541 0,-1.3125c0.03125,-0.76041 0.14583,-1.48437 0.34375,-2.17187c0.20833,-0.6875 0.51563,-1.30208 0.92188,-1.84375c0.40625,-0.54166 0.92708,-0.96875 1.5625,-1.28125c0.64583,-0.3125 1.41667,-0.46875 2.3125,-0.46875c0.95833,0 1.75521,0.17708 2.39063,0.53125c0.63542,0.35417 1.15104,0.79167 1.54688,1.3125v-1.03125c0,-0.15625 0.05208,-0.29167 0.15625,-0.40625c0.10417,-0.11458 0.23438,-0.17187 0.39063,-0.17187h1.10938c0.15625,0 0.29167,0.05729 0.40625,0.17188c0.11458,0.11459 0.17188,0.25 0.17188,0.40625v11.64063c0,1.07292 -0.18229,2.02604 -0.54687,2.85938c-0.35417,0.83334 -0.94792,1.48959 -1.78125,1.96875c-0.82292,0.47916 -1.92708,0.71875 -3.3125,0.71875zM209.27974,201.97057c0.80208,0 1.44271,-0.18229 1.92188,-0.54687c0.48958,-0.36458 0.84896,-0.82812 1.07813,-1.39062c0.23958,-0.5625 0.36458,-1.13021 0.375,-1.70312c0.02083,-0.22917 0.03125,-0.50521 0.03125,-0.82812c0,-0.33333 -0.01042,-0.60937 -0.03125,-0.82812c-0.01042,-0.57292 -0.13542,-1.14062 -0.375,-1.70312c-0.22917,-0.5625 -0.58854,-1.02604 -1.07812,-1.39062c-0.47917,-0.375 -1.11979,-0.5625 -1.92187,-0.5625c-0.80208,0 -1.44271,0.18229 -1.92187,0.54688c-0.47917,0.35417 -0.82292,0.82813 -1.03125,1.42188c-0.20833,0.58333 -0.32812,1.20834 -0.35937,1.875c-0.02083,0.41667 -0.02083,0.84375 0,1.28125c0.03125,0.66667 0.15104,1.29166 0.35938,1.875c0.20833,0.58333 0.55208,1.05729 1.03125,1.42188c0.47917,0.35417 1.11979,0.53125 1.92188,0.53125zM219.1233,203.79869c-0.16667,0 -0.30208,-0.05208 -0.40625,-0.15625c-0.10417,-0.10417 -0.15625,-0.23437 -0.15625,-0.39062v-15.9375c0,-0.16667 0.05208,-0.30208 0.15625,-0.40625c0.10417,-0.10417 0.23958,-0.15625 0.40625,-0.15625h1.125c0.17708,0 0.3125,0.05208 0.40625,0.15625c0.09375,0.10417 0.14063,0.23958 0.14063,0.40625v15.9375c0,0.15625 -0.04687,0.28646 -0.14062,0.39063c-0.09375,0.10417 -0.22917,0.15625 -0.40625,0.15625zM229.36158,204.03308c-1.66667,0 -2.98958,-0.50521 -3.96875,-1.51562c-0.96875,-1.02083 -1.5,-2.41146 -1.59375,-4.17187c-0.02083,-0.20833 -0.03125,-0.47396 -0.03125,-0.79687c0,-0.33333 0.01042,-0.60417 0.03125,-0.8125c0.0625,-1.13541 0.32292,-2.13021 0.78125,-2.98437c0.46875,-0.85416 1.10417,-1.51041 1.90625,-1.96875c0.8125,-0.46875 1.76563,-0.70312 2.85938,-0.70312c1.20833,0 2.22396,0.25521 3.04688,0.76563c0.83333,0.51041 1.46354,1.23959 1.89063,2.1875c0.4375,0.9375 0.65625,2.04167 0.65625,3.3125v0.40625c0,0.17708 -0.05208,0.3125 -0.15625,0.40625c-0.10417,0.09375 -0.23958,0.14063 -0.40625,0.14063h-8.29687c0,0.02083 0,0.05729 0,0.10938c0,0.04167 0,0.07813 0,0.10938c0.03125,0.65625 0.17188,1.27083 0.42188,1.84375c0.26042,0.5625 0.63542,1.02084 1.125,1.375c0.48958,0.35417 1.0625,0.53125 1.71875,0.53125c0.57292,0 1.05208,-0.08854 1.4375,-0.26562c0.38542,-0.17708 0.69792,-0.375 0.9375,-0.59375c0.23958,-0.21875 0.39583,-0.39062 0.46875,-0.51562c0.14583,-0.1875 0.26042,-0.30208 0.34375,-0.34375c0.08333,-0.04167 0.20833,-0.0625 0.375,-0.0625h1.1875c0.14583,0 0.27083,0.04688 0.375,0.14063c0.10417,0.08333 0.14583,0.20313 0.125,0.35938c-0.02083,0.23958 -0.15104,0.53125 -0.39062,0.875c-0.23958,0.34375 -0.57812,0.6875 -1.01562,1.03125c-0.4375,0.33333 -0.98437,0.60938 -1.64062,0.82813c-0.64583,0.20833 -1.375,0.3125 -2.1875,0.3125zM226.08033,196.64244h6.57813v-0.0625c0,-0.71875 -0.13542,-1.35937 -0.40625,-1.92187c-0.26042,-0.5625 -0.64062,-1.00521 -1.14062,-1.32812c-0.48958,-0.33333 -1.07812,-0.5 -1.76562,-0.5c-0.6875,0 -1.27604,0.16667 -1.76562,0.5c-0.48958,0.32292 -0.86458,0.76563 -1.125,1.32813c-0.25,0.5625 -0.375,1.20313 -0.375,1.92188zM238.39528,208.36119c-0.16667,0 -0.30208,-0.05209 -0.40625,-0.15625c-0.10417,-0.10416 -0.15625,-0.23437 -0.15625,-0.39062v-15.9375c0,-0.16666 0.05208,-0.30208 0.15625,-0.40625c0.10417,-0.10416 0.23958,-0.15625 0.40625,-0.15625h1.09375c0.16667,0 0.30208,0.05208 0.40625,0.15625c0.10417,0.10417 0.15625,0.23959 0.15625,0.40625v1.04688c0.375,-0.52084 0.88021,-0.95833 1.51563,-1.3125c0.64583,-0.35417 1.44792,-0.53125 2.40625,-0.53125c0.89583,0 1.66146,0.15104 2.29688,0.45313c0.63542,0.30209 1.15625,0.71875 1.5625,1.25c0.40625,0.53125 0.71354,1.13542 0.92188,1.8125c0.20833,0.66667 0.32813,1.38021 0.35938,2.14063c0.02083,0.26042 0.03125,0.53646 0.03125,0.82813c0,0.28125 -0.01042,0.55208 -0.03125,0.8125c-0.03125,0.75 -0.15104,1.46875 -0.35937,2.15625c-0.20833,0.67709 -0.51562,1.27604 -0.92187,1.79688c-0.40625,0.51042 -0.92708,0.92188 -1.5625,1.23438c-0.63542,0.3125 -1.40104,0.46875 -2.29687,0.46875c-0.92708,0 -1.70833,-0.17187 -2.34375,-0.51562c-0.625,-0.34375 -1.13542,-0.77083 -1.53125,-1.28125v5.57813c0,0.15625 -0.05208,0.28646 -0.15625,0.39063c-0.09375,0.10416 -0.21875,0.15625 -0.375,0.15625zM243.4734,202.09557c0.83333,0 1.48438,-0.17708 1.95313,-0.53125c0.47917,-0.36458 0.82292,-0.83854 1.03125,-1.42187c0.20833,-0.58333 0.32813,-1.21354 0.35938,-1.89062c0.01042,-0.45833 0.01042,-0.92187 0,-1.39062c-0.03125,-0.66666 -0.15104,-1.29166 -0.35937,-1.875c-0.20833,-0.59375 -0.55208,-1.06771 -1.03125,-1.42187c-0.46875,-0.36458 -1.11979,-0.54687 -1.95312,-0.54687c-0.78125,0 -1.41667,0.1875 -1.90625,0.5625c-0.48958,0.36458 -0.84896,0.83334 -1.07812,1.40625c-0.22917,0.5625 -0.35937,1.14063 -0.39062,1.73438c-0.02083,0.25 -0.03125,0.55208 -0.03125,0.90625c0,0.35417 0.01042,0.66667 0.03125,0.9375c0.01042,0.5625 0.14063,1.11458 0.39063,1.65625c0.25,0.54167 0.61979,0.98959 1.10938,1.34375c0.5,0.35417 1.125,0.53125 1.875,0.53125zM252.69923,203.79869c-0.16667,0 -0.30208,-0.05208 -0.40625,-0.15625c-0.10417,-0.10417 -0.15625,-0.23437 -0.15625,-0.39062v-15.9375c0,-0.16667 0.05208,-0.30208 0.15625,-0.40625c0.10417,-0.10417 0.23958,-0.15625 0.40625,-0.15625h1.125c0.17708,0 0.3125,0.05208 0.40625,0.15625c0.09375,0.10417 0.14063,0.23958 0.14063,0.40625v15.9375c0,0.15625 -0.04687,0.28646 -0.14062,0.39063c-0.09375,0.10417 -0.22917,0.15625 -0.40625,0.15625zM261.42183,204.03308c-0.79167,0 -1.51562,-0.15625 -2.17187,-0.46875c-0.65625,-0.32292 -1.1875,-0.75521 -1.59375,-1.29687c-0.39583,-0.55208 -0.59375,-1.17187 -0.59375,-1.85937c0,-1.10416 0.44792,-1.98437 1.34375,-2.64062c0.89583,-0.65625 2.0625,-1.08333 3.5,-1.28125l3.57813,-0.51562v-0.6875c0,-0.77083 -0.22396,-1.36979 -0.67187,-1.79687c-0.4375,-0.4375 -1.15104,-0.65625 -2.14062,-0.65625c-0.69792,0 -1.27083,0.14583 -1.71875,0.4375c-0.44792,0.28125 -0.76042,0.64583 -0.9375,1.09375c-0.09375,0.23958 -0.26042,0.35938 -0.5,0.35938h-1.09375c-0.17708,0 -0.30729,-0.05208 -0.39062,-0.15625c-0.08333,-0.10417 -0.125,-0.22396 -0.125,-0.35937c0,-0.23958 0.08854,-0.53646 0.26563,-0.89062c0.1875,-0.35417 0.47396,-0.69791 0.85938,-1.03125c0.38542,-0.34375 0.875,-0.63021 1.46875,-0.85937c0.60417,-0.22916 1.33854,-0.34375 2.20313,-0.34375c0.95833,0 1.76563,0.125 2.42188,0.375c0.65625,0.25 1.17188,0.58334 1.54688,1c0.375,0.40625 0.64583,0.875 0.8125,1.40625c0.16667,0.53125 0.25,1.06771 0.25,1.60938v7.78125c0,0.15625 -0.05208,0.28646 -0.15625,0.39063c-0.10417,0.10417 -0.23437,0.15625 -0.39062,0.15625h-1.10937c-0.17708,0 -0.3125,-0.05208 -0.40625,-0.15625c-0.09375,-0.10417 -0.14062,-0.23437 -0.14062,-0.39062v-1.03125c-0.20833,0.28125 -0.48958,0.5625 -0.84375,0.84375c-0.35417,0.28125 -0.79687,0.51563 -1.32812,0.70313c-0.52083,0.17708 -1.16667,0.26563 -1.9375,0.26563zM261.93745,202.23619c0.65625,0 1.25521,-0.14062 1.79688,-0.42187c0.54167,-0.28125 0.96875,-0.71354 1.28125,-1.29687c0.3125,-0.59375 0.46875,-1.33854 0.46875,-2.23437v-0.67187l-2.78125,0.40625c-1.13542,0.15625 -1.99479,0.42188 -2.57812,0.79688c-0.57292,0.375 -0.85937,0.85416 -0.85937,1.4375c0,0.44792 0.13021,0.82292 0.39063,1.125c0.27083,0.29167 0.60938,0.51042 1.01563,0.65625c0.40625,0.13542 0.82813,0.20313 1.26563,0.20313zM273.1089,208.36119c-0.125,0 -0.23437,-0.05209 -0.32812,-0.15625c-0.09375,-0.09375 -0.14062,-0.20312 -0.14062,-0.32812c0,-0.0625 0.00521,-0.125 0.01563,-0.1875c0.02083,-0.0625 0.05208,-0.14583 0.09375,-0.25l1.85938,-4.39062l-4.59375,-10.8125c-0.07292,-0.19791 -0.10937,-0.33333 -0.10937,-0.40625c0,-0.14583 0.04688,-0.26562 0.14063,-0.35937c0.09375,-0.10416 0.21354,-0.15625 0.35938,-0.15625h1.17188c0.17708,0 0.30208,0.04167 0.375,0.125c0.08333,0.08334 0.15104,0.17709 0.20313,0.28125l3.64063,8.73438l3.75,-8.73437c0.05208,-0.10416 0.11979,-0.19792 0.20313,-0.28125c0.09375,-0.08333 0.22396,-0.125 0.39063,-0.125h1.14063c0.14583,0 0.26563,0.05208 0.35938,0.15625c0.09375,0.09375 0.14063,0.20313 0.14063,0.32813c0,0.08334 -0.04167,0.22916 -0.125,0.4375l-6.8125,15.71875c-0.05208,0.10416 -0.11979,0.19791 -0.20312,0.28125c-0.08333,0.08334 -0.21354,0.125 -0.39062,0.125zM288.73738,204.03308c-1.66667,0 -2.98958,-0.50521 -3.96875,-1.51562c-0.96875,-1.02083 -1.5,-2.41146 -1.59375,-4.17187c-0.02083,-0.20833 -0.03125,-0.47396 -0.03125,-0.79687c0,-0.33333 0.01042,-0.60417 0.03125,-0.8125c0.0625,-1.13541 0.32292,-2.13021 0.78125,-2.98437c0.46875,-0.85416 1.10417,-1.51041 1.90625,-1.96875c0.8125,-0.46875 1.76563,-0.70312 2.85938,-0.70312c1.20833,0 2.22396,0.25521 3.04688,0.76563c0.83333,0.51041 1.46354,1.23959 1.89063,2.1875c0.4375,0.9375 0.65625,2.04167 0.65625,3.3125v0.40625c0,0.17708 -0.05208,0.3125 -0.15625,0.40625c-0.10417,0.09375 -0.23958,0.14063 -0.40625,0.14063h-8.29687c0,0.02083 0,0.05729 0,0.10938c0,0.04167 0,0.07813 0,0.10938c0.03125,0.65625 0.17188,1.27083 0.42188,1.84375c0.26042,0.5625 0.63542,1.02084 1.125,1.375c0.48958,0.35417 1.0625,0.53125 1.71875,0.53125c0.57292,0 1.05208,-0.08854 1.4375,-0.26562c0.38542,-0.17708 0.69792,-0.375 0.9375,-0.59375c0.23958,-0.21875 0.39583,-0.39062 0.46875,-0.51562c0.14583,-0.1875 0.26042,-0.30208 0.34375,-0.34375c0.08333,-0.04167 0.20833,-0.0625 0.375,-0.0625h1.1875c0.14583,0 0.27083,0.04688 0.375,0.14063c0.10417,0.08333 0.14583,0.20313 0.125,0.35938c-0.02083,0.23958 -0.15104,0.53125 -0.39062,0.875c-0.23958,0.34375 -0.57812,0.6875 -1.01562,1.03125c-0.4375,0.33333 -0.98437,0.60938 -1.64062,0.82813c-0.64583,0.20833 -1.375,0.3125 -2.1875,0.3125zM285.45613,196.64244h6.57813v-0.0625c0,-0.71875 -0.13542,-1.35937 -0.40625,-1.92187c-0.26042,-0.5625 -0.64062,-1.00521 -1.14062,-1.32812c-0.48958,-0.33333 -1.07812,-0.5 -1.76562,-0.5c-0.6875,0 -1.27604,0.16667 -1.76562,0.5c-0.48958,0.32292 -0.86458,0.76563 -1.125,1.32813c-0.25,0.5625 -0.375,1.20313 -0.375,1.92188zM297.73982,203.79869c-0.15625,0 -0.28646,-0.05208 -0.39062,-0.15625c-0.10417,-0.10417 -0.15625,-0.23437 -0.15625,-0.39062v-11.35937c0,-0.15625 0.05208,-0.29167 0.15625,-0.40625c0.10417,-0.11458 0.23438,-0.17187 0.39063,-0.17187h1.10938c0.15625,0 0.29167,0.05729 0.40625,0.17188c0.11458,0.11459 0.17188,0.25 0.17188,0.40625v1.0625c0.3125,-0.54166 0.75,-0.94791 1.3125,-1.21875c0.5625,-0.28125 1.24479,-0.42187 2.04688,-0.42187h0.92188c0.16667,0 0.30208,0.05208 0.40625,0.15625c0.10417,0.10417 0.15625,0.23959 0.15625,0.40625v0.98438c0,0.15625 -0.05208,0.28125 -0.15625,0.375c-0.10417,0.09375 -0.23958,0.14063 -0.40625,0.14063h-1.4375c-0.86458,0 -1.54687,0.25521 -2.04687,0.76563c-0.48958,0.5 -0.73437,1.18229 -0.73437,2.04688v7.0625c0,0.15625 -0.05729,0.28646 -0.17187,0.39063c-0.10417,0.10417 -0.23958,0.15625 -0.40625,0.15625zM315.95338,204.03308c-0.89583,0 -1.66667,-0.10937 -2.3125,-0.32812c-0.63542,-0.22917 -1.15625,-0.5 -1.5625,-0.8125c-0.39583,-0.32292 -0.69271,-0.64583 -0.89062,-0.96875c-0.19792,-0.32292 -0.30208,-0.57812 -0.3125,-0.76562c-0.02083,-0.17708 0.03125,-0.3125 0.15625,-0.40625c0.13542,-0.09375 0.26563,-0.14062 0.39063,-0.14062h1.07813c0.08333,0 0.15104,0.01042 0.20313,0.03125c0.05208,0.02083 0.13021,0.08854 0.23438,0.20313c0.20833,0.22917 0.4375,0.45833 0.6875,0.6875c0.26042,0.21875 0.57813,0.40104 0.95313,0.54688c0.375,0.13542 0.84375,0.20313 1.40625,0.20313c0.8125,0 1.47917,-0.15625 2,-0.46875c0.53125,-0.3125 0.79688,-0.77083 0.79688,-1.375c0,-0.39583 -0.10937,-0.71354 -0.32812,-0.95312c-0.20833,-0.25 -0.58854,-0.46875 -1.14062,-0.65625c-0.55208,-0.1875 -1.30729,-0.38542 -2.26562,-0.59375c-0.95833,-0.22917 -1.71875,-0.50521 -2.28125,-0.82812c-0.5625,-0.33333 -0.96354,-0.72396 -1.20312,-1.17187c-0.23958,-0.45833 -0.35937,-0.97916 -0.35937,-1.5625c0,-0.59375 0.17708,-1.16146 0.53125,-1.70312c0.35417,-0.55209 0.86979,-1.00521 1.54688,-1.35937c0.67708,-0.35417 1.52604,-0.53125 2.54688,-0.53125c0.83333,0 1.54688,0.10416 2.14063,0.3125c0.59375,0.20834 1.08333,0.46875 1.46875,0.78125c0.38542,0.3125 0.67188,0.61979 0.85938,0.92188c0.19792,0.30208 0.30208,0.55729 0.3125,0.76563c0.02083,0.15625 -0.02604,0.28646 -0.14062,0.39063c-0.11458,0.10417 -0.24479,0.15625 -0.39062,0.15625h-1c-0.11458,0 -0.20833,-0.02083 -0.28125,-0.0625c-0.07292,-0.05208 -0.14062,-0.10937 -0.20312,-0.17187c-0.15625,-0.20833 -0.34375,-0.41667 -0.5625,-0.625c-0.21875,-0.20833 -0.5,-0.38021 -0.84375,-0.51562c-0.34375,-0.13542 -0.79687,-0.20312 -1.35937,-0.20312c-0.79167,0 -1.39062,0.17188 -1.79687,0.51563c-0.39583,0.33333 -0.59375,0.75521 -0.59375,1.26563c0,0.30208 0.08854,0.57292 0.26563,0.8125c0.17708,0.23958 0.51042,0.45833 1,0.65625c0.5,0.1875 1.23958,0.39063 2.21875,0.60938c1.05208,0.20833 1.88021,0.48958 2.48438,0.84375c0.61458,0.35417 1.04688,0.76563 1.29688,1.23438c0.26042,0.45833 0.39063,0.98958 0.39063,1.59375c0,0.67709 -0.19271,1.29688 -0.57812,1.85938c-0.38542,0.55208 -0.96354,0.99479 -1.73437,1.32813c-0.76042,0.32292 -1.70312,0.48438 -2.82812,0.48438zM328.86525,204.03308c-1.66667,0 -2.98958,-0.50521 -3.96875,-1.51562c-0.96875,-1.02083 -1.5,-2.41146 -1.59375,-4.17187c-0.02083,-0.20833 -0.03125,-0.47396 -0.03125,-0.79687c0,-0.33333 0.01042,-0.60417 0.03125,-0.8125c0.0625,-1.13541 0.32292,-2.13021 0.78125,-2.98437c0.46875,-0.85416 1.10417,-1.51041 1.90625,-1.96875c0.8125,-0.46875 1.76563,-0.70312 2.85938,-0.70312c1.20833,0 2.22396,0.25521 3.04688,0.76563c0.83333,0.51041 1.46354,1.23959 1.89063,2.1875c0.4375,0.9375 0.65625,2.04167 0.65625,3.3125v0.40625c0,0.17708 -0.05208,0.3125 -0.15625,0.40625c-0.10417,0.09375 -0.23958,0.14063 -0.40625,0.14063h-8.29687c0,0.02083 0,0.05729 0,0.10938c0,0.04167 0,0.07813 0,0.10938c0.03125,0.65625 0.17188,1.27083 0.42188,1.84375c0.26042,0.5625 0.63542,1.02084 1.125,1.375c0.48958,0.35417 1.0625,0.53125 1.71875,0.53125c0.57292,0 1.05208,-0.08854 1.4375,-0.26562c0.38542,-0.17708 0.69792,-0.375 0.9375,-0.59375c0.23958,-0.21875 0.39583,-0.39062 0.46875,-0.51562c0.14583,-0.1875 0.26042,-0.30208 0.34375,-0.34375c0.08333,-0.04167 0.20833,-0.0625 0.375,-0.0625h1.1875c0.14583,0 0.27083,0.04688 0.375,0.14063c0.10417,0.08333 0.14583,0.20313 0.125,0.35938c-0.02083,0.23958 -0.15104,0.53125 -0.39062,0.875c-0.23958,0.34375 -0.57812,0.6875 -1.01562,1.03125c-0.4375,0.33333 -0.98437,0.60938 -1.64062,0.82813c-0.64583,0.20833 -1.375,0.3125 -2.1875,0.3125zM325.584,196.64244h6.57813v-0.0625c0,-0.71875 -0.13542,-1.35937 -0.40625,-1.92187c-0.26042,-0.5625 -0.64062,-1.00521 -1.14062,-1.32812c-0.48958,-0.33333 -1.07812,-0.5 -1.76562,-0.5c-0.6875,0 -1.27604,0.16667 -1.76562,0.5c-0.48958,0.32292 -0.86458,0.76563 -1.125,1.32813c-0.25,0.5625 -0.375,1.20313 -0.375,1.92188zM342.35206,204.03308c-1.13542,0 -2.11458,-0.21875 -2.9375,-0.65625c-0.82292,-0.4375 -1.45833,-1.06771 -1.90625,-1.89062c-0.44792,-0.82291 -0.6875,-1.8125 -0.71875,-2.96875c-0.02083,-0.23958 -0.03125,-0.55729 -0.03125,-0.95312c0,-0.40625 0.01042,-0.72916 0.03125,-0.96875c0.03125,-1.14583 0.27083,-2.13021 0.71875,-2.95312c0.44792,-0.83333 1.08333,-1.46875 1.90625,-1.90625c0.82292,-0.4375 1.80208,-0.65625 2.9375,-0.65625c0.92708,0 1.72396,0.13021 2.39063,0.39062c0.66667,0.25 1.21354,0.57813 1.64063,0.98438c0.4375,0.39583 0.76042,0.82813 0.96875,1.29688c0.21875,0.45833 0.33854,0.89584 0.35938,1.3125c0.01042,0.15625 -0.04167,0.28646 -0.15625,0.39063c-0.10417,0.09375 -0.23958,0.14063 -0.40625,0.14063h-1.14062c-0.16667,0 -0.29167,-0.03646 -0.375,-0.10937c-0.07292,-0.07292 -0.15104,-0.19792 -0.23437,-0.375c-0.28125,-0.78125 -0.67187,-1.33333 -1.17187,-1.65625c-0.5,-0.32292 -1.11458,-0.48437 -1.84375,-0.48437c-0.95833,0 -1.73958,0.29688 -2.34375,0.89063c-0.60417,0.59375 -0.92708,1.54688 -0.96875,2.85938c-0.02083,0.57292 -0.02083,1.13021 0,1.67188c0.04167,1.33334 0.36458,2.29166 0.96875,2.875c0.60417,0.58333 1.38542,0.875 2.34375,0.875c0.72917,0 1.34375,-0.15625 1.84375,-0.46875c0.5,-0.32292 0.89063,-0.88021 1.17188,-1.67187c0.08333,-0.17708 0.16146,-0.30208 0.23438,-0.375c0.08333,-0.08333 0.20833,-0.125 0.375,-0.125h1.14063c0.16667,0 0.30208,0.05208 0.40625,0.15625c0.11458,0.10416 0.16667,0.23437 0.15625,0.39062c-0.02083,0.34375 -0.09375,0.69271 -0.21875,1.04688c-0.125,0.34375 -0.32812,0.69792 -0.60937,1.0625c-0.28125,0.35417 -0.63021,0.67188 -1.04687,0.95313c-0.41667,0.28125 -0.91667,0.50521 -1.5,0.67188c-0.57292,0.16667 -1.23437,0.25 -1.98437,0.25zM355.42817,203.79869c-0.89583,0 -1.625,-0.17187 -2.1875,-0.51562c-0.55208,-0.34375 -0.95833,-0.82812 -1.21875,-1.45312c-0.25,-0.63542 -0.375,-1.38541 -0.375,-2.25v-6.34375h-1.875c-0.15625,0 -0.28646,-0.05208 -0.39062,-0.15625c-0.10417,-0.10417 -0.15625,-0.23437 -0.15625,-0.39062v-0.8125c0,-0.16666 0.05208,-0.30208 0.15625,-0.40625c0.10417,-0.10416 0.23438,-0.15625 0.39063,-0.15625h1.875v-4c0,-0.16667 0.05208,-0.30208 0.15625,-0.40625c0.10417,-0.10417 0.23438,-0.15625 0.39063,-0.15625h1.125c0.16667,0 0.30208,0.05208 0.40625,0.15625c0.10417,0.10417 0.15625,0.23958 0.15625,0.40625v4h2.96875c0.17708,0 0.3125,0.05208 0.40625,0.15625c0.09375,0.10417 0.14063,0.23959 0.14063,0.40625v0.8125c0,0.15625 -0.04687,0.28646 -0.14062,0.39063c-0.09375,0.10417 -0.22917,0.15625 -0.40625,0.15625h-2.96875v6.17188c0,0.75 0.125,1.34375 0.375,1.78125c0.26042,0.42708 0.71875,0.64063 1.375,0.64063h1.45313c0.16667,0 0.30208,0.05208 0.40625,0.15625c0.10417,0.10417 0.15625,0.23438 0.15625,0.39063v0.875c0,0.15625 -0.05208,0.28646 -0.15625,0.39063c-0.10417,0.10417 -0.23958,0.15625 -0.40625,0.15625zM360.49964,203.79869c-0.15625,0 -0.28646,-0.05208 -0.39062,-0.15625c-0.10417,-0.10417 -0.15625,-0.23437 -0.15625,-0.39062v-11.375c0,-0.16666 0.05208,-0.30208 0.15625,-0.40625c0.10417,-0.10416 0.23438,-0.15625 0.39063,-0.15625h1.15625c0.15625,0 0.28646,0.05208 0.39063,0.15625c0.10417,0.10417 0.15625,0.23959 0.15625,0.40625v11.375c0,0.15625 -0.05208,0.28646 -0.15625,0.39063c-0.10417,0.10417 -0.23437,0.15625 -0.39062,0.15625zM360.31214,188.98619c-0.16667,0 -0.30208,-0.05208 -0.40625,-0.15625c-0.10417,-0.10417 -0.15625,-0.23437 -0.15625,-0.39062v-1.29687c0,-0.15625 0.05208,-0.29167 0.15625,-0.40625c0.10417,-0.11458 0.23958,-0.17187 0.40625,-0.17187h1.5c0.16667,0 0.30208,0.05729 0.40625,0.17188c0.11458,0.11458 0.17188,0.25 0.17188,0.40625v1.29688c0,0.15625 -0.05729,0.28646 -0.17187,0.39063c-0.10417,0.10417 -0.23958,0.15625 -0.40625,0.15625zM370.87013,204.03308c-1.21875,0 -2.23958,-0.22917 -3.0625,-0.6875c-0.8125,-0.46875 -1.4375,-1.11458 -1.875,-1.9375c-0.42708,-0.82291 -0.66146,-1.76041 -0.70312,-2.8125c-0.02083,-0.27083 -0.03125,-0.61979 -0.03125,-1.04687c0,-0.42708 0.01042,-0.76562 0.03125,-1.01562c0.04167,-1.07291 0.28125,-2.01562 0.71875,-2.82812c0.44792,-0.82291 1.07813,-1.46354 1.89063,-1.92187c0.82292,-0.46875 1.83333,-0.70312 3.03125,-0.70312c1.19792,0 2.20313,0.23437 3.01563,0.70313c0.82292,0.45834 1.45313,1.09896 1.89063,1.92188c0.4375,0.8125 0.68229,1.75521 0.73438,2.82813c0.01042,0.25 0.01563,0.58854 0.01563,1.01563c0,0.42708 -0.00521,0.77604 -0.01562,1.04688c-0.05208,1.05209 -0.29687,1.98958 -0.73437,2.8125c-0.42708,0.82292 -1.04687,1.46875 -1.85937,1.9375c-0.8125,0.45833 -1.82812,0.6875 -3.04687,0.6875zM370.87013,202.18932c0.98958,0 1.78125,-0.3125 2.375,-0.9375c0.59375,-0.63542 0.91146,-1.5625 0.95313,-2.78125c0.02083,-0.23958 0.03125,-0.54167 0.03125,-0.90625c0,-0.375 -0.01042,-0.68229 -0.03125,-0.92187c-0.04167,-1.20833 -0.35937,-2.13021 -0.95312,-2.76562c-0.59375,-0.63542 -1.38542,-0.95312 -2.375,-0.95312c-0.98958,0 -1.78646,0.31771 -2.39062,0.95313c-0.60417,0.63542 -0.92187,1.55729 -0.95312,2.76563c-0.01042,0.23958 -0.01562,0.54688 -0.01562,0.92188c0,0.36458 0.00521,0.66667 0.01563,0.90625c0.03125,1.21875 0.34896,2.14583 0.95313,2.78125c0.60417,0.625 1.40104,0.9375 2.39063,0.9375zM380.08357,203.79869c-0.15625,0 -0.28646,-0.05208 -0.39062,-0.15625c-0.10417,-0.10417 -0.15625,-0.23437 -0.15625,-0.39062v-11.375c0,-0.16666 0.05208,-0.30208 0.15625,-0.40625c0.10417,-0.10416 0.23438,-0.15625 0.39063,-0.15625h1.125c0.16667,0 0.30208,0.05208 0.40625,0.15625c0.10417,0.10417 0.15625,0.23959 0.15625,0.40625v1.04688c0.40625,-0.54166 0.92708,-0.98437 1.5625,-1.32812c0.63542,-0.34375 1.44792,-0.51562 2.4375,-0.51562c1.04167,0 1.92708,0.22916 2.65625,0.6875c0.72917,0.44792 1.28125,1.07813 1.65625,1.89063c0.375,0.8125 0.5625,1.75521 0.5625,2.82813v6.76562c0,0.15625 -0.05208,0.28646 -0.15625,0.39063c-0.10417,0.10417 -0.23437,0.15625 -0.39062,0.15625h-1.20312c-0.16667,0 -0.30208,-0.05208 -0.40625,-0.15625c-0.10417,-0.10417 -0.15625,-0.23437 -0.15625,-0.39062v-6.65625c0,-1.11458 -0.27083,-1.98958 -0.8125,-2.625c-0.54167,-0.63542 -1.33854,-0.95312 -2.39062,-0.95312c-1,0 -1.80208,0.31771 -2.40625,0.95313c-0.59375,0.63542 -0.89062,1.51042 -0.89062,2.625v6.65625c0,0.15625 -0.05208,0.28646 -0.15625,0.39063c-0.10417,0.10417 -0.23437,0.15625 -0.39062,0.15625zM398.39314,204.03308c-0.89583,0 -1.66667,-0.10937 -2.3125,-0.32812c-0.63542,-0.22917 -1.15625,-0.5 -1.5625,-0.8125c-0.39583,-0.32292 -0.69271,-0.64583 -0.89062,-0.96875c-0.19792,-0.32292 -0.30208,-0.57812 -0.3125,-0.76562c-0.02083,-0.17708 0.03125,-0.3125 0.15625,-0.40625c0.13542,-0.09375 0.26563,-0.14062 0.39063,-0.14062h1.07813c0.08333,0 0.15104,0.01042 0.20313,0.03125c0.05208,0.02083 0.13021,0.08854 0.23438,0.20313c0.20833,0.22917 0.4375,0.45833 0.6875,0.6875c0.26042,0.21875 0.57813,0.40104 0.95313,0.54688c0.375,0.13542 0.84375,0.20313 1.40625,0.20313c0.8125,0 1.47917,-0.15625 2,-0.46875c0.53125,-0.3125 0.79688,-0.77083 0.79688,-1.375c0,-0.39583 -0.10937,-0.71354 -0.32812,-0.95312c-0.20833,-0.25 -0.58854,-0.46875 -1.14062,-0.65625c-0.55208,-0.1875 -1.30729,-0.38542 -2.26562,-0.59375c-0.95833,-0.22917 -1.71875,-0.50521 -2.28125,-0.82812c-0.5625,-0.33333 -0.96354,-0.72396 -1.20312,-1.17187c-0.23958,-0.45833 -0.35937,-0.97916 -0.35937,-1.5625c0,-0.59375 0.17708,-1.16146 0.53125,-1.70312c0.35417,-0.55209 0.86979,-1.00521 1.54688,-1.35937c0.67708,-0.35417 1.52604,-0.53125 2.54688,-0.53125c0.83333,0 1.54688,0.10416 2.14063,0.3125c0.59375,0.20834 1.08333,0.46875 1.46875,0.78125c0.38542,0.3125 0.67188,0.61979 0.85938,0.92188c0.19792,0.30208 0.30208,0.55729 0.3125,0.76563c0.02083,0.15625 -0.02604,0.28646 -0.14062,0.39063c-0.11458,0.10417 -0.24479,0.15625 -0.39062,0.15625h-1c-0.11458,0 -0.20833,-0.02083 -0.28125,-0.0625c-0.07292,-0.05208 -0.14062,-0.10937 -0.20312,-0.17187c-0.15625,-0.20833 -0.34375,-0.41667 -0.5625,-0.625c-0.21875,-0.20833 -0.5,-0.38021 -0.84375,-0.51562c-0.34375,-0.13542 -0.79687,-0.20312 -1.35937,-0.20312c-0.79167,0 -1.39062,0.17188 -1.79687,0.51563c-0.39583,0.33333 -0.59375,0.75521 -0.59375,1.26563c0,0.30208 0.08854,0.57292 0.26563,0.8125c0.17708,0.23958 0.51042,0.45833 1,0.65625c0.5,0.1875 1.23958,0.39063 2.21875,0.60938c1.05208,0.20833 1.88021,0.48958 2.48438,0.84375c0.61458,0.35417 1.04688,0.76563 1.29688,1.23438c0.26042,0.45833 0.39063,0.98958 0.39063,1.59375c0,0.67709 -0.19271,1.29688 -0.57812,1.85938c-0.38542,0.55208 -0.96354,0.99479 -1.73437,1.32813c-0.76042,0.32292 -1.70312,0.48438 -2.82812,0.48438z" fill="#ffffff" stroke-width="1" stroke-linecap="square" stroke-linejoin="miter"/></g></g></svg>