<svg version="1.1" xmlns="http://www.w3.org/2000/svg" xmlns:xlink="http://www.w3.org/1999/xlink" width="134" height="134" viewBox="0,0,134,134"><g transform="translate(-173,-113)"><g data-paper-data="{&quot;isPaintingLayer&quot;:true}" fill-rule="nonzero" stroke-linecap="butt" stroke-linejoin="miter" stroke-miterlimit="10" stroke-dasharray="" stroke-dashoffset="0" style="mix-blend-mode: normal"><path d="M203.17659,185.82862c-0.74933,-4.2373 5.52849,-13.84859 11.23365,-14.85748c5.64749,-0.99871 36.85105,-6.17426 46.60697,-7.89947c7.5164,-1.3292 14.89848,5.86652 15.64777,10.10379c0.7776,4.39723 -2.06459,14.22614 -8.18375,15.30825c-10.65969,1.88505 -45.17605,7.64644 -51.4072,8.74833c-5.0649,0.89567 -13.11985,-7.00618 -13.89742,-11.40343z" fill="#59c059" stroke="#ffffff" stroke-width="5"/><path d="M203.17658,185.82862c-0.74933,-4.2373 5.52849,-13.84859 11.23365,-14.85748c5.64749,-0.99871 36.85105,-6.17426 46.60697,-7.89947c7.5164,-1.3292 14.89848,5.86652 15.64777,10.10379c0.7776,4.39723 -2.06459,14.22614 -8.18375,15.30825c-10.65969,1.88505 -45.17605,7.64644 -51.4072,8.74833c-5.0649,0.89567 -13.11985,-7.00618 -13.89742,-11.40343z" fill="#59c059" stroke="none" stroke-width="0"/><path d="M208.6545,185.97549c-0.42849,-2.42299 3.16132,-7.91895 6.42367,-8.49585c3.22936,-0.57108 7.13213,-1.31981 12.71079,-2.30633c4.29805,-0.76007 8.51931,3.35461 8.94776,5.77759c0.44464,2.51444 -1.18058,8.13485 -4.67966,8.75362c-6.09546,1.07792 -11.89256,2.16164 -15.45568,2.79172c-2.89623,0.51217 -7.50224,-4.0063 -7.94687,-6.52075z" fill="#ffffff" stroke="none" stroke-width="0"/><path d="M249.89058,179.37663c0,0 -1.70833,4.39136 -4.6122,4.51759c-4.87253,0.21183 -6.14398,-3.37268 -6.14398,-3.37268c0,0 2.16208,0.35826 5.03282,-0.09701c2.87072,-0.45527 5.72338,-1.04789 5.72338,-1.04789z" fill="#ffffff" stroke="none" stroke-width="0"/><path d="M271.1114,175.31152c0.33889,2.33486 -1.50765,7.47791 -3.50317,7.74554c-2.45502,0.32928 -6.46384,0.81316 -10.66366,1.37643c-2.41089,0.32335 -4.85772,-4.2439 -5.1966,-6.57875c-0.32656,-2.24991 1.37229,-6.94005 4.33368,-7.33721c3.84375,-0.51552 6.54735,-0.82436 8.77241,-1.12278c2.24777,-0.30147 5.93081,3.66684 6.25736,5.91677z" data-paper-data="{&quot;index&quot;:null}" fill="#ffffff" stroke="none" stroke-width="0"/><path d="M173,247v-134h134v134z" fill="none" stroke="none" stroke-width="0"/></g></g></svg>