<svg version="1.1" xmlns="http://www.w3.org/2000/svg" xmlns:xlink="http://www.w3.org/1999/xlink" width="783.09421" height="441.01658" viewBox="0,0,783.09421,441.01658"><defs><linearGradient x1="238.4175" y1="-10.20621" x2="238.4175" y2="359.79384" gradientUnits="userSpaceOnUse" id="color-1"><stop offset="0" stop-color="#0196fe"/><stop offset="1" stop-color="#0fd4ff"/></linearGradient><linearGradient x1="21.32345" y1="116.16559" x2="21.32345" y2="303.90237" gradientUnits="userSpaceOnUse" id="color-2"><stop offset="0" stop-color="#0196fe"/><stop offset="1" stop-color="#0fd4ff"/></linearGradient><linearGradient x1="336.26381" y1="120.55709" x2="336.26381" y2="308.29387" gradientUnits="userSpaceOnUse" id="color-3"><stop offset="0" stop-color="#0196fe"/><stop offset="1" stop-color="#0fd4ff"/></linearGradient><linearGradient x1="515.67657" y1="82.13154" x2="515.67657" y2="308.29387" gradientUnits="userSpaceOnUse" id="color-4"><stop offset="0" stop-color="#0196fe"/><stop offset="1" stop-color="#0fd4ff"/></linearGradient><linearGradient x1="137.4691" y1="50.29326" x2="137.4691" y2="308.29387" gradientUnits="userSpaceOnUse" id="color-5"><stop offset="0" stop-color="#0196fe"/><stop offset="1" stop-color="#0fd4ff"/></linearGradient><linearGradient x1="229.7472" y1="208.98109" x2="251.56496" y2="423.70206" gradientUnits="userSpaceOnUse" id="color-6"><stop offset="0" stop-color="#ffbf66"/><stop offset="1" stop-color="#ffd080"/></linearGradient><linearGradient x1="-1451.38058" y1="-2988.55039" x2="-1495.18471" y2="-2678.62333" gradientUnits="userSpaceOnUse" id="color-7"><stop offset="0" stop-color="#00bbff"/><stop offset="1" stop-color="#53ceff"/></linearGradient><linearGradient x1="239.95874" y1="141.37257" x2="239.95874" y2="144.36559" gradientUnits="userSpaceOnUse" id="color-8"><stop offset="0" stop-color="#ffb64d"/><stop offset="1" stop-color="#ffcb4a"/></linearGradient></defs><g transform="translate(129.12564,10.20617)"><g data-paper-data="{&quot;isPaintingLayer&quot;:true}" fill-rule="nonzero" stroke="none" stroke-linecap="butt" stroke-linejoin="miter" stroke-miterlimit="10" stroke-dasharray="" stroke-dashoffset="0" style="mix-blend-mode: normal"><path d="M-121.08251,359.79384v-370h719v370.00001z" fill="url(#color-1)" stroke-width="0"/><g data-paper-data="{&quot;index&quot;:null}" stroke-width="0"><path d="M159.61542,303.90237h-276.58392c0,0 58.64476,-241.39412 139.52672,-241.73631c81.69208,-0.34563 137.05721,241.73631 137.05721,241.73631z" data-paper-data="{&quot;index&quot;:null}" fill="url(#color-2)"/><path d="M474.5558,308.29387h-276.58392c0,0 58.64476,-187.39412 139.52671,-187.73631c81.69209,-0.34563 137.05721,187.73631 137.05721,187.73631z" data-paper-data="{&quot;index&quot;:null}" fill="url(#color-3)"/><path d="M653.96857,308.29387h-276.58392c0,0 58.64476,-225.7495 139.52671,-226.16174c81.69209,-0.41638 137.05721,226.16174 137.05721,226.16174z" data-paper-data="{&quot;index&quot;:null}" fill="url(#color-4)"/><path d="M275.76106,308.29387h-276.58392c0,0 58.64476,-257.52967 139.52671,-257.99995c81.69209,-0.47499 137.05721,257.99995 137.05721,257.99995z" data-paper-data="{&quot;index&quot;:null}" fill="url(#color-5)"/></g><path d="M616.68671,315.31584c0,0 10.46183,112.54495 -7.17356,114.41904c-81.55127,8.66636 -713.00255,-37.88682 -713.00255,-37.88682l-15.09044,-142.00267l692.17611,-57.53222l43.09045,123.00267z" fill="#ffbe4d" stroke-width="0"/><path d="M349.71407,413.72915c0,0 -286.79834,3.99657 -365.43796,-22.77193c-80.90904,-27.541 -113.40175,-140.22251 -113.40175,-140.22251l718.27757,-78.27267z" fill="url(#color-6)" stroke-width="0"/><path d="" fill="url(#color-7)" stroke-width="0"/><path d="" fill="#55e74a" stroke-width="0"/><path d="" fill="#55e74a" stroke-width="0"/><path d="" fill="#55e74a" stroke-width="0"/><path d="" fill="#f73939" stroke-width="0"/><path d="" fill="#55e74a" stroke-width="0"/><path d="" fill="#55e74a" stroke-width="0"/><path d="" data-paper-data="{&quot;origRot&quot;:0,&quot;index&quot;:null}" fill="#000000" stroke-width="1" opacity="0.42445"/><path d="" data-paper-data="{&quot;index&quot;:null}" fill="#693a00" stroke-width="0"/><path d="" fill="none" stroke-width="0"/><path d="" fill="#693a00" stroke-width="0"/><path d="" fill="#693a00" stroke-width="0"/><path d="" fill="url(#color-8)" stroke-width="0"/><path d="" fill="#e2d2a3" stroke-width="0"/><path d="" fill="#ffedb8" stroke-width="0"/><path d="" fill="#ffedb8" stroke-width="0"/><path d="" fill="#693a00" stroke-width="0"/><path d="" fill="#693a00" stroke-width="0"/><path d="" data-paper-data="{&quot;index&quot;:null}" fill="#b46300" stroke-width="0"/><path d="" data-paper-data="{&quot;index&quot;:null}" fill="#693a00" stroke-width="0"/></g></g></svg>