<svg version="1.1" xmlns="http://www.w3.org/2000/svg" xmlns:xlink="http://www.w3.org/1999/xlink" width="215" height="215" viewBox="0,0,215,215"><g transform="translate(-132.5,-72.5)"><g data-paper-data="{&quot;isPaintingLayer&quot;:true}" fill-rule="nonzero" stroke="none" stroke-linejoin="miter" stroke-miterlimit="10" stroke-dasharray="" stroke-dashoffset="0" style="mix-blend-mode: normal"><path d="M247.20867,183.847c0,1.89391 -0.68653,3.48795 -2.05963,4.78212c-1.3573,1.27839 -3.00658,1.91759 -4.94783,1.91759c-2.46208,0 -4.31655,-0.78913 -5.56336,-2.36739c-1.23105,-1.57826 -1.84656,-3.60633 -1.84656,-6.08418c0,-3.61422 1.01798,-6.6208 3.05394,-9.01975c2.05174,-2.41474 4.84526,-3.6221 8.38056,-3.6221c0.726,0 1.25472,0.0868 1.58615,0.26043c0.33143,0.17361 0.55239,0.44192 0.66287,0.80491c0.11048,0.36299 0.16572,0.8207 0.16572,1.37308c0,0.53661 -0.04735,0.97064 -0.14205,1.30207c-0.0947,0.31565 -0.21306,0.56028 -0.3551,0.7339c-0.12625,0.15783 -0.30775,0.27619 -0.54449,0.35512c-0.33143,0.11048 -0.88382,0.16572 -1.65718,0.16572c-0.75757,0 -1.49934,0.13415 -2.22535,0.40246c-0.726,0.2683 -1.30205,0.58397 -1.72818,0.94696c-0.8207,0.77335 -1.32574,1.47568 -1.51513,2.10699l-0.14205,0.40246c0.69443,-0.33143 1.38887,-0.49715 2.0833,-0.49715c1.86236,0 3.45639,0.62342 4.78212,1.87024c1.34152,1.23105 2.01229,2.61991 2.01229,4.16661zM240.08282,185.90663c1.45199,0 2.178,-0.63131 2.178,-1.89391c0,-0.44192 -0.16571,-0.85226 -0.49715,-1.23105c-0.33143,-0.37879 -0.86015,-0.56817 -1.58614,-0.56817c-0.726,0 -1.28628,0.1815 -1.68084,0.54451c-0.37879,0.34723 -0.56817,0.70233 -0.56817,1.06533c0,0.34723 0.02368,0.61552 0.07102,0.80491c0.04735,0.18938 0.13415,0.39457 0.26043,0.61552c0.2683,0.44192 0.87594,0.66287 1.8229,0.66287z" fill="#ffffff" stroke-width="1" stroke-linecap="square"/><path d="M132.5,287.5v-215h215v215z" fill="none" stroke-width="0" stroke-linecap="butt"/></g></g></svg>