<svg version="1.1" xmlns="http://www.w3.org/2000/svg" xmlns:xlink="http://www.w3.org/1999/xlink" width="5.16" height="5.16" viewBox="0,0,5.16,5.16"><defs><linearGradient x1="239.99999" y1="178.41089" x2="239.99999" y2="181.40392" gradientUnits="userSpaceOnUse" id="color-1"><stop offset="0" stop-color="#ffb64d"/><stop offset="1" stop-color="#ffcb4a"/></linearGradient></defs><g transform="translate(-237.42,-177.42)"><g data-paper-data="{&quot;isPaintingLayer&quot;:true}" fill-rule="nonzero" stroke="none" stroke-width="0" stroke-linecap="butt" stroke-linejoin="miter" stroke-miterlimit="10" stroke-dasharray="" stroke-dashoffset="0" style="mix-blend-mode: normal"><path d="M241.35479,179.79831c-0.06877,-0.04929 0.11752,-0.26512 0.33924,-0.57449c0.22173,-0.30937 0.39492,-0.59513 0.46371,-0.54583c0.06878,0.04928 -0.03242,0.35543 -0.25413,0.66479c-0.22173,0.30937 -0.48003,0.50483 -0.54881,0.45555z" data-paper-data="{&quot;index&quot;:null}" fill="#693a00"/><path d="M237.42,182.58v-5.16h5.16v5.16z" fill="none"/><path d="M240.08229,181.2863c0.16739,0.24037 0.26076,0.46471 0.20853,0.50108c-0.05224,0.03638 -0.23027,-0.129 -0.39766,-0.36936c-0.16739,-0.24037 -0.26076,-0.4647 -0.20853,-0.50107c0.05224,-0.03638 0.23027,0.129 0.39765,0.36936z" fill="#693a00"/><path d="M240.66531,181.16449c0.19944,0.21453 0.32333,0.42356 0.27672,0.46689c-0.04663,0.04334 -0.24608,-0.09544 -0.44552,-0.30996c-0.19944,-0.21453 -0.32334,-0.42355 -0.27671,-0.46689c0.04663,-0.04334 0.24608,0.09544 0.44552,0.30996z" fill="#693a00"/><path d="M238.20919,179.84316c0.00424,-0.89071 0.12366,-1.26994 0.75134,-1.36457c0.02528,-0.00125 0.07919,-0.0074 0.07919,-0.0074l0.14352,0.21527l0.50513,-0.04115l0.15524,-0.20589c0,0 0.26948,-0.0169 0.40396,-0.01864c1.49836,-0.04209 1.55583,-0.01215 1.54202,1.39881c-0.01384,1.41424 0.00092,1.40353 -1.80322,1.41956c-0.05705,0.00051 -0.0409,-0.00571 -0.0409,-0.00571l-0.14484,0.16966l-0.466,0.00082l-0.13092,-0.22431c0,0 -0.03378,-0.01934 -0.06891,-0.02362c-0.86082,-0.03895 -0.93041,-0.30205 -0.92561,-1.31284z" fill="url(#color-1)"/><path d="M238.92561,179.94802c0.00356,-0.78491 0.01684,-0.94 0.48307,-1.00259c0.04447,-0.00597 0.05407,0.01211 0.05407,0.01211l0.13414,0.16771l0.40151,-0.02892l0.1334,-0.20827c0,0 0.06775,-0.01001 0.09243,-0.01034c1.33347,-0.01806 1.32775,-0.02868 1.31766,1.05223c0.00624,0.65562 0.01702,0.74464 -1.30131,0.75692c-1.2999,0.0121 -1.31996,-0.00968 -1.31497,-0.73886z" fill="#e2d2a3"/><path d="M238.94146,179.60317c-0.00886,-0.17564 0.16945,-0.52943 0.45878,-0.52062c0.04502,0.00137 0.04083,-0.01091 0.04083,-0.01091l0.20444,0.1945l0.35716,-0.02307l0.14541,-0.20261c0,0 0.10686,-0.03383 0.12014,-0.03383c0.51792,0 0.93343,0.05643 1.26411,0.47026c0.25262,0.31616 -1.94717,1.02066 -2.53392,0.79715c-0.13165,-0.05015 -0.05694,-0.67087 -0.05694,-0.67087z" fill="#ffedb8"/><path d="M238.92757,180.0087c0.00076,-0.16603 0.00194,-0.28693 0.00776,-0.40562c0.0032,-0.06538 2.62144,-0.13755 2.62434,-0.03973c0.00354,0.1195 0.00209,0.26065 0.00054,0.42729c0.00624,0.65562 -0.01012,0.74464 -1.40093,0.7914c-0.01677,0.00016 -0.11074,0.00811 -0.11074,0.00811l-0.12274,0.20238l-0.38438,0.00174l-0.13706,-0.21756c0,0 -0.06599,-0.01628 -0.09527,-0.01784c-0.33027,-0.04251 -0.38532,-0.19301 -0.38151,-0.75016z" fill="#ffedb8"/><path d="M240.04741,180.01438c0,0.16266 -0.06701,0.29451 -0.14967,0.29451c-0.08266,0 -0.14967,-0.13186 -0.14967,-0.29451c0,-0.16266 0.06701,-0.29451 0.14967,-0.29451c0.08266,0 0.14967,0.13186 0.14967,0.29451z" fill="#693a00"/><path d="M241.40467,180.0208c0,0.16265 -0.06701,0.29451 -0.14967,0.29451c-0.08266,0 -0.14966,-0.13186 -0.14966,-0.29451c0,-0.16265 0.067,-0.29451 0.14966,-0.29451c0.08266,0 0.14967,0.13186 0.14967,0.29451z" fill="#693a00"/><path d="M240.76201,179.99498c0,0 -0.09376,0.12553 -0.20941,0.12553c-0.11565,0 -0.20941,-0.12553 -0.20941,-0.12553z" data-paper-data="{&quot;index&quot;:null}" fill="#b46300"/><path d="M238.49764,179.91259c-0.06877,-0.04929 0.11752,-0.26512 0.33924,-0.57449c0.22173,-0.30937 0.39492,-0.59513 0.46371,-0.54583c0.06878,0.04928 -0.03242,0.35543 -0.25413,0.66479c-0.22173,0.30937 -0.48003,0.50483 -0.54881,0.45555z" data-paper-data="{&quot;index&quot;:null}" fill="#693a00"/></g></g></svg>