<svg version="1.1" xmlns="http://www.w3.org/2000/svg" xmlns:xlink="http://www.w3.org/1999/xlink" width="389.97725" height="389.97725" viewBox="0,0,389.97725,389.97725"><defs><linearGradient x1="238.77948" y1="64.71387" x2="238.77948" y2="290.52532" gradientUnits="userSpaceOnUse" id="color-1"><stop offset="0" stop-color="#ffb64d"/><stop offset="1" stop-color="#ffcb4a"/></linearGradient></defs><g transform="translate(-45.01138,14.9886)"><g data-paper-data="{&quot;isPaintingLayer&quot;:true}" fill-rule="nonzero" stroke="none" stroke-width="0" stroke-linecap="butt" stroke-linejoin="miter" stroke-miterlimit="10" stroke-dasharray="" stroke-dashoffset="0" style="mix-blend-mode: normal"><path d="M45.01138,374.98865v-389.97725h389.97725v389.97725z" fill="none"/><path d="M85.24253,172.56778c0.36353,-67.31718 6.40288,-101.57623 42.02156,-103.13009c2.16755,-0.09447 6.78908,-0.55927 6.78908,-0.55927l12.30469,16.26946l43.30637,-3.10999l13.30911,-15.56055c0,0 23.10313,-1.27725 34.63315,-1.40876c156.45116,-1.78135 155.78004,-0.91826 154.59651,105.71785c-1.18656,106.884 0.0786,106.07457 -154.59651,107.28607c-4.89134,0.03854 -43.19829,-0.43154 -43.19829,-0.43154l-12.4173,12.82239l-39.95151,0.06197l-11.22394,-16.95267c0,0 -2.89611,-1.46166 -5.90785,-1.78513c-40.46014,-5.7431 -40.07621,-22.82803 -39.66431,-99.22049z" fill="url(#color-1)"/></g></g></svg>