<svg version="1.1" xmlns="http://www.w3.org/2000/svg" xmlns:xlink="http://www.w3.org/1999/xlink" width="52.5" height="52.5" viewBox="0,0,52.5,52.5"><g transform="translate(-189.57297,-262.34848)"><g data-paper-data="{&quot;isPaintingLayer&quot;:true}" fill-rule="nonzero" stroke-linecap="butt" stroke-linejoin="miter" stroke-miterlimit="10" stroke-dasharray="" stroke-dashoffset="0" style="mix-blend-mode: normal"><path d="M190.82297,288.59848c0,-13.80712 11.19288,-25 25,-25c13.80712,0 25,11.19288 25,25c0,13.80712 -11.19288,25 -25,25c-13.80712,0 -25,-11.19288 -25,-25z" fill="#ffaf4d" stroke="#ffffff" stroke-width="2.5"/><path d="M197.26919,289.83764c0,-10.10533 8.24745,-17.62302 18.97571,-15.3754c10.50029,2.19986 19.87475,5.27007 19.87475,15.3754c0,10.10533 -8.69697,18.29731 -19.42523,18.29731c-10.72826,0 -19.42523,-8.19198 -19.42523,-18.29731z" fill="#ffedb8" stroke="none" stroke-width="0"/><path d="M224.02358,293.10619c0,0 -2.78607,6.01577 -7.44345,4.62415c-1.20217,-0.35921 -0.22769,-5.52613 -0.22769,-5.52613z" fill="#b46300" stroke="none" stroke-width="0"/><path d="M214.2921,289.93899c0,1.92683 -0.86778,3.48884 -1.93824,3.48884c-1.07046,0 -1.93824,-1.56201 -1.93824,-3.48884c0,-1.92683 0.86778,-3.48884 1.93824,-3.48884c1.07046,0 1.93824,1.56201 1.93824,3.48884z" fill="#693a00" stroke="none" stroke-width="0"/><path d="M229.9531,291.41205c0,1.54147 -0.72894,2.79107 -1.62812,2.79107c-0.89919,0 -1.62812,-1.2496 -1.62812,-2.79107c0,-1.54147 0.72894,-2.79107 1.62812,-2.79107c0.89919,0 1.62812,1.2496 1.62812,2.79107z" fill="#693a00" stroke="none" stroke-width="0"/></g></g></svg>