<svg version="1.1" xmlns="http://www.w3.org/2000/svg" xmlns:xlink="http://www.w3.org/1999/xlink" width="215" height="215" viewBox="0,0,215,215"><g transform="translate(-132.5,-72.5)"><g data-paper-data="{&quot;isPaintingLayer&quot;:true}" fill-rule="nonzero" stroke="none" stroke-linejoin="miter" stroke-miterlimit="10" stroke-dasharray="" stroke-dashoffset="0" style="mix-blend-mode: normal"><path d="M247.51643,183.71679c0,2.11486 -0.77335,3.81938 -2.32004,5.11356c-1.53092,1.29418 -3.26699,1.94126 -5.20826,1.94126c-1.94126,0 -3.67733,-0.63919 -5.20826,-1.91758c-1.53092,-1.29418 -2.29636,-3.00658 -2.29636,-5.13723c0,-0.78913 0.18938,-1.55458 0.56817,-2.29636c0.39457,-0.74178 0.78124,-1.28628 1.16003,-1.63349l0.59186,-0.52083c-0.14205,-0.11048 -0.30775,-0.26041 -0.49715,-0.44979c-0.17361,-0.18938 -0.41824,-0.59973 -0.73388,-1.23105c-0.31565,-0.63131 -0.47348,-1.28628 -0.47348,-1.96492c0,-1.84656 0.69443,-3.36959 2.0833,-4.56905c1.40465,-1.21525 3.03025,-1.82289 4.87682,-1.82289c1.84656,0 3.44849,0.61552 4.80581,1.84656c1.3573,1.21525 2.03596,2.77773 2.03596,4.68743c0,0.56817 -0.14205,1.14424 -0.42613,1.7282c-0.2683,0.58397 -0.54449,1.02587 -0.82858,1.32574l-0.42613,0.44981c0.17361,0.12625 0.38668,0.31565 0.6392,0.56817c0.25252,0.25252 0.59186,0.76546 1.01798,1.53881c0.42613,0.77335 0.6392,1.55458 0.6392,2.34372zM241.88204,175.59664c0,-0.37879 -0.15783,-0.73388 -0.47348,-1.06532c-0.31565,-0.33143 -0.78913,-0.49715 -1.42043,-0.49715c-0.63131,0 -1.09689,0.15783 -1.39675,0.47348c-0.29988,0.31565 -0.44979,0.67077 -0.44979,1.06533c0,0.37879 0.15783,0.74178 0.47348,1.089c0.33143,0.33143 0.80491,0.49716 1.42043,0.49716c0.61552,0 1.07321,-0.16571 1.37308,-0.49715c0.31565,-0.34723 0.47348,-0.70233 0.47348,-1.06532zM238.11791,185.32661c0.44192,0.44192 1.07321,0.66287 1.89391,0.66287c0.83647,0 1.45988,-0.22095 1.87024,-0.66287c0.42613,-0.45769 0.6392,-0.94696 0.6392,-1.46778c0,-0.52083 -0.21306,-1.0022 -0.63919,-1.4441c-0.42613,-0.45769 -1.04954,-0.68653 -1.87023,-0.68653c-0.8207,0 -1.45199,0.22095 -1.89391,0.66287c-0.42613,0.44192 -0.63919,0.93117 -0.63919,1.46778c0,0.52083 0.21307,1.01009 0.6392,1.46778z" fill="#ffffff" stroke-width="1" stroke-linecap="square"/><path d="M132.5,287.5v-215h215v215z" fill="none" stroke-width="0" stroke-linecap="butt"/></g></g></svg>