<svg version="1.1" xmlns="http://www.w3.org/2000/svg" xmlns:xlink="http://www.w3.org/1999/xlink" width="413.10859" height="104.10004" viewBox="0,0,413.10859,104.10004"><defs><radialGradient cx="313.25259" cy="191.55698" r="24.64898" gradientUnits="userSpaceOnUse" id="color-1"><stop offset="0" stop-color="#ffc800"/><stop offset="1" stop-color="#ffc800" stop-opacity="0"/></radialGradient><radialGradient cx="313.25259" cy="191.15806" r="10.69387" gradientUnits="userSpaceOnUse" id="color-2"><stop offset="0" stop-color="#ffac33"/><stop offset="1" stop-color="#ffbb55"/></radialGradient><radialGradient cx="313.25259" cy="191.41281" r="8.84205" gradientUnits="userSpaceOnUse" id="color-3"><stop offset="0" stop-color="#ffc433"/><stop offset="1" stop-color="#ffd56a"/></radialGradient></defs><g transform="translate(-33.44572,-127.94998)"><g data-paper-data="{&quot;isPaintingLayer&quot;:true}" stroke="none" stroke-miterlimit="10" stroke-dasharray="" stroke-dashoffset="0" style="mix-blend-mode: normal"><path d="M442.57098,131.93494c4.83931,4.70408 3.91217,14.20262 3.91217,14.20262l-0.61317,66.68548c0,0 1.22695,10.19407 -3.53022,15.26118c-4.75716,5.06709 -14.39655,3.83353 -14.39655,3.83353l-375.20001,-1.38434c0,0 -10.46808,0.69092 -15.27171,-4.10084c-4.80363,-4.79175 -3.97052,-15.09383 -3.97052,-15.09383l-0.01356,-66.18841c0,0 -0.21708,-8.57184 4.06046,-12.78041c4.27754,-4.20857 13.084,-4.0876 13.084,-4.0876l377.18835,-0.28622c0,0 9.91146,-0.76526 14.75075,3.93884z" data-paper-data="{&quot;origRot&quot;:0,&quot;index&quot;:null}" fill="#000000" fill-rule="evenodd" stroke-width="1" stroke-linecap="round" stroke-linejoin="round" opacity="0.42445"/><g fill-rule="nonzero" stroke-linecap="butt" stroke-linejoin="miter"><path d="M288.60362,191.55698c0,-13.61326 11.03572,-24.64898 24.64898,-24.64898c13.61325,0 24.64898,11.03572 24.64898,24.64898c0,13.61326 -11.03573,24.64898 -24.64898,24.64898c-13.61325,0 -24.64898,-11.03572 -24.64898,-24.64898z" fill="url(#color-1)" stroke-width="0"/><g><path d="M299.6783,193.0369c0,-7.62499 6.11189,-13.80626 13.65127,-13.80626c7.53938,0 13.65127,6.18127 13.65127,13.80626c0,7.62499 -6.11189,13.80625 -13.65127,13.80625c-7.53938,0 -13.65127,-6.18126 -13.65127,-13.80625z" fill="#ffb84d" stroke-width="0"/><path d="M299.52435,191.15498c0,-7.59082 6.14635,-13.74442 13.72825,-13.74442c7.58189,0 13.72826,6.15359 13.72826,13.74442c0,7.59082 -6.14635,13.74441 -13.72826,13.74441c-7.58189,0 -13.72825,-6.15358 -13.72825,-13.7444z" fill="#fff75c" stroke-width="0"/><path d="M302.55873,191.15806c0,-5.91302 4.7878,-10.70645 10.69386,-10.70645c5.90606,0 10.69387,4.79344 10.69387,10.70645c0,5.91302 -4.7878,10.70646 -10.69387,10.70646c-5.90606,0 -10.69386,-4.79344 -10.69386,-10.70646z" fill="url(#color-2)" stroke-width="0"/><path d="M304.41055,191.41281c0,-4.88907 3.95872,-8.85245 8.84204,-8.85245c4.88333,0 8.84205,3.96338 8.84205,8.85245c0,4.88907 -3.95873,8.85245 -8.84205,8.85245c-4.88333,0 -8.84204,-3.96338 -8.84204,-8.85245z" fill="url(#color-3)" stroke-width="0"/><g fill="#fffcc7"><g stroke-width="0"><path d="M311.35242,196.97668v-11.2124h2.03659v11.2124z"/><path d="M311.3449,185.7763c0,-0.56062 0.4559,-1.01512 1.01828,-1.01512c0.56239,0 1.01829,0.45448 1.01829,1.01512c0,0.56062 -0.4559,1.01511 -1.01829,1.01511c-0.56239,0 -1.01828,-0.45449 -1.01828,-1.01511z"/><path d="M311.3449,196.96831c0,-0.56062 0.4559,-1.01511 1.01828,-1.01511c0.56239,0 1.01829,0.45448 1.01829,1.01511c0,0.56062 -0.4559,1.01512 -1.01829,1.01512c-0.56239,0 -1.01828,-0.45449 -1.01828,-1.01512z"/></g><path d="M313.93828,189.12199c-0.79618,0.08118 -1.72817,0.19602 -1.7526,0.48687c-0.01326,0.15778 1.16351,0.09799 2.09544,0.67921c1.02679,0.64039 1.81866,1.94671 1.81866,2.61533c0,2.32022 -2.04902,3.51873 -4.51196,3.59726c-0.45125,0.01439 -0.95593,0.091 -1.34793,-0.133c-1.01045,-0.5774 -0.98777,-2.11356 0,-2.67801c0.19605,-0.11202 2.17466,-0.3316 2.16635,-0.8164c-0.01643,-0.95799 -3.24887,-0.75256 -3.28114,-3.28109c-0.00355,-0.27828 0.06715,-0.6548 0.13681,-0.93343c0.43849,-1.75399 2.3241,-2.36445 3.95768,-2.56158c0.45711,-0.05516 1.59958,-0.18419 1.82567,0.21146c0.45105,0.2662 0.75362,0.75718 0.75362,1.31883c0,0.498 -0.23789,0.94044 -0.60622,1.21989c-0.04711,0.0456 -1.14799,0.29806 -1.25437,0.27466z" stroke-width="0.5"/></g></g></g><path d="M77.84063,150.97464h16.01156c0.61468,0 1.06444,0.07121 1.34928,0.21364c0.28485,0.14243 0.476,0.36731 0.57345,0.67464c0.09745,0.30733 0.14618,0.71212 0.14618,1.21435c0,0.49474 -0.04873,0.89203 -0.14617,1.19188c-0.09745,0.29985 -0.25861,0.50599 -0.48349,0.61843c-0.34482,0.1724 -0.83581,0.25862 -1.47297,0.25862h-5.49834v14.48236c0,0.44226 -0.015,0.76834 -0.04498,0.97823c-0.02998,0.20989 -0.11619,0.45352 -0.25861,0.73087c-0.14243,0.27736 -0.39728,0.476 -0.76459,0.59594c-0.35981,0.11244 -0.83956,0.16866 -1.43924,0.16866c-0.59219,0 -1.06819,-0.05622 -1.428,-0.16866c-0.35231,-0.11994 -0.59968,-0.31858 -0.74211,-0.59593c-0.14243,-0.27735 -0.22863,-0.52472 -0.25861,-0.74211c-0.02998,-0.22488 -0.04497,-0.55846 -0.04497,-1.00072v-14.44862h-5.52084c-0.61468,0 -1.06818,-0.07121 -1.36052,-0.21363c-0.28485,-0.14243 -0.476,-0.36731 -0.57345,-0.67464c-0.09745,-0.30733 -0.14617,-0.70837 -0.14617,-1.20311c0,-0.50224 0.04873,-0.90328 0.14617,-1.20311c0.09745,-0.29985 0.26236,-0.50598 0.49474,-0.61842c0.34482,-0.1724 0.83206,-0.25861 1.46173,-0.25861zM105.90985,156.99022c1.91899,0 3.51565,0.73086 4.78998,2.19259c1.27433,1.45423 1.91149,3.23829 1.91149,5.35218v5.05983c0,0.44226 -0.01499,0.77585 -0.04498,1.00073c-0.02249,0.21739 -0.11244,0.4685 -0.26986,0.75335c-0.24737,0.50224 -0.98573,0.75336 -2.21508,0.75336c-1.16939,0 -1.8965,-0.25112 -2.18135,-0.75335c-0.15742,-0.28484 -0.25112,-0.53972 -0.2811,-0.7646c-0.02998,-0.23238 -0.04498,-0.58094 -0.04498,-1.04569v-5.03734c0,-0.78708 -0.22113,-1.40176 -0.6634,-1.84403c-0.43478,-0.44226 -0.99322,-0.66339 -1.67536,-0.66339c-0.68215,0 -1.28182,0.20989 -1.79905,0.62966c-0.51722,0.41228 -0.81707,0.87704 -0.89953,1.39426v5.57706c0,0.44226 -0.01499,0.77584 -0.04498,1.00072c-0.02249,0.21739 -0.11244,0.4685 -0.26985,0.75335c-0.24737,0.50224 -0.98573,0.75335 -2.21508,0.75335c-1.20686,0 -1.94522,-0.25861 -2.21508,-0.77584c-0.13493,-0.29235 -0.21738,-0.54346 -0.24737,-0.75335c-0.02998,-0.20989 -0.04498,-0.54346 -0.04498,-1.00072v-17.21467c0,-0.44226 0.01499,-0.77209 0.04498,-0.98947c0.02998,-0.22488 0.11244,-0.47225 0.24737,-0.74211c0.26986,-0.51722 1.01946,-0.77583 2.24881,-0.77583c1.20686,0 1.93398,0.25862 2.18135,0.77584c0.15742,0.29235 0.24737,0.55096 0.26986,0.77584c0.02998,0.21739 0.04497,0.54346 0.04497,0.97824v6.36414c0.95949,-1.16939 2.0839,-1.75407 3.37322,-1.75407zM124.76389,158.5419c0.11244,-1.07193 0.86953,-1.6079 2.2713,-1.6079c0.74961,0 1.30431,0.05996 1.66412,0.1799c0.36731,0.11244 0.62217,0.31109 0.76459,0.59594c0.14992,0.28484 0.23613,0.53971 0.25862,0.76459c0.02999,0.21739 0.04498,0.54721 0.04498,0.98948v10.07469c0,0.44226 -0.01499,0.77584 -0.04498,1.00072c-0.02249,0.21739 -0.10119,0.46851 -0.23612,0.75336c-0.26986,0.50224 -0.92951,0.75335 -1.97896,0.75335c-1.04196,0 -1.74283,-0.12743 -2.10264,-0.3823c-0.35231,-0.26236 -0.55845,-0.64466 -0.61842,-1.1469c-0.70463,1.01946 -1.889,1.5292 -3.55312,1.5292c-1.65663,0 -3.19707,-0.7571 -4.62131,-2.27131c-1.41675,-1.52169 -2.12512,-3.28326 -2.12512,-5.28471c0,-2.00895 0.71213,-3.76676 2.13638,-5.27347c1.43174,-1.50671 3.00217,-2.26005 4.71127,-2.26005c0.65215,0 1.2481,0.11619 1.78781,0.34857c0.53972,0.23238 0.91451,0.44976 1.1244,0.65216c0.20989,0.20239 0.3823,0.39729 0.51723,0.58469zM119.52416,164.53498c0,0.62967 0.24737,1.19937 0.74211,1.7091c0.50223,0.50973 1.10942,0.7646 1.82154,0.7646c0.71212,0 1.30056,-0.25862 1.76532,-0.77584c0.47225,-0.51722 0.70838,-1.08692 0.70838,-1.70909c0,-0.62967 -0.22488,-1.21061 -0.67464,-1.74283c-0.44976,-0.53972 -1.05694,-0.80957 -1.82154,-0.80957c-0.7571,0 -1.37177,0.26986 -1.84403,0.80957c-0.46475,0.53222 -0.69714,1.11691 -0.69714,1.75408zM140.50287,156.93399c1.91899,0 3.51565,0.73461 4.78997,2.20383c1.28182,1.46922 1.92274,3.25703 1.92274,5.36343v5.07108c0,0.44226 -0.01499,0.77209 -0.04497,0.98947c-0.02999,0.21739 -0.11244,0.46101 -0.24737,0.73087c-0.26236,0.51722 -1.00822,0.77585 -2.23757,0.77585c-1.36428,0 -2.15136,-0.35232 -2.36125,-1.05695c-0.11994,-0.32982 -0.1799,-0.82081 -0.1799,-1.47296v-5.05983c0,-0.78708 -0.22488,-1.40176 -0.67464,-1.84403c-0.44977,-0.44226 -1.05319,-0.6634 -1.81029,-0.6634c-0.7571,0 -1.37178,0.23238 -1.84403,0.69713c-0.47225,0.45726 -0.70837,1.06069 -0.70837,1.8103v5.09357c0,0.44226 -0.01499,0.77209 -0.04498,0.98948c-0.02249,0.21739 -0.11244,0.46101 -0.26986,0.73087c-0.24737,0.51722 -0.98573,0.77585 -2.21508,0.77585c-1.20686,0 -1.94521,-0.25861 -2.21507,-0.77584c-0.13493,-0.28484 -0.21739,-0.53597 -0.24737,-0.75335c-0.02999,-0.22488 -0.04498,-0.55846 -0.04498,-1.00072v-10.18713c0,-0.41977 0.01499,-0.73835 0.04498,-0.95574c0.02999,-0.22488 0.12369,-0.47225 0.2811,-0.74211c0.26236,-0.47975 1.00073,-0.71962 2.21509,-0.71962c1.16939,0 1.889,0.22113 2.15886,0.6634c0.18741,0.32233 0.2811,0.71587 0.2811,1.18063c0.08246,-0.13493 0.25487,-0.32608 0.51723,-0.57344c0.26986,-0.25487 0.52847,-0.45726 0.77584,-0.60718c0.65965,-0.44226 1.37928,-0.6634 2.15886,-0.6634zM158.44118,164.50125l3.82299,3.17083c0.47975,0.40479 0.78333,0.71212 0.91077,0.92201c0.12743,0.20989 0.19116,0.40854 0.19116,0.59594c0,0.46475 -0.29985,1.09068 -0.89953,1.87776c-0.65215,0.80208 -1.2256,1.20312 -1.72034,1.20312c-0.42728,0 -1.01197,-0.27736 -1.75408,-0.83206l-0.29234,-0.20239c-0.44226,-0.35981 -1.12441,-0.99698 -2.04642,-1.9115c-0.92201,-0.91451 -1.62289,-1.56292 -2.10263,-1.94522v2.21508c0,0.44226 -0.01499,0.77585 -0.04498,1.00073c-0.02249,0.21739 -0.11244,0.4685 -0.26986,0.75335c-0.24737,0.50224 -0.98573,0.75335 -2.21508,0.75335c-1.20686,0 -1.94521,-0.25861 -2.21507,-0.77584c-0.13493,-0.29235 -0.21739,-0.54721 -0.24737,-0.7646c-0.02999,-0.21739 -0.04498,-0.54721 -0.04498,-0.98947v-17.2484c0,-0.44226 0.01499,-0.77209 0.04498,-0.98947c0.02999,-0.21739 0.11244,-0.47225 0.24737,-0.7646c0.26986,-0.51722 1.01946,-0.77584 2.24881,-0.77584c0.92201,0 1.57417,0.16491 1.95647,0.49474c0.32233,0.26236 0.49473,0.68214 0.51722,1.25934c0.01499,0.1724 0.02249,0.44226 0.02249,0.80957v9.11894c0.34482,-0.28484 0.8658,-0.77209 1.56293,-1.46173c0.70463,-0.68964 1.22935,-1.18062 1.57417,-1.47296l0.34857,-0.22489c0.67464,-0.51722 1.25183,-0.77584 1.73158,-0.77584c0.47975,0 1.03071,0.38979 1.65288,1.16938c0.62217,0.7721 0.93327,1.37928 0.93327,1.82154c0,0.44226 -0.35607,0.9595 -1.06818,1.55168zM165.06574,170.75296c-0.36731,-0.23238 -0.55095,-0.59593 -0.55095,-1.09067c0,-0.50224 0.36355,-1.26309 1.09068,-2.28254c0.20989,-0.32233 0.55096,-0.48349 1.02321,-0.48349c0.47225,0 1.10942,0.23613 1.9115,0.70838c0.80957,0.46475 1.54044,0.69713 2.19259,0.69713c1.16939,0 1.75408,-0.22863 1.75408,-0.68589c0,-0.36731 -0.64091,-0.63716 -1.92273,-0.80957c-1.21436,-0.1724 -2.41373,-0.62217 -3.5981,-1.34929c-0.56221,-0.34482 -1.02696,-0.88828 -1.39427,-1.63039c-0.35981,-0.74211 -0.53972,-1.61915 -0.53972,-2.63111c0,-3.0359 2.0839,-4.55384 6.25171,-4.55384c1.35679,0 2.7548,0.32609 4.19404,0.97824c0.67464,0.30733 1.01197,0.69338 1.01197,1.15814c0,0.45726 -0.21364,1.02321 -0.64091,1.69786c-0.41977,0.66715 -0.8508,1.00072 -1.29306,1.00072c-0.22488,0 -0.65215,-0.14243 -1.28182,-0.42727c-0.62217,-0.28484 -1.29681,-0.42728 -2.02393,-0.42728c-1.1319,0 -1.69785,0.2099 -1.69785,0.62967c0,0.57719 0.65216,0.952 1.95647,1.1244c1.26683,0.13493 2.49618,0.49849 3.68805,1.09068c0.55471,0.26986 1.01946,0.73461 1.39426,1.39427c0.3748,0.65965 0.5622,1.49171 0.5622,2.49618c0,0.99697 -0.1874,1.84778 -0.5622,2.55241c-0.3748,0.69713 -0.89952,1.21811 -1.57417,1.56293c-1.22186,0.59219 -2.7623,0.88828 -4.62131,0.88828c-1.85153,0 -3.62809,-0.53597 -5.32969,-1.6079zM195.17193,156.95648c1.3268,0 2.10264,0.36731 2.32753,1.10192c0.11994,0.35981 0.1799,0.83956 0.1799,1.43924c0,0.59219 -0.06371,1.06819 -0.19114,1.428c-0.12743,0.35231 -0.32607,0.60343 -0.59593,0.75336c-0.39729,0.23238 -0.98198,0.34857 -1.75408,0.34857l-1.84403,-0.11245v7.71344c0,0.72712 -0.08995,1.27058 -0.26986,1.63039c-0.1799,0.35231 -0.45727,0.58844 -0.83206,0.70838c-0.3748,0.11244 -0.86204,0.16867 -1.46173,0.16867c-0.59219,0 -1.06445,-0.06372 -1.41675,-0.19115c-0.35231,-0.12743 -0.60718,-0.32982 -0.76459,-0.60718c-0.14992,-0.27735 -0.23988,-0.52847 -0.26986,-0.75335c-0.02999,-0.23238 -0.04497,-0.5697 -0.04497,-1.01197v-7.63472h-1.03445c-0.50224,-0.03748 -0.85829,-0.14991 -1.06818,-0.33732c-0.36731,-0.36731 -0.55096,-1.06818 -0.55096,-2.10264c0,-1.57417 0.56596,-2.36125 1.69786,-2.36125h0.95575v-1.52919c0,-1.47672 0.52847,-2.81476 1.58541,-4.01413c1.05694,-1.19937 2.58239,-1.79905 4.57634,-1.79905c0.44226,0 0.77209,0.01499 0.98948,0.04497c0.22488,0.02999 0.47975,0.11994 0.7646,0.26986c0.51722,0.24737 0.77584,0.98573 0.77584,2.21508c0,0.92201 -0.16116,1.58542 -0.48349,1.99021c-0.26986,0.30733 -0.69338,0.47975 -1.27058,0.51722c-0.1724,0 -0.44226,0 -0.80957,0c-0.71212,0 -1.06818,0.23987 -1.06818,0.71962v1.58542zM198.25055,164.53498c0,-2.30129 0.80582,-4.20154 2.41748,-5.70074c1.61165,-1.4992 3.45193,-2.24882 5.52084,-2.24882c2.0764,0 3.90919,0.74586 5.49836,2.23758c1.59666,1.48422 2.39499,3.37697 2.39499,5.67826c0,1.59666 -0.41228,3.01341 -1.23685,4.25026c-0.82457,1.23685 -1.82904,2.14763 -3.01341,2.73232c-1.17688,0.58469 -2.39873,0.87703 -3.66556,0.87703c-1.26683,0 -2.49619,-0.31108 -3.68806,-0.93326c-1.18437,-0.62217 -2.1851,-1.54043 -3.00216,-2.75479c-0.81707,-1.22186 -1.2256,-2.60113 -1.2256,-4.13782zM204.26612,166.59265c0.61468,0.46475 1.23685,0.69713 1.86652,0.69713c0.63717,0 1.27058,-0.23987 1.90025,-0.71962c0.63717,-0.47975 0.95575,-1.18812 0.95575,-2.12512c0,-0.937 -0.29985,-1.63414 -0.89953,-2.0914c-0.59219,-0.46475 -1.2331,-0.69713 -1.92273,-0.69713c-0.68964,0 -1.3343,0.23987 -1.93398,0.71962c-0.59219,0.47975 -0.88828,1.18438 -0.88828,2.11389c0,0.92951 0.30734,1.63039 0.92202,2.10264zM226.25952,157.1139c0.36731,0.11244 0.6709,0.30733 0.91078,0.58469c0.23987,0.27736 0.35981,0.72337 0.35981,1.33805c0,0.61468 -0.18365,1.28557 -0.55095,2.01269c-0.36731,0.72712 -0.89577,1.09068 -1.58541,1.09068c-0.34482,0 -0.67465,-0.07496 -0.98948,-0.22489c-0.31483,-0.15741 -0.73461,-0.23612 -1.25933,-0.23612c-0.51722,0 -1.00071,0.18365 -1.45048,0.55096c-0.44977,0.36731 -0.67464,0.80958 -0.67464,1.3268v6.03806c0,0.44226 -0.01499,0.77585 -0.04497,1.00073c-0.02999,0.21739 -0.11994,0.4685 -0.26986,0.75335c-0.29235,0.50224 -1.04195,0.75335 -2.24881,0.75335c-0.92201,0 -1.58541,-0.16492 -1.99019,-0.49474c-0.29985,-0.26236 -0.47225,-0.67464 -0.51722,-1.23684c0,-0.18741 0,-0.46475 0,-0.83206v-10.09717c0,-0.44226 0.01499,-0.7721 0.04497,-0.98948c0.02999,-0.22488 0.11244,-0.47225 0.24737,-0.74211c0.26986,-0.51722 1.01946,-0.77584 2.24882,-0.77584c1.1469,0 1.86651,0.22114 2.15886,0.66341c0.20989,0.30733 0.31483,0.62217 0.31483,0.9445c0.09745,-0.13493 0.23613,-0.2961 0.41603,-0.48349c0.1799,-0.1949 0.56596,-0.45351 1.15814,-0.77584c0.59968,-0.32982 1.1244,-0.49473 1.57417,-0.49473c0.44977,0 0.82831,0.02624 1.13565,0.07871c0.30733,0.04497 0.64466,0.12743 1.01197,0.24737zM245.20125,162.02756l-1.87776,-0.11244v3.96916c0,0.51722 0.08246,0.89202 0.24737,1.1244c0.16492,0.23238 0.47224,0.34857 0.92201,0.34857c0.44977,0 0.79458,0.01499 1.03445,0.04498c0.23987,0.02249 0.49474,0.11244 0.7646,0.26986c0.44226,0.24737 0.6634,0.88828 0.6634,1.92274c0,1.21436 -0.26985,1.95272 -0.80957,2.21509c-0.28484,0.13493 -0.53972,0.21738 -0.7646,0.24737c-0.21739,0.02999 -0.53597,0.04498 -0.95574,0.04498c-2.00144,0 -3.51939,-0.44977 -4.55384,-1.34929c-1.03446,-0.90703 -1.55168,-2.43246 -1.55168,-4.57633v-4.2615c-0.36731,0.05247 -0.76085,0.07872 -1.18062,0.07872c-0.41977,0 -0.7721,-0.16117 -1.05694,-0.4835c-0.27735,-0.32982 -0.41603,-0.88828 -0.41603,-1.67536c0,-0.78708 0.04872,-1.35679 0.14617,-1.7091c0.09745,-0.35231 0.23239,-0.60718 0.40479,-0.7646c0.30733,-0.24737 0.68964,-0.37105 1.1469,-0.37105l0.95575,0.11244v-2.95718c0,-0.44226 0.01499,-0.76835 0.04497,-0.97823c0.02999,-0.21739 0.11993,-0.44977 0.26986,-0.69714c0.24737,-0.47975 0.98573,-0.71962 2.21508,-0.71962c1.30431,0 2.0839,0.35606 2.33877,1.06819c0.08996,0.30733 0.13492,0.79458 0.13492,1.46173v2.82226c0.84705,-0.07496 1.48422,-0.11244 1.9115,-0.11244c0.43478,0 0.76085,0.01499 0.97824,0.04497c0.22488,0.02999 0.47976,0.11993 0.7646,0.26986c0.50224,0.24737 0.75335,0.98573 0.75335,2.21509c0,1.21436 -0.25862,1.95272 -0.77584,2.21508c-0.28484,0.13493 -0.53971,0.21738 -0.76459,0.24737c-0.21739,0.02999 -0.54722,0.04498 -0.98948,0.04498zM257.72085,156.99022c1.91899,0 3.51564,0.73086 4.78997,2.19259c1.27432,1.45423 1.9115,3.23829 1.9115,5.35218v5.05983c0,0.44226 -0.01499,0.77585 -0.04498,1.00073c-0.02249,0.21739 -0.11244,0.4685 -0.26986,0.75335c-0.24737,0.50224 -0.98573,0.75336 -2.21508,0.75336c-1.16939,0 -1.89651,-0.25112 -2.18135,-0.75335c-0.15742,-0.28484 -0.25111,-0.53972 -0.28109,-0.7646c-0.02999,-0.23238 -0.04498,-0.58094 -0.04498,-1.04569v-5.03734c0,-0.78708 -0.22113,-1.40176 -0.6634,-1.84403c-0.43478,-0.44226 -0.99322,-0.66339 -1.67536,-0.66339c-0.68214,0 -1.28183,0.20989 -1.79906,0.62966c-0.51722,0.41228 -0.81707,0.87704 -0.89953,1.39426v5.57706c0,0.44226 -0.01499,0.77584 -0.04497,1.00072c-0.02249,0.21739 -0.11244,0.4685 -0.26986,0.75335c-0.24737,0.50224 -0.98573,0.75335 -2.21508,0.75335c-1.20686,0 -1.94522,-0.25861 -2.21508,-0.77584c-0.13493,-0.29235 -0.21738,-0.54346 -0.24737,-0.75335c-0.02999,-0.20989 -0.04497,-0.54346 -0.04497,-1.00072v-17.21467c0,-0.44226 0.01499,-0.77209 0.04497,-0.98947c0.02999,-0.22488 0.11244,-0.47225 0.24737,-0.74211c0.26986,-0.51722 1.01946,-0.77583 2.24882,-0.77583c1.20686,0 1.93398,0.25862 2.18135,0.77584c0.15741,0.29235 0.24737,0.55096 0.26986,0.77584c0.02999,0.21739 0.04497,0.54346 0.04497,0.97824v6.36414c0.95949,-1.16939 2.0839,-1.75407 3.37322,-1.75407zM281.35362,162.71344c0,1.17688 -0.29234,2.05017 -0.87703,2.61987c-0.58469,0.56221 -1.2331,0.84331 -1.94522,0.84331h-6.82515c0,0.53222 0.31484,0.98198 0.9445,1.34929c0.63716,0.36731 1.27433,0.55096 1.91149,0.55096c1.10942,0 1.98271,-0.11619 2.61987,-0.34856l0.31484,-0.11244c0.45726,-0.21739 0.83956,-0.32608 1.14689,-0.32608c0.61468,0 1.14315,0.43477 1.58542,1.30431c0.24737,0.51722 0.37105,0.95575 0.37105,1.31556c0,1.7091 -2.04267,2.56365 -6.12802,2.56365c-1.41675,0 -2.67983,-0.24362 -3.78924,-0.73086c-1.10192,-0.48724 -1.96022,-1.13565 -2.57489,-1.94522c-1.20686,-1.55168 -1.81029,-3.28702 -1.81029,-5.206c0,-2.42122 0.77958,-4.35519 2.33876,-5.80193c1.56667,-1.44674 3.52314,-2.17011 5.86941,-2.17011c2.6611,0 4.61757,0.94075 5.8694,2.82226c0.65215,0.99697 0.97824,2.08765 0.97824,3.27203zM275.28182,163.55675c0.72712,0 1.09068,-0.30733 1.09068,-0.92201c0,-0.44226 -0.16866,-0.79833 -0.50598,-1.06818c-0.33732,-0.26986 -0.81707,-0.40479 -1.43924,-0.40479c-0.62217,0 -1.24059,0.25487 -1.85527,0.7646c-0.61468,0.50973 -0.92201,1.05319 -0.92201,1.63039zM290.62501,170.75296c-0.36731,-0.23238 -0.55095,-0.59593 -0.55095,-1.09067c0,-0.50224 0.36356,-1.26309 1.09068,-2.28254c0.20989,-0.32233 0.55096,-0.48349 1.02321,-0.48349c0.47225,0 1.10942,0.23613 1.9115,0.70838c0.80957,0.46475 1.54044,0.69713 2.19259,0.69713c1.16938,0 1.75407,-0.22863 1.75407,-0.68589c0,-0.36731 -0.6409,-0.63716 -1.92273,-0.80957c-1.21436,-0.1724 -2.41373,-0.62217 -3.5981,-1.34929c-0.56221,-0.34482 -1.02696,-0.88828 -1.39427,-1.63039c-0.35981,-0.74211 -0.53972,-1.61915 -0.53972,-2.63111c0,-3.0359 2.0839,-4.55384 6.25171,-4.55384c1.35678,0 2.7548,0.32609 4.19404,0.97824c0.67464,0.30733 1.01197,0.69338 1.01197,1.15814c0,0.45726 -0.21364,1.02321 -0.64091,1.69786c-0.41977,0.66715 -0.85079,1.00072 -1.29306,1.00072c-0.22488,0 -0.65215,-0.14243 -1.28183,-0.42727c-0.62217,-0.28484 -1.29681,-0.42728 -2.02393,-0.42728c-1.13191,0 -1.69785,0.2099 -1.69785,0.62967c0,0.57719 0.65216,0.952 1.95647,1.1244c1.26684,0.13493 2.49618,0.49849 3.68805,1.09068c0.55471,0.26986 1.01947,0.73461 1.39427,1.39427c0.3748,0.65965 0.5622,1.49171 0.5622,2.49618c0,0.99697 -0.1874,1.84778 -0.5622,2.55241c-0.3748,0.69713 -0.89952,1.21811 -1.57417,1.56293c-1.22186,0.59219 -2.76229,0.88828 -4.62131,0.88828c-1.85152,0 -3.62809,-0.53597 -5.32969,-1.6079zM311.3123,172.04602c-1.93398,0 -3.54188,-0.73461 -4.82371,-2.20383c-1.27432,-1.46922 -1.91149,-3.25703 -1.91149,-5.36342v-5.03735c0,-0.46475 0.01499,-0.80208 0.04497,-1.01197c0.02999,-0.20989 0.11244,-0.461 0.24737,-0.75335c0.26986,-0.51722 1.01946,-0.77584 2.24882,-0.77584c1.34179,0 2.12887,0.3673 2.36125,1.10191c0.11244,0.30733 0.16867,0.79458 0.16867,1.46173v5.03735c0,0.78708 0.22487,1.40176 0.67464,1.84402c0.44976,0.44226 1.05319,0.66341 1.8103,0.66341c0.76459,0 1.37928,-0.22863 1.84403,-0.68589c0.47225,-0.46475 0.70838,-1.07193 0.70838,-1.82154v-5.09356c0,-0.44226 0.01499,-0.77209 0.04497,-0.98947c0.02999,-0.22488 0.11994,-0.47976 0.26986,-0.7646c0.24737,-0.50224 0.98573,-0.75335 2.21509,-0.75335c1.21436,0 1.95272,0.25862 2.21508,0.77585c0.13493,0.29235 0.21739,0.55096 0.24737,0.77584c0.02999,0.21739 0.04498,0.54722 0.04498,0.98948v10.18713c0,0.41977 -0.01499,0.74211 -0.04498,0.96699c-0.02999,0.21739 -0.11994,0.46101 -0.26986,0.73087c-0.29234,0.49474 -1.0307,0.74211 -2.21507,0.74211c-1.16939,0 -1.889,-0.22863 -2.15886,-0.68589c-0.19489,-0.32982 -0.29235,-0.72337 -0.29235,-1.18062c-0.07497,0.13493 -0.24736,0.32982 -0.51722,0.58469c-0.26986,0.24737 -0.52847,0.45727 -0.77584,0.62967c-0.65215,0.41977 -1.36428,0.62967 -2.13637,0.62967zM322.02069,176.21757v-16.80988c0,-0.44226 0.01499,-0.76834 0.04498,-0.97823c0.02999,-0.20989 0.11244,-0.44976 0.24737,-0.71962c0.26986,-0.51722 0.91078,-0.77584 1.92274,-0.77584c1.01947,0 1.70534,0.13118 2.05767,0.39354c0.35981,0.25487 0.5697,0.63342 0.62967,1.13565c0.72712,-1.00447 1.87026,-1.5067 3.42944,-1.5067c1.56667,0 3.05088,0.74211 4.45265,2.22633c1.40177,1.47672 2.10265,3.19331 2.10265,5.14978c0,1.95647 -0.69713,3.67306 -2.0914,5.14978c-1.38676,1.47672 -2.86724,2.21508 -4.44141,2.21508c-1.57417,0 -2.71732,-0.44226 -3.42944,-1.3268v5.82443c0,0.43478 -0.01499,0.7571 -0.04497,0.96699c-0.02999,0.21739 -0.11619,0.46475 -0.25861,0.74211c-0.14243,0.27736 -0.38604,0.47226 -0.73086,0.5847c-0.34482,0.11994 -0.81707,0.1799 -1.41675,0.1799c-0.59219,0 -1.06818,-0.05996 -1.42799,-0.1799c-0.35231,-0.11244 -0.59968,-0.30359 -0.74211,-0.57345c-0.14243,-0.26986 -0.22863,-0.50973 -0.25861,-0.71962c-0.02999,-0.20989 -0.04497,-0.53597 -0.04497,-0.97823zM327.72144,162.65723c-0.44227,0.51722 -0.6634,1.08317 -0.6634,1.69785c0,0.61468 0.22487,1.17688 0.67464,1.68661c0.45726,0.50973 1.03446,0.7646 1.73159,0.7646c0.70463,0 1.30056,-0.24737 1.78781,-0.74211c0.48724,-0.50224 0.73086,-1.06818 0.73086,-1.69785c0,-0.63717 -0.23238,-1.21061 -0.69713,-1.72034c-0.45726,-0.50973 -1.05694,-0.7646 -1.79905,-0.7646c-0.73461,0 -1.32305,0.25862 -1.76531,0.77585zM338.77343,176.21757v-16.80988c0,-0.44226 0.01499,-0.76834 0.04497,-0.97823c0.02999,-0.20989 0.11244,-0.44976 0.24737,-0.71962c0.26986,-0.51722 0.91078,-0.77584 1.92274,-0.77584c1.01947,0 1.70535,0.13118 2.05767,0.39354c0.35981,0.25487 0.5697,0.63342 0.62967,1.13565c0.72712,-1.00447 1.87026,-1.5067 3.42944,-1.5067c1.56667,0 3.05088,0.74211 4.45265,2.22633c1.40177,1.47672 2.10265,3.19331 2.10265,5.14978c0,1.95647 -0.69713,3.67306 -2.0914,5.14978c-1.38677,1.47672 -2.86724,2.21508 -4.44141,2.21508c-1.57417,0 -2.71731,-0.44226 -3.42944,-1.3268v5.82443c0,0.43478 -0.01499,0.7571 -0.04498,0.96699c-0.02999,0.21739 -0.11619,0.46475 -0.25861,0.74211c-0.14243,0.27736 -0.38604,0.47226 -0.73086,0.5847c-0.34482,0.11994 -0.81707,0.1799 -1.41675,0.1799c-0.59219,0 -1.06818,-0.05996 -1.428,-0.1799c-0.35231,-0.11244 -0.59969,-0.30359 -0.74211,-0.57345c-0.14243,-0.26986 -0.22863,-0.50973 -0.25861,-0.71962c-0.02999,-0.20989 -0.04498,-0.53597 -0.04498,-0.97823zM344.47417,162.65723c-0.44227,0.51722 -0.6634,1.08317 -0.6634,1.69785c0,0.61468 0.22488,1.17688 0.67464,1.68661c0.45726,0.50973 1.03446,0.7646 1.73159,0.7646c0.70463,0 1.30056,-0.24737 1.78781,-0.74211c0.48724,-0.50224 0.73086,-1.06818 0.73086,-1.69785c0,-0.63717 -0.23238,-1.21061 -0.69713,-1.72034c-0.45726,-0.50973 -1.05694,-0.7646 -1.79905,-0.7646c-0.73461,0 -1.32305,0.25862 -1.76531,0.77585zM355.0989,164.53498c0,-2.30129 0.80582,-4.20154 2.41748,-5.70074c1.61164,-1.4992 3.45193,-2.24882 5.52084,-2.24882c2.07641,0 3.90919,0.74586 5.49835,2.23758c1.59666,1.48422 2.39499,3.37697 2.39499,5.67826c0,1.59666 -0.41228,3.01341 -1.23685,4.25026c-0.82457,1.23685 -1.82903,2.14763 -3.01341,2.73232c-1.17688,0.58469 -2.39873,0.87703 -3.66557,0.87703c-1.26684,0 -2.49618,-0.31108 -3.68805,-0.93326c-1.18437,-0.62217 -2.1851,-1.54043 -3.00216,-2.75479c-0.81707,-1.22186 -1.2256,-2.60113 -1.2256,-4.13782zM361.11447,166.59265c0.61468,0.46475 1.23685,0.69713 1.86652,0.69713c0.63716,0 1.27058,-0.23987 1.90025,-0.71962c0.63716,-0.47975 0.95575,-1.18812 0.95575,-2.12512c0,-0.937 -0.29985,-1.63414 -0.89953,-2.0914c-0.59219,-0.46475 -1.2331,-0.69713 -1.92273,-0.69713c-0.68963,0 -1.33429,0.23987 -1.93397,0.71962c-0.59219,0.47975 -0.88828,1.18438 -0.88828,2.11389c0,0.92951 0.30733,1.63039 0.92201,2.10264zM383.10787,157.1139c0.36731,0.11244 0.67089,0.30733 0.91077,0.58469c0.23987,0.27736 0.35981,0.72337 0.35981,1.33805c0,0.61468 -0.18366,1.28557 -0.55096,2.01269c-0.36731,0.72712 -0.89577,1.09068 -1.58541,1.09068c-0.34482,0 -0.67464,-0.07496 -0.98948,-0.22489c-0.31484,-0.15741 -0.73461,-0.23612 -1.25933,-0.23612c-0.51723,0 -1.00072,0.18365 -1.45048,0.55096c-0.44977,0.36731 -0.67465,0.80958 -0.67465,1.3268v6.03806c0,0.44226 -0.01499,0.77585 -0.04498,1.00073c-0.02999,0.21739 -0.11994,0.4685 -0.26986,0.75335c-0.29234,0.50224 -1.04195,0.75335 -2.24881,0.75335c-0.92201,0 -1.58542,-0.16492 -1.9902,-0.49474c-0.29985,-0.26236 -0.47225,-0.67464 -0.51722,-1.23684c0,-0.18741 0,-0.46475 0,-0.83206v-10.09717c0,-0.44226 0.01499,-0.7721 0.04497,-0.98948c0.02999,-0.22488 0.11244,-0.47225 0.24737,-0.74211c0.26986,-0.51722 1.01946,-0.77584 2.24882,-0.77584c1.14689,0 1.86651,0.22114 2.15886,0.66341c0.20989,0.30733 0.31484,0.62217 0.31484,0.9445c0.09745,-0.13493 0.23613,-0.2961 0.41603,-0.48349c0.1799,-0.1949 0.56595,-0.45351 1.15814,-0.77584c0.59968,-0.32982 1.12441,-0.49473 1.57417,-0.49473c0.44977,0 0.82831,0.02624 1.13566,0.07871c0.30733,0.04497 0.64465,0.12743 1.01196,0.24737zM394.76704,162.02756l-1.87776,-0.11244v3.96916c0,0.51722 0.08246,0.89202 0.24737,1.1244c0.16492,0.23238 0.47225,0.34857 0.92201,0.34857c0.44977,0 0.79458,0.01499 1.03445,0.04498c0.23987,0.02249 0.49473,0.11244 0.76459,0.26986c0.44227,0.24737 0.66341,0.88828 0.66341,1.92274c0,1.21436 -0.26986,1.95272 -0.80957,2.21509c-0.28485,0.13493 -0.53972,0.21738 -0.76459,0.24737c-0.21738,0.02999 -0.53597,0.04498 -0.95574,0.04498c-2.00144,0 -3.51939,-0.44977 -4.55384,-1.34929c-1.03445,-0.90703 -1.55168,-2.43246 -1.55168,-4.57633v-4.2615c-0.36731,0.05247 -0.76085,0.07872 -1.18063,0.07872c-0.41977,0 -0.77209,-0.16117 -1.05694,-0.4835c-0.27736,-0.32982 -0.41602,-0.88828 -0.41602,-1.67536c0,-0.78708 0.04872,-1.35679 0.14617,-1.7091c0.09745,-0.35231 0.23238,-0.60718 0.40478,-0.7646c0.30734,-0.24737 0.68964,-0.37105 1.1469,-0.37105l0.95575,0.11244v-2.95718c0,-0.44226 0.01499,-0.76835 0.04498,-0.97823c0.02999,-0.21739 0.11994,-0.44977 0.26986,-0.69714c0.24737,-0.47975 0.98573,-0.71962 2.21508,-0.71962c1.30431,0 2.0839,0.35606 2.33877,1.06819c0.08995,0.30733 0.13493,0.79458 0.13493,1.46173v2.82226c0.84705,-0.07496 1.48422,-0.11244 1.91149,-0.11244c0.43477,0 0.76085,0.01499 0.97824,0.04497c0.22488,0.02999 0.47975,0.11993 0.76459,0.26986c0.50224,0.24737 0.75336,0.98573 0.75336,2.21509c0,1.21436 -0.25861,1.95272 -0.77584,2.21508c-0.28485,0.13493 -0.53972,0.21738 -0.76459,0.24737c-0.21738,0.02999 -0.54721,0.04498 -0.98948,0.04498zM399.1684,167.71705c0.19489,-0.3748 0.48724,-0.62966 0.87703,-0.76459c0.39729,-0.13493 1.01197,-0.20239 1.84403,-0.20239c0.83206,0 1.43549,0.18365 1.8103,0.55096c0.3748,0.35981 0.5622,0.93327 0.5622,1.72035v0.46101c0,0.45726 -0.01499,0.79833 -0.04498,1.02321c-0.02999,0.21739 -0.11994,0.47975 -0.26986,0.78709c-0.30733,0.56221 -1.04195,0.8433 -2.20384,0.8433c-1.16188,0 -1.93023,-0.1874 -2.30503,-0.5622c-0.3748,-0.3748 -0.5622,-1.10192 -0.5622,-2.18135c0,-0.74211 0.09745,-1.30057 0.29234,-1.67536zM403.02511,164.36632c-0.36731,0.08996 -0.8583,0.13493 -1.47297,0.13493c-0.60718,0 -1.09442,-0.04497 -1.46173,-0.13493c-0.36731,-0.09745 -0.62217,-0.26986 -0.76459,-0.51722c-0.14243,-0.25487 -0.22863,-0.476 -0.25861,-0.6634c-0.02999,-0.1949 -0.04498,-0.49474 -0.04498,-0.89953v-9.11894c0,-0.40479 0.01499,-0.70837 0.04498,-0.91076c0.02999,-0.20239 0.11994,-0.42728 0.26986,-0.67464c0.15742,-0.25487 0.41603,-0.43478 0.77584,-0.53972c0.36731,-0.10494 0.8583,-0.15742 1.47298,-0.15742c0.61468,0 1.10192,0.05248 1.46173,0.15742c0.36731,0.10494 0.62217,0.2886 0.76459,0.55096c0.14992,0.26236 0.23613,0.49473 0.25861,0.69713c0.02999,0.1949 0.04498,0.49474 0.04498,0.89953v9.13019c0,0.39729 -0.01499,0.69339 -0.04498,0.88828c-0.02249,0.1949 -0.11244,0.41228 -0.26986,0.65215c-0.14992,0.23987 -0.40854,0.40854 -0.77584,0.50599z" fill="#ffffff" fill-rule="nonzero" stroke-width="1" stroke-linecap="square" stroke-linejoin="miter"/><path d="M167.14152,183.21204c0.15741,-0.29235 0.41603,-0.49474 0.77584,-0.60718c0.36731,-0.11244 0.82832,-0.16866 1.38303,-0.16866c0.55471,0 0.99323,0.04873 1.31556,0.14618c0.32982,0.08996 0.58094,0.20239 0.75335,0.33732c0.1724,0.13493 0.30734,0.32608 0.40479,0.57345c0.09745,0.32982 0.14617,0.82831 0.14617,1.49546v15.97782c0,0.44226 -0.01499,0.77585 -0.04497,1.00073c-0.02999,0.21739 -0.11994,0.4685 -0.26986,0.75335c-0.26986,0.51722 -1.01946,0.77585 -2.24882,0.77585c-1.34179,0 -2.12887,-0.35231 -2.36125,-1.05694c-0.11244,-0.32982 -0.16866,-0.82831 -0.16866,-1.49546v-5.84692h-7.62348v5.86941c0,0.44226 -0.01499,0.77584 -0.04497,1.00072c-0.02999,0.21739 -0.12369,0.46851 -0.2811,0.75336c-0.26236,0.51722 -1.00821,0.77584 -2.23756,0.77584c-1.34929,0 -2.13637,-0.35231 -2.36125,-1.05694c-0.11994,-0.32982 -0.1799,-0.82832 -0.1799,-1.49546v-15.97781c0,-0.44226 0.01499,-0.7721 0.04497,-0.98948c0.02999,-0.22488 0.1237,-0.47975 0.28111,-0.76459c0.26236,-0.51722 1.00821,-0.77584 2.23757,-0.77584c1.34179,0 2.14012,0.35231 2.39499,1.05694c0.09745,0.32982 0.14618,0.82831 0.14618,1.49546v5.88065h7.62347v-5.90313c0,-0.44226 0.01499,-0.77209 0.04497,-0.98948c0.02999,-0.22488 0.11994,-0.47975 0.26986,-0.7646zM188.84751,194.14127c0,1.17688 -0.29235,2.05017 -0.87704,2.61987c-0.58469,0.56221 -1.2331,0.84331 -1.94522,0.84331h-6.82515c0,0.53222 0.31483,0.98198 0.9445,1.34929c0.63717,0.36731 1.27433,0.55096 1.9115,0.55096c1.10942,0 1.9827,-0.11619 2.61987,-0.34856l0.31484,-0.11244c0.45726,-0.21739 0.83956,-0.32607 1.1469,-0.32607c0.61468,0 1.14314,0.43477 1.58541,1.30431c0.24737,0.51722 0.37106,0.95575 0.37106,1.31556c0,1.7091 -2.04267,2.56365 -6.12802,2.56365c-1.41675,0 -2.67983,-0.24362 -3.78924,-0.73086c-1.10192,-0.48724 -1.96022,-1.13564 -2.57489,-1.94522c-1.20686,-1.55168 -1.81029,-3.28702 -1.81029,-5.206c0,-2.42122 0.77958,-4.3552 2.33876,-5.80194c1.56667,-1.44674 3.52314,-2.1701 5.86941,-2.1701c2.6611,0 4.61757,0.94075 5.8694,2.82226c0.65215,0.99697 0.97824,2.08765 0.97824,3.27203zM182.77571,194.98458c0.72712,0 1.09068,-0.30733 1.09068,-0.92201c0,-0.44226 -0.16866,-0.79833 -0.50598,-1.06818c-0.33732,-0.26986 -0.81707,-0.40479 -1.43924,-0.40479c-0.62217,0 -1.2406,0.25486 -1.85527,0.76459c-0.61468,0.50973 -0.92201,1.0532 -0.92201,1.6304zM201.02347,188.54173c0.36731,0.11244 0.6709,0.30733 0.91078,0.58469c0.23987,0.27736 0.35981,0.72337 0.35981,1.33804c0,0.61468 -0.18365,1.28557 -0.55095,2.0127c-0.36731,0.72712 -0.89578,1.09067 -1.58541,1.09067c-0.34482,0 -0.67464,-0.07496 -0.98948,-0.22488c-0.31483,-0.15741 -0.73461,-0.23612 -1.25933,-0.23612c-0.51722,0 -1.00071,0.18365 -1.45048,0.55096c-0.44977,0.36731 -0.67464,0.80957 -0.67464,1.3268v6.03807c0,0.44226 -0.01499,0.77584 -0.04498,1.00072c-0.02999,0.21739 -0.11994,0.46851 -0.26986,0.75336c-0.29235,0.50224 -1.04196,0.75335 -2.24882,0.75335c-0.92201,0 -1.58541,-0.16492 -1.99019,-0.49474c-0.29985,-0.26236 -0.47225,-0.67464 -0.51722,-1.23685c0,-0.18741 0,-0.46475 0,-0.83206v-10.09717c0,-0.44226 0.01499,-0.7721 0.04498,-0.98948c0.02999,-0.22488 0.11244,-0.47225 0.24737,-0.74211c0.26986,-0.51722 1.01946,-0.77584 2.24882,-0.77584c1.1469,0 1.86651,0.22114 2.15886,0.66341c0.20989,0.30733 0.31483,0.62217 0.31483,0.9445c0.09745,-0.13493 0.23613,-0.2961 0.41603,-0.48349c0.1799,-0.1949 0.56596,-0.45351 1.15814,-0.77584c0.59968,-0.32982 1.1244,-0.49474 1.57417,-0.49474c0.44977,0 0.82831,0.02624 1.13565,0.07872c0.30733,0.04497 0.64466,0.12743 1.01197,0.24737zM217.63229,194.14127c0,1.17688 -0.29235,2.05017 -0.87704,2.61987c-0.58469,0.56221 -1.2331,0.84331 -1.94522,0.84331h-6.82514c0,0.53222 0.31484,0.98198 0.94451,1.34929c0.63717,0.36731 1.27432,0.55096 1.91149,0.55096c1.10941,0 1.98269,-0.11619 2.61986,-0.34856l0.31483,-0.11244c0.45726,-0.21739 0.83956,-0.32607 1.1469,-0.32607c0.61468,0 1.14315,0.43477 1.58542,1.30431c0.24737,0.51722 0.37106,0.95575 0.37106,1.31556c0,1.7091 -2.04267,2.56365 -6.12801,2.56365c-1.41675,0 -2.67983,-0.24362 -3.78924,-0.73086c-1.10192,-0.48724 -1.96022,-1.13564 -2.57489,-1.94522c-1.20686,-1.55168 -1.81029,-3.28702 -1.81029,-5.206c0,-2.42122 0.77958,-4.3552 2.33876,-5.80194c1.56667,-1.44674 3.52314,-2.1701 5.86941,-2.1701c2.66109,0 4.61755,0.94075 5.86939,2.82226c0.65215,0.99697 0.97823,2.08765 0.97823,3.27203zM211.56049,194.98458c0.72712,0 1.09068,-0.30733 1.09068,-0.92201c0,-0.44226 -0.16866,-0.79833 -0.50598,-1.06818c-0.33732,-0.26986 -0.81706,-0.40479 -1.43922,-0.40479c-0.62217,0 -1.2406,0.25486 -1.85527,0.76459c-0.61468,0.50973 -0.92201,1.0532 -0.92201,1.6304zM223.96134,183.03213c0.32982,0.32982 0.49473,0.88829 0.49473,1.67537v0.46101c0,0.47975 -0.01874,0.83206 -0.05622,1.05694c-0.13493,1.69411 -0.63716,3.14459 -1.5067,4.35146c-0.86205,1.20686 -1.95272,1.8103 -3.27202,1.8103c-0.13493,0 -0.25487,-0.09745 -0.35981,-0.29235c-0.10494,-0.20239 -0.15742,-0.4685 -0.15742,-0.79833c0,-0.32982 0.04123,-0.5847 0.12369,-0.7646c0.08996,-0.1799 0.1874,-0.28485 0.29234,-0.31483c0.10494,-0.02999 0.18366,-0.04873 0.23613,-0.05622c0.05997,-0.0075 0.16492,-0.05247 0.31484,-0.13493c0.15741,-0.08996 0.29234,-0.21364 0.40478,-0.37105c0.30733,-0.40479 0.4835,-1.02695 0.52848,-1.86651c-0.65965,-0.09745 -1.1469,-0.30734 -1.46173,-0.62967c-0.31483,-0.32982 -0.47225,-1.02321 -0.47225,-2.08015c0,-0.7646 0.0937,-1.3343 0.2811,-1.7091c0.1949,-0.3748 0.48725,-0.62217 0.87704,-0.74211c0.39729,-0.12743 1.00822,-0.19115 1.83279,-0.19115c0.82457,0 1.45798,0.19864 1.90025,0.59594zM226.44314,202.18078c-0.36731,-0.23238 -0.55096,-0.59593 -0.55096,-1.09067c0,-0.50224 0.36356,-1.26309 1.09068,-2.28254c0.20989,-0.32233 0.55096,-0.4835 1.02321,-0.4835c0.47225,0 1.10942,0.23613 1.9115,0.70838c0.80957,0.46475 1.54044,0.69714 2.1926,0.69714c1.16939,0 1.75408,-0.22863 1.75408,-0.68589c0,-0.36731 -0.64091,-0.63717 -1.92273,-0.80957c-1.21436,-0.1724 -2.41373,-0.62216 -3.59811,-1.34928c-0.56221,-0.34482 -1.02695,-0.88828 -1.39426,-1.63039c-0.35981,-0.74211 -0.53972,-1.61915 -0.53972,-2.63111c0,-3.0359 2.0839,-4.55384 6.2517,-4.55384c1.35679,0 2.7548,0.32609 4.19404,0.97824c0.67464,0.30733 1.01197,0.69338 1.01197,1.15814c0,0.45726 -0.21363,1.02321 -0.64091,1.69786c-0.41977,0.66715 -0.8508,1.00072 -1.29307,1.00072c-0.22488,0 -0.65215,-0.14243 -1.28182,-0.42727c-0.62217,-0.28484 -1.29681,-0.42728 -2.02393,-0.42728c-1.1319,0 -1.69785,0.2099 -1.69785,0.62967c0,0.57719 0.65216,0.952 1.95647,1.1244c1.26683,0.13493 2.49618,0.49849 3.68805,1.09068c0.55471,0.26986 1.01947,0.73461 1.39427,1.39427c0.3748,0.65965 0.5622,1.49171 0.5622,2.49618c0,0.99697 -0.1874,1.84778 -0.5622,2.55241c-0.3748,0.69713 -0.89953,1.21811 -1.57417,1.56293c-1.22186,0.59219 -2.76229,0.88828 -4.62131,0.88828c-1.85153,0 -3.62809,-0.53597 -5.32969,-1.6079zM252.80506,183.15582c0.50224,-0.50224 1.0457,-0.75335 1.63039,-0.75335c0.58469,0 1.03821,0.04872 1.36053,0.14617c0.32982,0.09745 0.58094,0.20989 0.75335,0.33732c0.17241,0.11994 0.30733,0.32234 0.40478,0.60718c0.09745,0.32982 0.14618,0.83956 0.14618,1.5292v16.03404c0,0.44226 -0.01499,0.77585 -0.04498,1.00073c-0.02999,0.21739 -0.12368,0.4685 -0.2811,0.75335c-0.26236,0.51722 -1.00822,0.77585 -2.23757,0.77585c-1.19187,0 -1.93023,-0.24737 -2.21508,-0.74211c-0.15741,-0.29235 -0.25112,-0.55846 -0.2811,-0.79833c-0.02999,-0.23987 -0.04497,-0.58844 -0.04497,-1.04569v-10.27708l-0.37105,0.34857c-0.78708,0.59219 -1.45798,0.88828 -2.01269,0.88828c-0.55471,0 -1.13564,-0.33357 -1.74282,-1.00072c-0.60718,-0.67464 -0.91077,-1.27058 -0.91077,-1.7878c0,-0.52472 0.34858,-1.09067 1.0457,-1.69785l4.71126,-4.2615zM261.14725,184.86492c0.56221,-0.77958 1.34554,-1.43174 2.35001,-1.95647c1.01197,-0.53222 2.1776,-0.79832 3.49691,-0.79832c1.3268,0 2.48494,0.26236 3.47442,0.78708c0.98948,0.51722 1.76532,1.15814 2.32752,1.92273c0.5697,0.7646 1.02696,1.66787 1.37178,2.70983c0.5697,1.72409 0.85455,3.55687 0.85455,5.49835c0,3.47067 -0.74586,6.22172 -2.23757,8.25315c-0.55471,0.7721 -1.3268,1.40925 -2.31628,1.91149c-0.98948,0.49474 -2.13638,0.74211 -3.44069,0.74211c-1.30431,0 -2.46245,-0.25486 -3.47441,-0.76459c-1.00447,-0.50973 -1.79155,-1.1394 -2.36125,-1.889c-0.56221,-0.74961 -1.02696,-1.64164 -1.39427,-2.67609c-0.55471,-1.64913 -0.83206,-3.51939 -0.83206,-5.61078c0,-1.91899 0.22488,-3.55688 0.67465,-4.91366c0.44976,-1.36428 0.952,-2.43622 1.50671,-3.2158zM266.97168,198.80756c1.97146,0 2.9572,-1.88151 2.9572,-5.64452v-0.16866c0,-3.86046 -0.97823,-5.79069 -2.9347,-5.79069c-1.95647,0 -2.9347,1.93398 -2.9347,5.80194c0,3.86796 0.97074,5.80194 2.91222,5.80194zM278.6484,184.86492c0.5622,-0.77958 1.34554,-1.43174 2.35001,-1.95647c1.01197,-0.53222 2.1776,-0.79832 3.49691,-0.79832c1.3268,0 2.48494,0.26236 3.47442,0.78708c0.98948,0.51722 1.76532,1.15814 2.32753,1.92273c0.5697,0.7646 1.02695,1.66787 1.37177,2.70983c0.5697,1.72409 0.85455,3.55687 0.85455,5.49835c0,3.47067 -0.74586,6.22172 -2.23757,8.25315c-0.55471,0.7721 -1.3268,1.40925 -2.31628,1.91149c-0.98948,0.49474 -2.13637,0.74211 -3.44068,0.74211c-1.30431,0 -2.46245,-0.25486 -3.47442,-0.76459c-1.00447,-0.50973 -1.79155,-1.1394 -2.36125,-1.889c-0.5622,-0.74961 -1.02696,-1.64164 -1.39427,-2.67609c-0.55471,-1.64913 -0.83206,-3.51939 -0.83206,-5.61078c0,-1.91899 0.22488,-3.55688 0.67464,-4.91366c0.44977,-1.36428 0.952,-2.43622 1.50671,-3.2158zM284.47283,198.80756c1.97146,0 2.95719,-1.88151 2.95719,-5.64452v-0.16866c0,-3.86046 -0.97822,-5.79069 -2.9347,-5.79069c-1.95647,0 -2.9347,1.93398 -2.9347,5.80194c0,3.86796 0.97073,5.80194 2.91221,5.80194z" fill="#ffffff" fill-rule="nonzero" stroke-width="1" stroke-linecap="square" stroke-linejoin="miter"/></g></g></svg>