<svg version="1.1" xmlns="http://www.w3.org/2000/svg" xmlns:xlink="http://www.w3.org/1999/xlink" width="720" height="540" viewBox="0,0,720,540"><defs><clipPath id="clip-1"><rect x="-240" y="-180" transform="scale(0.5,0.5)" width="1440" height="1080" fill="none" fill-rule="nonzero" stroke-width="0.5" stroke-linecap="butt"/></clipPath></defs><g transform="translate(120,90)"><g clip-path="url(#clip-1)" data-paper-data="{&quot;isPaintingLayer&quot;:true}" stroke="none" stroke-linejoin="miter" stroke-miterlimit="10" stroke-dasharray="" stroke-dashoffset="0" style="mix-blend-mode: normal"><path d="M-240,-180h960v720h-960z" fill-opacity="0" fill="#000000" fill-rule="evenodd" stroke-width="1" stroke-linecap="square"/><path d="M38.2152,142.42258h397.63782v46.39371h-397.63782z" fill-opacity="0" fill="#000000" fill-rule="evenodd" stroke-width="1" stroke-linecap="square"/><path d="M49.2621,169.34256c-0.13542,0 -0.23958,-0.04167 -0.3125,-0.125c-0.07292,-0.08333 -0.10937,-0.18229 -0.10937,-0.29687v-12.1875c0,-0.13542 0.03646,-0.24479 0.10938,-0.32812c0.07292,-0.08333 0.17708,-0.125 0.3125,-0.125h0.95313c0.13542,0 0.24479,0.04167 0.32813,0.125c0.08333,0.08333 0.125,0.19271 0.125,0.32813v5.14063h6.42188v-5.14062c0,-0.13542 0.03646,-0.24479 0.10938,-0.32812c0.08333,-0.08333 0.1875,-0.125 0.3125,-0.125h0.95313c0.13542,0 0.24479,0.04167 0.32813,0.125c0.08333,0.08333 0.125,0.19271 0.125,0.32813v12.1875c0,0.11458 -0.04167,0.21354 -0.125,0.29688c-0.08333,0.08333 -0.19271,0.125 -0.32812,0.125h-0.95312c-0.125,0 -0.22917,-0.04167 -0.3125,-0.125c-0.07292,-0.08333 -0.10937,-0.18229 -0.10937,-0.29687v-5.35937h-6.42187v5.35938c0,0.11458 -0.04167,0.21354 -0.125,0.29688c-0.08333,0.08333 -0.19271,0.125 -0.32812,0.125zM65.80144,169.53006c-1.29167,0 -2.31771,-0.39583 -3.07812,-1.1875c-0.76042,-0.79167 -1.17708,-1.86979 -1.25,-3.23437c-0.01042,-0.16667 -0.01562,-0.375 -0.01562,-0.625c0,-0.26042 0.00521,-0.46875 0.01563,-0.625c0.04167,-0.88542 0.24479,-1.66146 0.60938,-2.32812c0.36458,-0.66667 0.85938,-1.17708 1.48438,-1.53125c0.625,-0.36458 1.36458,-0.54687 2.21875,-0.54687c0.9375,0 1.72396,0.20313 2.35938,0.60938c0.64583,0.39583 1.13542,0.95833 1.46875,1.6875c0.34375,0.72917 0.51563,1.58854 0.51563,2.57813v0.3125c0,0.13542 -0.04167,0.24479 -0.125,0.32813c-0.08333,0.07292 -0.1875,0.10938 -0.3125,0.10938h-6.45312c0,0.01042 0,0.03646 0,0.07813c0,0.03125 0,0.05729 0,0.07813c0.03125,0.51042 0.14583,0.98958 0.34375,1.4375c0.19792,0.4375 0.48438,0.79688 0.85938,1.07813c0.38542,0.27083 0.83333,0.40625 1.34375,0.40625c0.4375,0 0.80729,-0.06771 1.10938,-0.20312c0.30208,-0.14583 0.54688,-0.30208 0.73438,-0.46875c0.1875,-0.16667 0.3125,-0.29687 0.375,-0.39062c0.10417,-0.15625 0.1875,-0.25 0.25,-0.28125c0.0625,-0.03125 0.16146,-0.04687 0.29688,-0.04687h0.92188c0.11458,0 0.20833,0.03646 0.28125,0.10938c0.08333,0.0625 0.11979,0.15625 0.10938,0.28125c-0.01042,0.1875 -0.10937,0.41667 -0.29687,0.6875c-0.1875,0.27083 -0.45312,0.53646 -0.79687,0.79688c-0.34375,0.26042 -0.76562,0.47396 -1.26562,0.64063c-0.5,0.16667 -1.06771,0.25 -1.70312,0.25zM63.23894,163.78006h5.10938v-0.04687c0,-0.5625 -0.10417,-1.0625 -0.3125,-1.5c-0.19792,-0.4375 -0.48958,-0.78125 -0.875,-1.03125c-0.38542,-0.26042 -0.84375,-0.39062 -1.375,-0.39062c-0.54167,0 -1.00521,0.13021 -1.39062,0.39063c-0.375,0.25 -0.66146,0.59375 -0.85937,1.03125c-0.19792,0.4375 -0.29687,0.9375 -0.29687,1.5zM72.79582,169.34256c-0.125,0 -0.22917,-0.04167 -0.3125,-0.125c-0.08333,-0.08333 -0.125,-0.18229 -0.125,-0.29687v-8.82812c0,-0.125 0.04167,-0.22917 0.125,-0.3125c0.08333,-0.09375 0.1875,-0.14062 0.3125,-0.14062h0.85938c0.125,0 0.22917,0.04688 0.3125,0.14063c0.08333,0.08333 0.125,0.1875 0.125,0.3125v0.8125c0.25,-0.41667 0.59375,-0.72917 1.03125,-0.9375c0.4375,-0.21875 0.96875,-0.32812 1.59375,-0.32812h0.71875c0.125,0 0.22917,0.04167 0.3125,0.125c0.08333,0.08333 0.125,0.1875 0.125,0.3125v0.76563c0,0.11458 -0.04167,0.21354 -0.125,0.29688c-0.08333,0.07292 -0.1875,0.10938 -0.3125,0.10938h-1.125c-0.66667,0 -1.19271,0.19792 -1.57812,0.59375c-0.38542,0.38542 -0.57812,0.91667 -0.57812,1.59375v5.48438c0,0.11458 -0.04687,0.21354 -0.14062,0.29688c-0.08333,0.08333 -0.1875,0.125 -0.3125,0.125zM83.15166,169.53006c-1.29167,0 -2.31771,-0.39583 -3.07812,-1.1875c-0.76042,-0.79167 -1.17708,-1.86979 -1.25,-3.23437c-0.01042,-0.16667 -0.01562,-0.375 -0.01562,-0.625c0,-0.26042 0.00521,-0.46875 0.01563,-0.625c0.04167,-0.88542 0.24479,-1.66146 0.60938,-2.32812c0.36458,-0.66667 0.85938,-1.17708 1.48438,-1.53125c0.625,-0.36458 1.36458,-0.54687 2.21875,-0.54687c0.9375,0 1.72396,0.20313 2.35938,0.60938c0.64583,0.39583 1.13542,0.95833 1.46875,1.6875c0.34375,0.72917 0.51563,1.58854 0.51563,2.57813v0.3125c0,0.13542 -0.04167,0.24479 -0.125,0.32813c-0.08333,0.07292 -0.1875,0.10938 -0.3125,0.10938h-6.45312c0,0.01042 0,0.03646 0,0.07813c0,0.03125 0,0.05729 0,0.07813c0.03125,0.51042 0.14583,0.98958 0.34375,1.4375c0.19792,0.4375 0.48438,0.79688 0.85938,1.07813c0.38542,0.27083 0.83333,0.40625 1.34375,0.40625c0.4375,0 0.80729,-0.06771 1.10938,-0.20312c0.30208,-0.14583 0.54688,-0.30208 0.73438,-0.46875c0.1875,-0.16667 0.3125,-0.29687 0.375,-0.39062c0.10417,-0.15625 0.1875,-0.25 0.25,-0.28125c0.0625,-0.03125 0.16146,-0.04687 0.29688,-0.04687h0.92188c0.11458,0 0.20833,0.03646 0.28125,0.10938c0.08333,0.0625 0.11979,0.15625 0.10938,0.28125c-0.01042,0.1875 -0.10937,0.41667 -0.29687,0.6875c-0.1875,0.27083 -0.45312,0.53646 -0.79687,0.79688c-0.34375,0.26042 -0.76562,0.47396 -1.26562,0.64063c-0.5,0.16667 -1.06771,0.25 -1.70312,0.25zM80.58916,163.78006h5.10938v-0.04687c0,-0.5625 -0.10417,-1.0625 -0.3125,-1.5c-0.19792,-0.4375 -0.48958,-0.78125 -0.875,-1.03125c-0.38542,-0.26042 -0.84375,-0.39062 -1.375,-0.39062c-0.54167,0 -1.00521,0.13021 -1.39062,0.39063c-0.375,0.25 -0.66146,0.59375 -0.85937,1.03125c-0.19792,0.4375 -0.29687,0.9375 -0.29687,1.5zM89.11424,159.70194c-0.09375,0 -0.17187,-0.03646 -0.23437,-0.10937c-0.05208,-0.08333 -0.07292,-0.17708 -0.0625,-0.28125l0.4375,-2.67187c0.02083,-0.14583 0.06771,-0.27083 0.14063,-0.375c0.08333,-0.11458 0.20833,-0.17187 0.375,-0.17187h1.25c0.08333,0 0.15104,0.03646 0.20313,0.10938c0.0625,0.0625 0.09375,0.13542 0.09375,0.21875c0,0.09375 -0.02604,0.19271 -0.07812,0.29688l-0.96875,2.54688c-0.05208,0.125 -0.11979,0.22917 -0.20312,0.3125c-0.07292,0.08333 -0.18229,0.125 -0.32812,0.125zM96.08955,169.53006c-0.69792,0 -1.29687,-0.08333 -1.79687,-0.25c-0.48958,-0.17708 -0.89062,-0.39062 -1.20312,-0.64062c-0.3125,-0.25 -0.54687,-0.5 -0.70312,-0.75c-0.15625,-0.25 -0.23958,-0.44792 -0.25,-0.59375c-0.01042,-0.13542 0.03125,-0.23958 0.125,-0.3125c0.10417,-0.08333 0.20833,-0.125 0.3125,-0.125h0.82813c0.0625,0 0.11458,0.01042 0.15625,0.03125c0.05208,0.02083 0.11458,0.07292 0.1875,0.15625c0.15625,0.17708 0.33333,0.35417 0.53125,0.53125c0.20833,0.16667 0.45833,0.30729 0.75,0.42188c0.29167,0.11458 0.65104,0.17188 1.07813,0.17188c0.63542,0 1.15625,-0.11979 1.5625,-0.35937c0.41667,-0.25 0.625,-0.60937 0.625,-1.07812c0,-0.3125 -0.08333,-0.5625 -0.25,-0.75c-0.16667,-0.1875 -0.46354,-0.35417 -0.89062,-0.5c-0.42708,-0.14583 -1.01562,-0.30208 -1.76562,-0.46875c-0.75,-0.17708 -1.34375,-0.39062 -1.78125,-0.64062c-0.42708,-0.26042 -0.73437,-0.56771 -0.92187,-0.92187c-0.1875,-0.35417 -0.28125,-0.75521 -0.28125,-1.20312c0,-0.45833 0.13542,-0.90104 0.40625,-1.32812c0.27083,-0.42708 0.67188,-0.77604 1.20313,-1.04687c0.53125,-0.28125 1.19271,-0.42187 1.98438,-0.42187c0.64583,0 1.19792,0.08333 1.65625,0.25c0.46875,0.15625 0.84896,0.35938 1.14063,0.60938c0.30208,0.23958 0.52604,0.47917 0.67188,0.71875c0.15625,0.22917 0.23958,0.42708 0.25,0.59375c0.01042,0.125 -0.03125,0.22917 -0.125,0.3125c-0.08333,0.07292 -0.17708,0.10938 -0.28125,0.10938h-0.79687c-0.08333,0 -0.15625,-0.01562 -0.21875,-0.04687c-0.05208,-0.04167 -0.09896,-0.08854 -0.14062,-0.14062c-0.125,-0.15625 -0.27604,-0.3125 -0.45312,-0.46875c-0.16667,-0.16667 -0.38542,-0.30208 -0.65625,-0.40625c-0.26042,-0.11458 -0.60937,-0.17187 -1.04687,-0.17187c-0.61458,0 -1.07812,0.13021 -1.39062,0.39063c-0.3125,0.26042 -0.46875,0.59375 -0.46875,1c0,0.22917 0.06771,0.4375 0.20313,0.625c0.13542,0.1875 0.39583,0.35938 0.78125,0.51563c0.38542,0.14583 0.95833,0.30729 1.71875,0.48438c0.82292,0.15625 1.46875,0.375 1.9375,0.65625c0.47917,0.27083 0.81771,0.58854 1.01563,0.95313c0.19792,0.35417 0.29688,0.76563 0.29688,1.23438c0,0.52083 -0.15104,1 -0.45312,1.4375c-0.30208,0.4375 -0.75,0.78646 -1.34375,1.04688c-0.59375,0.25 -1.32812,0.375 -2.20312,0.375zM108.01479,172.88944c-0.10417,0 -0.19271,-0.03646 -0.26562,-0.10937c-0.07292,-0.07292 -0.10937,-0.16146 -0.10937,-0.26562c0,-0.05208 0.00521,-0.10417 0.01563,-0.15625c0.02083,-0.04167 0.04688,-0.10417 0.07813,-0.1875l1.4375,-3.40625l-3.5625,-8.42187c-0.0625,-0.14583 -0.09375,-0.25 -0.09375,-0.3125c0,-0.11458 0.03646,-0.20833 0.10938,-0.28125c0.07292,-0.07292 0.16667,-0.10937 0.28125,-0.10937h0.92188c0.13542,0 0.23438,0.03125 0.29688,0.09375c0.0625,0.0625 0.10938,0.13542 0.14063,0.21875l2.84375,6.79688l2.90625,-6.79687c0.04167,-0.08333 0.09375,-0.15625 0.15625,-0.21875c0.07292,-0.0625 0.17708,-0.09375 0.3125,-0.09375h0.875c0.11458,0 0.20833,0.03646 0.28125,0.10938c0.07292,0.07292 0.10938,0.16146 0.10938,0.26563c0,0.0625 -0.03125,0.17188 -0.09375,0.32813l-5.29687,12.23438c-0.04167,0.08333 -0.09896,0.15625 -0.17187,0.21875c-0.0625,0.0625 -0.16146,0.09375 -0.29687,0.09375zM120.25829,169.53006c-0.94792,0 -1.73958,-0.17708 -2.375,-0.53125c-0.63542,-0.36458 -1.11979,-0.86458 -1.45312,-1.5c-0.33333,-0.64583 -0.52083,-1.38021 -0.5625,-2.20312c-0.01042,-0.20833 -0.01562,-0.47917 -0.01562,-0.8125c0,-0.33333 0.00521,-0.59896 0.01563,-0.79687c0.04167,-0.83333 0.22917,-1.56771 0.5625,-2.20312c0.34375,-0.63542 0.83333,-1.13021 1.46875,-1.48437c0.63542,-0.36458 1.42188,-0.54687 2.35938,-0.54687c0.92708,0 1.70833,0.18229 2.34375,0.54688c0.63542,0.35417 1.125,0.84896 1.46875,1.48438c0.34375,0.63542 0.53125,1.36979 0.5625,2.20313c0.01042,0.19792 0.01563,0.46354 0.01563,0.79688c0,0.33333 -0.00521,0.60417 -0.01562,0.8125c-0.03125,0.82292 -0.21875,1.55729 -0.5625,2.20313c-0.33333,0.63542 -0.81771,1.13542 -1.45312,1.5c-0.63542,0.35417 -1.42187,0.53125 -2.35937,0.53125zM120.25829,168.09256c0.77083,0 1.38542,-0.24479 1.84375,-0.73437c0.45833,-0.48958 0.70833,-1.20833 0.75,-2.15625c0.01042,-0.1875 0.01563,-0.42187 0.01563,-0.70312c0,-0.29167 -0.00521,-0.53125 -0.01562,-0.71875c-0.04167,-0.94792 -0.29167,-1.66667 -0.75,-2.15625c-0.45833,-0.48958 -1.07292,-0.73437 -1.84375,-0.73437c-0.77083,0 -1.39062,0.24479 -1.85937,0.73438c-0.46875,0.48958 -0.71354,1.20833 -0.73437,2.15625c-0.01042,0.1875 -0.01562,0.42708 -0.01562,0.71875c0,0.28125 0.00521,0.51563 0.01563,0.70313c0.02083,0.94792 0.26563,1.66667 0.73438,2.15625c0.46875,0.48958 1.08854,0.73438 1.85938,0.73438zM130.60759,169.53006c-0.79167,0 -1.46875,-0.17708 -2.03125,-0.53125c-0.55208,-0.35417 -0.97396,-0.84896 -1.26562,-1.48437c-0.28125,-0.63542 -0.42187,-1.36458 -0.42187,-2.1875v-5.25c0,-0.125 0.04167,-0.22917 0.125,-0.3125c0.08333,-0.08333 0.1875,-0.125 0.3125,-0.125h0.9375c0.11458,0 0.21354,0.04167 0.29688,0.125c0.08333,0.08333 0.125,0.1875 0.125,0.3125v5.15625c0,1.85417 0.80729,2.78125 2.42188,2.78125c0.77083,0 1.39063,-0.24479 1.85938,-0.73437c0.46875,-0.48958 0.70313,-1.17187 0.70313,-2.04687v-5.15625c0,-0.125 0.03646,-0.22917 0.10938,-0.3125c0.08333,-0.08333 0.1875,-0.125 0.3125,-0.125h0.9375c0.125,0 0.22396,0.04167 0.29688,0.125c0.07292,0.08333 0.10938,0.1875 0.10938,0.3125v8.84375c0,0.11458 -0.03646,0.21354 -0.10937,0.29688c-0.07292,0.08333 -0.17187,0.125 -0.29687,0.125h-0.875c-0.125,0 -0.22917,-0.04167 -0.3125,-0.125c-0.08333,-0.08333 -0.125,-0.18229 -0.125,-0.29687v-0.82812c-0.33333,0.4375 -0.73958,0.78646 -1.21875,1.04688c-0.47917,0.26042 -1.10937,0.39063 -1.89062,0.39063zM138.65117,169.34256c-0.125,0 -0.22917,-0.04167 -0.3125,-0.125c-0.08333,-0.08333 -0.125,-0.18229 -0.125,-0.29687v-8.82812c0,-0.125 0.04167,-0.22917 0.125,-0.3125c0.08333,-0.09375 0.1875,-0.14062 0.3125,-0.14062h0.85938c0.125,0 0.22917,0.04688 0.3125,0.14063c0.08333,0.08333 0.125,0.1875 0.125,0.3125v0.8125c0.25,-0.41667 0.59375,-0.72917 1.03125,-0.9375c0.4375,-0.21875 0.96875,-0.32812 1.59375,-0.32812h0.71875c0.125,0 0.22917,0.04167 0.3125,0.125c0.08333,0.08333 0.125,0.1875 0.125,0.3125v0.76563c0,0.11458 -0.04167,0.21354 -0.125,0.29688c-0.08333,0.07292 -0.1875,0.10938 -0.3125,0.10938h-1.125c-0.66667,0 -1.19271,0.19792 -1.57812,0.59375c-0.38542,0.38542 -0.57812,0.91667 -0.57812,1.59375v5.48438c0,0.11458 -0.04687,0.21354 -0.14062,0.29688c-0.08333,0.08333 -0.1875,0.125 -0.3125,0.125zM152.80385,169.53006c-0.69792,0 -1.29687,-0.08333 -1.79687,-0.25c-0.48958,-0.17708 -0.89062,-0.39062 -1.20312,-0.64062c-0.3125,-0.25 -0.54687,-0.5 -0.70312,-0.75c-0.15625,-0.25 -0.23958,-0.44792 -0.25,-0.59375c-0.01042,-0.13542 0.03125,-0.23958 0.125,-0.3125c0.10417,-0.08333 0.20833,-0.125 0.3125,-0.125h0.82813c0.0625,0 0.11458,0.01042 0.15625,0.03125c0.05208,0.02083 0.11458,0.07292 0.1875,0.15625c0.15625,0.17708 0.33333,0.35417 0.53125,0.53125c0.20833,0.16667 0.45833,0.30729 0.75,0.42188c0.29167,0.11458 0.65104,0.17188 1.07813,0.17188c0.63542,0 1.15625,-0.11979 1.5625,-0.35937c0.41667,-0.25 0.625,-0.60937 0.625,-1.07812c0,-0.3125 -0.08333,-0.5625 -0.25,-0.75c-0.16667,-0.1875 -0.46354,-0.35417 -0.89062,-0.5c-0.42708,-0.14583 -1.01562,-0.30208 -1.76562,-0.46875c-0.75,-0.17708 -1.34375,-0.39062 -1.78125,-0.64062c-0.42708,-0.26042 -0.73437,-0.56771 -0.92187,-0.92187c-0.1875,-0.35417 -0.28125,-0.75521 -0.28125,-1.20312c0,-0.45833 0.13542,-0.90104 0.40625,-1.32812c0.27083,-0.42708 0.67188,-0.77604 1.20313,-1.04687c0.53125,-0.28125 1.19271,-0.42187 1.98438,-0.42187c0.64583,0 1.19792,0.08333 1.65625,0.25c0.46875,0.15625 0.84896,0.35938 1.14063,0.60938c0.30208,0.23958 0.52604,0.47917 0.67188,0.71875c0.15625,0.22917 0.23958,0.42708 0.25,0.59375c0.01042,0.125 -0.03125,0.22917 -0.125,0.3125c-0.08333,0.07292 -0.17708,0.10938 -0.28125,0.10938h-0.79687c-0.08333,0 -0.15625,-0.01562 -0.21875,-0.04687c-0.05208,-0.04167 -0.09896,-0.08854 -0.14062,-0.14062c-0.125,-0.15625 -0.27604,-0.3125 -0.45312,-0.46875c-0.16667,-0.16667 -0.38542,-0.30208 -0.65625,-0.40625c-0.26042,-0.11458 -0.60937,-0.17187 -1.04687,-0.17187c-0.61458,0 -1.07812,0.13021 -1.39062,0.39063c-0.3125,0.26042 -0.46875,0.59375 -0.46875,1c0,0.22917 0.06771,0.4375 0.20313,0.625c0.13542,0.1875 0.39583,0.35938 0.78125,0.51563c0.38542,0.14583 0.95833,0.30729 1.71875,0.48438c0.82292,0.15625 1.46875,0.375 1.9375,0.65625c0.47917,0.27083 0.81771,0.58854 1.01563,0.95313c0.19792,0.35417 0.29688,0.76563 0.29688,1.23438c0,0.52083 -0.15104,1 -0.45312,1.4375c-0.30208,0.4375 -0.75,0.78646 -1.34375,1.04688c-0.59375,0.25 -1.32812,0.375 -2.20312,0.375zM161.66231,169.53006c-0.61458,0 -1.17708,-0.125 -1.6875,-0.375c-0.51042,-0.25 -0.92187,-0.58333 -1.23437,-1c-0.3125,-0.42708 -0.46875,-0.90625 -0.46875,-1.4375c0,-0.86458 0.34896,-1.55208 1.04688,-2.0625c0.69792,-0.51042 1.60417,-0.84375 2.71875,-1l2.78125,-0.39062v-0.54687c0,-0.59375 -0.17187,-1.05729 -0.51562,-1.39062c-0.33333,-0.34375 -0.88542,-0.51562 -1.65625,-0.51562c-0.41667,0 -0.76562,0.0625 -1.04687,0.1875c-0.28125,0.125 -0.51042,0.27604 -0.6875,0.45313c-0.16667,0.17708 -0.30208,0.34896 -0.40625,0.51563c-0.04167,0.11458 -0.09375,0.19792 -0.15625,0.25c-0.05208,0.05208 -0.11979,0.07813 -0.20312,0.07813h-0.8125c-0.11458,0 -0.21354,-0.04167 -0.29687,-0.125c-0.07292,-0.08333 -0.10937,-0.18229 -0.10937,-0.29687c0,-0.1875 0.06771,-0.41667 0.20313,-0.6875c0.14583,-0.27083 0.36979,-0.53646 0.67188,-0.79687c0.30208,-0.26042 0.68229,-0.47917 1.14063,-0.65625c0.46875,-0.1875 1.04167,-0.28125 1.71875,-0.28125c0.73958,0 1.36458,0.09896 1.875,0.29688c0.51042,0.1875 0.91146,0.44271 1.20313,0.76563c0.29167,0.32292 0.50521,0.69271 0.64063,1.10938c0.13542,0.40625 0.20313,0.82292 0.20313,1.25v6.04688c0,0.11458 -0.04167,0.21354 -0.125,0.29688c-0.08333,0.08333 -0.1875,0.125 -0.3125,0.125h-0.85937c-0.13542,0 -0.23958,-0.04167 -0.3125,-0.125c-0.07292,-0.08333 -0.10937,-0.18229 -0.10937,-0.29687v-0.8125c-0.16667,0.22917 -0.38542,0.45313 -0.65625,0.67188c-0.27083,0.20833 -0.61458,0.38542 -1.03125,0.53125c-0.40625,0.14583 -0.91146,0.21875 -1.51562,0.21875zM162.06856,168.12381c0.51042,0 0.97396,-0.10417 1.39063,-0.3125c0.42708,-0.21875 0.76042,-0.55729 1,-1.01562c0.23958,-0.46875 0.35938,-1.05208 0.35938,-1.75v-0.51562l-2.15625,0.3125c-0.88542,0.125 -1.55208,0.33333 -2,0.625c-0.44792,0.29167 -0.67187,0.66146 -0.67187,1.10938c0,0.35417 0.09896,0.64583 0.29688,0.875c0.20833,0.22917 0.46875,0.40104 0.78125,0.51563c0.32292,0.10417 0.65625,0.15625 1,0.15625zM172.44575,169.34256c-0.17708,0 -0.32292,-0.04167 -0.4375,-0.125c-0.10417,-0.09375 -0.1875,-0.20833 -0.25,-0.34375l-3.45312,-8.65625c-0.02083,-0.0625 -0.03125,-0.125 -0.03125,-0.1875c0,-0.11458 0.03646,-0.20833 0.10938,-0.28125c0.07292,-0.07292 0.16667,-0.10937 0.28125,-0.10937h0.89063c0.14583,0 0.25521,0.03646 0.32813,0.10938c0.07292,0.07292 0.11979,0.14063 0.14063,0.20313l2.84375,7.35938l2.82813,-7.35937c0.03125,-0.0625 0.07813,-0.13021 0.14063,-0.20312c0.07292,-0.07292 0.17708,-0.10937 0.3125,-0.10937h0.90625c0.10417,0 0.19271,0.03646 0.26563,0.10938c0.08333,0.07292 0.125,0.16667 0.125,0.28125c0,0.0625 -0.01042,0.125 -0.03125,0.1875l-3.46875,8.65625c-0.05208,0.13542 -0.13021,0.25 -0.23437,0.34375c-0.10417,0.08333 -0.25521,0.125 -0.45312,0.125zM182.9423,169.53006c-1.29167,0 -2.31771,-0.39583 -3.07812,-1.1875c-0.76042,-0.79167 -1.17708,-1.86979 -1.25,-3.23437c-0.01042,-0.16667 -0.01562,-0.375 -0.01562,-0.625c0,-0.26042 0.00521,-0.46875 0.01563,-0.625c0.04167,-0.88542 0.24479,-1.66146 0.60938,-2.32812c0.36458,-0.66667 0.85938,-1.17708 1.48438,-1.53125c0.625,-0.36458 1.36458,-0.54687 2.21875,-0.54687c0.9375,0 1.72396,0.20313 2.35938,0.60938c0.64583,0.39583 1.13542,0.95833 1.46875,1.6875c0.34375,0.72917 0.51563,1.58854 0.51563,2.57813v0.3125c0,0.13542 -0.04167,0.24479 -0.125,0.32813c-0.08333,0.07292 -0.1875,0.10938 -0.3125,0.10938h-6.45312c0,0.01042 0,0.03646 0,0.07813c0,0.03125 0,0.05729 0,0.07813c0.03125,0.51042 0.14583,0.98958 0.34375,1.4375c0.19792,0.4375 0.48438,0.79688 0.85938,1.07813c0.38542,0.27083 0.83333,0.40625 1.34375,0.40625c0.4375,0 0.80729,-0.06771 1.10938,-0.20312c0.30208,-0.14583 0.54688,-0.30208 0.73438,-0.46875c0.1875,-0.16667 0.3125,-0.29687 0.375,-0.39062c0.10417,-0.15625 0.1875,-0.25 0.25,-0.28125c0.0625,-0.03125 0.16146,-0.04687 0.29688,-0.04687h0.92188c0.11458,0 0.20833,0.03646 0.28125,0.10938c0.08333,0.0625 0.11979,0.15625 0.10938,0.28125c-0.01042,0.1875 -0.10937,0.41667 -0.29687,0.6875c-0.1875,0.27083 -0.45312,0.53646 -0.79687,0.79688c-0.34375,0.26042 -0.76562,0.47396 -1.26562,0.64063c-0.5,0.16667 -1.06771,0.25 -1.70312,0.25zM180.3798,163.78006h5.10938v-0.04687c0,-0.5625 -0.10417,-1.0625 -0.3125,-1.5c-0.19792,-0.4375 -0.48958,-0.78125 -0.875,-1.03125c-0.38542,-0.26042 -0.84375,-0.39062 -1.375,-0.39062c-0.54167,0 -1.00521,0.13021 -1.39062,0.39063c-0.375,0.25 -0.66146,0.59375 -0.85937,1.03125c-0.19792,0.4375 -0.29687,0.9375 -0.29687,1.5zM193.42106,169.53006c-0.88542,0 -1.65104,-0.17187 -2.29687,-0.51562c-0.63542,-0.34375 -1.13021,-0.83333 -1.48437,-1.46875c-0.34375,-0.64583 -0.52604,-1.41667 -0.54687,-2.3125c-0.01042,-0.1875 -0.01562,-0.43229 -0.01562,-0.73437c0,-0.3125 0.00521,-0.5625 0.01563,-0.75c0.02083,-0.89583 0.20313,-1.66146 0.54688,-2.29687c0.35417,-0.64583 0.84896,-1.14062 1.48438,-1.48437c0.64583,-0.34375 1.41146,-0.51562 2.29688,-0.51562c0.71875,0 1.33333,0.09896 1.84375,0.29688c0.52083,0.19792 0.94792,0.45313 1.28125,0.76563c0.34375,0.3125 0.59896,0.65104 0.76563,1.01563c0.16667,0.35417 0.25521,0.69271 0.26563,1.01563c0.02083,0.125 -0.01562,0.22917 -0.10937,0.3125c-0.08333,0.07292 -0.1875,0.10938 -0.3125,0.10938h-0.89062c-0.125,0 -0.21875,-0.02604 -0.28125,-0.07812c-0.0625,-0.0625 -0.125,-0.16146 -0.1875,-0.29687c-0.22917,-0.61458 -0.53646,-1.04167 -0.92187,-1.28125c-0.38542,-0.25 -0.86458,-0.375 -1.4375,-0.375c-0.73958,0 -1.34375,0.22917 -1.8125,0.6875c-0.46875,0.45833 -0.71875,1.19792 -0.75,2.21875c-0.02083,0.44792 -0.02083,0.88021 0,1.29688c0.03125,1.03125 0.28125,1.77604 0.75,2.23438c0.46875,0.45833 1.07292,0.6875 1.8125,0.6875c0.57292,0 1.05208,-0.125 1.4375,-0.375c0.38542,-0.25 0.69271,-0.68229 0.92188,-1.29687c0.0625,-0.13542 0.125,-0.23437 0.1875,-0.29687c0.0625,-0.0625 0.15625,-0.09375 0.28125,-0.09375h0.89063c0.125,0 0.22917,0.04167 0.3125,0.125c0.09375,0.08333 0.13021,0.1875 0.10938,0.3125c-0.01042,0.26042 -0.06771,0.52604 -0.17187,0.79688c-0.09375,0.27083 -0.25,0.54688 -0.46875,0.82813c-0.21875,0.28125 -0.48958,0.53125 -0.8125,0.75c-0.32292,0.21875 -0.70833,0.39583 -1.15625,0.53125c-0.44792,0.125 -0.96354,0.1875 -1.54687,0.1875zM203.78181,169.53006c-0.94792,0 -1.73958,-0.17708 -2.375,-0.53125c-0.63542,-0.36458 -1.11979,-0.86458 -1.45312,-1.5c-0.33333,-0.64583 -0.52083,-1.38021 -0.5625,-2.20312c-0.01042,-0.20833 -0.01562,-0.47917 -0.01562,-0.8125c0,-0.33333 0.00521,-0.59896 0.01563,-0.79687c0.04167,-0.83333 0.22917,-1.56771 0.5625,-2.20312c0.34375,-0.63542 0.83333,-1.13021 1.46875,-1.48437c0.63542,-0.36458 1.42188,-0.54687 2.35938,-0.54687c0.92708,0 1.70833,0.18229 2.34375,0.54688c0.63542,0.35417 1.125,0.84896 1.46875,1.48438c0.34375,0.63542 0.53125,1.36979 0.5625,2.20313c0.01042,0.19792 0.01563,0.46354 0.01563,0.79688c0,0.33333 -0.00521,0.60417 -0.01562,0.8125c-0.03125,0.82292 -0.21875,1.55729 -0.5625,2.20313c-0.33333,0.63542 -0.81771,1.13542 -1.45312,1.5c-0.63542,0.35417 -1.42187,0.53125 -2.35937,0.53125zM203.78181,168.09256c0.77083,0 1.38542,-0.24479 1.84375,-0.73437c0.45833,-0.48958 0.70833,-1.20833 0.75,-2.15625c0.01042,-0.1875 0.01563,-0.42187 0.01563,-0.70312c0,-0.29167 -0.00521,-0.53125 -0.01562,-0.71875c-0.04167,-0.94792 -0.29167,-1.66667 -0.75,-2.15625c-0.45833,-0.48958 -1.07292,-0.73437 -1.84375,-0.73437c-0.77083,0 -1.39062,0.24479 -1.85937,0.73438c-0.46875,0.48958 -0.71354,1.20833 -0.73437,2.15625c-0.01042,0.1875 -0.01562,0.42708 -0.01562,0.71875c0,0.28125 0.00521,0.51563 0.01563,0.70313c0.02083,0.94792 0.26563,1.66667 0.73438,2.15625c0.46875,0.48958 1.08854,0.73438 1.85938,0.73438zM214.05299,169.53006c-0.67708,0 -1.26562,-0.11979 -1.76562,-0.35937c-0.5,-0.25 -0.91146,-0.58333 -1.23437,-1c-0.3125,-0.41667 -0.54687,-0.89062 -0.70312,-1.42187c-0.15625,-0.53125 -0.24479,-1.09896 -0.26562,-1.70312c-0.01042,-0.19792 -0.01562,-0.38021 -0.01562,-0.54687c0,-0.17708 0.00521,-0.36458 0.01563,-0.5625c0.02083,-0.58333 0.10938,-1.14062 0.26563,-1.67187c0.15625,-0.54167 0.39063,-1.02083 0.70313,-1.4375c0.32292,-0.42708 0.73438,-0.76042 1.23438,-1c0.5,-0.25 1.08854,-0.375 1.76563,-0.375c0.73958,0 1.34896,0.13021 1.82813,0.39063c0.48958,0.26042 0.89063,0.58333 1.20313,0.96875v-4.28125c0,-0.125 0.03646,-0.22917 0.10938,-0.3125c0.08333,-0.08333 0.1875,-0.125 0.3125,-0.125h0.89063c0.125,0 0.22917,0.04167 0.3125,0.125c0.08333,0.08333 0.125,0.1875 0.125,0.3125v12.39063c0,0.11458 -0.04167,0.21354 -0.125,0.29688c-0.08333,0.08333 -0.1875,0.125 -0.3125,0.125h-0.82812c-0.13542,0 -0.24479,-0.04167 -0.32812,-0.125c-0.07292,-0.08333 -0.10937,-0.18229 -0.10937,-0.29687v-0.79687c-0.3125,0.40625 -0.71875,0.74479 -1.21875,1.01563c-0.48958,0.26042 -1.10937,0.39063 -1.85937,0.39063zM214.44362,168.01444c0.625,0 1.125,-0.14062 1.5,-0.42187c0.375,-0.29167 0.65104,-0.65625 0.82813,-1.09375c0.1875,-0.4375 0.29167,-0.89062 0.3125,-1.35937c0.01042,-0.19792 0.01563,-0.43229 0.01563,-0.70312c0,-0.28125 -0.00521,-0.52604 -0.01562,-0.73437c-0.02083,-0.42708 -0.13021,-0.85417 -0.32812,-1.28125c-0.1875,-0.42708 -0.46875,-0.77604 -0.84375,-1.04687c-0.375,-0.27083 -0.86458,-0.40625 -1.46875,-0.40625c-0.63542,0 -1.14062,0.14063 -1.51562,0.42188c-0.36458,0.28125 -0.63021,0.65104 -0.79687,1.10938c-0.15625,0.44792 -0.25,0.93229 -0.28125,1.45313c-0.01042,0.36458 -0.01042,0.72396 0,1.07813c0.03125,0.52083 0.125,1.01042 0.28125,1.46875c0.16667,0.44792 0.43229,0.8125 0.79688,1.09375c0.375,0.28125 0.88021,0.42188 1.51563,0.42188zM225.49721,169.53006c-1.29167,0 -2.31771,-0.39583 -3.07812,-1.1875c-0.76042,-0.79167 -1.17708,-1.86979 -1.25,-3.23437c-0.01042,-0.16667 -0.01562,-0.375 -0.01562,-0.625c0,-0.26042 0.00521,-0.46875 0.01563,-0.625c0.04167,-0.88542 0.24479,-1.66146 0.60938,-2.32812c0.36458,-0.66667 0.85938,-1.17708 1.48438,-1.53125c0.625,-0.36458 1.36458,-0.54687 2.21875,-0.54687c0.9375,0 1.72396,0.20313 2.35938,0.60938c0.64583,0.39583 1.13542,0.95833 1.46875,1.6875c0.34375,0.72917 0.51563,1.58854 0.51563,2.57813v0.3125c0,0.13542 -0.04167,0.24479 -0.125,0.32813c-0.08333,0.07292 -0.1875,0.10938 -0.3125,0.10938h-6.45312c0,0.01042 0,0.03646 0,0.07813c0,0.03125 0,0.05729 0,0.07813c0.03125,0.51042 0.14583,0.98958 0.34375,1.4375c0.19792,0.4375 0.48438,0.79688 0.85938,1.07813c0.38542,0.27083 0.83333,0.40625 1.34375,0.40625c0.4375,0 0.80729,-0.06771 1.10938,-0.20312c0.30208,-0.14583 0.54688,-0.30208 0.73438,-0.46875c0.1875,-0.16667 0.3125,-0.29687 0.375,-0.39062c0.10417,-0.15625 0.1875,-0.25 0.25,-0.28125c0.0625,-0.03125 0.16146,-0.04687 0.29688,-0.04687h0.92188c0.11458,0 0.20833,0.03646 0.28125,0.10938c0.08333,0.0625 0.11979,0.15625 0.10938,0.28125c-0.01042,0.1875 -0.10937,0.41667 -0.29687,0.6875c-0.1875,0.27083 -0.45312,0.53646 -0.79687,0.79688c-0.34375,0.26042 -0.76562,0.47396 -1.26562,0.64063c-0.5,0.16667 -1.06771,0.25 -1.70312,0.25zM222.93471,163.78006h5.10938v-0.04687c0,-0.5625 -0.10417,-1.0625 -0.3125,-1.5c-0.19792,-0.4375 -0.48958,-0.78125 -0.875,-1.03125c-0.38542,-0.26042 -0.84375,-0.39062 -1.375,-0.39062c-0.54167,0 -1.00521,0.13021 -1.39062,0.39063c-0.375,0.25 -0.66146,0.59375 -0.85937,1.03125c-0.19792,0.4375 -0.29687,0.9375 -0.29687,1.5zM232.39784,162.81131c-0.125,0 -0.22917,-0.03646 -0.3125,-0.10937c-0.08333,-0.08333 -0.125,-0.1875 -0.125,-0.3125v-1.3125c0,-0.125 0.04167,-0.22396 0.125,-0.29687c0.08333,-0.08333 0.1875,-0.125 0.3125,-0.125h1.34375c0.125,0 0.22396,0.04167 0.29688,0.125c0.08333,0.07292 0.125,0.17188 0.125,0.29688v1.3125c0,0.125 -0.04167,0.22917 -0.125,0.3125c-0.07292,0.07292 -0.17187,0.10938 -0.29687,0.10938zM232.39784,169.34256c-0.125,0 -0.22917,-0.04167 -0.3125,-0.125c-0.08333,-0.08333 -0.125,-0.18229 -0.125,-0.29687v-1.3125c0,-0.125 0.04167,-0.22917 0.125,-0.3125c0.08333,-0.08333 0.1875,-0.125 0.3125,-0.125h1.34375c0.125,0 0.22396,0.04167 0.29688,0.125c0.08333,0.08333 0.125,0.1875 0.125,0.3125v1.3125c0,0.11458 -0.04167,0.21354 -0.125,0.29688c-0.07292,0.08333 -0.17187,0.125 -0.29687,0.125z" fill="#ffffff" fill-rule="nonzero" stroke-width="1" stroke-linecap="square"/></g></g></svg>