<svg version="1.1" xmlns="http://www.w3.org/2000/svg" xmlns:xlink="http://www.w3.org/1999/xlink" width="508.8665" height="548.99851" viewBox="0,0,508.8665,548.99851"><defs><linearGradient x1="246.40352" y1="-6.83691" x2="246.40352" y2="369.91941" gradientUnits="userSpaceOnUse" id="color-1"><stop offset="0" stop-color="#d98e8e"/><stop offset="1" stop-color="#ffbfbf"/></linearGradient><radialGradient cx="280.42557" cy="181.2043" r="670.39578" gradientUnits="userSpaceOnUse" id="color-2"><stop offset="0" stop-color="#ffffff"/><stop offset="1" stop-color="#ffffff" stop-opacity="0"/></radialGradient><radialGradient cx="147.42558" cy="190.2043" r="670.39578" gradientUnits="userSpaceOnUse" id="color-3"><stop offset="0" stop-color="#ffffff"/><stop offset="1" stop-color="#ffffff" stop-opacity="0"/></radialGradient></defs><g transform="translate(8.02973,90.1654)"><g data-paper-data="{&quot;isPaintingLayer&quot;:true}" stroke-miterlimit="10" stroke-dasharray="" stroke-dashoffset="0" style="mix-blend-mode: normal"><path d="M-8.02973,369.91941v-376.75632h508.8665v376.75632z" fill="url(#color-1)" fill-rule="nonzero" stroke="none" stroke-width="0" stroke-linecap="butt" stroke-linejoin="miter"/><path d="M224.39454,429.44903c-17.60424,4.6508 -35.19319,9.32374 -52.76773,14.01631c-6.62972,1.7702 -13.99528,4.03201 -21.27313,6.36776l-21.6385,-1.56463l202.14377,-514.60214c16.23255,-3.83528 32.45205,-7.70247 48.65243,-11.61535c16.47232,-3.97857 32.97869,-8.05637 49.51045,-12.21638z" data-paper-data="{&quot;origRot&quot;:0,&quot;index&quot;:null}" fill="url(#color-2)" fill-rule="evenodd" stroke="none" stroke-width="1" stroke-linecap="round" stroke-linejoin="round" opacity="0.42445"/><path d="M91.39454,438.44903c-17.60423,4.65081 -35.19319,9.32374 -52.76773,14.01632c-6.62972,1.77019 -13.99528,4.03201 -21.27313,6.36776l-21.63851,-1.56463l202.14378,-514.60214c16.23255,-3.83528 32.45205,-7.70247 48.65243,-11.61535c16.47232,-3.97857 32.97869,-8.05637 49.51045,-12.21638z" data-paper-data="{&quot;origRot&quot;:0,&quot;index&quot;:null}" fill="url(#color-3)" fill-rule="evenodd" stroke="none" stroke-width="1" stroke-linecap="round" stroke-linejoin="round" opacity="0.42445"/><g fill-rule="nonzero" stroke="none" stroke-width="0" stroke-linecap="butt" stroke-linejoin="miter"><path d="M305.38328,149.84354c3.67918,11.40334 3.7752,21.5528 1.24003,22.37099c-2.53516,0.81787 -4.98564,-9.41217 -8.66513,-20.81552c-3.67918,-11.40334 -7.1934,-19.66237 -4.65792,-20.48024c2.53516,-0.81787 8.40415,7.52111 12.08333,18.92477z" data-paper-data="{&quot;index&quot;:null}" fill="#693a00"/><path d="M188.51436,134.25103c2.49014,0.946 -1.44025,9.01488 -5.69553,20.21612c-4.25528,11.20124 -7.22362,21.2934 -9.71408,20.34708c-2.49014,-0.946 -1.87689,-11.07783 2.37776,-22.27875c4.25528,-11.20124 10.54108,-19.23045 13.03122,-18.28476z" fill="#693a00"/><g fill="#693a00"><path d="M234.18818,175.10763c0,9.22108 -1.6241,16.69623 -3.62786,16.69623c-2.00376,0 -3.62786,-7.47515 -3.62786,-16.69623c0,-9.22108 1.6241,-16.69623 3.62786,-16.69623c2.00376,0 3.62786,7.47515 3.62786,16.69623z"/><path d="M254.38823,175.10763c0,9.22108 -1.6241,16.69623 -3.62786,16.69623c-2.00376,0 -3.62786,-7.47515 -3.62786,-16.69623c0,-9.22108 1.6241,-16.69623 3.62786,-16.69623c2.00376,0 3.62786,7.47515 3.62786,16.69623z"/></g><path d="M176.72947,139.12176c0.15142,-28.04039 2.66707,-42.31071 17.50372,-42.95795c0.90287,-0.03935 2.82793,-0.23296 2.82793,-0.23296l5.12541,6.7769l18.0389,-1.29544l5.54379,-6.48161c0,0 9.62341,-0.53203 14.42614,-0.5868c65.16839,-0.74201 64.88884,-0.38249 64.39585,44.03586c-0.49425,44.52161 0.03274,44.18445 -64.39585,44.68909c-2.03745,0.01606 -17.99388,-0.17976 -17.99388,-0.17976l-5.17232,5.34106l-16.64146,0.02581l-4.67524,-7.06149c0,0 -1.20635,-0.60884 -2.46087,-0.74358c-16.85332,-2.39224 -16.6934,-9.50882 -16.52183,-41.32945z" fill="#ffab19"/><path d="M191.66025,140.58122c0.13316,-24.70971 0.63056,-29.59209 18.08612,-31.56248c1.66503,-0.18794 2.02454,0.38123 2.02454,0.38123l5.02216,5.27967l15.03247,-0.91043l4.99445,-6.55654c0,0 2.53642,-0.31512 3.4607,-0.32551c49.92469,-0.56855 49.71062,-0.90287 49.33285,33.1252c0.23359,20.63954 0.63717,23.44197 -48.72086,23.82856c-48.66797,0.38092 -49.4191,-0.30474 -49.23242,-23.26001z" fill="#e2d2a3"/><path d="M192.25367,129.72501c-0.33181,-5.52931 6.34404,-16.66696 17.17663,-16.38961c1.68549,0.04313 1.52871,-0.34346 1.52871,-0.34346l7.65428,6.12304l13.37185,-0.72627l5.444,-6.37835c0,0 4.00091,-1.065 4.498,-1.065c19.391,0 34.94763,1.77647 47.32814,14.80423c9.45814,9.95302 -72.90169,32.13134 -94.8694,25.09504c-4.92897,-1.57877 -2.13189,-21.11962 -2.13189,-21.11962z" fill="#ffedb8"/><path d="M191.73392,142.49148c0.02833,-5.22678 0.07272,-9.03283 0.29057,-12.7693c0.11994,-2.05822 98.14626,-4.3302 98.25487,-1.25074c0.13253,3.76197 0.07839,8.20551 0.02015,13.45149c0.23359,20.63954 -0.37872,23.44197 -52.45072,24.91402c-0.62773,0.00504 -4.14604,0.25531 -4.14604,0.25531l-4.59527,6.37111l-14.3912,0.05478l-5.13139,-6.84899c0,0 -2.47062,-0.51251 -3.56679,-0.56162c-12.36509,-1.33826 -14.42646,-6.07614 -14.28385,-23.61575z" fill="#ffedb8"/><path d="M219.07959,146.47846c0,5.12069 -2.10954,9.27145 -4.71175,9.27145c-2.60221,0 -4.71175,-4.15108 -4.71175,-9.27145c0,-5.12069 2.10954,-9.27145 4.71175,-9.27145c2.60221,0 4.71175,4.15108 4.71175,9.27145z" fill="#693a00"/><path d="M272.88399,146.17369c0,5.12038 -2.10954,9.27145 -4.71175,9.27145c-2.60221,0 -4.71144,-4.15108 -4.71144,-9.27145c0,-5.12038 2.10922,-9.27145 4.71144,-9.27145c2.60221,0 4.71175,4.15108 4.71175,9.27145z" fill="#693a00"/><path d="M231.38889,148.13003c0,0 4.15108,-3.9518 9.27145,-3.9518c5.12038,0 9.27145,3.9518 9.27145,3.9518z" data-paper-data="{&quot;index&quot;:null}" fill="#b46300"/></g><path d="M43.86865,205.42872l8.57697,17.73994c0.37291,0.72806 0.55938,1.26967 0.55938,1.62484c0,0.76359 -0.62153,1.45614 -1.86456,2.07765c-0.7103,0.35515 -1.27855,0.53273 -1.70474,0.53273c-0.40844,0 -0.74582,-0.09766 -1.01219,-0.29299c-0.26637,-0.19533 -0.46171,-0.39068 -0.586,-0.586c-0.10655,-0.21309 -0.26637,-0.53273 -0.47946,-0.95892l-1.65147,-3.43611h-8.81669l-1.65147,3.43612c-0.21309,0.42618 -0.38179,0.73694 -0.50609,0.93229c-0.10655,0.17758 -0.29299,0.37291 -0.55936,0.586c-0.26637,0.19533 -0.60375,0.29301 -1.01219,0.29301c-0.40844,0 -0.97666,-0.18645 -1.70474,-0.55936c-1.22528,-0.586 -1.83791,-1.26079 -1.83791,-2.02438c0,-0.35515 0.17757,-0.89676 0.53273,-1.62482l8.60361,-17.76657c0.23084,-0.4972 0.57712,-0.8879 1.03883,-1.17201c0.47946,-0.30189 0.98556,-0.45281 1.51829,-0.45281c1.15426,0 2.00663,0.55048 2.55711,1.65147zM41.28491,213.04678l-2.10428,4.36839h4.23522zM62.79371,231.63909v-18.59231c0,-0.47946 0.00888,-0.83461 0.02665,-1.06546c0.03553,-0.23086 0.13319,-0.49722 0.29301,-0.7991c0.28411,-0.56824 0.98556,-0.85237 2.1043,-0.85237c1.13648,0 1.90009,0.14206 2.29074,0.42618c0.39066,0.28413 0.62153,0.70143 0.69255,1.25193c0.7991,-1.10097 2.0599,-1.65147 3.78239,-1.65147c1.74027,0 3.38285,0.81686 4.92777,2.45056c1.54492,1.6337 2.31739,3.53379 2.31739,5.70022c0,2.14869 -0.77245,4.03987 -2.31737,5.67359c-1.52717,1.6337 -3.16086,2.45056 -4.90113,2.45056c-1.74027,0 -3.00104,-0.48834 -3.78239,-1.465v6.44605c0,0.47946 -0.01775,0.83461 -0.05327,1.06546c-0.03553,0.23086 -0.13317,0.49722 -0.29299,0.7991c-0.15982,0.31964 -0.43507,0.54161 -0.82572,0.66592c-0.37291,0.12431 -0.8879,0.18646 -1.54492,0.18646c-0.65702,0 -1.18089,-0.06215 -1.57155,-0.18645c-0.39066,-0.12431 -0.66591,-0.3374 -0.82572,-0.63928c-0.15982,-0.30188 -0.25748,-0.56824 -0.29299,-0.7991c-0.01775,-0.23086 -0.02663,-0.586 -0.02663,-1.06546zM69.07994,216.66935c-0.47946,0.56824 -0.71918,1.18977 -0.71918,1.86456c0,0.67479 0.24862,1.29632 0.74582,1.86456c0.4972,0.55049 1.12762,0.82574 1.8912,0.82574c0.78135,0 1.43837,-0.27525 1.9711,-0.82572c0.55048,-0.55049 0.82574,-1.17201 0.82574,-1.86456c0,-0.71031 -0.25748,-1.34071 -0.77245,-1.89119c-0.4972,-0.56824 -1.15426,-0.85237 -1.9711,-0.85237c-0.81684,0 -1.4739,0.29301 -1.9711,0.87901zM81.30367,205.24227c0,-0.4972 0.00888,-0.86125 0.02665,-1.09209c0.03553,-0.24862 0.13319,-0.53273 0.29301,-0.85237c0.28411,-0.56826 1.10985,-0.85237 2.47721,-0.85237c1.29632,0 2.10428,0.28411 2.42392,0.85237c0.15982,0.31964 0.25748,0.60375 0.29301,0.85237c0.03551,0.24862 0.05327,0.62153 0.05327,1.11874v14.73002c0,0.76359 0.06215,1.24304 0.18646,1.43837c0.12431,0.19533 0.39956,0.29301 0.82574,0.29301c0.44395,0 0.73694,0.01776 0.87901,0.05327c0.15982,0.03551 0.34628,0.12431 0.55938,0.26637c0.42618,0.28413 0.63928,1.03883 0.63928,2.26412c0,1.33183 -0.21309,2.14869 -0.63928,2.45056c-0.55049,0.39068 -1.86456,0.45283 -3.94221,0.18646c-1.6337,-0.21309 -2.69916,-0.75471 -3.19639,-1.62482c-0.586,-1.02995 -0.879,-2.68142 -0.879,-4.9544zM102.57131,212.11451c0.12431,-1.18977 0.95892,-1.78464 2.50384,-1.78464c0.83461,0 1.44726,0.06215 1.83793,0.18646c0.40842,0.12431 0.69255,0.34628 0.85237,0.66592c0.15982,0.31964 0.25748,0.60377 0.29301,0.85237c0.03551,0.23086 0.05327,0.59489 0.05327,1.09211v11.13408c0,0.47946 -0.01776,0.84349 -0.05327,1.09211c-0.03551,0.2486 -0.12431,0.53273 -0.26637,0.85237c-0.30188,0.55049 -1.02995,0.82574 -2.1842,0.82574c-1.15424,0 -1.92671,-0.14206 -2.31737,-0.42618c-0.39068,-0.30188 -0.62151,-0.72806 -0.69255,-1.27855c-0.78133,1.1365 -2.08653,1.70474 -3.91556,1.70474c-1.82905,0 -3.53379,-0.83461 -5.11422,-2.50384c-1.56268,-1.68698 -2.34402,-3.64033 -2.34402,-5.86004c0,-2.21971 0.79021,-4.1553 2.37066,-5.80677c1.58043,-1.66923 3.31181,-2.50384 5.19414,-2.50384c0.72806,0 1.3851,0.13319 1.9711,0.39956c0.586,0.2486 0.99443,0.48834 1.22528,0.7192c0.2486,0.21309 0.44395,0.42618 0.586,0.63928zM96.79119,218.72037c0,0.69255 0.27525,1.32295 0.82574,1.8912c0.55049,0.56824 1.2164,0.85237 1.99775,0.85237c0.78133,0 1.42949,-0.28413 1.94448,-0.85237c0.53273,-0.586 0.7991,-1.2164 0.7991,-1.89119c0,-0.69255 -0.2486,-1.33183 -0.74582,-1.91783c-0.49722,-0.60377 -1.17201,-0.90564 -2.02438,-0.90564c-0.83461,0 -1.50941,0.30188 -2.02438,0.90564c-0.51497,0.586 -0.77245,1.22528 -0.77245,1.91783zM125.60476,210.51631c1.24304,0.55049 1.86456,1.2164 1.86456,1.99775c0,0.39068 -0.08878,0.75471 -0.26637,1.09211c-0.15982,0.3374 -0.23972,0.51497 -0.23972,0.53273l-8.33723,18.64559c-0.15982,0.39068 -0.30188,0.69255 -0.42618,0.90564c-0.10655,0.21309 -0.29299,0.4173 -0.55936,0.61265c-0.2486,0.19533 -0.56824,0.29301 -0.95892,0.29301c-0.37291,0 -0.93227,-0.15982 -1.67809,-0.47946c-1.24304,-0.55049 -1.86456,-1.20752 -1.86456,-1.9711c0,-0.51497 1.01219,-2.94778 3.03657,-7.29841l-6.31285,-10.65462c-0.42618,-0.69255 -0.63928,-1.20752 -0.63928,-1.54492c0,-0.67479 0.56824,-1.34959 1.70474,-2.02438c0.72806,-0.42618 1.28744,-0.63928 1.67811,-0.63928c0.40842,0 0.73694,0.08878 0.98556,0.26637c0.26637,0.15982 0.45283,0.32852 0.55938,0.5061c0.12431,0.17758 0.71031,1.16313 1.75801,2.95667c1.0477,1.79352 2.05102,3.46275 3.00994,5.00767c0.10655,-0.3374 0.67479,-1.64258 1.70474,-3.91556c1.0477,-2.29074 1.60707,-3.50714 1.67811,-3.6492c0.07104,-0.15982 0.19533,-0.3374 0.37291,-0.53273c0.26637,-0.37291 0.64816,-0.55936 1.14538,-0.55936c0.51497,0 1.10985,0.15094 1.78466,0.45283zM144.41911,216.72262c0,1.29632 -0.32852,2.25523 -0.98554,2.87675c-0.63928,0.62151 -1.34957,0.93229 -2.13092,0.93229h-7.53814c0,0.586 0.34628,1.08323 1.03883,1.49165c0.71031,0.40842 1.42061,0.61265 2.13092,0.61265c1.22528,0 2.1842,-0.12431 2.87675,-0.37291l0.34628,-0.13317c0.51498,-0.23086 0.94117,-0.34627 1.27855,-0.34627c0.6748,0 1.26081,0.47058 1.75801,1.41175c0.26637,0.586 0.39956,1.07434 0.39956,1.46502c0,1.90007 -2.25522,2.85012 -6.76568,2.85012c-1.56268,0 -2.95665,-0.26637 -4.18193,-0.7991c-1.22528,-0.55049 -2.17532,-1.27855 -2.8501,-2.1842c-1.33183,-1.70474 -1.99773,-3.62257 -1.99773,-5.7535c0,-2.66366 0.86125,-4.79458 2.58375,-6.39277c1.7225,-1.59819 3.88005,-2.39729 6.47269,-2.39729c2.94778,0 5.11422,1.03883 6.49932,3.11648c0.7103,1.10097 1.06546,2.30851 1.06546,3.62257zM137.7067,217.62826c0.81686,0 1.22528,-0.3374 1.22528,-1.01219c0,-0.47946 -0.18645,-0.87013 -0.55936,-1.17201c-0.37291,-0.30188 -0.90564,-0.45281 -1.59819,-0.45281c-0.69255,0 -1.37622,0.28413 -2.05101,0.85237c-0.67479,0.56824 -1.01219,1.16313 -1.01219,1.78466zM157.87489,210.51631c0.40844,0.12431 0.74582,0.34628 1.01219,0.66592c0.26637,0.30188 0.39956,0.79021 0.39956,1.46502c0,0.67479 -0.20421,1.42061 -0.61263,2.23747c-0.40844,0.7991 -0.99444,1.19865 -1.75801,1.19865c-0.37291,0 -0.73694,-0.0799 -1.09209,-0.23972c-0.35517,-0.17758 -0.81684,-0.26637 -1.3851,-0.26637c-0.56826,0 -1.10099,0.20421 -1.59819,0.61265c-0.4972,0.39068 -0.74582,0.87013 -0.74582,1.43837v6.68578c0,0.49722 -0.01775,0.87013 -0.05327,1.11874c-0.03553,0.23086 -0.13317,0.5061 -0.29299,0.82574c-0.31964,0.55049 -1.14536,0.82574 -2.47719,0.82574c-1.02994,0 -1.76689,-0.17758 -2.21083,-0.53273c-0.33738,-0.30188 -0.52385,-0.76359 -0.55936,-1.3851c0,-0.21309 0,-0.51497 0,-0.90564v-11.16071c0,-0.49722 0.00888,-0.86125 0.02665,-1.09209c0.03553,-0.2486 0.13319,-0.52385 0.29301,-0.82572c0.28411,-0.56824 1.10985,-0.85237 2.47721,-0.85237c1.26081,0 2.05102,0.23974 2.37066,0.7192c0.24862,0.3374 0.37291,0.69255 0.37291,1.06546c0.0888,-0.15982 0.23084,-0.34627 0.42618,-0.55936c0.21309,-0.21309 0.64816,-0.49722 1.3052,-0.85237c0.65702,-0.35515 1.23416,-0.53273 1.73138,-0.53273c0.4972,0 0.91452,0.02665 1.25193,0.07992c0.35517,0.05327 0.72808,0.14206 1.11874,0.26637zM178.35147,210.38312c2.13092,0 3.89782,0.80798 5.30068,2.42393c1.42063,1.61596 2.13092,3.58706 2.13092,5.91331v5.59368c0,0.49722 -0.01776,0.87013 -0.05327,1.11874c-0.03551,0.23086 -0.14206,0.5061 -0.31964,0.82574c-0.26637,0.55049 -1.07434,0.82574 -2.42392,0.82574c-1.2963,0 -2.10428,-0.27525 -2.42392,-0.82572c-0.17758,-0.31964 -0.28413,-0.60377 -0.31964,-0.85237c-0.01776,-0.26637 -0.02663,-0.64816 -0.02663,-1.14536v-5.56703c0,-0.87013 -0.2486,-1.54492 -0.74582,-2.02438c-0.47946,-0.49722 -1.10097,-0.74582 -1.86456,-0.74582c-0.74582,0 -1.41173,0.23086 -1.99773,0.69255c-0.56824,0.44395 -0.88788,0.95003 -0.95892,1.51829v6.17968c0,0.49722 -0.01776,0.87013 -0.05327,1.11874c-0.03551,0.23086 -0.13317,0.5061 -0.29299,0.82574c-0.28413,0.55049 -1.10097,0.82574 -2.45056,0.82574c-1.34957,0 -2.16643,-0.28413 -2.45056,-0.85237c-0.15982,-0.31964 -0.25748,-0.59489 -0.29299,-0.82572c-0.01776,-0.23086 -0.02663,-0.60377 -0.02663,-1.11874v-19.0185c0,-0.4972 0.00888,-0.86125 0.02665,-1.09209c0.03551,-0.24862 0.13319,-0.52385 0.29301,-0.82572c0.28413,-0.56826 1.10985,-0.85237 2.47721,-0.85237c1.33183,0 2.13981,0.28411 2.42393,0.85237c0.15982,0.31964 0.25748,0.60375 0.29301,0.85237c0.03551,0.24862 0.05327,0.61265 0.05327,1.09211v7.03205c1.0477,-1.29632 2.28186,-1.94446 3.70249,-1.94446zM199.19111,212.11451c0.12431,-1.18977 0.95892,-1.78464 2.50384,-1.78464c0.83461,0 1.44726,0.06215 1.83793,0.18646c0.40842,0.12431 0.69255,0.34628 0.85237,0.66592c0.15982,0.31964 0.25748,0.60377 0.29301,0.85237c0.03551,0.23086 0.05327,0.59489 0.05327,1.09211v11.13408c0,0.47946 -0.01776,0.84349 -0.05327,1.09211c-0.03551,0.2486 -0.12431,0.53273 -0.26637,0.85237c-0.30188,0.55049 -1.02995,0.82574 -2.1842,0.82574c-1.15424,0 -1.92671,-0.14206 -2.31737,-0.42618c-0.39068,-0.30188 -0.62151,-0.72806 -0.69255,-1.27855c-0.78133,1.1365 -2.08653,1.70474 -3.91556,1.70474c-1.82903,0 -3.53377,-0.83461 -5.11422,-2.50384c-1.56267,-1.68698 -2.34402,-3.64033 -2.34402,-5.86004c0,-2.21971 0.79021,-4.1553 2.37066,-5.80677c1.58045,-1.66923 3.31181,-2.50384 5.19414,-2.50384c0.72808,0 1.3851,0.13319 1.9711,0.39956c0.586,0.2486 0.99443,0.48834 1.22528,0.7192c0.2486,0.21309 0.44395,0.42618 0.586,0.63928zM193.41099,218.72037c0,0.69255 0.27525,1.32295 0.82574,1.8912c0.55049,0.56824 1.2164,0.85237 1.99775,0.85237c0.78133,0 1.42949,-0.28413 1.94448,-0.85237c0.53273,-0.586 0.7991,-1.2164 0.7991,-1.89119c0,-0.69255 -0.2486,-1.33183 -0.74582,-1.91783c-0.49722,-0.60377 -1.17201,-0.90564 -2.02438,-0.90564c-0.83461,0 -1.50939,0.30188 -2.02438,0.90564c-0.51497,0.586 -0.77245,1.22528 -0.77245,1.91783zM207.41179,225.5926c-0.40842,-0.2486 -0.61263,-0.64816 -0.61263,-1.19864c0,-0.56824 0.39956,-1.41173 1.19865,-2.53046c0.23086,-0.35515 0.60377,-0.53273 1.11874,-0.53273c0.53273,0 1.24304,0.25748 2.13092,0.77247c0.88788,0.51497 1.69586,0.77247 2.42393,0.77247c1.29632,0 1.94448,-0.2486 1.94448,-0.74582c0,-0.40842 -0.71031,-0.71031 -2.13092,-0.90564c-1.34957,-0.17758 -2.6814,-0.67479 -3.99548,-1.49165c-0.60377,-0.37291 -1.10985,-0.9678 -1.51827,-1.78464c-0.40842,-0.81686 -0.61263,-1.79352 -0.61263,-2.93002c0,-3.33844 2.29963,-5.00767 6.89888,-5.00767c1.50941,0 3.06321,0.35515 4.6614,1.06546c0.74582,0.35515 1.11874,0.79021 1.11874,1.3052c0,0.49722 -0.23972,1.11874 -0.71918,1.86456c-0.46169,0.72806 -0.93227,1.09211 -1.41173,1.09211c-0.26637,0 -0.74582,-0.15094 -1.43837,-0.45281c-0.67479,-0.31964 -1.42061,-0.47946 -2.23747,-0.47946c-1.24303,0 -1.86456,0.23086 -1.86456,0.69255c0,0.63928 0.7192,1.0477 2.15757,1.22528c1.40286,0.15982 2.76132,0.56824 4.0754,1.22528c0.60377,0.30188 1.10985,0.81686 1.51829,1.54492c0.42618,0.72806 0.63928,1.64258 0.63928,2.74357c0,1.10097 -0.21309,2.04214 -0.63928,2.82347c-0.40842,0.76359 -0.97668,1.34071 -1.70474,1.73138c-1.36734,0.65704 -3.07208,0.98556 -5.11422,0.98556c-2.04212,0 -4.00436,-0.59489 -5.88667,-1.78464zM241.50521,224.97995c-0.81684,1.06546 -2.10428,1.59819 -3.86229,1.59819c-1.75801,0 -3.40948,-0.80798 -4.9544,-2.42392c-1.52717,-1.6337 -2.29074,-3.52491 -2.29074,-5.67358c0,-2.16643 0.77247,-4.06652 2.31739,-5.70022c1.54492,-1.6337 3.24078,-2.45056 5.08759,-2.45056c0.72808,0 1.3851,0.13319 1.9711,0.39956c0.60375,0.26637 1.01219,0.51497 1.22528,0.74582c0.23084,0.21309 0.40844,0.40842 0.53273,0.586c0.05327,-0.586 0.26637,-1.02995 0.63928,-1.33183c0.37291,-0.31964 0.9678,-0.47946 1.78466,-0.47946c0.83462,0 1.43837,0.07104 1.81129,0.21309c0.39066,0.12431 0.66592,0.3374 0.82574,0.63928c0.15982,0.30188 0.25748,0.57712 0.29301,0.82574c0.03553,0.23086 0.05327,0.586 0.05327,1.06546v13.15846c0,2.45056 -0.85237,4.42167 -2.55711,5.91331c-1.68699,1.49165 -3.59593,2.23747 -5.72685,2.23747c-1.59819,0 -3.13423,-0.39068 -4.60811,-1.17201c-1.45612,-0.78133 -2.1842,-1.49165 -2.1842,-2.13092c0,-0.83461 0.31964,-1.57155 0.95892,-2.21083c0.39066,-0.44395 0.69255,-0.75471 0.90564,-0.93227c0.23084,-0.15982 0.4972,-0.23972 0.7991,-0.23972c0.30189,0 0.61265,0.13319 0.93229,0.39956c1.01219,0.78133 2.11318,1.17201 3.30293,1.17201c0.7991,0 1.45612,-0.31964 1.9711,-0.95892c0.51498,-0.63928 0.77247,-1.40286 0.77247,-2.29074zM235.83162,218.48063c0,0.69255 0.26637,1.31406 0.7991,1.86456c0.55048,0.55049 1.20754,0.82574 1.9711,0.82574c0.78135,0 1.42063,-0.27525 1.91783,-0.82572c0.51498,-0.56824 0.77247,-1.18977 0.77247,-1.86456c0,-0.67479 -0.24862,-1.29632 -0.74582,-1.86456c-0.47946,-0.586 -1.13648,-0.879 -1.9711,-0.879c-0.81684,0 -1.48277,0.28413 -1.99773,0.85237c-0.4972,0.56824 -0.74582,1.19865 -0.74582,1.8912zM249.00313,218.72037c0,-2.53935 0.88788,-4.63476 2.66366,-6.28623c1.77578,-1.66923 3.80904,-2.50384 6.09978,-2.50384c2.29074,0 4.31512,0.82574 6.07313,2.47721c1.77578,1.65147 2.66366,3.74688 2.66366,6.28623c0,1.75801 -0.46169,3.3207 -1.3851,4.68803c-0.90564,1.36734 -2.0155,2.37953 -3.32956,3.03657c-1.29632,0.63928 -2.64589,0.95892 -4.04876,0.95892c-1.40286,0 -2.76132,-0.34627 -4.07538,-1.03882c-1.31406,-0.69255 -2.42392,-1.71362 -3.32956,-3.06319c-0.88788,-1.34959 -1.33183,-2.86787 -1.33183,-4.55484zM255.63564,221.01111c0.69255,0.51497 1.3851,0.77247 2.07765,0.77247c0.69255,0 1.3851,-0.26637 2.07765,-0.7991c0.71031,-0.53273 1.06546,-1.31406 1.06546,-2.34402c0,-1.0477 -0.32852,-1.82017 -0.98554,-2.31737c-0.65704,-0.51497 -1.36734,-0.77245 -2.13092,-0.77245c-0.76359,0 -1.47388,0.26637 -2.13092,0.7991c-0.65704,0.51497 -0.98554,1.28744 -0.98554,2.31739c0,1.02995 0.3374,1.81129 1.01219,2.34402zM277.81004,215.95017l-2.05101,-0.13317v4.39504c0,0.56824 0.08878,0.98556 0.26637,1.25193c0.17758,0.2486 0.51497,0.37291 1.01219,0.37291c0.49722,0 0.87901,0.01776 1.14538,0.05327c0.26637,0.03551 0.54161,0.13319 0.82574,0.29301c0.49722,0.28413 0.74582,0.99443 0.74582,2.13092c0,1.33183 -0.29299,2.14869 -0.879,2.45056c-0.31964,0.14206 -0.60377,0.23086 -0.85237,0.26637c-0.2486,0.03551 -0.60377,0.05327 -1.06546,0.05327c-2.20196,0 -3.88005,-0.49722 -5.0343,-1.49165c-1.1365,-0.99443 -1.70474,-2.68142 -1.70474,-5.06094v-4.71466c-0.40842,0.07104 -0.84349,0.10655 -1.30518,0.10655c-0.46169,0 -0.85237,-0.17758 -1.17201,-0.53273c-0.30188,-0.37291 -0.45281,-0.99443 -0.45281,-1.86456c0,-0.87013 0.05327,-1.50053 0.15982,-1.89119c0.10655,-0.39068 0.25748,-0.66591 0.45283,-0.82572c0.3374,-0.28413 0.75471,-0.42618 1.25193,-0.42618l1.06546,0.13319v-3.27629c0,-0.49722 0.00888,-0.86125 0.02665,-1.09209c0.03551,-0.23086 0.14206,-0.47946 0.31964,-0.74582c0.26637,-0.53273 1.08323,-0.7991 2.45056,-0.7991c1.43837,0 2.29963,0.39066 2.58375,1.17201c0.10655,0.3374 0.15982,0.87901 0.15982,1.62484v3.11648c0.92341,-0.08878 1.62484,-0.13317 2.1043,-0.13317c0.47946,0 0.83461,0.01776 1.06546,0.05327c0.2486,0.03551 0.53273,0.13319 0.85237,0.29301c0.55049,0.28413 0.82574,1.10097 0.82574,2.45056c0,1.33183 -0.28413,2.14869 -0.85237,2.45056c-0.31964,0.15982 -0.60377,0.25748 -0.85237,0.29301c-0.23086,0.01776 -0.59489,0.02665 -1.09209,0.02665zM300.13646,215.95017l-2.05101,-0.13317v4.39504c0,0.56824 0.08878,0.98556 0.26637,1.25193c0.17758,0.2486 0.51497,0.37291 1.01219,0.37291c0.49722,0 0.87901,0.01776 1.14538,0.05327c0.26637,0.03551 0.54161,0.13319 0.82574,0.29301c0.49722,0.28413 0.74582,0.99443 0.74582,2.13092c0,1.33183 -0.29299,2.14869 -0.879,2.45056c-0.31964,0.14206 -0.60377,0.23086 -0.85237,0.26637c-0.2486,0.03551 -0.60377,0.05327 -1.06546,0.05327c-2.20196,0 -3.88005,-0.49722 -5.0343,-1.49165c-1.1365,-0.99443 -1.70474,-2.68142 -1.70474,-5.06094v-4.71466c-0.40842,0.07104 -0.84349,0.10655 -1.30518,0.10655c-0.46169,0 -0.85237,-0.17758 -1.17201,-0.53273c-0.30188,-0.37291 -0.45281,-0.99443 -0.45281,-1.86456c0,-0.87013 0.05327,-1.50053 0.15982,-1.89119c0.10655,-0.39068 0.25748,-0.66591 0.45283,-0.82572c0.3374,-0.28413 0.75471,-0.42618 1.25193,-0.42618l1.06546,0.13319v-3.27629c0,-0.49722 0.00888,-0.86125 0.02665,-1.09209c0.03551,-0.23086 0.14206,-0.47946 0.31964,-0.74582c0.26637,-0.53273 1.08323,-0.7991 2.45056,-0.7991c1.43837,0 2.29963,0.39066 2.58375,1.17201c0.10655,0.3374 0.15982,0.87901 0.15982,1.62484v3.11648c0.92341,-0.08878 1.62484,-0.13317 2.1043,-0.13317c0.47946,0 0.83461,0.01776 1.06546,0.05327c0.2486,0.03551 0.53273,0.13319 0.85237,0.29301c0.55049,0.28413 0.82572,1.10097 0.82572,2.45056c0,1.33183 -0.28411,2.14869 -0.85237,2.45056c-0.31964,0.15982 -0.60377,0.25748 -0.85237,0.29301c-0.23086,0.01776 -0.59489,0.02665 -1.09209,0.02665zM304.21472,218.72037c0,-2.53935 0.8879,-4.63476 2.66366,-6.28623c1.77576,-1.66923 3.80904,-2.50384 6.09978,-2.50384c2.29074,0 4.31512,0.82574 6.07313,2.47721c1.77576,1.65147 2.66366,3.74688 2.66366,6.28623c0,1.75801 -0.46171,3.3207 -1.3851,4.68803c-0.90564,1.36734 -2.0155,2.37953 -3.32956,3.03657c-1.2963,0.63928 -2.64591,0.95892 -4.04876,0.95892c-1.40285,0 -2.76132,-0.34627 -4.07538,-1.03882c-1.31408,-0.69255 -2.42392,-1.71362 -3.32956,-3.06319c-0.8879,-1.34959 -1.33183,-2.86787 -1.33183,-4.55484zM310.84722,221.01111c0.69255,0.51497 1.3851,0.77247 2.07765,0.77247c0.69255,0 1.3851,-0.26637 2.07765,-0.7991c0.7103,-0.53273 1.06546,-1.31406 1.06546,-2.34402c0,-1.0477 -0.32852,-1.82017 -0.98554,-2.31737c-0.65702,-0.51497 -1.36735,-0.77245 -2.13092,-0.77245c-0.76357,0 -1.4739,0.26637 -2.13092,0.7991c-0.65702,0.51497 -0.98554,1.28744 -0.98554,2.31739c0,1.02995 0.33738,1.81129 1.01219,2.34402zM341.54538,215.95017l-2.05101,-0.13317v4.39504c0,0.56824 0.0888,0.98556 0.26637,1.25193c0.17757,0.2486 0.51498,0.37291 1.01219,0.37291c0.4972,0 0.87901,0.01776 1.14538,0.05327c0.26637,0.03551 0.54161,0.13319 0.82574,0.29301c0.4972,0.28413 0.74582,0.99443 0.74582,2.13092c0,1.33183 -0.29299,2.14869 -0.879,2.45056c-0.31964,0.14206 -0.60375,0.23086 -0.85237,0.26637c-0.24862,0.03551 -0.60375,0.05327 -1.06546,0.05327c-2.20194,0 -3.88005,-0.49722 -5.0343,-1.49165c-1.13648,-0.99443 -1.70474,-2.68142 -1.70474,-5.06094v-4.71466c-0.40844,0.07104 -0.84349,0.10655 -1.30518,0.10655c-0.46171,0 -0.85237,-0.17758 -1.17201,-0.53273c-0.30189,-0.37291 -0.45281,-0.99443 -0.45281,-1.86456c0,-0.87013 0.05327,-1.50053 0.15982,-1.89119c0.10655,-0.39068 0.25748,-0.66591 0.45283,-0.82572c0.33738,-0.28413 0.75471,-0.42618 1.25193,-0.42618l1.06546,0.13319v-3.27629c0,-0.49722 0.00888,-0.86125 0.02665,-1.09209c0.03553,-0.23086 0.14207,-0.47946 0.31964,-0.74582c0.26637,-0.53273 1.08321,-0.7991 2.45056,-0.7991c1.43837,0 2.29963,0.39066 2.58375,1.17201c0.10655,0.3374 0.15982,0.87901 0.15982,1.62484v3.11648c0.92339,-0.08878 1.62484,-0.13317 2.1043,-0.13317c0.47946,0 0.83462,0.01776 1.06546,0.05327c0.24862,0.03551 0.53273,0.13319 0.85237,0.29301c0.55048,0.28413 0.82574,1.10097 0.82574,2.45056c0,1.33183 -0.28411,2.14869 -0.85237,2.45056c-0.31964,0.15982 -0.60375,0.25748 -0.85237,0.29301c-0.23084,0.01776 -0.59489,0.02665 -1.09209,0.02665zM355.37255,210.38312c2.13092,0 3.89782,0.80798 5.30068,2.42393c1.42063,1.61596 2.13092,3.58706 2.13092,5.91331v5.59368c0,0.49722 -0.01775,0.87013 -0.05327,1.11874c-0.03553,0.23086 -0.14207,0.5061 -0.31964,0.82574c-0.26637,0.55049 -1.07434,0.82574 -2.42392,0.82574c-1.2963,0 -2.10428,-0.27525 -2.42392,-0.82572c-0.17757,-0.31964 -0.28411,-0.60377 -0.31964,-0.85237c-0.01775,-0.26637 -0.02663,-0.64816 -0.02663,-1.14536v-5.56703c0,-0.87013 -0.24862,-1.54492 -0.74582,-2.02438c-0.47946,-0.49722 -1.10099,-0.74582 -1.86456,-0.74582c-0.74582,0 -1.41173,0.23086 -1.99773,0.69255c-0.56826,0.44395 -0.8879,0.95003 -0.95892,1.51829v6.17968c0,0.49722 -0.01775,0.87013 -0.05327,1.11874c-0.03553,0.23086 -0.13317,0.5061 -0.29299,0.82574c-0.28411,0.55049 -1.10099,0.82574 -2.45056,0.82574c-1.34957,0 -2.16645,-0.28413 -2.45056,-0.85237c-0.15982,-0.31964 -0.25748,-0.59489 -0.29299,-0.82572c-0.01775,-0.23086 -0.02663,-0.60377 -0.02663,-1.11874v-19.0185c0,-0.4972 0.00888,-0.86125 0.02665,-1.09209c0.03553,-0.24862 0.13319,-0.52385 0.29301,-0.82572c0.28411,-0.56826 1.10985,-0.85237 2.47721,-0.85237c1.33183,0 2.13981,0.28411 2.42393,0.85237c0.15982,0.31964 0.25748,0.60375 0.29301,0.85237c0.03553,0.24862 0.05327,0.61265 0.05327,1.09211v7.03205c1.04772,-1.29632 2.28186,-1.94446 3.70249,-1.94446zM381.48626,216.72262c0,1.29632 -0.32852,2.25523 -0.98554,2.87675c-0.63928,0.62151 -1.34957,0.93229 -2.13092,0.93229h-7.53814c0,0.586 0.34628,1.08323 1.03883,1.49165c0.7103,0.40842 1.42063,0.61265 2.13092,0.61265c1.22528,0 2.1842,-0.12431 2.87675,-0.37291l0.34628,-0.13317c0.51498,-0.23086 0.94117,-0.34627 1.27855,-0.34627c0.6748,0 1.26081,0.47058 1.75801,1.41175c0.26637,0.586 0.39956,1.07434 0.39956,1.46502c0,1.90007 -2.25522,2.85012 -6.76568,2.85012c-1.56267,0 -2.95665,-0.26637 -4.18193,-0.7991c-1.22528,-0.55049 -2.17532,-1.27855 -2.8501,-2.1842c-1.33183,-1.70474 -1.99773,-3.62257 -1.99773,-5.7535c0,-2.66366 0.86125,-4.79458 2.58375,-6.39277c1.72249,-1.59819 3.88005,-2.39729 6.47269,-2.39729c2.94777,0 5.11422,1.03883 6.49932,3.11648c0.7103,1.10097 1.06546,2.30851 1.06546,3.62257zM374.77385,217.62826c0.81684,0 1.22528,-0.3374 1.22528,-1.01219c0,-0.47946 -0.18645,-0.87013 -0.55936,-1.17201c-0.37291,-0.30188 -0.90564,-0.45281 -1.59819,-0.45281c-0.69255,0 -1.37622,0.28413 -2.05101,0.85237c-0.6748,0.56824 -1.01219,1.16313 -1.01219,1.78466zM401.33699,215.95017l-2.05101,-0.13317v4.39504c0,0.56824 0.0888,0.98556 0.26637,1.25193c0.17757,0.2486 0.51498,0.37291 1.01219,0.37291c0.4972,0 0.87901,0.01776 1.14538,0.05327c0.26637,0.03551 0.54161,0.13319 0.82574,0.29301c0.4972,0.28413 0.74582,0.99443 0.74582,2.13092c0,1.33183 -0.29299,2.14869 -0.879,2.45056c-0.31964,0.14206 -0.60375,0.23086 -0.85237,0.26637c-0.24862,0.03551 -0.60375,0.05327 -1.06546,0.05327c-2.20194,0 -3.88005,-0.49722 -5.0343,-1.49165c-1.13648,-0.99443 -1.70474,-2.68142 -1.70474,-5.06094v-4.71466c-0.40844,0.07104 -0.84349,0.10655 -1.30518,0.10655c-0.46171,0 -0.85237,-0.17758 -1.17201,-0.53273c-0.30189,-0.37291 -0.45281,-0.99443 -0.45281,-1.86456c0,-0.87013 0.05327,-1.50053 0.15982,-1.89119c0.10655,-0.39068 0.25748,-0.66591 0.45283,-0.82572c0.33738,-0.28413 0.75471,-0.42618 1.25193,-0.42618l1.06546,0.13319v-3.27629c0,-0.49722 0.00888,-0.86125 0.02665,-1.09209c0.03553,-0.23086 0.14207,-0.47946 0.31964,-0.74582c0.26637,-0.53273 1.08321,-0.7991 2.45056,-0.7991c1.43837,0 2.29963,0.39066 2.58375,1.17201c0.10655,0.3374 0.15982,0.87901 0.15982,1.62484v3.11648c0.92339,-0.08878 1.62484,-0.13317 2.1043,-0.13317c0.47946,0 0.83462,0.01776 1.06546,0.05327c0.24862,0.03551 0.53273,0.13319 0.85237,0.29301c0.55048,0.28413 0.82574,1.10097 0.82574,2.45056c0,1.33183 -0.28411,2.14869 -0.85237,2.45056c-0.31964,0.15982 -0.60375,0.25748 -0.85237,0.29301c-0.23084,0.01776 -0.59489,0.02665 -1.09209,0.02665zM405.41519,218.72037c0,-2.53935 0.8879,-4.63476 2.66366,-6.28623c1.77576,-1.66923 3.80904,-2.50384 6.09978,-2.50384c2.29074,0 4.31512,0.82574 6.07313,2.47721c1.77576,1.65147 2.66366,3.74688 2.66366,6.28623c0,1.75801 -0.46171,3.3207 -1.3851,4.68803c-0.90564,1.36734 -2.0155,2.37953 -3.32956,3.03657c-1.2963,0.63928 -2.64591,0.95892 -4.04876,0.95892c-1.40285,0 -2.76132,-0.34627 -4.07538,-1.03882c-1.31408,-0.69255 -2.42392,-1.71362 -3.32956,-3.06319c-0.8879,-1.34959 -1.33183,-2.86787 -1.33183,-4.55484zM412.0477,221.01111c0.69255,0.51497 1.3851,0.77247 2.07765,0.77247c0.69255,0 1.3851,-0.26637 2.07765,-0.7991c0.7103,-0.53273 1.06546,-1.31406 1.06546,-2.34402c0,-1.0477 -0.32852,-1.82017 -0.98554,-2.31737c-0.65702,-0.51497 -1.36735,-0.77245 -2.13092,-0.77245c-0.76357,0 -1.4739,0.26637 -2.13092,0.7991c-0.65702,0.51497 -0.98554,1.28744 -0.98554,2.31739c0,1.02995 0.33738,1.81129 1.01219,2.34402zM424.97709,231.63909v-18.59231c0,-0.47946 0.00888,-0.83461 0.02665,-1.06546c0.03553,-0.23086 0.13319,-0.49722 0.29301,-0.7991c0.28411,-0.56824 0.98556,-0.85237 2.1043,-0.85237c1.13648,0 1.90009,0.14206 2.29074,0.42618c0.39066,0.28413 0.62153,0.70143 0.69255,1.25193c0.7991,-1.10097 2.0599,-1.65147 3.78239,-1.65147c1.74027,0 3.38285,0.81686 4.92777,2.45056c1.54492,1.6337 2.31739,3.53379 2.31739,5.70022c0,2.14869 -0.77245,4.03987 -2.31737,5.67359c-1.52717,1.6337 -3.16086,2.45056 -4.90113,2.45056c-1.74027,0 -3.00104,-0.48834 -3.78239,-1.465v6.44605c0,0.47946 -0.01775,0.83461 -0.05327,1.06546c-0.03553,0.23086 -0.13317,0.49722 -0.29299,0.7991c-0.15982,0.31964 -0.43507,0.54161 -0.82572,0.66592c-0.37291,0.12431 -0.8879,0.18646 -1.54492,0.18646c-0.65702,0 -1.18089,-0.06215 -1.57155,-0.18645c-0.39066,-0.12431 -0.66591,-0.3374 -0.82572,-0.63928c-0.15982,-0.30188 -0.25748,-0.56824 -0.29299,-0.7991c-0.01775,-0.23086 -0.02663,-0.586 -0.02663,-1.06546zM431.26332,216.66935c-0.47946,0.56824 -0.71918,1.18977 -0.71918,1.86456c0,0.67479 0.24862,1.29632 0.74582,1.86456c0.4972,0.55049 1.12762,0.82574 1.8912,0.82574c0.78135,0 1.43837,-0.27525 1.9711,-0.82572c0.55048,-0.55049 0.82574,-1.17201 0.82574,-1.86456c0,-0.71031 -0.25748,-1.34071 -0.77245,-1.89119c-0.4972,-0.56824 -1.15426,-0.85237 -1.9711,-0.85237c-0.81684,0 -1.4739,0.29301 -1.9711,0.87901zM443.80669,222.23639c0.21309,-0.40842 0.53273,-0.68367 0.95892,-0.82572c0.44393,-0.15982 1.11874,-0.23972 2.02438,-0.23972c0.92339,0 1.58931,0.20421 1.99775,0.61265c0.42618,0.39068 0.63928,1.02107 0.63928,1.8912v0.5061c0,0.51497 -0.01775,0.89676 -0.05327,1.14538c-0.03553,0.23086 -0.13317,0.52385 -0.29299,0.87901c-0.33738,0.60377 -1.15426,0.90564 -2.45056,0.90564c-1.27855,0 -2.12204,-0.20421 -2.53046,-0.61263c-0.40844,-0.40842 -0.61263,-1.20752 -0.61263,-2.39729c0,-0.83461 0.10655,-1.45614 0.31964,-1.86456zM448.04189,218.53391c-0.39066,0.10655 -0.92339,0.15982 -1.59819,0.15982c-0.6748,0 -1.2164,-0.05327 -1.62482,-0.15982c-0.40844,-0.10655 -0.69255,-0.29299 -0.85237,-0.55936c-0.15982,-0.28413 -0.25748,-0.53273 -0.29299,-0.74582c-0.01775,-0.21309 -0.02663,-0.54161 -0.02663,-0.98554v-10.09524c0,-0.44393 0.00888,-0.77245 0.02665,-0.98554c0.03553,-0.23084 0.13319,-0.47946 0.29301,-0.74582c0.17757,-0.28411 0.47058,-0.47946 0.87901,-0.586c0.40844,-0.12429 0.95003,-0.18645 1.62484,-0.18645c0.6748,0 1.2164,0.06215 1.62484,0.18646c0.40844,0.10655 0.68367,0.30189 0.82574,0.586c0.15982,0.28411 0.25748,0.54161 0.29301,0.77247c0.03553,0.21309 0.05327,0.55048 0.05327,1.01219v10.06862c0,0.44395 -0.01775,0.77247 -0.05327,0.98556c-0.03553,0.21309 -0.14207,0.45283 -0.31964,0.7192c-0.15982,0.26637 -0.44393,0.45283 -0.85237,0.55938z" fill="#ffffff" fill-rule="nonzero" stroke="none" stroke-width="1" stroke-linecap="square" stroke-linejoin="miter"/><path d="M108.3682,262.78375c-1.09438,0 -2.07007,-0.23733 -2.92712,-0.712c-0.85704,-0.48784 -1.5295,-1.16029 -2.01734,-2.01734c-0.47467,-0.85703 -0.712,-1.83933 -0.712,-2.94689c0,-0.356 0.11867,-0.64607 0.356,-0.87023c0.23734,-0.23733 0.5274,-0.356 0.87023,-0.356c0.356,0 0.64607,0.11867 0.87022,0.356c0.23734,0.22415 0.356,0.51423 0.356,0.87023c0,0.68563 0.13845,1.29216 0.41534,1.81956c0.27689,0.51423 0.65267,0.91638 1.12734,1.20646c0.48784,0.29008 1.04163,0.43511 1.66134,0.43511c0.63289,0 1.19326,-0.14503 1.68112,-0.43511c0.48784,-0.29007 0.87023,-0.69222 1.14711,-1.20644c0.27689,-0.5274 0.41534,-1.13392 0.41534,-1.81956v-11.7678c0,-0.36918 0.11208,-0.66585 0.33623,-0.88999c0.22415,-0.23733 0.51422,-0.356 0.87022,-0.356c0.356,0 0.65268,0.11867 0.89001,0.356c0.23734,0.22415 0.356,0.52082 0.356,0.89001v11.7678c0,1.10756 -0.24393,2.08985 -0.73177,2.9469c-0.48784,0.85705 -1.1603,1.52949 -2.01734,2.01734c-0.84385,0.47467 -1.82615,0.712 -2.94689,0.712zM124.41681,262.64529c-1.27895,0 -2.4063,-0.27688 -3.382,-0.83066c-0.97571,-0.56696 -1.74705,-1.3383 -2.314,-2.314c-0.55378,-0.98889 -0.83067,-2.12282 -0.83067,-3.40179c0,-1.29215 0.27689,-2.42607 0.83067,-3.40178c0.56695,-0.98889 1.3383,-1.76022 2.31401,-2.314c0.97571,-0.56696 2.10305,-0.85044 3.38202,-0.85044c1.25261,0 2.36674,0.28348 3.34246,0.85046c0.97572,0.55378 1.74045,1.32512 2.29423,2.31401c0.56696,0.97571 0.85045,2.10964 0.85045,3.40178c0,1.27897 -0.27689,2.41289 -0.83067,3.40179c-0.55378,0.97571 -1.31851,1.74704 -2.29423,2.31401c-0.97571,0.55378 -2.09645,0.83067 -3.36223,0.83067zM124.41681,260.50929c0.81749,0 1.53607,-0.18459 2.15579,-0.55378c0.63289,-0.38236 1.12735,-0.90319 1.48335,-1.56244c0.356,-0.65925 0.53401,-1.424 0.53401,-2.29423c0,-0.87023 -0.178,-1.63495 -0.534,-2.29422c-0.356,-0.67244 -0.85044,-1.19327 -1.48333,-1.56245c-0.61971,-0.38236 -1.3383,-0.57355 -2.15578,-0.57355c-0.83067,0 -1.56244,0.19118 -2.19533,0.57356c-0.61971,0.36919 -1.11415,0.89001 -1.48333,1.56246c-0.356,0.65927 -0.534,1.424 -0.534,2.29422c0,0.87023 0.17801,1.63497 0.53401,2.29423c0.36918,0.65927 0.86362,1.18007 1.48334,1.56246c0.63289,0.36919 1.36468,0.55378 2.19535,0.55378zM135.92651,262.54642c-0.34283,0 -0.63288,-0.11208 -0.87022,-0.33622c-0.22415,-0.23733 -0.33622,-0.5274 -0.33622,-0.87022v-10.50202c0,-0.36918 0.11208,-0.65925 0.33623,-0.87022c0.23734,-0.22415 0.5274,-0.33622 0.87023,-0.33622c0.36918,0 0.65927,0.11208 0.87022,0.33623c0.22415,0.21097 0.33623,0.50105 0.33623,0.87023v10.50203c0,0.34283 -0.11208,0.63289 -0.33622,0.87023c-0.21096,0.22415 -0.50104,0.33623 -0.87022,0.33623zM136.14407,247.53505c-0.42193,0 -0.79112,-0.15163 -1.10756,-0.45489c-0.30327,-0.31644 -0.45488,-0.68562 -0.45488,-1.10756c0,-0.42194 0.15163,-0.78452 0.4549,-1.08778c0.31644,-0.31644 0.68562,-0.47466 1.10755,-0.47466c0.42193,0 0.78452,0.15822 1.08779,0.47466c0.31644,0.30327 0.47467,0.66586 0.47467,1.08779c0,0.42194 -0.15822,0.79111 -0.47467,1.10755c-0.30327,0.30325 -0.66585,0.45488 -1.08777,0.45488zM152.53173,262.56619c-0.34283,0 -0.63289,-0.11207 -0.87023,-0.33622c-0.22415,-0.22415 -0.33621,-0.51423 -0.33621,-0.87023v-5.79489c0,-0.89659 -0.16482,-1.62837 -0.49444,-2.19533c-0.32962,-0.56696 -0.77794,-0.98889 -1.34489,-1.26578c-0.55378,-0.27689 -1.19326,-0.41533 -1.91844,-0.41533c-0.65927,0 -1.25919,0.13186 -1.79978,0.39556c-0.5274,0.26371 -0.94933,0.61972 -1.26578,1.06801c-0.31644,0.4483 -0.47467,0.96912 -0.47467,1.56246h-1.48333c0,-1.00207 0.23733,-1.89208 0.712,-2.67c0.48784,-0.77792 1.14711,-1.39104 1.97778,-1.83933c0.83067,-0.46148 1.76682,-0.69222 2.80845,-0.69222c1.09438,0 2.07008,0.23074 2.92712,0.69223c0.85704,0.46149 1.52949,1.14051 2.01734,2.03712c0.50105,0.89661 0.75156,2.00416 0.75156,3.32268v5.79491c0,0.356 -0.11867,0.64607 -0.356,0.87022c-0.22415,0.22415 -0.50763,0.33623 -0.85044,0.33623zM142.82082,262.56619c-0.34283,0 -0.63289,-0.11207 -0.87023,-0.33622c-0.22415,-0.22415 -0.33621,-0.51423 -0.33621,-0.87023v-10.5218c0,-0.36918 0.11208,-0.65926 0.33623,-0.87023c0.23734,-0.22415 0.5274,-0.33621 0.87022,-0.33621c0.36918,0 0.65927,0.11208 0.87023,0.33623c0.22415,0.21097 0.33623,0.50104 0.33623,0.87022v10.5218c0,0.356 -0.11207,0.64608 -0.33622,0.87023c-0.21096,0.22415 -0.50105,0.33623 -0.87023,0.33623zM159.1634,262.54642c-0.34283,0 -0.63289,-0.11208 -0.87023,-0.33622c-0.22415,-0.23733 -0.33621,-0.5274 -0.33621,-0.87022v-10.50202c0,-0.36918 0.11208,-0.65925 0.33623,-0.87022c0.23734,-0.22415 0.5274,-0.33622 0.87022,-0.33622c0.36918,0 0.65927,0.11208 0.87023,0.33623c0.22415,0.21097 0.33623,0.50105 0.33623,0.87023v10.50203c0,0.34283 -0.11207,0.63289 -0.33622,0.87023c-0.21096,0.22415 -0.50105,0.33623 -0.87023,0.33623zM159.38097,247.53505c-0.42193,0 -0.79112,-0.15163 -1.10756,-0.45489c-0.30327,-0.31644 -0.45488,-0.68562 -0.45488,-1.10756c0,-0.42194 0.15163,-0.78452 0.4549,-1.08778c0.31644,-0.31644 0.68562,-0.47466 1.10756,-0.47466c0.42193,0 0.78452,0.15822 1.08779,0.47466c0.31644,0.30327 0.47467,0.66586 0.47467,1.08779c0,0.42194 -0.15822,0.79111 -0.47467,1.10755c-0.30327,0.30325 -0.66585,0.45488 -1.08777,0.45488zM175.76862,262.56619c-0.34283,0 -0.63289,-0.11207 -0.87023,-0.33622c-0.22415,-0.22415 -0.33622,-0.51423 -0.33622,-0.87023v-5.79489c0,-0.89659 -0.16482,-1.62837 -0.49444,-2.19533c-0.32962,-0.56696 -0.77794,-0.98889 -1.34489,-1.26578c-0.55378,-0.27689 -1.19326,-0.41533 -1.91844,-0.41533c-0.65927,0 -1.25919,0.13186 -1.79978,0.39556c-0.5274,0.26371 -0.94933,0.61972 -1.26578,1.06801c-0.31644,0.4483 -0.47467,0.96912 -0.47467,1.56246h-1.48333c0,-1.00207 0.23733,-1.89208 0.712,-2.67c0.48784,-0.77792 1.14711,-1.39104 1.97778,-1.83933c0.83067,-0.46148 1.76683,-0.69222 2.80845,-0.69222c1.09438,0 2.07007,0.23074 2.92711,0.69223c0.85704,0.46149 1.5295,1.14051 2.01734,2.03712c0.50105,0.89661 0.75155,2.00416 0.75155,3.32268v5.79491c0,0.356 -0.11867,0.64607 -0.356,0.87022c-0.22415,0.22415 -0.50763,0.33623 -0.85044,0.33623zM166.05772,262.56619c-0.34283,0 -0.63289,-0.11207 -0.87023,-0.33622c-0.22415,-0.22415 -0.33622,-0.51423 -0.33622,-0.87023v-10.5218c0,-0.36918 0.11208,-0.65926 0.33623,-0.87023c0.23734,-0.22415 0.5274,-0.33621 0.87023,-0.33621c0.36918,0 0.65927,0.11208 0.87022,0.33623c0.22415,0.21097 0.33623,0.50104 0.33623,0.87022v10.5218c0,0.356 -0.11207,0.64608 -0.33622,0.87023c-0.21096,0.22415 -0.50105,0.33623 -0.87023,0.33623zM186.35586,262.64529c-1.18667,0 -2.23489,-0.27688 -3.14467,-0.83066c-0.8966,-0.56696 -1.6086,-1.3383 -2.136,-2.314c-0.51423,-0.98889 -0.77133,-2.12282 -0.77133,-3.40179c0,-1.29215 0.27689,-2.42607 0.83067,-3.40178c0.56696,-0.98889 1.3383,-1.76022 2.31402,-2.314c0.97572,-0.56696 2.10304,-0.85044 3.38201,-0.85044c1.2526,0 2.36675,0.28348 3.34246,0.85046c0.97572,0.55378 1.74044,1.32512 2.29422,2.31401c0.56696,0.97571 0.85046,2.10964 0.85046,3.40178h-1.40422c0,1.27897 -0.23733,2.41289 -0.712,3.40179c-0.47467,0.97571 -1.13394,1.74704 -1.97779,2.31401c-0.83067,0.55378 -1.7866,0.83067 -2.86777,0.83067zM186.77119,267.9062c-1.12073,0 -2.16897,-0.22415 -3.14467,-0.67245c-0.97572,-0.43511 -1.79977,-1.07459 -2.47222,-1.91844c-0.21096,-0.27689 -0.29006,-0.56037 -0.23734,-0.85044c0.06593,-0.27689 0.22415,-0.50104 0.47466,-0.67245c0.27689,-0.18459 0.56696,-0.24393 0.87023,-0.17799c0.31644,0.06594 0.56696,0.22415 0.75156,0.47466c0.43511,0.52742 0.96912,0.94274 1.60201,1.24601c0.64606,0.30325 1.38445,0.4549 2.21512,0.4549c0.75155,0 1.44378,-0.18459 2.07667,-0.55378c0.64606,-0.356 1.15371,-0.89 1.5229,-1.602c0.38238,-0.712 0.57357,-1.57563 0.57357,-2.59089v-3.36223l0.77134,-2.07666l1.54267,0.49445v5.10268c0,1.23942 -0.27689,2.36674 -0.83067,3.38201c-0.55378,1.01526 -1.32511,1.81956 -2.314,2.41289c-0.97572,0.60652 -2.10963,0.90978 -3.40179,0.90978zM186.83053,260.50929c0.81749,0 1.53607,-0.18459 2.15579,-0.55378c0.63289,-0.38236 1.12735,-0.90319 1.48335,-1.56244c0.356,-0.65925 0.53401,-1.424 0.53401,-2.29423c0,-0.87023 -0.178,-1.63495 -0.534,-2.29422c-0.356,-0.67244 -0.85044,-1.19327 -1.48333,-1.56245c-0.61972,-0.38236 -1.3383,-0.57355 -2.15578,-0.57355c-0.83067,0 -1.56244,0.19118 -2.19533,0.57356c-0.61972,0.36919 -1.11415,0.89001 -1.48333,1.56246c-0.356,0.65927 -0.534,1.424 -0.534,2.29422c0,0.87023 0.17801,1.63497 0.53401,2.29423c0.36918,0.65927 0.86363,1.18007 1.48334,1.56246c0.63289,0.36919 1.36467,0.55378 2.19534,0.55378zM206.80201,262.54642c-0.25051,0 -0.48126,-0.07252 -0.69222,-0.21755c-0.21096,-0.15823 -0.35601,-0.34281 -0.43511,-0.55378l-3.50066,-10.50201c-0.13184,-0.48784 -0.13184,-0.8834 0,-1.18667c0.14505,-0.30325 0.44171,-0.45489 0.89001,-0.45489c0.30327,0 0.55378,0.08571 0.75156,0.25712c0.19778,0.15823 0.356,0.43511 0.47466,0.83067l2.98646,9.29557h-0.83067l2.80845,-9.49336c0.07911,-0.2637 0.21096,-0.47466 0.39556,-0.63289c0.19778,-0.1714 0.4615,-0.25711 0.79112,-0.25711c0.31644,0 0.57356,0.08571 0.77134,0.25711c0.19778,0.15823 0.32304,0.3692 0.37579,0.6329l2.29423,8.93957h-0.35601l2.78868,-8.7418c0.22415,-0.72518 0.63289,-1.08778 1.22622,-1.08778c0.44829,0 0.74496,0.15163 0.89001,0.4549c0.15822,0.30327 0.15162,0.69882 -0.01978,1.18667l-3.4809,10.50203c-0.06593,0.21097 -0.20437,0.39556 -0.41532,0.55378c-0.19778,0.14504 -0.42852,0.21756 -0.69222,0.21756c-0.26371,0 -0.50763,-0.07251 -0.73177,-0.21754c-0.21096,-0.15823 -0.34941,-0.34281 -0.41533,-0.55378l-2.43267,-8.9989h0.23734l-2.55133,8.99892c-0.06593,0.21097 -0.20437,0.39555 -0.41532,0.55378c-0.21096,0.14504 -0.44829,0.21757 -0.71201,0.21757zM225.93387,262.64529c-1.14712,0 -2.18215,-0.28348 -3.10511,-0.85044c-0.90978,-0.58015 -1.62838,-1.36466 -2.15578,-2.35355c-0.5274,-0.98889 -0.79111,-2.10305 -0.79111,-3.34245c0,-1.2394 0.28348,-2.35355 0.85045,-3.34244c0.58016,-1.00207 1.35807,-1.7866 2.33379,-2.35355c0.98889,-0.58015 2.10304,-0.87022 3.34246,-0.87022c1.22622,0 2.32719,0.29008 3.3029,0.87022c0.97572,0.56697 1.74704,1.35149 2.31401,2.35357c0.58016,0.98889 0.87022,2.10305 0.87022,3.34246h-0.92955c0,1.23942 -0.26372,2.35357 -0.79112,3.34246c-0.5274,0.98889 -1.24599,1.77341 -2.15578,2.35357c-0.90978,0.56697 -1.93822,0.85045 -3.08534,0.85045zM226.40853,260.50929c0.79111,0 1.50311,-0.19119 2.136,-0.57355c0.63289,-0.38236 1.12735,-0.90978 1.48335,-1.58222c0.36918,-0.67244 0.55378,-1.424 0.55378,-2.25467c0,-0.84384 -0.1846,-1.602 -0.55378,-2.27444c-0.356,-0.67244 -0.85044,-1.19985 -1.48333,-1.58223c-0.63289,-0.38236 -1.34489,-0.57355 -2.136,-0.57355c-0.79111,0 -1.50971,0.19118 -2.15578,0.57356c-0.63289,0.38238 -1.13394,0.90978 -1.50312,1.58222c-0.36918,0.67244 -0.55378,1.43059 -0.55378,2.27445c0,0.83067 0.1846,1.58223 0.55378,2.25467c0.36918,0.67244 0.87023,1.19986 1.50312,1.58222c0.64606,0.38238 1.36467,0.57356 2.15579,0.57356zM231.68921,262.56619c-0.34283,0 -0.63289,-0.11207 -0.87022,-0.33622c-0.22415,-0.22415 -0.33622,-0.51423 -0.33622,-0.87023v-3.59956l0.45489,-2.51177l1.95801,0.85045v5.2609c0,0.356 -0.11866,0.64608 -0.356,0.87023c-0.22415,0.22415 -0.50763,0.33623 -0.85044,0.33623zM237.91824,262.54642c-0.34283,0 -0.63289,-0.11208 -0.87023,-0.33622c-0.22415,-0.23733 -0.33622,-0.5274 -0.33622,-0.87022v-10.50202c0,-0.36918 0.11208,-0.65925 0.33623,-0.87022c0.23734,-0.22415 0.5274,-0.33622 0.87023,-0.33622c0.36918,0 0.65926,0.11208 0.87022,0.33623c0.22415,0.21097 0.33623,0.50105 0.33623,0.87023v10.50203c0,0.34283 -0.11207,0.63289 -0.33621,0.87023c-0.21096,0.22415 -0.50105,0.33623 -0.87023,0.33623zM238.1358,247.53505c-0.42193,0 -0.79111,-0.15163 -1.10756,-0.45489c-0.30327,-0.31644 -0.45489,-0.68562 -0.45489,-1.10756c0,-0.42194 0.15163,-0.78452 0.4549,-1.08778c0.31644,-0.31644 0.68562,-0.47466 1.10755,-0.47466c0.42193,0 0.78451,0.15822 1.08778,0.47466c0.31644,0.30327 0.47467,0.66586 0.47467,1.08779c0,0.42194 -0.15823,0.79111 -0.47467,1.10755c-0.30327,0.30325 -0.66584,0.45488 -1.08777,0.45488zM248.31321,262.54642c-0.79111,0 -1.50312,-0.19778 -2.13601,-0.59334c-0.61972,-0.40873 -1.11415,-0.95593 -1.48333,-1.64155c-0.356,-0.69881 -0.534,-1.48333 -0.534,-2.35356v-11.25357c0,-0.34283 0.10549,-0.6263 0.31644,-0.85044c0.22415,-0.22415 0.51423,-0.33621 0.87023,-0.33621c0.34283,0 0.61971,0.11207 0.83067,0.33623c0.22415,0.22415 0.33623,0.50763 0.33623,0.85046v11.25358c0,0.63289 0.1714,1.1669 0.51423,1.60201c0.356,0.42194 0.78452,0.63289 1.28556,0.63289h0.81089c0.27689,0 0.51423,0.11207 0.71201,0.33623c0.19778,0.21097 0.29667,0.48786 0.29667,0.83067c0,0.356 -0.13184,0.64608 -0.39556,0.87023c-0.25051,0.21097 -0.58015,0.31644 -0.98889,0.31644zM243.0721,252.1235c-0.32962,0 -0.59993,-0.09229 -0.81089,-0.27689c-0.19778,-0.18459 -0.29666,-0.42192 -0.29666,-0.712c0,-0.31644 0.0989,-0.56696 0.29668,-0.75155c0.21096,-0.18459 0.48126,-0.27689 0.81089,-0.27689h5.45866c0.32962,0 0.59333,0.0923 0.79111,0.27689c0.21096,0.1846 0.31645,0.43511 0.31645,0.75155c0,0.29008 -0.10549,0.52741 -0.31645,0.712c-0.19778,0.1846 -0.46149,0.27689 -0.79111,0.27689zM254.51938,262.54642c-0.34283,0 -0.63289,-0.11208 -0.87023,-0.33622c-0.22415,-0.23733 -0.33621,-0.5274 -0.33621,-0.87022v-10.50202c0,-0.36918 0.11208,-0.65925 0.33623,-0.87022c0.23734,-0.22415 0.5274,-0.33622 0.87022,-0.33622c0.36918,0 0.65927,0.11208 0.87023,0.33623c0.22415,0.21097 0.33623,0.50105 0.33623,0.87023v10.50203c0,0.34283 -0.11207,0.63289 -0.33622,0.87023c-0.21096,0.22415 -0.50105,0.33623 -0.87023,0.33623zM254.73694,247.53505c-0.42193,0 -0.79112,-0.15163 -1.10756,-0.45489c-0.30327,-0.31644 -0.45488,-0.68562 -0.45488,-1.10756c0,-0.42194 0.15163,-0.78452 0.4549,-1.08778c0.31644,-0.31644 0.68562,-0.47466 1.10756,-0.47466c0.42193,0 0.78452,0.15822 1.08779,0.47466c0.31645,0.30327 0.47466,0.66586 0.47466,1.08779c0,0.42194 -0.15822,0.79111 -0.47466,1.10755c-0.30327,0.30325 -0.66585,0.45488 -1.08777,0.45488zM271.1246,262.56619c-0.34281,0 -0.63289,-0.11207 -0.87023,-0.33622c-0.22415,-0.22415 -0.33622,-0.51423 -0.33622,-0.87023v-5.79489c0,-0.89659 -0.16482,-1.62837 -0.49444,-2.19533c-0.32963,-0.56696 -0.77792,-0.98889 -1.3449,-1.26578c-0.55378,-0.27689 -1.19326,-0.41533 -1.91844,-0.41533c-0.65925,0 -1.25918,0.13186 -1.79977,0.39556c-0.52742,0.26371 -0.94934,0.61972 -1.26578,1.06801c-0.31644,0.4483 -0.47467,0.96912 -0.47467,1.56246h-1.48333c0,-1.00207 0.23733,-1.89208 0.712,-2.67c0.48786,-0.77792 1.14712,-1.39104 1.97779,-1.83933c0.83067,-0.46148 1.76682,-0.69222 2.80845,-0.69222c1.09437,0 2.07008,0.23074 2.92712,0.69223c0.85703,0.46149 1.52948,1.14051 2.01734,2.03712c0.50104,0.89661 0.75155,2.00416 0.75155,3.32268v5.79491c0,0.356 -0.11867,0.64607 -0.356,0.87022c-0.22415,0.22415 -0.50763,0.33623 -0.85044,0.33623zM261.41369,262.56619c-0.34281,0 -0.63289,-0.11207 -0.87022,-0.33622c-0.22415,-0.22415 -0.33622,-0.51423 -0.33622,-0.87023v-10.5218c0,-0.36918 0.11208,-0.65926 0.33623,-0.87023c0.23733,-0.22415 0.52742,-0.33621 0.87023,-0.33621c0.36919,0 0.65925,0.11208 0.87022,0.33623c0.22415,0.21097 0.33623,0.50104 0.33623,0.87022v10.5218c0,0.356 -0.11207,0.64608 -0.33622,0.87023c-0.21097,0.22415 -0.50103,0.33623 -0.87022,0.33623zM281.71184,262.64529c-1.18667,0 -2.23489,-0.27688 -3.14467,-0.83066c-0.89659,-0.56696 -1.60859,-1.3383 -2.13601,-2.314c-0.51423,-0.98889 -0.77132,-2.12282 -0.77132,-3.40179c0,-1.29215 0.27688,-2.42607 0.83067,-3.40178c0.56697,-0.98889 1.3383,-1.76022 2.31401,-2.314c0.9757,-0.56696 2.10304,-0.85044 3.38201,-0.85044c1.25259,0 2.36674,0.28348 3.34246,0.85046c0.9757,0.55378 1.74045,1.32512 2.29423,2.31401c0.56697,0.97571 0.85046,2.10964 0.85046,3.40178h-1.40422c0,1.27897 -0.23733,2.41289 -0.712,3.40179c-0.47467,0.97571 -1.13392,1.74704 -1.97778,2.31401c-0.83067,0.55378 -1.78659,0.83067 -2.86777,0.83067zM282.12716,267.9062c-1.12074,0 -2.16897,-0.22415 -3.14467,-0.67245c-0.9757,-0.43511 -1.79978,-1.07459 -2.47222,-1.91844c-0.21097,-0.27689 -0.29008,-0.56037 -0.23733,-0.85044c0.06592,-0.27689 0.22415,-0.50104 0.47467,-0.67245c0.27689,-0.18459 0.56697,-0.24393 0.87022,-0.17799c0.31644,0.06594 0.56697,0.22415 0.75156,0.47466c0.43511,0.52742 0.96912,0.94274 1.60201,1.24601c0.64608,0.30325 1.38444,0.4549 2.21511,0.4549c0.75155,0 1.44379,-0.18459 2.07668,-0.55378c0.64608,-0.356 1.15371,-0.89 1.5229,-1.602c0.38236,-0.712 0.57356,-1.57563 0.57356,-2.59089v-3.36223l0.77134,-2.07666l1.54267,0.49445v5.10268c0,1.23942 -0.27689,2.36674 -0.83067,3.38201c-0.55378,1.01526 -1.32511,1.81956 -2.314,2.41289c-0.9757,0.60652 -2.10964,0.90978 -3.40179,0.90978zM282.1865,260.50929c0.81748,0 1.53607,-0.18459 2.15579,-0.55378c0.63289,-0.38236 1.12734,-0.90319 1.48334,-1.56244c0.356,-0.65925 0.53401,-1.424 0.53401,-2.29423c0,-0.87023 -0.178,-1.63495 -0.534,-2.29422c-0.356,-0.67244 -0.85044,-1.19327 -1.48333,-1.56245c-0.6197,-0.38236 -1.3383,-0.57355 -2.15578,-0.57355c-0.83067,0 -1.56244,0.19118 -2.19533,0.57356c-0.6197,0.36919 -1.11415,0.89001 -1.48333,1.56246c-0.356,0.65927 -0.534,1.424 -0.534,2.29422c0,0.87023 0.178,1.63497 0.534,2.29423c0.36919,0.65927 0.86363,1.18007 1.48335,1.56246c0.63289,0.36919 1.36467,0.55378 2.19534,0.55378zM300.3384,254.47707c0,-0.94934 0.23074,-1.79318 0.69223,-2.53156c0.46148,-0.75155 1.08779,-1.3449 1.8789,-1.78001c0.79111,-0.44829 1.65474,-0.67244 2.5909,-0.67244c0.94934,0 1.65474,0.15162 2.11624,0.45489c0.47467,0.30327 0.65267,0.67244 0.534,1.10755c-0.03956,0.21097 -0.13185,0.37579 -0.27689,0.49446c-0.13185,0.11867 -0.28348,0.19778 -0.45488,0.23733c-0.17141,0.02638 -0.356,0.01319 -0.55378,-0.03956c-1.01526,-0.19778 -1.92504,-0.21095 -2.72934,-0.03955c-0.8043,0.17141 -1.43719,0.49445 -1.89867,0.96912c-0.46148,0.47467 -0.69222,1.0746 -0.69222,1.79979zM300.35819,262.54642c-0.36919,0 -0.65926,-0.09888 -0.87023,-0.29666c-0.21097,-0.19778 -0.31644,-0.49444 -0.31644,-0.89v-10.54157c0,-0.38236 0.10548,-0.67244 0.31644,-0.87023c0.21097,-0.21096 0.50104,-0.31645 0.87023,-0.31645c0.39556,0 0.69223,0.09889 0.89001,0.29667c0.19778,0.19778 0.29667,0.49446 0.29667,0.89001v10.54158c0,0.38238 -0.09888,0.67904 -0.29666,0.89001c-0.19778,0.19778 -0.49444,0.29667 -0.88999,0.29667zM315.57718,262.64529c-1.27897,0 -2.4063,-0.27688 -3.382,-0.83066c-0.9757,-0.56696 -1.74704,-1.3383 -2.31399,-2.314c-0.55378,-0.98889 -0.83067,-2.12282 -0.83067,-3.40179c0,-1.29215 0.27689,-2.42607 0.83067,-3.40178c0.56697,-0.98889 1.3383,-1.76022 2.31401,-2.314c0.9757,-0.56696 2.10304,-0.85044 3.38201,-0.85044c1.25259,0 2.36674,0.28348 3.34246,0.85046c0.9757,0.55378 1.74044,1.32512 2.29422,2.31401c0.56697,0.97571 0.85046,2.10964 0.85046,3.40178c0,1.27897 -0.27689,2.41289 -0.83067,3.40179c-0.55378,0.97571 -1.31852,1.74704 -2.29422,2.31401c-0.9757,0.55378 -2.09645,0.83067 -3.36223,0.83067zM315.57718,260.50929c0.81748,0 1.53608,-0.18459 2.15579,-0.55378c0.63289,-0.38236 1.12734,-0.90319 1.48334,-1.56244c0.356,-0.65925 0.534,-1.424 0.534,-2.29423c0,-0.87023 -0.178,-1.63495 -0.534,-2.29422c-0.356,-0.67244 -0.85044,-1.19327 -1.48333,-1.56245c-0.6197,-0.38236 -1.3383,-0.57355 -2.15578,-0.57355c-0.83067,0 -1.56244,0.19118 -2.19533,0.57356c-0.6197,0.36919 -1.11415,0.89001 -1.48333,1.56246c-0.356,0.65927 -0.53399,1.424 -0.53399,2.29422c0,0.87023 0.178,1.63497 0.534,2.29423c0.36919,0.65927 0.86363,1.18007 1.48334,1.56246c0.63289,0.36919 1.36468,0.55378 2.19535,0.55378zM331.51709,262.64529c-1.27897,0 -2.4063,-0.27688 -3.382,-0.83066c-0.9757,-0.56696 -1.74704,-1.3383 -2.31399,-2.314c-0.55378,-0.98889 -0.83067,-2.12282 -0.83067,-3.40179c0,-1.29215 0.27689,-2.42607 0.83067,-3.40178c0.56697,-0.98889 1.3383,-1.76022 2.31401,-2.314c0.9757,-0.56696 2.10304,-0.85044 3.38201,-0.85044c1.25259,0 2.36675,0.28348 3.34246,0.85046c0.9757,0.55378 1.74044,1.32512 2.29422,2.31401c0.56697,0.97571 0.85046,2.10964 0.85046,3.40178c0,1.27897 -0.27689,2.41289 -0.83067,3.40179c-0.55378,0.97571 -1.31852,1.74704 -2.29422,2.31401c-0.9757,0.55378 -2.09645,0.83067 -3.36223,0.83067zM331.51709,260.50929c0.81748,0 1.53608,-0.18459 2.15579,-0.55378c0.63289,-0.38236 1.12734,-0.90319 1.48334,-1.56244c0.356,-0.65925 0.534,-1.424 0.534,-2.29423c0,-0.87023 -0.178,-1.63495 -0.534,-2.29422c-0.356,-0.67244 -0.85044,-1.19327 -1.48333,-1.56245c-0.6197,-0.38236 -1.3383,-0.57355 -2.15578,-0.57355c-0.83067,0 -1.56244,0.19118 -2.19533,0.57356c-0.6197,0.36919 -1.11415,0.89001 -1.48333,1.56246c-0.356,0.65927 -0.53399,1.424 -0.53399,2.29422c0,0.87023 0.178,1.63497 0.534,2.29423c0.36919,0.65927 0.86363,1.18007 1.48334,1.56246c0.63289,0.36919 1.36468,0.55378 2.19535,0.55378zM358.55242,262.56619c-0.356,0 -0.64608,-0.11207 -0.87023,-0.33622c-0.22415,-0.22415 -0.33621,-0.51423 -0.33621,-0.87023v-6.74423c0,-0.98889 -0.24393,-1.72066 -0.73178,-2.19533c-0.48786,-0.48784 -1.12732,-0.73178 -1.91844,-0.73178c-0.81748,0 -1.48992,0.28348 -2.01734,0.85046c-0.52742,0.56697 -0.79111,1.29216 -0.79111,2.17556h-1.958c0,-1.02844 0.21756,-1.93163 0.65267,-2.70956c0.4483,-0.77792 1.068,-1.38445 1.85912,-1.81956c0.79111,-0.44829 1.7009,-0.67245 2.72934,-0.67245c0.89659,0 1.68771,0.19778 2.37334,0.59333c0.69881,0.39556 1.23942,0.97572 1.62178,1.74045c0.39556,0.75155 0.59333,1.67452 0.59333,2.76889v6.74424c0,0.356 -0.11207,0.64607 -0.33621,0.87022c-0.22415,0.22415 -0.51423,0.33623 -0.87023,0.33623zM342.78949,262.56619c-0.34281,0 -0.63289,-0.11207 -0.87022,-0.33622c-0.22415,-0.22415 -0.33622,-0.51423 -0.33622,-0.87023v-10.50201c0,-0.356 0.11208,-0.64607 0.33623,-0.87023c0.23733,-0.22415 0.52741,-0.33621 0.87022,-0.33621c0.36919,0 0.65926,0.11208 0.87023,0.33623c0.22415,0.22415 0.33623,0.51422 0.33623,0.87022v10.50203c0,0.356 -0.11207,0.64608 -0.33622,0.87022c-0.21097,0.22415 -0.50103,0.33623 -0.87022,0.33623zM350.68085,262.56619c-0.34281,0 -0.63289,-0.11207 -0.87023,-0.33622c-0.22415,-0.22415 -0.33621,-0.51423 -0.33621,-0.87023v-6.74423c0,-0.98889 -0.24393,-1.72066 -0.73177,-2.19533c-0.48786,-0.48784 -1.12075,-0.73178 -1.89867,-0.73178c-0.83067,0 -1.5163,0.28348 -2.05689,0.85046c-0.52742,0.56697 -0.79111,1.29216 -0.79111,2.17556h-1.48333c0,-1.02844 0.20437,-1.93163 0.61311,-2.70956c0.40875,-0.77792 0.97571,-1.38445 1.7009,-1.81956c0.72519,-0.44829 1.54926,-0.67245 2.47224,-0.67245c0.89659,0 1.69429,0.19778 2.39312,0.59333c0.69881,0.39556 1.23942,0.97572 1.62178,1.74045c0.38236,0.75155 0.57357,1.67452 0.57357,2.76889v6.74424c0,0.356 -0.11207,0.64607 -0.33621,0.87022c-0.21097,0.22415 -0.50104,0.33623 -0.87023,0.33623zM364.42588,262.92219c-0.43511,0 -0.81748,-0.15822 -1.14711,-0.47467c-0.31644,-0.32962 -0.47467,-0.712 -0.47467,-1.14711c0,-0.46148 0.15823,-0.85044 0.47467,-1.16689c0.32963,-0.32962 0.712,-0.49444 1.14711,-0.49444c0.46148,0 0.84386,0.16482 1.14711,0.49446c0.31644,0.31644 0.47467,0.7054 0.47467,1.1669c0,0.43511 -0.15823,0.8175 -0.47467,1.14711c-0.30325,0.31644 -0.68563,0.47467 -1.14711,0.47467zM370.04619,262.92219c-0.43511,0 -0.81748,-0.15822 -1.14711,-0.47467c-0.31644,-0.32962 -0.47467,-0.712 -0.47467,-1.14711c0,-0.46148 0.15823,-0.85044 0.47467,-1.16689c0.32963,-0.32962 0.712,-0.49444 1.14711,-0.49444c0.46148,0 0.84386,0.16482 1.14711,0.49446c0.31644,0.31644 0.47467,0.7054 0.47467,1.1669c0,0.43511 -0.15823,0.8175 -0.47467,1.14711c-0.30325,0.31644 -0.68563,0.47467 -1.14711,0.47467zM375.66648,262.92219c-0.43511,0 -0.81748,-0.15822 -1.14711,-0.47467c-0.31644,-0.32962 -0.47467,-0.712 -0.47467,-1.14711c0,-0.46148 0.15823,-0.85044 0.47467,-1.16689c0.32963,-0.32962 0.712,-0.49444 1.14711,-0.49444c0.46148,0 0.84386,0.16482 1.14711,0.49446c0.31644,0.31644 0.47467,0.7054 0.47467,1.1669c0,0.43511 -0.15822,0.8175 -0.47467,1.14711c-0.30325,0.31644 -0.68563,0.47467 -1.14711,0.47467z" fill="#ffffff" fill-rule="nonzero" stroke="#ffffff" stroke-width="0.5" stroke-linecap="square" stroke-linejoin="miter"/></g></g></svg>