<svg version="1.1" xmlns="http://www.w3.org/2000/svg" xmlns:xlink="http://www.w3.org/1999/xlink" width="134" height="134" viewBox="0,0,134,134"><g transform="translate(-173,-113)"><g data-paper-data="{&quot;isPaintingLayer&quot;:true}" fill-rule="nonzero" stroke-linecap="butt" stroke-linejoin="miter" stroke-miterlimit="10" stroke-dasharray="" stroke-dashoffset="0" style="mix-blend-mode: normal"><path d="M229.26785,166.64483c5.73489,0.05112 11.79314,0.2734 21.70004,0.36174c7.63272,0.06804 13.0142,4.94992 13.53572,12.79545c0.17545,8.07638 -4.63185,13.60851 -10.8457,13.55312c-10.82465,-0.09651 -20.24696,-0.34878 -26.57454,-0.40521c-5.14328,-0.04586 -11.94683,-4.40947 -11.57718,-13.75302c0.29202,-7.38145 7.96823,-12.60374 13.76167,-12.55208z" data-paper-data="{&quot;index&quot;:null}" fill="#4c97ff" stroke="#ffffff" stroke-width="5"/><path d="M229.26785,166.64483c5.73489,0.05112 11.79314,0.2734 21.70004,0.36174c7.63272,0.06804 13.0142,4.94992 13.53572,12.79545c0.17545,8.07638 -4.63185,13.60851 -10.8457,13.55312c-10.82465,-0.09651 -20.24696,-0.34878 -26.57454,-0.40521c-5.14328,-0.04586 -11.94683,-4.40947 -11.57718,-13.75302c0.29202,-7.38145 7.96823,-12.60374 13.76167,-12.55208z" data-paper-data="{&quot;index&quot;:null}" fill="#4c97ff" stroke="none" stroke-width="0"/><g data-paper-data="{&quot;index&quot;:null}" fill="#ffffff" stroke="none" stroke-width="0"><path d="M246.43347,175.75136c1.2095,-0.03703 2.24501,1.73053 2.31288,3.94792c0.06788,2.21739 -0.8576,4.04496 -2.06709,4.082c-1.2095,0.03703 -2.24501,-1.73053 -2.31288,-3.94792c-0.06788,-2.21739 0.8576,-4.04496 2.06709,-4.082z"/><path d="M229.65406,176.21873c1.2095,-0.03703 2.24501,1.73053 2.31288,3.94792c0.06788,2.21739 -0.8576,4.04496 -2.06709,4.082c-1.2095,0.03703 -2.245,-1.73053 -2.31287,-3.94792c-0.06788,-2.21739 0.85759,-4.04496 2.06708,-4.08198z"/><path d="M232.57713,180.95593c0,0 2.62712,-0.336 5.22907,-0.79539c2.60196,-0.45939 4.35386,-1.40794 4.35386,-1.40794c0,0 -0.03051,3.45721 -4.28065,4.71896c-2.53294,0.75198 -5.30227,-2.51568 -5.30227,-2.51568z" data-paper-data="{&quot;index&quot;:null}"/></g><path d="M173,247v-134h134v134z" fill="none" stroke="none" stroke-width="0"/></g></g></svg>