<svg version="1.1" xmlns="http://www.w3.org/2000/svg" xmlns:xlink="http://www.w3.org/1999/xlink" width="19.68383" height="19.68383" viewBox="0,0,19.68383,19.68383"><defs><linearGradient x1="239.90091" y1="175.532" x2="239.90091" y2="183.44612" gradientUnits="userSpaceOnUse" id="color-1"><stop offset="0" stop-color="#d15353"/><stop offset="1" stop-color="#ca2828"/></linearGradient><linearGradient x1="236.83688" y1="174.03193" x2="236.83688" y2="177.807" gradientUnits="userSpaceOnUse" id="color-2"><stop offset="0" stop-color="#d15353"/><stop offset="1" stop-color="#ca2828"/></linearGradient><linearGradient x1="243.14998" y1="174.03191" x2="243.14998" y2="177.80698" gradientUnits="userSpaceOnUse" id="color-3"><stop offset="0" stop-color="#d15353"/><stop offset="1" stop-color="#ca2828"/></linearGradient><linearGradient x1="239.90093" y1="175.53195" x2="239.90093" y2="183.44608" gradientUnits="userSpaceOnUse" id="color-4"><stop offset="0" stop-color="#ff6666"/><stop offset="1" stop-color="#ff3333"/></linearGradient><linearGradient x1="240.00002" y1="177.72539" x2="240.00002" y2="182.27465" gradientUnits="userSpaceOnUse" id="color-5"><stop offset="0" stop-color="#ff6666"/><stop offset="1" stop-color="#ff3333"/></linearGradient><linearGradient x1="240.00007" y1="178.50554" x2="240.00007" y2="181.49452" gradientUnits="userSpaceOnUse" id="color-6"><stop offset="0" stop-color="#993f3f"/><stop offset="1" stop-color="#692020"/></linearGradient></defs><g transform="translate(-230.15819,-170.15819)"><g data-paper-data="{&quot;isPaintingLayer&quot;:true}" fill-rule="nonzero" stroke-linecap="butt" stroke-linejoin="miter" stroke-miterlimit="10" stroke-dasharray="" stroke-dashoffset="0" style="mix-blend-mode: normal"><g><path d="M230.1582,189.84203v-19.68383h19.68383v19.68383z" fill="none" stroke="none" stroke-width="0"/><path d="M235.94385,179.48906c0,-2.18543 1.77163,-3.95706 3.95706,-3.95706c2.18543,0 3.95706,1.77163 3.95706,3.95706c0,2.18543 -1.77163,3.95706 -3.95706,3.95706c-2.18543,0 -3.95706,-1.77163 -3.95706,-3.95706z" fill="url(#color-1)" stroke="none" stroke-width="0"/><path d="M238.5218,176.80459c0.00145,0.2894 -0.39143,1.00241 -1.06641,1.00241c-1.27215,0 -2.30343,-3.77507 -2.30343,-3.77507c0,0 1.24455,1.81289 2.5167,1.81289c0.63232,0 0.85088,0.51253 0.85312,0.95977z" fill="url(#color-2)" stroke="none" stroke-width="NaN"/><path d="M242.3182,175.8448c1.27215,0 2.5167,-1.81289 2.5167,-1.81289c0,0 -1.03128,3.77507 -2.30343,3.77507c-0.67497,0 -1.06785,-0.71301 -1.0664,-1.00241c0.00224,-0.44723 0.22082,-0.95977 0.85312,-0.95977z" data-paper-data="{&quot;index&quot;:null}" fill="url(#color-3)" stroke="none" stroke-width="NaN"/><path d="M235.94384,179.48905c0,-0.82782 0.25419,-1.59626 0.68879,-2.23153c0.18766,-0.27432 2.67321,2.37727 2.9222,2.15856c0.23635,-0.20761 -1.76661,-3.28856 -1.48544,-3.43564c0.54763,-0.28645 1.17065,-0.44845 1.83151,-0.44845c0.68472,0 1.32881,0.17391 1.89053,0.47996c0.30697,0.16725 -1.95795,3.27505 -1.707,3.51442c0.23832,0.22732 2.99559,-2.41699 3.1714,-2.13661c0.38154,0.60846 0.60214,1.32811 0.60214,2.09929c0,2.18543 -1.77163,3.95706 -3.95706,3.95706c-2.18543,0 -3.95706,-1.77163 -3.95706,-3.95706z" fill="url(#color-4)" stroke="none" stroke-width="0"/><path d="M237.43665,179.71125c0,-0.67262 0.15036,-1.63707 0.59437,-1.88207c0.49053,-0.27067 1.31125,0.21447 2.05433,0.21447c0.70676,0 1.24015,-0.49175 1.68255,-0.25273c0.44378,0.23977 0.79551,1.21138 0.79551,1.92034c0,1.41572 -1.14767,2.56339 -2.56339,2.56339c-1.41572,0 -2.56339,-1.14767 -2.56339,-2.56339z" data-paper-data="{&quot;index&quot;:null}" fill="#ffffff" stroke="url(#color-5)" stroke-width="1"/><path d="M237.43667,179.7113c0,-0.67262 0.15036,-1.63707 0.59437,-1.88207c0.49053,-0.27067 1.31125,0.21447 2.05433,0.21447c0.70676,0 1.24015,-0.49175 1.68255,-0.25273c0.44378,0.23977 0.79551,1.21138 0.79551,1.92034c0,1.41572 -1.14767,2.56339 -2.56339,2.56339c-1.41572,0 -2.56339,-1.14767 -2.56339,-2.56339z" data-paper-data="{&quot;index&quot;:null}" fill="#ffffff" stroke="#000000" stroke-width="0"/><path d="M238.37464,179.86915c0,-0.51872 0.19476,-1.36357 0.19476,-1.36357c0,0 1.05166,0.29272 1.43063,0.29272c0.47344,0 1.36728,-0.24238 1.36728,-0.24238c0,0 0.25811,0.889 0.25811,1.31325c0,0.89768 -0.72772,1.62539 -1.62539,1.62539c-0.89768,0 -1.62539,-0.72772 -1.62539,-1.62539z" fill="url(#color-6)" stroke="none" stroke-width="0"/></g></g></g></svg>