<svg version="1.1" xmlns="http://www.w3.org/2000/svg" xmlns:xlink="http://www.w3.org/1999/xlink" width="183.28986" height="25.95512" viewBox="0,0,183.28986,25.95512"><g transform="translate(-148.35507,-167.02244)"><g data-paper-data="{&quot;isPaintingLayer&quot;:true}" fill-rule="nonzero" stroke-miterlimit="10" stroke-dasharray="" stroke-dashoffset="0" style="mix-blend-mode: normal"><path d="M161.33263,167.02244h157.33474c7.18957,0 12.97756,5.78799 12.97756,12.97756c0,7.18957 -5.788,12.97756 -12.97756,12.97756h-157.33474c-7.18957,0 -12.97756,-5.78799 -12.97756,-12.97756c0,-7.18957 5.78799,-12.97756 12.97756,-12.97756z" fill="#000000" stroke="none" stroke-width="0.365" stroke-linecap="round" stroke-linejoin="round"/><path d="M161.89587,184.52534c-0.10417,0 -0.1875,-0.03125 -0.25,-0.09375c-0.05208,-0.0625 -0.07812,-0.14583 -0.07812,-0.25v-9.5625c0,-0.10417 0.02604,-0.1875 0.07813,-0.25c0.0625,-0.07292 0.14583,-0.10937 0.25,-0.10937h3.57813c1.10417,0 1.97917,0.26042 2.625,0.78125c0.64583,0.52083 0.96875,1.28646 0.96875,2.29688c0,0.76042 -0.1875,1.38021 -0.5625,1.85938c-0.375,0.46875 -0.88542,0.79167 -1.53125,0.96875l2.25,3.90625c0.03125,0.0625 0.04688,0.11458 0.04688,0.15625c0,0.08333 -0.03125,0.15625 -0.09375,0.21875c-0.0625,0.05208 -0.13542,0.07813 -0.21875,0.07813h-0.70312c-0.16667,0 -0.29167,-0.04167 -0.375,-0.125c-0.07292,-0.09375 -0.13542,-0.18229 -0.1875,-0.26562l-2.125,-3.73437h-2.5625v3.78125c0,0.10417 -0.03646,0.1875 -0.10937,0.25c-0.0625,0.0625 -0.14583,0.09375 -0.25,0.09375zM163.00525,179.16597h2.40625c0.73958,0 1.28646,-0.15104 1.64063,-0.45312c0.36458,-0.3125 0.54688,-0.77604 0.54688,-1.39062c0,-0.59375 -0.17708,-1.04687 -0.53125,-1.35937c-0.35417,-0.3125 -0.90625,-0.46875 -1.65625,-0.46875h-2.40625zM173.93899,184.66597c-1.02083,0 -1.82812,-0.30729 -2.42187,-0.92187c-0.59375,-0.625 -0.92187,-1.47396 -0.98437,-2.54687c-0.01042,-0.125 -0.01562,-0.28646 -0.01562,-0.48437c0,-0.20833 0.00521,-0.375 0.01563,-0.5c0.04167,-0.6875 0.20313,-1.29167 0.48438,-1.8125c0.28125,-0.53125 0.66667,-0.9375 1.15625,-1.21875c0.5,-0.28125 1.08333,-0.42187 1.75,-0.42187c0.73958,0 1.35938,0.15625 1.85938,0.46875c0.5,0.3125 0.88021,0.76042 1.14063,1.34375c0.27083,0.57292 0.40625,1.24479 0.40625,2.01563v0.25c0,0.10417 -0.03125,0.1875 -0.09375,0.25c-0.0625,0.05208 -0.14062,0.07813 -0.23437,0.07813h-5.07812c0,0.01042 0,0.03125 0,0.0625c0,0.03125 0,0.05729 0,0.07813c0.02083,0.39583 0.10938,0.77083 0.26563,1.125c0.15625,0.34375 0.38021,0.625 0.67188,0.84375c0.30208,0.20833 0.65625,0.3125 1.0625,0.3125c0.34375,0 0.63021,-0.05208 0.85938,-0.15625c0.23958,-0.11458 0.43229,-0.23437 0.57813,-0.35937c0.15625,-0.13542 0.25521,-0.23958 0.29688,-0.3125c0.09375,-0.125 0.16146,-0.19792 0.20313,-0.21875c0.05208,-0.02083 0.13021,-0.03125 0.23438,-0.03125h0.71875c0.09375,0 0.17188,0.02604 0.23438,0.07813c0.0625,0.05208 0.08854,0.125 0.07813,0.21875c-0.01042,0.14583 -0.08854,0.32813 -0.23437,0.54688c-0.14583,0.20833 -0.35417,0.41667 -0.625,0.625c-0.27083,0.19792 -0.60417,0.36458 -1,0.5c-0.39583,0.125 -0.83854,0.1875 -1.32812,0.1875zM171.92337,180.15034h4.01563v-0.03125c0,-0.44792 -0.08333,-0.83854 -0.25,-1.17187c-0.15625,-0.34375 -0.38542,-0.61458 -0.6875,-0.8125c-0.30208,-0.20833 -0.66146,-0.3125 -1.07812,-0.3125c-0.42708,0 -0.79167,0.10417 -1.09375,0.3125c-0.29167,0.19792 -0.51562,0.46875 -0.67187,0.8125c-0.15625,0.33333 -0.23437,0.72396 -0.23437,1.17188zM181.20904,184.66597c-0.47917,0 -0.92187,-0.09375 -1.32812,-0.28125c-0.39583,-0.19792 -0.71875,-0.46354 -0.96875,-0.79687c-0.23958,-0.33333 -0.35937,-0.70833 -0.35937,-1.125c0,-0.67708 0.27083,-1.21354 0.8125,-1.60937c0.55208,-0.40625 1.26563,-0.67187 2.14063,-0.79687l2.1875,-0.3125v-0.42187c0,-0.46875 -0.13542,-0.83333 -0.40625,-1.09375c-0.27083,-0.27083 -0.70833,-0.40625 -1.3125,-0.40625c-0.42708,0 -0.78125,0.08854 -1.0625,0.26563c-0.27083,0.17708 -0.45833,0.40104 -0.5625,0.67188c-0.0625,0.14583 -0.16667,0.21875 -0.3125,0.21875h-0.65625c-0.10417,0 -0.18229,-0.03125 -0.23437,-0.09375c-0.05208,-0.0625 -0.07812,-0.13542 -0.07812,-0.21875c0,-0.14583 0.05208,-0.32812 0.15625,-0.54687c0.11458,-0.21875 0.28646,-0.42708 0.51563,-0.625c0.23958,-0.20833 0.54167,-0.38021 0.90625,-0.51562c0.36458,-0.14583 0.8125,-0.21875 1.34375,-0.21875c0.58333,0 1.07292,0.07813 1.46875,0.23438c0.40625,0.14583 0.72396,0.34896 0.95313,0.60938c0.22917,0.25 0.39583,0.53646 0.5,0.85938c0.10417,0.32292 0.15625,0.65104 0.15625,0.98438v4.73438c0,0.10417 -0.03125,0.1875 -0.09375,0.25c-0.0625,0.0625 -0.14062,0.09375 -0.23437,0.09375h-0.6875c-0.10417,0 -0.1875,-0.03125 -0.25,-0.09375c-0.05208,-0.0625 -0.07812,-0.14583 -0.07812,-0.25v-0.625c-0.125,0.17708 -0.29687,0.35417 -0.51562,0.53125c-0.21875,0.16667 -0.48958,0.30729 -0.8125,0.42188c-0.32292,0.10417 -0.71875,0.15625 -1.1875,0.15625zM181.52154,183.57222c0.40625,0 0.77083,-0.08333 1.09375,-0.25c0.33333,-0.17708 0.59375,-0.44271 0.78125,-0.79687c0.19792,-0.36458 0.29688,-0.82292 0.29688,-1.375v-0.40625l-1.70312,0.25c-0.6875,0.09375 -1.20833,0.25521 -1.5625,0.48438c-0.35417,0.22917 -0.53125,0.52083 -0.53125,0.875c0,0.27083 0.07813,0.5 0.23438,0.6875c0.16667,0.17708 0.375,0.3125 0.625,0.40625c0.25,0.08333 0.50521,0.125 0.76563,0.125zM190.25244,184.66597c-0.6875,0 -1.28646,-0.13021 -1.79687,-0.39062c-0.5,-0.27083 -0.88542,-0.65625 -1.15625,-1.15625c-0.27083,-0.51042 -0.41667,-1.11458 -0.4375,-1.8125c-0.01042,-0.14583 -0.01562,-0.33854 -0.01562,-0.57812c0,-0.25 0.00521,-0.44792 0.01563,-0.59375c0.02083,-0.70833 0.16667,-1.3125 0.4375,-1.8125c0.27083,-0.51042 0.65625,-0.89583 1.15625,-1.15625c0.51042,-0.27083 1.10938,-0.40625 1.79688,-0.40625c0.57292,0 1.0625,0.07813 1.46875,0.23438c0.40625,0.15625 0.73958,0.35938 1,0.60938c0.26042,0.23958 0.45833,0.5 0.59375,0.78125c0.13542,0.28125 0.20833,0.55208 0.21875,0.8125c0.01042,0.09375 -0.02083,0.17188 -0.09375,0.23438c-0.07292,0.05208 -0.15625,0.07813 -0.25,0.07813h-0.70312c-0.09375,0 -0.16667,-0.02083 -0.21875,-0.0625c-0.05208,-0.04167 -0.09896,-0.11979 -0.14062,-0.23437c-0.17708,-0.47917 -0.42187,-0.8125 -0.73437,-1c-0.30208,-0.19792 -0.67708,-0.29687 -1.125,-0.29687c-0.58333,0 -1.05729,0.18229 -1.42187,0.54688c-0.36458,0.35417 -0.5625,0.93229 -0.59375,1.73438c-0.01042,0.35417 -0.01042,0.69792 0,1.03125c0.03125,0.8125 0.22917,1.39583 0.59375,1.75c0.36458,0.35417 0.83854,0.53125 1.42188,0.53125c0.44792,0 0.82292,-0.09375 1.125,-0.28125c0.3125,-0.19792 0.55729,-0.53646 0.73438,-1.01562c0.04167,-0.11458 0.08854,-0.19271 0.14063,-0.23437c0.05208,-0.05208 0.125,-0.07812 0.21875,-0.07812h0.70313c0.09375,0 0.17708,0.03125 0.25,0.09375c0.07292,0.0625 0.10417,0.14583 0.09375,0.25c-0.01042,0.19792 -0.05729,0.40625 -0.14062,0.625c-0.07292,0.21875 -0.19792,0.4375 -0.375,0.65625c-0.16667,0.21875 -0.38021,0.41667 -0.64062,0.59375c-0.25,0.16667 -0.55208,0.30208 -0.90625,0.40625c-0.35417,0.09375 -0.76042,0.14063 -1.21875,0.14063zM195.62399,184.52534c-0.09375,0 -0.17708,-0.03125 -0.25,-0.09375c-0.0625,-0.0625 -0.09375,-0.14583 -0.09375,-0.25v-9.71875c0,-0.10417 0.03125,-0.1875 0.09375,-0.25c0.07292,-0.0625 0.15625,-0.09375 0.25,-0.09375h0.73438c0.10417,0 0.18229,0.03125 0.23438,0.09375c0.0625,0.0625 0.09375,0.14583 0.09375,0.25v3.40625c0.27083,-0.33333 0.59375,-0.59896 0.96875,-0.79687c0.38542,-0.20833 0.86979,-0.3125 1.45313,-0.3125c0.63542,0 1.17188,0.14063 1.60938,0.42188c0.44792,0.27083 0.78646,0.65625 1.01563,1.15625c0.23958,0.48958 0.35938,1.0625 0.35938,1.71875v4.125c0,0.10417 -0.03125,0.1875 -0.09375,0.25c-0.0625,0.0625 -0.14583,0.09375 -0.25,0.09375h-0.73437c-0.09375,0 -0.17187,-0.03125 -0.23437,-0.09375c-0.0625,-0.0625 -0.09375,-0.14583 -0.09375,-0.25v-4.04687c0,-0.6875 -0.16667,-1.22396 -0.5,-1.60937c-0.33333,-0.38542 -0.82292,-0.57812 -1.46875,-0.57812c-0.60417,0 -1.09375,0.19271 -1.46875,0.57813c-0.375,0.38542 -0.5625,0.92188 -0.5625,1.60938v4.04688c0,0.10417 -0.03125,0.1875 -0.09375,0.25c-0.05208,0.0625 -0.13021,0.09375 -0.23437,0.09375zM208.14047,187.30659c-0.09375,0 -0.17708,-0.03125 -0.25,-0.09375c-0.0625,-0.0625 -0.09375,-0.14062 -0.09375,-0.23437v-9.73437c0,-0.10417 0.03125,-0.1875 0.09375,-0.25c0.07292,-0.0625 0.15625,-0.09375 0.25,-0.09375h0.67188c0.09375,0 0.17188,0.03125 0.23438,0.09375c0.07292,0.0625 0.10938,0.14583 0.10938,0.25v0.64063c0.22917,-0.32292 0.53646,-0.58854 0.92188,-0.79687c0.39583,-0.21875 0.88542,-0.32812 1.46875,-0.32812c0.55208,0 1.02083,0.09375 1.40625,0.28125c0.38542,0.1875 0.70313,0.44271 0.95313,0.76563c0.25,0.3125 0.4375,0.67708 0.5625,1.09375c0.125,0.40625 0.19792,0.84375 0.21875,1.3125c0.01042,0.15625 0.01563,0.32292 0.01563,0.5c0,0.17708 -0.00521,0.34375 -0.01562,0.5c-0.02083,0.45833 -0.09375,0.89583 -0.21875,1.3125c-0.125,0.41667 -0.3125,0.78646 -0.5625,1.10938c-0.25,0.3125 -0.56771,0.5625 -0.95312,0.75c-0.38542,0.1875 -0.85417,0.28125 -1.40625,0.28125c-0.5625,0 -1.03646,-0.10417 -1.42187,-0.3125c-0.38542,-0.20833 -0.69792,-0.46875 -0.9375,-0.78125v3.40625c0,0.09375 -0.03125,0.17188 -0.09375,0.23438c-0.0625,0.0625 -0.14062,0.09375 -0.23437,0.09375zM211.24984,183.47847c0.51042,0 0.90625,-0.10937 1.1875,-0.32812c0.29167,-0.21875 0.5,-0.50521 0.625,-0.85937c0.125,-0.35417 0.19792,-0.73958 0.21875,-1.15625c0.01042,-0.28125 0.01042,-0.5625 0,-0.84375c-0.02083,-0.40625 -0.09375,-0.78646 -0.21875,-1.14062c-0.125,-0.36458 -0.33333,-0.65625 -0.625,-0.875c-0.28125,-0.21875 -0.67708,-0.32812 -1.1875,-0.32812c-0.47917,0 -0.86979,0.11458 -1.17187,0.34375c-0.29167,0.21875 -0.51042,0.50521 -0.65625,0.85938c-0.14583,0.34375 -0.22396,0.69271 -0.23437,1.04688c-0.01042,0.15625 -0.01562,0.34375 -0.01562,0.5625c0,0.21875 0.00521,0.41146 0.01563,0.57813c0,0.33333 0.07813,0.66667 0.23438,1c0.15625,0.33333 0.38542,0.60938 0.6875,0.82813c0.30208,0.20833 0.68229,0.3125 1.14063,0.3125zM216.85998,184.52534c-0.09375,0 -0.17708,-0.03125 -0.25,-0.09375c-0.0625,-0.0625 -0.09375,-0.14583 -0.09375,-0.25v-6.92187c0,-0.10417 0.03125,-0.1875 0.09375,-0.25c0.07292,-0.07292 0.15625,-0.10937 0.25,-0.10937h0.67188c0.10417,0 0.1875,0.03646 0.25,0.10938c0.07292,0.0625 0.10938,0.14583 0.10938,0.25v0.64063c0.1875,-0.33333 0.45313,-0.58333 0.79688,-0.75c0.34375,-0.16667 0.76042,-0.25 1.25,-0.25h0.57813c0.09375,0 0.17188,0.03125 0.23438,0.09375c0.0625,0.0625 0.09375,0.14583 0.09375,0.25v0.59375c0,0.10417 -0.03125,0.1875 -0.09375,0.25c-0.0625,0.05208 -0.14062,0.07813 -0.23437,0.07813h-0.89062c-0.52083,0 -0.9375,0.15625 -1.25,0.46875c-0.30208,0.30208 -0.45312,0.71875 -0.45312,1.25v4.29688c0,0.10417 -0.03646,0.1875 -0.10937,0.25c-0.0625,0.0625 -0.14062,0.09375 -0.23437,0.09375zM225.00146,184.66597c-1.02083,0 -1.82812,-0.30729 -2.42187,-0.92187c-0.59375,-0.625 -0.92187,-1.47396 -0.98437,-2.54687c-0.01042,-0.125 -0.01562,-0.28646 -0.01562,-0.48437c0,-0.20833 0.00521,-0.375 0.01563,-0.5c0.04167,-0.6875 0.20313,-1.29167 0.48438,-1.8125c0.28125,-0.53125 0.66667,-0.9375 1.15625,-1.21875c0.5,-0.28125 1.08333,-0.42187 1.75,-0.42187c0.73958,0 1.35938,0.15625 1.85938,0.46875c0.5,0.3125 0.88021,0.76042 1.14063,1.34375c0.27083,0.57292 0.40625,1.24479 0.40625,2.01563v0.25c0,0.10417 -0.03125,0.1875 -0.09375,0.25c-0.0625,0.05208 -0.14062,0.07813 -0.23437,0.07813h-5.07812c0,0.01042 0,0.03125 0,0.0625c0,0.03125 0,0.05729 0,0.07813c0.02083,0.39583 0.10938,0.77083 0.26563,1.125c0.15625,0.34375 0.38021,0.625 0.67188,0.84375c0.30208,0.20833 0.65625,0.3125 1.0625,0.3125c0.34375,0 0.63021,-0.05208 0.85938,-0.15625c0.23958,-0.11458 0.43229,-0.23437 0.57813,-0.35937c0.15625,-0.13542 0.25521,-0.23958 0.29688,-0.3125c0.09375,-0.125 0.16146,-0.19792 0.20313,-0.21875c0.05208,-0.02083 0.13021,-0.03125 0.23438,-0.03125h0.71875c0.09375,0 0.17188,0.02604 0.23438,0.07813c0.0625,0.05208 0.08854,0.125 0.07813,0.21875c-0.01042,0.14583 -0.08854,0.32813 -0.23437,0.54688c-0.14583,0.20833 -0.35417,0.41667 -0.625,0.625c-0.27083,0.19792 -0.60417,0.36458 -1,0.5c-0.39583,0.125 -0.83854,0.1875 -1.32812,0.1875zM222.98584,180.15034h4.01563v-0.03125c0,-0.44792 -0.08333,-0.83854 -0.25,-1.17187c-0.15625,-0.34375 -0.38542,-0.61458 -0.6875,-0.8125c-0.30208,-0.20833 -0.66146,-0.3125 -1.07812,-0.3125c-0.42708,0 -0.79167,0.10417 -1.09375,0.3125c-0.29167,0.19792 -0.51562,0.46875 -0.67187,0.8125c-0.15625,0.33333 -0.23437,0.72396 -0.23437,1.17188zM232.78714,184.66597c-0.54167,0 -1.01042,-0.06771 -1.40625,-0.20312c-0.38542,-0.13542 -0.70312,-0.29687 -0.95312,-0.48437c-0.23958,-0.19792 -0.42187,-0.39583 -0.54687,-0.59375c-0.125,-0.19792 -0.19271,-0.35417 -0.20312,-0.46875c-0.01042,-0.10417 0.02083,-0.1875 0.09375,-0.25c0.08333,-0.0625 0.16667,-0.09375 0.25,-0.09375h0.65625c0.05208,0 0.09375,0.01042 0.125,0.03125c0.03125,0.01042 0.07813,0.05208 0.14063,0.125c0.125,0.13542 0.26563,0.27083 0.42188,0.40625c0.15625,0.13542 0.34896,0.25 0.57813,0.34375c0.22917,0.08333 0.51563,0.125 0.85938,0.125c0.5,0 0.91146,-0.09375 1.23438,-0.28125c0.32292,-0.19792 0.48438,-0.47917 0.48438,-0.84375c0,-0.25 -0.06771,-0.44792 -0.20312,-0.59375c-0.125,-0.14583 -0.35937,-0.27604 -0.70312,-0.39062c-0.33333,-0.11458 -0.79167,-0.23958 -1.375,-0.375c-0.59375,-0.13542 -1.0625,-0.30208 -1.40625,-0.5c-0.33333,-0.19792 -0.57292,-0.4375 -0.71875,-0.71875c-0.14583,-0.28125 -0.21875,-0.59375 -0.21875,-0.9375c0,-0.36458 0.10417,-0.71354 0.3125,-1.04687c0.21875,-0.34375 0.53646,-0.61979 0.95313,-0.82812c0.41667,-0.21875 0.9375,-0.32812 1.5625,-0.32812c0.5,0 0.93229,0.0625 1.29688,0.1875c0.36458,0.125 0.66146,0.28646 0.89063,0.48438c0.23958,0.1875 0.41667,0.375 0.53125,0.5625c0.11458,0.17708 0.17708,0.33333 0.1875,0.46875c0.01042,0.09375 -0.02083,0.17188 -0.09375,0.23438c-0.0625,0.0625 -0.13542,0.09375 -0.21875,0.09375h-0.625c-0.0625,0 -0.11979,-0.01042 -0.17187,-0.03125c-0.04167,-0.03125 -0.08333,-0.06771 -0.125,-0.10937c-0.09375,-0.125 -0.20833,-0.25 -0.34375,-0.375c-0.125,-0.13542 -0.29687,-0.24479 -0.51562,-0.32812c-0.20833,-0.08333 -0.47917,-0.125 -0.8125,-0.125c-0.48958,0 -0.85937,0.10417 -1.10937,0.3125c-0.23958,0.20833 -0.35937,0.46875 -0.35937,0.78125c0,0.1875 0.05208,0.35417 0.15625,0.5c0.10417,0.14583 0.30729,0.27604 0.60938,0.39063c0.3125,0.11458 0.76563,0.23958 1.35938,0.375c0.64583,0.13542 1.15104,0.3125 1.51563,0.53125c0.375,0.20833 0.64063,0.45313 0.79688,0.73438c0.15625,0.28125 0.23438,0.60938 0.23438,0.98438c0,0.40625 -0.11979,0.78125 -0.35937,1.125c-0.22917,0.34375 -0.57812,0.61458 -1.04687,0.8125c-0.46875,0.19792 -1.04687,0.29688 -1.73437,0.29688zM240.59091,184.52534c-0.55208,0 -1,-0.10417 -1.34375,-0.3125c-0.33333,-0.20833 -0.57812,-0.50521 -0.73437,-0.89062c-0.15625,-0.38542 -0.23437,-0.84375 -0.23437,-1.375v-3.875h-1.15622c-0.09375,0 -0.17187,-0.03125 -0.23437,-0.09375c-0.0625,-0.0625 -0.09375,-0.14062 -0.09375,-0.23437v-0.5c0,-0.10417 0.03125,-0.1875 0.09375,-0.25c0.0625,-0.0625 0.14063,-0.09375 0.23438,-0.09375h1.15622v-2.4375c0,-0.10417 0.03125,-0.1875 0.09375,-0.25c0.0625,-0.0625 0.14063,-0.09375 0.23438,-0.09375h0.6875c0.10417,0 0.1875,0.03125 0.25,0.09375c0.0625,0.0625 0.09375,0.14583 0.09375,0.25v2.4375h1.8125c0.10417,0 0.1875,0.03125 0.25,0.09375c0.0625,0.0625 0.09375,0.14583 0.09375,0.25v0.5c0,0.09375 -0.03125,0.17188 -0.09375,0.23438c-0.0625,0.0625 -0.14583,0.09375 -0.25,0.09375h-1.8125v3.76563c0,0.45833 0.07813,0.82292 0.23438,1.09375c0.15625,0.26042 0.43229,0.39063 0.82813,0.39063h0.90625c0.09375,0 0.17188,0.03125 0.23438,0.09375c0.0625,0.0625 0.09375,0.14583 0.09375,0.25v0.51563c0,0.10417 -0.03125,0.1875 -0.09375,0.25c-0.0625,0.0625 -0.14062,0.09375 -0.23437,0.09375zM243.6809,184.52534c-0.09375,0 -0.17708,-0.03125 -0.25,-0.09375c-0.0625,-0.0625 -0.09375,-0.14583 -0.09375,-0.25v-6.9375c0,-0.10417 0.03125,-0.1875 0.09375,-0.25c0.07292,-0.0625 0.15625,-0.09375 0.25,-0.09375h0.70313c0.09375,0 0.17188,0.03125 0.23438,0.09375c0.07292,0.0625 0.10938,0.14583 0.10938,0.25v6.9375c0,0.10417 -0.03646,0.1875 -0.10937,0.25c-0.0625,0.0625 -0.14062,0.09375 -0.23437,0.09375zM243.5559,175.47847c-0.09375,0 -0.17187,-0.03125 -0.23437,-0.09375c-0.0625,-0.0625 -0.09375,-0.14062 -0.09375,-0.23437v-0.79687c0,-0.09375 0.03125,-0.17187 0.09375,-0.23437c0.0625,-0.07292 0.14063,-0.10937 0.23438,-0.10937h0.9375c0.09375,0 0.17188,0.03646 0.23438,0.10938c0.07292,0.0625 0.10938,0.14063 0.10938,0.23438v0.79688c0,0.09375 -0.03646,0.17188 -0.10937,0.23438c-0.0625,0.0625 -0.14062,0.09375 -0.23437,0.09375zM250.009,187.74409c-0.66667,0 -1.21354,-0.08854 -1.64062,-0.26562c-0.41667,-0.16667 -0.74479,-0.375 -0.98437,-0.625c-0.23958,-0.25 -0.41146,-0.5 -0.51562,-0.75c-0.10417,-0.25 -0.16146,-0.44792 -0.17187,-0.59375c-0.01042,-0.10417 0.02083,-0.19271 0.09375,-0.26562c0.07292,-0.0625 0.15625,-0.09375 0.25,-0.09375h0.70313c0.08333,0 0.15625,0.02083 0.21875,0.0625c0.0625,0.04167 0.10938,0.125 0.14063,0.25c0.0625,0.14583 0.15104,0.30729 0.26563,0.48438c0.11458,0.1875 0.29167,0.34375 0.53125,0.46875c0.25,0.13542 0.59896,0.20313 1.04688,0.20313c0.45833,0 0.84375,-0.0625 1.15625,-0.1875c0.3125,-0.125 0.54688,-0.33854 0.70313,-0.64062c0.16667,-0.30208 0.25,-0.72396 0.25,-1.26562v-1c-0.23958,0.30208 -0.55208,0.55729 -0.9375,0.76563c-0.375,0.19792 -0.84896,0.29688 -1.42187,0.29688c-0.55208,0 -1.02604,-0.09375 -1.42187,-0.28125c-0.38542,-0.19792 -0.70312,-0.45833 -0.95312,-0.78125c-0.25,-0.33333 -0.4375,-0.70833 -0.5625,-1.125c-0.11458,-0.41667 -0.18229,-0.85417 -0.20312,-1.3125c-0.01042,-0.28125 -0.01042,-0.55208 0,-0.8125c0.02083,-0.45833 0.08854,-0.89583 0.20313,-1.3125c0.125,-0.42708 0.3125,-0.80729 0.5625,-1.14062c0.25,-0.33333 0.56771,-0.59375 0.95313,-0.78125c0.39583,-0.1875 0.86979,-0.28125 1.42188,-0.28125c0.58333,0 1.06771,0.10938 1.45313,0.32813c0.38542,0.20833 0.69792,0.47396 0.9375,0.79688v-0.625c0,-0.10417 0.03125,-0.1875 0.09375,-0.25c0.07292,-0.07292 0.15625,-0.10937 0.25,-0.10937h0.67188c0.10417,0 0.1875,0.03646 0.25,0.10938c0.07292,0.0625 0.10938,0.14583 0.10938,0.25v7.10938c0,0.65625 -0.11458,1.23438 -0.34375,1.73438c-0.21875,0.51042 -0.57812,0.91146 -1.07812,1.20313c-0.5,0.29167 -1.17708,0.4375 -2.03125,0.4375zM249.97775,183.41597c0.48958,0 0.88021,-0.10937 1.17188,-0.32812c0.30208,-0.22917 0.52604,-0.51562 0.67188,-0.85937c0.14583,-0.34375 0.22396,-0.69271 0.23438,-1.04687c0.01042,-0.13542 0.01563,-0.30208 0.01563,-0.5c0,-0.19792 -0.00521,-0.36979 -0.01562,-0.51562c-0.01042,-0.34375 -0.08854,-0.6875 -0.23437,-1.03125c-0.14583,-0.34375 -0.36979,-0.625 -0.67187,-0.84375c-0.29167,-0.22917 -0.68229,-0.34375 -1.17187,-0.34375c-0.48958,0 -0.88021,0.10938 -1.17187,0.32813c-0.29167,0.21875 -0.5,0.51042 -0.625,0.875c-0.125,0.35417 -0.19792,0.73438 -0.21875,1.14063c-0.01042,0.25 -0.01042,0.51042 0,0.78125c0.02083,0.40625 0.09375,0.79167 0.21875,1.15625c0.125,0.35417 0.33333,0.64063 0.625,0.85938c0.29167,0.21875 0.68229,0.32813 1.17188,0.32813zM258.69631,184.66597c-1.02083,0 -1.82812,-0.30729 -2.42187,-0.92187c-0.59375,-0.625 -0.92187,-1.47396 -0.98437,-2.54687c-0.01042,-0.125 -0.01562,-0.28646 -0.01562,-0.48437c0,-0.20833 0.00521,-0.375 0.01563,-0.5c0.04167,-0.6875 0.20313,-1.29167 0.48438,-1.8125c0.28125,-0.53125 0.66667,-0.9375 1.15625,-1.21875c0.5,-0.28125 1.08333,-0.42187 1.75,-0.42187c0.73958,0 1.35938,0.15625 1.85938,0.46875c0.5,0.3125 0.88021,0.76042 1.14063,1.34375c0.27083,0.57292 0.40625,1.24479 0.40625,2.01563v0.25c0,0.10417 -0.03125,0.1875 -0.09375,0.25c-0.0625,0.05208 -0.14062,0.07813 -0.23437,0.07813h-5.07812c0,0.01042 0,0.03125 0,0.0625c0,0.03125 0,0.05729 0,0.07813c0.02083,0.39583 0.10938,0.77083 0.26563,1.125c0.15625,0.34375 0.38021,0.625 0.67188,0.84375c0.30208,0.20833 0.65625,0.3125 1.0625,0.3125c0.34375,0 0.63021,-0.05208 0.85938,-0.15625c0.23958,-0.11458 0.43229,-0.23437 0.57813,-0.35937c0.15625,-0.13542 0.25521,-0.23958 0.29688,-0.3125c0.09375,-0.125 0.16146,-0.19792 0.20313,-0.21875c0.05208,-0.02083 0.13021,-0.03125 0.23438,-0.03125h0.71875c0.09375,0 0.17188,0.02604 0.23438,0.07813c0.0625,0.05208 0.08854,0.125 0.07813,0.21875c-0.01042,0.14583 -0.08854,0.32813 -0.23437,0.54688c-0.14583,0.20833 -0.35417,0.41667 -0.625,0.625c-0.27083,0.19792 -0.60417,0.36458 -1,0.5c-0.39583,0.125 -0.83854,0.1875 -1.32812,0.1875zM256.68068,180.15034h4.01563v-0.03125c0,-0.44792 -0.08333,-0.83854 -0.25,-1.17187c-0.15625,-0.34375 -0.38542,-0.61458 -0.6875,-0.8125c-0.30208,-0.20833 -0.66146,-0.3125 -1.07812,-0.3125c-0.42708,0 -0.79167,0.10417 -1.09375,0.3125c-0.29167,0.19792 -0.51562,0.46875 -0.67187,0.8125c-0.15625,0.33333 -0.23437,0.72396 -0.23437,1.17188zM267.77586,184.52534c-0.09375,0 -0.17708,-0.03125 -0.25,-0.09375c-0.0625,-0.0625 -0.09375,-0.14583 -0.09375,-0.25v-6.92187c0,-0.10417 0.03125,-0.1875 0.09375,-0.25c0.07292,-0.07292 0.15625,-0.10937 0.25,-0.10937h0.67188c0.10417,0 0.1875,0.03646 0.25,0.10938c0.07292,0.0625 0.10938,0.14583 0.10938,0.25v0.64063c0.1875,-0.33333 0.45313,-0.58333 0.79688,-0.75c0.34375,-0.16667 0.76042,-0.25 1.25,-0.25h0.57813c0.09375,0 0.17188,0.03125 0.23438,0.09375c0.0625,0.0625 0.09375,0.14583 0.09375,0.25v0.59375c0,0.10417 -0.03125,0.1875 -0.09375,0.25c-0.0625,0.05208 -0.14062,0.07813 -0.23437,0.07813h-0.89062c-0.52083,0 -0.9375,0.15625 -1.25,0.46875c-0.30208,0.30208 -0.45312,0.71875 -0.45312,1.25v4.29688c0,0.10417 -0.03646,0.1875 -0.10937,0.25c-0.0625,0.0625 -0.14062,0.09375 -0.23437,0.09375zM275.0092,184.66597c-0.47917,0 -0.92187,-0.09375 -1.32812,-0.28125c-0.39583,-0.19792 -0.71875,-0.46354 -0.96875,-0.79687c-0.23958,-0.33333 -0.35937,-0.70833 -0.35937,-1.125c0,-0.67708 0.27083,-1.21354 0.8125,-1.60937c0.55208,-0.40625 1.26563,-0.67187 2.14063,-0.79687l2.1875,-0.3125v-0.42187c0,-0.46875 -0.13542,-0.83333 -0.40625,-1.09375c-0.27083,-0.27083 -0.70833,-0.40625 -1.3125,-0.40625c-0.42708,0 -0.78125,0.08854 -1.0625,0.26563c-0.27083,0.17708 -0.45833,0.40104 -0.5625,0.67188c-0.0625,0.14583 -0.16667,0.21875 -0.3125,0.21875h-0.65625c-0.10417,0 -0.18229,-0.03125 -0.23437,-0.09375c-0.05208,-0.0625 -0.07812,-0.13542 -0.07812,-0.21875c0,-0.14583 0.05208,-0.32812 0.15625,-0.54687c0.11458,-0.21875 0.28646,-0.42708 0.51563,-0.625c0.23958,-0.20833 0.54167,-0.38021 0.90625,-0.51562c0.36458,-0.14583 0.8125,-0.21875 1.34375,-0.21875c0.58333,0 1.07292,0.07813 1.46875,0.23438c0.40625,0.14583 0.72396,0.34896 0.95313,0.60938c0.22917,0.25 0.39583,0.53646 0.5,0.85938c0.10417,0.32292 0.15625,0.65104 0.15625,0.98438v4.73438c0,0.10417 -0.03125,0.1875 -0.09375,0.25c-0.0625,0.0625 -0.14062,0.09375 -0.23437,0.09375h-0.6875c-0.10417,0 -0.1875,-0.03125 -0.25,-0.09375c-0.05208,-0.0625 -0.07812,-0.14583 -0.07812,-0.25v-0.625c-0.125,0.17708 -0.29687,0.35417 -0.51562,0.53125c-0.21875,0.16667 -0.48958,0.30729 -0.8125,0.42188c-0.32292,0.10417 -0.71875,0.15625 -1.1875,0.15625zM275.3217,183.57222c0.40625,0 0.77083,-0.08333 1.09375,-0.25c0.33333,-0.17708 0.59375,-0.44271 0.78125,-0.79687c0.19792,-0.36458 0.29688,-0.82292 0.29688,-1.375v-0.40625l-1.70312,0.25c-0.6875,0.09375 -1.20833,0.25521 -1.5625,0.48438c-0.35417,0.22917 -0.53125,0.52083 -0.53125,0.875c0,0.27083 0.07813,0.5 0.23438,0.6875c0.16667,0.17708 0.375,0.3125 0.625,0.40625c0.25,0.08333 0.50521,0.125 0.76563,0.125zM283.88554,184.52534c-0.55208,0 -1,-0.10417 -1.34375,-0.3125c-0.33333,-0.20833 -0.57812,-0.50521 -0.73437,-0.89062c-0.15625,-0.38542 -0.23437,-0.84375 -0.23437,-1.375v-3.875h-1.15625c-0.09375,0 -0.17187,-0.03125 -0.23437,-0.09375c-0.0625,-0.0625 -0.09375,-0.14062 -0.09375,-0.23437v-0.5c0,-0.10417 0.03125,-0.1875 0.09375,-0.25c0.0625,-0.0625 0.14063,-0.09375 0.23438,-0.09375h1.15625v-2.4375c0,-0.10417 0.03125,-0.1875 0.09375,-0.25c0.0625,-0.0625 0.14063,-0.09375 0.23438,-0.09375h0.6875c0.10417,0 0.1875,0.03125 0.25,0.09375c0.0625,0.0625 0.09375,0.14583 0.09375,0.25v2.4375h1.8125c0.10417,0 0.1875,0.03125 0.25,0.09375c0.0625,0.0625 0.09375,0.14583 0.09375,0.25v0.5c0,0.09375 -0.03125,0.17188 -0.09375,0.23438c-0.0625,0.0625 -0.14583,0.09375 -0.25,0.09375h-1.8125v3.76563c0,0.45833 0.07813,0.82292 0.23438,1.09375c0.15625,0.26042 0.43229,0.39063 0.82813,0.39063h0.90625c0.09375,0 0.17188,0.03125 0.23438,0.09375c0.0625,0.0625 0.09375,0.14583 0.09375,0.25v0.51563c0,0.10417 -0.03125,0.1875 -0.09375,0.25c-0.0625,0.0625 -0.14062,0.09375 -0.23437,0.09375zM286.97551,184.52534c-0.09375,0 -0.17708,-0.03125 -0.25,-0.09375c-0.0625,-0.0625 -0.09375,-0.14583 -0.09375,-0.25v-6.9375c0,-0.10417 0.03125,-0.1875 0.09375,-0.25c0.07292,-0.0625 0.15625,-0.09375 0.25,-0.09375h0.70313c0.09375,0 0.17188,0.03125 0.23438,0.09375c0.07292,0.0625 0.10938,0.14583 0.10938,0.25v6.9375c0,0.10417 -0.03646,0.1875 -0.10937,0.25c-0.0625,0.0625 -0.14062,0.09375 -0.23437,0.09375zM286.85051,175.47847c-0.09375,0 -0.17187,-0.03125 -0.23437,-0.09375c-0.0625,-0.0625 -0.09375,-0.14062 -0.09375,-0.23437v-0.79687c0,-0.09375 0.03125,-0.17187 0.09375,-0.23437c0.0625,-0.07292 0.14063,-0.10937 0.23438,-0.10937h0.9375c0.09375,0 0.17188,0.03646 0.23438,0.10938c0.07292,0.0625 0.10938,0.14063 0.10938,0.23438v0.79688c0,0.09375 -0.03646,0.17188 -0.10937,0.23438c-0.0625,0.0625 -0.14062,0.09375 -0.23437,0.09375zM290.52232,184.52534c-0.09375,0 -0.17708,-0.03125 -0.25,-0.09375c-0.0625,-0.0625 -0.09375,-0.14583 -0.09375,-0.25v-6.9375c0,-0.10417 0.03125,-0.1875 0.09375,-0.25c0.07292,-0.0625 0.15625,-0.09375 0.25,-0.09375h0.6875c0.09375,0 0.17188,0.03125 0.23438,0.09375c0.07292,0.0625 0.10938,0.14583 0.10938,0.25v0.64063c0.25,-0.33333 0.56771,-0.60417 0.95313,-0.8125c0.38542,-0.20833 0.88021,-0.3125 1.48438,-0.3125c0.63542,0 1.17708,0.14063 1.625,0.42188c0.44792,0.27083 0.78646,0.65625 1.01563,1.15625c0.22917,0.48958 0.34375,1.0625 0.34375,1.71875v4.125c0,0.10417 -0.03125,0.1875 -0.09375,0.25c-0.0625,0.0625 -0.14583,0.09375 -0.25,0.09375h-0.73437c-0.09375,0 -0.17187,-0.03125 -0.23437,-0.09375c-0.0625,-0.0625 -0.09375,-0.14583 -0.09375,-0.25v-4.04687c0,-0.6875 -0.16667,-1.22396 -0.5,-1.60937c-0.33333,-0.38542 -0.82292,-0.57812 -1.46875,-0.57812c-0.60417,0 -1.09375,0.19271 -1.46875,0.57813c-0.36458,0.38542 -0.54687,0.92188 -0.54687,1.60938v4.04688c0,0.10417 -0.03125,0.1875 -0.09375,0.25c-0.0625,0.0625 -0.14062,0.09375 -0.23437,0.09375zM302.18529,187.74409c-0.66667,0 -1.21354,-0.08854 -1.64062,-0.26562c-0.41667,-0.16667 -0.74479,-0.375 -0.98437,-0.625c-0.23958,-0.25 -0.41146,-0.5 -0.51562,-0.75c-0.10417,-0.25 -0.16146,-0.44792 -0.17187,-0.59375c-0.01042,-0.10417 0.02083,-0.19271 0.09375,-0.26562c0.07292,-0.0625 0.15625,-0.09375 0.25,-0.09375h0.70313c0.08333,0 0.15625,0.02083 0.21875,0.0625c0.0625,0.04167 0.10938,0.125 0.14063,0.25c0.0625,0.14583 0.15104,0.30729 0.26563,0.48438c0.11458,0.1875 0.29167,0.34375 0.53125,0.46875c0.25,0.13542 0.59896,0.20313 1.04688,0.20313c0.45833,0 0.84375,-0.0625 1.15625,-0.1875c0.3125,-0.125 0.54688,-0.33854 0.70313,-0.64062c0.16667,-0.30208 0.25,-0.72396 0.25,-1.26562v-1c-0.23958,0.30208 -0.55208,0.55729 -0.9375,0.76563c-0.375,0.19792 -0.84896,0.29688 -1.42187,0.29688c-0.55208,0 -1.02604,-0.09375 -1.42187,-0.28125c-0.38542,-0.19792 -0.70312,-0.45833 -0.95312,-0.78125c-0.25,-0.33333 -0.4375,-0.70833 -0.5625,-1.125c-0.11458,-0.41667 -0.18229,-0.85417 -0.20312,-1.3125c-0.01042,-0.28125 -0.01042,-0.55208 0,-0.8125c0.02083,-0.45833 0.08854,-0.89583 0.20313,-1.3125c0.125,-0.42708 0.3125,-0.80729 0.5625,-1.14062c0.25,-0.33333 0.56771,-0.59375 0.95313,-0.78125c0.39583,-0.1875 0.86979,-0.28125 1.42188,-0.28125c0.58333,0 1.06771,0.10938 1.45313,0.32813c0.38542,0.20833 0.69792,0.47396 0.9375,0.79688v-0.625c0,-0.10417 0.03125,-0.1875 0.09375,-0.25c0.07292,-0.07292 0.15625,-0.10937 0.25,-0.10937h0.67188c0.10417,0 0.1875,0.03646 0.25,0.10938c0.07292,0.0625 0.10938,0.14583 0.10938,0.25v7.10938c0,0.65625 -0.11458,1.23438 -0.34375,1.73438c-0.21875,0.51042 -0.57812,0.91146 -1.07812,1.20313c-0.5,0.29167 -1.17708,0.4375 -2.03125,0.4375zM302.15404,183.41597c0.48958,0 0.88021,-0.10937 1.17188,-0.32812c0.30208,-0.22917 0.52604,-0.51562 0.67188,-0.85937c0.14583,-0.34375 0.22396,-0.69271 0.23438,-1.04687c0.01042,-0.13542 0.01563,-0.30208 0.01563,-0.5c0,-0.19792 -0.00521,-0.36979 -0.01562,-0.51562c-0.01042,-0.34375 -0.08854,-0.6875 -0.23437,-1.03125c-0.14583,-0.34375 -0.36979,-0.625 -0.67187,-0.84375c-0.29167,-0.22917 -0.68229,-0.34375 -1.17187,-0.34375c-0.48958,0 -0.88021,0.10938 -1.17187,0.32813c-0.29167,0.21875 -0.5,0.51042 -0.625,0.875c-0.125,0.35417 -0.19792,0.73438 -0.21875,1.14063c-0.01042,0.25 -0.01042,0.51042 0,0.78125c0.02083,0.40625 0.09375,0.79167 0.21875,1.15625c0.125,0.35417 0.33333,0.64063 0.625,0.85938c0.29167,0.21875 0.68229,0.32813 1.17188,0.32813zM314.6978,184.66597c-0.625,0 -1.16667,-0.07292 -1.625,-0.21875c-0.45833,-0.15625 -0.84375,-0.35937 -1.15625,-0.60937c-0.3125,-0.25 -0.55208,-0.53125 -0.71875,-0.84375c-0.15625,-0.3125 -0.23958,-0.625 -0.25,-0.9375c0,-0.08333 0.03125,-0.15104 0.09375,-0.20312c0.0625,-0.05208 0.13542,-0.07812 0.21875,-0.07812h0.71875c0.08333,0 0.16146,0.02083 0.23438,0.0625c0.08333,0.04167 0.14063,0.125 0.17188,0.25c0.10417,0.35417 0.27604,0.63021 0.51563,0.82813c0.23958,0.19792 0.51563,0.33333 0.82813,0.40625c0.32292,0.07292 0.64583,0.10938 0.96875,0.10938c0.66667,0 1.20833,-0.16146 1.625,-0.48437c0.42708,-0.32292 0.64063,-0.79687 0.64063,-1.42187c0,-0.63542 -0.19271,-1.08854 -0.57812,-1.35937c-0.375,-0.28125 -0.90104,-0.42187 -1.57812,-0.42187h-1.39062c-0.09375,0 -0.17708,-0.02604 -0.25,-0.07812c-0.0625,-0.0625 -0.09375,-0.14583 -0.09375,-0.25v-0.40625c0,-0.08333 0.01563,-0.15625 0.04688,-0.21875c0.04167,-0.0625 0.08333,-0.11979 0.125,-0.17187l2.84375,-3.10937h-4.32812c-0.09375,0 -0.17708,-0.02604 -0.25,-0.07812c-0.0625,-0.0625 -0.09375,-0.14583 -0.09375,-0.25v-0.5625c0,-0.10417 0.03125,-0.1875 0.09375,-0.25c0.07292,-0.07292 0.15625,-0.10937 0.25,-0.10937h5.84375c0.11458,0 0.20313,0.03646 0.26563,0.10938c0.0625,0.0625 0.09375,0.14583 0.09375,0.25v0.53125c0,0.0625 -0.02083,0.125 -0.0625,0.1875c-0.03125,0.05208 -0.06771,0.09896 -0.10937,0.14063l-2.82812,3.15625l0.23438,0.01563c0.64583,0.02083 1.20833,0.14063 1.6875,0.35938c0.48958,0.20833 0.86979,0.52604 1.14063,0.95313c0.27083,0.42708 0.40625,0.96354 0.40625,1.60938c0,0.64583 -0.16146,1.20313 -0.48437,1.67188c-0.32292,0.45833 -0.76562,0.8125 -1.32812,1.0625c-0.5625,0.23958 -1.20312,0.35938 -1.92187,0.35938z" fill="#ffffff" stroke="#ffffff" stroke-width="0.5" stroke-linecap="square" stroke-linejoin="miter"/></g></g></svg>