<svg version="1.1" xmlns="http://www.w3.org/2000/svg" xmlns:xlink="http://www.w3.org/1999/xlink" width="113.13184" height="113.13184" viewBox="0,0,113.13184,113.13184"><g transform="translate(-183.43408,-123.43408)"><g data-paper-data="{&quot;isPaintingLayer&quot;:true}" fill-rule="nonzero" stroke-linejoin="miter" stroke-miterlimit="10" stroke-dasharray="" stroke-dashoffset="0" style="mix-blend-mode: normal"><path d="M183.43408,236.56592v-113.13184h113.13184v113.13184z" fill="none" stroke="none" stroke-width="0" stroke-linecap="butt"/><path d="M251.56231,225.72416c-0.8751,0 -1.60435,-0.29171 -2.18776,-0.8751c-0.58341,-0.58341 -0.8751,-1.27619 -0.8751,-2.07837v-73.1805l-21.6588,16.73635c-0.72924,0.51048 -1.49496,0.72924 -2.29716,0.65632c-0.72924,-0.07292 -1.34911,-0.47401 -1.85959,-1.20327l-3.39103,-4.26613c-0.58341,-0.80218 -0.80218,-1.60435 -0.65632,-2.40653c0.14585,-0.80218 0.58341,-1.45851 1.31266,-1.96899l28.44085,-21.87758c0.58341,-0.43756 1.13035,-0.6928 1.64081,-0.76572c0.58341,-0.14585 1.1668,-0.21877 1.75021,-0.21877h6.67266c0.8751,0 1.56789,0.29171 2.07837,0.8751c0.58341,0.58341 0.8751,1.31266 0.8751,2.18776v85.43194c0,0.80218 -0.29171,1.49496 -0.8751,2.07837c-0.51048,0.58341 -1.20327,0.8751 -2.07837,0.8751z" fill="#ffffff" stroke="#ffffff" stroke-width="5" stroke-linecap="square"/></g></g></svg>