<svg version="1.1" xmlns="http://www.w3.org/2000/svg" xmlns:xlink="http://www.w3.org/1999/xlink" width="134" height="134" viewBox="0,0,134,134"><g transform="translate(-173,-113)"><g data-paper-data="{&quot;isPaintingLayer&quot;:true}" fill-rule="nonzero" stroke-linecap="butt" stroke-linejoin="miter" stroke-miterlimit="10" stroke-dasharray="" stroke-dashoffset="0" style="mix-blend-mode: normal"><path d="M218.72344,169.15215c5.69598,-0.66889 29.59197,-3.46713 39.43166,-4.62258c7.58093,-0.89024 13.53245,3.27781 15.03428,10.99589c1.18747,7.99054 -2.88768,14.08215 -9.05937,14.80689c-10.7512,1.26251 -37.98844,4.45312 -44.27309,5.1911c-5.10839,0.59987 -12.4057,-2.87556 -13.21138,-12.19164c-0.63649,-7.35975 6.32376,-13.50396 12.0779,-14.17966z" data-paper-data="{&quot;index&quot;:null}" fill="#5cb1d6" stroke="#ffffff" stroke-width="5"/><path d="M218.72344,169.15215c5.69598,-0.66889 29.59197,-3.46713 39.43166,-4.62258c7.58093,-0.89024 13.53245,3.27781 15.03428,10.99589c1.18747,7.99054 -2.88768,14.08215 -9.05937,14.80689c-10.7512,1.26251 -37.98844,4.45312 -44.27309,5.1911c-5.10839,0.59987 -12.4057,-2.87556 -13.21138,-12.19164c-0.63649,-7.35975 6.32376,-13.50396 12.0779,-14.17966z" data-paper-data="{&quot;index&quot;:null}" fill="#5cb1d6" stroke="none" stroke-width="0"/><path d="M228.68198,180.95709c0.30956,2.42073 -0.50988,4.52 -1.83029,4.68885c-1.32041,0.16885 -2.64174,-1.65666 -2.95129,-4.0774c-0.30956,-2.42073 0.50988,-4.52 1.83029,-4.68885c1.32041,-0.16885 2.64174,1.65666 2.95129,4.0774z" data-paper-data="{&quot;index&quot;:null}" fill="#ffffff" stroke="none" stroke-width="0"/><path d="M254.91379,176.77828c0.30956,2.42073 -0.50988,4.52 -1.83029,4.68885c-1.32041,0.16885 -2.64174,-1.65666 -2.95129,-4.0774c-0.30956,-2.42073 0.50988,-4.52 1.83029,-4.68885c1.32041,-0.16885 2.64174,1.65666 2.95129,4.0774z" data-paper-data="{&quot;index&quot;:null}" fill="#ffffff" stroke="none" stroke-width="0"/><path d="M246.06812,178.98068c0,0 -2.37979,4.38721 -5.85894,4.47514c-5.83784,0.14754 -7.08041,-3.46925 -7.08041,-3.46925c0,0 2.55553,0.38871 6.02049,-0.03009c3.46495,-0.41881 6.91889,-0.9758 6.91889,-0.9758z" data-paper-data="{&quot;index&quot;:null}" fill="#ffffff" stroke="none" stroke-width="0"/><path d="M173,247v-134h134v134z" fill="none" stroke="none" stroke-width="0"/></g></g></svg>