<svg version="1.1" xmlns="http://www.w3.org/2000/svg" xmlns:xlink="http://www.w3.org/1999/xlink" width="69.97752" height="25.95512" viewBox="0,0,69.97752,25.95512"><g transform="translate(-205.01124,-167.02244)"><g data-paper-data="{&quot;isPaintingLayer&quot;:true}" fill-rule="nonzero" stroke-miterlimit="10" stroke-dasharray="" stroke-dashoffset="0" style="mix-blend-mode: normal"><path d="M217.9888,167.02244h44.0224c7.18957,0 12.97756,5.78799 12.97756,12.97756c0,7.18957 -5.788,12.97756 -12.97756,12.97756h-44.0224c-7.18957,0 -12.97756,-5.78799 -12.97756,-12.97756c0,-7.18957 5.78799,-12.97756 12.97756,-12.97756z" fill="#000000" stroke="none" stroke-width="0.365" stroke-linecap="round" stroke-linejoin="round"/><path d="M223.31783,184.60399c-0.07264,0 -0.1344,-0.02543 -0.18525,-0.07628c-0.05085,-0.05085 -0.07628,-0.11261 -0.07628,-0.18525c0,-0.04359 0.00364,-0.09081 0.0109,-0.14166l3.22552,-8.4234c0.03633,-0.07992 0.08354,-0.1453 0.14166,-0.19615c0.06538,-0.05812 0.15619,-0.08718 0.27242,-0.08718h0.89355c0.11623,0 0.20341,0.02905 0.26153,0.08718c0.06538,0.05085 0.11623,0.11623 0.15256,0.19615l3.21462,8.4234c0.01453,0.05085 0.02179,0.09807 0.02179,0.14166c0,0.07264 -0.02543,0.1344 -0.07628,0.18525c-0.05085,0.05085 -0.11261,0.07628 -0.18525,0.07628h-0.66472c-0.10171,0 -0.17799,-0.02543 -0.22884,-0.07628c-0.04359,-0.05085 -0.07628,-0.09807 -0.09807,-0.14166l-0.7083,-1.8525h-4.27164l-0.7083,1.8525c-0.01453,0.04359 -0.04722,0.09081 -0.09807,0.14166c-0.05085,0.05085 -0.12713,0.07628 -0.22884,0.07628zM225.39916,181.41116h3.50884l-1.75442,-4.60944zM234.90811,184.73476c-0.55211,0 -1.02432,-0.1235 -1.41661,-0.3705c-0.38503,-0.247 -0.67925,-0.59207 -0.88265,-1.03521c-0.19615,-0.44314 -0.29422,-0.95167 -0.29422,-1.52559v-3.6614c0,-0.08718 0.02905,-0.15982 0.08718,-0.21794c0.05812,-0.05812 0.13076,-0.08718 0.21794,-0.08718h0.65382c0.07991,0 0.14892,0.02905 0.20704,0.08718c0.05812,0.05812 0.08718,0.13076 0.08718,0.21794v3.59602c0,1.29311 0.56302,1.93967 1.68904,1.93967c0.53759,0 0.96983,-0.17072 1.29674,-0.51216c0.32691,-0.34144 0.49036,-0.81728 0.49036,-1.42751v-3.59602c0,-0.08718 0.02543,-0.15982 0.07628,-0.21794c0.05812,-0.05812 0.13076,-0.08718 0.21794,-0.08718h0.65383c0.08718,0 0.15619,0.02905 0.20704,0.08718c0.05085,0.05812 0.07628,0.13076 0.07628,0.21794v6.16771c0,0.07991 -0.02543,0.14892 -0.07628,0.20704c-0.05085,0.05812 -0.11987,0.08718 -0.20704,0.08718h-0.61023c-0.08718,0 -0.15982,-0.02905 -0.21794,-0.08718c-0.05812,-0.05812 -0.08717,-0.12713 -0.08717,-0.20704v-0.57754c-0.23247,0.30512 -0.5158,0.54848 -0.84997,0.7301c-0.33417,0.18161 -0.77369,0.27242 -1.31854,0.27242zM242.68627,184.73476c-0.47221,0 -0.88266,-0.08354 -1.23136,-0.25063c-0.3487,-0.17435 -0.63566,-0.40682 -0.86086,-0.69741c-0.21794,-0.29058 -0.3814,-0.62113 -0.49037,-0.99163c-0.10897,-0.3705 -0.17071,-0.76643 -0.18524,-1.18778c-0.00726,-0.13803 -0.0109,-0.26516 -0.0109,-0.3814c0,-0.1235 0.00364,-0.25426 0.0109,-0.39229c0.01453,-0.40682 0.07627,-0.79548 0.18524,-1.16598c0.10897,-0.37776 0.27243,-0.71194 0.49037,-1.00253c0.2252,-0.29785 0.51216,-0.53032 0.86086,-0.69741c0.3487,-0.17435 0.75916,-0.26153 1.23136,-0.26153c0.51579,0 0.94078,0.09081 1.27495,0.27243c0.34144,0.18161 0.62113,0.40682 0.83907,0.67561v-2.98578c0,-0.08718 0.02543,-0.15982 0.07628,-0.21794c0.05812,-0.05812 0.13076,-0.08718 0.21794,-0.08718h0.62113c0.08718,0 0.15982,0.02905 0.21794,0.08718c0.05812,0.05812 0.08718,0.13076 0.08718,0.21794v8.64134c0,0.07991 -0.02905,0.14892 -0.08718,0.20704c-0.05812,0.05812 -0.13076,0.08718 -0.21794,0.08718h-0.57754c-0.09444,0 -0.17072,-0.02905 -0.22884,-0.08718c-0.05085,-0.05812 -0.07628,-0.12713 -0.07628,-0.20704v-0.55575c-0.21794,0.28332 -0.50126,0.51942 -0.84997,0.70831c-0.34144,0.18161 -0.77369,0.27242 -1.29675,0.27242zM242.9587,183.67775c0.43588,0 0.78458,-0.09807 1.04611,-0.29422c0.26153,-0.20341 0.45405,-0.45768 0.57755,-0.7628c0.13076,-0.30512 0.20341,-0.62113 0.21794,-0.94804c0.00726,-0.13803 0.01089,-0.30148 0.01089,-0.49036c0,-0.19615 -0.00363,-0.36686 -0.01089,-0.51216c-0.01453,-0.29785 -0.09081,-0.5957 -0.22884,-0.89356c-0.13076,-0.29785 -0.32691,-0.54122 -0.58844,-0.7301c-0.26153,-0.18888 -0.60297,-0.28332 -1.02432,-0.28332c-0.44314,0 -0.79549,0.09807 -1.05702,0.29422c-0.25427,0.19615 -0.43951,0.45404 -0.55575,0.77369c-0.10897,0.31238 -0.17435,0.65018 -0.19615,1.01342c-0.00726,0.25427 -0.00726,0.5049 0,0.7519c0.02179,0.36324 0.08718,0.70467 0.19615,1.02432c0.11623,0.31238 0.30148,0.56665 0.55575,0.7628c0.26153,0.19615 0.61387,0.29422 1.05702,0.29422zM248.25933,184.60399c-0.08718,0 -0.15982,-0.02905 -0.21794,-0.08718c-0.05812,-0.05812 -0.08718,-0.12713 -0.08718,-0.20704v-6.16771c0,-0.08718 0.02905,-0.15982 0.08718,-0.21794c0.05812,-0.05812 0.13076,-0.08718 0.21794,-0.08718h0.62113c0.08718,0 0.15982,0.02905 0.21794,0.08718c0.05812,0.05812 0.08718,0.13076 0.08718,0.21794v6.16771c0,0.07991 -0.02906,0.14892 -0.08718,0.20704c-0.05812,0.05812 -0.13076,0.08718 -0.21794,0.08718zM248.15036,176.57289c-0.08718,0 -0.15982,-0.02543 -0.21794,-0.07628c-0.05085,-0.05812 -0.07628,-0.13076 -0.07628,-0.21794v-0.70831c0,-0.08718 0.02543,-0.15982 0.07628,-0.21794c0.05812,-0.05812 0.13076,-0.08717 0.21794,-0.08717h0.81728c0.08718,0 0.15982,0.02905 0.21794,0.08717c0.06538,0.05812 0.09807,0.13077 0.09807,0.21794v0.70831c0,0.08718 -0.03269,0.15982 -0.09807,0.21794c-0.05812,0.05085 -0.13076,0.07628 -0.21794,0.07628zM253.88164,184.73476c-0.66109,0 -1.21321,-0.1235 -1.65635,-0.3705c-0.44314,-0.25427 -0.78095,-0.60297 -1.01342,-1.04611c-0.23247,-0.45041 -0.36324,-0.96257 -0.39229,-1.53648c-0.00726,-0.1453 -0.0109,-0.33417 -0.0109,-0.56664c0,-0.23247 0.00363,-0.41772 0.0109,-0.55575c0.02906,-0.58118 0.15982,-1.09333 0.39229,-1.53648c0.23973,-0.44314 0.58118,-0.78821 1.02432,-1.03521c0.44314,-0.25427 0.99163,-0.3814 1.64545,-0.3814c0.64656,0 1.19141,0.12713 1.63456,0.3814c0.44314,0.247 0.78459,0.59207 1.02432,1.03521c0.23974,0.44314 0.3705,0.9553 0.39229,1.53648c0.00727,0.13803 0.0109,0.32328 0.0109,0.55575c0,0.23247 -0.00363,0.42135 -0.0109,0.56664c-0.02179,0.57391 -0.15255,1.08607 -0.39229,1.53648c-0.23247,0.44314 -0.57028,0.79185 -1.01342,1.04611c-0.44314,0.247 -0.99163,0.3705 -1.64545,0.3705zM253.88164,183.73223c0.53759,0 0.96621,-0.17072 1.28585,-0.51216c0.31965,-0.34144 0.494,-0.8427 0.52305,-1.50379c0.00726,-0.13076 0.0109,-0.29422 0.0109,-0.49037c0,-0.20341 -0.00364,-0.3705 -0.0109,-0.50126c-0.02906,-0.66109 -0.20341,-1.16235 -0.52305,-1.50379c-0.31965,-0.34144 -0.74826,-0.51216 -1.28585,-0.51216c-0.53759,0 -0.96983,0.17072 -1.29674,0.51216c-0.32691,0.34144 -0.49763,0.8427 -0.51216,1.50379c-0.00726,0.13076 -0.0109,0.29785 -0.0109,0.50126c0,0.19615 0.00364,0.3596 0.0109,0.49037c0.01453,0.66109 0.18525,1.16235 0.51216,1.50379c0.32691,0.34144 0.75915,0.51216 1.29674,0.51216z" fill="#ffffff" stroke="#ffffff" stroke-width="0.5" stroke-linecap="square" stroke-linejoin="miter"/></g></g></svg>