<svg version="1.1" xmlns="http://www.w3.org/2000/svg" xmlns:xlink="http://www.w3.org/1999/xlink" width="112.64419" height="25.95512" viewBox="0,0,112.64419,25.95512"><g transform="translate(-183.6779,-167.02244)"><g data-paper-data="{&quot;isPaintingLayer&quot;:true}" fill-rule="nonzero" stroke-miterlimit="10" stroke-dasharray="" stroke-dashoffset="0" style="mix-blend-mode: normal"><path d="M196.65547,167.02244h86.68907c7.18957,0 12.97756,5.78799 12.97756,12.97756c0,7.18957 -5.788,12.97756 -12.97756,12.97756h-86.68907c-7.18957,0 -12.97756,-5.78799 -12.97756,-12.97756c0,-7.18957 5.78799,-12.97756 12.97756,-12.97756z" fill="#000000" stroke="none" stroke-width="0.365" stroke-linecap="round" stroke-linejoin="round"/><path d="M197.27952,184.97086c-0.09688,0 -0.1714,-0.02981 -0.22356,-0.08943c-0.05216,-0.05962 -0.07826,-0.13041 -0.07826,-0.21238v-8.71902c0,-0.09688 0.02608,-0.17513 0.07826,-0.23475c0.05216,-0.05962 0.12668,-0.08943 0.22356,-0.08943h3.65529c0.67069,0 1.2147,0.11178 1.63203,0.33535c0.42477,0.21611 0.73776,0.51046 0.93897,0.88309c0.20122,0.37261 0.30181,0.78993 0.30181,1.25197c0,0.36517 -0.05962,0.67814 -0.17886,0.93897c-0.11924,0.26084 -0.26828,0.47695 -0.44712,0.64834c-0.17886,0.16395 -0.35025,0.29063 -0.5142,0.38006c0.34279,0.16395 0.64834,0.43967 0.91662,0.8272c0.27573,0.38006 0.41359,0.84209 0.41359,1.3861c0,0.48439 -0.11178,0.93152 -0.33535,1.34138c-0.22356,0.40987 -0.55519,0.73776 -0.99487,0.98369c-0.43967,0.24592 -0.97996,0.36888 -1.62085,0.36888zM198.28557,183.88656h2.59335c0.56636,0 1.00604,-0.15276 1.31903,-0.45831c0.31299,-0.31299 0.46948,-0.69678 0.46948,-1.15135c0,-0.46948 -0.15649,-0.857 -0.46948,-1.16254c-0.31299,-0.31299 -0.75267,-0.46948 -1.31903,-0.46948h-2.59335zM198.28557,179.58294h2.45922c0.56636,0 0.99487,-0.13041 1.28551,-0.39125c0.29808,-0.26828 0.44712,-0.6297 0.44712,-1.08429c0,-0.45458 -0.14905,-0.8011 -0.44712,-1.03958c-0.29063,-0.23847 -0.71913,-0.3577 -1.28551,-0.3577h-2.45922zM207.64836,185.10498c-0.43967,0 -0.84209,-0.08943 -1.20725,-0.26828c-0.36517,-0.17886 -0.65951,-0.41733 -0.88309,-0.7154c-0.22356,-0.30555 -0.33535,-0.64834 -0.33535,-1.02839c0,-0.61853 0.24965,-1.11037 0.74894,-1.47553c0.49929,-0.36517 1.14763,-0.60363 1.94501,-0.7154l1.98973,-0.27945v-0.39125c0,-0.42477 -0.12296,-0.7564 -0.36888,-0.99487c-0.23847,-0.24592 -0.63342,-0.36888 -1.18489,-0.36888c-0.39497,0 -0.71913,0.08197 -0.97249,0.24592c-0.24592,0.15649 -0.41733,0.36143 -0.5142,0.6148c-0.05216,0.13413 -0.14532,0.20122 -0.27945,0.20122h-0.60363c-0.09688,0 -0.1714,-0.02981 -0.22356,-0.08943c-0.04471,-0.05962 -0.06706,-0.13041 -0.06706,-0.21238c0,-0.13413 0.04844,-0.29808 0.14532,-0.49185c0.10433,-0.19375 0.26456,-0.38377 0.48067,-0.57008c0.21611,-0.1863 0.48811,-0.34279 0.816,-0.46948c0.33535,-0.13413 0.74522,-0.20122 1.22961,-0.20122c0.5291,0 0.97624,0.07079 1.34138,0.21238c0.36517,0.13413 0.65206,0.31671 0.86072,0.54773c0.20866,0.23101 0.36143,0.49557 0.45831,0.79366c0.09688,0.29063 0.14532,0.58872 0.14532,0.89426v4.32597c0,0.08197 -0.02981,0.15276 -0.08943,0.21238c-0.05962,0.05962 -0.13413,0.08943 -0.22356,0.08943h-0.6148c-0.09688,0 -0.1714,-0.02981 -0.22356,-0.08943c-0.05216,-0.05962 -0.07826,-0.13041 -0.07826,-0.21238v-0.58128c-0.11924,0.16395 -0.27573,0.32418 -0.46948,0.48067c-0.19375,0.14905 -0.43967,0.27573 -0.73776,0.38006c-0.29063,0.10433 -0.65206,0.15649 -1.08429,0.15649zM207.93899,184.09895c0.36517,0 0.69678,-0.07452 0.99487,-0.22356c0.30555,-0.15649 0.54401,-0.39869 0.7154,-0.72659c0.1714,-0.33535 0.25709,-0.75267 0.25709,-1.25197v-0.36888l-1.5426,0.22356c-0.63342,0.08943 -1.11037,0.23847 -1.43081,0.44712c-0.32044,0.20866 -0.48067,0.47321 -0.48067,0.79366c0,0.25337 0.07079,0.46203 0.21238,0.62598c0.14905,0.16395 0.33535,0.28691 0.55891,0.36888c0.23101,0.07452 0.46948,0.11178 0.7154,0.11178zM215.8877,185.10498c-0.63342,0 -1.18117,-0.12296 -1.6432,-0.36888c-0.45458,-0.24592 -0.80856,-0.59618 -1.06193,-1.05075c-0.24592,-0.46203 -0.37633,-1.01349 -0.39125,-1.65438c-0.00745,-0.13413 -0.01118,-0.30927 -0.01118,-0.52538c0,-0.22356 0.00373,-0.40241 0.01118,-0.53657c0.0149,-0.64089 0.14532,-1.18862 0.39125,-1.6432c0.25337,-0.46203 0.60736,-0.816 1.06193,-1.06193c0.46203,-0.24592 1.00977,-0.36888 1.6432,-0.36888c0.5142,0 0.95388,0.07079 1.31903,0.21238c0.37261,0.1416 0.67814,0.32418 0.91662,0.54773c0.24592,0.22356 0.42849,0.46576 0.54773,0.72659c0.11924,0.25337 0.18258,0.49557 0.19003,0.72659c0.0149,0.08943 -0.01118,0.16395 -0.07826,0.22356c-0.05962,0.05216 -0.13413,0.07826 -0.22356,0.07826h-0.63716c-0.08943,0 -0.15649,-0.01864 -0.20122,-0.0559c-0.04471,-0.04471 -0.08943,-0.11552 -0.13413,-0.21238c-0.16395,-0.43967 -0.38377,-0.74522 -0.65951,-0.91662c-0.27573,-0.17886 -0.61853,-0.26828 -1.02839,-0.26828c-0.5291,0 -0.96132,0.16395 -1.29668,0.49185c-0.33535,0.3279 -0.5142,0.857 -0.53657,1.58732c-0.0149,0.32044 -0.0149,0.6297 0,0.92779c0.02236,0.73776 0.20122,1.2706 0.53657,1.59848c0.33535,0.3279 0.76758,0.49185 1.29668,0.49185c0.40987,0 0.75267,-0.08943 1.02839,-0.26828c0.27573,-0.17886 0.49557,-0.48811 0.65951,-0.92779c0.04471,-0.09688 0.08943,-0.16767 0.13413,-0.21238c0.04471,-0.04471 0.11178,-0.06706 0.20122,-0.06706h0.63716c0.08943,0 0.16395,0.02981 0.22356,0.08943c0.06706,0.05962 0.09315,0.13413 0.07826,0.22356c-0.00745,0.1863 -0.04844,0.37633 -0.12296,0.57008c-0.06706,0.19375 -0.17886,0.39125 -0.33535,0.59244c-0.15649,0.20122 -0.35025,0.38006 -0.58128,0.53657c-0.23101,0.15649 -0.50674,0.28318 -0.8272,0.38006c-0.32044,0.08943 -0.68932,0.13413 -1.10665,0.13413zM220.77358,184.97086c-0.08943,0 -0.16395,-0.02981 -0.22356,-0.08943c-0.05216,-0.05962 -0.07826,-0.13041 -0.07826,-0.21238v-8.86433c0,-0.08943 0.02608,-0.16395 0.07826,-0.22356c0.05962,-0.05962 0.13413,-0.08943 0.22356,-0.08943h0.62598c0.08943,0 0.16395,0.02981 0.22356,0.08943c0.05962,0.05962 0.08943,0.13413 0.08943,0.22356v4.63898l2.62689,-2.19094c0.10433,-0.08943 0.1863,-0.14905 0.24592,-0.17886c0.05962,-0.02981 0.15649,-0.04471 0.29063,-0.04471h0.70423c0.08197,0 0.14905,0.02608 0.20122,0.07826c0.05216,0.05216 0.07826,0.11924 0.07826,0.20122c0,0.03726 -0.01118,0.07826 -0.03354,0.12296c-0.02236,0.04471 -0.06335,0.08943 -0.12296,0.13413l-3.0852,2.55981l3.40936,3.31994c0.11178,0.08943 0.16767,0.1714 0.16767,0.24592c0,0.08197 -0.02981,0.14905 -0.08943,0.20122c-0.05216,0.05216 -0.11552,0.07826 -0.19003,0.07826h-0.69306c-0.13413,0 -0.23475,-0.0149 -0.30181,-0.04471c-0.05962,-0.02981 -0.13786,-0.08943 -0.23475,-0.17886l-2.9734,-2.85044v2.7722c0,0.08197 -0.02981,0.15276 -0.08943,0.21238c-0.05962,0.05962 -0.13413,0.08943 -0.22356,0.08943zM232.90865,184.97086c-0.49929,0 -0.90543,-0.09315 -1.21842,-0.27945c-0.31299,-0.19375 -0.54029,-0.46576 -0.68188,-0.816c-0.1416,-0.3577 -0.21238,-0.77502 -0.21238,-1.25197v-3.52113h-1.03958c-0.08943,0 -0.16395,-0.02981 -0.22356,-0.08943c-0.05962,-0.05962 -0.08943,-0.13413 -0.08943,-0.22356v-0.44712c0,-0.08943 0.02981,-0.16395 0.08943,-0.22356c0.05962,-0.05962 0.13413,-0.08943 0.22356,-0.08943h1.03958v-2.22446c0,-0.08943 0.02981,-0.16395 0.08943,-0.22356c0.05962,-0.05962 0.13413,-0.08943 0.22356,-0.08943h0.62598c0.08943,0 0.16022,0.02981 0.21238,0.08943c0.05962,0.05962 0.08943,0.13413 0.08943,0.22356v2.22446h1.65438c0.09688,0 0.1714,0.02981 0.22356,0.08943c0.05962,0.05962 0.08943,0.13413 0.08943,0.22356v0.44712c0,0.08943 -0.02981,0.16395 -0.08943,0.22356c-0.05216,0.05962 -0.12668,0.08943 -0.22356,0.08943h-1.65438v3.42054c0,0.42477 0.07079,0.7564 0.21238,0.99487c0.1416,0.23847 0.39497,0.3577 0.76012,0.3577h0.816c0.08943,0 0.16395,0.02981 0.22356,0.08943c0.05962,0.05962 0.08943,0.13413 0.08943,0.22356v0.48067c0,0.08197 -0.02981,0.15276 -0.08943,0.21238c-0.05962,0.05962 -0.13413,0.08943 -0.22356,0.08943zM238.26142,185.10498c-0.67814,0 -1.24451,-0.12668 -1.69909,-0.38006c-0.45458,-0.26084 -0.8011,-0.61853 -1.03958,-1.07311c-0.23847,-0.46203 -0.37261,-0.9874 -0.40241,-1.57613c-0.00745,-0.14905 -0.01118,-0.34279 -0.01118,-0.58128c0,-0.23847 0.00373,-0.42849 0.01118,-0.57008c0.02981,-0.59618 0.16395,-1.12155 0.40241,-1.57613c0.24592,-0.45458 0.59618,-0.80856 1.05075,-1.06193c0.45458,-0.26084 1.01722,-0.39125 1.68792,-0.39125c0.66325,0 1.22215,0.13041 1.67673,0.39125c0.45458,0.25337 0.80484,0.60736 1.05075,1.06193c0.24592,0.45458 0.38006,0.97996 0.40241,1.57613c0.00745,0.1416 0.01118,0.33163 0.01118,0.57008c0,0.23847 -0.00373,0.43223 -0.01118,0.58128c-0.02236,0.58872 -0.15649,1.1141 -0.40241,1.57613c-0.23847,0.45458 -0.58499,0.81229 -1.03958,1.07311c-0.45458,0.25337 -1.01722,0.38006 -1.68792,0.38006zM238.26142,184.07659c0.55146,0 0.99113,-0.17513 1.31903,-0.52538c0.3279,-0.35025 0.50674,-0.86445 0.53657,-1.5426c0.00745,-0.13413 0.01118,-0.30181 0.01118,-0.50302c0,-0.20866 -0.00373,-0.38006 -0.01118,-0.5142c-0.02981,-0.67814 -0.20866,-1.19235 -0.53657,-1.5426c-0.3279,-0.35025 -0.76758,-0.52538 -1.31903,-0.52538c-0.55146,0 -0.99487,0.17513 -1.33021,0.52538c-0.33535,0.35025 -0.51046,0.86445 -0.52538,1.5426c-0.00745,0.13413 -0.01118,0.30555 -0.01118,0.5142c0,0.20122 0.00373,0.36888 0.01118,0.50302c0.0149,0.67814 0.19003,1.19235 0.52538,1.5426c0.33535,0.35025 0.77875,0.52538 1.33021,0.52538zM246.82267,184.97086c-0.09688,0 -0.1714,-0.02981 -0.22356,-0.08943c-0.05216,-0.05962 -0.07826,-0.13041 -0.07826,-0.21238v-8.7302c0,-0.08943 0.02608,-0.16395 0.07826,-0.22356c0.05216,-0.05962 0.12668,-0.08943 0.22356,-0.08943h0.7154c0.08943,0 0.16022,0.02981 0.21238,0.08943c0.05962,0.05962 0.08943,0.13413 0.08943,0.22356v7.86947h4.42659c0.10433,0 0.18258,0.02981 0.23475,0.08943c0.05962,0.05962 0.08943,0.13786 0.08943,0.23475v0.53657c0,0.08197 -0.02981,0.15276 -0.08943,0.21238c-0.05216,0.05962 -0.13041,0.08943 -0.23475,0.08943zM256.5598,185.10498c-0.67814,0 -1.24451,-0.12668 -1.69909,-0.38006c-0.45458,-0.26084 -0.8011,-0.61853 -1.03958,-1.07311c-0.23847,-0.46203 -0.37261,-0.9874 -0.40241,-1.57613c-0.00745,-0.14905 -0.01118,-0.34279 -0.01118,-0.58128c0,-0.23847 0.00373,-0.42849 0.01118,-0.57008c0.02981,-0.59618 0.16395,-1.12155 0.40241,-1.57613c0.24592,-0.45458 0.59618,-0.80856 1.05075,-1.06193c0.45458,-0.26084 1.01722,-0.39125 1.68792,-0.39125c0.66325,0 1.22215,0.13041 1.67673,0.39125c0.45458,0.25337 0.80484,0.60736 1.05075,1.06193c0.24592,0.45458 0.38006,0.97996 0.40241,1.57613c0.00745,0.1416 0.01118,0.33163 0.01118,0.57008c0,0.23847 -0.00373,0.43223 -0.01118,0.58128c-0.02236,0.58872 -0.15649,1.1141 -0.40241,1.57613c-0.23847,0.45458 -0.58499,0.81229 -1.03958,1.07311c-0.45458,0.25337 -1.01722,0.38006 -1.68792,0.38006zM256.5598,184.07659c0.55146,0 0.99113,-0.17513 1.31903,-0.52538c0.3279,-0.35025 0.50674,-0.86445 0.53657,-1.5426c0.00745,-0.13413 0.01118,-0.30181 0.01118,-0.50302c0,-0.20866 -0.00373,-0.38006 -0.01118,-0.5142c-0.02981,-0.67814 -0.20866,-1.19235 -0.53657,-1.5426c-0.3279,-0.35025 -0.76758,-0.52538 -1.31903,-0.52538c-0.55146,0 -0.99487,0.17513 -1.33021,0.52538c-0.33535,0.35025 -0.51046,0.86445 -0.52538,1.5426c-0.00745,0.13413 -0.01118,0.30555 -0.01118,0.5142c0,0.20122 0.00373,0.36888 0.01118,0.50302c0.0149,0.67814 0.19003,1.19235 0.52538,1.5426c0.33535,0.35025 0.77875,0.52538 1.33021,0.52538zM264.80214,185.10498c-0.5291,0 -0.97249,-0.09315 -1.33021,-0.27945c-0.3577,-0.19375 -0.64461,-0.43595 -0.86072,-0.72659v0.57008c0,0.08197 -0.02981,0.15276 -0.08943,0.21238c-0.05216,0.05962 -0.12296,0.08943 -0.21238,0.08943h-0.6148c-0.08943,0 -0.16395,-0.02981 -0.22356,-0.08943c-0.05216,-0.05962 -0.07826,-0.13041 -0.07826,-0.21238v-8.86433c0,-0.08943 0.02608,-0.16395 0.07826,-0.22356c0.05962,-0.05962 0.13413,-0.08943 0.22356,-0.08943h0.65951c0.08197,0 0.14905,0.02981 0.20122,0.08943c0.05962,0.05962 0.08943,0.13413 0.08943,0.22356v3.06284c0.22356,-0.27573 0.51046,-0.50674 0.86072,-0.69306c0.35025,-0.1863 0.78247,-0.27945 1.29668,-0.27945c0.49929,0 0.92407,0.08943 1.27431,0.26828c0.35025,0.1714 0.63716,0.40987 0.86072,0.7154c0.23101,0.29808 0.40241,0.64089 0.5142,1.02839c0.11924,0.38006 0.19003,0.77875 0.21238,1.19607c0.00745,0.1416 0.01118,0.27573 0.01118,0.40241c0,0.11924 -0.00373,0.24965 -0.01118,0.39125c-0.02236,0.43223 -0.09315,0.83837 -0.21238,1.21842c-0.11178,0.38006 -0.28318,0.71913 -0.5142,1.01722c-0.22356,0.29808 -0.51046,0.53657 -0.86072,0.7154c-0.35025,0.1714 -0.77502,0.25709 -1.27431,0.25709zM264.52269,184.0207c0.46203,0 0.82346,-0.1006 1.08429,-0.30181c0.26828,-0.20122 0.45831,-0.46203 0.57008,-0.78247c0.11924,-0.3279 0.1863,-0.67814 0.20122,-1.05075c0.00745,-0.25337 0.00745,-0.51046 0,-0.7713c-0.0149,-0.37261 -0.08197,-0.71913 -0.20122,-1.03958c-0.11178,-0.3279 -0.30181,-0.59244 -0.57008,-0.79366c-0.26084,-0.20122 -0.62226,-0.30181 -1.08429,-0.30181c-0.41733,0 -0.76385,0.09688 -1.03958,0.29063c-0.27573,0.19375 -0.48439,0.4434 -0.62598,0.74894c-0.13413,0.30555 -0.20494,0.61108 -0.21238,0.91662c-0.00745,0.14905 -0.01118,0.32418 -0.01118,0.52538c0,0.19375 0.00373,0.36143 0.01118,0.50302c0.0149,0.33535 0.0857,0.65951 0.21238,0.97249c0.13413,0.31299 0.33535,0.5738 0.60363,0.78247c0.27573,0.20122 0.6297,0.30181 1.06193,0.30181zM272.7435,185.10498c-0.5291,0 -0.97249,-0.09315 -1.33021,-0.27945c-0.3577,-0.19375 -0.64461,-0.43595 -0.86072,-0.72659v0.57008c0,0.08197 -0.02981,0.15276 -0.08943,0.21238c-0.05216,0.05962 -0.12296,0.08943 -0.21238,0.08943h-0.6148c-0.08943,0 -0.16395,-0.02981 -0.22356,-0.08943c-0.05216,-0.05962 -0.07826,-0.13041 -0.07826,-0.21238v-8.86433c0,-0.08943 0.02608,-0.16395 0.07826,-0.22356c0.05962,-0.05962 0.13413,-0.08943 0.22356,-0.08943h0.65951c0.08197,0 0.14905,0.02981 0.20122,0.08943c0.05962,0.05962 0.08943,0.13413 0.08943,0.22356v3.06284c0.22356,-0.27573 0.51046,-0.50674 0.86072,-0.69306c0.35025,-0.1863 0.78247,-0.27945 1.29668,-0.27945c0.49929,0 0.92407,0.08943 1.27431,0.26828c0.35025,0.1714 0.63716,0.40987 0.86072,0.7154c0.23101,0.29808 0.40241,0.64089 0.5142,1.02839c0.11924,0.38006 0.19003,0.77875 0.21238,1.19607c0.00745,0.1416 0.01118,0.27573 0.01118,0.40241c0,0.11924 -0.00373,0.24965 -0.01118,0.39125c-0.02236,0.43223 -0.09315,0.83837 -0.21238,1.21842c-0.11178,0.38006 -0.28318,0.71913 -0.5142,1.01722c-0.22356,0.29808 -0.51046,0.53657 -0.86072,0.7154c-0.35025,0.1714 -0.77502,0.25709 -1.27431,0.25709zM272.46403,184.0207c0.46203,0 0.82346,-0.1006 1.08429,-0.30181c0.26828,-0.20122 0.45831,-0.46203 0.57008,-0.78247c0.11924,-0.3279 0.1863,-0.67814 0.20122,-1.05075c0.00745,-0.25337 0.00745,-0.51046 0,-0.7713c-0.0149,-0.37261 -0.08197,-0.71913 -0.20122,-1.03958c-0.11178,-0.3279 -0.30181,-0.59244 -0.57008,-0.79366c-0.26084,-0.20122 -0.62226,-0.30181 -1.08429,-0.30181c-0.41733,0 -0.76385,0.09688 -1.03958,0.29063c-0.27573,0.19375 -0.48439,0.4434 -0.62598,0.74894c-0.13413,0.30555 -0.20494,0.61108 -0.21238,0.91662c-0.00745,0.14905 -0.01118,0.32418 -0.01118,0.52538c0,0.19375 0.00373,0.36143 0.01118,0.50302c0.0149,0.33535 0.0857,0.65951 0.21238,0.97249c0.13413,0.31299 0.33535,0.5738 0.60363,0.78247c0.27573,0.20122 0.6297,0.30181 1.06193,0.30181zM278.20447,187.5083c-0.07452,0 -0.13786,-0.02608 -0.19003,-0.07826c-0.05216,-0.05216 -0.07826,-0.11552 -0.07826,-0.19003c0,-0.03726 0.00373,-0.07452 0.01118,-0.11178c0.0149,-0.02981 0.03354,-0.07452 0.0559,-0.13413l1.02839,-2.43686l-2.54864,-6.02506c-0.04471,-0.10433 -0.06706,-0.17886 -0.06706,-0.22356c0,-0.08197 0.02608,-0.14905 0.07826,-0.20122c0.05216,-0.05216 0.11924,-0.07826 0.20122,-0.07826h0.65951c0.09688,0 0.16767,0.02236 0.21238,0.06706c0.04471,0.04471 0.07826,0.09688 0.1006,0.15649l2.03444,4.86254l2.07914,-4.86254c0.02981,-0.05962 0.06706,-0.11178 0.11178,-0.15649c0.05216,-0.04471 0.12668,-0.06706 0.22356,-0.06706h0.62598c0.08197,0 0.14905,0.02608 0.20122,0.07826c0.05216,0.05216 0.07826,0.11552 0.07826,0.19003c0,0.04471 -0.02236,0.12296 -0.06706,0.23475l-3.78942,8.75256c-0.02981,0.05962 -0.07079,0.11178 -0.12296,0.15649c-0.04471,0.04471 -0.11552,0.06706 -0.21238,0.06706z" fill="#ffffff" stroke="#ffffff" stroke-width="0.5" stroke-linecap="square" stroke-linejoin="miter"/></g></g></svg>