<svg version="1.1" xmlns="http://www.w3.org/2000/svg" xmlns:xlink="http://www.w3.org/1999/xlink" width="113.13184" height="113.13184" viewBox="0,0,113.13184,113.13184"><g transform="translate(-183.43408,-123.43408)"><g data-paper-data="{&quot;isPaintingLayer&quot;:true}" fill-rule="nonzero" stroke-linejoin="miter" stroke-miterlimit="10" stroke-dasharray="" stroke-dashoffset="0" style="mix-blend-mode: normal"><path d="M183.43408,236.56592v-113.13184h113.13184v113.13184z" fill="none" stroke="none" stroke-width="0" stroke-linecap="butt"/><path d="M219.10436,226.64447c-0.59916,0 -1.10844,-0.2097 -1.52786,-0.62911c-0.41941,-0.41941 -0.62911,-0.92869 -0.62911,-1.52786c0,-0.35949 0.11984,-0.77891 0.3595,-1.25823l36.66847,-87.98638c0.23966,-0.41941 0.53924,-0.83882 0.89874,-1.25824c0.41941,-0.41941 1.04853,-0.62911 1.88735,-0.62911h4.22407c0.53924,0 1.01857,0.2097 1.43798,0.62911c0.41941,0.41941 0.62911,0.89874 0.62911,1.43798c0,0.29958 -0.05991,0.74894 -0.17975,1.34811l-36.75835,87.98638c-0.17975,0.35949 -0.47933,0.74895 -0.89874,1.16836c-0.41941,0.47933 -1.07849,0.71898 -1.97722,0.71898z" fill="#ffffff" stroke="#ffffff" stroke-width="5" stroke-linecap="square"/></g></g></svg>