<svg version="1.1" xmlns="http://www.w3.org/2000/svg" xmlns:xlink="http://www.w3.org/1999/xlink" width="392.26628" height="96.98569" viewBox="0,0,392.26628,96.98569"><g transform="translate(-43.86686,-131.50716)"><g data-paper-data="{&quot;isPaintingLayer&quot;:true}" fill-rule="nonzero" stroke="none" stroke-miterlimit="10" stroke-dasharray="" stroke-dashoffset="0" style="mix-blend-mode: normal"><path d="M92.35971,131.50716h295.28058c26.86503,0 48.49285,21.62781 48.49285,48.49284c0,26.86505 -21.62782,48.49285 -48.49285,48.49285h-295.28058c-26.86504,0 -48.49285,-21.6278 -48.49285,-48.49285c0,-26.86503 21.62781,-48.49284 48.49285,-48.49284z" fill-opacity="0.2008" fill="#000000" stroke-width="0.365" stroke-linecap="round" stroke-linejoin="round"/><path d="M99.24225,162.5044l11.46201,23.70715c0.49835,0.97297 0.74753,1.69676 0.74753,2.17138c0,1.02042 -0.83058,1.94593 -2.49175,2.77651c-0.94923,0.47462 -1.70862,0.71193 -2.27816,0.71193c-0.54581,0 -0.99669,-0.13051 -1.35266,-0.39156c-0.35596,-0.26105 -0.61701,-0.52207 -0.78312,-0.78312c-0.14238,-0.28477 -0.35596,-0.71193 -0.64073,-1.28147l-2.20697,-4.59193h-11.78238l-2.20697,4.59193c-0.28477,0.56954 -0.51022,0.98483 -0.67633,1.24587c-0.14238,0.2373 -0.39156,0.49835 -0.74753,0.78312c-0.35596,0.26105 -0.80685,0.39156 -1.35266,0.39156c-0.54581,0 -1.3052,-0.24918 -2.27816,-0.74753c-1.63743,-0.78312 -2.45615,-1.6849 -2.45615,-2.70532c0,-0.47462 0.2373,-1.19841 0.71193,-2.17138l11.49761,-23.74274c0.3085,-0.66446 0.77125,-1.18655 1.38825,-1.56624c0.64073,-0.40343 1.31706,-0.60513 2.02899,-0.60513c1.54251,0 2.68159,0.73566 3.41725,2.20697zM95.78941,172.68496l-2.81211,5.83779h5.65982zM112.92965,162.25524c0,-0.66446 0.01187,-1.15095 0.0356,-1.45945c0.04746,-0.33224 0.17798,-0.71193 0.39156,-1.13909c0.37969,-0.75939 1.48317,-1.13909 3.31046,-1.13909c1.73235,0 2.81211,0.37969 3.23926,1.13909c0.21357,0.42716 0.3441,0.80685 0.39156,1.13909c0.04746,0.33224 0.07119,0.83058 0.07119,1.49504v19.68476c0,1.02042 0.08306,1.66116 0.24918,1.9222c0.16611,0.26105 0.53394,0.39156 1.10349,0.39156c0.59327,0 0.98483,0.02373 1.17468,0.07119c0.21357,0.04746 0.46275,0.16611 0.74753,0.35596c0.56954,0.37969 0.85431,1.38825 0.85431,3.02569c0,1.77982 -0.28477,2.87143 -0.85431,3.27486c-0.73566,0.52207 -2.49175,0.60513 -5.26825,0.24918c-2.18324,-0.28477 -3.60709,-1.00856 -4.27156,-2.17138c-0.78312,-1.37639 -1.17468,-3.58336 -1.17468,-6.62091zM142.02743,169.30331c0.54581,0.16611 0.99669,0.46275 1.35266,0.88991c0.35596,0.40343 0.53394,1.05602 0.53394,1.95779c0,0.90178 -0.27291,1.89847 -0.81872,2.99009c-0.54581,1.06789 -1.32893,1.60184 -2.34935,1.60184c-0.49835,0 -0.98483,-0.10679 -1.45945,-0.32037c-0.47462,-0.2373 -1.09161,-0.35596 -1.85101,-0.35596c-0.75939,0 -1.47131,0.27291 -2.13578,0.81872c-0.66446,0.52207 -0.99669,1.16281 -0.99669,1.9222v8.93467c0,0.66446 -0.02373,1.16281 -0.07119,1.49504c-0.04746,0.3085 -0.17798,0.67633 -0.39156,1.10349c-0.42716,0.73566 -1.53065,1.10349 -3.31046,1.10349c-1.37639,0 -2.36122,-0.2373 -2.9545,-0.71193c-0.45088,-0.40343 -0.70006,-1.02042 -0.74753,-1.85101c0,-0.28477 0,-0.6882 0,-1.21028v-14.91486c0,-0.66446 0.01187,-1.15095 0.0356,-1.45945c0.04746,-0.33224 0.17798,-0.70006 0.39156,-1.10349c0.37969,-0.75939 1.48317,-1.13909 3.31046,-1.13909c1.6849,0 2.74091,0.32037 3.16807,0.9611c0.33224,0.45088 0.49835,0.9255 0.49835,1.42385c0.11865,-0.21357 0.3085,-0.46275 0.56954,-0.74753c0.28477,-0.28477 0.86618,-0.66446 1.74422,-1.13909c0.87804,-0.47462 1.6493,-0.71193 2.31376,-0.71193c0.66446,0 1.22215,0.0356 1.67303,0.10679c0.47462,0.07119 0.97297,0.18986 1.49504,0.35596zM166.54683,177.59725c0,1.73235 -0.43902,3.01382 -1.31706,3.8444c-0.85431,0.83058 -1.80354,1.24587 -2.84771,1.24587h-10.07376c0,0.78312 0.46275,1.44758 1.38825,1.9934c0.94923,0.54581 1.89847,0.81872 2.84771,0.81872c1.63743,0 2.9189,-0.16611 3.8444,-0.49835l0.46275,-0.17798c0.6882,-0.3085 1.25774,-0.46275 1.70862,-0.46275c0.90178,0 1.6849,0.62886 2.34935,1.8866c0.35596,0.78312 0.53394,1.43572 0.53394,1.95779c0,2.53921 -3.01382,3.80881 -9.04147,3.80881c-2.08832,0 -3.95119,-0.35596 -5.58862,-1.06789c-1.63743,-0.73566 -2.90703,-1.70862 -3.80881,-2.9189c-1.77982,-2.27816 -2.66972,-4.8411 -2.66972,-7.68881c0,-3.55963 1.15095,-6.40734 3.45284,-8.54312c2.30189,-2.13578 5.1852,-3.20367 8.64991,-3.20367c3.93932,0 6.8345,1.38825 8.6855,4.16477c0.94923,1.47131 1.42385,3.08501 1.42385,4.8411zM157.57655,178.80753c1.09161,0 1.63743,-0.45088 1.63743,-1.35266c0,-0.64073 -0.24918,-1.16281 -0.74753,-1.56624c-0.49835,-0.40343 -1.21028,-0.60513 -2.13578,-0.60513c-0.9255,0 -1.83914,0.37969 -2.74091,1.13909c-0.90178,0.75939 -1.35266,1.55436 -1.35266,2.38495zM183.85241,171.43909c0.16611,-1.58997 1.28147,-2.38495 3.34606,-2.38495c1.11536,0 1.93407,0.08306 2.45615,0.24918c0.54581,0.16611 0.9255,0.46275 1.13909,0.88991c0.21357,0.42716 0.3441,0.80685 0.39156,1.13909c0.04746,0.3085 0.07119,0.79499 0.07119,1.45945v14.87926c0,0.64073 -0.02373,1.12721 -0.07119,1.45945c-0.04746,0.33224 -0.16611,0.71193 -0.35596,1.13909c-0.40343,0.73566 -1.37639,1.10349 -2.9189,1.10349c-1.54251,0 -2.5748,-0.18986 -3.09688,-0.56954c-0.52207,-0.40343 -0.83058,-0.97297 -0.9255,-1.70862c-1.04416,1.51877 -2.78838,2.27816 -5.23266,2.27816c-2.44428,0 -4.72244,-1.11536 -6.8345,-3.34606c-2.08832,-2.25444 -3.13247,-4.86483 -3.13247,-7.83119c0,-2.96636 1.05602,-5.55303 3.16807,-7.76c2.11205,-2.2307 4.42581,-3.34606 6.94128,-3.34606c0.97297,0 1.85101,0.17798 2.63413,0.53394c0.78312,0.33224 1.32893,0.65261 1.63743,0.9611c0.33224,0.28477 0.59327,0.56954 0.78312,0.85431zM176.12801,180.26697c0,0.9255 0.36783,1.76795 1.10349,2.52734c0.73566,0.75939 1.62556,1.13909 2.66972,1.13909c1.04416,0 1.91033,-0.37969 2.59853,-1.13909c0.71193,-0.78312 1.06789,-1.62556 1.06789,-2.52734c0,-0.9255 -0.33224,-1.77982 -0.99669,-2.56294c-0.66446,-0.80685 -1.56624,-1.21028 -2.70532,-1.21028c-1.11536,0 -2.01713,0.40343 -2.70532,1.21028c-0.6882,0.78312 -1.03229,1.63743 -1.03229,2.56294zM209.68199,159.72789c0.21357,-0.42716 0.58141,-0.7238 1.10349,-0.88991c0.54581,-0.16611 1.25774,-0.24918 2.13578,-0.24918c0.90178,0 1.62556,0.08306 2.17138,0.24918c0.54581,0.16611 0.9255,0.46275 1.13909,0.88991c0.21357,0.42716 0.33224,0.80685 0.35596,1.13909c0.04746,0.33224 0.07119,0.81872 0.07119,1.45945v25.38018c0,0.64073 -0.02373,1.12721 -0.07119,1.45945c-0.02373,0.33224 -0.15425,0.70006 -0.39156,1.10349c-0.42716,0.75939 -1.62556,1.13909 -3.59523,1.13909c-1.96967,0 -3.06128,-0.70006 -3.27486,-2.10018c-1.18655,1.37639 -2.84771,2.06459 -4.98348,2.06459c-2.53921,0 -4.86483,-1.11536 -6.97688,-3.34606c-2.08832,-2.2307 -3.13247,-4.81737 -3.13247,-7.76c0,-2.96636 1.05602,-5.5649 3.16807,-7.7956c2.11205,-2.25444 4.42581,-3.38165 6.94128,-3.38165c2.08832,0 3.71389,0.71193 4.87669,2.13578v-8.93467c0,-0.66446 0.02373,-1.15095 0.07119,-1.45945c0.04746,-0.33224 0.17798,-0.70006 0.39156,-1.10349zM202.7763,182.82991c0.73566,0.75939 1.62556,1.13909 2.66972,1.13909c1.04416,0 1.91033,-0.37969 2.59853,-1.13909c0.71193,-0.78312 1.06789,-1.62556 1.06789,-2.52734c0,-0.9255 -0.33224,-1.77982 -0.99669,-2.56294c-0.66446,-0.80685 -1.56624,-1.21028 -2.70532,-1.21028c-1.13909,0 -2.05272,0.39156 -2.74091,1.17468c-0.66446,0.78312 -0.99669,1.63743 -0.99669,2.56294c0,0.9255 0.36783,1.77982 1.10349,2.56294zM240.47509,169.30331c1.66116,0.73566 2.49175,1.62556 2.49175,2.66972c0,0.52207 -0.11865,1.00856 -0.35596,1.45945c-0.21357,0.45088 -0.32037,0.6882 -0.32037,0.71193l-11.14165,24.91742c-0.21357,0.52207 -0.40343,0.9255 -0.56954,1.21028c-0.14238,0.28477 -0.39156,0.55767 -0.74753,0.81872c-0.33224,0.26105 -0.75939,0.39156 -1.28147,0.39156c-0.49835,0 -1.24587,-0.21357 -2.24257,-0.64073c-1.66116,-0.73566 -2.49175,-1.61371 -2.49175,-2.63413c0,-0.6882 1.35266,-3.93932 4.05798,-9.75339l-8.43633,-14.23853c-0.56954,-0.9255 -0.85431,-1.61371 -0.85431,-2.06459c0,-0.90178 0.75939,-1.80354 2.27816,-2.70532c0.97297,-0.56954 1.72049,-0.85431 2.24257,-0.85431c0.54581,0 0.98483,0.11865 1.31706,0.35596c0.35596,0.21357 0.60513,0.43902 0.74753,0.67633c0.16611,0.2373 0.94923,1.55436 2.34935,3.95119c1.40012,2.39683 2.74091,4.62753 4.02238,6.69211c0.14238,-0.45088 0.90178,-2.1951 2.27816,-5.23266c1.40012,-3.06128 2.14765,-4.68685 2.24257,-4.87669c0.09492,-0.21357 0.26105,-0.45088 0.49835,-0.71193c0.35596,-0.49835 0.86618,-0.74753 1.53065,-0.74753c0.6882,0 1.48317,0.20171 2.38495,0.60513zM268.35619,169.08973c2.51547,0 4.82923,1.12721 6.94128,3.38165c2.11205,2.2307 3.16807,4.82923 3.16807,7.7956c0,2.94263 -1.05602,5.5293 -3.16807,7.76c-2.08832,2.2307 -4.34275,3.34606 -6.7633,3.34606c-2.39683,0 -4.10544,-0.6882 -5.12587,-2.06459c-0.21357,1.40012 -1.42385,2.10018 -3.63082,2.10018c-1.80354,0 -2.89517,-0.37969 -3.27486,-1.13909c-0.21357,-0.42716 -0.3441,-0.80685 -0.39156,-1.13909c-0.02373,-0.33224 -0.0356,-0.81872 -0.0356,-1.45945v-25.38018c0,-0.66446 0.01187,-1.15095 0.0356,-1.45945c0.04746,-0.33224 0.17798,-0.70006 0.39156,-1.10349c0.37969,-0.75939 1.48317,-1.13909 3.31046,-1.13909c1.77982,0 2.85958,0.37969 3.23926,1.13909c0.21357,0.42716 0.3441,0.80685 0.39156,1.13909c0.04746,0.33224 0.07119,0.81872 0.07119,1.45945v8.82789c1.11536,-1.37639 2.72905,-2.06459 4.8411,-2.06459zM264.61858,182.82991c0.71193,0.75939 1.58997,1.13909 2.63413,1.13909c1.04416,0 1.93407,-0.37969 2.66972,-1.13909c0.73566,-0.78312 1.10349,-1.63743 1.10349,-2.56294c0,-0.9255 -0.3441,-1.77982 -1.03229,-2.56294c-0.66446,-0.78312 -1.56624,-1.17468 -2.70532,-1.17468c-1.13909,0 -2.04086,0.40343 -2.70532,1.21028c-0.66446,0.78312 -0.99669,1.63743 -0.99669,2.56294c0,0.90178 0.3441,1.74422 1.03229,2.52734zM280.59597,180.26697c0,-3.39352 1.18655,-6.19376 3.55963,-8.40073c2.37308,-2.2307 5.09028,-3.34606 8.15156,-3.34606c3.06128,0 5.7666,1.10349 8.11596,3.31046c2.37308,2.20697 3.55963,5.00721 3.55963,8.40073c0,2.34935 -0.61701,4.43767 -1.85101,6.26495c-1.21028,1.82728 -2.69345,3.17994 -4.44954,4.05798c-1.73235,0.85431 -3.5359,1.28147 -5.41064,1.28147c-1.87473,0 -3.69014,-0.46275 -5.44623,-1.38825c-1.75609,-0.9255 -3.23926,-2.29003 -4.44954,-4.09357c-1.18655,-1.80354 -1.77982,-3.83254 -1.77982,-6.08697zM289.45946,183.32825c0.9255,0.6882 1.85101,1.03229 2.77651,1.03229c0.9255,0 1.85101,-0.35596 2.77651,-1.06789c0.94923,-0.71193 1.42385,-1.75609 1.42385,-3.13247c0,-1.40012 -0.43902,-2.43242 -1.31706,-3.09688c-0.87804,-0.6882 -1.82728,-1.03229 -2.84771,-1.03229c-1.02042,0 -1.96967,0.35596 -2.84771,1.06789c-0.87804,0.6882 -1.31706,1.72049 -1.31706,3.09688c0,1.37639 0.45088,2.42055 1.35266,3.13247zM316.66929,191.37303c-2.84771,0 -5.22079,-1.07976 -7.11926,-3.23926c-1.87473,-2.18324 -2.81211,-4.82923 -2.81211,-7.93798v-7.43963c0,-0.6882 0.01187,-1.18655 0.0356,-1.49504c0.04746,-0.3085 0.17798,-0.67633 0.39156,-1.10349c0.37969,-0.75939 1.48317,-1.13909 3.31046,-1.13909c1.96967,0 3.13247,0.53394 3.48844,1.60184c0.16611,0.45088 0.24918,1.17468 0.24918,2.17138v7.43963c0,1.16281 0.33224,2.07646 0.99669,2.74091c0.66446,0.64073 1.55436,0.9611 2.66972,0.9611c1.11536,0 2.01713,-0.3441 2.70532,-1.03229c0.71193,-0.6882 1.06789,-1.57811 1.06789,-2.66972v-7.54642c0,-0.64073 0.01187,-1.11536 0.0356,-1.42385c0.04746,-0.33224 0.18986,-0.71193 0.42716,-1.13909c0.37969,-0.73566 1.47131,-1.10349 3.27486,-1.10349c1.77982,0 2.87143,0.37969 3.27486,1.13909c0.18986,0.42716 0.3085,0.80685 0.35596,1.13909c0.04746,0.3085 0.07119,0.79499 0.07119,1.45945v15.02164c0,0.64073 -0.02373,1.12721 -0.07119,1.45945c-0.04746,0.3085 -0.17798,0.66446 -0.39156,1.06789c-0.42716,0.73566 -1.51877,1.10349 -3.27486,1.10349c-1.73235,0 -2.80024,-0.3441 -3.20367,-1.03229c-0.28477,-0.47462 -0.42716,-1.05602 -0.42716,-1.74422c-0.11865,0.21357 -0.37969,0.51022 -0.78312,0.88991c-0.37969,0.35596 -0.74753,0.65261 -1.10349,0.88991c-0.97297,0.64073 -2.02899,0.9611 -3.16807,0.9611zM346.69709,188.63211c-1.09161,1.42385 -2.81211,2.13578 -5.16147,2.13578c-2.34935,0 -4.55633,-1.07976 -6.62091,-3.23926c-2.04086,-2.18324 -3.06128,-4.71058 -3.06128,-7.58201c0,-2.89517 1.03229,-5.43436 3.09688,-7.61761c2.06459,-2.18324 4.33088,-3.27486 6.7989,-3.27486c0.97297,0 1.85101,0.17798 2.63413,0.53394c0.80685,0.35596 1.35266,0.6882 1.63743,0.99669c0.3085,0.28477 0.54581,0.54581 0.71193,0.78312c0.07119,-0.78312 0.35596,-1.37639 0.85431,-1.77982c0.49835,-0.42716 1.29334,-0.64073 2.38495,-0.64073c1.11536,0 1.9222,0.09492 2.42055,0.28477c0.52207,0.16611 0.88991,0.45088 1.10349,0.85431c0.21357,0.40343 0.3441,0.77125 0.39156,1.10349c0.04746,0.3085 0.07119,0.78312 0.07119,1.42385v17.58458c0,3.27486 -1.13909,5.90899 -3.41725,7.90238c-2.25444,1.9934 -4.8055,2.99009 -7.65321,2.99009c-2.13578,0 -4.18849,-0.52207 -6.15816,-1.56624c-1.94593,-1.04416 -2.9189,-1.9934 -2.9189,-2.84771c0,-1.11536 0.42716,-2.10018 1.28147,-2.9545c0.52207,-0.59327 0.9255,-1.00856 1.21028,-1.24587c0.3085,-0.21357 0.66446,-0.32037 1.06789,-0.32037c0.40343,0 0.81872,0.17798 1.24587,0.53394c1.35266,1.04416 2.82398,1.56624 4.41394,1.56624c1.06789,0 1.94593,-0.42716 2.63413,-1.28147c0.6882,-0.85431 1.03229,-1.87473 1.03229,-3.06128zM339.11508,179.9466c0,0.9255 0.35596,1.75609 1.06789,2.49175c0.73566,0.73566 1.61371,1.10349 2.63413,1.10349c1.04416,0 1.89847,-0.36783 2.56294,-1.10349c0.6882,-0.75939 1.03229,-1.58997 1.03229,-2.49175c0,-0.90178 -0.33224,-1.73235 -0.99669,-2.49175c-0.64073,-0.78312 -1.51877,-1.17468 -2.63413,-1.17468c-1.09161,0 -1.98152,0.37969 -2.66972,1.13909c-0.66446,0.75939 -0.99669,1.60184 -0.99669,2.52734zM369.74537,169.12533c2.84771,0 5.20893,1.07976 7.08367,3.23926c1.89847,2.15951 2.84771,4.79364 2.84771,7.90238v7.47523c0,0.66446 -0.02373,1.16281 -0.07119,1.49504c-0.04746,0.3085 -0.18986,0.67633 -0.42716,1.10349c-0.35596,0.73566 -1.43572,1.10349 -3.23926,1.10349c-1.73235,0 -2.81211,-0.36783 -3.23926,-1.10349c-0.2373,-0.42716 -0.37969,-0.80685 -0.42716,-1.13909c-0.02373,-0.35596 -0.0356,-0.86618 -0.0356,-1.53065v-7.43963c0,-1.16281 -0.33224,-2.06459 -0.99669,-2.70532c-0.64073,-0.66446 -1.47131,-0.99669 -2.49175,-0.99669c-0.99669,0 -1.8866,0.3085 -2.66972,0.9255c-0.75939,0.59327 -1.18655,1.2696 -1.28147,2.02899v8.25835c0,0.66446 -0.02373,1.16281 -0.07119,1.49504c-0.04746,0.3085 -0.17798,0.67633 -0.39156,1.10349c-0.37969,0.73566 -1.47131,1.10349 -3.27486,1.10349c-1.80354,0 -2.89517,-0.37969 -3.27486,-1.13909c-0.21357,-0.42716 -0.3441,-0.79499 -0.39156,-1.10349c-0.02373,-0.3085 -0.0356,-0.80685 -0.0356,-1.49504v-25.41577c0,-0.66446 0.01187,-1.15095 0.0356,-1.45945c0.04746,-0.33224 0.17798,-0.70006 0.39156,-1.10349c0.37969,-0.75939 1.48317,-1.13909 3.31046,-1.13909c1.77982,0 2.85958,0.37969 3.23926,1.13909c0.21357,0.42716 0.3441,0.80685 0.39156,1.13909c0.04746,0.33224 0.07119,0.81872 0.07119,1.45945v9.39743c1.40012,-1.73235 3.04942,-2.59853 4.94789,-2.59853zM396.06418,176.56496l-2.74091,-0.17798v5.87339c0,0.75939 0.11865,1.31706 0.35596,1.67303c0.2373,0.33224 0.6882,0.49835 1.35266,0.49835c0.66446,0 1.17468,0.02373 1.53065,0.07119c0.35596,0.04746 0.7238,0.17798 1.10349,0.39156c0.66446,0.37969 0.99669,1.32893 0.99669,2.84771c0,1.77982 -0.39156,2.87143 -1.17468,3.27486c-0.42716,0.18986 -0.80685,0.3085 -1.13909,0.35596c-0.33224,0.04746 -0.80685,0.07119 -1.42385,0.07119c-2.94263,0 -5.1852,-0.66446 -6.7277,-1.9934c-1.51877,-1.32893 -2.27816,-3.58336 -2.27816,-6.7633v-6.30055c-0.54581,0.09492 -1.12721,0.14238 -1.74422,0.14238c-0.61701,0 -1.13909,-0.2373 -1.56624,-0.71193c-0.40343,-0.49835 -0.60513,-1.32893 -0.60513,-2.49175c0,-1.16281 0.07119,-2.00527 0.21357,-2.52734c0.14238,-0.52207 0.3441,-0.88991 0.60513,-1.10349c0.45088,-0.37969 1.00856,-0.56954 1.67303,-0.56954l1.42385,0.17798v-4.37835c0,-0.66446 0.01187,-1.15095 0.0356,-1.45945c0.04746,-0.3085 0.18986,-0.64073 0.42716,-0.99669c0.35596,-0.71193 1.44758,-1.06789 3.27486,-1.06789c1.9222,0 3.07315,0.52207 3.45284,1.56624c0.14238,0.45088 0.21357,1.17468 0.21357,2.17138v4.16477c1.234,-0.11865 2.17138,-0.17798 2.81211,-0.17798c0.64073,0 1.11536,0.02373 1.42385,0.07119c0.33224,0.04746 0.71193,0.17798 1.13909,0.39156c0.73566,0.37969 1.10349,1.47131 1.10349,3.27486c0,1.77982 -0.37969,2.87143 -1.13909,3.27486c-0.42716,0.21357 -0.80685,0.3441 -1.13909,0.39156c-0.3085,0.02373 -0.79499,0.0356 -1.45945,0.0356z" fill="#ff6767" stroke-width="1" stroke-linecap="square" stroke-linejoin="miter"/></g></g></svg>