<svg version="1.1" xmlns="http://www.w3.org/2000/svg" xmlns:xlink="http://www.w3.org/1999/xlink" width="9.03361" height="9.03361" viewBox="0,0,9.03361,9.03361"><g transform="translate(-235.4832,-175.4832)"><g data-paper-data="{&quot;isPaintingLayer&quot;:true}" fill-rule="nonzero" stroke-linejoin="miter" stroke-miterlimit="10" stroke-dasharray="" stroke-dashoffset="0" style="mix-blend-mode: normal"><g><path d="M239.95901,179.57676c0,-0.64618 0,-3.58247 0,-3.58247h4.03317c0,0 0,2.88036 0,3.52654c0,0.24492 -0.22777,0.50663 -0.49729,0.50663c-0.84608,0 -2.59881,0 -3.07586,0c-0.2257,0 -0.46002,-0.20578 -0.46002,-0.4507z" data-paper-data="{&quot;index&quot;:null}" fill="#ffab19" stroke="none" stroke-width="0" stroke-linecap="butt"/><path d="M243.65689,178.38872c-0.44765,0 -2.47826,0 -3.31004,0c-0.21228,0 -0.40293,-0.1987 -0.40293,-0.33073c0,-0.36173 0,-1.96879 0,-1.96879h4.03317c0,0 0,1.58722 0,1.96879c0,0.15639 -0.15519,0.33073 -0.3202,0.33073z" data-paper-data="{&quot;index&quot;:null}" fill="#ffca6d" stroke="none" stroke-width="0" stroke-linecap="butt"/><path d="M239.94393,176.23515h4.03106" fill="none" stroke="#fce5be" stroke-width="0.5" stroke-linecap="round"/></g><path d="M235.9632,184.03681v-8.07361h8.07361v8.07361z" fill="none" stroke="#ffffff" stroke-width="0.96" stroke-linecap="butt"/></g></g></svg>