<svg version="1.1" xmlns="http://www.w3.org/2000/svg" xmlns:xlink="http://www.w3.org/1999/xlink" width="19.68383" height="19.68383" viewBox="0,0,19.68383,19.68383"><defs><linearGradient x1="240.04435" y1="176.15467" x2="240.04435" y2="180.72335" gradientUnits="userSpaceOnUse" id="color-1"><stop offset="0" stop-color="#ffbf66"/><stop offset="1" stop-color="#ffd080"/></linearGradient><linearGradient x1="240.02897" y1="176.15466" x2="240.02897" y2="180.72334" gradientUnits="userSpaceOnUse" id="color-2"><stop offset="0" stop-color="#ffbf66"/><stop offset="1" stop-color="#ffd080"/></linearGradient></defs><g transform="translate(-230.15809,-170.15809)"><g data-paper-data="{&quot;isPaintingLayer&quot;:true}" fill-rule="nonzero" stroke-linejoin="miter" stroke-miterlimit="10" stroke-dasharray="" stroke-dashoffset="0" style="mix-blend-mode: normal"><path d="M236.02606,184.03681v-8.01312h6.53646l1.47666,1.46592v6.5472z" data-paper-data="{&quot;index&quot;:null}" fill="#ffbe4d" stroke="none" stroke-width="0" stroke-linecap="butt"/><path d="" fill="none" stroke="none" stroke-width="0" stroke-linecap="butt"/><path d="" data-paper-data="{&quot;index&quot;:null}" fill="#ffbe4d" stroke="none" stroke-width="0" stroke-linecap="butt"/><path d="" fill="none" stroke="#ffe3b3" stroke-width="1.92" stroke-linecap="round"/><path d="" data-paper-data="{&quot;index&quot;:null}" fill="url(#color-1)" stroke="none" stroke-width="0" stroke-linecap="butt"/><path d="M230.15809,189.84192v-19.68383h19.68383v19.68383z" data-paper-data="{&quot;index&quot;:null}" fill="none" stroke="none" stroke-width="0" stroke-linecap="butt"/><path d="M236.00775,176.02151l6.85562,-0.00341c0,0 0.16441,0.04341 0.23341,0.04341c0.5302,0 0.96,0.42981 0.96,0.96c0,0.53019 -0.42981,0.96 -0.96,0.96c-0.05256,0 -0.22642,0.01054 -0.22642,0.01054l-6.83183,-0.0246z" data-paper-data="{&quot;index&quot;:null}" fill="#ffe3b3" stroke="none" stroke-width="0.5" stroke-linecap="butt"/><path d="M244.03554,180.06623c0,0.31071 -0.30834,0.65709 -0.63618,0.65709c-1.11638,0 -7.37694,0 -7.37694,0v-3.76633l8.01312,-0.07767c0,0 0,2.65457 0,3.1869z" data-paper-data="{&quot;index&quot;:null}" fill="url(#color-2)" stroke="none" stroke-width="0" stroke-linecap="butt"/></g></g></svg>