<svg version="1.1" xmlns="http://www.w3.org/2000/svg" xmlns:xlink="http://www.w3.org/1999/xlink" width="4.89526" height="3.35852" viewBox="0,0,4.89526,3.35852"><g transform="translate(-237.56929,-178.58613)"><g data-paper-data="{&quot;isPaintingLayer&quot;:true}" fill-rule="nonzero" stroke="none" stroke-width="0" stroke-linecap="butt" stroke-linejoin="miter" stroke-miterlimit="10" stroke-dasharray="" stroke-dashoffset="0" style="mix-blend-mode: normal"><path d="M242.07628,180.18297c0.27667,0.26138 0.4344,0.54259 0.37629,0.6041c-0.05811,0.06151 -0.28265,-0.18597 -0.55932,-0.44735c-0.27667,-0.26138 -0.50071,-0.43771 -0.4426,-0.49922c0.05811,-0.06151 0.34896,0.08108 0.62563,0.34247z" data-paper-data="{&quot;index&quot;:null}" fill="#693a00"/><path d="M238.58319,179.85761c0.05811,0.06151 -0.16593,0.23783 -0.4426,0.49921c-0.27667,0.26138 -0.50121,0.50886 -0.55932,0.44735c-0.05811,-0.06151 0.09963,-0.34271 0.37629,-0.6041c0.27667,-0.26138 0.56752,-0.40398 0.62563,-0.34247z" fill="#693a00"/><g fill="#693a00"><path d="M239.79442,181.4143c0,0.29291 -0.05159,0.53036 -0.11524,0.53036c-0.06365,0 -0.11524,-0.23745 -0.11524,-0.53036c0,-0.29291 0.05159,-0.53036 0.11524,-0.53036c0.06365,0 0.11524,0.23745 0.11524,0.53036z"/><path d="M240.43608,181.4143c0,0.29291 -0.05159,0.53036 -0.11524,0.53036c-0.06365,0 -0.11524,-0.23745 -0.11524,-0.53036c0,-0.29291 0.05159,-0.53036 0.11524,-0.53036c0.06365,0 0.11524,0.23745 0.11524,0.53036z"/></g><path d="M237.96923,180.01321c0.00481,-0.89071 0.08472,-1.34401 0.55601,-1.36457c0.02868,-0.00125 0.08983,-0.0074 0.08983,-0.0074l0.16281,0.21527l0.57301,-0.04115l0.1761,-0.20589c0,0 0.30569,-0.0169 0.45825,-0.01864c2.07009,-0.02357 2.06121,-0.01215 2.04555,1.39881c-0.0157,1.41424 0.00104,1.40353 -2.04555,1.41956c-0.06472,0.00051 -0.57158,-0.00571 -0.57158,-0.00571l-0.1643,0.16966l-0.52862,0.00082l-0.14851,-0.22431c0,0 -0.03832,-0.01934 -0.07817,-0.02362c-0.53535,-0.07599 -0.53027,-0.30205 -0.52482,-1.31284z" fill="#ffab19"/><path d="M238.44351,180.05956c0.00423,-0.78491 0.02003,-0.94 0.57451,-1.00259c0.05289,-0.00597 0.06431,0.01211 0.06431,0.01211l0.15953,0.16771l0.47751,-0.02892l0.15865,-0.20827c0,0 0.08057,-0.01001 0.10993,-0.01034c1.58587,-0.01806 1.57907,-0.02868 1.56707,1.05223c0.00742,0.65562 0.02024,0.74464 -1.54763,0.75692c-1.54595,0.0121 -1.56981,-0.00968 -1.56388,-0.73886z" fill="#e2d2a3"/><path d="M238.46237,179.71471c-0.01054,-0.17564 0.20152,-0.52943 0.54562,-0.52062c0.05354,0.00137 0.04856,-0.01091 0.04856,-0.01091l0.24314,0.1945l0.42476,-0.02307l0.17293,-0.20261c0,0 0.12709,-0.03383 0.14288,-0.03383c0.61596,0 1.11012,0.05643 1.50339,0.47026c0.30044,0.31616 -2.31574,1.02066 -3.01355,0.79715c-0.15657,-0.05015 -0.06772,-0.67087 -0.06772,-0.67087z" fill="#ffedb8"/><path d="M238.44585,180.12024c0.0009,-0.16603 0.00231,-0.28693 0.00923,-0.40562c0.00381,-0.06538 3.11764,-0.13755 3.12109,-0.03973c0.00421,0.1195 0.00249,0.26065 0.00064,0.42729c0.00742,0.65562 -0.01203,0.74464 -1.66611,0.7914c-0.01994,0.00016 -0.1317,0.00811 -0.1317,0.00811l-0.14597,0.20238l-0.45714,0.00174l-0.163,-0.21756c0,0 -0.07848,-0.01628 -0.1133,-0.01784c-0.39278,-0.04251 -0.45826,-0.19301 -0.45373,-0.75016z" fill="#ffedb8"/><path d="M239.29513,179.99518c0,0.16266 -0.06701,0.29451 -0.14967,0.29451c-0.08266,0 -0.14967,-0.13186 -0.14967,-0.29451c0,-0.16266 0.06701,-0.29451 0.14967,-0.29451c0.08266,0 0.14967,0.13186 0.14967,0.29451z" fill="#693a00"/><path d="M241.00424,179.99518c0,0.16265 -0.06701,0.29451 -0.14967,0.29451c-0.08266,0 -0.14966,-0.13186 -0.14966,-0.29451c0,-0.16265 0.067,-0.29451 0.14966,-0.29451c0.08266,0 0.14967,0.13186 0.14967,0.29451z" fill="#693a00"/><path d="M240.29452,180.17382c0,0 -0.13186,0.12553 -0.29451,0.12553c-0.16265,0 -0.29451,-0.12553 -0.29451,-0.12553z" fill="#b46300"/></g></g></svg>