<svg version="1.1" xmlns="http://www.w3.org/2000/svg" xmlns:xlink="http://www.w3.org/1999/xlink" width="503.27705" height="325.80893" viewBox="0,0,503.27705,325.80893"><defs><linearGradient x1="-1451.33934" y1="-2950.84429" x2="-1495.14347" y2="-2640.91714" gradientUnits="userSpaceOnUse" id="color-1"><stop offset="0" stop-color="#00bbff"/><stop offset="1" stop-color="#53ceff"/></linearGradient></defs><g transform="translate(-8.704,-79.02824)"><g data-paper-data="{&quot;isPaintingLayer&quot;:true}" fill-rule="nonzero" stroke-linejoin="miter" stroke-miterlimit="10" stroke-dasharray="" stroke-dashoffset="0" style="mix-blend-mode: normal"><g><path d="" fill="url(#color-1)" stroke="none" stroke-width="0" stroke-linecap="butt"/><path d="" fill="#55e74a" stroke="none" stroke-width="0" stroke-linecap="butt"/><path d="" fill="#55e74a" stroke="none" stroke-width="0" stroke-linecap="butt"/><path d="" fill="#55e74a" stroke="none" stroke-width="0" stroke-linecap="butt"/><path d="" fill="#f73939" stroke="none" stroke-width="0" stroke-linecap="butt"/><path d="" fill="#55e74a" stroke="none" stroke-width="0" stroke-linecap="butt"/><path d="" fill="#55e74a" stroke="none" stroke-width="0" stroke-linecap="butt"/><path d="" data-paper-data="{&quot;origRot&quot;:0,&quot;index&quot;:null}" fill="#000000" stroke="none" stroke-width="1" stroke-linecap="butt" opacity="0.42445"/><g><path d="M8.704,384.95011l19.88706,-187.75496l144.75496,15.88706l-19.88706,191.75496z" fill="#ffab19" stroke="none" stroke-width="0" stroke-linecap="butt"/><path d="M152.40735,304.3741c-16.08759,-1.38069 -89.06273,-7.64364 -118.95464,-10.20905c-7.62867,-0.65472 -13.86762,-8.38341 -13.4604,-13.12829c1.11568,-12.99976 6.07227,-70.75337 6.07227,-70.75337l144.94241,12.4394c0,0 -4.89543,57.04094 -6.07227,70.75337c-0.48234,5.62016 -6.59735,11.40687 -12.52736,10.89794z" data-paper-data="{&quot;index&quot;:null}" fill="#ffca6d" stroke="none" stroke-width="0" stroke-linecap="butt"/><path d="M27.10133,205.78156l144.67909,15.87874" fill="none" stroke="#fce5be" stroke-width="25" stroke-linecap="round"/></g><g fill="none" stroke="#000000" stroke-width="25" stroke-linecap="round"><path d="M308.64084,222.38065l-13.79377,148.7078" data-paper-data="{&quot;index&quot;:null}"/><path d="M192.18078,371.84265l18.79377,-158.7078"/><path d="M207.37384,250.50074l97.84982,9.26318" data-paper-data="{&quot;index&quot;:null}"/><path d="M298.50569,330.72783l-97.84982,-9.26318" data-paper-data="{&quot;index&quot;:null}"/></g><g><path d="M344.85031,211.66407c1.99299,-23.22209 11.04933,-128.74539 11.04933,-128.74539l144.94241,12.4394c0,0 -8.8838,103.51298 -10.87681,126.73525c-0.7554,8.80187 -9.74802,17.50466 -19.43403,16.67337c-30.40598,-2.60953 -93.39484,-8.01543 -110.53895,-9.48679c-8.11108,-0.69612 -15.89732,-8.81416 -15.14194,-17.61585z" data-paper-data="{&quot;index&quot;:null}" fill="#ffab19" stroke="none" stroke-width="0" stroke-linecap="butt"/><path d="M481.40735,180.3741c-16.08759,-1.38069 -89.06273,-7.64364 -118.95464,-10.20905c-7.62867,-0.65472 -13.86762,-8.38341 -13.4604,-13.12829c1.11568,-12.99976 6.07227,-70.75337 6.07227,-70.75337l144.94241,12.4394c0,0 -4.89543,57.04094 -6.07227,70.75337c-0.48234,5.62016 -6.59735,11.40687 -12.52736,10.89794z" data-paper-data="{&quot;index&quot;:null}" fill="#ffca6d" stroke="none" stroke-width="0" stroke-linecap="butt"/><path d="M354.61461,91.52824l144.86644,12.43288" fill="none" stroke="#fce5be" stroke-width="25" stroke-linecap="round"/></g></g></g></g></svg>