<svg version="1.1" xmlns="http://www.w3.org/2000/svg" xmlns:xlink="http://www.w3.org/1999/xlink" width="312.18299" height="179.74544" viewBox="0,0,312.18299,179.74544"><defs><linearGradient x1="-1862.81128" y1="-3854.90483" x2="-1918.95306" y2="-3457.68519" gradientUnits="userSpaceOnUse" id="color-1"><stop offset="0" stop-color="#00bbff"/><stop offset="1" stop-color="#53ceff"/></linearGradient></defs><g transform="translate(-5.97872,-173.98619)"><g data-paper-data="{&quot;isPaintingLayer&quot;:true}" fill-rule="nonzero" stroke-linecap="butt" stroke-linejoin="miter" stroke-miterlimit="10" stroke-dasharray="" stroke-dashoffset="0" style="mix-blend-mode: normal"><g><path d="M145.25,256.03719c0,-9.57294 7.7604,-17.33333 17.33333,-17.33333c9.57294,0 17.33333,7.7604 17.33333,17.33333c0,9.57294 -7.7604,17.33333 -17.33333,17.33333c-9.57294,0 -17.33333,-7.7604 -17.33333,-17.33333z" fill="none" stroke="#28a5da" stroke-width="7.5"/><path d="" fill="url(#color-1)" stroke="none" stroke-width="7.5"/><path d="" fill="#55e74a" stroke="none" stroke-width="7.5"/><path d="" fill="#55e74a" stroke="none" stroke-width="7.5"/><path d="" fill="#55e74a" stroke="none" stroke-width="7.5"/><path d="" fill="#f73939" stroke="none" stroke-width="7.5"/><path d="" fill="#55e74a" stroke="none" stroke-width="7.5"/><path d="" fill="#55e74a" stroke="none" stroke-width="7.5"/><path d="" data-paper-data="{&quot;origRot&quot;:0,&quot;index&quot;:null}" fill="#000000" stroke="none" stroke-width="7.5" opacity="0.42445"/><path d="M237.81597,344.96513c-16.13182,0 -25.37204,-12.12979 -26.15398,-24.10794h0.00514c-0.03622,-0.75364 -0.06857,-2.2749 -0.15109,-6.2716c-0.0011,-0.12866 -0.0044,-0.25366 -0.0011,-0.38233c0.10092,-7.37671 0.11985,-8.81193 0.1522,-9.37256h-0.00112c0.81229,-11.48074 4.7825,-19.49032 11.80609,-23.80886c3.33073,-2.06313 7.13334,-3.11145 11.27248,-3.11145c1.4174,0 2.77083,0.1239 4.02849,0.3239c2.61276,-2.95191 6.43374,-4.81763 10.6806,-4.81763c7.86637,0 14.26573,6.39696 14.26573,14.25782v13.56464c0,1.61961 -0.27647,3.19141 -0.79189,4.6647c1.96205,2.32268 3.19987,5.26944 3.35097,8.48419c0.08512,1.08727 0.13217,1.78373 0.09704,2.51587c-0.109,3.64873 -0.11453,3.68587 -0.16966,4.1842c-0.00826,0.11874 -0.02332,0.24263 -0.04338,0.35971c-0.3303,2.37196 -1.19113,6.8804 -3.20851,10.42067c-1.29921,2.26847 -2.64934,3.90424 -3.91896,5.33837c-2.55541,2.87819 -5.49516,4.47809 -8.03991,5.66683c-4.24319,1.99512 -7.90295,2.03263 -10.57949,2.05984l-1.68633,0.01783c-0.30623,0.00754 -0.61395,0.01379 -0.91338,0.01379z" fill="none" stroke="#28a5da" stroke-width="7.5"/><path d="M282.29706,349.98163c-3.3618,0 -6.59032,-1.2628 -9.08507,-3.55866c-1.00492,-0.9178 -1.84678,-1.94753 -2.52379,-3.05925l-11.76437,-0.19723c-7.83881,-0.13583 -14.12693,-6.61571 -14.02584,-14.44219c0.09816,-5.7093 3.56859,-10.62011 8.46156,-12.83234l0.03915,-21.8619c-4.8836,-2.26736 -8.28346,-7.21843 -8.28346,-12.95311c0,-7.86269 6.39788,-14.26168 14.25948,-14.26168h13.40879c2.56054,-3.10832 6.41681,-5.13063 10.75393,-5.21556c0,0 16.48676,-0.28198 16.55147,-0.28198c7.73569,0 14.13468,6.2909 14.2661,14.02787c0.08436,5.64735 -3.12395,10.58666 -7.83991,12.97516c0.09541,15.49067 0.1522,25.2248 0.18142,31.63811c4.32297,2.22985 7.39214,6.6168 7.72283,11.76747c0.5018,7.85297 -5.46923,14.65044 -13.31466,15.15191c-6.47159,0.42371 -10.59989,1.15602 -11.75755,1.48413c-0.22573,0.0932 -0.4509,0.17719 -0.68178,0.25145c-1.43064,0.54482 -3.59029,1.36777 -6.36829,1.36777z" fill="none" stroke="#28a5da" stroke-width="7.5"/><path d="M190.25984,342.57222c-7.72667,0 -14.12566,-6.29641 -14.25892,-14.03136c-0.09595,-6.33521 3.95681,-11.7754 9.63541,-13.72641l-0.00826,-4.2136c-0.42222,0.10164 -0.85272,0.18564 -1.28744,0.25128c-0.70106,0.10772 -1.41795,0.16101 -2.12067,0.16101c-7.11107,0 -13.03949,-5.10823 -14.09771,-12.14083l-2.38685,-15.35317c-0.63324,-4.06876 0.54041,-8.22024 3.22138,-11.38277c2.64144,-3.14876 6.56072,-4.99443 10.71772,-5.04187l19.91475,-0.33288c9.67606,-0.18345 18.31001,-0.79352 18.77563,-0.82588c0.06672,-0.00938 0.13381,-0.01344 0.20274,-0.01655c0.30791,-0.01857 0.61634,-0.03105 0.92128,-0.03105c3.81562,0 7.52595,1.55562 10.18466,4.26726c2.86439,2.87688 4.35918,6.94234 4.04485,11.08461c-0.26873,3.54874 -0.35348,9.1599 -0.3658,10.52068c0.15899,5.77565 -2.99931,11.00136 -8.14082,13.39811c-1.90211,0.89609 -4.05551,1.38689 -6.18447,1.38689v0c-1.6922,0 -3.34488,-0.30901 -4.88123,-0.87828l0.01727,8.95217c5.41042,1.97969 9.33213,7.15482 9.41576,13.21063c0.05956,3.81123 -1.38284,7.42524 -4.05551,10.16094c-2.66826,2.73188 -6.2385,4.26066 -10.05489,4.2954c0.00037,0.00074 -19.15595,0.28564 -19.20888,0.28564z" fill="none" stroke="#28a5da" stroke-width="7.5"/><path d="M168.13415,333.62375c-3.09801,-0.00166 -6.04715,-0.98083 -8.52791,-2.84198c-0.5382,-0.3952 -1.0404,-0.82532 -1.51152,-1.28138c-1.77345,0.78672 -3.73751,1.22659 -5.79736,1.22659c-0.21433,0 -0.4281,-0.00477 -0.64354,-0.01544l-15.60794,-0.73895c-7.8434,-0.3645 -13.93946,-7.04527 -13.58432,-14.88905c0.34355,-7.62797 6.60174,-13.61243 14.25343,-13.61243c0.06471,0 0.13069,0 0.19613,0.00128c0.71652,-3.58992 2.4646,-12.35552 2.54915,-12.77756c-5.16814,-1.62824 -9.14223,-6.13041 -9.88687,-11.72411c-1.02221,-7.78861 4.4623,-14.96532 12.21785,-16.0219l13.39849,-1.84219c0.63674,-0.08639 1.28927,-0.13126 1.92969,-0.13126c3.92685,0 7.71877,1.64403 10.41148,4.51544c0.97919,1.03801 2.38776,3.07669 3.14214,4.8792l11.75922,28.42393c0.05513,0.13088 0.11874,0.27921 0.18897,0.452c0.03621,-0.00037 0.07703,-0.00037 0.11213,-0.00037c6.00213,0 11.3973,3.79321 13.4277,9.44462c2.63629,7.3857 -1.20491,15.55611 -8.55991,18.23044c-4.69943,1.67825 -7.7081,3.21787 -8.79391,3.90424c-2.68756,3.02468 -6.592,4.79923 -10.67195,4.79923c0,-0.00037 0,-0.00036 -0.00112,-0.00036z" fill="none" stroke="#28a5da" stroke-width="7.5"/><path d="M131.9935,345.5892c-2.70797,-0.00311 -5.43083,-0.54722 -8.31361,-1.66683c-2.55357,-0.98709 -4.58969,-2.49033 -6.18336,-4.09026c-1.05694,0.43012 -2.16995,0.73583 -3.3278,0.90475l-15.10135,2.21534c-0.71026,0.10016 -1.39002,0.14869 -2.06554,0.14869c-7.04877,0 -13.11798,-5.26152 -14.11848,-12.24208c-0.54722,-3.71967 0.39795,-7.47779 2.6734,-10.53538c1.13984,-1.53284 2.54344,-2.79252 4.13346,-3.741l-0.0101,-2.18134c-2.90188,-2.61312 -4.73343,-6.39989 -4.73343,-10.60412c0,-3.09049 0.98949,-5.95396 2.66478,-8.29486c-3.36382,-2.18336 -5.7878,-5.74992 -6.38373,-9.94313c-0.55107,-3.69322 0.39264,-7.46456 2.67397,-10.53409c2.28005,-3.06403 5.61428,-5.05144 9.39737,-5.597c3.15354,-0.46469 9.52071,-1.2582 16.29651,-1.2582c15.03591,0 24.6081,3.8511 29.25698,11.77262c2.42764,4.14301 5.19498,12.47299 -2.0547,23.21074c0.68325,2.19806 1.19499,4.63985 1.54349,7.37394c0.0489,0 0.09779,0 0.14669,0c1.41997,0 2.82799,0.20882 4.18604,0.62902c7.54158,2.33244 11.76324,10.33722 9.44224,17.85123c-2.26387,7.29749 -5.87051,11.81527 -11.69783,14.65358c-2.67212,1.28927 -5.48874,1.92897 -8.42022,1.92897c0.00037,-0.00055 0.00038,-0.00055 -0.00477,-0.00055z" fill="none" stroke="#28a5da" stroke-width="7.5"/><path d="M73.28729,348.88336c-16.06012,-0.00404 -25.29742,-12.00277 -26.18193,-23.92375c-0.02721,-0.36377 -0.03789,-0.6711 -0.04025,-0.91522l-0.11359,-5.78723c0,-0.04999 0.11359,-8.66671 0.11359,-8.66671c0.00073,-0.2684 0.01341,-0.5667 0.03438,-0.87404c0.82533,-11.47155 4.79796,-19.47744 11.81087,-23.79176c3.34453,-2.06111 7.14032,-3.10594 11.27045,-3.10594c1.41869,0 2.77322,0.12829 4.03125,0.32755c2.61477,-2.95668 6.43577,-4.82404 10.68539,-4.82404c7.86547,0 14.25983,6.39897 14.25983,14.26536v13.55233c0,1.4606 -0.22297,2.8837 -0.64667,4.23307c1.90599,2.33408 3.09435,5.27771 3.20887,8.4818l0.0875,1.64606c0.01269,0.19962 0.01655,0.40072 0.01655,0.60401c0,0.03546 -0.04136,3.84432 -0.23472,5.28083h0.00072c-0.4169,2.9153 -1.31098,7.09104 -3.20831,10.40449c-1.30913,2.29934 -2.68719,3.93548 -3.87629,5.2915c-2.60724,2.91679 -5.53891,4.51395 -8.07225,5.69681c-4.23622,1.99955 -7.90388,2.03337 -10.58208,2.05911l-1.63411,0.03235c-0.30899,0.00827 -0.61873,0.01379 -0.92643,0.01379c-0.0011,-0.00037 -0.00185,-0.00037 -0.00275,-0.00037z" fill="none" stroke="#28a5da" stroke-width="7.5"/><path d="M23.96204,348.50967c-7.44821,0 -13.69536,-5.83558 -14.22161,-13.28102c-0.00514,-0.09704 -0.009,-0.19723 -0.01654,-0.29575c-0.12149,-2.39051 -0.28123,-7.04456 0.00827,-12.28989c0.19485,-3.42154 0.28141,-9.17696 0.28417,-9.38341c0.00037,-0.01544 0.00038,-0.02684 0.00038,-0.04228c0.05092,-3.52834 1.40653,-6.75998 3.60094,-9.23413c-1.08652,-3.78953 -1.43927,-8.30774 -0.76192,-13.62901l0.10293,-0.83398c0.3851,-3.15152 0.95878,-7.82208 3.33201,-12.31636c3.58789,-6.7861 10.1637,-10.68095 18.03946,-10.68095c0.45292,0 0.92313,0.01268 1.40214,0.04063c0.70547,0.03915 1.47715,0.12315 2.30064,0.26873c2.51754,-2.22085 5.82418,-3.57264 9.43488,-3.57264c0.04632,0 0.09833,0 0.14521,0c7.81104,0.09704 14.13873,6.5214 14.09938,14.32656c0,0.05239 -0.00054,0.10698 -0.00128,0.15902c-0.00237,0.17315 -0.71487,20.1219 -0.92992,21.54022c-0.01582,0.09871 -0.03198,0.19576 -0.04853,0.29281c-0.18823,1.0608 -0.49464,2.07565 -0.89683,3.03553c3.44801,4.05313 5.31099,9.08947 5.37292,14.77858c0.07465,7.15575 -3.19931,14.10489 -8.98728,19.06184c-4.96686,4.26066 -11.27082,6.60228 -17.74241,6.60228c-0.0011,0 0,0 -0.0011,0c-1.04902,0 -2.09697,-0.05771 -3.13974,-0.18197c-0.21268,0.27903 -0.43879,0.55475 -0.67278,0.81907c-2.52139,2.85207 -6.00726,4.55422 -9.81133,4.78784c-0.25329,0.01765 -0.5757,0.02832 -0.89204,0.02832z" fill="none" stroke="#28a5da" stroke-width="7.5"/><path d="M54.07765,317.50882c0.03989,3.86122 -1.81959,7.68863 -5.0939,10.48998c-3.66766,3.14289 -8.44834,4.4895 -13.11449,3.70939c-3.61785,-0.61064 -6.61643,-2.03814 -8.90272,-3.50976c-0.02261,3.38752 0.13601,5.80874 0.13601,5.85488c0.10569,1.71977 -1.19352,3.21127 -2.92634,3.31897c-1.72566,0.1147 -3.20668,-1.19664 -3.3267,-2.9236c-0.00864,-0.21433 -0.32737,-5.25456 0,-11.19511c0.20512,-3.69249 0.29908,-9.81408 0.29908,-9.87327c0.02243,-1.73594 1.45343,-3.11604 3.18038,-3.08461c1.72897,0.03328 3.10629,1.44883 3.08682,3.16861c-0.00315,0.06636 -0.01141,0.55548 -0.02758,1.28708c0.13217,1.64037 0.53785,4.23639 1.73081,5.88724c1.41171,1.95727 4.18897,3.64468 5.30932,4.25421c0.77497,0.27665 1.60233,0.4965 2.4714,0.63656c2.79582,0.47059 5.79864,-0.37995 8.01858,-2.2841c1.86352,-1.59755 2.91603,-3.66638 2.89434,-5.67144c-0.05313,-5.19057 -5.68689,-7.13019 -14.12326,-8.45938c-7.75463,-1.21116 -11.05135,-7.4631 -9.79202,-17.35346l0.11011,-0.881c0.61504,-5.02074 1.64312,-13.72127 11.11641,-13.20126c3.51969,0.19853 6.68518,2.60007 9.13765,5.28137c0.04854,-2.72746 0.06341,-5.41226 0.06341,-5.44864c0.00754,-1.73117 1.41483,-3.12357 3.15208,-3.12028c1.72328,0.0193 3.1129,1.42108 3.10297,3.14325c-0.00478,0.32425 -0.77808,19.88623 -0.80399,20.08034c-0.3066,1.70011 -1.93724,2.82855 -3.6322,2.52508c-1.31226,-0.23673 -2.28355,-1.25656 -2.52029,-2.49309l-0.00203,0.00128c0,0 -0.19834,-1.76683 -0.20863,-1.81407c-0.11085,-1.47953 -0.4099,-2.85229 -1.28782,-4.95752c-1.19738,-2.88995 -3.37246,-4.34392 -4.3226,-5.46355c-1.05381,-0.86046 -2.10118,-1.43136 -3.0234,-1.48945c-3.08276,-0.15899 -3.76693,1.25509 -4.56395,7.72006l-0.11396,0.89756c-0.94425,7.43311 0.95676,9.82402 4.54778,10.38502c6.276,0.98746 19.30243,3.0221 19.42872,14.58262z" fill="none" stroke="#28a5da" stroke-width="7.5"/><path d="M141.48057,325.71709c-1.43248,4.61414 -3.16052,6.58205 -5.93852,7.93697c-3.00723,1.44478 -5.90578,0.64189 -7.82814,-0.10918c-2.61091,-1.00971 -4.12593,-3.8776 -4.52058,-4.73528c-1.26686,-2.71091 -1.66499,-8.87956 -1.70322,-10.38739c-0.19375,-7.82466 -1.44993,-11.16678 -2.469,-12.58787c-0.72717,-1.03009 -1.41997,-1.25894 -2.6793,-1.47273c-0.41304,-0.07187 -1.08305,0.01344 -1.09996,0.018h-0.00514v0c-2.37637,0.72405 -5.22055,1.36998 -8.20792,1.85323l0.08197,17.95859l4.53398,-0.67185c1.70325,-0.23914 3.30003,0.94298 3.54781,2.66072c0.25274,1.70488 -0.93507,3.29121 -2.63923,3.54101l-15.10446,2.21682c-1.70911,0.24502 -3.30114,-0.93765 -3.54341,-2.65394c-0.25441,-1.70212 0.92844,-3.29729 2.6383,-3.54689l4.30883,-0.62737l-0.06581,-18.2207c-0.53509,0.02336 -1.05823,0.03804 -1.57897,0.03804c-1.72621,0 -3.12945,-1.40987 -3.12945,-3.13112c0,-1.73357 1.40324,-3.12597 3.12945,-3.12597c0.51009,0 1.02733,-0.01579 1.54809,-0.04686l-0.06195,-14.57437c-1.64993,0.15312 -3.29196,0.34796 -4.89575,0.5827c-1.71003,0.2588 -3.30483,-0.91613 -3.54505,-2.63387c-0.25844,-1.70673 0.9178,-3.30502 2.63481,-3.55243c6.76752,-0.99977 29.24832,-3.58477 34.36629,5.12938c2.03979,3.4877 1.13122,7.78734 -2.7074,12.76377c-0.02206,0.03107 -0.041,0.04999 -0.06379,0.07444c-0.141,0.18823 -1.40895,1.67605 -3.15115,2.82103c2.58096,2.7859 4.17851,7.83678 4.41874,17.02755c0.05405,2.48921 0.6281,6.84841 1.11613,7.8978c0.32352,0.68656 0.89059,1.42273 1.09958,1.54663c1.36041,0.52957 2.20947,0.61908 2.83718,0.31523c0.63564,-0.3022 1.54809,-0.44059 2.69197,-4.15809c0.49981,-1.64275 2.26018,-2.57506 3.91765,-2.06645c1.64882,0.51083 2.57911,2.26607 2.06738,3.9204zM124.0365,288.91136c0,-0.31084 -0.0548,-0.57332 -0.18383,-0.77845c-1.39589,-2.39089 -8.61873,-3.31879 -16.89612,-3.09088l0.05753,14.23743c3.14178,-0.57608 6.06296,-1.39755 8.26948,-2.18263l1.59093,-0.50731c1.01467,-0.31084 2.06611,-0.6246 2.83555,-1.0768c0.83086,-0.49503 1.62933,-1.33819 1.908,-1.66371c1.56703,-2.02877 2.4181,-3.79468 2.41846,-4.93766z" fill="none" stroke="#28a5da" stroke-width="7.5"/><path d="M255.16429,315.02637c0,0 0.09742,1.26045 0.08804,1.30895c0,0 -0.10146,3.45627 -0.11453,3.56951c-0.09742,0.70217 -0.65291,4.343 -1.85506,6.45228c-0.80971,1.41243 -1.68119,2.45283 -2.58223,3.47227c-1.2468,1.40031 -2.94013,2.26939 -4.42169,2.96458c-2.0784,0.97643 -3.89725,0.99022 -6.01389,1.00877l-1.75654,0.0193c-11.70902,0.37609 -15.41658,-8.79371 -15.74045,-13.69077c-0.00404,-0.03952 -0.12152,-5.77568 -0.12152,-5.77568c0,0 0.11746,-8.68067 0.12152,-8.73748c0.55586,-7.80371 2.69032,-12.75072 6.53518,-15.11641c4.90842,-3.0324 10.91569,-0.5294 12.89116,0.29668c1.53118,0.64115 2.91548,1.506 4.12719,2.44934v-5.57327c0,-1.72014 1.41482,-3.12597 3.13221,-3.12597c1.7376,0 3.13386,1.40582 3.13386,3.12597v13.56464c0,1.4038 -0.93066,2.62377 -2.28005,3.0052c-1.34185,0.37241 -2.78186,-0.18179 -3.51381,-1.37328c-0.02996,-0.0364 -2.8541,-4.56413 -7.00538,-6.29531c-3.37411,-1.40653 -5.72824,-1.65508 -7.20152,-0.73672c-1.91148,1.1687 -3.1789,4.78471 -3.57134,10.16151c-0.00405,0.22996 -0.09834,8.28677 -0.09834,8.38621c0,0.10938 0.09429,5.15677 0.09834,5.3709c0.13087,1.44956 1.15913,8.07114 9.29923,7.80922l1.90378,-0.02464c1.81996,-0.01967 2.59472,-0.03456 3.39838,-0.40513c0.711,-0.34005 1.90139,-0.89481 2.39143,-1.45195c0.87111,-0.99297 1.36227,-1.60966 1.83228,-2.43115c0.42371,-0.73269 0.87771,-2.794 1.07662,-4.08768c0.01029,-0.35089 0.07775,-2.82303 0.07775,-2.94841c0,-0.12664 -0.08364,-1.12126 -0.08364,-1.13836c0,-1.70673 1.36429,-3.10684 3.06788,-3.12871c1.73632,-0.02996 3.1587,1.35563 3.18517,3.07559z" fill="none" stroke="#28a5da" stroke-width="7.5"/><path d="M185.68247,310.44847c0.5816,1.62437 -0.26158,3.41987 -1.88486,4.00772c-5.8387,2.08942 -11.75132,4.89079 -13.14205,6.76643c-1.03524,1.38946 -3.00207,1.68062 -4.38049,0.64574c-1.39113,-1.02661 -1.68706,-2.98222 -0.65567,-4.37773c1.10344,-1.48119 2.57708,-2.3341 4.93636,-3.68421l-3.09858,-7.66198l-14.47492,2.39877l-0.71613,4.77167c2.23152,0 3.24028,1.56262 3.16272,3.29856c-0.08639,1.71995 -1.55177,3.05225 -3.27632,2.97761l-15.58,-0.73894c-1.72492,-0.0805 -3.06586,-1.53834 -2.99141,-3.26125c0.07943,-1.73209 1.55029,-3.06125 3.27468,-2.98663l9.07993,0.44059c1.44883,-7.09143 6.06957,-30.41445 7.22964,-36.11992c-4.04597,0.54631 -9.03931,1.2641 -9.03931,1.2641c-1.71665,0.22003 -3.28846,-0.97219 -3.51804,-2.68995c-0.22225,-1.7093 0.96851,-3.287 2.68168,-3.5197l13.41541,-1.84458c0.99977,-0.13879 2.0091,0.22574 2.70502,0.96834c0.20274,0.21526 0.85933,1.21705 0.97643,1.52052l11.76787,28.45132c0.13787,0.24025 4.02482,9.9365 4.02482,9.9365c2.78148,-1.22238 4.57461,-2.12215 5.50177,-2.45137c1.62161,-0.58141 3.41987,0.26764 4.00148,1.88834zM165.03982,301.73747l-6.88407,-17.00936l-3.83844,18.78795z" fill="none" stroke="#28a5da" stroke-width="7.5"/><path d="M221.72237,277.94678c0.64427,0.64813 0.9643,1.5378 0.89719,2.45248c-0.34062,4.4827 -0.40293,11.49452 -0.3998,11.54692c0.07389,1.28027 -0.54943,2.58464 -1.71188,3.12431c-1.49369,0.70586 -3.18275,0.32241 -3.97886,-1.1244c-0.2726,-0.47185 -0.63049,-1.10712 -0.63049,-4.4544c0,-1.42623 0.07739,-3.3879 0.23639,-5.98905c-3.16144,0.17278 -7.77485,0.42922 -13.16467,0.57957l0.08088,40.90663l6.2262,-0.09541c1.72546,-0.01304 3.14767,1.35675 3.1745,3.09067c0.02297,1.72143 -1.36117,3.15555 -3.08682,3.17174l-19.06569,0.28527c-1.7218,0.02133 -3.13553,-1.35876 -3.16936,-3.09398c-0.02572,-1.71977 1.356,-3.14325 3.08258,-3.1732l6.57728,-0.08494l-0.08088,-40.88568c0,0 -12.4375,0.2226 -13.24978,0.22645c0.63636,4.29135 1.89422,12.17906 1.89422,12.32263c0,1.52457 -1.11064,2.86128 -2.66588,3.0949c-1.70967,0.25274 -3.29875,-0.92165 -3.55922,-2.63167l-2.39329,-15.40318c-0.13622,-0.89169 0.13254,-1.79716 0.71761,-2.48004c0.58399,-0.702 1.43964,-1.09923 2.3475,-1.10583l19.97431,-0.33344c10.24899,-0.19686 19.41421,-0.8542 19.51125,-0.86761c0.9027,-0.05606 1.80214,0.27389 2.43667,0.92128z" fill="none" stroke="#28a5da" stroke-width="7.5"/><path d="M90.59882,318.31726l0.09356,1.78685c0,0.04173 -0.10367,3.58789 -0.12113,3.70663c-0.10016,0.70181 -0.6463,4.34264 -1.85193,6.45265c-0.80162,1.40859 -1.6775,2.44732 -2.57783,3.46843c-1.25618,1.40729 -2.93627,2.27103 -4.4248,2.96605c-2.0784,0.97974 -3.90075,0.98875 -6.01444,1.00897l-1.75765,0.03546c-11.71144,0.35073 -15.41531,-8.80291 -15.74286,-13.71023c-0.00441,-0.03952 -0.00441,-0.08473 -0.00441,-0.13491l-0.11396,-5.52991v-0.11011l0.11396,-8.56342c0,-0.05017 0,-0.10881 0.00441,-0.17039c0.56063,-7.80718 2.69897,-12.75478 6.5431,-15.11845c4.90604,-3.02285 10.91716,-0.52625 12.88601,0.29761c1.53873,0.63398 2.91879,1.50543 4.13509,2.44804v-5.56334c0,-1.73044 1.39591,-3.13351 3.13223,-3.13351c1.72346,0 3.128,1.40305 3.128,3.13351v13.55233c0,1.4062 -0.93233,2.63002 -2.28207,3.00757c-1.34461,0.38713 -2.78462,-0.18179 -3.52154,-1.3674c-0.01783,-0.04851 -2.85025,-4.56286 -7.00153,-6.30084c-3.37173,-1.40453 -5.72915,-1.65543 -7.196,-0.73542c-1.91443,1.16705 -3.17651,4.78342 -3.57061,10.15891c0,0.23051 -0.1046,8.28897 -0.11323,8.3932c0.00864,0.09852 0.11048,5.15344 0.11323,5.36758c0.13142,1.46024 1.15602,8.06288 9.29646,7.81309l1.91114,-0.03071c1.82013,-0.01783 2.5883,-0.03567 3.38992,-0.41469c0.71412,-0.32516 1.90175,-0.88617 2.38665,-1.44643c0.85051,-0.9564 1.37421,-1.6049 1.84165,-2.42803c0.4246,-0.73269 0.87423,-2.794 1.07164,-4.08695c0.01065,-0.3599 0.07812,-2.81513 0.07961,-2.94215c0,-0.13181 -0.08567,-1.74313 -0.08567,-1.76002c0,-1.70047 1.36317,-3.10299 3.07871,-3.13459c1.72125,-0.03235 3.14638,1.35488 3.17432,3.08461z" fill="none" stroke="#28a5da" stroke-width="7.5"/><path d="M23.96204,348.50967c-7.44821,0 -13.69536,-5.83558 -14.22161,-13.28102c-0.00514,-0.09704 -0.009,-0.19723 -0.01654,-0.29575c-0.12149,-2.39051 -0.28123,-7.04456 0.00827,-12.28989c0.19485,-3.42154 0.28141,-9.17696 0.28417,-9.38341c0.00037,-0.01544 0.00038,-0.02684 0.00038,-0.04228c0.05092,-3.52834 1.40653,-6.75998 3.60094,-9.23413c-1.08652,-3.78953 -1.43927,-8.30774 -0.76192,-13.62901l0.10293,-0.83398c0.3851,-3.15152 0.95878,-7.82208 3.33201,-12.31636c3.58789,-6.7861 10.1637,-10.68095 18.03946,-10.68095c0.45292,0 0.92313,0.01268 1.40214,0.04063c0.70547,0.03915 1.47715,0.12315 2.30064,0.26873c2.51754,-2.22085 5.82418,-3.57264 9.43488,-3.57264c0.04632,0 0.09833,0 0.14521,0c7.81104,0.09704 14.13873,6.5214 14.09938,14.32656c0,0.05239 -0.00054,0.10698 -0.00128,0.15902c-0.00237,0.17315 -0.71487,20.1219 -0.92992,21.54022c-0.01582,0.09871 -0.03198,0.19576 -0.04853,0.29281c-0.18823,1.0608 -0.49464,2.07565 -0.89683,3.03553c3.44801,4.05313 5.31099,9.08947 5.37292,14.77858c0.07465,7.15575 -3.19931,14.10489 -8.98728,19.06184c-4.96686,4.26066 -11.27082,6.60228 -17.74241,6.60228c-0.0011,0 0,0 -0.0011,0c-1.04902,0 -2.09697,-0.05771 -3.13974,-0.18197c-0.21268,0.27903 -0.43879,0.55475 -0.67278,0.81907c-2.52139,2.85207 -6.00726,4.55422 -9.81133,4.78784c-0.25329,0.01765 -0.5757,0.02832 -0.89204,0.02832z" fill="#f7f8f9" stroke="none" stroke-width="7.5"/><path d="M54.07765,317.50882c0.03989,3.86122 -1.81959,7.68863 -5.0939,10.48998c-3.66766,3.14289 -8.44834,4.4895 -13.11449,3.70939c-3.61785,-0.61064 -6.61643,-2.03814 -8.90272,-3.50976c-0.02261,3.38752 0.13601,5.80874 0.13601,5.85488c0.10569,1.71977 -1.19352,3.21127 -2.92634,3.31897c-1.72566,0.1147 -3.20668,-1.19664 -3.3267,-2.9236c-0.00864,-0.21433 -0.32737,-5.25456 0,-11.19511c0.20512,-3.69249 0.29908,-9.81408 0.29908,-9.87327c0.02243,-1.73594 1.45343,-3.11604 3.18038,-3.08461c1.72897,0.03328 3.10629,1.44883 3.08682,3.16861c-0.00315,0.06636 -0.01141,0.55548 -0.02758,1.28708c0.13217,1.64037 0.53785,4.23639 1.73081,5.88724c1.41171,1.95727 4.18897,3.64468 5.30932,4.25421c0.77497,0.27665 1.60233,0.4965 2.4714,0.63656c2.79582,0.47059 5.79864,-0.37995 8.01858,-2.2841c1.86352,-1.59755 2.91603,-3.66638 2.89434,-5.67144c-0.05313,-5.19057 -5.68689,-7.13019 -14.12326,-8.45938c-7.75463,-1.21116 -11.05135,-7.4631 -9.79202,-17.35346l0.11011,-0.881c0.61504,-5.02074 1.64312,-13.72127 11.11641,-13.20126c3.51969,0.19853 6.68518,2.60007 9.13765,5.28137c0.04854,-2.72746 0.06341,-5.41226 0.06341,-5.44864c0.00754,-1.73117 1.41483,-3.12357 3.15208,-3.12028c1.72328,0.0193 3.1129,1.42108 3.10297,3.14325c-0.00478,0.32425 -0.77808,19.88623 -0.80399,20.08034c-0.3066,1.70011 -1.93724,2.82855 -3.6322,2.52508c-1.31226,-0.23673 -2.28355,-1.25656 -2.52029,-2.49309l-0.00203,0.00128c0,0 -0.19834,-1.76683 -0.20863,-1.81407c-0.11085,-1.47953 -0.4099,-2.85229 -1.28782,-4.95752c-1.19738,-2.88995 -3.37246,-4.34392 -4.3226,-5.46355c-1.05381,-0.86046 -2.10118,-1.43136 -3.0234,-1.48945c-3.08276,-0.15899 -3.76693,1.25509 -4.56395,7.72006l-0.11396,0.89756c-0.94425,7.43311 0.95676,9.82402 4.54778,10.38502c6.276,0.98746 19.30243,3.0221 19.42872,14.58262z" fill="#f7f8f9" stroke="none" stroke-width="7.5"/><path d="M131.9935,345.5892c-2.70797,-0.00311 -5.43083,-0.54722 -8.31361,-1.66683c-2.55357,-0.98709 -4.58969,-2.49033 -6.18336,-4.09026c-1.05694,0.43012 -2.16995,0.73583 -3.3278,0.90475l-15.10135,2.21534c-0.71026,0.10016 -1.39002,0.14869 -2.06554,0.14869c-7.04877,0 -13.11798,-5.26152 -14.11848,-12.24208c-0.54722,-3.71967 0.39795,-7.47779 2.6734,-10.53538c1.13984,-1.53284 2.54344,-2.79252 4.13346,-3.741l-0.0101,-2.18134c-2.90188,-2.61312 -4.73343,-6.39989 -4.73343,-10.60412c0,-3.09049 0.98949,-5.95396 2.66478,-8.29486c-3.36382,-2.18336 -5.7878,-5.74992 -6.38373,-9.94313c-0.55107,-3.69322 0.39264,-7.46456 2.67397,-10.53409c2.28005,-3.06403 5.61428,-5.05144 9.39737,-5.597c3.15354,-0.46469 9.52071,-1.2582 16.29651,-1.2582c15.03591,0 24.6081,3.8511 29.25698,11.77262c2.42764,4.14301 5.19498,12.47299 -2.0547,23.21074c0.68325,2.19806 1.19499,4.63985 1.54349,7.37394c0.0489,0 0.09779,0 0.14669,0c1.41997,0 2.82799,0.20882 4.18604,0.62902c7.54158,2.33244 11.76324,10.33722 9.44224,17.85123c-2.26387,7.29749 -5.87051,11.81527 -11.69783,14.65358c-2.67212,1.28927 -5.48874,1.92897 -8.42022,1.92897c0.00037,-0.00055 0.00038,-0.00055 -0.00477,-0.00055z" fill="#f7f8f9" stroke="none" stroke-width="7.5"/><path d="M141.48057,325.71709c-1.43248,4.61414 -3.16052,6.58205 -5.93852,7.93697c-3.00723,1.44478 -5.90578,0.64189 -7.82814,-0.10918c-2.61091,-1.00971 -4.12593,-3.8776 -4.52058,-4.73528c-1.26686,-2.71091 -1.66499,-8.87956 -1.70322,-10.38739c-0.19375,-7.82466 -1.44993,-11.16678 -2.469,-12.58787c-0.72717,-1.03009 -1.41997,-1.25894 -2.6793,-1.47273c-0.41304,-0.07187 -1.08305,0.01344 -1.09996,0.018h-0.00514v0c-2.37637,0.72405 -5.22055,1.36998 -8.20792,1.85323l0.08197,17.95859l4.53398,-0.67185c1.70325,-0.23914 3.30003,0.94298 3.54781,2.66072c0.25274,1.70488 -0.93507,3.29121 -2.63923,3.54101l-15.10446,2.21682c-1.70911,0.24502 -3.30114,-0.93765 -3.54341,-2.65394c-0.25441,-1.70212 0.92844,-3.29729 2.6383,-3.54689l4.30883,-0.62737l-0.06581,-18.2207c-0.53509,0.02336 -1.05823,0.03804 -1.57897,0.03804c-1.72621,0 -3.12945,-1.40987 -3.12945,-3.13112c0,-1.73357 1.40324,-3.12597 3.12945,-3.12597c0.51009,0 1.02733,-0.01579 1.54809,-0.04686l-0.06195,-14.57437c-1.64993,0.15312 -3.29196,0.34796 -4.89575,0.5827c-1.71003,0.2588 -3.30483,-0.91613 -3.54505,-2.63387c-0.25844,-1.70673 0.9178,-3.30502 2.63481,-3.55243c6.76752,-0.99977 29.24832,-3.58477 34.36629,5.12938c2.03979,3.4877 1.13122,7.78734 -2.7074,12.76377c-0.02206,0.03107 -0.041,0.04999 -0.06379,0.07444c-0.141,0.18823 -1.40895,1.67605 -3.15115,2.82103c2.58096,2.7859 4.17851,7.83678 4.41874,17.02755c0.05405,2.48921 0.6281,6.84841 1.11613,7.8978c0.32352,0.68656 0.89059,1.42273 1.09958,1.54663c1.36041,0.52957 2.20947,0.61908 2.83718,0.31523c0.63564,-0.3022 1.54809,-0.44059 2.69197,-4.15809c0.49981,-1.64275 2.26018,-2.57506 3.91765,-2.06645c1.64882,0.51083 2.57911,2.26607 2.06738,3.9204zM124.0365,288.91136c0,-0.31084 -0.0548,-0.57332 -0.18383,-0.77845c-1.39589,-2.39089 -8.61873,-3.31879 -16.89612,-3.09088l0.05753,14.23743c3.14178,-0.57608 6.06296,-1.39755 8.26948,-2.18263l1.59093,-0.50731c1.01467,-0.31084 2.06611,-0.6246 2.83555,-1.0768c0.83086,-0.49503 1.62933,-1.33819 1.908,-1.66371c1.56703,-2.02877 2.4181,-3.79468 2.41846,-4.93766z" fill="#f7f8f9" stroke="none" stroke-width="7.5"/><path d="M237.81597,344.96513c-16.13182,0 -25.37204,-12.12979 -26.15398,-24.10794h0.00514c-0.03622,-0.75364 -0.06857,-2.2749 -0.15109,-6.2716c-0.0011,-0.12866 -0.0044,-0.25366 -0.0011,-0.38233c0.10092,-7.37671 0.11985,-8.81193 0.1522,-9.37256h-0.00112c0.81229,-11.48074 4.7825,-19.49032 11.80609,-23.80886c3.33073,-2.06313 7.13334,-3.11145 11.27248,-3.11145c1.4174,0 2.77083,0.1239 4.02849,0.3239c2.61276,-2.95191 6.43374,-4.81763 10.6806,-4.81763c7.86637,0 14.26573,6.39696 14.26573,14.25782v13.56464c0,1.61961 -0.27647,3.19141 -0.79189,4.6647c1.96205,2.32268 3.19987,5.26944 3.35097,8.48419c0.08512,1.08727 0.13217,1.78373 0.09704,2.51587c-0.109,3.64873 -0.11453,3.68587 -0.16966,4.1842c-0.00826,0.11874 -0.02332,0.24263 -0.04338,0.35971c-0.3303,2.37196 -1.19113,6.8804 -3.20851,10.42067c-1.29921,2.26847 -2.64934,3.90424 -3.91896,5.33837c-2.55541,2.87819 -5.49516,4.47809 -8.03991,5.66683c-4.24319,1.99512 -7.90295,2.03263 -10.57949,2.05984l-1.68633,0.01783c-0.30623,0.00754 -0.61395,0.01379 -0.91338,0.01379z" fill="#f7f8f9" stroke="none" stroke-width="7.5"/><path d="M255.16429,315.02637c0,0 0.09742,1.26045 0.08804,1.30895c0,0 -0.10146,3.45627 -0.11453,3.56951c-0.09742,0.70217 -0.65291,4.343 -1.85506,6.45228c-0.80971,1.41243 -1.68119,2.45283 -2.58223,3.47227c-1.2468,1.40031 -2.94013,2.26939 -4.42169,2.96458c-2.0784,0.97643 -3.89725,0.99022 -6.01389,1.00877l-1.75654,0.0193c-11.70902,0.37609 -15.41658,-8.79371 -15.74045,-13.69077c-0.00404,-0.03952 -0.12152,-5.77568 -0.12152,-5.77568c0,0 0.11746,-8.68067 0.12152,-8.73748c0.55586,-7.80371 2.69032,-12.75072 6.53518,-15.11641c4.90842,-3.0324 10.91569,-0.5294 12.89116,0.29668c1.53118,0.64115 2.91548,1.506 4.12719,2.44934v-5.57327c0,-1.72014 1.41482,-3.12597 3.13221,-3.12597c1.7376,0 3.13386,1.40582 3.13386,3.12597v13.56464c0,1.4038 -0.93066,2.62377 -2.28005,3.0052c-1.34185,0.37241 -2.78186,-0.18179 -3.51381,-1.37328c-0.02996,-0.0364 -2.8541,-4.56413 -7.00538,-6.29531c-3.37411,-1.40653 -5.72824,-1.65508 -7.20152,-0.73672c-1.91148,1.1687 -3.1789,4.78471 -3.57134,10.16151c-0.00405,0.22996 -0.09834,8.28677 -0.09834,8.38621c0,0.10938 0.09429,5.15677 0.09834,5.3709c0.13087,1.44956 1.15913,8.07114 9.29923,7.80922l1.90378,-0.02464c1.81996,-0.01967 2.59472,-0.03456 3.39838,-0.40513c0.711,-0.34005 1.90139,-0.89481 2.39143,-1.45195c0.87111,-0.99297 1.36227,-1.60966 1.83228,-2.43115c0.42371,-0.73269 0.87771,-2.794 1.07662,-4.08768c0.01029,-0.35089 0.07775,-2.82303 0.07775,-2.94841c0,-0.12664 -0.08364,-1.12126 -0.08364,-1.13836c0,-1.70673 1.36429,-3.10684 3.06788,-3.12871c1.73632,-0.02996 3.1587,1.35563 3.18517,3.07559z" fill="#f7f8f9" stroke="none" stroke-width="7.5"/><path d="M282.29706,349.98163c-3.3618,0 -6.59032,-1.2628 -9.08507,-3.55866c-1.00492,-0.9178 -1.84678,-1.94753 -2.52379,-3.05925l-11.76437,-0.19723c-7.83881,-0.13583 -14.12693,-6.61571 -14.02584,-14.44219c0.09816,-5.7093 3.56859,-10.62011 8.46156,-12.83234l0.03915,-21.8619c-4.8836,-2.26736 -8.28346,-7.21843 -8.28346,-12.95311c0,-7.86269 6.39788,-14.26168 14.25948,-14.26168h13.40879c2.56054,-3.10832 6.41681,-5.13063 10.75393,-5.21556c0,0 16.48676,-0.28198 16.55147,-0.28198c7.73569,0 14.13468,6.2909 14.2661,14.02787c0.08436,5.64735 -3.12395,10.58666 -7.83991,12.97516c0.09541,15.49067 0.1522,25.2248 0.18142,31.63811c4.32297,2.22985 7.39214,6.6168 7.72283,11.76747c0.5018,7.85297 -5.46923,14.65044 -13.31466,15.15191c-6.47159,0.42371 -10.59989,1.15602 -11.75755,1.48413c-0.22573,0.0932 -0.4509,0.17719 -0.68178,0.25145c-1.43064,0.54482 -3.59029,1.36777 -6.36829,1.36777z" fill="#f7f8f9" stroke="none" stroke-width="7.5"/><path d="M300.38912,335.77237c-7.47411,0.48381 -13.4336,1.46023 -15.24033,2.28004l0.02336,-0.01619c-1.76867,0.65531 -3.17043,1.34811 -4.4283,0.18897c-1.26262,-1.1481 -1.3948,-3.06788 -0.26673,-4.343c1.73487,-1.94716 4.59317,-2.28242 8.85825,-3.0892c0,-4.2035 -0.04705,-12.07227 -0.109,-23.87045l-18.46314,3.08166l-0.03365,15.97097l5.39221,0.08639c1.72291,0.02336 3.10059,1.4413 3.07468,3.17559c-0.02721,1.72621 -1.45029,3.1074 -3.17854,3.08295l-16.91029,-0.28364c-1.72805,-0.02996 -3.10023,-1.45067 -3.07983,-3.16458c0.03123,-1.74312 1.45601,-3.12323 3.18002,-3.09399l5.26558,0.09154l0.07426,-41.65422h-5.17365c-1.72842,0 -3.12634,-1.40472 -3.12634,-3.13829c0,-1.72566 1.39791,-3.1302 3.12634,-3.1302h16.43878c1.73284,0 3.13865,1.40454 3.13865,3.1302c0,1.73357 -1.40582,3.13829 -3.13865,3.13829h-5.00381l-0.03365,19.44749l18.41168,-3.0778c-0.04465,-7.46549 -0.08142,-14.8453 -0.13069,-21.69094l-5.20364,0.09429c-1.72125,0.034 -3.15151,-1.35049 -3.1732,-3.07689c-0.0296,-1.73006 1.34112,-3.14764 3.07468,-3.18553l16.29248,-0.27665c1.72639,-0.02444 3.1515,1.35839 3.17834,3.08257c0.02536,1.72603 -1.35709,3.15977 -3.07891,3.18902l-4.8202,0.06783c0.21433,34.98061 0.26984,45.75864 0.26433,51.1082c1.70378,-0.18273 3.23368,-0.29835 4.39797,-0.37684c1.72418,-0.11159 3.21365,1.20217 3.3245,2.9236c0.11085,1.72843 -1.19829,3.21511 -2.92358,3.32871z" fill="#f7f8f9" stroke="none" stroke-width="7.5"/><path d="M168.13415,333.62375c-3.09801,-0.00166 -6.04715,-0.98083 -8.52791,-2.84198c-0.5382,-0.3952 -1.0404,-0.82532 -1.51152,-1.28138c-1.77345,0.78672 -3.73751,1.22659 -5.79736,1.22659c-0.21433,0 -0.4281,-0.00477 -0.64354,-0.01544l-15.60794,-0.73895c-7.8434,-0.3645 -13.93946,-7.04527 -13.58432,-14.88905c0.34355,-7.62797 6.60174,-13.61243 14.25343,-13.61243c0.06471,0 0.13069,0 0.19613,0.00128c0.71652,-3.58992 2.4646,-12.35552 2.54915,-12.77756c-5.16814,-1.62824 -9.14223,-6.13041 -9.88687,-11.72411c-1.02221,-7.78861 4.4623,-14.96532 12.21785,-16.0219l13.39849,-1.84219c0.63674,-0.08639 1.28927,-0.13126 1.92969,-0.13126c3.92685,0 7.71877,1.64403 10.41148,4.51544c0.97919,1.03801 2.38776,3.07669 3.14214,4.8792l11.75922,28.42393c0.05513,0.13088 0.11874,0.27921 0.18897,0.452c0.03621,-0.00037 0.07703,-0.00037 0.11213,-0.00037c6.00213,0 11.3973,3.79321 13.4277,9.44462c2.63629,7.3857 -1.20491,15.55611 -8.55991,18.23044c-4.69943,1.67825 -7.7081,3.21787 -8.79391,3.90424c-2.68756,3.02468 -6.592,4.79923 -10.67195,4.79923c0,-0.00037 0,-0.00036 -0.00112,-0.00036z" fill="#f7f8f9" stroke="none" stroke-width="7.5"/><path d="M185.68247,310.44847c0.5816,1.62437 -0.26158,3.41987 -1.88486,4.00772c-5.8387,2.08942 -11.75132,4.89079 -13.14205,6.76643c-1.03524,1.38946 -3.00207,1.68062 -4.38049,0.64574c-1.39113,-1.02661 -1.68706,-2.98222 -0.65567,-4.37773c1.10344,-1.48119 2.57708,-2.3341 4.93636,-3.68421l-3.09858,-7.66198l-14.47492,2.39877l-0.71613,4.77167c2.23152,0 3.24028,1.56262 3.16272,3.29856c-0.08639,1.71995 -1.55177,3.05225 -3.27632,2.97761l-15.58,-0.73894c-1.72492,-0.0805 -3.06586,-1.53834 -2.99141,-3.26125c0.07943,-1.73209 1.55029,-3.06125 3.27468,-2.98663l9.07993,0.44059c1.44883,-7.09143 6.06957,-30.41445 7.22964,-36.11992c-4.04597,0.54631 -9.03931,1.2641 -9.03931,1.2641c-1.71665,0.22003 -3.28846,-0.97219 -3.51804,-2.68995c-0.22225,-1.7093 0.96851,-3.287 2.68168,-3.5197l13.41541,-1.84458c0.99977,-0.13879 2.0091,0.22574 2.70502,0.96834c0.20274,0.21526 0.85933,1.21705 0.97643,1.52052l11.76787,28.45132c0.13787,0.24025 4.02482,9.9365 4.02482,9.9365c2.78148,-1.22238 4.57461,-2.12215 5.50177,-2.45137c1.62161,-0.58141 3.41987,0.26764 4.00148,1.88834zM165.03982,301.73747l-6.88407,-17.00936l-3.83844,18.78795z" fill="#f7f8f9" stroke="none" stroke-width="7.5"/><path d="M190.25984,342.57222c-7.72667,0 -14.12566,-6.29641 -14.25892,-14.03136c-0.09595,-6.33521 3.95681,-11.7754 9.63541,-13.72641l-0.00826,-4.2136c-0.42222,0.10164 -0.85272,0.18564 -1.28744,0.25128c-0.70106,0.10772 -1.41795,0.16101 -2.12067,0.16101c-7.11107,0 -13.03949,-5.10823 -14.09771,-12.14083l-2.38685,-15.35317c-0.63324,-4.06876 0.54041,-8.22024 3.22138,-11.38277c2.64144,-3.14876 6.56072,-4.99443 10.71772,-5.04187l19.91475,-0.33288c9.67606,-0.18345 18.31001,-0.79352 18.77563,-0.82588c0.06672,-0.00938 0.13381,-0.01344 0.20274,-0.01655c0.30791,-0.01857 0.61634,-0.03105 0.92128,-0.03105c3.81562,0 7.52595,1.55562 10.18466,4.26726c2.86439,2.87688 4.35918,6.94234 4.04485,11.08461c-0.26873,3.54874 -0.35348,9.1599 -0.3658,10.52068c0.15899,5.77565 -2.99931,11.00136 -8.14082,13.39811c-1.90211,0.89609 -4.05551,1.38689 -6.18447,1.38689v0c-1.6922,0 -3.34488,-0.30901 -4.88123,-0.87828l0.01727,8.95217c5.41042,1.97969 9.33213,7.15482 9.41576,13.21063c0.05956,3.81123 -1.38284,7.42524 -4.05551,10.16094c-2.66826,2.73188 -6.2385,4.26066 -10.05489,4.2954c0.00037,0.00074 -19.15595,0.28564 -19.20888,0.28564z" fill="#f7f8f9" stroke="none" stroke-width="7.5"/><path d="M221.72237,277.94678c0.64427,0.64813 0.9643,1.5378 0.89719,2.45248c-0.34062,4.4827 -0.40293,11.49452 -0.3998,11.54692c0.07389,1.28027 -0.54943,2.58464 -1.71188,3.12431c-1.49369,0.70586 -3.18275,0.32241 -3.97886,-1.1244c-0.2726,-0.47185 -0.63049,-1.10712 -0.63049,-4.4544c0,-1.42623 0.07739,-3.3879 0.23639,-5.98905c-3.16144,0.17278 -7.77485,0.42922 -13.16467,0.57957l0.08088,40.90663l6.2262,-0.09541c1.72546,-0.01304 3.14767,1.35675 3.1745,3.09067c0.02297,1.72143 -1.36117,3.15555 -3.08682,3.17174l-19.06569,0.28527c-1.7218,0.02133 -3.13553,-1.35876 -3.16936,-3.09398c-0.02572,-1.71977 1.356,-3.14325 3.08258,-3.1732l6.57728,-0.08494l-0.08088,-40.88568c0,0 -12.4375,0.2226 -13.24978,0.22645c0.63636,4.29135 1.89422,12.17906 1.89422,12.32263c0,1.52457 -1.11064,2.86128 -2.66588,3.0949c-1.70967,0.25274 -3.29875,-0.92165 -3.55922,-2.63167l-2.39329,-15.40318c-0.13622,-0.89169 0.13254,-1.79716 0.71761,-2.48004c0.58399,-0.702 1.43964,-1.09923 2.3475,-1.10583l19.97431,-0.33344c10.24899,-0.19686 19.41421,-0.8542 19.51125,-0.86761c0.9027,-0.05606 1.80214,0.27389 2.43667,0.92128z" fill="#f7f8f9" stroke="none" stroke-width="7.5"/><path d="M73.28729,348.88336c-16.06012,-0.00404 -25.29742,-12.00277 -26.18193,-23.92375c-0.02721,-0.36377 -0.03789,-0.6711 -0.04025,-0.91522l-0.11359,-5.78723c0,-0.04999 0.11359,-8.66671 0.11359,-8.66671c0.00073,-0.2684 0.01341,-0.5667 0.03438,-0.87404c0.82533,-11.47155 4.79796,-19.47744 11.81087,-23.79176c3.34453,-2.06111 7.14032,-3.10594 11.27045,-3.10594c1.41869,0 2.77322,0.12829 4.03125,0.32755c2.61477,-2.95668 6.43577,-4.82404 10.68539,-4.82404c7.86547,0 14.25983,6.39897 14.25983,14.26536v13.55233c0,1.4606 -0.22297,2.8837 -0.64667,4.23307c1.90599,2.33408 3.09435,5.27771 3.20887,8.4818l0.0875,1.64606c0.01269,0.19962 0.01655,0.40072 0.01655,0.60401c0,0.03546 -0.04136,3.84432 -0.23472,5.28083h0.00072c-0.4169,2.9153 -1.31098,7.09104 -3.20831,10.40449c-1.30913,2.29934 -2.68719,3.93548 -3.87629,5.2915c-2.60724,2.91679 -5.53891,4.51395 -8.07225,5.69681c-4.23622,1.99955 -7.90388,2.03337 -10.58208,2.05911l-1.63411,0.03235c-0.30899,0.00827 -0.61873,0.01379 -0.92643,0.01379c-0.0011,-0.00037 -0.00185,-0.00037 -0.00275,-0.00037z" fill="#f7f8f9" stroke="none" stroke-width="7.5"/><path d="M90.59882,318.31726l0.09356,1.78685c0,0.04173 -0.10367,3.58789 -0.12113,3.70663c-0.10016,0.70181 -0.6463,4.34264 -1.85193,6.45265c-0.80162,1.40859 -1.6775,2.44732 -2.57783,3.46843c-1.25618,1.40729 -2.93627,2.27103 -4.4248,2.96605c-2.0784,0.97974 -3.90075,0.98875 -6.01444,1.00897l-1.75765,0.03546c-11.71144,0.35073 -15.41531,-8.80291 -15.74286,-13.71023c-0.00441,-0.03952 -0.00441,-0.08473 -0.00441,-0.13491l-0.11396,-5.52991v-0.11011l0.11396,-8.56342c0,-0.05017 0,-0.10881 0.00441,-0.17039c0.56063,-7.80718 2.69897,-12.75478 6.5431,-15.11845c4.90604,-3.02285 10.91716,-0.52625 12.88601,0.29761c1.53873,0.63398 2.91879,1.50543 4.13509,2.44804v-5.56334c0,-1.73044 1.39591,-3.13351 3.13223,-3.13351c1.72346,0 3.128,1.40305 3.128,3.13351v13.55233c0,1.4062 -0.93233,2.63002 -2.28207,3.00757c-1.34461,0.38713 -2.78462,-0.18179 -3.52154,-1.3674c-0.01783,-0.04851 -2.85025,-4.56286 -7.00153,-6.30084c-3.37173,-1.40453 -5.72915,-1.65543 -7.196,-0.73542c-1.91443,1.16705 -3.17651,4.78342 -3.57061,10.15891c0,0.23051 -0.1046,8.28897 -0.11323,8.3932c0.00864,0.09852 0.11048,5.15344 0.11323,5.36758c0.13142,1.46024 1.15602,8.06288 9.29646,7.81309l1.91114,-0.03071c1.82013,-0.01783 2.5883,-0.03567 3.38992,-0.41469c0.71412,-0.32516 1.90175,-0.88617 2.38665,-1.44643c0.85051,-0.9564 1.37421,-1.6049 1.84165,-2.42803c0.4246,-0.73269 0.87423,-2.794 1.07164,-4.08695c0.01065,-0.3599 0.07812,-2.81513 0.07961,-2.94215c0,-0.13181 -0.08567,-1.74313 -0.08567,-1.76002c0,-1.70047 1.36317,-3.10299 3.07871,-3.13459c1.72125,-0.03235 3.14638,1.35488 3.17432,3.08461z" fill="#f7f8f9" stroke="none" stroke-width="7.5"/><path d="M54.07765,317.50882c0.03989,3.86122 -1.81959,7.68863 -5.0939,10.48998c-3.66766,3.14289 -8.44834,4.4895 -13.11449,3.70939c-3.61785,-0.61064 -6.61643,-2.03814 -8.90272,-3.50976c-0.02261,3.38752 0.13601,5.80874 0.13601,5.85488c0.10569,1.71977 -1.19352,3.21127 -2.92634,3.31897c-1.72566,0.1147 -3.20668,-1.19664 -3.3267,-2.9236c-0.00864,-0.21433 -0.32737,-5.25456 0,-11.19511c0.20512,-3.69249 0.29908,-9.81408 0.29908,-9.87327c0.02243,-1.73594 1.45343,-3.11604 3.18038,-3.08461c1.72897,0.03328 3.10629,1.44883 3.08682,3.16861c-0.00315,0.06636 -0.01141,0.55548 -0.02758,1.28708c0.13217,1.64037 0.53785,4.23639 1.73081,5.88724c1.41171,1.95727 4.18897,3.64468 5.30932,4.25421c0.77497,0.27665 1.60233,0.4965 2.4714,0.63656c2.79582,0.47059 5.79864,-0.37995 8.01858,-2.2841c1.86352,-1.59755 2.91603,-3.66638 2.89434,-5.67144c-0.05313,-5.19057 -5.68689,-7.13019 -14.12326,-8.45938c-7.75463,-1.21116 -11.05135,-7.4631 -9.79202,-17.35346l0.11011,-0.881c0.61504,-5.02074 1.64312,-13.72127 11.11641,-13.20126c3.51969,0.19853 6.68518,2.60007 9.13765,5.28137c0.04854,-2.72746 0.06341,-5.41226 0.06341,-5.44864c0.00754,-1.73117 1.41483,-3.12357 3.15208,-3.12028c1.72328,0.0193 3.1129,1.42108 3.10297,3.14325c-0.00478,0.32425 -0.77808,19.88623 -0.80399,20.08034c-0.3066,1.70011 -1.93724,2.82855 -3.6322,2.52508c-1.31226,-0.23673 -2.28355,-1.25656 -2.52029,-2.49309l-0.00203,0.00128c0,0 -0.19834,-1.76683 -0.20863,-1.81407c-0.11085,-1.47953 -0.4099,-2.85229 -1.28782,-4.95752c-1.19738,-2.88995 -3.37246,-4.34392 -4.3226,-5.46355c-1.05381,-0.86046 -2.10118,-1.43136 -3.0234,-1.48945c-3.08276,-0.15899 -3.76693,1.25509 -4.56395,7.72006l-0.11396,0.89756c-0.94425,7.43311 0.95676,9.82402 4.54778,10.38502c6.276,0.98746 19.30243,3.0221 19.42872,14.58262z" fill="#f9a737" stroke="none" stroke-width="7.5"/><path d="M255.16429,315.02637c0,0 0.09742,1.26045 0.08804,1.30895c0,0 -0.10146,3.45627 -0.11453,3.56951c-0.09742,0.70217 -0.65291,4.343 -1.85506,6.45228c-0.80971,1.41243 -1.68119,2.45283 -2.58223,3.47227c-1.2468,1.40031 -2.94013,2.26939 -4.42169,2.96458c-2.0784,0.97643 -3.89725,0.99022 -6.01389,1.00877l-1.75654,0.0193c-11.70902,0.37609 -15.41658,-8.79371 -15.74045,-13.69077c-0.00404,-0.03952 -0.12152,-5.77568 -0.12152,-5.77568c0,0 0.11746,-8.68067 0.12152,-8.73748c0.55586,-7.80371 2.69032,-12.75072 6.53518,-15.11641c4.90842,-3.0324 10.91569,-0.5294 12.89116,0.29668c1.53118,0.64115 2.91548,1.506 4.12719,2.44934v-5.57327c0,-1.72014 1.41482,-3.12597 3.13221,-3.12597c1.7376,0 3.13386,1.40582 3.13386,3.12597v13.56464c0,1.4038 -0.93066,2.62377 -2.28005,3.0052c-1.34185,0.37241 -2.78186,-0.18179 -3.51381,-1.37328c-0.02996,-0.0364 -2.8541,-4.56413 -7.00538,-6.29531c-3.37411,-1.40653 -5.72824,-1.65508 -7.20152,-0.73672c-1.91148,1.1687 -3.1789,4.78471 -3.57134,10.16151c-0.00405,0.22996 -0.09834,8.28677 -0.09834,8.38621c0,0.10938 0.09429,5.15677 0.09834,5.3709c0.13087,1.44956 1.15913,8.07114 9.29923,7.80922l1.90378,-0.02464c1.81996,-0.01967 2.59472,-0.03456 3.39838,-0.40513c0.711,-0.34005 1.90139,-0.89481 2.39143,-1.45195c0.87111,-0.99297 1.36227,-1.60966 1.83228,-2.43115c0.42371,-0.73269 0.87771,-2.794 1.07662,-4.08768c0.01029,-0.35089 0.07775,-2.82303 0.07775,-2.94841c0,-0.12664 -0.08364,-1.12126 -0.08364,-1.13836c0,-1.70673 1.36429,-3.10684 3.06788,-3.12871c1.73632,-0.02996 3.1587,1.35563 3.18517,3.07559z" fill="#f9a737" stroke="none" stroke-width="7.5"/><path d="M300.38912,335.77237c-7.47411,0.48381 -13.4336,1.46023 -15.24033,2.28004l0.02336,-0.01619c-1.76867,0.65531 -3.17043,1.34811 -4.4283,0.18897c-1.26262,-1.1481 -1.3948,-3.06788 -0.26673,-4.343c1.73487,-1.94716 4.59317,-2.28242 8.85825,-3.0892c0,-4.2035 -0.04705,-12.07227 -0.109,-23.87045l-18.46314,3.08166l-0.03365,15.97097l5.39221,0.08639c1.72291,0.02336 3.10059,1.4413 3.07468,3.17559c-0.02721,1.72621 -1.45029,3.1074 -3.17854,3.08295l-16.91029,-0.28364c-1.72805,-0.02996 -3.10023,-1.45067 -3.07983,-3.16458c0.03123,-1.74312 1.45601,-3.12323 3.18002,-3.09399l5.26558,0.09154l0.07426,-41.65422h-5.17365c-1.72842,0 -3.12634,-1.40472 -3.12634,-3.13829c0,-1.72566 1.39791,-3.1302 3.12634,-3.1302h16.43878c1.73284,0 3.13865,1.40454 3.13865,3.1302c0,1.73357 -1.40582,3.13829 -3.13865,3.13829h-5.00381l-0.03365,19.44749l18.41168,-3.0778c-0.04465,-7.46549 -0.08142,-14.8453 -0.13069,-21.69094l-5.20364,0.09429c-1.72125,0.034 -3.15151,-1.35049 -3.1732,-3.07689c-0.0296,-1.73006 1.34112,-3.14764 3.07468,-3.18553l16.29248,-0.27665c1.72639,-0.02444 3.1515,1.35839 3.17834,3.08257c0.02536,1.72603 -1.35709,3.15977 -3.07891,3.18902l-4.8202,0.06783c0.21433,34.98061 0.26984,45.75864 0.26433,51.1082c1.70378,-0.18273 3.23368,-0.29835 4.39797,-0.37684c1.72418,-0.11159 3.21365,1.20217 3.3245,2.9236c0.11085,1.72843 -1.19829,3.21511 -2.92358,3.32871z" fill="#f9a737" stroke="none" stroke-width="7.5"/><path d="M221.72237,277.94678c0.64427,0.64813 0.9643,1.5378 0.89719,2.45248c-0.34062,4.4827 -0.40293,11.49452 -0.3998,11.54692c0.07389,1.28027 -0.54943,2.58464 -1.71188,3.12431c-1.49369,0.70586 -3.18275,0.32241 -3.97886,-1.1244c-0.2726,-0.47185 -0.63049,-1.10712 -0.63049,-4.4544c0,-1.42623 0.07739,-3.3879 0.23639,-5.98905c-3.16144,0.17278 -7.77485,0.42922 -13.16467,0.57957l0.08088,40.90663l6.2262,-0.09541c1.72546,-0.01304 3.14767,1.35675 3.1745,3.09067c0.02297,1.72143 -1.36117,3.15555 -3.08682,3.17174l-19.06569,0.28527c-1.7218,0.02133 -3.13553,-1.35876 -3.16936,-3.09398c-0.02572,-1.71977 1.356,-3.14325 3.08258,-3.1732l6.57728,-0.08494l-0.08088,-40.88568c0,0 -12.4375,0.2226 -13.24978,0.22645c0.63636,4.29135 1.89422,12.17906 1.89422,12.32263c0,1.52457 -1.11064,2.86128 -2.66588,3.0949c-1.70967,0.25274 -3.29875,-0.92165 -3.55922,-2.63167l-2.39329,-15.40318c-0.13622,-0.89169 0.13254,-1.79716 0.71761,-2.48004c0.58399,-0.702 1.43964,-1.09923 2.3475,-1.10583l19.97431,-0.33344c10.24899,-0.19686 19.41421,-0.8542 19.51125,-0.86761c0.9027,-0.05606 1.80214,0.27389 2.43667,0.92128z" fill="#f9a737" stroke="none" stroke-width="7.5"/><path d="M90.59882,318.31726l0.09356,1.78685c0,0.04173 -0.10367,3.58789 -0.12113,3.70663c-0.10016,0.70181 -0.6463,4.34264 -1.85193,6.45265c-0.80162,1.40859 -1.6775,2.44732 -2.57783,3.46843c-1.25618,1.40729 -2.93627,2.27103 -4.4248,2.96605c-2.0784,0.97974 -3.90075,0.98875 -6.01444,1.00897l-1.75765,0.03546c-11.71144,0.35073 -15.41531,-8.80291 -15.74286,-13.71023c-0.00441,-0.03952 -0.00441,-0.08473 -0.00441,-0.13491l-0.11396,-5.52991v-0.11011l0.11396,-8.56342c0,-0.05017 0,-0.10881 0.00441,-0.17039c0.56063,-7.80718 2.69897,-12.75478 6.5431,-15.11845c4.90604,-3.02285 10.91716,-0.52625 12.88601,0.29761c1.53873,0.63398 2.91879,1.50543 4.13509,2.44804v-5.56334c0,-1.73044 1.39591,-3.13351 3.13223,-3.13351c1.72346,0 3.128,1.40305 3.128,3.13351v13.55233c0,1.4062 -0.93233,2.63002 -2.28207,3.00757c-1.34461,0.38713 -2.78462,-0.18179 -3.52154,-1.3674c-0.01783,-0.04851 -2.85025,-4.56286 -7.00153,-6.30084c-3.37173,-1.40453 -5.72915,-1.65543 -7.196,-0.73542c-1.91443,1.16705 -3.17651,4.78342 -3.57061,10.15891c0,0.23051 -0.1046,8.28897 -0.11323,8.3932c0.00864,0.09852 0.11048,5.15344 0.11323,5.36758c0.13142,1.46024 1.15602,8.06288 9.29646,7.81309l1.91114,-0.03071c1.82013,-0.01783 2.5883,-0.03567 3.38992,-0.41469c0.71412,-0.32516 1.90175,-0.88617 2.38665,-1.44643c0.85051,-0.9564 1.37421,-1.6049 1.84165,-2.42803c0.4246,-0.73269 0.87423,-2.794 1.07164,-4.08695c0.01065,-0.3599 0.07812,-2.81513 0.07961,-2.94215c0,-0.13181 -0.08567,-1.74313 -0.08567,-1.76002c0,-1.70047 1.36317,-3.10299 3.07871,-3.13459c1.72125,-0.03235 3.14638,1.35488 3.17432,3.08461z" fill="#f9a737" stroke="none" stroke-width="7.5"/><path d="M141.48057,325.71709c-1.43248,4.61414 -3.16052,6.58205 -5.93852,7.93697c-3.00723,1.44478 -5.90578,0.64189 -7.82814,-0.10918c-2.61091,-1.00971 -4.12593,-3.8776 -4.52058,-4.73528c-1.26686,-2.71091 -1.66499,-8.87956 -1.70322,-10.38739c-0.19375,-7.82466 -1.44993,-11.16678 -2.469,-12.58787c-0.72717,-1.03009 -1.41997,-1.25894 -2.6793,-1.47273c-0.41304,-0.07187 -1.08305,0.01344 -1.09996,0.018h-0.00514v0c-2.37637,0.72405 -5.22055,1.36998 -8.20792,1.85323l0.08197,17.95859l4.53398,-0.67185c1.70325,-0.23914 3.30003,0.94298 3.54781,2.66072c0.25274,1.70488 -0.93507,3.29121 -2.63923,3.54101l-15.10446,2.21682c-1.70911,0.24502 -3.30114,-0.93765 -3.54341,-2.65394c-0.25441,-1.70212 0.92844,-3.29729 2.6383,-3.54689l4.30883,-0.62737l-0.06581,-18.2207c-0.53509,0.02336 -1.05823,0.03804 -1.57897,0.03804c-1.72621,0 -3.12945,-1.40987 -3.12945,-3.13112c0,-1.73357 1.40324,-3.12597 3.12945,-3.12597c0.51009,0 1.02733,-0.01579 1.54809,-0.04686l-0.06195,-14.57437c-1.64993,0.15312 -3.29196,0.34796 -4.89575,0.5827c-1.71003,0.2588 -3.30483,-0.91613 -3.54505,-2.63387c-0.25844,-1.70673 0.9178,-3.30502 2.63481,-3.55243c6.76752,-0.99977 29.24832,-3.58477 34.36629,5.12938c2.03979,3.4877 1.13122,7.78734 -2.7074,12.76377c-0.02206,0.03107 -0.041,0.04999 -0.06379,0.07444c-0.141,0.18823 -1.40895,1.67605 -3.15115,2.82103c2.58096,2.7859 4.17851,7.83678 4.41874,17.02755c0.05405,2.48921 0.6281,6.84841 1.11613,7.8978c0.32352,0.68656 0.89059,1.42273 1.09958,1.54663c1.36041,0.52957 2.20947,0.61908 2.83718,0.31523c0.63564,-0.3022 1.54809,-0.44059 2.69197,-4.15809c0.49981,-1.64275 2.26018,-2.57506 3.91765,-2.06645c1.64882,0.51083 2.57911,2.26607 2.06738,3.9204zM124.0365,288.91136c0,-0.31084 -0.0548,-0.57332 -0.18383,-0.77845c-1.39589,-2.39089 -8.61873,-3.31879 -16.89612,-3.09088l0.05753,14.23743c3.14178,-0.57608 6.06296,-1.39755 8.26948,-2.18263l1.59093,-0.50731c1.01467,-0.31084 2.06611,-0.6246 2.83555,-1.0768c0.83086,-0.49503 1.62933,-1.33819 1.908,-1.66371c1.56703,-2.02877 2.4181,-3.79468 2.41846,-4.93766z" fill="#f9a737" stroke="none" stroke-width="7.5"/><g><g fill="none" stroke="#28a5da" stroke-width="7.5"><path d="M229.83148,241.89214c0.72173,3.23504 0.00849,5.69741 -0.89155,7.34464c-2.30104,4.3898 -6.52952,7.00501 -11.36934,7.00501c-0.92551,0 -1.89347,-0.0934 -2.93785,-0.29718h-3.79544c-0.99344,0 -2.86144,-0.05944 -7.51446,-0.57738c-2.75955,-0.31417 -5.09455,-0.46701 -6.92859,-0.46701h-4.61906c-0.11888,0.00849 -0.53493,0.03396 -1.52837,0.13585c-1.55383,0.16133 -2.73407,0.23775 -3.72751,0.23775c-2.88691,0 -5.46815,-0.59437 -7.66729,-1.75762c-0.14434,-0.07642 -0.2802,-0.16132 -0.42454,-0.23774c-1.47742,-0.89155 -4.91624,-3.54921 -4.91624,-9.13622c0,-3.01427 1.1208,-5.7993 3.15013,-7.84561c0.98495,-1.00193 2.12273,-1.81706 3.37089,-2.43689c-2.8105,-3.07371 -3.65959,-7.42955 -2.13971,-11.54765c0.59437,-1.57082 1.46893,-2.94635 2.58973,-4.1096c-5.09455,-1.71517 -7.54843,-6.02006 -7.70975,-10.18061c-0.43303,-3.20108 0.81512,-6.45309 3.40485,-8.53337c2.56426,-2.06329 5.65495,-3.269 8.93245,-3.50674c0.21228,-0.00849 0.43304,-0.01699 0.6538,-0.01699h2.60671c5.61249,-0.10189 15.1393,-1.48591 28.30871,-4.11809c1.69818,-0.38209 3.45581,-0.31417 5.32381,0.22076c0.86607,0.24624 2.82747,0.81513 4.58509,2.53879c0.3736,0.36511 0.70475,0.75569 1.01042,1.17174c1.17174,1.61327 1.97839,3.43034 2.40293,5.40023c0.17831,0.85758 0.23775,1.72366 0.17831,2.58973c-0.10189,1.60478 -0.04246,3.37938 0.17831,5.27285c0.2802,2.29254 -0.30567,4.61057 -1.63026,6.49555c-2.02933,2.86993 -5.12851,4.68698 -8.6947,5.12851c0.00849,0.15284 0.01699,0.31416 0.01699,0.467v0.72173c2.62369,0.24624 5.03511,1.35854 6.87764,3.19258c3.03125,3.04824 3.05673,6.81821 2.92087,8.76263c0.15284,1.01891 0.20378,1.6812 0.20378,2.335c0,0.78966 -0.07642,1.65573 -0.24624,2.82747c-0.01698,0.12736 -0.03397,0.22925 -0.05095,0.33114v2.26708c0.02548,0.11038 0.05094,0.21228 0.07642,0.32265z"/><path d="M254.1288,246.99773c-2.92852,0 -7.23936,-0.92381 -11.14688,-5.32296c-0.06453,-0.07302 -0.12822,-0.14604 -0.19275,-0.21991c-1.19213,0.68012 -2.53454,1.17344 -3.99667,1.44515c-1.46808,0.2734 -3.62647,0.66144 -6.46498,1.15901c-2.9039,0.56465 -5.06059,0.82787 -6.77914,0.82787c-5.78062,0 -9.04452,-2.53029 -10.76563,-4.65302c-1.16665,-1.43836 -1.87904,-3.19259 -2.04631,-5.03681c-0.47804,-5.26776 2.22971,-9.8138 6.82245,-11.9603c-0.06708,-0.97561 -0.1435,-2.08112 -0.23095,-3.33099c-1.47317,-1.38147 -2.55916,-3.15013 -3.13654,-5.18285c-0.23604,-0.83041 -0.35577,-1.68969 -0.35577,-2.55321v-0.22501c0,-1.05797 0.17916,-2.08962 0.5137,-3.05758c0.24369,-0.95353 0.63682,-1.86545 1.16835,-2.70096c0.27596,-0.43389 0.57144,-0.84485 0.88475,-1.23373c-0.0068,-0.07472 -0.01358,-0.15029 -0.01868,-0.22501c-1.51478,-0.56804 -3.07626,-1.47657 -4.42292,-2.93106c-2.04207,-2.20764 -3.03805,-5.092 -2.80285,-8.1241c0.56125,-6.75027 6.08629,-9.92419 10.80809,-10.6561c2.02763,-0.38888 5.73306,-0.94249 11.3048,-1.68884c0.87372,-0.11632 1.73639,-0.10953 2.56935,0.01019c0.52729,0.02378 1.69649,0.06793 4.21914,0.13415c0.16557,0.00424 0.33199,0.01359 0.49671,0.02632c6.03959,0.48058 10.30118,1.61328 13.40971,3.56534c0.05774,0.03566 0.11462,0.07217 0.17151,0.10953c3.66468,2.41396 6.28413,5.8392 7.57475,9.90635c0.00934,0.03056 0.01868,0.06029 0.02802,0.09085c0.54342,1.77545 0.71664,3.74535 0.54342,6.18903c-0.12736,2.7587 -0.73107,5.02407 -1.84253,6.90736c-0.64446,1.14118 -1.42053,2.21528 -2.33245,3.2274c0.77777,2.21528 1.34411,4.72944 1.71262,7.58154c0.34813,-0.02632 0.69965,-0.03991 1.05457,-0.03991c4.99266,0 9.23218,3.03126 10.80045,7.72334c0.06198,0.18765 0.11888,0.37529 0.16897,0.56634c1.28213,4.83048 -1.13524,9.04962 -1.92914,10.43618c-1.60903,2.81219 -3.46598,4.89925 -5.67363,6.37328c-2.2883,1.52837 -5.16248,2.44369 -8.7847,2.79861c-0.48314,0.04585 -0.90852,0.06454 -1.32882,0.06454z"/><path d="M146.92873,220.37531v4.1096c0,2.43689 -0.42454,5.90118 -1.33308,10.90233c-0.3736,2.32651 -1.08683,4.72095 -2.11423,7.12388c-0.01698,0.03396 -0.03397,0.05944 -0.04246,0.0934c-1.82555,4.1181 -4.83133,7.70975 -8.94093,10.67308c-4.38131,3.15013 -8.91545,4.74642 -13.49206,4.74642c-1.85102,0 -3.61713,-0.28869 -5.27286,-0.84909c-5.86722,-1.89347 -10.50326,-5.49363 -13.77226,-10.69855c-0.70475,-1.14628 -1.401,-2.56426 -2.26708,-4.63604c-0.01698,-0.05095 -0.03396,-0.0934 -0.05944,-0.14434c-1.06986,-2.68313 -1.63875,-4.83133 -1.79158,-6.76726c-0.02548,-0.33114 -0.11887,-1.12929 -0.42454,-2.69162c-0.11038,-0.58587 -0.16981,-1.18023 -0.16981,-1.7746v-3.63411c-0.3736,-1.43497 -0.40757,-2.97182 -0.04246,-4.49169c0.13586,-0.58587 0.33115,-1.15477 0.56889,-1.6812c0,-1.03589 0.17831,-2.07178 0.51794,-3.05673c0.0934,-0.42454 0.22077,-0.8406 0.3736,-1.25665c0.00849,-0.00849 0.16132,-0.44153 0.3736,-1.63875c0.25472,-1.46893 0.73022,-3.3624 1.44346,-5.74834c0.00849,-0.02548 0.01699,-0.05944 0.02548,-0.08491c1.38402,-4.44924 4.17753,-8.66922 8.54186,-12.8977c0.03396,-0.03396 0.05944,-0.05944 0.0934,-0.08491c2.20764,-2.08876 4.75491,-3.41334 7.5739,-3.95676c0.50946,-0.0934 1.0274,-0.14435 1.55384,-0.16133c0.32265,-0.00849 1.18023,-0.05944 2.58123,-0.13586c0.05094,0 0.1019,-0.00849 0.15284,-0.00849c4.13508,-0.16982 8.04938,0.71323 11.675,2.60671c4.18602,2.13971 7.49748,5.35777 9.84946,9.56926c1.11231,1.99536 2.0633,4.41528 2.91239,7.42106c0.99344,3.40485 1.48591,6.40215 1.48591,9.15321z"/><path d="M117.8328,199.2242c-0.03396,0.14434 -0.05943,0.28869 -0.10189,0.43303c-0.12736,0.53493 -0.39058,1.80007 -0.6538,4.27093c0,0.04245 -0.00001,0.07641 -0.00849,0.10189c1.45194,5.84175 -0.99344,9.39945 -2.6152,11.02121c-0.10189,0.11038 -0.21227,0.21227 -0.33115,0.31416c-1.5878,1.44346 -4.36433,3.16711 -8.5079,3.16711c-2.06329,0 -3.99073,-0.45851 -5.67193,-1.29911c0.04246,2.31802 0.06793,5.5106 0.06793,9.94286c1.52836,0.53493 2.92936,1.401 4.11809,2.53878c2.36047,2.26708 3.65109,5.29833 3.65109,8.53337c0,4.80586 -2.76804,8.98338 -7.22577,10.89384c-0.11038,0.05095 -0.22925,0.10189 -0.33964,0.14434c-1.4944,0.56889 -3.1756,0.8491 -5.14549,0.8491c-0.71323,0 -1.47742,-0.03396 -2.30953,-0.11038c-0.50946,-0.02548 -1.25665,-0.01698 -2.13971,0.00849c-1.60479,0.17831 -3.86337,0.35662 -6.88613,0.52643c-0.05943,0 -0.11887,0.00849 -0.1868,0.00849c-0.39907,0.01698 -0.78117,0.02548 -1.15476,0.02548c-5.40872,0 -9.35699,-1.71517 -11.74294,-5.08606c-0.05094,-0.06793 -0.0934,-0.13585 -0.13586,-0.20378c-2.4284,-3.62562 -2.49633,-8.21072 -0.1868,-11.95521c0.01698,-0.04245 0.04245,-0.07642 0.06792,-0.11888c1.46893,-2.30953 3.61713,-3.95676 6.40215,-4.92473c0.03396,-1.63874 0.02548,-3.69355 -0.02547,-6.13044c-1.38402,0.57738 -2.98031,0.91702 -4.7719,0.91702c-4.72944,0 -8.63526,-2.8105 -9.99381,-7.08142c-0.2802,-0.86607 -0.54342,-2.13122 -1.15476,-4.98416c-0.02548,-0.10189 -0.04246,-0.20379 -0.05944,-0.30568l-1.25666,-7.02199c-0.04245,-0.15284 -0.10189,-0.33114 -0.16981,-0.53492c-0.6538,-1.85951 -0.95948,-3.43883 -0.95948,-4.96719c0,-1.89347 0.55191,-4.75491 3.16711,-7.60786c1.31609,-1.44346 3.71053,-3.31146 7.5654,-3.91431c0.47549,-0.07642 0.95947,-0.11887 1.44346,-0.11887h9.39096c0.21228,0 0.42454,0.00849 0.63682,0.02547c3.58316,0.12736 6.79273,0.11888 9.54379,-0.00849c3.84638,-0.16982 7.68428,-0.50097 11.44575,-0.98495c0.42454,-0.13585 0.88306,-0.27171 1.37553,-0.39058c0.467,-0.11888 0.94249,-0.19529 1.41798,-0.24624c3.61713,-0.33114 6.98802,0.71324 9.61171,2.95484c3.25202,2.79351 4.68699,7.02199 3.82941,11.31839z"/><path d="M197.31495,190.73579c0,5.51909 -3.28599,9.94286 -8.38903,11.27594c-0.16133,0.04245 -0.33115,0.08491 -0.49248,0.12736c-0.16982,1.35854 -0.38209,2.83597 -0.62832,4.44924l-1.24817,8.83056c-0.43303,3.46429 -1.55384,10.11268 -3.43033,20.32725c-0.00849,0.03396 -0.01698,0.05944 -0.01698,0.0934c-0.48398,2.48784 -0.72173,3.42183 -1.08684,4.35583c-0.01698,0.04245 -0.03396,0.07642 -0.05094,0.11039c-1.23968,3.01427 -3.51524,5.37475 -6.57197,6.8267c-1.25665,0.58587 -2.62369,0.89155 -3.99922,0.89155c-0.26322,0 -0.51794,-0.00849 -0.78116,-0.02547c-0.61134,-0.05095 -1.20571,-0.11038 -1.77461,-0.16133c-0.11038,-0.00849 -0.22077,-0.01699 -0.33114,-0.03396c-3.66807,-0.45851 -5.96062,-2.11424 -7.28521,-3.54071c-0.3736,-0.39908 -0.72172,-0.81512 -1.04438,-1.26514c-0.75569,0.67078 -1.51138,1.17174 -2.20764,1.55383c-0.80663,0.45002 -1.6812,0.77267 -2.58973,0.95947c-0.97645,0.20378 -2.38594,0.49247 -4.23696,0.84909c-1.68969,0.33114 -3.44731,0.1868 -5.06059,-0.41606c-1.67271,-0.62833 -3.22654,-1.67271 -4.74642,-3.19258c-1.06985,-1.06985 -1.868,-2.38595 -2.31802,-3.8379c-1.60478,-5.17946 -3.67657,-12.78732 -6.33423,-23.24812c-0.01698,-0.0934 -0.04246,-0.17831 -0.05944,-0.27171c-0.2802,-1.24817 -0.71323,-3.09918 -1.29911,-5.53608c-0.39908,-1.23119 -0.90004,-2.79352 -1.4944,-4.69548c-3.06522,-0.7472 -5.17946,-2.34349 -6.538,-3.75298c-1.29062,-1.33308 -2.82748,-3.60864 -3.10768,-7.07294c-0.02548,-0.24624 -0.03396,-0.50096 -0.03396,-0.75569c0,-2.86144 0.934,-5.46815 2.69162,-7.55692c1.83404,-2.22462 3.82941,-3.63411 6.10497,-4.30489c1.83404,-0.58587 3.95676,-0.91702 6.46158,-0.98495c1.29911,-0.03396 2.59822,-0.02547 3.86337,-0.05944c1.12929,-0.14434 2.62369,-0.33114 4.50018,-0.55191c0.26322,-0.03396 0.53493,-0.05095 0.80664,-0.05944c0.35662,-0.01698 0.70475,-0.01699 1.0274,-0.01699c2.2416,0 4.04168,0.24624 5.65495,0.78966c0.05095,0.00849 0.0934,0.02548 0.14434,0.04245c0.82362,0.28869 1.59629,0.6623 2.30953,1.09533c0.76418,-0.28869 1.56233,-0.50946 2.40293,-0.6623c0.31417,-0.05095 0.62833,-0.0934 0.95099,-0.11038c1.50289,-0.11038 3.00578,0.02548 4.47471,0.39059c2.28405,-2.46237 5.54456,-3.85488 9.2466,-3.85488c1.0274,0 2.21613,0.13585 3.98224,0.44153c0.08491,0.00849 0.16982,0.02548 0.24624,0.04246c0.00849,0 0.00849,0 0.00849,0c1.1208,-0.07642 2.38594,-0.02548 4.2964,0.14434c1.35854,0.10189 2.73408,0.19529 4.12659,0.28869c2.64917,0.16133 4.91624,0.61983 6.86066,1.39251c0.16982,0.06793 0.33115,0.13585 0.49248,0.21228c4.07564,1.90196 6.50404,5.82477 6.50404,10.47779z"/></g><g fill="#f7f8f9" stroke="none" stroke-width="0"><path d="M229.83148,241.89214c0.72173,3.23504 0.00849,5.69741 -0.89155,7.34464c-2.30104,4.3898 -6.52952,7.00501 -11.36934,7.00501c-0.92551,0 -1.89347,-0.0934 -2.93785,-0.29718h-3.79544c-0.99344,0 -2.86144,-0.05944 -7.51446,-0.57738c-2.75955,-0.31417 -5.09455,-0.46701 -6.92859,-0.46701h-4.61906c-0.11888,0.00849 -0.53493,0.03396 -1.52837,0.13585c-1.55383,0.16133 -2.73407,0.23775 -3.72751,0.23775c-2.88691,0 -5.46815,-0.59437 -7.66729,-1.75762c-0.14434,-0.07642 -0.2802,-0.16132 -0.42454,-0.23774c-1.47742,-0.89155 -4.91624,-3.54921 -4.91624,-9.13622c0,-3.01427 1.1208,-5.7993 3.15013,-7.84561c0.98495,-1.00193 2.12273,-1.81706 3.37089,-2.43689c-2.8105,-3.07371 -3.65959,-7.42955 -2.13971,-11.54765c0.59437,-1.57082 1.46893,-2.94635 2.58973,-4.1096c-5.09455,-1.71517 -7.54843,-6.02006 -7.70975,-10.18061c-0.43303,-3.20108 0.81512,-6.45309 3.40485,-8.53337c2.56426,-2.06329 5.65495,-3.269 8.93245,-3.50674c0.21228,-0.00849 0.43304,-0.01699 0.6538,-0.01699h2.60671c5.61249,-0.10189 15.1393,-1.48591 28.30871,-4.11809c1.69818,-0.38209 3.45581,-0.31417 5.32381,0.22076c0.86607,0.24624 2.82747,0.81513 4.58509,2.53879c0.3736,0.36511 0.70475,0.75569 1.01042,1.17174c1.17174,1.61327 1.97839,3.43034 2.40293,5.40023c0.17831,0.85758 0.23775,1.72366 0.17831,2.58973c-0.10189,1.60478 -0.04246,3.37938 0.17831,5.27285c0.2802,2.29254 -0.30567,4.61057 -1.63026,6.49555c-2.02933,2.86993 -5.12851,4.68698 -8.6947,5.12851c0.00849,0.15284 0.01699,0.31416 0.01699,0.467v0.72173c2.62369,0.24624 5.03511,1.35854 6.87764,3.19258c3.03125,3.04824 3.05673,6.81821 2.92087,8.76263c0.15284,1.01891 0.20378,1.6812 0.20378,2.335c0,0.78966 -0.07642,1.65573 -0.24624,2.82747c-0.01698,0.12736 -0.03397,0.22925 -0.05095,0.33114v2.26708c0.02548,0.11038 0.05094,0.21228 0.07642,0.32265z"/><path d="M254.1288,246.99773c-2.92852,0 -7.23936,-0.92381 -11.14688,-5.32296c-0.06453,-0.07302 -0.12822,-0.14604 -0.19275,-0.21991c-1.19213,0.68012 -2.53454,1.17344 -3.99667,1.44515c-1.46808,0.2734 -3.62647,0.66144 -6.46498,1.15901c-2.9039,0.56465 -5.06059,0.82787 -6.77914,0.82787c-5.78062,0 -9.04452,-2.53029 -10.76563,-4.65302c-1.16665,-1.43836 -1.87904,-3.19259 -2.04631,-5.03681c-0.47804,-5.26776 2.22971,-9.8138 6.82245,-11.9603c-0.06708,-0.97561 -0.1435,-2.08112 -0.23095,-3.33099c-1.47317,-1.38147 -2.55916,-3.15013 -3.13654,-5.18285c-0.23604,-0.83041 -0.35577,-1.68969 -0.35577,-2.55321v-0.22501c0,-1.05797 0.17916,-2.08962 0.5137,-3.05758c0.24369,-0.95353 0.63682,-1.86545 1.16835,-2.70096c0.27596,-0.43389 0.57144,-0.84485 0.88475,-1.23373c-0.0068,-0.07472 -0.01358,-0.15029 -0.01868,-0.22501c-1.51478,-0.56804 -3.07626,-1.47657 -4.42292,-2.93106c-2.04207,-2.20764 -3.03805,-5.092 -2.80285,-8.1241c0.56125,-6.75027 6.08629,-9.92419 10.80809,-10.6561c2.02763,-0.38888 5.73306,-0.94249 11.3048,-1.68884c0.87372,-0.11632 1.73639,-0.10953 2.56935,0.01019c0.52729,0.02378 1.69649,0.06793 4.21914,0.13415c0.16557,0.00424 0.33199,0.01359 0.49671,0.02632c6.03959,0.48058 10.30118,1.61328 13.40971,3.56534c0.05774,0.03566 0.11462,0.07217 0.17151,0.10953c3.66468,2.41396 6.28413,5.8392 7.57475,9.90635c0.00934,0.03056 0.01868,0.06029 0.02802,0.09085c0.54342,1.77545 0.71664,3.74535 0.54342,6.18903c-0.12736,2.7587 -0.73107,5.02407 -1.84253,6.90736c-0.64446,1.14118 -1.42053,2.21528 -2.33245,3.2274c0.77777,2.21528 1.34411,4.72944 1.71262,7.58154c0.34813,-0.02632 0.69965,-0.03991 1.05457,-0.03991c4.99266,0 9.23218,3.03126 10.80045,7.72334c0.06198,0.18765 0.11888,0.37529 0.16897,0.56634c1.28213,4.83048 -1.13524,9.04962 -1.92914,10.43618c-1.60903,2.81219 -3.46598,4.89925 -5.67363,6.37328c-2.2883,1.52837 -5.16248,2.44369 -8.7847,2.79861c-0.48314,0.04585 -0.90852,0.06454 -1.32882,0.06454z"/><path d="M146.92873,220.37531v4.1096c0,2.43689 -0.42454,5.90118 -1.33308,10.90233c-0.3736,2.32651 -1.08683,4.72095 -2.11423,7.12388c-0.01698,0.03396 -0.03397,0.05944 -0.04246,0.0934c-1.82555,4.1181 -4.83133,7.70975 -8.94093,10.67308c-4.38131,3.15013 -8.91545,4.74642 -13.49206,4.74642c-1.85102,0 -3.61713,-0.28869 -5.27286,-0.84909c-5.86722,-1.89347 -10.50326,-5.49363 -13.77226,-10.69855c-0.70475,-1.14628 -1.401,-2.56426 -2.26708,-4.63604c-0.01698,-0.05095 -0.03396,-0.0934 -0.05944,-0.14434c-1.06986,-2.68313 -1.63875,-4.83133 -1.79158,-6.76726c-0.02548,-0.33114 -0.11887,-1.12929 -0.42454,-2.69162c-0.11038,-0.58587 -0.16981,-1.18023 -0.16981,-1.7746v-3.63411c-0.3736,-1.43497 -0.40757,-2.97182 -0.04246,-4.49169c0.13586,-0.58587 0.33115,-1.15477 0.56889,-1.6812c0,-1.03589 0.17831,-2.07178 0.51794,-3.05673c0.0934,-0.42454 0.22077,-0.8406 0.3736,-1.25665c0.00849,-0.00849 0.16132,-0.44153 0.3736,-1.63875c0.25472,-1.46893 0.73022,-3.3624 1.44346,-5.74834c0.00849,-0.02548 0.01699,-0.05944 0.02548,-0.08491c1.38402,-4.44924 4.17753,-8.66922 8.54186,-12.8977c0.03396,-0.03396 0.05944,-0.05944 0.0934,-0.08491c2.20764,-2.08876 4.75491,-3.41334 7.5739,-3.95676c0.50946,-0.0934 1.0274,-0.14435 1.55384,-0.16133c0.32265,-0.00849 1.18023,-0.05944 2.58123,-0.13586c0.05094,0 0.1019,-0.00849 0.15284,-0.00849c4.13508,-0.16982 8.04938,0.71323 11.675,2.60671c4.18602,2.13971 7.49748,5.35777 9.84946,9.56926c1.11231,1.99536 2.0633,4.41528 2.91239,7.42106c0.99344,3.40485 1.48591,6.40215 1.48591,9.15321z"/><path d="M117.8328,199.2242c-0.03396,0.14434 -0.05943,0.28869 -0.10189,0.43303c-0.12736,0.53493 -0.39058,1.80007 -0.6538,4.27093c0,0.04245 -0.00001,0.07641 -0.00849,0.10189c1.45194,5.84175 -0.99344,9.39945 -2.6152,11.02121c-0.10189,0.11038 -0.21227,0.21227 -0.33115,0.31416c-1.5878,1.44346 -4.36433,3.16711 -8.5079,3.16711c-2.06329,0 -3.99073,-0.45851 -5.67193,-1.29911c0.04246,2.31802 0.06793,5.5106 0.06793,9.94286c1.52836,0.53493 2.92936,1.401 4.11809,2.53878c2.36047,2.26708 3.65109,5.29833 3.65109,8.53337c0,4.80586 -2.76804,8.98338 -7.22577,10.89384c-0.11038,0.05095 -0.22925,0.10189 -0.33964,0.14434c-1.4944,0.56889 -3.1756,0.8491 -5.14549,0.8491c-0.71323,0 -1.47742,-0.03396 -2.30953,-0.11038c-0.50946,-0.02548 -1.25665,-0.01698 -2.13971,0.00849c-1.60479,0.17831 -3.86337,0.35662 -6.88613,0.52643c-0.05943,0 -0.11887,0.00849 -0.1868,0.00849c-0.39907,0.01698 -0.78117,0.02548 -1.15476,0.02548c-5.40872,0 -9.35699,-1.71517 -11.74294,-5.08606c-0.05094,-0.06793 -0.0934,-0.13585 -0.13586,-0.20378c-2.4284,-3.62562 -2.49633,-8.21072 -0.1868,-11.95521c0.01698,-0.04245 0.04245,-0.07642 0.06792,-0.11888c1.46893,-2.30953 3.61713,-3.95676 6.40215,-4.92473c0.03396,-1.63874 0.02548,-3.69355 -0.02547,-6.13044c-1.38402,0.57738 -2.98031,0.91702 -4.7719,0.91702c-4.72944,0 -8.63526,-2.8105 -9.99381,-7.08142c-0.2802,-0.86607 -0.54342,-2.13122 -1.15476,-4.98416c-0.02548,-0.10189 -0.04246,-0.20379 -0.05944,-0.30568l-1.25666,-7.02199c-0.04245,-0.15284 -0.10189,-0.33114 -0.16981,-0.53492c-0.6538,-1.85951 -0.95948,-3.43883 -0.95948,-4.96719c0,-1.89347 0.55191,-4.75491 3.16711,-7.60786c1.31609,-1.44346 3.71053,-3.31146 7.5654,-3.91431c0.47549,-0.07642 0.95947,-0.11887 1.44346,-0.11887h9.39096c0.21228,0 0.42454,0.00849 0.63682,0.02547c3.58316,0.12736 6.79273,0.11888 9.54379,-0.00849c3.84638,-0.16982 7.68428,-0.50097 11.44575,-0.98495c0.42454,-0.13585 0.88306,-0.27171 1.37553,-0.39058c0.467,-0.11888 0.94249,-0.19529 1.41798,-0.24624c3.61713,-0.33114 6.98802,0.71324 9.61171,2.95484c3.25202,2.79351 4.68699,7.02199 3.82941,11.31839z"/><path d="M197.31495,190.73579c0,5.51909 -3.28599,9.94286 -8.38903,11.27594c-0.16133,0.04245 -0.33115,0.08491 -0.49248,0.12736c-0.16982,1.35854 -0.38209,2.83597 -0.62832,4.44924l-1.24817,8.83056c-0.43303,3.46429 -1.55384,10.11268 -3.43033,20.32725c-0.00849,0.03396 -0.01698,0.05944 -0.01698,0.0934c-0.48398,2.48784 -0.72173,3.42183 -1.08684,4.35583c-0.01698,0.04245 -0.03396,0.07642 -0.05094,0.11039c-1.23968,3.01427 -3.51524,5.37475 -6.57197,6.8267c-1.25665,0.58587 -2.62369,0.89155 -3.99922,0.89155c-0.26322,0 -0.51794,-0.00849 -0.78116,-0.02547c-0.61134,-0.05095 -1.20571,-0.11038 -1.77461,-0.16133c-0.11038,-0.00849 -0.22077,-0.01699 -0.33114,-0.03396c-3.66807,-0.45851 -5.96062,-2.11424 -7.28521,-3.54071c-0.3736,-0.39908 -0.72172,-0.81512 -1.04438,-1.26514c-0.75569,0.67078 -1.51138,1.17174 -2.20764,1.55383c-0.80663,0.45002 -1.6812,0.77267 -2.58973,0.95947c-0.97645,0.20378 -2.38594,0.49247 -4.23696,0.84909c-1.68969,0.33114 -3.44731,0.1868 -5.06059,-0.41606c-1.67271,-0.62833 -3.22654,-1.67271 -4.74642,-3.19258c-1.06985,-1.06985 -1.868,-2.38595 -2.31802,-3.8379c-1.60478,-5.17946 -3.67657,-12.78732 -6.33423,-23.24812c-0.01698,-0.0934 -0.04246,-0.17831 -0.05944,-0.27171c-0.2802,-1.24817 -0.71323,-3.09918 -1.29911,-5.53608c-0.39908,-1.23119 -0.90004,-2.79352 -1.4944,-4.69548c-3.06522,-0.7472 -5.17946,-2.34349 -6.538,-3.75298c-1.29062,-1.33308 -2.82748,-3.60864 -3.10768,-7.07294c-0.02548,-0.24624 -0.03396,-0.50096 -0.03396,-0.75569c0,-2.86144 0.934,-5.46815 2.69162,-7.55692c1.83404,-2.22462 3.82941,-3.63411 6.10497,-4.30489c1.83404,-0.58587 3.95676,-0.91702 6.46158,-0.98495c1.29911,-0.03396 2.59822,-0.02547 3.86337,-0.05944c1.12929,-0.14434 2.62369,-0.33114 4.50018,-0.55191c0.26322,-0.03396 0.53493,-0.05095 0.80664,-0.05944c0.35662,-0.01698 0.70475,-0.01699 1.0274,-0.01699c2.2416,0 4.04168,0.24624 5.65495,0.78966c0.05095,0.00849 0.0934,0.02548 0.14434,0.04245c0.82362,0.28869 1.59629,0.6623 2.30953,1.09533c0.76418,-0.28869 1.56233,-0.50946 2.40293,-0.6623c0.31417,-0.05095 0.62833,-0.0934 0.95099,-0.11038c1.50289,-0.11038 3.00578,0.02548 4.47471,0.39059c2.28405,-2.46237 5.54456,-3.85488 9.2466,-3.85488c1.0274,0 2.21613,0.13585 3.98224,0.44153c0.08491,0.00849 0.16982,0.02548 0.24624,0.04246c0.00849,0 0.00849,0 0.00849,0c1.1208,-0.07642 2.38594,-0.02548 4.2964,0.14434c1.35854,0.10189 2.73408,0.19529 4.12659,0.28869c2.64917,0.16133 4.91624,0.61983 6.86066,1.39251c0.16982,0.06793 0.33115,0.13585 0.49248,0.21228c4.07564,1.90196 6.50404,5.82477 6.50404,10.47779z"/></g><g fill="#f9a737" stroke="none" stroke-width="1"><path d="M137.58616,224.48576c0,1.84253 -0.39992,4.9553 -1.19552,9.33576c-0.24878,1.59375 -0.74635,3.26221 -1.4944,5.00455c-1.14628,2.58973 -3.09919,4.88058 -5.86213,6.8717c-2.7638,1.99112 -5.44013,2.9871 -8.02901,2.9871c-0.84655,0 -1.61837,-0.12397 -2.31547,-0.37275c-3.7844,-1.19467 -6.72141,-3.46005 -8.81272,-6.79698c-0.39992,-0.64616 -0.92212,-1.74233 -1.56912,-3.28599c-0.6971,-1.74233 -1.08259,-3.08645 -1.15731,-4.03319c-0.07472,-0.94504 -0.26152,-2.1898 -0.5604,-3.73345v-5.52758c0.19868,-0.0985 0.09934,-0.24794 -0.29888,-0.44747h0.44832c0,-0.24878 0.09849,-0.72173 0.29888,-1.41884c0.19784,-0.6971 0.29888,-1.22015 0.29888,-1.56912c0,-0.29888 -0.07472,-0.57228 -0.22416,-0.82192c0.19784,0 0.37275,-0.07472 0.52219,-0.22416c-0.05009,-0.09934 -0.17491,-0.14944 -0.37275,-0.14944c0.04924,-0.04925 0.1367,-0.12396 0.26152,-0.22416c0.12396,-0.09934 0.21143,-0.17407 0.26237,-0.22416c-0.05094,-0.05009 -0.11208,-0.08745 -0.18765,-0.11293c-0.07472,-0.02378 -0.13755,-0.06114 -0.1868,-0.11208c0.29973,-0.79645 0.57228,-1.89177 0.82192,-3.28598c0.19784,-1.14458 0.59777,-2.71284 1.19468,-4.70481c0.89664,-2.88691 2.93785,-5.87487 6.12449,-8.96301c0.89664,-0.8457 1.86715,-1.36873 2.91324,-1.56827c0.14944,0 1.11995,-0.05009 2.91323,-0.15029c2.48954,-0.0985 4.82879,0.4237 7.02029,1.56912c2.54048,1.29486 4.53075,3.23674 5.97505,5.82561c0.74805,1.34411 1.4443,3.16202 2.09131,5.45202c0.74805,2.53878 1.1208,4.73029 1.1208,6.57197v4.10876zM132.65719,216.19608c-0.29718,-0.69626 -0.64531,-1.5929 -1.04183,-2.68908c-0.49757,-2.24075 -1.97413,-4.30574 -4.42971,-6.19921c-2.45642,-1.89177 -4.72605,-2.73747 -6.81057,-2.53879c-0.94249,0.1002 -2.53114,1.66932 -4.7651,4.70567c-1.09193,1.4443 -2.18301,4.33207 -3.2741,8.66328c-0.99259,4.03319 -1.46469,7.14511 -1.41374,9.33577c0.09849,2.78841 0.24793,4.73029 0.44662,5.82477c0.34643,2.04207 1.09109,3.90921 2.23227,5.60231c1.09193,1.49355 1.93592,2.46406 2.53114,2.91323c2.23226,1.59375 4.34055,2.38934 6.32658,2.38934c0.44577,0 0.86778,-0.04924 1.26515,-0.14944c0.94249,-0.14944 2.05819,-0.77098 3.34882,-1.86715c1.09193,-0.99598 1.91045,-1.91639 2.45727,-2.76379c0.74381,-1.24392 1.43921,-3.11107 2.08452,-5.60146c0.99174,-3.63411 1.48931,-7.49323 1.48931,-11.57651c0.0017,-2.18981 -0.14774,-4.2064 -0.44662,-6.04893z"/><path d="M108.67279,197.39355c-0.34813,1.39506 -0.64701,3.28598 -0.89579,5.67618c-0.10104,1.19552 -0.05179,2.16603 0.14944,2.91323c0.34643,1.24561 0.3235,2.06754 -0.07472,2.46492c-0.54851,0.49757 -1.29486,0.74635 -2.24075,0.74635c-1.09618,0 -1.8196,-0.32521 -2.16603,-0.97731c-0.05179,-2.00555 -0.02632,-3.88714 0.07472,-5.64306c0.09764,-2.15669 0.14944,-3.28513 0.14944,-3.38533c-0.05179,0 -0.12566,-0.05009 -0.22416,-0.15113c-4.63179,0.20123 -8.98848,0.50011 -13.07091,0.89918c-0.10019,0.50011 -0.10019,1.29742 0,2.39444c0.19784,1.54704 0.29888,2.44538 0.29888,2.69332c-0.19868,1.54704 -0.29888,3.84129 -0.29888,6.88528c0.19784,1.29741 0.29888,6.86066 0.29888,16.6889v5.4639c0,0.84824 0.12312,1.44686 0.3702,1.79583h4.58595c0.83805,-0.09934 1.51563,0.10019 2.03442,0.59776c0.51709,0.49841 0.77607,1.09533 0.77607,1.79158c0,1.09448 -0.52219,1.86715 -1.56827,2.31632c-0.64786,0.24794 -1.79243,0.29888 -3.43542,0.14944c-0.79645,-0.05095 -1.96734,-0.05095 -3.51099,0c-1.39421,0.17321 -3.63411,0.34727 -6.72141,0.52219c-2.68908,0.09934 -4.33206,-0.27425 -4.92982,-1.11995c-0.39907,-0.59691 -0.39907,-1.22014 0,-1.86715c0.69625,-1.09448 2.51416,-1.64299 5.45286,-1.64299c1.04523,0 1.69139,-0.0866 1.94102,-0.26067c0.24878,-0.17407 0.3736,-0.5103 0.3736,-1.00787c0,-0.44662 0,-0.86862 0,-1.26684c0,-0.74465 0,-1.83829 0,-3.2792c0.14944,-2.53284 0.14944,-6.31044 0,-11.32942c-0.19953,-7.20454 -0.10019,-13.53877 0.29888,-19.00522c-0.05009,-0.04925 -0.12481,-0.12396 -0.22585,-0.22416c-1.80262,0.1002 -4.70651,0.05009 -8.71168,-0.15029c-0.45087,0 -1.97924,0.10104 -4.5817,0.29973c0.64701,4.5316 1.04524,7.9424 1.19468,10.2324c0,0.29888 -0.0501,0.97137 -0.14944,2.0166c-0.05009,0.74635 -0.67248,1.11995 -1.86715,1.11995c-0.64786,0 -1.02061,-0.22246 -1.11995,-0.66654c-0.05009,-0.09764 -0.34897,-1.43241 -0.89664,-4.00007c-0.29888,-1.67865 -0.72258,-4.04932 -1.26939,-7.11114c0,-0.19529 -0.17491,-0.81257 -0.52219,-1.85101c-0.29718,-0.83975 -0.44577,-1.48167 -0.44577,-1.92574c0,-0.34473 0.2352,-0.77862 0.70984,-1.29572c0.47294,-0.51794 1.18278,-0.85249 2.12867,-1.00108c0.14944,0 0.38464,0 0.70984,0c0.32265,0 0.58418,0 0.78372,0c5.92581,0 8.51469,0 7.76749,0c4.03319,0.15029 7.61805,0.15029 10.75459,0c4.48065,-0.19784 8.91121,-0.59691 13.29422,-1.19467c0.29888,-0.14944 0.74636,-0.29888 1.34327,-0.44747c1.09618,-0.09934 1.99197,0.14944 2.68992,0.7472c0.69625,0.59606 0.94504,1.39336 0.74635,2.38934z"/><path d="M186.85753,188.72175c0.7472,0.34897 1.11995,1.02146 1.11995,2.01659c0,1.24561 -0.47379,1.99282 -1.41883,2.24075c-0.94673,0.24964 -1.79244,0.34897 -2.53964,0.29973c-0.1002,0 -0.74635,-0.17407 -1.94187,-0.52304c-0.94589,-0.24878 -1.74318,-0.34728 -2.38934,-0.29888c-0.05009,0.05009 -0.07472,1.39506 -0.07472,4.03319c-0.14944,2.24075 -0.49841,5.15313 -1.04523,8.738c-0.7472,5.2788 -1.17089,8.26505 -1.26939,8.96301c-0.39908,3.23674 -1.51987,9.85796 -3.3607,19.8662c-0.29973,1.54195 -0.49842,2.43859 -0.59776,2.68907c-0.34897,0.8457 -0.99683,1.49355 -1.94187,1.94102c-0.59691,-0.05009 -1.17004,-0.10019 -1.71686,-0.14944c-0.79729,-0.1002 -1.34497,-0.32435 -1.64384,-0.67163c-0.54852,-0.54852 -0.94589,-1.46893 -1.19467,-2.76379c-0.49841,-2.04121 -0.7472,-3.0873 -0.7472,-3.13655c-0.39908,-1.24477 -1.39421,-4.8551 -2.98795,-10.83016c-0.84654,-3.28599 -2.14056,-8.29053 -3.88289,-15.01194c-0.34897,1.79243 -0.69795,4.08328 -1.04523,6.87085c-0.39992,3.88375 -0.84739,7.46946 -1.34496,10.75544c-0.24964,2.14056 -0.67164,5.12851 -1.2694,8.96301c-0.39908,1.89263 -1.09533,3.11107 -2.09131,3.65958c-0.94589,0.19784 -2.31548,0.47295 -4.10791,0.82192c-0.39908,-0.14944 -0.87116,-0.49841 -1.41883,-1.04523c-1.54365,-4.97823 -3.61034,-12.5725 -6.19922,-22.77943c-0.29888,-1.34411 -0.77267,-3.3607 -1.41883,-6.04978c-0.64785,-1.99112 -1.59459,-4.97823 -2.83852,-8.96301c-0.1002,-0.59691 -0.39907,-1.41883 -0.89664,-2.46406c-1.49355,0.24964 -2.49038,0.37275 -2.98795,0.37275c-1.54365,0 -2.73917,-0.44748 -3.58487,-1.34412c-0.29973,-0.29888 -0.47464,-0.7472 -0.52304,-1.34411c0,-0.64701 0.17406,-1.1692 0.52304,-1.56912c0.64616,-0.7956 1.19467,-1.24391 1.64299,-1.34411c0.99598,-0.34728 2.34009,-0.54767 4.03318,-0.59776c1.44346,0 2.88691,-0.02378 4.33207,-0.07472c1.14542,-0.14944 2.7638,-0.34727 4.85511,-0.59691c1.5428,-0.04925 2.68908,0.05009 3.43543,0.29888c0.99598,0.34897 1.4944,1.07156 1.4944,2.16604c0,0.49841 -0.10019,0.87201 -0.29973,1.11995c-0.59691,0.64785 -1.4443,1.04523 -2.53878,1.19467c-0.89664,0.1002 -1.81876,0.17576 -2.7638,0.22501c-0.29888,0.05009 -0.74635,0.14944 -1.34411,0.29888c-0.39908,0.24964 -0.57314,0.79645 -0.52219,1.643c0.04925,0.8474 0.49672,2.46491 1.34411,4.8551c0.39822,1.14628 1.51817,5.80099 3.3607,13.96671c0.79645,2.73917 1.99112,6.94557 3.58571,12.62175c-0.05095,0 0.02378,0.10019 0.22416,0.29888c0.69626,-2.63813 1.34411,-6.17374 1.94187,-10.60515c0.39822,-3.03635 0.79559,-6.0744 1.19467,-9.1116c0.0985,-0.94504 0.24878,-2.34009 0.44747,-4.18263c0.19784,-1.09448 0.44832,-2.81219 0.7472,-5.15313c0,-1.54195 0.17407,-3.83365 0.5222,-6.8717c0.19869,-0.89579 0.87032,-1.44261 2.01659,-1.64299c0.6971,-0.04925 1.39421,0.05009 2.09131,0.29888c0.89664,0.34897 1.34496,0.84739 1.34496,1.4944c0,1.84253 0.29888,3.98309 0.89579,6.42253c0.49757,1.44431 1.09533,3.48552 1.79243,6.12449c0.14944,0.79645 2.01659,8.09099 5.60146,21.88279c0.09934,0.29888 0.24878,0.57313 0.44832,0.82107c0.69626,-2.58803 1.19467,-4.80416 1.49355,-6.64669c0.89664,-5.27711 2.06584,-13.46743 3.511,-24.57185c0.04925,-0.0985 0.02377,-1.44261 -0.07557,-4.03234c-0.1002,-0.15029 -0.22416,-0.24878 -0.37275,-0.29972c-1.34411,-0.29888 -2.7137,-0.59691 -4.1079,-0.89665c-1.79243,-0.39738 -2.68822,-0.97051 -2.68822,-1.71686c0,-0.19784 0.07472,-0.42284 0.22416,-0.67248c0.49672,-1.09448 1.46808,-1.643 2.91324,-1.643c0.44747,0 1.24391,0.10019 2.38934,0.29888c0.99514,0.19953 1.74234,0.26152 2.24076,0.1868c0.49757,-0.07472 1.5428,-0.03736 3.13655,0.11208c1.39336,0.1002 2.81219,0.19953 4.25734,0.29888c1.69054,0.09764 3.03465,0.34558 4.03149,0.74381z"/><path d="M221.08838,210.15649c-0.59691,0.8474 -1.51902,1.27025 -2.76295,1.27025c-0.64785,0 -1.22099,-0.12396 -1.71771,-0.3736c-0.05009,-1.34411 -0.17491,-3.33523 -0.37275,-5.97506c-4.23272,0.79729 -10.9796,1.96734 -20.23979,3.51099c-0.44832,0.05009 -0.82192,0.17491 -1.1208,0.37275c0.24878,4.5817 0.3736,9.0632 0.3736,13.44367c0.50436,0.1002 2.09471,-0.12396 4.7702,-0.67248c1.31269,-0.19784 3.33353,-0.67163 6.05911,-1.41883c0.04925,-0.79645 -0.05009,-2.12867 -0.29888,-3.99582c-0.24964,-1.86715 -0.34897,-3.24863 -0.29888,-4.14527c0,-0.94504 0.64615,-1.41883 1.94187,-1.41883c1.49355,0 2.28915,0.62238 2.38935,1.86715c0.19784,1.89263 0.49672,4.73029 0.89664,8.51384v11.57652c0.14944,0.19953 0.24793,0.34897 0.29888,0.44747c-0.14944,0.59776 -0.57313,1.10891 -1.26939,1.53176c-0.69796,0.4237 -1.39506,0.63427 -2.09132,0.63427c-0.89664,0 -1.4944,-0.39737 -1.79243,-1.19467c0.09934,-0.49672 0.17406,-1.26939 0.22416,-2.31547v-6.87085c-3.15947,0.1002 -6.71886,0.74636 -10.67987,1.94103c0,0.89664 -0.02548,3.18748 -0.07472,6.87169c-0.05095,3.0372 -0.05095,5.10474 0,6.19922c0,0.24964 0.19784,0.69795 0.59776,1.34411c1.04523,0.05095 2.66276,0.14944 4.85426,0.29973c2.53964,0.24964 5.07841,0.49756 7.61804,0.74635c3.03635,0.34897 5.57599,0.47464 7.6189,0.3736c0.04925,-0.64701 0.17321,-1.66846 0.37275,-3.06182v-4.40679c-0.29888,-0.49672 -0.44832,-0.97136 -0.44832,-1.41883c0,-0.7472 0.31077,-1.38147 0.934,-1.90452c0.62153,-0.52219 1.3076,-0.78456 2.05396,-0.78456c0.59776,0 1.07071,0.17576 1.41968,0.52304c0.19784,0.19953 0.24794,0.84739 0.14944,1.94187c-0.05095,0.24964 -0.02548,0.68522 0.07472,1.30675c0.09934,0.62323 0.14944,1.03419 0.14944,1.23203c0,0.29973 -0.05009,0.78456 -0.14944,1.45704c-0.1002,0.67163 -0.14944,1.03419 -0.14944,1.08259v4.48066c0,0.05095 0.09849,0.29888 0.29888,0.7472c0.09934,0.44747 0.09934,0.74635 0,0.89664c-0.6988,1.39506 -1.74743,2.09132 -3.14248,2.09132c-0.34983,0 -0.77353,-0.04924 -1.27279,-0.14944c-0.50011,-0.09934 -0.79814,-0.14944 -0.89834,-0.14944h-4.56472c-1.19722,0 -3.35476,-0.17407 -6.47348,-0.52304c-3.11786,-0.34728 -5.77552,-0.52219 -7.96957,-0.52219h-4.71416c-0.39992,0 -1.19722,0.06284 -2.39444,0.1868c-1.19722,0.12396 -2.12103,0.1868 -2.76973,0.1868c-1.34666,0 -2.44539,-0.22416 -3.29193,-0.67248c-0.24964,-0.14944 -0.37445,-0.5222 -0.37445,-1.11996c0,-0.54766 0.14859,-0.97136 0.44407,-1.26939c0.64106,-0.64701 1.52921,-1.01976 2.66445,-1.11996c0.73956,0 1.50374,0 2.29425,0c0.54172,0.1002 1.28128,0.05009 2.21953,-0.14944c0.29633,-0.15029 0.46955,-0.49757 0.51794,-1.04523c0.04925,-0.34813 0.04925,-0.87032 0,-1.56912c-0.04925,-0.79645 -0.07387,-1.24391 -0.07387,-1.34411c0,-5.17861 -0.02378,-8.14109 -0.07387,-8.88829c-0.88051,-0.0985 -2.1049,-0.422 -3.67063,-0.97136c-0.69031,-0.54766 -0.86268,-1.29402 -0.51285,-2.24075c0.29888,-0.79645 0.97136,-1.36874 2.01659,-1.71771c0.74635,-0.24794 1.49355,-0.47295 2.24075,-0.67164c0.14944,-0.54766 0.17321,-1.22014 0.07472,-2.01659c-0.1002,-0.69626 -0.17491,-1.36874 -0.22416,-2.0166c-0.1002,-2.14056 -0.27426,-5.42654 -0.52304,-9.8588c-0.19953,0 -0.87117,0.06283 -2.01659,0.18765c-1.14628,0.12396 -2.04206,0.1868 -2.68822,0.1868c-2.29085,0 -3.43627,-0.68521 -3.43627,-2.0565c0,-0.19444 0.02462,-0.41521 0.07472,-0.6606c-0.05009,-0.09764 -0.09849,-0.14689 -0.14944,-0.14689c1.09448,-0.87966 2.3401,-1.36958 3.73431,-1.46808c0.89664,0 1.79158,0 2.68822,0c6.22384,-0.09934 16.3068,-1.5428 30.24804,-4.33206c0.14944,-0.05009 0.39822,-0.02463 0.7472,0.07472c0.34728,0.1002 0.54766,0.17491 0.59691,0.22416c0.39822,0.54852 0.67248,1.17005 0.82192,1.86715c-0.15029,2.19151 -0.07557,4.5299 0.22246,7.01943z"/><path d="M262.81755,229.72126c0.19784,0.7472 -0.1367,1.88073 -1.00702,3.39891c-0.86862,1.51902 -1.78734,2.60162 -2.75615,3.24863c-0.96882,0.64701 -2.47171,1.0707 -4.50698,1.26939c-1.6396,0.14944 -3.16711,-0.57314 -4.58169,-2.16603c-1.41628,-1.59289 -2.22207,-3.3607 -2.42076,-5.30257c-0.54766,-5.47664 -1.24308,-9.41048 -2.08707,-11.80067c-0.1002,-0.59691 -0.37275,-1.47997 -0.82022,-2.65087c-0.44662,-1.1692 -1.46469,-2.12867 -3.05418,-2.87587c-1.19297,-0.44747 -2.40887,-0.92042 -3.65024,-1.41884c-0.19869,-0.04925 -0.44663,-0.04925 -0.74466,0c-0.6954,0.19869 -2.13716,0.59691 -4.32187,1.19467v1.41883v5.82561c0,0.1002 0.03736,0.57314 0.11208,1.41884c0.07472,0.8474 0.11208,1.44515 0.11208,1.79243c0.09934,0.8474 0.22501,3.08815 0.3736,6.72141c0.34728,0.15029 0.72087,0.15029 1.11995,0c1.34411,-0.54766 2.53879,-0.67163 3.58487,-0.37275c0.7472,0.24964 1.11995,0.84739 1.11995,1.79243c0,1.39506 -0.73446,2.22887 -2.20339,2.50143c-1.46893,0.27426 -3.62223,0.66059 -6.45989,1.15816c-2.29085,0.44747 -3.98394,0.67163 -5.07842,0.67163c-1.69309,0 -2.86398,-0.39822 -3.51014,-1.19467c-0.14944,-1.64384 0.69625,-2.63813 2.53878,-2.98795c1.4944,-0.14944 2.98795,-0.32351 4.48066,-0.52304c0.19869,-0.24794 0.29973,-0.52219 0.29973,-0.82107c-0.05095,-1.14542 -0.32435,-5.25333 -0.82192,-12.32372c-0.14944,-1.69224 -0.19953,-2.98795 -0.14944,-3.88375c-0.89664,-0.04925 -1.49441,-0.12396 -1.79244,-0.22416c-0.7472,-0.24878 -1.22099,-0.72173 -1.41883,-1.41883v-0.22501c0.0985,-0.04925 0.17321,-0.29888 0.22416,-0.74635c0.69626,-1.09533 1.5929,-1.51818 2.68908,-1.27025c0.0985,-0.29888 0.07472,-1.09448 -0.07557,-2.38934c-0.44747,-4.72944 -0.72258,-8.51384 -0.82108,-11.35235c-0.19953,-0.19784 -0.62323,-0.24878 -1.27024,-0.14944c-0.99598,0.19953 -1.51902,0.29888 -1.56827,0.29888c-2.68908,0 -3.98394,-0.64615 -3.88375,-1.94187c0.09934,-1.19467 1.11996,-1.91555 3.06182,-2.16603c1.74233,-0.34728 5.40192,-0.89579 10.9796,-1.64299c-0.24964,0.05009 1.51817,0.12396 5.30257,0.22416c4.38046,0.34897 7.44314,1.07155 9.18633,2.16603c1.89177,1.24561 3.16117,2.88776 3.80818,4.92982c0.19784,0.64785 0.24878,1.61837 0.14944,2.91324c-0.05009,1.29486 -0.24964,2.21528 -0.59692,2.76294c-1.14628,2.09131 -3.46089,3.95846 -6.94641,5.60231c0,0.14944 0.02462,0.24963 0.07472,0.29888c1.24477,0.89664 2.09131,1.69309 2.53963,2.38935c1.29316,2.09131 2.16603,5.12936 2.61351,9.1116c0.64701,5.42824 1.1692,8.83819 1.56828,10.2324c0.05009,0.29888 0.39822,0.77182 1.04523,1.41883c0.64701,0.64871 1.17004,0.99684 1.56912,1.04523c1.54195,0.1002 2.48954,-0.59691 2.83852,-2.09132c-0.05095,-0.54766 0.17321,-1.29402 0.67163,-2.24075c0.69711,-0.64701 1.5428,-0.97136 2.53963,-0.97136c0.99768,0.0017 1.64469,0.45087 1.94442,1.34581zM247.88033,203.50641c0.44747,-0.44747 0.67163,-1.14458 0.67163,-2.09131c0,-2.53878 -0.89664,-4.35584 -2.68822,-5.45202c-1.79243,-1.09448 -5.67703,-1.5929 -11.65208,-1.49355c-0.44747,0 -1.11995,0.19869 -2.01659,0.59691c0.15029,0.7472 0.15029,1.36958 0,1.86715c-0.05009,0.7472 -0.05009,1.4443 0,2.09131c0.02462,1.34411 0.07557,3.01343 0.15029,5.00455c0.24794,2.93786 0.37275,4.58169 0.37275,4.92898c0.8457,-0.04925 2.09132,-0.29888 3.73431,-0.74635c0.24794,-0.24878 0.59691,-0.52304 1.04523,-0.82192c0.34728,-0.09934 1.24392,-0.14944 2.68822,-0.14944c2.73917,0.00085 5.30427,-1.24307 7.69447,-3.7343z"/><path d="M262.81755,229.72126c0.19784,0.7472 -0.1367,1.88073 -1.00702,3.39891c-0.86862,1.51902 -1.78734,2.60162 -2.75615,3.24863c-0.96882,0.64701 -2.47171,1.0707 -4.50698,1.26939c-1.6396,0.14944 -3.16711,-0.57314 -4.58169,-2.16603c-1.41628,-1.59289 -2.22207,-3.3607 -2.42076,-5.30257c-0.54766,-5.47664 -1.24308,-9.41048 -2.08707,-11.80067c-0.1002,-0.59691 -0.37275,-1.47997 -0.82022,-2.65087c-0.44662,-1.1692 -1.46469,-2.12867 -3.05418,-2.87587c-1.19297,-0.44747 -2.40887,-0.92042 -3.65024,-1.41884c-0.19869,-0.04925 -0.44663,-0.04925 -0.74466,0c-0.6954,0.19869 -2.13716,0.59691 -4.32187,1.19467v1.41883v5.82561c0,0.1002 0.03736,0.57314 0.11208,1.41884c0.07472,0.8474 0.11208,1.44515 0.11208,1.79243c0.09934,0.8474 0.22501,3.08815 0.3736,6.72141c0.34728,0.15029 0.72087,0.15029 1.11995,0c1.34411,-0.54766 2.53879,-0.67163 3.58487,-0.37275c0.7472,0.24964 1.11995,0.84739 1.11995,1.79243c0,1.39506 -0.73446,2.22887 -2.20339,2.50143c-1.46893,0.27426 -3.62223,0.66059 -6.45989,1.15816c-2.29085,0.44747 -3.98394,0.67163 -5.07842,0.67163c-1.69309,0 -2.86398,-0.39822 -3.51014,-1.19467c-0.14944,-1.64384 0.69625,-2.63813 2.53878,-2.98795c1.4944,-0.14944 2.98795,-0.32351 4.48066,-0.52304c0.19869,-0.24794 0.29973,-0.52219 0.29973,-0.82107c-0.05095,-1.14542 -0.32435,-5.25333 -0.82192,-12.32372c-0.14944,-1.69224 -0.19953,-2.98795 -0.14944,-3.88375c-0.89664,-0.04925 -1.49441,-0.12396 -1.79244,-0.22416c-0.7472,-0.24878 -1.22099,-0.72173 -1.41883,-1.41883v-0.22501c0.0985,-0.04925 0.17321,-0.29888 0.22416,-0.74635c0.69626,-1.09533 1.5929,-1.51818 2.68908,-1.27025c0.0985,-0.29888 0.07472,-1.09448 -0.07557,-2.38934c-0.44747,-4.72944 -0.72258,-8.51384 -0.82108,-11.35235c-0.19953,-0.19784 -0.62323,-0.24878 -1.27024,-0.14944c-0.99598,0.19953 -1.51902,0.29888 -1.56827,0.29888c-2.68908,0 -3.98394,-0.64615 -3.88375,-1.94187c0.09934,-1.19467 1.11996,-1.91555 3.06182,-2.16603c1.74233,-0.34728 5.40192,-0.89579 10.9796,-1.64299c-0.24964,0.05009 1.51817,0.12396 5.30257,0.22416c4.38046,0.34897 7.44314,1.07155 9.18633,2.16603c1.89177,1.24561 3.16117,2.88776 3.80818,4.92982c0.19784,0.64785 0.24878,1.61837 0.14944,2.91324c-0.05009,1.29486 -0.24964,2.21528 -0.59692,2.76294c-1.14628,2.09131 -3.46089,3.95846 -6.94641,5.60231c0,0.14944 0.02462,0.24963 0.07472,0.29888c1.24477,0.89664 2.09131,1.69309 2.53963,2.38935c1.29316,2.09131 2.16603,5.12936 2.61351,9.1116c0.64701,5.42824 1.1692,8.83819 1.56828,10.2324c0.05009,0.29888 0.39822,0.77182 1.04523,1.41883c0.64701,0.64871 1.17004,0.99684 1.56912,1.04523c1.54195,0.1002 2.48954,-0.59691 2.83852,-2.09132c-0.05095,-0.54766 0.17321,-1.29402 0.67163,-2.24075c0.69711,-0.64701 1.5428,-0.97136 2.53963,-0.97136c0.99768,0.0017 1.64469,0.45087 1.94442,1.34581zM247.88033,203.50641c0.44747,-0.44747 0.67163,-1.14458 0.67163,-2.09131c0,-2.53878 -0.89664,-4.35584 -2.68822,-5.45202c-1.79243,-1.09448 -5.67703,-1.5929 -11.65208,-1.49355c-0.44747,0 -1.11995,0.19869 -2.01659,0.59691c0.15029,0.7472 0.15029,1.36958 0,1.86715c-0.05009,0.7472 -0.05009,1.4443 0,2.09131c0.02462,1.34411 0.07557,3.01343 0.15029,5.00455c0.24794,2.93786 0.37275,4.58169 0.37275,4.92898c0.8457,-0.04925 2.09132,-0.29888 3.73431,-0.74635c0.24794,-0.24878 0.59691,-0.52304 1.04523,-0.82192c0.34728,-0.09934 1.24392,-0.14944 2.68822,-0.14944c2.73917,0.00085 5.30427,-1.24307 7.69447,-3.7343z"/></g></g><path d="M145.25,256.03718c0,-9.57294 7.7604,-17.33333 17.33334,-17.33333c9.57294,0 17.33333,7.76039 17.33333,17.33333c0,9.57293 -7.76039,17.33334 -17.33333,17.33334c-9.57294,0 -17.33334,-7.7604 -17.33334,-17.33334z" fill="#f7f8f9" stroke="none" stroke-width="0"/><text transform="translate(152.38314,260.27781) scale(0.6965,0.6965)" font-size="40" xml:space="preserve" fill="#f9a737" fill-rule="nonzero" stroke="#f9a737" stroke-width="1" stroke-linecap="butt" stroke-linejoin="miter" stroke-miterlimit="10" stroke-dasharray="" stroke-dashoffset="0" font-family="Scratch" font-weight="normal" text-anchor="start" style="mix-blend-mode: normal"><tspan x="0" dy="0">of</tspan></text><path d="M185.68247,310.44847c0.5816,1.62437 -0.26158,3.41987 -1.88486,4.00772c-5.8387,2.08942 -11.75132,4.89079 -13.14205,6.76643c-1.03524,1.38946 -3.00207,1.68062 -4.38049,0.64574c-1.39113,-1.02661 -1.68706,-2.98222 -0.65567,-4.37773c1.10344,-1.48119 2.57708,-2.3341 4.93636,-3.68421l-3.09858,-7.66198l-14.47492,2.39877l-0.71613,4.77167c2.23152,0 3.24028,1.56262 3.16272,3.29856c-0.08639,1.71995 -1.55177,3.05225 -3.27632,2.97761l-15.58,-0.73894c-1.72492,-0.0805 -3.06586,-1.53834 -2.99141,-3.26125c0.07943,-1.73209 1.55029,-3.06125 3.27468,-2.98663l9.07993,0.44059c1.44883,-7.09143 6.06957,-30.41445 7.22964,-36.11992c-4.04597,0.54631 -9.03931,1.2641 -9.03931,1.2641c-1.71665,0.22003 -3.28846,-0.97219 -3.51804,-2.68995c-0.22225,-1.7093 0.96851,-3.287 2.68168,-3.5197l13.41541,-1.84458c0.99977,-0.13879 2.0091,0.22574 2.70502,0.96834c0.20274,0.21526 0.85933,1.21705 0.97643,1.52052l11.76787,28.45132c0.13787,0.24025 4.02482,9.9365 4.02482,9.9365c2.78148,-1.22238 4.57461,-2.12215 5.50177,-2.45137c1.62161,-0.58141 3.41987,0.26764 4.00148,1.88834zM165.03982,301.73747l-6.88407,-17.00936l-3.83844,18.78795z" fill="#f9a737" stroke="none" stroke-width="7.5"/></g></g></g></svg>