<svg version="1.1" xmlns="http://www.w3.org/2000/svg" xmlns:xlink="http://www.w3.org/1999/xlink" width="19.68383" height="19.68383" viewBox="0,0,19.68383,19.68383"><defs><linearGradient x1="240.0072" y1="175.98941" x2="240.0072" y2="180.55809" gradientUnits="userSpaceOnUse" id="color-1"><stop offset="0" stop-color="#ffbf66"/><stop offset="1" stop-color="#ffd080"/></linearGradient></defs><g transform="translate(-230.15811,-170.15813)"><g data-paper-data="{&quot;isPaintingLayer&quot;:true}" fill-rule="nonzero" stroke="none" stroke-linecap="butt" stroke-linejoin="miter" stroke-miterlimit="10" stroke-dasharray="" stroke-dashoffset="0" style="mix-blend-mode: normal"><path d="M235.99788,184.00656l0.01305,-6.73573l1.67913,-1.27739h4.8696l1.44246,1.68364v6.32948z" fill="#ffbe4d" stroke-width="0"/><path d="M230.15812,189.84197v-19.68383h19.68383v19.68383z" data-paper-data="{&quot;index&quot;:null}" fill="none" stroke-width="0"/><path d="M236.00778,176.96317c0,-0.53019 0.42981,-0.96 0.96,-0.96c0.53019,0 6.31484,1.92774 6.31484,1.92774c0,0 -5.78465,-0.00774 -6.31484,-0.00774c-0.53019,0 -0.96,-0.4298 -0.96,-0.96z" fill="#ffe3b3" stroke-width="0.5"/><path d="M236.98782,175.9893c0,0 5.52658,0.00774 6.05678,0.00774c0.53019,0 0.96,0.42981 0.96,0.96c0,0.53019 -0.4298,0.96 -0.96,0.96c-0.5302,0 -6.05678,-1.92774 -6.05678,-1.92774z" fill="#ffe3b3" stroke-width="0.5"/><path d="M243.37652,180.55809c-0.88912,0 -4.92229,0 -6.57434,0c-0.42162,0 -0.8003,-0.39477 -0.8003,-0.65709c0,-0.44195 0,-2.94395 0,-2.94395h8.01063c0,0 0,2.45885 0,2.94395c0,0.31071 -0.30824,0.65709 -0.63598,0.65709z" data-paper-data="{&quot;index&quot;:null}" fill="url(#color-1)" stroke-width="0"/></g></g></svg>