<svg version="1.1" xmlns="http://www.w3.org/2000/svg" xmlns:xlink="http://www.w3.org/1999/xlink" width="113.13184" height="118.54466" viewBox="0,0,113.13184,118.54466"><g transform="translate(-183.43408,-120.72767)"><g data-paper-data="{&quot;isPaintingLayer&quot;:true}" fill-rule="nonzero" stroke-linejoin="miter" stroke-miterlimit="10" stroke-dasharray="" stroke-dashoffset="0" style="mix-blend-mode: normal"><path d="M183.43408,236.56592v-113.13184h113.13184v113.13184z" fill="none" stroke="none" stroke-width="0" stroke-linecap="butt"/><path d="M214.56729,236.77233c-0.72924,0 -1.34911,-0.25524 -1.85959,-0.76572c-0.51048,-0.51048 -0.76572,-1.13035 -0.76572,-1.85959c0,-0.43756 0.14585,-0.94803 0.43756,-1.53144l44.63026,-107.09075c0.29171,-0.51048 0.65632,-1.02096 1.09388,-1.53144c0.51048,-0.51048 1.27619,-0.76572 2.29716,-0.76572h5.14124c0.65632,0 1.23973,0.25524 1.75021,0.76572c0.51048,0.51048 0.76572,1.09388 0.76572,1.75021c0,0.36464 -0.07292,0.91157 -0.21877,1.64081l-44.73964,107.09075c-0.21877,0.43756 -0.58341,0.91157 -1.09388,1.42204c-0.51048,0.58341 -1.31266,0.8751 -2.40653,0.8751z" fill="#ffffff" stroke="#ffffff" stroke-width="5" stroke-linecap="square"/></g></g></svg>