<svg version="1.1" xmlns="http://www.w3.org/2000/svg" xmlns:xlink="http://www.w3.org/1999/xlink" width="113.13184" height="113.13184" viewBox="0,0,113.13184,113.13184"><g transform="translate(-183.43408,-123.43408)"><g data-paper-data="{&quot;isPaintingLayer&quot;:true}" fill-rule="nonzero" stroke-linejoin="miter" stroke-miterlimit="10" stroke-dasharray="" stroke-dashoffset="0" style="mix-blend-mode: normal"><path d="M183.43408,236.56592v-113.13184h113.13184v113.13184z" fill="none" stroke="none" stroke-width="0" stroke-linecap="butt"/><path d="M243.41796,230.53679c-5.97987,0 -11.04817,-0.91157 -15.20492,-2.7347c-4.08381,-1.89605 -7.43837,-4.48492 -10.06369,-7.76653c-2.62531,-3.35456 -4.52136,-7.14668 -5.68817,-11.37634c-1.1668,-4.30258 -1.85959,-8.86042 -2.07837,-13.67349c-0.07292,-2.3336 -0.14585,-4.81307 -0.21877,-7.43837c0,-2.62531 0,-5.28708 0,-7.98531c0.07292,-2.69824 0.14585,-5.25062 0.21877,-7.65716c0.14585,-4.81307 0.83864,-9.33444 2.07837,-13.5641c1.23973,-4.30258 3.17225,-8.05825 5.79756,-11.26696c2.62531,-3.28164 5.97987,-5.87049 10.06369,-7.76653c4.15674,-1.89605 9.18857,-2.84409 15.09553,-2.84409c6.0528,0 11.12109,0.94803 15.20492,2.84409c4.15674,1.89605 7.54776,4.48492 10.17307,7.76653c2.62531,3.20871 4.55783,6.96436 5.79756,11.26696c1.31266,4.22967 2.00544,8.75103 2.07837,13.5641c0.07292,2.40653 0.10939,4.95892 0.10939,7.65716c0.07292,2.69824 0.07292,5.36001 0,7.98531c0,2.62531 -0.03647,5.10477 -0.10939,7.43837c-0.07292,4.81307 -0.76572,9.3709 -2.07837,13.67349c-1.23973,4.22967 -3.13578,8.02177 -5.68817,11.37634c-2.55239,3.28164 -5.90695,5.87049 -10.06369,7.76653c-4.15674,1.82313 -9.29797,2.7347 -15.4237,2.7347zM243.41796,219.26984c6.85497,0 11.88681,-2.22422 15.09553,-6.67266c3.28164,-4.44844 4.95892,-10.5377 5.03185,-18.26777c0.21877,-2.47946 0.32816,-4.92245 0.32816,-7.32899c0,-2.40653 0,-4.81307 0,-7.21959c0,-2.40653 -0.10939,-4.77661 -0.32816,-7.11021c-0.07292,-7.58424 -1.75021,-13.63702 -5.03185,-18.15838c-3.20871,-4.59429 -8.24055,-6.89144 -15.09553,-6.89144c-6.6362,0 -11.59511,2.29716 -14.87677,6.89144c-3.28164,4.52136 -4.99537,10.57416 -5.14124,18.15838c0,2.3336 -0.03647,4.70369 -0.10939,7.11021c-0.07292,2.40653 -0.07292,4.81307 0,7.21959c0.07292,2.40653 0.10939,4.84952 0.10939,7.32899c0.14585,7.73008 1.85959,13.81933 5.14124,18.26777c3.35456,4.44844 8.31348,6.67266 14.87677,6.67266z" fill="#ffffff" stroke="#ffffff" stroke-width="5" stroke-linecap="square"/></g></g></svg>