<svg version="1.1" xmlns="http://www.w3.org/2000/svg" xmlns:xlink="http://www.w3.org/1999/xlink" width="5.16" height="5.16" viewBox="0,0,5.16,5.16"><g transform="translate(-237.42,-177.42)"><g data-paper-data="{&quot;isPaintingLayer&quot;:true}" fill-rule="nonzero" stroke="none" stroke-width="0" stroke-linecap="butt" stroke-linejoin="miter" stroke-miterlimit="10" stroke-dasharray="" stroke-dashoffset="0" style="mix-blend-mode: normal"><path d="M237.42,182.58v-5.16h5.16v5.16z" data-paper-data="{&quot;index&quot;:null}" fill="none"/><path d="M238.32865,180.1376c0.00611,0.08017 -0.1441,-0.00959 -0.34298,-0.09726c-0.19888,-0.08769 -0.37111,-0.14009 -0.37722,-0.22026c-0.00612,-0.08017 0.14775,-0.1003 0.34662,-0.01263c0.19888,0.08767 0.36745,0.24995 0.37357,0.33012z" data-paper-data="{&quot;index&quot;:null}" fill="#693a00"/><path d="M241.58557,179.98087c0.06355,-0.04924 0.29698,-0.03309 0.49542,0.05558c0.19843,0.08866 0.28672,0.21628 0.22317,0.26552c-0.06356,0.04926 -0.21795,-0.04331 -0.41639,-0.13198c-0.19845,-0.08866 -0.36577,-0.13986 -0.30222,-0.1891z" data-paper-data="{&quot;index&quot;:null}" fill="#693a00"/><path d="M239.77751,181.07631c0,0.29291 -0.05159,0.53036 -0.11524,0.53036c-0.06365,0 -0.11524,-0.23745 -0.11524,-0.53036c0,-0.29291 0.05159,-0.53036 0.11524,-0.53036c0.06365,0 0.11524,0.23745 0.11524,0.53036z" data-paper-data="{&quot;index&quot;:null}" fill="#693a00"/><path d="M240.41917,181.01223c0,0.29291 -0.05159,0.53036 -0.11524,0.53036c-0.06365,0 -0.11524,-0.23745 -0.11524,-0.53036c0,-0.29291 0.05159,-0.53036 0.11524,-0.53036c0.06365,0 0.11524,0.23745 0.11524,0.53036z" data-paper-data="{&quot;index&quot;:null}" fill="#693a00"/><path d="M242.04767,179.90165c0.00545,1.01079 0.01053,1.23685 -0.52482,1.31284c-0.03985,0.00428 -0.07817,0.02362 -0.07817,0.02362l-0.14851,0.22431l-0.52862,-0.00082l-0.1643,-0.16966c0,0 -0.50686,0.00622 -0.57158,0.00571c-2.04659,-0.01603 -2.02985,-0.00532 -2.04555,-1.41956c-0.01566,-1.41096 -0.02454,-1.42238 2.04555,-1.39881c0.15256,0.00174 0.45825,0.01864 0.45825,0.01864l0.1761,0.20589l0.57301,0.04115l0.16281,-0.21527c0,0 0.06115,0.00615 0.08983,0.0074c0.47129,0.02056 0.5512,0.47386 0.55601,1.36457z" data-paper-data="{&quot;index&quot;:null}" fill="#ffab19"/></g></g></svg>