<svg version="1.1" xmlns="http://www.w3.org/2000/svg" xmlns:xlink="http://www.w3.org/1999/xlink" width="52.5" height="52.5" viewBox="0,0,52.5,52.5"><g transform="translate(-294.20802,-263.38503)"><g data-paper-data="{&quot;isPaintingLayer&quot;:true}" fill-rule="nonzero" stroke-linecap="butt" stroke-linejoin="miter" stroke-miterlimit="10" stroke-dasharray="" stroke-dashoffset="0" style="mix-blend-mode: normal"><path d="M295.45802,289.63503c0,-13.80712 11.19288,-25 25,-25c13.80712,0 25,11.19288 25,25c0,13.80712 -11.19288,25 -25,25c-13.80712,0 -25,-11.19288 -25,-25z" fill="#ffaf4d" stroke="#ffffff" stroke-width="2.5"/><path d="M305.06217,289.24806c0,-4.76281 3.89826,-14.78122 13.01622,-14.32448c4.50702,0.22577 8.72406,6.71128 17.56024,1.81101c6.26973,-2.4328 8.274,9.55485 8.274,12.51347c0,10.10533 -8.69697,18.29731 -19.42523,18.29731c-10.72826,0 -19.42523,-8.19198 -19.42523,-18.29731z" fill="#ffedb8" stroke="none" stroke-width="0"/><path d="M339.74686,289.95859c0,1.54147 -0.72894,2.79107 -1.62812,2.79107c-0.89919,0 -1.62812,-1.2496 -1.62812,-2.79107c0,-0.92003 0.2134,-1.87345 2.60497,-2.78744c0.60073,-0.22958 0.65127,2.166 0.65127,2.78744z" fill="#693a00" stroke="none" stroke-width="0"/><path d="M326.10996,290.7146c0,1.92683 -0.86778,3.48884 -1.93824,3.48884c-1.07046,0 -1.93824,-1.56201 -1.93824,-3.48884c0,-0.89053 0.44435,-3.93189 1.28182,-3.62127c2.92963,1.08662 2.59466,2.58496 2.59466,3.62127z" fill="#693a00" stroke="none" stroke-width="0"/><path d="M334.77358,294.60619c0,0 -2.78607,6.01577 -7.44345,4.62415c-1.20217,-0.35921 -0.22769,-5.52613 -0.22769,-5.52613z" fill="#b46300" stroke="none" stroke-width="0"/></g></g></svg>