<svg version="1.1" xmlns="http://www.w3.org/2000/svg" xmlns:xlink="http://www.w3.org/1999/xlink" width="19.68383" height="19.68383" viewBox="0,0,19.68383,19.68383"><defs><linearGradient x1="240.04435" y1="176.15465" x2="240.04435" y2="180.72333" gradientUnits="userSpaceOnUse" id="color-1"><stop offset="0" stop-color="#ffbf66"/><stop offset="1" stop-color="#ffd080"/></linearGradient></defs><g transform="translate(-230.15809,-170.15809)"><g data-paper-data="{&quot;isPaintingLayer&quot;:true}" fill-rule="nonzero" stroke="none" stroke-linecap="butt" stroke-linejoin="miter" stroke-miterlimit="10" stroke-dasharray="" stroke-dashoffset="0" style="mix-blend-mode: normal"><path d="M230.1581,189.84193v-19.68383h19.68383v19.68383z" data-paper-data="{&quot;index&quot;:null}" fill="none" stroke-width="0"/><path d="M243.14105,184.04745c-1.28383,0 -7.11767,0 -7.11767,0v-8.01312h6.90879c0.2389,0.26022 0.53223,0.46968 0.86195,0.61033c0.07628,0.06707 0.15705,0.13124 0.24239,0.19217c0,1.6469 0,5.33461 0,6.29665c0,0.44842 -0.40885,0.91397 -0.89545,0.91397z" data-paper-data="{&quot;index&quot;:null}" fill="#ffbe4d" stroke-width="0"/><path d="M236.00774,176.02151l6.85562,-0.00341c0,0 0.16442,0.04341 0.23341,0.04341c0.53019,0 0.96,0.4298 0.96,0.96c0,0.53019 -0.4298,0.96 -0.96,0.96c-0.05256,0 -0.22642,0.01054 -0.22642,0.01054l-6.83183,-0.02461c0,0 -0.03078,-1.94593 -0.03078,-1.94593z" fill="#ffe3b3" stroke-width="0.5"/><path d="M243.41474,180.72332c-1.11638,0 -7.37694,0 -7.37694,0v-3.76633l8.01312,-0.07767c0,0 0,2.65457 0,3.1869c0,0.31071 -0.30834,0.65709 -0.63618,0.65709z" data-paper-data="{&quot;index&quot;:null}" fill="url(#color-1)" stroke-width="0"/></g></g></svg>