<svg version="1.1" xmlns="http://www.w3.org/2000/svg" xmlns:xlink="http://www.w3.org/1999/xlink" width="766.9074" height="86.57141" viewBox="0,0,766.9074,86.57141"><g transform="translate(464.1234,-147.86956)"><g data-paper-data="{&quot;isPaintingLayer&quot;:true}" fill-rule="nonzero" stroke-linejoin="miter" stroke-miterlimit="10" stroke-dasharray="" stroke-dashoffset="0" style="mix-blend-mode: normal"><path d="M207.85991,217.91559c0,0 0.10253,-50.57778 0.10253,-57.70436c0,-7.61727 3.6888,-12.04989 11.69047,-12.19275c6.95634,-0.12419 60.47528,-0.14891 60.47528,-0.14891c0,0 22.42474,56.96599 22.65534,69.9434c0.13696,7.70761 -29.76425,16.64563 -37.99903,16.62798c-13.19512,-0.02829 -56.9246,-16.52537 -56.9246,-16.52537z" fill-opacity="0.2008" fill="#000000" stroke="none" stroke-width="0" stroke-linecap="butt"/><path d="M-464.1234,217.07839v-59.32536c0,0 600.64838,0 653.23531,0c7.82215,0 12.12103,4.76497 12.32103,12.34661c0.28453,10.78601 0,46.97875 0,46.97875z" fill-opacity="0.2008" fill="#000000" stroke="none" stroke-width="0" stroke-linecap="butt"/><g fill="#ffffff" stroke="#ffffff" stroke-width="6" stroke-linecap="round"><path d="M223.6015,197.08841v-7.74179"/><path d="M223.6015,170.9047v-7.99301"/><path d="M257.76705,197.07725h-34.17669"/><path d="M257.76705,162.92282h-34.17669" data-paper-data="{&quot;index&quot;:null}"/><path d="M257.75593,162.91169v34.17669" data-paper-data="{&quot;index&quot;:null}"/><path d="M223.63188,180.10317h25.60353" data-paper-data="{&quot;index&quot;:null}"/><path d="M242.06612,172.60849l7.51717,7.51717"/><path d="M249.5833,180.12566l-7.51717,7.51717" data-paper-data="{&quot;index&quot;:null}"/></g></g></g></svg>