<svg version="1.1" xmlns="http://www.w3.org/2000/svg" xmlns:xlink="http://www.w3.org/1999/xlink" width="134" height="134" viewBox="0,0,134,134"><g transform="translate(-173,-113)"><g data-paper-data="{&quot;isPaintingLayer&quot;:true}" fill-rule="nonzero" stroke-linecap="butt" stroke-linejoin="miter" stroke-miterlimit="10" stroke-dasharray="" stroke-dashoffset="0" style="mix-blend-mode: normal"><path d="M263.85131,195.79526c-6.28465,-0.73798 -41.07745,-4.48415 -51.82865,-5.74666c-6.17169,-0.72474 -9.61639,-12.51583 -9.05937,-14.80689c0.5713,-2.34977 7.45335,-11.88613 15.03428,-10.99589c9.83969,1.15545 41.29124,4.50925 46.98722,5.17814c5.75414,0.6757 12.17269,10.87767 12.07793,14.17967c-0.0748,2.60657 -8.10302,12.7915 -13.21141,12.19163z" data-paper-data="{&quot;index&quot;:null}" fill="#5cb1d6" stroke="#ffffff" stroke-width="5"/><path d="M263.8513,195.79526c-6.28465,-0.73798 -41.07745,-4.48415 -51.82865,-5.74666c-6.17169,-0.72474 -9.61639,-12.51583 -9.05937,-14.80689c0.5713,-2.34977 7.45335,-11.88613 15.03428,-10.99589c9.83969,1.15545 41.29124,4.50925 46.98722,5.17814c5.75414,0.6757 12.17269,10.87767 12.07793,14.17967c-0.0748,2.60657 -8.10302,12.7915 -13.21141,12.19163z" data-paper-data="{&quot;index&quot;:null}" fill="#5cb1d6" stroke="none" stroke-width="0"/><path d="M254.55752,181.56234c0.25916,7.73343 -0.49171,8.31493 -16.67786,7.67265c-16.56036,-0.65712 -17.0164,-2.70646 -16.26605,-11.64378c0.71352,-8.49879 8.18871,-8.92406 17.70166,-7.51001c12.07669,1.79511 14.99639,4.14453 15.24225,11.48112z" data-paper-data="{&quot;index&quot;:null}" fill="#519bbb" stroke="none" stroke-width="0"/><path d="M246.64055,175.60021c1.32041,0.16885 2.13985,2.26812 1.83029,4.68885c-0.30955,2.42074 -1.63088,4.24625 -2.95129,4.0774c-1.32041,-0.16885 -2.13985,-2.26812 -1.83029,-4.68885c0.30955,-2.42074 1.63088,-4.24625 2.95129,-4.0774z" data-paper-data="{&quot;index&quot;:null}" fill="#ffffff" stroke="none" stroke-width="0"/><path d="M227.04763,173.58806c1.32041,0.16885 2.13985,2.26812 1.83029,4.68885c-0.30955,2.42074 -1.63088,4.24625 -2.95129,4.0774c-1.32041,-0.16885 -2.13985,-2.26812 -1.83029,-4.68885c0.30955,-2.42074 1.63088,-4.24625 2.95129,-4.0774z" data-paper-data="{&quot;index&quot;:null}" fill="#ffffff" stroke="none" stroke-width="0"/><path d="M231.19931,179.89413c0,0 2.86919,0.50652 5.75232,0.87521c2.88314,0.36868 5.03346,-0.05447 5.03346,-0.05447c0,0 -1.16301,3.62114 -6.03971,3.55602c-2.90635,-0.0388 -4.74605,-4.37676 -4.74605,-4.37676z" data-paper-data="{&quot;index&quot;:null}" fill="#ffffff" stroke="none" stroke-width="0"/><path d="M173,247v-134h134v134z" fill="none" stroke="none" stroke-width="0"/></g></g></svg>