<svg version="1.1" xmlns="http://www.w3.org/2000/svg" xmlns:xlink="http://www.w3.org/1999/xlink" width="134" height="134" viewBox="0,0,134,134"><g transform="translate(-173,-113)"><g data-paper-data="{&quot;isPaintingLayer&quot;:true}" fill-rule="nonzero" stroke-linecap="butt" stroke-linejoin="miter" stroke-miterlimit="10" stroke-dasharray="" stroke-dashoffset="0" style="mix-blend-mode: normal"><path d="M216.66941,178.95416c1.05966,-6.63096 3.26366,-10.22405 9.10048,-12.06943c1.59652,-0.50476 2.06992,2.4225 4.26096,2.15286c1.55229,-0.19104 4.24701,0.80844 6.54561,-0.2439c1.48271,-0.67882 2.5291,-3.58828 3.90578,-3.61672c13.81392,-0.28556 24.3888,1.71072 23.85688,14.12643c-0.55935,13.05632 -1.58268,15.9341 -25.30142,13.82306c-1.66385,-0.14809 -3.04645,1.19085 -4.84617,1.41243c-2.69524,0.33184 -5.74814,-0.377 -7.45102,-0.5958c-2.16342,-0.27798 -2.11773,-2.45973 -3.63232,-2.80099c-7.58867,-1.70985 -7.65565,-4.57309 -6.43876,-12.18794z" fill="#9966ff" stroke="#ffffff" stroke-width="5"/><path d="M216.66941,178.95416c1.05966,-6.63096 3.26366,-10.22405 9.10048,-12.06943c1.59652,-0.50476 2.06992,2.4225 4.26096,2.15286c1.55229,-0.19104 4.24701,0.80844 6.54561,-0.2439c1.48271,-0.67882 2.5291,-3.58828 3.90578,-3.61672c13.81392,-0.28556 24.3888,1.71072 23.85688,14.12643c-0.55935,13.05632 -1.58268,15.9341 -25.30142,13.82306c-1.66385,-0.14809 -3.04645,1.19085 -4.84617,1.41243c-2.69524,0.33184 -5.74814,-0.377 -7.45102,-0.5958c-2.16342,-0.27798 -2.11773,-2.45973 -3.63232,-2.80099c-7.58867,-1.70985 -7.65565,-4.57309 -6.43876,-12.18794z" fill="#9966ff" stroke="none" stroke-width="0"/><path d="M231.14858,179.25678c0,2.44044 -1.0791,4.41881 -2.41026,4.41881c-1.33115,0 -2.41026,-1.97837 -2.41026,-4.41881c0,-2.44044 1.0791,-4.41881 2.41026,-4.41881c1.33115,0 2.41026,1.97837 2.41026,4.41881z" fill="#ffffff" stroke="none" stroke-width="0"/><path d="M249.49048,179.0602c0,2.44044 -1.0791,4.41881 -2.41026,4.41881c-1.33115,0 -2.41026,-1.97837 -2.41026,-4.41881c0,-2.44044 1.0791,-4.41881 2.41026,-4.41881c1.33115,0 2.41026,1.97837 2.41026,4.41881z" fill="#ffffff" stroke="none" stroke-width="0"/><path d="M233.65487,178.47994c0,0 2.35304,0.4742 3.56755,0.3291c3.34713,-0.39989 5.51811,-1.28968 5.51811,-1.28968c0,0 1.21684,2.69915 0.30477,4.88281c-0.91209,2.18365 -3.75359,3.07583 -6.34669,1.99274c-2.59309,-1.08309 -3.04374,-5.91498 -3.04374,-5.91498z" data-paper-data="{&quot;index&quot;:null}" fill="#ffffff" stroke="none" stroke-width="0"/><path d="M173,247v-134h134v134z" fill="none" stroke="none" stroke-width="0"/></g></g></svg>