<svg version="1.1" xmlns="http://www.w3.org/2000/svg" xmlns:xlink="http://www.w3.org/1999/xlink" width="113.13184" height="113.13184" viewBox="0,0,113.13184,113.13184"><g transform="translate(-183.43408,-123.43408)"><g data-paper-data="{&quot;isPaintingLayer&quot;:true}" stroke-linejoin="miter" stroke-miterlimit="10" stroke-dasharray="" stroke-dashoffset="0" style="mix-blend-mode: normal"><path d="M183.43408,236.56592v-113.13184h113.13184v113.13184z" fill="none" fill-rule="nonzero" stroke="none" stroke-width="0" stroke-linecap="butt"/><path d="" fill="#ffffff" fill-rule="evenodd" stroke="#ffffff" stroke-width="5" stroke-linecap="square"/><path d="M240.05471,226.38051c-5.4694,0 -10.28245,-0.65632 -14.43921,-1.96899c-4.08381,-1.38557 -7.5113,-3.20871 -10.28245,-5.4694c-2.77116,-2.26068 -4.886,-4.74014 -6.34449,-7.43837c-1.38557,-2.77116 -2.15129,-5.57878 -2.29716,-8.42287c0,-0.72924 0.25524,-1.31266 0.76572,-1.75021c0.58341,-0.51048 1.23973,-0.76572 1.96899,-0.76572h6.45388c0.80218,0 1.53144,0.18231 2.18776,0.54695c0.65632,0.36464 1.13035,1.13035 1.42204,2.29716c0.8751,3.13578 2.37007,5.57878 4.48492,7.32899c2.18776,1.75021 4.66721,2.95348 7.43837,3.6098c2.84409,0.58341 5.72463,0.8751 8.64163,0.8751c5.97987,0 10.8294,-1.42204 14.54858,-4.26613c3.79211,-2.84409 5.68817,-7.07376 5.68817,-12.689c0,-5.61524 -1.71375,-9.62613 -5.14124,-12.03268c-3.35456,-2.47946 -8.05825,-3.7192 -14.11105,-3.7192h-12.36083c-0.8751,0 -1.60435,-0.25524 -2.18776,-0.76572c-0.58341,-0.58341 -0.8751,-1.34911 -0.8751,-2.29716v-3.50042c0,-0.80218 0.14585,-1.45851 0.43756,-1.96899c0.36464,-0.58341 0.72924,-1.09388 1.09388,-1.53144l25.2686,-27.67513h-38.50455c-0.8751,0 -1.60435,-0.25524 -2.18776,-0.76572c-0.51048,-0.58341 -0.76572,-1.34911 -0.76572,-2.29716v-4.92245c0,-0.94803 0.25524,-1.71375 0.76572,-2.29716c0.58341,-0.58341 1.31266,-0.8751 2.18776,-0.8751h52.06864c1.02096,0 1.78667,0.29171 2.29716,0.8751c0.58341,0.58341 0.8751,1.34911 0.8751,2.29716v4.70369c0,0.58341 -0.14585,1.13035 -0.43756,1.64081c-0.29171,0.43756 -0.61986,0.8751 -0.98449,1.31266l-25.2686,28.11269l2.18776,0.10939c5.68817,0.21877 10.68355,1.27619 14.98614,3.17225c4.37552,1.89605 7.73008,4.74014 10.06369,8.53225c2.40653,3.79211 3.6098,8.56872 3.6098,14.32982c0,5.83401 -1.45851,10.79293 -4.37552,14.87677c-2.84409,4.08381 -6.78204,7.25605 -11.81389,9.51675c-4.95892,2.18776 -10.64709,3.28164 -17.06452,3.28164z" fill="#ffffff" fill-rule="nonzero" stroke="#ffffff" stroke-width="5" stroke-linecap="square"/></g></g></svg>