<svg version="1.1" xmlns="http://www.w3.org/2000/svg" xmlns:xlink="http://www.w3.org/1999/xlink" width="112.64419" height="25.95512" viewBox="0,0,112.64419,25.95512"><g transform="translate(-183.6779,-167.02244)"><g data-paper-data="{&quot;isPaintingLayer&quot;:true}" fill-rule="nonzero" stroke-miterlimit="10" stroke-dasharray="" stroke-dashoffset="0" style="mix-blend-mode: normal"><path d="M196.65547,167.02244h86.68907c7.18957,0 12.97756,5.78799 12.97756,12.97756c0,7.18957 -5.788,12.97756 -12.97756,12.97756h-86.68907c-7.18957,0 -12.97756,-5.78799 -12.97756,-12.97756c0,-7.18957 5.78799,-12.97756 12.97756,-12.97756z" fill="#000000" stroke="none" stroke-width="0.365" stroke-linecap="round" stroke-linejoin="round"/><path d="M197.21137,184.43629c-0.09688,0 -0.1714,-0.02981 -0.22356,-0.08943c-0.05216,-0.05962 -0.07826,-0.13041 -0.07826,-0.21238v-8.7302c0,-0.08943 0.02608,-0.16395 0.07826,-0.22356c0.05216,-0.05962 0.12668,-0.08943 0.22356,-0.08943h0.7154c0.08943,0 0.16022,0.02981 0.21238,0.08943c0.05962,0.05962 0.08943,0.13413 0.08943,0.22356v7.86947h4.42659c0.10433,0 0.18258,0.02981 0.23475,0.08943c0.05962,0.05962 0.08943,0.13786 0.08943,0.23475v0.53657c0,0.08197 -0.02981,0.15276 -0.08943,0.21238c-0.05216,0.05962 -0.13041,0.08943 -0.23475,0.08943zM206.94851,184.57044c-0.67814,0 -1.24451,-0.12668 -1.69909,-0.38006c-0.45458,-0.26084 -0.8011,-0.61853 -1.03958,-1.07311c-0.23847,-0.46203 -0.37261,-0.9874 -0.40241,-1.57613c-0.00745,-0.14905 -0.01118,-0.34279 -0.01118,-0.58128c0,-0.23847 0.00373,-0.42849 0.01118,-0.57008c0.02981,-0.59618 0.16395,-1.12155 0.40241,-1.57613c0.24592,-0.45458 0.59618,-0.80856 1.05075,-1.06193c0.45458,-0.26084 1.01722,-0.39125 1.68792,-0.39125c0.66325,0 1.22215,0.13041 1.67673,0.39125c0.45458,0.25337 0.80484,0.60736 1.05075,1.06193c0.24592,0.45458 0.38006,0.97996 0.40241,1.57613c0.00745,0.1416 0.01118,0.33163 0.01118,0.57008c0,0.23847 -0.00373,0.43223 -0.01118,0.58128c-0.02236,0.58872 -0.15649,1.1141 -0.40241,1.57613c-0.23847,0.45458 -0.58499,0.81229 -1.03958,1.07311c-0.45458,0.25337 -1.01722,0.38006 -1.68792,0.38006zM206.94851,183.54203c0.55146,0 0.99113,-0.17513 1.31903,-0.52538c0.3279,-0.35025 0.50674,-0.86445 0.53657,-1.5426c0.00745,-0.13413 0.01118,-0.30181 0.01118,-0.50302c0,-0.20866 -0.00373,-0.38006 -0.01118,-0.5142c-0.02981,-0.67814 -0.20866,-1.19235 -0.53657,-1.5426c-0.3279,-0.35025 -0.76758,-0.52538 -1.31903,-0.52538c-0.55146,0 -0.99487,0.17513 -1.33021,0.52538c-0.33535,0.35025 -0.51046,0.86445 -0.52538,1.5426c-0.00745,0.13413 -0.01118,0.30555 -0.01118,0.5142c0,0.20122 0.00373,0.36888 0.01118,0.50302c0.0149,0.67814 0.19003,1.19235 0.52538,1.5426c0.33535,0.35025 0.77875,0.52538 1.33021,0.52538zM213.69294,184.57044c-0.43967,0 -0.84209,-0.08943 -1.20725,-0.26828c-0.36517,-0.17886 -0.65951,-0.41733 -0.88309,-0.7154c-0.22356,-0.30555 -0.33535,-0.64834 -0.33535,-1.02839c0,-0.61853 0.24965,-1.11037 0.74894,-1.47553c0.49929,-0.36517 1.14763,-0.60363 1.94501,-0.7154l1.98973,-0.27945v-0.39125c0,-0.42477 -0.12296,-0.7564 -0.36888,-0.99487c-0.23847,-0.24592 -0.63342,-0.36888 -1.18489,-0.36888c-0.39497,0 -0.71913,0.08197 -0.97249,0.24592c-0.24592,0.15649 -0.41733,0.36143 -0.5142,0.6148c-0.05216,0.13413 -0.14532,0.20122 -0.27945,0.20122h-0.60363c-0.09688,0 -0.1714,-0.02981 -0.22356,-0.08943c-0.04471,-0.05962 -0.06706,-0.13041 -0.06706,-0.21238c0,-0.13413 0.04844,-0.29808 0.14532,-0.49185c0.10433,-0.19375 0.26456,-0.38377 0.48067,-0.57008c0.21611,-0.1863 0.48811,-0.34279 0.816,-0.46948c0.33535,-0.13413 0.74522,-0.20122 1.22961,-0.20122c0.5291,0 0.97624,0.07079 1.34138,0.21238c0.36517,0.13413 0.65206,0.31671 0.86072,0.54773c0.20866,0.23101 0.36143,0.49557 0.45831,0.79366c0.09688,0.29063 0.14532,0.58872 0.14532,0.89426v4.32597c0,0.08197 -0.02981,0.15276 -0.08943,0.21238c-0.05962,0.05962 -0.13413,0.08943 -0.22356,0.08943h-0.6148c-0.09688,0 -0.1714,-0.02981 -0.22356,-0.08943c-0.05216,-0.05962 -0.07826,-0.13041 -0.07826,-0.21238v-0.58128c-0.11924,0.16395 -0.27573,0.32418 -0.46948,0.48067c-0.19375,0.14905 -0.43967,0.27573 -0.73776,0.38006c-0.29063,0.10433 -0.65206,0.15649 -1.08429,0.15649zM213.98358,183.56439c0.36517,0 0.69678,-0.07452 0.99487,-0.22356c0.30555,-0.15649 0.54401,-0.39869 0.7154,-0.72659c0.1714,-0.33535 0.25709,-0.75267 0.25709,-1.25197v-0.36888l-1.5426,0.22356c-0.63342,0.08943 -1.11037,0.23847 -1.43081,0.44712c-0.32044,0.20866 -0.48067,0.47321 -0.48067,0.79366c0,0.25337 0.07079,0.46203 0.21238,0.62598c0.14905,0.16395 0.33535,0.28691 0.55891,0.36888c0.23101,0.07452 0.46948,0.11178 0.7154,0.11178zM221.664,184.57044c-0.48439,0 -0.90543,-0.0857 -1.26313,-0.25709c-0.3577,-0.17886 -0.65206,-0.41733 -0.88309,-0.7154c-0.22356,-0.29808 -0.39125,-0.63716 -0.50302,-1.01722c-0.11178,-0.38006 -0.17513,-0.78621 -0.19003,-1.21842c-0.00745,-0.1416 -0.01118,-0.272 -0.01118,-0.39125c0,-0.12668 0.00373,-0.26084 0.01118,-0.40241c0.0149,-0.41733 0.07826,-0.816 0.19003,-1.19607c0.11178,-0.38752 0.27945,-0.73031 0.50302,-1.02839c0.23101,-0.30555 0.52538,-0.54401 0.88309,-0.7154c0.3577,-0.17886 0.77875,-0.26828 1.26313,-0.26828c0.5291,0 0.96505,0.09315 1.30785,0.27945c0.35025,0.1863 0.63716,0.41733 0.86072,0.69306v-3.06284c0,-0.08943 0.02608,-0.16395 0.07826,-0.22356c0.05962,-0.05962 0.13413,-0.08943 0.22356,-0.08943h0.63716c0.08943,0 0.16395,0.02981 0.22356,0.08943c0.05962,0.05962 0.08943,0.13413 0.08943,0.22356v8.86433c0,0.08197 -0.02981,0.15276 -0.08943,0.21238c-0.05962,0.05962 -0.13413,0.08943 -0.22356,0.08943h-0.59244c-0.09688,0 -0.17513,-0.02981 -0.23475,-0.08943c-0.05216,-0.05962 -0.07826,-0.13041 -0.07826,-0.21238v-0.57008c-0.22356,0.29063 -0.5142,0.53282 -0.8719,0.72659c-0.35025,0.1863 -0.79366,0.27945 -1.33021,0.27945zM221.94347,183.48615c0.44712,0 0.80484,-0.1006 1.07311,-0.30181c0.26828,-0.20866 0.46576,-0.46948 0.59244,-0.78247c0.13413,-0.31299 0.20866,-0.63716 0.22356,-0.97249c0.00745,-0.1416 0.01118,-0.30927 0.01118,-0.50302c0,-0.20122 -0.00373,-0.37633 -0.01118,-0.52538c-0.0149,-0.30555 -0.09315,-0.61108 -0.23475,-0.91662c-0.13413,-0.30555 -0.33535,-0.55519 -0.60363,-0.74894c-0.26828,-0.19375 -0.61853,-0.29063 -1.05075,-0.29063c-0.45458,0 -0.816,0.1006 -1.08429,0.30181c-0.26084,0.20122 -0.45087,0.46576 -0.57008,0.79366c-0.11178,0.32044 -0.17886,0.66698 -0.20122,1.03958c-0.00745,0.26084 -0.00745,0.51793 0,0.7713c0.02236,0.37261 0.08943,0.72287 0.20122,1.05075c0.11924,0.32044 0.30927,0.58128 0.57008,0.78247c0.26828,0.20122 0.6297,0.30181 1.08429,0.30181zM230.81855,184.43629c-0.09688,0 -0.1714,-0.02981 -0.22356,-0.08943c-0.05216,-0.05962 -0.07826,-0.13041 -0.07826,-0.21238v-8.71902c0,-0.09688 0.02608,-0.17513 0.07826,-0.23475c0.05216,-0.05962 0.12668,-0.08943 0.22356,-0.08943h3.39819c0.65578,0 1.22589,0.10805 1.71028,0.32418c0.48439,0.21611 0.86072,0.53657 1.12901,0.96132c0.26828,0.41733 0.40241,0.9427 0.40241,1.57613c0,0.62598 -0.13413,1.15135 -0.40241,1.57613c-0.26828,0.41733 -0.64461,0.73404 -1.12901,0.95015c-0.48439,0.20866 -1.05448,0.31299 -1.71028,0.31299h-2.36978v3.34229c0,0.08197 -0.02981,0.15276 -0.08943,0.21238c-0.05216,0.05962 -0.12668,0.08943 -0.22356,0.08943zM231.83576,179.67437h2.31389c0.65578,0 1.14763,-0.14532 1.47553,-0.43595c0.3279,-0.29808 0.49185,-0.72659 0.49185,-1.28551c0,-0.55146 -0.16022,-0.97996 -0.48067,-1.28551c-0.32044,-0.30555 -0.816,-0.45831 -1.4867,-0.45831h-2.31389zM239.21952,184.43629c-0.08943,0 -0.16395,-0.02981 -0.22356,-0.08943c-0.05962,-0.05962 -0.08943,-0.13041 -0.08943,-0.21238v-6.3157c0,-0.08943 0.02981,-0.16395 0.08943,-0.22356c0.05962,-0.06706 0.13413,-0.1006 0.22356,-0.1006h0.6148c0.08943,0 0.16395,0.03354 0.22356,0.1006c0.05962,0.05962 0.08943,0.13413 0.08943,0.22356v0.58128c0.17886,-0.29808 0.42477,-0.52165 0.73776,-0.67069c0.31299,-0.15649 0.69306,-0.23475 1.14019,-0.23475h0.5142c0.08943,0 0.16395,0.02981 0.22356,0.08943c0.05962,0.05962 0.08943,0.13413 0.08943,0.22356v0.54773c0,0.08197 -0.02981,0.15276 -0.08943,0.21238c-0.05962,0.05216 -0.13413,0.07826 -0.22356,0.07826h-0.80484c-0.47695,0 -0.85328,0.1416 -1.12901,0.42477c-0.27573,0.27573 -0.41359,0.65578 -0.41359,1.14019v3.92356c0,0.08197 -0.03354,0.15276 -0.1006,0.21238c-0.05962,0.05962 -0.13413,0.08943 -0.22356,0.08943zM246.69523,184.57044c-0.67814,0 -1.24451,-0.12668 -1.69909,-0.38006c-0.45458,-0.26084 -0.8011,-0.61853 -1.03958,-1.07311c-0.23847,-0.46203 -0.37261,-0.9874 -0.40241,-1.57613c-0.00745,-0.14905 -0.01118,-0.34279 -0.01118,-0.58128c0,-0.23847 0.00373,-0.42849 0.01118,-0.57008c0.02981,-0.59618 0.16395,-1.12155 0.40241,-1.57613c0.24592,-0.45458 0.59618,-0.80856 1.05075,-1.06193c0.45458,-0.26084 1.01722,-0.39125 1.68792,-0.39125c0.66325,0 1.22215,0.13041 1.67673,0.39125c0.45458,0.25337 0.80484,0.60736 1.05075,1.06193c0.24592,0.45458 0.38006,0.97996 0.40241,1.57613c0.00745,0.1416 0.01118,0.33163 0.01118,0.57008c0,0.23847 -0.00373,0.43223 -0.01118,0.58128c-0.02236,0.58872 -0.15649,1.1141 -0.40241,1.57613c-0.23847,0.45458 -0.58499,0.81229 -1.03958,1.07311c-0.45458,0.25337 -1.01722,0.38006 -1.68792,0.38006zM246.69523,183.54203c0.55146,0 0.99113,-0.17513 1.31903,-0.52538c0.3279,-0.35025 0.50674,-0.86445 0.53657,-1.5426c0.00745,-0.13413 0.01118,-0.30181 0.01118,-0.50302c0,-0.20866 -0.00373,-0.38006 -0.01118,-0.5142c-0.02981,-0.67814 -0.20866,-1.19235 -0.53657,-1.5426c-0.3279,-0.35025 -0.76758,-0.52538 -1.31903,-0.52538c-0.55146,0 -0.99487,0.17513 -1.33021,0.52538c-0.33535,0.35025 -0.51046,0.86445 -0.52538,1.5426c-0.00745,0.13413 -0.01118,0.30555 -0.01118,0.5142c0,0.20122 0.00373,0.36888 0.01118,0.50302c0.0149,0.67814 0.19003,1.19235 0.52538,1.5426c0.33535,0.35025 0.77875,0.52538 1.33021,0.52538zM254.35631,187.37618c-0.61108,0 -1.11037,-0.08197 -1.49789,-0.24592c-0.38006,-0.15649 -0.68188,-0.35025 -0.90543,-0.58128c-0.21611,-0.22356 -0.37261,-0.45087 -0.46948,-0.68188c-0.08943,-0.22356 -0.13786,-0.40241 -0.14532,-0.53657c-0.00745,-0.08943 0.02236,-0.16767 0.08943,-0.23475c0.06706,-0.05962 0.13786,-0.08943 0.21238,-0.08943h0.64834c0.07452,0 0.13786,0.01864 0.19003,0.0559c0.05962,0.03726 0.10433,0.11178 0.13413,0.22356c0.05962,0.13413 0.1416,0.28318 0.24592,0.44712c0.10433,0.1714 0.26828,0.31671 0.49185,0.43595c0.22356,0.11924 0.53657,0.17886 0.93897,0.17886c0.41733,0 0.76758,-0.05962 1.05075,-0.17886c0.28318,-0.11178 0.49929,-0.30555 0.64834,-0.58128c0.14905,-0.27573 0.22356,-0.65951 0.22356,-1.15135v-0.90543c-0.21611,0.27573 -0.49929,0.50674 -0.84955,0.69306c-0.34279,0.17886 -0.77875,0.26828 -1.30785,0.26828c-0.49185,0 -0.91662,-0.0857 -1.27431,-0.25709c-0.3577,-0.17886 -0.65206,-0.41733 -0.88309,-0.7154c-0.22356,-0.29808 -0.39125,-0.63716 -0.50302,-1.01722c-0.11178,-0.38006 -0.17513,-0.78247 -0.19003,-1.20725c-0.00745,-0.24592 -0.00745,-0.48811 0,-0.72659c0.0149,-0.41733 0.07826,-0.816 0.19003,-1.19607c0.11178,-0.38752 0.27945,-0.73031 0.50302,-1.02839c0.23101,-0.30555 0.52538,-0.54401 0.88309,-0.7154c0.3577,-0.17886 0.78247,-0.26828 1.27431,-0.26828c0.53657,0 0.97996,0.1006 1.33021,0.30181c0.35025,0.19375 0.63716,0.43595 0.86072,0.72659v-0.57008c0,-0.08943 0.02981,-0.16395 0.08943,-0.22356c0.05962,-0.06706 0.13413,-0.1006 0.22356,-0.1006h0.6148c0.08943,0 0.16395,0.03354 0.22356,0.1006c0.05962,0.05962 0.08943,0.13413 0.08943,0.22356v6.4722c0,0.59618 -0.1006,1.12527 -0.30181,1.58732c-0.19375,0.46203 -0.52165,0.8272 -0.98369,1.09547c-0.45458,0.26828 -1.06939,0.40241 -1.84441,0.40241zM254.32277,183.41907c0.44712,0 0.80484,-0.1006 1.07311,-0.30181c0.27573,-0.20866 0.47695,-0.46576 0.60363,-0.7713c0.12668,-0.31299 0.19747,-0.6297 0.21238,-0.95015c0.00745,-0.12668 0.01118,-0.27945 0.01118,-0.45831c0,-0.1863 -0.00373,-0.34279 -0.01118,-0.46948c-0.0149,-0.32044 -0.0857,-0.63342 -0.21238,-0.93897c-0.12668,-0.31299 -0.3279,-0.57008 -0.60363,-0.7713c-0.26828,-0.20866 -0.62598,-0.31299 -1.07311,-0.31299c-0.43967,0 -0.79366,0.1006 -1.06193,0.30181c-0.26828,0.20122 -0.46203,0.46576 -0.58128,0.79366c-0.11178,0.32044 -0.17513,0.66698 -0.19003,1.03958c-0.0149,0.23101 -0.0149,0.46576 0,0.70423c0.0149,0.37261 0.07826,0.72287 0.19003,1.05075c0.11924,0.3279 0.31299,0.59244 0.58128,0.79366c0.26828,0.19375 0.62226,0.29063 1.06193,0.29063zM259.7869,184.43629c-0.08943,0 -0.16395,-0.02981 -0.22356,-0.08943c-0.05962,-0.05962 -0.08943,-0.13041 -0.08943,-0.21238v-6.3157c0,-0.08943 0.02981,-0.16395 0.08943,-0.22356c0.05962,-0.06706 0.13413,-0.1006 0.22356,-0.1006h0.6148c0.08943,0 0.16395,0.03354 0.22356,0.1006c0.05962,0.05962 0.08943,0.13413 0.08943,0.22356v0.58128c0.17886,-0.29808 0.42477,-0.52165 0.73776,-0.67069c0.31299,-0.15649 0.69306,-0.23475 1.14019,-0.23475h0.5142c0.08943,0 0.16395,0.02981 0.22356,0.08943c0.05962,0.05962 0.08943,0.13413 0.08943,0.22356v0.54773c0,0.08197 -0.02981,0.15276 -0.08943,0.21238c-0.05962,0.05216 -0.13413,0.07826 -0.22356,0.07826h-0.80484c-0.47695,0 -0.85328,0.1416 -1.12901,0.42477c-0.27573,0.27573 -0.41359,0.65578 -0.41359,1.14019v3.92356c0,0.08197 -0.03354,0.15276 -0.1006,0.21238c-0.05962,0.05962 -0.13413,0.08943 -0.22356,0.08943zM267.19552,184.57044c-0.92407,0 -1.65811,-0.28318 -2.2021,-0.84955c-0.54401,-0.56636 -0.84209,-1.33766 -0.89426,-2.31389c-0.00745,-0.11924 -0.01118,-0.26828 -0.01118,-0.44712c0,-0.1863 0.00373,-0.33535 0.01118,-0.44712c0.02981,-0.63342 0.17513,-1.18862 0.43595,-1.66556c0.26084,-0.47695 0.6148,-0.84209 1.06193,-1.09547c0.44712,-0.26084 0.97624,-0.39125 1.58732,-0.39125c0.67069,0 1.23333,0.14532 1.68792,0.43595c0.46203,0.28318 0.81229,0.68559 1.05075,1.20725c0.24592,0.52165 0.36888,1.13645 0.36888,1.84441v0.22356c0,0.09688 -0.02981,0.17513 -0.08943,0.23475c-0.05962,0.05216 -0.13413,0.07826 -0.22356,0.07826h-4.61661c0,0.00745 0,0.02608 0,0.0559c0,0.02236 0,0.04098 0,0.0559c0.02236,0.36517 0.10433,0.70796 0.24592,1.02839c0.1416,0.31299 0.34653,0.57008 0.6148,0.7713c0.27573,0.19375 0.59618,0.29063 0.96132,0.29063c0.31299,0 0.57755,-0.04844 0.79366,-0.14532c0.21611,-0.10433 0.39125,-0.21611 0.52538,-0.33535c0.13413,-0.11924 0.22356,-0.21238 0.26828,-0.27945c0.07452,-0.11178 0.13413,-0.17886 0.17886,-0.20122c0.04471,-0.02236 0.11552,-0.03354 0.21238,-0.03354h0.65951c0.08197,0 0.14905,0.02608 0.20122,0.07826c0.05962,0.04471 0.0857,0.11178 0.07826,0.20122c-0.00745,0.13413 -0.07826,0.29808 -0.21238,0.49185c-0.13413,0.19375 -0.32418,0.38377 -0.57008,0.57008c-0.24592,0.1863 -0.54773,0.33907 -0.90543,0.45831c-0.3577,0.11924 -0.76385,0.17886 -1.21842,0.17886zM265.36229,180.45686h3.65529v-0.03354c0,-0.40241 -0.07452,-0.76012 -0.22356,-1.07311c-0.1416,-0.31299 -0.35025,-0.55891 -0.62598,-0.73776c-0.27573,-0.1863 -0.60363,-0.27945 -0.98369,-0.27945c-0.38752,0 -0.71913,0.09315 -0.99487,0.27945c-0.26828,0.17886 -0.47321,0.42477 -0.6148,0.73776c-0.1416,0.31299 -0.21238,0.67069 -0.21238,1.07311zM274.2897,184.57044c-0.49929,0 -0.92779,-0.05962 -1.28551,-0.17886c-0.35025,-0.12668 -0.63716,-0.27945 -0.86072,-0.45831c-0.22356,-0.17886 -0.39125,-0.3577 -0.50302,-0.53657c-0.11178,-0.17886 -0.1714,-0.32044 -0.17886,-0.42477c-0.00745,-0.09688 0.02236,-0.1714 0.08943,-0.22356c0.07452,-0.05962 0.14905,-0.08943 0.22356,-0.08943h0.59244c0.04471,0 0.08197,0.00745 0.11178,0.02236c0.03726,0.0149 0.08197,0.05216 0.13413,0.11178c0.11178,0.12668 0.23847,0.25337 0.38006,0.38006c0.14905,0.11924 0.3279,0.21984 0.53657,0.30181c0.20866,0.08197 0.46576,0.12296 0.7713,0.12296c0.45458,0 0.8272,-0.0857 1.11781,-0.25709c0.29808,-0.17886 0.44712,-0.43595 0.44712,-0.7713c0,-0.22356 -0.05962,-0.40241 -0.17886,-0.53657c-0.11924,-0.13413 -0.33163,-0.25337 -0.63716,-0.3577c-0.30555,-0.10433 -0.72659,-0.21611 -1.26313,-0.33535c-0.53657,-0.12668 -0.96132,-0.27945 -1.27431,-0.45831c-0.30555,-0.1863 -0.52538,-0.40614 -0.65951,-0.65951c-0.13413,-0.25337 -0.20122,-0.54029 -0.20122,-0.86072c0,-0.3279 0.09688,-0.64461 0.29063,-0.95015c0.19375,-0.30555 0.48067,-0.55519 0.86072,-0.74894c0.38006,-0.20122 0.85328,-0.30181 1.41963,-0.30181c0.46203,0 0.857,0.05962 1.18489,0.17886c0.33535,0.11178 0.60736,0.25709 0.816,0.43595c0.21611,0.1714 0.37633,0.34279 0.48067,0.5142c0.11178,0.16395 0.1714,0.30555 0.17886,0.42477c0.00745,0.08943 -0.02236,0.16395 -0.08943,0.22356c-0.05962,0.05216 -0.12668,0.07826 -0.20122,0.07826h-0.57008c-0.05962,0 -0.11178,-0.01118 -0.15649,-0.03354c-0.03726,-0.02981 -0.07079,-0.06335 -0.1006,-0.1006c-0.08943,-0.11178 -0.19747,-0.22356 -0.32418,-0.33535c-0.11924,-0.11924 -0.27573,-0.21611 -0.46948,-0.29063c-0.1863,-0.08197 -0.43595,-0.12296 -0.74894,-0.12296c-0.43967,0 -0.7713,0.09315 -0.99487,0.27945c-0.22356,0.1863 -0.33535,0.42477 -0.33535,0.7154c0,0.16395 0.04844,0.31299 0.14532,0.44712c0.09688,0.13413 0.28318,0.25709 0.55891,0.36888c0.27573,0.10433 0.68559,0.21984 1.22961,0.34653c0.58872,0.11178 1.05075,0.26828 1.3861,0.46948c0.34279,0.19375 0.58499,0.42105 0.72659,0.68188c0.1416,0.25337 0.21238,0.54773 0.21238,0.88309c0,0.37261 -0.10805,0.7154 -0.32418,1.02839c-0.21611,0.31299 -0.53657,0.56264 -0.96132,0.74894c-0.42477,0.17886 -0.95015,0.26828 -1.57613,0.26828zM281.09657,184.57044c-0.49929,0 -0.92779,-0.05962 -1.28551,-0.17886c-0.35025,-0.12668 -0.63716,-0.27945 -0.86072,-0.45831c-0.22356,-0.17886 -0.39125,-0.3577 -0.50302,-0.53657c-0.11178,-0.17886 -0.1714,-0.32044 -0.17886,-0.42477c-0.00745,-0.09688 0.02236,-0.1714 0.08943,-0.22356c0.07452,-0.05962 0.14905,-0.08943 0.22356,-0.08943h0.59244c0.04471,0 0.08197,0.00745 0.11178,0.02236c0.03726,0.0149 0.08197,0.05216 0.13413,0.11178c0.11178,0.12668 0.23847,0.25337 0.38006,0.38006c0.14905,0.11924 0.3279,0.21984 0.53657,0.30181c0.20866,0.08197 0.46576,0.12296 0.7713,0.12296c0.45458,0 0.8272,-0.0857 1.11781,-0.25709c0.29808,-0.17886 0.44712,-0.43595 0.44712,-0.7713c0,-0.22356 -0.05962,-0.40241 -0.17886,-0.53657c-0.11924,-0.13413 -0.33163,-0.25337 -0.63716,-0.3577c-0.30555,-0.10433 -0.72659,-0.21611 -1.26313,-0.33535c-0.53657,-0.12668 -0.96132,-0.27945 -1.27431,-0.45831c-0.30555,-0.1863 -0.52538,-0.40614 -0.65951,-0.65951c-0.13413,-0.25337 -0.20122,-0.54029 -0.20122,-0.86072c0,-0.3279 0.09688,-0.64461 0.29063,-0.95015c0.19375,-0.30555 0.48067,-0.55519 0.86072,-0.74894c0.38006,-0.20122 0.85328,-0.30181 1.41963,-0.30181c0.46203,0 0.857,0.05962 1.18489,0.17886c0.33535,0.11178 0.60736,0.25709 0.816,0.43595c0.21611,0.1714 0.37633,0.34279 0.48067,0.5142c0.11178,0.16395 0.1714,0.30555 0.17886,0.42477c0.00745,0.08943 -0.02236,0.16395 -0.08943,0.22356c-0.05962,0.05216 -0.12668,0.07826 -0.20122,0.07826h-0.57008c-0.05962,0 -0.11178,-0.01118 -0.15649,-0.03354c-0.03726,-0.02981 -0.07079,-0.06335 -0.1006,-0.1006c-0.08943,-0.11178 -0.19747,-0.22356 -0.32418,-0.33535c-0.11924,-0.11924 -0.27573,-0.21611 -0.46948,-0.29063c-0.1863,-0.08197 -0.43595,-0.12296 -0.74894,-0.12296c-0.43967,0 -0.7713,0.09315 -0.99487,0.27945c-0.22356,0.1863 -0.33535,0.42477 -0.33535,0.7154c0,0.16395 0.04844,0.31299 0.14532,0.44712c0.09688,0.13413 0.28318,0.25709 0.55891,0.36888c0.27573,0.10433 0.68559,0.21984 1.22961,0.34653c0.58872,0.11178 1.05075,0.26828 1.3861,0.46948c0.34279,0.19375 0.58499,0.42105 0.72659,0.68188c0.1416,0.25337 0.21238,0.54773 0.21238,0.88309c0,0.37261 -0.10805,0.7154 -0.32418,1.02839c-0.21611,0.31299 -0.53657,0.56264 -0.96132,0.74894c-0.42477,0.17886 -0.95015,0.26828 -1.57613,0.26828z" fill="#ffffff" stroke="#ffffff" stroke-width="0.5" stroke-linecap="square" stroke-linejoin="miter"/></g></g></svg>