<svg version="1.1" xmlns="http://www.w3.org/2000/svg" xmlns:xlink="http://www.w3.org/1999/xlink" width="542.31085" height="417.59877" viewBox="0,0,542.31085,417.59877"><g transform="translate(27.5375,33.52291)"><g data-paper-data="{&quot;isPaintingLayer&quot;:true}" stroke-width="1" stroke-miterlimit="10" stroke-dasharray="" stroke-dashoffset="0" style="mix-blend-mode: normal"><path d="M504.29248,-12.87695c12.73314,24.37171 10.29366,73.58339 10.29366,73.58339l-1.61336,223.75494c0,0 3.22835,52.81521 -9.28869,79.06777c-12.517,26.25248 -37.88005,19.86141 -37.88005,19.86141l-442.5662,-0.07203c0,0 -27.54351,3.57964 -40.18277,-21.24631c-12.63927,-24.82595 -10.44718,-78.20073 -10.44718,-78.20073l-0.03568,-228.2798c0,0 -0.57117,-44.41052 10.68384,-66.21501c11.25501,-21.80449 34.4265,-21.17775 34.4265,-21.17775l447.79789,-1.48291c0,0 26.07893,-3.96476 38.81203,20.40699z" data-paper-data="{&quot;origRot&quot;:0,&quot;index&quot;:null}" fill="#ff8080" fill-rule="evenodd" stroke="none" stroke-linecap="round" stroke-linejoin="round" opacity="0.42445"/><path d="M384.58286,51.0006c7.06242,6.86507 5.70937,20.72711 5.70937,20.72711l-0.89485,215.02772c0,0 1.7906,14.87709 -5.15196,22.27196c-6.94254,7.39485 -21.01013,5.5946 -21.01013,5.5946l-245.46887,-0.02029c0,0 -15.27698,1.00832 -22.28733,-5.9847c-7.01036,-6.99302 -5.79452,-22.02773 -5.79452,-22.02773l-0.01979,-216.30229c0,0 -0.3168,-12.50964 5.92578,-18.65157c6.24258,-6.14193 19.09462,-5.96539 19.09462,-5.96539l248.37062,-0.41771c0,0 14.46465,-1.1168 21.52705,5.74828z" data-paper-data="{&quot;origRot&quot;:0,&quot;index&quot;:null}" fill="#000000" fill-rule="evenodd" stroke="none" stroke-linecap="round" stroke-linejoin="round" opacity="0.42445"/><path d="M384.58287,51.00061c7.06242,6.86507 5.70937,20.72711 5.70937,20.72711l-0.89485,215.02772c0,0 1.7906,14.87709 -5.15196,22.27196c-6.94254,7.39485 -21.01013,5.5946 -21.01013,5.5946l-245.46887,-0.02029c0,0 -15.27698,1.00832 -22.28733,-5.9847c-7.01036,-6.99302 -5.79452,-22.02773 -5.79452,-22.02773l-0.01979,-216.30229c0,0 -0.3168,-12.50964 5.92578,-18.65157c6.24258,-6.14193 19.09462,-5.96539 19.09462,-5.96539l248.37062,-0.41771c0,0 14.46465,-1.1168 21.52705,5.74828z" data-paper-data="{&quot;origRot&quot;:0,&quot;index&quot;:null}" fill="#000000" fill-rule="evenodd" stroke="none" stroke-linecap="round" stroke-linejoin="round" opacity="0.42445"/><path d="M384.58287,51.00061c7.06242,6.86507 5.70937,20.72711 5.70937,20.72711l-0.89485,215.02772c0,0 1.7906,14.87709 -5.15196,22.27196c-6.94254,7.39485 -21.01013,5.5946 -21.01013,5.5946l-245.46887,-0.02029c0,0 -15.27698,1.00832 -22.28733,-5.9847c-7.01036,-6.99302 -5.79452,-22.02773 -5.79452,-22.02773l-0.01979,-216.30229c0,0 -0.3168,-12.50964 5.92578,-18.65157c6.24258,-6.14193 19.09462,-5.96539 19.09462,-5.96539l248.37062,-0.41771c0,0 14.46465,-1.1168 21.52705,5.74828z" data-paper-data="{&quot;origRot&quot;:0,&quot;index&quot;:null}" fill="#000000" fill-rule="evenodd" stroke="none" stroke-linecap="round" stroke-linejoin="round" opacity="0.42445"/><g fill="#ffffff" fill-rule="nonzero" stroke="#ffffff" stroke-linecap="square" stroke-linejoin="miter"><path d="M186.37817,142.35353c-0.27425,0 -0.51239,-0.09382 -0.71446,-0.28145c-0.20207,-0.20207 -0.30311,-0.44745 -0.30311,-0.73612v-6.45189l-7.01481,-11.15008c-0.1732,-0.25981 -0.23815,-0.50518 -0.19485,-0.73612c0.04331,-0.24537 0.14434,-0.44745 0.30311,-0.60622c0.1732,-0.15877 0.38971,-0.23815 0.64952,-0.23815c0.21651,0 0.38971,0.04331 0.51961,0.12991c0.12991,0.0866 0.24537,0.20928 0.34641,0.36807l6.97151,11.25834h-1.08254l6.94987,-11.19339c0.12991,-0.20207 0.26702,-0.34641 0.41137,-0.43301c0.14434,-0.0866 0.31754,-0.12991 0.51961,-0.12991c0.24537,0 0.44745,0.0866 0.60622,0.25981c0.1732,0.15877 0.26702,0.36085 0.28146,0.60622c0.02886,0.24537 -0.03608,0.48353 -0.19485,0.71447l-7.05812,11.1501v6.45189c0,0.28867 -0.10104,0.53405 -0.30311,0.73612c-0.18765,0.18765 -0.41858,0.28146 -0.69282,0.28146zM200.9327,142.48344c-1.38564,0 -2.61972,-0.31033 -3.70226,-0.93097c-1.08254,-0.62066 -1.93412,-1.47224 -2.55478,-2.55478c-0.62066,-1.08254 -0.93097,-2.31661 -0.93097,-3.70226c0,-1.40008 0.31033,-2.64138 0.93098,-3.72391c0.62066,-1.08254 1.47224,-1.93412 2.55478,-2.55478c1.08254,-0.62066 2.31662,-0.93097 3.70227,-0.93097c1.37121,0 2.59808,0.31033 3.68061,0.93098c1.08254,0.62066 1.93412,1.47224 2.55478,2.55478c0.62066,1.08254 0.93819,2.32384 0.95263,3.72391c0,1.38564 -0.31754,2.61973 -0.95263,3.70227c-0.62066,1.08254 -1.47224,1.93412 -2.55478,2.55478c-1.08254,0.62066 -2.30941,0.93098 -3.68061,0.93098zM200.9327,140.66478c0.99593,0 1.89082,-0.23094 2.68468,-0.69282c0.79386,-0.46187 1.4145,-1.09697 1.86195,-1.90526c0.44745,-0.80829 0.67118,-1.73206 0.67118,-2.77129c0,-1.03923 -0.22373,-1.963 -0.67117,-2.77129c-0.44745,-0.82272 -1.0681,-1.46503 -1.86195,-1.9269c-0.79386,-0.47632 -1.68875,-0.71446 -2.68468,-0.71446c-0.99593,0 -1.89082,0.23817 -2.68468,0.71447c-0.79386,0.46187 -1.42173,1.10419 -1.8836,1.92692c-0.46187,0.80829 -0.69282,1.73206 -0.69282,2.77129c0,1.03923 0.23094,1.963 0.69282,2.77129c0.46187,0.80829 1.08975,1.44338 1.88361,1.90526c0.79386,0.46187 1.68875,0.69282 2.68468,0.69282zM218.15228,142.50507c-1.22688,0 -2.32384,-0.25259 -3.2909,-0.75777c-0.96706,-0.50518 -1.73206,-1.24852 -2.29497,-2.23001c-0.54847,-0.98149 -0.82272,-2.17951 -0.82272,-3.59401v-6.73335c0,-0.27425 0.09382,-0.50518 0.28146,-0.69282c0.18765,-0.18765 0.41858,-0.28145 0.69282,-0.28145c0.28867,0 0.52684,0.09382 0.71447,0.28146c0.18765,0.18765 0.28146,0.41858 0.28146,0.69282v6.73337c0,1.0681 0.20207,1.94856 0.60622,2.64138c0.41858,0.67838 0.97429,1.19079 1.6671,1.53721c0.69282,0.34641 1.47947,0.51961 2.35993,0.51961c0.85159,0 1.61659,-0.15877 2.29497,-0.47632c0.67838,-0.33197 1.21244,-0.77943 1.60215,-1.34234c0.40415,-0.57736 0.60622,-1.22688 0.60622,-1.94856h1.42895c-0.05774,1.08254 -0.36085,2.0496 -0.90932,2.90119c-0.53405,0.85159 -1.26296,1.52276 -2.18671,2.01352c-0.90932,0.49076 -1.91969,0.73612 -3.03109,0.73612zM223.82476,142.35353c-0.28867,0 -0.52684,-0.0866 -0.71446,-0.25981c-0.1732,-0.18765 -0.25981,-0.44024 -0.25981,-0.75777v-12.14602c0,-0.28867 0.0866,-0.51961 0.25981,-0.69282c0.18765,-0.18765 0.42579,-0.28145 0.71447,-0.28145c0.30311,0 0.54847,0.09382 0.73612,0.28146c0.18765,0.1732 0.28146,0.40415 0.28146,0.69282v12.14603c0,0.31754 -0.09382,0.57013 -0.28145,0.75778c-0.18765,0.1732 -0.43301,0.25981 -0.73612,0.25981zM249.18157,142.35353c-0.28867,0 -0.52684,-0.09382 -0.71446,-0.28145c-0.18765,-0.18765 -0.28145,-0.41858 -0.28145,-0.69282v-6.73335c0,-1.0681 -0.20207,-1.94134 -0.60622,-2.61972c-0.40415,-0.69282 -0.95985,-1.21244 -1.66709,-1.55884c-0.69282,-0.34641 -1.47947,-0.51961 -2.35992,-0.51961c-0.83717,0 -1.60215,0.16599 -2.29497,0.49797c-0.67838,0.31754 -1.21965,0.76498 -1.6238,1.34234c-0.38971,0.56292 -0.58456,1.20522 -0.58456,1.92692h-1.40729c0.02886,-1.08254 0.31754,-2.0496 0.86603,-2.90119c0.56292,-0.85159 1.29904,-1.52276 2.20837,-2.01351c0.90932,-0.49076 1.92692,-0.73612 3.05275,-0.73612c1.21244,0 2.30219,0.25259 3.26925,0.75778c0.96706,0.50518 1.73206,1.24852 2.29497,2.23002c0.56292,0.98149 0.84438,2.17951 0.84438,3.59401v6.73337c0,0.27425 -0.09382,0.50518 -0.28145,0.69282c-0.18765,0.18765 -0.42579,0.28146 -0.71446,0.28146zM238.07479,142.35353c-0.30311,0 -0.54847,-0.0866 -0.73612,-0.25981c-0.18765,-0.18765 -0.28145,-0.42579 -0.28145,-0.71446v-12.16768c0,-0.30311 0.09382,-0.54126 0.28146,-0.71446c0.18765,-0.18765 0.43301,-0.28145 0.73612,-0.28145c0.28867,0 0.51961,0.09382 0.69282,0.28146c0.18765,0.1732 0.28146,0.41137 0.28146,0.71447v12.16768c0,0.28867 -0.09382,0.52684 -0.28145,0.71447c-0.1732,0.1732 -0.40415,0.25981 -0.69282,0.25981zM260.98851,142.48344c-1.40008,0 -2.64138,-0.30311 -3.72391,-0.90932c-1.0681,-0.62066 -1.91248,-1.47224 -2.53312,-2.55478c-0.60622,-1.08254 -0.90932,-2.32384 -0.90932,-3.72391c0,-1.4145 0.28867,-2.65581 0.86603,-3.72391c0.57736,-1.08254 1.37121,-1.93412 2.38158,-2.55478c1.02479,-0.62066 2.20115,-0.93097 3.52907,-0.93097c1.29904,0 2.4321,0.2959 3.39916,0.88769c0.98149,0.59178 1.73927,1.4145 2.27333,2.46818c0.53405,1.05368 0.80109,2.25167 0.80109,3.59401c0,0.27425 -0.0866,0.49797 -0.25981,0.67118c-0.1732,0.15877 -0.39693,0.23817 -0.67117,0.23817h-10.97688v-1.66709h11.1934l-1.10417,0.80109c0.01444,-0.99593 -0.1732,-1.89082 -0.56292,-2.68468c-0.37527,-0.79386 -0.90932,-1.4145 -1.60215,-1.86195c-0.69282,-0.44745 -1.52276,-0.67117 -2.48981,-0.67117c-0.98149,0 -1.84752,0.23817 -2.59808,0.71447c-0.73612,0.46187 -1.30625,1.10419 -1.7104,1.92692c-0.40415,0.80829 -0.60622,1.73927 -0.60622,2.79294c0,1.05368 0.22373,1.98465 0.67118,2.79294c0.46187,0.80829 1.08975,1.4506 1.88361,1.92692c0.79386,0.46187 1.71041,0.69282 2.74964,0.69282c0.62066,0 1.2413,-0.10825 1.86195,-0.32476c0.63509,-0.21651 1.14028,-0.49076 1.51555,-0.82272c0.18765,-0.15877 0.40415,-0.23815 0.64952,-0.23815c0.24537,-0.01444 0.44745,0.05052 0.60622,0.19486c0.23094,0.20207 0.34641,0.42579 0.34641,0.67118c0.01444,0.23094 -0.07939,0.43301 -0.28145,0.60622c-0.57736,0.49076 -1.30625,0.89489 -2.18671,1.21244c-0.86603,0.31754 -1.70319,0.47632 -2.51147,0.47632zM276.34365,142.48344c-1.40008,0 -2.64138,-0.30311 -3.72391,-0.90932c-1.0681,-0.62066 -1.91248,-1.47224 -2.53312,-2.55478c-0.60622,-1.08254 -0.90932,-2.32384 -0.90932,-3.72391c0,-1.4145 0.28867,-2.65581 0.86603,-3.72391c0.57736,-1.08254 1.37121,-1.93412 2.38158,-2.55478c1.02479,-0.62066 2.20115,-0.93097 3.52907,-0.93097c1.29904,0 2.4321,0.2959 3.39916,0.88769c0.98149,0.59178 1.73927,1.4145 2.27333,2.46818c0.53405,1.05368 0.80109,2.25167 0.80109,3.59401c0,0.27425 -0.0866,0.49797 -0.25981,0.67118c-0.1732,0.15877 -0.39693,0.23817 -0.67117,0.23817h-10.97688v-1.66709h11.1934l-1.10417,0.80109c0.01444,-0.99593 -0.1732,-1.89082 -0.56292,-2.68468c-0.37527,-0.79386 -0.90932,-1.4145 -1.60215,-1.86195c-0.69282,-0.44745 -1.52276,-0.67117 -2.48981,-0.67117c-0.98149,0 -1.84752,0.23817 -2.59808,0.71447c-0.73612,0.46187 -1.30625,1.10419 -1.7104,1.92692c-0.40415,0.80829 -0.60622,1.73927 -0.60622,2.79294c0,1.05368 0.22373,1.98465 0.67118,2.79294c0.46187,0.80829 1.08975,1.4506 1.88361,1.92692c0.79386,0.46187 1.71041,0.69282 2.74964,0.69282c0.62066,0 1.2413,-0.10825 1.86195,-0.32476c0.63509,-0.21651 1.14028,-0.49076 1.51555,-0.82272c0.18765,-0.15877 0.40415,-0.23815 0.64952,-0.23815c0.24537,-0.01444 0.44745,0.05052 0.60622,0.19486c0.23094,0.20207 0.34641,0.42579 0.34641,0.67118c0.01444,0.23094 -0.07939,0.43301 -0.28145,0.60622c-0.57736,0.49076 -1.30625,0.89489 -2.18671,1.21244c-0.86603,0.31754 -1.70319,0.47632 -2.51147,0.47632zM291.72047,142.48344c-1.37121,0 -2.59808,-0.31033 -3.68061,-0.93097c-1.08254,-0.63509 -1.94134,-1.49389 -2.57643,-2.57643c-0.62066,-1.09697 -0.93097,-2.33105 -0.93097,-3.70226c0,-1.35678 0.30311,-2.57643 0.90932,-3.65895c0.62066,-1.09697 1.4506,-1.95578 2.48984,-2.57643c1.05368,-0.63509 2.24445,-0.95263 3.57237,-0.95263c1.1547,0 2.19393,0.24537 3.1177,0.73612c0.93819,0.49076 1.69597,1.14028 2.27333,1.94856v-7.59937c0,-0.30311 0.09382,-0.54847 0.28146,-0.73612c0.18765,-0.18765 0.42579,-0.28145 0.71447,-0.28145c0.28867,0 0.52684,0.09382 0.71447,0.28146c0.20207,0.18765 0.30311,0.43301 0.30311,0.73612v12.21097c-0.04331,1.34234 -0.3825,2.55478 -1.01757,3.63731c-0.62066,1.0681 -1.47224,1.91248 -2.55478,2.53313c-1.0681,0.62066 -2.27331,0.93098 -3.61566,0.93098zM291.72047,140.66478c0.99593,0 1.88361,-0.23094 2.66304,-0.69282c0.79386,-0.47632 1.4145,-1.11862 1.86195,-1.9269c0.46187,-0.82272 0.69282,-1.74649 0.69282,-2.77129c0,-1.02479 -0.23094,-1.94134 -0.69282,-2.74963c-0.44745,-0.82272 -1.0681,-1.46503 -1.86195,-1.9269c-0.77943,-0.47632 -1.66709,-0.71446 -2.66303,-0.71446c-0.98149,0 -1.86917,0.23817 -2.66303,0.71447c-0.79386,0.46187 -1.42895,1.10419 -1.90526,1.92692c-0.46187,0.80829 -0.69282,1.72483 -0.69282,2.74964c0,1.02479 0.23094,1.94856 0.69282,2.77129c0.47632,0.80829 1.11139,1.4506 1.90526,1.92692c0.79386,0.46187 1.68153,0.69282 2.66304,0.69282z"/><path d="M169.29062,203.32179c-0.28867,0 -0.53405,-0.0866 -0.73612,-0.25981c-0.18765,-0.18765 -0.28145,-0.42579 -0.28145,-0.71446v-7.44783c0,-1.22688 -0.31754,-2.19393 -0.95263,-2.90119c-0.63509,-0.72169 -1.45059,-1.08254 -2.44652,-1.08254c-1.0681,0 -1.94856,0.36085 -2.64138,1.08254c-0.67838,0.70726 -1.01037,1.65267 -0.99593,2.83624h-1.77535c0.01444,-1.1547 0.25981,-2.16507 0.73612,-3.03109c0.49076,-0.88046 1.1547,-1.55884 1.99186,-2.03516c0.85159,-0.49076 1.81143,-0.73612 2.87954,-0.73612c1.02479,0 1.92692,0.24537 2.70634,0.73612c0.77943,0.47632 1.38564,1.1547 1.81866,2.03516c0.44745,0.86603 0.67118,1.89803 0.67118,3.09605v7.44783c0,0.28867 -0.09382,0.52684 -0.28145,0.71447c-0.1732,0.1732 -0.40415,0.25981 -0.69282,0.25981zM151.19067,203.32179c-0.30311,0 -0.54847,-0.0866 -0.73612,-0.25981c-0.18765,-0.18765 -0.28145,-0.42579 -0.28145,-0.71446v-12.16768c0,-0.28867 0.09382,-0.52684 0.28146,-0.71446c0.18765,-0.18765 0.43301,-0.28145 0.73612,-0.28145c0.28867,0 0.51961,0.09382 0.69282,0.28146c0.18765,0.18765 0.28146,0.42579 0.28146,0.71447v12.16768c0,0.28867 -0.09382,0.52684 -0.28145,0.71447c-0.1732,0.1732 -0.40415,0.25981 -0.69282,0.25981zM160.26231,203.32179c-0.28867,0 -0.52684,-0.0866 -0.71446,-0.25981c-0.18765,-0.18765 -0.28145,-0.42579 -0.28145,-0.71446v-7.44783c0,-1.22688 -0.32476,-2.19393 -0.97428,-2.90119c-0.63509,-0.72169 -1.45059,-1.08254 -2.44652,-1.08254c-1.0681,0 -1.94856,0.35363 -2.64138,1.06089c-0.69282,0.69282 -1.03923,1.59493 -1.03923,2.70634h-1.40729c0.02886,-1.09697 0.26702,-2.07125 0.71447,-2.92283c0.46187,-0.85159 1.08975,-1.51555 1.88361,-1.99186c0.79386,-0.49076 1.68875,-0.73612 2.68468,-0.73612c1.02479,0 1.92692,0.24537 2.70634,0.73612c0.79386,0.47632 1.4073,1.1547 1.84032,2.03516c0.43301,0.86603 0.64952,1.89803 0.64952,3.09605v7.44783c0,0.28867 -0.09382,0.52684 -0.28145,0.71447c-0.1732,0.1732 -0.40415,0.25981 -0.69282,0.25981zM181.1058,203.4517c-1.38564,0 -2.61972,-0.31033 -3.70226,-0.93097c-1.08254,-0.62066 -1.93412,-1.47224 -2.55478,-2.55478c-0.62066,-1.08254 -0.93097,-2.31661 -0.93097,-3.70226c0,-1.40008 0.31033,-2.64138 0.93098,-3.72391c0.62066,-1.08254 1.47224,-1.93412 2.55478,-2.55478c1.08254,-0.62066 2.31662,-0.93097 3.70227,-0.93097c1.37121,0 2.59808,0.31033 3.68061,0.93098c1.08254,0.62066 1.93412,1.47224 2.55478,2.55478c0.62066,1.08254 0.93819,2.32384 0.95263,3.72391c0,1.38564 -0.31754,2.61973 -0.95263,3.70227c-0.62066,1.08254 -1.47224,1.93412 -2.55478,2.55478c-1.08254,0.62066 -2.30941,0.93098 -3.68061,0.93098zM181.1058,201.63304c0.99593,0 1.89082,-0.23094 2.68468,-0.69282c0.79386,-0.46187 1.4145,-1.09697 1.86195,-1.90526c0.44745,-0.80829 0.67118,-1.73206 0.67118,-2.77129c0,-1.03923 -0.22373,-1.963 -0.67117,-2.77129c-0.44745,-0.82272 -1.0681,-1.46503 -1.86195,-1.9269c-0.79386,-0.47632 -1.68875,-0.71446 -2.68468,-0.71446c-0.99593,0 -1.89082,0.23817 -2.68468,0.71447c-0.79386,0.46187 -1.42173,1.10419 -1.8836,1.92692c-0.46187,0.80829 -0.69282,1.73206 -0.69282,2.77129c0,1.03923 0.23094,1.963 0.69282,2.77129c0.46187,0.80829 1.08975,1.44338 1.88361,1.90526c0.79386,0.46187 1.68875,0.69282 2.68468,0.69282zM192.99933,194.61822c0.04331,-1.0681 0.31754,-2.02073 0.82272,-2.85789c0.51961,-0.85159 1.18357,-1.51555 1.99186,-1.99186c0.82272,-0.49076 1.73206,-0.73612 2.72798,-0.73612c0.79386,0 1.4073,0.11546 1.84032,0.34641c0.43301,0.21651 0.599,0.54127 0.49797,0.97429c-0.07217,0.25981 -0.19485,0.43301 -0.36805,0.51961c-0.15877,0.07217 -0.35363,0.10104 -0.58456,0.0866c-0.23094,-0.01444 -0.49076,-0.02886 -0.77943,-0.04331c-0.96706,-0.0866 -1.82588,0.01444 -2.57643,0.30311c-0.75056,0.27425 -1.34956,0.70726 -1.797,1.29904c-0.43301,0.59178 -0.64952,1.29182 -0.64952,2.10012zM193.1509,203.32179c-0.31754,0 -0.56292,-0.0866 -0.73612,-0.25981c-0.1732,-0.1732 -0.25981,-0.41136 -0.25981,-0.71446v-12.18931c0,-0.30311 0.0866,-0.54126 0.25981,-0.71446c0.1732,-0.1732 0.41858,-0.25981 0.73612,-0.25981c0.30311,0 0.54127,0.0866 0.71447,0.25981c0.1732,0.1732 0.25981,0.41137 0.25981,0.71447v12.18932c0,0.30311 -0.0866,0.54127 -0.25981,0.71447c-0.1732,0.1732 -0.41136,0.25981 -0.71446,0.25981zM209.39027,203.4517c-1.40008,0 -2.64138,-0.30311 -3.72391,-0.90932c-1.0681,-0.62066 -1.91248,-1.47224 -2.53312,-2.55478c-0.60622,-1.08254 -0.90932,-2.32384 -0.90932,-3.72391c0,-1.4145 0.28867,-2.65581 0.86603,-3.72391c0.57736,-1.08254 1.37121,-1.93412 2.38158,-2.55478c1.02479,-0.62066 2.20115,-0.93097 3.52907,-0.93097c1.29904,0 2.4321,0.2959 3.39916,0.88769c0.98149,0.59178 1.73927,1.4145 2.27333,2.46818c0.53405,1.05368 0.80109,2.25167 0.80109,3.59401c0,0.27425 -0.0866,0.49797 -0.25981,0.67118c-0.1732,0.15877 -0.39693,0.23817 -0.67117,0.23817h-10.97688v-1.66709h11.1934l-1.10417,0.80109c0.01444,-0.99593 -0.1732,-1.89082 -0.56292,-2.68468c-0.37527,-0.79386 -0.90932,-1.4145 -1.60215,-1.86195c-0.69282,-0.44745 -1.52276,-0.67117 -2.48981,-0.67117c-0.98149,0 -1.84752,0.23817 -2.59808,0.71447c-0.73612,0.46187 -1.30625,1.10419 -1.7104,1.92692c-0.40415,0.80829 -0.60622,1.73927 -0.60622,2.79294c0,1.05368 0.22373,1.98465 0.67118,2.79294c0.46187,0.80829 1.08975,1.4506 1.88361,1.92692c0.79386,0.46187 1.71041,0.69282 2.74964,0.69282c0.62066,0 1.2413,-0.10825 1.86195,-0.32476c0.63509,-0.21651 1.14028,-0.49076 1.51555,-0.82272c0.18765,-0.15877 0.40415,-0.23815 0.64952,-0.23815c0.24537,-0.01444 0.44745,0.05052 0.60622,0.19486c0.23094,0.20207 0.34641,0.42579 0.34641,0.67118c0.01444,0.23094 -0.07939,0.43301 -0.28145,0.60622c-0.57736,0.49076 -1.30625,0.89489 -2.18671,1.21244c-0.86603,0.31754 -1.70319,0.47632 -2.51147,0.47632zM232.7288,203.4517c-1.37121,0 -2.58364,-0.31033 -3.63731,-0.93097c-1.05368,-0.63509 -1.89082,-1.49389 -2.51147,-2.57643c-0.60622,-1.09697 -0.90932,-2.32384 -0.90932,-3.68061c0,-1.37121 0.28867,-2.59808 0.86603,-3.68061c0.59178,-1.09697 1.39287,-1.95578 2.40324,-2.57643c1.02479,-0.63509 2.20115,-0.95263 3.52907,-0.95263c1.05368,0 2.02073,0.20928 2.90119,0.62787c0.89489,0.40415 1.67432,1.02479 2.33827,1.86195c0.18765,0.20207 0.25259,0.41858 0.19486,0.64952c-0.04331,0.23094 -0.18765,0.43301 -0.43301,0.60622c-0.18765,0.14434 -0.39693,0.19486 -0.62786,0.15156c-0.23094,-0.04331 -0.43301,-0.1732 -0.60622,-0.38971c-0.99593,-1.14028 -2.25167,-1.7104 -3.76722,-1.7104c-0.96706,0 -1.81866,0.23817 -2.55478,0.71447c-0.72169,0.46187 -1.29182,1.09697 -1.7104,1.90526c-0.40415,0.80829 -0.60622,1.73927 -0.60622,2.79294c0,1.03923 0.21651,1.963 0.64952,2.77129c0.43301,0.80829 1.03923,1.44338 1.81866,1.90526c0.77943,0.46187 1.6671,0.69282 2.66304,0.69282c0.66396,0 1.27739,-0.0866 1.84032,-0.25981c0.56292,-0.18765 1.06089,-0.4691 1.4939,-0.84437c0.20207,-0.1732 0.41137,-0.26702 0.62787,-0.28145c0.23094,-0.01444 0.44024,0.05052 0.62787,0.19486c0.21651,0.20207 0.33197,0.42579 0.34641,0.67118c0.02886,0.23094 -0.05052,0.43301 -0.23815,0.60622c-1.25574,1.1547 -2.8218,1.73206 -4.69819,1.73206zM248.26581,203.4517c-1.38564,0 -2.61972,-0.31033 -3.70226,-0.93097c-1.08254,-0.62066 -1.93412,-1.47224 -2.55478,-2.55478c-0.62066,-1.08254 -0.93097,-2.31661 -0.93097,-3.70226c0,-1.40008 0.31033,-2.64138 0.93098,-3.72391c0.62066,-1.08254 1.47224,-1.93412 2.55478,-2.55478c1.08254,-0.62066 2.31662,-0.93097 3.70227,-0.93097c1.37121,0 2.59808,0.31033 3.68061,0.93098c1.08254,0.62066 1.93412,1.47224 2.55478,2.55478c0.62066,1.08254 0.93819,2.32384 0.95263,3.72391c0,1.38564 -0.31754,2.61973 -0.95263,3.70227c-0.62066,1.08254 -1.47224,1.93412 -2.55478,2.55478c-1.08254,0.62066 -2.30941,0.93098 -3.68061,0.93098zM248.26581,201.63304c0.99593,0 1.89082,-0.23094 2.68468,-0.69282c0.79386,-0.46187 1.4145,-1.09697 1.86195,-1.90526c0.44745,-0.80829 0.67118,-1.73206 0.67118,-2.77129c0,-1.03923 -0.22373,-1.963 -0.67117,-2.77129c-0.44745,-0.82272 -1.0681,-1.46503 -1.86195,-1.9269c-0.79386,-0.47632 -1.68875,-0.71446 -2.68468,-0.71446c-0.99593,0 -1.89082,0.23817 -2.68468,0.71447c-0.79386,0.46187 -1.42173,1.10419 -1.8836,1.92692c-0.46187,0.80829 -0.69282,1.73206 -0.69282,2.77129c0,1.03923 0.23094,1.963 0.69282,2.77129c0.46187,0.80829 1.08975,1.44338 1.88361,1.90526c0.79386,0.46187 1.68875,0.69282 2.68468,0.69282zM260.74392,203.32179c-0.30311,0 -0.54847,-0.0866 -0.73612,-0.25981c-0.1732,-0.18765 -0.25981,-0.44024 -0.25981,-0.75777v-12.12437c0,-0.30311 0.0866,-0.54126 0.25981,-0.71446c0.18765,-0.18765 0.43301,-0.28145 0.73612,-0.28145c0.28867,0 0.52684,0.09382 0.71447,0.28146c0.18765,0.1732 0.28146,0.41137 0.28146,0.71447v12.12437c0,0.31754 -0.09382,0.57013 -0.28145,0.75778c-0.18765,0.1732 -0.42579,0.25981 -0.71446,0.25981zM260.83052,186.49922c-0.38971,0 -0.72169,-0.13712 -0.99593,-0.41136c-0.27425,-0.28867 -0.41136,-0.62786 -0.41136,-1.01757c0,-0.43301 0.14434,-0.7722 0.43301,-1.01757c0.28867,-0.24537 0.62066,-0.36805 0.99593,-0.36805c0.36085,0 0.67838,0.12268 0.95263,0.36807c0.28867,0.24537 0.43301,0.58458 0.43301,1.01759c0,0.38971 -0.13712,0.7289 -0.41136,1.01759c-0.27425,0.27425 -0.60622,0.41137 -0.99593,0.41137zM278.91026,203.32179c-0.28867,0 -0.52684,-0.09382 -0.71446,-0.28145c-0.18765,-0.18765 -0.28145,-0.41858 -0.28145,-0.69282v-6.73335c0,-1.0681 -0.20207,-1.94134 -0.60622,-2.61972c-0.40415,-0.69282 -0.95985,-1.21244 -1.66709,-1.55884c-0.69282,-0.34641 -1.47947,-0.51961 -2.35992,-0.51961c-0.83717,0 -1.60215,0.16599 -2.29497,0.49797c-0.67838,0.31754 -1.21965,0.76498 -1.6238,1.34234c-0.38971,0.56292 -0.58456,1.20522 -0.58456,1.92692h-1.40729c0.02886,-1.08254 0.31754,-2.0496 0.86603,-2.90119c0.56292,-0.85159 1.29904,-1.52276 2.20837,-2.01351c0.90932,-0.49076 1.92692,-0.73612 3.05275,-0.73612c1.21244,0 2.30219,0.25259 3.26925,0.75778c0.96706,0.50518 1.73206,1.24852 2.29497,2.23002c0.56292,0.98149 0.84438,2.17951 0.84438,3.59401v6.73337c0,0.27425 -0.09382,0.50518 -0.28145,0.69282c-0.18765,0.18765 -0.42579,0.28146 -0.71446,0.28146zM267.80347,203.32179c-0.30311,0 -0.54847,-0.0866 -0.73612,-0.25981c-0.18765,-0.18765 -0.28145,-0.42579 -0.28145,-0.71446v-12.16768c0,-0.30311 0.09382,-0.54126 0.28146,-0.71446c0.18765,-0.18765 0.43301,-0.28145 0.73612,-0.28145c0.28867,0 0.51961,0.09382 0.69282,0.28146c0.18765,0.1732 0.28146,0.41137 0.28146,0.71447v12.16768c0,0.28867 -0.09382,0.52684 -0.28145,0.71447c-0.1732,0.1732 -0.40415,0.25981 -0.69282,0.25981zM289.24495,203.4517c-1.02479,0 -2.03516,-0.1732 -3.03109,-0.51961c-0.99593,-0.34641 -1.80422,-0.86603 -2.42487,-1.55884c-0.20207,-0.20207 -0.28867,-0.43301 -0.25981,-0.69282c0.04331,-0.25981 0.18042,-0.48353 0.41137,-0.67117c0.23094,-0.1732 0.47632,-0.23815 0.73612,-0.19485c0.25981,0.02886 0.47632,0.13712 0.64952,0.32477c0.41858,0.49076 0.96706,0.86603 1.64546,1.12583c0.67838,0.24537 1.43616,0.36807 2.27333,0.36807c1.27017,0 2.18673,-0.21651 2.74964,-0.64952c0.57736,-0.44745 0.87324,-0.97428 0.88769,-1.58049c0,-0.62066 -0.2959,-1.13305 -0.88768,-1.53719c-0.57736,-0.41858 -1.53719,-0.73612 -2.87953,-0.95263c-1.74649,-0.27425 -3.02388,-0.75777 -3.83216,-1.45059c-0.80829,-0.69282 -1.21244,-1.50833 -1.21244,-2.44652c0,-0.88046 0.23094,-1.60937 0.69282,-2.18671c0.46187,-0.59178 1.08254,-1.03202 1.86195,-1.32068c0.77943,-0.30311 1.63101,-0.45466 2.55478,-0.45466c1.1547,0 2.15062,0.20207 2.98779,0.60622c0.83717,0.38971 1.51555,0.91655 2.03516,1.5805c0.1732,0.23094 0.23817,0.4691 0.19486,0.71447c-0.02886,0.23094 -0.16599,0.42579 -0.41136,0.58458c-0.20207,0.11546 -0.44024,0.15156 -0.71446,0.10826c-0.25981,-0.04331 -0.48353,-0.16599 -0.67117,-0.36805c-0.43301,-0.49076 -0.93819,-0.85159 -1.51555,-1.08254c-0.56292,-0.24537 -1.21244,-0.36805 -1.94856,-0.36805c-0.95263,0 -1.71761,0.19486 -2.29497,0.58458c-0.56292,0.38971 -0.84437,0.88046 -0.84437,1.47224c0,0.38971 0.10826,0.73612 0.32477,1.03923c0.21651,0.28867 0.58458,0.54847 1.10419,0.77943c0.53405,0.21651 1.27739,0.39693 2.23002,0.54127c1.2846,0.21651 2.30219,0.52684 3.05275,0.93098c0.75056,0.40415 1.2846,0.88046 1.60215,1.42895c0.31754,0.53405 0.47632,1.11862 0.47632,1.75371c0,0.80829 -0.23815,1.52276 -0.71446,2.14342c-0.46187,0.60622 -1.11139,1.08254 -1.94856,1.42895c-0.83717,0.34641 -1.797,0.51961 -2.87953,0.51961zM311.33745,203.32179c-0.90932,0 -1.72483,-0.21651 -2.44652,-0.64952c-0.70726,-0.43301 -1.27017,-1.02479 -1.68875,-1.77535c-0.41858,-0.75056 -0.62786,-1.60215 -0.62786,-2.55478v-12.64399c0,-0.30311 0.0866,-0.54847 0.25981,-0.73612c0.18765,-0.18765 0.43301,-0.28145 0.73612,-0.28145c0.28867,0 0.52684,0.09382 0.71447,0.28146c0.18765,0.18765 0.28146,0.43301 0.28146,0.73612v12.64399c0,0.86603 0.25981,1.5805 0.77943,2.14342c0.51961,0.56292 1.18357,0.84438 1.99186,0.84438h0.69282c0.27425,0 0.49797,0.09382 0.67118,0.28146c0.1732,0.18765 0.25981,0.43301 0.25981,0.73612c0,0.28867 -0.10104,0.52684 -0.30311,0.71447c-0.20207,0.1732 -0.46187,0.25981 -0.77943,0.25981zM304.9072,191.43557c-0.25981,0 -0.47632,-0.07939 -0.64952,-0.23815c-0.1732,-0.1732 -0.25981,-0.3825 -0.25981,-0.62786c0,-0.25981 0.0866,-0.4691 0.25981,-0.62786c0.1732,-0.15877 0.38971,-0.23815 0.64952,-0.23815h6.5818c0.25981,0 0.47632,0.07939 0.64952,0.23817c0.1732,0.15877 0.25981,0.36807 0.25981,0.62787c0,0.24537 -0.0866,0.45467 -0.25981,0.62787c-0.1732,0.15877 -0.38971,0.23817 -0.64952,0.23817zM322.63886,203.4517c-1.38564,0 -2.61972,-0.31033 -3.70226,-0.93097c-1.08254,-0.62066 -1.93412,-1.47224 -2.55478,-2.55478c-0.62066,-1.08254 -0.93097,-2.31661 -0.93097,-3.70226c0,-1.40008 0.31033,-2.64138 0.93098,-3.72391c0.62066,-1.08254 1.47224,-1.93412 2.55478,-2.55478c1.08254,-0.62066 2.31662,-0.93097 3.70227,-0.93097c1.37121,0 2.59808,0.31033 3.68061,0.93098c1.08254,0.62066 1.93412,1.47224 2.55478,2.55478c0.62066,1.08254 0.93819,2.32384 0.95263,3.72391c0,1.38564 -0.31754,2.61973 -0.95263,3.70227c-0.62066,1.08254 -1.47224,1.93412 -2.55478,2.55478c-1.08254,0.62066 -2.30941,0.93098 -3.68061,0.93098zM322.63886,201.63304c0.99593,0 1.89082,-0.23094 2.68468,-0.69282c0.79386,-0.46187 1.4145,-1.09697 1.86195,-1.90526c0.44745,-0.80829 0.67118,-1.73206 0.67118,-2.77129c0,-1.03923 -0.22373,-1.963 -0.67117,-2.77129c-0.44745,-0.82272 -1.0681,-1.46503 -1.86195,-1.9269c-0.79386,-0.47632 -1.68875,-0.71446 -2.68468,-0.71446c-0.99593,0 -1.89082,0.23817 -2.68468,0.71447c-0.79386,0.46187 -1.42173,1.10419 -1.8836,1.92692c-0.46187,0.80829 -0.69282,1.73206 -0.69282,2.77129c0,1.03923 0.23094,1.963 0.69282,2.77129c0.46187,0.80829 1.08975,1.44338 1.88361,1.90526c0.79386,0.46187 1.68875,0.69282 2.68468,0.69282z"/><path d="M185.0941,239.84644c-0.30311,0 -0.54847,-0.09382 -0.73612,-0.28145c-0.18765,-0.1732 -0.28145,-0.41136 -0.28145,-0.71446v-12.21097c0.02886,-1.34234 0.35363,-2.54756 0.97429,-3.61566c0.63509,-1.08254 1.48668,-1.93412 2.55478,-2.55478c1.08254,-0.62066 2.29497,-0.93097 3.63731,-0.93097c1.38564,0 2.61973,0.31754 3.70227,0.95263c1.08254,0.62066 1.93412,1.47947 2.55478,2.57644c0.63509,1.08254 0.95263,2.30941 0.95263,3.68061c0,1.35678 -0.30311,2.58364 -0.90932,3.68061c-0.60622,1.08254 -1.43616,1.94134 -2.48981,2.57644c-1.05368,0.62066 -2.24445,0.93098 -3.57235,0.93098c-1.1547,0 -2.20115,-0.24537 -3.13934,-0.73612c-0.93819,-0.49076 -1.69597,-1.14028 -2.27331,-1.94856v7.59939c0,0.30311 -0.09382,0.54127 -0.28145,0.71447c-0.1732,0.18765 -0.40415,0.28146 -0.69282,0.28146zM191.24288,232.11716c0.99593,0 1.89082,-0.23094 2.68468,-0.69282c0.79386,-0.46187 1.42173,-1.10417 1.88361,-1.9269c0.46187,-0.82272 0.69282,-1.73927 0.69282,-2.74963c0,-1.03923 -0.23094,-1.963 -0.69282,-2.77129c-0.46187,-0.80829 -1.08975,-1.45059 -1.8836,-1.9269c-0.79386,-0.47632 -1.68875,-0.71446 -2.68468,-0.71446c-0.98149,0 -1.86917,0.23817 -2.66303,0.71447c-0.79386,0.47632 -1.4145,1.11862 -1.86195,1.92692c-0.44745,0.80829 -0.67117,1.73206 -0.67117,2.77129c0,1.01037 0.22373,1.92692 0.67118,2.74964c0.44745,0.82272 1.0681,1.46503 1.86195,1.92692c0.79386,0.46187 1.68153,0.69282 2.66304,0.69282zM203.19747,225.10234c0.04331,-1.0681 0.31754,-2.02073 0.82272,-2.85789c0.51961,-0.85159 1.18357,-1.51555 1.99186,-1.99186c0.82272,-0.49076 1.73206,-0.73612 2.72798,-0.73612c0.79386,0 1.4073,0.11546 1.84032,0.34641c0.43301,0.21651 0.599,0.54127 0.49797,0.97429c-0.07217,0.25981 -0.19485,0.43301 -0.36805,0.51961c-0.15877,0.07217 -0.35363,0.10104 -0.58456,0.0866c-0.23094,-0.01444 -0.49076,-0.02886 -0.77943,-0.04331c-0.96706,-0.0866 -1.82588,0.01444 -2.57643,0.30311c-0.75056,0.27425 -1.34956,0.70726 -1.797,1.29904c-0.43301,0.59178 -0.64952,1.29182 -0.64952,2.10012zM203.34903,233.80591c-0.31754,0 -0.56292,-0.0866 -0.73612,-0.25981c-0.1732,-0.1732 -0.25981,-0.41136 -0.25981,-0.71446v-12.18931c0,-0.30311 0.0866,-0.54126 0.25981,-0.71446c0.1732,-0.1732 0.41858,-0.25981 0.73612,-0.25981c0.30311,0 0.54127,0.0866 0.71447,0.25981c0.1732,0.1732 0.25981,0.41137 0.25981,0.71447v12.18932c0,0.30311 -0.0866,0.54127 -0.25981,0.71447c-0.1732,0.1732 -0.41136,0.25981 -0.71446,0.25981zM219.58847,233.93581c-1.40008,0 -2.64138,-0.30311 -3.72391,-0.90932c-1.0681,-0.62066 -1.91248,-1.47224 -2.53312,-2.55478c-0.60622,-1.08254 -0.90932,-2.32384 -0.90932,-3.72391c0,-1.4145 0.28867,-2.65581 0.86603,-3.72391c0.57736,-1.08254 1.37121,-1.93412 2.38158,-2.55478c1.02479,-0.62066 2.20115,-0.93097 3.52907,-0.93097c1.29904,0 2.4321,0.2959 3.39916,0.88769c0.98149,0.59178 1.73927,1.4145 2.27333,2.46818c0.53405,1.05368 0.80109,2.25167 0.80109,3.59401c0,0.27425 -0.0866,0.49797 -0.25981,0.67118c-0.1732,0.15877 -0.39693,0.23817 -0.67117,0.23817h-10.97688v-1.66709h11.1934l-1.10417,0.80109c0.01444,-0.99593 -0.1732,-1.89082 -0.56292,-2.68468c-0.37527,-0.79386 -0.90932,-1.4145 -1.60215,-1.86195c-0.69282,-0.44745 -1.52276,-0.67117 -2.48981,-0.67117c-0.98149,0 -1.84752,0.23817 -2.59808,0.71447c-0.73612,0.46187 -1.30625,1.10419 -1.7104,1.92692c-0.40415,0.80829 -0.60622,1.73927 -0.60622,2.79294c0,1.05368 0.22373,1.98465 0.67118,2.79294c0.46187,0.80829 1.08975,1.4506 1.88361,1.92692c0.79386,0.46187 1.71041,0.69282 2.74964,0.69282c0.62066,0 1.2413,-0.10825 1.86195,-0.32476c0.63509,-0.21651 1.14028,-0.49076 1.51555,-0.82272c0.18765,-0.15877 0.40415,-0.23815 0.64952,-0.23815c0.24537,-0.01444 0.44745,0.05052 0.60622,0.19486c0.23094,0.20207 0.34641,0.42579 0.34641,0.67118c0.01444,0.23094 -0.07939,0.43301 -0.28145,0.60622c-0.57736,0.49076 -1.30625,0.89489 -2.18671,1.21244c-0.86603,0.31754 -1.70319,0.47632 -2.51147,0.47632zM233.98864,233.93581c-1.02479,0 -2.03516,-0.1732 -3.03109,-0.51961c-0.99593,-0.34641 -1.80422,-0.86603 -2.42487,-1.55884c-0.20207,-0.20207 -0.28867,-0.43301 -0.25981,-0.69282c0.04331,-0.25981 0.18042,-0.48353 0.41137,-0.67117c0.23094,-0.1732 0.47632,-0.23815 0.73612,-0.19485c0.25981,0.02886 0.47632,0.13712 0.64952,0.32477c0.41858,0.49076 0.96706,0.86603 1.64546,1.12583c0.67838,0.24537 1.43616,0.36807 2.27333,0.36807c1.27017,0 2.18673,-0.21651 2.74964,-0.64952c0.57736,-0.44745 0.87324,-0.97428 0.88769,-1.58049c0,-0.62066 -0.2959,-1.13305 -0.88768,-1.53719c-0.57736,-0.41858 -1.53719,-0.73612 -2.87953,-0.95263c-1.74649,-0.27425 -3.02388,-0.75777 -3.83216,-1.45059c-0.80829,-0.69282 -1.21244,-1.50833 -1.21244,-2.44652c0,-0.88046 0.23094,-1.60937 0.69282,-2.18671c0.46187,-0.59178 1.08254,-1.03202 1.86195,-1.32068c0.77943,-0.30311 1.63101,-0.45466 2.55478,-0.45466c1.1547,0 2.15062,0.20207 2.98779,0.60622c0.83717,0.38971 1.51555,0.91655 2.03516,1.5805c0.1732,0.23094 0.23817,0.4691 0.19486,0.71447c-0.02886,0.23094 -0.16599,0.42579 -0.41136,0.58458c-0.20207,0.11546 -0.44024,0.15156 -0.71446,0.10826c-0.25981,-0.04331 -0.48353,-0.16599 -0.67117,-0.36805c-0.43301,-0.49076 -0.93819,-0.85159 -1.51555,-1.08254c-0.56292,-0.24537 -1.21244,-0.36805 -1.94856,-0.36805c-0.95263,0 -1.71761,0.19486 -2.29497,0.58458c-0.56292,0.38971 -0.84437,0.88046 -0.84437,1.47224c0,0.38971 0.10826,0.73612 0.32477,1.03923c0.21651,0.28867 0.58458,0.54847 1.10419,0.77943c0.53405,0.21651 1.27739,0.39693 2.23002,0.54127c1.2846,0.21651 2.30219,0.52684 3.05275,0.93098c0.75056,0.40415 1.2846,0.88046 1.60215,1.42895c0.31754,0.53405 0.47632,1.11862 0.47632,1.75371c0,0.80829 -0.23815,1.52276 -0.71446,2.14342c-0.46187,0.60622 -1.11139,1.08254 -1.94856,1.42895c-0.83717,0.34641 -1.797,0.51961 -2.87953,0.51961zM248.50685,233.80591c-0.90932,0 -1.72483,-0.21651 -2.44652,-0.64952c-0.70726,-0.43301 -1.27017,-1.02479 -1.68875,-1.77535c-0.41858,-0.75056 -0.62786,-1.60215 -0.62786,-2.55478v-12.64399c0,-0.30311 0.0866,-0.54847 0.25981,-0.73612c0.18765,-0.18765 0.43301,-0.28145 0.73612,-0.28145c0.28867,0 0.52684,0.09382 0.71447,0.28146c0.18765,0.18765 0.28146,0.43301 0.28146,0.73612v12.64399c0,0.86603 0.25981,1.5805 0.77943,2.14342c0.51961,0.56292 1.18357,0.84438 1.99186,0.84438h0.69282c0.27425,0 0.49797,0.09382 0.67118,0.28146c0.1732,0.18765 0.25981,0.43301 0.25981,0.73612c0,0.28867 -0.10104,0.52684 -0.30311,0.71447c-0.20207,0.1732 -0.46187,0.25981 -0.77943,0.25981zM242.0766,221.91969c-0.25981,0 -0.47632,-0.07939 -0.64952,-0.23815c-0.1732,-0.1732 -0.25981,-0.3825 -0.25981,-0.62786c0,-0.25981 0.0866,-0.4691 0.25981,-0.62786c0.1732,-0.15877 0.38971,-0.23815 0.64952,-0.23815h6.5818c0.25981,0 0.47632,0.07939 0.64952,0.23817c0.1732,0.15877 0.25981,0.36807 0.25981,0.62787c0,0.24537 -0.0866,0.45467 -0.25981,0.62787c-0.1732,0.15877 -0.38971,0.23817 -0.64952,0.23817zM254.7853,233.80591c-0.30311,0 -0.54847,-0.0866 -0.73612,-0.25981c-0.1732,-0.18765 -0.25981,-0.44024 -0.25981,-0.75777v-12.12437c0,-0.30311 0.0866,-0.54126 0.25981,-0.71446c0.18765,-0.18765 0.43301,-0.28145 0.73612,-0.28145c0.28867,0 0.52684,0.09382 0.71447,0.28146c0.18765,0.1732 0.28146,0.41137 0.28146,0.71447v12.12437c0,0.31754 -0.09382,0.57013 -0.28145,0.75778c-0.18765,0.1732 -0.42579,0.25981 -0.71446,0.25981zM254.87189,216.98334c-0.38971,0 -0.72169,-0.13712 -0.99593,-0.41136c-0.27425,-0.28867 -0.41136,-0.62786 -0.41136,-1.01757c0,-0.43301 0.14434,-0.7722 0.43301,-1.01757c0.28867,-0.24537 0.62066,-0.36805 0.99593,-0.36805c0.36085,0 0.67838,0.12268 0.95263,0.36807c0.28867,0.24537 0.43301,0.58458 0.43301,1.01759c0,0.38971 -0.13712,0.7289 -0.41136,1.01759c-0.27425,0.27425 -0.60622,0.41137 -0.99593,0.41137zM267.06264,233.93581c-1.35678,0 -2.562,-0.30311 -3.61566,-0.90932c-1.05368,-0.62066 -1.8764,-1.47224 -2.46818,-2.55478c-0.59178,-1.08254 -0.88768,-2.32384 -0.88768,-3.72391c0,-1.4145 0.31033,-2.66303 0.93098,-3.74556c0.62066,-1.08254 1.47224,-1.9269 2.55478,-2.53312c1.08254,-0.62066 2.31662,-0.93097 3.70227,-0.93097c1.38564,0 2.61973,0.31033 3.70227,0.93098c1.08254,0.60622 1.92692,1.4506 2.53313,2.53313c0.62066,1.08254 0.93819,2.33105 0.95263,3.74557l-1.16914,0.62787c0,1.27017 -0.26702,2.40324 -0.80106,3.39916c-0.53405,0.98149 -1.27017,1.75371 -2.20837,2.31662c-0.93819,0.56292 -2.01351,0.84438 -3.22595,0.84438zM267.32246,239.39179c-1.35678,0 -2.55478,-0.25981 -3.59401,-0.77943c-1.02479,-0.50518 -1.8764,-1.19078 -2.55478,-2.05681c-0.18765,-0.21651 -0.27425,-0.44745 -0.25981,-0.69282c0.02886,-0.23094 0.15877,-0.42579 0.38971,-0.58456c0.21651,-0.15877 0.46187,-0.21651 0.73612,-0.1732c0.28867,0.05774 0.50518,0.19486 0.64952,0.41137c0.50518,0.62066 1.14749,1.11862 1.92692,1.4939c0.79386,0.37527 1.70319,0.56292 2.72798,0.56292c0.96706,0 1.84032,-0.23094 2.61973,-0.69282c0.77943,-0.46187 1.39287,-1.11862 1.84032,-1.9702c0.46187,-0.83717 0.69282,-1.82588 0.69282,-2.96613v-3.91876l0.75778,-1.51555l1.21244,0.23817v5.28276c0,1.38564 -0.31033,2.63417 -0.93097,3.74557c-0.62066,1.11139 -1.46503,1.99186 -2.53312,2.64138c-1.0681,0.64952 -2.29497,0.97429 -3.68061,0.97429zM267.27915,232.11716c1.01037,0 1.90526,-0.22373 2.68468,-0.67117c0.79386,-0.46187 1.4145,-1.09697 1.86195,-1.90526c0.44745,-0.80829 0.67118,-1.73927 0.67118,-2.79293c0,-1.05368 -0.22373,-1.98465 -0.67117,-2.79293c-0.44745,-0.82272 -1.0681,-1.46503 -1.86195,-1.9269c-0.77943,-0.46187 -1.67432,-0.69282 -2.68468,-0.69282c-1.02479,0 -1.93412,0.23094 -2.72798,0.69282c-0.79386,0.46187 -1.4145,1.10419 -1.86195,1.92692c-0.44745,0.80829 -0.67117,1.73927 -0.67117,2.79294c0,1.05368 0.22373,1.98465 0.67118,2.79294c0.44745,0.80829 1.0681,1.44338 1.86195,1.90526c0.79386,0.44745 1.70319,0.67118 2.72798,0.67118zM284.75861,233.93581c-1.40011,0 -2.64142,-0.30311 -3.72396,-0.90932c-1.0681,-0.62066 -1.91248,-1.47224 -2.53312,-2.55478c-0.60622,-1.08254 -0.90932,-2.32384 -0.90932,-3.72391c0,-1.4145 0.28867,-2.65581 0.86603,-3.72391c0.57736,-1.08254 1.37121,-1.93412 2.38158,-2.55478c1.02479,-0.62066 2.20116,-0.93097 3.52911,-0.93097c1.29904,0 2.4321,0.2959 3.39916,0.88769c0.98149,0.59178 1.73927,1.4145 2.27333,2.46818c0.53405,1.05368 0.80109,2.25167 0.80109,3.59401c0,0.27425 -0.0866,0.49797 -0.25981,0.67118c-0.1732,0.15877 -0.39693,0.23817 -0.67117,0.23817h-10.97694v-1.66709h11.19344l-1.10417,0.80109c0.01444,-0.99593 -0.1732,-1.89082 -0.56292,-2.68468c-0.37527,-0.79386 -0.90932,-1.4145 -1.60215,-1.86195c-0.69282,-0.44745 -1.52276,-0.67117 -2.48981,-0.67117c-0.98152,0 -1.84756,0.23817 -2.59812,0.71447c-0.73612,0.46187 -1.30625,1.10419 -1.7104,1.92692c-0.40415,0.80829 -0.60622,1.73927 -0.60622,2.79294c0,1.05368 0.22373,1.98465 0.67118,2.79294c0.46187,0.80829 1.08975,1.4506 1.88361,1.92692c0.79386,0.46187 1.71042,0.69282 2.74968,0.69282c0.62066,0 1.2413,-0.10825 1.86195,-0.32476c0.63509,-0.21651 1.14028,-0.49076 1.51555,-0.82272c0.18765,-0.15877 0.40415,-0.23815 0.64952,-0.23815c0.24537,-0.01444 0.44745,0.05052 0.60622,0.19486c0.23094,0.20207 0.34641,0.42579 0.34641,0.67118c0.01444,0.23094 -0.07939,0.43301 -0.28145,0.60622c-0.57736,0.49076 -1.30625,0.89489 -2.18671,1.21244c-0.86603,0.31754 -1.70319,0.47632 -2.51147,0.47632zM294.67711,234.21726c-0.41858,0 -0.7722,-0.14434 -1.06088,-0.43301c-0.28867,-0.28867 -0.43301,-0.6423 -0.43301,-1.06088c0,-0.43301 0.14434,-0.79386 0.43301,-1.08254c0.30311,-0.30311 0.65674,-0.45466 1.06089,-0.45466c0.41858,0 0.7722,0.15156 1.06089,0.45467c0.28867,0.30311 0.43301,0.66396 0.43301,1.08254c0,0.38971 -0.14434,0.73612 -0.43301,1.03923c-0.27425,0.30311 -0.62786,0.45467 -1.06088,0.45467z"/></g></g></g></svg>