<svg version="1.1" viewBox="0.0 0.0 960.0 720.0" fill="none" stroke="none" stroke-linecap="square" stroke-miterlimit="10" xmlns:xlink="http://www.w3.org/1999/xlink" xmlns="http://www.w3.org/2000/svg"><clipPath id="p.0"><path d="m0 0l960.0 0l0 720.0l-960.0 0l0 -720.0z" clip-rule="nonzero"/></clipPath><g clip-path="url(#p.0)"><path fill="#000000" fill-opacity="0.0" d="m0 0l960.0 0l0 720.0l-960.0 0z" fill-rule="evenodd"/><path fill="#000000" fill-opacity="0.0" d="m331.56693 207.22835l270.83463 0l0 304.56696l-270.83463 0z" fill-rule="evenodd"/><path fill="#000000" d="m345.81693 237.98834l-4.453125 0l5.5 -7.84375l-5.5 -7.8125l4.453125 0l5.515625 7.8125l-5.515625 7.84375z" fill-rule="nonzero"/><path fill="#000000" d="m361.17645 226.01959l0.0625 1.328125q1.3125 -1.546875 3.546875 -1.546875q2.515625 0 3.421875 1.921875q0.59375 -0.859375 1.546875 -1.390625q0.96875 -0.53125 2.265625 -0.53125q3.9375 0 4.0 4.171875l0 8.015625l-2.046875 0l0 -7.90625q0 -1.28125 -0.59375 -1.90625q-0.578125 -0.640625 -1.953125 -0.640625q-1.140625 0 -1.890625 0.6875q-0.75 0.671875 -0.875 1.828125l0 7.9375l-2.0625 0l0 -7.84375q0 -2.609375 -2.546875 -2.609375q-2.015625 0 -2.765625 1.71875l0 8.734375l-2.046875 0l0 -11.96875l1.9375 0zm17.388641 5.875q0 -1.765625 0.6875 -3.171875q0.703125 -1.40625 1.9375 -2.15625q1.234375 -0.765625 2.8125 -0.765625q2.453125 0 3.953125 1.6875q1.515625 1.6875 1.515625 4.5l0 0.140625q0 1.75 -0.671875 3.140625q-0.671875 1.390625 -1.921875 2.171875q-1.234375 0.765625 -2.859375 0.765625q-2.421875 0 -3.9375 -1.6875q-1.515625 -1.6875 -1.515625 -4.484375l0 -0.140625zm2.0625 0.234375q0 2.0 0.921875 3.203125q0.921875 1.203125 2.46875 1.203125q1.5625 0 2.484375 -1.21875q0.921875 -1.21875 0.921875 -3.421875q0 -1.96875 -0.9375 -3.1875q-0.9375 -1.234375 -2.484375 -1.234375q-1.515625 0 -2.453125 1.21875q-0.921875 1.203125 -0.921875 3.4375zm15.192627 3.078125l2.96875 -9.1875l2.078125 0l-4.28125 11.96875l-1.5625 0l-4.34375 -11.96875l2.09375 0l3.046875 9.1875zm11.845886 3.0q-2.4375 0 -3.96875 -1.59375q-1.515625 -1.59375 -1.515625 -4.28125l0 -0.375q0 -1.78125 0.671875 -3.171875q0.6875 -1.40625 1.90625 -2.1875q1.21875 -0.796875 2.65625 -0.796875q2.328125 0 3.625 1.546875q1.296875 1.53125 1.296875 4.390625l0 0.84375l-8.109375 0q0.046875 1.78125 1.03125 2.875q0.984375 1.078125 2.515625 1.078125q1.078125 0 1.828125 -0.4375q0.765625 -0.4375 1.328125 -1.171875l1.25 0.96875q-1.5 2.3125 -4.515625 2.3125zm-0.25 -10.734375q-1.25 0 -2.09375 0.90625q-0.828125 0.90625 -1.03125 2.53125l6.0 0l0 -0.15625q-0.09375 -1.5625 -0.84375 -2.421875q-0.75 -0.859375 -2.03125 -0.859375zm9.206055 -1.453125l0.0625 1.328125q1.3125 -1.546875 3.546875 -1.546875q2.515625 0 3.421875 1.921875q0.59375 -0.859375 1.546875 -1.390625q0.96875 -0.53125 2.265625 -0.53125q3.9375 0 4.0 4.171875l0 8.015625l-2.046875 0l0 -7.90625q0 -1.28125 -0.59375 -1.90625q-0.578125 -0.640625 -1.953125 -0.640625q-1.140625 0 -1.890625 0.6875q-0.75 0.671875 -0.875 1.828125l0 7.9375l-2.0625 0l0 -7.84375q0 -2.609375 -2.546875 -2.609375q-2.015625 0 -2.765625 1.71875l0 8.734375l-2.046875 0l0 -11.96875l1.9375 0zm22.904297 12.1875q-2.4375 0 -3.96875 -1.59375q-1.515625 -1.59375 -1.515625 -4.28125l0 -0.375q0 -1.78125 0.671875 -3.171875q0.6875 -1.40625 1.90625 -2.1875q1.21875 -0.796875 2.65625 -0.796875q2.328125 0 3.625 1.546875q1.296875 1.53125 1.296875 4.390625l0 0.84375l-8.109375 0q0.046875 1.78125 1.03125 2.875q0.984375 1.078125 2.515625 1.078125q1.078125 0 1.828125 -0.4375q0.765625 -0.4375 1.328125 -1.171875l1.25 0.96875q-1.5 2.3125 -4.515625 2.3125zm-0.25 -10.734375q-1.25 0 -2.09375 0.90625q-0.828125 0.90625 -1.03125 2.53125l6.0 0l0 -0.15625q-0.09375 -1.5625 -0.84375 -2.421875q-0.75 -0.859375 -2.03125 -0.859375zm9.22168 -1.453125l0.0625 1.5q1.375 -1.71875 3.59375 -1.71875q3.796875 0 3.828125 4.28125l0 7.90625l-2.046875 0l0 -7.921875q-0.015625 -1.296875 -0.59375 -1.90625q-0.578125 -0.625 -1.8125 -0.625q-1.0 0 -1.75 0.53125q-0.75 0.53125 -1.171875 1.390625l0 8.53125l-2.046875 0l0 -11.96875l1.9375 0zm13.344513 -2.90625l0 2.90625l2.234375 0l0 1.578125l-2.234375 0l0 7.421875q0 0.71875 0.296875 1.078125q0.296875 0.359375 1.015625 0.359375q0.359375 0 0.96875 -0.125l0 1.65625q-0.796875 0.21875 -1.5625 0.21875q-1.375 0 -2.078125 -0.828125q-0.6875 -0.828125 -0.6875 -2.359375l0 -7.421875l-2.1875 0l0 -1.578125l2.1875 0l0 -2.90625l2.046875 0z" fill-rule="nonzero"/><path fill="#000000" d="m345.91068 259.91022l0.3125 2.125l0.453125 -1.921875l3.1875 -11.234375l1.78125 0l3.109375 11.234375l0.453125 1.953125l0.34375 -2.171875l2.5 -11.015625l2.125 0l-3.90625 16.109375l-1.9375 0l-3.3125 -11.734375l-0.25 -1.234375l-0.265625 1.234375l-3.4375 11.734375l-1.9375 0l-3.890625 -16.109375l2.125 0l2.546875 11.03125zm25.046753 0.875l-6.75 0l-1.515625 4.203125l-2.1875 0l6.140625 -16.109375l1.859375 0l6.171875 16.109375l-2.1875 0l-1.53125 -4.203125zm-6.109375 -1.75l5.484375 0l-2.75 -7.53125l-2.734375 7.53125zm16.732788 -1.21875q-2.71875 -0.796875 -3.96875 -1.9375q-1.25 -1.140625 -1.25 -2.828125q0 -1.90625 1.515625 -3.140625q1.53125 -1.25 3.96875 -1.25q1.65625 0 2.953125 0.640625q1.296875 0.640625 2.015625 1.78125q0.71875 1.125 0.71875 2.453125l-2.140625 0q0 -1.453125 -0.9375 -2.28125q-0.921875 -0.84375 -2.609375 -0.84375q-1.578125 0 -2.453125 0.6875q-0.875 0.6875 -0.875 1.921875q0 0.984375 0.828125 1.671875q0.828125 0.671875 2.828125 1.234375q2.015625 0.5625 3.15625 1.25q1.140625 0.671875 1.6875 1.578125q0.546875 0.90625 0.546875 2.140625q0 1.953125 -1.53125 3.140625q-1.53125 1.171875 -4.078125 1.171875q-1.65625 0 -3.109375 -0.625q-1.4375 -0.640625 -2.21875 -1.75q-0.765625 -1.109375 -0.765625 -2.515625l2.125 0q0 1.46875 1.078125 2.3125q1.078125 0.84375 2.890625 0.84375q1.671875 0 2.5625 -0.6875q0.90625 -0.6875 0.90625 -1.859375q0 -1.1875 -0.828125 -1.828125q-0.828125 -0.65625 -3.015625 -1.28125zm8.706726 7.171875l0 -16.109375l4.546875 0q2.09375 0 3.703125 0.9375q1.625 0.921875 2.5 2.640625q0.875 1.71875 0.890625 3.9375l0 1.03125q0 2.28125 -0.875 4.0q-0.875 1.703125 -2.515625 2.625q-1.625 0.921875 -3.796875 0.9375l-4.453125 0zm2.125 -14.359375l0 12.625l2.234375 0q2.453125 0 3.8125 -1.53125q1.375 -1.53125 1.375 -4.34375l0 -0.9375q0 -2.75 -1.296875 -4.265625q-1.28125 -1.53125 -3.65625 -1.546875l-2.46875 0zm16.669586 8.359375l-5.40625 0l0 -1.671875l5.40625 0l0 1.671875zm5.3285217 0.453125l-1.28125 1.34375l0 4.203125l-2.046875 0l0 -17.0l2.046875 0l0 10.28125l1.09375 -1.3125l3.734375 -3.9375l2.484375 0l-4.65625 5.0l5.1875 6.96875l-2.390625 0l-4.171875 -5.546875zm12.886627 5.765625q-2.4375 0 -3.96875 -1.59375q-1.515625 -1.59375 -1.515625 -4.28125l0 -0.375q0 -1.78125 0.671875 -3.171875q0.6875 -1.40625 1.90625 -2.1875q1.21875 -0.796875 2.65625 -0.796875q2.328125 0 3.625 1.546875q1.296875 1.53125 1.296875 4.390625l0 0.84375l-8.109375 0q0.046875 1.78125 1.03125 2.875q0.984375 1.078125 2.515625 1.078125q1.078125 0 1.828125 -0.4375q0.765625 -0.4375 1.328125 -1.171875l1.25 0.96875q-1.5 2.3125 -4.515625 2.3125zm-0.25 -10.734375q-1.25 0 -2.09375 0.90625q-0.828125 0.90625 -1.03125 2.53125l6.0 0l0 -0.15625q-0.09375 -1.5625 -0.84375 -2.421875q-0.75 -0.859375 -2.03125 -0.859375zm11.062195 7.515625l2.78125 -8.96875l2.1875 0l-4.8125 13.8125q-1.109375 2.984375 -3.546875 2.984375l-0.390625 -0.03125l-0.765625 -0.140625l0 -1.65625l0.5625 0.046875q1.03125 0 1.609375 -0.421875q0.59375 -0.421875 0.96875 -1.546875l0.453125 -1.203125l-4.265625 -11.84375l2.234375 0l2.984375 8.96875zm13.766571 -0.171875q0 -0.828125 -0.625 -1.28125q-0.625 -0.46875 -2.1875 -0.796875q-1.546875 -0.34375 -2.46875 -0.796875q-0.90625 -0.46875 -1.34375 -1.109375q-0.4375 -0.640625 -0.4375 -1.53125q0 -1.46875 1.25 -2.484375q1.25 -1.015625 3.1875 -1.015625q2.03125 0 3.296875 1.046875q1.265625 1.046875 1.265625 2.6875l-2.0625 0q0 -0.84375 -0.71875 -1.453125q-0.703125 -0.609375 -1.78125 -0.609375q-1.125 0 -1.765625 0.5q-0.625 0.484375 -0.625 1.265625q0 0.734375 0.578125 1.125q0.59375 0.375 2.125 0.71875q1.546875 0.328125 2.484375 0.8125q0.953125 0.46875 1.40625 1.140625q0.46875 0.671875 0.46875 1.640625q0 1.59375 -1.28125 2.5625q-1.28125 0.96875 -3.328125 0.96875q-1.4375 0 -2.546875 -0.5q-1.109375 -0.515625 -1.734375 -1.421875q-0.625 -0.921875 -0.625 -1.984375l2.046875 0q0.0625 1.03125 0.828125 1.640625q0.765625 0.59375 2.03125 0.59375q1.15625 0 1.859375 -0.46875q0.703125 -0.46875 0.703125 -1.25zm5.119629 4.5625l-1.75 0l6.71875 -17.5l1.75 0l-6.71875 17.5zm16.321228 -1.390625q-0.171875 -0.359375 -0.28125 -1.265625q-1.4375 1.484375 -3.40625 1.484375q-1.78125 0 -2.921875 -1.0q-1.125 -1.0 -1.125 -2.53125q0 -1.875 1.421875 -2.90625q1.421875 -1.03125 4.0 -1.03125l2.0 0l0 -0.953125q0 -1.0625 -0.65625 -1.703125q-0.640625 -0.640625 -1.890625 -0.640625q-1.09375 0 -1.84375 0.5625q-0.734375 0.546875 -0.734375 1.328125l-2.046875 0q0 -0.890625 0.625 -1.71875q0.640625 -0.84375 1.734375 -1.328125q1.09375 -0.484375 2.390625 -0.484375q2.078125 0 3.25 1.03125q1.171875 1.03125 1.21875 2.84375l0 5.515625q0 1.640625 0.40625 2.625l0 0.171875l-2.140625 0zm-3.390625 -1.5625q0.953125 0 1.8125 -0.5q0.875 -0.5 1.265625 -1.296875l0 -2.453125l-1.609375 0q-3.765625 0 -3.765625 2.203125q0 0.96875 0.640625 1.515625q0.640625 0.53125 1.65625 0.53125zm14.105011 -8.578125q-0.453125 -0.0625 -1.0 -0.0625q-2.015625 0 -2.734375 1.703125l0 8.5l-2.046875 0l0 -11.96875l2.0 0l0.03125 1.375q1.0 -1.59375 2.84375 -1.59375q0.609375 0 0.90625 0.15625l0 1.890625zm7.666382 0q-0.453125 -0.0625 -1.0 -0.0625q-2.015625 0 -2.734375 1.703125l0 8.5l-2.046875 0l0 -11.96875l2.0 0l0.03125 1.375q1.0 -1.59375 2.84375 -1.59375q0.609375 0 0.90625 0.15625l0 1.890625zm1.1169128 4.046875q0 -1.765625 0.6875 -3.171875q0.703125 -1.40625 1.9375 -2.15625q1.234375 -0.765625 2.8125 -0.765625q2.453125 0 3.953125 1.6875q1.515625 1.6875 1.515625 4.5l0 0.140625q0 1.75 -0.671875 3.140625q-0.671875 1.390625 -1.921875 2.171875q-1.234375 0.765625 -2.859375 0.765625q-2.421875 0 -3.9375 -1.6875q-1.515625 -1.6875 -1.515625 -4.484375l0 -0.140625zm2.0625 0.234375q0 2.0 0.921875 3.203125q0.921875 1.203125 2.46875 1.203125q1.5625 0 2.484375 -1.21875q0.921875 -1.21875 0.921875 -3.421875q0 -1.96875 -0.9375 -3.1875q-0.9375 -1.234375 -2.484375 -1.234375q-1.515625 0 -2.453125 1.21875q-0.921875 1.203125 -0.921875 3.4375zm21.999298 3.03125l2.3125 -9.140625l2.046875 0l-3.484375 11.96875l-1.671875 0l-2.90625 -9.078125l-2.8281555 9.078125l-1.65625 0l-3.484375 -11.96875l2.046875 0l2.359375 8.953125l2.7812805 -8.953125l1.640625 0l2.84375 9.140625zm10.697205 -3.171875l-5.40625 0l0 -1.671875l5.40625 0l0 1.671875zm5.3285522 0.453125l-1.28125 1.34375l0 4.203125l-2.046875 0l0 -17.0l2.046875 0l0 10.28125l1.09375 -1.3125l3.734375 -3.9375l2.484375 0l-4.65625 5.0l5.1875 6.96875l-2.390625 0l-4.171875 -5.546875zm12.886597 5.765625q-2.4375 0 -3.96875 -1.59375q-1.515625 -1.59375 -1.515625 -4.28125l0 -0.375q0 -1.78125 0.671875 -3.171875q0.6875 -1.40625 1.90625 -2.1875q1.21875 -0.796875 2.65625 -0.796875q2.328125 0 3.625 1.546875q1.296875 1.53125 1.296875 4.390625l0 0.84375l-8.109375 0q0.046875 1.78125 1.03125 2.875q0.984375 1.078125 2.515625 1.078125q1.078125 0 1.828125 -0.4375q0.765625 -0.4375 1.328125 -1.171875l1.25 0.96875q-1.5 2.3125 -4.515625 2.3125zm-0.25 -10.734375q-1.25 0 -2.09375 0.90625q-0.828125 0.90625 -1.03125 2.53125l6.0 0l0 -0.15625q-0.09375 -1.5625 -0.84375 -2.421875q-0.75 -0.859375 -2.03125 -0.859375zm11.062195 7.515625l2.78125 -8.96875l2.1875 0l-4.8125 13.8125q-1.109375 2.984375 -3.546875 2.984375l-0.390625 -0.03125l-0.765625 -0.140625l0 -1.65625l0.5625 0.046875q1.03125 0 1.609375 -0.421875q0.59375 -0.421875 0.96875 -1.546875l0.453125 -1.203125l-4.265625 -11.84375l2.234375 0l2.984375 8.96875zm13.766602 -0.171875q0 -0.828125 -0.625 -1.28125q-0.625 -0.46875 -2.1875 -0.796875q-1.546875 -0.34375 -2.46875 -0.796875q-0.90625 -0.46875 -1.34375 -1.109375q-0.4375 -0.640625 -0.4375 -1.53125q0 -1.46875 1.25 -2.484375q1.25 -1.015625 3.1875 -1.015625q2.03125 0 3.296875 1.046875q1.265625 1.046875 1.265625 2.6875l-2.0625 0q0 -0.84375 -0.71875 -1.453125q-0.703125 -0.609375 -1.78125 -0.609375q-1.125 0 -1.765625 0.5q-0.625 0.484375 -0.625 1.265625q0 0.734375 0.578125 1.125q0.59375 0.375 2.125 0.71875q1.546875 0.328125 2.484375 0.8125q0.953125 0.46875 1.40625 1.140625q0.46875 0.671875 0.46875 1.640625q0 1.59375 -1.28125 2.5625q-1.28125 0.96875 -3.328125 0.96875q-1.4375 0 -2.546875 -0.5q-1.109375 -0.515625 -1.734375 -1.421875q-0.625 -0.921875 -0.625 -1.984375l2.046875 0q0.0625 1.03125 0.828125 1.640625q0.765625 0.59375 2.03125 0.59375q1.15625 0 1.859375 -0.46875q0.703125 -0.46875 0.703125 -1.25zm5.119629 4.5625l-1.75 0l6.71875 -17.5l1.75 0l-6.71875 17.5z" fill-rule="nonzero"/><path fill="#000000" d="m344.03568 280.0196l0.0625 1.328125q1.3125 -1.546875 3.546875 -1.546875q2.515625 0 3.421875 1.921875q0.59375 -0.859375 1.546875 -1.390625q0.96875 -0.53125 2.265625 -0.53125q3.9375 0 4.0 4.171875l0 8.015625l-2.046875 0l0 -7.90625q0 -1.28125 -0.59375 -1.90625q-0.578125 -0.640625 -1.953125 -0.640625q-1.140625 0 -1.890625 0.6875q-0.75 0.671875 -0.875 1.828125l0 7.9375l-2.0625 0l0 -7.84375q0 -2.609375 -2.546875 -2.609375q-2.015625 0 -2.765625 1.71875l0 8.734375l-2.046875 0l0 -11.96875l1.9375 0zm17.388672 5.875q0 -1.765625 0.6875 -3.171875q0.703125 -1.40625 1.9375 -2.15625q1.234375 -0.765625 2.8125 -0.765625q2.453125 0 3.953125 1.6875q1.515625 1.6875 1.515625 4.5l0 0.140625q0 1.75 -0.671875 3.140625q-0.671875 1.390625 -1.921875 2.171875q-1.234375 0.765625 -2.859375 0.765625q-2.421875 0 -3.9375 -1.6875q-1.515625 -1.6875 -1.515625 -4.484375l0 -0.140625zm2.0625 0.234375q0 2.0 0.921875 3.203125q0.921875 1.203125 2.46875 1.203125q1.5625 0 2.484375 -1.21875q0.921875 -1.21875 0.921875 -3.421875q0 -1.96875 -0.9375 -3.1875q-0.9375 -1.234375 -2.484375 -1.234375q-1.515625 0 -2.453125 1.21875q-0.921875 1.203125 -0.921875 3.4375zm21.546143 0q0 2.75 -1.265625 4.421875q-1.265625 1.65625 -3.390625 1.65625q-2.265625 0 -3.5 -1.609375l-0.109375 1.390625l-1.875 0l0 -17.0l2.046875 0l0 6.34375q1.234375 -1.53125 3.40625 -1.53125q2.1875 0 3.4375 1.65625q1.25 1.640625 1.25 4.5l0 0.171875zm-2.046875 -0.21875q0 -2.09375 -0.8125 -3.234375q-0.8125 -1.140625 -2.328125 -1.140625q-2.015625 0 -2.90625 1.875l0 5.1875q0.9375 1.875 2.9375 1.875q1.46875 0 2.28125 -1.140625q0.828125 -1.140625 0.828125 -3.421875zm6.8359375 6.078125l-2.046875 0l0 -11.96875l2.046875 0l0 11.96875zm-2.203125 -15.140625q0 -0.5 0.296875 -0.84375q0.3125 -0.34375 0.90625 -0.34375q0.59375 0 0.90625 0.34375q0.3125 0.34375 0.3125 0.84375q0 0.5 -0.3125 0.828125q-0.3125 0.328125 -0.90625 0.328125q-0.59375 0 -0.90625 -0.328125q-0.296875 -0.328125 -0.296875 -0.828125zm7.7012634 15.140625l-2.046875 0l0 -17.0l2.046875 0l0 17.0zm8.248108 0.21875q-2.4375 0 -3.96875 -1.59375q-1.515625 -1.59375 -1.515625 -4.28125l0 -0.375q0 -1.78125 0.671875 -3.171875q0.6875 -1.40625 1.90625 -2.1875q1.21875 -0.796875 2.65625 -0.796875q2.328125 0 3.625 1.546875q1.296875 1.53125 1.296875 4.390625l0 0.84375l-8.109375 0q0.046875 1.78125 1.03125 2.875q0.984375 1.078125 2.515625 1.078125q1.078125 0 1.828125 -0.4375q0.765625 -0.4375 1.328125 -1.171875l1.25 0.96875q-1.5 2.3125 -4.515625 2.3125zm-0.25 -10.734375q-1.25 0 -2.09375 0.90625q-0.828125 0.90625 -1.03125 2.53125l6.0 0l0 -0.15625q-0.09375 -1.5625 -0.84375 -2.421875q-0.75 -0.859375 -2.03125 -0.859375zm15.674194 -4.359375l0 2.90625l2.234375 0l0 1.578125l-2.234375 0l0 7.421875q0 0.71875 0.296875 1.078125q0.296875 0.359375 1.015625 0.359375q0.359375 0 0.96875 -0.125l0 1.65625q-0.796875 0.21875 -1.5625 0.21875q-1.375 0 -2.078125 -0.828125q-0.6875 -0.828125 -0.6875 -2.359375l0 -7.421875l-2.1875 0l0 -1.578125l2.1875 0l0 -2.90625l2.046875 0zm12.010284 14.875q-0.171875 -0.359375 -0.28125 -1.265625q-1.4375 1.484375 -3.40625 1.484375q-1.78125 0 -2.921875 -1.0q-1.125 -1.0 -1.125 -2.53125q0 -1.875 1.421875 -2.90625q1.421875 -1.03125 4.0 -1.03125l2.0 0l0 -0.953125q0 -1.0625 -0.65625 -1.703125q-0.640625 -0.640625 -1.890625 -0.640625q-1.09375 0 -1.84375 0.5625q-0.734375 0.546875 -0.734375 1.328125l-2.046875 0q0 -0.890625 0.625 -1.71875q0.640625 -0.84375 1.734375 -1.328125q1.09375 -0.484375 2.390625 -0.484375q2.078125 0 3.25 1.03125q1.171875 1.03125 1.21875 2.84375l0 5.515625q0 1.640625 0.40625 2.625l0 0.171875l-2.140625 0zm-3.390625 -1.5625q0.953125 0 1.8125 -0.5q0.875 -0.5 1.265625 -1.296875l0 -2.453125l-1.609375 0q-3.765625 0 -3.765625 2.203125q0 0.96875 0.640625 1.515625q0.640625 0.53125 1.65625 0.53125zm18.433136 -4.296875q0 2.734375 -1.25 4.40625q-1.25 1.671875 -3.375 1.671875q-2.1875 0 -3.4375 -1.375l0 5.765625l-2.046875 0l0 -16.578125l1.875 0l0.09375 1.328125q1.25 -1.546875 3.46875 -1.546875q2.171875 0 3.421875 1.625q1.25 1.625 1.25 4.515625l0 0.1875zm-2.046875 -0.21875q0 -2.03125 -0.859375 -3.203125q-0.859375 -1.171875 -2.359375 -1.171875q-1.859375 0 -2.796875 1.640625l0 5.71875q0.921875 1.640625 2.8125 1.640625q1.46875 0 2.328125 -1.15625q0.875 -1.171875 0.875 -3.46875z" fill-rule="nonzero"/><path fill="#000000" d="m345.81693 318.98834l-4.453125 0l5.5 -7.84375l-5.5 -7.8125l4.453125 0l5.515625 7.8125l-5.515625 7.84375z" fill-rule="nonzero"/><path fill="#000000" d="m358.7077 312.8946q0 -1.765625 0.6875 -3.171875q0.703125 -1.40625 1.9375 -2.15625q1.234375 -0.765625 2.8125 -0.765625q2.453125 0 3.953125 1.6875q1.515625 1.6875 1.515625 4.5l0 0.140625q0 1.75 -0.671875 3.140625q-0.671875 1.390625 -1.921875 2.171875q-1.234375 0.765625 -2.859375 0.765625q-2.421875 0 -3.9375 -1.6875q-1.515625 -1.6875 -1.515625 -4.484375l0 -0.140625zm2.0625 0.234375q0 2.0 0.921875 3.203125q0.921875 1.203125 2.46875 1.203125q1.5625 0 2.484375 -1.21875q0.921875 -1.21875 0.921875 -3.421875q0 -1.96875 -0.9375 -3.1875q-0.9375 -1.234375 -2.484375 -1.234375q-1.515625 0 -2.453125 1.21875q-0.921875 1.203125 -0.921875 3.4375zm21.514893 0q0 2.734375 -1.25 4.40625q-1.25 1.671875 -3.375 1.671875q-2.1875 0 -3.4375 -1.375l0 5.765625l-2.046875 0l0 -16.578125l1.875 0l0.09375 1.328125q1.25 -1.546875 3.46875 -1.546875q2.171875 0 3.421875 1.625q1.25 1.625 1.25 4.515625l0 0.1875zm-2.046875 -0.21875q0 -2.03125 -0.859375 -3.203125q-0.859375 -1.171875 -2.359375 -1.171875q-1.859375 0 -2.796875 1.640625l0 5.71875q0.921875 1.640625 2.8125 1.640625q1.46875 0 2.328125 -1.15625q0.875 -1.171875 0.875 -3.46875zm9.6171875 6.296875q-2.4375 0 -3.96875 -1.59375q-1.515625 -1.59375 -1.515625 -4.28125l0 -0.375q0 -1.78125 0.671875 -3.171875q0.6875 -1.40625 1.90625 -2.1875q1.21875 -0.796875 2.65625 -0.796875q2.328125 0 3.625 1.546875q1.296875 1.53125 1.296875 4.390625l0 0.84375l-8.109375 0q0.046875 1.78125 1.03125 2.875q0.984375 1.078125 2.515625 1.078125q1.078125 0 1.828125 -0.4375q0.765625 -0.4375 1.328125 -1.171875l1.25 0.96875q-1.5 2.3125 -4.515625 2.3125zm-0.25 -10.734375q-1.25 0 -2.09375 0.90625q-0.828125 0.90625 -1.03125 2.53125l6.0 0l0 -0.15625q-0.09375 -1.5625 -0.84375 -2.421875q-0.75 -0.859375 -2.03125 -0.859375zm9.22171 -1.453125l0.0625 1.5q1.375 -1.71875 3.59375 -1.71875q3.796875 0 3.828125 4.28125l0 7.90625l-2.046875 0l0 -7.921875q-0.015625 -1.296875 -0.59375 -1.90625q-0.578125 -0.625 -1.8125 -0.625q-1.0 0 -1.75 0.53125q-0.75 0.53125 -1.171875 1.390625l0 8.53125l-2.046875 0l0 -11.96875l1.9375 0zm20.968872 10.515625q1.09375 0 1.90625 -0.65625q0.828125 -0.671875 0.921875 -1.65625l1.9375 0q-0.0625 1.015625 -0.71875 1.953125q-0.640625 0.921875 -1.734375 1.484375q-1.09375 0.546875 -2.3125 0.546875q-2.4375 0 -3.890625 -1.625q-1.4375 -1.640625 -1.4375 -4.46875l0 -0.34375q0 -1.75 0.640625 -3.109375q0.640625 -1.359375 1.84375 -2.109375q1.203125 -0.75 2.84375 -0.75q2.015625 0 3.34375 1.203125q1.328125 1.203125 1.421875 3.125l-1.9375 0q-0.09375 -1.15625 -0.890625 -1.90625q-0.78125 -0.75 -1.9375 -0.75q-1.5625 0 -2.421875 1.125q-0.859375 1.125 -0.859375 3.25l0 0.390625q0 2.0625 0.84375 3.1875q0.859375 1.109375 2.4375 1.109375zm9.109131 -9.0625q1.359375 -1.671875 3.546875 -1.671875q3.796875 0 3.828125 4.28125l0 7.90625l-2.046875 0l0 -7.921875q-0.015625 -1.296875 -0.59375 -1.90625q-0.578125 -0.625 -1.8125 -0.625q-1.0 0 -1.75 0.53125q-0.75 0.53125 -1.171875 1.390625l0 8.53125l-2.046875 0l0 -17.0l2.046875 0l0 6.484375zm17.822388 10.515625q-0.171875 -0.359375 -0.28125 -1.265625q-1.4375 1.484375 -3.40625 1.484375q-1.78125 0 -2.921875 -1.0q-1.125 -1.0 -1.125 -2.53125q0 -1.875 1.421875 -2.90625q1.421875 -1.03125 4.0 -1.03125l2.0 0l0 -0.953125q0 -1.0625 -0.65625 -1.703125q-0.640625 -0.640625 -1.890625 -0.640625q-1.09375 0 -1.84375 0.5625q-0.734375 0.546875 -0.734375 1.328125l-2.046875 0q0 -0.890625 0.625 -1.71875q0.640625 -0.84375 1.734375 -1.328125q1.09375 -0.484375 2.390625 -0.484375q2.078125 0 3.25 1.03125q1.171875 1.03125 1.21875 2.84375l0 5.515625q0 1.640625 0.40625 2.625l0 0.171875l-2.140625 0zm-3.390625 -1.5625q0.953125 0 1.8125 -0.5q0.875 -0.5 1.265625 -1.296875l0 -2.453125l-1.609375 0q-3.765625 0 -3.765625 2.203125q0 0.96875 0.640625 1.515625q0.640625 0.53125 1.65625 0.53125zm11.105011 -13.3125l0 2.90625l2.234375 0l0 1.578125l-2.234375 0l0 7.421875q0 0.71875 0.296875 1.078125q0.296875 0.359375 1.015625 0.359375q0.359375 0 0.96875 -0.125l0 1.65625q-0.796875 0.21875 -1.5625 0.21875q-1.375 0 -2.078125 -0.828125q-0.6875 -0.828125 -0.6875 -2.359375l0 -7.421875l-2.1875 0l0 -1.578125l2.1875 0l0 -2.90625l2.046875 0z" fill-rule="nonzero"/><path fill="#000000" d="m353.56693 331.62897l-5.171875 0l0 14.359375l-2.125 0l0 -14.359375l-5.15625 0l0 -1.75l12.453125 0l0 1.75zm3.7633362 8.359375l-5.40625 0l0 -1.671875l5.40625 0l0 1.671875zm5.328491 0.453125l-1.28125 1.34375l0 4.203125l-2.046875 0l0 -17.0l2.046875 0l0 10.28125l1.09375 -1.3125l3.734375 -3.9375l2.484375 0l-4.65625 5.0l5.1875 6.96875l-2.390625 0l-4.171875 -5.546875zm12.886658 5.765625q-2.4375 0 -3.96875 -1.59375q-1.515625 -1.59375 -1.515625 -4.28125l0 -0.375q0 -1.78125 0.671875 -3.171875q0.6875 -1.40625 1.90625 -2.1875q1.21875 -0.796875 2.65625 -0.796875q2.328125 0 3.625 1.546875q1.296875 1.53125 1.296875 4.390625l0 0.84375l-8.109375 0q0.046875 1.78125 1.03125 2.875q0.984375 1.078125 2.515625 1.078125q1.078125 0 1.828125 -0.4375q0.765625 -0.4375 1.328125 -1.171875l1.25 0.96875q-1.5 2.3125 -4.515625 2.3125zm-0.25 -10.734375q-1.25 0 -2.09375 0.90625q-0.828125 0.90625 -1.03125 2.53125l6.0 0l0 -0.15625q-0.09375 -1.5625 -0.84375 -2.421875q-0.75 -0.859375 -2.03125 -0.859375zm11.062195 7.515625l2.78125 -8.96875l2.1875 0l-4.8125 13.8125q-1.109375 2.984375 -3.546875 2.984375l-0.390625 -0.03125l-0.765625 -0.140625l0 -1.65625l0.5625 0.046875q1.03125 0 1.609375 -0.421875q0.59375 -0.421875 0.96875 -1.546875l0.453125 -1.203125l-4.265625 -11.84375l2.234375 0l2.984375 8.96875zm7.2040405 4.390625l-1.75 0l6.71875 -17.5l1.75 0l-6.71875 17.5zm11.711853 -16.265625l0 2.90625l2.234375 0l0 1.578125l-2.234375 0l0 7.421875q0 0.71875 0.296875 1.078125q0.296875 0.359375 1.015625 0.359375q0.359375 0 0.96875 -0.125l0 1.65625q-0.796875 0.21875 -1.5625 0.21875q-1.375 0 -2.078125 -0.828125q-0.6875 -0.828125 -0.6875 -2.359375l0 -7.421875l-2.1875 0l0 -1.578125l2.1875 0l0 -2.90625l2.046875 0zm12.010284 14.875q-0.171875 -0.359375 -0.28125 -1.265625q-1.4375 1.484375 -3.40625 1.484375q-1.78125 0 -2.921875 -1.0q-1.125 -1.0 -1.125 -2.53125q0 -1.875 1.421875 -2.90625q1.421875 -1.03125 4.0 -1.03125l2.0 0l0 -0.953125q0 -1.0625 -0.65625 -1.703125q-0.640625 -0.640625 -1.890625 -0.640625q-1.09375 0 -1.84375 0.5625q-0.734375 0.546875 -0.734375 1.328125l-2.046875 0q0 -0.890625 0.625 -1.71875q0.640625 -0.84375 1.734375 -1.328125q1.09375 -0.484375 2.390625 -0.484375q2.078125 0 3.25 1.03125q1.171875 1.03125 1.21875 2.84375l0 5.515625q0 1.640625 0.40625 2.625l0 0.171875l-2.140625 0zm-3.390625 -1.5625q0.953125 0 1.8125 -0.5q0.875 -0.5 1.265625 -1.296875l0 -2.453125l-1.609375 0q-3.765625 0 -3.765625 2.203125q0 0.96875 0.640625 1.515625q0.640625 0.53125 1.65625 0.53125zm18.433136 -4.296875q0 2.734375 -1.25 4.40625q-1.25 1.671875 -3.375 1.671875q-2.1875 0 -3.4375 -1.375l0 5.765625l-2.046875 0l0 -16.578125l1.875 0l0.09375 1.328125q1.25 -1.546875 3.46875 -1.546875q2.171875 0 3.421875 1.625q1.25 1.625 1.25 4.515625l0 0.1875zm-2.046875 -0.21875q0 -2.03125 -0.859375 -3.203125q-0.859375 -1.171875 -2.359375 -1.171875q-1.859375 0 -2.796875 1.640625l0 5.71875q0.921875 1.640625 2.8125 1.640625q1.46875 0 2.328125 -1.15625q0.875 -1.171875 0.875 -3.46875zm9.710327 -0.015625q0 -1.765625 0.6875 -3.171875q0.703125 -1.40625 1.9375 -2.15625q1.234375 -0.765625 2.8125 -0.765625q2.453125 0 3.953125 1.6875q1.515625 1.6875 1.515625 4.5l0 0.140625q0 1.75 -0.671875 3.140625q-0.671875 1.390625 -1.921875 2.171875q-1.234375 0.765625 -2.859375 0.765625q-2.421875 0 -3.9375 -1.6875q-1.515625 -1.6875 -1.515625 -4.484375l0 -0.140625zm2.0625 0.234375q0 2.0 0.921875 3.203125q0.921875 1.203125 2.46875 1.203125q1.5625 0 2.484375 -1.21875q0.921875 -1.21875 0.921875 -3.421875q0 -1.96875 -0.9375 -3.1875q-0.9375 -1.234375 -2.484375 -1.234375q-1.515625 0 -2.453125 1.21875q-0.921875 1.203125 -0.921875 3.4375zm13.343018 -6.109375l0.0625 1.5q1.375 -1.71875 3.59375 -1.71875q3.796875 0 3.828125 4.28125l0 7.90625l-2.046875 0l0 -7.921875q-0.015625 -1.296875 -0.59375 -1.90625q-0.578125 -0.625 -1.8125 -0.625q-1.0 0 -1.75 0.53125q-0.75 0.53125 -1.171875 1.390625l0 8.53125l-2.046875 0l0 -11.96875l1.9375 0zm26.281372 6.109375q0 2.734375 -1.25 4.40625q-1.25 1.671875 -3.375 1.671875q-2.1875 0 -3.4375 -1.375l0 5.765625l-2.046875 0l0 -16.578125l1.875 0l0.09375 1.328125q1.25 -1.546875 3.46875 -1.546875q2.171875 0 3.421875 1.625q1.25 1.625 1.25 4.515625l0 0.1875zm-2.046875 -0.21875q0 -2.03125 -0.859375 -3.203125q-0.859375 -1.171875 -2.359375 -1.171875q-1.859375 0 -2.796875 1.640625l0 5.71875q0.921875 1.640625 2.8125 1.640625q1.46875 0 2.328125 -1.15625q0.875 -1.171875 0.875 -3.46875zm6.867218 6.078125l-2.046875 0l0 -17.0l2.046875 0l0 17.0zm10.669983 0q-0.171875 -0.359375 -0.28125 -1.265625q-1.4375 1.484375 -3.40625 1.484375q-1.78125 0 -2.921875 -1.0q-1.125 -1.0 -1.125 -2.53125q0 -1.875 1.421875 -2.90625q1.421875 -1.03125 4.0 -1.03125l2.0 0l0 -0.953125q0 -1.0625 -0.65625 -1.703125q-0.640625 -0.640625 -1.890625 -0.640625q-1.09375 0 -1.84375 0.5625q-0.734375 0.546875 -0.734375 1.328125l-2.046875 0q0 -0.890625 0.625 -1.71875q0.640625 -0.84375 1.734375 -1.328125q1.09375 -0.484375 2.390625 -0.484375q2.078125 0 3.25 1.03125q1.171875 1.03125 1.21875 2.84375l0 5.515625q0 1.640625 0.40625 2.625l0 0.171875l-2.140625 0zm-3.390625 -1.5625q0.953125 0 1.8125 -0.5q0.875 -0.5 1.265625 -1.296875l0 -2.453125l-1.609375 0q-3.765625 0 -3.765625 2.203125q0 0.96875 0.640625 1.515625q0.640625 0.53125 1.65625 0.53125zm12.07962 -1.4375l2.78125 -8.96875l2.1875 0l-4.8125 13.8125q-1.109375 2.984375 -3.546875 2.984375l-0.390625 -0.03125l-0.765625 -0.140625l0 -1.65625l0.5625 0.046875q1.03125 0 1.609375 -0.421875q0.59375 -0.421875 0.96875 -1.546875l0.453125 -1.203125l-4.265625 -11.84375l2.234375 0l2.984375 8.96875zm11.622681 3.21875q-2.4375 0 -3.96875 -1.59375q-1.515625 -1.59375 -1.515625 -4.28125l0 -0.375q0 -1.78125 0.671875 -3.171875q0.6875 -1.40625 1.90625 -2.1875q1.21875 -0.796875 2.65625 -0.796875q2.328125 0 3.625 1.546875q1.296875 1.53125 1.296875 4.390625l0 0.84375l-8.109375 0q0.046875 1.78125 1.03125 2.875q0.984375 1.078125 2.515625 1.078125q1.078125 0 1.828125 -0.4375q0.765625 -0.4375 1.328125 -1.171875l1.25 0.96875q-1.5 2.3125 -4.515625 2.3125zm-0.25 -10.734375q-1.25 0 -2.09375 0.90625q-0.828125 0.90625 -1.03125 2.53125l6.0 0l0 -0.15625q-0.09375 -1.5625 -0.84375 -2.421875q-0.75 -0.859375 -2.03125 -0.859375zm13.06543 0.375q-0.453125 -0.0625 -1.0 -0.0625q-2.015625 0 -2.734375 1.703125l0 8.5l-2.046875 0l0 -11.96875l2.0 0l0.03125 1.375q1.0 -1.59375 2.84375 -1.59375q0.609375 0 0.90625 0.15625l0 1.890625z" fill-rule="nonzero"/><path fill="#000000" d="m345.81693 372.98834l-4.453125 0l5.5 -7.84375l-5.5 -7.8125l4.453125 0l5.515625 7.8125l-5.515625 7.84375z" fill-rule="nonzero"/><path fill="#000000" d="m364.05145 371.53522q1.09375 0 1.90625 -0.65625q0.828125 -0.671875 0.921875 -1.65625l1.9375 0q-0.0625 1.015625 -0.71875 1.953125q-0.640625 0.921875 -1.734375 1.484375q-1.09375 0.546875 -2.3125 0.546875q-2.4375 0 -3.890625 -1.625q-1.4375 -1.640625 -1.4375 -4.46875l0 -0.34375q0 -1.75 0.640625 -3.109375q0.640625 -1.359375 1.84375 -2.109375q1.203125 -0.75 2.84375 -0.75q2.015625 0 3.34375 1.203125q1.328125 1.203125 1.421875 3.125l-1.9375 0q-0.09375 -1.15625 -0.890625 -1.90625q-0.78125 -0.75 -1.9375 -0.75q-1.5625 0 -2.421875 1.125q-0.859375 1.125 -0.859375 3.25l0 0.390625q0 2.0625 0.84375 3.1875q0.859375 1.109375 2.4375 1.109375zm9.109131 -9.0625q1.359375 -1.671875 3.546875 -1.671875q3.796875 0 3.828125 4.28125l0 7.90625l-2.046875 0l0 -7.921875q-0.015625 -1.296875 -0.59375 -1.90625q-0.578125 -0.625 -1.8125 -0.625q-1.0 0 -1.75 0.53125q-0.75 0.53125 -1.171875 1.390625l0 8.53125l-2.046875 0l0 -17.0l2.046875 0l0 6.484375zm17.822388 10.515625q-0.171875 -0.359375 -0.28125 -1.265625q-1.4375 1.484375 -3.40625 1.484375q-1.78125 0 -2.921875 -1.0q-1.125 -1.0 -1.125 -2.53125q0 -1.875 1.421875 -2.90625q1.421875 -1.03125 4.0 -1.03125l2.0 0l0 -0.953125q0 -1.0625 -0.65625 -1.703125q-0.640625 -0.640625 -1.890625 -0.640625q-1.09375 0 -1.84375 0.5625q-0.734375 0.546875 -0.734375 1.328125l-2.046875 0q0 -0.890625 0.625 -1.71875q0.640625 -0.84375 1.734375 -1.328125q1.09375 -0.484375 2.390625 -0.484375q2.078125 0 3.25 1.03125q1.171875 1.03125 1.21875 2.84375l0 5.515625q0 1.640625 0.40625 2.625l0 0.171875l-2.140625 0zm-3.390625 -1.5625q0.953125 0 1.8125 -0.5q0.875 -0.5 1.265625 -1.296875l0 -2.453125l-1.609375 0q-3.765625 0 -3.765625 2.203125q0 0.96875 0.640625 1.515625q0.640625 0.53125 1.65625 0.53125zm11.105011 -13.3125l0 2.90625l2.234375 0l0 1.578125l-2.234375 0l0 7.421875q0 0.71875 0.296875 1.078125q0.296875 0.359375 1.015625 0.359375q0.359375 0 0.96875 -0.125l0 1.65625q-0.796875 0.21875 -1.5625 0.21875q-1.375 0 -2.078125 -0.828125q-0.6875 -0.828125 -0.6875 -2.359375l0 -7.421875l-2.1875 0l0 -1.578125l2.1875 0l0 -2.90625l2.046875 0z" fill-rule="nonzero"/><path fill="#000000" d="m348.62943 399.98834l-2.0625 0l0 -13.640625l-4.125 1.515625l0 -1.859375l5.875 -2.203125l0.3125 0l0 16.1875zm10.472015 -6.0l-5.40625 0l0 -1.671875l5.40625 0l0 1.671875zm9.625397 -1.078125q-0.640625 0.765625 -1.53125 1.234375q-0.890625 0.453125 -1.953125 0.453125q-1.40625 0 -2.4375 -0.6875q-1.03125 -0.6875 -1.59375 -1.921875q-0.5625 -1.25 -0.5625 -2.75q0 -1.625 0.609375 -2.90625q0.609375 -1.296875 1.734375 -1.984375q1.140625 -0.6875 2.640625 -0.6875q2.390625 0 3.765625 1.796875q1.375 1.78125 1.375 4.859375l0 0.59375q0 4.703125 -1.859375 6.875q-1.859375 2.15625 -5.609375 2.21875l-0.390625 0l0 -1.734375l0.4375 0q2.53125 -0.046875 3.890625 -1.3125q1.359375 -1.28125 1.484375 -4.046875zm-3.15625 0q1.03125 0 1.890625 -0.625q0.875 -0.640625 1.265625 -1.5625l0 -0.828125q0 -2.015625 -0.875 -3.265625q-0.875 -1.265625 -2.203125 -1.265625q-1.359375 0 -2.171875 1.03125q-0.8125 1.03125 -0.8125 2.734375q0 1.640625 0.78125 2.71875q0.796875 1.0625 2.125 1.0625zm17.190125 1.53125l-1.28125 1.34375l0 4.203125l-2.046875 0l0 -17.0l2.046875 0l0 10.28125l1.09375 -1.3125l3.734375 -3.9375l2.484375 0l-4.65625 5.0l5.1875 6.96875l-2.390625 0l-4.171875 -5.546875zm12.886658 5.765625q-2.4375 0 -3.96875 -1.59375q-1.515625 -1.59375 -1.515625 -4.28125l0 -0.375q0 -1.78125 0.671875 -3.171875q0.6875 -1.40625 1.90625 -2.1875q1.21875 -0.796875 2.65625 -0.796875q2.328125 0 3.625 1.546875q1.296875 1.53125 1.296875 4.390625l0 0.84375l-8.109375 0q0.046875 1.78125 1.03125 2.875q0.984375 1.078125 2.515625 1.078125q1.078125 0 1.828125 -0.4375q0.765625 -0.4375 1.328125 -1.171875l1.25 0.96875q-1.5 2.3125 -4.515625 2.3125zm-0.25 -10.734375q-1.25 0 -2.09375 0.90625q-0.828125 0.90625 -1.03125 2.53125l6.0 0l0 -0.15625q-0.09375 -1.5625 -0.84375 -2.421875q-0.75 -0.859375 -2.03125 -0.859375zm11.062195 7.515625l2.78125 -8.96875l2.1875 0l-4.8125 13.8125q-1.109375 2.984375 -3.546875 2.984375l-0.390625 -0.03125l-0.765625 -0.140625l0 -1.65625l0.5625 0.046875q1.03125 0 1.609375 -0.421875q0.59375 -0.421875 0.96875 -1.546875l0.453125 -1.203125l-4.265625 -11.84375l2.234375 0l2.984375 8.96875zm13.766541 -0.171875q0 -0.828125 -0.625 -1.28125q-0.625 -0.46875 -2.1875 -0.796875q-1.546875 -0.34375 -2.46875 -0.796875q-0.90625 -0.46875 -1.34375 -1.109375q-0.4375 -0.640625 -0.4375 -1.53125q0 -1.46875 1.25 -2.484375q1.25 -1.015625 3.1875 -1.015625q2.03125 0 3.296875 1.046875q1.265625 1.046875 1.265625 2.6875l-2.0625 0q0 -0.84375 -0.71875 -1.453125q-0.703125 -0.609375 -1.78125 -0.609375q-1.125 0 -1.765625 0.5q-0.625 0.484375 -0.625 1.265625q0 0.734375 0.578125 1.125q0.59375 0.375 2.125 0.71875q1.546875 0.328125 2.484375 0.8125q0.953125 0.46875 1.40625 1.140625q0.46875 0.671875 0.46875 1.640625q0 1.59375 -1.28125 2.5625q-1.28125 0.96875 -3.328125 0.96875q-1.4375 0 -2.546875 -0.5q-1.109375 -0.515625 -1.734375 -1.421875q-0.625 -0.921875 -0.625 -1.984375l2.046875 0q0.0625 1.03125 0.828125 1.640625q0.765625 0.59375 2.03125 0.59375q1.15625 0 1.859375 -0.46875q0.703125 -0.46875 0.703125 -1.25zm5.119629 4.5625l-1.75 0l6.71875 -17.5l1.75 0l-6.71875 17.5zm10.852478 -13.359375l0.0625 1.328125q1.3125 -1.546875 3.546875 -1.546875q2.515625 0 3.421875 1.921875q0.59375 -0.859375 1.546875 -1.390625q0.96875 -0.53125 2.265625 -0.53125q3.9375 0 4.0 4.171875l0 8.015625l-2.046875 0l0 -7.90625q0 -1.28125 -0.59375 -1.90625q-0.578125 -0.640625 -1.953125 -0.640625q-1.140625 0 -1.890625 0.6875q-0.75 0.671875 -0.875 1.828125l0 7.9375l-2.0625 0l0 -7.84375q0 -2.609375 -2.546875 -2.609375q-2.015625 0 -2.765625 1.71875l0 8.734375l-2.046875 0l0 -11.96875l1.9375 0zm17.388672 5.875q0 -1.765625 0.6875 -3.171875q0.703125 -1.40625 1.9375 -2.15625q1.234375 -0.765625 2.8125 -0.765625q2.453125 0 3.953125 1.6875q1.515625 1.6875 1.515625 4.5l0 0.140625q0 1.75 -0.671875 3.140625q-0.671875 1.390625 -1.921875 2.171875q-1.234375 0.765625 -2.859375 0.765625q-2.421875 0 -3.9375 -1.6875q-1.515625 -1.6875 -1.515625 -4.484375l0 -0.140625zm2.0625 0.234375q0 2.0 0.921875 3.203125q0.921875 1.203125 2.46875 1.203125q1.5625 0 2.484375 -1.21875q0.921875 -1.21875 0.921875 -3.421875q0 -1.96875 -0.9375 -3.1875q-0.9375 -1.234375 -2.484375 -1.234375q-1.515625 0 -2.453125 1.21875q-0.921875 1.203125 -0.921875 3.4375zm21.546143 0q0 2.75 -1.265625 4.421875q-1.265625 1.65625 -3.390625 1.65625q-2.265625 0 -3.5 -1.609375l-0.109375 1.390625l-1.875 0l0 -17.0l2.046875 0l0 6.34375q1.234375 -1.53125 3.40625 -1.53125q2.1875 0 3.4375 1.65625q1.25 1.640625 1.25 4.5l0 0.171875zm-2.046875 -0.21875q0 -2.09375 -0.8125 -3.234375q-0.8125 -1.140625 -2.328125 -1.140625q-2.015625 0 -2.90625 1.875l0 5.1875q0.9375 1.875 2.9375 1.875q1.46875 0 2.28125 -1.140625q0.828125 -1.140625 0.828125 -3.421875zm6.8359375 6.078125l-2.046875 0l0 -11.96875l2.046875 0l0 11.96875zm-2.203125 -15.140625q0 -0.5 0.296875 -0.84375q0.3125 -0.34375 0.90625 -0.34375q0.59375 0 0.90625 0.34375q0.3125 0.34375 0.3125 0.84375q0 0.5 -0.3125 0.828125q-0.3125 0.328125 -0.90625 0.328125q-0.59375 0 -0.90625 -0.328125q-0.296875 -0.328125 -0.296875 -0.828125zm7.7012634 15.140625l-2.046875 0l0 -17.0l2.046875 0l0 17.0zm8.248108 0.21875q-2.4375 0 -3.96875 -1.59375q-1.515625 -1.59375 -1.515625 -4.28125l0 -0.375q0 -1.78125 0.671875 -3.171875q0.6875 -1.40625 1.90625 -2.1875q1.21875 -0.796875 2.65625 -0.796875q2.328125 0 3.625 1.546875q1.296875 1.53125 1.296875 4.390625l0 0.84375l-8.109375 0q0.046875 1.78125 1.03125 2.875q0.984375 1.078125 2.515625 1.078125q1.078125 0 1.828125 -0.4375q0.765625 -0.4375 1.328125 -1.171875l1.25 0.96875q-1.5 2.3125 -4.515625 2.3125zm-0.25 -10.734375q-1.25 0 -2.09375 0.90625q-0.828125 0.90625 -1.03125 2.53125l6.0 0l0 -0.15625q-0.09375 -1.5625 -0.84375 -2.421875q-0.75 -0.859375 -2.03125 -0.859375zm15.674194 -4.359375l0 2.90625l2.234375 0l0 1.578125l-2.234375 0l0 7.421875q0 0.71875 0.296875 1.078125q0.296875 0.359375 1.015625 0.359375q0.359375 0 0.96875 -0.125l0 1.65625q-0.796875 0.21875 -1.5625 0.21875q-1.375 0 -2.078125 -0.828125q-0.6875 -0.828125 -0.6875 -2.359375l0 -7.421875l-2.1875 0l0 -1.578125l2.1875 0l0 -2.90625l2.046875 0zm8.541504 11.875l2.78125 -8.96875l2.1875 0l-4.8125 13.8125q-1.109375 2.984375 -3.546875 2.984375l-0.390625 -0.03125l-0.765625 -0.140625l0 -1.65625l0.5625 0.046875q1.03125 0 1.609375 -0.421875q0.59375 -0.421875 0.96875 -1.546875l0.453125 -1.203125l-4.265625 -11.84375l2.234375 0l2.984375 8.96875zm16.907227 -2.859375q0 2.734375 -1.25 4.40625q-1.25 1.671875 -3.375 1.671875q-2.1875 0 -3.4375 -1.375l0 5.765625l-2.046875 0l0 -16.578125l1.875 0l0.09375 1.328125q1.25 -1.546875 3.46875 -1.546875q2.171875 0 3.421875 1.625q1.25 1.625 1.25 4.515625l0 0.1875zm-2.046875 -0.21875q0 -2.03125 -0.859375 -3.203125q-0.859375 -1.171875 -2.359375 -1.171875q-1.859375 0 -2.796875 1.640625l0 5.71875q0.921875 1.640625 2.8125 1.640625q1.46875 0 2.328125 -1.15625q0.875 -1.171875 0.875 -3.46875zm9.6171875 6.296875q-2.4375 0 -3.96875 -1.59375q-1.515625 -1.59375 -1.515625 -4.28125l0 -0.375q0 -1.78125 0.671875 -3.171875q0.6875 -1.40625 1.90625 -2.1875q1.21875 -0.796875 2.65625 -0.796875q2.328125 0 3.625 1.546875q1.296875 1.53125 1.296875 4.390625l0 0.84375l-8.109375 0q0.046875 1.78125 1.03125 2.875q0.984375 1.078125 2.515625 1.078125q1.078125 0 1.828125 -0.4375q0.765625 -0.4375 1.328125 -1.171875l1.25 0.96875q-1.5 2.3125 -4.515625 2.3125zm-0.25 -10.734375q-1.25 0 -2.09375 0.90625q-0.828125 0.90625 -1.03125 2.53125l6.0 0l0 -0.15625q-0.09375 -1.5625 -0.84375 -2.421875q-0.75 -0.859375 -2.03125 -0.859375z" fill-rule="nonzero"/><path fill="#000000" d="m345.81693 426.98834l-4.453125 0l5.5 -7.84375l-5.5 -7.8125l4.453125 0l5.515625 7.8125l-5.515625 7.84375z" fill-rule="nonzero"/><path fill="#000000" d="m364.05145 425.53522q1.09375 0 1.90625 -0.65625q0.828125 -0.671875 0.921875 -1.65625l1.9375 0q-0.0625 1.015625 -0.71875 1.953125q-0.640625 0.921875 -1.734375 1.484375q-1.09375 0.546875 -2.3125 0.546875q-2.4375 0 -3.890625 -1.625q-1.4375 -1.640625 -1.4375 -4.46875l0 -0.34375q0 -1.75 0.640625 -3.109375q0.640625 -1.359375 1.84375 -2.109375q1.203125 -0.75 2.84375 -0.75q2.015625 0 3.34375 1.203125q1.328125 1.203125 1.421875 3.125l-1.9375 0q-0.09375 -1.15625 -0.890625 -1.90625q-0.78125 -0.75 -1.9375 -0.75q-1.5625 0 -2.421875 1.125q-0.859375 1.125 -0.859375 3.25l0 0.390625q0 2.0625 0.84375 3.1875q0.859375 1.109375 2.4375 1.109375zm14.452881 1.453125q-0.171875 -0.359375 -0.28125 -1.265625q-1.4375 1.484375 -3.40625 1.484375q-1.78125 0 -2.921875 -1.0q-1.125 -1.0 -1.125 -2.53125q0 -1.875 1.421875 -2.90625q1.421875 -1.03125 4.0 -1.03125l2.0 0l0 -0.953125q0 -1.0625 -0.65625 -1.703125q-0.640625 -0.640625 -1.890625 -0.640625q-1.09375 0 -1.84375 0.5625q-0.734375 0.546875 -0.734375 1.328125l-2.046875 0q0 -0.890625 0.625 -1.71875q0.640625 -0.84375 1.734375 -1.328125q1.09375 -0.484375 2.390625 -0.484375q2.078125 0 3.25 1.03125q1.171875 1.03125 1.21875 2.84375l0 5.515625q0 1.640625 0.40625 2.625l0 0.171875l-2.140625 0zm-3.390625 -1.5625q0.953125 0 1.8125 -0.5q0.875 -0.5 1.265625 -1.296875l0 -2.453125l-1.609375 0q-3.765625 0 -3.765625 2.203125q0 0.96875 0.640625 1.515625q0.640625 0.53125 1.65625 0.53125zm10.261261 -10.40625l0.0625 1.5q1.375 -1.71875 3.59375 -1.71875q3.796875 0 3.828125 4.28125l0 7.90625l-2.046875 0l0 -7.921875q-0.015625 -1.296875 -0.59375 -1.90625q-0.578125 -0.625 -1.8125 -0.625q-1.0 0 -1.75 0.53125q-0.75 0.53125 -1.171875 1.390625l0 8.53125l-2.046875 0l0 -11.96875l1.9375 0zm15.360138 10.515625q1.09375 0 1.90625 -0.65625q0.828125 -0.671875 0.921875 -1.65625l1.9375 0q-0.0625 1.015625 -0.71875 1.953125q-0.640625 0.921875 -1.734375 1.484375q-1.09375 0.546875 -2.3125 0.546875q-2.4375 0 -3.890625 -1.625q-1.4375 -1.640625 -1.4375 -4.46875l0 -0.34375q0 -1.75 0.640625 -3.109375q0.640625 -1.359375 1.84375 -2.109375q1.203125 -0.75 2.84375 -0.75q2.015625 0 3.34375 1.203125q1.328125 1.203125 1.421875 3.125l-1.9375 0q-0.09375 -1.15625 -0.890625 -1.90625q-0.78125 -0.75 -1.9375 -0.75q-1.5625 0 -2.421875 1.125q-0.859375 1.125 -0.859375 3.25l0 0.390625q0 2.0625 0.84375 3.1875q0.859375 1.109375 2.4375 1.109375zm12.031006 1.671875q-2.4375 0 -3.96875 -1.59375q-1.515625 -1.59375 -1.515625 -4.28125l0 -0.375q0 -1.78125 0.671875 -3.171875q0.6875 -1.40625 1.90625 -2.1875q1.21875 -0.796875 2.65625 -0.796875q2.328125 0 3.625 1.546875q1.296875 1.53125 1.296875 4.390625l0 0.84375l-8.109375 0q0.046875 1.78125 1.03125 2.875q0.984375 1.078125 2.515625 1.078125q1.078125 0 1.828125 -0.4375q0.765625 -0.4375 1.328125 -1.171875l1.25 0.96875q-1.5 2.3125 -4.515625 2.3125zm-0.25 -10.734375q-1.25 0 -2.09375 0.90625q-0.828125 0.90625 -1.03125 2.53125l6.0 0l0 -0.15625q-0.09375 -1.5625 -0.84375 -2.421875q-0.75 -0.859375 -2.03125 -0.859375zm9.50293 10.515625l-2.046875 0l0 -17.0l2.046875 0l0 17.0zm13.684998 -1.453125q1.09375 0 1.90625 -0.65625q0.828125 -0.671875 0.921875 -1.65625l1.9375 0q-0.0625 1.015625 -0.71875 1.953125q-0.640625 0.921875 -1.734375 1.484375q-1.09375 0.546875 -2.3125 0.546875q-2.4375 0 -3.890625 -1.625q-1.4375 -1.640625 -1.4375 -4.46875l0 -0.34375q0 -1.75 0.640625 -3.109375q0.640625 -1.359375 1.84375 -2.109375q1.203125 -0.75 2.84375 -0.75q2.015625 0 3.34375 1.203125q1.328125 1.203125 1.421875 3.125l-1.9375 0q-0.09375 -1.15625 -0.890625 -1.90625q-0.78125 -0.75 -1.9375 -0.75q-1.5625 0 -2.421875 1.125q-0.859375 1.125 -0.859375 3.25l0 0.390625q0 2.0625 0.84375 3.1875q0.859375 1.109375 2.4375 1.109375zm9.109131 -9.0625q1.359375 -1.671875 3.546875 -1.671875q3.796875 0 3.828125 4.28125l0 7.90625l-2.046875 0l0 -7.921875q-0.015625 -1.296875 -0.59375 -1.90625q-0.578125 -0.625 -1.8125 -0.625q-1.0 0 -1.75 0.53125q-0.75 0.53125 -1.171875 1.390625l0 8.53125l-2.046875 0l0 -17.0l2.046875 0l0 6.484375zm17.822388 10.515625q-0.171875 -0.359375 -0.28125 -1.265625q-1.4375 1.484375 -3.40625 1.484375q-1.78125 0 -2.921875 -1.0q-1.125 -1.0 -1.125 -2.53125q0 -1.875 1.421875 -2.90625q1.421875 -1.03125 4.0 -1.03125l2.0 0l0 -0.953125q0 -1.0625 -0.65625 -1.703125q-0.640625 -0.640625 -1.890625 -0.640625q-1.09375 0 -1.84375 0.5625q-0.734375 0.546875 -0.734375 1.328125l-2.046875 0q0 -0.890625 0.625 -1.71875q0.640625 -0.84375 1.734375 -1.328125q1.09375 -0.484375 2.390625 -0.484375q2.078125 0 3.25 1.03125q1.171875 1.03125 1.21875 2.84375l0 5.515625q0 1.640625 0.40625 2.625l0 0.171875l-2.140625 0zm-3.390625 -1.5625q0.953125 0 1.8125 -0.5q0.875 -0.5 1.265625 -1.296875l0 -2.453125l-1.609375 0q-3.765625 0 -3.765625 2.203125q0 0.96875 0.640625 1.515625q0.640625 0.53125 1.65625 0.53125zm11.105011 -13.3125l0 2.90625l2.234375 0l0 1.578125l-2.234375 0l0 7.421875q0 0.71875 0.296875 1.078125q0.296875 0.359375 1.015625 0.359375q0.359375 0 0.96875 -0.125l0 1.65625q-0.796875 0.21875 -1.5625 0.21875q-1.375 0 -2.078125 -0.828125q-0.6875 -0.828125 -0.6875 -2.359375l0 -7.421875l-2.1875 0l0 -1.578125l2.1875 0l0 -2.90625l2.046875 0z" fill-rule="nonzero"/><path fill="#000000" d="m353.56693 439.62897l-5.171875 0l0 14.359375l-2.125 0l0 -14.359375l-5.15625 0l0 -1.75l12.453125 0l0 1.75zm3.7633362 8.359375l-5.40625 0l0 -1.671875l5.40625 0l0 1.671875zm5.328491 0.453125l-1.28125 1.34375l0 4.203125l-2.046875 0l0 -17.0l2.046875 0l0 10.28125l1.09375 -1.3125l3.734375 -3.9375l2.484375 0l-4.65625 5.0l5.1875 6.96875l-2.390625 0l-4.171875 -5.546875zm12.886658 5.765625q-2.4375 0 -3.96875 -1.59375q-1.515625 -1.59375 -1.515625 -4.28125l0 -0.375q0 -1.78125 0.671875 -3.171875q0.6875 -1.40625 1.90625 -2.1875q1.21875 -0.796875 2.65625 -0.796875q2.328125 0 3.625 1.546875q1.296875 1.53125 1.296875 4.390625l0 0.84375l-8.109375 0q0.046875 1.78125 1.03125 2.875q0.984375 1.078125 2.515625 1.078125q1.078125 0 1.828125 -0.4375q0.765625 -0.4375 1.328125 -1.171875l1.25 0.96875q-1.5 2.3125 -4.515625 2.3125zm-0.25 -10.734375q-1.25 0 -2.09375 0.90625q-0.828125 0.90625 -1.03125 2.53125l6.0 0l0 -0.15625q-0.09375 -1.5625 -0.84375 -2.421875q-0.75 -0.859375 -2.03125 -0.859375zm11.062195 7.515625l2.78125 -8.96875l2.1875 0l-4.8125 13.8125q-1.109375 2.984375 -3.546875 2.984375l-0.390625 -0.03125l-0.765625 -0.140625l0 -1.65625l0.5625 0.046875q1.03125 0 1.609375 -0.421875q0.59375 -0.421875 0.96875 -1.546875l0.453125 -1.203125l-4.265625 -11.84375l2.234375 0l2.984375 8.96875zm7.2040405 4.390625l-1.75 0l6.71875 -17.5l1.75 0l-6.71875 17.5zm11.711853 -16.265625l0 2.90625l2.234375 0l0 1.578125l-2.234375 0l0 7.421875q0 0.71875 0.296875 1.078125q0.296875 0.359375 1.015625 0.359375q0.359375 0 0.96875 -0.125l0 1.65625q-0.796875 0.21875 -1.5625 0.21875q-1.375 0 -2.078125 -0.828125q-0.6875 -0.828125 -0.6875 -2.359375l0 -7.421875l-2.1875 0l0 -1.578125l2.1875 0l0 -2.90625l2.046875 0zm12.010284 14.875q-0.171875 -0.359375 -0.28125 -1.265625q-1.4375 1.484375 -3.40625 1.484375q-1.78125 0 -2.921875 -1.0q-1.125 -1.0 -1.125 -2.53125q0 -1.875 1.421875 -2.90625q1.421875 -1.03125 4.0 -1.03125l2.0 0l0 -0.953125q0 -1.0625 -0.65625 -1.703125q-0.640625 -0.640625 -1.890625 -0.640625q-1.09375 0 -1.84375 0.5625q-0.734375 0.546875 -0.734375 1.328125l-2.046875 0q0 -0.890625 0.625 -1.71875q0.640625 -0.84375 1.734375 -1.328125q1.09375 -0.484375 2.390625 -0.484375q2.078125 0 3.25 1.03125q1.171875 1.03125 1.21875 2.84375l0 5.515625q0 1.640625 0.40625 2.625l0 0.171875l-2.140625 0zm-3.390625 -1.5625q0.953125 0 1.8125 -0.5q0.875 -0.5 1.265625 -1.296875l0 -2.453125l-1.609375 0q-3.765625 0 -3.765625 2.203125q0 0.96875 0.640625 1.515625q0.640625 0.53125 1.65625 0.53125zm18.433136 -4.296875q0 2.734375 -1.25 4.40625q-1.25 1.671875 -3.375 1.671875q-2.1875 0 -3.4375 -1.375l0 5.765625l-2.046875 0l0 -16.578125l1.875 0l0.09375 1.328125q1.25 -1.546875 3.46875 -1.546875q2.171875 0 3.421875 1.625q1.25 1.625 1.25 4.515625l0 0.1875zm-2.046875 -0.21875q0 -2.03125 -0.859375 -3.203125q-0.859375 -1.171875 -2.359375 -1.171875q-1.859375 0 -2.796875 1.640625l0 5.71875q0.921875 1.640625 2.8125 1.640625q1.46875 0 2.328125 -1.15625q0.875 -1.171875 0.875 -3.46875zm17.647827 6.078125q-0.171875 -0.359375 -0.28125 -1.265625q-1.4375 1.484375 -3.40625 1.484375q-1.78125 0 -2.921875 -1.0q-1.125 -1.0 -1.125 -2.53125q0 -1.875 1.421875 -2.90625q1.421875 -1.03125 4.0 -1.03125l2.0 0l0 -0.953125q0 -1.0625 -0.65625 -1.703125q-0.640625 -0.640625 -1.890625 -0.640625q-1.09375 0 -1.84375 0.5625q-0.734375 0.546875 -0.734375 1.328125l-2.046875 0q0 -0.890625 0.625 -1.71875q0.640625 -0.84375 1.734375 -1.328125q1.09375 -0.484375 2.390625 -0.484375q2.078125 0 3.25 1.03125q1.171875 1.03125 1.21875 2.84375l0 5.515625q0 1.640625 0.40625 2.625l0 0.171875l-2.140625 0zm-3.390625 -1.5625q0.953125 0 1.8125 -0.5q0.875 -0.5 1.265625 -1.296875l0 -2.453125l-1.609375 0q-3.765625 0 -3.765625 2.203125q0 0.96875 0.640625 1.515625q0.640625 0.53125 1.65625 0.53125zm10.261261 -10.40625l0.0625 1.5q1.375 -1.71875 3.59375 -1.71875q3.796875 0 3.828125 4.28125l0 7.90625l-2.046875 0l0 -7.921875q-0.015625 -1.296875 -0.59375 -1.90625q-0.578125 -0.625 -1.8125 -0.625q-1.0 0 -1.75 0.53125q-0.75 0.53125 -1.171875 1.390625l0 8.53125l-2.046875 0l0 -11.96875l1.9375 0zm14.485138 8.96875l2.78125 -8.96875l2.1875 0l-4.8125 13.8125q-1.109375 2.984375 -3.546875 2.984375l-0.390625 -0.03125l-0.765625 -0.140625l0 -1.65625l0.5625 0.046875q1.03125 0 1.609375 -0.421875q0.59375 -0.421875 0.96875 -1.546875l0.453125 -1.203125l-4.265625 -11.84375l2.234375 0l2.984375 8.96875zm17.39154 0.171875l2.3125 -9.140625l2.046875 0l-3.484375 11.96875l-1.671875 0l-2.90625 -9.078125l-2.828125 9.078125l-1.65625 0l-3.484375 -11.96875l2.046875 0l2.359375 8.953125l2.78125 -8.953125l1.640625 0l2.84375 9.140625zm8.478516 -7.6875q1.359375 -1.671875 3.546875 -1.671875q3.796875 0 3.828125 4.28125l0 7.90625l-2.046875 0l0 -7.921875q-0.015625 -1.296875 -0.59375 -1.90625q-0.578125 -0.625 -1.8125 -0.625q-1.0 0 -1.75 0.53125q-0.75 0.53125 -1.171875 1.390625l0 8.53125l-2.046875 0l0 -17.0l2.046875 0l0 6.484375zm15.400513 10.734375q-2.4375 0 -3.96875 -1.59375q-1.515625 -1.59375 -1.515625 -4.28125l0 -0.375q0 -1.78125 0.671875 -3.171875q0.6875 -1.40625 1.90625 -2.1875q1.21875 -0.796875 2.65625 -0.796875q2.328125 0 3.625 1.546875q1.296875 1.53125 1.296875 4.390625l0 0.84375l-8.109375 0q0.046875 1.78125 1.03125 2.875q0.984375 1.078125 2.515625 1.078125q1.078125 0 1.828125 -0.4375q0.765625 -0.4375 1.328125 -1.171875l1.25 0.96875q-1.5 2.3125 -4.515625 2.3125zm-0.25 -10.734375q-1.25 0 -2.09375 0.90625q-0.828125 0.90625 -1.03125 2.53125l6.0 0l0 -0.15625q-0.09375 -1.5625 -0.84375 -2.421875q-0.75 -0.859375 -2.03125 -0.859375zm13.06543 0.375q-0.453125 -0.0625 -1.0 -0.0625q-2.015625 0 -2.734375 1.703125l0 8.5l-2.046875 0l0 -11.96875l2.0 0l0.03125 1.375q1.0 -1.59375 2.84375 -1.59375q0.609375 0 0.90625 0.15625l0 1.890625zm6.6436157 10.359375q-2.4375 0 -3.96875 -1.59375q-1.515625 -1.59375 -1.515625 -4.28125l0 -0.375q0 -1.78125 0.671875 -3.171875q0.6875 -1.40625 1.90625 -2.1875q1.21875 -0.796875 2.65625 -0.796875q2.328125 0 3.625 1.546875q1.296875 1.53125 1.296875 4.390625l0 0.84375l-8.109375 0q0.046875 1.78125 1.03125 2.875q0.984375 1.078125 2.515625 1.078125q1.078125 0 1.828125 -0.4375q0.765625 -0.4375 1.328125 -1.171875l1.25 0.96875q-1.5 2.3125 -4.515625 2.3125zm-0.25 -10.734375q-1.25 0 -2.09375 0.90625q-0.828125 0.90625 -1.03125 2.53125l6.0 0l0 -0.15625q-0.09375 -1.5625 -0.84375 -2.421875q-0.75 -0.859375 -2.03125 -0.859375z" fill-rule="nonzero"/><path fill="#000000" d="m345.81693 480.98834l-4.453125 0l5.5 -7.84375l-5.5 -7.8125l4.453125 0l5.515625 7.8125l-5.515625 7.84375z" fill-rule="nonzero"/><path fill="#000000" d="m361.17645 469.0196l0.0625 1.328125q1.3125 -1.546875 3.546875 -1.546875q2.515625 0 3.421875 1.921875q0.59375 -0.859375 1.546875 -1.390625q0.96875 -0.53125 2.265625 -0.53125q3.9375 0 4.0 4.171875l0 8.015625l-2.046875 0l0 -7.90625q0 -1.28125 -0.59375 -1.90625q-0.578125 -0.640625 -1.953125 -0.640625q-1.140625 0 -1.890625 0.6875q-0.75 0.671875 -0.875 1.828125l0 7.9375l-2.0625 0l0 -7.84375q0 -2.609375 -2.546875 -2.609375q-2.015625 0 -2.765625 1.71875l0 8.734375l-2.046875 0l0 -11.96875l1.9375 0zm25.326141 10.78125q-1.1875 1.40625 -3.5 1.40625q-1.921875 0 -2.921875 -1.109375q-1.0 -1.109375 -1.015625 -3.296875l0 -7.78125l2.046875 0l0 7.734375q0 2.71875 2.21875 2.71875q2.34375 0 3.125 -1.75l0 -8.703125l2.046875 0l0 11.96875l-1.953125 0l-0.046875 -1.1875zm7.8803406 -13.6875l0 2.90625l2.234375 0l0 1.578125l-2.234375 0l0 7.421875q0 0.71875 0.296875 1.078125q0.296875 0.359375 1.015625 0.359375q0.359375 0 0.96875 -0.125l0 1.65625q-0.796875 0.21875 -1.5625 0.21875q-1.375 0 -2.078125 -0.828125q-0.6875 -0.828125 -0.6875 -2.359375l0 -7.421875l-2.1875 0l0 -1.578125l2.1875 0l0 -2.90625l2.046875 0zm9.588379 15.09375q-2.4375 0 -3.96875 -1.59375q-1.515625 -1.59375 -1.515625 -4.28125l0 -0.375q0 -1.78125 0.671875 -3.171875q0.6875 -1.40625 1.90625 -2.1875q1.21875 -0.796875 2.65625 -0.796875q2.328125 0 3.625 1.546875q1.296875 1.53125 1.296875 4.390625l0 0.84375l-8.109375 0q0.046875 1.78125 1.03125 2.875q0.984375 1.078125 2.515625 1.078125q1.078125 0 1.828125 -0.4375q0.765625 -0.4375 1.328125 -1.171875l1.25 0.96875q-1.5 2.3125 -4.515625 2.3125zm-0.25 -10.734375q-1.25 0 -2.09375 0.90625q-0.828125 0.90625 -1.03125 2.53125l6.0 0l0 -0.15625q-0.09375 -1.5625 -0.84375 -2.421875q-0.75 -0.859375 -2.03125 -0.859375zm12.408569 4.4375q0 -2.8125 1.296875 -4.453125q1.296875 -1.65625 3.421875 -1.65625q2.1875 0 3.421875 1.546875l0.09375 -1.328125l1.875 0l0 11.6875q0 2.3125 -1.375 3.65625q-1.375 1.34375 -3.703125 1.34375q-1.296875 0 -2.53125 -0.5625q-1.234375 -0.546875 -1.890625 -1.515625l1.0625 -1.21875q1.3125 1.625 3.21875 1.625q1.484375 0 2.3125 -0.84375q0.84375 -0.84375 0.84375 -2.375l0 -1.015625q-1.21875 1.40625 -3.34375 1.40625q-2.109375 0 -3.40625 -1.6875q-1.296875 -1.6875 -1.296875 -4.609375zm2.0625 0.21875q0 2.03125 0.828125 3.1875q0.828125 1.15625 2.3125 1.15625q1.9375 0 2.84375 -1.765625l0 -5.453125q-0.9375 -1.71875 -2.8125 -1.71875q-1.5 0 -2.34375 1.171875q-0.828125 1.15625 -0.828125 3.421875zm18.523468 5.859375q-0.171875 -0.359375 -0.28125 -1.265625q-1.4375 1.484375 -3.40625 1.484375q-1.78125 0 -2.921875 -1.0q-1.125 -1.0 -1.125 -2.53125q0 -1.875 1.421875 -2.90625q1.421875 -1.03125 4.0 -1.03125l2.0 0l0 -0.953125q0 -1.0625 -0.65625 -1.703125q-0.640625 -0.640625 -1.890625 -0.640625q-1.09375 0 -1.84375 0.5625q-0.734375 0.546875 -0.734375 1.328125l-2.046875 0q0 -0.890625 0.625 -1.71875q0.640625 -0.84375 1.734375 -1.328125q1.09375 -0.484375 2.390625 -0.484375q2.078125 0 3.25 1.03125q1.171875 1.03125 1.21875 2.84375l0 5.515625q0 1.640625 0.40625 2.625l0 0.171875l-2.140625 0zm-3.390625 -1.5625q0.953125 0 1.8125 -0.5q0.875 -0.5 1.265625 -1.296875l0 -2.453125l-1.609375 0q-3.765625 0 -3.765625 2.203125q0 0.96875 0.640625 1.515625q0.640625 0.53125 1.65625 0.53125zm10.245636 -10.40625l0.0625 1.328125q1.3125 -1.546875 3.546875 -1.546875q2.515625 0 3.421875 1.921875q0.59375 -0.859375 1.546875 -1.390625q0.96875 -0.53125 2.265625 -0.53125q3.9375 0 4.0 4.171875l0 8.015625l-2.046875 0l0 -7.90625q0 -1.28125 -0.59375 -1.90625q-0.578125 -0.640625 -1.953125 -0.640625q-1.140625 0 -1.890625 0.6875q-0.75 0.671875 -0.875 1.828125l0 7.9375l-2.0625 0l0 -7.84375q0 -2.609375 -2.546875 -2.609375q-2.015625 0 -2.765625 1.71875l0 8.734375l-2.046875 0l0 -11.96875l1.9375 0zm22.904266 12.1875q-2.4375 0 -3.96875 -1.59375q-1.515625 -1.59375 -1.515625 -4.28125l0 -0.375q0 -1.78125 0.671875 -3.171875q0.6875 -1.40625 1.90625 -2.1875q1.21875 -0.796875 2.65625 -0.796875q2.328125 0 3.625 1.546875q1.296875 1.53125 1.296875 4.390625l0 0.84375l-8.109375 0q0.046875 1.78125 1.03125 2.875q0.984375 1.078125 2.515625 1.078125q1.078125 0 1.828125 -0.4375q0.765625 -0.4375 1.328125 -1.171875l1.25 0.96875q-1.5 2.3125 -4.515625 2.3125zm-0.25 -10.734375q-1.25 0 -2.09375 0.90625q-0.828125 0.90625 -1.03125 2.53125l6.0 0l0 -0.15625q-0.09375 -1.5625 -0.84375 -2.421875q-0.75 -0.859375 -2.03125 -0.859375zm7.331085 9.4375q0 -0.53125 0.3125 -0.875q0.3125 -0.359375 0.9375 -0.359375q0.640625 0 0.96875 0.359375q0.328125 0.34375 0.328125 0.875q0 0.515625 -0.328125 0.859375q-0.328125 0.34375 -0.96875 0.34375q-0.625 0 -0.9375 -0.34375q-0.3125 -0.34375 -0.3125 -0.859375zm0 -10.0q0 -0.53125 0.3125 -0.875q0.3125 -0.359375 0.9375 -0.359375q0.640625 0 0.96875 0.359375q0.328125 0.34375 0.328125 0.875q0 0.515625 -0.328125 0.859375q-0.328125 0.34375 -0.96875 0.34375q-0.625 0 -0.9375 -0.34375q-0.3125 -0.34375 -0.3125 -0.859375z" fill-rule="nonzero"/><path fill="#000000" d="m345.1763 491.87897l5.265625 13.140625l5.265625 -13.140625l2.765625 0l0 16.109375l-2.125 0l0 -6.265625l0.1875 -6.78125l-5.28125 13.046875l-1.625 0l-5.28125 -13.015625l0.21875 6.75l0 6.265625l-2.125 0l0 -16.109375l2.734375 0zm20.983093 10.109375l-5.40625 0l0 -1.671875l5.40625 0l0 1.671875zm5.3285217 0.453125l-1.28125 1.34375l0 4.203125l-2.046875 0l0 -17.0l2.046875 0l0 10.28125l1.09375 -1.3125l3.734375 -3.9375l2.484375 0l-4.65625 5.0l5.1875 6.96875l-2.390625 0l-4.171875 -5.546875zm12.886627 5.765625q-2.4375 0 -3.96875 -1.59375q-1.515625 -1.59375 -1.515625 -4.28125l0 -0.375q0 -1.78125 0.671875 -3.171875q0.6875 -1.40625 1.90625 -2.1875q1.21875 -0.796875 2.65625 -0.796875q2.328125 0 3.625 1.546875q1.296875 1.53125 1.296875 4.390625l0 0.84375l-8.109375 0q0.046875 1.78125 1.03125 2.875q0.984375 1.078125 2.515625 1.078125q1.078125 0 1.828125 -0.4375q0.765625 -0.4375 1.328125 -1.171875l1.25 0.96875q-1.5 2.3125 -4.515625 2.3125zm-0.25 -10.734375q-1.25 0 -2.09375 0.90625q-0.828125 0.90625 -1.03125 2.53125l6.0 0l0 -0.15625q-0.09375 -1.5625 -0.84375 -2.421875q-0.75 -0.859375 -2.03125 -0.859375zm11.062195 7.515625l2.78125 -8.96875l2.1875 0l-4.8125 13.8125q-1.109375 2.984375 -3.546875 2.984375l-0.390625 -0.03125l-0.765625 -0.140625l0 -1.65625l0.5625 0.046875q1.03125 0 1.609375 -0.421875q0.59375 -0.421875 0.96875 -1.546875l0.453125 -1.203125l-4.265625 -11.84375l2.234375 0l2.984375 8.96875z" fill-rule="nonzero"/></g></svg>