<svg version="1.1" xmlns="http://www.w3.org/2000/svg" xmlns:xlink="http://www.w3.org/1999/xlink" width="120.64379" height="125.5972" viewBox="0,0,120.64379,125.5972"><g transform="translate(-179.67809,-118.87444)"><g data-paper-data="{&quot;isPaintingLayer&quot;:true}" fill="#ffffff" fill-rule="nonzero" stroke-linejoin="miter" stroke-miterlimit="10" stroke-dasharray="" stroke-dashoffset="0" style="mix-blend-mode: normal"><path d="M230.49884,219.65703v-25.67774h19.87954v25.67774z" stroke="none" stroke-width="0" stroke-linecap="butt"/><path d="M180.11475,131.70427h119.79548c0,0 3.34013,26.86014 -9.0082,41.47909c-12.40136,14.68173 -31.71493,8.38677 -31.71493,8.38677l3.79894,-6.92309c0,0 11.41341,3.8969 23.36101,-7.70651c8.51353,-8.26829 7.31677,-29.7054 7.31677,-29.7054l-64.43915,3.10701l-42.17603,-0.81639c0,0 0.13651,17.10797 9.33503,28.1426c5.13621,6.16143 22.0616,5.63845 22.0616,5.63845l4.04227,7.51124c0,0 -18.92663,3.88058 -30.5114,-6.85892c-15.80339,-14.65031 -11.86134,-42.25486 -11.86134,-42.25486z" stroke="none" stroke-width="15" stroke-linecap="butt"/><path d="M212.61997,231.14254c0,-9.35801 7.58616,-16.94417 16.94417,-16.94417c0.08509,0 21.77053,0.00063 21.85532,0.00188c9.24051,0.13624 16.68934,7.66938 16.68934,16.94229c0,9.243 0.13757,9.98302 0.13757,9.98302l-55.54663,-0.15773c0,0 -0.07979,-6.94683 -0.07979,-9.82529z" stroke="none" stroke-width="0" stroke-linecap="butt"/><path d="M271.12738,240.72164h-60.96385" stroke="#ffffff" stroke-width="7.5" stroke-linecap="round"/><path d="M230.47064,194.5299c-2.92555,-1.07729 -34.80948,0.49978 -34.11595,-73.24404c0.02399,-2.55054 -0.37287,-1.7122 -0.37287,-1.7122h88.65111c0,0 -0.26414,-2.14559 -0.13604,1.08023c2.74519,69.12812 -30.71766,72.30285 -34.36983,73.55226c-0.08894,0.03043 -0.03408,0.08064 -0.03408,0.08064l-19.57073,0.3035c0,0 -0.0003,-0.04148 -0.05162,-0.06038z" stroke="none" stroke-width="15" stroke-linecap="butt"/></g></g></svg>