<svg version="1.1" xmlns="http://www.w3.org/2000/svg" xmlns:xlink="http://www.w3.org/1999/xlink" width="919.93706" height="258.0006" viewBox="0,0,919.93706,258.0006"><defs><linearGradient x1="-82.63524" y1="194.87174" x2="-82.63524" y2="382.60853" gradientUnits="userSpaceOnUse" id="color-1"><stop offset="0" stop-color="#0196fe"/><stop offset="1" stop-color="#0fd4ff"/></linearGradient><linearGradient x1="309.30512" y1="199.26324" x2="309.30512" y2="387.00003" gradientUnits="userSpaceOnUse" id="color-2"><stop offset="0" stop-color="#0196fe"/><stop offset="1" stop-color="#0fd4ff"/></linearGradient><linearGradient x1="560.71788" y1="160.83771" x2="560.71788" y2="387.00003" gradientUnits="userSpaceOnUse" id="color-3"><stop offset="0" stop-color="#0196fe"/><stop offset="1" stop-color="#0fd4ff"/></linearGradient><linearGradient x1="110.51039" y1="128.99942" x2="110.51039" y2="387.00003" gradientUnits="userSpaceOnUse" id="color-4"><stop offset="0" stop-color="#0196fe"/><stop offset="1" stop-color="#0fd4ff"/></linearGradient></defs><g transform="translate(220.92722,-128.99943)"><g data-paper-data="{&quot;isPaintingLayer&quot;:true}" fill-rule="nonzero" stroke="none" stroke-width="0" stroke-linecap="butt" stroke-linejoin="miter" stroke-miterlimit="10" stroke-dasharray="" stroke-dashoffset="0" style="mix-blend-mode: normal"><path d="M55.65671,382.60853h-276.58392c0,0 58.64476,-187.39412 139.52672,-187.73631c81.69208,-0.34563 137.05721,187.73631 137.05721,187.73631z" data-paper-data="{&quot;index&quot;:null}" fill="url(#color-1)"/><path d="M447.59708,387.00003h-276.58392c0,0 58.64476,-187.39412 139.52671,-187.73631c81.69209,-0.34563 137.05721,187.73631 137.05721,187.73631z" data-paper-data="{&quot;index&quot;:null}" fill="url(#color-2)"/><path d="M699.00985,387.00003h-276.58392c0,0 58.64476,-225.7495 139.52671,-226.16174c81.69209,-0.41638 137.05721,226.16174 137.05721,226.16174z" data-paper-data="{&quot;index&quot;:null}" fill="url(#color-3)"/><path d="M248.80235,387.00003h-276.58392c0,0 58.64476,-257.52967 139.52671,-257.99995c81.69209,-0.47499 137.05721,257.99995 137.05721,257.99995z" data-paper-data="{&quot;index&quot;:null}" fill="url(#color-4)"/></g></g></svg>