<svg version="1.1" xmlns="http://www.w3.org/2000/svg" xmlns:xlink="http://www.w3.org/1999/xlink" width="97.81085" height="25.95512" viewBox="0,0,97.81085,25.95512"><g transform="translate(-191.09457,-167.02244)"><g data-paper-data="{&quot;isPaintingLayer&quot;:true}" fill-rule="nonzero" stroke-miterlimit="10" stroke-dasharray="" stroke-dashoffset="0" style="mix-blend-mode: normal"><path d="M204.07213,167.02244h71.85573c7.18957,0 12.97756,5.78799 12.97756,12.97756c0,7.18957 -5.788,12.97756 -12.97756,12.97756h-71.85573c-7.18957,0 -12.97756,-5.78799 -12.97756,-12.97756c0,-7.18957 5.78799,-12.97756 12.97756,-12.97756z" fill="#000000" stroke="none" stroke-width="0.365" stroke-linecap="round" stroke-linejoin="round"/><path d="M210.40152,184.6837c-0.11924,0 -0.21238,-0.02981 -0.27945,-0.08943c-0.06706,-0.06706 -0.11178,-0.15649 -0.13413,-0.26828l-1.72144,-8.5737c-0.00745,-0.03726 -0.01118,-0.06706 -0.01118,-0.08943c0,-0.02981 0,-0.04844 0,-0.0559c0,-0.06706 0.02608,-0.12668 0.07826,-0.17886c0.05216,-0.05962 0.11178,-0.08943 0.17886,-0.08943h0.70423c0.1863,0 0.29063,0.07452 0.31299,0.22356l1.36374,6.89698l1.442,-4.72839c0.02236,-0.08197 0.06706,-0.15649 0.13413,-0.22356c0.06706,-0.06706 0.16395,-0.1006 0.29063,-0.1006h0.49185c0.13413,0 0.23101,0.03354 0.29063,0.1006c0.06706,0.06706 0.10805,0.1416 0.12296,0.22356l1.45316,4.72839l1.35257,-6.89698c0.02981,-0.14905 0.1416,-0.22356 0.33535,-0.22356h0.69306c0.07452,0 0.13786,0.02981 0.19003,0.08943c0.05216,0.05216 0.07826,0.11178 0.07826,0.17886c0,0.00745 -0.00373,0.02608 -0.01118,0.0559c0,0.02236 0,0.05216 0,0.08943l-1.72144,8.5737c-0.02981,0.11178 -0.07826,0.20122 -0.14532,0.26828c-0.06706,0.05962 -0.15649,0.08943 -0.26828,0.08943h-0.52538c-0.12668,0 -0.22729,-0.02981 -0.30181,-0.08943c-0.06706,-0.06706 -0.11178,-0.14905 -0.13413,-0.24592l-1.65438,-5.0861l-1.6432,5.0861c-0.03726,0.09688 -0.08943,0.17886 -0.15649,0.24592c-0.06706,0.05962 -0.16395,0.08943 -0.29063,0.08943zM219.65032,184.6837c-0.08943,0 -0.16395,-0.02981 -0.22356,-0.08943c-0.05962,-0.05962 -0.08943,-0.13041 -0.08943,-0.21238v-6.32688c0,-0.08943 0.02981,-0.16395 0.08943,-0.22356c0.05962,-0.05962 0.13413,-0.08943 0.22356,-0.08943h0.63716c0.08943,0 0.16395,0.02981 0.22356,0.08943c0.05962,0.05962 0.08943,0.13413 0.08943,0.22356v6.32688c0,0.08197 -0.02981,0.15276 -0.08943,0.21238c-0.05962,0.05962 -0.13413,0.08943 -0.22356,0.08943zM219.53856,176.44532c-0.08943,0 -0.16395,-0.02608 -0.22356,-0.07826c-0.05216,-0.05962 -0.07826,-0.13413 -0.07826,-0.22356v-0.72659c0,-0.08943 0.02608,-0.16395 0.07826,-0.22356c0.05962,-0.05962 0.13413,-0.08943 0.22356,-0.08943h0.83837c0.08943,0 0.16395,0.02981 0.22356,0.08943c0.06706,0.05962 0.1006,0.13413 0.1006,0.22356v0.72659c0,0.08943 -0.03354,0.16395 -0.1006,0.22356c-0.05962,0.05216 -0.13413,0.07826 -0.22356,0.07826zM222.88025,184.6837c-0.08943,0 -0.16395,-0.02981 -0.22356,-0.08943c-0.05962,-0.05962 -0.08943,-0.13041 -0.08943,-0.21238v-6.32688c0,-0.08943 0.02981,-0.16395 0.08943,-0.22356c0.05962,-0.05962 0.13413,-0.08943 0.22356,-0.08943h0.62598c0.08943,0 0.16022,0.02981 0.21238,0.08943c0.05962,0.05962 0.08943,0.13413 0.08943,0.22356v0.58128c0.23101,-0.29808 0.52165,-0.54401 0.8719,-0.73776c0.3577,-0.19375 0.81229,-0.29063 1.36374,-0.29063c0.5738,0 1.06193,0.12668 1.46434,0.38006c0.40987,0.25337 0.71913,0.60736 0.92779,1.06193c0.20866,0.44712 0.31299,0.96878 0.31299,1.56495v3.76706c0,0.08197 -0.02981,0.15276 -0.08943,0.21238c-0.05216,0.05962 -0.12296,0.08943 -0.21238,0.08943h-0.67069c-0.08943,0 -0.16395,-0.02981 -0.22356,-0.08943c-0.05216,-0.05962 -0.07826,-0.13041 -0.07826,-0.21238v-3.7c0,-0.62598 -0.15276,-1.1141 -0.45831,-1.46434c-0.30555,-0.35025 -0.74894,-0.52538 -1.33021,-0.52538c-0.55146,0 -0.99487,0.17513 -1.33021,0.52538c-0.33535,0.35025 -0.50302,0.83837 -0.50302,1.46434v3.7c0,0.08197 -0.02981,0.15276 -0.08943,0.21238c-0.05962,0.05962 -0.13041,0.08943 -0.21238,0.08943zM233.05876,184.81784c-0.49929,0 -0.92779,-0.05962 -1.28551,-0.17886c-0.35025,-0.12668 -0.63716,-0.27945 -0.86072,-0.45831c-0.22356,-0.17886 -0.39125,-0.3577 -0.50302,-0.53657c-0.11178,-0.17886 -0.1714,-0.32044 -0.17886,-0.42477c-0.00745,-0.09688 0.02236,-0.1714 0.08943,-0.22356c0.07452,-0.05962 0.14905,-0.08943 0.22356,-0.08943h0.59244c0.04471,0 0.08197,0.00745 0.11178,0.02236c0.03726,0.0149 0.08197,0.05216 0.13413,0.11178c0.11178,0.12668 0.23847,0.25337 0.38006,0.38006c0.14905,0.11924 0.3279,0.21984 0.53657,0.30181c0.20866,0.08197 0.46576,0.12296 0.7713,0.12296c0.45458,0 0.8272,-0.0857 1.11781,-0.25709c0.29808,-0.17886 0.44712,-0.43595 0.44712,-0.7713c0,-0.22356 -0.05962,-0.40241 -0.17886,-0.53657c-0.11924,-0.13413 -0.33163,-0.25337 -0.63716,-0.3577c-0.30555,-0.10433 -0.72659,-0.21611 -1.26313,-0.33535c-0.53657,-0.12668 -0.96132,-0.27945 -1.27431,-0.45831c-0.30555,-0.1863 -0.52538,-0.40614 -0.65951,-0.65951c-0.13413,-0.25337 -0.20122,-0.54029 -0.20122,-0.86072c0,-0.3279 0.09688,-0.64461 0.29063,-0.95015c0.19375,-0.30555 0.48067,-0.55519 0.86072,-0.74894c0.38006,-0.20122 0.85328,-0.30181 1.41963,-0.30181c0.46203,0 0.857,0.05962 1.18489,0.17886c0.33535,0.11178 0.60736,0.25709 0.816,0.43595c0.21611,0.1714 0.37633,0.34279 0.48067,0.5142c0.11178,0.16395 0.1714,0.30555 0.17886,0.42477c0.00745,0.08943 -0.02236,0.16395 -0.08943,0.22356c-0.05962,0.05216 -0.12668,0.07826 -0.20122,0.07826h-0.57008c-0.05962,0 -0.11178,-0.01118 -0.15649,-0.03354c-0.03726,-0.02981 -0.07079,-0.06335 -0.1006,-0.1006c-0.08943,-0.11178 -0.19747,-0.22356 -0.32418,-0.33535c-0.11924,-0.11924 -0.27573,-0.21611 -0.46948,-0.29063c-0.1863,-0.08197 -0.43595,-0.12296 -0.74894,-0.12296c-0.43967,0 -0.7713,0.09315 -0.99487,0.27945c-0.22356,0.1863 -0.33535,0.42477 -0.33535,0.7154c0,0.16395 0.04844,0.31299 0.14532,0.44712c0.09688,0.13413 0.28318,0.25709 0.55891,0.36888c0.27573,0.10433 0.68559,0.21984 1.22961,0.34653c0.58872,0.11178 1.05075,0.26828 1.3861,0.46948c0.34279,0.19375 0.58499,0.42105 0.72659,0.68188c0.1416,0.25337 0.21238,0.54773 0.21238,0.88309c0,0.37261 -0.10805,0.7154 -0.32418,1.02839c-0.21611,0.31299 -0.53657,0.56264 -0.96132,0.74894c-0.42477,0.17886 -0.95015,0.26828 -1.57613,0.26828zM237.05339,185.80151c-0.07452,0 -0.13786,-0.02608 -0.19003,-0.07826c-0.05216,-0.05216 -0.07826,-0.11552 -0.07826,-0.19003c0,-0.04471 0.0149,-0.09688 0.04471,-0.15649l4.56072,-10.9435c0.02981,-0.05216 0.06706,-0.10433 0.11178,-0.15649c0.05216,-0.05216 0.13041,-0.07826 0.23475,-0.07826h0.52538c0.06706,0 0.12668,0.02608 0.17886,0.07826c0.05216,0.05216 0.07826,0.11178 0.07826,0.17886c0,0.03726 -0.00745,0.09315 -0.02236,0.16767l-4.57189,10.9435c-0.02236,0.04471 -0.05962,0.09315 -0.11178,0.14532c-0.05216,0.05962 -0.13413,0.08943 -0.24592,0.08943zM246.3817,184.6837c-0.08943,0 -0.16395,-0.02981 -0.22356,-0.08943c-0.05216,-0.05962 -0.07826,-0.13041 -0.07826,-0.21238v-7.8583h-2.57099c-0.08943,0 -0.16395,-0.02608 -0.22356,-0.07826c-0.05216,-0.05962 -0.07826,-0.13413 -0.07826,-0.22356v-0.55891c0,-0.09688 0.02608,-0.17513 0.07826,-0.23475c0.05962,-0.05962 0.13413,-0.08943 0.22356,-0.08943h6.43867c0.09688,0 0.1714,0.02981 0.22356,0.08943c0.05962,0.05962 0.08943,0.13786 0.08943,0.23475v0.55891c0,0.08943 -0.02981,0.16395 -0.08943,0.22356c-0.05216,0.05216 -0.12668,0.07826 -0.22356,0.07826h-2.54864v7.8583c0,0.08197 -0.02981,0.15276 -0.08943,0.21238c-0.05962,0.05962 -0.13786,0.08943 -0.23475,0.08943zM253.15167,184.81784c-0.67814,0 -1.24451,-0.12668 -1.69909,-0.38006c-0.45458,-0.26084 -0.8011,-0.61853 -1.03958,-1.07311c-0.23847,-0.46203 -0.37261,-0.9874 -0.40241,-1.57613c-0.00745,-0.14905 -0.01118,-0.34279 -0.01118,-0.58128c0,-0.23847 0.00373,-0.42849 0.01118,-0.57008c0.02981,-0.59618 0.16395,-1.12155 0.40241,-1.57613c0.24592,-0.45458 0.59618,-0.80856 1.05075,-1.06193c0.45458,-0.26084 1.01722,-0.39125 1.68792,-0.39125c0.66325,0 1.22215,0.13041 1.67673,0.39125c0.45458,0.25337 0.80484,0.60736 1.05075,1.06193c0.24592,0.45458 0.38006,0.97996 0.40241,1.57613c0.00745,0.1416 0.01118,0.33163 0.01118,0.57008c0,0.23847 -0.00373,0.43223 -0.01118,0.58128c-0.02236,0.58872 -0.15649,1.1141 -0.40241,1.57613c-0.23847,0.45458 -0.58499,0.81229 -1.03958,1.07311c-0.45458,0.25337 -1.01722,0.38006 -1.68792,0.38006zM253.15167,183.78944c0.55146,0 0.99113,-0.17513 1.31903,-0.52538c0.3279,-0.35025 0.50674,-0.86445 0.53657,-1.5426c0.00745,-0.13413 0.01118,-0.30181 0.01118,-0.50302c0,-0.20866 -0.00373,-0.38006 -0.01118,-0.5142c-0.02981,-0.67814 -0.20866,-1.19235 -0.53657,-1.5426c-0.3279,-0.35025 -0.76758,-0.52538 -1.31903,-0.52538c-0.55146,0 -0.99487,0.17513 -1.33021,0.52538c-0.33535,0.35025 -0.51046,0.86445 -0.52538,1.5426c-0.00745,0.13413 -0.01118,0.30555 -0.01118,0.5142c0,0.20122 0.00373,0.36888 0.01118,0.50302c0.0149,0.67814 0.19003,1.19235 0.52538,1.5426c0.33535,0.35025 0.77875,0.52538 1.33021,0.52538zM260.61183,184.6837c-0.49929,0 -0.90543,-0.09315 -1.21842,-0.27945c-0.31299,-0.19375 -0.54029,-0.46576 -0.68188,-0.816c-0.1416,-0.3577 -0.21238,-0.77502 -0.21238,-1.25197v-3.52113h-1.03958c-0.08943,0 -0.16395,-0.02981 -0.22356,-0.08943c-0.05962,-0.05962 -0.08943,-0.13413 -0.08943,-0.22356v-0.44712c0,-0.08943 0.02981,-0.16395 0.08943,-0.22356c0.05962,-0.05962 0.13413,-0.08943 0.22356,-0.08943h1.03958v-2.22446c0,-0.08943 0.02981,-0.16395 0.08943,-0.22356c0.05962,-0.05962 0.13413,-0.08943 0.22356,-0.08943h0.62598c0.08943,0 0.16022,0.02981 0.21238,0.08943c0.05962,0.05962 0.08943,0.13413 0.08943,0.22356v2.22446h1.65438c0.09688,0 0.1714,0.02981 0.22356,0.08943c0.05962,0.05962 0.08943,0.13413 0.08943,0.22356v0.44712c0,0.08943 -0.02981,0.16395 -0.08943,0.22356c-0.05216,0.05962 -0.12668,0.08943 -0.22356,0.08943h-1.65438v3.42054c0,0.42477 0.07079,0.7564 0.21238,0.99487c0.1416,0.23847 0.39497,0.3577 0.76012,0.3577h0.816c0.08943,0 0.16395,0.02981 0.22356,0.08943c0.05962,0.05962 0.08943,0.13413 0.08943,0.22356v0.48067c0,0.08197 -0.02981,0.15276 -0.08943,0.21238c-0.05962,0.05962 -0.13413,0.08943 -0.22356,0.08943zM265.04796,184.81784c-0.43967,0 -0.84209,-0.08943 -1.20725,-0.26828c-0.36517,-0.17886 -0.65951,-0.41733 -0.88309,-0.7154c-0.22356,-0.30555 -0.33535,-0.64834 -0.33535,-1.02839c0,-0.61853 0.24965,-1.11037 0.74894,-1.47553c0.49929,-0.36517 1.14763,-0.60363 1.94501,-0.7154l1.98973,-0.27945v-0.39125c0,-0.42477 -0.12296,-0.7564 -0.36888,-0.99487c-0.23847,-0.24592 -0.63342,-0.36888 -1.18489,-0.36888c-0.39497,0 -0.71913,0.08197 -0.97249,0.24592c-0.24592,0.15649 -0.41733,0.36143 -0.5142,0.6148c-0.05216,0.13413 -0.14532,0.20122 -0.27945,0.20122h-0.60363c-0.09688,0 -0.1714,-0.02981 -0.22356,-0.08943c-0.04471,-0.05962 -0.06706,-0.13041 -0.06706,-0.21238c0,-0.13413 0.04844,-0.29808 0.14532,-0.49185c0.10433,-0.19375 0.26456,-0.38377 0.48067,-0.57008c0.21611,-0.1863 0.48811,-0.34279 0.816,-0.46948c0.33535,-0.13413 0.74522,-0.20122 1.22961,-0.20122c0.5291,0 0.97624,0.07079 1.34138,0.21238c0.36517,0.13413 0.65206,0.31671 0.86072,0.54773c0.20866,0.23101 0.36143,0.49557 0.45831,0.79366c0.09688,0.29063 0.14532,0.58872 0.14532,0.89426v4.32597c0,0.08197 -0.02981,0.15276 -0.08943,0.21238c-0.05962,0.05962 -0.13413,0.08943 -0.22356,0.08943h-0.6148c-0.09688,0 -0.1714,-0.02981 -0.22356,-0.08943c-0.05216,-0.05962 -0.07826,-0.13041 -0.07826,-0.21238v-0.58128c-0.11924,0.16395 -0.27573,0.32418 -0.46948,0.48067c-0.19375,0.14905 -0.43967,0.27573 -0.73776,0.38006c-0.29063,0.10433 -0.65206,0.15649 -1.08429,0.15649zM265.33858,183.8118c0.36517,0 0.69678,-0.07452 0.99487,-0.22356c0.30555,-0.15649 0.54401,-0.39869 0.7154,-0.72659c0.1714,-0.33535 0.25709,-0.75267 0.25709,-1.25197v-0.36888l-1.5426,0.22356c-0.63342,0.08943 -1.11037,0.23847 -1.43081,0.44712c-0.32044,0.20866 -0.48067,0.47321 -0.48067,0.79366c0,0.25337 0.07079,0.46203 0.21238,0.62598c0.14905,0.16395 0.33535,0.28691 0.55891,0.36888c0.23101,0.07452 0.46948,0.11178 0.7154,0.11178zM270.80573,184.6837c-0.08943,0 -0.16395,-0.02981 -0.22356,-0.08943c-0.05216,-0.05962 -0.07826,-0.13041 -0.07826,-0.21238v-8.86433c0,-0.08943 0.02608,-0.16395 0.07826,-0.22356c0.05962,-0.05962 0.13413,-0.08943 0.22356,-0.08943h0.62598c0.09688,0 0.1714,0.02981 0.22356,0.08943c0.05962,0.05962 0.08943,0.13413 0.08943,0.22356v8.86433c0,0.08197 -0.02981,0.15276 -0.08943,0.21238c-0.05216,0.05962 -0.12668,0.08943 -0.22356,0.08943z" fill="#ffffff" stroke="#ffffff" stroke-width="0.5" stroke-linecap="square" stroke-linejoin="miter"/></g></g></svg>