<svg version="1.1" xmlns="http://www.w3.org/2000/svg" xmlns:xlink="http://www.w3.org/1999/xlink" width="134" height="134" viewBox="0,0,134,134"><g transform="translate(-173,-113)"><g data-paper-data="{&quot;isPaintingLayer&quot;:true}" fill-rule="nonzero" stroke-linecap="butt" stroke-linejoin="miter" stroke-miterlimit="10" stroke-dasharray="" stroke-dashoffset="0" style="mix-blend-mode: normal"><path d="M212.74644,180.35177c0.7993,-7.58716 3.1069,-11.80294 9.70327,-14.26999c1.80428,-0.6748 2.5339,2.61418 5.03683,2.16786c1.77325,-0.31622 4.93575,0.64426 7.51287,-0.69652c1.66237,-0.86488 2.68181,-4.23119 4.26338,-4.35177c15.86972,-1.21007 28.15845,0.37515 28.33204,14.48807c0.18254,14.8411 -0.81238,18.17002 -28.2255,17.29794c-1.92301,-0.06118 -3.42849,1.54582 -5.48437,1.91255c-3.07888,0.54922 -6.63495,-0.0587 -8.60731,-0.19757c-2.50579,-0.17643 -2.59125,-2.65335 -4.35481,-2.94315c-8.8361,-1.45202 -9.09426,-4.69449 -8.17635,-13.40743z" data-paper-data="{&quot;index&quot;:null}" fill="#4c97ff" stroke="#ffffff" stroke-width="5"/><path d="M212.74644,180.35178c0.7993,-7.58716 3.1069,-11.80294 9.70327,-14.26999c1.80428,-0.6748 2.5339,2.61418 5.03683,2.16786c1.77325,-0.31622 4.93575,0.64426 7.51287,-0.69652c1.66237,-0.86488 2.68181,-4.23119 4.26338,-4.35177c15.86972,-1.21007 28.15845,0.37515 28.33204,14.48807c0.18254,14.8411 -0.81238,18.17002 -28.2255,17.29794c-1.92301,-0.06118 -3.42849,1.54582 -5.48437,1.91255c-3.07888,0.54922 -6.63495,-0.0587 -8.60731,-0.19757c-2.50579,-0.17643 -2.59125,-2.65335 -4.35481,-2.94315c-8.8361,-1.45202 -9.09426,-4.69449 -8.17635,-13.40743z" data-paper-data="{&quot;index&quot;:null}" fill="#4c97ff" stroke="none" stroke-width="0"/><path d="M245.71751,170.14411c10.69673,-1.0817 11.54299,5.10932 10.28212,12.11939c-1.26087,7.01007 -7.68409,8.82229 -13.90302,8.01184c-10.53987,-1.37355 -10.83181,-4.87513 -9.54403,-12.03487c1.28779,-7.15973 2.46819,-7.01466 13.16492,-8.09636z" data-paper-data="{&quot;index&quot;:null}" fill="#ffffff" stroke="none" stroke-width="0"/><path d="M239.47403,180.23025c0.21031,1.90993 -0.46373,3.55124 -1.50552,3.66595c-1.04178,0.11471 -2.05681,-1.3406 -2.26712,-3.25053c-0.21031,-1.90993 0.46373,-3.55124 1.50552,-3.66595c1.04178,-0.11471 2.05681,1.3406 2.26712,3.25053z" fill="#4588e6" stroke="none" stroke-width="0"/><path d="M254.08431,179.75434c0.21031,1.90993 -0.46372,3.55124 -1.50551,3.66595c-1.04178,0.11471 -2.05681,-1.3406 -2.26712,-3.25053c-0.21031,-1.90993 0.46373,-3.55124 1.50552,-3.66595c1.04178,-0.11471 2.0568,1.3406 2.26711,3.25053z" fill="#4588e6" stroke="none" stroke-width="0"/><path d="M249.58732,180.59048c0,0 -1.97937,3.13781 -4.24276,2.79962c-3.79785,-0.56744 -4.24268,-3.52876 -4.24268,-3.52876c0,0 1.61735,0.60135 3.90451,0.68025c2.28715,0.0789 4.58094,0.04892 4.58094,0.04892z" data-paper-data="{&quot;index&quot;:null}" fill="#4c97ff" stroke="none" stroke-width="0"/><path d="M173,247v-134h134v134z" fill="none" stroke="none" stroke-width="0"/></g></g></svg>