<svg version="1.1" xmlns="http://www.w3.org/2000/svg" xmlns:xlink="http://www.w3.org/1999/xlink" width="218.47624" height="103.43056" viewBox="0,0,218.47624,103.43056"><g transform="translate(-130.76188,-128.28472)"><g data-paper-data="{&quot;isPaintingLayer&quot;:true}" fill="#ff4f4f" fill-rule="nonzero" stroke-linecap="square" stroke-linejoin="miter" stroke-miterlimit="10" stroke-dasharray="" stroke-dashoffset="0" style="mix-blend-mode: normal"><path d="M184.69777,168.27717h21.79312c5.37082,0.27541 8.77922,1.89357 10.2252,4.85439c1.03285,1.85913 1.54928,4.54453 1.54928,8.05622v27.06066c0,3.30511 -1.41155,6.40366 -4.23468,9.29564c-7.36767,7.64308 -18.31587,11.46463 -32.84461,11.46463c-12.87618,0 -24.09983,-4.85439 -33.67088,-14.56318c-9.50221,-9.77763 -14.25332,-21.51771 -14.25332,-35.22016c0,-13.77134 4.81996,-25.27037 14.4599,-34.49717c9.70879,-9.29564 21.17341,-13.94347 34.39389,-13.94347c10.25965,0 19.89955,3.37396 28.91978,10.12192c2.89198,2.13454 4.33797,4.57898 4.33797,7.33323c0,2.6854 -1.1017,5.54295 -3.30511,8.57265c-3.71826,5.02652 -7.2988,7.5398 -10.74163,7.5398c-2.0657,0 -4.81996,-1.1017 -8.26279,-3.30511c-3.44284,-2.27227 -7.2988,-3.40841 -11.56792,-3.40841c-5.64623,0 -10.63835,1.96241 -14.97631,5.88725c-4.33797,3.92482 -6.50696,9.08908 -6.50696,15.49274c0,6.40366 2.20342,11.84333 6.61024,16.31903c4.4757,4.4757 9.50221,6.71352 15.07961,6.71352c4.20025,0 7.43652,-0.44758 9.70879,-1.3427v-9.29564h-7.22995c-3.0297,0 -5.33637,-0.48199 -6.92009,-1.44599c-1.51483,-0.96401 -2.51327,-2.27227 -2.99526,-3.92482c-0.41314,-1.72141 -0.61971,-3.7871 -0.61971,-6.1971c0,-2.40999 0.24101,-4.5101 0.72299,-6.30038c0.55086,-1.79028 1.65256,-3.09855 3.30511,-3.92482c1.79028,-0.89512 4.1314,-1.3427 7.02337,-1.3427zM267.99887,131.30115c12.87618,0 24.03095,4.64783 33.46432,13.94347c9.50221,9.29564 14.25332,20.79471 14.25332,34.49717c0,13.63361 -4.54453,25.30481 -13.63361,35.0136c-9.02023,9.63994 -20.14057,14.4599 -33.36103,14.4599c-13.15163,0 -24.3408,-4.75111 -33.5676,-14.25332c-9.2268,-9.50221 -13.84019,-20.86356 -13.84019,-34.08403c0,-7.1611 1.27386,-13.87462 3.82154,-20.14057c2.61657,-6.26594 6.09381,-11.49907 10.43178,-15.69932c4.33797,-4.26912 9.33008,-7.60865 14.97631,-10.01864c5.64623,-2.47884 11.46463,-3.71826 17.45515,-3.71826zM248.06488,180.25823c0,6.61024 2.10014,11.98105 6.30038,16.11245c4.26912,4.06255 8.98578,6.09381 14.15004,6.09381c5.16424,0 9.84651,-1.96241 14.04675,-5.88725c4.20025,-3.99367 6.30038,-9.36449 6.30038,-16.11245c0,-6.81681 -2.13454,-12.25647 -6.40366,-16.31903c-4.20025,-4.06255 -8.8825,-6.09381 -14.04675,-6.09381c-5.16424,0 -9.84651,2.0657 -14.04675,6.1971c-4.20025,4.06255 -6.30038,9.39893 -6.30038,16.00917zM320.29718,205.14989c1.1017,-2.0657 2.71985,-3.44284 4.85439,-4.1314c2.13454,-0.75743 5.19869,-1.13614 9.19236,-1.13614c4.06255,0 7.12667,1.03285 9.19236,3.09855c2.13454,1.99686 3.20183,5.02652 3.20183,9.08908v1.96241c0,2.13454 -0.10328,3.75269 -0.30986,4.85439c-0.13772,1.1017 -0.58527,2.47884 -1.3427,4.1314c-1.79028,3.23628 -5.61182,4.85439 -11.46463,4.85439c-5.78395,0 -9.70879,-1.03285 -11.77448,-3.09855c-2.0657,-2.0657 -3.09855,-5.74952 -3.09855,-11.05149c0,-3.64941 0.51643,-6.50696 1.54928,-8.57265zM339.81804,194.51154c-1.92798,0.48199 -4.30353,0.72299 -7.12667,0.72299c-2.82313,0 -5.26754,-0.24101 -7.33323,-0.72299c-1.99686,-0.55086 -3.44284,-1.58372 -4.33797,-3.09855c-0.82628,-1.51483 -1.30827,-2.7887 -1.44599,-3.82154c-0.13772,-1.1017 -0.20657,-2.54769 -0.20657,-4.33797v-39.145c0,-1.79028 0.06885,-3.23628 0.20657,-4.33797c0.13772,-1.1017 0.65415,-2.40999 1.54928,-3.92482c0.89512,-1.51483 2.34112,-2.54769 4.33797,-3.09855c2.0657,-0.55086 4.5101,-0.82628 7.33323,-0.82628c2.82313,0 5.23309,0.30986 7.22995,0.92957c2.0657,0.55086 3.51169,1.58372 4.33797,3.09855c0.82628,1.51483 1.30827,2.82313 1.44599,3.92482c0.20657,1.03285 0.30986,2.51327 0.30986,4.44125v39.0417c0,1.85913 -0.10328,3.33956 -0.30986,4.44125c-0.13772,1.03285 -0.68856,2.27227 -1.65256,3.71826c-0.89512,1.44599 -2.34112,2.4444 -4.33797,2.99526z" stroke="#28a5da" stroke-width="5"/><path d="M184.69777,168.27717h21.79312c5.37082,0.27541 8.77922,1.89357 10.2252,4.85439c1.03285,1.85913 1.54928,4.54453 1.54928,8.05622v27.06066c0,3.30511 -1.41155,6.40366 -4.23468,9.29564c-7.36767,7.64308 -18.31587,11.46463 -32.84461,11.46463c-12.87618,0 -24.09983,-4.85439 -33.67088,-14.56318c-9.50221,-9.77763 -14.25332,-21.51771 -14.25332,-35.22016c0,-13.77134 4.81996,-25.27037 14.4599,-34.49717c9.70879,-9.29564 21.17341,-13.94347 34.39389,-13.94347c10.25965,0 19.89955,3.37396 28.91978,10.12192c2.89198,2.13454 4.33797,4.57898 4.33797,7.33323c0,2.6854 -1.1017,5.54295 -3.30511,8.57265c-3.71826,5.02652 -7.2988,7.5398 -10.74163,7.5398c-2.0657,0 -4.81996,-1.1017 -8.26279,-3.30511c-3.44284,-2.27227 -7.2988,-3.40841 -11.56792,-3.40841c-5.64623,0 -10.63835,1.96241 -14.97631,5.88725c-4.33797,3.92482 -6.50696,9.08908 -6.50696,15.49274c0,6.40366 2.20342,11.84333 6.61024,16.31903c4.4757,4.4757 9.50221,6.71352 15.07961,6.71352c4.20025,0 7.43652,-0.44758 9.70879,-1.3427v-9.29564h-7.22995c-3.0297,0 -5.33637,-0.48199 -6.92009,-1.44599c-1.51483,-0.96401 -2.51327,-2.27227 -2.99526,-3.92482c-0.41314,-1.72141 -0.61971,-3.7871 -0.61971,-6.1971c0,-2.40999 0.24101,-4.5101 0.72299,-6.30038c0.55086,-1.79028 1.65256,-3.09855 3.30511,-3.92482c1.79028,-0.89512 4.1314,-1.3427 7.02337,-1.3427zM267.99887,131.30115c12.87618,0 24.03095,4.64783 33.46432,13.94347c9.50221,9.29564 14.25332,20.79471 14.25332,34.49717c0,13.63361 -4.54453,25.30481 -13.63361,35.0136c-9.02023,9.63994 -20.14057,14.4599 -33.36103,14.4599c-13.15163,0 -24.3408,-4.75111 -33.5676,-14.25332c-9.2268,-9.50221 -13.84019,-20.86356 -13.84019,-34.08403c0,-7.1611 1.27386,-13.87462 3.82154,-20.14057c2.61657,-6.26594 6.09381,-11.49907 10.43178,-15.69932c4.33797,-4.26912 9.33008,-7.60865 14.97631,-10.01864c5.64623,-2.47884 11.46463,-3.71826 17.45515,-3.71826zM248.06488,180.25823c0,6.61024 2.10014,11.98105 6.30038,16.11245c4.26912,4.06255 8.98578,6.09381 14.15004,6.09381c5.16424,0 9.84651,-1.96241 14.04675,-5.88725c4.20025,-3.99367 6.30038,-9.36449 6.30038,-16.11245c0,-6.81681 -2.13454,-12.25647 -6.40366,-16.31903c-4.20025,-4.06255 -8.8825,-6.09381 -14.04675,-6.09381c-5.16424,0 -9.84651,2.0657 -14.04675,6.1971c-4.20025,4.06255 -6.30038,9.39893 -6.30038,16.00917zM320.29718,205.14989c1.1017,-2.0657 2.71985,-3.44284 4.85439,-4.1314c2.13454,-0.75743 5.19869,-1.13614 9.19236,-1.13614c4.06255,0 7.12667,1.03285 9.19236,3.09855c2.13454,1.99686 3.20183,5.02652 3.20183,9.08908v1.96241c0,2.13454 -0.10328,3.75269 -0.30986,4.85439c-0.13772,1.1017 -0.58527,2.47884 -1.3427,4.1314c-1.79028,3.23628 -5.61182,4.85439 -11.46463,4.85439c-5.78395,0 -9.70879,-1.03285 -11.77448,-3.09855c-2.0657,-2.0657 -3.09855,-5.74952 -3.09855,-11.05149c0,-3.64941 0.51643,-6.50696 1.54928,-8.57265zM339.81804,194.51154c-1.92798,0.48199 -4.30353,0.72299 -7.12667,0.72299c-2.82313,0 -5.26754,-0.24101 -7.33323,-0.72299c-1.99686,-0.55086 -3.44284,-1.58372 -4.33797,-3.09855c-0.82628,-1.51483 -1.30827,-2.7887 -1.44599,-3.82154c-0.13772,-1.1017 -0.20657,-2.54769 -0.20657,-4.33797v-39.145c0,-1.79028 0.06885,-3.23628 0.20657,-4.33797c0.13772,-1.1017 0.65415,-2.40999 1.54928,-3.92482c0.89512,-1.51483 2.34112,-2.54769 4.33797,-3.09855c2.0657,-0.55086 4.5101,-0.82628 7.33323,-0.82628c2.82313,0 5.23309,0.30986 7.22995,0.92957c2.0657,0.55086 3.51169,1.58372 4.33797,3.09855c0.82628,1.51483 1.30827,2.82313 1.44599,3.92482c0.20657,1.03285 0.30986,2.51327 0.30986,4.44125v39.0417c0,1.85913 -0.10328,3.33956 -0.30986,4.44125c-0.13772,1.03285 -0.68856,2.27227 -1.65256,3.71826c-0.89512,1.44599 -2.34112,2.4444 -4.33797,2.99526z" stroke="none" stroke-width="1"/></g></g></svg>