<svg version="1.1" xmlns="http://www.w3.org/2000/svg" xmlns:xlink="http://www.w3.org/1999/xlink" width="113.13184" height="113.13184" viewBox="0,0,113.13184,113.13184"><g transform="translate(-183.43408,-123.43408)"><g data-paper-data="{&quot;isPaintingLayer&quot;:true}" fill-rule="nonzero" stroke-linejoin="miter" stroke-miterlimit="10" stroke-dasharray="" stroke-dashoffset="0" style="mix-blend-mode: normal"><path d="M183.43408,236.56592v-113.13184h113.13184v113.13184z" fill="none" stroke="none" stroke-width="0" stroke-linecap="butt"/><path d="M225.83427,225.72414c-0.80218,0 -1.45851,-0.29171 -1.96899,-0.8751c-0.43756,-0.58341 -0.65632,-1.23973 -0.65632,-1.96899c0,-0.29171 0.07292,-0.6928 0.21877,-1.20327l32.59759,-76.02457h-42.88005c-0.8751,0 -1.60435,-0.25524 -2.18776,-0.76572c-0.51048,-0.58341 -0.76572,-1.31266 -0.76572,-2.18776v-5.25062c0,-0.94803 0.25524,-1.71375 0.76572,-2.29716c0.58341,-0.58341 1.31266,-0.8751 2.18776,-0.8751h53.60006c1.02096,0 1.78667,0.29171 2.29716,0.8751c0.51048,0.58341 0.76572,1.34911 0.76572,2.29716v4.81307c0,1.1668 -0.07292,2.11483 -0.21877,2.84409c-0.14585,0.65632 -0.40108,1.42204 -0.76572,2.29716l-32.16003,75.04009c-0.36464,0.72924 -0.83864,1.45851 -1.42204,2.18776c-0.51048,0.72924 -1.31266,1.09388 -2.40653,1.09388z" fill="#ffffff" stroke="#ffffff" stroke-width="5" stroke-linecap="square"/></g></g></svg>