<svg version="1.1" xmlns="http://www.w3.org/2000/svg" xmlns:xlink="http://www.w3.org/1999/xlink" width="251.8082" height="94.55733" viewBox="0,0,251.8082,94.55733"><g transform="translate(-208.40486,-128.46668)"><g data-paper-data="{&quot;isPaintingLayer&quot;:true}" fill="#00cccc" fill-rule="nonzero" stroke="none" stroke-width="1" stroke-linecap="butt" stroke-linejoin="miter" stroke-miterlimit="10" stroke-dasharray="" stroke-dashoffset="0" style="mix-blend-mode: normal"><g><path d="M410.299,204.02501c0.85,3.81 0.01,6.71 -1.05,8.65c-2.71,5.17 -7.69,8.25 -13.39,8.25c-1.09,0 -2.23,-0.11 -3.46,-0.35h-4.47c-1.17,0 -3.37,-0.07 -8.85,-0.68c-3.25,-0.37 -6,-0.55 -8.16,-0.55h-5.44c-0.14,0.01 -0.63,0.04 -1.8,0.16c-1.83,0.19 -3.22,0.28 -4.39,0.28c-3.4,0 -6.44,-0.7 -9.03,-2.07c-0.17,-0.09 -0.33,-0.19 -0.5,-0.28c-1.74,-1.05 -5.79,-4.18 -5.79,-10.76c0,-3.55 1.32,-6.83 3.71,-9.24c1.16,-1.18 2.5,-2.14 3.97,-2.87c-3.31,-3.62 -4.31,-8.75 -2.52,-13.6c0.7,-1.85 1.73,-3.47 3.05,-4.84c-6,-2.02 -8.89,-7.09 -9.08,-11.99c-0.51,-3.77 0.96,-7.6 4.01,-10.05c3.02,-2.43 6.66,-3.85 10.52,-4.13c0.25,-0.01 0.51,-0.02 0.77,-0.02h3.07c6.61,-0.12 17.83,-1.75 33.34,-4.85c2,-0.45 4.07,-0.37 6.27,0.26c1.02,0.29 3.33,0.96 5.4,2.99c0.44,0.43 0.83,0.89 1.19,1.38c1.38,1.9 2.33,4.04 2.83,6.36c0.21,1.01 0.28,2.03 0.21,3.05c-0.12,1.89 -0.05,3.98 0.21,6.21c0.33,2.7 -0.36,5.43 -1.92,7.65c-2.39,3.38 -6.04,5.52 -10.24,6.04c0.01,0.18 0.02,0.37 0.02,0.55v0.85c3.09,0.29 5.93,1.6 8.1,3.76c3.57,3.59 3.6,8.03 3.44,10.32c0.18,1.2 0.24,1.98 0.24,2.75c0,0.93 -0.09,1.95 -0.29,3.33c-0.02,0.15 -0.04,0.27 -0.06,0.39v2.67c0.03,0.13 0.06,0.25 0.09,0.38z"/><path d="M438.91467,210.03801c-3.449,0 -8.526,-1.088 -13.128,-6.269c-0.076,-0.086 -0.151,-0.172 -0.227,-0.259c-1.404,0.801 -2.985,1.382 -4.707,1.702c-1.729,0.322 -4.271,0.779 -7.614,1.365c-3.42,0.665 -5.96,0.975 -7.984,0.975c-6.808,0 -10.652,-2.98 -12.679,-5.48c-1.374,-1.694 -2.213,-3.76 -2.41,-5.932c-0.563,-6.204 2.626,-11.558 8.035,-14.086c-0.079,-1.149 -0.169,-2.451 -0.272,-3.923c-1.735,-1.627 -3.014,-3.71 -3.694,-6.104c-0.278,-0.978 -0.419,-1.99 -0.419,-3.007v-0.265c0,-1.246 0.211,-2.461 0.605,-3.601c0.287,-1.123 0.75,-2.197 1.376,-3.181c0.325,-0.511 0.673,-0.995 1.042,-1.453c-0.008,-0.088 -0.016,-0.177 -0.022,-0.265c-1.784,-0.669 -3.623,-1.739 -5.209,-3.452c-2.405,-2.6 -3.578,-5.997 -3.301,-9.568c0.661,-7.95 7.168,-11.688 12.729,-12.55c2.388,-0.458 6.752,-1.11 13.314,-1.989c1.029,-0.137 2.045,-0.129 3.026,0.012c0.621,0.028 1.998,0.08 4.969,0.158c0.195,0.005 0.391,0.016 0.585,0.031c7.113,0.566 12.132,1.9 15.793,4.199c0.068,0.042 0.135,0.085 0.202,0.129c4.316,2.843 7.401,6.877 8.921,11.667c0.011,0.036 0.022,0.071 0.033,0.107c0.64,2.091 0.844,4.411 0.64,7.289c-0.15,3.249 -0.861,5.917 -2.17,8.135c-0.759,1.344 -1.673,2.609 -2.747,3.801c0.916,2.609 1.583,5.57 2.017,8.929c0.41,-0.031 0.824,-0.047 1.242,-0.047c5.88,0 10.873,3.57 12.72,9.096c0.073,0.221 0.14,0.442 0.199,0.667c1.51,5.689 -1.337,10.658 -2.272,12.291c-1.895,3.312 -4.082,5.77 -6.682,7.506c-2.695,1.8 -6.08,2.878 -10.346,3.296c-0.569,0.054 -1.07,0.076 -1.565,0.076z"/><path d="M312.662,178.68401v4.84c0,2.87 -0.5,6.95 -1.57,12.84c-0.44,2.74 -1.28,5.56 -2.49,8.39c-0.02,0.04 -0.04,0.07 -0.05,0.11c-2.15,4.85 -5.69,9.08 -10.53,12.57c-5.16,3.71 -10.5,5.59 -15.89,5.59c-2.18,0 -4.26,-0.34 -6.21,-1c-6.91,-2.23 -12.37,-6.47 -16.22,-12.6c-0.83,-1.35 -1.65,-3.02 -2.67,-5.46c-0.02,-0.06 -0.04,-0.11 -0.07,-0.17c-1.26,-3.16 -1.93,-5.69 -2.11,-7.97c-0.03,-0.39 -0.14,-1.33 -0.5,-3.17c-0.13,-0.69 -0.2,-1.39 -0.2,-2.09v-4.28c-0.44,-1.69 -0.48,-3.5 -0.05,-5.29c0.16,-0.69 0.39,-1.36 0.67,-1.98c0,-1.22 0.21,-2.44 0.61,-3.6c0.11,-0.5 0.26,-0.99 0.44,-1.48c0.01,-0.01 0.19,-0.52 0.44,-1.93c0.3,-1.73 0.86,-3.96 1.7,-6.77c0.01,-0.03 0.02,-0.07 0.03,-0.1c1.63,-5.24 4.92,-10.21 10.06,-15.19c0.04,-0.04 0.07,-0.07 0.11,-0.1c2.6,-2.46 5.6,-4.02 8.92,-4.66c0.6,-0.11 1.21,-0.17 1.83,-0.19c0.38,-0.01 1.39,-0.07 3.04,-0.16c0.06,0 0.12,-0.01 0.18,-0.01c4.87,-0.2 9.48,0.84 13.75,3.07c4.93,2.52 8.83,6.31 11.6,11.27c1.31,2.35 2.43,5.2 3.43,8.74c1.17,4.01 1.75,7.54 1.75,10.78z"/><path d="M278.39486,153.77372c-0.04,0.17 -0.07,0.34 -0.12,0.51c-0.15,0.63 -0.46,2.12 -0.77,5.03c0,0.05 0,0.09 -0.01,0.12c1.71,6.88 -1.17,11.07 -3.08,12.98c-0.12,0.13 -0.25,0.25 -0.39,0.37c-1.87,1.7 -5.14,3.73 -10.02,3.73c-2.43,0 -4.7,-0.54 -6.68,-1.53c0.05,2.73 0.08,6.49 0.08,11.71c1.8,0.63 3.45,1.65 4.85,2.99c2.78,2.67 4.3,6.24 4.3,10.05c0,5.66 -3.26,10.58 -8.51,12.83c-0.13,0.06 -0.27,0.12 -0.4,0.17c-1.76,0.67 -3.74,1 -6.06,1c-0.84,0 -1.74,-0.04 -2.72,-0.13c-0.6,-0.03 -1.48,-0.02 -2.52,0.01c-1.89,0.21 -4.55,0.42 -8.11,0.62c-0.07,0 -0.14,0.01 -0.22,0.01c-0.47,0.02 -0.92,0.03 -1.36,0.03c-6.37,0 -11.02,-2.02 -13.83,-5.99c-0.06,-0.08 -0.11,-0.16 -0.16,-0.24c-2.86,-4.27 -2.94,-9.67 -0.22,-14.08c0.02,-0.05 0.05,-0.09 0.08,-0.14c1.73,-2.72 4.26,-4.66 7.54,-5.8c0.04,-1.93 0.03,-4.35 -0.03,-7.22c-1.63,0.68 -3.51,1.08 -5.62,1.08c-5.57,0 -10.17,-3.31 -11.77,-8.34c-0.33,-1.02 -0.64,-2.51 -1.36,-5.87c-0.03,-0.12 -0.05,-0.24 -0.07,-0.36l-1.48,-8.27c-0.05,-0.18 -0.12,-0.39 -0.2,-0.63c-0.77,-2.19 -1.13,-4.05 -1.13,-5.85c0,-2.23 0.65,-5.6 3.73,-8.96c1.55,-1.7 4.37,-3.9 8.91,-4.61c0.56,-0.09 1.13,-0.14 1.7,-0.14h11.06c0.25,0 0.5,0.01 0.75,0.03c4.22,0.15 8,0.14 11.24,-0.01c4.53,-0.2 9.05,-0.59 13.48,-1.16c0.5,-0.16 1.04,-0.32 1.62,-0.46c0.55,-0.14 1.11,-0.23 1.67,-0.29c4.26,-0.39 8.23,0.84 11.32,3.48c3.83,3.29 5.52,8.27 4.51,13.33z"/><path d="M372.00333,143.77668c0,6.5 -3.87,11.71 -9.88,13.28c-0.19,0.05 -0.39,0.1 -0.58,0.15c-0.2,1.6 -0.45,3.34 -0.74,5.24l-1.47,10.4c-0.51,4.08 -1.83,11.91 -4.04,23.94c-0.01,0.04 -0.02,0.07 -0.02,0.11c-0.57,2.93 -0.85,4.03 -1.28,5.13c-0.02,0.05 -0.04,0.09 -0.06,0.13c-1.46,3.55 -4.14,6.33 -7.74,8.04c-1.48,0.69 -3.09,1.05 -4.71,1.05c-0.31,0 -0.61,-0.01 -0.92,-0.03c-0.72,-0.06 -1.42,-0.13 -2.09,-0.19c-0.13,-0.01 -0.26,-0.02 -0.39,-0.04c-4.32,-0.54 -7.02,-2.49 -8.58,-4.17c-0.44,-0.47 -0.85,-0.96 -1.23,-1.49c-0.89,0.79 -1.78,1.38 -2.6,1.83c-0.95,0.53 -1.98,0.91 -3.05,1.13c-1.15,0.24 -2.81,0.58 -4.99,1c-1.99,0.39 -4.06,0.22 -5.96,-0.49c-1.97,-0.74 -3.8,-1.97 -5.59,-3.76c-1.26,-1.26 -2.2,-2.81 -2.73,-4.52c-1.89,-6.1 -4.33,-15.06 -7.46,-27.38c-0.02,-0.11 -0.05,-0.21 -0.07,-0.32c-0.33,-1.47 -0.84,-3.65 -1.53,-6.52c-0.47,-1.45 -1.06,-3.29 -1.76,-5.53c-3.61,-0.88 -6.1,-2.76 -7.7,-4.42c-1.52,-1.57 -3.33,-4.25 -3.66,-8.33c-0.03,-0.29 -0.04,-0.59 -0.04,-0.89c0,-3.37 1.1,-6.44 3.17,-8.9c2.16,-2.62 4.51,-4.28 7.19,-5.07c2.16,-0.69 4.66,-1.08 7.61,-1.16c1.53,-0.04 3.06,-0.03 4.55,-0.07c1.33,-0.17 3.09,-0.39 5.3,-0.65c0.31,-0.04 0.63,-0.06 0.95,-0.07c0.42,-0.02 0.83,-0.02 1.21,-0.02c2.64,0 4.76,0.29 6.66,0.93c0.06,0.01 0.11,0.03 0.17,0.05c0.97,0.34 1.88,0.78 2.72,1.29c0.9,-0.34 1.84,-0.6 2.83,-0.78c0.37,-0.06 0.74,-0.11 1.12,-0.13c1.77,-0.13 3.54,0.03 5.27,0.46c2.69,-2.9 6.53,-4.54 10.89,-4.54c1.21,0 2.61,0.16 4.69,0.52c0.1,0.01 0.2,0.03 0.29,0.05c0.01,0 0.01,0 0.01,0c1.32,-0.09 2.81,-0.03 5.06,0.17c1.6,0.12 3.22,0.23 4.86,0.34c3.12,0.19 5.79,0.73 8.08,1.64c0.2,0.08 0.39,0.16 0.58,0.25c4.8,2.24 7.66,6.86 7.66,12.34z"/></g></g></g></svg>