<svg version="1.1" xmlns="http://www.w3.org/2000/svg" xmlns:xlink="http://www.w3.org/1999/xlink" width="19.68383" height="19.68383" viewBox="0,0,19.68383,19.68383"><defs><linearGradient x1="240" y1="176.3457" x2="240" y2="183.6543" gradientUnits="userSpaceOnUse" id="color-1"><stop offset="0" stop-color="#ca2828"/><stop offset="1" stop-color="#d15353"/></linearGradient><linearGradient x1="239.99998" y1="176.04293" x2="239.99998" y2="183.95706" gradientUnits="userSpaceOnUse" id="color-2"><stop offset="0" stop-color="#ff6666"/><stop offset="1" stop-color="#ff3333"/></linearGradient><linearGradient x1="241.1142" y1="178.30513" x2="241.1142" y2="182.51831" gradientUnits="userSpaceOnUse" id="color-3"><stop offset="0" stop-color="#e65c5c"/><stop offset="1" stop-color="#e62e2e"/></linearGradient><linearGradient x1="241.84076" y1="179.02766" x2="241.84076" y2="181.79581" gradientUnits="userSpaceOnUse" id="color-4"><stop offset="0" stop-color="#993f3f"/><stop offset="1" stop-color="#692020"/></linearGradient></defs><g transform="translate(-230.15827,-170.15827)"><g data-paper-data="{&quot;isPaintingLayer&quot;:true}" fill-rule="nonzero" stroke-linecap="butt" stroke-linejoin="miter" stroke-miterlimit="10" stroke-dasharray="" stroke-dashoffset="0" style="mix-blend-mode: normal"><path d="M230.15827,189.8421v-19.68383h19.68383v19.68383z" fill="none" stroke="none" stroke-width="0"/><path d="M240,183.65429c-2.01822,0 -3.65429,-1.63607 -3.65429,-3.65429c0,-2.01822 1.63607,-3.65429 3.65429,-3.65429c2.01822,0 3.65429,1.63607 3.65429,3.65429c0,2.01822 -1.63607,3.65429 -3.65429,3.65429z" data-paper-data="{&quot;index&quot;:null}" fill="url(#color-1)" stroke="none" stroke-width="0"/><path d="M243.95708,180.00001c0,0.94007 -0.32781,1.80357 -0.87536,2.48244c-0.15698,0.19463 0.12819,-2.62934 -0.06236,-2.46761c-0.20505,0.17403 -0.88826,3.33095 -1.12606,3.46076c-0.56237,0.30699 -1.20745,0.48147 -1.89329,0.48147c-0.71569,0 -1.38699,-0.18999 -1.96623,-0.52229c-0.22262,-0.12771 5.11498,-3.25563 4.92227,-3.42267c-0.17662,-0.15309 -5.88616,2.65762 -6.0333,2.47585c-0.55022,-0.6797 -0.87981,-1.54533 -0.87981,-2.48795c0,-0.87474 0.28383,-1.68319 0.76442,-2.33827c0.16052,-0.2188 6.03494,2.53447 6.23612,2.35313c0.22205,-0.20015 -5.22506,-3.33046 -4.9618,-3.47666c0.56823,-0.31555 1.22229,-0.49526 1.91833,-0.49526c0.68652,0 1.33221,0.17483 1.89498,0.4824c0.25383,0.13872 0.95098,3.30785 1.16721,3.49672c0.22424,0.19587 -0.03402,-2.58678 0.14131,-2.34545c0.474,0.65243 0.75356,1.45526 0.75356,2.32339z" data-paper-data="{&quot;index&quot;:null}" fill="url(#color-2)" stroke="none" stroke-width="0"/><g data-paper-data="{&quot;index&quot;:null}"><path d="M243.4882,180.1443c0,1.31113 -1.06288,2.37401 -2.37401,2.37401c-1.31113,0 -2.37402,-1.06288 -2.37402,-2.37401c0,-0.65659 0.32574,-1.55641 0.73674,-1.77847c0.40971,-0.22136 0.9037,0.23406 1.55825,0.23406c0.68819,0 1.44827,-0.4493 1.90256,-0.19862c0.41121,0.2269 0.55046,1.12009 0.55046,1.74302z" data-paper-data="{&quot;index&quot;:null}" fill="#ffffff" stroke="url(#color-3)" stroke-width="1"/><path d="M243.48818,180.14435c0,1.31113 -1.06289,2.37401 -2.37402,2.37401c-1.31113,0 -2.37401,-1.06288 -2.37401,-2.37401c0,-0.65659 0.32574,-1.55641 0.73674,-1.77847c0.40972,-0.22136 0.9037,0.23406 1.55825,0.23406c0.68819,0 1.44827,-0.4493 1.90256,-0.19862c0.41121,0.2269 0.55046,1.12009 0.55046,1.74302z" data-paper-data="{&quot;index&quot;:null}" fill="#ffffff" stroke="#000000" stroke-width="0"/><path d="M243.34612,180.29055c0,0.83135 -0.67395,1.50531 -1.50531,1.50531c-0.83135,0 -1.50531,-0.67395 -1.50531,-1.50531c0,-0.39291 0.23904,-1.21623 0.23904,-1.21623c0,0 0.8278,0.22447 1.26627,0.22447c0.35098,0 1.32494,-0.2711 1.32494,-0.2711c0,0 0.18037,0.78243 0.18037,1.26283z" fill="url(#color-4)" stroke="none" stroke-width="0"/></g></g></g></svg>