<svg version="1.1" xmlns="http://www.w3.org/2000/svg" xmlns:xlink="http://www.w3.org/1999/xlink" width="171.59882" height="171.59882" viewBox="0,0,171.59882,171.59882"><defs><radialGradient cx="207.99998" cy="180" r="85.79941" gradientUnits="userSpaceOnUse" id="color-1"><stop offset="0" stop-color="#ffc800"/><stop offset="1" stop-color="#ffc800" stop-opacity="0"/></radialGradient><radialGradient cx="207.99998" cy="178.61144" r="37.22373" gradientUnits="userSpaceOnUse" id="color-2"><stop offset="0" stop-color="#ffac33"/><stop offset="1" stop-color="#ffbb55"/></radialGradient><radialGradient cx="207.99998" cy="179.49819" r="30.77785" gradientUnits="userSpaceOnUse" id="color-3"><stop offset="0" stop-color="#ffc433"/><stop offset="1" stop-color="#ffd56a"/></radialGradient></defs><g transform="translate(-122.20059,-94.20059)"><g data-paper-data="{&quot;isPaintingLayer&quot;:true}" fill-rule="nonzero" stroke="none" stroke-linecap="butt" stroke-linejoin="miter" stroke-miterlimit="10" stroke-dasharray="" stroke-dashoffset="0" style="mix-blend-mode: normal"><path d="M122.20059,180c0,-47.3857 38.41371,-85.79941 85.79941,-85.79941c47.3857,0 85.79941,38.41371 85.79941,85.79941c0,47.3857 -38.41371,85.79941 -85.79941,85.79941c-47.3857,0 -85.79941,-38.41371 -85.79941,-85.79941z" fill="url(#color-1)" stroke-width="0"/><g><path d="M160.7499,185.15136c0,-26.54143 21.27455,-48.05749 47.51807,-48.05749c26.24349,0 47.51803,21.5161 47.51803,48.05749c0,26.54143 -21.27455,48.05753 -47.51803,48.05753c-26.24349,0 -47.51807,-21.5161 -47.51807,-48.05753z" fill="#ffb84d" stroke-width="0"/><path d="M160.21399,178.6007c0,-26.42252 21.39452,-47.84224 47.786,-47.84224c26.39148,0 47.786,21.4197 47.786,47.84224c0,26.42252 -21.39452,47.84224 -47.786,47.84224c-26.39148,0 -47.786,-21.4197 -47.786,-47.84224z" fill="#fff75c" stroke-width="0"/><path d="M170.77625,178.61144c0,-20.5823 16.66565,-37.26754 37.22373,-37.26754c20.5581,0 37.22373,16.68526 37.22373,37.26754c0,20.5823 -16.66565,37.26759 -37.22373,37.26759c-20.5581,0 -37.22373,-16.68526 -37.22373,-37.26759z" fill="url(#color-2)" stroke-width="0"/><path d="M177.22215,179.49819c0,-17.01815 13.77971,-30.81406 30.77785,-30.81406c16.99813,0 30.77785,13.79594 30.77785,30.81406c0,17.01815 -13.77971,30.81406 -30.77785,30.81406c-16.99813,0 -30.77785,-13.79594 -30.77785,-30.81406z" fill="url(#color-3)" stroke-width="0"/><g fill="#fffcc7"><g stroke-width="0"><path d="M201.38578,198.86517v-39.0287h7.08904v39.0287z"/><path d="M201.35956,159.87832c0,-1.95149 1.58694,-3.53346 3.54453,-3.53346c1.95759,0 3.54453,1.58197 3.54453,3.53346c0,1.95149 -1.58694,3.53346 -3.54453,3.53346c-1.95759,0 -3.54453,-1.58197 -3.54453,-3.53346z"/><path d="M201.35956,198.83608c0,-1.95149 1.58694,-3.53346 3.54453,-3.53346c1.95759,0 3.54453,1.58197 3.54453,3.53346c0,1.95149 -1.58694,3.53346 -3.54453,3.53346c-1.95759,0 -3.54453,-1.58197 -3.54453,-3.53346z"/></g><path d="M210.38676,171.5242c-2.77137,0.28255 -6.01548,0.68235 -6.10054,1.69475c-0.04615,0.54923 4.05006,0.3411 7.29393,2.36422c3.5741,2.22908 6.33052,6.77619 6.33052,9.10356c0,8.07635 -7.13234,12.24818 -15.70548,12.52155c-1.57078,0.05007 -3.3274,0.31674 -4.69191,-0.46296c-3.51727,-2.00986 -3.4383,-7.35701 0,-9.32175c0.6824,-0.38994 7.5696,-1.15425 7.54068,-2.84177c-0.05717,-3.33463 -11.30882,-2.61955 -11.42116,-11.421c-0.01236,-0.96865 0.23374,-2.27929 0.4762,-3.24913c1.52633,-6.10537 8.08984,-8.23031 13.77611,-8.91649c1.59109,-0.19201 5.5679,-0.64115 6.35487,0.73606c1.57001,0.9266 2.62322,2.6356 2.62322,4.59066c0,1.73347 -0.82802,3.27356 -2.11013,4.24627c-0.16398,0.15875 -3.99603,1.0375 -4.36631,0.95606z" stroke-width="0.5"/></g></g></g></g></svg>