<svg version="1.1" xmlns="http://www.w3.org/2000/svg" xmlns:xlink="http://www.w3.org/1999/xlink" width="53.86207" height="102.10692" viewBox="0,0,53.86207,102.10692"><g transform="translate(-210.85799,-128.94654)"><g data-paper-data="{&quot;isPaintingLayer&quot;:true}" fill="#ffffff" fill-rule="nonzero" stroke="none" stroke-linecap="butt" stroke-linejoin="miter" stroke-miterlimit="10" stroke-dasharray="" stroke-dashoffset="0" style="mix-blend-mode: normal"><g stroke-width="0"><path d="M228.05918,223.27894v-86.58616h15.72721v86.58616z"/><path d="M228.00101,136.78561c0,-4.32943 3.52067,-7.83907 7.86363,-7.83907c4.34295,0 7.86363,3.50963 7.86363,7.83907c0,4.32943 -3.52067,7.83907 -7.86363,7.83907c-4.34295,0 -7.86363,-3.50963 -7.86363,-7.83907z"/><path d="M228.00101,223.21439c0,-4.32943 3.52067,-7.83907 7.86363,-7.83907c4.34295,0 7.86363,3.50963 7.86363,7.83907c0,4.32943 -3.52067,7.83907 -7.86363,7.83907c-4.34295,0 -7.86363,-3.50963 -7.86363,-7.83907z"/></g><path d="M248.02808,162.62229c-6.14835,0.62685 -13.3455,1.51381 -13.5342,3.75986c-0.10238,1.21847 8.98517,0.75674 16.18176,5.24508c7.92924,4.94526 14.04442,15.03315 14.04442,20.19648c0,17.91758 -15.82329,27.17291 -34.84301,27.77939c-3.48482,0.11109 -7.38192,0.70269 -10.40911,-1.02709c-7.80315,-4.45893 -7.62796,-16.32171 0,-20.68053c1.51392,-0.8651 16.79335,-2.56073 16.72919,-6.30454c-0.12683,-7.39797 -25.0889,-5.81154 -25.33815,-25.33778c-0.02742,-2.14899 0.51857,-5.05665 1.05646,-7.20828c3.3862,-13.54491 17.94752,-18.25915 30.56265,-19.78147c3.52988,-0.42598 12.35253,-1.42241 14.09845,1.63297c3.4831,2.05568 5.81968,5.84715 5.81968,10.18449c0,3.84576 -1.83698,7.26247 -4.68138,9.42045c-0.36379,0.35218 -8.86529,2.30172 -9.68678,2.12104z" stroke-width="0.5"/></g></g></svg>