<svg version="1.1" xmlns="http://www.w3.org/2000/svg" xmlns:xlink="http://www.w3.org/1999/xlink" width="134" height="134" viewBox="0,0,134,134"><g transform="translate(-173,-113)"><g data-paper-data="{&quot;isPaintingLayer&quot;:true}" fill-rule="nonzero" stroke-linecap="butt" stroke-linejoin="miter" stroke-miterlimit="10" stroke-dasharray="" stroke-dashoffset="0" style="mix-blend-mode: normal"><path d="M207.4131,180.35177c0.7993,-7.58716 3.1069,-11.80294 9.70327,-14.26999c1.80428,-0.6748 2.5339,2.61418 5.03683,2.16786c1.77325,-0.31622 4.93575,0.64426 7.51287,-0.69652c1.66237,-0.86488 2.68181,-4.23119 4.26338,-4.35177c2.44,-0.18605 15.46201,-0.30602 17.70169,-0.32454c12.32713,-0.10192 21.15012,2.86958 21.29702,14.81261c0.15777,12.82755 -0.56408,17.05482 -18.4636,17.40265c-2.8097,0.0546 -16.70932,0.01361 -20.42857,-0.10471c-1.92301,-0.06118 -3.42849,1.54582 -5.48437,1.91255c-3.07888,0.54922 -6.63495,-0.0587 -8.60731,-0.19757c-2.50579,-0.17643 -2.59125,-2.65335 -4.35481,-2.94315c-8.8361,-1.45202 -9.09426,-4.69449 -8.17635,-13.40743z" data-paper-data="{&quot;index&quot;:null}" fill="#4c97ff" stroke="#ffffff" stroke-width="5"/><path d="M207.41311,180.35177c0.7993,-7.58716 3.1069,-11.80294 9.70327,-14.26999c1.80428,-0.6748 2.5339,2.61418 5.03683,2.16786c1.77325,-0.31622 4.93575,0.64426 7.51287,-0.69652c1.66237,-0.86488 2.68181,-4.23119 4.26338,-4.35177c2.44,-0.18605 15.46201,-0.30602 17.70169,-0.32454c12.32713,-0.10192 21.15012,2.86958 21.29702,14.81261c0.15777,12.82755 -0.56408,17.05482 -18.4636,17.40265c-2.8097,0.0546 -16.70932,0.01361 -20.42857,-0.10471c-1.92301,-0.06118 -3.42849,1.54582 -5.48437,1.91255c-3.07888,0.54922 -6.63495,-0.0587 -8.60731,-0.19757c-2.50579,-0.17643 -2.59125,-2.65335 -4.35481,-2.94315c-8.8361,-1.45202 -9.09426,-4.69449 -8.17635,-13.40743z" data-paper-data="{&quot;index&quot;:null}" fill="#4c97ff" stroke="none" stroke-width="0"/><path d="M228.37448,188.31315c-3.16176,-0.05979 4.24821,0.13272 -1.21365,0.02942c-4.20807,-0.07958 -7.65649,-2.92666 -7.39265,-7.6296c0.27323,-4.87028 2.62885,-6.97778 6.05466,-6.91299c5.96785,0.11287 0.41254,-0.04458 3.90106,0.02141c2.83559,0.05362 6.33062,5.18464 6.30751,7.64678c-0.04657,4.96181 -4.4629,6.90539 -7.65693,6.84498z" data-paper-data="{&quot;index&quot;:null}" fill="#ffffff" stroke="none" stroke-width="0"/><path d="M257.6602,187.88458c-3.16176,-0.05979 4.24821,0.13272 -1.21365,0.02942c-4.20807,-0.07958 -7.65649,-2.92666 -7.39265,-7.6296c0.27323,-4.87028 2.62885,-6.97778 6.05466,-6.91299c5.96785,0.11287 0.41254,-0.04458 3.90106,0.02141c2.83559,0.05362 6.33062,5.18464 6.30751,7.64678c-0.04657,4.96181 -4.4629,6.90539 -7.65693,6.84498z" data-paper-data="{&quot;index&quot;:null}" fill="#ffffff" stroke="none" stroke-width="0"/><path d="M237.43427,180.95593c0,0 2.62712,-0.336 5.22907,-0.79539c2.60196,-0.45939 4.35386,-1.40794 4.35386,-1.40794c0,0 -0.03051,3.45721 -4.28065,4.71896c-2.53294,0.75198 -5.30227,-2.51568 -5.30227,-2.51568z" data-paper-data="{&quot;index&quot;:null}" fill="#ffffff" stroke="none" stroke-width="0"/><path d="M173,247v-134h134v134z" fill="none" stroke="none" stroke-width="0"/></g></g></svg>