<svg version="1.1" xmlns="http://www.w3.org/2000/svg" xmlns:xlink="http://www.w3.org/1999/xlink" width="329.10663" height="335.98273" viewBox="0,0,329.10663,335.98273"><g transform="translate(-75.44669,-12.00862)"><g data-paper-data="{&quot;isPaintingLayer&quot;:true}" stroke-miterlimit="10" stroke-dasharray="" stroke-dashoffset="0" style="mix-blend-mode: normal"><path d="M399.61143,16.95258c6.00387,5.8361 4.85361,17.62042 4.85361,17.62042l-0.76072,289.56448c0,0 1.5222,12.64725 -4.37975,18.93374c-5.90195,6.28647 -17.86103,4.75604 -17.86103,4.75604l-282.0755,-1.71747c0,0 -12.9872,0.85719 -18.94679,-5.08769c-5.95961,-5.94488 -4.92601,-18.72611 -4.92601,-18.72611l-0.01682,-288.94777c0,0 -0.26931,-10.63464 5.0376,-15.85597c5.30691,-5.22134 16.23263,-5.07128 16.23263,-5.07128l284.54233,-0.3551c0,0 12.29661,-0.94941 18.30047,4.8867z" data-paper-data="{&quot;origRot&quot;:0,&quot;index&quot;:null}" fill="#000000" fill-rule="evenodd" stroke="none" stroke-width="1" stroke-linecap="round" stroke-linejoin="round" opacity="0.42445"/><path d="M399.61143,16.95257c6.00387,5.83609 4.85362,17.62042 4.85362,17.62042l-0.76072,289.56447c0,0 1.52221,12.64725 -4.37975,18.93374c-5.90195,6.28647 -17.86103,4.75604 -17.86103,4.75604l-282.0755,-1.71748c0,0 -12.9872,0.85719 -18.94679,-5.08769c-5.95962,-5.94488 -4.92601,-18.7261 -4.92601,-18.7261l-0.01682,-288.94777c0,0 -0.26931,-10.63464 5.0376,-15.85598c5.30691,-5.22134 16.23263,-5.07128 16.23263,-5.07128l284.54233,-0.3551c0,0 12.29661,-0.94941 18.30047,4.8867z" data-paper-data="{&quot;origRot&quot;:0,&quot;index&quot;:null}" fill="#000000" fill-rule="evenodd" stroke="none" stroke-width="1" stroke-linecap="round" stroke-linejoin="round" opacity="0.42445"/><g fill="#ffffff" fill-rule="nonzero" stroke="#ffffff" stroke-width="0.5" stroke-linecap="square" stroke-linejoin="miter"><path d="M126.32025,52.83388h-4.36997l5.3973,-7.69728l-5.3973,-7.66661h4.36997l5.41263,7.66661z"/><path d="M141.39295,41.08863l0.06133,1.30332c0.85866,-1.01199 2.01887,-1.51799 3.48064,-1.51799c1.64577,0 2.76509,0.62866 3.35798,1.88599c0.38844,-0.56222 0.89444,-1.01711 1.51799,-1.36466c0.63378,-0.34755 1.37488,-0.52133 2.22332,-0.52133c2.57598,0 3.88442,1.36466 3.92531,4.09397v7.86595h-2.00865v-7.75861c0,-0.83821 -0.19422,-1.46177 -0.58266,-1.87065c-0.37822,-0.41911 -1.01711,-0.62866 -1.91665,-0.62866c-0.74622,0 -1.36466,0.22489 -1.85532,0.67466c-0.49066,0.43955 -0.77688,1.03755 -0.85866,1.79399v7.78928h-2.02399v-7.69728c0,-1.7071 -0.83311,-2.56065 -2.49932,-2.56065c-1.31866,0 -2.22332,0.56222 -2.71398,1.68665v8.57127h-2.00865v-11.74525zM158.45689,46.85392c0,-1.1551 0.22489,-2.19265 0.67466,-3.11265c0.46,-0.91999 1.09377,-1.62532 1.90132,-2.11599c0.80755,-0.50088 1.72754,-0.75133 2.75998,-0.75133c1.60488,0 2.89798,0.552 3.87931,1.65599c0.99155,1.10399 1.48732,2.57598 1.48732,4.41597v0.138c0,1.14488 -0.21978,2.17221 -0.65933,3.08198c-0.43955,0.90977 -1.06821,1.62021 -1.88599,2.13132c-0.80755,0.50088 -1.74288,0.75133 -2.80598,0.75133c-1.58444,0 -2.87243,-0.552 -3.86397,-1.65599c-0.99155,-1.10399 -1.48732,-2.57087 -1.48732,-4.40064zM160.48087,47.08392c0,1.30844 0.30155,2.3562 0.90466,3.14331c0.60311,0.78711 1.41066,1.18066 2.42265,1.18066c1.02221,0 1.83487,-0.39866 2.43798,-1.19599c0.60311,-0.79733 0.90466,-1.91665 0.90466,-3.35798c0,-1.28799 -0.30666,-2.33065 -0.91999,-3.12798c-0.61333,-0.80755 -1.42599,-1.21132 -2.43798,-1.21132c-0.99155,0 -1.79399,0.39866 -2.40732,1.19599c-0.60311,0.78711 -0.90466,1.91154 -0.90466,3.37331zM175.3898,50.10457l2.91331,-9.01594h2.03932l-4.2013,11.74525h-1.53332l-4.26264,-11.74525h2.05465zM187.01448,53.04855c-1.59466,0 -2.89287,-0.52133 -3.89464,-1.56399c-0.99155,-1.04266 -1.48732,-2.4431 -1.48732,-4.2013v-0.368c0,-1.16533 0.21978,-2.20287 0.65933,-3.11265c0.44978,-0.91999 1.07333,-1.63554 1.87065,-2.14665c0.79733,-0.52133 1.66621,-0.78199 2.60665,-0.78199c1.5231,0 2.70887,0.506 3.55731,1.51799c0.84844,1.00177 1.27266,2.43798 1.27266,4.30864v0.82799h-7.95794c0.03067,1.16533 0.368,2.10576 1.01199,2.82131c0.644,0.70533 1.46688,1.05799 2.46865,1.05799c0.70533,0 1.30332,-0.14311 1.79399,-0.42933c0.50088,-0.28622 0.93533,-0.66955 1.30332,-1.14999l1.22666,0.95066c-0.98133,1.51288 -2.45843,2.26932 -4.4313,2.26932zM186.76915,42.51462c-0.81777,0 -1.50266,0.29644 -2.05465,0.88933c-0.54178,0.59288 -0.87911,1.42088 -1.01199,2.48398h5.88796v-0.15333c-0.06133,-1.02221 -0.33733,-1.81443 -0.82799,-2.37665c-0.49066,-0.56222 -1.1551,-0.84333 -1.99332,-0.84333zM195.8033,41.08863l0.06133,1.30332c0.85866,-1.01199 2.01887,-1.51799 3.48064,-1.51799c1.64577,0 2.76509,0.62866 3.35798,1.88599c0.38844,-0.56222 0.89444,-1.01711 1.51799,-1.36466c0.63378,-0.34755 1.37488,-0.52133 2.22332,-0.52133c2.57598,0 3.88442,1.36466 3.92531,4.09397v7.86595h-2.00865v-7.75861c0,-0.83821 -0.19422,-1.46177 -0.58266,-1.87065c-0.37822,-0.41911 -1.01711,-0.62866 -1.91665,-0.62866c-0.74622,0 -1.36466,0.22489 -1.85532,0.67466c-0.49066,0.43955 -0.77688,1.03755 -0.85866,1.79399v7.78928h-2.02399v-7.69728c0,-1.7071 -0.83311,-2.56065 -2.49932,-2.56065c-1.31866,0 -2.22332,0.56222 -2.71398,1.68665v8.57127h-2.00865v-11.74525zM218.27989,53.04855c-1.59466,0 -2.89287,-0.52133 -3.89464,-1.56399c-0.99155,-1.04266 -1.48732,-2.4431 -1.48732,-4.2013v-0.368c0,-1.16533 0.21978,-2.20287 0.65933,-3.11265c0.44978,-0.91999 1.07333,-1.63554 1.87065,-2.14665c0.79733,-0.52133 1.66621,-0.78199 2.60665,-0.78199c1.5231,0 2.70887,0.506 3.55731,1.51799c0.84844,1.00177 1.27266,2.43798 1.27266,4.30864v0.82799h-7.95794c0.03067,1.16533 0.368,2.10576 1.01199,2.82131c0.644,0.70533 1.46688,1.05799 2.46865,1.05799c0.70533,0 1.30332,-0.14311 1.79399,-0.42933c0.50088,-0.28622 0.93533,-0.66955 1.30332,-1.14999l1.22666,0.95066c-0.98133,1.51288 -2.45843,2.26932 -4.4313,2.26932zM218.03456,42.51462c-0.81777,0 -1.50266,0.29644 -2.05465,0.88933c-0.54178,0.59288 -0.87911,1.42088 -1.01199,2.48398h5.88796v-0.15333c-0.06133,-1.02221 -0.33733,-1.81443 -0.82799,-2.37665c-0.49066,-0.56222 -1.1551,-0.84333 -1.99332,-0.84333zM227.08404,41.08863l0.06133,1.47199c0.89955,-1.12444 2.0751,-1.68665 3.52664,-1.68665c2.48398,0 3.73619,1.40044 3.75664,4.2013v7.75861h-2.00865v-7.77395c-0.01022,-0.84844 -0.20444,-1.47199 -0.58266,-1.87065c-0.37822,-0.40888 -0.97111,-0.61333 -1.77865,-0.61333c-0.65422,0 -1.22666,0.17378 -1.71732,0.52133c-0.49066,0.34755 -0.87399,0.80244 -1.14999,1.36466v8.37194h-2.00865v-11.74525zM240.17936,38.23665v2.85198h2.19265v1.54866h-2.19265v7.28328c0,0.47022 0.09711,0.82288 0.29133,1.05799c0.19422,0.23511 0.52644,0.35266 0.99666,0.35266c0.23511,0 0.552,-0.04089 0.95066,-0.12267v1.62532c-0.52133,0.14311 -1.03244,0.21467 -1.53332,0.21467c-0.89955,0 -1.57932,-0.27089 -2.03932,-0.81266c-0.44978,-0.54178 -0.67466,-1.31354 -0.67466,-2.31532v-7.28328h-2.14665v-1.54866h2.14665v-2.85198z"/><path d="M126.41225,74.3464l0.30666,2.08532l0.44466,-1.88599l3.12798,-11.02459h1.74799l3.05131,11.02459l0.44466,1.91665l0.33733,-2.13132l2.45332,-10.80992h2.08532l-3.83331,15.80856h-1.90132l-3.25064,-11.51525l-0.24533,-1.21132l-0.26066,1.21132l-3.37331,11.51525h-1.90132l-3.81797,-15.80856h2.08532zM150.99129,75.20506h-6.62395l-1.48732,4.12464h-2.14665l6.02596,-15.80856h1.82465l6.05662,15.80856h-2.14665zM144.996,73.48774h5.38196l-2.69865,-7.39062zM161.41633,72.29175c-1.77865,-0.52133 -3.07687,-1.1551 -3.89464,-1.90132c-0.81777,-0.74622 -1.22666,-1.67132 -1.22666,-2.77531c0,-1.2471 0.49578,-2.27443 1.48732,-3.08198c1.00177,-0.81777 2.29998,-1.22666 3.89464,-1.22666c1.08355,0 2.04954,0.20955 2.89798,0.62866c0.84844,0.41911 1.50777,1.00177 1.97799,1.74799c0.47022,0.73599 0.70533,1.53844 0.70533,2.40732h-2.10065c0,-0.95066 -0.30666,-1.69688 -0.91999,-2.23865c-0.60311,-0.552 -1.45666,-0.82799 -2.56065,-0.82799c-1.03244,0 -1.83487,0.22489 -2.40732,0.67466c-0.57244,0.44978 -0.85866,1.07844 -0.85866,1.88599c0,0.644 0.27089,1.19088 0.81266,1.64066c0.54178,0.43955 1.46688,0.84333 2.77531,1.21132c1.31866,0.368 2.3511,0.77688 3.09731,1.22666c0.74622,0.43955 1.29821,0.95577 1.65599,1.54866c0.35778,0.59288 0.53666,1.2931 0.53666,2.10065c0,1.27777 -0.50088,2.3051 -1.50266,3.08198c-1.00177,0.76666 -2.33576,1.14999 -4.00197,1.14999c-1.08355,0 -2.10065,-0.20444 -3.05131,-0.61333c-0.94044,-0.41911 -1.66621,-0.99155 -2.17732,-1.71732c-0.50088,-0.72577 -0.75133,-1.54866 -0.75133,-2.46865h2.08532c0,0.96088 0.35266,1.71732 1.05799,2.26932c0.70533,0.552 1.65088,0.82799 2.83665,0.82799c1.09377,0 1.93199,-0.22489 2.51465,-0.67466c0.59288,-0.44978 0.88933,-1.05799 0.88933,-1.82465c0,-0.77688 -0.27089,-1.37488 -0.81266,-1.79399c-0.54178,-0.42933 -1.52821,-0.84844 -2.95931,-1.25732zM169.96047,79.3297v-15.80856h4.46197c1.36977,0 2.58109,0.30666 3.63397,0.91999c1.06311,0.60311 1.88087,1.46688 2.45332,2.59132c0.57244,1.12444 0.86377,2.41243 0.87399,3.86397v1.01199c0,1.49244 -0.28622,2.80087 -0.85866,3.92531c-0.57244,1.11421 -1.39532,1.97287 -2.46865,2.57598c-1.06311,0.60311 -2.3051,0.90977 -3.72597,0.91999zM172.04579,65.23847v12.38925h2.19265c1.60488,0 2.85198,-0.50088 3.74131,-1.50266c0.89955,-1.00177 1.34932,-2.42265 1.34932,-4.26264v-0.91999c0,-1.7991 -0.42422,-3.19442 -1.27266,-4.18597c-0.83821,-1.00177 -2.03421,-1.50777 -3.58798,-1.51799zM188.4041,73.44174h-5.3053v-1.64066h5.3053zM193.63311,73.88641l-1.25732,1.31866v4.12464h-2.00865v-16.68255h2.00865v10.08926l1.07333,-1.28799l3.66464,-3.86397h2.43798l-4.5693,4.90663l5.09063,6.83862h-2.34598zM206.2791,79.54437c-1.59466,0 -2.89287,-0.52133 -3.89464,-1.56399c-0.99155,-1.04266 -1.48732,-2.4431 -1.48732,-4.2013v-0.368c0,-1.16533 0.21978,-2.20287 0.65933,-3.11265c0.44978,-0.91999 1.07333,-1.63554 1.87065,-2.14665c0.79733,-0.52133 1.66621,-0.78199 2.60665,-0.78199c1.5231,0 2.70887,0.506 3.55731,1.51799c0.84844,1.00177 1.27266,2.43798 1.27266,4.30864v0.82799h-7.95794c0.03067,1.16533 0.368,2.10576 1.01199,2.82131c0.644,0.70533 1.46688,1.05799 2.46865,1.05799c0.70533,0 1.30332,-0.14311 1.79399,-0.42933c0.50088,-0.28622 0.93533,-0.66955 1.30332,-1.14999l1.22666,0.95066c-0.98133,1.51288 -2.45843,2.26932 -4.4313,2.26932zM206.03377,69.01044c-0.81777,0 -1.50266,0.29644 -2.05465,0.88933c-0.54178,0.59288 -0.87911,1.42088 -1.01199,2.48398h5.88796v-0.15333c-0.06133,-1.02221 -0.33733,-1.81443 -0.82799,-2.37665c-0.49066,-0.56222 -1.1551,-0.84333 -1.99332,-0.84333zM216.88939,76.38572l2.72931,-8.80127h2.14665l-4.72263,13.55457c-0.72577,1.95243 -1.88599,2.92865 -3.48064,2.92865l-0.38333,-0.03067l-0.75133,-0.138v-1.62532l0.552,0.046c0.67466,0 1.2011,-0.138 1.57932,-0.414c0.38844,-0.276 0.70533,-0.78199 0.95066,-1.51799l0.44466,-1.18066l-4.18597,-11.62259h2.19265zM230.3989,76.21706c0,-0.54178 -0.20444,-0.96088 -0.61333,-1.25732c-0.40888,-0.30666 -1.12444,-0.56733 -2.14665,-0.78199c-1.01199,-0.22489 -1.81954,-0.48555 -2.42265,-0.78199c-0.59288,-0.30666 -1.03244,-0.66955 -1.31866,-1.08866c-0.28622,-0.41911 -0.42933,-0.91999 -0.42933,-1.50266c0,-0.96088 0.40888,-1.77354 1.22666,-2.43798c0.81777,-0.66444 1.86043,-0.99666 3.12798,-0.99666c1.32888,0 2.40732,0.34244 3.23531,1.02733c0.82799,0.68488 1.24199,1.56399 1.24199,2.63732h-2.02399c0,-0.552 -0.23511,-1.02733 -0.70533,-1.42599c-0.46,-0.39866 -1.04266,-0.598 -1.74799,-0.598c-0.73599,0 -1.31354,0.16355 -1.73265,0.49066c-0.40888,0.31689 -0.61333,0.73088 -0.61333,1.24199c0,0.48044 0.18911,0.84844 0.56733,1.10399c0.38844,0.24533 1.08355,0.48044 2.08532,0.70533c1.01199,0.21467 1.82465,0.48044 2.43798,0.79733c0.62355,0.30666 1.08355,0.67977 1.37999,1.11933c0.30666,0.43955 0.46,0.97621 0.46,1.60999c0,1.04266 -0.41911,1.88087 -1.25732,2.51465c-0.83821,0.63378 -1.92687,0.95066 -3.26598,0.95066c-0.94044,0 -1.77354,-0.16355 -2.49932,-0.49066c-0.72577,-0.33733 -1.2931,-0.80244 -1.70199,-1.39532c-0.40888,-0.60311 -0.61333,-1.25221 -0.61333,-1.94732h2.00865c0.04089,0.67466 0.31178,1.21132 0.81266,1.60999c0.50088,0.38844 1.16533,0.58266 1.99332,0.58266c0.75644,0 1.36466,-0.15333 1.82465,-0.46c0.46,-0.30666 0.69,-0.71555 0.69,-1.22666zM235.42292,80.69436h-1.71732l6.59329,-17.17321h1.71732zM251.43938,79.3297c-0.11245,-0.23511 -0.20444,-0.64911 -0.276,-1.24199c-0.94044,0.97111 -2.05465,1.45666 -3.34264,1.45666c-1.16533,0 -2.1211,-0.32711 -2.86731,-0.98133c-0.73599,-0.65422 -1.10399,-1.48221 -1.10399,-2.48398c0,-1.22666 0.46511,-2.17732 1.39532,-2.85198c0.93021,-0.67466 2.23865,-1.01199 3.92531,-1.01199h1.96265v-0.93533c0,-0.69511 -0.21467,-1.25221 -0.644,-1.67132c-0.41911,-0.41911 -1.03755,-0.62866 -1.85532,-0.62866c-0.71555,0 -1.31866,0.184 -1.80932,0.552c-0.48044,0.35778 -0.72066,0.79222 -0.72066,1.30332h-2.00865c0,-0.58266 0.20444,-1.14488 0.61333,-1.68665c0.41911,-0.552 0.98644,-0.98644 1.70199,-1.30332c0.71555,-0.31689 1.49754,-0.47533 2.34598,-0.47533c1.35954,0 2.42265,0.33733 3.18931,1.01199c0.76666,0.67466 1.16533,1.60488 1.19599,2.79065v5.41263c0,1.07333 0.13289,1.93199 0.39866,2.57598v0.16867zM248.11207,77.79638c0.62355,0 1.21644,-0.16355 1.77865,-0.49066c0.57244,-0.32711 0.98644,-0.75133 1.24199,-1.27266v-2.40732h-1.57932c-2.46354,0 -3.69531,0.72066 -3.69531,2.16198c0,0.63378 0.20955,1.12955 0.62866,1.48732c0.41911,0.34755 0.96088,0.52133 1.62532,0.52133zM261.95369,69.37844c-0.29644,-0.04089 -0.62355,-0.06133 -0.98133,-0.06133c-1.31866,0 -2.2131,0.55711 -2.68331,1.67132v8.34128h-2.00865v-11.74525h1.96265l0.03067,1.34932c0.65422,-1.04266 1.58444,-1.56399 2.79065,-1.56399c0.39866,0 0.69511,0.05111 0.88933,0.15333zM269.47692,69.37844c-0.29644,-0.04089 -0.62355,-0.06133 -0.98133,-0.06133c-1.31866,0 -2.2131,0.55711 -2.68331,1.67132v8.34128h-2.00865v-11.74525h1.96265l0.03067,1.34932c0.65422,-1.04266 1.58444,-1.56399 2.79065,-1.56399c0.39866,0 0.69511,0.05111 0.88933,0.15333zM270.57297,73.34974c0,-1.1551 0.22489,-2.19265 0.67466,-3.11265c0.46,-0.91999 1.09377,-1.62532 1.90132,-2.11599c0.80755,-0.50088 1.72754,-0.75133 2.75998,-0.75133c1.60488,0 2.89798,0.552 3.87931,1.65599c0.99155,1.10399 1.48732,2.57598 1.48732,4.41597v0.138c0,1.14488 -0.21978,2.17221 -0.65933,3.08198c-0.43955,0.90977 -1.06821,1.62021 -1.88599,2.13132c-0.80755,0.50088 -1.74288,0.75133 -2.80598,0.75133c-1.58444,0 -2.87243,-0.552 -3.86397,-1.65599c-0.99155,-1.10399 -1.48732,-2.57087 -1.48732,-4.40064zM272.59696,73.57974c0,1.30844 0.30155,2.3562 0.90466,3.14331c0.60311,0.78711 1.41066,1.18066 2.42265,1.18066c1.02221,0 1.83487,-0.39866 2.43798,-1.19599c0.60311,-0.79733 0.90466,-1.91665 0.90466,-3.35798c0,-1.28799 -0.30666,-2.33065 -0.91999,-3.12798c-0.61333,-0.80755 -1.42599,-1.21132 -2.43798,-1.21132c-0.99155,0 -1.79399,0.39866 -2.40732,1.19599c-0.60311,0.78711 -0.90466,1.91154 -0.90466,3.37331zM294.18545,76.55439l2.26932,-8.96994h2.00865l-3.41931,11.74525h-1.64066l-2.85198,-8.9086l-2.77534,8.9086h-1.62532l-3.41931,-11.74525h2.00865l2.31532,8.78594l2.72934,-8.78594h1.60999zM304.6829,73.44174h-5.3053v-1.64066h5.3053zM309.91195,73.88641l-1.25732,1.31866v4.12464h-2.00865v-16.68255h2.00865v10.08926l1.07333,-1.28799l3.66464,-3.86397h2.43798l-4.5693,4.90663l5.09063,6.83862h-2.34598zM322.55791,79.54437c-1.59466,0 -2.89287,-0.52133 -3.89464,-1.56399c-0.99155,-1.04266 -1.48732,-2.4431 -1.48732,-4.2013v-0.368c0,-1.16533 0.21978,-2.20287 0.65933,-3.11265c0.44978,-0.91999 1.07333,-1.63554 1.87065,-2.14665c0.79733,-0.52133 1.66621,-0.78199 2.60665,-0.78199c1.5231,0 2.70887,0.506 3.55731,1.51799c0.84844,1.00177 1.27266,2.43798 1.27266,4.30864v0.82799h-7.95794c0.03067,1.16533 0.368,2.10576 1.01199,2.82131c0.644,0.70533 1.46688,1.05799 2.46865,1.05799c0.70533,0 1.30332,-0.14311 1.79399,-0.42933c0.50088,-0.28622 0.93533,-0.66955 1.30332,-1.14999l1.22666,0.95066c-0.98133,1.51288 -2.45843,2.26932 -4.4313,2.26932zM322.31258,69.01044c-0.81777,0 -1.50266,0.29644 -2.05465,0.88933c-0.54178,0.59288 -0.87911,1.42088 -1.01199,2.48398h5.88796v-0.15333c-0.06133,-1.02221 -0.33733,-1.81443 -0.82799,-2.37665c-0.49066,-0.56222 -1.1551,-0.84333 -1.99332,-0.84333zM333.16821,76.38572l2.72931,-8.80127h2.14665l-4.72263,13.55457c-0.72577,1.95243 -1.88599,2.92865 -3.48064,2.92865l-0.38333,-0.03067l-0.75133,-0.138v-1.62532l0.552,0.046c0.67466,0 1.2011,-0.138 1.57932,-0.414c0.38844,-0.276 0.70533,-0.78199 0.95066,-1.51799l0.44466,-1.18066l-4.18597,-11.62259h2.19265zM346.67774,76.21706c0,-0.54178 -0.20444,-0.96088 -0.61333,-1.25732c-0.40888,-0.30666 -1.12444,-0.56733 -2.14665,-0.78199c-1.01199,-0.22489 -1.81954,-0.48555 -2.42265,-0.78199c-0.59288,-0.30666 -1.03244,-0.66955 -1.31866,-1.08866c-0.28622,-0.41911 -0.42933,-0.91999 -0.42933,-1.50266c0,-0.96088 0.40888,-1.77354 1.22666,-2.43798c0.81777,-0.66444 1.86043,-0.99666 3.12798,-0.99666c1.32888,0 2.40732,0.34244 3.23531,1.02733c0.82799,0.68488 1.24199,1.56399 1.24199,2.63732h-2.02399c0,-0.552 -0.23511,-1.02733 -0.70533,-1.42599c-0.46,-0.39866 -1.04266,-0.598 -1.74799,-0.598c-0.73599,0 -1.31354,0.16355 -1.73265,0.49066c-0.40888,0.31689 -0.61333,0.73088 -0.61333,1.24199c0,0.48044 0.18911,0.84844 0.56733,1.10399c0.38844,0.24533 1.08355,0.48044 2.08532,0.70533c1.01199,0.21467 1.82465,0.48044 2.43798,0.79733c0.62355,0.30666 1.08355,0.67977 1.37999,1.11933c0.30666,0.43955 0.46,0.97621 0.46,1.60999c0,1.04266 -0.41911,1.88087 -1.25732,2.51465c-0.83821,0.63378 -1.92687,0.95066 -3.26598,0.95066c-0.94044,0 -1.77354,-0.16355 -2.49932,-0.49066c-0.72577,-0.33733 -1.2931,-0.80244 -1.70199,-1.39532c-0.40888,-0.60311 -0.61333,-1.25221 -0.61333,-1.94732h2.00865c0.04089,0.67466 0.31178,1.21132 0.81266,1.60999c0.50088,0.38844 1.16533,0.58266 1.99332,0.58266c0.75644,0 1.36466,-0.15333 1.82465,-0.46c0.46,-0.30666 0.69,-0.71555 0.69,-1.22666zM351.70177,80.69436h-1.71732l6.59329,-17.17321h1.71732z"/><path d="M124.57226,94.08027l0.06133,1.30332c0.85866,-1.01199 2.01887,-1.51799 3.48064,-1.51799c1.64577,0 2.76509,0.62866 3.35798,1.88599c0.38844,-0.56222 0.89444,-1.01711 1.51799,-1.36466c0.63378,-0.34755 1.37488,-0.52133 2.22332,-0.52133c2.57598,0 3.88442,1.36466 3.92531,4.09397v7.86595h-2.00865v-7.75861c0,-0.83821 -0.19422,-1.46177 -0.58266,-1.87065c-0.37822,-0.41911 -1.01711,-0.62866 -1.91665,-0.62866c-0.74622,0 -1.36466,0.22489 -1.85532,0.67466c-0.49066,0.43955 -0.77688,1.03755 -0.85866,1.79399v7.78928h-2.02399v-7.69728c0,-1.7071 -0.83311,-2.56065 -2.49932,-2.56065c-1.31866,0 -2.22332,0.56222 -2.71398,1.68665v8.57127h-2.00865v-11.74525zM141.63622,99.84556c0,-1.1551 0.22489,-2.19265 0.67466,-3.11265c0.46,-0.91999 1.09377,-1.62532 1.90132,-2.11599c0.80755,-0.50088 1.72754,-0.75133 2.75998,-0.75133c1.60488,0 2.89798,0.552 3.87931,1.65599c0.99155,1.10399 1.48732,2.57598 1.48732,4.41597v0.138c0,1.14488 -0.21978,2.17221 -0.65933,3.08198c-0.43955,0.90977 -1.06821,1.62021 -1.88599,2.13132c-0.80755,0.50088 -1.74288,0.75133 -2.80598,0.75133c-1.58444,0 -2.87243,-0.552 -3.86397,-1.65599c-0.99155,-1.10399 -1.48732,-2.57087 -1.48732,-4.40064zM143.66021,100.07556c0,1.30844 0.30155,2.3562 0.90466,3.14331c0.60311,0.78711 1.41066,1.18066 2.42265,1.18066c1.02221,0 1.83487,-0.39866 2.43798,-1.19599c0.60311,-0.79733 0.90466,-1.91665 0.90466,-3.35798c0,-1.28799 -0.30666,-2.33065 -0.91999,-3.12798c-0.61333,-0.80755 -1.42599,-1.21132 -2.43798,-1.21132c-0.99155,0 -1.79399,0.39866 -2.40732,1.19599c-0.60311,0.78711 -0.90466,1.91154 -0.90466,3.37331zM164.80401,100.07556c0,1.7991 -0.414,3.24553 -1.24199,4.3393c-0.82799,1.08355 -1.9371,1.62532 -3.32731,1.62532c-1.48221,0 -2.62709,-0.52644 -3.43464,-1.57932l-0.10733,1.36466h-1.83999v-16.68255h2.00865v6.22529c0.80755,-1.00177 1.92177,-1.50266 3.34264,-1.50266c1.4311,0 2.55554,0.54178 3.37331,1.62532c0.81777,1.07333 1.22666,2.54532 1.22666,4.41597zM162.79536,99.8609c0,-1.36977 -0.26578,-2.42776 -0.79733,-3.17398c-0.53155,-0.74622 -1.2931,-1.11933 -2.28465,-1.11933c-1.31866,0 -2.26932,0.61333 -2.85198,1.83999v5.09063c0.61333,1.22666 1.57421,1.83999 2.88265,1.83999c0.96088,0 1.7071,-0.37311 2.23865,-1.11933c0.54178,-0.74622 0.81266,-1.86554 0.81266,-3.35798zM169.50365,105.82552h-2.00865v-11.74525h2.00865zM167.34166,90.96763c0,-0.32711 0.09711,-0.60311 0.29133,-0.82799c0.20444,-0.22489 0.50088,-0.33733 0.88933,-0.33733c0.38844,0 0.68488,0.11245 0.88933,0.33733c0.20444,0.22489 0.30666,0.50088 0.30666,0.82799c0,0.32711 -0.10222,0.598 -0.30666,0.81266c-0.20444,0.21467 -0.50088,0.322 -0.88933,0.322c-0.38844,0 -0.68488,-0.10733 -0.88933,-0.322c-0.19422,-0.21467 -0.29133,-0.48555 -0.29133,-0.81266zM174.89912,105.82552h-2.00865v-16.68255h2.00865zM182.9932,106.04019c-1.59466,0 -2.89287,-0.52133 -3.89464,-1.56399c-0.99155,-1.04266 -1.48732,-2.4431 -1.48732,-4.2013v-0.368c0,-1.16533 0.21978,-2.20287 0.65933,-3.11265c0.44978,-0.91999 1.07333,-1.63554 1.87065,-2.14665c0.79733,-0.52133 1.66621,-0.78199 2.60665,-0.78199c1.5231,0 2.70887,0.506 3.55731,1.51799c0.84844,1.00177 1.27266,2.43798 1.27266,4.30864v0.82799h-7.95794c0.03067,1.16533 0.368,2.10576 1.01199,2.82131c0.644,0.70533 1.46688,1.05799 2.46865,1.05799c0.70533,0 1.30332,-0.14311 1.79399,-0.42933c0.50088,-0.28622 0.93533,-0.66955 1.30332,-1.14999l1.22666,0.95066c-0.98133,1.51288 -2.45843,2.26932 -4.4313,2.26932zM182.74787,95.50626c-0.81777,0 -1.50266,0.29644 -2.05465,0.88933c-0.54178,0.59288 -0.87911,1.42088 -1.01199,2.48398h5.88796v-0.15333c-0.06133,-1.02221 -0.33733,-1.81443 -0.82799,-2.37665c-0.49066,-0.56222 -1.1551,-0.84333 -1.99332,-0.84333zM198.12938,91.22829v2.85198h2.19265v1.54866h-2.19265v7.28328c0,0.47022 0.09711,0.82288 0.29133,1.05799c0.19422,0.23511 0.52644,0.35266 0.99666,0.35266c0.23511,0 0.552,-0.04089 0.95066,-0.12267v1.62532c-0.52133,0.14311 -1.03244,0.21467 -1.53332,0.21467c-0.89955,0 -1.57932,-0.27089 -2.03932,-0.81266c-0.44978,-0.54178 -0.67466,-1.31354 -0.67466,-2.31532v-7.28328h-2.14665v-1.54866h2.14665v-2.85198zM209.91538,105.82552c-0.11245,-0.23511 -0.20444,-0.64911 -0.276,-1.24199c-0.94044,0.97111 -2.05465,1.45666 -3.34264,1.45666c-1.16533,0 -2.1211,-0.32711 -2.86731,-0.98133c-0.73599,-0.65422 -1.10399,-1.48221 -1.10399,-2.48398c0,-1.22666 0.46511,-2.17732 1.39532,-2.85198c0.93021,-0.67466 2.23865,-1.01199 3.92531,-1.01199h1.96265v-0.93533c0,-0.69511 -0.21467,-1.25221 -0.644,-1.67132c-0.41911,-0.41911 -1.03755,-0.62866 -1.85532,-0.62866c-0.71555,0 -1.31866,0.184 -1.80932,0.552c-0.48044,0.35778 -0.72066,0.79222 -0.72066,1.30332h-2.00865c0,-0.58266 0.20444,-1.14488 0.61333,-1.68665c0.41911,-0.552 0.98644,-0.98644 1.70199,-1.30332c0.71555,-0.31689 1.49754,-0.47533 2.34598,-0.47533c1.35954,0 2.42265,0.33733 3.18931,1.01199c0.76666,0.67466 1.16533,1.60488 1.19599,2.79065v5.41263c0,1.07333 0.13289,1.93199 0.39866,2.57598v0.16867zM206.58807,104.2922c0.62355,0 1.21644,-0.16355 1.77865,-0.49066c0.57244,-0.32711 0.98644,-0.75133 1.24199,-1.27266v-2.40732h-1.57932c-2.46354,0 -3.69531,0.72066 -3.69531,2.16198c0,0.63378 0.20955,1.12955 0.62866,1.48732c0.41911,0.34755 0.96088,0.52133 1.62532,0.52133zM224.677,100.07556c0,1.78887 -0.40888,3.2302 -1.22666,4.32397c-0.81777,1.09377 -1.92177,1.64066 -3.31198,1.64066c-1.4311,0 -2.55554,-0.44978 -3.37331,-1.34932v5.65796h-2.00865v-16.26855h1.83999l0.092,1.30332c0.81777,-1.01199 1.95243,-1.51799 3.40398,-1.51799c1.42088,0 2.5402,0.53155 3.35798,1.59466c0.81777,1.06311 1.22666,2.5402 1.22666,4.4313zM222.66835,99.8609c0,-1.32888 -0.28111,-2.37665 -0.84333,-3.14331c-0.56222,-0.76666 -1.33399,-1.14999 -2.31532,-1.14999c-1.21644,0 -2.13132,0.53666 -2.74465,1.60999v5.61196c0.60311,1.07333 1.5231,1.60999 2.75998,1.60999c0.96088,0 1.72243,-0.37822 2.28465,-1.13466c0.57244,-0.76666 0.85866,-1.90132 0.85866,-3.40398z"/><path d="M126.32025,132.32133h-4.36997l5.3973,-7.69728l-5.3973,-7.66661h4.36997l5.41263,7.66661z"/><path d="M138.9703,126.34138c0,-1.1551 0.22489,-2.19265 0.67466,-3.11265c0.46,-0.91999 1.09377,-1.62532 1.90132,-2.11599c0.80755,-0.50088 1.72754,-0.75133 2.75998,-0.75133c1.60488,0 2.89798,0.552 3.87931,1.65599c0.99155,1.10399 1.48732,2.57598 1.48732,4.41597v0.138c0,1.14488 -0.21978,2.17221 -0.65933,3.08198c-0.43955,0.90977 -1.06821,1.62021 -1.88599,2.13132c-0.80755,0.50088 -1.74288,0.75133 -2.80598,0.75133c-1.58444,0 -2.87243,-0.552 -3.86397,-1.65599c-0.99155,-1.10399 -1.48732,-2.57087 -1.48732,-4.40064zM140.99429,126.57138c0,1.30844 0.30155,2.3562 0.90466,3.14331c0.60311,0.78711 1.41066,1.18066 2.42265,1.18066c1.02221,0 1.83487,-0.39866 2.43798,-1.19599c0.60311,-0.79733 0.90466,-1.91665 0.90466,-3.35798c0,-1.28799 -0.30666,-2.33065 -0.91999,-3.12798c-0.61333,-0.80755 -1.42599,-1.21132 -2.43798,-1.21132c-0.99155,0 -1.79399,0.39866 -2.40732,1.19599c-0.60311,0.78711 -0.90466,1.91154 -0.90466,3.37331zM162.10743,126.57138c0,1.78887 -0.40888,3.2302 -1.22666,4.32397c-0.81777,1.09377 -1.92177,1.64066 -3.31198,1.64066c-1.4311,0 -2.55554,-0.44978 -3.37331,-1.34932v5.65796h-2.00865v-16.26855h1.83999l0.092,1.30332c0.81777,-1.01199 1.95243,-1.51799 3.40398,-1.51799c1.42088,0 2.5402,0.53155 3.35798,1.59466c0.81777,1.06311 1.22666,2.5402 1.22666,4.4313zM160.09877,126.35671c0,-1.32888 -0.28111,-2.37665 -0.84333,-3.14331c-0.56222,-0.76666 -1.33399,-1.14999 -2.31532,-1.14999c-1.21644,0 -2.13132,0.53666 -2.74465,1.60999v5.61196c0.60311,1.07333 1.5231,1.60999 2.75998,1.60999c0.96088,0 1.72243,-0.37822 2.28465,-1.13466c0.57244,-0.76666 0.85866,-1.90132 0.85866,-3.40398zM169.53637,132.536c-1.59466,0 -2.89287,-0.52133 -3.89464,-1.56399c-0.99155,-1.04266 -1.48732,-2.4431 -1.48732,-4.2013v-0.368c0,-1.16533 0.21978,-2.20287 0.65933,-3.11265c0.44978,-0.91999 1.07333,-1.63554 1.87065,-2.14665c0.79733,-0.52133 1.66621,-0.78199 2.60665,-0.78199c1.5231,0 2.70887,0.506 3.55731,1.51799c0.84844,1.00177 1.27266,2.43798 1.27266,4.30864v0.82799h-7.95794c0.03067,1.16533 0.368,2.10576 1.01199,2.82131c0.644,0.70533 1.46688,1.05799 2.46865,1.05799c0.70533,0 1.30332,-0.14311 1.79399,-0.42933c0.50088,-0.28622 0.93533,-0.66955 1.30332,-1.14999l1.22666,0.95066c-0.98133,1.51288 -2.45843,2.26932 -4.4313,2.26932zM169.29104,122.00208c-0.81777,0 -1.50266,0.29644 -2.05465,0.88933c-0.54178,0.59288 -0.87911,1.42088 -1.01199,2.48398h5.88796v-0.15333c-0.06133,-1.02221 -0.33733,-1.81443 -0.82799,-2.37665c-0.49066,-0.56222 -1.1551,-0.84333 -1.99332,-0.84333zM178.34055,120.57609l0.06133,1.47199c0.89955,-1.12444 2.0751,-1.68665 3.52664,-1.68665c2.48398,0 3.73619,1.40044 3.75664,4.2013v7.75861h-2.00865v-7.77395c-0.01022,-0.84844 -0.20444,-1.47199 -0.58266,-1.87065c-0.37822,-0.40888 -0.97111,-0.61333 -1.77865,-0.61333c-0.65422,0 -1.22666,0.17378 -1.71732,0.52133c-0.49066,0.34755 -0.87399,0.80244 -1.14999,1.36466v8.37194h-2.00865v-11.74525zM198.91786,130.89535c0.71555,0 1.3391,-0.21467 1.87065,-0.644c0.54178,-0.43955 0.84333,-0.98133 0.90466,-1.62532h1.90132c-0.04089,0.66444 -0.276,1.30332 -0.70533,1.91665c-0.41911,0.60311 -0.98644,1.08866 -1.70199,1.45666c-0.71555,0.35778 -1.47199,0.53666 -2.26932,0.53666c-1.59466,0 -2.86731,-0.53155 -3.81797,-1.59466c-0.94044,-1.07333 -1.41066,-2.5351 -1.41066,-4.3853v-0.33733c0,-1.14488 0.20955,-2.16198 0.62866,-3.05131c0.41911,-0.88933 1.02221,-1.57932 1.80932,-2.06999c0.78711,-0.49066 1.71732,-0.73599 2.79065,-0.73599c1.31866,0 2.41243,0.39355 3.28131,1.18066c0.86888,0.78711 1.33399,1.80932 1.39532,3.06665h-1.90132c-0.06133,-0.75644 -0.35266,-1.37999 -0.87399,-1.87065c-0.51111,-0.49066 -1.14488,-0.73599 -1.90132,-0.73599c-1.02221,0 -1.81443,0.368 -2.37665,1.10399c-0.56222,0.73599 -0.84333,1.7991 -0.84333,3.18931v0.38333c0,1.34932 0.276,2.39198 0.82799,3.12798c0.56222,0.72577 1.35954,1.08866 2.39198,1.08866zM207.85689,122.00208c0.88933,-1.09377 2.04954,-1.64066 3.48064,-1.64066c2.48398,0 3.73619,1.40044 3.75664,4.2013v7.75861h-2.00865v-7.77395c-0.01022,-0.84844 -0.20444,-1.47199 -0.58266,-1.87065c-0.37822,-0.40888 -0.97111,-0.61333 -1.77865,-0.61333c-0.65422,0 -1.22666,0.17378 -1.71732,0.52133c-0.49066,0.34755 -0.87399,0.80244 -1.14999,1.36466v8.37194h-2.00865v-16.68255h2.00865zM225.34647,132.32134c-0.11245,-0.23511 -0.20444,-0.64911 -0.276,-1.24199c-0.94044,0.97111 -2.05465,1.45666 -3.34264,1.45666c-1.16533,0 -2.1211,-0.32711 -2.86731,-0.98133c-0.73599,-0.65422 -1.10399,-1.48221 -1.10399,-2.48398c0,-1.22666 0.46511,-2.17732 1.39532,-2.85198c0.93021,-0.67466 2.23865,-1.01199 3.92531,-1.01199h1.96265v-0.93533c0,-0.69511 -0.21467,-1.25221 -0.644,-1.67132c-0.41911,-0.41911 -1.03755,-0.62866 -1.85532,-0.62866c-0.71555,0 -1.31866,0.184 -1.80932,0.552c-0.48044,0.35778 -0.72066,0.79222 -0.72066,1.30332h-2.00865c0,-0.58266 0.20444,-1.14488 0.61333,-1.68665c0.41911,-0.552 0.98644,-0.98644 1.70199,-1.30332c0.71555,-0.31689 1.49754,-0.47533 2.34598,-0.47533c1.35954,0 2.42265,0.33733 3.18931,1.01199c0.76666,0.67466 1.16533,1.60488 1.19599,2.79065v5.41263c0,1.07333 0.13289,1.93199 0.39866,2.57598v0.16867zM222.01916,130.78802c0.62355,0 1.21644,-0.16355 1.77865,-0.49066c0.57244,-0.32711 0.98644,-0.75133 1.24199,-1.27266v-2.40732h-1.57932c-2.46354,0 -3.69531,0.72066 -3.69531,2.16198c0,0.63378 0.20955,1.12955 0.62866,1.48732c0.41911,0.34755 0.96088,0.52133 1.62532,0.52133zM232.9168,117.72411v2.85198h2.19265v1.54866h-2.19265v7.28328c0,0.47022 0.09711,0.82288 0.29133,1.05799c0.19422,0.23511 0.52644,0.35266 0.99666,0.35266c0.23511,0 0.552,-0.04089 0.95066,-0.12267v1.62532c-0.52133,0.14311 -1.03244,0.21467 -1.53332,0.21467c-0.89955,0 -1.57932,-0.27089 -2.03932,-0.81266c-0.44978,-0.54178 -0.67466,-1.31354 -0.67466,-2.31532v-7.28328h-2.14665v-1.54866h2.14665v-2.85198z"/><path d="M133.92553,144.72591h-5.0753v14.09124h-2.08532v-14.09124h-5.05996v-1.71732h12.22058zM137.61859,152.92919h-5.3053v-1.64066h5.3053zM142.84758,153.37385l-1.25732,1.31866v4.12464h-2.00865v-16.68255h2.00865v10.08926l1.07333,-1.28799l3.66464,-3.86397h2.43798l-4.5693,4.90663l5.09063,6.83862h-2.34598zM155.4936,159.03181c-1.59466,0 -2.89287,-0.52133 -3.89464,-1.56399c-0.99155,-1.04266 -1.48732,-2.4431 -1.48732,-4.2013v-0.368c0,-1.16533 0.21978,-2.20287 0.65933,-3.11265c0.44978,-0.91999 1.07333,-1.63554 1.87065,-2.14665c0.79733,-0.52133 1.66621,-0.78199 2.60665,-0.78199c1.5231,0 2.70887,0.506 3.55731,1.51799c0.84844,1.00177 1.27266,2.43798 1.27266,4.30864v0.82799h-7.95794c0.03067,1.16533 0.368,2.10576 1.01199,2.82131c0.644,0.70533 1.46688,1.05799 2.46865,1.05799c0.70533,0 1.30332,-0.14311 1.79399,-0.42933c0.50088,-0.28622 0.93533,-0.66955 1.30332,-1.14999l1.22666,0.95066c-0.98133,1.51288 -2.45843,2.26932 -4.4313,2.26932zM155.24827,148.49789c-0.81777,0 -1.50266,0.29644 -2.05465,0.88933c-0.54178,0.59288 -0.87911,1.42088 -1.01199,2.48398h5.88796v-0.15333c-0.06133,-1.02221 -0.33733,-1.81443 -0.82799,-2.37665c-0.49066,-0.56222 -1.1551,-0.84333 -1.99332,-0.84333zM166.10389,155.87317l2.72931,-8.80127h2.14665l-4.72263,13.55457c-0.72577,1.95243 -1.88599,2.92865 -3.48064,2.92865l-0.38333,-0.03067l-0.75133,-0.138v-1.62532l0.552,0.046c0.67466,0 1.2011,-0.138 1.57932,-0.414c0.38844,-0.276 0.70533,-0.78199 0.95066,-1.51799l0.44466,-1.18066l-4.18597,-11.62259h2.19265zM173.17341,160.18181h-1.71732l6.59329,-17.17321h1.71732zM184.66656,144.21992v2.85198h2.19265v1.54866h-2.19265v7.28328c0,0.47022 0.09711,0.82288 0.29133,1.05799c0.19422,0.23511 0.52644,0.35266 0.99666,0.35266c0.23511,0 0.552,-0.04089 0.95066,-0.12267v1.62532c-0.52133,0.14311 -1.03244,0.21467 -1.53332,0.21467c-0.89955,0 -1.57932,-0.27089 -2.03932,-0.81266c-0.44978,-0.54178 -0.67466,-1.31354 -0.67466,-2.31532v-7.28328h-2.14665v-1.54866h2.14665v-2.85198zM196.45257,158.81715c-0.11245,-0.23511 -0.20444,-0.64911 -0.276,-1.24199c-0.94044,0.97111 -2.05465,1.45666 -3.34264,1.45666c-1.16533,0 -2.1211,-0.32711 -2.86731,-0.98133c-0.73599,-0.65422 -1.10399,-1.48221 -1.10399,-2.48398c0,-1.22666 0.46511,-2.17732 1.39532,-2.85198c0.93021,-0.67466 2.23865,-1.01199 3.92531,-1.01199h1.96265v-0.93533c0,-0.69511 -0.21467,-1.25221 -0.644,-1.67132c-0.41911,-0.41911 -1.03755,-0.62866 -1.85532,-0.62866c-0.71555,0 -1.31866,0.184 -1.80932,0.552c-0.48044,0.35778 -0.72066,0.79222 -0.72066,1.30332h-2.00865c0,-0.58266 0.20444,-1.14488 0.61333,-1.68665c0.41911,-0.552 0.98644,-0.98644 1.70199,-1.30332c0.71555,-0.31689 1.49754,-0.47533 2.34598,-0.47533c1.35954,0 2.42265,0.33733 3.18931,1.01199c0.76666,0.67466 1.16533,1.60488 1.19599,2.79065v5.41263c0,1.07333 0.13289,1.93199 0.39866,2.57598v0.16867zM193.12526,157.28383c0.62355,0 1.21644,-0.16355 1.77865,-0.49066c0.57244,-0.32711 0.98644,-0.75133 1.24199,-1.27266v-2.40732h-1.57932c-2.46354,0 -3.69531,0.72066 -3.69531,2.16198c0,0.63378 0.20955,1.12955 0.62866,1.48732c0.41911,0.34755 0.96088,0.52133 1.62532,0.52133zM211.21419,153.06719c0,1.78887 -0.40888,3.2302 -1.22666,4.32397c-0.81777,1.09377 -1.92177,1.64066 -3.31198,1.64066c-1.4311,0 -2.55554,-0.44978 -3.37331,-1.34932v5.65796h-2.00865v-16.26855h1.83999l0.092,1.30332c0.81777,-1.01199 1.95243,-1.51799 3.40398,-1.51799c1.42088,0 2.5402,0.53155 3.35798,1.59466c0.81777,1.06311 1.22666,2.5402 1.22666,4.4313zM209.20553,152.85252c0,-1.32888 -0.28111,-2.37665 -0.84333,-3.14331c-0.56222,-0.76666 -1.33399,-1.14999 -2.31532,-1.14999c-1.21644,0 -2.13132,0.53666 -2.74465,1.60999v5.61196c0.60311,1.07333 1.5231,1.60999 2.75998,1.60999c0.96088,0 1.72243,-0.37822 2.28465,-1.13466c0.57244,-0.76666 0.85866,-1.90132 0.85866,-3.40398zM218.73453,152.83719c0,-1.1551 0.22489,-2.19265 0.67466,-3.11265c0.46,-0.91999 1.09377,-1.62532 1.90132,-2.11599c0.80755,-0.50088 1.72754,-0.75133 2.75998,-0.75133c1.60488,0 2.89798,0.552 3.87931,1.65599c0.99155,1.10399 1.48732,2.57598 1.48732,4.41597v0.138c0,1.14488 -0.21978,2.17221 -0.65933,3.08198c-0.43955,0.90977 -1.06821,1.62021 -1.88599,2.13132c-0.80755,0.50088 -1.74288,0.75133 -2.80598,0.75133c-1.58444,0 -2.87243,-0.552 -3.86397,-1.65599c-0.99155,-1.10399 -1.48732,-2.57087 -1.48732,-4.40064zM220.75852,153.06719c0,1.30844 0.30155,2.3562 0.90466,3.14331c0.60311,0.78711 1.41066,1.18066 2.42265,1.18066c1.02221,0 1.83487,-0.39866 2.43798,-1.19599c0.60311,-0.79733 0.90466,-1.91665 0.90466,-3.35798c0,-1.28799 -0.30666,-2.33065 -0.91999,-3.12798c-0.61333,-0.80755 -1.42599,-1.21132 -2.43798,-1.21132c-0.99155,0 -1.79399,0.39866 -2.40732,1.19599c-0.60311,0.78711 -0.90466,1.91154 -0.90466,3.37331zM233.85238,147.0719l0.06133,1.47199c0.89955,-1.12444 2.0751,-1.68665 3.52664,-1.68665c2.48398,0 3.73619,1.40044 3.75664,4.2013v7.75861h-2.00865v-7.77395c-0.01022,-0.84844 -0.20444,-1.47199 -0.58266,-1.87065c-0.37822,-0.40888 -0.97111,-0.61333 -1.77865,-0.61333c-0.65422,0 -1.22666,0.17378 -1.71732,0.52133c-0.49066,0.34755 -0.87399,0.80244 -1.14999,1.36466v8.37194h-2.00865v-11.74525zM259.64298,153.06719c0,1.78887 -0.40888,3.2302 -1.22666,4.32397c-0.81777,1.09377 -1.92177,1.64066 -3.31198,1.64066c-1.4311,0 -2.55554,-0.44978 -3.37331,-1.34932v5.65796h-2.00865v-16.26855h1.83999l0.092,1.30332c0.81777,-1.01199 1.95243,-1.51799 3.40398,-1.51799c1.42088,0 2.5402,0.53155 3.35798,1.59466c0.81777,1.06311 1.22666,2.5402 1.22666,4.4313zM257.63433,152.85252c0,-1.32888 -0.28111,-2.37665 -0.84333,-3.14331c-0.56222,-0.76666 -1.33399,-1.14999 -2.31532,-1.14999c-1.21644,0 -2.13132,0.53666 -2.74465,1.60999v5.61196c0.60311,1.07333 1.5231,1.60999 2.75998,1.60999c0.96088,0 1.72243,-0.37822 2.28465,-1.13466c0.57244,-0.76666 0.85866,-1.90132 0.85866,-3.40398zM264.37332,158.81715h-2.00865v-16.68255h2.00865zM274.84405,158.81715c-0.11245,-0.23511 -0.20444,-0.64911 -0.276,-1.24199c-0.94044,0.97111 -2.05465,1.45666 -3.34264,1.45666c-1.16533,0 -2.1211,-0.32711 -2.86731,-0.98133c-0.73599,-0.65422 -1.10399,-1.48221 -1.10399,-2.48398c0,-1.22666 0.46511,-2.17732 1.39532,-2.85198c0.93021,-0.67466 2.23865,-1.01199 3.92531,-1.01199h1.96265v-0.93533c0,-0.69511 -0.21467,-1.25221 -0.644,-1.67132c-0.41911,-0.41911 -1.03755,-0.62866 -1.85532,-0.62866c-0.71555,0 -1.31866,0.184 -1.80932,0.552c-0.48044,0.35778 -0.72066,0.79222 -0.72066,1.30332h-2.00865c0,-0.58266 0.20444,-1.14488 0.61333,-1.68665c0.41911,-0.552 0.98644,-0.98644 1.70199,-1.30332c0.71555,-0.31689 1.49754,-0.47533 2.34598,-0.47533c1.35954,0 2.42265,0.33733 3.18931,1.01199c0.76666,0.67466 1.16533,1.60488 1.19599,2.79065v5.41263c0,1.07333 0.13289,1.93199 0.39866,2.57598v0.16867zM271.51674,157.28383c0.62355,0 1.21644,-0.16355 1.77865,-0.49066c0.57244,-0.32711 0.98644,-0.75133 1.24199,-1.27266v-2.40732h-1.57932c-2.46354,0 -3.69531,0.72066 -3.69531,2.16198c0,0.63378 0.20955,1.12955 0.62866,1.48732c0.41911,0.34755 0.96088,0.52133 1.62532,0.52133zM283.37079,155.87317l2.72931,-8.80127h2.14665l-4.72263,13.55457c-0.72577,1.95243 -1.88599,2.92865 -3.48064,2.92865l-0.38333,-0.03067l-0.75133,-0.138v-1.62532l0.552,0.046c0.67466,0 1.2011,-0.138 1.57932,-0.414c0.38844,-0.276 0.70533,-0.78199 0.95066,-1.51799l0.44466,-1.18066l-4.18597,-11.62259h2.19265zM294.77644,159.03181c-1.59466,0 -2.89287,-0.52133 -3.89464,-1.56399c-0.99155,-1.04266 -1.48732,-2.4431 -1.48732,-4.2013v-0.368c0,-1.16533 0.21978,-2.20287 0.65933,-3.11265c0.44978,-0.91999 1.07333,-1.63554 1.87065,-2.14665c0.79733,-0.52133 1.66621,-0.78199 2.60665,-0.78199c1.5231,0 2.70887,0.506 3.55731,1.51799c0.84844,1.00177 1.27266,2.43798 1.27266,4.30864v0.82799h-7.95794c0.03067,1.16533 0.368,2.10576 1.01199,2.82131c0.644,0.70533 1.46688,1.05799 2.46865,1.05799c0.70533,0 1.30332,-0.14311 1.79399,-0.42933c0.50088,-0.28622 0.93533,-0.66955 1.30332,-1.14999l1.22666,0.95066c-0.98133,1.51288 -2.45843,2.26932 -4.4313,2.26932zM294.53111,148.49789c-0.81777,0 -1.50266,0.29644 -2.05465,0.88933c-0.54178,0.59288 -0.87911,1.42088 -1.01199,2.48398h5.88796v-0.15333c-0.06133,-1.02221 -0.33733,-1.81443 -0.82799,-2.37665c-0.49066,-0.56222 -1.1551,-0.84333 -1.99332,-0.84333zM307.35256,148.86589c-0.29644,-0.04089 -0.62355,-0.06133 -0.98133,-0.06133c-1.31866,0 -2.2131,0.55711 -2.68331,1.67132v8.34128h-2.00865v-11.74525h1.96265l0.03067,1.34932c0.65422,-1.04266 1.58444,-1.56399 2.79065,-1.56399c0.39866,0 0.69511,0.05111 0.88933,0.15333z"/><path d="M126.32025,185.31296h-4.36997l5.3973,-7.69728l-5.3973,-7.66661h4.36997l5.41263,7.66661z"/><path d="M144.21427,183.88698c0.71555,0 1.3391,-0.21467 1.87065,-0.644c0.54178,-0.43955 0.84333,-0.98133 0.90466,-1.62532h1.90132c-0.04089,0.66444 -0.276,1.30332 -0.70533,1.91665c-0.41911,0.60311 -0.98644,1.08866 -1.70199,1.45666c-0.71555,0.35778 -1.47199,0.53666 -2.26932,0.53666c-1.59466,0 -2.86731,-0.53155 -3.81797,-1.59466c-0.94044,-1.07333 -1.41066,-2.5351 -1.41066,-4.3853v-0.33733c0,-1.14488 0.20955,-2.16198 0.62866,-3.05131c0.41911,-0.88933 1.02221,-1.57932 1.80932,-2.06999c0.78711,-0.49066 1.71732,-0.73599 2.79065,-0.73599c1.31866,0 2.41243,0.39355 3.28131,1.18066c0.86888,0.78711 1.33399,1.80932 1.39532,3.06665h-1.90132c-0.06133,-0.75644 -0.35266,-1.37999 -0.87399,-1.87065c-0.51111,-0.49066 -1.14488,-0.73599 -1.90132,-0.73599c-1.02221,0 -1.81443,0.368 -2.37665,1.10399c-0.56222,0.73599 -0.84333,1.7991 -0.84333,3.18931v0.38333c0,1.34932 0.276,2.39198 0.82799,3.12798c0.56222,0.72577 1.35954,1.08866 2.39198,1.08866zM153.1533,174.9937c0.88933,-1.09377 2.04954,-1.64066 3.48064,-1.64066c2.48398,0 3.73619,1.40044 3.75664,4.2013v7.75861h-2.00865v-7.77395c-0.01022,-0.84844 -0.20444,-1.47199 -0.58266,-1.87065c-0.37822,-0.40888 -0.97111,-0.61333 -1.77865,-0.61333c-0.65422,0 -1.22666,0.17378 -1.71732,0.52133c-0.49066,0.34755 -0.87399,0.80244 -1.14999,1.36466v8.37194h-2.00865v-16.68255h2.00865zM170.64288,185.31297c-0.11245,-0.23511 -0.20444,-0.64911 -0.276,-1.24199c-0.94044,0.97111 -2.05465,1.45666 -3.34264,1.45666c-1.16533,0 -2.1211,-0.32711 -2.86731,-0.98133c-0.73599,-0.65422 -1.10399,-1.48221 -1.10399,-2.48398c0,-1.22666 0.46511,-2.17732 1.39532,-2.85198c0.93021,-0.67466 2.23865,-1.01199 3.92531,-1.01199h1.96265v-0.93533c0,-0.69511 -0.21467,-1.25221 -0.644,-1.67132c-0.41911,-0.41911 -1.03755,-0.62866 -1.85532,-0.62866c-0.71555,0 -1.31866,0.184 -1.80932,0.552c-0.48044,0.35778 -0.72066,0.79222 -0.72066,1.30332h-2.00865c0,-0.58266 0.20444,-1.14488 0.61333,-1.68665c0.41911,-0.552 0.98644,-0.98644 1.70199,-1.30332c0.71555,-0.31689 1.49754,-0.47533 2.34598,-0.47533c1.35954,0 2.42265,0.33733 3.18931,1.01199c0.76666,0.67466 1.16533,1.60488 1.19599,2.79065v5.41263c0,1.07333 0.13289,1.93199 0.39866,2.57598v0.16867zM167.31557,183.77964c0.62355,0 1.21644,-0.16355 1.77865,-0.49066c0.57244,-0.32711 0.98644,-0.75133 1.24199,-1.27266v-2.40732h-1.57932c-2.46354,0 -3.69531,0.72066 -3.69531,2.16198c0,0.63378 0.20955,1.12955 0.62866,1.48732c0.41911,0.34755 0.96088,0.52133 1.62532,0.52133zM178.21321,170.71573v2.85198h2.19265v1.54866h-2.19265v7.28328c0,0.47022 0.09711,0.82288 0.29133,1.05799c0.19422,0.23511 0.52644,0.35266 0.99666,0.35266c0.23511,0 0.552,-0.04089 0.95066,-0.12267v1.62532c-0.52133,0.14311 -1.03244,0.21467 -1.53332,0.21467c-0.89955,0 -1.57932,-0.27089 -2.03932,-0.81266c-0.44978,-0.54178 -0.67466,-1.31354 -0.67466,-2.31532v-7.28328h-2.14665v-1.54866h2.14665v-2.85198z"/><path d="M129.08023,211.80878h-2.02399v-13.38591l-4.04797,1.48732v-1.82465l5.76529,-2.16198h0.30666zM139.3567,205.92082h-5.3053v-1.64066h5.3053zM148.80235,204.86282c-0.41911,0.50088 -0.91999,0.90466 -1.50266,1.21132c-0.58266,0.29644 -1.22155,0.44466 -1.91665,0.44466c-0.91999,0 -1.71732,-0.22489 -2.39198,-0.67466c-0.67466,-0.44978 -1.19599,-1.07844 -1.56399,-1.88599c-0.368,-0.81777 -0.552,-1.71732 -0.552,-2.69865c0,-1.06311 0.19933,-2.01377 0.598,-2.85198c0.39866,-0.84844 0.96599,-1.49754 1.70199,-1.94732c0.74622,-0.44978 1.60999,-0.67466 2.59132,-0.67466c1.56399,0 2.79576,0.58778 3.69531,1.76332c0.89955,1.16533 1.34932,2.75487 1.34932,4.76863v0.58266c0,3.07687 -0.60822,5.32574 -1.82465,6.74662c-1.21644,1.41066 -3.05131,2.13643 -5.50463,2.17732h-0.38333v-1.70199h0.42933c1.65599,-0.03067 2.92865,-0.46 3.81797,-1.28799c0.88933,-0.83821 1.37488,-2.16198 1.45666,-3.97131zM145.70504,204.86282c0.67466,0 1.2931,-0.20444 1.85532,-0.61333c0.57244,-0.41911 0.98644,-0.93021 1.24199,-1.53332v-0.81266c0,-1.31866 -0.28622,-2.38687 -0.85866,-3.20464c-0.57244,-0.82799 -1.2931,-1.24199 -2.16198,-1.24199c-0.88933,0 -1.59977,0.33733 -2.13132,1.01199c-0.53155,0.67466 -0.79733,1.5691 -0.79733,2.68331c0,1.07333 0.25555,1.96265 0.76666,2.66798c0.52133,0.69511 1.21644,1.04266 2.08532,1.04266zM162.57416,206.36548l-1.25732,1.31866v4.12464h-2.00865v-16.68255h2.00865v10.08926l1.07333,-1.28799l3.66464,-3.86397h2.43798l-4.5693,4.90663l5.09063,6.83862h-2.34598zM175.22019,212.02344c-1.59466,0 -2.89287,-0.52133 -3.89464,-1.56399c-0.99155,-1.04266 -1.48732,-2.4431 -1.48732,-4.2013v-0.368c0,-1.16533 0.21978,-2.20287 0.65933,-3.11265c0.44978,-0.91999 1.07333,-1.63554 1.87065,-2.14665c0.79733,-0.52133 1.66621,-0.78199 2.60665,-0.78199c1.5231,0 2.70887,0.506 3.55731,1.51799c0.84844,1.00177 1.27266,2.43798 1.27266,4.30864v0.82799h-7.95794c0.03067,1.16533 0.368,2.10576 1.01199,2.82131c0.644,0.70533 1.46688,1.05799 2.46865,1.05799c0.70533,0 1.30332,-0.14311 1.79399,-0.42933c0.50088,-0.28622 0.93533,-0.66955 1.30332,-1.14999l1.22666,0.95066c-0.98133,1.51288 -2.45843,2.26932 -4.4313,2.26932zM174.97485,201.48952c-0.81777,0 -1.50266,0.29644 -2.05465,0.88933c-0.54178,0.59288 -0.87911,1.42088 -1.01199,2.48398h5.88796v-0.15333c-0.06133,-1.02221 -0.33733,-1.81443 -0.82799,-2.37665c-0.49066,-0.56222 -1.1551,-0.84333 -1.99332,-0.84333zM185.83048,208.8648l2.72931,-8.80127h2.14665l-4.72263,13.55457c-0.72577,1.95243 -1.88599,2.92865 -3.48064,2.92865l-0.38333,-0.03067l-0.75133,-0.138v-1.62532l0.552,0.046c0.67466,0 1.2011,-0.138 1.57932,-0.414c0.38844,-0.276 0.70533,-0.78199 0.95066,-1.51799l0.44466,-1.18066l-4.18597,-11.62259h2.19265zM199.33995,208.69613c0,-0.54178 -0.20444,-0.96088 -0.61333,-1.25732c-0.40888,-0.30666 -1.12444,-0.56733 -2.14665,-0.78199c-1.01199,-0.22489 -1.81954,-0.48555 -2.42265,-0.78199c-0.59288,-0.30666 -1.03244,-0.66955 -1.31866,-1.08866c-0.28622,-0.41911 -0.42933,-0.91999 -0.42933,-1.50266c0,-0.96088 0.40888,-1.77354 1.22666,-2.43798c0.81777,-0.66444 1.86043,-0.99666 3.12798,-0.99666c1.32888,0 2.40732,0.34244 3.23531,1.02733c0.82799,0.68488 1.24199,1.56399 1.24199,2.63732h-2.02399c0,-0.552 -0.23511,-1.02733 -0.70533,-1.42599c-0.46,-0.39866 -1.04266,-0.598 -1.74799,-0.598c-0.73599,0 -1.31354,0.16355 -1.73265,0.49066c-0.40888,0.31689 -0.61333,0.73088 -0.61333,1.24199c0,0.48044 0.18911,0.84844 0.56733,1.10399c0.38844,0.24533 1.08355,0.48044 2.08532,0.70533c1.01199,0.21467 1.82465,0.48044 2.43798,0.79733c0.62355,0.30666 1.08355,0.67977 1.37999,1.11933c0.30666,0.43955 0.46,0.97621 0.46,1.60999c0,1.04266 -0.41911,1.88087 -1.25732,2.51465c-0.83821,0.63378 -1.92687,0.95066 -3.26598,0.95066c-0.94044,0 -1.77354,-0.16355 -2.49932,-0.49066c-0.72577,-0.33733 -1.2931,-0.80244 -1.70199,-1.39532c-0.40888,-0.60311 -0.61333,-1.25221 -0.61333,-1.94732h2.00865c0.04089,0.67466 0.31178,1.21132 0.81266,1.60999c0.50088,0.38844 1.16533,0.58266 1.99332,0.58266c0.75644,0 1.36466,-0.15333 1.82465,-0.46c0.46,-0.30666 0.69,-0.71555 0.69,-1.22666zM204.36398,213.17343h-1.71732l6.59329,-17.17321h1.71732zM215.01381,200.06352l0.06133,1.30332c0.85866,-1.01199 2.01887,-1.51799 3.48064,-1.51799c1.64577,0 2.76509,0.62866 3.35798,1.88599c0.38844,-0.56222 0.89444,-1.01711 1.51799,-1.36466c0.63378,-0.34755 1.37488,-0.52133 2.22332,-0.52133c2.57598,0 3.88442,1.36466 3.92531,4.09397v7.86595h-2.00865v-7.75861c0,-0.83821 -0.19422,-1.46177 -0.58266,-1.87065c-0.37822,-0.41911 -1.01711,-0.62866 -1.91665,-0.62866c-0.74622,0 -1.36466,0.22489 -1.85532,0.67466c-0.49066,0.43955 -0.77688,1.03755 -0.85866,1.79399v7.78928h-2.02399v-7.69728c0,-1.7071 -0.83311,-2.56065 -2.49932,-2.56065c-1.31866,0 -2.22332,0.56222 -2.71398,1.68665v8.57127h-2.00865v-11.74525zM232.07777,205.82882c0,-1.1551 0.22489,-2.19265 0.67466,-3.11265c0.46,-0.91999 1.09377,-1.62532 1.90132,-2.11599c0.80755,-0.50088 1.72754,-0.75133 2.75998,-0.75133c1.60488,0 2.89798,0.552 3.87931,1.65599c0.99155,1.10399 1.48732,2.57598 1.48732,4.41597v0.138c0,1.14488 -0.21978,2.17221 -0.65933,3.08198c-0.43955,0.90977 -1.06821,1.62021 -1.88599,2.13132c-0.80755,0.50088 -1.74288,0.75133 -2.80598,0.75133c-1.58444,0 -2.87243,-0.552 -3.86397,-1.65599c-0.99155,-1.10399 -1.48732,-2.57087 -1.48732,-4.40064zM234.10175,206.05882c0,1.30844 0.30155,2.3562 0.90466,3.14331c0.60311,0.78711 1.41066,1.18066 2.42265,1.18066c1.02221,0 1.83487,-0.39866 2.43798,-1.19599c0.60311,-0.79733 0.90466,-1.91665 0.90466,-3.35798c0,-1.28799 -0.30666,-2.33065 -0.91999,-3.12798c-0.61333,-0.80755 -1.42599,-1.21132 -2.43798,-1.21132c-0.99155,0 -1.79399,0.39866 -2.40732,1.19599c-0.60311,0.78711 -0.90466,1.91154 -0.90466,3.37331zM255.24556,206.05882c0,1.7991 -0.414,3.24553 -1.24199,4.3393c-0.82799,1.08355 -1.9371,1.62532 -3.32731,1.62532c-1.48221,0 -2.62709,-0.52644 -3.43464,-1.57932l-0.10733,1.36466h-1.83999v-16.68255h2.00865v6.22529c0.80755,-1.00177 1.92177,-1.50266 3.34264,-1.50266c1.4311,0 2.55554,0.54178 3.37331,1.62532c0.81777,1.07333 1.22666,2.54532 1.22666,4.41597zM253.2369,205.84415c0,-1.36977 -0.26578,-2.42776 -0.79733,-3.17398c-0.53155,-0.74622 -1.2931,-1.11933 -2.28465,-1.11933c-1.31866,0 -2.26932,0.61333 -2.85198,1.83999v5.09063c0.61333,1.22666 1.57421,1.83999 2.88265,1.83999c0.96088,0 1.7071,-0.37311 2.23865,-1.11933c0.54178,-0.74622 0.81266,-1.86554 0.81266,-3.35798zM259.94519,211.80878h-2.00865v-11.74525h2.00865zM257.7832,196.95088c0,-0.32711 0.09711,-0.60311 0.29133,-0.82799c0.20444,-0.22489 0.50088,-0.33733 0.88933,-0.33733c0.38844,0 0.68488,0.11245 0.88933,0.33733c0.20444,0.22489 0.30666,0.50088 0.30666,0.82799c0,0.32711 -0.10222,0.598 -0.30666,0.81266c-0.20444,0.21467 -0.50088,0.322 -0.88933,0.322c-0.38844,0 -0.68488,-0.10733 -0.88933,-0.322c-0.19422,-0.21467 -0.29133,-0.48555 -0.29133,-0.81266zM265.34066,211.80878h-2.00865v-16.68255h2.00865zM273.43474,212.02344c-1.59466,0 -2.89287,-0.52133 -3.89464,-1.56399c-0.99155,-1.04266 -1.48732,-2.4431 -1.48732,-4.2013v-0.368c0,-1.16533 0.21978,-2.20287 0.65933,-3.11265c0.44978,-0.91999 1.07333,-1.63554 1.87065,-2.14665c0.79733,-0.52133 1.66621,-0.78199 2.60665,-0.78199c1.5231,0 2.70887,0.506 3.55731,1.51799c0.84844,1.00177 1.27266,2.43798 1.27266,4.30864v0.82799h-7.95794c0.03067,1.16533 0.368,2.10576 1.01199,2.82131c0.644,0.70533 1.46688,1.05799 2.46865,1.05799c0.70533,0 1.30332,-0.14311 1.79399,-0.42933c0.50088,-0.28622 0.93533,-0.66955 1.30332,-1.14999l1.22666,0.95066c-0.98133,1.51288 -2.45843,2.26932 -4.4313,2.26932zM273.18941,201.48952c-0.81777,0 -1.50266,0.29644 -2.05465,0.88933c-0.54178,0.59288 -0.87911,1.42088 -1.01199,2.48398h5.88796v-0.15333c-0.06133,-1.02221 -0.33733,-1.81443 -0.82799,-2.37665c-0.49066,-0.56222 -1.1551,-0.84333 -1.99332,-0.84333zM288.57092,197.21154v2.85198h2.19265v1.54866h-2.19265v7.28328c0,0.47022 0.09711,0.82288 0.29133,1.05799c0.19422,0.23511 0.52644,0.35266 0.99666,0.35266c0.23511,0 0.552,-0.04089 0.95066,-0.12267v1.62532c-0.52133,0.14311 -1.03244,0.21467 -1.53332,0.21467c-0.89955,0 -1.57932,-0.27089 -2.03932,-0.81266c-0.44978,-0.54178 -0.67466,-1.31354 -0.67466,-2.31532v-7.28328h-2.14665v-1.54866h2.14665v-2.85198zM296.95292,208.8648l2.72931,-8.80127h2.14665l-4.72263,13.55457c-0.72577,1.95243 -1.88599,2.92865 -3.48064,2.92865l-0.38333,-0.03067l-0.75133,-0.138v-1.62532l0.552,0.046c0.67466,0 1.2011,-0.138 1.57932,-0.414c0.38844,-0.276 0.70533,-0.78199 0.95066,-1.51799l0.44466,-1.18066l-4.18597,-11.62259h2.19265zM313.54443,206.05882c0,1.78887 -0.40888,3.2302 -1.22666,4.32397c-0.81777,1.09377 -1.92177,1.64066 -3.31198,1.64066c-1.4311,0 -2.55554,-0.44978 -3.37331,-1.34932v5.65796h-2.00865v-16.26855h1.83999l0.092,1.30332c0.81777,-1.01199 1.95243,-1.51799 3.40398,-1.51799c1.42088,0 2.5402,0.53155 3.35798,1.59466c0.81777,1.06311 1.22666,2.5402 1.22666,4.4313zM311.53578,205.84415c0,-1.32888 -0.28111,-2.37665 -0.84333,-3.14331c-0.56222,-0.76666 -1.33399,-1.14999 -2.31532,-1.14999c-1.21644,0 -2.13132,0.53666 -2.74465,1.60999v5.61196c0.60311,1.07333 1.5231,1.60999 2.75998,1.60999c0.96088,0 1.72243,-0.37822 2.28465,-1.13466c0.57244,-0.76666 0.85866,-1.90132 0.85866,-3.40398zM320.97338,212.02344c-1.59466,0 -2.89287,-0.52133 -3.89464,-1.56399c-0.99155,-1.04266 -1.48732,-2.4431 -1.48732,-4.2013v-0.368c0,-1.16533 0.21978,-2.20287 0.65933,-3.11265c0.44978,-0.91999 1.07333,-1.63554 1.87065,-2.14665c0.79733,-0.52133 1.66621,-0.78199 2.60665,-0.78199c1.5231,0 2.70887,0.506 3.55731,1.51799c0.84844,1.00177 1.27266,2.43798 1.27266,4.30864v0.82799h-7.95794c0.03067,1.16533 0.368,2.10576 1.01199,2.82131c0.644,0.70533 1.46688,1.05799 2.46865,1.05799c0.70533,0 1.30332,-0.14311 1.79399,-0.42933c0.50088,-0.28622 0.93533,-0.66955 1.30332,-1.14999l1.22666,0.95066c-0.98133,1.51288 -2.45843,2.26932 -4.4313,2.26932zM320.72805,201.48952c-0.81777,0 -1.50266,0.29644 -2.05465,0.88933c-0.54178,0.59288 -0.87911,1.42088 -1.01199,2.48398h5.88796v-0.15333c-0.06133,-1.02221 -0.33733,-1.81443 -0.82799,-2.37665c-0.49066,-0.56222 -1.1551,-0.84333 -1.99332,-0.84333z"/><path d="M126.32025,238.30459h-4.36997l5.3973,-7.69728l-5.3973,-7.66661h4.36997l5.41263,7.66661z"/><path d="M144.21427,236.87861c0.71555,0 1.3391,-0.21467 1.87065,-0.644c0.54178,-0.43955 0.84333,-0.98133 0.90466,-1.62532h1.90132c-0.04089,0.66444 -0.276,1.30332 -0.70533,1.91665c-0.41911,0.60311 -0.98644,1.08866 -1.70199,1.45666c-0.71555,0.35778 -1.47199,0.53666 -2.26932,0.53666c-1.59466,0 -2.86731,-0.53155 -3.81797,-1.59466c-0.94044,-1.07333 -1.41066,-2.5351 -1.41066,-4.3853v-0.33733c0,-1.14488 0.20955,-2.16198 0.62866,-3.05131c0.41911,-0.88933 1.02221,-1.57932 1.80932,-2.06999c0.78711,-0.49066 1.71732,-0.73599 2.79065,-0.73599c1.31866,0 2.41243,0.39355 3.28131,1.18066c0.86888,0.78711 1.33399,1.80932 1.39532,3.06665h-1.90132c-0.06133,-0.75644 -0.35266,-1.37999 -0.87399,-1.87065c-0.51111,-0.49066 -1.14488,-0.73599 -1.90132,-0.73599c-1.02221,0 -1.81443,0.368 -2.37665,1.10399c-0.56222,0.73599 -0.84333,1.7991 -0.84333,3.18931v0.38333c0,1.34932 0.276,2.39198 0.82799,3.12798c0.56222,0.72577 1.35954,1.08866 2.39198,1.08866zM158.39726,238.3046c-0.11245,-0.23511 -0.20444,-0.64911 -0.276,-1.24199c-0.94044,0.97111 -2.05465,1.45666 -3.34264,1.45666c-1.16533,0 -2.1211,-0.32711 -2.86731,-0.98133c-0.73599,-0.65422 -1.10399,-1.48221 -1.10399,-2.48398c0,-1.22666 0.46511,-2.17732 1.39532,-2.85198c0.93021,-0.67466 2.23865,-1.01199 3.92531,-1.01199h1.96265v-0.93533c0,-0.69511 -0.21467,-1.25221 -0.644,-1.67132c-0.41911,-0.41911 -1.03755,-0.62866 -1.85532,-0.62866c-0.71555,0 -1.31866,0.184 -1.80932,0.552c-0.48044,0.35778 -0.72066,0.79222 -0.72066,1.30332h-2.00865c0,-0.58266 0.20444,-1.14488 0.61333,-1.68665c0.41911,-0.552 0.98644,-0.98644 1.70199,-1.30332c0.71555,-0.31689 1.49754,-0.47533 2.34598,-0.47533c1.35954,0 2.42265,0.33733 3.18931,1.01199c0.76666,0.67466 1.16533,1.60488 1.19599,2.79065v5.41263c0,1.07333 0.13289,1.93199 0.39866,2.57598v0.16867zM155.06995,236.77128c0.62355,0 1.21644,-0.16355 1.77865,-0.49066c0.57244,-0.32711 0.98644,-0.75133 1.24199,-1.27266v-2.40732h-1.57932c-2.46354,0 -3.69531,0.72066 -3.69531,2.16198c0,0.63378 0.20955,1.12955 0.62866,1.48732c0.41911,0.34755 0.96088,0.52133 1.62532,0.52133zM165.1396,226.55935l0.06133,1.47199c0.89955,-1.12444 2.0751,-1.68665 3.52664,-1.68665c2.48398,0 3.73619,1.40044 3.75664,4.2013v7.75861h-2.00865v-7.77395c-0.01022,-0.84844 -0.20444,-1.47199 -0.58266,-1.87065c-0.37822,-0.40888 -0.97111,-0.61333 -1.77865,-0.61333c-0.65422,0 -1.22666,0.17378 -1.71732,0.52133c-0.49066,0.34755 -0.87399,0.80244 -1.14999,1.36466v8.37194h-2.00865v-11.74525zM180.21291,236.87861c0.71555,0 1.3391,-0.21467 1.87065,-0.644c0.54178,-0.43955 0.84333,-0.98133 0.90466,-1.62532h1.90132c-0.04089,0.66444 -0.276,1.30332 -0.70533,1.91665c-0.41911,0.60311 -0.98644,1.08866 -1.70199,1.45666c-0.71555,0.35778 -1.47199,0.53666 -2.26932,0.53666c-1.59466,0 -2.86731,-0.53155 -3.81797,-1.59466c-0.94044,-1.07333 -1.41066,-2.5351 -1.41066,-4.3853v-0.33733c0,-1.14488 0.20955,-2.16198 0.62866,-3.05131c0.41911,-0.88933 1.02221,-1.57932 1.80932,-2.06999c0.78711,-0.49066 1.71732,-0.73599 2.79065,-0.73599c1.31866,0 2.41243,0.39355 3.28131,1.18066c0.86888,0.78711 1.33399,1.80932 1.39532,3.06665h-1.90132c-0.06133,-0.75644 -0.35266,-1.37999 -0.87399,-1.87065c-0.51111,-0.49066 -1.14488,-0.73599 -1.90132,-0.73599c-1.02221,0 -1.81443,0.368 -2.37665,1.10399c-0.56222,0.73599 -0.84333,1.7991 -0.84333,3.18931v0.38333c0,1.34932 0.276,2.39198 0.82799,3.12798c0.56222,0.72577 1.35954,1.08866 2.39198,1.08866zM192.01925,238.51926c-1.59466,0 -2.89287,-0.52133 -3.89464,-1.56399c-0.99155,-1.04266 -1.48732,-2.4431 -1.48732,-4.2013v-0.368c0,-1.16533 0.21978,-2.20287 0.65933,-3.11265c0.44978,-0.91999 1.07333,-1.63554 1.87065,-2.14665c0.79733,-0.52133 1.66621,-0.78199 2.60665,-0.78199c1.5231,0 2.70887,0.506 3.55731,1.51799c0.84844,1.00177 1.27266,2.43798 1.27266,4.30864v0.82799h-7.95794c0.03067,1.16533 0.368,2.10576 1.01199,2.82131c0.644,0.70533 1.46688,1.05799 2.46865,1.05799c0.70533,0 1.30332,-0.14311 1.79399,-0.42933c0.50088,-0.28622 0.93533,-0.66955 1.30332,-1.14999l1.22666,0.95066c-0.98133,1.51288 -2.45843,2.26932 -4.4313,2.26932zM191.77392,227.98534c-0.81777,0 -1.50266,0.29644 -2.05465,0.88933c-0.54178,0.59288 -0.87911,1.42088 -1.01199,2.48398h5.88796v-0.15333c-0.06133,-1.02221 -0.33733,-1.81443 -0.82799,-2.37665c-0.49066,-0.56222 -1.1551,-0.84333 -1.99332,-0.84333zM201.0994,238.3046h-2.00865v-16.68255h2.00865zM214.52885,236.87861c0.71555,0 1.3391,-0.21467 1.87065,-0.644c0.54178,-0.43955 0.84333,-0.98133 0.90466,-1.62532h1.90132c-0.04089,0.66444 -0.276,1.30332 -0.70533,1.91665c-0.41911,0.60311 -0.98644,1.08866 -1.70199,1.45666c-0.71555,0.35778 -1.47199,0.53666 -2.26932,0.53666c-1.59466,0 -2.86731,-0.53155 -3.81797,-1.59466c-0.94044,-1.07333 -1.41066,-2.5351 -1.41066,-4.3853v-0.33733c0,-1.14488 0.20955,-2.16198 0.62866,-3.05131c0.41911,-0.88933 1.02221,-1.57932 1.80932,-2.06999c0.78711,-0.49066 1.71732,-0.73599 2.79065,-0.73599c1.31866,0 2.41243,0.39355 3.28131,1.18066c0.86888,0.78711 1.33399,1.80932 1.39532,3.06665h-1.90132c-0.06133,-0.75644 -0.35266,-1.37999 -0.87399,-1.87065c-0.51111,-0.49066 -1.14488,-0.73599 -1.90132,-0.73599c-1.02221,0 -1.81443,0.368 -2.37665,1.10399c-0.56222,0.73599 -0.84333,1.7991 -0.84333,3.18931v0.38333c0,1.34932 0.276,2.39198 0.82799,3.12798c0.56222,0.72577 1.35954,1.08866 2.39198,1.08866zM223.46788,227.98534c0.88933,-1.09377 2.04954,-1.64066 3.48064,-1.64066c2.48398,0 3.73619,1.40044 3.75664,4.2013v7.75861h-2.00865v-7.77395c-0.01022,-0.84844 -0.20444,-1.47199 -0.58266,-1.87065c-0.37822,-0.40888 -0.97111,-0.61333 -1.77865,-0.61333c-0.65422,0 -1.22666,0.17378 -1.71732,0.52133c-0.49066,0.34755 -0.87399,0.80244 -1.14999,1.36466v8.37194h-2.00865v-16.68255h2.00865zM240.95747,238.3046c-0.11245,-0.23511 -0.20444,-0.64911 -0.276,-1.24199c-0.94044,0.97111 -2.05465,1.45666 -3.34264,1.45666c-1.16533,0 -2.1211,-0.32711 -2.86731,-0.98133c-0.73599,-0.65422 -1.10399,-1.48221 -1.10399,-2.48398c0,-1.22666 0.46511,-2.17732 1.39532,-2.85198c0.93021,-0.67466 2.23865,-1.01199 3.92531,-1.01199h1.96265v-0.93533c0,-0.69511 -0.21467,-1.25221 -0.644,-1.67132c-0.41911,-0.41911 -1.03755,-0.62866 -1.85532,-0.62866c-0.71555,0 -1.31866,0.184 -1.80932,0.552c-0.48044,0.35778 -0.72066,0.79222 -0.72066,1.30332h-2.00865c0,-0.58266 0.20444,-1.14488 0.61333,-1.68665c0.41911,-0.552 0.98644,-0.98644 1.70199,-1.30332c0.71555,-0.31689 1.49754,-0.47533 2.34598,-0.47533c1.35954,0 2.42265,0.33733 3.18931,1.01199c0.76666,0.67466 1.16533,1.60488 1.19599,2.79065v5.41263c0,1.07333 0.13289,1.93199 0.39866,2.57598v0.16867zM237.63016,236.77128c0.62355,0 1.21644,-0.16355 1.77865,-0.49066c0.57244,-0.32711 0.98644,-0.75133 1.24199,-1.27266v-2.40732h-1.57932c-2.46354,0 -3.69531,0.72066 -3.69531,2.16198c0,0.63378 0.20955,1.12955 0.62866,1.48732c0.41911,0.34755 0.96088,0.52133 1.62532,0.52133zM248.5278,223.70737v2.85198h2.19265v1.54866h-2.19265v7.28328c0,0.47022 0.09711,0.82288 0.29133,1.05799c0.19422,0.23511 0.52644,0.35266 0.99666,0.35266c0.23511,0 0.552,-0.04089 0.95066,-0.12267v1.62532c-0.52133,0.14311 -1.03244,0.21467 -1.53332,0.21467c-0.89955,0 -1.57932,-0.27089 -2.03932,-0.81266c-0.44978,-0.54178 -0.67466,-1.31354 -0.67466,-2.31532v-7.28328h-2.14665v-1.54866h2.14665v-2.85198z"/><path d="M133.92553,250.70918h-5.0753v14.09124h-2.08532v-14.09124h-5.05996v-1.71732h12.22058zM137.61859,258.91245h-5.3053v-1.64066h5.3053zM142.84758,259.35712l-1.25732,1.31866v4.12464h-2.00865v-16.68255h2.00865v10.08926l1.07333,-1.28799l3.66464,-3.86397h2.43798l-4.5693,4.90663l5.09063,6.83862h-2.34598zM155.4936,265.01508c-1.59466,0 -2.89287,-0.52133 -3.89464,-1.56399c-0.99155,-1.04266 -1.48732,-2.4431 -1.48732,-4.2013v-0.368c0,-1.16533 0.21978,-2.20287 0.65933,-3.11265c0.44978,-0.91999 1.07333,-1.63554 1.87065,-2.14665c0.79733,-0.52133 1.66621,-0.78199 2.60665,-0.78199c1.5231,0 2.70887,0.506 3.55731,1.51799c0.84844,1.00177 1.27266,2.43798 1.27266,4.30864v0.82799h-7.95794c0.03067,1.16533 0.368,2.10576 1.01199,2.82131c0.644,0.70533 1.46688,1.05799 2.46865,1.05799c0.70533,0 1.30332,-0.14311 1.79399,-0.42933c0.50088,-0.28622 0.93533,-0.66955 1.30332,-1.14999l1.22666,0.95066c-0.98133,1.51288 -2.45843,2.26932 -4.4313,2.26932zM155.24827,254.48115c-0.81777,0 -1.50266,0.29644 -2.05465,0.88933c-0.54178,0.59288 -0.87911,1.42088 -1.01199,2.48398h5.88796v-0.15333c-0.06133,-1.02221 -0.33733,-1.81443 -0.82799,-2.37665c-0.49066,-0.56222 -1.1551,-0.84333 -1.99332,-0.84333zM166.10389,261.85643l2.72931,-8.80127h2.14665l-4.72263,13.55457c-0.72577,1.95243 -1.88599,2.92865 -3.48064,2.92865l-0.38333,-0.03067l-0.75133,-0.138v-1.62532l0.552,0.046c0.67466,0 1.2011,-0.138 1.57932,-0.414c0.38844,-0.276 0.70533,-0.78199 0.95066,-1.51799l0.44466,-1.18066l-4.18597,-11.62259h2.19265zM173.17341,266.16507h-1.71732l6.59329,-17.17321h1.71732zM184.66656,250.20318v2.85198h2.19265v1.54866h-2.19265v7.28328c0,0.47022 0.09711,0.82288 0.29133,1.05799c0.19422,0.23511 0.52644,0.35266 0.99666,0.35266c0.23511,0 0.552,-0.04089 0.95066,-0.12267v1.62532c-0.52133,0.14311 -1.03244,0.21467 -1.53332,0.21467c-0.89955,0 -1.57932,-0.27089 -2.03932,-0.81266c-0.44978,-0.54178 -0.67466,-1.31354 -0.67466,-2.31532v-7.28328h-2.14665v-1.54866h2.14665v-2.85198zM196.45257,264.80041c-0.11245,-0.23511 -0.20444,-0.64911 -0.276,-1.24199c-0.94044,0.97111 -2.05465,1.45666 -3.34264,1.45666c-1.16533,0 -2.1211,-0.32711 -2.86731,-0.98133c-0.73599,-0.65422 -1.10399,-1.48221 -1.10399,-2.48398c0,-1.22666 0.46511,-2.17732 1.39532,-2.85198c0.93021,-0.67466 2.23865,-1.01199 3.92531,-1.01199h1.96265v-0.93533c0,-0.69511 -0.21467,-1.25221 -0.644,-1.67132c-0.41911,-0.41911 -1.03755,-0.62866 -1.85532,-0.62866c-0.71555,0 -1.31866,0.184 -1.80932,0.552c-0.48044,0.35778 -0.72066,0.79222 -0.72066,1.30332h-2.00865c0,-0.58266 0.20444,-1.14488 0.61333,-1.68665c0.41911,-0.552 0.98644,-0.98644 1.70199,-1.30332c0.71555,-0.31689 1.49754,-0.47533 2.34598,-0.47533c1.35954,0 2.42265,0.33733 3.18931,1.01199c0.76666,0.67466 1.16533,1.60488 1.19599,2.79065v5.41263c0,1.07333 0.13289,1.93199 0.39866,2.57598v0.16867zM193.12526,263.26709c0.62355,0 1.21644,-0.16355 1.77865,-0.49066c0.57244,-0.32711 0.98644,-0.75133 1.24199,-1.27266v-2.40732h-1.57932c-2.46354,0 -3.69531,0.72066 -3.69531,2.16198c0,0.63378 0.20955,1.12955 0.62866,1.48732c0.41911,0.34755 0.96088,0.52133 1.62532,0.52133zM211.21419,259.05045c0,1.78887 -0.40888,3.2302 -1.22666,4.32397c-0.81777,1.09377 -1.92177,1.64066 -3.31198,1.64066c-1.4311,0 -2.55554,-0.44978 -3.37331,-1.34932v5.65796h-2.00865v-16.26855h1.83999l0.092,1.30332c0.81777,-1.01199 1.95243,-1.51799 3.40398,-1.51799c1.42088,0 2.5402,0.53155 3.35798,1.59466c0.81777,1.06311 1.22666,2.5402 1.22666,4.4313zM209.20553,258.83579c0,-1.32888 -0.28111,-2.37665 -0.84333,-3.14331c-0.56222,-0.76666 -1.33399,-1.14999 -2.31532,-1.14999c-1.21644,0 -2.13132,0.53666 -2.74465,1.60999v5.61196c0.60311,1.07333 1.5231,1.60999 2.75998,1.60999c0.96088,0 1.72243,-0.37822 2.28465,-1.13466c0.57244,-0.76666 0.85866,-1.90132 0.85866,-3.40398zM226.52381,264.80041c-0.11245,-0.23511 -0.20444,-0.64911 -0.276,-1.24199c-0.94044,0.97111 -2.05465,1.45666 -3.34264,1.45666c-1.16533,0 -2.1211,-0.32711 -2.86731,-0.98133c-0.73599,-0.65422 -1.10399,-1.48221 -1.10399,-2.48398c0,-1.22666 0.46511,-2.17732 1.39532,-2.85198c0.93021,-0.67466 2.23865,-1.01199 3.92531,-1.01199h1.96265v-0.93533c0,-0.69511 -0.21467,-1.25221 -0.644,-1.67132c-0.41911,-0.41911 -1.03755,-0.62866 -1.85532,-0.62866c-0.71555,0 -1.31866,0.184 -1.80932,0.552c-0.48044,0.35778 -0.72066,0.79222 -0.72066,1.30332h-2.00865c0,-0.58266 0.20444,-1.14488 0.61333,-1.68665c0.41911,-0.552 0.98644,-0.98644 1.70199,-1.30332c0.71555,-0.31689 1.49754,-0.47533 2.34598,-0.47533c1.35954,0 2.42265,0.33733 3.18931,1.01199c0.76666,0.67466 1.16533,1.60488 1.19599,2.79065v5.41263c0,1.07333 0.13289,1.93199 0.39866,2.57598v0.16867zM223.1965,263.26709c0.62355,0 1.21644,-0.16355 1.77865,-0.49066c0.57244,-0.32711 0.98644,-0.75133 1.24199,-1.27266v-2.40732h-1.57932c-2.46354,0 -3.69531,0.72066 -3.69531,2.16198c0,0.63378 0.20955,1.12955 0.62866,1.48732c0.41911,0.34755 0.96088,0.52133 1.62532,0.52133zM233.26615,253.05516l0.06133,1.47199c0.89955,-1.12444 2.0751,-1.68665 3.52664,-1.68665c2.48398,0 3.73619,1.40044 3.75664,4.2013v7.75861h-2.00865v-7.77395c-0.01022,-0.84844 -0.20444,-1.47199 -0.58266,-1.87065c-0.37822,-0.40888 -0.97111,-0.61333 -1.77865,-0.61333c-0.65422,0 -1.22666,0.17378 -1.71732,0.52133c-0.49066,0.34755 -0.87399,0.80244 -1.14999,1.36466v8.37194h-2.00865v-11.74525zM247.4808,261.85643l2.72931,-8.80127h2.14665l-4.72263,13.55457c-0.72577,1.95243 -1.88599,2.92865 -3.48064,2.92865l-0.38333,-0.03067l-0.75133,-0.138v-1.62532l0.552,0.046c0.67466,0 1.2011,-0.138 1.57932,-0.414c0.38844,-0.276 0.70533,-0.78199 0.95066,-1.51799l0.44466,-1.18066l-4.18597,-11.62259h2.19265zM264.54758,262.0251l2.26932,-8.96994h2.00865l-3.41931,11.74525h-1.64066l-2.85198,-8.9086l-2.77531,8.9086h-1.62532l-3.41931,-11.74525h2.00865l2.31532,8.78594l2.72931,-8.78594h1.60999zM272.86777,254.48115c0.88933,-1.09377 2.04954,-1.64066 3.48064,-1.64066c2.48398,0 3.73619,1.40044 3.75664,4.2013v7.75861h-2.00865v-7.77395c-0.01022,-0.84844 -0.20444,-1.47199 -0.58266,-1.87065c-0.37822,-0.40888 -0.97111,-0.61333 -1.77865,-0.61333c-0.65422,0 -1.22666,0.17378 -1.71732,0.52133c-0.49066,0.34755 -0.87399,0.80244 -1.14999,1.36466v8.37194h-2.00865v-16.68255h2.00865zM287.98071,265.01508c-1.59466,0 -2.89287,-0.52133 -3.89464,-1.56399c-0.99155,-1.04266 -1.48732,-2.4431 -1.48732,-4.2013v-0.368c0,-1.16533 0.21978,-2.20287 0.65933,-3.11265c0.44978,-0.91999 1.07333,-1.63554 1.87065,-2.14665c0.79733,-0.52133 1.66621,-0.78199 2.60665,-0.78199c1.5231,0 2.70887,0.506 3.55731,1.51799c0.84844,1.00177 1.27266,2.43798 1.27266,4.30864v0.82799h-7.95794c0.03067,1.16533 0.368,2.10576 1.01199,2.82131c0.644,0.70533 1.46688,1.05799 2.46865,1.05799c0.70533,0 1.30332,-0.14311 1.79399,-0.42933c0.50088,-0.28622 0.93533,-0.66955 1.30332,-1.14999l1.22666,0.95066c-0.98133,1.51288 -2.45843,2.26932 -4.4313,2.26932zM287.73537,254.48115c-0.81777,0 -1.50266,0.29644 -2.05465,0.88933c-0.54178,0.59288 -0.87911,1.42088 -1.01199,2.48398h5.88796v-0.15333c-0.06133,-1.02221 -0.33733,-1.81443 -0.82799,-2.37665c-0.49066,-0.56222 -1.1551,-0.84333 -1.99332,-0.84333zM300.55683,254.84915c-0.29644,-0.04089 -0.62355,-0.06133 -0.98133,-0.06133c-1.31866,0 -2.2131,0.55711 -2.68331,1.67132v8.34128h-2.00865v-11.74525h1.96265l0.03067,1.34932c0.65422,-1.04266 1.58444,-1.56399 2.79065,-1.56399c0.39866,0 0.69511,0.05111 0.88933,0.15333zM307.07638,265.01508c-1.59466,0 -2.89287,-0.52133 -3.89464,-1.56399c-0.99155,-1.04266 -1.48732,-2.4431 -1.48732,-4.2013v-0.368c0,-1.16533 0.21978,-2.20287 0.65933,-3.11265c0.44978,-0.91999 1.07333,-1.63554 1.87065,-2.14665c0.79733,-0.52133 1.66621,-0.78199 2.60665,-0.78199c1.5231,0 2.70887,0.506 3.55731,1.51799c0.84844,1.00177 1.27266,2.43798 1.27266,4.30864v0.82799h-7.95794c0.03067,1.16533 0.368,2.10576 1.01199,2.82131c0.644,0.70533 1.46688,1.05799 2.46865,1.05799c0.70533,0 1.30332,-0.14311 1.79399,-0.42933c0.50088,-0.28622 0.93533,-0.66955 1.30332,-1.14999l1.22666,0.95066c-0.98133,1.51288 -2.45843,2.26932 -4.4313,2.26932zM306.83105,254.48115c-0.81777,0 -1.50266,0.29644 -2.05465,0.88933c-0.54178,0.59288 -0.87911,1.42088 -1.01199,2.48398h5.88796v-0.15333c-0.06133,-1.02221 -0.33733,-1.81443 -0.82799,-2.37665c-0.49066,-0.56222 -1.1551,-0.84333 -1.99332,-0.84333z"/><path d="M126.32025,291.29622h-4.36997l5.3973,-7.69728l-5.3973,-7.66661h4.36997l5.41263,7.66661z"/><path d="M141.39295,279.55098l0.06133,1.30332c0.85866,-1.01199 2.01887,-1.51799 3.48064,-1.51799c1.64577,0 2.76509,0.62866 3.35798,1.88599c0.38844,-0.56222 0.89444,-1.01711 1.51799,-1.36466c0.63378,-0.34755 1.37488,-0.52133 2.22332,-0.52133c2.57598,0 3.88442,1.36466 3.92531,4.09397v7.86595h-2.00865v-7.75861c0,-0.83821 -0.19422,-1.46177 -0.58266,-1.87065c-0.37822,-0.41911 -1.01711,-0.62866 -1.91665,-0.62866c-0.74622,0 -1.36466,0.22489 -1.85532,0.67466c-0.49066,0.43955 -0.77688,1.03755 -0.85866,1.79399v7.78928h-2.02399v-7.69728c0,-1.7071 -0.83311,-2.56065 -2.49932,-2.56065c-1.31866,0 -2.22332,0.56222 -2.71398,1.68665v8.57127h-2.00865v-11.74525zM166.24617,290.13091c-0.77688,0.91999 -1.92177,1.37999 -3.43464,1.37999c-1.25732,0 -2.2131,-0.36288 -2.86731,-1.08866c-0.65422,-0.72577 -0.98644,-1.80421 -0.99666,-3.23531v-7.63595h2.00865v7.58995c0,1.77865 0.72577,2.66798 2.17732,2.66798c1.53332,0 2.55554,-0.57244 3.06665,-1.71732v-8.54061h2.00865v11.74525h-1.91665zM173.97935,276.699v2.85198h2.19265v1.54866h-2.19265v7.28328c0,0.47022 0.09711,0.82288 0.29133,1.05799c0.19422,0.23511 0.52644,0.35266 0.99666,0.35266c0.23511,0 0.552,-0.04089 0.95066,-0.12267v1.62532c-0.52133,0.14311 -1.03244,0.21467 -1.53332,0.21467c-0.89955,0 -1.57932,-0.27089 -2.03932,-0.81266c-0.44978,-0.54178 -0.67466,-1.31354 -0.67466,-2.31532v-7.28328h-2.14665v-1.54866h2.14665v-2.85198zM183.38868,291.5109c-1.59466,0 -2.89287,-0.52133 -3.89464,-1.56399c-0.99155,-1.04266 -1.48732,-2.4431 -1.48732,-4.2013v-0.368c0,-1.16533 0.21978,-2.20287 0.65933,-3.11265c0.44978,-0.91999 1.07333,-1.63554 1.87065,-2.14665c0.79733,-0.52133 1.66621,-0.78199 2.60665,-0.78199c1.5231,0 2.70887,0.506 3.55731,1.51799c0.84844,1.00177 1.27266,2.43798 1.27266,4.30864v0.82799h-7.95794c0.03067,1.16533 0.368,2.10576 1.01199,2.82131c0.644,0.70533 1.46688,1.05799 2.46865,1.05799c0.70533,0 1.30332,-0.14311 1.79399,-0.42933c0.50088,-0.28622 0.93533,-0.66955 1.30332,-1.14999l1.22666,0.95066c-0.98133,1.51288 -2.45843,2.26932 -4.4313,2.26932zM183.14335,280.97697c-0.81777,0 -1.50266,0.29644 -2.05465,0.88933c-0.54178,0.59288 -0.87911,1.42088 -1.01199,2.48398h5.88796v-0.15333c-0.06133,-1.02221 -0.33733,-1.81443 -0.82799,-2.37665c-0.49066,-0.56222 -1.1551,-0.84333 -1.99332,-0.84333zM195.32021,285.33161c0,-1.83999 0.42422,-3.29664 1.27266,-4.36997c0.84844,-1.08355 1.96777,-1.62532 3.35798,-1.62532c1.4311,0 2.55043,0.506 3.35798,1.51799l0.092,-1.30332h1.83999v11.46925c0,1.51288 -0.44978,2.70887 -1.34932,3.58798c-0.89955,0.87911 -2.11087,1.31866 -3.63397,1.31866c-0.84844,0 -1.67643,-0.184 -2.48398,-0.552c-0.80755,-0.35778 -1.42599,-0.85355 -1.85532,-1.48732l1.04266,-1.19599c0.85866,1.06311 1.91154,1.59466 3.15864,1.59466c0.97111,0 1.72754,-0.276 2.26932,-0.82799c0.552,-0.552 0.82799,-1.32888 0.82799,-2.33065v-0.99666c-0.79733,0.91999 -1.8911,1.37999 -3.28131,1.37999c-1.37999,0 -2.4942,-0.552 -3.34264,-1.65599c-0.84844,-1.10399 -1.27266,-2.61176 -1.27266,-4.5233zM197.3442,285.54627c0,1.32888 0.27089,2.37154 0.81266,3.12798c0.54178,0.75644 1.29821,1.13466 2.26932,1.13466c1.26755,0 2.19776,-0.57755 2.79065,-1.73265v-5.3513c-0.61333,-1.12444 -1.53332,-1.68665 -2.75998,-1.68665c-0.98133,0 -1.74799,0.38333 -2.29998,1.14999c-0.54178,0.75644 -0.81266,1.87577 -0.81266,3.35798zM215.52177,291.29623c-0.11245,-0.23511 -0.20444,-0.64911 -0.276,-1.24199c-0.94044,0.97111 -2.05465,1.45666 -3.34264,1.45666c-1.16533,0 -2.1211,-0.32711 -2.86731,-0.98133c-0.73599,-0.65422 -1.10399,-1.48221 -1.10399,-2.48398c0,-1.22666 0.46511,-2.17732 1.39532,-2.85198c0.93021,-0.67466 2.23865,-1.01199 3.92531,-1.01199h1.96265v-0.93533c0,-0.69511 -0.21467,-1.25221 -0.644,-1.67132c-0.41911,-0.41911 -1.03755,-0.62866 -1.85532,-0.62866c-0.71555,0 -1.31866,0.184 -1.80932,0.552c-0.48044,0.35778 -0.72066,0.79222 -0.72066,1.30332h-2.00865c0,-0.58266 0.20444,-1.14488 0.61333,-1.68665c0.41911,-0.552 0.98644,-0.98644 1.70199,-1.30332c0.71555,-0.31689 1.49754,-0.47533 2.34598,-0.47533c1.35954,0 2.42265,0.33733 3.18931,1.01199c0.76666,0.67466 1.16533,1.60488 1.19599,2.79065v5.41263c0,1.07333 0.13289,1.93199 0.39866,2.57598v0.16867zM212.19446,289.76291c0.62355,0 1.21644,-0.16355 1.77865,-0.49066c0.57244,-0.32711 0.98644,-0.75133 1.24199,-1.27266v-2.40732h-1.57932c-2.46354,0 -3.69531,0.72066 -3.69531,2.16198c0,0.63378 0.20955,1.12955 0.62866,1.48732c0.41911,0.34755 0.96088,0.52133 1.62532,0.52133zM222.24877,279.55098l0.06133,1.30332c0.85866,-1.01199 2.01887,-1.51799 3.48064,-1.51799c1.64577,0 2.76509,0.62866 3.35798,1.88599c0.38844,-0.56222 0.89444,-1.01711 1.51799,-1.36466c0.63378,-0.34755 1.37488,-0.52133 2.22332,-0.52133c2.57598,0 3.88442,1.36466 3.92531,4.09397v7.86595h-2.00865v-7.75861c0,-0.83821 -0.19422,-1.46177 -0.58266,-1.87065c-0.37822,-0.41911 -1.01711,-0.62866 -1.91665,-0.62866c-0.74622,0 -1.36466,0.22489 -1.85532,0.67466c-0.49066,0.43955 -0.77688,1.03755 -0.85866,1.79399v7.78928h-2.02399v-7.69728c0,-1.7071 -0.83311,-2.56065 -2.49932,-2.56065c-1.31866,0 -2.22332,0.56222 -2.71398,1.68665v8.57127h-2.00865v-11.74525zM244.72533,291.5109c-1.59466,0 -2.89287,-0.52133 -3.89464,-1.56399c-0.99155,-1.04266 -1.48732,-2.4431 -1.48732,-4.2013v-0.368c0,-1.16533 0.21978,-2.20287 0.65933,-3.11265c0.44978,-0.91999 1.07333,-1.63554 1.87065,-2.14665c0.79733,-0.52133 1.66621,-0.78199 2.60665,-0.78199c1.5231,0 2.70887,0.506 3.55731,1.51799c0.84844,1.00177 1.27266,2.43798 1.27266,4.30864v0.82799h-7.95794c0.03067,1.16533 0.368,2.10576 1.01199,2.82131c0.644,0.70533 1.46688,1.05799 2.46865,1.05799c0.70533,0 1.30332,-0.14311 1.79399,-0.42933c0.50088,-0.28622 0.93533,-0.66955 1.30332,-1.14999l1.22666,0.95066c-0.98133,1.51288 -2.45843,2.26932 -4.4313,2.26932zM244.48,280.97697c-0.81777,0 -1.50266,0.29644 -2.05465,0.88933c-0.54178,0.59288 -0.87911,1.42088 -1.01199,2.48398h5.88796v-0.15333c-0.06133,-1.02221 -0.33733,-1.81443 -0.82799,-2.37665c-0.49066,-0.56222 -1.1551,-0.84333 -1.99332,-0.84333zM251.67419,290.23824c0,-0.34755 0.10222,-0.63378 0.30666,-0.85866c0.20444,-0.23511 0.51111,-0.35266 0.91999,-0.35266c0.41911,0 0.73599,0.11755 0.95066,0.35266c0.21467,0.22489 0.322,0.51111 0.322,0.85866c0,0.33733 -0.10733,0.61844 -0.322,0.84333c-0.21467,0.22489 -0.53155,0.33733 -0.95066,0.33733c-0.40888,0 -0.71555,-0.11245 -0.91999,-0.33733c-0.20444,-0.22489 -0.30666,-0.506 -0.30666,-0.84333zM251.67419,280.42498c0,-0.34755 0.10222,-0.63378 0.30666,-0.85866c0.20444,-0.23511 0.51111,-0.35266 0.91999,-0.35266c0.41911,0 0.73599,0.11755 0.95066,0.35266c0.21467,0.22489 0.322,0.51111 0.322,0.85866c0,0.33733 -0.10733,0.61844 -0.322,0.84333c-0.21467,0.22489 -0.53155,0.33733 -0.95066,0.33733c-0.40888,0 -0.71555,-0.11245 -0.91999,-0.33733c-0.20444,-0.22489 -0.30666,-0.506 -0.30666,-0.84333z"/><path d="M125.69158,301.98349l5.1673,12.89524l5.1673,-12.89524h2.71398v15.80856h-2.08532v-6.14862l0.184,-6.65462l-5.18263,12.80324h-1.59466l-5.18263,-12.77258l0.21467,6.62395v6.14862h-2.08532v-15.80856zM146.28285,311.90409h-5.3053v-1.64066h5.3053zM151.51187,312.34875l-1.25732,1.31866v4.12464h-2.00865v-16.68255h2.00865v10.08926l1.07333,-1.28799l3.66464,-3.86397h2.43798l-4.5693,4.90663l5.09063,6.83862h-2.34598zM164.15785,318.00671c-1.59466,0 -2.89287,-0.52133 -3.89464,-1.56399c-0.99155,-1.04266 -1.48732,-2.4431 -1.48732,-4.2013v-0.368c0,-1.16533 0.21978,-2.20287 0.65933,-3.11265c0.44978,-0.91999 1.07333,-1.63554 1.87065,-2.14665c0.79733,-0.52133 1.66621,-0.78199 2.60665,-0.78199c1.5231,0 2.70887,0.506 3.55731,1.51799c0.84844,1.00177 1.27266,2.43798 1.27266,4.30864v0.82799h-7.95794c0.03067,1.16533 0.368,2.10576 1.01199,2.82131c0.644,0.70533 1.46688,1.05799 2.46865,1.05799c0.70533,0 1.30332,-0.14311 1.79399,-0.42933c0.50088,-0.28622 0.93533,-0.66955 1.30332,-1.14999l1.22666,0.95066c-0.98133,1.51288 -2.45843,2.26932 -4.4313,2.26932zM163.91252,307.47278c-0.81777,0 -1.50266,0.29644 -2.05465,0.88933c-0.54178,0.59288 -0.87911,1.42088 -1.01199,2.48398h5.88796v-0.15333c-0.06133,-1.02221 -0.33733,-1.81443 -0.82799,-2.37665c-0.49066,-0.56222 -1.1551,-0.84333 -1.99332,-0.84333zM174.76815,314.84807l2.72931,-8.80127h2.14665l-4.72263,13.55457c-0.72577,1.95243 -1.88599,2.92865 -3.48064,2.92865l-0.38333,-0.03067l-0.75133,-0.138v-1.62532l0.552,0.046c0.67466,0 1.2011,-0.138 1.57932,-0.414c0.38844,-0.276 0.70533,-0.78199 0.95066,-1.51799l0.44466,-1.18066l-4.18597,-11.62259h2.19265z"/></g></g></g></svg>