<svg version="1.1" xmlns="http://www.w3.org/2000/svg" xmlns:xlink="http://www.w3.org/1999/xlink" width="508.8665" height="548.99851" viewBox="0,0,508.8665,548.99851"><defs><linearGradient x1="240" y1="-11.17072" x2="240" y2="365.58563" gradientUnits="userSpaceOnUse" id="color-1"><stop offset="0" stop-color="#2ba4d8"/><stop offset="1" stop-color="#69d2ff"/></linearGradient><radialGradient cx="274.02204" cy="176.8705" r="670.39578" gradientUnits="userSpaceOnUse" id="color-2"><stop offset="0" stop-color="#ffffff"/><stop offset="1" stop-color="#ffffff" stop-opacity="0"/></radialGradient><radialGradient cx="141.02206" cy="185.8705" r="670.39578" gradientUnits="userSpaceOnUse" id="color-3"><stop offset="0" stop-color="#ffffff"/><stop offset="1" stop-color="#ffffff" stop-opacity="0"/></radialGradient></defs><g transform="translate(14.43325,94.49921)"><g data-paper-data="{&quot;isPaintingLayer&quot;:true}" stroke-miterlimit="10" stroke-dasharray="" stroke-dashoffset="0" style="mix-blend-mode: normal"><g stroke="none"><path d="M-14.43325,365.58563v-376.75632h508.8665v376.75632z" fill="url(#color-1)" fill-rule="nonzero" stroke-width="0" stroke-linecap="butt" stroke-linejoin="miter"/><path d="M217.99102,425.11523c-17.60424,4.6508 -35.19319,9.32374 -52.76773,14.01631c-6.62972,1.7702 -13.99528,4.03201 -21.27313,6.36776l-21.6385,-1.56463l202.14377,-514.60214c16.23255,-3.83528 32.45205,-7.70247 48.65243,-11.61535c16.47232,-3.97857 32.97869,-8.05637 49.51045,-12.21638z" data-paper-data="{&quot;origRot&quot;:0,&quot;index&quot;:null}" fill="url(#color-2)" fill-rule="evenodd" stroke-width="1" stroke-linecap="round" stroke-linejoin="round" opacity="0.42445"/><path d="M84.99102,434.11523c-17.60423,4.65081 -35.19319,9.32374 -52.76773,14.01632c-6.62972,1.77019 -13.99528,4.03201 -21.27313,6.36776l-21.63851,-1.56463l202.14378,-514.60214c16.23255,-3.83528 32.45205,-7.70247 48.65243,-11.61535c16.47232,-3.97857 32.97869,-8.05637 49.51045,-12.21638z" data-paper-data="{&quot;origRot&quot;:0,&quot;index&quot;:null}" fill="url(#color-3)" fill-rule="evenodd" stroke-width="1" stroke-linecap="round" stroke-linejoin="round" opacity="0.42445"/></g><path d="M285.612,116.59809c1.42469,-2.57566 12.4591,-0.29295 24.04616,6.11473c11.58631,6.40786 19.33832,14.51435 17.91385,17.09028c-1.42453,2.57642 -11.13432,-3.81492 -22.72138,-10.2226c-11.58706,-6.40767 -20.66343,-10.40576 -19.23894,-12.98168z" data-paper-data="{&quot;index&quot;:null}" fill="#693a00" fill-rule="nonzero" stroke="none" stroke-width="0" stroke-linecap="butt" stroke-linejoin="miter"/><path d="M185.09291,118.09882c1.42448,2.57593 -7.65189,6.57401 -19.23894,12.98168c-11.58706,6.40768 -21.29685,12.79902 -22.72138,10.2226c-1.42448,-2.57593 6.32754,-10.68243 17.91385,-17.09028c11.58706,-6.40768 22.62147,-8.69039 24.04616,-6.11473z" fill="#693a00" fill-rule="nonzero" stroke="none" stroke-width="0" stroke-linecap="butt" stroke-linejoin="miter"/><path d="M226.84996,166.2335c0,10.18957 -1.79468,18.44984 -4.0089,18.44984c-2.21422,0 -4.0089,-8.26027 -4.0089,-18.44984c0,-10.18957 1.79469,-18.44985 4.0089,-18.44985c2.21422,0 4.0089,8.26028 4.0089,18.44985z" fill="#693a00" fill-rule="nonzero" stroke="none" stroke-width="0" stroke-linecap="butt" stroke-linejoin="miter"/><path d="M256.36634,164.14504c0,10.18957 -1.79469,18.44984 -4.0089,18.44984c-2.21422,0 -4.0089,-8.26027 -4.0089,-18.44984c0,-10.18957 1.79469,-18.44985 4.0089,-18.44985c2.21422,0 4.0089,8.26028 4.0089,18.44985z" fill="#693a00" fill-rule="nonzero" stroke="none" stroke-width="0" stroke-linecap="butt" stroke-linejoin="miter"/><path d="M164.79583,122.7392c0.06961,-30.98586 2.79973,-46.76367 19.19235,-47.5306c0.99756,-0.04663 3.12412,-0.26727 3.12412,-0.26727l5.68733,7.47079l19.92892,-1.49436l6.10345,-7.18165c0,0 10.63225,-0.62144 15.9392,-0.6987c72.0101,-1.04704 71.70244,-0.64881 71.31247,48.43631c-0.39101,49.19921 0.19015,48.82481 -71.00327,49.60697c-2.25138,0.02484 -19.8843,-0.13593 -19.8843,-0.13593l-5.69693,5.92002l-18.38914,0.08652l-5.19086,-7.78683c0,0 -1.33516,-0.66859 -2.7219,-0.8131c-18.63168,-2.58475 -18.47976,-10.44931 -18.40107,-45.61249z" fill="#ffab19" fill-rule="nonzero" stroke="none" stroke-width="0" stroke-linecap="butt" stroke-linejoin="miter"/><path d="M181.29979,124.29991c0.06103,-27.3053 0.59367,-32.70219 19.87563,-34.94035c1.83924,-0.21348 2.23849,0.41422 2.23849,0.41422l5.56801,5.81666l16.60808,-1.05844l5.49614,-7.26253c0,0 2.80171,-0.35706 3.82302,-0.37176c55.16603,-0.80224 54.92832,-1.17093 54.62946,36.43224c0.33005,22.80639 0.78579,25.90174 -53.75472,26.50092c-53.77798,0.59052 -54.61041,-0.16453 -54.48411,-25.53131z" fill="#e2d2a3" fill-rule="nonzero" stroke="none" stroke-width="0" stroke-linecap="butt" stroke-linejoin="miter"/><path d="M181.91771,112.30145c-0.38593,-6.10887 6.95225,-18.4395 18.92349,-18.17078c1.86266,0.04179 1.68807,-0.38485 1.68807,-0.38485l8.4795,6.73943l14.77369,-0.84914l5.99352,-7.06721c0,0 4.4174,-1.1908 4.96669,-1.19253c21.42754,-0.06758 38.62418,1.84126 52.35036,16.19411c10.48616,10.96538 -80.4462,35.75997 -104.74559,28.06124c-5.45213,-1.7274 -2.4294,-23.33027 -2.4294,-23.33027z" fill="#ffedb8" fill-rule="nonzero" stroke="none" stroke-width="0" stroke-linecap="butt" stroke-linejoin="miter"/><path d="M181.38786,126.41053c0.01309,-5.77582 0.04888,-9.98176 0.27659,-14.11141c0.12537,-2.27481 108.43896,-5.12701 108.5697,-1.72449c0.15956,4.15662 0.11521,9.06702 0.06914,14.86417c0.33005,22.80639 -0.3368,25.90527 -57.87252,27.71339c-0.69364,0.00776 -4.58058,0.29657 -4.58058,0.29657l-5.05569,7.05625l-15.90244,0.11068l-5.69418,-7.55043c0,0 -2.73189,-0.55773 -3.94335,-0.60818c-13.66839,-1.43571 -15.96277,-6.66401 -15.8663,-26.04621z" fill="#ffedb8" fill-rule="nonzero" stroke="none" stroke-width="0" stroke-linecap="butt" stroke-linejoin="miter"/><path d="M210.91823,121.96686c0.01784,5.65849 -2.29878,10.25254 -5.1743,10.26161c-2.87551,0.00907 -5.22107,-4.57062 -5.23891,-10.22877c-0.01784,-5.65849 2.29878,-10.25253 5.1743,-10.2616c2.87551,-0.00907 5.22107,4.57061 5.23891,10.22876z" fill="#693a00" fill-rule="nonzero" stroke="none" stroke-width="0" stroke-linecap="butt" stroke-linejoin="miter"/><path d="M270.37342,121.77936c0.01784,5.65815 -2.29878,10.25254 -5.1743,10.26161c-2.87551,0.00907 -5.22073,-4.57063 -5.23857,-10.22877c-0.01784,-5.65815 2.29843,-10.25254 5.17394,-10.2616c2.87551,-0.00907 5.22108,4.57061 5.23892,10.22876z" fill="#693a00" fill-rule="nonzero" stroke="none" stroke-width="0" stroke-linecap="butt" stroke-linejoin="miter"/><path d="M245.70384,128.07162c0,0 -4.57327,4.38131 -10.23142,4.39915c-5.65815,0.01784 -10.25896,-4.33453 -10.25896,-4.33453z" fill="#b46300" fill-rule="nonzero" stroke="none" stroke-width="0" stroke-linecap="butt" stroke-linejoin="miter"/><path d="M91.15922,184.52495c2.85864,1.97687 4.28795,3.9004 4.28795,5.77061c0,1.10221 -0.67199,2.6453 -2.01597,4.62928l-18.86913,28.2237v16.68249c0,1.34399 -0.04622,2.3502 -0.13866,3.01864c-0.08533,0.66844 -0.36266,1.43999 -0.83199,2.31465c-0.46221,0.87466 -1.24798,1.4862 -2.3573,1.83465c-1.10221,0.34844 -2.58486,0.52266 -4.44795,0.52266c-1.86309,0 -3.3493,-0.17422 -4.45862,-0.52266c-1.10932,-0.34844 -1.89865,-0.97421 -2.36797,-1.87731c-0.46221,-0.9031 -0.73599,-1.68887 -0.82132,-2.3573c-0.08533,-0.66844 -0.128,-1.70309 -0.128,-3.10396v-16.51182l-18.8798,-28.2237c-1.33687,-1.98398 -2.00531,-3.52708 -2.00531,-4.62928c0,-1.8702 1.27999,-3.66218 3.83996,-5.37594c2.56709,-1.72087 4.40173,-2.58131 5.50394,-2.58131c1.10932,0 1.98398,0.23466 2.62397,0.70399c0.98844,0.63999 2.03731,1.83465 3.14664,3.58396l13.54652,21.66377l13.54652,-21.66376c1.10221,-1.74931 2.0622,-2.9013 2.87997,-3.45596c0.81777,-0.55466 1.76353,-0.83199 2.8373,-0.83199c1.08087,0 2.78397,0.72888 5.10928,2.18665zM130.31307,182.51966c8.61857,0 16.10294,3.11819 22.45309,9.35457c6.35015,6.22927 9.52523,13.95896 9.52523,23.18908c0,9.23012 -3.0293,17.09493 -9.0879,23.59441c-6.0586,6.49238 -13.51452,9.73856 -22.36775,9.73856c-8.85324,0 -16.38382,-3.20352 -22.59176,-9.61056c-6.20082,-6.40704 -9.30123,-14.03718 -9.30123,-22.89042c0,-4.8355 0.8711,-9.36523 2.61331,-13.58919c1.74931,-4.22395 4.08174,-7.76169 6.99726,-10.61322c2.91552,-2.85864 6.26482,-5.10217 10.04789,-6.73059c3.78307,-1.62843 7.68703,-2.44264 11.71187,-2.44264zM114.40924,215.45797c0,5.18394 1.67465,9.39368 5.02395,12.6292c3.3493,3.22841 7.0897,4.84261 11.22121,4.84261c4.13862,0 7.86836,-1.57154 11.18922,-4.71462c3.32085,-3.14308 4.98128,-7.36348 4.98128,-12.66119c0,-5.30483 -1.67465,-9.55723 -5.02394,-12.7572c-3.3493,-3.20708 -7.09325,-4.81061 -11.23188,-4.81061c-4.13151,0 -7.8577,1.61776 -11.17855,4.85328c-3.32085,3.22841 -4.98128,7.43459 -4.98128,12.61853zM209.83005,185.66629c0.58311,-0.93866 1.42576,-1.58221 2.52798,-1.93064c1.10932,-0.34844 2.49242,-0.52266 4.14929,-0.52266c1.66398,0 2.99019,0.14578 3.97863,0.43733c0.98844,0.29155 1.74576,0.64355 2.27198,1.05599c0.52621,0.40533 0.90666,1.01333 1.14132,1.82398c0.34844,0.99554 0.52266,2.51019 0.52266,4.54395v26.38905c0,7.69414 -2.38931,14.68429 -7.16792,20.97044c-2.33242,2.97241 -5.33327,5.37594 -9.00255,7.21059c-3.66929,1.83465 -7.73325,2.75197 -12.19186,2.75197c-4.45151,0 -8.49769,-0.93154 -12.13854,-2.79464c-3.64085,-1.86309 -6.59904,-4.30929 -8.87457,-7.33859c-4.71462,-6.17238 -7.07192,-13.16252 -7.07192,-20.97044v-26.30372c0,-1.39376 0.04267,-2.42486 0.128,-3.0933c0.08533,-0.67555 0.35911,-1.45065 0.82133,-2.32531c0.46933,-0.87466 1.25865,-1.4862 2.36797,-1.83465c1.10932,-0.34844 2.59553,-0.52266 4.45862,-0.52266c1.86309,0 3.34574,0.17422 4.44796,0.52266c1.10932,0.34844 1.8702,0.95999 2.28264,1.83465c0.69688,1.34399 1.04532,3.17863 1.04532,5.50394v26.21838c0,3.55551 0.87466,6.93326 2.62397,10.13322c0.86754,1.63554 2.17598,2.94752 3.92529,3.93596c1.74931,0.98844 3.81863,1.48265 6.20793,1.48265c4.2524,0 7.42748,-1.57154 9.52523,-4.71462c2.09776,-3.15019 3.14664,-6.79104 3.14664,-10.92255v-26.74104c0,-2.26842 0.29154,-3.8684 0.87464,-4.79995zM330.14842,183.65031c3.90396,1.40087 5.85594,3.26396 5.85594,5.58927c0,0.76088 -0.34844,2.1902 -1.04532,4.28795l-16.77848,48.49014c-0.12089,0.41244 -0.32711,0.91021 -0.61866,1.49332c-0.29155,0.57599 -1.0631,1.34754 -2.31464,2.31465c-1.25154,0.95999 -2.73775,1.43999 -4.45862,1.43999c-1.71376,0 -3.19641,-0.47999 -4.44795,-1.43998c-1.25154,-0.9671 -2.08353,-1.91642 -2.49597,-2.84797l-10.21856,-30.14367c-6.47104,19.10735 -9.76345,28.83524 -9.87723,29.18368c-0.11378,0.34844 -0.37688,0.84621 -0.78932,1.49332c-0.40533,0.63999 -0.8711,1.21954 -1.39731,1.73865c-1.33687,1.34399 -2.93685,2.01598 -4.79995,2.01598c-1.86309,0 -3.39196,-0.43733 -4.58662,-1.31198c-1.19465,-0.87466 -1.9982,-1.74931 -2.41064,-2.62397l-0.60799,-1.31198l-16.86381,-48.49014c-0.63999,-1.92709 -0.95999,-3.35641 -0.95999,-4.28795c0,-2.32531 1.95198,-4.15996 5.85594,-5.50394c1.68532,-0.58311 3.21064,-0.87466 4.57595,-0.87466c1.37243,0 2.42131,0.46577 3.14664,1.39732c0.73244,0.93154 1.39021,2.36086 1.97332,4.28795l9.61057,29.18368l9.52523,-28.74635c0.81777,-2.44619 2.30398,-4.13507 4.45862,-5.06661c0.93154,-0.41244 2.14042,-0.61866 3.62663,-0.61866c1.4862,0 2.86931,0.48355 4.14929,1.45065c1.27999,0.95999 2.0942,1.90576 2.44264,2.8373l10.04789,30.31434l9.62123,-29.35435c0.46221,-1.34399 0.8391,-2.33597 1.13065,-2.97596c0.29155,-0.63999 0.82843,-1.26577 1.61065,-1.87731c0.78932,-0.61155 1.76709,-0.91732 2.93331,-0.91732c1.16621,0 2.53508,0.29155 4.10663,0.87466zM340.81298,190.9889c0,-1.33687 0.04267,-2.33953 0.128,-3.00797c0.08533,-0.67555 0.36266,-1.45065 0.83199,-2.32531c0.81066,-1.57154 3.08264,-2.3573 6.81593,-2.3573c4.07462,0 6.49238,1.07733 7.25325,3.23197c0.29155,0.99554 0.43733,2.51019 0.43733,4.54395v48.58615c0,1.40087 -0.04622,2.42131 -0.13866,3.0613c-0.08533,0.63999 -0.35911,1.39732 -0.82132,2.27198c-0.81777,1.57154 -3.08974,2.35731 -6.81592,2.35731c-4.08174,0 -6.47104,-1.10576 -7.16792,-3.31729c-0.34844,-0.93154 -0.52266,-2.41775 -0.52266,-4.45862zM404.63462,185.96495c0.55466,-1.01688 1.38665,-1.69953 2.49597,-2.04798c1.10932,-0.35555 2.49242,-0.53333 4.14929,-0.53333c1.66398,0 3.00441,0.14578 4.02129,0.43733c1.01688,0.29155 1.7742,0.64355 2.27198,1.05599c0.49777,0.40533 0.86044,1.01688 1.08799,1.83465c0.35555,0.93154 0.53333,2.41775 0.53333,4.45862v48.49014c0,1.40087 -0.04622,2.42131 -0.13866,3.0613c-0.08533,0.63999 -0.36266,1.39732 -0.83199,2.27198c-0.81066,1.57154 -3.08263,2.35731 -6.81592,2.35731c-2.26842,0 -3.83996,-0.17422 -4.71462,-0.52266c-0.87466,-0.34844 -1.60354,-0.9031 -2.18664,-1.66398c-13.10564,-17.47181 -21.72776,-28.88858 -25.86638,-34.25029v28.74636c0,1.40087 -0.04267,2.42131 -0.128,3.0613c-0.08533,0.63999 -0.36266,1.39732 -0.83199,2.27198c-0.81066,1.57154 -3.08263,2.35731 -6.81592,2.35731c-3.61241,0 -5.82394,-0.78577 -6.63459,-2.3573c-0.46933,-0.87466 -0.74666,-1.66043 -0.83199,-2.3573c-0.08533,-0.70399 -0.128,-1.72442 -0.128,-3.0613v-48.7568c0,-2.21864 0.27377,-3.8364 0.82133,-4.85328c0.55466,-1.01688 1.38665,-1.69953 2.49597,-2.04798c1.10932,-0.35555 2.53508,-0.53333 4.27729,-0.53333c1.74931,0 3.13241,0.16355 4.14929,0.49066c1.02399,0.32 1.73865,0.68266 2.14398,1.08799c0.23466,0.17066 0.90666,0.92799 2.01598,2.27198c12.28787,16.71804 20.50111,27.75792 24.63973,33.11965v-29.53568c0,-2.21864 0.27377,-3.8364 0.82133,-4.85328zM427.05829,234.02843c0.58311,-1.13777 1.46843,-1.90931 2.65597,-2.31464c1.19465,-0.41244 3.05775,-0.61866 5.58927,-0.61866c2.53864,0 4.37684,0.55466 5.51461,1.66398c1.13777,1.10932 1.70665,2.85508 1.70665,5.23728v1.40798c0,1.39376 -0.04622,2.42842 -0.13866,3.10397c-0.08533,0.66844 -0.36266,1.46843 -0.83199,2.39998c-0.93154,1.68532 -3.16086,2.52798 -6.68792,2.52798c-3.51996,0 -5.84883,-0.56532 -6.98659,-1.69598c-1.13065,-1.13777 -1.69598,-3.33863 -1.69598,-6.60259c0,-2.27553 0.29155,-3.97862 0.87466,-5.10927zM438.7595,223.84188c-1.10221,0.29155 -2.58842,0.43733 -4.45862,0.43733c-1.86309,0 -3.3493,-0.14578 -4.45862,-0.43733c-1.10221,-0.29155 -1.87376,-0.81421 -2.31464,-1.56798c-0.43378,-0.76088 -0.69332,-1.42932 -0.77865,-2.00531c-0.08533,-0.58311 -0.128,-1.4862 -0.128,-2.7093v-27.70103c0,-1.2231 0.04267,-2.14042 0.128,-2.75197c0.08533,-0.61155 0.35911,-1.29421 0.82133,-2.04798c0.46933,-0.76088 1.25865,-1.30132 2.36797,-1.62132c1.10932,-0.32711 2.59553,-0.49066 4.45862,-0.49066c1.86309,0 3.34574,0.16355 4.44796,0.49066c1.10932,0.32 1.88087,0.87466 2.31465,1.66398c0.44088,0.78221 0.70399,1.4791 0.78932,2.09064c0.09245,0.61155 0.13867,1.52887 0.13867,2.75197v27.70104c0,1.2231 -0.04622,2.1262 -0.13866,2.7093c-0.08533,0.58311 -0.36266,1.23732 -0.83199,1.96265c-0.46221,0.72533 -1.24798,1.23376 -2.3573,1.52532z" fill="#ffffff" fill-rule="nonzero" stroke="none" stroke-width="1" stroke-linecap="square" stroke-linejoin="miter"/><path d="M108.3682,274.78376c-1.09438,0 -2.07007,-0.23733 -2.92712,-0.712c-0.85704,-0.48784 -1.52949,-1.16029 -2.01734,-2.01734c-0.47467,-0.85703 -0.712,-1.83933 -0.712,-2.94689c0,-0.356 0.11867,-0.64607 0.356,-0.87023c0.23734,-0.23734 0.5274,-0.356 0.87022,-0.356c0.356,0 0.64607,0.11866 0.87023,0.356c0.23734,0.22415 0.356,0.51423 0.356,0.87023c0,0.68563 0.13845,1.29216 0.41534,1.81956c0.27689,0.51423 0.65267,0.91637 1.12734,1.20645c0.48784,0.29008 1.04162,0.43511 1.66134,0.43511c0.63289,0 1.19326,-0.14503 1.68112,-0.43511c0.48784,-0.29007 0.87023,-0.69222 1.14712,-1.20644c0.27689,-0.5274 0.41534,-1.13392 0.41534,-1.81956v-11.7678c0,-0.36918 0.11208,-0.66585 0.33623,-0.88999c0.22415,-0.23734 0.51422,-0.356 0.87022,-0.356c0.356,0 0.65267,0.11866 0.89001,0.356c0.23734,0.22415 0.356,0.52082 0.356,0.89001v11.76779c0,1.10756 -0.24393,2.08986 -0.73177,2.9469c-0.48784,0.85705 -1.16029,1.52949 -2.01734,2.01734c-0.84384,0.47467 -1.82615,0.712 -2.94689,0.712zM124.4168,274.64533c-1.27895,0 -2.4063,-0.27688 -3.382,-0.83067c-0.97572,-0.56696 -1.74704,-1.3383 -2.314,-2.314c-0.55378,-0.98889 -0.83067,-2.12281 -0.83067,-3.40179c0,-1.29215 0.27689,-2.42607 0.83067,-3.40179c0.56696,-0.98889 1.33829,-1.76022 2.31401,-2.314c0.97572,-0.56696 2.10305,-0.85044 3.38201,-0.85044c1.2526,0 2.36674,0.28349 3.34246,0.85046c0.97572,0.55378 1.74045,1.32512 2.29423,2.31401c0.56696,0.97571 0.85045,2.10964 0.85045,3.40179c0,1.27897 -0.27689,2.41289 -0.83067,3.40178c-0.55378,0.97572 -1.31851,1.74704 -2.29423,2.31401c-0.97572,0.55378 -2.09645,0.83067 -3.36223,0.83067zM124.4168,272.50932c0.81749,0 1.53607,-0.18458 2.15579,-0.55377c0.63289,-0.38237 1.12734,-0.90319 1.48334,-1.56245c0.356,-0.65925 0.53401,-1.424 0.53401,-2.29422c0,-0.87023 -0.178,-1.63495 -0.534,-2.29422c-0.356,-0.67245 -0.85044,-1.19326 -1.48333,-1.56245c-0.61972,-0.38236 -1.3383,-0.57355 -2.15578,-0.57355c-0.83067,0 -1.56244,0.19118 -2.19533,0.57356c-0.61972,0.36919 -1.11415,0.89001 -1.48333,1.56246c-0.356,0.65927 -0.534,1.424 -0.534,2.29423c0,0.87023 0.17801,1.63497 0.53401,2.29422c0.36918,0.65927 0.86362,1.18007 1.48334,1.56246c0.63289,0.36919 1.36468,0.55378 2.19535,0.55378zM135.9265,274.54643c-0.34283,0 -0.63288,-0.11208 -0.87022,-0.33622c-0.22415,-0.23734 -0.33622,-0.52739 -0.33622,-0.87022v-10.50202c0,-0.36918 0.11208,-0.65925 0.33623,-0.87022c0.23734,-0.22415 0.5274,-0.33622 0.87023,-0.33622c0.36918,0 0.65927,0.11208 0.87023,0.33623c0.22415,0.21097 0.33623,0.50104 0.33623,0.87023v10.50203c0,0.34282 -0.11208,0.63289 -0.33622,0.87023c-0.21096,0.22415 -0.50104,0.33622 -0.87022,0.33622zM136.14407,259.53504c-0.42193,0 -0.79112,-0.15163 -1.10756,-0.45488c-0.30327,-0.31644 -0.45488,-0.68562 -0.45488,-1.10756c0,-0.42194 0.15162,-0.78452 0.45489,-1.08778c0.31644,-0.31644 0.68562,-0.47466 1.10756,-0.47466c0.42193,0 0.78452,0.15822 1.08779,0.47466c0.31644,0.30327 0.47467,0.66586 0.47467,1.08779c0,0.42193 -0.15822,0.79111 -0.47467,1.10755c-0.30327,0.30326 -0.66585,0.45488 -1.08777,0.45488zM152.53172,274.5662c-0.34283,0 -0.63289,-0.11207 -0.87023,-0.33622c-0.22415,-0.22415 -0.33622,-0.51423 -0.33622,-0.87023v-5.79489c0,-0.89659 -0.16482,-1.62838 -0.49444,-2.19533c-0.32962,-0.56696 -0.77793,-0.98889 -1.34489,-1.26578c-0.55378,-0.27689 -1.19326,-0.41533 -1.91844,-0.41533c-0.65927,0 -1.25919,0.13186 -1.79978,0.39556c-0.5274,0.26371 -0.94934,0.61971 -1.26578,1.068c-0.31644,0.4483 -0.47467,0.96912 -0.47467,1.56246h-1.48333c0,-1.00207 0.23734,-1.89207 0.71201,-2.67c0.48784,-0.77792 1.14711,-1.39104 1.97778,-1.83933c0.83067,-0.46148 1.76682,-0.69222 2.80845,-0.69222c1.09438,0 2.07008,0.23074 2.92712,0.69223c0.85704,0.46149 1.52949,1.14051 2.01734,2.03712c0.50105,0.89661 0.75156,2.00416 0.75156,3.32268v5.79491c0,0.356 -0.11867,0.64607 -0.35601,0.87022c-0.22415,0.22415 -0.50763,0.33623 -0.85044,0.33623zM142.82082,274.5662c-0.34283,0 -0.63289,-0.11207 -0.87023,-0.33622c-0.22415,-0.22415 -0.33622,-0.51423 -0.33622,-0.87023v-10.5218c0,-0.36918 0.11208,-0.65926 0.33623,-0.87023c0.23734,-0.22415 0.5274,-0.33622 0.87023,-0.33622c0.36918,0 0.65927,0.11208 0.87023,0.33623c0.22415,0.21097 0.33622,0.50104 0.33622,0.87022v10.5218c0,0.356 -0.11207,0.64608 -0.33621,0.87023c-0.21096,0.22415 -0.50105,0.33623 -0.87023,0.33623zM159.1634,274.54643c-0.34283,0 -0.63289,-0.11208 -0.87023,-0.33622c-0.22415,-0.23734 -0.33622,-0.52739 -0.33622,-0.87022v-10.50202c0,-0.36918 0.11208,-0.65925 0.33623,-0.87022c0.23734,-0.22415 0.5274,-0.33622 0.87023,-0.33622c0.36918,0 0.65927,0.11208 0.87023,0.33623c0.22415,0.21097 0.33622,0.50104 0.33622,0.87023v10.50203c0,0.34282 -0.11207,0.63289 -0.33621,0.87023c-0.21096,0.22415 -0.50105,0.33622 -0.87023,0.33622zM159.38096,259.53504c-0.42193,0 -0.79112,-0.15163 -1.10756,-0.45488c-0.30327,-0.31644 -0.45489,-0.68562 -0.45489,-1.10756c0,-0.42194 0.15163,-0.78452 0.4549,-1.08778c0.31644,-0.31644 0.68562,-0.47466 1.10755,-0.47466c0.42193,0 0.78452,0.15822 1.08779,0.47466c0.31644,0.30327 0.47466,0.66586 0.47466,1.08779c0,0.42193 -0.15822,0.79111 -0.47466,1.10755c-0.30327,0.30326 -0.66585,0.45488 -1.08777,0.45488zM175.76862,274.5662c-0.34283,0 -0.63289,-0.11207 -0.87023,-0.33622c-0.22415,-0.22415 -0.33622,-0.51423 -0.33622,-0.87023v-5.79489c0,-0.89659 -0.16482,-1.62838 -0.49444,-2.19533c-0.32962,-0.56696 -0.77794,-0.98889 -1.3449,-1.26578c-0.55378,-0.27689 -1.19326,-0.41533 -1.91844,-0.41533c-0.65927,0 -1.25919,0.13186 -1.79978,0.39556c-0.5274,0.26371 -0.94934,0.61971 -1.26578,1.068c-0.31644,0.4483 -0.47467,0.96912 -0.47467,1.56246h-1.48333c0,-1.00207 0.23733,-1.89207 0.712,-2.67c0.48784,-0.77792 1.14712,-1.39104 1.97779,-1.83933c0.83067,-0.46148 1.76682,-0.69222 2.80845,-0.69222c1.09438,0 2.07007,0.23074 2.92712,0.69223c0.85704,0.46149 1.52949,1.14051 2.01734,2.03712c0.50105,0.89661 0.75155,2.00416 0.75155,3.32268v5.79491c0,0.356 -0.11866,0.64607 -0.356,0.87022c-0.22415,0.22415 -0.50763,0.33623 -0.85044,0.33623zM166.05771,274.5662c-0.34283,0 -0.63289,-0.11207 -0.87023,-0.33622c-0.22415,-0.22415 -0.33622,-0.51423 -0.33622,-0.87023v-10.5218c0,-0.36918 0.11208,-0.65926 0.33623,-0.87023c0.23734,-0.22415 0.5274,-0.33622 0.87023,-0.33622c0.36918,0 0.65926,0.11208 0.87022,0.33623c0.22415,0.21097 0.33623,0.50104 0.33623,0.87022v10.5218c0,0.356 -0.11207,0.64608 -0.33621,0.87023c-0.21096,0.22415 -0.50105,0.33623 -0.87023,0.33623zM186.35586,274.64533c-1.18667,0 -2.23489,-0.27688 -3.14467,-0.83067c-0.8966,-0.56696 -1.60861,-1.3383 -2.13601,-2.314c-0.51423,-0.98889 -0.77132,-2.12281 -0.77132,-3.40179c0,-1.29215 0.27689,-2.42607 0.83067,-3.40179c0.56696,-0.98889 1.3383,-1.76022 2.31401,-2.314c0.97572,-0.56696 2.10304,-0.85044 3.38201,-0.85044c1.2526,0 2.36674,0.28349 3.34246,0.85046c0.97572,0.55378 1.74045,1.32512 2.29423,2.31401c0.56696,0.97571 0.85046,2.10964 0.85046,3.40179h-1.40422c0,1.27897 -0.23733,2.41289 -0.712,3.40178c-0.47467,0.97572 -1.13394,1.74704 -1.97779,2.31401c-0.83067,0.55378 -1.7866,0.83067 -2.86777,0.83067zM186.77118,279.90621c-1.12073,0 -2.16897,-0.22415 -3.14467,-0.67245c-0.97572,-0.43511 -1.79978,-1.0746 -2.47222,-1.91844c-0.21096,-0.27689 -0.29006,-0.56037 -0.23734,-0.85044c0.06593,-0.27689 0.22416,-0.50104 0.47467,-0.67245c0.27689,-0.18459 0.56696,-0.24393 0.87023,-0.178c0.31644,0.06594 0.56696,0.22415 0.75156,0.47467c0.43511,0.52742 0.96912,0.94274 1.60201,1.24601c0.64606,0.30325 1.38444,0.45489 2.21511,0.45489c0.75155,0 1.44378,-0.18458 2.07667,-0.55377c0.64606,-0.356 1.15371,-0.89 1.5229,-1.602c0.38238,-0.712 0.57357,-1.57563 0.57357,-2.59089v-3.36223l0.77134,-2.07667l1.54267,0.49445v5.10268c0,1.23942 -0.27689,2.36674 -0.83067,3.38201c-0.55378,1.01526 -1.32511,1.81956 -2.314,2.4129c-0.97572,0.60652 -2.10962,0.90978 -3.40178,0.90978zM186.83052,272.50932c0.81749,0 1.53607,-0.18458 2.15579,-0.55377c0.63289,-0.38237 1.12734,-0.90319 1.48334,-1.56245c0.356,-0.65925 0.53401,-1.424 0.53401,-2.29422c0,-0.87023 -0.178,-1.63495 -0.534,-2.29422c-0.356,-0.67245 -0.85044,-1.19326 -1.48333,-1.56245c-0.61972,-0.38236 -1.3383,-0.57355 -2.15578,-0.57355c-0.83067,0 -1.56244,0.19118 -2.19533,0.57356c-0.61972,0.36919 -1.11415,0.89001 -1.48333,1.56246c-0.356,0.65927 -0.534,1.424 -0.534,2.29423c0,0.87023 0.17801,1.63497 0.53401,2.29422c0.36918,0.65927 0.86363,1.18007 1.48334,1.56246c0.63289,0.36919 1.36467,0.55378 2.19534,0.55378zM206.80201,274.54643c-0.25051,0 -0.48126,-0.07252 -0.69222,-0.21755c-0.21096,-0.15823 -0.35601,-0.34281 -0.43511,-0.55378l-3.50066,-10.50202c-0.13184,-0.48784 -0.13184,-0.8834 0,-1.18667c0.14505,-0.30326 0.44171,-0.45488 0.89001,-0.45488c0.30327,0 0.55378,0.08571 0.75156,0.25712c0.19778,0.15823 0.356,0.43511 0.47467,0.83067l2.98646,9.29557h-0.83067l2.80845,-9.49335c0.07911,-0.2637 0.21096,-0.47466 0.39556,-0.63289c0.19778,-0.1714 0.46149,-0.25711 0.79111,-0.25711c0.31644,0 0.57356,0.0857 0.77134,0.25711c0.19778,0.15823 0.32304,0.36919 0.37579,0.63289l2.29423,8.93957h-0.35601l2.78868,-8.7418c0.22415,-0.72518 0.63289,-1.08777 1.22622,-1.08777c0.44829,0 0.74497,0.15163 0.89001,0.4549c0.15822,0.30327 0.15162,0.69882 -0.01978,1.18666l-3.4809,10.50203c-0.06593,0.21097 -0.20437,0.39555 -0.41532,0.55378c-0.19778,0.14504 -0.42852,0.21756 -0.69222,0.21756c-0.26371,0 -0.50763,-0.07251 -0.73177,-0.21754c-0.21096,-0.15823 -0.34941,-0.34281 -0.41533,-0.55378l-2.43266,-8.9989h0.23734l-2.55133,8.99892c-0.06593,0.21097 -0.20437,0.39555 -0.41533,0.55378c-0.21096,0.14504 -0.44829,0.21757 -0.712,0.21757zM225.93386,274.64533c-1.14711,0 -2.18215,-0.28349 -3.10511,-0.85044c-0.90978,-0.58015 -1.62838,-1.36466 -2.15578,-2.35355c-0.5274,-0.98889 -0.79111,-2.10305 -0.79111,-3.34245c0,-1.2394 0.28348,-2.35355 0.85045,-3.34244c0.58016,-1.00207 1.35807,-1.78659 2.33379,-2.35355c0.98889,-0.58015 2.10304,-0.87023 3.34245,-0.87023c1.22622,0 2.32719,0.29008 3.30291,0.87023c0.97571,0.56697 1.74704,1.35149 2.31401,2.35357c0.58016,0.98889 0.87023,2.10304 0.87023,3.34246h-0.92955c0,1.23942 -0.26371,2.35357 -0.79111,3.34245c-0.5274,0.98889 -1.24599,1.77341 -2.15578,2.35357c-0.90978,0.56697 -1.93822,0.85046 -3.08534,0.85046zM226.40853,272.50932c0.79111,0 1.50312,-0.19119 2.13601,-0.57355c0.63289,-0.38237 1.12734,-0.90978 1.48334,-1.58222c0.36918,-0.67245 0.55378,-1.424 0.55378,-2.25467c0,-0.84384 -0.1846,-1.602 -0.55378,-2.27445c-0.356,-0.67244 -0.85044,-1.19984 -1.48333,-1.58222c-0.63289,-0.38236 -1.34489,-0.57355 -2.13601,-0.57355c-0.79111,0 -1.50971,0.19118 -2.15578,0.57356c-0.63289,0.38238 -1.13394,0.90978 -1.50312,1.58223c-0.36918,0.67244 -0.55378,1.43059 -0.55378,2.27445c0,0.83067 0.1846,1.58222 0.55378,2.25467c0.36918,0.67245 0.87023,1.19986 1.50312,1.58222c0.64606,0.38238 1.36467,0.57357 2.15578,0.57357zM231.68921,274.5662c-0.34283,0 -0.63289,-0.11207 -0.87023,-0.33622c-0.22415,-0.22415 -0.33622,-0.51423 -0.33622,-0.87023v-3.59956l0.4549,-2.51178l1.95801,0.85045v5.2609c0,0.356 -0.11867,0.64608 -0.356,0.87023c-0.22415,0.22415 -0.50763,0.33623 -0.85044,0.33623zM237.91823,274.54643c-0.34283,0 -0.63289,-0.11208 -0.87023,-0.33622c-0.22415,-0.23734 -0.33621,-0.52739 -0.33621,-0.87022v-10.50202c0,-0.36918 0.11208,-0.65925 0.33623,-0.87022c0.23733,-0.22415 0.5274,-0.33622 0.87023,-0.33622c0.36918,0 0.65926,0.11208 0.87022,0.33623c0.22415,0.21097 0.33623,0.50104 0.33623,0.87023v10.50203c0,0.34282 -0.11207,0.63289 -0.33621,0.87023c-0.21096,0.22415 -0.50105,0.33622 -0.87023,0.33622zM238.1358,259.53504c-0.42194,0 -0.79112,-0.15163 -1.10756,-0.45488c-0.30327,-0.31644 -0.45488,-0.68562 -0.45488,-1.10756c0,-0.42194 0.15163,-0.78452 0.4549,-1.08778c0.31644,-0.31644 0.68562,-0.47466 1.10755,-0.47466c0.42194,0 0.78451,0.15822 1.08778,0.47466c0.31644,0.30327 0.47467,0.66586 0.47467,1.08779c0,0.42193 -0.15823,0.79111 -0.47467,1.10755c-0.30327,0.30326 -0.66584,0.45488 -1.08777,0.45488zM248.31321,274.54643c-0.79111,0 -1.50312,-0.19778 -2.13601,-0.59334c-0.61971,-0.40873 -1.11415,-0.95593 -1.48333,-1.64156c-0.356,-0.69881 -0.534,-1.48333 -0.534,-2.35355v-11.25357c0,-0.34282 0.10549,-0.62629 0.31644,-0.85044c0.22415,-0.22415 0.51423,-0.33622 0.87023,-0.33622c0.34283,0 0.61971,0.11207 0.83067,0.33623c0.22415,0.22415 0.33623,0.50763 0.33623,0.85046v11.25357c0,0.63289 0.1714,1.1669 0.51423,1.60201c0.356,0.42193 0.78452,0.63289 1.28556,0.63289h0.8109c0.27689,0 0.51422,0.11207 0.712,0.33623c0.19778,0.21097 0.29667,0.48786 0.29667,0.83067c0,0.356 -0.13184,0.64608 -0.39555,0.87023c-0.25051,0.21097 -0.58015,0.31645 -0.98889,0.31645zM243.0721,264.1235c-0.32962,0 -0.59993,-0.09229 -0.81088,-0.27689c-0.19778,-0.18459 -0.29666,-0.42192 -0.29666,-0.712c0,-0.31644 0.09889,-0.56696 0.29668,-0.75155c0.21096,-0.18459 0.48126,-0.27689 0.81089,-0.27689h5.45867c0.32962,0 0.59334,0.0923 0.79111,0.27689c0.21096,0.1846 0.31645,0.43511 0.31645,0.75155c0,0.29008 -0.10549,0.52741 -0.31645,0.712c-0.19778,0.1846 -0.4615,0.27689 -0.79111,0.27689zM254.51937,274.54643c-0.34282,0 -0.63289,-0.11208 -0.87023,-0.33622c-0.22415,-0.23734 -0.33621,-0.52739 -0.33621,-0.87022v-10.50202c0,-0.36918 0.11208,-0.65925 0.33623,-0.87022c0.23733,-0.22415 0.5274,-0.33622 0.87023,-0.33622c0.36918,0 0.65927,0.11208 0.87023,0.33623c0.22415,0.21097 0.33623,0.50104 0.33623,0.87023v10.50203c0,0.34282 -0.11207,0.63289 -0.33622,0.87023c-0.21096,0.22415 -0.50105,0.33622 -0.87023,0.33622zM254.73694,259.53504c-0.42193,0 -0.79111,-0.15163 -1.10756,-0.45488c-0.30327,-0.31644 -0.45488,-0.68562 -0.45488,-1.10756c0,-0.42194 0.15163,-0.78452 0.4549,-1.08778c0.31644,-0.31644 0.68562,-0.47466 1.10755,-0.47466c0.42194,0 0.78452,0.15822 1.08779,0.47466c0.31644,0.30327 0.47466,0.66586 0.47466,1.08779c0,0.42193 -0.15822,0.79111 -0.47466,1.10755c-0.30327,0.30326 -0.66585,0.45488 -1.08777,0.45488zM271.1246,274.5662c-0.34281,0 -0.63289,-0.11207 -0.87023,-0.33622c-0.22415,-0.22415 -0.33622,-0.51423 -0.33622,-0.87023v-5.79489c0,-0.89659 -0.16481,-1.62838 -0.49443,-2.19533c-0.32963,-0.56696 -0.77792,-0.98889 -1.34489,-1.26578c-0.55378,-0.27689 -1.19326,-0.41533 -1.91844,-0.41533c-0.65926,0 -1.25919,0.13186 -1.79978,0.39556c-0.52742,0.26371 -0.94933,0.61971 -1.26578,1.068c-0.31644,0.4483 -0.47467,0.96912 -0.47467,1.56246h-1.48333c0,-1.00207 0.23733,-1.89207 0.712,-2.67c0.48785,-0.77792 1.14711,-1.39104 1.97779,-1.83933c0.83067,-0.46148 1.76681,-0.69222 2.80845,-0.69222c1.09437,0 2.07008,0.23074 2.92711,0.69223c0.85703,0.46149 1.52949,1.14051 2.01734,2.03712c0.50104,0.89661 0.75156,2.00416 0.75156,3.32268v5.79491c0,0.356 -0.11867,0.64607 -0.356,0.87022c-0.22415,0.22415 -0.50763,0.33623 -0.85044,0.33623zM261.41369,274.5662c-0.34281,0 -0.63289,-0.11207 -0.87023,-0.33622c-0.22415,-0.22415 -0.33621,-0.51423 -0.33621,-0.87023v-10.5218c0,-0.36918 0.11208,-0.65926 0.33623,-0.87023c0.23733,-0.22415 0.52742,-0.33622 0.87023,-0.33622c0.36919,0 0.65925,0.11208 0.87022,0.33623c0.22415,0.21097 0.33623,0.50104 0.33623,0.87022v10.5218c0,0.356 -0.11207,0.64608 -0.33622,0.87023c-0.21097,0.22415 -0.50104,0.33623 -0.87023,0.33623zM281.71184,274.64533c-1.18667,0 -2.23489,-0.27688 -3.14467,-0.83067c-0.89659,-0.56696 -1.60859,-1.3383 -2.13601,-2.314c-0.51423,-0.98889 -0.77132,-2.12281 -0.77132,-3.40179c0,-1.29215 0.27688,-2.42607 0.83066,-3.40179c0.56697,-0.98889 1.3383,-1.76022 2.31402,-2.314c0.9757,-0.56696 2.10304,-0.85044 3.38201,-0.85044c1.25259,0 2.36674,0.28349 3.34246,0.85046c0.9757,0.55378 1.74045,1.32512 2.29422,2.31401c0.56697,0.97571 0.85046,2.10964 0.85046,3.40179h-1.40422c0,1.27897 -0.23733,2.41289 -0.712,3.40178c-0.47467,0.97572 -1.13392,1.74704 -1.97779,2.31401c-0.83067,0.55378 -1.78659,0.83067 -2.86777,0.83067zM282.12716,279.90621c-1.12074,0 -2.16896,-0.22415 -3.14467,-0.67245c-0.9757,-0.43511 -1.79977,-1.0746 -2.47222,-1.91844c-0.21097,-0.27689 -0.29008,-0.56037 -0.23733,-0.85044c0.06592,-0.27689 0.22415,-0.50104 0.47467,-0.67245c0.27689,-0.18459 0.56696,-0.24393 0.87022,-0.178c0.31644,0.06594 0.56697,0.22415 0.75156,0.47467c0.43511,0.52742 0.96912,0.94274 1.60201,1.24601c0.64608,0.30325 1.38445,0.45489 2.21511,0.45489c0.75156,0 1.44379,-0.18458 2.07668,-0.55377c0.64608,-0.356 1.15371,-0.89 1.5229,-1.602c0.38236,-0.712 0.57356,-1.57563 0.57356,-2.59089v-3.36223l0.77134,-2.07667l1.54267,0.49445v5.10268c0,1.23942 -0.27689,2.36674 -0.83067,3.38201c-0.55378,1.01526 -1.32511,1.81956 -2.314,2.4129c-0.9757,0.60652 -2.10964,0.90978 -3.40179,0.90978zM282.1865,272.50932c0.81748,0 1.53607,-0.18458 2.15579,-0.55377c0.63289,-0.38237 1.12734,-0.90319 1.48334,-1.56245c0.356,-0.65925 0.534,-1.424 0.534,-2.29422c0,-0.87023 -0.178,-1.63495 -0.534,-2.29422c-0.356,-0.67245 -0.85044,-1.19326 -1.48333,-1.56245c-0.6197,-0.38236 -1.3383,-0.57355 -2.15577,-0.57355c-0.83067,0 -1.56244,0.19118 -2.19533,0.57356c-0.6197,0.36919 -1.11415,0.89001 -1.48333,1.56246c-0.356,0.65927 -0.534,1.424 -0.534,2.29423c0,0.87023 0.178,1.63497 0.534,2.29422c0.36919,0.65927 0.86363,1.18007 1.48335,1.56246c0.63289,0.36919 1.36467,0.55378 2.19534,0.55378zM300.3384,266.47709c0,-0.94934 0.23074,-1.79318 0.69223,-2.53156c0.46148,-0.75156 1.08779,-1.3449 1.8789,-1.78001c0.79111,-0.44829 1.65474,-0.67244 2.5909,-0.67244c0.94934,0 1.65474,0.15162 2.11623,0.45489c0.47467,0.30327 0.65267,0.67245 0.534,1.10756c-0.03955,0.21097 -0.13185,0.37579 -0.27689,0.49445c-0.13185,0.11867 -0.28348,0.19778 -0.45488,0.23734c-0.17141,0.02638 -0.356,0.01319 -0.55378,-0.03956c-1.01526,-0.19778 -1.92504,-0.21096 -2.72934,-0.03956c-0.8043,0.17141 -1.43719,0.49445 -1.89867,0.96912c-0.46148,0.47467 -0.69222,1.0746 -0.69222,1.79979zM300.35819,274.54643c-0.36919,0 -0.65926,-0.09888 -0.87023,-0.29666c-0.21097,-0.19778 -0.31645,-0.49444 -0.31645,-0.89v-10.54157c0,-0.38236 0.10548,-0.67244 0.31645,-0.87023c0.21097,-0.21096 0.50104,-0.31644 0.87023,-0.31644c0.39555,0 0.69223,0.09889 0.89001,0.29667c0.19778,0.19778 0.29667,0.49446 0.29667,0.89001v10.54158c0,0.38238 -0.09888,0.67903 -0.29666,0.89c-0.19778,0.19778 -0.49444,0.29668 -0.88999,0.29668zM315.57718,274.64533c-1.27897,0 -2.4063,-0.27688 -3.382,-0.83067c-0.9757,-0.56696 -1.74704,-1.3383 -2.31399,-2.314c-0.55378,-0.98889 -0.83067,-2.12281 -0.83067,-3.40179c0,-1.29215 0.27689,-2.42607 0.83067,-3.40179c0.56697,-0.98889 1.3383,-1.76022 2.31401,-2.314c0.9757,-0.56696 2.10304,-0.85044 3.38202,-0.85044c1.25259,0 2.36674,0.28349 3.34245,0.85046c0.9757,0.55378 1.74045,1.32512 2.29422,2.31401c0.56697,0.97571 0.85046,2.10964 0.85046,3.40179c0,1.27897 -0.27689,2.41289 -0.83067,3.40178c-0.55378,0.97572 -1.31853,1.74704 -2.29423,2.31401c-0.9757,0.55378 -2.09645,0.83067 -3.36223,0.83067zM315.57718,272.50932c0.81748,0 1.53607,-0.18458 2.15579,-0.55377c0.63289,-0.38237 1.12734,-0.90319 1.48334,-1.56245c0.356,-0.65925 0.534,-1.424 0.534,-2.29422c0,-0.87023 -0.178,-1.63495 -0.534,-2.29422c-0.356,-0.67245 -0.85044,-1.19326 -1.48333,-1.56245c-0.6197,-0.38236 -1.3383,-0.57355 -2.15578,-0.57355c-0.83067,0 -1.56244,0.19118 -2.19533,0.57356c-0.6197,0.36919 -1.11415,0.89001 -1.48333,1.56246c-0.356,0.65927 -0.534,1.424 -0.534,2.29423c0,0.87023 0.17801,1.63497 0.53401,2.29422c0.36919,0.65927 0.86363,1.18007 1.48334,1.56246c0.63289,0.36919 1.36467,0.55378 2.19534,0.55378zM331.51709,274.64533c-1.27897,0 -2.4063,-0.27688 -3.382,-0.83067c-0.9757,-0.56696 -1.74704,-1.3383 -2.31399,-2.314c-0.55378,-0.98889 -0.83067,-2.12281 -0.83067,-3.40179c0,-1.29215 0.27689,-2.42607 0.83067,-3.40179c0.56697,-0.98889 1.3383,-1.76022 2.31401,-2.314c0.9757,-0.56696 2.10304,-0.85044 3.38201,-0.85044c1.25259,0 2.36675,0.28349 3.34246,0.85046c0.9757,0.55378 1.74044,1.32512 2.29422,2.31401c0.56697,0.97571 0.85046,2.10964 0.85046,3.40179c0,1.27897 -0.27689,2.41289 -0.83067,3.40178c-0.55378,0.97572 -1.31853,1.74704 -2.29422,2.31401c-0.9757,0.55378 -2.09645,0.83067 -3.36223,0.83067zM331.51709,272.50932c0.81748,0 1.53607,-0.18458 2.15579,-0.55377c0.63289,-0.38237 1.12735,-0.90319 1.48335,-1.56245c0.356,-0.65925 0.534,-1.424 0.534,-2.29422c0,-0.87023 -0.178,-1.63495 -0.534,-2.29422c-0.356,-0.67245 -0.85044,-1.19326 -1.48333,-1.56245c-0.6197,-0.38236 -1.3383,-0.57355 -2.15577,-0.57355c-0.83067,0 -1.56244,0.19118 -2.19533,0.57356c-0.6197,0.36919 -1.11415,0.89001 -1.48333,1.56246c-0.356,0.65927 -0.534,1.424 -0.534,2.29423c0,0.87023 0.178,1.63497 0.534,2.29422c0.36919,0.65927 0.86363,1.18007 1.48334,1.56246c0.63289,0.36919 1.36468,0.55378 2.19534,0.55378zM358.55242,274.5662c-0.356,0 -0.64608,-0.11207 -0.87023,-0.33622c-0.22415,-0.22415 -0.33621,-0.51423 -0.33621,-0.87023v-6.74423c0,-0.98889 -0.24393,-1.72066 -0.73178,-2.19533c-0.48785,-0.48784 -1.12732,-0.73177 -1.91844,-0.73177c-0.81748,0 -1.48992,0.28349 -2.01734,0.85046c-0.52742,0.56697 -0.79111,1.29216 -0.79111,2.17556h-1.958c0,-1.02845 0.21757,-1.93163 0.65268,-2.70956c0.4483,-0.77792 1.068,-1.38445 1.85911,-1.81956c0.79111,-0.44829 1.7009,-0.67244 2.72934,-0.67244c0.89659,0 1.68771,0.19777 2.37334,0.59333c0.69881,0.39556 1.23942,0.97572 1.62178,1.74045c0.39555,0.75156 0.59334,1.67453 0.59334,2.7689v6.74424c0,0.356 -0.11207,0.64607 -0.33622,0.87022c-0.22415,0.22415 -0.51423,0.33623 -0.87023,0.33623zM342.78949,274.5662c-0.34281,0 -0.63288,-0.11207 -0.87022,-0.33622c-0.22415,-0.22415 -0.33622,-0.51423 -0.33622,-0.87023v-10.50202c0,-0.356 0.11208,-0.64607 0.33623,-0.87023c0.23734,-0.22415 0.52742,-0.33621 0.87023,-0.33621c0.36919,0 0.65926,0.11208 0.87023,0.33623c0.22415,0.22415 0.33623,0.51422 0.33623,0.87022v10.50203c0,0.356 -0.11207,0.64608 -0.33622,0.87023c-0.21097,0.22415 -0.50103,0.33623 -0.87022,0.33623zM350.68085,274.5662c-0.34281,0 -0.63289,-0.11207 -0.87023,-0.33622c-0.22415,-0.22415 -0.33621,-0.51423 -0.33621,-0.87023v-6.74423c0,-0.98889 -0.24393,-1.72066 -0.73178,-2.19533c-0.48785,-0.48784 -1.12074,-0.73177 -1.89867,-0.73177c-0.83067,0 -1.5163,0.28349 -2.0569,0.85046c-0.52742,0.56697 -0.79111,1.29216 -0.79111,2.17556h-1.48333c0,-1.02845 0.20437,-1.93163 0.61311,-2.70956c0.40874,-0.77792 0.9757,-1.38445 1.70089,-1.81956c0.72519,-0.44829 1.54926,-0.67244 2.47223,-0.67244c0.89659,0 1.6943,0.19777 2.39312,0.59333c0.69881,0.39556 1.23942,0.97572 1.62178,1.74045c0.38237,0.75156 0.57357,1.67453 0.57357,2.7689v6.74424c0,0.356 -0.11207,0.64607 -0.33622,0.87022c-0.21097,0.22415 -0.50104,0.33623 -0.87023,0.33623zM364.42588,274.9222c-0.43511,0 -0.81748,-0.15822 -1.14711,-0.47467c-0.31645,-0.32962 -0.47467,-0.712 -0.47467,-1.14711c0,-0.46148 0.15823,-0.85044 0.47467,-1.16688c0.32963,-0.32962 0.712,-0.49444 1.14711,-0.49444c0.46148,0 0.84386,0.16482 1.14711,0.49445c0.31645,0.31645 0.47467,0.70541 0.47467,1.1669c0,0.43511 -0.15823,0.8175 -0.47467,1.14711c-0.30325,0.31645 -0.68563,0.47466 -1.14711,0.47466zM370.04619,274.9222c-0.43511,0 -0.81748,-0.15822 -1.14711,-0.47467c-0.31645,-0.32962 -0.47467,-0.712 -0.47467,-1.14711c0,-0.46148 0.15823,-0.85044 0.47467,-1.16688c0.32963,-0.32962 0.712,-0.49444 1.14711,-0.49444c0.46148,0 0.84385,0.16482 1.14711,0.49445c0.31644,0.31645 0.47467,0.70541 0.47467,1.1669c0,0.43511 -0.15823,0.8175 -0.47467,1.14711c-0.30326,0.31645 -0.68563,0.47466 -1.14711,0.47466zM375.66648,274.9222c-0.43511,0 -0.81747,-0.15822 -1.14711,-0.47467c-0.31644,-0.32962 -0.47467,-0.712 -0.47467,-1.14711c0,-0.46148 0.15823,-0.85044 0.47467,-1.16688c0.32964,-0.32962 0.712,-0.49444 1.14711,-0.49444c0.46148,0 0.84386,0.16482 1.14711,0.49445c0.31645,0.31645 0.47467,0.70541 0.47467,1.1669c0,0.43511 -0.15822,0.8175 -0.47467,1.14711c-0.30325,0.31645 -0.68563,0.47466 -1.14711,0.47466z" fill="#ffffff" fill-rule="nonzero" stroke="#ffffff" stroke-width="0.5" stroke-linecap="square" stroke-linejoin="miter"/><path d="M306.08365,118.9737c-0.01191,1.49889 -0.12288,12.76602 -0.24758,16.35394c-0.26152,7.5246 -4.85615,3.84789 -6.33918,3.88694c-4.29741,0.11313 -8.35617,-16.6525 -8.35617,-16.6525c0,0 14.98388,-8.74186 14.94293,-3.58838z" fill="#ffab19" fill-rule="nonzero" stroke="none" stroke-width="0" stroke-linecap="butt" stroke-linejoin="miter"/></g></g></svg>