<svg version="1.1" xmlns="http://www.w3.org/2000/svg" xmlns:xlink="http://www.w3.org/1999/xlink" width="80.08815" height="101.88125" viewBox="0,0,80.08815,101.88125"><g transform="translate(-199.95594,-129.05939)"><g data-paper-data="{&quot;isPaintingLayer&quot;:true}" fill="#ffffff" fill-rule="nonzero" stroke-linecap="square" stroke-linejoin="miter" stroke-miterlimit="10" stroke-dasharray="" stroke-dashoffset="0" style="mix-blend-mode: normal"><path d="M264.22033,201.58655c3.7871,0 6.64468,0.55086 8.57265,1.65256c1.92798,1.03285 3.20183,2.54769 3.82154,4.54453c0.61971,1.99686 0.92957,4.44125 0.92957,7.33323c0,2.82313 -0.3443,5.26754 -1.03285,7.33323c-0.61971,2.0657 -1.85913,3.51169 -3.71826,4.33797c-2.13454,1.1017 -5.06096,1.65256 -8.77922,1.65256h-48.23406c-3.64941,0 -6.78237,-1.3427 -9.39893,-4.02812c-2.61657,-2.6854 -3.92482,-5.8528 -3.92482,-9.50221c0,-5.09541 1.65256,-9.63994 4.95768,-13.63361c3.37396,-4.06255 7.2988,-7.47095 11.77448,-10.2252c4.54453,-2.82313 8.95135,-5.4741 13.22048,-7.95294c4.26912,-2.54769 7.78081,-5.30197 10.53506,-8.26279c2.75425,-2.96083 4.1314,-5.95608 4.1314,-8.98578c0,-0.41314 -0.24101,-1.17057 -0.72299,-2.27227c-0.48199,-1.1017 -0.99841,-1.96241 -1.54928,-2.58212c-0.48199,-0.68856 -1.30827,-1.30827 -2.47884,-1.85913c-1.1017,-0.55086 -2.6854,-0.82628 -4.75111,-0.82628c-2.0657,0 -3.85599,0.75743 -5.37082,2.27227c-1.44599,1.44599 -2.27227,2.89198 -2.47884,4.33797l-0.51643,2.58212v0.51643c0,1.85913 -0.06885,3.37396 -0.20657,4.54453c-0.13772,1.17057 -0.65415,2.47884 -1.54928,3.92482c-1.72141,2.75425 -5.61182,4.1314 -11.6712,4.1314c-6.95454,0 -11.15477,-2.13454 -12.60076,-6.40366c-0.48199,-1.51483 -0.72299,-3.85599 -0.72299,-7.02337c0,-9.15791 3.27068,-17.3863 9.81207,-24.6851c6.61024,-7.2988 15.25174,-10.94821 25.92452,-10.94821c10.67278,0 19.31428,3.68382 25.92452,11.05149c6.61024,7.36767 9.91535,15.76815 9.91535,25.20153c0,5.09541 -1.13614,9.91535 -3.40841,14.4599c-2.20342,4.4757 -4.85439,8.09066 -7.95294,10.84492c-6.26594,5.57739 -11.91221,9.36449 -16.93874,11.36134l-3.09855,-0.41314l-0.30986,-0.61971z" stroke="#28a5da" stroke-width="5"/><path d="M264.22033,201.58655c3.7871,0 6.64468,0.55086 8.57265,1.65256c1.92798,1.03285 3.20183,2.54769 3.82154,4.54453c0.61971,1.99686 0.92957,4.44125 0.92957,7.33323c0,2.82313 -0.3443,5.26754 -1.03285,7.33323c-0.61971,2.0657 -1.85913,3.51169 -3.71826,4.33797c-2.13454,1.1017 -5.06096,1.65256 -8.77922,1.65256h-48.23406c-3.64941,0 -6.78237,-1.3427 -9.39893,-4.02812c-2.61657,-2.6854 -3.92482,-5.8528 -3.92482,-9.50221c0,-5.09541 1.65256,-9.63994 4.95768,-13.63361c3.37396,-4.06255 7.2988,-7.47095 11.77448,-10.2252c4.54453,-2.82313 8.95135,-5.4741 13.22048,-7.95294c4.26912,-2.54769 7.78081,-5.30197 10.53506,-8.26279c2.75425,-2.96083 4.1314,-5.95608 4.1314,-8.98578c0,-0.41314 -0.24101,-1.17057 -0.72299,-2.27227c-0.48199,-1.1017 -0.99841,-1.96241 -1.54928,-2.58212c-0.48199,-0.68856 -1.30827,-1.30827 -2.47884,-1.85913c-1.1017,-0.55086 -2.6854,-0.82628 -4.75111,-0.82628c-2.0657,0 -3.85599,0.75743 -5.37082,2.27227c-1.44599,1.44599 -2.27227,2.89198 -2.47884,4.33797l-0.51643,2.58212v0.51643c0,1.85913 -0.06885,3.37396 -0.20657,4.54453c-0.13772,1.17057 -0.65415,2.47884 -1.54928,3.92482c-1.72141,2.75425 -5.61182,4.1314 -11.6712,4.1314c-6.95454,0 -11.15477,-2.13454 -12.60076,-6.40366c-0.48199,-1.51483 -0.72299,-3.85599 -0.72299,-7.02337c0,-9.15791 3.27068,-17.3863 9.81207,-24.6851c6.61024,-7.2988 15.25174,-10.94821 25.92452,-10.94821c10.67278,0 19.31428,3.68382 25.92452,11.05149c6.61024,7.36767 9.91535,15.76815 9.91535,25.20153c0,5.09541 -1.13614,9.91535 -3.40841,14.4599c-2.20342,4.4757 -4.85439,8.09066 -7.95294,10.84492c-6.26594,5.57739 -11.91221,9.36449 -16.93874,11.36134l-3.09855,-0.41314l-0.30986,-0.61971z" stroke="none" stroke-width="1"/></g></g></svg>