<svg version="1.1" xmlns="http://www.w3.org/2000/svg" xmlns:xlink="http://www.w3.org/1999/xlink" width="508.8665" height="376.75632" viewBox="0,0,508.8665,376.75632"><defs><linearGradient x1="251.40354" y1="-1.83682" x2="251.40354" y2="374.91952" gradientUnits="userSpaceOnUse" id="color-1"><stop offset="0" stop-color="#000000"/><stop offset="1" stop-color="#6c6c6c"/></linearGradient></defs><g transform="translate(3.02972,1.83681)"><g data-paper-data="{&quot;isPaintingLayer&quot;:true}" fill-rule="nonzero" stroke-linejoin="miter" stroke-miterlimit="10" stroke-dasharray="" stroke-dashoffset="0" style="mix-blend-mode: normal"><path d="M-3.02971,374.91952v-376.75632h508.8665v376.75632z" fill="url(#color-1)" stroke="none" stroke-width="0" stroke-linecap="butt"/><path d="M120.30287,265.29577c-0.17572,0 -0.3109,-0.05407 -0.40552,-0.16221c-0.09462,-0.10814 -0.14193,-0.23655 -0.14193,-0.38525v-15.81541c0,-0.17572 0.04731,-0.31766 0.14193,-0.4258c0.09462,-0.10814 0.2298,-0.16221 0.40552,-0.16221h1.23685c0.17572,0 0.31766,0.05407 0.4258,0.16221c0.10814,0.10814 0.16221,0.25007 0.16221,0.4258v6.67086h8.3335v-6.67086c0,-0.17572 0.04731,-0.31766 0.14193,-0.4258c0.10814,-0.10814 0.24331,-0.16221 0.40552,-0.16221h1.23685c0.17572,0 0.31766,0.05407 0.4258,0.16221c0.10814,0.10814 0.16221,0.25007 0.16221,0.4258v15.81541c0,0.14869 -0.05407,0.27711 -0.16221,0.38525c-0.10814,0.10814 -0.25007,0.16221 -0.4258,0.16221h-1.23685c-0.16221,0 -0.29738,-0.05407 -0.40552,-0.16221c-0.09462,-0.10814 -0.14193,-0.23655 -0.14193,-0.38525v-6.95472h-8.3335v6.95472c0,0.14869 -0.05407,0.27711 -0.16221,0.38525c-0.10814,0.10814 -0.25007,0.16221 -0.4258,0.16221zM141.76555,265.53908c-1.67616,0 -3.00763,-0.51366 -3.9944,-1.54099c-0.98677,-1.02732 -1.52747,-2.42638 -1.62209,-4.19717c-0.01352,-0.21628 -0.02028,-0.48663 -0.02028,-0.81105c0,-0.33793 0.00676,-0.60828 0.02028,-0.81105c0.05407,-1.14898 0.31766,-2.15603 0.79077,-3.02115c0.47311,-0.86511 1.11519,-1.52747 1.92624,-1.98706c0.81105,-0.47311 1.77079,-0.70967 2.87922,-0.70967c1.21657,0 2.23714,0.26359 3.0617,0.79077c0.83808,0.51366 1.4734,1.24361 1.90596,2.18983c0.44608,0.94622 0.66911,2.06141 0.66911,3.34557v0.40552c0,0.17572 -0.05407,0.31766 -0.16221,0.4258c-0.10814,0.09462 -0.24331,0.14193 -0.40552,0.14193h-8.37406c0,0.01352 0,0.04731 0,0.10138c0,0.04055 0,0.07434 0,0.10138c0.04055,0.66235 0.18925,1.28416 0.44608,1.86541c0.25683,0.56773 0.62856,1.03408 1.11519,1.39906c0.50014,0.35146 1.0814,0.52718 1.74375,0.52718c0.56773,0 1.0476,-0.08787 1.43961,-0.26359c0.39201,-0.18925 0.70967,-0.39201 0.95298,-0.60828c0.24331,-0.21628 0.40552,-0.38525 0.48663,-0.5069c0.13517,-0.20276 0.24331,-0.32442 0.32442,-0.36497c0.0811,-0.04055 0.20952,-0.06083 0.38525,-0.06083h1.19629c0.14869,0 0.27035,0.04731 0.36497,0.14193c0.10814,0.0811 0.15545,0.20276 0.14193,0.36497c-0.01352,0.24331 -0.14193,0.5407 -0.38525,0.89215c-0.24331,0.35146 -0.58801,0.69615 -1.03408,1.03408c-0.44608,0.33793 -0.99353,0.61505 -1.64237,0.83132c-0.64884,0.21628 -1.38554,0.32442 -2.2101,0.32442zM138.44025,258.07743h6.63031v-0.06083c0,-0.72994 -0.13517,-1.37878 -0.40552,-1.94651c-0.25683,-0.56773 -0.63532,-1.01381 -1.13547,-1.33823c-0.50014,-0.33793 -1.09491,-0.5069 -1.7843,-0.5069c-0.7029,0 -1.30444,0.16897 -1.80458,0.5069c-0.48663,0.32442 -0.85836,0.77049 -1.11519,1.33823c-0.25683,0.56773 -0.38525,1.21657 -0.38525,1.94651zM150.84196,265.29577c-0.16221,0 -0.29738,-0.05407 -0.40552,-0.16221c-0.10814,-0.10814 -0.16221,-0.23655 -0.16221,-0.38525v-11.45603c0,-0.16221 0.05407,-0.29738 0.16221,-0.40552c0.10814,-0.12166 0.24331,-0.18249 0.40552,-0.18249h1.11519c0.16221,0 0.29738,0.06083 0.40552,0.18249c0.10814,0.10814 0.16221,0.24331 0.16221,0.40552v1.05436c0.32442,-0.5407 0.77049,-0.94622 1.33823,-1.21657c0.56773,-0.28387 1.25712,-0.4258 2.06817,-0.4258h0.9327c0.16221,0 0.29738,0.05407 0.40552,0.16221c0.10814,0.10814 0.16221,0.24331 0.16221,0.40552v0.99353c0,0.14869 -0.05407,0.27711 -0.16221,0.38525c-0.10814,0.09462 -0.24331,0.14193 -0.40552,0.14193h-1.45988c-0.86511,0 -1.54775,0.25683 -2.04789,0.77049c-0.50014,0.50014 -0.75022,1.18953 -0.75022,2.06817v7.11693c0,0.14869 -0.06083,0.27711 -0.18249,0.38525c-0.10814,0.10814 -0.24331,0.16221 -0.40552,0.16221zM164.28045,265.53908c-1.67616,0 -3.00763,-0.51366 -3.9944,-1.54099c-0.98677,-1.02732 -1.52747,-2.42638 -1.62209,-4.19717c-0.01352,-0.21628 -0.02028,-0.48663 -0.02028,-0.81105c0,-0.33793 0.00676,-0.60828 0.02028,-0.81105c0.05407,-1.14898 0.31766,-2.15603 0.79077,-3.02115c0.47311,-0.86511 1.11519,-1.52747 1.92624,-1.98706c0.81105,-0.47311 1.77079,-0.70967 2.87922,-0.70967c1.21657,0 2.23714,0.26359 3.0617,0.79077c0.83808,0.51366 1.4734,1.24361 1.90596,2.18983c0.44608,0.94622 0.66911,2.06141 0.66911,3.34557v0.40552c0,0.17572 -0.05407,0.31766 -0.16221,0.4258c-0.10814,0.09462 -0.24331,0.14193 -0.40552,0.14193h-8.37406c0,0.01352 0,0.04731 0,0.10138c0,0.04055 0,0.07434 0,0.10138c0.04055,0.66235 0.18925,1.28416 0.44608,1.86541c0.25683,0.56773 0.62856,1.03408 1.11519,1.39906c0.50014,0.35146 1.0814,0.52718 1.74375,0.52718c0.56773,0 1.0476,-0.08787 1.43961,-0.26359c0.39201,-0.18925 0.70967,-0.39201 0.95298,-0.60828c0.24331,-0.21628 0.40552,-0.38525 0.48663,-0.5069c0.13517,-0.20276 0.24331,-0.32442 0.32442,-0.36497c0.0811,-0.04055 0.20952,-0.06083 0.38525,-0.06083h1.19629c0.14869,0 0.27035,0.04731 0.36497,0.14193c0.10814,0.0811 0.15545,0.20276 0.14193,0.36497c-0.01352,0.24331 -0.14193,0.5407 -0.38525,0.89215c-0.24331,0.35146 -0.58801,0.69615 -1.03408,1.03408c-0.44608,0.33793 -0.99353,0.61505 -1.64237,0.83132c-0.64884,0.21628 -1.38554,0.32442 -2.2101,0.32442zM160.9552,258.07743h6.63031v-0.06083c0,-0.72994 -0.13517,-1.37878 -0.40552,-1.94651c-0.25683,-0.56773 -0.63532,-1.01381 -1.13547,-1.33823c-0.50014,-0.33793 -1.09491,-0.5069 -1.7843,-0.5069c-0.7029,0 -1.30444,0.16897 -1.80458,0.5069c-0.48663,0.32442 -0.85836,0.77049 -1.11519,1.33823c-0.25683,0.56773 -0.38525,1.21657 -0.38525,1.94651zM172.01797,252.78538c-0.12166,0 -0.22304,-0.04731 -0.30414,-0.14193c-0.06759,-0.10814 -0.09462,-0.2298 -0.0811,-0.36497l0.56773,-3.46722c0.02704,-0.18925 0.08787,-0.35146 0.18249,-0.48663c0.10814,-0.14869 0.27035,-0.22304 0.48663,-0.22304h1.62209c0.10814,0 0.196,0.04731 0.26359,0.14193c0.0811,0.0811 0.12166,0.17572 0.12166,0.28387c0,0.12166 -0.03379,0.25007 -0.10138,0.38525l-1.25712,3.30501c-0.06759,0.16221 -0.15545,0.29738 -0.26359,0.40552c-0.09462,0.10814 -0.23655,0.16221 -0.4258,0.16221zM181.06965,265.53908c-0.90567,0 -1.68292,-0.10814 -2.33176,-0.32442c-0.63532,-0.2298 -1.15574,-0.5069 -1.56126,-0.83132c-0.40552,-0.32442 -0.70967,-0.64884 -0.91243,-0.97326c-0.20276,-0.32442 -0.3109,-0.58125 -0.32442,-0.77049c-0.01352,-0.17572 0.04055,-0.3109 0.16221,-0.40552c0.13517,-0.10814 0.27035,-0.16221 0.40552,-0.16221h1.07464c0.0811,0 0.14869,0.01352 0.20276,0.04055c0.06759,0.02704 0.14869,0.09462 0.24331,0.20276c0.20276,0.2298 0.43256,0.45959 0.68939,0.68939c0.27035,0.21628 0.59477,0.39876 0.97326,0.54746c0.37849,0.14869 0.84484,0.22304 1.39906,0.22304c0.82456,0 1.50044,-0.15545 2.02762,-0.46635c0.5407,-0.32442 0.81105,-0.79077 0.81105,-1.39906c0,-0.40552 -0.10814,-0.72994 -0.32442,-0.97326c-0.21628,-0.24331 -0.60152,-0.45959 -1.15574,-0.64884c-0.55422,-0.18925 -1.31795,-0.39201 -2.29121,-0.60828c-0.97326,-0.2298 -1.74375,-0.5069 -2.31148,-0.83132c-0.55422,-0.33793 -0.95298,-0.7367 -1.19629,-1.19629c-0.24331,-0.45959 -0.36497,-0.98002 -0.36497,-1.56126c0,-0.59477 0.17572,-1.16926 0.52718,-1.72347c0.35146,-0.55422 0.87187,-1.00705 1.56126,-1.3585c0.68939,-0.36497 1.54775,-0.54746 2.57507,-0.54746c0.83808,0 1.5545,0.10814 2.14927,0.32442c0.60828,0.20276 1.10167,0.46635 1.48016,0.79077c0.39201,0.3109 0.68263,0.6218 0.87188,0.9327c0.20276,0.29738 0.3109,0.55422 0.32442,0.77049c0.01352,0.16221 -0.04055,0.29738 -0.16221,0.40552c-0.10814,0.09462 -0.2298,0.14193 -0.36497,0.14193h-1.03408c-0.10814,0 -0.20276,-0.02028 -0.28387,-0.06083c-0.06759,-0.05407 -0.12842,-0.1149 -0.18249,-0.18249c-0.16221,-0.20276 -0.35821,-0.40552 -0.58801,-0.60828c-0.21628,-0.21628 -0.50014,-0.39201 -0.8516,-0.52718c-0.33793,-0.14869 -0.79077,-0.22304 -1.3585,-0.22304c-0.79753,0 -1.39906,0.16897 -1.80458,0.5069c-0.40552,0.33793 -0.60828,0.77049 -0.60828,1.29767c0,0.29738 0.08787,0.56773 0.26359,0.81105c0.17572,0.24331 0.51366,0.46635 1.01381,0.66911c0.50014,0.18925 1.24361,0.39876 2.23038,0.62856c1.06788,0.20276 1.90596,0.48663 2.51424,0.8516c0.6218,0.35146 1.06112,0.76373 1.31795,1.23685c0.25683,0.45959 0.38525,0.99353 0.38525,1.60182c0,0.67587 -0.196,1.29767 -0.58801,1.86541c-0.39201,0.56773 -0.97326,1.02057 -1.74375,1.3585c-0.77049,0.32442 -1.72347,0.48663 -2.85894,0.48663zM196.54474,269.89844c-0.13517,0 -0.25007,-0.04731 -0.34469,-0.14193c-0.09462,-0.09462 -0.14193,-0.20952 -0.14193,-0.34469c0,-0.06759 0.00676,-0.13517 0.02028,-0.20276c0.02704,-0.05407 0.06083,-0.13517 0.10138,-0.24331l1.86541,-4.4202l-4.62297,-10.92885c-0.0811,-0.18925 -0.12166,-0.32442 -0.12166,-0.40552c0,-0.14869 0.04731,-0.27035 0.14193,-0.36497c0.09462,-0.09462 0.21628,-0.14193 0.36497,-0.14193h1.19629c0.17572,0 0.30414,0.04055 0.38525,0.12166c0.0811,0.0811 0.14193,0.17572 0.18249,0.28387l3.69026,8.82013l3.77137,-8.82013c0.05407,-0.10814 0.12166,-0.20276 0.20276,-0.28387c0.09462,-0.0811 0.2298,-0.12166 0.40552,-0.12166h1.13547c0.14869,0 0.27035,0.04731 0.36497,0.14193c0.09462,0.09462 0.14193,0.20952 0.14193,0.34469c0,0.0811 -0.04055,0.22304 -0.12166,0.4258l-6.87362,15.87624c-0.05407,0.10814 -0.12842,0.20276 -0.22304,0.28387c-0.0811,0.0811 -0.20952,0.12166 -0.38525,0.12166zM212.43281,265.53908c-1.23009,0 -2.25741,-0.2298 -3.08198,-0.68939c-0.82456,-0.47311 -1.45312,-1.12195 -1.88568,-1.94651c-0.43256,-0.83808 -0.67587,-1.79106 -0.72994,-2.85894c-0.01352,-0.27035 -0.02028,-0.6218 -0.02028,-1.05436c0,-0.43256 0.00676,-0.77726 0.02028,-1.03408c0.05407,-1.0814 0.29738,-2.03438 0.72994,-2.85894c0.44608,-0.82456 1.0814,-1.46664 1.90596,-1.92624c0.82456,-0.47311 1.84513,-0.70967 3.0617,-0.70967c1.20305,0 2.21686,0.23655 3.04142,0.70967c0.82456,0.45959 1.45988,1.10167 1.90596,1.92624c0.44608,0.82456 0.68939,1.77754 0.72994,2.85894c0.01352,0.25683 0.02028,0.60152 0.02028,1.03408c0,0.43256 -0.00676,0.78401 -0.02028,1.05436c-0.04055,1.06788 -0.28387,2.02086 -0.72994,2.85894c-0.43256,0.82456 -1.06112,1.4734 -1.88568,1.94651c-0.82456,0.45959 -1.84513,0.68939 -3.0617,0.68939zM212.43281,263.67368c1.00029,0 1.79782,-0.31766 2.39259,-0.95298c0.59477,-0.63532 0.91919,-1.56803 0.97326,-2.79811c0.01352,-0.24331 0.02028,-0.54746 0.02028,-0.91243c0,-0.37849 -0.00676,-0.68939 -0.02028,-0.9327c-0.05407,-1.23009 -0.37849,-2.16279 -0.97326,-2.79811c-0.59477,-0.63532 -1.39229,-0.95298 -2.39259,-0.95298c-1.00029,0 -1.80458,0.31766 -2.41286,0.95298c-0.60828,0.63532 -0.92594,1.56803 -0.95298,2.79811c-0.01352,0.24331 -0.02028,0.55422 -0.02028,0.9327c0,0.36497 0.00676,0.66911 0.02028,0.91243c0.02704,1.23009 0.34469,2.16279 0.95298,2.79811c0.60828,0.63532 1.41257,0.95298 2.41286,0.95298zM225.86284,265.53908c-1.02732,0 -1.90596,-0.2298 -2.6359,-0.68939c-0.71643,-0.45959 -1.26388,-1.10167 -1.64237,-1.92624c-0.36497,-0.82456 -0.54746,-1.77079 -0.54746,-2.83866v-6.81279c0,-0.16221 0.05407,-0.29738 0.16221,-0.40552c0.10814,-0.10814 0.24331,-0.16221 0.40552,-0.16221h1.21657c0.14869,0 0.27711,0.05407 0.38525,0.16221c0.10814,0.10814 0.16221,0.24331 0.16221,0.40552v6.69113c0,2.4061 1.0476,3.60916 3.14281,3.60916c1.00029,0 1.80458,-0.31766 2.41286,-0.95298c0.60828,-0.63532 0.91243,-1.52071 0.91243,-2.65618v-6.69113c0,-0.16221 0.04731,-0.29738 0.14193,-0.40552c0.10814,-0.10814 0.24331,-0.16221 0.40552,-0.16221h1.21657c0.16221,0 0.29063,0.05407 0.38525,0.16221c0.09462,0.10814 0.14193,0.24331 0.14193,0.40552v11.47631c0,0.14869 -0.04731,0.27711 -0.14193,0.38525c-0.09462,0.10814 -0.22304,0.16221 -0.38525,0.16221h-1.13547c-0.16221,0 -0.29738,-0.05407 -0.40552,-0.16221c-0.10814,-0.10814 -0.16221,-0.23655 -0.16221,-0.38525v-1.07464c-0.43256,0.56773 -0.95974,1.02057 -1.58154,1.3585c-0.6218,0.33793 -1.43961,0.5069 -2.45342,0.5069zM236.30079,265.29577c-0.16221,0 -0.29738,-0.05407 -0.40552,-0.16221c-0.10814,-0.10814 -0.16221,-0.23655 -0.16221,-0.38525v-11.45603c0,-0.16221 0.05407,-0.29738 0.16221,-0.40552c0.10814,-0.12166 0.24331,-0.18249 0.40552,-0.18249h1.11519c0.16221,0 0.29738,0.06083 0.40552,0.18249c0.10814,0.10814 0.16221,0.24331 0.16221,0.40552v1.05436c0.32442,-0.5407 0.77049,-0.94622 1.33823,-1.21657c0.56773,-0.28387 1.25712,-0.4258 2.06817,-0.4258h0.9327c0.16221,0 0.29738,0.05407 0.40552,0.16221c0.10814,0.10814 0.16221,0.24331 0.16221,0.40552v0.99353c0,0.14869 -0.05407,0.27711 -0.16221,0.38525c-0.10814,0.09462 -0.24331,0.14193 -0.40552,0.14193h-1.45988c-0.86511,0 -1.54775,0.25683 -2.04789,0.77049c-0.50014,0.50014 -0.75022,1.18953 -0.75022,2.06817v7.11693c0,0.14869 -0.06083,0.27711 -0.18249,0.38525c-0.10814,0.10814 -0.24331,0.16221 -0.40552,0.16221zM254.66635,265.53908c-0.90567,0 -1.68292,-0.10814 -2.33176,-0.32442c-0.63532,-0.2298 -1.15574,-0.5069 -1.56126,-0.83132c-0.40552,-0.32442 -0.70967,-0.64884 -0.91243,-0.97326c-0.20276,-0.32442 -0.3109,-0.58125 -0.32442,-0.77049c-0.01352,-0.17572 0.04055,-0.3109 0.16221,-0.40552c0.13517,-0.10814 0.27035,-0.16221 0.40552,-0.16221h1.07464c0.0811,0 0.14869,0.01352 0.20276,0.04055c0.06759,0.02704 0.14869,0.09462 0.24331,0.20276c0.20276,0.2298 0.43256,0.45959 0.68939,0.68939c0.27035,0.21628 0.59477,0.39876 0.97326,0.54746c0.37849,0.14869 0.84484,0.22304 1.39906,0.22304c0.82456,0 1.50044,-0.15545 2.02762,-0.46635c0.5407,-0.32442 0.81105,-0.79077 0.81105,-1.39906c0,-0.40552 -0.10814,-0.72994 -0.32442,-0.97326c-0.21628,-0.24331 -0.60152,-0.45959 -1.15574,-0.64884c-0.55422,-0.18925 -1.31795,-0.39201 -2.29121,-0.60828c-0.97326,-0.2298 -1.74375,-0.5069 -2.31148,-0.83132c-0.55422,-0.33793 -0.95298,-0.7367 -1.19629,-1.19629c-0.24331,-0.45959 -0.36497,-0.98002 -0.36497,-1.56126c0,-0.59477 0.17572,-1.16926 0.52718,-1.72347c0.35146,-0.55422 0.87187,-1.00705 1.56126,-1.3585c0.68939,-0.36497 1.54775,-0.54746 2.57507,-0.54746c0.83808,0 1.5545,0.10814 2.14927,0.32442c0.60828,0.20276 1.10167,0.46635 1.48016,0.79077c0.39201,0.3109 0.68263,0.6218 0.87187,0.9327c0.20276,0.29738 0.3109,0.55422 0.32442,0.77049c0.01352,0.16221 -0.04055,0.29738 -0.16221,0.40552c-0.10814,0.09462 -0.2298,0.14193 -0.36497,0.14193h-1.03408c-0.10814,0 -0.20276,-0.02028 -0.28387,-0.06083c-0.06759,-0.05407 -0.12842,-0.1149 -0.18249,-0.18249c-0.16221,-0.20276 -0.35821,-0.40552 -0.58801,-0.60828c-0.21628,-0.21628 -0.50014,-0.39201 -0.8516,-0.52718c-0.33793,-0.14869 -0.79077,-0.22304 -1.3585,-0.22304c-0.79753,0 -1.39906,0.16897 -1.80458,0.5069c-0.40552,0.33793 -0.60828,0.77049 -0.60828,1.29767c0,0.29738 0.08787,0.56773 0.26359,0.81105c0.17572,0.24331 0.51366,0.46635 1.01381,0.66911c0.50014,0.18925 1.24361,0.39876 2.23038,0.62856c1.06788,0.20276 1.90596,0.48663 2.51424,0.8516c0.6218,0.35146 1.06112,0.76373 1.31795,1.23685c0.25683,0.45959 0.38525,0.99353 0.38525,1.60182c0,0.67587 -0.196,1.29767 -0.58801,1.86541c-0.39201,0.56773 -0.97326,1.02057 -1.74375,1.3585c-0.77049,0.32442 -1.72347,0.48663 -2.85894,0.48663zM266.16174,265.53908c-0.79753,0 -1.52747,-0.16221 -2.18983,-0.48663c-0.66235,-0.32442 -1.19629,-0.75698 -1.60182,-1.29767c-0.40552,-0.55422 -0.60828,-1.17602 -0.60828,-1.86541c0,-1.12195 0.45284,-2.0141 1.3585,-2.67645c0.90567,-0.66235 2.08168,-1.09491 3.52805,-1.29767l3.60916,-0.5069v-0.70967c0,-0.77049 -0.22304,-1.37202 -0.66911,-1.80458c-0.43256,-0.44608 -1.14898,-0.66911 -2.14927,-0.66911c-0.5407,0 -0.99353,0.0811 -1.3585,0.24331c-0.36497,0.16221 -0.66235,0.35821 -0.89215,0.58801c-0.21628,0.2298 -0.39201,0.45284 -0.52718,0.66911c-0.05407,0.14869 -0.12166,0.25683 -0.20276,0.32442c-0.06759,0.06759 -0.15545,0.10138 -0.26359,0.10138h-1.05436c-0.14869,0 -0.27711,-0.05407 -0.38525,-0.16221c-0.09462,-0.10814 -0.14193,-0.23655 -0.14193,-0.38525c0,-0.24331 0.08787,-0.5407 0.26359,-0.89215c0.18925,-0.35146 0.47987,-0.69615 0.87188,-1.03408c0.39201,-0.33793 0.88539,-0.6218 1.48016,-0.8516c0.60828,-0.24331 1.35174,-0.36497 2.23038,-0.36497c0.95974,0 1.77079,0.12842 2.43314,0.38525c0.66235,0.24331 1.18278,0.57449 1.56126,0.99353c0.37849,0.41904 0.6556,0.89891 0.83132,1.43961c0.17572,0.52718 0.26359,1.06788 0.26359,1.62209v7.84688c0,0.14869 -0.05407,0.27711 -0.16221,0.38525c-0.10814,0.10814 -0.24331,0.16221 -0.40552,0.16221h-1.11519c-0.17572,0 -0.3109,-0.05407 -0.40552,-0.16221c-0.09462,-0.10814 -0.14193,-0.23655 -0.14193,-0.38525v-1.05436c-0.21628,0.29738 -0.50014,0.58801 -0.8516,0.87187c-0.35146,0.27035 -0.79753,0.50014 -1.33823,0.68939c-0.52718,0.18925 -1.18278,0.28387 -1.96679,0.28387zM266.6889,263.71423c0.66235,0 1.26388,-0.13517 1.80458,-0.40552c0.55422,-0.28387 0.98677,-0.72318 1.29767,-1.31795c0.3109,-0.60828 0.46635,-1.36526 0.46635,-2.27093v-0.66911l-2.79811,0.40552c-1.14898,0.16221 -2.0141,0.43256 -2.59535,0.81105c-0.58125,0.37849 -0.87188,0.85836 -0.87188,1.43961c0,0.45959 0.12842,0.83808 0.38525,1.13547c0.27035,0.29738 0.60828,0.52042 1.01381,0.66911c0.41904,0.13517 0.8516,0.20276 1.29767,0.20276zM280.15513,265.29577c-0.2298,0 -0.41904,-0.05407 -0.56773,-0.16221c-0.13517,-0.12166 -0.24331,-0.27035 -0.32442,-0.44608l-4.48103,-11.23299c-0.02704,-0.0811 -0.04055,-0.16221 -0.04055,-0.24331c0,-0.14869 0.04731,-0.27035 0.14193,-0.36497c0.09462,-0.09462 0.21628,-0.14193 0.36497,-0.14193h1.15574c0.18925,0 0.33118,0.04731 0.4258,0.14193c0.09462,0.09462 0.15545,0.18249 0.18249,0.26359l3.69026,9.55007l3.66999,-9.55007c0.04055,-0.0811 0.10138,-0.16897 0.18249,-0.26359c0.09462,-0.09462 0.2298,-0.14193 0.40552,-0.14193h1.17602c0.13517,0 0.25007,0.04731 0.34469,0.14193c0.10814,0.09462 0.16221,0.21628 0.16221,0.36497c0,0.0811 -0.01352,0.16221 -0.04055,0.24331l-4.50131,11.23299c-0.06759,0.17572 -0.16897,0.32442 -0.30414,0.44608c-0.13517,0.10814 -0.33118,0.16221 -0.58801,0.16221zM293.77625,265.53908c-1.67616,0 -3.00763,-0.51366 -3.9944,-1.54099c-0.98677,-1.02732 -1.52747,-2.42638 -1.62209,-4.19717c-0.01352,-0.21628 -0.02028,-0.48663 -0.02028,-0.81105c0,-0.33793 0.00676,-0.60828 0.02028,-0.81105c0.05407,-1.14898 0.31766,-2.15603 0.79077,-3.02115c0.47311,-0.86511 1.11519,-1.52747 1.92624,-1.98706c0.81105,-0.47311 1.77079,-0.70967 2.87922,-0.70967c1.21657,0 2.23714,0.26359 3.0617,0.79077c0.83808,0.51366 1.4734,1.24361 1.90596,2.18983c0.44608,0.94622 0.66911,2.06141 0.66911,3.34557v0.40552c0,0.17572 -0.05407,0.31766 -0.16221,0.4258c-0.10814,0.09462 -0.24331,0.14193 -0.40552,0.14193h-8.37406c0,0.01352 0,0.04731 0,0.10138c0,0.04055 0,0.07434 0,0.10138c0.04055,0.66235 0.18925,1.28416 0.44608,1.86541c0.25683,0.56773 0.62856,1.03408 1.11519,1.39906c0.50014,0.35146 1.0814,0.52718 1.74375,0.52718c0.56773,0 1.0476,-0.08787 1.43961,-0.26359c0.39201,-0.18925 0.70967,-0.39201 0.95298,-0.60828c0.24331,-0.21628 0.40552,-0.38525 0.48663,-0.5069c0.13517,-0.20276 0.24331,-0.32442 0.32442,-0.36497c0.0811,-0.04055 0.20952,-0.06083 0.38525,-0.06083h1.19629c0.14869,0 0.27035,0.04731 0.36497,0.14193c0.10814,0.0811 0.15545,0.20276 0.14193,0.36497c-0.01352,0.24331 -0.14193,0.5407 -0.38525,0.89215c-0.24331,0.35146 -0.58801,0.69615 -1.03408,1.03408c-0.44608,0.33793 -0.99353,0.61505 -1.64237,0.83132c-0.64884,0.21628 -1.38554,0.32442 -2.2101,0.32442zM290.45096,258.07743h6.63031v-0.06083c0,-0.72994 -0.13517,-1.37878 -0.40552,-1.94651c-0.25683,-0.56773 -0.63532,-1.01381 -1.13547,-1.33823c-0.50014,-0.33793 -1.09491,-0.5069 -1.7843,-0.5069c-0.7029,0 -1.30444,0.16897 -1.80458,0.5069c-0.48663,0.32442 -0.85836,0.77049 -1.11519,1.33823c-0.25683,0.56773 -0.38525,1.21657 -0.38525,1.94651zM307.37424,265.53908c-1.14898,0 -2.14251,-0.22304 -2.9806,-0.66911c-0.82456,-0.44608 -1.46664,-1.0814 -1.92624,-1.90596c-0.44608,-0.83808 -0.68263,-1.83837 -0.70967,-3.00087c-0.01352,-0.24331 -0.02028,-0.56097 -0.02028,-0.95298c0,-0.40552 0.00676,-0.72994 0.02028,-0.97326c0.02704,-1.1625 0.26359,-2.15603 0.70967,-2.9806c0.45959,-0.83808 1.10167,-1.48016 1.92624,-1.92624c0.83808,-0.44608 1.83162,-0.66911 2.9806,-0.66911c0.9327,0 1.73023,0.12842 2.39259,0.38525c0.67587,0.25683 1.23009,0.58801 1.66265,0.99353c0.44608,0.40552 0.77726,0.84484 0.99353,1.31795c0.21628,0.45959 0.33118,0.89891 0.34469,1.31795c0.02704,0.16221 -0.02028,0.29738 -0.14193,0.40552c-0.10814,0.09462 -0.24331,0.14193 -0.40552,0.14193h-1.15574c-0.16221,0 -0.28387,-0.03379 -0.36497,-0.10138c-0.0811,-0.0811 -0.16221,-0.20952 -0.24331,-0.38525c-0.29738,-0.79753 -0.69615,-1.35174 -1.19629,-1.66265c-0.50014,-0.32442 -1.12195,-0.48663 -1.86541,-0.48663c-0.95974,0 -1.74375,0.29738 -2.35203,0.89215c-0.60828,0.59477 -0.9327,1.5545 -0.97326,2.87922c-0.02704,0.58125 -0.02704,1.14223 0,1.68292c0.04055,1.33823 0.36497,2.30472 0.97326,2.89949c0.60828,0.59477 1.39229,0.89215 2.35203,0.89215c0.74346,0 1.36526,-0.16221 1.86541,-0.48663c0.50014,-0.32442 0.89891,-0.88539 1.19629,-1.68292c0.0811,-0.17572 0.16221,-0.30414 0.24331,-0.38525c0.0811,-0.0811 0.20276,-0.12166 0.36497,-0.12166h1.15574c0.16221,0 0.29738,0.05407 0.40552,0.16221c0.12166,0.10814 0.16897,0.24331 0.14193,0.40552c-0.01352,0.33793 -0.08787,0.68263 -0.22304,1.03408c-0.12166,0.35146 -0.32442,0.70967 -0.60828,1.07464c-0.28387,0.36497 -0.63532,0.68939 -1.05436,0.97326c-0.41904,0.28387 -0.91919,0.51366 -1.50044,0.68939c-0.58125,0.16221 -1.25036,0.24331 -2.00734,0.24331zM320.81914,265.53908c-1.23009,0 -2.25741,-0.2298 -3.08198,-0.68939c-0.82456,-0.47311 -1.45312,-1.12195 -1.88568,-1.94651c-0.43256,-0.83808 -0.67587,-1.79106 -0.72994,-2.85894c-0.01352,-0.27035 -0.02028,-0.6218 -0.02028,-1.05436c0,-0.43256 0.00676,-0.77726 0.02028,-1.03408c0.05407,-1.0814 0.29738,-2.03438 0.72994,-2.85894c0.44608,-0.82456 1.0814,-1.46664 1.90596,-1.92624c0.82456,-0.47311 1.84513,-0.70967 3.0617,-0.70967c1.20305,0 2.21686,0.23655 3.04142,0.70967c0.82456,0.45959 1.45988,1.10167 1.90596,1.92624c0.44608,0.82456 0.68939,1.77754 0.72994,2.85894c0.01352,0.25683 0.02028,0.60152 0.02028,1.03408c0,0.43256 -0.00676,0.78401 -0.02028,1.05436c-0.04055,1.06788 -0.28387,2.02086 -0.72994,2.85894c-0.43256,0.82456 -1.06112,1.4734 -1.88568,1.94651c-0.82456,0.45959 -1.84513,0.68939 -3.0617,0.68939zM320.81914,263.67368c1.00029,0 1.79782,-0.31766 2.39259,-0.95298c0.59477,-0.63532 0.91919,-1.56803 0.97326,-2.79811c0.01352,-0.24331 0.02028,-0.54746 0.02028,-0.91243c0,-0.37849 -0.00676,-0.68939 -0.02028,-0.9327c-0.05407,-1.23009 -0.37849,-2.16279 -0.97326,-2.79811c-0.59477,-0.63532 -1.39229,-0.95298 -2.39259,-0.95298c-1.00029,0 -1.80458,0.31766 -2.41286,0.95298c-0.60828,0.63532 -0.92594,1.56803 -0.95298,2.79811c-0.01352,0.24331 -0.02028,0.55422 -0.02028,0.9327c0,0.36497 0.00676,0.66911 0.02028,0.91243c0.02704,1.23009 0.34469,2.16279 0.95298,2.79811c0.60828,0.63532 1.41257,0.95298 2.41286,0.95298zM334.14778,265.53908c-0.87864,0 -1.64237,-0.15545 -2.29121,-0.46635c-0.64884,-0.32442 -1.18278,-0.75698 -1.60182,-1.29767c-0.40552,-0.5407 -0.70967,-1.15574 -0.91243,-1.84513c-0.20276,-0.68939 -0.31766,-1.42609 -0.34469,-2.2101c-0.01352,-0.25683 -0.02028,-0.49339 -0.02028,-0.70967c0,-0.2298 0.00676,-0.47311 0.02028,-0.72994c0.02704,-0.75698 0.14193,-1.48016 0.34469,-2.16955c0.20276,-0.7029 0.5069,-1.32471 0.91243,-1.86541c0.41904,-0.55422 0.95298,-0.98677 1.60182,-1.29767c0.64884,-0.32442 1.41257,-0.48663 2.29121,-0.48663c0.95974,0 1.75051,0.16897 2.37231,0.5069c0.63532,0.33793 1.15574,0.75698 1.56126,1.25712v-5.55567c0,-0.16221 0.04731,-0.29738 0.14193,-0.40552c0.10814,-0.10814 0.24331,-0.16221 0.40552,-0.16221h1.15574c0.16221,0 0.29738,0.05407 0.40552,0.16221c0.10814,0.10814 0.16221,0.24331 0.16221,0.40552v16.079c0,0.14869 -0.05407,0.27711 -0.16221,0.38525c-0.10814,0.10814 -0.24331,0.16221 -0.40552,0.16221h-1.07464c-0.17572,0 -0.31766,-0.05407 -0.4258,-0.16221c-0.09462,-0.10814 -0.14193,-0.23655 -0.14193,-0.38525v-1.03408c-0.40552,0.52718 -0.9327,0.96649 -1.58154,1.31795c-0.63532,0.33793 -1.43961,0.5069 -2.41286,0.5069zM334.65468,263.57229c0.81105,0 1.45988,-0.18249 1.94651,-0.54746c0.48663,-0.37849 0.84484,-0.8516 1.07464,-1.41933c0.24331,-0.56773 0.37849,-1.15574 0.40552,-1.76403c0.01352,-0.25683 0.02028,-0.56097 0.02028,-0.91243c0,-0.36497 -0.00676,-0.68263 -0.02028,-0.95298c-0.02704,-0.55422 -0.16897,-1.10843 -0.4258,-1.66265c-0.24331,-0.55422 -0.60828,-1.00705 -1.09491,-1.3585c-0.48663,-0.35146 -1.12195,-0.52718 -1.90596,-0.52718c-0.82456,0 -1.48016,0.18249 -1.96679,0.54746c-0.47311,0.36497 -0.81781,0.84484 -1.03408,1.43961c-0.20276,0.58125 -0.32442,1.20981 -0.36497,1.88568c-0.01352,0.47311 -0.01352,0.93946 0,1.39906c0.04055,0.67587 0.16221,1.31119 0.36497,1.90596c0.21628,0.58125 0.56097,1.05436 1.03408,1.41933c0.48663,0.36497 1.14223,0.54746 1.96679,0.54746zM348.99867,265.53908c-1.67616,0 -3.00763,-0.51366 -3.9944,-1.54099c-0.98677,-1.02732 -1.52747,-2.42638 -1.62209,-4.19717c-0.01352,-0.21628 -0.02028,-0.48663 -0.02028,-0.81105c0,-0.33793 0.00676,-0.60828 0.02028,-0.81105c0.05407,-1.14898 0.31766,-2.15603 0.79077,-3.02115c0.47311,-0.86511 1.11519,-1.52747 1.92624,-1.98706c0.81105,-0.47311 1.77079,-0.70967 2.87922,-0.70967c1.21657,0 2.23714,0.26359 3.0617,0.79077c0.83808,0.51366 1.4734,1.24361 1.90596,2.18983c0.44608,0.94622 0.66911,2.06141 0.66911,3.34557v0.40552c0,0.17572 -0.05407,0.31766 -0.16221,0.4258c-0.10814,0.09462 -0.24331,0.14193 -0.40552,0.14193h-8.37406c0,0.01352 0,0.04731 0,0.10138c0,0.04055 0,0.07434 0,0.10138c0.04055,0.66235 0.18925,1.28416 0.44608,1.86541c0.25683,0.56773 0.62856,1.03408 1.11519,1.39906c0.50014,0.35146 1.0814,0.52718 1.74375,0.52718c0.56773,0 1.0476,-0.08787 1.43961,-0.26359c0.39201,-0.18925 0.70967,-0.39201 0.95298,-0.60828c0.24331,-0.21628 0.40552,-0.38525 0.48663,-0.5069c0.13517,-0.20276 0.24331,-0.32442 0.32442,-0.36497c0.0811,-0.04055 0.20952,-0.06083 0.38525,-0.06083h1.19629c0.14869,0 0.27035,0.04731 0.36497,0.14193c0.10814,0.0811 0.15545,0.20276 0.14193,0.36497c-0.01352,0.24331 -0.14193,0.5407 -0.38525,0.89215c-0.24331,0.35146 -0.58801,0.69615 -1.03408,1.03408c-0.44608,0.33793 -0.99353,0.61505 -1.64237,0.83132c-0.64884,0.21628 -1.38554,0.32442 -2.2101,0.32442zM345.67338,258.07743h6.63031v-0.06083c0,-0.72994 -0.13517,-1.37878 -0.40552,-1.94651c-0.25683,-0.56773 -0.63532,-1.01381 -1.13547,-1.33823c-0.50014,-0.33793 -1.09491,-0.5069 -1.7843,-0.5069c-0.7029,0 -1.30444,0.16897 -1.80458,0.5069c-0.48663,0.32442 -0.85836,0.77049 -1.11519,1.33823c-0.25683,0.56773 -0.38525,1.21657 -0.38525,1.94651zM357.95345,256.82033c-0.16221,0 -0.29738,-0.04731 -0.40552,-0.14193c-0.10814,-0.10814 -0.16221,-0.24331 -0.16221,-0.40552v-1.7032c0,-0.16221 0.05407,-0.29063 0.16221,-0.38525c0.10814,-0.10814 0.24331,-0.16221 0.40552,-0.16221h1.74375c0.16221,0 0.29063,0.05407 0.38525,0.16221c0.10814,0.09462 0.16221,0.22304 0.16221,0.38525v1.7032c0,0.16221 -0.05407,0.29738 -0.16221,0.40552c-0.09462,0.09462 -0.22304,0.14193 -0.38525,0.14193zM357.95345,265.29577c-0.16221,0 -0.29738,-0.05407 -0.40552,-0.16221c-0.10814,-0.10814 -0.16221,-0.23655 -0.16221,-0.38525v-1.7032c0,-0.16221 0.05407,-0.29738 0.16221,-0.40552c0.10814,-0.10814 0.24331,-0.16221 0.40552,-0.16221h1.74375c0.16221,0 0.29063,0.05407 0.38525,0.16221c0.10814,0.10814 0.16221,0.24331 0.16221,0.40552v1.7032c0,0.14869 -0.05407,0.27711 -0.16221,0.38525c-0.09462,0.10814 -0.22304,0.16221 -0.38525,0.16221z" fill="#ffffff" stroke="#ffffff" stroke-width="0.5" stroke-linecap="square"/><g fill="#ffffff" stroke="none" stroke-width="1" stroke-linecap="square"><path d="M80.04391,55.65641h19.02201c0.73516,0 1.26981,0.09189 1.60397,0.27568c0.35086,0.16707 0.57642,0.43442 0.67667,0.80199c0.11696,0.35086 0.17544,0.82704 0.17544,1.42853c0,0.58478 -0.05848,1.06096 -0.17544,1.42853c-0.10025,0.35086 -0.29238,0.59313 -0.57643,0.72679c-0.40099,0.2005 -0.97741,0.30074 -1.72927,0.30074h-6.54116v17.21755c0,0.51794 -0.0167,0.90223 -0.05012,1.15285c-0.03342,0.25062 -0.14202,0.54301 -0.32581,0.87717c-0.16707,0.33416 -0.46782,0.56807 -0.90223,0.70173c-0.41769,0.13366 -0.98577,0.2005 -1.70421,0.2005c-0.70173,0 -1.2698,-0.06683 -1.70421,-0.2005c-0.41769,-0.13366 -0.71009,-0.36758 -0.87717,-0.70173c-0.16707,-0.33416 -0.26732,-0.62655 -0.30074,-0.87717c-0.03342,-0.26732 -0.05012,-0.66831 -0.05012,-1.20297v-17.16743h-6.56623c-0.73516,0 -1.27816,-0.08355 -1.62902,-0.25062c-0.33416,-0.16707 -0.55972,-0.43441 -0.67668,-0.80198c-0.11696,-0.36757 -0.17543,-0.84375 -0.17543,-1.42853c0,-0.60148 0.05848,-1.07766 0.17543,-1.42853c0.11696,-0.35086 0.31745,-0.60149 0.60149,-0.75186c0.40099,-0.2005 0.97741,-0.30074 1.72927,-0.30074zM113.39681,62.79906c2.28899,0 4.18534,0.86881 5.68905,2.60644c1.52042,1.73763 2.28064,3.85953 2.28064,6.36573v6.01487c0,0.53466 -0.0167,0.93564 -0.05012,1.20297c-0.03342,0.25062 -0.14201,0.55137 -0.3258,0.90223c-0.30075,0.58478 -1.17791,0.87717 -2.63151,0.87717c-1.38676,0 -2.25558,-0.29239 -2.60644,-0.87717c-0.18379,-0.35086 -0.29238,-0.65996 -0.32581,-0.92729c-0.03342,-0.28404 -0.05012,-0.69338 -0.05012,-1.22804v-5.9898c0,-0.93565 -0.25898,-1.66245 -0.77692,-2.18039c-0.51794,-0.53466 -1.18627,-0.80198 -2.00495,-0.80198c-0.80198,0 -1.51207,0.25061 -2.13026,0.75185c-0.61819,0.48453 -0.97741,1.02754 -1.07766,1.62903v6.64141c0,0.53466 -0.0167,0.93564 -0.05012,1.20297c-0.03342,0.25062 -0.14202,0.55137 -0.32581,0.90223c-0.28404,0.58478 -1.16121,0.87717 -2.6315,0.87717c-1.43689,0 -2.31406,-0.30911 -2.63151,-0.9273c-0.15037,-0.33416 -0.24226,-0.62655 -0.27568,-0.87717c-0.03342,-0.25062 -0.05012,-0.65161 -0.05012,-1.20297v-20.45054c0,-0.53466 0.0167,-0.92729 0.05012,-1.17791c0.03342,-0.26732 0.12531,-0.55972 0.27568,-0.87717c0.31745,-0.61819 1.21133,-0.92729 2.68163,-0.92729c1.43689,0 2.29734,0.3091 2.58138,0.92729c0.18379,0.33416 0.29238,0.63491 0.32581,0.90223c0.03342,0.26732 0.05012,0.65996 0.05012,1.17791v7.5687c1.15285,-1.40347 2.48949,-2.1052 4.00991,-2.1052zM141.48693,69.59084c0,1.40347 -0.35086,2.44772 -1.0526,3.13275c-0.68503,0.66832 -1.4536,1.00248 -2.3057,1.00248h-8.095c0,0.63491 0.37592,1.16956 1.12778,1.60397c0.75186,0.43441 1.50372,0.65161 2.25558,0.65161c1.31993,0 2.35582,-0.13366 3.10768,-0.40099l0.37592,-0.15037c0.55136,-0.25062 1.01084,-0.37593 1.37841,-0.37593c0.71844,0 1.34499,0.5096 1.87965,1.52878c0.30075,0.61819 0.45111,1.14449 0.45111,1.5789c0,2.03838 -2.431,3.05756 -7.29302,3.05756c-1.6875,0 -3.19122,-0.29239 -4.51114,-0.87717c-1.30322,-0.58478 -2.3224,-1.35334 -3.05755,-2.30569c-1.43689,-1.85459 -2.15533,-3.91802 -2.15533,-6.1903c0,-2.87377 0.92729,-5.17112 2.78187,-6.89203c1.87129,-1.72092 4.1937,-2.58138 6.96722,-2.58138c3.17451,0 5.50527,1.11108 6.99228,3.33324c0.76856,1.18627 1.15285,2.48113 1.15285,3.8846zM134.26909,70.61838c0.86881,0 1.30322,-0.36757 1.30322,-1.10273c0,-0.51794 -0.20049,-0.93564 -0.60148,-1.25309c-0.40099,-0.33416 -0.97742,-0.50124 -1.72928,-0.50124c-0.73515,0 -1.47029,0.30911 -2.20545,0.9273c-0.71844,0.60148 -1.07766,1.24474 -1.07766,1.92977zM152.3762,85.65553v-19.97436c0,-0.51794 0.0167,-0.90223 0.05012,-1.15284c0.03342,-0.25062 0.12532,-0.54301 0.27569,-0.87717c0.31745,-0.60148 1.07766,-0.90223 2.28063,-0.90223c1.21968,0 2.03838,0.15037 2.45607,0.45112c0.43441,0.30075 0.68502,0.75186 0.75186,1.35334c0.86881,-1.18627 2.23051,-1.77939 4.08509,-1.77939c1.85458,0 3.60892,0.87717 5.263,2.6315c1.67079,1.75433 2.5062,3.80106 2.5062,6.14017c0,2.32241 -0.82705,4.36078 -2.48114,6.11511c-1.65409,1.75433 -3.41678,2.6315 -5.28806,2.6315c-1.85458,0 -3.20793,-0.5263 -4.06003,-1.5789v6.91709c0,0.51794 -0.0167,0.90223 -0.05012,1.15285c-0.03342,0.25062 -0.14202,0.54301 -0.32581,0.87717c-0.16708,0.33416 -0.45947,0.56807 -0.87717,0.70173c-0.40099,0.13367 -0.95235,0.2005 -1.65409,0.2005c-0.70174,0 -1.2698,-0.06683 -1.70421,-0.2005c-0.4177,-0.13367 -0.71009,-0.35922 -0.87717,-0.67667c-0.16708,-0.31745 -0.26732,-0.60148 -0.30075,-0.8521c-0.03342,-0.25062 -0.05012,-0.64326 -0.05012,-1.17791zM159.11785,69.54072c-0.51794,0.61819 -0.77692,1.29486 -0.77692,2.03001c0,0.71844 0.26733,1.38676 0.80199,2.00495c0.55136,0.60148 1.23639,0.90223 2.05508,0.90223c0.8354,0 1.54549,-0.29239 2.13027,-0.87717c0.58478,-0.60148 0.87717,-1.27816 0.87717,-2.03002c0,-0.75186 -0.27569,-1.42853 -0.82704,-2.03001c-0.55136,-0.61819 -1.2698,-0.9273 -2.15533,-0.9273c-0.86881,0 -1.57055,0.30911 -2.1052,0.9273zM184.51646,62.94943c0.43441,0.13366 0.79362,0.36758 1.07766,0.70173c0.28404,0.33416 0.42606,0.86881 0.42606,1.60397c0,0.71844 -0.2172,1.51207 -0.65161,2.38088c-0.43441,0.86881 -1.06096,1.30322 -1.87965,1.30322c-0.40099,0 -0.79362,-0.09189 -1.17791,-0.27568c-0.36757,-0.18379 -0.86047,-0.27568 -1.47866,-0.27568c-0.61819,0 -1.19462,0.2172 -1.72928,0.65161c-0.53465,0.43441 -0.80198,0.96071 -0.80198,1.5789v7.16772c0,0.53466 -0.01671,0.93564 -0.05013,1.20297c-0.03342,0.25062 -0.14202,0.55137 -0.32581,0.90223c-0.35086,0.58478 -1.24474,0.87717 -2.68162,0.87717c-1.08602,0 -1.87129,-0.19214 -2.35582,-0.57643c-0.36757,-0.31745 -0.56807,-0.81034 -0.60149,-1.47866c0,-0.23391 0,-0.55972 0,-0.97742v-12.02972c0,-0.51794 0.01671,-0.90223 0.05013,-1.15285c0.03342,-0.26732 0.12531,-0.56807 0.27568,-0.90223c0.31745,-0.60148 1.21134,-0.90223 2.68163,-0.90223c1.37005,0 2.22215,0.25898 2.55631,0.77692c0.25062,0.36757 0.37593,0.7435 0.37593,1.12778c0.11695,-0.15037 0.28404,-0.34251 0.50124,-0.57642c0.2172,-0.23391 0.67667,-0.54301 1.37841,-0.9273c0.71844,-0.38429 1.34499,-0.57643 1.87964,-0.57643c0.53465,0 0.97742,0.03342 1.32828,0.10025c0.36757,0.05012 0.76856,0.14202 1.20298,0.27568zM186.36722,71.77123c0,-2.7401 0.95235,-4.99568 2.85706,-6.76672c1.92141,-1.78776 4.11015,-2.68162 6.56623,-2.68162c2.47278,0 4.65317,0.88552 6.54117,2.65656c1.90471,1.77104 2.85706,4.02662 2.85706,6.76673c0,1.888 -0.49288,3.56715 -1.47865,5.03744c-0.98577,1.47029 -2.18039,2.55631 -3.58385,3.25805c-1.38676,0.68503 -2.84036,1.02754 -4.36078,1.02754c-1.50371,0 -2.96566,-0.36757 -4.38584,-1.10272c-1.40347,-0.73516 -2.58973,-1.82952 -3.5588,-3.28311c-0.96906,-1.45359 -1.45359,-3.09097 -1.45359,-4.91214zM193.50987,74.2273c0.73515,0.55136 1.47865,0.82704 2.23051,0.82704c0.75186,0 1.50372,-0.28404 2.25558,-0.85211c0.75186,-0.56807 1.12778,-1.41182 1.12778,-2.53125c0,-1.11943 -0.35086,-1.94648 -1.0526,-2.48113c-0.70174,-0.55136 -1.4703,-0.82704 -2.3057,-0.82704c-0.81868,0 -1.5789,0.28404 -2.28064,0.85211c-0.70174,0.56807 -1.0526,1.40346 -1.0526,2.50619c0,1.10273 0.35923,1.93812 1.07766,2.50619zM212.00567,60.06731c-0.4177,0.11696 -0.98578,0.17543 -1.70422,0.17543c-0.70174,0 -1.26145,-0.06683 -1.67915,-0.2005c-0.40099,-0.13366 -0.68503,-0.36757 -0.85211,-0.70173c-0.16708,-0.33416 -0.26732,-0.62655 -0.30074,-0.87717c-0.03342,-0.26732 -0.05013,-0.65996 -0.05013,-1.17791c0,-0.53466 0.01671,-0.92729 0.05013,-1.17791c0.03342,-0.25062 0.12531,-0.53466 0.27568,-0.8521c0.31745,-0.60148 1.19462,-0.90223 2.63151,-0.90223c1.37005,0 2.23051,0.30075 2.58138,0.90223c0.15037,0.28404 0.24226,0.55136 0.27568,0.80198c0.03342,0.25062 0.05012,0.63491 0.05012,1.15285v0.2005c0,0.50124 -0.0167,0.87717 -0.05012,1.12779c-0.03342,0.25062 -0.14201,0.53466 -0.3258,0.8521c-0.18379,0.31745 -0.48453,0.54301 -0.90223,0.67668zM208.6975,62.84918c0.4177,-0.13366 0.97741,-0.2005 1.67915,-0.2005c0.71844,0 1.27815,0.06683 1.67915,0.2005c0.4177,0.13366 0.71009,0.36758 0.87717,0.70173c0.16708,0.33416 0.26732,0.6349 0.30074,0.90223c0.03342,0.25062 0.05012,0.63491 0.05012,1.15285v14.10987c0,2.65657 -0.92729,4.77847 -2.78187,6.36573c-1.83787,1.60396 -3.85954,2.40595 -6.06499,2.40595c-0.53465,0 -0.92729,-0.0167 -1.17791,-0.05012c-0.25062,-0.03342 -0.53465,-0.12532 -0.8521,-0.27569c-0.58478,-0.31745 -0.87717,-1.15285 -0.87717,-2.50619c0,-1.33664 0.25062,-2.18039 0.75186,-2.53125c0.48453,-0.33416 1.14449,-0.50124 1.97989,-0.50124c0.81868,0 1.54549,-0.23391 2.18039,-0.70173c0.65161,-0.45112 0.97741,-1.2698 0.97741,-2.45607v-14.0848c0,-0.80198 0.10861,-1.38677 0.32581,-1.75434c0.2172,-0.38429 0.53466,-0.64325 0.95236,-0.77692zM233.40807,69.59084c0,1.40347 -0.35086,2.44772 -1.0526,3.13275c-0.68503,0.66832 -1.45359,1.00248 -2.3057,1.00248h-8.095c0,0.63491 0.37592,1.16956 1.12778,1.60397c0.75186,0.43441 1.50371,0.65161 2.25557,0.65161c1.31993,0 2.35582,-0.13366 3.10768,-0.40099l0.37593,-0.15037c0.55136,-0.25062 1.01084,-0.37593 1.37841,-0.37593c0.71844,0 1.34499,0.5096 1.87964,1.52878c0.30075,0.61819 0.45112,1.14449 0.45112,1.5789c0,2.03838 -2.431,3.05756 -7.29302,3.05756c-1.6875,0 -3.19122,-0.29239 -4.51115,-0.87717c-1.30322,-0.58478 -2.3224,-1.35334 -3.05756,-2.30569c-1.43688,-1.85459 -2.15533,-3.91802 -2.15533,-6.1903c0,-2.87377 0.92729,-5.17112 2.78188,-6.89203c1.87129,-1.72092 4.19369,-2.58138 6.96721,-2.58138c3.17451,0 5.50527,1.11108 6.99228,3.33324c0.76856,1.18627 1.15284,2.48113 1.15284,3.8846zM226.19023,70.61838c0.86881,0 1.30322,-0.36757 1.30322,-1.10273c0,-0.51794 -0.20049,-0.93564 -0.60148,-1.25309c-0.40099,-0.33416 -0.97742,-0.50124 -1.72928,-0.50124c-0.73515,0 -1.47029,0.30911 -2.20545,0.9273c-0.71844,0.60148 -1.07766,1.24474 -1.07766,1.92977zM241.28124,71.74617c0,0.96906 0.31744,1.72091 0.95235,2.25557c0.63491,0.53466 1.31158,0.80199 2.03002,0.80199c0.71844,0 1.38676,-0.20885 2.00495,-0.62655c0.63491,-0.41769 1.15285,-0.62655 1.55384,-0.62655c0.66832,0 1.49536,0.60149 2.48113,1.80446c0.53465,0.66832 0.80198,1.26145 0.80198,1.7794c0,0.86881 -0.62655,1.67915 -1.87965,2.431c-1.30322,0.91894 -2.90718,1.37841 -4.81189,1.37841c-2.1219,0 -4.16028,-0.76856 -6.11511,-2.30569c-0.93565,-0.71844 -1.70422,-1.68751 -2.3057,-2.90718c-0.58478,-1.21968 -0.87716,-2.56468 -0.87716,-4.03497c0,-1.47029 0.29238,-2.80693 0.87716,-4.00991c0.60148,-1.20297 1.37005,-2.16368 2.3057,-2.88212c1.888,-1.52042 3.90966,-2.28064 6.06499,-2.28064c0.86881,0 1.71257,0.1253 2.53125,0.37592c0.81868,0.23391 1.42018,0.46782 1.80446,0.70173l0.55137,0.32581c0.40099,0.28404 0.71843,0.50124 0.95235,0.65161c0.60148,0.46782 0.90223,0.99412 0.90223,1.5789c0,0.56807 -0.24226,1.21967 -0.7268,1.95483c-0.81868,1.2531 -1.60396,1.87964 -2.35582,1.87964c-0.43441,0 -1.05261,-0.25062 -1.85459,-0.75186c-0.4177,-0.38429 -1.01083,-0.57643 -1.77939,-0.57643c-0.75186,0 -1.46195,0.27568 -2.13027,0.82704c-0.65161,0.53466 -0.97741,1.28652 -0.97741,2.25558zM263.43735,68.78886l-2.20545,-0.12531v4.71165c0,0.61819 0.09189,1.0693 0.27568,1.35334c0.20049,0.26732 0.56807,0.40099 1.10273,0.40099c0.53465,0 0.94399,0.0167 1.22803,0.05012c0.28404,0.03342 0.58478,0.14202 0.90223,0.32581c0.53465,0.30075 0.80198,1.06096 0.80198,2.28064c0,1.43689 -0.32581,2.31405 -0.97742,2.6315c-0.33416,0.16707 -0.63491,0.26732 -0.90223,0.30074c-0.26733,0.03342 -0.65161,0.05013 -1.15285,0.05013c-2.37252,0 -4.17698,-0.53466 -5.41337,-1.60397c-1.21968,-1.0693 -1.82952,-2.88213 -1.82952,-5.43844v-5.06251c-0.43441,0.06683 -0.90223,0.10025 -1.40347,0.10025c-0.50124,0 -0.91894,-0.19214 -1.2531,-0.57643c-0.33416,-0.40099 -0.50124,-1.06096 -0.50124,-1.97989c0,-0.93565 0.05848,-1.61232 0.17543,-2.03002c0.11695,-0.43441 0.27568,-0.7435 0.47618,-0.92729c0.36757,-0.30075 0.82704,-0.45112 1.3784,-0.45112l1.12779,0.15037v-3.53373c0,-0.51794 0.01671,-0.90223 0.05013,-1.15285c0.03342,-0.25062 0.14202,-0.5263 0.32581,-0.82704c0.30075,-0.56807 1.17791,-0.8521 2.6315,-0.8521c1.55384,0 2.48113,0.4177 2.78188,1.2531c0.11696,0.36757 0.17543,0.95236 0.17543,1.75434v3.35829c1.00248,-0.10025 1.75433,-0.15037 2.25557,-0.15037c0.51794,0 0.90223,0.01671 1.15285,0.05013c0.26733,0.03342 0.57643,0.14202 0.92729,0.32581c0.58478,0.30075 0.87717,1.17791 0.87717,2.6315c0,1.43689 -0.30074,2.32241 -0.90223,2.65657c-0.35086,0.15037 -0.65996,0.24226 -0.92729,0.27568c-0.25062,0.03342 -0.64326,0.05012 -1.17791,0.05012zM286.97638,62.79906c2.28899,0 4.18534,0.86881 5.68905,2.60644c1.52042,1.73763 2.28063,3.85953 2.28063,6.36573v6.01487c0,0.53466 -0.0167,0.93564 -0.05012,1.20297c-0.03342,0.25062 -0.14202,0.55137 -0.32581,0.90223c-0.30075,0.58478 -1.17791,0.87717 -2.63151,0.87717c-1.38677,0 -2.25557,-0.29239 -2.60644,-0.87717c-0.18379,-0.35086 -0.29239,-0.65996 -0.32581,-0.92729c-0.03342,-0.28404 -0.05013,-0.69338 -0.05013,-1.22804v-5.9898c0,-0.93565 -0.25897,-1.66245 -0.77692,-2.18039c-0.51794,-0.53466 -1.18627,-0.80198 -2.00495,-0.80198c-0.80198,0 -1.51207,0.25061 -2.13027,0.75185c-0.61819,0.48453 -0.97741,1.02754 -1.07766,1.62903v6.64141c0,0.53466 -0.01671,0.93564 -0.05013,1.20297c-0.03342,0.25062 -0.14202,0.55137 -0.32581,0.90223c-0.28404,0.58478 -1.1612,0.87717 -2.6315,0.87717c-1.43689,0 -2.31405,-0.30911 -2.6315,-0.9273c-0.15037,-0.33416 -0.24226,-0.62655 -0.27568,-0.87717c-0.03342,-0.25062 -0.05012,-0.65161 -0.05012,-1.20297v-20.45054c0,-0.53466 0.01671,-0.92729 0.05012,-1.17791c0.03342,-0.26732 0.12531,-0.55972 0.27568,-0.87717c0.31745,-0.61819 1.21133,-0.92729 2.68162,-0.92729c1.43689,0 2.29734,0.3091 2.58138,0.92729c0.18379,0.33416 0.29239,0.63491 0.32581,0.90223c0.03342,0.26732 0.05013,0.65996 0.05013,1.17791v7.5687c1.15285,-1.40347 2.48949,-2.1052 4.00991,-2.1052zM309.37743,64.65363c0.15037,-1.2698 1.0526,-1.9047 2.70669,-1.9047c0.90223,0 1.5622,0.06683 1.97989,0.2005c0.43441,0.13366 0.73516,0.37593 0.90223,0.72679c0.18379,0.33416 0.29238,0.63491 0.3258,0.90223c0.03342,0.25062 0.05013,0.64325 0.05013,1.17791v11.9796c0,0.51794 -0.01671,0.91059 -0.05013,1.17791c-0.03342,0.25062 -0.13366,0.55136 -0.30074,0.90223c-0.31745,0.58478 -1.10273,0.87717 -2.35583,0.87717c-1.23639,0 -2.06343,-0.15037 -2.48113,-0.45112c-0.41769,-0.31745 -0.65997,-0.76856 -0.7268,-1.35334c-0.8521,1.20297 -2.26393,1.80446 -4.23546,1.80446c-1.97154,0 -3.80106,-0.89387 -5.48856,-2.68162c-1.6875,-1.80446 -2.53125,-3.9013 -2.53125,-6.29054c0,-2.38924 0.85211,-4.47773 2.55632,-6.26548c1.70421,-1.78776 3.56715,-2.68162 5.58881,-2.68162c0.76857,0 1.47029,0.14201 2.1052,0.42605c0.65161,0.26732 1.10272,0.51794 1.35334,0.75186c0.25062,0.23391 0.45112,0.46782 0.60149,0.70173zM303.16208,71.77123c0,0.75186 0.29238,1.42853 0.87716,2.03002c0.60149,0.60148 1.31993,0.90223 2.15533,0.90223c0.8521,0 1.55385,-0.30074 2.10521,-0.90223c0.56807,-0.61819 0.8521,-1.29486 0.8521,-2.03002c0,-0.75186 -0.26733,-1.44523 -0.80199,-2.08014c-0.53465,-0.63491 -1.2531,-0.95235 -2.15533,-0.95235c-0.90223,0 -1.63738,0.31745 -2.20545,0.95235c-0.55136,0.63491 -0.82704,1.32828 -0.82704,2.08014zM318.21283,79.1645c-0.43441,-0.28404 -0.65161,-0.71844 -0.65161,-1.30322c0,-0.60148 0.43441,-1.50372 1.30322,-2.70669c0.25062,-0.38429 0.65161,-0.57643 1.20297,-0.57643c0.56807,0 1.32828,0.28404 2.28064,0.85211c0.96906,0.55136 1.83787,0.82704 2.60644,0.82704c1.38677,0 2.08014,-0.27568 2.08014,-0.82704c0,-0.43441 -0.76022,-0.75186 -2.28064,-0.95235c-1.43689,-0.2005 -2.86541,-0.73516 -4.28559,-1.60397c-0.65161,-0.41769 -1.19461,-1.06096 -1.62903,-1.92977c-0.43441,-0.88553 -0.65161,-1.92977 -0.65161,-3.13274c0,-3.60892 2.47278,-5.41338 7.41833,-5.41338c1.62067,0 3.28312,0.38429 4.98732,1.15285c0.80198,0.36757 1.20297,0.82704 1.20297,1.37841c0,0.55136 -0.25062,1.22803 -0.75186,2.03001c-0.50124,0.78527 -1.01083,1.17791 -1.52878,1.17791c-0.28404,0 -0.80197,-0.16708 -1.55383,-0.50124c-0.73516,-0.35086 -1.52878,-0.5263 -2.38089,-0.5263c-1.35334,0 -2.03001,0.25062 -2.03001,0.75186c0,0.68503 0.77692,1.13614 2.33076,1.35335c1.50371,0.15037 2.96566,0.57642 4.38584,1.27815c0.65161,0.33416 1.19461,0.89387 1.62902,1.67915c0.45112,0.78527 0.67668,1.77105 0.67668,2.95731c0,1.18627 -0.22556,2.19709 -0.67668,3.03249c-0.43441,0.81869 -1.0526,1.43689 -1.85458,1.85459c-1.45359,0.70173 -3.28312,1.0526 -5.48856,1.0526c-2.18874,0 -4.3023,-0.6349 -6.34067,-1.9047zM348.05744,60.06731c-0.41769,0.11696 -0.98577,0.17543 -1.70421,0.17543c-0.70173,0 -1.26146,-0.06683 -1.67915,-0.2005c-0.40099,-0.13366 -0.68503,-0.36757 -0.8521,-0.70173c-0.16708,-0.33416 -0.26733,-0.62655 -0.30075,-0.87717c-0.03342,-0.26732 -0.05012,-0.65996 -0.05012,-1.17791c0,-0.53466 0.0167,-0.92729 0.05012,-1.17791c0.03342,-0.25062 0.12532,-0.53466 0.27569,-0.8521c0.31745,-0.60148 1.19461,-0.90223 2.6315,-0.90223c1.37005,0 2.23052,0.30075 2.58138,0.90223c0.15037,0.28404 0.24226,0.55136 0.27568,0.80198c0.03342,0.25062 0.05013,0.63491 0.05013,1.15285v0.2005c0,0.50124 -0.01671,0.87717 -0.05013,1.12779c-0.03342,0.25062 -0.14202,0.53466 -0.32581,0.8521c-0.18379,0.31745 -0.48453,0.54301 -0.90223,0.67668zM344.74926,62.84918c0.41769,-0.13366 0.97742,-0.2005 1.67915,-0.2005c0.71844,0 1.27816,0.06683 1.67915,0.2005c0.41769,0.13366 0.71009,0.36758 0.87717,0.70173c0.16708,0.33416 0.26732,0.6349 0.30074,0.90223c0.03342,0.25062 0.05013,0.63491 0.05013,1.15285v14.10987c0,2.65657 -0.92729,4.77847 -2.78188,6.36573c-1.83787,1.60396 -3.85953,2.40595 -6.06498,2.40595c-0.53465,0 -0.9273,-0.0167 -1.17792,-0.05012c-0.25062,-0.03342 -0.53465,-0.12532 -0.8521,-0.27569c-0.58478,-0.31745 -0.87716,-1.15285 -0.87716,-2.50619c0,-1.33664 0.25062,-2.18039 0.75186,-2.53125c0.48453,-0.33416 1.1445,-0.50124 1.97989,-0.50124c0.81869,0 1.54548,-0.23391 2.18039,-0.70173c0.65161,-0.45112 0.97742,-1.2698 0.97742,-2.45607v-14.0848c0,-0.80198 0.10861,-1.38677 0.32581,-1.75434c0.2172,-0.38429 0.53465,-0.64325 0.95235,-0.77692zM360.08672,80.69327c-2.3057,0 -4.21876,-0.86881 -5.73918,-2.60644c-1.50371,-1.75433 -2.25557,-3.8846 -2.25557,-6.39079v-5.9898c0,-0.53466 0.01671,-0.92729 0.05012,-1.17791c0.03342,-0.25062 0.12531,-0.55137 0.27568,-0.90223c0.31745,-0.61819 1.21133,-0.9273 2.68162,-0.9273c1.58726,0 2.5229,0.43441 2.80694,1.30322c0.13367,0.36757 0.20049,0.95235 0.20049,1.75433v5.98981c0,0.93565 0.26733,1.66244 0.80198,2.18039c0.53465,0.51794 1.2531,0.77692 2.15533,0.77692c0.90223,0 1.62903,-0.26732 2.18039,-0.80198c0.56807,-0.55136 0.8521,-1.2698 0.8521,-2.15532v-6.06499c0,-0.51794 0.01671,-0.91058 0.05012,-1.17791c0.03342,-0.26732 0.14202,-0.56807 0.32581,-0.90223c0.28404,-0.60148 1.1612,-0.90223 2.6315,-0.90223c1.43689,0 2.31405,0.30911 2.63151,0.9273c0.15037,0.35086 0.24226,0.65996 0.27568,0.92729c0.05012,0.25062 0.07519,0.63491 0.07519,1.15285v12.12997c0,0.50124 -0.02506,0.88553 -0.07519,1.15285c-0.03342,0.25062 -0.13367,0.53466 -0.30074,0.85211c-0.35086,0.60148 -1.23639,0.90223 -2.65657,0.90223c-1.38677,0 -2.23887,-0.27569 -2.55632,-0.82705c-0.23392,-0.38429 -0.35086,-0.8521 -0.35086,-1.40346c-0.08354,0.15037 -0.28404,0.37592 -0.60149,0.67667c-0.31745,0.30075 -0.62654,0.55137 -0.92729,0.75186c-0.76857,0.50124 -1.61232,0.75185 -2.53125,0.75185zM372.94834,79.1645c-0.43441,-0.28404 -0.65161,-0.71844 -0.65161,-1.30322c0,-0.60148 0.43441,-1.50372 1.30322,-2.70669c0.25062,-0.38429 0.65161,-0.57643 1.20297,-0.57643c0.56807,0 1.32828,0.28404 2.28064,0.85211c0.96906,0.55136 1.83787,0.82704 2.60644,0.82704c1.38677,0 2.08014,-0.27568 2.08014,-0.82704c0,-0.43441 -0.76021,-0.75186 -2.28063,-0.95235c-1.43689,-0.2005 -2.86542,-0.73516 -4.28559,-1.60397c-0.65161,-0.41769 -1.19461,-1.06096 -1.62903,-1.92977c-0.43441,-0.88553 -0.65161,-1.92977 -0.65161,-3.13274c0,-3.60892 2.47278,-5.41338 7.41833,-5.41338c1.62067,0 3.28312,0.38429 4.98732,1.15285c0.80198,0.36757 1.20297,0.82704 1.20297,1.37841c0,0.55136 -0.25062,1.22803 -0.75186,2.03001c-0.50124,0.78527 -1.01083,1.17791 -1.52877,1.17791c-0.28404,0 -0.80198,-0.16708 -1.55384,-0.50124c-0.73516,-0.35086 -1.52878,-0.5263 -2.38089,-0.5263c-1.35334,0 -2.03001,0.25062 -2.03001,0.75186c0,0.68503 0.77692,1.13614 2.33076,1.35335c1.50371,0.15037 2.96567,0.57642 4.38584,1.27815c0.65161,0.33416 1.19461,0.89387 1.62903,1.67915c0.45112,0.78527 0.67667,1.77105 0.67667,2.95731c0,1.18627 -0.22555,2.19709 -0.67667,3.03249c-0.43441,0.81869 -1.05261,1.43689 -1.85459,1.85459c-1.45359,0.70173 -3.28311,1.0526 -5.48856,1.0526c-2.18874,0 -4.3023,-0.6349 -6.34067,-1.9047zM399.45485,68.78886l-2.20545,-0.12531v4.71165c0,0.61819 0.09189,1.0693 0.27568,1.35334c0.20049,0.26732 0.56807,0.40099 1.10273,0.40099c0.53465,0 0.94399,0.0167 1.22803,0.05012c0.28404,0.03342 0.58478,0.14202 0.90223,0.32581c0.53465,0.30075 0.80198,1.06096 0.80198,2.28064c0,1.43689 -0.32581,2.31405 -0.97742,2.6315c-0.33416,0.16707 -0.6349,0.26732 -0.90223,0.30074c-0.26733,0.03342 -0.65161,0.05013 -1.15285,0.05013c-2.37252,0 -4.17699,-0.53466 -5.41338,-1.60397c-1.21968,-1.0693 -1.82952,-2.88213 -1.82952,-5.43844v-5.06251c-0.43441,0.06683 -0.90223,0.10025 -1.40347,0.10025c-0.50124,0 -0.91894,-0.19214 -1.2531,-0.57643c-0.33416,-0.40099 -0.50124,-1.06096 -0.50124,-1.97989c0,-0.93565 0.05848,-1.61232 0.17544,-2.03002c0.11696,-0.43441 0.27569,-0.7435 0.47618,-0.92729c0.36757,-0.30075 0.82704,-0.45112 1.3784,-0.45112l1.12778,0.15037v-3.53373c0,-0.51794 0.01671,-0.90223 0.05013,-1.15285c0.03342,-0.25062 0.14202,-0.5263 0.32581,-0.82704c0.30075,-0.56807 1.17791,-0.8521 2.6315,-0.8521c1.55384,0 2.48113,0.4177 2.78188,1.2531c0.11696,0.36757 0.17543,0.95236 0.17543,1.75434v3.35829c1.00248,-0.10025 1.75434,-0.15037 2.25558,-0.15037c0.51794,0 0.90222,0.01671 1.15285,0.05013c0.26733,0.03342 0.57643,0.14202 0.92729,0.32581c0.58478,0.30075 0.87717,1.17791 0.87717,2.6315c0,1.43689 -0.30075,2.32241 -0.90223,2.65657c-0.35086,0.15037 -0.65996,0.24226 -0.92729,0.27568c-0.25062,0.03342 -0.64326,0.05012 -1.17791,0.05012z"/><path d="M134.67743,104.47705c2.03838,0 3.90131,0.90222 5.58881,2.70668c1.70421,1.80446 2.55632,3.90131 2.55632,6.29055c0,2.37252 -0.84375,4.45266 -2.53125,6.24042c-1.6875,1.78776 -3.50032,2.68163 -5.43844,2.68163c-1.93813,0 -3.31654,-0.54301 -4.13522,-1.62903c-0.18379,1.11943 -1.16955,1.67915 -2.9573,1.67915c-1.43687,0 -2.31403,-0.3091 -2.63148,-0.92729c-0.15037,-0.35086 -0.24226,-0.65161 -0.27568,-0.90223c-0.03342,-0.26732 -0.05012,-0.65996 -0.05012,-1.17791v-20.42547c0,-0.53465 0.0167,-0.92729 0.05012,-1.17791c0.03342,-0.26732 0.12531,-0.55972 0.27568,-0.87717c0.31745,-0.61819 1.21133,-0.92729 2.68161,-0.92729c1.43688,0 2.29733,0.3091 2.58137,0.92729c0.18379,0.33416 0.29238,0.63491 0.32581,0.90223c0.03342,0.26732 0.05013,0.65996 0.05013,1.17791v7.11759c0.91894,-1.11943 2.22216,-1.67915 3.90966,-1.67915zM131.67,115.52936c0.56807,0.61819 1.2698,0.92729 2.1052,0.92729c0.8521,0 1.57055,-0.3091 2.15533,-0.92729c0.60148,-0.61819 0.90223,-1.30322 0.90223,-2.05508c0,-0.75186 -0.27568,-1.43689 -0.82704,-2.05508c-0.53465,-0.63491 -1.26145,-0.95235 -2.18039,-0.95235c-0.91894,0 -1.64573,0.31745 -2.18039,0.95235c-0.53465,0.63491 -0.80199,1.32828 -0.80199,2.08014c0,0.73515 0.27569,1.41183 0.82704,2.03002zM162.42308,111.29389c0,1.40347 -0.35087,2.44771 -1.0526,3.13274c-0.68503,0.66832 -1.45359,1.00248 -2.30569,1.00248h-8.09501c0,0.63491 0.37593,1.16956 1.12779,1.60397c0.75186,0.43441 1.50371,0.65161 2.25557,0.65161c1.31993,0 2.35582,-0.13366 3.10768,-0.40099l0.37593,-0.15037c0.55136,-0.25062 1.01084,-0.37593 1.37841,-0.37593c0.71844,0 1.34499,0.5096 1.87964,1.52878c0.30075,0.61819 0.45112,1.14449 0.45112,1.5789c0,2.03838 -2.431,3.05756 -7.29302,3.05756c-1.6875,0 -3.19122,-0.29239 -4.51115,-0.87717c-1.30322,-0.58478 -2.3224,-1.35334 -3.05756,-2.3057c-1.43688,-1.85458 -2.15533,-3.91802 -2.15533,-6.1903c0,-2.87376 0.92729,-5.17112 2.78188,-6.89203c1.87129,-1.72091 4.19369,-2.58138 6.96721,-2.58138c3.17451,0 5.50527,1.11109 6.99228,3.33324c0.76856,1.18626 1.15285,2.48113 1.15285,3.8846zM155.20525,112.32143c0.86881,0 1.30322,-0.36757 1.30322,-1.10272c0,-0.51794 -0.2005,-0.93564 -0.60149,-1.2531c-0.40099,-0.33416 -0.97741,-0.50124 -1.72927,-0.50124c-0.73515,0 -1.47029,0.30911 -2.20545,0.9273c-0.71844,0.60148 -1.07766,1.24473 -1.07766,1.92977zM182.02524,111.29389c0,1.40347 -0.35087,2.44771 -1.0526,3.13274c-0.68503,0.66832 -1.45359,1.00248 -2.3057,1.00248h-8.095c0,0.63491 0.37593,1.16956 1.12779,1.60397c0.75186,0.43441 1.50371,0.65161 2.25557,0.65161c1.31993,0 2.35582,-0.13366 3.10768,-0.40099l0.37593,-0.15037c0.55136,-0.25062 1.01084,-0.37593 1.37841,-0.37593c0.71844,0 1.34499,0.5096 1.87964,1.52878c0.30075,0.61819 0.45112,1.14449 0.45112,1.5789c0,2.03838 -2.431,3.05756 -7.29302,3.05756c-1.6875,0 -3.19122,-0.29239 -4.51115,-0.87717c-1.30322,-0.58478 -2.3224,-1.35334 -3.05756,-2.3057c-1.43688,-1.85458 -2.15533,-3.91802 -2.15533,-6.1903c0,-2.87376 0.92729,-5.17112 2.78188,-6.89203c1.87129,-1.72091 4.19369,-2.58138 6.96721,-2.58138c3.17451,0 5.50527,1.11109 6.99228,3.33324c0.76856,1.18626 1.15285,2.48113 1.15285,3.8846zM174.8074,112.32143c0.86881,0 1.30322,-0.36757 1.30322,-1.10272c0,-0.51794 -0.2005,-0.93564 -0.60149,-1.2531c-0.40099,-0.33416 -0.97741,-0.50124 -1.72927,-0.50124c-0.73515,0 -1.4703,0.30911 -2.20545,0.9273c-0.71844,0.60148 -1.07766,1.24473 -1.07766,1.92977zM194.28424,104.45198c2.27228,0 4.16863,0.86881 5.68905,2.60644c1.52042,1.73763 2.28063,3.8679 2.28063,6.39079v6.01486c0,0.51794 -0.02506,0.91059 -0.07519,1.17791c-0.03342,0.26732 -0.12531,0.55972 -0.27568,0.87717c-0.31745,0.61819 -1.21133,0.92729 -2.68162,0.92729c-1.60396,0 -2.53126,-0.42605 -2.78188,-1.27815c-0.15037,-0.38429 -0.22556,-0.96071 -0.22556,-1.72928v-6.03993c0,-0.93565 -0.26732,-1.66244 -0.80198,-2.18039c-0.53465,-0.51794 -1.2531,-0.77692 -2.15533,-0.77692c-0.90223,0 -1.63738,0.27569 -2.20545,0.82704c-0.55136,0.53465 -0.82704,1.24474 -0.82704,2.13027v6.06499c0,0.51794 -0.01671,0.91059 -0.05013,1.17791c-0.03342,0.26732 -0.14202,0.55972 -0.32581,0.87717c-0.28404,0.61819 -1.1612,0.92729 -2.6315,0.92729c-1.43688,0 -2.31405,-0.3091 -2.63151,-0.92729c-0.15037,-0.35086 -0.24226,-0.65161 -0.27568,-0.90223c-0.03342,-0.26732 -0.05012,-0.65996 -0.05012,-1.17791v-12.12998c0,-0.50124 0.0167,-0.87717 0.05012,-1.12779c0.03342,-0.26732 0.14202,-0.55972 0.32581,-0.87717c0.31745,-0.56807 1.19462,-0.8521 2.63151,-0.8521c1.38676,0 2.23887,0.25898 2.55632,0.77692c0.23391,0.38429 0.35086,0.85211 0.35086,1.40347c0.08354,-0.16708 0.28404,-0.39264 0.60149,-0.67668c0.31745,-0.30075 0.62654,-0.543 0.92729,-0.72679c0.78528,-0.51794 1.64573,-0.77692 2.58138,-0.77692zM221.64032,122.39632c-2.3057,0 -4.21876,-0.86881 -5.73918,-2.60644c-1.50371,-1.75433 -2.25558,-3.8846 -2.25558,-6.39079v-5.9898c0,-0.53465 0.01671,-0.92729 0.05013,-1.17791c0.03342,-0.25062 0.12531,-0.55137 0.27568,-0.90223c0.31745,-0.61819 1.21133,-0.92729 2.68162,-0.92729c1.58726,0 2.5229,0.43442 2.80694,1.30322c0.13367,0.36757 0.20049,0.95236 0.20049,1.75433v5.9898c0,0.93565 0.26732,1.66244 0.80198,2.18039c0.53465,0.51794 1.2531,0.77692 2.15533,0.77692c0.90223,0 1.62903,-0.26733 2.18039,-0.80198c0.56807,-0.55136 0.8521,-1.2698 0.8521,-2.15532v-6.06499c0,-0.51794 0.0167,-0.91058 0.05012,-1.17791c0.03342,-0.26732 0.14202,-0.56807 0.32581,-0.90223c0.28404,-0.60148 1.16121,-0.90223 2.6315,-0.90223c1.43688,0 2.31405,0.3091 2.63151,0.92729c0.15037,0.35086 0.24226,0.65996 0.27568,0.92729c0.05013,0.25062 0.07519,0.63491 0.07519,1.15285v12.12998c0,0.50124 -0.02506,0.88552 -0.07519,1.15285c-0.03342,0.25062 -0.13367,0.53465 -0.30075,0.8521c-0.35086,0.60148 -1.23638,0.90223 -2.65656,0.90223c-1.38676,0 -2.23887,-0.27568 -2.55632,-0.82704c-0.23391,-0.38429 -0.35087,-0.85211 -0.35087,-1.40347c-0.08354,0.15037 -0.28404,0.37592 -0.60149,0.67667c-0.31745,0.30075 -0.62654,0.55137 -0.92729,0.75186c-0.76856,0.50124 -1.61232,0.75186 -2.53126,0.75186zM234.37662,127.35859v-19.97436c0,-0.51794 0.01671,-0.90222 0.05013,-1.15284c0.03342,-0.25062 0.12531,-0.54301 0.27568,-0.87717c0.31745,-0.60148 1.07766,-0.90223 2.28063,-0.90223c1.21968,0 2.03838,0.15037 2.45607,0.45112c0.43441,0.30075 0.68503,0.75186 0.75186,1.35334c0.86881,-1.18626 2.23051,-1.77939 4.08509,-1.77939c1.85458,0 3.60892,0.87716 5.26301,2.6315c1.67079,1.75433 2.50619,3.80106 2.50619,6.14017c0,2.32241 -0.82704,4.36078 -2.48113,6.11511c-1.65409,1.75433 -3.41678,2.6315 -5.28807,2.6315c-1.85458,0 -3.20793,-0.5263 -4.06003,-1.5789v6.9171c0,0.51794 -0.01671,0.90222 -0.05013,1.15284c-0.03342,0.25062 -0.14201,0.54301 -0.3258,0.87717c-0.16708,0.33416 -0.45947,0.56807 -0.87717,0.70174c-0.40099,0.13367 -0.95235,0.20049 -1.65409,0.20049c-0.70174,0 -1.2698,-0.06683 -1.70421,-0.20049c-0.4177,-0.13367 -0.71009,-0.35923 -0.87717,-0.67668c-0.16708,-0.31745 -0.26732,-0.60148 -0.30074,-0.8521c-0.03342,-0.25062 -0.05013,-0.64326 -0.05013,-1.17791zM241.11828,111.24377c-0.51794,0.61819 -0.77692,1.29486 -0.77692,2.03001c0,0.71844 0.26732,1.38677 0.80198,2.00496c0.55136,0.60148 1.2364,0.90223 2.05508,0.90223c0.8354,0 1.54549,-0.29239 2.13027,-0.87717c0.58478,-0.60148 0.87716,-1.27816 0.87716,-2.03002c0,-0.75186 -0.27569,-1.42853 -0.82704,-2.03001c-0.55136,-0.61819 -1.2698,-0.92729 -2.15533,-0.92729c-0.86881,0 -1.57055,0.3091 -2.1052,0.92729zM266.36651,96.9334c0.16708,-0.33416 0.46782,-0.56806 0.90223,-0.70173c0.43441,-0.13367 1.01083,-0.2005 1.72927,-0.2005c0.71844,0 1.29486,0.06683 1.72927,0.2005c0.43441,0.13367 0.73516,0.37593 0.90223,0.72679c0.18379,0.33416 0.29238,0.63491 0.3258,0.90223c0.03342,0.26732 0.05013,0.65996 0.05013,1.17791v20.42547c0,0.51794 -0.01671,0.91059 -0.05013,1.17791c-0.03342,0.26732 -0.14201,0.55972 -0.3258,0.87717c-0.35086,0.61819 -1.31993,0.92729 -2.90719,0.92729c-1.58726,0 -2.46443,-0.55972 -2.6315,-1.67915c-0.96906,1.08602 -2.3057,1.62903 -4.00991,1.62903c-2.05508,0 -3.92637,-0.89387 -5.61388,-2.68163c-1.6875,-1.78776 -2.53125,-3.8679 -2.53125,-6.24042c0,-2.38924 0.84375,-4.48609 2.53125,-6.29055c1.70421,-1.80446 3.5755,-2.70668 5.61388,-2.70668c1.6875,0 2.99907,0.56806 3.93472,1.70421v-7.16771c0,-0.53465 0.01671,-0.92729 0.05012,-1.17791c0.03342,-0.26732 0.13367,-0.56807 0.30075,-0.90223zM260.80276,115.52936c0.60149,0.61819 1.31993,0.92729 2.15533,0.92729c0.8521,0 1.55385,-0.3091 2.10521,-0.92729c0.56807,-0.61819 0.8521,-1.29486 0.8521,-2.03002c0,-0.75186 -0.26733,-1.44523 -0.80198,-2.08014c-0.53465,-0.63491 -1.26146,-0.95235 -2.18039,-0.95235c-0.91893,0 -1.65409,0.31745 -2.20545,0.95235c-0.53465,0.61819 -0.80198,1.30322 -0.80198,2.05508c0,0.75186 0.29238,1.43689 0.87716,2.05508zM286.4229,106.35669c0.15037,-1.2698 1.0526,-1.90471 2.70669,-1.90471c0.90223,0 1.5622,0.06683 1.97989,0.2005c0.43441,0.13367 0.73515,0.37593 0.90223,0.7268c0.18379,0.33416 0.29239,0.6349 0.32581,0.90222c0.03342,0.25062 0.05012,0.64326 0.05012,1.17792v11.9796c0,0.51794 -0.01671,0.91058 -0.05012,1.17791c-0.03342,0.25062 -0.13367,0.55137 -0.30074,0.90223c-0.31745,0.58478 -1.10273,0.87717 -2.35582,0.87717c-1.23639,0 -2.06344,-0.15037 -2.48113,-0.45111c-0.41769,-0.31745 -0.65996,-0.76856 -0.72679,-1.35334c-0.8521,1.20298 -2.26393,1.80446 -4.23547,1.80446c-1.97154,0 -3.80106,-0.89387 -5.48856,-2.68163c-1.6875,-1.80446 -2.53125,-3.90131 -2.53125,-6.29055c0,-2.38924 0.85211,-4.47772 2.55632,-6.26548c1.70421,-1.78776 3.56715,-2.68162 5.58881,-2.68162c0.76857,0 1.4703,0.14201 2.1052,0.42605c0.65161,0.26732 1.10272,0.51794 1.35334,0.75186c0.25062,0.23391 0.45112,0.46782 0.60149,0.70173zM280.20755,113.47428c0,0.75186 0.29238,1.42853 0.87716,2.03001c0.60149,0.60148 1.31993,0.90223 2.15533,0.90223c0.8521,0 1.55385,-0.30075 2.10521,-0.90223c0.56807,-0.61819 0.8521,-1.29486 0.8521,-2.03001c0,-0.75186 -0.26733,-1.44523 -0.80199,-2.08014c-0.53465,-0.63491 -1.2531,-0.95236 -2.15533,-0.95236c-0.90223,0 -1.63738,0.31745 -2.20545,0.95236c-0.55136,0.63491 -0.82704,1.32828 -0.82704,2.08014zM305.58383,110.49191l-2.20545,-0.12531v4.71165c0,0.61819 0.09189,1.06931 0.27568,1.35335c0.20049,0.26732 0.56807,0.40099 1.10272,0.40099c0.53465,0 0.944,0.01671 1.22804,0.05013c0.28404,0.03342 0.58478,0.14202 0.90223,0.32581c0.53465,0.30075 0.80198,1.06095 0.80198,2.28063c0,1.43688 -0.32581,2.31405 -0.97742,2.6315c-0.33416,0.16708 -0.6349,0.26732 -0.90222,0.30074c-0.26733,0.03342 -0.65161,0.05013 -1.15285,0.05013c-2.37252,0 -4.17699,-0.53466 -5.41338,-1.60396c-1.21968,-1.0693 -1.82952,-2.88213 -1.82952,-5.43844v-5.06251c-0.43441,0.06683 -0.90222,0.10025 -1.40346,0.10025c-0.50124,0 -0.91894,-0.19214 -1.2531,-0.57643c-0.33416,-0.40099 -0.50124,-1.06096 -0.50124,-1.97989c0,-0.93565 0.05847,-1.61232 0.17543,-2.03002c0.11696,-0.43441 0.27569,-0.7435 0.47618,-0.92729c0.36757,-0.30075 0.82704,-0.45111 1.3784,-0.45111l1.12779,0.15037v-3.53373c0,-0.51794 0.01671,-0.90223 0.05012,-1.15285c0.03342,-0.25062 0.14202,-0.5263 0.32581,-0.82704c0.30075,-0.56807 1.17791,-0.8521 2.63151,-0.8521c1.55384,0 2.48113,0.4177 2.78187,1.2531c0.11696,0.36757 0.17543,0.95236 0.17543,1.75433v3.35829c1.00248,-0.10025 1.75434,-0.15037 2.25558,-0.15037c0.51794,0 0.90223,0.01671 1.15285,0.05013c0.26733,0.03342 0.57642,0.14202 0.92729,0.32581c0.58478,0.30075 0.87716,1.17791 0.87716,2.6315c0,1.43688 -0.30074,2.32241 -0.90223,2.65657c-0.35086,0.15037 -0.65996,0.24226 -0.92729,0.27568c-0.25062,0.03342 -0.64326,0.05013 -1.17791,0.05013zM327.17674,111.29389c0,1.40347 -0.35086,2.44771 -1.0526,3.13274c-0.68503,0.66832 -1.4536,1.00248 -2.3057,1.00248h-8.095c0,0.63491 0.37592,1.16956 1.12779,1.60397c0.75186,0.43441 1.50371,0.65161 2.25557,0.65161c1.31993,0 2.35582,-0.13366 3.10768,-0.40099l0.37593,-0.15037c0.55136,-0.25062 1.01083,-0.37593 1.3784,-0.37593c0.71844,0 1.34499,0.5096 1.87965,1.52878c0.30075,0.61819 0.45111,1.14449 0.45111,1.5789c0,2.03838 -2.431,3.05756 -7.29302,3.05756c-1.6875,0 -3.19122,-0.29239 -4.51114,-0.87717c-1.30322,-0.58478 -2.3224,-1.35334 -3.05756,-2.3057c-1.43689,-1.85458 -2.15533,-3.91802 -2.15533,-6.1903c0,-2.87376 0.92729,-5.17112 2.78188,-6.89203c1.87129,-1.72091 4.19369,-2.58138 6.96722,-2.58138c3.17451,0 5.50527,1.11109 6.99228,3.33324c0.76857,1.18626 1.15285,2.48113 1.15285,3.8846zM319.9589,112.32143c0.86881,0 1.30322,-0.36757 1.30322,-1.10272c0,-0.51794 -0.20049,-0.93564 -0.60148,-1.2531c-0.40099,-0.33416 -0.97742,-0.50124 -1.72928,-0.50124c-0.73516,0 -1.47029,0.30911 -2.20545,0.9273c-0.71844,0.60148 -1.07767,1.24473 -1.07767,1.92977zM341.49082,96.9334c0.16708,-0.33416 0.46782,-0.56806 0.90223,-0.70173c0.43441,-0.13367 1.01084,-0.2005 1.72928,-0.2005c0.71844,0 1.29486,0.06683 1.72927,0.2005c0.43441,0.13367 0.73515,0.37593 0.90223,0.72679c0.18379,0.33416 0.29239,0.63491 0.32581,0.90223c0.03342,0.26732 0.05012,0.65996 0.05012,1.17791v20.42547c0,0.51794 -0.0167,0.91059 -0.05012,1.17791c-0.03342,0.26732 -0.14202,0.55972 -0.32581,0.87717c-0.35086,0.61819 -1.31992,0.92729 -2.90718,0.92729c-1.58726,0 -2.46443,-0.55972 -2.63151,-1.67915c-0.96906,1.08602 -2.3057,1.62903 -4.00991,1.62903c-2.05508,0 -3.92636,-0.89387 -5.61387,-2.68163c-1.6875,-1.78776 -2.53126,-3.8679 -2.53126,-6.24042c0,-2.38924 0.84375,-4.48609 2.53126,-6.29055c1.70421,-1.80446 3.57549,-2.70668 5.61387,-2.70668c1.6875,0 2.99908,0.56806 3.93473,1.70421v-7.16771c0,-0.53465 0.01671,-0.92729 0.05012,-1.17791c0.03342,-0.26732 0.13367,-0.56807 0.30074,-0.90223zM335.92707,115.52936c0.60149,0.61819 1.31993,0.92729 2.15533,0.92729c0.8521,0 1.55384,-0.3091 2.1052,-0.92729c0.56807,-0.61819 0.85211,-1.29486 0.85211,-2.03002c0,-0.75186 -0.26733,-1.44523 -0.80199,-2.08014c-0.53465,-0.63491 -1.26145,-0.95235 -2.18039,-0.95235c-0.91893,0 -1.65409,0.31745 -2.20545,0.95235c-0.53465,0.61819 -0.80199,1.30322 -0.80199,2.05508c0,0.75186 0.29239,1.43689 0.87717,2.05508zM355.15642,116.83258c0.38428,0.38429 0.57642,1.17791 0.57642,2.38089v0.15037c0,0.55136 -0.0167,0.96071 -0.05012,1.22804c-0.03342,0.25062 -0.15038,0.55972 -0.35087,0.92729c-0.33416,0.65161 -1.19461,0.97741 -2.58138,0.97741c-1.38677,0 -2.3057,-0.2172 -2.75681,-0.65161c-0.43441,-0.43441 -0.65161,-1.25309 -0.65161,-2.45607v-0.12531c0,-0.53465 0.01671,-0.93564 0.05013,-1.20297c0.03342,-0.26732 0.14202,-0.57643 0.32581,-0.92729c0.35086,-0.68503 1.21133,-1.02754 2.58138,-1.02754c1.38677,0 2.33912,0.24226 2.85706,0.72679z"/><path d="M115.62321,144.17513c0.60148,1.20298 0.90223,2.54796 0.90223,4.03497c0,1.47029 -0.30075,2.80693 -0.90223,4.00991c-0.58478,1.20298 -1.34499,2.15533 -2.28064,2.85706c-1.90471,1.45359 -3.8679,2.18039 -5.88956,2.18039h-4.28559v3.8846c0,0.51794 -0.0167,0.91058 -0.05012,1.17791c-0.03342,0.25062 -0.14202,0.55137 -0.32581,0.90223c-0.31745,0.61819 -1.20297,0.92729 -2.65657,0.92729c-1.60397,0 -2.53961,-0.42605 -2.80693,-1.27815c-0.13366,-0.38429 -0.2005,-0.97742 -0.2005,-1.7794v-18.97188c0,-0.53465 0.01671,-0.92729 0.05013,-1.17791c0.03342,-0.26732 0.14201,-0.57643 0.3258,-0.92729c0.31745,-0.61819 1.20297,-0.9273 2.65657,-0.9273h7.31809c2.00495,0 3.95978,0.73516 5.86449,2.20545c0.93565,0.70174 1.69586,1.66244 2.28064,2.88213zM107.47808,151.21753c0.68503,0 1.35334,-0.25062 2.00495,-0.75186c0.66832,-0.50124 1.00248,-1.2531 1.00248,-2.25557c0,-1.01918 -0.33416,-1.77939 -1.00248,-2.28063c-0.65161,-0.51794 -1.32829,-0.77692 -2.03002,-0.77692h-4.28559v6.06499zM118.74802,140.66646c0,-0.51794 0.01671,-0.91059 0.05013,-1.17792c0.03342,-0.26732 0.12531,-0.56806 0.27568,-0.90222c0.31745,-0.61819 1.21133,-0.9273 2.68162,-0.9273c1.38676,0 2.24722,0.30911 2.58138,0.9273c0.18379,0.33416 0.29238,0.64325 0.3258,0.92729c0.03342,0.26732 0.05013,0.66832 0.05013,1.20297v15.83914c0,0.81868 0.06683,1.33664 0.2005,1.55384c0.15037,0.2172 0.45947,0.32581 0.92729,0.32581c0.46782,0 0.77693,0.01671 0.9273,0.05013c0.16707,0.03342 0.36757,0.12531 0.60148,0.27568c0.45112,0.30075 0.67667,1.11108 0.67667,2.43101c0,1.43688 -0.22555,2.31405 -0.67667,2.6315c-0.60148,0.4177 -2.02166,0.49289 -4.26053,0.22556c-1.75433,-0.23391 -2.89047,-0.81868 -3.40842,-1.75433c-0.63491,-1.11943 -0.95236,-2.89883 -0.95236,-5.3382zM146.96031,152.99692c0,1.40347 -0.35086,2.44771 -1.0526,3.13275c-0.68503,0.66832 -1.4536,1.00248 -2.3057,1.00248h-8.095c0,0.63491 0.37593,1.16956 1.12779,1.60397c0.75186,0.43441 1.50371,0.65161 2.25557,0.65161c1.31993,0 2.35582,-0.13366 3.10768,-0.40099l0.37593,-0.15037c0.55136,-0.25062 1.01083,-0.37593 1.3784,-0.37593c0.71844,0 1.34499,0.5096 1.87965,1.52878c0.30075,0.61819 0.45111,1.14449 0.45111,1.5789c0,2.03838 -2.43101,3.05756 -7.29302,3.05756c-1.6875,0 -3.19122,-0.29239 -4.51114,-0.87717c-1.30322,-0.58478 -2.3224,-1.35334 -3.05755,-2.3057c-1.43688,-1.85458 -2.15533,-3.91802 -2.15533,-6.1903c0,-2.87376 0.92729,-5.17112 2.78187,-6.89203c1.87129,-1.72091 4.1937,-2.58138 6.96722,-2.58138c3.17451,0 5.50527,1.11109 6.99228,3.33324c0.76856,1.18626 1.15285,2.48112 1.15285,3.88459zM139.74247,154.02446c0.86881,0 1.30322,-0.36757 1.30322,-1.10272c0,-0.51794 -0.20049,-0.93564 -0.60148,-1.2531c-0.40099,-0.33416 -0.97742,-0.50124 -1.72928,-0.50124c-0.73515,0 -1.4703,0.30911 -2.20545,0.9273c-0.71844,0.60148 -1.07766,1.24473 -1.07766,1.92977zM160.8734,148.05972c0.15037,-1.2698 1.0526,-1.90471 2.70668,-1.90471c0.90223,0 1.5622,0.06683 1.97989,0.2005c0.43441,0.13367 0.73515,0.37593 0.90223,0.72679c0.18379,0.33416 0.29238,0.63491 0.32581,0.90223c0.03342,0.25062 0.05012,0.64326 0.05012,1.17791v11.97961c0,0.51794 -0.0167,0.91058 -0.05012,1.17791c-0.03342,0.25062 -0.13367,0.55137 -0.30075,0.90223c-0.31745,0.58478 -1.10272,0.87716 -2.35582,0.87716c-1.23639,0 -2.06343,-0.15037 -2.48113,-0.45112c-0.4177,-0.31745 -0.65997,-0.76856 -0.7268,-1.35334c-0.8521,1.20298 -2.26393,1.80445 -4.23547,1.80445c-1.97153,0 -3.80105,-0.89387 -5.48856,-2.68162c-1.6875,-1.80446 -2.53126,-3.90131 -2.53126,-6.29055c0,-2.38924 0.85211,-4.47772 2.55632,-6.26548c1.70421,-1.78776 3.56715,-2.68162 5.58881,-2.68162c0.76856,0 1.47029,0.14201 2.1052,0.42605c0.65161,0.26732 1.10272,0.51794 1.35334,0.75186c0.25062,0.23391 0.45112,0.46782 0.60149,0.70173zM154.65804,155.17731c0,0.75186 0.29238,1.42853 0.87716,2.03001c0.60148,0.60148 1.31993,0.90223 2.15533,0.90223c0.8521,0 1.55384,-0.30075 2.1052,-0.90223c0.56807,-0.61819 0.8521,-1.29486 0.8521,-2.03001c0,-0.75186 -0.26733,-1.44523 -0.80198,-2.08014c-0.53465,-0.63491 -1.25309,-0.95236 -2.15532,-0.95236c-0.90223,0 -1.63738,0.31745 -2.20545,0.95236c-0.55136,0.63491 -0.82704,1.32828 -0.82704,2.08014zM169.70881,162.57058c-0.43441,-0.28404 -0.65161,-0.71844 -0.65161,-1.30322c0,-0.60148 0.43441,-1.50371 1.30322,-2.70669c0.25062,-0.38429 0.65162,-0.57643 1.20298,-0.57643c0.56807,0 1.32828,0.28404 2.28063,0.85211c0.96906,0.55136 1.83788,0.82704 2.60644,0.82704c1.38676,0 2.08014,-0.27569 2.08014,-0.82704c0,-0.43441 -0.76022,-0.75186 -2.28064,-0.95235c-1.43688,-0.20049 -2.86541,-0.73515 -4.28559,-1.60396c-0.65161,-0.4177 -1.19461,-1.06096 -1.62903,-1.92977c-0.43441,-0.88553 -0.65161,-1.92977 -0.65161,-3.13274c0,-3.60892 2.47278,-5.41338 7.41833,-5.41338c1.62067,0 3.28312,0.38428 4.98732,1.15285c0.80198,0.36757 1.20297,0.82705 1.20297,1.37841c0,0.55136 -0.25062,1.22804 -0.75186,2.03001c-0.50124,0.78528 -1.01084,1.17791 -1.52878,1.17791c-0.28404,0 -0.80198,-0.16708 -1.55384,-0.50124c-0.73515,-0.35086 -1.52878,-0.5263 -2.38088,-0.5263c-1.35334,0 -2.03001,0.25062 -2.03001,0.75186c0,0.68503 0.77692,1.13614 2.33076,1.35334c1.50371,0.15037 2.96567,0.57642 4.38584,1.27815c0.65161,0.33416 1.19461,0.89388 1.62902,1.67915c0.45111,0.78528 0.67667,1.77104 0.67667,2.95731c0,1.18626 -0.22556,2.19709 -0.67667,3.03249c-0.43441,0.81868 -1.0526,1.43689 -1.85458,1.85459c-1.45359,0.70174 -3.28311,1.0526 -5.48856,1.0526c-2.18875,0 -4.30229,-0.63491 -6.34067,-1.90471zM203.67996,152.99692c0,1.40347 -0.35086,2.44771 -1.0526,3.13275c-0.68503,0.66832 -1.4536,1.00248 -2.3057,1.00248h-8.09501c0,0.63491 0.37593,1.16956 1.12779,1.60397c0.75186,0.43441 1.50371,0.65161 2.25557,0.65161c1.31993,0 2.35582,-0.13366 3.10768,-0.40099l0.37593,-0.15037c0.55136,-0.25062 1.01083,-0.37593 1.3784,-0.37593c0.71844,0 1.34499,0.5096 1.87965,1.52878c0.30075,0.61819 0.45111,1.14449 0.45111,1.5789c0,2.03838 -2.431,3.05756 -7.29302,3.05756c-1.6875,0 -3.19122,-0.29239 -4.51114,-0.87717c-1.30322,-0.58478 -2.3224,-1.35334 -3.05756,-2.3057c-1.43688,-1.85458 -2.15533,-3.91802 -2.15533,-6.1903c0,-2.87376 0.92729,-5.17112 2.78187,-6.89203c1.87129,-1.72091 4.1937,-2.58138 6.96722,-2.58138c3.17451,0 5.50527,1.11109 6.99228,3.33324c0.76856,1.18626 1.15285,2.48112 1.15285,3.88459zM196.46213,154.02446c0.86881,0 1.30322,-0.36757 1.30322,-1.10272c0,-0.51794 -0.20049,-0.93564 -0.60148,-1.2531c-0.40099,-0.33416 -0.97742,-0.50124 -1.72928,-0.50124c-0.73515,0 -1.47029,0.30911 -2.20545,0.9273c-0.71844,0.60148 -1.07767,1.24473 -1.07767,1.92977zM226.79944,146.35551c0.43441,0.13367 0.79362,0.36757 1.07766,0.70173c0.28404,0.33416 0.42605,0.86881 0.42605,1.60397c0,0.71844 -0.2172,1.51207 -0.65161,2.38088c-0.43441,0.86881 -1.06096,1.30322 -1.87965,1.30322c-0.40099,0 -0.79362,-0.09189 -1.17791,-0.27568c-0.36757,-0.18379 -0.86047,-0.27568 -1.47866,-0.27568c-0.61819,0 -1.19461,0.2172 -1.72927,0.65161c-0.53465,0.43441 -0.80199,0.96071 -0.80199,1.5789v7.16771c0,0.53465 -0.0167,0.93565 -0.05012,1.20297c-0.03342,0.25062 -0.14202,0.55136 -0.32581,0.90223c-0.35086,0.58478 -1.24475,0.87717 -2.68163,0.87717c-1.08602,0 -1.87129,-0.19214 -2.35582,-0.57643c-0.36757,-0.31745 -0.56806,-0.81034 -0.60148,-1.47866c0,-0.23391 0,-0.55972 0,-0.97741v-12.02973c0,-0.51794 0.01671,-0.90223 0.05013,-1.15285c0.03342,-0.26732 0.12531,-0.56807 0.27568,-0.90223c0.31745,-0.60148 1.21133,-0.90223 2.68162,-0.90223c1.37005,0 2.22216,0.25898 2.55632,0.77692c0.25062,0.36757 0.37593,0.7435 0.37593,1.12778c0.11695,-0.15037 0.28404,-0.3425 0.50124,-0.57642c0.2172,-0.23391 0.67667,-0.54301 1.37841,-0.9273c0.71844,-0.38429 1.34499,-0.57643 1.87964,-0.57643c0.53465,0 0.97742,0.03342 1.32829,0.10025c0.36757,0.05013 0.76856,0.14202 1.20297,0.27568zM246.54443,152.99692c0,1.40347 -0.35086,2.44771 -1.0526,3.13275c-0.68503,0.66832 -1.4536,1.00248 -2.3057,1.00248h-8.09501c0,0.63491 0.37593,1.16956 1.12779,1.60397c0.75186,0.43441 1.50371,0.65161 2.25557,0.65161c1.31993,0 2.35582,-0.13366 3.10768,-0.40099l0.37593,-0.15037c0.55136,-0.25062 1.01084,-0.37593 1.37841,-0.37593c0.71844,0 1.34499,0.5096 1.87964,1.52878c0.30075,0.61819 0.45112,1.14449 0.45112,1.5789c0,2.03838 -2.431,3.05756 -7.29302,3.05756c-1.6875,0 -3.19122,-0.29239 -4.51115,-0.87717c-1.30322,-0.58478 -2.3224,-1.35334 -3.05756,-2.3057c-1.43688,-1.85458 -2.15533,-3.91802 -2.15533,-6.1903c0,-2.87376 0.92729,-5.17112 2.78188,-6.89203c1.87129,-1.72091 4.19369,-2.58138 6.96721,-2.58138c3.17451,0 5.50527,1.11109 6.99228,3.33324c0.76856,1.18626 1.15285,2.48112 1.15285,3.88459zM239.32659,154.02446c0.86881,0 1.30322,-0.36757 1.30322,-1.10272c0,-0.51794 -0.2005,-0.93564 -0.60149,-1.2531c-0.40099,-0.33416 -0.97741,-0.50124 -1.72927,-0.50124c-0.73515,0 -1.47029,0.30911 -2.20545,0.9273c-0.71844,0.60148 -1.07766,1.24473 -1.07766,1.92977zM248.77866,140.66646c0,-0.51794 0.01671,-0.91059 0.05013,-1.17792c0.03342,-0.26732 0.12531,-0.56806 0.27568,-0.90222c0.31745,-0.61819 1.21134,-0.9273 2.68163,-0.9273c1.38676,0 2.24722,0.30911 2.58138,0.9273c0.18379,0.33416 0.29238,0.64325 0.32581,0.92729c0.03342,0.26732 0.05012,0.66832 0.05012,1.20297v15.83914c0,0.81868 0.06683,1.33664 0.2005,1.55384c0.15037,0.2172 0.45947,0.32581 0.92729,0.32581c0.46782,0 0.77692,0.01671 0.92729,0.05013c0.16708,0.03342 0.36757,0.12531 0.60149,0.27568c0.45112,0.30075 0.67667,1.11108 0.67667,2.43101c0,1.43688 -0.22555,2.31405 -0.67667,2.6315c-0.60149,0.4177 -2.02166,0.49289 -4.26053,0.22556c-1.75433,-0.23391 -2.89048,-0.81868 -3.40842,-1.75433c-0.63491,-1.11943 -0.95236,-2.89883 -0.95236,-5.3382zM259.43894,155.17731c0,-2.7401 0.95236,-4.99568 2.85706,-6.76672c1.92141,-1.78776 4.11015,-2.68163 6.56622,-2.68163c2.47278,0 4.65317,0.88552 6.54117,2.65656c1.9047,1.77104 2.85706,4.02662 2.85706,6.76673c0,1.888 -0.49289,3.56715 -1.47866,5.03744c-0.98577,1.47029 -2.18039,2.55631 -3.58386,3.25805c-1.38677,0.68503 -2.84035,1.02754 -4.36077,1.02754c-1.50371,0 -2.96567,-0.36757 -4.38584,-1.10273c-1.40347,-0.73515 -2.58974,-1.82952 -3.5588,-3.28311c-0.96906,-1.45359 -1.45359,-3.09097 -1.45359,-4.91214zM266.58159,157.63338c0.73516,0.55136 1.47865,0.82704 2.23051,0.82704c0.75186,0 1.50371,-0.28404 2.25558,-0.85211c0.75186,-0.56807 1.12778,-1.41182 1.12778,-2.53125c0,-1.11943 -0.35086,-1.94648 -1.0526,-2.48113c-0.70173,-0.55136 -1.4703,-0.82704 -2.3057,-0.82704c-0.81869,0 -1.5789,0.28403 -2.28063,0.8521c-0.70173,0.56807 -1.05261,1.40347 -1.05261,2.50619c0,1.10272 0.35923,1.93812 1.07767,2.50619zM292.16987,148.05972c0.15037,-1.2698 1.0526,-1.90471 2.70668,-1.90471c0.90223,0 1.5622,0.06683 1.97989,0.2005c0.43441,0.13367 0.73515,0.37593 0.90223,0.72679c0.18379,0.33416 0.29239,0.63491 0.32581,0.90223c0.03342,0.25062 0.05012,0.64326 0.05012,1.17791v11.97961c0,0.51794 -0.0167,0.91058 -0.05012,1.17791c-0.03342,0.25062 -0.13367,0.55137 -0.30075,0.90223c-0.31745,0.58478 -1.10273,0.87716 -2.35582,0.87716c-1.23639,0 -2.06344,-0.15037 -2.48113,-0.45112c-0.41769,-0.31745 -0.65996,-0.76856 -0.72679,-1.35334c-0.8521,1.20298 -2.26393,1.80445 -4.23547,1.80445c-1.97154,0 -3.80105,-0.89387 -5.48856,-2.68162c-1.6875,-1.80446 -2.53126,-3.90131 -2.53126,-6.29055c0,-2.38924 0.85211,-4.47772 2.55632,-6.26548c1.70421,-1.78776 3.56715,-2.68162 5.58881,-2.68162c0.76857,0 1.4703,0.14201 2.1052,0.42605c0.65161,0.26732 1.10272,0.51794 1.35334,0.75186c0.25062,0.23391 0.45112,0.46782 0.60149,0.70173zM285.95451,155.17731c0,0.75186 0.29238,1.42853 0.87716,2.03001c0.60149,0.60148 1.31993,0.90223 2.15533,0.90223c0.8521,0 1.55384,-0.30075 2.1052,-0.90223c0.56807,-0.61819 0.8521,-1.29486 0.8521,-2.03001c0,-0.75186 -0.26732,-1.44523 -0.80198,-2.08014c-0.53465,-0.63491 -1.2531,-0.95236 -2.15533,-0.95236c-0.90223,0 -1.63738,0.31745 -2.20545,0.95236c-0.55136,0.63491 -0.82704,1.32828 -0.82704,2.08014zM312.95981,138.63644c0.16708,-0.33416 0.46782,-0.56806 0.90223,-0.70173c0.43441,-0.13367 1.01084,-0.2005 1.72928,-0.2005c0.71844,0 1.29486,0.06683 1.72927,0.2005c0.43441,0.13367 0.73516,0.37593 0.90223,0.72679c0.18379,0.33416 0.29239,0.63491 0.32581,0.90223c0.03342,0.26732 0.05012,0.65996 0.05012,1.17791v20.42547c0,0.51794 -0.01671,0.91058 -0.05012,1.17791c-0.03342,0.26732 -0.14202,0.55972 -0.32581,0.87717c-0.35086,0.61819 -1.31992,0.92729 -2.90718,0.92729c-1.58726,0 -2.46443,-0.55972 -2.63151,-1.67915c-0.96906,1.08602 -2.3057,1.62903 -4.00991,1.62903c-2.05508,0 -3.92636,-0.89387 -5.61387,-2.68162c-1.6875,-1.78776 -2.53126,-3.8679 -2.53126,-6.24042c0,-2.38924 0.84375,-4.48609 2.53126,-6.29055c1.70421,-1.80446 3.57549,-2.70668 5.61387,-2.70668c1.6875,0 2.99908,0.56806 3.93473,1.70421v-7.16771c0,-0.53465 0.01671,-0.92729 0.05012,-1.17791c0.03342,-0.26732 0.13367,-0.56807 0.30074,-0.90223zM307.39607,157.23239c0.60149,0.61819 1.31993,0.92729 2.15533,0.92729c0.8521,0 1.55384,-0.3091 2.1052,-0.92729c0.56807,-0.61819 0.8521,-1.29487 0.8521,-2.03002c0,-0.75186 -0.26733,-1.44523 -0.80198,-2.08014c-0.53465,-0.63491 -1.26146,-0.95235 -2.18039,-0.95235c-0.91893,0 -1.65409,0.31744 -2.20544,0.95235c-0.53465,0.61819 -0.80199,1.30322 -0.80199,2.05508c0,0.75186 0.29239,1.43689 0.87717,2.05508zM340.44326,152.19494l-2.20545,-0.12531v4.71165c0,0.61819 0.09189,1.06931 0.27568,1.35335c0.20049,0.26732 0.56807,0.40099 1.10273,0.40099c0.53465,0 0.94399,0.01671 1.22803,0.05013c0.28404,0.03342 0.58478,0.14202 0.90223,0.32581c0.53465,0.30075 0.80198,1.06095 0.80198,2.28063c0,1.43688 -0.32581,2.31405 -0.97742,2.6315c-0.33416,0.16708 -0.6349,0.26732 -0.90223,0.30074c-0.26733,0.03342 -0.65161,0.05013 -1.15285,0.05013c-2.37252,0 -4.17699,-0.53466 -5.41338,-1.60396c-1.21968,-1.0693 -1.82952,-2.88213 -1.82952,-5.43844v-5.06251c-0.43441,0.06683 -0.90223,0.10025 -1.40347,0.10025c-0.50124,0 -0.91894,-0.19214 -1.2531,-0.57643c-0.33416,-0.40099 -0.50124,-1.06096 -0.50124,-1.97989c0,-0.93565 0.05848,-1.61232 0.17544,-2.03002c0.11696,-0.43441 0.27568,-0.7435 0.47617,-0.92729c0.36757,-0.30075 0.82705,-0.45111 1.37841,-0.45111l1.12779,0.15037v-3.53373c0,-0.51794 0.01671,-0.90223 0.05013,-1.15285c0.03342,-0.25062 0.14202,-0.5263 0.32581,-0.82704c0.30075,-0.56807 1.17791,-0.8521 2.6315,-0.8521c1.55384,0 2.48113,0.4177 2.78188,1.2531c0.11696,0.36757 0.17543,0.95236 0.17543,1.75433v3.35829c1.00248,-0.10025 1.75433,-0.15037 2.25557,-0.15037c0.51794,0 0.90223,0.01671 1.15285,0.05013c0.26733,0.03342 0.57642,0.14202 0.92729,0.32581c0.58478,0.30075 0.87717,1.17791 0.87717,2.6315c0,1.43688 -0.30075,2.32241 -0.90223,2.65657c-0.35086,0.15037 -0.65996,0.24226 -0.92729,0.27568c-0.25062,0.03342 -0.64326,0.05013 -1.17791,0.05013zM355.32719,146.20514c2.28899,0 4.18535,0.86881 5.68906,2.60644c1.52042,1.73763 2.28063,3.85954 2.28063,6.36573v6.01486c0,0.53465 -0.01671,0.93565 -0.05012,1.20297c-0.03342,0.25062 -0.14202,0.55136 -0.32581,0.90223c-0.30075,0.58478 -1.17791,0.87717 -2.6315,0.87717c-1.38677,0 -2.25557,-0.29239 -2.60644,-0.87717c-0.18379,-0.35086 -0.29239,-0.65996 -0.32581,-0.92729c-0.03342,-0.28404 -0.05013,-0.69338 -0.05013,-1.22803v-5.9898c0,-0.93565 -0.25897,-1.66245 -0.77692,-2.18039c-0.51794,-0.53465 -1.18627,-0.80198 -2.00495,-0.80198c-0.80198,0 -1.51207,0.25062 -2.13027,0.75186c-0.61819,0.48453 -0.97741,1.02754 -1.07766,1.62902v6.64141c0,0.53465 -0.01671,0.93565 -0.05013,1.20297c-0.03342,0.25062 -0.14202,0.55136 -0.32581,0.90223c-0.28404,0.58478 -1.16121,0.87717 -2.63151,0.87717c-1.43689,0 -2.31405,-0.3091 -2.6315,-0.92729c-0.15037,-0.33416 -0.24226,-0.62655 -0.27568,-0.87717c-0.03342,-0.25062 -0.05012,-0.65161 -0.05012,-1.20297v-20.45054c0,-0.53465 0.01671,-0.92729 0.05012,-1.17791c0.03342,-0.26732 0.12531,-0.55972 0.27568,-0.87717c0.31745,-0.61819 1.21133,-0.92729 2.68162,-0.92729c1.43689,0 2.29734,0.3091 2.58138,0.92729c0.18379,0.33416 0.29239,0.63491 0.32581,0.90223c0.03342,0.26732 0.05013,0.65996 0.05013,1.17791v7.5687c1.15285,-1.40347 2.48948,-2.1052 4.0099,-2.1052zM383.41732,152.99692c0,1.40347 -0.35086,2.44771 -1.0526,3.13275c-0.68503,0.66832 -1.4536,1.00248 -2.3057,1.00248h-8.095c0,0.63491 0.37592,1.16956 1.12778,1.60397c0.75186,0.43441 1.50371,0.65161 2.25558,0.65161c1.31993,0 2.35582,-0.13366 3.10768,-0.40099l0.37593,-0.15037c0.55136,-0.25062 1.01083,-0.37593 1.3784,-0.37593c0.71844,0 1.34499,0.5096 1.87965,1.52878c0.30075,0.61819 0.45111,1.14449 0.45111,1.5789c0,2.03838 -2.43101,3.05756 -7.29302,3.05756c-1.6875,0 -3.19122,-0.29239 -4.51114,-0.87717c-1.30322,-0.58478 -2.3224,-1.35334 -3.05755,-2.3057c-1.43689,-1.85458 -2.15533,-3.91802 -2.15533,-6.1903c0,-2.87376 0.92729,-5.17112 2.78187,-6.89203c1.87129,-1.72091 4.1937,-2.58138 6.96722,-2.58138c3.17451,0 5.50526,1.11109 6.99227,3.33324c0.76857,1.18626 1.15285,2.48112 1.15285,3.88459zM376.19948,154.02446c0.86881,0 1.30322,-0.36757 1.30322,-1.10272c0,-0.51794 -0.2005,-0.93564 -0.60149,-1.2531c-0.40099,-0.33416 -0.97741,-0.50124 -1.72927,-0.50124c-0.73516,0 -1.47029,0.30911 -2.20545,0.9273c-0.71844,0.60148 -1.07766,1.24473 -1.07766,1.92977z"/><path d="M197.3788,210.7647v-19.97436c0,-0.51794 0.01671,-0.90223 0.05013,-1.15285c0.03342,-0.25062 0.12531,-0.543 0.27568,-0.87716c0.31745,-0.60148 1.07766,-0.90223 2.28063,-0.90223c1.21968,0 2.03838,0.15037 2.45607,0.45111c0.43441,0.30075 0.68503,0.75186 0.75186,1.35335c0.86881,-1.18626 2.23051,-1.7794 4.08509,-1.7794c1.85458,0 3.60892,0.87717 5.26301,2.63151c1.67079,1.75433 2.50619,3.80105 2.50619,6.14017c0,2.32241 -0.82704,4.36078 -2.48113,6.11512c-1.65409,1.75433 -3.41678,2.6315 -5.28807,2.6315c-1.85458,0 -3.20793,-0.5263 -4.06003,-1.5789v6.91709c0,0.51794 -0.0167,0.90223 -0.05012,1.15285c-0.03342,0.25062 -0.14202,0.54301 -0.32581,0.87717c-0.16708,0.33416 -0.45947,0.56806 -0.87717,0.70173c-0.40099,0.13367 -0.95235,0.20049 -1.65409,0.20049c-0.70174,0 -1.2698,-0.06683 -1.70421,-0.20049c-0.4177,-0.13367 -0.71009,-0.35922 -0.87716,-0.67667c-0.16708,-0.31745 -0.26732,-0.60148 -0.30075,-0.8521c-0.03342,-0.25062 -0.05013,-0.64326 -0.05013,-1.17791zM204.12046,194.64988c-0.51794,0.61819 -0.77692,1.29486 -0.77692,2.03001c0,0.71844 0.26733,1.38676 0.80199,2.00495c0.55136,0.60148 1.23639,0.90223 2.05507,0.90223c0.8354,0 1.54549,-0.29239 2.13027,-0.87717c0.58478,-0.60148 0.87716,-1.27815 0.87716,-2.03001c0,-0.75186 -0.27568,-1.42853 -0.82704,-2.03001c-0.55136,-0.61819 -1.2698,-0.9273 -2.15533,-0.9273c-0.86881,0 -1.57055,0.30911 -2.10521,0.9273zM228.9677,189.7628c0.15037,-1.2698 1.0526,-1.90471 2.70669,-1.90471c0.90223,0 1.5622,0.06683 1.97989,0.20049c0.43441,0.13367 0.73515,0.37593 0.90223,0.7268c0.18379,0.33416 0.29238,0.63491 0.32581,0.90223c0.03342,0.25062 0.05013,0.64326 0.05013,1.17791v11.9796c0,0.51794 -0.01671,0.91058 -0.05013,1.17791c-0.03342,0.25062 -0.13367,0.55137 -0.30074,0.90223c-0.31745,0.58478 -1.10273,0.87716 -2.35582,0.87716c-1.23639,0 -2.06343,-0.15037 -2.48113,-0.45111c-0.4177,-0.31745 -0.65996,-0.76856 -0.7268,-1.35334c-0.8521,1.20298 -2.26394,1.80445 -4.23547,1.80445c-1.97153,0 -3.80106,-0.89387 -5.48856,-2.68162c-1.6875,-1.80446 -2.53125,-3.9013 -2.53125,-6.29054c0,-2.38924 0.8521,-4.47772 2.55631,-6.26548c1.70421,-1.78776 3.56715,-2.68163 5.58881,-2.68163c0.76856,0 1.4703,0.14201 2.10521,0.42605c0.65161,0.26732 1.10272,0.51795 1.35334,0.75186c0.25062,0.23391 0.45111,0.46782 0.60148,0.70173zM222.75234,196.88039c0,0.75186 0.29239,1.42853 0.87717,2.03002c0.60148,0.60148 1.31993,0.90223 2.15533,0.90223c0.8521,0 1.55384,-0.30075 2.1052,-0.90223c0.56807,-0.61819 0.8521,-1.29486 0.8521,-2.03002c0,-0.75186 -0.26732,-1.44523 -0.80198,-2.08014c-0.53465,-0.63491 -1.2531,-0.95235 -2.15533,-0.95235c-0.90223,0 -1.63738,0.31745 -2.20545,0.95235c-0.55136,0.63491 -0.82704,1.32828 -0.82704,2.08014zM249.10604,203.62205c-0.86881,1.13614 -2.25557,1.70421 -4.16028,1.70421c-1.888,0 -3.65904,-0.86881 -5.31313,-2.60644c-1.65409,-1.75433 -2.48113,-3.79271 -2.48113,-6.11511c0,-2.32241 0.82704,-4.36077 2.48113,-6.11511c1.67079,-1.75433 3.50031,-2.63151 5.48856,-2.63151c0.78528,0 1.49536,0.14201 2.13027,0.42605c0.63491,0.28404 1.0693,0.54301 1.30322,0.77692c0.25062,0.23391 0.44276,0.45947 0.57643,0.67667c0.06683,-0.65161 0.30075,-1.13614 0.70174,-1.45359c0.40099,-0.33416 1.04424,-0.50124 1.92977,-0.50124c0.88553,0 1.52877,0.06683 1.92977,0.20049c0.4177,0.13367 0.71009,0.36758 0.87717,0.70174c0.18379,0.33416 0.29238,0.62654 0.32581,0.87716c0.03342,0.25062 0.05013,0.63491 0.05013,1.15285v14.15999c0,2.62314 -0.91058,4.73671 -2.73175,6.34067c-1.82117,1.62067 -3.87624,2.43101 -6.16523,2.43101c-1.73763,0 -3.39172,-0.42606 -4.96227,-1.27816c-1.57055,-0.8354 -2.35582,-1.59561 -2.35582,-2.28064c0,-0.88553 0.34251,-1.67079 1.02754,-2.35582c0.43441,-0.48453 0.76856,-0.81869 1.00248,-1.00248c0.23391,-0.18379 0.50959,-0.27569 0.82704,-0.27569c0.33416,0 0.66832,0.14202 1.00248,0.42606c1.10272,0.8354 2.289,1.2531 3.5588,1.2531c0.86881,0 1.5789,-0.34251 2.13026,-1.02754c0.55136,-0.68503 0.82704,-1.50371 0.82704,-2.45606zM243.01599,196.62977c0,0.73515 0.28403,1.40347 0.8521,2.00495c0.58478,0.58478 1.29487,0.87717 2.13027,0.87717c0.8354,0 1.52042,-0.30074 2.05507,-0.90223c0.55136,-0.60148 0.82704,-1.26146 0.82704,-1.97989c0,-0.71844 -0.25897,-1.38676 -0.77692,-2.00495c-0.51794,-0.63491 -1.22804,-0.95235 -2.13027,-0.95235c-0.88553,0 -1.60397,0.3091 -2.15533,0.92729c-0.53465,0.60148 -0.80198,1.27815 -0.80198,2.03001zM275.05834,194.7c0,1.40347 -0.35086,2.44771 -1.0526,3.13275c-0.68503,0.66832 -1.45359,1.00248 -2.3057,1.00248h-8.095c0,0.63491 0.37592,1.16955 1.12778,1.60396c0.75186,0.43441 1.50371,0.65161 2.25558,0.65161c1.31993,0 2.35582,-0.13367 3.10768,-0.40099l0.37593,-0.15037c0.55136,-0.25062 1.01083,-0.37592 1.3784,-0.37592c0.71844,0 1.34499,0.50959 1.87965,1.52877c0.30075,0.61819 0.45111,1.14449 0.45111,1.5789c0,2.03838 -2.431,3.05756 -7.29302,3.05756c-1.6875,0 -3.19123,-0.29239 -4.51115,-0.87717c-1.30322,-0.58478 -2.3224,-1.35334 -3.05755,-2.3057c-1.43689,-1.85458 -2.15533,-3.91801 -2.15533,-6.19029c0,-2.87376 0.92729,-5.17112 2.78188,-6.89203c1.87129,-1.72091 4.19369,-2.58138 6.96722,-2.58138c3.17451,0 5.50527,1.11109 6.99228,3.33324c0.76857,1.18626 1.15284,2.48112 1.15284,3.88459zM267.84051,195.72754c0.86881,0 1.30322,-0.36757 1.30322,-1.10272c0,-0.51794 -0.2005,-0.93564 -0.60149,-1.2531c-0.40099,-0.33416 -0.97741,-0.50124 -1.72927,-0.50124c-0.73516,0 -1.47029,0.30911 -2.20544,0.9273c-0.71844,0.60148 -1.07767,1.24473 -1.07767,1.92976zM282.58065,200.23869c0.38428,0.38429 0.57642,1.1779 0.57642,2.38088v0.15037c0,0.55136 -0.0167,0.96071 -0.05012,1.22804c-0.03342,0.25062 -0.15037,0.55972 -0.35087,0.92729c-0.33416,0.65161 -1.19461,0.97742 -2.58138,0.97742c-1.38677,0 -2.30569,-0.2172 -2.75681,-0.65161c-0.43441,-0.43441 -0.65161,-1.2531 -0.65161,-2.45607v-0.12531c0,-0.53465 0.01671,-0.93564 0.05012,-1.20297c0.03342,-0.26732 0.14202,-0.57643 0.32581,-0.9273c0.35086,-0.68503 1.21133,-1.02754 2.58138,-1.02754c1.38677,0 2.33911,0.24227 2.85706,0.7268z"/></g></g></g></svg>