<svg version="1.1" xmlns="http://www.w3.org/2000/svg" xmlns:xlink="http://www.w3.org/1999/xlink" width="75.54363" height="103.94697" viewBox="0,0,75.54363,103.94697"><g transform="translate(-202.22819,-128.02652)"><g data-paper-data="{&quot;isPaintingLayer&quot;:true}" fill="#ffffff" fill-rule="nonzero" stroke-linecap="square" stroke-linejoin="miter" stroke-miterlimit="10" stroke-dasharray="" stroke-dashoffset="0" style="mix-blend-mode: normal"><path d="M275.2718,196.21575c0,9.9842 -3.61497,18.04043 -10.84492,24.16867c-7.22995,6.05938 -15.38946,9.08908 -24.47853,9.08908c-9.08908,0 -17.24859,-3.0297 -24.47853,-9.08908c-7.1611,-6.05938 -10.74163,-14.1156 -10.74163,-24.16867c0,-3.85599 0.92957,-7.5398 2.7887,-11.05149c1.85913,-3.58054 3.71826,-6.23153 5.57739,-7.95294l2.7887,-0.41314c-0.75743,0.75743 -1.61812,0.65415 -2.58212,-0.30986c-0.89512,-0.96401 -2.10014,-2.96083 -3.61497,-5.99053c-1.51483,-3.0297 -2.27227,-6.23153 -2.27227,-9.60549c0,-8.81365 3.30511,-16.07801 9.91535,-21.79312c6.61024,-5.71512 14.25332,-8.57265 22.92925,-8.57265c8.67593,0 16.21573,2.89198 22.61941,8.67593c6.47251,5.78395 9.70879,13.22048 9.70879,22.30955c0,2.82313 -0.68856,5.68067 -2.0657,8.57265c-1.30827,2.82313 -2.6854,4.99211 -4.1314,6.50696h-1.65256c0.55086,-0.55086 1.41155,-0.20657 2.58212,1.03285c1.23942,1.17057 2.85755,3.61497 4.85439,7.33323c2.0657,3.64941 3.09855,7.40208 3.09855,11.25806zM245.73232,160.789c0,-0.96401 -0.44758,-1.92798 -1.3427,-2.89198c-0.89512,-0.96401 -2.37556,-1.44599 -4.44125,-1.44599c-2.0657,0 -3.51169,0.44758 -4.33797,1.3427c-0.82628,0.89512 -1.23942,1.85913 -1.23942,2.89198c0,0.96401 0.44758,1.96241 1.3427,2.99526c0.96401,0.96401 2.40999,1.44599 4.33797,1.44599c1.99686,0 3.44284,-0.48199 4.33797,-1.44599c0.89512,-0.96401 1.3427,-1.92798 1.3427,-2.89198zM233.54469,201.48327c1.44599,1.44599 3.61497,2.16899 6.50696,2.16899c2.96083,0 5.09541,-0.72299 6.40366,-2.16899c1.37715,-1.44599 2.0657,-2.96083 2.0657,-4.54453c0,-1.65256 -0.68856,-3.20183 -2.0657,-4.64783c-1.37715,-1.51483 -3.51169,-2.27227 -6.40366,-2.27227c-2.89198,0 -5.06096,0.72299 -6.50696,2.16899c-1.37715,1.44599 -2.0657,2.99526 -2.0657,4.64783c0,1.58372 0.68856,3.13298 2.0657,4.64783z" stroke="#28a5da" stroke-width="5"/><path d="M275.2718,196.21575c0,9.9842 -3.61497,18.04043 -10.84492,24.16867c-7.22995,6.05938 -15.38946,9.08908 -24.47853,9.08908c-9.08908,0 -17.24859,-3.0297 -24.47853,-9.08908c-7.1611,-6.05938 -10.74163,-14.1156 -10.74163,-24.16867c0,-3.85599 0.92957,-7.5398 2.7887,-11.05149c1.85913,-3.58054 3.71826,-6.23153 5.57739,-7.95294l2.7887,-0.41314c-0.75743,0.75743 -1.61812,0.65415 -2.58212,-0.30986c-0.89512,-0.96401 -2.10014,-2.96083 -3.61497,-5.99053c-1.51483,-3.0297 -2.27227,-6.23153 -2.27227,-9.60549c0,-8.81365 3.30511,-16.07801 9.91535,-21.79312c6.61024,-5.71512 14.25332,-8.57265 22.92925,-8.57265c8.67593,0 16.21573,2.89198 22.61941,8.67593c6.47251,5.78395 9.70879,13.22048 9.70879,22.30955c0,2.82313 -0.68856,5.68067 -2.0657,8.57265c-1.30827,2.82313 -2.6854,4.99211 -4.1314,6.50696h-1.65256c0.55086,-0.55086 1.41155,-0.20657 2.58212,1.03285c1.23942,1.17057 2.85755,3.61497 4.85439,7.33323c2.0657,3.64941 3.09855,7.40208 3.09855,11.25806zM245.73232,160.789c0,-0.96401 -0.44758,-1.92798 -1.3427,-2.89198c-0.89512,-0.96401 -2.37556,-1.44599 -4.44125,-1.44599c-2.0657,0 -3.51169,0.44758 -4.33797,1.3427c-0.82628,0.89512 -1.23942,1.85913 -1.23942,2.89198c0,0.96401 0.44758,1.96241 1.3427,2.99526c0.96401,0.96401 2.40999,1.44599 4.33797,1.44599c1.99686,0 3.44284,-0.48199 4.33797,-1.44599c0.89512,-0.96401 1.3427,-1.92798 1.3427,-2.89198zM233.54469,201.48327c1.44599,1.44599 3.61497,2.16899 6.50696,2.16899c2.96083,0 5.09541,-0.72299 6.40366,-2.16899c1.37715,-1.44599 2.0657,-2.96083 2.0657,-4.54453c0,-1.65256 -0.68856,-3.20183 -2.0657,-4.64783c-1.37715,-1.51483 -3.51169,-2.27227 -6.40366,-2.27227c-2.89198,0 -5.06096,0.72299 -6.50696,2.16899c-1.37715,1.44599 -2.0657,2.99526 -2.0657,4.64783c0,1.58372 0.68856,3.13298 2.0657,4.64783z" stroke="none" stroke-width="1"/></g></g></svg>