<svg version="1.1" xmlns="http://www.w3.org/2000/svg" xmlns:xlink="http://www.w3.org/1999/xlink" width="919.93698" height="436.75645" viewBox="0,0,919.93698,436.75645"><defs><linearGradient x1="238.95877" y1="-2.50004" x2="238.95877" y2="367.49999" gradientUnits="userSpaceOnUse" id="color-1"><stop offset="0" stop-color="#0196fe"/><stop offset="1" stop-color="#0fd4ff"/></linearGradient><linearGradient x1="-132.67654" y1="371.10853" x2="-132.67654" y2="183.37222" gradientUnits="userSpaceOnUse" id="color-2"><stop offset="0" stop-color="#0196fe"/><stop offset="1" stop-color="#0fd4ff"/></linearGradient><linearGradient x1="259.26377" y1="375.50002" x2="259.26377" y2="187.76369" gradientUnits="userSpaceOnUse" id="color-3"><stop offset="0" stop-color="#0196fe"/><stop offset="1" stop-color="#0fd4ff"/></linearGradient><linearGradient x1="60.46911" y1="375.50002" x2="60.46911" y2="117.50006" gradientUnits="userSpaceOnUse" id="color-4"><stop offset="0" stop-color="#0196fe"/><stop offset="1" stop-color="#0fd4ff"/></linearGradient><linearGradient x1="510.67647" y1="375.50002" x2="510.67647" y2="149.33827" gradientUnits="userSpaceOnUse" id="color-5"><stop offset="0" stop-color="#0196fe"/><stop offset="1" stop-color="#0fd4ff"/></linearGradient><linearGradient x1="-1451.33934" y1="-2950.84429" x2="-1495.14347" y2="-2640.91714" gradientUnits="userSpaceOnUse" id="color-6"><stop offset="0" stop-color="#00bbff"/><stop offset="1" stop-color="#53ceff"/></linearGradient><linearGradient x1="-1451.33934" y1="-2950.84429" x2="-1495.14347" y2="-2640.91714" gradientUnits="userSpaceOnUse" id="color-7"><stop offset="0" stop-color="#00bbff"/><stop offset="1" stop-color="#53ceff"/></linearGradient></defs><g transform="translate(270.96849,31.91927)"><g data-paper-data="{&quot;isPaintingLayer&quot;:true}" stroke-linejoin="miter" stroke-miterlimit="10" stroke-dasharray="" stroke-dashoffset="0" style="mix-blend-mode: normal"><g fill-rule="nonzero" stroke="none" stroke-width="0" stroke-linecap="butt"><path d="M-8.04124,367.49999v-370.00001h494v370.00001z" fill="url(#color-1)"/><path d="M5.61543,371.10853h-276.58392c0,0 58.64476,-187.39412 139.52672,-187.73631c81.69208,-0.34563 137.05721,187.73631 137.05721,187.73631z" data-paper-data="{&quot;index&quot;:null}" fill="url(#color-2)"/><path d="M397.55578,375.50002h-276.58392c0,0 58.64476,-187.39412 139.52671,-187.73631c81.69209,-0.34563 137.05721,187.73631 137.05721,187.73631z" data-paper-data="{&quot;index&quot;:null}" fill="url(#color-3)"/><path d="M198.76106,375.50002h-276.58392c0,0 58.64476,-257.52967 139.52671,-257.99995c81.69209,-0.47499 137.05721,257.99995 137.05721,257.99995z" data-paper-data="{&quot;index&quot;:null}" fill="url(#color-4)"/><path d="M648.96849,375.50002h-276.58392c0,0 58.64476,-225.7495 139.52671,-226.16174c81.69209,-0.41638 137.05721,226.16174 137.05721,226.16174z" data-paper-data="{&quot;index&quot;:null}" fill="url(#color-5)"/></g><g fill-rule="nonzero"><path d="" fill="url(#color-6)" stroke="none" stroke-width="0" stroke-linecap="butt"/><path d="" fill="#55e74a" stroke="none" stroke-width="0" stroke-linecap="butt"/><path d="" fill="#55e74a" stroke="none" stroke-width="0" stroke-linecap="butt"/><path d="" fill="#55e74a" stroke="none" stroke-width="0" stroke-linecap="butt"/><path d="" fill="#f73939" stroke="none" stroke-width="0" stroke-linecap="butt"/><path d="" fill="#55e74a" stroke="none" stroke-width="0" stroke-linecap="butt"/><path d="" fill="#55e74a" stroke="none" stroke-width="0" stroke-linecap="butt"/><path d="" data-paper-data="{&quot;origRot&quot;:0,&quot;index&quot;:null}" fill="#000000" stroke="none" stroke-width="1" stroke-linecap="butt" opacity="0.42445"/><g><path d="M8.704,384.95011l19.88706,-187.75496l144.75496,15.88706l-19.88706,191.75496z" fill="#ffab19" stroke="none" stroke-width="0" stroke-linecap="butt"/><path d="M152.40735,304.3741c-16.08759,-1.38069 -89.06273,-7.64364 -118.95464,-10.20905c-7.62867,-0.65472 -13.86762,-8.38341 -13.4604,-13.12829c1.11568,-12.99976 6.07227,-70.75337 6.07227,-70.75337l144.94241,12.4394c0,0 -4.89543,57.04094 -6.07227,70.75337c-0.48234,5.62016 -6.59735,11.40687 -12.52736,10.89794z" data-paper-data="{&quot;index&quot;:null}" fill="#ffca6d" stroke="none" stroke-width="0" stroke-linecap="butt"/><path d="M27.10133,205.78156l144.67909,15.87874" fill="none" stroke="#fce5be" stroke-width="25" stroke-linecap="round"/></g><g fill="none" stroke="#000000" stroke-width="25" stroke-linecap="round"><path d="M294.84707,371.08845l13.79377,-148.7078" data-paper-data="{&quot;index&quot;:null}"/><path d="M192.18078,371.84265l18.79377,-158.7078"/><path d="M305.22366,259.76392l-97.84982,-9.26318" data-paper-data="{&quot;index&quot;:null}"/><path d="M200.65587,321.46465l97.84982,9.26318" data-paper-data="{&quot;index&quot;:null}"/></g><g><path d="M344.85031,211.66407c1.99299,-23.22209 11.04933,-128.74539 11.04933,-128.74539l144.94241,12.4394c0,0 -8.8838,103.51298 -10.87681,126.73525c-0.7554,8.80187 -9.74802,17.50466 -19.43403,16.67337c-30.40598,-2.60953 -93.39484,-8.01543 -110.53895,-9.48679c-8.11108,-0.69612 -15.89732,-8.81416 -15.14194,-17.61585z" data-paper-data="{&quot;index&quot;:null}" fill="#ffab19" stroke="none" stroke-width="0" stroke-linecap="butt"/><path d="M481.40735,180.3741c-16.08759,-1.38069 -89.06273,-7.64364 -118.95464,-10.20905c-7.62867,-0.65472 -13.86762,-8.38341 -13.4604,-13.12829c1.11568,-12.99976 6.07227,-70.75337 6.07227,-70.75337l144.94241,12.4394c0,0 -4.89543,57.04094 -6.07227,70.75337c-0.48234,5.62016 -6.59735,11.40687 -12.52736,10.89794z" data-paper-data="{&quot;index&quot;:null}" fill="#ffca6d" stroke="none" stroke-width="0" stroke-linecap="butt"/><path d="M354.61461,91.52824l144.86644,12.43288" fill="none" stroke="#fce5be" stroke-width="25" stroke-linecap="round"/></g></g><path d="" fill="url(#color-7)" fill-rule="nonzero" stroke="none" stroke-width="0" stroke-linecap="butt"/><path d="" fill="#55e74a" fill-rule="nonzero" stroke="none" stroke-width="0" stroke-linecap="butt"/><path d="" fill="#55e74a" fill-rule="nonzero" stroke="none" stroke-width="0" stroke-linecap="butt"/><path d="" fill="#55e74a" fill-rule="nonzero" stroke="none" stroke-width="0" stroke-linecap="butt"/><path d="" fill="#f73939" fill-rule="nonzero" stroke="none" stroke-width="0" stroke-linecap="butt"/><path d="" fill="#55e74a" fill-rule="nonzero" stroke="none" stroke-width="0" stroke-linecap="butt"/><path d="" fill="#55e74a" fill-rule="nonzero" stroke="none" stroke-width="0" stroke-linecap="butt"/><path d="" data-paper-data="{&quot;origRot&quot;:0,&quot;index&quot;:null}" fill="#000000" fill-rule="nonzero" stroke="none" stroke-width="1" stroke-linecap="butt" opacity="0.42445"/><path d="M329.6485,325.1357c-13.46806,5.12405 -25.7072,5.88883 -26.84635,2.89462c-1.13929,-2.99456 9.25384,-5.90869 22.72154,-11.0326c13.46785,-5.12355 24.91056,-10.51844 26.0497,-7.52423c1.1388,2.99435 -8.45734,10.53795 -21.92504,15.66185z" data-paper-data="{&quot;index&quot;:null}" fill="#693a00" fill-rule="nonzero" stroke="none" stroke-width="0" stroke-linecap="butt"/><path d="M419.06334,341.60683c1.96377,-1.3965 8.7652,4.79757 15.19175,13.83463c6.42655,9.03706 10.04459,17.49494 8.08082,18.89144c-1.96377,1.3965 -8.7652,-4.79757 -15.19175,-13.83463c-6.42655,-9.03706 -10.04459,-17.49494 -8.08082,-18.89144z" fill="#692727" fill-rule="nonzero" stroke="none" stroke-width="0" stroke-linecap="butt"/><path d="M389.4624,333.97246c2.34596,-0.55055 6.30129,7.75495 8.83487,18.55078c2.53358,10.79583 2.68599,19.99381 0.34003,20.54436c-2.34596,0.55055 -6.30129,-7.75495 -8.83487,-18.55078c-2.53358,-10.79583 -2.68599,-19.99381 -0.34003,-20.54436z" fill="#692727" fill-rule="nonzero" stroke="none" stroke-width="0" stroke-linecap="butt"/><path d="M459.96153,287.2742c8.91994,37.21334 8.63078,47.51239 -22.7597,56.39381c-1.25777,0.46162 -2.33552,1.46662 -2.33552,1.46662l-2.88513,9.39985l-17.18253,4.00053l-6.8059,-5.00037c0,0 0.64904,0.08956 -1.45807,0.56423c-66.63414,15.01444 -65.99749,15.28151 -78.74034,-36.72366c-12.71337,-51.88454 -10.85416,-53.48514 44.73521,-64.89418c4.9716,-1.09908 15.05005,-2.80711 15.05005,-2.80711l7.50259,6.24574l18.9736,-2.85255l3.42772,-9.17565c0,0 2.04017,-0.23964 2.98273,-0.41223c23.95303,-1.94145 31.63474,11.00295 39.49538,43.79532z" fill="#ff6363" fill-rule="nonzero" stroke="none" stroke-width="0" stroke-linecap="butt"/><path d="M434.46333,297.33583c6.4911,26.83235 5.94013,27.80861 -42.07516,38.60638c-48.69613,10.95055 -49.06881,7.57628 -54.50973,-16.64199c-9.72143,-39.752 -9.84039,-39.3111 39.46375,-50.17957c0.91249,-0.20131 3.49615,-0.41839 3.49615,-0.41839l6.71822,6.52237l15.04867,-2.40703l3.49338,-7.34159c0,0 0.19744,-0.74942 1.88812,-0.91403c17.7253,-1.72586 19.55625,3.87545 26.47669,32.77422z" fill="#deb0b0" fill-rule="nonzero" stroke="none" stroke-width="0" stroke-linecap="butt"/><path d="M430.89598,284.7632c0,0 8.12263,22.23176 3.70417,25.21888c-19.69265,13.31315 -106.86439,6.37479 -100.28822,-7.46306c8.60843,-18.11289 23.43485,-23.78677 42.52391,-28.26662c0.48946,-0.11487 4.72064,0.2077 4.72064,0.2077l7.11192,6.20988l13.36345,-2.23903l5.85271,-8.93706c0,0 -0.04821,0.48884 1.59925,0.04894c10.58769,-2.82733 20.21986,8.67004 21.41254,15.22027z" fill="#ffc9c9" fill-rule="nonzero" stroke="none" stroke-width="0" stroke-linecap="butt"/><path d="M434.91578,299.5901c4.95961,20.50202 4.2324,26.52519 -7.57272,30.94872c-1.06568,0.31076 -3.35707,1.48159 -3.35707,1.48159l-3.16982,9.20417l-14.18221,3.26064l-6.27437,-6.39749c0,0 -3.53223,0.5198 -4.15171,0.65896c-51.66578,10.30664 -53.03876,7.16712 -58.47968,-17.05115c-1.49852,-6.12847 -2.77287,-11.31832 -3.67603,-15.75337c-0.73923,-3.63045 96.38593,-23.61744 97.06939,-21.2354c1.24114,4.32423 2.33038,8.77006 3.7945,14.88288z" fill="#ffc9c9" fill-rule="nonzero" stroke="none" stroke-width="0" stroke-linecap="butt"/><path d="M398.11861,285.50681c3.12374,-0.18775 5.95556,4.6427 6.32502,10.78967c0.36944,6.1466 -1.86338,11.28184 -4.98713,11.46959c-3.12374,0.18775 -5.95556,-4.6427 -6.32502,-10.78967c-0.36944,-6.1466 1.86338,-11.28184 4.98713,-11.46959z" fill="#692727" fill-rule="nonzero" stroke="none" stroke-width="0" stroke-linecap="butt"/><path d="M348.4219,304.97908c-0.25813,-6.15227 2.06727,-11.24626 5.19391,-11.37744c3.12664,-0.13118 5.87019,4.75012 6.12832,10.9024c0.25812,6.15228 -2.0669,11.24625 -5.19354,11.37743c-3.12664,0.13118 -5.87057,-4.75011 -6.1287,-10.90239z" fill="#692727" fill-rule="nonzero" stroke="none" stroke-width="0" stroke-linecap="butt"/><path d="M390.78944,311.30872c0,0 -3.77419,5.76723 -9.76901,7.1741c-5.99482,1.40687 -11.9406,-2.07926 -11.9406,-2.07926z" fill="#b53a3a" fill-rule="nonzero" stroke="none" stroke-width="0" stroke-linecap="butt"/><path d="M446.56798,299.28076c0.86985,-3.08277 13.12839,-3.40515 26.99713,0.50604c13.86827,3.91141 24.09569,10.57511 23.22606,13.65835c-0.86939,3.08374 -12.74502,-1.27632 -26.61376,-5.18751c-13.86874,-3.91119 -24.47895,-5.89281 -23.60933,-8.97605z" fill="#692727" fill-rule="nonzero" stroke="none" stroke-width="0" stroke-linecap="butt"/><path d="M245.62329,112.09246c-14.36041,1.18835 -26.27216,-1.47663 -26.53675,-4.66927c-0.26422,-3.19266 12.3863,-3.26284 26.74668,-4.45156c14.3604,-1.18834 24.99371,-3.04362 25.25795,0.14942c0.26422,3.19266 -11.10707,7.78344 -25.46786,8.9718z" data-paper-data="{&quot;index&quot;:null}" fill="#693a00" fill-rule="nonzero" stroke="none" stroke-width="0" stroke-linecap="butt"/><path d="M129.51862,160.49828c-6.42655,9.03706 -13.22798,15.23113 -15.19175,13.83463c-1.96377,-1.3965 1.65427,-9.85438 8.08082,-18.89144c6.42655,-9.03706 13.22798,-15.23113 15.19175,-13.83463c1.96377,1.3965 -1.65427,9.85438 -8.08082,18.89144z" fill="#693a00" fill-rule="nonzero" stroke="none" stroke-width="0" stroke-linecap="butt"/><path d="M166.86035,154.51683c-2.53358,10.79583 -6.48891,19.10133 -8.83487,18.55078c-2.34596,-0.55055 -2.19355,-9.74853 0.34003,-20.54436c2.53358,-10.79583 6.48891,-19.10133 8.83487,-18.55078c2.34596,0.55055 2.19355,9.74853 -0.34003,20.54436z" fill="#693a00" fill-rule="nonzero" stroke="none" stroke-width="0" stroke-linecap="butt"/><path d="M96.70117,87.27456c7.86064,-32.79237 15.54235,-45.73677 39.49538,-43.79532c0.94256,0.17259 2.98273,0.41223 2.98273,0.41223l3.42772,9.17565l18.9736,2.85255l7.50259,-6.24574c0,0 10.07845,1.70803 15.05005,2.80711c55.58937,11.40904 57.44858,13.00964 44.73521,64.89418c-12.74285,52.00517 -12.1062,51.7381 -78.74034,36.72366c-2.10711,-0.47467 -1.45807,-0.56423 -1.45807,-0.56423l-6.8059,5.00037l-17.18253,-4.00053l-2.88513,-9.39985c0,0 -1.07775,-1.005 -2.33552,-1.46662c-31.39048,-8.88142 -31.67964,-19.18047 -22.7597,-56.39381z" fill="#ffab19" fill-rule="nonzero" stroke="none" stroke-width="0" stroke-linecap="butt"/><path d="M122.19936,97.33621c6.92044,-28.89877 8.75139,-34.50008 26.47669,-32.77422c1.69068,0.16461 1.88812,0.91403 1.88812,0.91403l3.49338,7.34159l15.04867,2.40703l6.71822,-6.52237c0,0 2.58366,0.21708 3.49615,0.41839c49.30414,10.86847 49.18518,10.42757 39.46375,50.17957c-5.44092,24.21827 -5.8136,27.59254 -54.50973,16.64199c-48.01529,-10.79777 -48.56626,-11.77403 -42.07516,-38.60638z" fill="#e2d2a3" fill-rule="nonzero" stroke="none" stroke-width="0" stroke-linecap="butt"/><path d="M125.76641,84.76311c1.19268,-6.55023 10.82485,-18.0476 21.41254,-15.22027c1.64746,0.4399 1.59925,-0.04894 1.59925,-0.04894l5.85271,8.93706l13.36345,2.23903l7.11192,-6.20988c0,0 4.23118,-0.32257 4.72064,-0.2077c19.08906,4.47985 33.91548,10.15373 42.52391,28.26662c6.57617,13.83785 -80.59557,20.77621 -100.28822,7.46306c-4.41846,-2.98712 3.70417,-25.21888 3.70417,-25.21888z" fill="#ffedb8" fill-rule="nonzero" stroke="none" stroke-width="0" stroke-linecap="butt"/><path d="M121.74673,99.58966c1.46412,-6.11282 2.55336,-10.55865 3.7945,-14.88288c0.68346,-2.38204 97.80862,17.60495 97.06939,21.2354c-0.90316,4.43505 -2.17751,9.6249 -3.67603,15.75337c-5.44092,24.21827 -6.8139,27.35779 -58.47968,17.05115c-0.61948,-0.13916 -4.15171,-0.65896 -4.15171,-0.65896l-6.27437,6.39749l-14.18221,-3.26064l-3.16982,-9.20417c0,0 -2.29139,-1.17083 -3.35707,-1.48159c-11.80512,-4.42353 -12.53233,-10.4467 -7.57272,-30.94872z" fill="#ffedb8" fill-rule="nonzero" stroke="none" stroke-width="0" stroke-linecap="butt"/><path d="M163.53128,96.97641c-0.36946,6.14697 -3.20128,10.97742 -6.32502,10.78967c-3.12375,-0.18775 -5.35657,-5.32299 -4.98713,-11.46959c0.36946,-6.14697 3.20128,-10.97742 6.32502,-10.78967c3.12375,0.18775 5.35657,5.32299 4.98713,11.46959z" fill="#693a00" fill-rule="nonzero" stroke="none" stroke-width="0" stroke-linecap="butt"/><path d="M208.24089,104.97909c-0.25813,6.15228 -3.00206,11.03357 -6.1287,10.90239c-3.12664,-0.13118 -5.45166,-5.22515 -5.19354,-11.37743c0.25813,-6.15228 3.00168,-11.03358 6.12832,-10.9024c3.12664,0.13118 5.45204,5.22517 5.19391,11.37744z" fill="#693a00" fill-rule="nonzero" stroke="none" stroke-width="0" stroke-linecap="butt"/><path d="M187.58293,116.40357c0,0 -5.94578,3.48613 -11.9406,2.07926c-5.99482,-1.40687 -9.76901,-7.1741 -9.76901,-7.1741z" fill="#b46300" fill-rule="nonzero" stroke="none" stroke-width="0" stroke-linecap="butt"/><path d="M106.12706,97.66421c-1.27033,-2.9409 8.98396,-6.31033 22.2125,-12.02394c13.22854,-5.7136 24.42206,-11.60813 25.69223,-8.6667c1.27032,2.94091 -7.98442,10.90048 -21.21246,16.61423c-13.22854,5.7136 -25.42179,7.01764 -26.69227,4.07725z" data-paper-data="{&quot;index&quot;:null}" fill="#693a00" fill-rule="nonzero" stroke="none" stroke-width="0" stroke-linecap="butt"/><text transform="translate(-102,-10.33334) scale(0.5,0.5)" font-size="40" xml:space="preserve" fill="#ffffff" fill-rule="nonzero" stroke="none" stroke-width="1" stroke-linecap="butt" stroke-linejoin="miter" stroke-miterlimit="10" stroke-dasharray="" stroke-dashoffset="0" font-family="Sans Serif" font-weight="normal" text-anchor="start" style="mix-blend-mode: normal"><tspan x="0" dy="0"> </tspan></text><path d="M289.32915,64.15124c-0.04974,0.07113 -2.965,0.11168 -3.01428,0.18572c-13.11842,19.70921 -38.64746,26.39138 -36.83798,17.47165c1.27517,-6.28691 6.50597,-13.63256 5.34477,-16.98498l-5.56446,0.03547c-13.03431,0.08307 -23.66666,-10.39567 -23.74958,-23.40457c-0.00831,-1.30301 0.06149,-6.98072 0.2574,-8.22747c1.75999,-11.20118 11.43505,-19.80253 23.16386,-19.87729l202.93995,-0.41392c11.52845,-0.07348 21.1794,8.11692 23.31153,19.01289c0.27829,1.42213 0.45651,7.28907 0.46608,8.79104c0.08292,13.00893 -10.41617,23.62235 -23.4493,23.70542z" fill="#ffffff" fill-rule="evenodd" stroke="#46b4dc" stroke-width="3.7" stroke-linecap="butt"/><text transform="translate(250,45.91857) scale(0.5,0.5)" font-size="40" xml:space="preserve" fill="#575757" fill-rule="nonzero" stroke="none" stroke-width="1" stroke-linecap="butt" stroke-linejoin="miter" stroke-miterlimit="10" stroke-dasharray="" stroke-dashoffset="0" font-family="Sans Serif" font-weight="normal" text-anchor="start" style="mix-blend-mode: normal"><tspan x="0" dy="0">You are banned.</tspan></text></g></g></svg>