<svg version="1.1" xmlns="http://www.w3.org/2000/svg" xmlns:xlink="http://www.w3.org/1999/xlink" width="19.68383" height="19.68383" viewBox="0,0,19.68383,19.68383"><defs><linearGradient x1="239.95568" y1="176.15465" x2="239.95568" y2="180.72333" gradientUnits="userSpaceOnUse" id="color-1"><stop offset="0" stop-color="#ffbf66"/><stop offset="1" stop-color="#ffd080"/></linearGradient><linearGradient x1="239.95567" y1="176.15464" x2="239.95567" y2="180.72332" gradientUnits="userSpaceOnUse" id="color-2"><stop offset="0" stop-color="#ffbf66"/><stop offset="1" stop-color="#ffd080"/></linearGradient></defs><g transform="translate(-230.15808,-170.15808)"><g data-paper-data="{&quot;isPaintingLayer&quot;:true}" fill-rule="nonzero" stroke-linejoin="miter" stroke-miterlimit="10" stroke-dasharray="" stroke-dashoffset="0" style="mix-blend-mode: normal"><path d="M235.96085,184.03679v-6.5472l1.47665,-1.46592h6.53646v8.01312z" data-paper-data="{&quot;index&quot;:null}" fill="#ffbe4d" stroke="none" stroke-width="0" stroke-linecap="butt"/><g data-paper-data="{&quot;index&quot;:null}"><path d="" fill="none" stroke="none" stroke-width="0" stroke-linecap="butt"/><path d="" data-paper-data="{&quot;index&quot;:null}" fill="#ffbe4d" stroke="none" stroke-width="0" stroke-linecap="butt"/><path d="" fill="none" stroke="#ffe3b3" stroke-width="1.92" stroke-linecap="round"/><path d="" data-paper-data="{&quot;index&quot;:null}" fill="url(#color-1)" stroke="none" stroke-width="0" stroke-linecap="butt"/><path d="M230.15809,189.84192v-19.68383h19.68383v19.68383z" data-paper-data="{&quot;index&quot;:null}" fill="none" stroke="none" stroke-width="0" stroke-linecap="butt"/><path d="M243.96149,177.96743l-6.83183,0.0246c0,0 -0.17386,-0.01054 -0.22642,-0.01054c-0.53019,0 -0.96,-0.42981 -0.96,-0.96c0,-0.53019 0.4298,-0.96 0.96,-0.96c0.069,0 0.23341,-0.04341 0.23341,-0.04341l6.85562,0.00341z" data-paper-data="{&quot;index&quot;:null}" fill="#ffe3b3" stroke="none" stroke-width="0.5" stroke-linecap="butt"/><path d="M235.9491,180.06622c0,-0.53233 0,-3.1869 0,-3.1869l8.01312,0.07767v3.76633c0,0 -6.26056,0 -7.37694,0c-0.32784,0 -0.63618,-0.34638 -0.63618,-0.65709z" data-paper-data="{&quot;index&quot;:null}" fill="url(#color-2)" stroke="none" stroke-width="0" stroke-linecap="butt"/></g></g></g></svg>