<svg version="1.1" xmlns="http://www.w3.org/2000/svg" xmlns:xlink="http://www.w3.org/1999/xlink" width="258.67581" height="102.05734" viewBox="0,0,258.67581,102.05734"><g transform="translate(-204.65488,-124.71668)"><g data-paper-data="{&quot;isPaintingLayer&quot;:true}" fill-rule="nonzero" stroke-linecap="butt" stroke-linejoin="miter" stroke-miterlimit="10" stroke-dasharray="" stroke-dashoffset="0" style="mix-blend-mode: normal"><g fill="none" stroke="#28a5da" stroke-width="7.5"><path d="M410.29902,204.02502c0.85,3.81 0.01,6.71 -1.05,8.65c-2.71,5.17 -7.69,8.25 -13.39,8.25c-1.09,0 -2.23,-0.11 -3.46,-0.35h-4.47c-1.17,0 -3.37,-0.07 -8.85,-0.68c-3.25,-0.37 -6,-0.55 -8.16,-0.55h-5.44c-0.14,0.01 -0.63,0.04 -1.8,0.16c-1.83,0.19 -3.22,0.28 -4.39,0.28c-3.4,0 -6.44,-0.7 -9.03,-2.07c-0.17,-0.09 -0.33,-0.19 -0.5,-0.28c-1.74,-1.05 -5.79,-4.18 -5.79,-10.76c0,-3.55 1.32,-6.83 3.71,-9.24c1.16,-1.18 2.5,-2.14 3.97,-2.87c-3.31,-3.62 -4.31,-8.75 -2.52,-13.6c0.7,-1.85 1.73,-3.47 3.05,-4.84c-6,-2.02 -8.89,-7.09 -9.08,-11.99c-0.51,-3.77 0.96,-7.6 4.01,-10.05c3.02,-2.43 6.66,-3.85 10.52,-4.13c0.25,-0.01 0.51,-0.02 0.77,-0.02h3.07c6.61,-0.12 17.83,-1.75 33.34,-4.85c2,-0.45 4.07,-0.37 6.27,0.26c1.02,0.29 3.33,0.96 5.4,2.99c0.44,0.43 0.83,0.89 1.19,1.38c1.38,1.9 2.33,4.04 2.83,6.36c0.21,1.01 0.28,2.03 0.21,3.05c-0.12,1.89 -0.05,3.98 0.21,6.21c0.33,2.7 -0.36,5.43 -1.92,7.65c-2.39,3.38 -6.04,5.52 -10.24,6.04c0.01,0.18 0.02,0.37 0.02,0.55v0.85c3.09,0.29 5.93,1.6 8.1,3.76c3.57,3.59 3.6,8.03 3.44,10.32c0.18,1.2 0.24,1.98 0.24,2.75c0,0.93 -0.09,1.95 -0.29,3.33c-0.02,0.15 -0.04,0.27 -0.06,0.39v2.67c0.03,0.13 0.06,0.25 0.09,0.38z"/><path d="M438.91469,210.03802c-3.449,0 -8.526,-1.088 -13.128,-6.269c-0.076,-0.086 -0.151,-0.172 -0.227,-0.259c-1.404,0.801 -2.985,1.382 -4.707,1.702c-1.729,0.322 -4.271,0.779 -7.614,1.365c-3.42,0.665 -5.96,0.975 -7.984,0.975c-6.808,0 -10.652,-2.98 -12.679,-5.48c-1.374,-1.694 -2.213,-3.76 -2.41,-5.932c-0.563,-6.204 2.626,-11.558 8.035,-14.086c-0.079,-1.149 -0.169,-2.451 -0.272,-3.923c-1.735,-1.627 -3.014,-3.71 -3.694,-6.104c-0.278,-0.978 -0.419,-1.99 -0.419,-3.007v-0.265c0,-1.246 0.211,-2.461 0.605,-3.601c0.287,-1.123 0.75,-2.197 1.376,-3.181c0.325,-0.511 0.673,-0.995 1.042,-1.453c-0.008,-0.088 -0.016,-0.177 -0.022,-0.265c-1.784,-0.669 -3.623,-1.739 -5.209,-3.452c-2.405,-2.6 -3.578,-5.997 -3.301,-9.568c0.661,-7.95 7.168,-11.688 12.729,-12.55c2.388,-0.458 6.752,-1.11 13.314,-1.989c1.029,-0.137 2.045,-0.129 3.026,0.012c0.621,0.028 1.998,0.08 4.969,0.158c0.195,0.005 0.391,0.016 0.585,0.031c7.113,0.566 12.132,1.9 15.793,4.199c0.068,0.042 0.135,0.085 0.202,0.129c4.316,2.843 7.401,6.877 8.921,11.667c0.011,0.036 0.022,0.071 0.033,0.107c0.64,2.091 0.844,4.411 0.64,7.289c-0.15,3.249 -0.861,5.917 -2.17,8.135c-0.759,1.344 -1.673,2.609 -2.747,3.801c0.916,2.609 1.583,5.57 2.017,8.929c0.41,-0.031 0.824,-0.047 1.242,-0.047c5.88,0 10.873,3.57 12.72,9.096c0.073,0.221 0.14,0.442 0.199,0.667c1.51,5.689 -1.337,10.658 -2.272,12.291c-1.895,3.312 -4.082,5.77 -6.682,7.506c-2.695,1.8 -6.08,2.878 -10.346,3.296c-0.569,0.054 -1.07,0.076 -1.565,0.076z"/><path d="M312.66202,178.68402v4.84c0,2.87 -0.5,6.95 -1.57,12.84c-0.44,2.74 -1.28,5.56 -2.49,8.39c-0.02,0.04 -0.04,0.07 -0.05,0.11c-2.15,4.85 -5.69,9.08 -10.53,12.57c-5.16,3.71 -10.5,5.59 -15.89,5.59c-2.18,0 -4.26,-0.34 -6.21,-1c-6.91,-2.23 -12.37,-6.47 -16.22,-12.6c-0.83,-1.35 -1.65,-3.02 -2.67,-5.46c-0.02,-0.06 -0.04,-0.11 -0.07,-0.17c-1.26,-3.16 -1.93,-5.69 -2.11,-7.97c-0.03,-0.39 -0.14,-1.33 -0.5,-3.17c-0.13,-0.69 -0.2,-1.39 -0.2,-2.09v-4.28c-0.44,-1.69 -0.48,-3.5 -0.05,-5.29c0.16,-0.69 0.39,-1.36 0.67,-1.98c0,-1.22 0.21,-2.44 0.61,-3.6c0.11,-0.5 0.26,-0.99 0.44,-1.48c0.01,-0.01 0.19,-0.52 0.44,-1.93c0.3,-1.73 0.86,-3.96 1.7,-6.77c0.01,-0.03 0.02,-0.07 0.03,-0.1c1.63,-5.24 4.92,-10.21 10.06,-15.19c0.04,-0.04 0.07,-0.07 0.11,-0.1c2.6,-2.46 5.6,-4.02 8.92,-4.66c0.6,-0.11 1.21,-0.17 1.83,-0.19c0.38,-0.01 1.39,-0.07 3.04,-0.16c0.06,0 0.12,-0.01 0.18,-0.01c4.87,-0.2 9.48,0.84 13.75,3.07c4.93,2.52 8.83,6.31 11.6,11.27c1.31,2.35 2.43,5.2 3.43,8.74c1.17,4.01 1.75,7.54 1.75,10.78z"/><path d="M278.39488,153.77373c-0.04,0.17 -0.07,0.34 -0.12,0.51c-0.15,0.63 -0.46,2.12 -0.77,5.03c0,0.05 0,0.09 -0.01,0.12c1.71,6.88 -1.17,11.07 -3.08,12.98c-0.12,0.13 -0.25,0.25 -0.39,0.37c-1.87,1.7 -5.14,3.73 -10.02,3.73c-2.43,0 -4.7,-0.54 -6.68,-1.53c0.05,2.73 0.08,6.49 0.08,11.71c1.8,0.63 3.45,1.65 4.85,2.99c2.78,2.67 4.3,6.24 4.3,10.05c0,5.66 -3.26,10.58 -8.51,12.83c-0.13,0.06 -0.27,0.12 -0.4,0.17c-1.76,0.67 -3.74,1 -6.06,1c-0.84,0 -1.74,-0.04 -2.72,-0.13c-0.6,-0.03 -1.48,-0.02 -2.52,0.01c-1.89,0.21 -4.55,0.42 -8.11,0.62c-0.07,0 -0.14,0.01 -0.22,0.01c-0.47,0.02 -0.92,0.03 -1.36,0.03c-6.37,0 -11.02,-2.02 -13.83,-5.99c-0.06,-0.08 -0.11,-0.16 -0.16,-0.24c-2.86,-4.27 -2.94,-9.67 -0.22,-14.08c0.02,-0.05 0.05,-0.09 0.08,-0.14c1.73,-2.72 4.26,-4.66 7.54,-5.8c0.04,-1.93 0.03,-4.35 -0.03,-7.22c-1.63,0.68 -3.51,1.08 -5.62,1.08c-5.57,0 -10.17,-3.31 -11.77,-8.34c-0.33,-1.02 -0.64,-2.51 -1.36,-5.87c-0.03,-0.12 -0.05,-0.24 -0.07,-0.36l-1.48,-8.27c-0.05,-0.18 -0.12,-0.39 -0.2,-0.63c-0.77,-2.19 -1.13,-4.05 -1.13,-5.85c0,-2.23 0.65,-5.6 3.73,-8.96c1.55,-1.7 4.37,-3.9 8.91,-4.61c0.56,-0.09 1.13,-0.14 1.7,-0.14h11.06c0.25,0 0.5,0.01 0.75,0.03c4.22,0.15 8,0.14 11.24,-0.01c4.53,-0.2 9.05,-0.59 13.48,-1.16c0.5,-0.16 1.04,-0.32 1.62,-0.46c0.55,-0.14 1.11,-0.23 1.67,-0.29c4.26,-0.39 8.23,0.84 11.32,3.48c3.83,3.29 5.52,8.27 4.51,13.33z"/><path d="M372.00335,143.77668c0,6.5 -3.87,11.71 -9.88,13.28c-0.19,0.05 -0.39,0.1 -0.58,0.15c-0.2,1.6 -0.45,3.34 -0.74,5.24l-1.47,10.4c-0.51,4.08 -1.83,11.91 -4.04,23.94c-0.01,0.04 -0.02,0.07 -0.02,0.11c-0.57,2.93 -0.85,4.03 -1.28,5.13c-0.02,0.05 -0.04,0.09 -0.06,0.13c-1.46,3.55 -4.14,6.33 -7.74,8.04c-1.48,0.69 -3.09,1.05 -4.71,1.05c-0.31,0 -0.61,-0.01 -0.92,-0.03c-0.72,-0.06 -1.42,-0.13 -2.09,-0.19c-0.13,-0.01 -0.26,-0.02 -0.39,-0.04c-4.32,-0.54 -7.02,-2.49 -8.58,-4.17c-0.44,-0.47 -0.85,-0.96 -1.23,-1.49c-0.89,0.79 -1.78,1.38 -2.6,1.83c-0.95,0.53 -1.98,0.91 -3.05,1.13c-1.15,0.24 -2.81,0.58 -4.99,1c-1.99,0.39 -4.06,0.22 -5.96,-0.49c-1.97,-0.74 -3.8,-1.97 -5.59,-3.76c-1.26,-1.26 -2.2,-2.81 -2.73,-4.52c-1.89,-6.1 -4.33,-15.06 -7.46,-27.38c-0.02,-0.11 -0.05,-0.21 -0.07,-0.32c-0.33,-1.47 -0.84,-3.65 -1.53,-6.52c-0.47,-1.45 -1.06,-3.29 -1.76,-5.53c-3.61,-0.88 -6.1,-2.76 -7.7,-4.42c-1.52,-1.57 -3.33,-4.25 -3.66,-8.33c-0.03,-0.29 -0.04,-0.59 -0.04,-0.89c0,-3.37 1.1,-6.44 3.17,-8.9c2.16,-2.62 4.51,-4.28 7.19,-5.07c2.16,-0.69 4.66,-1.08 7.61,-1.16c1.53,-0.04 3.06,-0.03 4.55,-0.07c1.33,-0.17 3.09,-0.39 5.3,-0.65c0.31,-0.04 0.63,-0.06 0.95,-0.07c0.42,-0.02 0.83,-0.02 1.21,-0.02c2.64,0 4.76,0.29 6.66,0.93c0.06,0.01 0.11,0.03 0.17,0.05c0.97,0.34 1.88,0.78 2.72,1.29c0.9,-0.34 1.84,-0.6 2.83,-0.78c0.37,-0.06 0.74,-0.11 1.12,-0.13c1.77,-0.13 3.54,0.03 5.27,0.46c2.69,-2.9 6.53,-4.54 10.89,-4.54c1.21,0 2.61,0.16 4.69,0.52c0.1,0.01 0.2,0.03 0.29,0.05c0.01,0 0.01,0 0.01,0c1.32,-0.09 2.81,-0.03 5.06,0.17c1.6,0.12 3.22,0.23 4.86,0.34c3.12,0.19 5.79,0.73 8.08,1.64c0.2,0.08 0.39,0.16 0.58,0.25c4.8,2.24 7.66,6.86 7.66,12.34z"/></g><g fill="#ffffff" stroke="none" stroke-width="0"><path d="M410.29902,204.02502c0.85,3.81 0.01,6.71 -1.05,8.65c-2.71,5.17 -7.69,8.25 -13.39,8.25c-1.09,0 -2.23,-0.11 -3.46,-0.35h-4.47c-1.17,0 -3.37,-0.07 -8.85,-0.68c-3.25,-0.37 -6,-0.55 -8.16,-0.55h-5.44c-0.14,0.01 -0.63,0.04 -1.8,0.16c-1.83,0.19 -3.22,0.28 -4.39,0.28c-3.4,0 -6.44,-0.7 -9.03,-2.07c-0.17,-0.09 -0.33,-0.19 -0.5,-0.28c-1.74,-1.05 -5.79,-4.18 -5.79,-10.76c0,-3.55 1.32,-6.83 3.71,-9.24c1.16,-1.18 2.5,-2.14 3.97,-2.87c-3.31,-3.62 -4.31,-8.75 -2.52,-13.6c0.7,-1.85 1.73,-3.47 3.05,-4.84c-6,-2.02 -8.89,-7.09 -9.08,-11.99c-0.51,-3.77 0.96,-7.6 4.01,-10.05c3.02,-2.43 6.66,-3.85 10.52,-4.13c0.25,-0.01 0.51,-0.02 0.77,-0.02h3.07c6.61,-0.12 17.83,-1.75 33.34,-4.85c2,-0.45 4.07,-0.37 6.27,0.26c1.02,0.29 3.33,0.96 5.4,2.99c0.44,0.43 0.83,0.89 1.19,1.38c1.38,1.9 2.33,4.04 2.83,6.36c0.21,1.01 0.28,2.03 0.21,3.05c-0.12,1.89 -0.05,3.98 0.21,6.21c0.33,2.7 -0.36,5.43 -1.92,7.65c-2.39,3.38 -6.04,5.52 -10.24,6.04c0.01,0.18 0.02,0.37 0.02,0.55v0.85c3.09,0.29 5.93,1.6 8.1,3.76c3.57,3.59 3.6,8.03 3.44,10.32c0.18,1.2 0.24,1.98 0.24,2.75c0,0.93 -0.09,1.95 -0.29,3.33c-0.02,0.15 -0.04,0.27 -0.06,0.39v2.67c0.03,0.13 0.06,0.25 0.09,0.38z"/><path d="M438.91469,210.03802c-3.449,0 -8.526,-1.088 -13.128,-6.269c-0.076,-0.086 -0.151,-0.172 -0.227,-0.259c-1.404,0.801 -2.985,1.382 -4.707,1.702c-1.729,0.322 -4.271,0.779 -7.614,1.365c-3.42,0.665 -5.96,0.975 -7.984,0.975c-6.808,0 -10.652,-2.98 -12.679,-5.48c-1.374,-1.694 -2.213,-3.76 -2.41,-5.932c-0.563,-6.204 2.626,-11.558 8.035,-14.086c-0.079,-1.149 -0.169,-2.451 -0.272,-3.923c-1.735,-1.627 -3.014,-3.71 -3.694,-6.104c-0.278,-0.978 -0.419,-1.99 -0.419,-3.007v-0.265c0,-1.246 0.211,-2.461 0.605,-3.601c0.287,-1.123 0.75,-2.197 1.376,-3.181c0.325,-0.511 0.673,-0.995 1.042,-1.453c-0.008,-0.088 -0.016,-0.177 -0.022,-0.265c-1.784,-0.669 -3.623,-1.739 -5.209,-3.452c-2.405,-2.6 -3.578,-5.997 -3.301,-9.568c0.661,-7.95 7.168,-11.688 12.729,-12.55c2.388,-0.458 6.752,-1.11 13.314,-1.989c1.029,-0.137 2.045,-0.129 3.026,0.012c0.621,0.028 1.998,0.08 4.969,0.158c0.195,0.005 0.391,0.016 0.585,0.031c7.113,0.566 12.132,1.9 15.793,4.199c0.068,0.042 0.135,0.085 0.202,0.129c4.316,2.843 7.401,6.877 8.921,11.667c0.011,0.036 0.022,0.071 0.033,0.107c0.64,2.091 0.844,4.411 0.64,7.289c-0.15,3.249 -0.861,5.917 -2.17,8.135c-0.759,1.344 -1.673,2.609 -2.747,3.801c0.916,2.609 1.583,5.57 2.017,8.929c0.41,-0.031 0.824,-0.047 1.242,-0.047c5.88,0 10.873,3.57 12.72,9.096c0.073,0.221 0.14,0.442 0.199,0.667c1.51,5.689 -1.337,10.658 -2.272,12.291c-1.895,3.312 -4.082,5.77 -6.682,7.506c-2.695,1.8 -6.08,2.878 -10.346,3.296c-0.569,0.054 -1.07,0.076 -1.565,0.076z"/><path d="M312.66202,178.68402v4.84c0,2.87 -0.5,6.95 -1.57,12.84c-0.44,2.74 -1.28,5.56 -2.49,8.39c-0.02,0.04 -0.04,0.07 -0.05,0.11c-2.15,4.85 -5.69,9.08 -10.53,12.57c-5.16,3.71 -10.5,5.59 -15.89,5.59c-2.18,0 -4.26,-0.34 -6.21,-1c-6.91,-2.23 -12.37,-6.47 -16.22,-12.6c-0.83,-1.35 -1.65,-3.02 -2.67,-5.46c-0.02,-0.06 -0.04,-0.11 -0.07,-0.17c-1.26,-3.16 -1.93,-5.69 -2.11,-7.97c-0.03,-0.39 -0.14,-1.33 -0.5,-3.17c-0.13,-0.69 -0.2,-1.39 -0.2,-2.09v-4.28c-0.44,-1.69 -0.48,-3.5 -0.05,-5.29c0.16,-0.69 0.39,-1.36 0.67,-1.98c0,-1.22 0.21,-2.44 0.61,-3.6c0.11,-0.5 0.26,-0.99 0.44,-1.48c0.01,-0.01 0.19,-0.52 0.44,-1.93c0.3,-1.73 0.86,-3.96 1.7,-6.77c0.01,-0.03 0.02,-0.07 0.03,-0.1c1.63,-5.24 4.92,-10.21 10.06,-15.19c0.04,-0.04 0.07,-0.07 0.11,-0.1c2.6,-2.46 5.6,-4.02 8.92,-4.66c0.6,-0.11 1.21,-0.17 1.83,-0.19c0.38,-0.01 1.39,-0.07 3.04,-0.16c0.06,0 0.12,-0.01 0.18,-0.01c4.87,-0.2 9.48,0.84 13.75,3.07c4.93,2.52 8.83,6.31 11.6,11.27c1.31,2.35 2.43,5.2 3.43,8.74c1.17,4.01 1.75,7.54 1.75,10.78z"/><path d="M278.39488,153.77373c-0.04,0.17 -0.07,0.34 -0.12,0.51c-0.15,0.63 -0.46,2.12 -0.77,5.03c0,0.05 0,0.09 -0.01,0.12c1.71,6.88 -1.17,11.07 -3.08,12.98c-0.12,0.13 -0.25,0.25 -0.39,0.37c-1.87,1.7 -5.14,3.73 -10.02,3.73c-2.43,0 -4.7,-0.54 -6.68,-1.53c0.05,2.73 0.08,6.49 0.08,11.71c1.8,0.63 3.45,1.65 4.85,2.99c2.78,2.67 4.3,6.24 4.3,10.05c0,5.66 -3.26,10.58 -8.51,12.83c-0.13,0.06 -0.27,0.12 -0.4,0.17c-1.76,0.67 -3.74,1 -6.06,1c-0.84,0 -1.74,-0.04 -2.72,-0.13c-0.6,-0.03 -1.48,-0.02 -2.52,0.01c-1.89,0.21 -4.55,0.42 -8.11,0.62c-0.07,0 -0.14,0.01 -0.22,0.01c-0.47,0.02 -0.92,0.03 -1.36,0.03c-6.37,0 -11.02,-2.02 -13.83,-5.99c-0.06,-0.08 -0.11,-0.16 -0.16,-0.24c-2.86,-4.27 -2.94,-9.67 -0.22,-14.08c0.02,-0.05 0.05,-0.09 0.08,-0.14c1.73,-2.72 4.26,-4.66 7.54,-5.8c0.04,-1.93 0.03,-4.35 -0.03,-7.22c-1.63,0.68 -3.51,1.08 -5.62,1.08c-5.57,0 -10.17,-3.31 -11.77,-8.34c-0.33,-1.02 -0.64,-2.51 -1.36,-5.87c-0.03,-0.12 -0.05,-0.24 -0.07,-0.36l-1.48,-8.27c-0.05,-0.18 -0.12,-0.39 -0.2,-0.63c-0.77,-2.19 -1.13,-4.05 -1.13,-5.85c0,-2.23 0.65,-5.6 3.73,-8.96c1.55,-1.7 4.37,-3.9 8.91,-4.61c0.56,-0.09 1.13,-0.14 1.7,-0.14h11.06c0.25,0 0.5,0.01 0.75,0.03c4.22,0.15 8,0.14 11.24,-0.01c4.53,-0.2 9.05,-0.59 13.48,-1.16c0.5,-0.16 1.04,-0.32 1.62,-0.46c0.55,-0.14 1.11,-0.23 1.67,-0.29c4.26,-0.39 8.23,0.84 11.32,3.48c3.83,3.29 5.52,8.27 4.51,13.33z"/><path d="M372.00335,143.77668c0,6.5 -3.87,11.71 -9.88,13.28c-0.19,0.05 -0.39,0.1 -0.58,0.15c-0.2,1.6 -0.45,3.34 -0.74,5.24l-1.47,10.4c-0.51,4.08 -1.83,11.91 -4.04,23.94c-0.01,0.04 -0.02,0.07 -0.02,0.11c-0.57,2.93 -0.85,4.03 -1.28,5.13c-0.02,0.05 -0.04,0.09 -0.06,0.13c-1.46,3.55 -4.14,6.33 -7.74,8.04c-1.48,0.69 -3.09,1.05 -4.71,1.05c-0.31,0 -0.61,-0.01 -0.92,-0.03c-0.72,-0.06 -1.42,-0.13 -2.09,-0.19c-0.13,-0.01 -0.26,-0.02 -0.39,-0.04c-4.32,-0.54 -7.02,-2.49 -8.58,-4.17c-0.44,-0.47 -0.85,-0.96 -1.23,-1.49c-0.89,0.79 -1.78,1.38 -2.6,1.83c-0.95,0.53 -1.98,0.91 -3.05,1.13c-1.15,0.24 -2.81,0.58 -4.99,1c-1.99,0.39 -4.06,0.22 -5.96,-0.49c-1.97,-0.74 -3.8,-1.97 -5.59,-3.76c-1.26,-1.26 -2.2,-2.81 -2.73,-4.52c-1.89,-6.1 -4.33,-15.06 -7.46,-27.38c-0.02,-0.11 -0.05,-0.21 -0.07,-0.32c-0.33,-1.47 -0.84,-3.65 -1.53,-6.52c-0.47,-1.45 -1.06,-3.29 -1.76,-5.53c-3.61,-0.88 -6.1,-2.76 -7.7,-4.42c-1.52,-1.57 -3.33,-4.25 -3.66,-8.33c-0.03,-0.29 -0.04,-0.59 -0.04,-0.89c0,-3.37 1.1,-6.44 3.17,-8.9c2.16,-2.62 4.51,-4.28 7.19,-5.07c2.16,-0.69 4.66,-1.08 7.61,-1.16c1.53,-0.04 3.06,-0.03 4.55,-0.07c1.33,-0.17 3.09,-0.39 5.3,-0.65c0.31,-0.04 0.63,-0.06 0.95,-0.07c0.42,-0.02 0.83,-0.02 1.21,-0.02c2.64,0 4.76,0.29 6.66,0.93c0.06,0.01 0.11,0.03 0.17,0.05c0.97,0.34 1.88,0.78 2.72,1.29c0.9,-0.34 1.84,-0.6 2.83,-0.78c0.37,-0.06 0.74,-0.11 1.12,-0.13c1.77,-0.13 3.54,0.03 5.27,0.46c2.69,-2.9 6.53,-4.54 10.89,-4.54c1.21,0 2.61,0.16 4.69,0.52c0.1,0.01 0.2,0.03 0.29,0.05c0.01,0 0.01,0 0.01,0c1.32,-0.09 2.81,-0.03 5.06,0.17c1.6,0.12 3.22,0.23 4.86,0.34c3.12,0.19 5.79,0.73 8.08,1.64c0.2,0.08 0.39,0.16 0.58,0.25c4.8,2.24 7.66,6.86 7.66,12.34z"/></g><g fill="#f9a737" stroke="none" stroke-width="1"><path d="M301.659,183.52502c0,2.17 -0.471,5.836 -1.408,10.995c-0.293,1.877 -0.879,3.842 -1.76,5.894c-1.35,3.05 -3.65,5.748 -6.904,8.093c-3.255,2.345 -6.407,3.518 -9.456,3.518c-0.997,0 -1.906,-0.146 -2.727,-0.439c-4.457,-1.407 -7.916,-4.075 -10.379,-8.005c-0.471,-0.761 -1.086,-2.052 -1.848,-3.87c-0.821,-2.052 -1.275,-3.635 -1.363,-4.75c-0.088,-1.113 -0.308,-2.579 -0.66,-4.397v-6.51c0.234,-0.116 0.117,-0.292 -0.352,-0.527h0.528c0,-0.293 0.116,-0.85 0.352,-1.671c0.233,-0.821 0.352,-1.437 0.352,-1.848c0,-0.352 -0.088,-0.674 -0.264,-0.968c0.233,0 0.439,-0.088 0.615,-0.264c-0.059,-0.117 -0.206,-0.176 -0.439,-0.176c0.058,-0.058 0.161,-0.146 0.308,-0.264c0.146,-0.117 0.249,-0.205 0.309,-0.264c-0.06,-0.059 -0.132,-0.103 -0.221,-0.133c-0.088,-0.028 -0.162,-0.072 -0.22,-0.132c0.353,-0.938 0.674,-2.228 0.968,-3.87c0.233,-1.348 0.704,-3.195 1.407,-5.541c1.056,-3.4 3.46,-6.919 7.213,-10.556c1.056,-0.996 2.199,-1.612 3.431,-1.847c0.176,0 1.319,-0.059 3.431,-0.177c2.932,-0.116 5.687,0.499 8.268,1.848c2.992,1.525 5.336,3.812 7.037,6.861c0.881,1.583 1.701,3.724 2.463,6.421c0.881,2.99 1.32,5.571 1.32,7.74v4.839zM295.854,173.76202c-0.35,-0.82 -0.76,-1.876 -1.227,-3.167c-0.586,-2.639 -2.325,-5.071 -5.217,-7.301c-2.893,-2.228 -5.566,-3.224 -8.021,-2.99c-1.11,0.118 -2.981,1.966 -5.612,5.542c-1.286,1.701 -2.571,5.102 -3.856,10.203c-1.169,4.75 -1.725,8.415 -1.665,10.995c0.116,3.284 0.292,5.571 0.526,6.86c0.408,2.405 1.285,4.604 2.629,6.598c1.286,1.759 2.28,2.902 2.981,3.431c2.629,1.877 5.112,2.814 7.451,2.814c0.525,0 1.022,-0.058 1.49,-0.176c1.11,-0.176 2.424,-0.908 3.944,-2.199c1.286,-1.173 2.25,-2.257 2.894,-3.255c0.876,-1.465 1.695,-3.664 2.455,-6.597c1.168,-4.28 1.754,-8.825 1.754,-13.634c0.002,-2.579 -0.174,-4.954 -0.526,-7.124z"/><path d="M267.60688,151.61773c-0.41,1.643 -0.762,3.87 -1.055,6.685c-0.119,1.408 -0.061,2.551 0.176,3.431c0.408,1.467 0.381,2.435 -0.088,2.903c-0.646,0.586 -1.525,0.879 -2.639,0.879c-1.291,0 -2.143,-0.383 -2.551,-1.151c-0.061,-2.362 -0.031,-4.578 0.088,-6.646c0.115,-2.54 0.176,-3.869 0.176,-3.987c-0.061,0 -0.148,-0.059 -0.264,-0.178c-5.455,0.237 -10.586,0.589 -15.394,1.059c-0.118,0.589 -0.118,1.528 0,2.82c0.233,1.822 0.352,2.88 0.352,3.172c-0.234,1.822 -0.352,4.524 -0.352,8.109c0.233,1.528 0.352,8.08 0.352,19.655v6.435c0,0.999 0.145,1.704 0.436,2.115h5.401c0.987,-0.117 1.785,0.118 2.396,0.704c0.609,0.587 0.914,1.29 0.914,2.11c0,1.289 -0.615,2.199 -1.847,2.728c-0.763,0.292 -2.111,0.352 -4.046,0.176c-0.938,-0.06 -2.317,-0.06 -4.135,0c-1.642,0.204 -4.28,0.409 -7.916,0.615c-3.167,0.117 -5.102,-0.323 -5.806,-1.319c-0.47,-0.703 -0.47,-1.437 0,-2.199c0.82,-1.289 2.961,-1.935 6.422,-1.935c1.231,0 1.992,-0.102 2.286,-0.307c0.293,-0.205 0.44,-0.601 0.44,-1.187c0,-0.526 0,-1.023 0,-1.492c0,-0.877 0,-2.165 0,-3.862c0.176,-2.983 0.176,-7.432 0,-13.343c-0.235,-8.485 -0.118,-15.945 0.352,-22.383c-0.059,-0.058 -0.147,-0.146 -0.266,-0.264c-2.123,0.118 -5.543,0.059 -10.26,-0.177c-0.531,0 -2.331,0.119 -5.396,0.353c0.762,5.337 1.231,9.354 1.407,12.051c0,0.352 -0.059,1.144 -0.176,2.375c-0.059,0.879 -0.792,1.319 -2.199,1.319c-0.763,0 -1.202,-0.262 -1.319,-0.785c-0.059,-0.115 -0.411,-1.687 -1.056,-4.711c-0.352,-1.977 -0.851,-4.769 -1.495,-8.375c0,-0.23 -0.206,-0.957 -0.615,-2.18c-0.35,-0.989 -0.525,-1.745 -0.525,-2.268c0,-0.406 0.277,-0.917 0.836,-1.526c0.557,-0.61 1.393,-1.004 2.507,-1.179c0.176,0 0.453,0 0.836,0c0.38,0 0.688,0 0.923,0c6.979,0 10.028,0 9.148,0c4.75,0.177 8.972,0.177 12.666,0c5.277,-0.233 10.495,-0.703 15.657,-1.407c0.352,-0.176 0.879,-0.352 1.582,-0.527c1.291,-0.117 2.346,0.176 3.168,0.88c0.82,0.702 1.113,1.641 0.879,2.814z"/><path d="M359.68735,141.40469c0.88,0.411 1.319,1.203 1.319,2.375c0,1.467 -0.558,2.347 -1.671,2.639c-1.115,0.294 -2.111,0.411 -2.991,0.353c-0.118,0 -0.879,-0.205 -2.287,-0.616c-1.114,-0.293 -2.053,-0.409 -2.814,-0.352c-0.059,0.059 -0.088,1.643 -0.088,4.75c-0.176,2.639 -0.587,6.069 -1.231,10.291c-0.88,6.217 -1.379,9.734 -1.495,10.556c-0.47,3.812 -1.79,11.61 -3.958,23.397c-0.353,1.816 -0.587,2.872 -0.704,3.167c-0.411,0.996 -1.174,1.759 -2.287,2.286c-0.703,-0.059 -1.378,-0.118 -2.022,-0.176c-0.939,-0.118 -1.584,-0.382 -1.936,-0.791c-0.646,-0.646 -1.114,-1.73 -1.407,-3.255c-0.587,-2.404 -0.88,-3.636 -0.88,-3.694c-0.47,-1.466 -1.642,-5.718 -3.519,-12.755c-0.997,-3.87 -2.521,-9.764 -4.573,-17.68c-0.411,2.111 -0.822,4.809 -1.231,8.092c-0.471,4.574 -0.998,8.797 -1.584,12.667c-0.294,2.521 -0.791,6.04 -1.495,10.556c-0.47,2.229 -1.29,3.664 -2.463,4.31c-1.114,0.233 -2.727,0.557 -4.838,0.968c-0.47,-0.176 -1.026,-0.587 -1.671,-1.231c-1.818,-5.863 -4.252,-14.807 -7.301,-26.828c-0.352,-1.583 -0.91,-3.958 -1.671,-7.125c-0.763,-2.345 -1.878,-5.863 -3.343,-10.556c-0.118,-0.703 -0.47,-1.671 -1.056,-2.902c-1.759,0.294 -2.933,0.439 -3.519,0.439c-1.818,0 -3.226,-0.527 -4.222,-1.583c-0.353,-0.352 -0.559,-0.88 -0.616,-1.583c0,-0.762 0.205,-1.377 0.616,-1.848c0.761,-0.937 1.407,-1.465 1.935,-1.583c1.173,-0.409 2.756,-0.645 4.75,-0.704c1.7,0 3.4,-0.028 5.102,-0.088c1.349,-0.176 3.255,-0.409 5.718,-0.703c1.817,-0.058 3.167,0.059 4.046,0.352c1.173,0.411 1.76,1.262 1.76,2.551c0,0.587 -0.118,1.027 -0.353,1.319c-0.703,0.763 -1.701,1.231 -2.99,1.407c-1.056,0.118 -2.142,0.207 -3.255,0.265c-0.352,0.059 -0.879,0.176 -1.583,0.352c-0.47,0.294 -0.675,0.938 -0.615,1.935c0.058,0.998 0.585,2.903 1.583,5.718c0.469,1.35 1.788,6.832 3.958,16.449c0.938,3.226 2.345,8.18 4.223,14.865c-0.06,0 0.028,0.118 0.264,0.352c0.82,-3.107 1.583,-7.271 2.287,-12.49c0.469,-3.576 0.937,-7.154 1.407,-10.731c0.116,-1.113 0.293,-2.756 0.527,-4.926c0.233,-1.289 0.528,-3.312 0.88,-6.069c0,-1.816 0.205,-4.515 0.615,-8.093c0.234,-1.055 1.025,-1.699 2.375,-1.935c0.821,-0.058 1.642,0.059 2.463,0.352c1.056,0.411 1.584,0.998 1.584,1.76c0,2.17 0.352,4.691 1.055,7.564c0.586,1.701 1.29,4.105 2.111,7.213c0.176,0.938 2.375,9.529 6.597,25.772c0.117,0.352 0.293,0.675 0.528,0.967c0.82,-3.048 1.407,-5.658 1.759,-7.828c1.056,-6.215 2.433,-15.861 4.135,-28.939c0.058,-0.116 0.028,-1.699 -0.089,-4.749c-0.118,-0.177 -0.264,-0.293 -0.439,-0.353c-1.583,-0.352 -3.196,-0.703 -4.838,-1.056c-2.111,-0.468 -3.166,-1.143 -3.166,-2.022c0,-0.233 0.088,-0.498 0.264,-0.792c0.585,-1.289 1.729,-1.935 3.431,-1.935c0.527,0 1.465,0.118 2.814,0.352c1.172,0.235 2.052,0.308 2.639,0.22c0.586,-0.088 1.817,-0.044 3.694,0.132c1.641,0.118 3.312,0.235 5.014,0.352c1.991,0.115 3.574,0.407 4.748,0.876z"/><path d="M400.00202,166.64902c-0.703,0.998 -1.789,1.496 -3.254,1.496c-0.763,0 -1.438,-0.146 -2.023,-0.44c-0.059,-1.583 -0.206,-3.928 -0.439,-7.037c-4.985,0.939 -12.931,2.317 -23.837,4.135c-0.528,0.059 -0.968,0.206 -1.32,0.439c0.293,5.396 0.44,10.674 0.44,15.833c0.594,0.118 2.467,-0.146 5.618,-0.792c1.546,-0.233 3.926,-0.791 7.136,-1.671c0.058,-0.938 -0.059,-2.507 -0.352,-4.706c-0.294,-2.199 -0.411,-3.826 -0.352,-4.882c0,-1.113 0.761,-1.671 2.287,-1.671c1.759,0 2.696,0.733 2.814,2.199c0.233,2.229 0.585,5.571 1.056,10.027v13.634c0.176,0.235 0.292,0.411 0.352,0.527c-0.176,0.704 -0.675,1.306 -1.495,1.804c-0.822,0.499 -1.643,0.747 -2.463,0.747c-1.056,0 -1.76,-0.468 -2.111,-1.407c0.117,-0.585 0.205,-1.495 0.264,-2.727v-8.092c-3.721,0.118 -7.913,0.879 -12.578,2.286c0,1.056 -0.03,3.754 -0.088,8.093c-0.06,3.577 -0.06,6.012 0,7.301c0,0.294 0.233,0.822 0.704,1.583c1.231,0.06 3.136,0.176 5.717,0.353c2.991,0.294 5.981,0.586 8.972,0.879c3.576,0.411 6.567,0.559 8.973,0.44c0.058,-0.762 0.204,-1.965 0.439,-3.606v-5.19c-0.352,-0.585 -0.528,-1.144 -0.528,-1.671c0,-0.88 0.366,-1.627 1.1,-2.243c0.732,-0.615 1.54,-0.924 2.419,-0.924c0.704,0 1.261,0.207 1.672,0.616c0.233,0.235 0.292,0.998 0.176,2.287c-0.06,0.294 -0.03,0.807 0.088,1.539c0.117,0.734 0.176,1.218 0.176,1.451c0,0.353 -0.059,0.924 -0.176,1.716c-0.118,0.791 -0.176,1.218 -0.176,1.275v5.277c0,0.06 0.116,0.352 0.352,0.88c0.117,0.527 0.117,0.879 0,1.056c-0.823,1.643 -2.058,2.463 -3.701,2.463c-0.412,0 -0.911,-0.058 -1.499,-0.176c-0.589,-0.117 -0.94,-0.176 -1.058,-0.176h-5.376c-1.41,0 -3.951,-0.205 -7.624,-0.616c-3.672,-0.409 -6.802,-0.615 -9.386,-0.615h-5.552c-0.471,0 -1.41,0.074 -2.82,0.22c-1.41,0.146 -2.498,0.22 -3.262,0.22c-1.586,0 -2.88,-0.264 -3.877,-0.792c-0.294,-0.176 -0.441,-0.615 -0.441,-1.319c0,-0.645 0.175,-1.144 0.523,-1.495c0.755,-0.762 1.801,-1.201 3.138,-1.319c0.871,0 1.771,0 2.702,0c0.638,0.118 1.509,0.059 2.614,-0.176c0.349,-0.177 0.553,-0.586 0.61,-1.231c0.058,-0.41 0.058,-1.025 0,-1.848c-0.058,-0.938 -0.087,-1.465 -0.087,-1.583c0,-6.099 -0.028,-9.588 -0.087,-10.468c-1.037,-0.116 -2.479,-0.497 -4.323,-1.144c-0.813,-0.645 -1.016,-1.524 -0.604,-2.639c0.352,-0.938 1.144,-1.612 2.375,-2.023c0.879,-0.292 1.759,-0.557 2.639,-0.791c0.176,-0.645 0.204,-1.437 0.088,-2.375c-0.118,-0.82 -0.206,-1.612 -0.264,-2.375c-0.118,-2.521 -0.323,-6.391 -0.616,-11.611c-0.235,0 -1.026,0.074 -2.375,0.221c-1.35,0.146 -2.405,0.22 -3.166,0.22c-2.698,0 -4.047,-0.807 -4.047,-2.422c0,-0.229 0.029,-0.489 0.088,-0.778c-0.059,-0.115 -0.116,-0.173 -0.176,-0.173c1.289,-1.036 2.756,-1.613 4.398,-1.729c1.056,0 2.11,0 3.166,0c7.33,-0.117 19.205,-1.817 35.624,-5.102c0.176,-0.059 0.469,-0.029 0.88,0.088c0.409,0.118 0.645,0.206 0.703,0.264c0.469,0.646 0.792,1.378 0.968,2.199c-0.177,2.581 -0.089,5.335 0.262,8.267z"/><path d="M449.14769,189.69102c0.233,0.88 -0.161,2.215 -1.186,4.003c-1.023,1.789 -2.105,3.064 -3.246,3.826c-1.141,0.762 -2.911,1.261 -5.308,1.495c-1.931,0.176 -3.73,-0.675 -5.396,-2.551c-1.668,-1.876 -2.617,-3.958 -2.851,-6.245c-0.645,-6.45 -1.464,-11.083 -2.458,-13.898c-0.118,-0.703 -0.439,-1.743 -0.966,-3.122c-0.526,-1.377 -1.725,-2.507 -3.597,-3.387c-1.405,-0.527 -2.837,-1.084 -4.299,-1.671c-0.234,-0.058 -0.526,-0.058 -0.877,0c-0.819,0.234 -2.517,0.703 -5.09,1.407v1.671v6.861c0,0.118 0.044,0.675 0.132,1.671c0.088,0.998 0.132,1.702 0.132,2.111c0.117,0.998 0.265,3.637 0.44,7.916c0.409,0.177 0.849,0.177 1.319,0c1.583,-0.645 2.99,-0.791 4.222,-0.439c0.88,0.294 1.319,0.998 1.319,2.111c0,1.643 -0.865,2.625 -2.595,2.946c-1.73,0.323 -4.266,0.778 -7.608,1.364c-2.698,0.527 -4.692,0.791 -5.981,0.791c-1.994,0 -3.373,-0.469 -4.134,-1.407c-0.176,-1.936 0.82,-3.107 2.99,-3.519c1.76,-0.176 3.519,-0.381 5.277,-0.616c0.234,-0.292 0.353,-0.615 0.353,-0.967c-0.06,-1.349 -0.382,-6.187 -0.968,-14.514c-0.176,-1.993 -0.235,-3.519 -0.176,-4.574c-1.056,-0.058 -1.76,-0.146 -2.111,-0.264c-0.88,-0.293 -1.438,-0.85 -1.671,-1.671v-0.265c0.116,-0.058 0.204,-0.352 0.264,-0.879c0.82,-1.29 1.876,-1.788 3.167,-1.496c0.116,-0.352 0.088,-1.289 -0.089,-2.814c-0.527,-5.57 -0.851,-10.027 -0.967,-13.37c-0.235,-0.233 -0.734,-0.293 -1.496,-0.176c-1.173,0.235 -1.789,0.352 -1.847,0.352c-3.167,0 -4.692,-0.761 -4.574,-2.287c0.117,-1.407 1.319,-2.256 3.606,-2.551c2.052,-0.409 6.362,-1.055 12.931,-1.935c-0.294,0.059 1.788,0.146 6.245,0.264c5.159,0.411 8.766,1.262 10.819,2.551c2.228,1.467 3.723,3.401 4.485,5.806c0.233,0.763 0.293,1.906 0.176,3.431c-0.059,1.525 -0.294,2.609 -0.703,3.254c-1.35,2.463 -4.076,4.662 -8.181,6.598c0,0.176 0.029,0.294 0.088,0.352c1.466,1.056 2.463,1.994 2.991,2.814c1.523,2.463 2.551,6.041 3.078,10.731c0.762,6.393 1.377,10.409 1.847,12.051c0.059,0.352 0.469,0.909 1.231,1.671c0.762,0.764 1.378,1.174 1.848,1.231c1.816,0.118 2.932,-0.703 3.343,-2.463c-0.06,-0.645 0.204,-1.524 0.791,-2.639c0.821,-0.762 1.817,-1.144 2.991,-1.144c1.175,0.002 1.937,0.531 2.29,1.585zM431.55569,158.81702c0.527,-0.527 0.791,-1.348 0.791,-2.463c0,-2.99 -1.056,-5.13 -3.166,-6.421c-2.111,-1.289 -6.686,-1.876 -13.723,-1.759c-0.527,0 -1.319,0.234 -2.375,0.703c0.177,0.88 0.177,1.613 0,2.199c-0.059,0.88 -0.059,1.701 0,2.463c0.029,1.583 0.089,3.549 0.177,5.894c0.292,3.46 0.439,5.396 0.439,5.805c0.996,-0.058 2.463,-0.352 4.398,-0.879c0.292,-0.293 0.703,-0.616 1.231,-0.968c0.409,-0.117 1.465,-0.176 3.166,-0.176c3.226,0.001 6.247,-1.464 9.062,-4.398z"/><path d="M449.14769,189.69102c0.233,0.88 -0.161,2.215 -1.186,4.003c-1.023,1.789 -2.105,3.064 -3.246,3.826c-1.141,0.762 -2.911,1.261 -5.308,1.495c-1.931,0.176 -3.73,-0.675 -5.396,-2.551c-1.668,-1.876 -2.617,-3.958 -2.851,-6.245c-0.645,-6.45 -1.464,-11.083 -2.458,-13.898c-0.118,-0.703 -0.439,-1.743 -0.966,-3.122c-0.526,-1.377 -1.725,-2.507 -3.597,-3.387c-1.405,-0.527 -2.837,-1.084 -4.299,-1.671c-0.234,-0.058 -0.526,-0.058 -0.877,0c-0.819,0.234 -2.517,0.703 -5.09,1.407v1.671v6.861c0,0.118 0.044,0.675 0.132,1.671c0.088,0.998 0.132,1.702 0.132,2.111c0.117,0.998 0.265,3.637 0.44,7.916c0.409,0.177 0.849,0.177 1.319,0c1.583,-0.645 2.99,-0.791 4.222,-0.439c0.88,0.294 1.319,0.998 1.319,2.111c0,1.643 -0.865,2.625 -2.595,2.946c-1.73,0.323 -4.266,0.778 -7.608,1.364c-2.698,0.527 -4.692,0.791 -5.981,0.791c-1.994,0 -3.373,-0.469 -4.134,-1.407c-0.176,-1.936 0.82,-3.107 2.99,-3.519c1.76,-0.176 3.519,-0.381 5.277,-0.616c0.234,-0.292 0.353,-0.615 0.353,-0.967c-0.06,-1.349 -0.382,-6.187 -0.968,-14.514c-0.176,-1.993 -0.235,-3.519 -0.176,-4.574c-1.056,-0.058 -1.76,-0.146 -2.111,-0.264c-0.88,-0.293 -1.438,-0.85 -1.671,-1.671v-0.265c0.116,-0.058 0.204,-0.352 0.264,-0.879c0.82,-1.29 1.876,-1.788 3.167,-1.496c0.116,-0.352 0.088,-1.289 -0.089,-2.814c-0.527,-5.57 -0.851,-10.027 -0.967,-13.37c-0.235,-0.233 -0.734,-0.293 -1.496,-0.176c-1.173,0.235 -1.789,0.352 -1.847,0.352c-3.167,0 -4.692,-0.761 -4.574,-2.287c0.117,-1.407 1.319,-2.256 3.606,-2.551c2.052,-0.409 6.362,-1.055 12.931,-1.935c-0.294,0.059 1.788,0.146 6.245,0.264c5.159,0.411 8.766,1.262 10.819,2.551c2.228,1.467 3.723,3.401 4.485,5.806c0.233,0.763 0.293,1.906 0.176,3.431c-0.059,1.525 -0.294,2.609 -0.703,3.254c-1.35,2.463 -4.076,4.662 -8.181,6.598c0,0.176 0.029,0.294 0.088,0.352c1.466,1.056 2.463,1.994 2.991,2.814c1.523,2.463 2.551,6.041 3.078,10.731c0.762,6.393 1.377,10.409 1.847,12.051c0.059,0.352 0.469,0.909 1.231,1.671c0.762,0.764 1.378,1.174 1.848,1.231c1.816,0.118 2.932,-0.703 3.343,-2.463c-0.06,-0.645 0.204,-1.524 0.791,-2.639c0.821,-0.762 1.817,-1.144 2.991,-1.144c1.175,0.002 1.937,0.531 2.29,1.585zM431.55569,158.81702c0.527,-0.527 0.791,-1.348 0.791,-2.463c0,-2.99 -1.056,-5.13 -3.166,-6.421c-2.111,-1.289 -6.686,-1.876 -13.723,-1.759c-0.527,0 -1.319,0.234 -2.375,0.703c0.177,0.88 0.177,1.613 0,2.199c-0.059,0.88 -0.059,1.701 0,2.463c0.029,1.583 0.089,3.549 0.177,5.894c0.292,3.46 0.439,5.396 0.439,5.805c0.996,-0.058 2.463,-0.352 4.398,-0.879c0.292,-0.293 0.703,-0.616 1.231,-0.968c0.409,-0.117 1.465,-0.176 3.166,-0.176c3.226,0.001 6.247,-1.464 9.062,-4.398z"/></g></g></g></svg>