<svg version="1.1" xmlns="http://www.w3.org/2000/svg" xmlns:xlink="http://www.w3.org/1999/xlink" width="113.13184" height="113.13184" viewBox="0,0,113.13184,113.13184"><g transform="translate(-183.43408,-123.43408)"><g data-paper-data="{&quot;isPaintingLayer&quot;:true}" fill-rule="nonzero" stroke-linejoin="miter" stroke-miterlimit="10" stroke-dasharray="" stroke-dashoffset="0" style="mix-blend-mode: normal"><path d="M183.43408,236.56592v-113.13184h113.13184v113.13184z" fill="none" stroke="none" stroke-width="0" stroke-linecap="butt"/><path d="M239.45991,226.38042c-6.9279,0 -12.76192,-1.20327 -17.50206,-3.6098c-4.74014,-2.40653 -8.34994,-5.50585 -10.8294,-9.29797c-2.47946,-3.86504 -3.79211,-7.91239 -3.93797,-12.14205c-0.07292,-0.80218 0.14585,-1.42204 0.65632,-1.85959c0.51048,-0.51048 1.1668,-0.76572 1.96899,-0.76572h7.00081c0.80218,0 1.49496,0.21877 2.07837,0.65632c0.65632,0.36464 1.13035,1.09388 1.42204,2.18776c0.8751,3.20871 2.29716,5.83401 4.26613,7.87592c1.96899,2.04191 4.22967,3.53687 6.78204,4.48492c2.55239,0.8751 5.25062,1.31266 8.0947,1.31266c3.7192,0 7.11021,-0.72924 10.17307,-2.18776c3.13578,-1.53144 5.61524,-3.79211 7.43837,-6.78204c1.82313,-3.06285 2.7347,-6.70912 2.7347,-10.93879c0,-3.93797 -0.91157,-7.32899 -2.7347,-10.17307c-1.75021,-2.84409 -4.1932,-4.99537 -7.32899,-6.45388c-3.06285,-1.53144 -6.49035,-2.29716 -10.28245,-2.29716c-2.91701,0 -5.28708,0.36464 -7.11021,1.09388c-1.82313,0.65632 -3.39103,1.45851 -4.70369,2.40653c-1.23973,0.94803 -2.37007,1.78667 -3.39103,2.51592c-0.94803,0.65632 -2.04191,0.98449 -3.28164,0.98449h-6.78204c-0.80218,0 -1.49496,-0.25524 -2.07837,-0.76572c-0.58341,-0.58341 -0.83864,-1.27619 -0.76572,-2.07837l4.15674,-43.64575c0.07292,-1.02096 0.40108,-1.82313 0.98449,-2.40653c0.58341,-0.58341 1.34911,-0.8751 2.29716,-0.8751h45.61475c0.8751,0 1.56789,0.29171 2.07837,0.8751c0.58341,0.58341 0.8751,1.31266 0.8751,2.18776v5.03185c0,0.94803 -0.29171,1.71375 -0.8751,2.29716c-0.51048,0.51048 -1.20327,0.76572 -2.07837,0.76572h-37.62943l-2.51592,25.70615c1.31266,-0.80218 3.28164,-1.75021 5.90695,-2.84409c2.69824,-1.09388 6.38096,-1.64081 11.04817,-1.64081c4.37552,0 8.45933,0.65632 12.25145,1.96899c3.79211,1.31266 7.14668,3.24518 10.06369,5.79756c2.91701,2.47946 5.17769,5.54232 6.78204,9.18857c1.67728,3.57333 2.51592,7.73008 2.51592,12.47022c0,6.6362 -1.42204,12.25145 -4.26613,16.84574c-2.84409,4.59429 -6.81852,8.0947 -11.92329,10.50124c-5.03185,2.40653 -10.75649,3.6098 -17.1739,3.6098z" fill="#ffffff" stroke="#ffffff" stroke-width="5" stroke-linecap="square"/></g></g></svg>