<svg version="1.1" xmlns="http://www.w3.org/2000/svg" xmlns:xlink="http://www.w3.org/1999/xlink" width="148.66894" height="148.66894" viewBox="0,0,148.66894,148.66894"><g transform="translate(-138.66553,-105.66553)"><g data-paper-data="{&quot;isPaintingLayer&quot;:true}" fill-rule="nonzero" stroke-linecap="butt" stroke-linejoin="miter" stroke-miterlimit="10" stroke-dasharray="" stroke-dashoffset="0" style="mix-blend-mode: normal"><path d="M205.18515,206.56958v-18.29655h8.49606v18.29655z" fill="#ffffff" stroke="#ffffff" stroke-width="5"/><path d="M201.64822,143.56581c14.43606,0 13.18616,5.50731 0.32931,5.78354c-9.7359,0.20917 -34.50883,-1.08358 -34.43782,0.12311c0.79479,13.50842 6.16836,22.06924 20.03721,22.40317c12.25584,0.26342 7.56551,7.17936 2.88029,7.01945c-22.85132,-0.77992 -29.42258,-13.89514 -29.87415,-34.99578c-0.03723,-0.58951 37.87706,-0.33349 41.06516,-0.33349z" fill="#ffffff" stroke="#ffffff" stroke-width="5"/><path d="M188.30716,214.75353c0,-6.668 5.40548,-12.07349 12.07349,-12.07349c0.03657,0 13.65199,0.00049 13.65199,0.00049l1.59298,19.13691c0,0 -26.88676,0.05619 -27.26162,-0.06295c-0.58713,-0.1866 -0.05685,-6.97814 -0.05685,-7.00096z" fill="#ffffff" stroke="#ffffff" stroke-width="5"/><path d="M205.16505,188.66537c-2.08459,-0.76762 -24.80333,0.35611 -24.30916,-52.18969c0.0171,-1.81738 34.48045,-1.22002 34.48045,-1.22002l-3.19239,53.23648l-6.94214,0.21626c0,0 -0.00022,-0.02956 -0.03679,-0.04302z" fill="#ffffff" stroke="#ffffff" stroke-width="5"/><path d="M138.66553,254.33447v-148.66894h148.66894v148.66894z" fill="none" stroke="none" stroke-width="0"/><path d="M210.32205,206.56958v-18.29655h8.49606v18.29655z" data-paper-data="{&quot;index&quot;:null}" fill="#ffffff" stroke="#ffffff" stroke-width="5"/><path d="M222.35504,143.56581c3.1881,0 41.10239,-0.25603 41.06516,0.33349c-0.45157,21.10064 -7.02283,34.21586 -29.87415,34.99578c-4.68522,0.15991 -9.37555,-6.75604 2.88029,-7.01945c13.86885,-0.33393 19.24242,-8.89475 20.03721,-22.40317c0.07101,-1.20669 -24.70192,0.08606 -34.43782,-0.12311c-12.85684,-0.27622 -14.10674,-5.78354 0.32931,-5.78354z" data-paper-data="{&quot;index&quot;:null}" fill="#ffffff" stroke="#ffffff" stroke-width="5"/><path d="M235.69612,214.75353c0,0.02283 0.53027,6.81436 -0.05685,7.00096c-0.37486,0.11914 -27.26162,0.06295 -27.26162,0.06295l1.59298,-19.13691c0,0 13.61542,-0.00049 13.65199,-0.00049c6.66801,0 12.07349,5.40549 12.07349,12.07349z" data-paper-data="{&quot;index&quot;:null}" fill="#ffffff" stroke="#ffffff" stroke-width="5"/><path d="M218.83824,188.66538c-0.03657,0.01347 -0.03679,0.04302 -0.03679,0.04302l-6.94214,-0.21626l-3.19239,-53.23648c0,0 34.46335,-0.59736 34.48045,1.22002c0.49417,52.5458 -22.22457,51.42207 -24.30916,52.18969z" data-paper-data="{&quot;index&quot;:null}" fill="#ffffff" stroke="#ffffff" stroke-width="5"/></g></g></svg>