<svg version="1.1" xmlns="http://www.w3.org/2000/svg" xmlns:xlink="http://www.w3.org/1999/xlink" width="919.93698" height="382.00004" viewBox="0,0,919.93698,382.00004"><defs><linearGradient x1="241.95877" y1="-6.50004" x2="241.95877" y2="363.49999" gradientUnits="userSpaceOnUse" id="color-1"><stop offset="0" stop-color="#0196fe"/><stop offset="1" stop-color="#0fd4ff"/></linearGradient><linearGradient x1="-132.67654" y1="371.10853" x2="-132.67654" y2="183.37222" gradientUnits="userSpaceOnUse" id="color-2"><stop offset="0" stop-color="#0196fe"/><stop offset="1" stop-color="#0fd4ff"/></linearGradient><linearGradient x1="259.26377" y1="375.50002" x2="259.26377" y2="187.76369" gradientUnits="userSpaceOnUse" id="color-3"><stop offset="0" stop-color="#0196fe"/><stop offset="1" stop-color="#0fd4ff"/></linearGradient><linearGradient x1="60.46911" y1="375.50002" x2="60.46911" y2="117.50006" gradientUnits="userSpaceOnUse" id="color-4"><stop offset="0" stop-color="#0196fe"/><stop offset="1" stop-color="#0fd4ff"/></linearGradient><linearGradient x1="510.67647" y1="375.50002" x2="510.67647" y2="149.33827" gradientUnits="userSpaceOnUse" id="color-5"><stop offset="0" stop-color="#0196fe"/><stop offset="1" stop-color="#0fd4ff"/></linearGradient></defs><g transform="translate(270.96849,6.50002)"><g data-paper-data="{&quot;isPaintingLayer&quot;:true}" fill-rule="nonzero" stroke="none" stroke-width="0" stroke-linecap="butt" stroke-linejoin="miter" stroke-miterlimit="10" stroke-dasharray="" stroke-dashoffset="0" style="mix-blend-mode: normal"><g><path d="M-5.04124,363.49999v-370.00001h494v370.00001z" fill="url(#color-1)"/><path d="M5.61543,371.10853h-276.58392c0,0 58.64476,-187.39412 139.52672,-187.73631c81.69208,-0.34563 137.05721,187.73631 137.05721,187.73631z" data-paper-data="{&quot;index&quot;:null}" fill="url(#color-2)"/><path d="M397.55578,375.50002h-276.58392c0,0 58.64476,-187.39412 139.52671,-187.73631c81.69209,-0.34563 137.05721,187.73631 137.05721,187.73631z" data-paper-data="{&quot;index&quot;:null}" fill="url(#color-3)"/><path d="M198.76106,375.50002h-276.58392c0,0 58.64476,-257.52967 139.52671,-257.99995c81.69209,-0.47499 137.05721,257.99995 137.05721,257.99995z" data-paper-data="{&quot;index&quot;:null}" fill="url(#color-4)"/><path d="M648.96849,375.50002h-276.58392c0,0 58.64476,-225.7495 139.52671,-226.16174c81.69209,-0.41638 137.05721,226.16174 137.05721,226.16174z" data-paper-data="{&quot;index&quot;:null}" fill="url(#color-5)"/></g></g></g></svg>