<svg version="1.1" xmlns="http://www.w3.org/2000/svg" xmlns:xlink="http://www.w3.org/1999/xlink" width="6.81379" height="8.31268" viewBox="0,0,6.81379,8.31268"><defs><linearGradient x1="240.04069" y1="181.74358" x2="240.04069" y2="178.26286" gradientUnits="userSpaceOnUse" id="color-1"><stop offset="0" stop-color="#ffffff"/><stop offset="1" stop-color="#e5e5e5"/></linearGradient></defs><g transform="translate(-236.59311,-175.84366)"><g data-paper-data="{&quot;isPaintingLayer&quot;:true}" fill-rule="nonzero" stroke-width="0" stroke-linecap="butt" stroke-linejoin="miter" stroke-miterlimit="10" stroke-dasharray="" stroke-dashoffset="0" style="mix-blend-mode: normal"><path d="M239.93758,181.72408c-0.02401,-0.008 -0.07109,-0.03496 -0.09449,-0.05428c-0.03803,-0.03089 -1.04918,-1.03604 -1.06482,-1.05863c-0.10986,-0.15622 -0.06392,-0.36915 0.0998,-0.46157c0.05071,-0.02874 0.09437,-0.03962 0.15751,-0.0396c0.05181,0.00009 0.07613,0.00483 0.12154,0.02372c0.05419,0.02207 0.05809,0.02562 0.32095,0.28567c0,0 0.06752,0.06679 0.11074,0.10955c0.02759,0.0273 0.07982,0.0469 0.11037,0.02299c0.03502,-0.02742 0.02459,-0.07652 0.02439,-0.12099c-0.00129,-0.2721 -0.00387,-0.81669 -0.00387,-0.81669c-0.00426,-0.89983 -0.00434,-1.05365 -0.00026,-1.07988c0.02479,-0.16817 0.1748,-0.28611 0.34292,-0.27006c0.13413,0.01296 0.24076,0.10474 0.27799,0.23958l0.00726,0.02588l0.00569,1.06527c0,0 0.00353,0.62387 0.00488,0.86176c0.00024,0.0409 0.00572,0.10213 0.04591,0.1097c0.04405,0.00829 0.08896,-0.04095 0.12057,-0.07273c0.0308,-0.03098 0.07896,-0.0794 0.07896,-0.0794c0.1982,-0.19976 0.2488,-0.2492 0.26946,-0.26258c0.18174,-0.11905 0.42439,-0.02629 0.48075,0.18326c0.00757,0.02749 0.00892,0.03914 0.0091,0.07767c0.00057,0.0505 -0.00512,0.08129 -0.02273,0.12412c-0.02433,0.05969 -0.00403,0.03791 -0.55702,0.59682c-0.28133,0.28433 -0.52175,0.52542 -0.53465,0.53583c-0.04483,0.0368 -0.10945,0.06496 -0.16512,0.07203c-0.04304,0.00572 -0.09486,-0.00053 -0.14579,-0.01744z" data-paper-data="{&quot;origRot&quot;:0,&quot;index&quot;:null}" fill="url(#color-1)" stroke="#ffffff"/><path d="M236.59311,175.84366h6.81379v8.31268h-6.81379z" data-paper-data="{&quot;index&quot;:null}" fill="none" stroke="none"/></g></g></svg>