<svg version="1.1" xmlns="http://www.w3.org/2000/svg" xmlns:xlink="http://www.w3.org/1999/xlink" width="5.34749" height="5.16" viewBox="0,0,5.34749,5.16"><g transform="translate(-237.33398,-177.42)"><g data-paper-data="{&quot;isPaintingLayer&quot;:true}" fill-rule="nonzero" stroke="none" stroke-width="0" stroke-linecap="butt" stroke-linejoin="miter" stroke-miterlimit="10" stroke-dasharray="" stroke-dashoffset="0" style="mix-blend-mode: normal"><path d="M237.42,182.58v-5.16h5.16v5.16z" fill="none"/><path d="M242.05213,179.96665c0.37001,0.08927 0.64818,0.25522 0.62834,0.33748c-0.01985,0.08227 -0.28985,-0.00929 -0.65986,-0.09856c-0.36999,-0.08928 -0.69989,-0.14241 -0.68006,-0.22467c0.01986,-0.08226 0.34158,-0.10351 0.71157,-0.01424z" data-paper-data="{&quot;index&quot;:null}" fill="#693a00"/><g fill="#693a00"><path d="M239.77751,181.14892c0,0.29291 -0.05159,0.53036 -0.11524,0.53036c-0.06365,0 -0.11524,-0.23745 -0.11524,-0.53036c0,-0.29291 0.05159,-0.53036 0.11524,-0.53036c0.06365,0 0.11524,0.23745 0.11524,0.53036z"/><path d="M240.41917,181.14892c0,0.29291 -0.05159,0.53036 -0.11524,0.53036c-0.06365,0 -0.11524,-0.23745 -0.11524,-0.53036c0,-0.29291 0.05159,-0.53036 0.11524,-0.53036c0.06365,0 0.11524,0.23745 0.11524,0.53036z"/></g><path d="M238.20919,179.84316c0.00424,-0.89071 0.12366,-1.26994 0.75134,-1.36457c0.02528,-0.00125 0.07919,-0.0074 0.07919,-0.0074l0.14352,0.21527l0.50513,-0.04115l0.15524,-0.20589c0,0 0.26948,-0.0169 0.40396,-0.01864c1.49836,-0.04209 1.55583,-0.01215 1.54202,1.39881c-0.01384,1.41424 0.00092,1.40353 -1.80322,1.41956c-0.05705,0.00051 -0.0409,-0.00571 -0.0409,-0.00571l-0.14484,0.16966l-0.466,0.00082l-0.13092,-0.22431c0,0 -0.03378,-0.01934 -0.06891,-0.02362c-0.86082,-0.03895 -0.93041,-0.30205 -0.92561,-1.31284z" fill="#ffab19"/><path d="M238.92561,179.94802c0.00356,-0.78491 0.01684,-0.94 0.48307,-1.00259c0.04447,-0.00597 0.05407,0.01211 0.05407,0.01211l0.13414,0.16771l0.40151,-0.02892l0.1334,-0.20827c0,0 0.06775,-0.01001 0.09243,-0.01034c1.33347,-0.01806 1.32775,-0.02868 1.31766,1.05223c0.00624,0.65562 0.01702,0.74464 -1.30131,0.75692c-1.2999,0.0121 -1.31996,-0.00968 -1.31497,-0.73886z" fill="#e2d2a3"/><path d="M238.94146,179.60317c-0.00886,-0.17564 0.16945,-0.52943 0.45878,-0.52062c0.04502,0.00137 0.04083,-0.01091 0.04083,-0.01091l0.20444,0.1945l0.35716,-0.02307l0.14541,-0.20261c0,0 0.10686,-0.03383 0.12014,-0.03383c0.51792,0 0.93343,0.05643 1.26411,0.47026c0.25262,0.31616 -1.94717,1.02066 -2.53392,0.79715c-0.13165,-0.05015 -0.05694,-0.67087 -0.05694,-0.67087z" fill="#ffedb8"/><path d="M238.92757,180.0087c0.00076,-0.16603 0.00194,-0.28693 0.00776,-0.40562c0.0032,-0.06538 2.62144,-0.13755 2.62434,-0.03973c0.00354,0.1195 0.00209,0.26065 0.00054,0.42729c0.00624,0.65562 -0.01012,0.74464 -1.40093,0.7914c-0.01677,0.00016 -0.11074,0.00811 -0.11074,0.00811l-0.12274,0.20238l-0.38438,0.00174l-0.13706,-0.21756c0,0 -0.06599,-0.01628 -0.09527,-0.01784c-0.33027,-0.04251 -0.38532,-0.19301 -0.38151,-0.75016z" fill="#ffedb8"/><path d="M239.85229,180.14237c0,0.16266 -0.06701,0.29451 -0.14967,0.29451c-0.08266,0 -0.14967,-0.13186 -0.14967,-0.29451c0,-0.16266 0.06701,-0.29451 0.14967,-0.29451c0.08266,0 0.14967,0.13186 0.14967,0.29451z" fill="#693a00"/><path d="M241.20955,180.06512c0,0.16265 -0.06701,0.29451 -0.14967,0.29451c-0.08266,0 -0.14966,-0.13186 -0.14966,-0.29451c0,-0.16265 0.067,-0.29451 0.14966,-0.29451c0.08266,0 0.14967,0.13186 0.14967,0.29451z" fill="#693a00"/><path d="M240.72205,180.04376c0,0 -0.13186,0.12553 -0.29451,0.12553c-0.16265,0 -0.29451,-0.12553 -0.29451,-0.12553z" data-paper-data="{&quot;index&quot;:null}" fill="#b46300"/><path d="M238.62793,179.94867c0.02955,0.0793 -0.24551,0.15435 -0.60218,0.28722c-0.35667,0.13287 -0.6599,0.27327 -0.68944,0.19397c-0.02955,-0.0793 0.22533,-0.27678 0.58199,-0.40966c0.35667,-0.13287 0.68008,-0.15084 0.70963,-0.07155z" fill="#693a00"/></g></g></svg>