<svg version="1.1" xmlns="http://www.w3.org/2000/svg" xmlns:xlink="http://www.w3.org/1999/xlink" width="113.13184" height="113.13184" viewBox="0,0,113.13184,113.13184"><g transform="translate(-183.43408,-123.43408)"><g data-paper-data="{&quot;isPaintingLayer&quot;:true}" fill-rule="nonzero" stroke-linejoin="miter" stroke-miterlimit="10" stroke-dasharray="" stroke-dashoffset="0" style="mix-blend-mode: normal"><path d="M183.43408,236.56592v-113.13184h113.13184v113.13184z" fill="none" stroke="none" stroke-width="0" stroke-linecap="butt"/><path d="M229.39695,228.63047c-0.72924,0 -1.34911,-0.29171 -1.85959,-0.8751c-0.43756,-0.58341 -0.65632,-1.23973 -0.65632,-1.96899c0,-0.43756 0.03647,-0.76572 0.10939,-0.98449c0.14585,-0.29171 0.25524,-0.54695 0.32816,-0.76572l20.01798,-27.78453c-2.18776,0.51048 -4.52136,0.76572 -7.00081,0.76572c-4.81307,-0.07292 -9.15212,-0.94803 -13.01716,-2.62531c-3.86504,-1.67728 -7.14668,-3.90149 -9.84492,-6.67266c-2.69824,-2.84409 -4.77661,-6.0528 -6.23511,-9.62613c-1.38557,-3.57333 -2.07837,-7.32899 -2.07837,-11.26696c0,-3.79211 0.65632,-7.5113 1.96899,-11.15757c1.38557,-3.7192 3.46396,-7.03729 6.23511,-9.95429c2.77116,-2.98993 6.19865,-5.36001 10.28245,-7.11021c4.15674,-1.82313 8.96981,-2.7347 14.43921,-2.7347c5.4694,0 10.28245,0.8751 14.43921,2.62531c4.15674,1.67728 7.65716,3.97443 10.50124,6.89144c2.84409,2.91701 4.92245,6.19865 6.23511,9.84492c1.38557,3.64625 2.07837,7.43837 2.07837,11.37634c0,3.57333 -0.54695,6.85497 -1.64081,9.84492c-1.02096,2.91701 -2.26068,5.54232 -3.7192,7.87592c-1.45851,2.3336 -2.80761,4.52136 -4.04735,6.56328l-25.2686,35.11351c-0.36464,0.43756 -0.83864,0.98449 -1.42204,1.64081c-0.58341,0.65632 -1.49496,0.98449 -2.7347,0.98449zM242.08593,186.40675c3.64625,0 7.00081,-0.80218 10.06369,-2.40653c3.13578,-1.60435 5.61524,-3.86504 7.43837,-6.78204c1.82313,-2.91701 2.7347,-6.41744 2.7347,-10.50124c0,-4.08381 -0.91157,-7.58424 -2.7347,-10.50124c-1.82313,-2.91701 -4.30258,-5.17769 -7.43837,-6.78204c-3.06285,-1.60435 -6.41744,-2.40653 -10.06369,-2.40653c-3.57333,0 -6.89144,0.80218 -9.95429,2.40653c-2.98993,1.60435 -5.39647,3.86504 -7.21959,6.78204c-1.82313,2.91701 -2.7347,6.41744 -2.7347,10.50124c0,4.08381 0.91157,7.58424 2.7347,10.50124c1.82313,2.91701 4.22967,5.17769 7.21959,6.78204c3.06285,1.60435 6.38096,2.40653 9.95429,2.40653z" fill="#ffffff" stroke="#ffffff" stroke-width="5" stroke-linecap="square"/></g></g></svg>