<svg version="1.1" xmlns="http://www.w3.org/2000/svg" xmlns:xlink="http://www.w3.org/1999/xlink" width="75.44039" height="100.22872" viewBox="0,0,75.44039,100.22872"><g transform="translate(-202.27982,-129.88564)"><g data-paper-data="{&quot;isPaintingLayer&quot;:true}" fill="#ffffff" fill-rule="nonzero" stroke-linecap="square" stroke-linejoin="miter" stroke-miterlimit="10" stroke-dasharray="" stroke-dashoffset="0" style="mix-blend-mode: normal"><path d="M261.89644,132.38565c6.88565,0 11.05149,2.10014 12.49748,6.30038c0.55086,1.58372 0.82628,4.20025 0.82628,7.84966c0,3.58054 -1.13614,7.91851 -3.40841,13.0139c-2.20342,5.09541 -4.81996,10.08748 -7.84966,14.97631c-3.0297,4.81996 -6.09381,9.63994 -9.19236,14.4599c-6.95454,11.36134 -10.43178,20.38157 -10.43178,27.06066c0,1.92798 -0.10328,3.44284 -0.30986,4.54453c-0.13772,1.1017 -0.68856,2.34112 -1.65256,3.71826c-0.96401,1.30827 -2.40999,2.20342 -4.33797,2.6854c-1.92798,0.41314 -4.30353,0.61971 -7.12667,0.61971c-2.82313,0 -5.19869,-0.20657 -7.12667,-0.61971c-1.92798,-0.48199 -3.37396,-1.41155 -4.33797,-2.7887c-0.89512,-1.37715 -1.44599,-2.61657 -1.65256,-3.71826c-0.13772,-1.1017 -0.20657,-2.6854 -0.20657,-4.75111c0,-5.57739 0.92957,-11.29249 2.7887,-17.1453c1.92798,-5.8528 4.20025,-11.05149 6.81681,-15.59602c2.61657,-4.54453 5.19869,-8.67593 7.74636,-12.39419c2.54769,-3.7871 4.64783,-6.88565 6.30038,-9.29564c1.65256,-2.47884 2.75425,-3.47724 3.30511,-2.99526l-26.44095,0.82628c-3.71826,0 -6.57579,-0.55086 -8.57265,-1.65256c-1.92798,-1.1017 -3.20183,-2.61657 -3.82154,-4.54453c-0.61971,-1.99686 -0.92957,-4.40681 -0.92957,-7.22995c0,-2.82313 0.30986,-5.19869 0.92957,-7.12667c0.61971,-1.99686 1.75585,-3.47724 3.40841,-4.44125c2.13454,-1.17057 4.92324,-1.75585 8.36607,-1.75585z" stroke="#28a5da" stroke-width="5"/><path d="M261.89644,132.38565c6.88565,0 11.05149,2.10014 12.49748,6.30038c0.55086,1.58372 0.82628,4.20025 0.82628,7.84966c0,3.58054 -1.13614,7.91851 -3.40841,13.0139c-2.20342,5.09541 -4.81996,10.08748 -7.84966,14.97631c-3.0297,4.81996 -6.09381,9.63994 -9.19236,14.4599c-6.95454,11.36134 -10.43178,20.38157 -10.43178,27.06066c0,1.92798 -0.10328,3.44284 -0.30986,4.54453c-0.13772,1.1017 -0.68856,2.34112 -1.65256,3.71826c-0.96401,1.30827 -2.40999,2.20342 -4.33797,2.6854c-1.92798,0.41314 -4.30353,0.61971 -7.12667,0.61971c-2.82313,0 -5.19869,-0.20657 -7.12667,-0.61971c-1.92798,-0.48199 -3.37396,-1.41155 -4.33797,-2.7887c-0.89512,-1.37715 -1.44599,-2.61657 -1.65256,-3.71826c-0.13772,-1.1017 -0.20657,-2.6854 -0.20657,-4.75111c0,-5.57739 0.92957,-11.29249 2.7887,-17.1453c1.92798,-5.8528 4.20025,-11.05149 6.81681,-15.59602c2.61657,-4.54453 5.19869,-8.67593 7.74636,-12.39419c2.54769,-3.7871 4.64783,-6.88565 6.30038,-9.29564c1.65256,-2.47884 2.75425,-3.47724 3.30511,-2.99526l-26.44095,0.82628c-3.71826,0 -6.57579,-0.55086 -8.57265,-1.65256c-1.92798,-1.1017 -3.20183,-2.61657 -3.82154,-4.54453c-0.61971,-1.99686 -0.92957,-4.40681 -0.92957,-7.22995c0,-2.82313 0.30986,-5.19869 0.92957,-7.12667c0.61971,-1.99686 1.75585,-3.47724 3.40841,-4.44125c2.13454,-1.17057 4.92324,-1.75585 8.36607,-1.75585z" stroke="none" stroke-width="1"/></g></g></svg>