<svg version="1.1" xmlns="http://www.w3.org/2000/svg" xmlns:xlink="http://www.w3.org/1999/xlink" width="52.5" height="52.5" viewBox="0,0,52.5,52.5"><g transform="translate(-83.73064,-95.09097)"><g data-paper-data="{&quot;isPaintingLayer&quot;:true}" fill-rule="nonzero" stroke-linecap="butt" stroke-linejoin="miter" stroke-miterlimit="10" stroke-dasharray="" stroke-dashoffset="0" style="mix-blend-mode: normal"><path d="M84.98064,121.34097c0,-13.80712 11.19288,-25 25,-25c13.80712,0 25,11.19288 25,25c0,13.80712 -11.19288,25 -25,25c-13.80712,0 -25,-11.19288 -25,-25z" fill="#ffaf4d" stroke="#ffffff" stroke-width="2.5"/><path d="M100.50563,137.02778c-6.07614,-6.31939 -11.19412,-23.40059 -0.44294,-26.72212c6.35375,-3.42851 16.76354,4.05958 23.28204,5.13335c2.27517,0.37478 1.81016,-2.54558 3.92504,-4.11447c5.90473,-3.52796 6.59716,16.13537 -1.09748,24.03657c-3.98928,4.09637 -9.66806,2.22674 -14.27144,2.38883c-4.27574,0.15055 -7.47024,2.60638 -11.39523,-0.72216z" fill="#ffedb8" stroke="none" stroke-width="0"/><path d="M108.68874,122.19445c0,1.84095 -0.89543,3.33333 -2,3.33333c-1.10457,0 -2,-1.49238 -2,-3.33333c0,-1.84095 0.98799,-3.77594 2,-3.33333c3.94997,1.72756 2,1.49238 2,3.33333z" fill="#693a00" stroke="none" stroke-width="0"/><path d="M124.50563,123.27778c0,1.61083 -0.67157,2.91667 -1.5,2.91667c-0.82843,0 -1.5,-1.30584 -1.5,-2.91667c0,-1.61083 -0.03978,-2.61181 1.5,-2.91667c0.81265,-0.1609 1.5,1.30584 1.5,2.91667z" fill="#693a00" stroke="none" stroke-width="0"/><path d="M111.25479,125.36752c0,0 3.84362,-2.74386 5.62318,-2.12905c1.77955,0.6148 2.74773,2.48666 2.74773,2.48666z" data-paper-data="{&quot;index&quot;:null}" fill="#b46300" stroke="none" stroke-width="0"/></g></g></svg>