<svg version="1.1" xmlns="http://www.w3.org/2000/svg" xmlns:xlink="http://www.w3.org/1999/xlink" width="113.13184" height="113.13184" viewBox="0,0,113.13184,113.13184"><g transform="translate(-183.43408,-123.43408)"><g data-paper-data="{&quot;isPaintingLayer&quot;:true}" fill-rule="nonzero" stroke-linejoin="miter" stroke-miterlimit="10" stroke-dasharray="" stroke-dashoffset="0" style="mix-blend-mode: normal"><path d="M183.43408,236.56592v-113.13184h113.13184v113.13184z" fill="none" stroke="none" stroke-width="0" stroke-linecap="butt"/><path d="M211.12162,226.43513c-0.8751,0 -1.60435,-0.29171 -2.18776,-0.8751c-0.51048,-0.58341 -0.76572,-1.27619 -0.76572,-2.07837v-4.26613c0,-0.72924 0.18231,-1.56789 0.54695,-2.51592c0.43756,-1.02096 1.31266,-2.07837 2.62531,-3.17225l27.67513,-27.67513c4.44844,-3.79211 7.94885,-7.00081 10.50124,-9.62613c2.62531,-2.69824 4.48492,-5.25062 5.57878,-7.65716c1.09388,-2.40653 1.64081,-4.92245 1.64081,-7.54776c0,-4.95892 -1.42204,-8.89688 -4.26613,-11.81389c-2.77116,-2.91701 -6.89144,-4.37552 -12.36083,-4.37552c-3.50042,0 -6.52681,0.72924 -9.0792,2.18776c-2.47946,1.38557 -4.41197,3.31809 -5.79756,5.79756c-1.38557,2.47946 -2.3336,5.28708 -2.84409,8.42287c-0.21877,1.1668 -0.6928,1.96899 -1.42204,2.40653c-0.72924,0.43756 -1.38557,0.65632 -1.96899,0.65632h-6.78204c-0.80218,0 -1.49496,-0.21877 -2.07837,-0.65632c-0.51048,-0.51048 -0.76572,-1.13035 -0.76572,-1.85959c0.14585,-3.28164 0.83864,-6.59973 2.07837,-9.95429c1.31266,-3.35456 3.24518,-6.41744 5.79756,-9.18857c2.62531,-2.77116 5.83401,-4.95892 9.62613,-6.56328c3.79211,-1.67728 8.20409,-2.51592 13.23593,-2.51592c6.85497,0 12.47022,1.23973 16.84574,3.7192c4.44844,2.47946 7.69361,5.76109 9.73552,9.84492c2.11483,4.08381 3.17225,8.56872 3.17225,13.45472c0,3.86504 -0.65632,7.40192 -1.96899,10.61062c-1.31266,3.13578 -3.20871,6.19865 -5.68817,9.18857c-2.47946,2.98993 -5.54232,6.0528 -9.18857,9.18857l-25.04983,25.48737h40.80168c0.94803,0 1.67728,0.25524 2.18776,0.76572c0.58341,0.51048 0.8751,1.27619 0.8751,2.29716v5.36001c0,0.80218 -0.29171,1.49496 -0.8751,2.07837c-0.51048,0.58341 -1.23973,0.8751 -2.18776,0.8751z" fill="#ffffff" stroke="#ffffff" stroke-width="5" stroke-linecap="square"/></g></g></svg>