<svg version="1.1" xmlns="http://www.w3.org/2000/svg" xmlns:xlink="http://www.w3.org/1999/xlink" width="52.5" height="52.5" viewBox="0,0,52.5,52.5"><g transform="translate(-292.58607,-153.95731)"><g data-paper-data="{&quot;isPaintingLayer&quot;:true}" fill-rule="nonzero" stroke-linecap="butt" stroke-linejoin="miter" stroke-miterlimit="10" stroke-dasharray="" stroke-dashoffset="0" style="mix-blend-mode: normal"><path d="M293.83607,180.20731c0,-13.80712 11.19288,-25 25,-25c13.80712,0 25,11.19288 25,25c0,13.80712 -11.19288,25 -25,25c-13.80712,0 -25,-11.19288 -25,-25z" fill="#ffaf4d" stroke="#ffffff" stroke-width="2.5"/><path d="M300.01187,179.88331c0,-6.40937 2.98065,-12.12256 7.63143,-15.82907c0.84551,-0.67384 5.37998,3.22022 6.46704,3.25907c8.5216,0.30459 5.65569,-3.23669 9.25381,-3.23669c11.1727,0 17.10765,4.63399 17.10765,15.80669c0,11.1727 -2.55245,18.27852 -13.72515,18.27852c-11.1727,0 -26.73477,-7.10582 -26.73477,-18.27852z" fill="#ffedb8" stroke="none" stroke-width="0"/><path d="M327.00684,184.37163c-2.11958,0 -3.70774,-1.82518 -3.70774,-2.47183c0,-0.30494 1.26804,0.39715 3.12818,0.51211c2.08438,0.12882 4.78643,-0.29091 4.78643,0.05081c0,0 -2.08729,1.90891 -4.20687,1.90891z" fill="#b46300" stroke="none" stroke-width="0"/><path d="M320.59757,178.86115c0,1.92683 -0.86778,3.48884 -1.93824,3.48884c-1.07046,0 -1.93824,-1.56201 -1.93824,-3.48884c0,-0.89053 0.44435,-3.93189 1.28182,-3.62127c2.92963,1.08662 2.59466,2.58496 2.59466,3.62127z" fill="#693a00" stroke="none" stroke-width="0"/><path d="M335.90592,178.15835c0.83747,-0.31062 1.28182,2.73074 1.28182,3.62127c0,1.92683 -0.86778,3.48884 -1.93824,3.48884c-1.07046,0 -1.93824,-1.56201 -1.93824,-3.48884c0,-1.03631 -0.33497,-2.53465 2.59466,-3.62127z" data-paper-data="{&quot;index&quot;:null}" fill="#693a00" stroke="none" stroke-width="0"/></g></g></svg>