<svg version="1.1" xmlns="http://www.w3.org/2000/svg" xmlns:xlink="http://www.w3.org/1999/xlink" width="10.06897" height="10.06897" viewBox="0,0,10.06897,10.06897"><defs><linearGradient x1="240" y1="175.88934" x2="240" y2="177.77523" gradientUnits="userSpaceOnUse" id="color-1"><stop offset="0" stop-color="#fff75c"/><stop offset="1" stop-color="#ffd363"/></linearGradient></defs><g transform="translate(-234.94212,-172.16576)"><g data-paper-data="{&quot;isPaintingLayer&quot;:true}" fill-rule="nonzero" stroke-linecap="butt" stroke-linejoin="miter" stroke-miterlimit="10" stroke-dasharray="" stroke-dashoffset="0" style="mix-blend-mode: normal"><path d="M238.89432,177.77523v-1.88588c0,0 0.38538,0.98602 0.57438,0.98602c0.18422,0 0.54566,-0.98602 0.54566,-0.98602c0,0 0.3401,0.99559 0.52652,0.99559c0.17685,0 0.56481,-0.99559 0.56481,-0.99559v1.88588z" fill="url(#color-1)" stroke="none" stroke-width="0"/><path d="M238.89432,177.77524v-0.99559c0,0 0.38537,0.52054 0.57438,0.52054c0.18422,0 0.54566,-0.52054 0.54566,-0.52054c0,0 0.3401,0.52559 0.52652,0.52559c0.17686,0 0.56481,-0.52559 0.56481,-0.52559v0.99559z" fill="#fff75c" stroke="none" stroke-width="0"/><path d="M238.89432,177.77524v-0.99559c0,0 0.38537,0.52054 0.57438,0.52054c0.18422,0 0.54566,-0.52054 0.54566,-0.52054c0,0 0.3401,0.52559 0.52652,0.52559c0.17686,0 0.56481,-0.52559 0.56481,-0.52559v0.99559z" fill="none" stroke="none" stroke-width="0"/><path d="M238.89432,177.77524v-1.88588c0,0 0.38537,0.98602 0.57438,0.98602c0.18422,0 0.54566,-0.98602 0.54566,-0.98602c0,0 0.3401,0.99559 0.52652,0.99559c0.17686,0 0.56481,-0.99559 0.56481,-0.99559v1.88588z" fill="none" stroke="#ffffff" stroke-width="0.2"/><path d="M234.94212,182.23473v-10.06897h10.06897v10.06897z" fill="none" stroke="none" stroke-width="none"/></g></g></svg>