<svg version="1.1" xmlns="http://www.w3.org/2000/svg" xmlns:xlink="http://www.w3.org/1999/xlink" width="78.74545" height="103.32728" viewBox="0,0,78.74545,103.32728"><g transform="translate(-200.62727,-128.33636)"><g data-paper-data="{&quot;isPaintingLayer&quot;:true}" fill="#ffffff" fill-rule="nonzero" stroke-linecap="square" stroke-linejoin="miter" stroke-miterlimit="10" stroke-dasharray="" stroke-dashoffset="0" style="mix-blend-mode: normal"><path d="M239.79344,130.83638c10.74163,0 19.27984,3.13298 25.61467,9.39893c6.33483,6.1971 9.50221,13.32376 9.50221,21.37999c0,8.05622 -3.54613,13.46148 -10.63835,16.21573l0.10328,-0.92957c0.68856,-0.3443 1.89357,0.20657 3.61497,1.65256c1.72141,1.44599 3.16739,2.89198 4.33797,4.33797c3.0297,3.92482 4.54453,8.40052 4.54453,13.42704c0,9.57106 -3.54613,17.45515 -10.63835,23.65225c-7.09222,6.12825 -15.90588,9.19236 -26.44095,9.19236c-10.53506,0 -19.31428,-3.09855 -26.33766,-9.29564c-2.6854,-2.40999 -5.02652,-5.57739 -7.02337,-9.50221c-0.75743,-1.44599 -1.30827,-2.6854 -1.65256,-3.71826l-0.20657,-1.23942c-0.96401,-2.82313 -1.44599,-5.23309 -1.44599,-7.22995c0,-6.47251 4.85439,-9.70879 14.56318,-9.70879c3.85599,0 6.54139,0.58527 8.05622,1.75585c1.72141,1.44599 3.23628,3.99367 4.54453,7.64308c0.55086,1.85913 2.30671,3.30511 5.26754,4.33797c1.23942,0.41314 2.6854,0.61971 4.33797,0.61971c3.71826,0 6.33483,-0.65415 7.84966,-1.96241c1.58372,-1.30827 2.37556,-2.6854 2.37556,-4.1314c0,-1.51483 -0.75743,-2.89198 -2.27227,-4.1314c-1.51483,-1.23942 -3.54613,-1.85913 -6.09381,-1.85913c-2.47884,0 -4.30353,-0.10328 -5.4741,-0.30986c-1.17057,-0.20657 -2.4444,-0.68856 -3.82154,-1.44599c-3.09855,-1.51483 -4.64783,-5.40526 -4.64783,-11.6712c0,-6.95454 2.10014,-11.15477 6.30038,-12.60076c1.58372,-0.48199 3.95927,-0.72299 7.12667,-0.72299c4.61338,0 6.92009,-0.79184 6.92009,-2.37556c0,-1.03285 -0.58527,-2.0657 -1.75585,-3.09855c-1.1017,-1.1017 -2.85755,-1.65256 -5.26754,-1.65256c-2.40999,0 -4.26912,0.3787 -5.57739,1.13614c-1.23942,0.68856 -1.96241,1.30827 -2.16899,1.85913l-0.72299,1.44599c-2.40999,5.09541 -5.88725,7.64308 -10.43178,7.64308c-2.54769,0 -5.23309,-0.86072 -8.05622,-2.58212c-4.88883,-2.82313 -7.33323,-6.30038 -7.33323,-10.43178c0,-1.65256 0.99841,-4.78555 2.99526,-9.39893c0.41314,-0.96401 1.41155,-2.4444 2.99526,-4.44125c1.65256,-1.99686 3.54613,-3.75269 5.68067,-5.26754c2.13454,-1.58372 5.06096,-2.96083 8.77922,-4.1314c3.7871,-1.23942 7.95294,-1.85913 12.49748,-1.85913z" stroke="#28a5da" stroke-width="5"/><path d="M239.79344,130.83638c10.74163,0 19.27984,3.13298 25.61467,9.39893c6.33483,6.1971 9.50221,13.32376 9.50221,21.37999c0,8.05622 -3.54613,13.46148 -10.63835,16.21573l0.10328,-0.92957c0.68856,-0.3443 1.89357,0.20657 3.61497,1.65256c1.72141,1.44599 3.16739,2.89198 4.33797,4.33797c3.0297,3.92482 4.54453,8.40052 4.54453,13.42704c0,9.57106 -3.54613,17.45515 -10.63835,23.65225c-7.09222,6.12825 -15.90588,9.19236 -26.44095,9.19236c-10.53506,0 -19.31428,-3.09855 -26.33766,-9.29564c-2.6854,-2.40999 -5.02652,-5.57739 -7.02337,-9.50221c-0.75743,-1.44599 -1.30827,-2.6854 -1.65256,-3.71826l-0.20657,-1.23942c-0.96401,-2.82313 -1.44599,-5.23309 -1.44599,-7.22995c0,-6.47251 4.85439,-9.70879 14.56318,-9.70879c3.85599,0 6.54139,0.58527 8.05622,1.75585c1.72141,1.44599 3.23628,3.99367 4.54453,7.64308c0.55086,1.85913 2.30671,3.30511 5.26754,4.33797c1.23942,0.41314 2.6854,0.61971 4.33797,0.61971c3.71826,0 6.33483,-0.65415 7.84966,-1.96241c1.58372,-1.30827 2.37556,-2.6854 2.37556,-4.1314c0,-1.51483 -0.75743,-2.89198 -2.27227,-4.1314c-1.51483,-1.23942 -3.54613,-1.85913 -6.09381,-1.85913c-2.47884,0 -4.30353,-0.10328 -5.4741,-0.30986c-1.17057,-0.20657 -2.4444,-0.68856 -3.82154,-1.44599c-3.09855,-1.51483 -4.64783,-5.40526 -4.64783,-11.6712c0,-6.95454 2.10014,-11.15477 6.30038,-12.60076c1.58372,-0.48199 3.95927,-0.72299 7.12667,-0.72299c4.61338,0 6.92009,-0.79184 6.92009,-2.37556c0,-1.03285 -0.58527,-2.0657 -1.75585,-3.09855c-1.1017,-1.1017 -2.85755,-1.65256 -5.26754,-1.65256c-2.40999,0 -4.26912,0.3787 -5.57739,1.13614c-1.23942,0.68856 -1.96241,1.30827 -2.16899,1.85913l-0.72299,1.44599c-2.40999,5.09541 -5.88725,7.64308 -10.43178,7.64308c-2.54769,0 -5.23309,-0.86072 -8.05622,-2.58212c-4.88883,-2.82313 -7.33323,-6.30038 -7.33323,-10.43178c0,-1.65256 0.99841,-4.78555 2.99526,-9.39893c0.41314,-0.96401 1.41155,-2.4444 2.99526,-4.44125c1.65256,-1.99686 3.54613,-3.75269 5.68067,-5.26754c2.13454,-1.58372 5.06096,-2.96083 8.77922,-4.1314c3.7871,-1.23942 7.95294,-1.85913 12.49748,-1.85913z" stroke="none" stroke-width="1"/></g></g></svg>