<svg version="1.1" xmlns="http://www.w3.org/2000/svg" xmlns:xlink="http://www.w3.org/1999/xlink" width="134" height="134" viewBox="0,0,134,134"><g transform="translate(-173,-113)"><g data-paper-data="{&quot;isPaintingLayer&quot;:true}" fill-rule="nonzero" stroke-linecap="butt" stroke-linejoin="miter" stroke-miterlimit="10" stroke-dasharray="" stroke-dashoffset="0" style="mix-blend-mode: normal"><path d="M173,247v-134h134v134z" fill="none" stroke="none" stroke-width="0"/><path d="M294.27092,171.94861c0.56299,4.42984 -4.78279,14.36684 -9.88523,15.01528c-6.03768,0.76731 -70.38459,9.83846 -84.84427,11.74429c-0.57397,0.07565 -1.06933,0.14001 -1.47932,0.19211c-6.16452,0.7834 -11.95389,-7.08367 -12.35963,-12.18834c-0.40463,-5.09067 7.87039,-13.83163 11.94251,-14.29391c9.82824,-1.24901 75.79842,-10.59882 81.48778,-11.32183c5.74745,-0.73041 14.59572,6.58369 15.13819,10.85241z" data-paper-data="{&quot;index&quot;:null}" fill="#59c059" stroke="#ffffff" stroke-width="5"/><path d="M294.27092,171.94861c0.56299,4.42984 -4.78279,14.36684 -9.88523,15.01528c-6.03768,0.76731 -70.38459,9.83846 -84.84427,11.74429c-0.57397,0.07565 -1.06933,0.14001 -1.47932,0.19211c-6.16452,0.7834 -11.95389,-7.08367 -12.35963,-12.18834c-0.40463,-5.09067 7.87039,-13.83163 11.94251,-14.29391c9.82824,-1.24901 75.79842,-10.59882 81.48778,-11.32183c5.74745,-0.73041 14.59572,6.58369 15.13819,10.85241z" data-paper-data="{&quot;index&quot;:null}" fill="#59c059" stroke="none" stroke-width="0"/><path d="M234.48339,179.01965c0,0 2.89998,-0.28102 5.77643,-0.69857c2.87646,-0.41755 4.83469,-1.40156 4.83469,-1.40156c0,0 -0.14991,3.80037 -4.86564,5.0447c-2.81042,0.7416 -5.74548,-2.94458 -5.74548,-2.94458z" data-paper-data="{&quot;index&quot;:null}" fill="#ffffff" stroke="none" stroke-width="0"/><g data-paper-data="{&quot;index&quot;:null}"><path d="M290.51041,171.82117c0.31043,2.4426 -2.63721,7.92182 -5.45068,8.27937c-3.46129,0.43989 -16.95734,2.24082 -22.87863,2.99332c-3.39909,0.43197 -6.50464,-4.27801 -6.81505,-6.7206c-0.29914,-2.35373 2.40981,-7.351 6.58505,-7.8816c5.41925,-0.6887 17.0751,-2.25579 20.21219,-2.65445c3.16912,-0.40275 8.04801,3.63021 8.34713,5.98397z" fill="#59c059" stroke="#54b754" stroke-width="1"/><path d="M287.65013,172.79526c0.17751,1.39673 -1.50802,4.52989 -3.11683,4.73434c-1.97925,0.25154 -5.20903,0.62994 -8.59496,1.06023c-1.94368,0.24701 -3.71949,-2.44627 -3.897,-3.843c-0.17105,-1.34592 1.37799,-4.20347 3.76549,-4.50688c3.09886,-0.39382 5.27637,-0.63849 7.07023,-0.86645c1.81218,-0.2303 4.60205,2.07584 4.77309,3.42177z" fill="#4ea94e" stroke="none" stroke-width="0"/><path d="M258.63986,176.58882c-0.19639,-1.23812 1.09323,-3.9305 2.32611,-4.13974c1.22042,-0.20712 2.69452,-0.9871 4.80278,-1.3449c1.6243,-0.27567 3.28659,2.41573 3.48297,3.65385c0.2038,1.28485 -0.33687,4.09022 -1.65922,4.31464c-2.30356,0.39095 -4.49355,0.79243 -5.84011,1.02095c-1.09452,0.18577 -2.90873,-2.21994 -3.11252,-3.5048z" data-paper-data="{&quot;index&quot;:null}" fill="#4ea94e" stroke="none" stroke-width="0"/></g><g data-paper-data="{&quot;index&quot;:null}"><path d="M225.70062,181.73344c0.31043,2.4426 -2.63721,7.92183 -5.45068,8.27937c-3.4613,0.43989 -16.95734,2.24082 -22.87863,2.99332c-3.39909,0.43197 -6.50463,-4.27801 -6.81505,-6.7206c-0.29914,-2.35374 2.40981,-7.351 6.58505,-7.8816c5.41925,-0.6887 17.0751,-2.25578 20.21219,-2.65445c3.16912,-0.40275 8.04803,3.63022 8.34714,5.98397z" fill="#59c059" stroke="#54b754" stroke-width="1"/><path d="M222.84036,182.70753c0.17751,1.39673 -1.50802,4.52989 -3.11683,4.73434c-1.97926,0.25154 -5.20903,0.62993 -8.59496,1.06023c-1.94368,0.24701 -3.71949,-2.44627 -3.897,-3.843c-0.17105,-1.34593 1.37799,-4.70348 3.76549,-5.00689c3.09885,-0.39381 5.27636,-0.13849 7.07022,-0.36645c1.81218,-0.23029 4.60205,2.07585 4.77309,3.42178z" fill="#4ea94e" stroke="none" stroke-width="0"/><path d="M193.83008,186.5011c-0.19639,-1.23812 1.09323,-3.9305 2.32611,-4.13974c1.22043,-0.20712 2.69453,-0.4871 4.80279,-0.8449c1.62429,-0.27567 3.28659,1.91573 3.48296,3.15385c0.2038,1.28485 -0.33687,4.09022 -1.65922,4.31464c-2.30357,0.39095 -4.49356,0.79243 -5.84011,1.02095c-1.09452,0.18576 -2.90873,-2.21994 -3.11252,-3.5048z" data-paper-data="{&quot;index&quot;:null}" fill="#4ea94e" stroke="none" stroke-width="0"/></g><path d="M232.36399,179.95786c0.46829,2.48033 -0.24883,4.69811 -1.60175,4.95355c-1.35292,0.25543 -2.82929,-1.54822 -3.29758,-4.02855c-0.46829,-2.48033 0.24883,-4.69811 1.60175,-4.95355c1.35292,-0.25543 2.82929,1.54822 3.29758,4.02855z" fill="#ffffff" stroke="none" stroke-width="0"/><path d="M252.38506,176.49066c0.24816,2.51192 -0.66138,4.65798 -2.03153,4.79334c-1.37015,0.13536 -2.68203,-1.79124 -2.93019,-4.30316c-0.24816,-2.51192 0.66138,-4.65798 2.03153,-4.79334c1.37015,-0.13536 2.68203,1.79124 2.93019,4.30316z" fill="#ffffff" stroke="none" stroke-width="0"/></g></g></svg>