<svg version="1.1" xmlns="http://www.w3.org/2000/svg" xmlns:xlink="http://www.w3.org/1999/xlink" width="19.68383" height="19.68383" viewBox="0,0,19.68383,19.68383"><defs><linearGradient x1="240.03124" y1="176.12845" x2="240.03124" y2="180.69713" gradientUnits="userSpaceOnUse" id="color-1"><stop offset="0" stop-color="#ffbf66"/><stop offset="1" stop-color="#ffd080"/></linearGradient><linearGradient x1="240.01814" y1="176.31196" x2="240.01814" y2="180.88064" gradientUnits="userSpaceOnUse" id="color-2"><stop offset="0" stop-color="#ffbf66"/><stop offset="1" stop-color="#ffd080"/></linearGradient></defs><g transform="translate(-230.14499,-170.13188)"><g data-paper-data="{&quot;isPaintingLayer&quot;:true}" fill-rule="nonzero" stroke-linejoin="miter" stroke-miterlimit="10" stroke-dasharray="" stroke-dashoffset="0" style="mix-blend-mode: normal"><path d="M236.01295,184.01059v-8.01312h6.52577l1.47424,1.46592v6.5472z" data-paper-data="{&quot;index&quot;:null}" fill="#ffbe4d" stroke="none" stroke-width="0" stroke-linecap="butt"/><path d="" fill="none" stroke="none" stroke-width="0" stroke-linecap="butt"/><path d="" data-paper-data="{&quot;index&quot;:null}" fill="#ffbe4d" stroke="none" stroke-width="0" stroke-linecap="butt"/><path d="" fill="none" stroke="#ffe3b3" stroke-width="1.92" stroke-linecap="round"/><path d="" data-paper-data="{&quot;index&quot;:null}" fill="url(#color-1)" stroke="none" stroke-width="0" stroke-linecap="butt"/><path d="M230.145,189.81572v-19.68383h19.68383v19.68383z" data-paper-data="{&quot;index&quot;:null}" fill="none" stroke="none" stroke-width="0" stroke-linecap="butt"/><path d="M235.99465,175.99529l6.82212,-0.00341c0,0 -0.05816,0.00408 0.0105,0.00408c0.52761,0 1.17708,0.46914 1.17708,0.99933c0,0.53019 -0.42771,0.96 -0.95531,0.96c-0.0523,0 -0.22531,0.01054 -0.22531,0.01054l-6.79845,-0.0246z" data-paper-data="{&quot;index&quot;:null}" fill="#ffe3b3" stroke="none" stroke-width="0.5" stroke-linecap="butt"/><path d="M244.0116,180.22355c0,0.31071 -0.30733,0.65709 -0.6341,0.65709c-1.11273,0 -7.3528,0 -7.3528,0v-3.84499l7.9869,-0.02523c0,0 0,2.68079 0,3.21312z" data-paper-data="{&quot;index&quot;:null}" fill="url(#color-2)" stroke="none" stroke-width="0" stroke-linecap="butt"/></g></g></svg>