<svg version="1.1" xmlns="http://www.w3.org/2000/svg" xmlns:xlink="http://www.w3.org/1999/xlink" width="5.16" height="5.16" viewBox="0,0,5.16,5.16"><defs><linearGradient x1="239.98385" y1="178.47459" x2="239.98385" y2="181.46242" gradientUnits="userSpaceOnUse" id="color-1"><stop offset="0" stop-color="#ffb64d"/><stop offset="1" stop-color="#ffcb4a"/></linearGradient></defs><g transform="translate(-237.42,-177.42)"><g data-paper-data="{&quot;isPaintingLayer&quot;:true}" fill-rule="nonzero" stroke="none" stroke-width="0" stroke-linecap="butt" stroke-linejoin="miter" stroke-miterlimit="10" stroke-dasharray="" stroke-dashoffset="0" style="mix-blend-mode: normal"><path d="M237.42,182.58v-5.16h5.16v5.16z" data-paper-data="{&quot;index&quot;:null}" fill="none"/><path d="M242.08071,179.75361c-0.11687,0.24052 -0.3033,0.4164 -0.38383,0.39915c-0.08054,-0.01725 0.03109,-0.19145 0.14796,-0.43196c0.11688,-0.24051 0.19472,-0.45628 0.27525,-0.43903c0.08053,0.01726 0.07748,0.23132 -0.03939,0.47184z" data-paper-data="{&quot;index&quot;:null}" fill="#693a00"/><path d="M238.28499,179.82949c0.0791,0.02032 -0.04575,0.19364 -0.18092,0.43425c-0.13517,0.24061 -0.22946,0.45739 -0.30857,0.43706c-0.0791,-0.02032 -0.05962,-0.23796 0.07553,-0.47855c0.13517,-0.24061 0.33484,-0.41308 0.41394,-0.39276z" fill="#693a00"/><path d="M240.33773,180.57205c0.06365,0 0.11524,0.23745 0.11524,0.53036c0,0.29291 -0.05159,0.53036 -0.11524,0.53036c-0.06365,0 -0.11524,-0.23745 -0.11524,-0.53036c0,-0.29291 0.05159,-0.53036 0.11524,-0.53036z" data-paper-data="{&quot;index&quot;:null}" fill="#693a00"/><path d="M239.69607,180.45577c0.06365,0 0.11524,0.23745 0.11524,0.53036c0,0.29291 -0.05159,0.53036 -0.11524,0.53036c-0.06365,0 -0.11524,-0.23745 -0.11524,-0.53036c0,-0.29291 0.05159,-0.53036 0.11524,-0.53036z" data-paper-data="{&quot;index&quot;:null}" fill="#693a00"/><path d="M242.01537,179.90165c0.00545,1.01079 0.01053,1.23685 -0.52482,1.31284c-0.03985,0.00428 -0.07817,0.02362 -0.07817,0.02362l-0.14851,0.22431l-0.52862,-0.00082l-0.1643,-0.16966c0,0 -0.50686,0.00622 -0.57158,0.00571c-2.04659,-0.01603 -2.02985,-0.00532 -2.04555,-1.41956c-0.01566,-1.41096 -0.02454,-1.42238 2.04555,-1.39881c0.15256,0.00174 0.45825,0.01864 0.45825,0.01864l0.1761,0.20589l0.57301,0.04115l0.16281,-0.21527c0,0 0.06115,0.00615 0.08983,0.0074c0.47129,0.02056 0.5512,0.47386 0.55601,1.36457z" data-paper-data="{&quot;index&quot;:null}" fill="url(#color-1)"/></g></g></svg>