<svg version="1.1" xmlns="http://www.w3.org/2000/svg" xmlns:xlink="http://www.w3.org/1999/xlink" width="19.68383" height="19.68383" viewBox="0,0,19.68383,19.68383"><defs><linearGradient x1="239.99997" y1="176.34575" x2="239.99997" y2="183.65434" gradientUnits="userSpaceOnUse" id="color-1"><stop offset="0" stop-color="#ca2828"/><stop offset="1" stop-color="#d15353"/></linearGradient><linearGradient x1="239.99995" y1="176.04295" x2="239.99995" y2="183.95708" gradientUnits="userSpaceOnUse" id="color-2"><stop offset="0" stop-color="#ff6666"/><stop offset="1" stop-color="#ff3333"/></linearGradient><linearGradient x1="240.79931" y1="178.30518" x2="240.79931" y2="182.51834" gradientUnits="userSpaceOnUse" id="color-3"><stop offset="0" stop-color="#e65c5c"/><stop offset="1" stop-color="#e62e2e"/></linearGradient><linearGradient x1="241.25945" y1="179.0277" x2="241.25945" y2="181.79586" gradientUnits="userSpaceOnUse" id="color-4"><stop offset="0" stop-color="#993f3f"/><stop offset="1" stop-color="#692020"/></linearGradient></defs><g transform="translate(-230.15827,-170.15827)"><g data-paper-data="{&quot;isPaintingLayer&quot;:true}" fill-rule="nonzero" stroke-linecap="butt" stroke-linejoin="miter" stroke-miterlimit="10" stroke-dasharray="" stroke-dashoffset="0" style="mix-blend-mode: normal"><path d="M230.15827,189.8421v-19.68383h19.68383v19.68383z" fill="none" stroke="none" stroke-width="0"/><path d="M239.99997,183.65433c-2.01822,0 -3.65429,-1.63607 -3.65429,-3.65429c0,-2.01822 1.63607,-3.65429 3.65429,-3.65429c2.01822,0 3.65429,1.63607 3.65429,3.65429c0,2.01822 -1.63607,3.65429 -3.65429,3.65429z" data-paper-data="{&quot;index&quot;:null}" fill="url(#color-1)" stroke="none" stroke-width="0"/><path d="M243.95707,180.00006c0,0.94007 -0.32781,1.80357 -0.87536,2.48244c-0.15698,0.19463 -1.10708,-2.62934 -1.29763,-2.46761c-0.20505,0.17403 0.34701,3.33095 0.10921,3.46076c-0.56237,0.30699 -1.20745,0.48147 -1.89329,0.48147c-0.71569,0 -1.38699,-0.18999 -1.96623,-0.52229c-0.22262,-0.12771 3.87971,-3.25563 3.687,-3.42267c-0.17662,-0.15309 -4.65089,2.65762 -4.79803,2.47585c-0.55022,-0.6797 -0.87981,-1.54533 -0.87981,-2.48795c0,-0.87474 0.28383,-1.68319 0.76442,-2.33827c0.16052,-0.2188 4.79967,2.53447 5.00085,2.35313c0.22205,-0.20015 -3.98979,-3.33046 -3.72653,-3.47666c0.56823,-0.31555 1.22229,-0.49526 1.91833,-0.49526c0.68652,0 1.33221,0.17483 1.89498,0.4824c0.25383,0.13872 -0.28429,3.30785 -0.06806,3.49672c0.22424,0.19587 1.20125,-2.58678 1.37658,-2.34545c0.474,0.65243 0.75356,1.45526 0.75356,2.32339z" data-paper-data="{&quot;index&quot;:null}" fill="url(#color-2)" stroke="none" stroke-width="0"/><g data-paper-data="{&quot;index&quot;:null}"><path d="M243.17331,180.14433c0,1.31113 -1.06288,2.37401 -2.37401,2.37401c-1.31113,0 -2.37402,-1.06288 -2.37402,-2.37401c0,-0.65659 0.32574,-1.55641 0.73674,-1.77847c0.40971,-0.22136 0.9037,0.23406 1.55825,0.23406c0.68819,0 1.44827,-0.4493 1.90256,-0.19862c0.41121,0.2269 0.55046,1.12009 0.55046,1.74302z" data-paper-data="{&quot;index&quot;:null}" fill="#ffffff" stroke="url(#color-3)" stroke-width="1"/><path d="M243.17329,180.14439c0,1.31113 -1.06289,2.37401 -2.37402,2.37401c-1.31113,0 -2.37401,-1.06288 -2.37401,-2.37401c0,-0.65659 0.32574,-1.55641 0.73674,-1.77847c0.40972,-0.22136 0.9037,0.23406 1.55825,0.23406c0.68819,0 1.44827,-0.4493 1.90256,-0.19862c0.41121,0.2269 0.55046,1.12009 0.55046,1.74302z" data-paper-data="{&quot;index&quot;:null}" fill="#ffffff" stroke="#000000" stroke-width="0"/><path d="M242.7648,180.2906c0,0.83135 -0.67395,1.50531 -1.50531,1.50531c-0.83135,0 -1.50531,-0.67395 -1.50531,-1.50531c0,-0.39291 0.23904,-1.21623 0.23904,-1.21623c0,0 0.8278,0.22447 1.26627,0.22447c0.35098,0 1.32494,-0.2711 1.32494,-0.2711c0,0 0.18037,0.78243 0.18037,1.26283z" fill="url(#color-4)" stroke="none" stroke-width="0"/></g></g></g></svg>