<svg version="1.1" xmlns="http://www.w3.org/2000/svg" xmlns:xlink="http://www.w3.org/1999/xlink" width="542.31086" height="417.59877" viewBox="0,0,542.31086,417.59877"><g transform="translate(27.5375,33.5229)"><g data-paper-data="{&quot;isPaintingLayer&quot;:true}" stroke-miterlimit="10" stroke-dasharray="" stroke-dashoffset="0" style="mix-blend-mode: normal"><path d="M504.29248,-12.87694c12.73314,24.37171 10.29366,73.58339 10.29366,73.58339l-1.61337,223.75495c0,0 3.22835,52.81521 -9.28868,79.06777c-12.517,26.25248 -37.88005,19.86141 -37.88005,19.86141l-442.5662,-0.07203c0,0 -27.54351,3.57964 -40.18277,-21.24631c-12.63928,-24.82594 -10.44718,-78.20072 -10.44718,-78.20072l-0.03568,-228.2798c0,0 -0.57117,-44.41052 10.68384,-66.21501c11.25501,-21.80449 34.4265,-21.17775 34.4265,-21.17775l447.79789,-1.48291c0,0 26.07893,-3.96476 38.81203,20.40699z" data-paper-data="{&quot;origRot&quot;:0,&quot;index&quot;:null}" fill="#bae6a0" fill-rule="evenodd" stroke="none" stroke-width="1" stroke-linecap="round" stroke-linejoin="round" opacity="0.42445"/><path d="M384.58286,51.00058c7.06242,6.86507 5.70937,20.72711 5.70937,20.72711l-0.89485,215.02772c0,0 1.7906,14.87709 -5.15196,22.27196c-6.94254,7.39485 -21.01013,5.5946 -21.01013,5.5946l-245.46887,-0.02029c0,0 -15.27698,1.00832 -22.28733,-5.9847c-7.01036,-6.99302 -5.79452,-22.02773 -5.79452,-22.02773l-0.01979,-216.30229c0,0 -0.3168,-12.50964 5.92578,-18.65157c6.24258,-6.14193 19.09462,-5.96539 19.09462,-5.96539l248.37062,-0.41771c0,0 14.46465,-1.1168 21.52705,5.74828z" data-paper-data="{&quot;origRot&quot;:0,&quot;index&quot;:null}" fill="#000000" fill-rule="evenodd" stroke="none" stroke-width="1" stroke-linecap="round" stroke-linejoin="round" opacity="0.42445"/><path d="M384.58287,51.00059c7.06242,6.86507 5.70937,20.72711 5.70937,20.72711l-0.89485,215.02772c0,0 1.7906,14.87709 -5.15196,22.27196c-6.94254,7.39485 -21.01013,5.5946 -21.01013,5.5946l-245.46887,-0.02029c0,0 -15.27698,1.00832 -22.28733,-5.9847c-7.01036,-6.99302 -5.79452,-22.02773 -5.79452,-22.02773l-0.01979,-216.30229c0,0 -0.3168,-12.50964 5.92578,-18.65157c6.24258,-6.14193 19.09462,-5.96539 19.09462,-5.96539l248.37062,-0.41771c0,0 14.46465,-1.1168 21.52705,5.74828z" data-paper-data="{&quot;origRot&quot;:0,&quot;index&quot;:null}" fill="#000000" fill-rule="evenodd" stroke="none" stroke-width="1" stroke-linecap="round" stroke-linejoin="round" opacity="0.42445"/><path d="M384.58287,51.00059c7.06242,6.86507 5.70937,20.72711 5.70937,20.72711l-0.89485,215.02772c0,0 1.7906,14.87709 -5.15196,22.27196c-6.94254,7.39485 -21.01013,5.5946 -21.01013,5.5946l-245.46887,-0.02029c0,0 -15.27698,1.00832 -22.28733,-5.9847c-7.01036,-6.99302 -5.79452,-22.02773 -5.79452,-22.02773l-0.01979,-216.30229c0,0 -0.3168,-12.50964 5.92578,-18.65157c6.24258,-6.14193 19.09462,-5.96539 19.09462,-5.96539l248.37062,-0.41771c0,0 14.46465,-1.1168 21.52705,5.74828z" data-paper-data="{&quot;origRot&quot;:0,&quot;index&quot;:null}" fill="#000000" fill-rule="evenodd" stroke="none" stroke-width="1" stroke-linecap="round" stroke-linejoin="round" opacity="0.42445"/><g fill-rule="nonzero" stroke="none" stroke-width="0.365" stroke-linecap="round" stroke-linejoin="round"><path d="M153.80059,195.05134h52.39881c11.51693,0 20.78869,9.27176 20.78869,20.78869c0,11.51694 -9.27176,20.78868 -20.78869,20.78868h-52.39881c-11.51693,0 -20.78869,-9.27174 -20.78869,-20.78868c0,-11.51693 9.27176,-20.78869 20.78869,-20.78869z" fill="#8fe65d"/><path d="M273.8006,195.05134h52.39881c11.51693,0 20.78869,9.27176 20.78869,20.78869c0,11.51694 -9.27176,20.78868 -20.78869,20.78868h-52.39881c-11.51693,0 -20.78869,-9.27174 -20.78869,-20.78868c0,-11.51693 9.27176,-20.78869 20.78869,-20.78869z" fill="#ff6565"/></g><path d="M273.8006,195.05134h52.39881c11.51693,0 20.78869,9.27176 20.78869,20.78869c0,11.51694 -9.27176,20.78868 -20.78869,20.78868h-52.39881c-11.51693,0 -20.78869,-9.27174 -20.78869,-20.78868c0,-11.51693 9.27176,-20.78869 20.78869,-20.78869z" fill-opacity="0.2008" fill="#000000" fill-rule="nonzero" stroke="none" stroke-width="0.365" stroke-linecap="round" stroke-linejoin="round"/><g fill="#ffffff" fill-rule="nonzero" stroke="#ffffff" stroke-width="1" stroke-linecap="square" stroke-linejoin="miter"><path d="M138.42723,141.82965c-0.35611,0 -0.6133,-0.14508 -0.77157,-0.43524c-0.15827,-0.30336 -0.17806,-0.60012 -0.05936,-0.89028l6.94415,-16.47998c0.17146,-0.43524 0.47481,-0.65287 0.91006,-0.65287c0.40886,0 0.69903,0.21762 0.87049,0.65287l6.96393,16.49977c0.14508,0.30336 0.1253,0.60012 -0.05935,0.89028c-0.18465,0.27697 -0.44184,0.41546 -0.77157,0.41546c-0.18465,0 -0.35611,-0.04616 -0.51438,-0.13848c-0.14508,-0.09232 -0.26379,-0.23741 -0.35611,-0.43525l-6.48911,-15.74797h0.732l-6.54846,15.74797c-0.07914,0.19784 -0.19784,0.34293 -0.35611,0.43525c-0.14508,0.09232 -0.30995,0.13848 -0.4946,0.13848zM139.99015,137.43762l0.71222,-1.58271h9.5754l0.71222,1.58271zM156.57661,133.87652c0.03957,-0.97601 0.29016,-1.8465 0.75178,-2.61147c0.47482,-0.77817 1.08152,-1.38487 1.82012,-1.82012c0.75179,-0.44843 1.58271,-0.67265 2.49277,-0.67265c0.7254,0 1.28595,0.10552 1.68163,0.31655c0.39568,0.19784 0.54735,0.49459 0.45503,0.89027c-0.06595,0.2374 -0.17806,0.39568 -0.33633,0.47481c-0.14508,0.06595 -0.32314,0.09232 -0.53417,0.07913c-0.21103,-0.01318 -0.44843,-0.02638 -0.71222,-0.03956c-0.88368,-0.07914 -1.66844,0.01319 -2.35429,0.27697c-0.68584,0.2506 -1.2332,0.64627 -1.64206,1.18703c-0.39568,0.54076 -0.59352,1.18044 -0.59352,1.91904zM156.7151,141.82965c-0.29016,0 -0.51438,-0.07914 -0.67265,-0.2374c-0.15827,-0.15827 -0.23741,-0.37589 -0.23741,-0.65287v-11.13833c0,-0.27697 0.07914,-0.4946 0.23741,-0.65287c0.15827,-0.15827 0.38249,-0.2374 0.67265,-0.2374c0.27697,0 0.4946,0.07914 0.65287,0.2374c0.15827,0.15827 0.2374,0.37589 0.2374,0.65287v11.13833c0,0.27697 -0.07914,0.4946 -0.2374,0.65287c-0.15827,0.15827 -0.3759,0.2374 -0.65287,0.2374zM171.55432,141.94834c-1.27936,0 -2.41363,-0.27697 -3.40283,-0.83092c-0.97601,-0.56714 -1.74758,-1.34531 -2.31472,-2.3345c-0.55395,-0.98919 -0.83092,-2.12347 -0.83092,-3.40283c0,-1.29255 0.26378,-2.42682 0.79135,-3.40283c0.52757,-0.98919 1.25298,-1.76736 2.17623,-2.3345c0.93644,-0.56714 2.01136,-0.85071 3.22477,-0.85071c1.18704,0 2.22239,0.27038 3.10607,0.81114c0.89687,0.54076 1.58931,1.29255 2.07731,2.25536c0.488,0.96282 0.73201,2.05753 0.73201,3.28413c0,0.2506 -0.07914,0.45503 -0.23741,0.6133c-0.15827,0.14508 -0.3627,0.21762 -0.6133,0.21762h-10.03044v-1.52336h10.22827l-1.00898,0.732c0.01318,-0.91006 -0.15827,-1.7278 -0.51438,-2.4532c-0.34293,-0.7254 -0.83093,-1.29255 -1.46401,-1.70141c-0.63308,-0.40886 -1.39147,-0.6133 -2.27515,-0.6133c-0.89687,0 -1.68823,0.21762 -2.37407,0.65286c-0.67265,0.42206 -1.19363,1.00898 -1.56293,1.76077c-0.36929,0.7386 -0.55395,1.5893 -0.55395,2.55212c0,0.96282 0.20443,1.81352 0.6133,2.55212c0.42206,0.7386 0.9958,1.32552 1.7212,1.76077c0.7254,0.42206 1.56293,0.63308 2.51255,0.63308c0.56714,0 1.13428,-0.09892 1.70141,-0.29676c0.58033,-0.19784 1.04194,-0.44843 1.38487,-0.75178c0.17146,-0.14508 0.3693,-0.21763 0.59352,-0.21763c0.22422,-0.01318 0.40886,0.04617 0.55394,0.17806c0.21103,0.18465 0.31654,0.38908 0.31654,0.6133c0.01318,0.21103 -0.07254,0.39568 -0.25719,0.55395c-0.52757,0.44843 -1.19363,0.81774 -1.99817,1.1079c-0.79136,0.29016 -1.55633,0.43524 -2.29493,0.43524zM189.3392,147.44827c-0.13189,0 -0.27697,-0.03297 -0.43524,-0.09892c-0.52757,-0.2374 -0.67266,-0.6133 -0.43525,-1.12768l7.6168,-16.81631c0.2374,-0.50119 0.61331,-0.64627 1.12769,-0.43524c0.54076,0.22422 0.69243,0.60011 0.45503,1.12768l-7.65637,16.81631c-0.15827,0.35611 -0.38249,0.53417 -0.67265,0.53417zM191.95067,141.43397c-0.2374,0.10551 -0.46162,0.1253 -0.67265,0.05936c-0.19784,-0.07914 -0.35611,-0.23741 -0.47482,-0.47482l-5.2823,-10.90092c-0.10551,-0.2374 -0.1187,-0.45503 -0.03956,-0.65287c0.07914,-0.21103 0.23741,-0.37589 0.47482,-0.4946c0.2374,-0.10551 0.45502,-0.11871 0.65286,-0.03957c0.21103,0.06595 0.3693,0.21762 0.47482,0.45503l5.18338,10.90093c0.11871,0.2374 0.15167,0.46163 0.09892,0.67265c-0.03957,0.19784 -0.17806,0.3561 -0.41547,0.47481zM205.47137,141.94834c-1.26617,0 -2.39385,-0.28357 -3.38305,-0.85071c-0.98919,-0.56714 -1.76736,-1.3453 -2.3345,-2.3345c-0.56714,-0.98919 -0.85071,-2.11688 -0.85071,-3.38305c0,-1.27936 0.28357,-2.41363 0.85071,-3.40283c0.56714,-0.98919 1.3453,-1.76736 2.3345,-2.3345c0.98919,-0.56714 2.11688,-0.85071 3.38305,-0.85071c1.25298,0 2.37407,0.28357 3.36326,0.85071c0.98919,0.56714 1.76736,1.3453 2.3345,2.3345c0.56714,0.98919 0.85731,2.12347 0.8705,3.40283c0,1.26617 -0.29017,2.39385 -0.8705,3.38305c-0.56714,0.98919 -1.3453,1.76736 -2.3345,2.3345c-0.98919,0.56714 -2.11028,0.85071 -3.36326,0.85071zM205.47137,140.2865c0.91006,0 1.7278,-0.21103 2.4532,-0.63308c0.7254,-0.42206 1.29255,-1.00238 1.70141,-1.74098c0.40886,-0.7386 0.6133,-1.58272 0.6133,-2.53234c0,-0.94962 -0.20444,-1.79374 -0.6133,-2.53234c-0.40886,-0.75179 -0.97601,-1.33871 -1.70141,-1.76076c-0.7254,-0.43525 -1.54315,-0.65287 -2.4532,-0.65287c-0.91006,0 -1.7278,0.21762 -2.4532,0.65287c-0.7254,0.42206 -1.29914,1.00897 -1.7212,1.76076c-0.42206,0.7386 -0.63308,1.58272 -0.63308,2.53234c0,0.94962 0.21103,1.79374 0.63308,2.53234c0.42206,0.7386 0.99579,1.31892 1.7212,1.74098c0.7254,0.42206 1.54315,0.63308 2.4532,0.63308zM221.20625,141.96812c-1.12108,0 -2.12347,-0.23081 -3.00715,-0.69243c-0.88368,-0.46162 -1.58272,-1.14087 -2.09709,-2.03774c-0.50119,-0.89687 -0.75178,-1.99157 -0.75178,-3.28412v-6.15279c0,-0.2506 0.08573,-0.46162 0.25719,-0.63308c0.17146,-0.17146 0.38249,-0.25719 0.63309,-0.25719c0.26379,0 0.4814,0.08573 0.65286,0.25719c0.17146,0.17146 0.25719,0.38249 0.25719,0.63308v6.15279c0,0.97601 0.18465,1.78055 0.55394,2.41363c0.38249,0.6199 0.89028,1.08811 1.52336,1.40465c0.63308,0.31654 1.3519,0.47482 2.15645,0.47482c0.77817,0 1.4772,-0.14509 2.09709,-0.43525c0.6199,-0.30336 1.10789,-0.71222 1.464,-1.2266c0.36929,-0.52757 0.55395,-1.12108 0.55395,-1.78055h1.30573c-0.05275,0.98919 -0.32973,1.87288 -0.83092,2.65105c-0.488,0.77817 -1.15406,1.39147 -1.99817,1.8399c-0.83093,0.44843 -1.75417,0.67265 -2.76975,0.67265zM226.38963,141.82965c-0.26379,0 -0.48141,-0.07914 -0.65287,-0.2374c-0.15827,-0.17146 -0.2374,-0.40228 -0.2374,-0.69244v-11.09876c0,-0.26379 0.07914,-0.47482 0.2374,-0.63308c0.17146,-0.17146 0.38908,-0.25719 0.65287,-0.25719c0.27697,0 0.50119,0.08573 0.67265,0.25719c0.17146,0.15827 0.25719,0.3693 0.25719,0.63308v11.09876c0,0.29016 -0.08573,0.52098 -0.25719,0.69244c-0.17146,0.15827 -0.39568,0.2374 -0.67265,0.2374zM243.01165,141.94834c-0.93644,0 -1.85969,-0.15827 -2.76975,-0.47481c-0.91006,-0.31654 -1.64866,-0.79136 -2.2158,-1.42444c-0.18465,-0.18465 -0.26378,-0.39568 -0.2374,-0.63309c0.03957,-0.2374 0.16487,-0.44184 0.3759,-0.6133c0.21103,-0.15827 0.43525,-0.21762 0.67265,-0.17806c0.2374,0.02638 0.43525,0.1253 0.59352,0.29676c0.38249,0.44843 0.88368,0.79135 1.50358,1.02876c0.6199,0.22422 1.31233,0.33633 2.07731,0.33633c1.16065,0 1.99817,-0.19783 2.51255,-0.59351c0.52757,-0.40886 0.79796,-0.89028 0.81114,-1.44423c0,-0.56714 -0.27038,-1.03536 -0.81114,-1.40465c-0.52757,-0.38249 -1.40465,-0.67265 -2.63125,-0.87049c-1.5959,-0.2506 -2.76315,-0.69244 -3.50175,-1.32552c-0.7386,-0.63308 -1.1079,-1.37828 -1.1079,-2.23558c0,-0.80454 0.21103,-1.4706 0.63308,-1.99817c0.42206,-0.54076 0.98919,-0.94303 1.70141,-1.20682c0.71222,-0.27697 1.49039,-0.41546 2.3345,-0.41546c1.05515,0 1.9652,0.18465 2.73018,0.55395c0.76497,0.35611 1.38487,0.83752 1.85969,1.44423c0.15827,0.21103 0.21762,0.42864 0.17806,0.65286c-0.02638,0.21103 -0.15168,0.38908 -0.3759,0.53417c-0.18465,0.10551 -0.40228,0.13849 -0.65287,0.09892c-0.2374,-0.03957 -0.44184,-0.15167 -0.6133,-0.33632c-0.39568,-0.44843 -0.8573,-0.77817 -1.38487,-0.98919c-0.51438,-0.22422 -1.1079,-0.33633 -1.78055,-0.33633c-0.87049,0 -1.56952,0.17806 -2.09709,0.53417c-0.51438,0.35611 -0.77157,0.80454 -0.77157,1.3453c0,0.35611 0.09891,0.67265 0.29675,0.94962c0.19784,0.26379 0.53417,0.50119 1.00898,0.71222c0.488,0.19784 1.16725,0.36271 2.03774,0.4946c1.17385,0.19784 2.10369,0.48141 2.78953,0.85071c0.68584,0.36929 1.17385,0.80454 1.46401,1.30573c0.29016,0.488 0.43525,1.02217 0.43525,1.6025c0,0.7386 -0.21762,1.39147 -0.65287,1.9586c-0.42206,0.55395 -1.01558,0.9892 -1.78055,1.30574c-0.76497,0.31654 -1.64206,0.47481 -2.63126,0.47481zM256.8518,141.96812c-1.12108,0 -2.12347,-0.23081 -3.00715,-0.69243c-0.88368,-0.46162 -1.58272,-1.14087 -2.09709,-2.03774c-0.50119,-0.89687 -0.75179,-1.99157 -0.75179,-3.28412v-6.15279c0,-0.2506 0.08573,-0.46162 0.25719,-0.63308c0.17146,-0.17146 0.38249,-0.25719 0.63308,-0.25719c0.26379,0 0.4814,0.08573 0.65286,0.25719c0.17146,0.17146 0.25719,0.38249 0.25719,0.63308v6.15279c0,0.97601 0.18466,1.78055 0.55395,2.41363c0.38249,0.6199 0.89028,1.08811 1.52336,1.40465c0.63308,0.31654 1.3519,0.47482 2.15644,0.47482c0.77817,0 1.4772,-0.14509 2.0971,-0.43525c0.61989,-0.30336 1.10789,-0.71222 1.464,-1.2266c0.3693,-0.52757 0.55395,-1.12108 0.55395,-1.78055h1.30574c-0.05275,0.98919 -0.32973,1.87288 -0.83092,2.65105c-0.488,0.77817 -1.15406,1.39147 -1.99817,1.8399c-0.83092,0.44843 -1.75417,0.67265 -2.76975,0.67265zM262.03517,141.82965c-0.26378,0 -0.48141,-0.07914 -0.65287,-0.2374c-0.15827,-0.17146 -0.23741,-0.40228 -0.23741,-0.69244v-11.09876c0,-0.26379 0.07914,-0.47482 0.23741,-0.63308c0.17146,-0.17146 0.38909,-0.25719 0.65287,-0.25719c0.27697,0 0.50119,0.08573 0.67265,0.25719c0.17146,0.15827 0.2572,0.3693 0.2572,0.63308v11.09876c0,0.29016 -0.08573,0.52098 -0.2572,0.69244c-0.17146,0.15827 -0.39567,0.2374 -0.67265,0.2374zM267.97703,133.87652c0.03957,-0.97601 0.29016,-1.8465 0.75178,-2.61147c0.47481,-0.77817 1.08152,-1.38487 1.82012,-1.82012c0.75179,-0.44843 1.58271,-0.67265 2.49277,-0.67265c0.72541,0 1.28595,0.10552 1.68163,0.31655c0.39568,0.19784 0.54735,0.49459 0.45503,0.89027c-0.06595,0.2374 -0.17805,0.39568 -0.33632,0.47481c-0.14508,0.06595 -0.32314,0.09232 -0.53416,0.07913c-0.21103,-0.01318 -0.44844,-0.02638 -0.71222,-0.03956c-0.88368,-0.07914 -1.66845,0.01319 -2.35429,0.27697c-0.68584,0.2506 -1.2332,0.64627 -1.64206,1.18703c-0.39568,0.54076 -0.59352,1.18044 -0.59352,1.91904zM268.11552,141.82965c-0.29016,0 -0.51438,-0.07914 -0.67265,-0.2374c-0.15827,-0.15827 -0.23741,-0.37589 -0.23741,-0.65287v-11.13833c0,-0.27697 0.07914,-0.4946 0.23741,-0.65287c0.15827,-0.15827 0.38249,-0.2374 0.67265,-0.2374c0.27697,0 0.4946,0.07914 0.65287,0.2374c0.15827,0.15827 0.2374,0.37589 0.2374,0.65287v11.13833c0,0.27697 -0.07913,0.4946 -0.2374,0.65287c-0.15827,0.15827 -0.3759,0.2374 -0.65287,0.2374zM282.95472,141.94834c-1.27933,0 -2.41359,-0.27697 -3.40279,-0.83092c-0.97601,-0.56714 -1.74759,-1.34531 -2.31472,-2.3345c-0.55395,-0.98919 -0.83092,-2.12347 -0.83092,-3.40283c0,-1.29255 0.26378,-2.42682 0.79136,-3.40283c0.52757,-0.98919 1.25298,-1.76736 2.17623,-2.3345c0.93644,-0.56714 2.01135,-0.85071 3.22474,-0.85071c1.18703,0 2.22239,0.27038 3.10607,0.81114c0.89687,0.54076 1.58931,1.29255 2.07731,2.25536c0.488,0.96282 0.73201,2.05753 0.73201,3.28413c0,0.2506 -0.07914,0.45503 -0.23741,0.6133c-0.15827,0.14508 -0.36271,0.21762 -0.6133,0.21762h-10.03039v-1.52336h10.22824l-1.00898,0.732c0.01319,-0.91006 -0.15827,-1.7278 -0.51438,-2.4532c-0.34292,-0.7254 -0.83092,-1.29255 -1.46401,-1.70141c-0.63308,-0.40886 -1.39146,-0.6133 -2.27515,-0.6133c-0.89684,0 -1.68819,0.21762 -2.37403,0.65286c-0.67265,0.42206 -1.19363,1.00898 -1.56293,1.76077c-0.3693,0.7386 -0.55395,1.5893 -0.55395,2.55212c0,0.96282 0.20443,1.81352 0.6133,2.55212c0.42206,0.7386 0.99579,1.32552 1.7212,1.76077c0.72538,0.42206 1.56289,0.63308 2.51252,0.63308c0.56714,0 1.13428,-0.09892 1.70141,-0.29676c0.58033,-0.19784 1.04194,-0.44843 1.38487,-0.75178c0.17146,-0.14508 0.3693,-0.21763 0.59352,-0.21763c0.22422,-0.01318 0.40886,0.04617 0.55395,0.17806c0.21103,0.18465 0.31654,0.38908 0.31654,0.6133c0.01319,0.21103 -0.07254,0.39568 -0.25719,0.55395c-0.52757,0.44843 -1.19363,0.81774 -1.99818,1.1079c-0.79136,0.29016 -1.55633,0.43524 -2.29493,0.43524zM300.73962,147.44827c-0.13189,0 -0.27698,-0.03297 -0.43525,-0.09892c-0.52757,-0.2374 -0.67265,-0.6133 -0.43525,-1.12768l7.6168,-16.81631c0.23741,-0.50119 0.6133,-0.64627 1.12768,-0.43524c0.54076,0.22422 0.69243,0.60011 0.45503,1.12768l-7.65636,16.81631c-0.15827,0.35611 -0.38249,0.53417 -0.67265,0.53417zM303.35109,141.43397c-0.23741,0.10551 -0.46162,0.1253 -0.67265,0.05936c-0.19784,-0.07914 -0.35611,-0.23741 -0.47482,-0.47482l-5.2823,-10.90092c-0.10552,-0.2374 -0.1187,-0.45503 -0.03957,-0.65287c0.07914,-0.21103 0.23741,-0.37589 0.47481,-0.4946c0.23741,-0.10551 0.45503,-0.11871 0.65287,-0.03957c0.21103,0.06595 0.3693,0.21762 0.47481,0.45503l5.18338,10.90093c0.1187,0.2374 0.15168,0.46163 0.09892,0.67265c-0.03957,0.19784 -0.17806,0.3561 -0.41547,0.47481zM316.87177,141.94834c-1.26617,0 -2.39385,-0.28357 -3.38305,-0.85071c-0.98919,-0.56714 -1.76736,-1.3453 -2.3345,-2.3345c-0.56714,-0.98919 -0.85071,-2.11688 -0.85071,-3.38305c0,-1.27936 0.28357,-2.41363 0.85071,-3.40283c0.56714,-0.98919 1.3453,-1.76736 2.3345,-2.3345c0.98919,-0.56714 2.11688,-0.85071 3.38305,-0.85071c1.25298,0 2.37406,0.28357 3.36326,0.85071c0.98919,0.56714 1.76736,1.3453 2.3345,2.3345c0.56714,0.98919 0.85731,2.12347 0.8705,3.40283c0,1.26617 -0.29017,2.39385 -0.8705,3.38305c-0.56714,0.98919 -1.3453,1.76736 -2.3345,2.3345c-0.98919,0.56714 -2.11028,0.85071 -3.36326,0.85071zM316.87177,140.2865c0.91006,0 1.7278,-0.21103 2.4532,-0.63308c0.72541,-0.42206 1.29255,-1.00238 1.70141,-1.74098c0.40886,-0.7386 0.6133,-1.58272 0.6133,-2.53234c0,-0.94962 -0.20443,-1.79374 -0.6133,-2.53234c-0.40886,-0.75179 -0.97601,-1.33871 -1.70141,-1.76076c-0.72541,-0.43525 -1.54314,-0.65287 -2.4532,-0.65287c-0.91006,0 -1.7278,0.21762 -2.4532,0.65287c-0.72541,0.42206 -1.29914,1.00897 -1.7212,1.76076c-0.42206,0.7386 -0.63308,1.58272 -0.63308,2.53234c0,0.94962 0.21103,1.79374 0.63308,2.53234c0.42206,0.7386 0.99579,1.31892 1.7212,1.74098c0.72541,0.42206 1.54314,0.63308 2.4532,0.63308zM332.60665,141.96812c-1.12108,0 -2.12347,-0.23081 -3.00715,-0.69243c-0.88368,-0.46162 -1.58271,-1.14087 -2.09709,-2.03774c-0.50119,-0.89687 -0.75178,-1.99157 -0.75178,-3.28412v-6.15279c0,-0.2506 0.08573,-0.46162 0.25719,-0.63308c0.17146,-0.17146 0.38249,-0.25719 0.63308,-0.25719c0.26378,0 0.4814,0.08573 0.65287,0.25719c0.17146,0.17146 0.25719,0.38249 0.25719,0.63308v6.15279c0,0.97601 0.18465,1.78055 0.55394,2.41363c0.38249,0.6199 0.89028,1.08811 1.52336,1.40465c0.63308,0.31654 1.3519,0.47482 2.15644,0.47482c0.77817,0 1.4772,-0.14509 2.0971,-0.43525c0.61989,-0.30336 1.10789,-0.71222 1.464,-1.2266c0.3693,-0.52757 0.55395,-1.12108 0.55395,-1.78055h1.30574c-0.05275,0.98919 -0.32973,1.87288 -0.83092,2.65105c-0.488,0.77817 -1.15407,1.39147 -1.99818,1.8399c-0.83092,0.44843 -1.75417,0.67265 -2.76975,0.67265zM337.79003,141.82965c-0.26378,0 -0.4814,-0.07914 -0.65287,-0.2374c-0.15827,-0.17146 -0.23741,-0.40228 -0.23741,-0.69244v-11.09876c0,-0.26379 0.07914,-0.47482 0.23741,-0.63308c0.17146,-0.17146 0.38908,-0.25719 0.65287,-0.25719c0.27697,0 0.50119,0.08573 0.67266,0.25719c0.17146,0.15827 0.25719,0.3693 0.25719,0.63308v11.09876c0,0.29016 -0.08573,0.52098 -0.25719,0.69244c-0.17146,0.15827 -0.39568,0.2374 -0.67266,0.2374z"/><path d="M138.34304,169.68537c-0.21103,0 -0.39568,-0.05276 -0.55395,-0.15827c-0.15827,-0.11871 -0.27038,-0.26378 -0.33633,-0.43524l-3.6798,-11.0592c-0.09232,-0.38249 -0.08573,-0.68584 0.01978,-0.91006c0.11871,-0.2374 0.34293,-0.35611 0.67266,-0.35611c0.19784,0 0.3759,0.05935 0.53417,0.17806c0.15827,0.10551 0.27697,0.27697 0.35611,0.51438l3.28412,10.03044h-0.51438l3.04672,-10.01065c0.06595,-0.21103 0.17146,-0.38249 0.31654,-0.51438c0.14508,-0.13189 0.33633,-0.19784 0.57373,-0.19784c0.2374,0 0.42864,0.06595 0.57373,0.19784c0.15827,0.11871 0.27038,0.29016 0.33633,0.51438l2.88845,9.77325h-0.39568l3.20499,-9.79303c0.15827,-0.46162 0.45503,-0.69243 0.89028,-0.69243c0.34293,0 0.57373,0.13189 0.69243,0.39567c0.13189,0.2506 0.13189,0.54076 0,0.8705l-3.6798,11.0592c-0.06595,0.17146 -0.17146,0.31654 -0.31654,0.43524c-0.14508,0.10551 -0.32314,0.15827 -0.53417,0.15827c-0.19784,0 -0.38249,-0.05276 -0.55395,-0.15827c-0.15827,-0.11871 -0.26379,-0.26378 -0.31654,-0.43524l-2.96758,-9.87216h0.27697l-2.96758,9.87216c-0.06595,0.18465 -0.17806,0.32973 -0.33633,0.43524c-0.15827,0.10551 -0.32973,0.15827 -0.51438,0.15827zM158.10056,169.80407c-1.21341,0 -2.30152,-0.28357 -3.26434,-0.85071c-0.94962,-0.58033 -1.70801,-1.36509 -2.27515,-2.35429c-0.55395,-1.00238 -0.83092,-2.12347 -0.83092,-3.36326c0,-1.25298 0.28357,-2.37407 0.85071,-3.36327c0.58033,-1.00238 1.36508,-1.78714 2.35428,-2.35428c0.98919,-0.58033 2.11029,-0.8705 3.36327,-0.8705c1.23979,0 2.34768,0.29017 3.32369,0.8705c0.98919,0.56714 1.77395,1.3519 2.35428,2.35428c0.58033,0.98919 0.87709,2.11029 0.89028,3.36327l-0.732,0.57373c0,1.13428 -0.26379,2.15645 -0.79136,3.06651c-0.52757,0.89687 -1.24639,1.60909 -2.15644,2.13666c-0.91006,0.52757 -1.93882,0.79136 -3.08629,0.79136zM158.29841,168.14223c0.91006,0 1.7212,-0.21103 2.43342,-0.63309c0.7254,-0.42206 1.29255,-1.00898 1.70141,-1.76077c0.42206,-0.75179 0.63308,-1.5893 0.63308,-2.51255c0,-0.94962 -0.21102,-1.79374 -0.63308,-2.53234c-0.40886,-0.7386 -0.97601,-1.32552 -1.70141,-1.76076c-0.71222,-0.43525 -1.52336,-0.65287 -2.43342,-0.65287c-0.89687,0 -1.70802,0.21762 -2.43342,0.65287c-0.7254,0.43525 -1.30573,1.02217 -1.74098,1.76076c-0.42206,0.7386 -0.63309,1.58272 -0.63309,2.53234c0,0.92325 0.21103,1.76076 0.63309,2.51255c0.43525,0.75179 1.01557,1.33871 1.74098,1.76077c0.7254,0.42206 1.53655,0.63309 2.43342,0.63309zM163.93682,169.68537c-0.26379,0 -0.48141,-0.07914 -0.65287,-0.2374c-0.17146,-0.17146 -0.25719,-0.38908 -0.25719,-0.65287v-4.0557l0.43524,-1.85968l1.40466,0.35611v5.55927c0,0.26379 -0.09233,0.48141 -0.27698,0.65287c-0.17146,0.15827 -0.38908,0.2374 -0.65286,0.2374zM179.47386,169.68537c-0.26379,0 -0.48141,-0.08573 -0.65287,-0.25719c-0.17146,-0.17146 -0.25719,-0.38249 -0.25719,-0.63308v-6.15279c0,-0.97601 -0.18466,-1.77395 -0.55395,-2.39385c-0.36929,-0.63308 -0.87709,-1.1079 -1.52336,-1.42444c-0.63308,-0.31654 -1.3519,-0.47482 -2.15644,-0.47482c-0.76497,0 -1.46401,0.15167 -2.09709,0.45503c-0.6199,0.29016 -1.1145,0.69903 -1.48379,1.2266c-0.35611,0.51438 -0.53417,1.1013 -0.53417,1.76077h-1.28596c0.02638,-0.98919 0.29016,-1.87287 0.79136,-2.65104c0.51438,-0.77817 1.18703,-1.39147 2.01796,-1.8399c0.83093,-0.44843 1.76077,-0.67266 2.78953,-0.67266c1.1079,0 2.10369,0.23082 2.98737,0.69244c0.88368,0.46162 1.58272,1.14087 2.09709,2.03774c0.51438,0.89687 0.77157,1.99157 0.77157,3.28412v6.15279c0,0.2506 -0.08573,0.46162 -0.25719,0.63308c-0.17146,0.17146 -0.38908,0.25719 -0.65287,0.25719zM169.32473,169.68537c-0.27697,0 -0.50119,-0.07914 -0.67265,-0.2374c-0.17146,-0.17146 -0.25719,-0.38908 -0.25719,-0.65287v-11.11855c0,-0.27697 0.08573,-0.4946 0.25719,-0.65287c0.17146,-0.17146 0.39568,-0.25719 0.67265,-0.25719c0.26379,0 0.47482,0.08573 0.63309,0.25719c0.17146,0.15827 0.25719,0.37589 0.25719,0.65287v11.11855c0,0.26379 -0.08573,0.48141 -0.25719,0.65287c-0.15827,0.15827 -0.3693,0.2374 -0.63309,0.2374zM189.45163,169.68537c-0.83093,0 -1.57611,-0.19783 -2.23558,-0.59351c-0.64627,-0.39568 -1.16066,-0.93644 -1.54315,-1.62228c-0.38249,-0.68584 -0.57373,-1.46401 -0.57373,-2.3345v-11.55379c0,-0.27697 0.07914,-0.5012 0.23741,-0.67266c0.17146,-0.17146 0.39567,-0.25719 0.67265,-0.25719c0.26379,0 0.48141,0.08573 0.65287,0.25719c0.17146,0.17146 0.25719,0.39568 0.25719,0.67266v11.55379c0,0.79136 0.2374,1.44423 0.71222,1.95861c0.47482,0.51438 1.08152,0.77157 1.82012,0.77157h0.63308c0.2506,0 0.45503,0.08573 0.6133,0.25719c0.15827,0.17146 0.2374,0.39568 0.2374,0.67265c0,0.26379 -0.09233,0.48141 -0.27698,0.65287c-0.18465,0.15827 -0.42206,0.2374 -0.71222,0.2374zM183.57581,158.82401c-0.2374,0 -0.43525,-0.07254 -0.59351,-0.21762c-0.15827,-0.15827 -0.2374,-0.34951 -0.2374,-0.57373c0,-0.2374 0.07914,-0.42865 0.2374,-0.57373c0.15827,-0.14508 0.35611,-0.21762 0.59351,-0.21762h6.01431c0.2374,0 0.43525,0.07253 0.59351,0.21762c0.15827,0.14508 0.23741,0.33633 0.23741,0.57373c0,0.22422 -0.07914,0.41546 -0.23741,0.57373c-0.15827,0.14508 -0.35611,0.21762 -0.59351,0.21762zM205.8689,169.68537c-0.83093,0 -1.57611,-0.19783 -2.23558,-0.59351c-0.64627,-0.39568 -1.16066,-0.93644 -1.54315,-1.62228c-0.38249,-0.68584 -0.57373,-1.46401 -0.57373,-2.3345v-11.55379c0,-0.27697 0.07914,-0.5012 0.23741,-0.67266c0.17146,-0.17146 0.39568,-0.25719 0.67265,-0.25719c0.26379,0 0.48141,0.08573 0.65287,0.25719c0.17146,0.17146 0.25719,0.39568 0.25719,0.67266v11.55379c0,0.79136 0.2374,1.44423 0.71222,1.95861c0.47482,0.51438 1.08152,0.77157 1.82012,0.77157h0.63308c0.2506,0 0.45504,0.08573 0.6133,0.25719c0.15827,0.17146 0.23741,0.39568 0.23741,0.67265c0,0.26379 -0.09233,0.48141 -0.27698,0.65287c-0.18465,0.15827 -0.42206,0.2374 -0.71222,0.2374zM199.99308,158.82401c-0.2374,0 -0.43525,-0.07254 -0.59351,-0.21762c-0.15827,-0.15827 -0.23741,-0.34951 -0.23741,-0.57373c0,-0.2374 0.07914,-0.42865 0.23741,-0.57373c0.15827,-0.14508 0.35611,-0.21762 0.59351,-0.21762h6.0143c0.2374,0 0.43525,0.07253 0.59352,0.21762c0.15827,0.14508 0.23741,0.33633 0.23741,0.57373c0,0.22422 -0.07914,0.41546 -0.23741,0.57373c-0.15827,0.14508 -0.35611,0.21762 -0.59352,0.21762zM216.19586,169.80407c-1.26617,0 -2.39385,-0.28357 -3.38305,-0.85071c-0.98919,-0.56714 -1.76736,-1.34531 -2.3345,-2.3345c-0.56714,-0.98919 -0.85071,-2.11687 -0.85071,-3.38304c0,-1.27936 0.28357,-2.41363 0.85071,-3.40283c0.56714,-0.98919 1.3453,-1.76737 2.3345,-2.3345c0.98919,-0.56714 2.11688,-0.85071 3.38305,-0.85071c1.25298,0 2.37407,0.28357 3.36327,0.85071c0.98919,0.56714 1.76736,1.34531 2.3345,2.3345c0.56714,0.98919 0.8573,2.12347 0.87049,3.40283c0,1.26617 -0.29016,2.39385 -0.87049,3.38304c-0.56714,0.98919 -1.3453,1.76737 -2.3345,2.3345c-0.98919,0.56714 -2.11029,0.85071 -3.36327,0.85071zM216.19586,168.14223c0.91006,0 1.7278,-0.21103 2.4532,-0.63309c0.7254,-0.42206 1.29255,-1.00239 1.70141,-1.74098c0.40886,-0.7386 0.6133,-1.58271 0.6133,-2.53233c0,-0.94962 -0.20444,-1.79374 -0.6133,-2.53234c-0.40886,-0.75179 -0.97601,-1.33871 -1.70141,-1.76076c-0.7254,-0.43525 -1.54315,-0.65287 -2.4532,-0.65287c-0.91006,0 -1.7278,0.21762 -2.4532,0.65287c-0.7254,0.42206 -1.29914,1.00897 -1.7212,1.76076c-0.42206,0.7386 -0.63308,1.58272 -0.63308,2.53234c0,0.94962 0.21103,1.79373 0.63308,2.53233c0.42206,0.7386 0.99579,1.31893 1.7212,1.74098c0.7254,0.42206 1.54314,0.63309 2.4532,0.63309zM234.14341,175.20508c-0.27697,0 -0.50119,-0.08573 -0.67265,-0.25719c-0.17146,-0.15827 -0.2572,-0.3759 -0.2572,-0.65287v-11.15811c0.02638,-1.2266 0.32314,-2.3279 0.89028,-3.30391c0.58033,-0.98919 1.35849,-1.76737 2.3345,-2.3345c0.98919,-0.56714 2.09709,-0.85071 3.32369,-0.85071c1.26617,0 2.39385,0.29017 3.38305,0.8705c0.98919,0.56714 1.76736,1.3519 2.3345,2.35428c0.58033,0.98919 0.87049,2.11029 0.87049,3.36327c0,1.23979 -0.27697,2.36088 -0.83092,3.36326c-0.55395,0.98919 -1.31233,1.77396 -2.27515,2.35429c-0.96282,0.56714 -2.05093,0.85071 -3.26434,0.85071c-1.05515,0 -2.01136,-0.22422 -2.86866,-0.67265c-0.8573,-0.44843 -1.54974,-1.04195 -2.07731,-1.78055v6.94414c0,0.27697 -0.08573,0.4946 -0.25719,0.65287c-0.15827,0.17146 -0.3693,0.25719 -0.63309,0.25719zM239.76203,168.14223c0.91006,0 1.7278,-0.21103 2.4532,-0.63309c0.7254,-0.42206 1.29914,-1.00898 1.72119,-1.76077c0.42206,-0.75179 0.63309,-1.5893 0.63309,-2.51255c0,-0.94962 -0.21103,-1.79374 -0.63309,-2.53234c-0.42206,-0.7386 -0.99579,-1.32552 -1.72119,-1.76076c-0.7254,-0.43525 -1.54315,-0.65287 -2.4532,-0.65287c-0.89687,0 -1.70801,0.21762 -2.43342,0.65287c-0.7254,0.43525 -1.29255,1.02217 -1.70142,1.76076c-0.40886,0.7386 -0.6133,1.58272 -0.6133,2.53234c0,0.92325 0.20443,1.76076 0.6133,2.51255c0.40886,0.75179 0.97601,1.33871 1.70142,1.76077c0.7254,0.42206 1.53655,0.63309 2.43342,0.63309zM250.68588,161.73224c0.03957,-0.97601 0.29016,-1.8465 0.75179,-2.61147c0.47482,-0.77817 1.08152,-1.38487 1.82012,-1.82012c0.75179,-0.44843 1.58271,-0.67266 2.49277,-0.67266c0.7254,0 1.28595,0.10552 1.68163,0.31655c0.39568,0.19784 0.54736,0.4946 0.45503,0.89028c-0.06595,0.2374 -0.17806,0.39568 -0.33633,0.47481c-0.14508,0.06595 -0.32314,0.09232 -0.53416,0.07914c-0.21103,-0.01318 -0.44844,-0.02639 -0.71222,-0.03957c-0.88368,-0.07914 -1.66844,0.01319 -2.35429,0.27697c-0.68584,0.2506 -1.2332,0.64628 -1.64206,1.18704c-0.39568,0.54076 -0.59352,1.18044 -0.59352,1.91904zM250.82436,169.68537c-0.29016,0 -0.51438,-0.07914 -0.67265,-0.2374c-0.15827,-0.15827 -0.23741,-0.3759 -0.23741,-0.65287v-11.13833c0,-0.27697 0.07914,-0.4946 0.23741,-0.65287c0.15827,-0.15827 0.38249,-0.2374 0.67265,-0.2374c0.27697,0 0.4946,0.07914 0.65287,0.2374c0.15827,0.15827 0.2374,0.3759 0.2374,0.65287v11.13833c0,0.27697 -0.07914,0.4946 -0.2374,0.65287c-0.15827,0.15827 -0.3759,0.2374 -0.65287,0.2374zM265.66359,169.80407c-1.27936,0 -2.41363,-0.27698 -3.40283,-0.83093c-0.97601,-0.56714 -1.74758,-1.3453 -2.31471,-2.3345c-0.55395,-0.98919 -0.83092,-2.12347 -0.83092,-3.40283c0,-1.29255 0.26378,-2.42682 0.79135,-3.40283c0.52757,-0.98919 1.25298,-1.76737 2.17623,-2.3345c0.93644,-0.56714 2.01136,-0.85071 3.22477,-0.85071c1.18703,0 2.2224,0.27038 3.10608,0.81114c0.89687,0.54076 1.5893,1.29255 2.0773,2.25537c0.488,0.96282 0.73201,2.05752 0.73201,3.28412c0,0.2506 -0.07914,0.45503 -0.23741,0.6133c-0.15827,0.14508 -0.36271,0.21762 -0.6133,0.21762h-10.03044v-1.52336h10.22827l-1.00898,0.732c0.01319,-0.91006 -0.15827,-1.7278 -0.51438,-2.4532c-0.34292,-0.7254 -0.83092,-1.29255 -1.46401,-1.70141c-0.63308,-0.40886 -1.39147,-0.6133 -2.27515,-0.6133c-0.89687,0 -1.68822,0.21762 -2.37406,0.65287c-0.67265,0.42206 -1.19363,1.00897 -1.56293,1.76076c-0.3693,0.7386 -0.55394,1.58931 -0.55394,2.55213c0,0.96282 0.20443,1.81352 0.6133,2.55212c0.42206,0.7386 0.99579,1.32552 1.7212,1.76076c0.72541,0.42206 1.56293,0.63308 2.51255,0.63308c0.56714,0 1.13428,-0.09891 1.70141,-0.29675c0.58033,-0.19784 1.04195,-0.44843 1.38488,-0.75179c0.17146,-0.14508 0.36929,-0.21762 0.59351,-0.21762c0.22422,-0.01318 0.40887,0.04617 0.55395,0.17806c0.21103,0.18465 0.31654,0.38908 0.31654,0.6133c0.01319,0.21103 -0.07254,0.39568 -0.25719,0.55394c-0.52757,0.44843 -1.19362,0.81774 -1.99817,1.1079c-0.79136,0.29016 -1.55633,0.43525 -2.29494,0.43525zM278.82217,169.80407c-0.93644,0 -1.85969,-0.15828 -2.76975,-0.47482c-0.91006,-0.31654 -1.64866,-0.79136 -2.2158,-1.42444c-0.18465,-0.18465 -0.26379,-0.39568 -0.23741,-0.63308c0.03957,-0.2374 0.16487,-0.44184 0.37589,-0.6133c0.21103,-0.15827 0.43525,-0.21762 0.67265,-0.17806c0.23741,0.02638 0.43525,0.1253 0.59352,0.29676c0.38249,0.44843 0.88368,0.79136 1.50358,1.02876c0.61989,0.22422 1.31234,0.33633 2.07731,0.33633c1.16066,0 1.99817,-0.19784 2.51255,-0.59352c0.52757,-0.40886 0.79796,-0.89028 0.81114,-1.44422c0,-0.56714 -0.27038,-1.03536 -0.81114,-1.40466c-0.52757,-0.38249 -1.40465,-0.67265 -2.63126,-0.87049c-1.5959,-0.2506 -2.76315,-0.69244 -3.50175,-1.32552c-0.7386,-0.63308 -1.1079,-1.37828 -1.1079,-2.23558c0,-0.80454 0.21103,-1.47061 0.63308,-1.99818c0.42206,-0.54076 0.98919,-0.94303 1.70141,-1.20681c0.71222,-0.27697 1.49039,-0.41547 2.3345,-0.41547c1.05514,0 1.9652,0.18466 2.73018,0.55395c0.76497,0.35611 1.38488,0.83752 1.85969,1.44422c0.15827,0.21103 0.21762,0.42865 0.17805,0.65287c-0.02638,0.21103 -0.15167,0.38908 -0.37589,0.53417c-0.18465,0.10551 -0.40228,0.13848 -0.65287,0.09891c-0.23741,-0.03957 -0.44184,-0.15167 -0.6133,-0.33632c-0.39568,-0.44843 -0.8573,-0.77817 -1.38487,-0.98919c-0.51438,-0.22422 -1.1079,-0.33633 -1.78055,-0.33633c-0.87049,0 -1.56952,0.17806 -2.09709,0.53417c-0.51438,0.35611 -0.77158,0.80454 -0.77158,1.3453c0,0.35611 0.09892,0.67265 0.29676,0.94963c0.19784,0.26379 0.53417,0.50119 1.00898,0.71222c0.488,0.19784 1.16725,0.36271 2.03774,0.4946c1.17384,0.19784 2.10369,0.48141 2.78953,0.85071c0.68584,0.36929 1.17384,0.80454 1.464,1.30574c0.29016,0.488 0.43525,1.02217 0.43525,1.6025c0,0.7386 -0.21762,1.39147 -0.65287,1.95861c-0.42206,0.55395 -1.01557,0.98919 -1.78055,1.30573c-0.76497,0.31654 -1.64207,0.47482 -2.63126,0.47482zM292.08858,169.68537c-0.83092,0 -1.57612,-0.19783 -2.23558,-0.59351c-0.64627,-0.39568 -1.16065,-0.93644 -1.54314,-1.62228c-0.38249,-0.68584 -0.57373,-1.46401 -0.57373,-2.3345v-11.55379c0,-0.27697 0.07914,-0.5012 0.23741,-0.67266c0.17146,-0.17146 0.39568,-0.25719 0.67265,-0.25719c0.26378,0 0.4814,0.08573 0.65287,0.25719c0.17146,0.17146 0.25719,0.39568 0.25719,0.67266v11.55379c0,0.79136 0.23741,1.44423 0.71222,1.95861c0.47481,0.51438 1.08152,0.77157 1.82012,0.77157h0.63308c0.25059,0 0.45503,0.08573 0.6133,0.25719c0.15827,0.17146 0.23741,0.39568 0.23741,0.67265c0,0.26379 -0.09232,0.48141 -0.27697,0.65287c-0.18465,0.15827 -0.42206,0.2374 -0.71222,0.2374zM286.21277,158.82401c-0.23741,0 -0.43525,-0.07254 -0.59352,-0.21762c-0.15827,-0.15827 -0.23741,-0.34951 -0.23741,-0.57373c0,-0.2374 0.07914,-0.42865 0.23741,-0.57373c0.15827,-0.14508 0.35611,-0.21762 0.59352,-0.21762h6.01431c0.23741,0 0.43524,0.07253 0.59351,0.21762c0.15827,0.14508 0.23741,0.33633 0.23741,0.57373c0,0.22422 -0.07914,0.41546 -0.23741,0.57373c-0.15827,0.14508 -0.35611,0.21762 -0.59351,0.21762zM297.82568,169.68537c-0.27697,0 -0.50119,-0.07914 -0.67265,-0.2374c-0.15827,-0.17146 -0.23741,-0.40228 -0.23741,-0.69244v-11.07898c0,-0.27697 0.07914,-0.4946 0.23741,-0.65287c0.17146,-0.17146 0.39567,-0.25719 0.67265,-0.25719c0.26378,0 0.48141,0.08573 0.65287,0.25719c0.17146,0.15827 0.25719,0.37589 0.25719,0.65287v11.07898c0,0.29016 -0.08573,0.52098 -0.25719,0.69244c-0.17146,0.15827 -0.38909,0.2374 -0.65287,0.2374zM297.90481,154.31328c-0.35611,0 -0.65947,-0.12529 -0.91006,-0.37589c-0.25059,-0.26379 -0.37589,-0.57373 -0.37589,-0.92985c0,-0.39568 0.13189,-0.70562 0.39567,-0.92985c0.26378,-0.22422 0.56714,-0.33633 0.91006,-0.33633c0.32973,0 0.6199,0.11211 0.87049,0.33633c0.26378,0.22422 0.39568,0.53417 0.39568,0.92985c0,0.35611 -0.1253,0.66606 -0.3759,0.92985c-0.25059,0.2506 -0.55395,0.37589 -0.91006,0.37589zM309.04446,169.80407c-1.23979,0 -2.3411,-0.27698 -3.30391,-0.83093c-0.96281,-0.56714 -1.71461,-1.3453 -2.25536,-2.3345c-0.54076,-0.98919 -0.81114,-2.12347 -0.81114,-3.40283c0,-1.29255 0.28357,-2.43342 0.85071,-3.42262c0.56714,-0.98919 1.3453,-1.76077 2.3345,-2.31472c0.98919,-0.56714 2.11687,-0.85071 3.38304,-0.85071c1.26617,0 2.39385,0.28357 3.38305,0.85071c0.98919,0.55395 1.76076,1.32552 2.31471,2.31472c0.56714,0.98919 0.8573,2.13007 0.87049,3.42262l-1.06833,0.57373c0,1.16065 -0.24401,2.19601 -0.73201,3.10607c-0.488,0.89687 -1.16065,1.6025 -2.01796,2.11688c-0.8573,0.51438 -1.8399,0.77157 -2.9478,0.77157zM309.28187,174.78961c-1.23979,0 -2.3345,-0.2374 -3.28413,-0.71222c-0.93644,-0.46162 -1.71461,-1.08811 -2.3345,-1.87947c-0.17146,-0.19784 -0.25059,-0.40886 -0.23741,-0.63308c0.02638,-0.21103 0.14508,-0.38908 0.35611,-0.53417c0.19784,-0.14508 0.42206,-0.19784 0.67265,-0.15827c0.26378,0.05275 0.46163,0.17806 0.59352,0.3759c0.46163,0.56714 1.04854,1.02217 1.76076,1.36509c0.72541,0.34293 1.55633,0.51438 2.49277,0.51438c0.88368,0 1.68163,-0.21103 2.39385,-0.63308c0.71222,-0.42206 1.27276,-1.02217 1.68163,-1.80034c0.42206,-0.76497 0.63308,-1.66844 0.63308,-2.71039v-3.58088l0.69244,-1.38487l1.1079,0.21762v4.82727c0,1.26617 -0.28357,2.40703 -0.85071,3.42261c-0.56714,1.01558 -1.33871,1.82012 -2.31472,2.41363c-0.97601,0.59351 -2.09709,0.89028 -3.36326,0.89028zM309.2423,168.14223c0.92325,0 1.74098,-0.20444 2.4532,-0.6133c0.72541,-0.42206 1.29255,-1.00239 1.70141,-1.74098c0.40886,-0.7386 0.6133,-1.5893 0.6133,-2.55212c0,-0.96282 -0.20443,-1.81353 -0.6133,-2.55213c-0.40886,-0.75179 -0.97601,-1.33871 -1.70141,-1.76076c-0.71222,-0.42206 -1.52996,-0.63308 -2.4532,-0.63308c-0.93644,0 -1.76736,0.21103 -2.49277,0.63308c-0.72541,0.42206 -1.29255,1.00897 -1.70141,1.76076c-0.40886,0.7386 -0.6133,1.58931 -0.6133,2.55213c0,0.96282 0.20444,1.81352 0.6133,2.55212c0.40886,0.7386 0.97601,1.31893 1.70141,1.74098c0.72541,0.40886 1.55633,0.6133 2.49277,0.6133zM325.21459,169.80407c-1.27936,0 -2.41363,-0.27698 -3.40283,-0.83093c-0.97601,-0.56714 -1.74758,-1.3453 -2.31471,-2.3345c-0.55395,-0.98919 -0.83093,-2.12347 -0.83093,-3.40283c0,-1.29255 0.26379,-2.42682 0.79136,-3.40283c0.52757,-0.98919 1.25298,-1.76737 2.17623,-2.3345c0.93644,-0.56714 2.01136,-0.85071 3.22477,-0.85071c1.18703,0 2.22239,0.27038 3.10607,0.81114c0.89687,0.54076 1.58931,1.29255 2.07731,2.25537c0.488,0.96282 0.73201,2.05752 0.73201,3.28412c0,0.2506 -0.07914,0.45503 -0.23741,0.6133c-0.15827,0.14508 -0.36271,0.21762 -0.6133,0.21762h-10.03043v-1.52336h10.22827l-1.00898,0.732c0.01319,-0.91006 -0.15827,-1.7278 -0.51438,-2.4532c-0.34292,-0.7254 -0.83092,-1.29255 -1.46401,-1.70141c-0.63308,-0.40886 -1.39147,-0.6133 -2.27515,-0.6133c-0.89687,0 -1.68822,0.21762 -2.37406,0.65287c-0.67265,0.42206 -1.19363,1.00897 -1.56293,1.76076c-0.3693,0.7386 -0.55395,1.58931 -0.55395,2.55213c0,0.96282 0.20444,1.81352 0.61331,2.55212c0.42206,0.7386 0.99579,1.32552 1.7212,1.76076c0.72541,0.42206 1.56293,0.63308 2.51255,0.63308c0.56714,0 1.13428,-0.09891 1.70141,-0.29675c0.58033,-0.19784 1.04195,-0.44843 1.38488,-0.75179c0.17146,-0.14508 0.36929,-0.21762 0.59351,-0.21762c0.22422,-0.01318 0.40887,0.04617 0.55395,0.17806c0.21103,0.18465 0.31654,0.38908 0.31654,0.6133c0.01319,0.21103 -0.07254,0.39568 -0.25719,0.55394c-0.52757,0.44843 -1.19363,0.81774 -1.99818,1.1079c-0.79136,0.29016 -1.55633,0.43525 -2.29493,0.43525zM338.17532,165.51097c-0.26378,0 -0.488,-0.08573 -0.67265,-0.25719c-0.17146,-0.18465 -0.2572,-0.41546 -0.2572,-0.69244c0,-0.63308 0.15168,-1.31233 0.45503,-2.03774c0.31654,-0.7254 0.75179,-1.34531 1.30574,-1.85969c0.488,-0.46162 0.94963,-0.90346 1.38487,-1.32552c0.44844,-0.42206 0.80455,-0.89028 1.06833,-1.40465c0.27697,-0.52757 0.41546,-1.18703 0.41546,-1.97839c0,-0.60671 -0.15168,-1.16725 -0.45503,-1.68163c-0.29016,-0.51438 -0.70562,-0.91666 -1.24638,-1.20682c-0.54076,-0.30336 -1.17385,-0.45503 -1.89925,-0.45503c-0.79136,0 -1.47061,0.16487 -2.03774,0.4946c-0.56714,0.31654 -1.00238,0.75839 -1.30574,1.32552c-0.30336,0.56714 -0.45503,1.22 -0.45503,1.9586c0,0.26379 -0.08573,0.48141 -0.25719,0.65287c-0.17146,0.15827 -0.38908,0.2374 -0.65287,0.2374c-0.26378,0 -0.48141,-0.07914 -0.65287,-0.2374c-0.17146,-0.17146 -0.25719,-0.38908 -0.25719,-0.65287c0,-1.09471 0.23081,-2.05093 0.69243,-2.86866c0.47481,-0.83093 1.13428,-1.48379 1.97839,-1.95861c0.84411,-0.47482 1.82672,-0.71222 2.9478,-0.71222c1.04195,0 1.97179,0.22422 2.78953,0.67266c0.81774,0.44843 1.45741,1.06833 1.91904,1.85968c0.47481,0.77817 0.71222,1.66845 0.71222,2.67083c0,0.88368 -0.15827,1.63547 -0.47481,2.25536c-0.30336,0.60671 -0.71222,1.16725 -1.22661,1.68163c-0.51438,0.51438 -1.08152,1.05514 -1.70141,1.62228c-0.488,0.43525 -0.81114,0.92984 -0.96941,1.48379c-0.14508,0.55395 -0.21762,1.04195 -0.21762,1.46401c0,0.27697 -0.09233,0.50779 -0.27697,0.69244c-0.17146,0.17146 -0.38909,0.25719 -0.65287,0.25719zM338.17532,169.68537c-0.39568,0 -0.72541,-0.13189 -0.98919,-0.39568c-0.25059,-0.27697 -0.3759,-0.60011 -0.3759,-0.96941c0,-0.39568 0.1319,-0.72541 0.39568,-0.9892c0.26378,-0.27697 0.58692,-0.41546 0.96941,-0.41546c0.38249,0 0.70562,0.13849 0.96941,0.41546c0.27697,0.26379 0.41547,0.59352 0.41547,0.9892c0,0.36929 -0.13849,0.69243 -0.41547,0.96941c-0.26378,0.26379 -0.58692,0.39568 -0.96941,0.39568z"/></g><path d="M192.36153,210.89167l-16.34576,16.34577c-0.66452,0.66438 -1.53528,0.99647 -2.40617,0.99647c-0.87091,0 -1.7418,-0.33209 -2.40615,-0.99647l-8.70871,-8.70871c-1.32891,-1.32872 -1.32872,-3.48329 0,-4.81218c1.32872,-1.32889 3.48327,-1.32889 4.81218,0l6.30271,6.30288l13.93977,-13.93994c1.32872,-1.32889 3.48327,-1.32889 4.81218,0c1.32891,1.32889 1.32891,3.48346 0,4.81218z" fill="#ffffff" fill-rule="nonzero" stroke="none" stroke-width="1" stroke-linecap="butt" stroke-linejoin="miter"/><g fill="#ffffff" fill-rule="nonzero" stroke="none" stroke-width="1" stroke-linecap="butt" stroke-linejoin="miter"><path d="M307.29199,227.82761c-0.92447,0 -1.98102,-0.39622 -2.7734,-1.18861l-15.58392,-15.58393c-1.45272,-1.45274 -1.45272,-3.96204 0,-5.41478c1.45272,-1.45274 3.96203,-1.45274 5.41478,0l15.716,15.71602c1.45272,1.45274 1.45272,3.96203 0,5.41478c-0.7924,0.66034 -1.71686,1.05654 -2.7734,1.05654z"/><path d="M311.13844,208.41376c0,0.92448 -0.39622,1.98102 -1.18861,2.7734l-15.58396,15.58393c-1.45272,1.45274 -3.96203,1.45274 -5.4148,0c-1.45272,-1.45274 -1.45272,-3.96203 0,-5.41478l15.71602,-15.71602c1.45272,-1.45274 3.96204,-1.45274 5.41478,0c0.7924,0.79241 1.05654,1.71688 1.05654,2.7734z"/></g></g></g></svg>