<svg version="1.1" xmlns="http://www.w3.org/2000/svg" xmlns:xlink="http://www.w3.org/1999/xlink" width="72.85821" height="101.98456" viewBox="0,0,72.85821,101.98456"><g transform="translate(-203.5709,-129.00772)"><g data-paper-data="{&quot;isPaintingLayer&quot;:true}" fill="#ffffff" fill-rule="nonzero" stroke-linecap="square" stroke-linejoin="miter" stroke-miterlimit="10" stroke-dasharray="" stroke-dashoffset="0" style="mix-blend-mode: normal"><path d="M273.92912,196.78379c0,8.95135 -3.23628,16.49116 -9.70879,22.61941c-6.40366,6.05938 -14.18447,9.08908 -23.3424,9.08908c-11.56792,0 -20.27829,-3.71826 -26.13109,-11.15477c-5.78395,-7.43652 -8.67593,-16.83544 -8.67593,-28.19679c0,-16.38786 4.68226,-30.09036 14.04675,-41.10741c9.36449,-11.01705 22.13742,-16.52559 38.31871,-16.52559c3.58054,0 6.33483,0.51643 8.26279,1.54928c1.92798,0.96401 3.20183,2.47884 3.82154,4.54453c0.61971,1.99686 0.92957,4.30353 0.92957,6.92009c0,2.61657 -0.24101,4.78555 -0.72299,6.50696c-0.48199,1.65256 -1.17057,3.0297 -2.0657,4.1314c-0.82628,1.03285 -1.96241,1.79028 -3.40841,2.27227c-1.72141,0.55086 -4.26912,0.82628 -7.64308,0.82628c-3.30511,0 -6.40366,0.55086 -9.29564,1.65256c-2.89198,1.03285 -5.12981,2.23784 -6.71352,3.61497c-3.23628,3.0297 -5.19869,5.71512 -5.88725,8.05622l-1.65256,-0.41314c1.79028,-2.13454 4.3724,-3.20183 7.74636,-3.20183c8.74478,0 16.28458,2.96083 22.61941,8.8825c6.33483,5.8528 9.50221,12.49748 9.50221,19.93399zM240.36151,203.29073c4.68226,0 7.02337,-1.92798 7.02337,-5.78395c0,-1.30827 -0.51643,-2.51327 -1.54928,-3.61497c-0.96401,-1.17057 -2.6854,-1.75585 -5.16424,-1.75585c-2.47884,0 -4.30353,0.55086 -5.4741,1.65256c-1.17057,1.1017 -1.75585,2.20342 -1.75585,3.30511c0,1.03285 0.06885,1.85913 0.20657,2.47884c0.13772,0.61971 0.44758,1.30827 0.92957,2.0657c0.68856,1.1017 2.61657,1.65256 5.78395,1.65256z" stroke="#28a5da" stroke-width="5"/><path d="M273.92912,196.78379c0,8.95135 -3.23628,16.49116 -9.70879,22.61941c-6.40366,6.05938 -14.18447,9.08908 -23.3424,9.08908c-11.56792,0 -20.27829,-3.71826 -26.13109,-11.15477c-5.78395,-7.43652 -8.67593,-16.83544 -8.67593,-28.19679c0,-16.38786 4.68226,-30.09036 14.04675,-41.10741c9.36449,-11.01705 22.13742,-16.52559 38.31871,-16.52559c3.58054,0 6.33483,0.51643 8.26279,1.54928c1.92798,0.96401 3.20183,2.47884 3.82154,4.54453c0.61971,1.99686 0.92957,4.30353 0.92957,6.92009c0,2.61657 -0.24101,4.78555 -0.72299,6.50696c-0.48199,1.65256 -1.17057,3.0297 -2.0657,4.1314c-0.82628,1.03285 -1.96241,1.79028 -3.40841,2.27227c-1.72141,0.55086 -4.26912,0.82628 -7.64308,0.82628c-3.30511,0 -6.40366,0.55086 -9.29564,1.65256c-2.89198,1.03285 -5.12981,2.23784 -6.71352,3.61497c-3.23628,3.0297 -5.19869,5.71512 -5.88725,8.05622l-1.65256,-0.41314c1.79028,-2.13454 4.3724,-3.20183 7.74636,-3.20183c8.74478,0 16.28458,2.96083 22.61941,8.8825c6.33483,5.8528 9.50221,12.49748 9.50221,19.93399zM240.36151,203.29073c4.68226,0 7.02337,-1.92798 7.02337,-5.78395c0,-1.30827 -0.51643,-2.51327 -1.54928,-3.61497c-0.96401,-1.17057 -2.6854,-1.75585 -5.16424,-1.75585c-2.47884,0 -4.30353,0.55086 -5.4741,1.65256c-1.17057,1.1017 -1.75585,2.20342 -1.75585,3.30511c0,1.03285 0.06885,1.85913 0.20657,2.47884c0.13772,0.61971 0.44758,1.30827 0.92957,2.0657c0.68856,1.1017 2.61657,1.65256 5.78395,1.65256z" stroke="none" stroke-width="1"/></g></g></svg>