<svg version="1.1" xmlns="http://www.w3.org/2000/svg" xmlns:xlink="http://www.w3.org/1999/xlink" width="5.16" height="5.16" viewBox="0,0,5.16,5.16"><defs><linearGradient x1="239.99999" y1="178.30247" x2="239.99999" y2="181.2955" gradientUnits="userSpaceOnUse" id="color-1"><stop offset="0" stop-color="#ffb64d"/><stop offset="1" stop-color="#ffcb4a"/></linearGradient></defs><g transform="translate(-237.42,-177.42)"><g data-paper-data="{&quot;isPaintingLayer&quot;:true}" fill-rule="nonzero" stroke="none" stroke-width="0" stroke-linecap="butt" stroke-linejoin="miter" stroke-miterlimit="10" stroke-dasharray="" stroke-dashoffset="0" style="mix-blend-mode: normal"><path d="M237.42,182.58v-5.16h5.16v5.16z" fill="none"/><path d="M241.68614,180.47094c-0.27615,-0.26194 -0.43329,-0.54347 -0.37507,-0.60486c0.05824,-0.06139 0.28226,0.18654 0.55841,0.44847c0.27615,0.26194 0.49983,0.43872 0.44158,0.50013c-0.05824,0.06139 -0.34879,-0.08178 -0.62494,-0.34374z" data-paper-data="{&quot;index&quot;:null}" fill="#693a00"/><path d="M240.18168,181.11495c0.15739,0.24703 0.15259,0.47501 0.09891,0.50921c-0.05368,0.03421 -0.13589,-0.20501 -0.29328,-0.45203c-0.15739,-0.24703 -0.33037,-0.40834 -0.27669,-0.44254c0.05368,-0.03421 0.31367,0.13834 0.47106,0.38536z" fill="#693a00"/><path d="M240.0516,181.14948c-0.16145,0.2444 -0.55759,0.41409 -0.6107,0.37901c-0.05311,-0.03509 0.25694,-0.26165 0.41839,-0.50604c0.16145,-0.2444 0.33537,-0.41409 0.38848,-0.37901c0.05311,0.03509 -0.03472,0.26165 -0.19617,0.50604z" fill="#693a00"/><path d="M238.20919,179.73474c0.00424,-0.89071 0.12366,-1.26994 0.75134,-1.36457c0.02528,-0.00125 0.07919,-0.0074 0.07919,-0.0074l0.14352,0.21527l0.50513,-0.04115l0.15524,-0.20589c0,0 0.26948,-0.0169 0.40396,-0.01864c1.49836,-0.04209 1.55583,-0.01215 1.54202,1.39881c-0.01384,1.41424 0.00092,1.40353 -1.80322,1.41956c-0.05705,0.00051 -0.0409,-0.00571 -0.0409,-0.00571l-0.14484,0.16966l-0.466,0.00082l-0.13092,-0.22431c0,0 -0.03378,-0.01934 -0.06891,-0.02362c-0.86082,-0.03895 -0.93041,-0.30205 -0.92561,-1.31284z" fill="url(#color-1)"/><path d="M238.92561,179.8396c0.00356,-0.78491 0.01684,-0.94 0.48307,-1.00259c0.04447,-0.00597 0.05407,0.01211 0.05407,0.01211l0.13414,0.16771l0.40151,-0.02892l0.1334,-0.20827c0,0 0.06775,-0.01001 0.09243,-0.01034c1.33347,-0.01806 1.32775,-0.02868 1.31766,1.05223c0.00624,0.65562 0.01702,0.74464 -1.30131,0.75692c-1.2999,0.0121 -1.31996,-0.00968 -1.31497,-0.73886z" fill="#e2d2a3"/><path d="M238.94146,179.49475c-0.00886,-0.17564 0.16945,-0.52943 0.45878,-0.52062c0.04502,0.00137 0.04083,-0.01091 0.04083,-0.01091l0.20444,0.1945l0.35716,-0.02307l0.14541,-0.20261c0,0 0.10686,-0.03383 0.12014,-0.03383c0.51792,0 0.93343,0.05643 1.26411,0.47026c0.25262,0.31616 -1.94717,1.02066 -2.53392,0.79715c-0.13165,-0.05015 -0.05694,-0.67087 -0.05694,-0.67087z" fill="#ffedb8"/><path d="M238.92757,179.90028c0.00076,-0.16603 0.00194,-0.28693 0.00776,-0.40562c0.0032,-0.06538 2.62144,-0.13755 2.62434,-0.03973c0.00354,0.1195 0.00209,0.26065 0.00054,0.42729c0.00624,0.65562 -0.01012,0.74464 -1.40093,0.7914c-0.01677,0.00016 -0.11074,0.00811 -0.11074,0.00811l-0.12274,0.20238l-0.38438,0.00174l-0.13706,-0.21756c0,0 -0.06599,-0.01628 -0.09527,-0.01784c-0.33027,-0.04251 -0.38532,-0.19301 -0.38151,-0.75016z" fill="#ffedb8"/><path d="M239.85229,179.71966c0,0.16266 -0.06701,0.29451 -0.14967,0.29451c-0.08266,0 -0.14967,-0.13186 -0.14967,-0.29451c0,-0.16266 0.06701,-0.29451 0.14967,-0.29451c0.08266,0 0.14967,0.13186 0.14967,0.29451z" fill="#693a00"/><path d="M241.20955,179.7567c0,0.16265 -0.06701,0.29451 -0.14967,0.29451c-0.08266,0 -0.14966,-0.13186 -0.14966,-0.29451c0,-0.16265 0.067,-0.29451 0.14966,-0.29451c0.08266,0 0.14967,0.13186 0.14967,0.29451z" fill="#693a00"/><path d="M240.72205,179.93534c0,0 -0.13186,0.12553 -0.29451,0.12553c-0.16265,0 -0.29451,-0.12553 -0.29451,-0.12553z" fill="#b46300"/><path d="M238.68848,179.80954c0.0537,0.0654 -0.18208,0.22571 -0.47626,0.46721c-0.29419,0.24151 -0.53539,0.47277 -0.58909,0.40736c-0.0537,-0.0654 0.12323,-0.33496 0.41741,-0.57646c0.29419,-0.24151 0.59424,-0.36352 0.64794,-0.29813z" fill="#693a00"/></g></g></svg>