<svg version="1.1" xmlns="http://www.w3.org/2000/svg" xmlns:xlink="http://www.w3.org/1999/xlink" width="134" height="134" viewBox="0,0,134,134"><g transform="translate(-173,-113)"><g data-paper-data="{&quot;isPaintingLayer&quot;:true}" fill-rule="nonzero" stroke-linecap="butt" stroke-linejoin="miter" stroke-miterlimit="10" stroke-dasharray="" stroke-dashoffset="0" style="mix-blend-mode: normal"><path d="M223.97847,168.91457c5.67568,-0.82347 18.17588,-2.63705 27.98051,-4.05954c7.55393,-1.09598 13.4144,3.23571 15.32762,10.58317c1.91322,7.34745 -2.50383,14.15544 -8.65354,15.04767c-10.71292,1.55428 -26.54244,3.85091 -32.8047,4.75944c-5.09019,0.73851 -13.03055,-4.60676 -13.53789,-11.82802c-0.50734,-7.22126 5.95436,-13.67086 11.688,-14.50272z" fill="#59c059" stroke="#ffffff" stroke-width="5"/><path d="M223.97847,168.91457c5.67568,-0.82347 18.17588,-2.63705 27.98051,-4.05954c7.55393,-1.09598 13.4144,3.23572 15.32762,10.58317c1.91322,7.34745 -2.50383,14.15544 -8.65354,15.04767c-10.71292,1.55428 -26.54244,3.85091 -32.8047,4.75944c-5.09019,0.73851 -13.03055,-4.60677 -13.53789,-11.82802c-0.50734,-7.22125 5.95436,-13.67086 11.688,-14.50272z" fill="#ff6680" stroke="none" stroke-width="0"/><path d="M233.71537,179.51128c0,2.52415 -1.11612,4.57039 -2.49294,4.57039c-1.37682,0 -2.49294,-2.04624 -2.49294,-4.57039c0,-2.52415 1.11612,-4.57039 2.49294,-4.57039c1.37682,0 2.49294,2.04624 2.49294,4.57039z" fill="#ffffff" stroke="none" stroke-width="0"/><path d="M254.2129,177.84932c0,2.52417 -1.11612,4.57039 -2.49294,4.57039c-1.37682,0 -2.49294,-2.04622 -2.49294,-4.57039c0,-2.52417 1.11612,-4.57039 2.49294,-4.57039c1.37682,0 2.49294,2.04622 2.49294,4.57039z" fill="#ffffff" stroke="none" stroke-width="0"/><path d="M245.86027,177.99903c0,0 -0.45065,4.83189 -3.04374,5.91498c-2.5931,1.08309 -5.4346,0.19091 -6.34669,-1.99274c-0.91207,-2.18366 0.30477,-4.88281 0.30477,-4.88281c0,0 2.17098,0.88979 5.51811,1.28968c1.21451,0.1451 3.56755,-0.3291 3.56755,-0.3291z" data-paper-data="{&quot;index&quot;:null}" fill="#ffffff" stroke="none" stroke-width="0"/><path d="M173,247v-134h134v134z" fill="none" stroke="none" stroke-width="0"/></g></g></svg>