<svg version="1.1" xmlns="http://www.w3.org/2000/svg" xmlns:xlink="http://www.w3.org/1999/xlink" width="52.5" height="52.5" viewBox="0,0,52.5,52.5"><g transform="translate(-190.36566,-95.88366)"><g data-paper-data="{&quot;isPaintingLayer&quot;:true}" fill-rule="nonzero" stroke-linecap="butt" stroke-linejoin="miter" stroke-miterlimit="10" stroke-dasharray="" stroke-dashoffset="0" style="mix-blend-mode: normal"><path d="M191.61567,122.13366c0,-13.80712 11.19288,-25 25,-25c13.80712,0 25,11.19288 25,25c0,13.80712 -11.19288,25 -25,25c-13.80712,0 -25,-11.19288 -25,-25z" fill="#ffaf4d" stroke="#ffffff" stroke-width="2.5"/><path d="M200.60258,122.83764c0,-1.69271 5.24753,-14.17023 9.77432,-12.88819c15.65296,4.4331 17.50007,1.656 20.80214,0.37472c6.26973,-2.4328 8.274,9.55485 8.274,12.51347c0,10.10533 -8.69697,18.29731 -19.42523,18.29731c-10.72826,0 -19.42523,-8.19198 -19.42523,-18.29731z" fill="#ffedb8" stroke="none" stroke-width="0"/><path d="M227.49836,124.83771c0,0 -2.03907,1.27626 -3.23781,1.27548c-2.93858,-0.25141 -4.47682,-2.45454 -4.47682,-2.45454c0,0 2.14998,0.77054 3.35561,0.9548c1.34963,0.20627 4.35903,0.22426 4.35903,0.22426z" data-paper-data="{&quot;index&quot;:null}" fill="#b46300" stroke="none" stroke-width="0"/><path d="M217.62549,122.93899c0,1.92683 -0.86778,3.48884 -1.93824,3.48884c-1.07046,0 -1.93824,-1.56201 -1.93824,-3.48884c0,-0.89053 0.44435,-3.93189 1.28182,-3.62127c2.92963,1.08662 2.59466,2.58496 2.59466,3.62127z" fill="#693a00" stroke="none" stroke-width="0"/><path d="M233.28649,124.41205c0,1.54147 -0.72894,2.79107 -1.62812,2.79107c-0.89919,0 -1.62812,-1.2496 -1.62812,-2.79107c0,-0.92003 0.2134,-1.87345 2.60497,-2.78744c0.60073,-0.22958 0.65127,2.166 0.65127,2.78744z" fill="#693a00" stroke="none" stroke-width="0"/></g></g></svg>