<svg version="1.1" xmlns="http://www.w3.org/2000/svg" xmlns:xlink="http://www.w3.org/1999/xlink" width="134" height="134" viewBox="0,0,134,134"><defs><radialGradient cx="240" cy="179.99999" r="27.08679" gradientUnits="userSpaceOnUse" id="color-1"><stop offset="0" stop-color="#fff7d8"/><stop offset="1" stop-color="#fff7d8" stop-opacity="0"/></radialGradient><linearGradient x1="240.38894" y1="163.78063" x2="240.38894" y2="191.92349" gradientUnits="userSpaceOnUse" id="color-2"><stop offset="0" stop-color="#fff75c"/><stop offset="1" stop-color="#ffd363"/></linearGradient></defs><g transform="translate(-173,-113)"><g data-paper-data="{&quot;isPaintingLayer&quot;:true}" fill-rule="nonzero" stroke-linecap="butt" stroke-linejoin="miter" stroke-miterlimit="10" stroke-dasharray="" stroke-dashoffset="0" style="mix-blend-mode: normal"><path d="M212.91322,179.99999c0,-14.95962 12.12717,-27.08678 27.08678,-27.08678c14.95962,0 27.08678,12.12717 27.08678,27.08679c0,14.95962 -12.12717,27.08679 -27.08678,27.08679c-14.95962,0 -27.08678,-12.12717 -27.08678,-27.08678z" fill="url(#color-1)" stroke="none" stroke-width="0"/><path d="" fill="#ffaf4d" stroke="none" stroke-width="0.5"/><path d="" fill="#ffedb8" stroke="none" stroke-width="0"/><path d="" fill="#693a00" stroke="none" stroke-width="0"/><path d="" data-paper-data="{&quot;index&quot;:null}" fill="#693a00" stroke="none" stroke-width="0"/><path d="" fill="#b46300" stroke="none" stroke-width="0"/><g><path d="M223.88894,191.92349v-28.14286c0,0 5.75092,14.71429 8.57143,14.71429c2.74909,0 8.14286,-14.71429 8.14286,-14.71429c0,0 5.07524,14.85714 7.85714,14.85714c2.63914,0 8.42857,-14.85714 8.42857,-14.85714v28.14286z" fill="url(#color-2)" stroke="#ffffff" stroke-width="2.5"/><path d="M223.88894,191.92349v-14.85715c0,0 5.75092,7.76795 8.57143,7.76795c2.74909,0 8.14286,-7.76795 8.14286,-7.76795c0,0 5.07524,7.84336 7.85714,7.84336c2.63914,0 8.42857,-7.84336 8.42857,-7.84336v14.85715z" fill="#fff75c" stroke="none" stroke-width="0"/></g><g fill="none"><path d="M223.88895,191.92348v-28.14286c0,0 1.6081,4.11448 3.54064,7.992c1.72206,3.45522 3.70175,6.72229 5.03079,6.72229c2.74909,0 8.14286,-14.71429 8.14286,-14.71429c0,0 5.07524,14.85714 7.85714,14.85714c2.63914,0 8.42857,-14.85714 8.42857,-14.85714v28.14286z" stroke="#ffffff" stroke-width="2.5"/><path d="M223.88895,191.92348v-14.85715c0,0 5.75092,7.76795 8.57143,7.76795c2.74909,0 8.14286,-7.76795 8.14286,-7.76795c0,0 5.07524,7.84336 7.85714,7.84336c2.63914,0 8.42857,-7.84336 8.42857,-7.84336v14.85715z" stroke="none" stroke-width="0"/></g><path d="M173,247v-134h134v134z" fill="none" stroke="none" stroke-width="0"/></g></g></svg>