<svg version="1.1" xmlns="http://www.w3.org/2000/svg" xmlns:xlink="http://www.w3.org/1999/xlink" width="215" height="215" viewBox="0,0,215,215"><g transform="translate(-132.5,-72.5)"><g data-paper-data="{&quot;isPaintingLayer&quot;:true}" fill-rule="nonzero" stroke="none" stroke-linejoin="miter" stroke-miterlimit="10" stroke-dasharray="" stroke-dashoffset="0" style="mix-blend-mode: normal"><path d="M245.01886,169.65448c1.30995,0 2.0833,0.35512 2.32004,1.06533c0.11048,0.29988 0.16572,0.8286 0.16572,1.58615c0,0.75757 -0.24463,1.69663 -0.73388,2.8172c-0.48926,1.12056 -1.08111,2.23324 -1.77554,3.33803c-0.67866,1.089 -1.37308,2.1859 -2.0833,3.29068c-1.65718,2.69882 -2.48575,4.86892 -2.48575,6.51033c0,0.41034 -0.01579,0.71811 -0.04735,0.92329c-0.03156,0.18938 -0.12625,0.39457 -0.28409,0.61552c-0.14205,0.20518 -0.39457,0.34723 -0.75757,0.42613c-0.34723,0.07891 -0.8207,0.11838 -1.42043,0.11838c-0.59973,0 -1.07321,-0.03945 -1.42043,-0.11836c-0.34723,-0.07891 -0.59973,-0.22885 -0.75757,-0.44979c-0.14205,-0.22095 -0.22885,-0.42613 -0.26041,-0.61552c-0.03156,-0.20518 -0.04735,-0.52872 -0.04735,-0.97062c0,-1.21525 0.20518,-2.46998 0.61552,-3.76414c0.42613,-1.29418 0.93117,-2.4463 1.51513,-3.45639c0.58397,-1.02587 1.16791,-1.96492 1.75186,-2.81718c0.58397,-0.86805 1.08111,-1.60193 1.49146,-2.20166c0.41034,-0.61552 0.61552,-1.04954 0.61552,-1.30205h-6.43929c-0.75757,0 -1.30995,-0.0947 -1.65718,-0.28409c-0.33143,-0.18938 -0.55239,-0.45769 -0.66287,-0.80491c-0.11048,-0.36299 -0.16571,-0.83647 -0.16571,-1.42043c0,-0.58397 0.05525,-1.04954 0.16572,-1.39675c0.11048,-0.36299 0.29198,-0.61552 0.54451,-0.75757c0.39457,-0.22095 0.93906,-0.33143 1.6335,-0.33143z" fill="#ffffff" stroke-width="1" stroke-linecap="square"/><path d="M132.5,287.5v-215h215v215z" fill="none" stroke-width="0" stroke-linecap="butt"/></g></g></svg>