<svg version="1.1" xmlns="http://www.w3.org/2000/svg" xmlns:xlink="http://www.w3.org/1999/xlink" width="392.26628" height="96.98569" viewBox="0,0,392.26628,96.98569"><g transform="translate(-43.86686,-131.50716)"><g data-paper-data="{&quot;isPaintingLayer&quot;:true}" fill-rule="nonzero" stroke="none" stroke-miterlimit="10" stroke-dasharray="" stroke-dashoffset="0" style="mix-blend-mode: normal"><path d="M92.35971,131.50716h295.28058c26.86503,0 48.49285,21.62781 48.49285,48.49284c0,26.86505 -21.62782,48.49285 -48.49285,48.49285h-295.28058c-26.86504,0 -48.49285,-21.6278 -48.49285,-48.49285c0,-26.86503 21.62781,-48.49284 48.49285,-48.49284z" fill-opacity="0.2008" fill="#000000" stroke-width="0.365" stroke-linecap="round" stroke-linejoin="round"/><path d="M97.20016,161.0702h22.83267c0.87113,0 1.51301,0.10316 1.92565,0.30948c0.41264,0.20632 0.68773,0.52726 0.82528,0.96282c0.13755,0.43556 0.20632,1.00868 0.20632,1.71932c0,0.71065 -0.06877,1.28377 -0.20632,1.71932c-0.13755,0.41264 -0.36679,0.69919 -0.68773,0.85966c-0.50434,0.25218 -1.20353,0.37826 -2.09758,0.37826h-7.84014v20.63193c0,0.64188 -0.02292,1.11184 -0.06877,1.40985c-0.04585,0.29801 -0.17193,0.65334 -0.37826,1.06598c-0.20632,0.38972 -0.57311,0.66481 -1.10037,0.82528c-0.50434,0.16047 -1.18061,0.24071 -2.02881,0.24071c-0.8482,0 -1.52447,-0.08024 -2.02881,-0.24071c-0.50434,-0.16047 -0.85966,-0.43556 -1.06598,-0.82528c-0.20632,-0.41264 -0.3324,-0.76797 -0.37826,-1.06598c-0.04585,-0.32095 -0.06877,-0.80236 -0.06877,-1.44424v-20.59755h-7.87452c-0.87113,0 -1.51301,-0.10316 -1.92565,-0.30948c-0.41264,-0.20632 -0.68773,-0.52726 -0.82528,-0.96282c-0.13755,-0.43556 -0.20632,-1.00868 -0.20632,-1.71932c0,-0.71065 0.06877,-1.2723 0.20632,-1.68494c0.13755,-0.43556 0.36679,-0.74503 0.68773,-0.92844c0.50434,-0.22924 1.20353,-0.34387 2.09758,-0.34387zM119.70461,180.39544c0,-3.27819 1.14622,-5.98326 3.43866,-8.11522c2.29243,-2.15489 4.91727,-3.23234 7.87452,-3.23234c2.95724,0 5.57063,1.06598 7.84014,3.19795c2.29243,2.13197 3.43866,4.83704 3.43866,8.11522c0,2.26951 -0.59603,4.28685 -1.7881,6.05203c-1.16914,1.76518 -2.60192,3.07187 -4.29832,3.92006c-1.67348,0.82528 -3.41574,1.23792 -5.22676,1.23792c-1.81102,0 -3.56474,-0.44703 -5.26114,-1.34108c-1.6964,-0.89405 -3.12918,-2.21221 -4.29832,-3.95445c-1.14622,-1.74225 -1.71932,-3.70229 -1.71932,-5.8801zM128.26687,183.35269c0.89405,0.66481 1.7881,0.99721 2.68215,0.99721c0.89405,0 1.7881,-0.34387 2.68215,-1.0316c0.91697,-0.68773 1.37547,-1.6964 1.37547,-3.02602c0,-1.35255 -0.4241,-2.34976 -1.2723,-2.99163c-0.8482,-0.66481 -1.76518,-0.99721 -2.75092,-0.99721c-0.98574,0 -1.90273,0.34387 -2.75092,1.0316c-0.8482,0.66481 -1.2723,1.66202 -1.2723,2.99163c0,1.32961 0.43556,2.33829 1.30669,3.02602zM144.33916,180.39544c0,-3.27819 1.14622,-5.98326 3.43866,-8.11522c2.29243,-2.15489 4.91727,-3.23234 7.87452,-3.23234c2.95724,0 5.57063,1.06598 7.84014,3.19795c2.29243,2.13197 3.43866,4.83704 3.43866,8.11522c0,2.26951 -0.59603,4.28685 -1.7881,6.05203c-1.16914,1.76518 -2.60192,3.07187 -4.29832,3.92006c-1.67348,0.82528 -3.41574,1.23792 -5.22676,1.23792c-1.81102,0 -3.56474,-0.44703 -5.26114,-1.34108c-1.6964,-0.89405 -3.12918,-2.21221 -4.29832,-3.95445c-1.14622,-1.74225 -1.71932,-3.70229 -1.71932,-5.8801zM152.90141,183.35269c0.89405,0.66481 1.7881,0.99721 2.68215,0.99721c0.89405,0 1.7881,-0.34387 2.68215,-1.0316c0.91697,-0.68773 1.37547,-1.6964 1.37547,-3.02602c0,-1.35255 -0.4241,-2.34976 -1.2723,-2.99163c-0.8482,-0.66481 -1.76518,-0.99721 -2.75092,-0.99721c-0.98574,0 -1.90273,0.34387 -2.75092,1.0316c-0.8482,0.66481 -1.2723,1.66202 -1.2723,2.99163c0,1.32961 0.43556,2.33829 1.30669,3.02602zM200.81848,177.81645c0,1.67348 -0.4241,2.91139 -1.2723,3.71375c-0.82528,0.80236 -1.74225,1.20353 -2.75092,1.20353h-9.7314c0,0.7565 0.44703,1.39839 1.34108,1.92565c0.91697,0.52726 1.83395,0.79089 2.75092,0.79089c1.58178,0 2.81969,-0.16047 3.71375,-0.48141l0.44703,-0.17193c0.66481,-0.29801 1.215,-0.44703 1.65055,-0.44703c0.87113,0 1.62763,0.60749 2.26951,1.82248c0.34387,0.7565 0.5158,1.38693 0.5158,1.89126c0,2.45291 -2.91139,3.67936 -8.73419,3.67936c-2.01734,0 -3.8169,-0.34387 -5.39869,-1.0316c-1.58178,-0.71065 -2.80823,-1.65055 -3.67936,-2.81969c-1.71932,-2.20074 -2.57899,-4.67657 -2.57899,-7.4275c0,-3.43866 1.11184,-6.18958 3.3355,-8.25277c2.22366,-2.06319 5.00897,-3.09479 8.35593,-3.09479c3.80544,0 6.60222,1.34108 8.39032,4.02323c0.91697,1.42132 1.37547,2.98016 1.37547,4.67657zM192.15306,178.98559c1.05452,0 1.58178,-0.43556 1.58178,-1.30669c0,-0.61895 -0.24071,-1.12329 -0.72211,-1.51301c-0.48141,-0.38972 -1.16914,-0.58457 -2.06319,-0.58457c-0.89405,0 -1.77663,0.36679 -2.64776,1.10037c-0.87113,0.73358 -1.30669,1.50155 -1.30669,2.3039zM218.49875,180.36106l4.53903,4.6078c0.98574,0.96282 1.47863,1.79956 1.47863,2.51022c0,0.68773 -0.49288,1.52447 -1.47863,2.51022c-0.98574,0.96282 -1.82248,1.44424 -2.51022,1.44424c-0.68773,0 -1.52447,-0.49288 -2.51022,-1.47863l-4.50464,-4.53903l-4.53903,4.53903c-0.98574,0.98574 -1.82248,1.47863 -2.51022,1.47863c-0.66481,0 -1.50155,-0.48141 -2.51022,-1.44424c-0.98574,-0.98574 -1.47863,-1.82248 -1.47863,-2.51022c0,-0.71065 0.49288,-1.5474 1.47863,-2.51022l4.53903,-4.6078l-4.53903,-4.6078c-0.98574,-0.98574 -1.47863,-1.82248 -1.47863,-2.51022c0,-0.71065 0.49288,-1.55886 1.47863,-2.54461c1.00868,-0.98574 1.8454,-1.47863 2.51022,-1.47863c0.68773,0 1.52447,0.49288 2.51022,1.47863l4.53903,4.6078l4.50464,-4.6078c0.98574,-0.98574 1.82248,-1.47863 2.51022,-1.47863c0.68773,0 1.52447,0.49288 2.51022,1.47863c0.98574,0.98574 1.47863,1.83395 1.47863,2.54461c0,0.68773 -0.49288,1.52447 -1.47863,2.51022zM226.78584,197.07292v-24.00181c0,-0.61895 0.01147,-1.07745 0.03439,-1.37547c0.04585,-0.29801 0.17193,-0.64188 0.37826,-1.0316c0.36679,-0.73358 1.2723,-1.10037 2.71654,-1.10037c1.46716,0 2.45291,0.1834 2.95724,0.55018c0.50434,0.36679 0.80236,0.90552 0.89405,1.61617c1.0316,-1.42132 2.65923,-2.13197 4.88289,-2.13197c2.24659,0 4.36709,1.05452 6.36151,3.16356c1.99442,2.10905 2.99163,4.56195 2.99163,7.35872c0,2.77384 -0.99721,5.21529 -2.99163,7.32434c-1.9715,2.10905 -4.08053,3.16356 -6.32713,3.16356c-2.24659,0 -3.87421,-0.63042 -4.88289,-1.89126v8.32155c0,0.61895 -0.02292,1.07745 -0.06877,1.37547c-0.04585,0.29801 -0.17193,0.64188 -0.37826,1.0316c-0.20632,0.41264 -0.56165,0.69919 -1.06598,0.85966c-0.48141,0.16047 -1.14622,0.24071 -1.99442,0.24071c-0.8482,0 -1.52447,-0.08024 -2.02881,-0.24071c-0.50434,-0.16047 -0.85966,-0.43556 -1.06598,-0.82528c-0.20632,-0.38972 -0.3324,-0.73358 -0.37826,-1.0316c-0.02292,-0.29801 -0.03439,-0.7565 -0.03439,-1.37547zM234.90107,177.74767c-0.61895,0.73358 -0.92844,1.53593 -0.92844,2.40706c0,0.87113 0.32095,1.67348 0.96282,2.40706c0.64188,0.71065 1.4557,1.06598 2.44145,1.06598c1.00868,0 1.85687,-0.35533 2.54461,-1.06598c0.71065,-0.71065 1.06598,-1.51301 1.06598,-2.40706c0,-0.91697 -0.3324,-1.73079 -0.99721,-2.44145c-0.64188,-0.73358 -1.49009,-1.10037 -2.54461,-1.10037c-1.05452,0 -1.90273,0.37826 -2.54461,1.13476zM271.51959,177.81645c0,1.67348 -0.4241,2.91139 -1.2723,3.71375c-0.82528,0.80236 -1.74225,1.20353 -2.75092,1.20353h-9.7314c0,0.7565 0.44703,1.39839 1.34108,1.92565c0.91697,0.52726 1.83395,0.79089 2.75092,0.79089c1.58178,0 2.81969,-0.16047 3.71375,-0.48141l0.44703,-0.17193c0.66481,-0.29801 1.215,-0.44703 1.65055,-0.44703c0.87113,0 1.62763,0.60749 2.26951,1.82248c0.34387,0.7565 0.5158,1.38693 0.5158,1.89126c0,2.45291 -2.91139,3.67936 -8.73419,3.67936c-2.01734,0 -3.8169,-0.34387 -5.39869,-1.0316c-1.58178,-0.71065 -2.80823,-1.65055 -3.67936,-2.81969c-1.71932,-2.20074 -2.57899,-4.67657 -2.57899,-7.4275c0,-3.43866 1.11184,-6.18958 3.3355,-8.25277c2.22366,-2.06319 5.00897,-3.09479 8.35593,-3.09479c3.80544,0 6.60222,1.34108 8.39032,4.02323c0.91697,1.42132 1.37547,2.98016 1.37547,4.67657zM262.85418,178.98559c1.05452,0 1.58178,-0.43556 1.58178,-1.30669c0,-0.61895 -0.24071,-1.12329 -0.72211,-1.51301c-0.48141,-0.38972 -1.16914,-0.58457 -2.06319,-0.58457c-0.89405,0 -1.77663,0.36679 -2.64776,1.10037c-0.87113,0.73358 -1.30669,1.50155 -1.30669,2.3039zM286.24261,169.56368c2.728,0 4.99752,1.04306 6.80854,3.12918c1.83395,2.08611 2.75092,4.64219 2.75092,7.6682v7.22118c0,0.61895 -0.02292,1.0889 -0.06877,1.40985c-0.04585,0.32095 -0.16047,0.67626 -0.34387,1.06598c-0.38972,0.73358 -1.4557,1.10037 -3.19795,1.10037c-1.94857,0 -3.07187,-0.50434 -3.36988,-1.51301c-0.16047,-0.48141 -0.24071,-1.18061 -0.24071,-2.09758v-7.22118c0,-1.12329 -0.32095,-1.99442 -0.96282,-2.61338c-0.64188,-0.64188 -1.51301,-0.96282 -2.61338,-0.96282c-1.07745,0 -1.94857,0.3324 -2.61338,0.99721c-0.66481,0.64188 -0.99721,1.50155 -0.99721,2.57899v7.25556c0,0.61895 -0.02292,1.0889 -0.06877,1.40985c-0.04585,0.32095 -0.17193,0.67626 -0.37826,1.06598c-0.36679,0.73358 -1.42132,1.10037 -3.16356,1.10037c-1.74225,0 -2.79677,-0.36679 -3.16356,-1.10037c-0.20632,-0.41264 -0.3324,-0.77942 -0.37826,-1.10037c-0.02292,-0.32095 -0.03439,-0.79089 -0.03439,-1.40985v-14.54551c0,-0.59603 0.01147,-1.05452 0.03439,-1.37547c0.04585,-0.32095 0.1834,-0.66481 0.41264,-1.0316c0.38972,-0.68773 1.44424,-1.0316 3.16356,-1.0316c1.67348,0 2.69361,0.30948 3.0604,0.92844c0.2751,0.48141 0.41264,1.04306 0.41264,1.68494c0.11463,-0.1834 0.36679,-0.44703 0.7565,-0.79089c0.38972,-0.36679 0.7565,-0.66481 1.10037,-0.89405c0.9399,-0.61895 1.9715,-0.92844 3.09479,-0.92844zM299.26013,189.26717c-0.52726,-0.32095 -0.79089,-0.83674 -0.79089,-1.5474c0,-0.73358 0.5158,-1.82248 1.5474,-3.26672c0.29801,-0.45849 0.77942,-0.68773 1.44424,-0.68773c0.68773,0 1.60471,0.3324 2.75092,0.99721c1.14622,0.66481 2.18927,0.99721 3.12918,0.99721c1.67348,0 2.51022,-0.32095 2.51022,-0.96282c0,-0.52726 -0.91697,-0.91697 -2.75092,-1.16914c-1.74225,-0.22924 -3.46158,-0.87113 -5.15798,-1.92565c-0.77942,-0.48141 -1.43277,-1.24938 -1.96003,-2.3039c-0.52726,-1.05452 -0.79089,-2.31537 -0.79089,-3.78252c0,-4.30979 2.96871,-6.46467 8.90612,-6.46467c1.94857,0 3.95445,0.45849 6.01764,1.37547c0.96282,0.45849 1.44424,1.02013 1.44424,1.68494c0,0.64188 -0.30948,1.44424 -0.92844,2.40706c-0.59603,0.9399 -1.20353,1.40985 -1.82248,1.40985c-0.34387,0 -0.96282,-0.19485 -1.85687,-0.58457c-0.87113,-0.41264 -1.83395,-0.61895 -2.88847,-0.61895c-1.60471,0 -2.40706,0.29801 -2.40706,0.89405c0,0.82528 0.92844,1.35255 2.78531,1.58178c1.81102,0.20632 3.56474,0.73358 5.26114,1.58178c0.77942,0.38972 1.43277,1.05452 1.96003,1.99442c0.55018,0.9399 0.82528,2.1205 0.82528,3.54182c0,1.42132 -0.2751,2.6363 -0.82528,3.64498c-0.52726,0.98574 -1.26084,1.73079 -2.20074,2.23513c-1.76518,0.8482 -3.96592,1.2723 -6.60222,1.2723c-2.6363,0 -5.16945,-0.76797 -7.59943,-2.3039zM319.16531,173.17427c0,-0.64188 0.01147,-1.11184 0.03439,-1.40985c0.04585,-0.32095 0.17193,-0.68773 0.37826,-1.10037c0.36679,-0.71065 1.43277,-1.06598 3.19795,-1.06598c1.30669,0 2.23513,0.22924 2.78531,0.68773c0.45849,0.38972 0.71065,0.98574 0.7565,1.7881c0.02292,0.2751 0.03439,0.66481 0.03439,1.16914v14.37358c0,0.64188 -0.02292,1.12329 -0.06877,1.44424c-0.04585,0.29801 -0.17193,0.65334 -0.37826,1.06598c-0.36679,0.71065 -1.42132,1.06598 -3.16356,1.06598c-1.74225,0 -2.79677,-0.36679 -3.16356,-1.10037c-0.20632,-0.41264 -0.3324,-0.76797 -0.37826,-1.06598c-0.02292,-0.29801 -0.03439,-0.77942 -0.03439,-1.44424zM325.90508,165.57484c-0.20632,0.38972 -0.57311,0.66481 -1.10037,0.82528c-0.50434,0.16047 -1.19206,0.24071 -2.06319,0.24071c-0.8482,0 -1.53593,-0.08024 -2.06319,-0.24071c-0.52726,-0.16047 -0.89405,-0.44703 -1.10037,-0.85966c-0.20632,-0.41264 -0.3324,-0.77942 -0.37826,-1.10037c-0.02292,-0.32095 -0.03439,-0.79089 -0.03439,-1.40985c0,-0.64188 0.01147,-1.11184 0.03439,-1.40985c0.04585,-0.32095 0.17193,-0.67626 0.37826,-1.06598c0.36679,-0.73358 1.43277,-1.10037 3.19795,-1.10037c1.71932,0 2.76239,0.36679 3.12918,1.10037c0.20632,0.41264 0.3324,0.77942 0.37826,1.10037c0.04585,0.32095 0.06877,0.80236 0.06877,1.44424c0,0.61895 -0.02292,1.0889 -0.06877,1.40985c-0.04585,0.29801 -0.17193,0.65334 -0.37826,1.06598zM351.43608,170.04509c1.42132,0.8482 2.13197,1.75371 2.13197,2.71654c0,0.55018 -0.2751,1.30669 -0.82528,2.26951l-8.49348,14.54551c-0.2751,0.48141 -0.72211,0.90552 -1.34108,1.2723c-0.59603,0.36679 -1.19206,0.55018 -1.7881,0.55018c-0.57311,0 -1.13476,-0.13755 -1.68494,-0.41264c-0.52726,-0.29801 -0.89405,-0.59603 -1.10037,-0.89405l-0.37826,-0.44703l-8.52787,-14.61429c-0.55018,-0.91697 -0.82528,-1.66202 -0.82528,-2.23513c0,-0.98574 0.71065,-1.90273 2.13197,-2.75092c1.0316,-0.59603 1.8454,-0.89405 2.44145,-0.89405c0.61895,0 1.10037,0.1834 1.44424,0.55018c0.34387,0.36679 0.69919,0.91697 1.06598,1.65055l5.39869,10.35035l5.3643,-10.35035c0.29801,-0.50434 0.52726,-0.87113 0.68773,-1.10037c0.16047,-0.25218 0.40118,-0.49288 0.72211,-0.72211c0.32095,-0.22924 0.7565,-0.34387 1.30669,-0.34387c0.55018,0 1.30669,0.28656 2.26951,0.85966zM375.43555,177.81645c0,1.67348 -0.4241,2.91139 -1.2723,3.71375c-0.82528,0.80236 -1.74225,1.20353 -2.75092,1.20353h-9.7314c0,0.7565 0.44703,1.39839 1.34108,1.92565c0.91697,0.52726 1.83395,0.79089 2.75092,0.79089c1.58178,0 2.81969,-0.16047 3.71375,-0.48141l0.44703,-0.17193c0.66481,-0.29801 1.215,-0.44703 1.65055,-0.44703c0.87113,0 1.62763,0.60749 2.26951,1.82248c0.34387,0.7565 0.5158,1.38693 0.5158,1.89126c0,2.45291 -2.91139,3.67936 -8.73419,3.67936c-2.01734,0 -3.8169,-0.34387 -5.39869,-1.0316c-1.58178,-0.71065 -2.80823,-1.65055 -3.67936,-2.81969c-1.71932,-2.20074 -2.57899,-4.67657 -2.57899,-7.4275c0,-3.43866 1.11184,-6.18958 3.3355,-8.25277c2.22366,-2.06319 5.00897,-3.09479 8.35593,-3.09479c3.80544,0 6.60222,1.34108 8.39032,4.02323c0.91697,1.42132 1.37547,2.98016 1.37547,4.67657zM366.77014,178.98559c1.05452,0 1.58178,-0.43556 1.58178,-1.30669c0,-0.61895 -0.24071,-1.12329 -0.72211,-1.51301c-0.48141,-0.38972 -1.16914,-0.58457 -2.06319,-0.58457c-0.89405,0 -1.77663,0.36679 -2.64776,1.10037c-0.87113,0.73358 -1.30669,1.50155 -1.30669,2.3039zM378.53592,184.93446c0.2751,-0.52726 0.68773,-0.88258 1.23792,-1.06598c0.57311,-0.20632 1.44424,-0.30948 2.61338,-0.30948c1.19206,0 2.05173,0.26363 2.57899,0.79089c0.55018,0.50434 0.82528,1.31816 0.82528,2.44145v0.65334c0,0.66481 -0.02292,1.15768 -0.06877,1.47863c-0.04585,0.29801 -0.17193,0.67626 -0.37826,1.13476c-0.43556,0.77942 -1.49009,1.16914 -3.16356,1.16914c-1.65055,0 -2.73946,-0.26363 -3.26672,-0.79089c-0.52726,-0.52726 -0.79089,-1.55886 -0.79089,-3.09479c0,-1.07745 0.13755,-1.87979 0.41264,-2.40706zM384.00338,180.15474c-0.50434,0.13755 -1.19206,0.20632 -2.06319,0.20632c-0.87113,0 -1.57032,-0.06877 -2.09758,-0.20632c-0.52726,-0.13755 -0.89405,-0.37826 -1.10037,-0.72211c-0.20632,-0.36679 -0.3324,-0.68773 -0.37826,-0.96282c-0.02292,-0.2751 -0.03439,-0.69919 -0.03439,-1.2723v-13.03251c0,-0.57311 0.01147,-0.99721 0.03439,-1.2723c0.04585,-0.29801 0.17193,-0.61895 0.37826,-0.96282c0.22924,-0.36679 0.60749,-0.61895 1.13476,-0.7565c0.52726,-0.16047 1.22645,-0.24071 2.09758,-0.24071c0.87113,0 1.57032,0.08024 2.09758,0.24071c0.52726,0.13755 0.88258,0.38972 1.06598,0.7565c0.20632,0.36679 0.3324,0.69919 0.37826,0.99721c0.04585,0.2751 0.06877,0.71065 0.06877,1.30669v12.99812c0,0.57311 -0.02292,0.99721 -0.06877,1.2723c-0.04585,0.2751 -0.1834,0.58457 -0.41264,0.92844c-0.20632,0.34387 -0.57311,0.58457 -1.10037,0.72211z" fill="#ff6767" stroke-width="1" stroke-linecap="square" stroke-linejoin="miter"/></g></g></svg>