<svg version="1.1" xmlns="http://www.w3.org/2000/svg" xmlns:xlink="http://www.w3.org/1999/xlink" width="358.38929" height="96.98569" viewBox="0,0,358.38929,96.98569"><g transform="translate(-60.80536,-131.50716)"><g data-paper-data="{&quot;isPaintingLayer&quot;:true}" fill-rule="nonzero" stroke="none" stroke-miterlimit="10" stroke-dasharray="" stroke-dashoffset="0" style="mix-blend-mode: normal"><path d="M109.29821,131.50716h261.40359c26.86503,0 48.49285,21.62781 48.49285,48.49284c0,26.86505 -21.62782,48.49285 -48.49285,48.49285h-261.40359c-26.86504,0 -48.49285,-21.6278 -48.49285,-48.49285c0,-26.86503 21.62781,-48.49284 48.49285,-48.49284z" fill-opacity="0.2008" fill="#000000" stroke-width="0.365" stroke-linecap="round" stroke-linejoin="round"/><path d="M112.2193,194.65405c-0.96142,-1.17854 -1.44214,-2.23299 -1.44214,-3.16341c0,-0.96142 0.79086,-2.21749 2.37256,-3.76818c0.93042,-0.89939 1.90735,-1.3491 2.93082,-1.3491c1.05448,0 2.51212,0.93042 4.37295,2.79126c0.49621,0.62027 1.22504,1.22504 2.18649,1.81431c0.96142,0.55824 1.86084,0.83737 2.6982,0.83737c3.44254,0 5.16381,-1.41113 5.16381,-4.23339c0,-0.83737 -0.48071,-1.53519 -1.44214,-2.09343c-0.93042,-0.58927 -2.10894,-1.00795 -3.53559,-1.25607c-1.39563,-0.27912 -2.9153,-0.6978 -4.55904,-1.25607c-1.61272,-0.58927 -3.13241,-1.27157 -4.55904,-2.04691c-1.39563,-0.77536 -2.57415,-2.0004 -3.53559,-3.67515c-0.93042,-1.70576 -1.39563,-3.73718 -1.39563,-6.09423c0,-3.25647 1.20954,-6.09423 3.62862,-8.51331c2.45009,-2.45009 5.76858,-3.67515 9.95545,-3.67515c2.20199,0 4.21789,0.29462 6.0477,0.88389c1.86084,0.55824 3.13241,1.14751 3.81471,1.76778l1.39563,1.02345c1.14751,1.08548 1.72128,2.0004 1.72128,2.74473c0,0.74433 -0.44971,1.75228 -1.3491,3.02385c-1.24055,1.86084 -2.52764,2.79126 -3.86124,2.79126c-0.77536,0 -1.73678,-0.37218 -2.88429,-1.11651c-0.12406,-0.06203 -0.34115,-0.2326 -0.6513,-0.51174c-0.31015,-0.31015 -0.58927,-0.55824 -0.83737,-0.74433c-0.80636,-0.49621 -1.81431,-0.74433 -3.02385,-0.74433c-1.17854,0 -2.17097,0.29462 -2.97733,0.88389c-0.77536,0.55824 -1.16301,1.3491 -1.16301,2.37256c0,1.02345 0.46521,1.86084 1.39563,2.51212c0.93042,0.62027 2.09343,1.03896 3.48906,1.25607c1.42663,0.21709 2.97733,0.55824 4.65208,1.02345c1.67475,0.46521 3.20994,1.03896 4.60557,1.72128c1.39563,0.6513 2.55864,1.79881 3.48906,3.44254c0.96142,1.64373 1.44214,3.67515 1.44214,6.09423c0,2.38808 -0.48071,4.49701 -1.44214,6.32683c-0.96142,1.82981 -2.21749,3.25647 -3.76818,4.27992c-3.00835,1.95387 -6.21829,2.93082 -9.6298,2.93082c-1.73678,0 -3.38051,-0.21709 -4.9312,-0.6513c-1.55069,-0.43419 -2.80676,-0.96142 -3.76818,-1.58172c-1.95387,-1.17854 -3.31848,-2.32605 -4.09383,-3.44254zM170.60774,161.15907c0.37218,-0.58927 0.89939,-0.99245 1.58172,-1.20954c0.71333,-0.21709 1.59722,-0.32565 2.65168,-0.32565c1.05448,0 1.89184,0.09303 2.51212,0.27912c0.6513,0.18609 1.13201,0.40318 1.44214,0.6513c0.34115,0.24812 0.58927,0.63578 0.74433,1.16301c0.21709,0.62027 0.32565,1.58172 0.32565,2.88429v16.79401c0,4.86919 -1.51969,9.30417 -4.55904,13.30495c-1.48866,1.89184 -3.39603,3.42703 -5.72206,4.60557c-2.32605,1.14751 -4.9157,1.72128 -7.76898,1.72128c-2.82226,0 -5.39641,-0.58927 -7.72246,-1.76778c-2.29502,-1.17854 -4.17136,-2.72923 -5.62902,-4.65208c-2.97733,-3.93877 -4.46601,-8.38925 -4.46601,-13.35148v-16.70098c0,-0.89939 0.0155,-1.55069 0.04653,-1.95387c0.06203,-0.43419 0.2326,-0.93042 0.51174,-1.48866c0.31015,-0.55824 0.82186,-0.94592 1.53519,-1.16301c0.71333,-0.21709 1.65925,-0.32565 2.83776,-0.32565c1.17854,0 2.12446,0.10856 2.83776,0.32565c0.71333,0.21709 1.19404,0.60477 1.44214,1.16301c0.43419,0.83737 0.6513,2.0004 0.6513,3.48906v16.65445c0,2.26402 0.55824,4.41948 1.67475,6.46639c0.55824,1.02345 1.39563,1.86084 2.51212,2.51212c1.11651,0.62027 2.43458,0.93042 3.95427,0.93042c2.6982,0 4.71411,-0.99245 6.0477,-2.97733c1.3336,-2.0159 2.0004,-4.34195 2.0004,-6.97812v-16.9801c0,-1.45766 0.18609,-2.48111 0.55824,-3.07038zM209.77101,189.72286l0.97695,-0.74433c1.27157,-0.74433 2.15546,-1.11651 2.65168,-1.11651c1.14751,0 2.38808,1.03896 3.72166,3.11689c0.83737,1.30258 1.25607,2.34155 1.25607,3.11689c0,0.77536 -0.26362,1.42663 -0.79086,1.95387c-0.49621,0.52724 -1.08548,0.99245 -1.76778,1.39563c-0.6513,0.40318 -1.28707,0.79086 -1.90735,1.16301c-0.58927,0.37218 -1.82981,0.85289 -3.72166,1.44214c-1.89184,0.58927 -3.72166,0.88389 -5.48946,0.88389c-1.73678,0 -3.50456,-0.2326 -5.30337,-0.6978c-1.79881,-0.46521 -3.65965,-1.24055 -5.5825,-2.32605c-1.89184,-1.08548 -3.59762,-2.41908 -5.11729,-4.0008c-1.51969,-1.58172 -2.77574,-3.59762 -3.76818,-6.0477c-0.96142,-2.48111 -1.44214,-5.16381 -1.44214,-8.0481c0,-2.88429 0.48071,-5.50496 1.44214,-7.86202c0.96142,-2.35705 2.18649,-4.29542 3.67515,-5.81511c1.51969,-1.55069 3.24095,-2.83776 5.16381,-3.86124c3.62862,-2.0159 7.27275,-3.02385 10.9324,-3.02385c1.73678,0 3.50456,0.27912 5.30337,0.83737c1.79881,0.52724 3.16341,1.06998 4.09383,1.62822l1.30258,0.79086c0.6823,0.40318 1.20954,0.72883 1.58172,0.97695c0.96142,0.77536 1.44214,1.65925 1.44214,2.65168c0,0.99245 -0.38768,2.0159 -1.16301,3.07038c-1.45766,2.0159 -2.76023,3.02385 -3.90774,3.02385c-0.6513,0 -1.59722,-0.41868 -2.83776,-1.25607c-1.55069,-1.24055 -3.61312,-1.86084 -6.18727,-1.86084c-2.41908,0 -4.79164,0.83737 -7.11768,2.51212c-1.11651,0.80636 -2.04691,1.95387 -2.79126,3.44254c-0.74433,1.45766 -1.11651,3.13241 -1.11651,5.02425c0,1.86084 0.37218,3.53559 1.11651,5.02425c0.74433,1.45766 1.69025,2.62067 2.83776,3.48906c2.26402,1.61272 4.62107,2.41908 7.07116,2.41908c1.14751,0 2.21749,-0.13956 3.20994,-0.41868c1.02345,-0.31015 1.76778,-0.60477 2.23299,-0.88389zM246.37507,189.72286l0.97695,-0.74433c1.27157,-0.74433 2.15546,-1.11651 2.65168,-1.11651c1.14751,0 2.38808,1.03896 3.72166,3.11689c0.83737,1.30258 1.25607,2.34155 1.25607,3.11689c0,0.77536 -0.26362,1.42663 -0.79086,1.95387c-0.49621,0.52724 -1.08548,0.99245 -1.76778,1.39563c-0.6513,0.40318 -1.28707,0.79086 -1.90735,1.16301c-0.58927,0.37218 -1.82981,0.85289 -3.72166,1.44214c-1.89184,0.58927 -3.72166,0.88389 -5.48946,0.88389c-1.73678,0 -3.50456,-0.2326 -5.30337,-0.6978c-1.79881,-0.46521 -3.65965,-1.24055 -5.5825,-2.32605c-1.89184,-1.08548 -3.59762,-2.41908 -5.11729,-4.0008c-1.51969,-1.58172 -2.77574,-3.59762 -3.76818,-6.0477c-0.96142,-2.48111 -1.44214,-5.16381 -1.44214,-8.0481c0,-2.88429 0.48071,-5.50496 1.44214,-7.86202c0.96142,-2.35705 2.18649,-4.29542 3.67515,-5.81511c1.51969,-1.55069 3.24095,-2.83776 5.16381,-3.86124c3.62862,-2.0159 7.27275,-3.02385 10.9324,-3.02385c1.73678,0 3.50456,0.27912 5.30337,0.83737c1.79881,0.52724 3.16341,1.06998 4.09383,1.62822l1.30258,0.79086c0.6823,0.40318 1.20954,0.72883 1.58172,0.97695c0.96142,0.77536 1.44214,1.65925 1.44214,2.65168c0,0.99245 -0.38768,2.0159 -1.16301,3.07038c-1.45766,2.0159 -2.76023,3.02385 -3.90774,3.02385c-0.6513,0 -1.59722,-0.41868 -2.83776,-1.25607c-1.55069,-1.24055 -3.61312,-1.86084 -6.18727,-1.86084c-2.41908,0 -4.79164,0.83737 -7.11768,2.51212c-1.11651,0.80636 -2.04691,1.95387 -2.79126,3.44254c-0.74433,1.45766 -1.11651,3.13241 -1.11651,5.02425c0,1.86084 0.37218,3.53559 1.11651,5.02425c0.74433,1.45766 1.69025,2.62067 2.83776,3.48906c2.26402,1.61272 4.62107,2.41908 7.07116,2.41908c1.14751,0 2.21749,-0.13956 3.20994,-0.41868c1.02345,-0.31015 1.76778,-0.60477 2.23299,-0.88389zM268.45974,190.56022h17.11966c0.83737,0 1.47316,0.03101 1.90735,0.09303c0.43419,0.03101 0.93042,0.20159 1.48866,0.51174c0.99245,0.52724 1.48866,1.96937 1.48866,4.32643c0,2.60517 -0.6823,4.12484 -2.04691,4.55904c-0.6513,0.21709 -1.61272,0.32565 -2.88429,0.32565h-22.00435c-2.60517,0 -4.12484,-0.6978 -4.55904,-2.09343c-0.21709,-0.58927 -0.32565,-1.53519 -0.32565,-2.83776v-30.88982c0,-1.89184 0.34115,-3.17892 1.02345,-3.86124c0.71333,-0.6823 2.04691,-1.02345 4.0008,-1.02345h21.9113c0.83737,0 1.47316,0.03101 1.90735,0.09303c0.43419,0.03101 0.93042,0.20159 1.48866,0.51174c0.99245,0.52724 1.48866,1.96937 1.48866,4.32643c0,2.60517 -0.6823,4.12484 -2.04691,4.55904c-0.6513,0.21709 -1.61272,0.32565 -2.88429,0.32565h-17.07313v5.62902h11.02543c0.83737,0 1.45766,0.03101 1.86084,0.09303c0.43419,0.03101 0.93042,0.20159 1.48866,0.51174c1.02345,0.52724 1.53519,1.96937 1.53519,4.32643c0,2.60517 -0.71333,4.12484 -2.13996,4.55904c-0.62027,0.21709 -1.58172,0.32565 -2.88429,0.32565h-10.88587zM294.68694,194.65405c-0.96142,-1.17854 -1.44214,-2.23299 -1.44214,-3.16341c0,-0.96142 0.79086,-2.21749 2.37256,-3.76818c0.93042,-0.89939 1.90735,-1.3491 2.93082,-1.3491c1.05448,0 2.51212,0.93042 4.37295,2.79126c0.49621,0.62027 1.22504,1.22504 2.18649,1.81431c0.96142,0.55824 1.86084,0.83737 2.6982,0.83737c3.44254,0 5.16381,-1.41113 5.16381,-4.23339c0,-0.83737 -0.48071,-1.53519 -1.44214,-2.09343c-0.93042,-0.58927 -2.10894,-1.00795 -3.53559,-1.25607c-1.39563,-0.27912 -2.9153,-0.6978 -4.55904,-1.25607c-1.61272,-0.58927 -3.13241,-1.27157 -4.55904,-2.04691c-1.39563,-0.77536 -2.57415,-2.0004 -3.53559,-3.67515c-0.93042,-1.70576 -1.39563,-3.73718 -1.39563,-6.09423c0,-3.25647 1.20954,-6.09423 3.62862,-8.51331c2.45009,-2.45009 5.76858,-3.67515 9.95545,-3.67515c2.20199,0 4.21789,0.29462 6.0477,0.88389c1.86084,0.55824 3.13241,1.14751 3.81471,1.76778l1.39563,1.02345c1.14751,1.08548 1.72128,2.0004 1.72128,2.74473c0,0.74433 -0.44971,1.75228 -1.3491,3.02385c-1.24055,1.86084 -2.52764,2.79126 -3.86124,2.79126c-0.77536,0 -1.73678,-0.37218 -2.88429,-1.11651c-0.12406,-0.06203 -0.34115,-0.2326 -0.6513,-0.51174c-0.31015,-0.31015 -0.58927,-0.55824 -0.83737,-0.74433c-0.80636,-0.49621 -1.81431,-0.74433 -3.02385,-0.74433c-1.17854,0 -2.17097,0.29462 -2.97733,0.88389c-0.77536,0.55824 -1.16301,1.3491 -1.16301,2.37256c0,1.02345 0.46521,1.86084 1.39563,2.51212c0.93042,0.62027 2.09343,1.03896 3.48906,1.25607c1.42663,0.21709 2.97733,0.55824 4.65208,1.02345c1.67475,0.46521 3.20994,1.03896 4.60557,1.72128c1.39563,0.6513 2.55864,1.79881 3.48906,3.44254c0.96142,1.64373 1.44214,3.67515 1.44214,6.09423c0,2.38808 -0.48071,4.49701 -1.44214,6.32683c-0.96142,1.82981 -2.21749,3.25647 -3.76818,4.27992c-3.00835,1.95387 -6.21829,2.93082 -9.6298,2.93082c-1.73678,0 -3.38051,-0.21709 -4.9312,-0.6513c-1.55069,-0.43419 -2.80676,-0.96142 -3.76818,-1.58172c-1.95387,-1.17854 -3.31848,-2.32605 -4.09383,-3.44254zM327.07015,194.65405c-0.96142,-1.17854 -1.44214,-2.23299 -1.44214,-3.16341c0,-0.96142 0.79086,-2.21749 2.37256,-3.76818c0.93042,-0.89939 1.90735,-1.3491 2.93082,-1.3491c1.05448,0 2.51212,0.93042 4.37295,2.79126c0.49621,0.62027 1.22504,1.22504 2.18649,1.81431c0.96142,0.55824 1.86084,0.83737 2.6982,0.83737c3.44254,0 5.16381,-1.41113 5.16381,-4.23339c0,-0.83737 -0.48071,-1.53519 -1.44214,-2.09343c-0.93042,-0.58927 -2.10894,-1.00795 -3.53559,-1.25607c-1.39563,-0.27912 -2.9153,-0.6978 -4.55904,-1.25607c-1.61272,-0.58927 -3.13241,-1.27157 -4.55904,-2.04691c-1.39563,-0.77536 -2.57415,-2.0004 -3.53559,-3.67515c-0.93042,-1.70576 -1.39563,-3.73718 -1.39563,-6.09423c0,-3.25647 1.20954,-6.09423 3.62862,-8.51331c2.45009,-2.45009 5.76858,-3.67515 9.95545,-3.67515c2.20199,0 4.21789,0.29462 6.0477,0.88389c1.86084,0.55824 3.13241,1.14751 3.81471,1.76778l1.39563,1.02345c1.14751,1.08548 1.72128,2.0004 1.72128,2.74473c0,0.74433 -0.44971,1.75228 -1.3491,3.02385c-1.24055,1.86084 -2.52764,2.79126 -3.86124,2.79126c-0.77536,0 -1.73678,-0.37218 -2.88429,-1.11651c-0.12406,-0.06203 -0.34115,-0.2326 -0.6513,-0.51174c-0.31015,-0.31015 -0.58927,-0.55824 -0.83737,-0.74433c-0.80636,-0.49621 -1.81431,-0.74433 -3.02385,-0.74433c-1.17854,0 -2.17097,0.29462 -2.97733,0.88389c-0.77536,0.55824 -1.16301,1.3491 -1.16301,2.37256c0,1.02345 0.46521,1.86084 1.39563,2.51212c0.93042,0.62027 2.09343,1.03896 3.48906,1.25607c1.42663,0.21709 2.97733,0.55824 4.65208,1.02345c1.67475,0.46521 3.20994,1.03896 4.60557,1.72128c1.39563,0.6513 2.55864,1.79881 3.48906,3.44254c0.96142,1.64373 1.44214,3.67515 1.44214,6.09423c0,2.38808 -0.48071,4.49701 -1.44214,6.32683c-0.96142,1.82981 -2.21749,3.25647 -3.76818,4.27992c-3.00835,1.95387 -6.21829,2.93082 -9.6298,2.93082c-1.73678,0 -3.38051,-0.21709 -4.9312,-0.6513c-1.55069,-0.43419 -2.80676,-0.96142 -3.76818,-1.58172c-1.95387,-1.17854 -3.31848,-2.32605 -4.09383,-3.44254zM359.40693,191.90933c0.37218,-0.71333 0.93042,-1.19404 1.67475,-1.44214c0.77536,-0.27912 1.95387,-0.41868 3.53559,-0.41868c1.61272,0 2.77574,0.35665 3.48906,1.06998c0.74433,0.6823 1.11651,1.78331 1.11651,3.30297v0.88389c0,0.89939 -0.03101,1.56619 -0.09303,2.0004c-0.06203,0.40318 -0.2326,0.91492 -0.51174,1.53519c-0.58927,1.05448 -2.0159,1.58172 -4.27992,1.58172c-2.23299,0 -3.70615,-0.35665 -4.41948,-1.06998c-0.71333,-0.71333 -1.06998,-2.10894 -1.06998,-4.18687c0,-1.45766 0.18609,-2.54314 0.55824,-3.25647zM366.80376,185.44293c-0.6823,0.18609 -1.61272,0.27912 -2.79126,0.27912c-1.17854,0 -2.12446,-0.09303 -2.83776,-0.27912c-0.71333,-0.18609 -1.20954,-0.51174 -1.48866,-0.97695c-0.27912,-0.49621 -0.44971,-0.93042 -0.51174,-1.30258c-0.03101,-0.37218 -0.04653,-0.94592 -0.04653,-1.72128v-17.6314c0,-0.77536 0.0155,-1.3491 0.04653,-1.72128c0.06203,-0.40318 0.2326,-0.83737 0.51174,-1.30258c0.31015,-0.49621 0.82186,-0.83737 1.53519,-1.02345c0.71333,-0.21709 1.65925,-0.32565 2.83776,-0.32565c1.17854,0 2.12446,0.10856 2.83776,0.32565c0.71333,0.18609 1.19404,0.52724 1.44214,1.02345c0.27912,0.49621 0.44971,0.94592 0.51174,1.3491c0.06203,0.37218 0.09303,0.96142 0.09303,1.76778v17.58487c0,0.77536 -0.03101,1.3491 -0.09303,1.72128c-0.06203,0.37218 -0.24812,0.79086 -0.55824,1.25607c-0.27912,0.46521 -0.77536,0.79086 -1.48866,0.97695z" fill="#66ff64" stroke-width="1" stroke-linecap="square" stroke-linejoin="miter"/></g></g></svg>