<svg version="1.1" xmlns="http://www.w3.org/2000/svg" xmlns:xlink="http://www.w3.org/1999/xlink" width="134" height="134" viewBox="0,0,134,134"><g transform="translate(-173,-113)"><g data-paper-data="{&quot;isPaintingLayer&quot;:true}" fill-rule="nonzero" stroke-linecap="butt" stroke-linejoin="miter" stroke-miterlimit="10" stroke-dasharray="" stroke-dashoffset="0" style="mix-blend-mode: normal"><path d="M212.64787,183.73155c-0.61785,-4.25846 5.95439,-13.67088 11.68803,-14.50274c5.67568,-0.82347 18.17588,-2.63705 27.98051,-4.05954c7.55393,-1.09598 14.70981,6.32474 15.32762,10.58317c0.64115,4.41919 -2.50383,14.15544 -8.65354,15.04767c-10.71292,1.55428 -26.54244,3.85091 -32.8047,4.75944c-5.09019,0.73851 -12.89676,-7.40881 -13.53789,-11.82802z" fill="#59c059" stroke="#ffffff" stroke-width="5"/><path d="M212.64787,183.73155c-0.61785,-4.25846 5.95439,-13.67088 11.68803,-14.50274c5.67568,-0.82347 18.17588,-2.63705 27.98051,-4.05954c7.55393,-1.09598 14.70981,6.32474 15.32762,10.58317c0.64115,4.41919 -2.50383,14.15544 -8.65354,15.04767c-10.71292,1.55428 -26.54244,3.85091 -32.8047,4.75944c-5.09019,0.73851 -12.89676,-7.40881 -13.53789,-11.82802z" fill="#59c059" stroke="none" stroke-width="0"/><path d="M234.0728,179.82552c0,2.52415 -1.11612,4.57039 -2.49294,4.57039c-1.37682,0 -2.49294,-2.04624 -2.49294,-4.57039c0,-2.52415 1.11612,-4.57039 2.49294,-4.57039c1.37682,0 2.49294,2.04624 2.49294,4.57039z" fill="#ffffff" stroke="none" stroke-width="0"/><path d="M254.57033,178.16356c0,2.52417 -1.11612,4.57039 -2.49294,4.57039c-1.37682,0 -2.49294,-2.04622 -2.49294,-4.57039c0,-2.52417 1.11612,-4.57039 2.49294,-4.57039c1.37682,0 2.49294,2.04622 2.49294,4.57039z" fill="#ffffff" stroke="none" stroke-width="0"/><path d="M248.19947,180.9335c0,0 -2.37508,4.06958 -5.26288,3.73941c-4.84557,-0.55398 -5.53987,-4.2934 -5.53987,-4.2934c0,0 2.07928,0.69249 4.98589,0.69249c2.9066,0 5.81687,-0.13849 5.81687,-0.13849z" fill="#ffffff" stroke="none" stroke-width="0"/><path d="M173,247v-134h134v134z" fill="none" stroke="none" stroke-width="0"/></g></g></svg>