<svg version="1.1" xmlns="http://www.w3.org/2000/svg" xmlns:xlink="http://www.w3.org/1999/xlink" width="215" height="215" viewBox="0,0,215,215"><g transform="translate(-132.5,-72.5)"><g data-paper-data="{&quot;isPaintingLayer&quot;:true}" fill-rule="nonzero" stroke="none" stroke-linejoin="miter" stroke-miterlimit="10" stroke-dasharray="" stroke-dashoffset="0" style="mix-blend-mode: normal"><path d="M237.05254,169.40592l4.30865,0.04735h2.65148c0.45769,0 0.78913,0.01579 0.99431,0.04735c0.20518,0.01579 0.44981,0.10259 0.7339,0.26043c0.50504,0.25252 0.75757,1.0022 0.75757,2.24903c0,1.13634 -0.23674,1.8229 -0.71022,2.05963c-0.2683,0.15783 -0.50504,0.25252 -0.71022,0.28409c-0.18938,0.03156 -0.48926,0.04735 -0.8996,0.04735h-4.94783c-0.03156,0.22095 -0.12625,0.93117 -0.28409,2.13065c0.20518,-0.03156 0.53661,-0.04735 0.99431,-0.04735c1.78343,0 3.39325,0.67866 4.82947,2.03596c1.43622,1.34152 2.15434,2.9908 2.15434,4.94785c0,1.94126 -0.67866,3.61422 -2.03596,5.01886c-1.3573,1.40465 -3.04605,2.10699 -5.06621,2.10699c-1.75186,0 -3.33013,-0.44192 -4.73478,-1.32574c-0.33143,-0.22095 -0.56817,-0.40245 -0.71022,-0.54449l-0.23674,-0.18938c-0.71022,-0.63131 -1.06532,-1.19948 -1.06532,-1.70452c0,-0.50504 0.34723,-1.12056 1.04165,-1.84656c0.56817,-0.61552 1.11268,-0.92327 1.6335,-0.92327c0.53661,0 1.16791,0.29988 1.89391,0.8996c0.34723,0.39457 0.93906,0.59186 1.77555,0.59186c0.83647,0 1.45199,-0.17361 1.84656,-0.52083c0.41034,-0.36299 0.61552,-0.86015 0.61552,-1.49145c0,-0.63131 -0.22095,-1.12845 -0.66287,-1.49145c-0.44192,-0.37879 -0.94696,-0.56817 -1.51513,-0.56817c-0.55239,0 -1.0022,0.17361 -1.34941,0.52083c-0.50504,0.42613 -1.01797,0.6392 -1.53879,0.6392c-0.52083,0 -1.11267,-0.17361 -1.77554,-0.52083c-0.66287,-0.36299 -1.10478,-0.65497 -1.32574,-0.87593c-0.20518,-0.22095 -0.30775,-0.44979 -0.30775,-0.68653c0,-0.25252 0.18938,-1.76766 0.56817,-4.54538c0.37879,-2.79352 0.57606,-4.24551 0.59186,-4.356c0.01579,-0.11048 0.07891,-0.30775 0.18938,-0.59184c0.12625,-0.28409 0.2683,-0.53661 0.42613,-0.75757c0.15783,-0.23674 0.40246,-0.44192 0.7339,-0.61552c0.33143,-0.18938 0.71022,-0.28409 1.13634,-0.28409z" fill="#ffffff" stroke-width="1" stroke-linecap="square"/><path d="M132.5,287.5v-215h215v215z" fill="none" stroke-width="0" stroke-linecap="butt"/></g></g></svg>