<svg version="1.1" xmlns="http://www.w3.org/2000/svg" xmlns:xlink="http://www.w3.org/1999/xlink" width="247.30761" height="25.95512" viewBox="0,0,247.30761,25.95512"><g transform="translate(-116.34619,-167.02244)"><g data-paper-data="{&quot;isPaintingLayer&quot;:true}" fill-rule="nonzero" stroke-miterlimit="10" stroke-dasharray="" stroke-dashoffset="0" style="mix-blend-mode: normal"><path d="M129.32375,167.02244h221.35249c7.18957,0 12.97756,5.78799 12.97756,12.97756c0,7.18957 -5.788,12.97756 -12.97756,12.97756h-221.35249c-7.18957,0 -12.97756,-5.78799 -12.97756,-12.97756c0,-7.18957 5.78799,-12.97756 12.97756,-12.97756z" fill="#000000" stroke="none" stroke-width="0.365" stroke-linecap="round" stroke-linejoin="round"/><path d="M132.89438,184.88474c-0.89583,0 -1.64062,-0.16146 -2.23437,-0.48437c-0.59375,-0.33333 -1.04167,-0.79687 -1.34375,-1.39062c-0.30208,-0.60417 -0.46875,-1.30208 -0.5,-2.09375c-0.01042,-0.39583 -0.01562,-0.82292 -0.01562,-1.28125c0,-0.45833 0.00521,-0.90104 0.01563,-1.32812c0.03125,-0.79167 0.19792,-1.48437 0.5,-2.07812c0.30208,-0.59375 0.75,-1.05729 1.34375,-1.39062c0.59375,-0.33333 1.33854,-0.5 2.23438,-0.5c0.67708,0 1.26563,0.09375 1.76563,0.28125c0.51042,0.1875 0.93229,0.4375 1.26563,0.75c0.34375,0.3125 0.60417,0.66146 0.78125,1.04688c0.17708,0.38542 0.27604,0.78125 0.29688,1.1875c0.01042,0.09375 -0.02083,0.17188 -0.09375,0.23438c-0.0625,0.05208 -0.13542,0.07813 -0.21875,0.07813h-0.8125c-0.08333,0 -0.15625,-0.02083 -0.21875,-0.0625c-0.0625,-0.05208 -0.10937,-0.14583 -0.14062,-0.28125c-0.16667,-0.76042 -0.47917,-1.28125 -0.9375,-1.5625c-0.44792,-0.28125 -1.01042,-0.42187 -1.6875,-0.42187c-0.79167,0 -1.41667,0.22396 -1.875,0.67188c-0.45833,0.4375 -0.70312,1.14583 -0.73437,2.125c-0.03125,0.80208 -0.03125,1.61979 0,2.45313c0.03125,0.97917 0.27604,1.69271 0.73438,2.14063c0.45833,0.44792 1.08333,0.67188 1.875,0.67188c0.67708,0 1.23958,-0.14062 1.6875,-0.42187c0.45833,-0.29167 0.77083,-0.81771 0.9375,-1.57812c0.03125,-0.125 0.07813,-0.20833 0.14063,-0.25c0.0625,-0.05208 0.13542,-0.07812 0.21875,-0.07812h0.8125c0.08333,0 0.15625,0.02604 0.21875,0.07813c0.07292,0.05208 0.10417,0.11979 0.09375,0.20313c-0.02083,0.41667 -0.11979,0.82292 -0.29687,1.21875c-0.17708,0.38542 -0.4375,0.73438 -0.78125,1.04688c-0.33333,0.3125 -0.75521,0.5625 -1.26562,0.75c-0.5,0.17708 -1.08854,0.26563 -1.76562,0.26563zM141.88985,184.88474c-0.73958,0 -1.35937,-0.14062 -1.85937,-0.42187c-0.5,-0.28125 -0.88021,-0.67187 -1.14062,-1.17187c-0.26042,-0.51042 -0.40625,-1.08854 -0.4375,-1.73437c-0.01042,-0.15625 -0.01562,-0.36458 -0.01562,-0.625c0,-0.26042 0.00521,-0.46875 0.01563,-0.625c0.03125,-0.65625 0.17708,-1.23437 0.4375,-1.73437c0.27083,-0.5 0.65625,-0.89062 1.15625,-1.17187c0.5,-0.28125 1.11458,-0.42187 1.84375,-0.42187c0.73958,0 1.35417,0.14063 1.84375,0.42188c0.5,0.28125 0.88542,0.67188 1.15625,1.17188c0.27083,0.5 0.42188,1.07813 0.45313,1.73438c0.01042,0.15625 0.01563,0.36458 0.01563,0.625c0,0.26042 -0.00521,0.46875 -0.01562,0.625c-0.03125,0.64583 -0.18229,1.22396 -0.45312,1.73438c-0.26042,0.5 -0.64062,0.89063 -1.14062,1.17188c-0.5,0.28125 -1.11979,0.42188 -1.85937,0.42188zM141.88985,183.75974c0.60417,0 1.08854,-0.19271 1.45313,-0.57812c0.36458,-0.38542 0.5625,-0.94792 0.59375,-1.6875c0.01042,-0.14583 0.01563,-0.32812 0.01563,-0.54687c0,-0.22917 -0.00521,-0.42187 -0.01562,-0.57812c-0.03125,-0.73958 -0.22917,-1.30208 -0.59375,-1.6875c-0.36458,-0.38542 -0.84896,-0.57812 -1.45312,-0.57812c-0.60417,0 -1.08854,0.19271 -1.45312,0.57813c-0.36458,0.38542 -0.55729,0.94792 -0.57812,1.6875c-0.01042,0.15625 -0.01562,0.34896 -0.01562,0.57813c0,0.21875 0.00521,0.40104 0.01563,0.54688c0.02083,0.73958 0.21354,1.30208 0.57813,1.6875c0.36458,0.38542 0.84896,0.57813 1.45313,0.57813zM147.52131,184.74412c-0.09375,0 -0.17708,-0.03125 -0.25,-0.09375c-0.0625,-0.0625 -0.09375,-0.14583 -0.09375,-0.25v-6.9375c0,-0.10417 0.03125,-0.1875 0.09375,-0.25c0.07292,-0.0625 0.15625,-0.09375 0.25,-0.09375h0.65625c0.10417,0 0.1875,0.03125 0.25,0.09375c0.0625,0.0625 0.09375,0.14583 0.09375,0.25v0.51563c0.21875,-0.30208 0.5,-0.54167 0.84375,-0.71875c0.34375,-0.1875 0.75521,-0.28125 1.23438,-0.28125c1.10417,-0.01042 1.88542,0.4375 2.34375,1.34375c0.22917,-0.40625 0.55729,-0.72917 0.98438,-0.96875c0.42708,-0.25 0.91667,-0.375 1.46875,-0.375c0.5,0 0.95833,0.11979 1.375,0.35938c0.41667,0.22917 0.74479,0.58333 0.98438,1.0625c0.23958,0.46875 0.35938,1.05729 0.35938,1.76563v4.23438c0,0.10417 -0.03125,0.1875 -0.09375,0.25c-0.0625,0.0625 -0.14062,0.09375 -0.23437,0.09375h-0.6875c-0.10417,0 -0.1875,-0.03125 -0.25,-0.09375c-0.0625,-0.0625 -0.09375,-0.14583 -0.09375,-0.25v-4.09375c0,-0.55208 -0.07812,-0.98437 -0.23437,-1.29687c-0.15625,-0.3125 -0.36979,-0.53125 -0.64062,-0.65625c-0.26042,-0.125 -0.54687,-0.1875 -0.85937,-0.1875c-0.25,0 -0.51042,0.0625 -0.78125,0.1875c-0.26042,0.125 -0.47917,0.34375 -0.65625,0.65625c-0.16667,0.3125 -0.25,0.74479 -0.25,1.29688v4.09375c0,0.10417 -0.03125,0.1875 -0.09375,0.25c-0.0625,0.0625 -0.14062,0.09375 -0.23437,0.09375h-0.6875c-0.10417,0 -0.1875,-0.03125 -0.25,-0.09375c-0.0625,-0.0625 -0.09375,-0.14583 -0.09375,-0.25v-4.09375c0,-0.55208 -0.08333,-0.98437 -0.25,-1.29687c-0.16667,-0.3125 -0.38021,-0.53125 -0.64062,-0.65625c-0.26042,-0.125 -0.54167,-0.1875 -0.84375,-0.1875c-0.25,0 -0.51042,0.0625 -0.78125,0.1875c-0.26042,0.125 -0.47396,0.34375 -0.64062,0.65625c-0.16667,0.3125 -0.25,0.73958 -0.25,1.28125v4.10938c0,0.10417 -0.03646,0.1875 -0.10937,0.25c-0.0625,0.0625 -0.14062,0.09375 -0.23437,0.09375zM160.5664,187.52537c-0.09375,0 -0.17708,-0.03125 -0.25,-0.09375c-0.0625,-0.0625 -0.09375,-0.14062 -0.09375,-0.23437v-9.73437c0,-0.10417 0.03125,-0.1875 0.09375,-0.25c0.07292,-0.0625 0.15625,-0.09375 0.25,-0.09375h0.67188c0.09375,0 0.17188,0.03125 0.23438,0.09375c0.07292,0.0625 0.10938,0.14583 0.10938,0.25v0.64063c0.22917,-0.32292 0.53646,-0.58854 0.92188,-0.79687c0.39583,-0.21875 0.88542,-0.32812 1.46875,-0.32812c0.55208,0 1.02083,0.09375 1.40625,0.28125c0.38542,0.1875 0.70313,0.44271 0.95313,0.76563c0.25,0.3125 0.4375,0.67708 0.5625,1.09375c0.125,0.40625 0.19792,0.84375 0.21875,1.3125c0.01042,0.15625 0.01563,0.32292 0.01563,0.5c0,0.17708 -0.00521,0.34375 -0.01562,0.5c-0.02083,0.45833 -0.09375,0.89583 -0.21875,1.3125c-0.125,0.41667 -0.3125,0.78646 -0.5625,1.10938c-0.25,0.3125 -0.56771,0.5625 -0.95312,0.75c-0.38542,0.1875 -0.85417,0.28125 -1.40625,0.28125c-0.5625,0 -1.03646,-0.10417 -1.42187,-0.3125c-0.38542,-0.20833 -0.69792,-0.46875 -0.9375,-0.78125v3.40625c0,0.09375 -0.03125,0.17188 -0.09375,0.23438c-0.0625,0.0625 -0.14062,0.09375 -0.23437,0.09375zM163.67576,183.69724c0.51042,0 0.90625,-0.10937 1.1875,-0.32812c0.29167,-0.21875 0.5,-0.50521 0.625,-0.85937c0.125,-0.35417 0.19792,-0.73958 0.21875,-1.15625c0.01042,-0.28125 0.01042,-0.5625 0,-0.84375c-0.02083,-0.40625 -0.09375,-0.78646 -0.21875,-1.14062c-0.125,-0.36458 -0.33333,-0.65625 -0.625,-0.875c-0.28125,-0.21875 -0.67708,-0.32812 -1.1875,-0.32812c-0.47917,0 -0.86979,0.11458 -1.17187,0.34375c-0.29167,0.21875 -0.51042,0.50521 -0.65625,0.85938c-0.14583,0.34375 -0.22396,0.69271 -0.23437,1.04688c-0.01042,0.15625 -0.01562,0.34375 -0.01562,0.5625c0,0.21875 0.00521,0.41146 0.01563,0.57813c0,0.33333 0.07813,0.66667 0.23438,1c0.15625,0.33333 0.38542,0.60938 0.6875,0.82813c0.30208,0.20833 0.68229,0.3125 1.14063,0.3125zM169.30154,184.74412c-0.09375,0 -0.17708,-0.03125 -0.25,-0.09375c-0.0625,-0.0625 -0.09375,-0.14583 -0.09375,-0.25v-9.71875c0,-0.10417 0.03125,-0.1875 0.09375,-0.25c0.07292,-0.0625 0.15625,-0.09375 0.25,-0.09375h0.6875c0.10417,0 0.1875,0.03125 0.25,0.09375c0.0625,0.0625 0.09375,0.14583 0.09375,0.25v9.71875c0,0.10417 -0.03125,0.1875 -0.09375,0.25c-0.0625,0.0625 -0.14583,0.09375 -0.25,0.09375zM175.56615,184.88474c-1.02083,0 -1.82812,-0.30729 -2.42187,-0.92187c-0.59375,-0.625 -0.92187,-1.47396 -0.98437,-2.54687c-0.01042,-0.125 -0.01562,-0.28646 -0.01562,-0.48437c0,-0.20833 0.00521,-0.375 0.01563,-0.5c0.04167,-0.6875 0.20313,-1.29167 0.48438,-1.8125c0.28125,-0.53125 0.66667,-0.9375 1.15625,-1.21875c0.5,-0.28125 1.08333,-0.42187 1.75,-0.42187c0.73958,0 1.35938,0.15625 1.85938,0.46875c0.5,0.3125 0.88021,0.76042 1.14063,1.34375c0.27083,0.57292 0.40625,1.24479 0.40625,2.01563v0.25c0,0.10417 -0.03125,0.1875 -0.09375,0.25c-0.0625,0.05208 -0.14062,0.07813 -0.23437,0.07813h-5.07812c0,0.01042 0,0.03125 0,0.0625c0,0.03125 0,0.05729 0,0.07813c0.02083,0.39583 0.10938,0.77083 0.26563,1.125c0.15625,0.34375 0.38021,0.625 0.67188,0.84375c0.30208,0.20833 0.65625,0.3125 1.0625,0.3125c0.34375,0 0.63021,-0.05208 0.85938,-0.15625c0.23958,-0.11458 0.43229,-0.23437 0.57813,-0.35937c0.15625,-0.13542 0.25521,-0.23958 0.29688,-0.3125c0.09375,-0.125 0.16146,-0.19792 0.20313,-0.21875c0.05208,-0.02083 0.13021,-0.03125 0.23438,-0.03125h0.71875c0.09375,0 0.17188,0.02604 0.23438,0.07813c0.0625,0.05208 0.08854,0.125 0.07813,0.21875c-0.01042,0.14583 -0.08854,0.32813 -0.23437,0.54688c-0.14583,0.20833 -0.35417,0.41667 -0.625,0.625c-0.27083,0.19792 -0.60417,0.36458 -1,0.5c-0.39583,0.125 -0.83854,0.1875 -1.32812,0.1875zM173.55054,180.36912h4.01563v-0.03125c0,-0.44792 -0.08333,-0.83854 -0.25,-1.17187c-0.15625,-0.34375 -0.38542,-0.61458 -0.6875,-0.8125c-0.30208,-0.20833 -0.66146,-0.3125 -1.07812,-0.3125c-0.42708,0 -0.79167,0.10417 -1.09375,0.3125c-0.29167,0.19792 -0.51562,0.46875 -0.67187,0.8125c-0.15625,0.33333 -0.23437,0.72396 -0.23437,1.17188zM183.65155,184.74412c-0.55208,0 -1,-0.10417 -1.34375,-0.3125c-0.33333,-0.20833 -0.57812,-0.50521 -0.73437,-0.89062c-0.15625,-0.38542 -0.23437,-0.84375 -0.23437,-1.375v-3.875h-1.15625c-0.09375,0 -0.17187,-0.03125 -0.23437,-0.09375c-0.0625,-0.0625 -0.09375,-0.14062 -0.09375,-0.23437v-0.5c0,-0.10417 0.03125,-0.1875 0.09375,-0.25c0.0625,-0.0625 0.14063,-0.09375 0.23438,-0.09375h1.15625v-2.4375c0,-0.10417 0.03125,-0.1875 0.09375,-0.25c0.0625,-0.0625 0.14063,-0.09375 0.23438,-0.09375h0.6875c0.10417,0 0.1875,0.03125 0.25,0.09375c0.0625,0.0625 0.09375,0.14583 0.09375,0.25v2.4375h1.8125c0.10417,0 0.1875,0.03125 0.25,0.09375c0.0625,0.0625 0.09375,0.14583 0.09375,0.25v0.5c0,0.09375 -0.03125,0.17188 -0.09375,0.23438c-0.0625,0.0625 -0.14583,0.09375 -0.25,0.09375h-1.8125v3.76563c0,0.45833 0.07813,0.82292 0.23438,1.09375c0.15625,0.26042 0.43229,0.39063 0.82813,0.39063h0.90625c0.09375,0 0.17188,0.03125 0.23438,0.09375c0.0625,0.0625 0.09375,0.14583 0.09375,0.25v0.51563c0,0.10417 -0.03125,0.1875 -0.09375,0.25c-0.0625,0.0625 -0.14062,0.09375 -0.23437,0.09375zM189.46029,184.88474c-1.02083,0 -1.82812,-0.30729 -2.42187,-0.92187c-0.59375,-0.625 -0.92187,-1.47396 -0.98437,-2.54687c-0.01042,-0.125 -0.01562,-0.28646 -0.01562,-0.48437c0,-0.20833 0.00521,-0.375 0.01563,-0.5c0.04167,-0.6875 0.20313,-1.29167 0.48438,-1.8125c0.28125,-0.53125 0.66667,-0.9375 1.15625,-1.21875c0.5,-0.28125 1.08333,-0.42187 1.75,-0.42187c0.73958,0 1.35938,0.15625 1.85938,0.46875c0.5,0.3125 0.88021,0.76042 1.14063,1.34375c0.27083,0.57292 0.40625,1.24479 0.40625,2.01563v0.25c0,0.10417 -0.03125,0.1875 -0.09375,0.25c-0.0625,0.05208 -0.14062,0.07813 -0.23437,0.07813h-5.07812c0,0.01042 0,0.03125 0,0.0625c0,0.03125 0,0.05729 0,0.07813c0.02083,0.39583 0.10938,0.77083 0.26563,1.125c0.15625,0.34375 0.38021,0.625 0.67188,0.84375c0.30208,0.20833 0.65625,0.3125 1.0625,0.3125c0.34375,0 0.63021,-0.05208 0.85938,-0.15625c0.23958,-0.11458 0.43229,-0.23437 0.57813,-0.35937c0.15625,-0.13542 0.25521,-0.23958 0.29688,-0.3125c0.09375,-0.125 0.16146,-0.19792 0.20313,-0.21875c0.05208,-0.02083 0.13021,-0.03125 0.23438,-0.03125h0.71875c0.09375,0 0.17188,0.02604 0.23438,0.07813c0.0625,0.05208 0.08854,0.125 0.07813,0.21875c-0.01042,0.14583 -0.08854,0.32813 -0.23437,0.54688c-0.14583,0.20833 -0.35417,0.41667 -0.625,0.625c-0.27083,0.19792 -0.60417,0.36458 -1,0.5c-0.39583,0.125 -0.83854,0.1875 -1.32812,0.1875zM187.44467,180.36912h4.01563v-0.03125c0,-0.44792 -0.08333,-0.83854 -0.25,-1.17187c-0.15625,-0.34375 -0.38542,-0.61458 -0.6875,-0.8125c-0.30208,-0.20833 -0.66146,-0.3125 -1.07812,-0.3125c-0.42708,0 -0.79167,0.10417 -1.09375,0.3125c-0.29167,0.19792 -0.51562,0.46875 -0.67187,0.8125c-0.15625,0.33333 -0.23437,0.72396 -0.23437,1.17188zM200.32114,184.88474c-0.47917,0 -0.92187,-0.09375 -1.32812,-0.28125c-0.39583,-0.19792 -0.71875,-0.46354 -0.96875,-0.79687c-0.23958,-0.33333 -0.35937,-0.70833 -0.35937,-1.125c0,-0.67708 0.27083,-1.21354 0.8125,-1.60937c0.55208,-0.40625 1.26563,-0.67187 2.14063,-0.79687l2.1875,-0.3125v-0.42187c0,-0.46875 -0.13542,-0.83333 -0.40625,-1.09375c-0.27083,-0.27083 -0.70833,-0.40625 -1.3125,-0.40625c-0.42708,0 -0.78125,0.08854 -1.0625,0.26563c-0.27083,0.17708 -0.45833,0.40104 -0.5625,0.67188c-0.0625,0.14583 -0.16667,0.21875 -0.3125,0.21875h-0.65625c-0.10417,0 -0.18229,-0.03125 -0.23437,-0.09375c-0.05208,-0.0625 -0.07812,-0.13542 -0.07812,-0.21875c0,-0.14583 0.05208,-0.32812 0.15625,-0.54687c0.11458,-0.21875 0.28646,-0.42708 0.51563,-0.625c0.23958,-0.20833 0.54167,-0.38021 0.90625,-0.51562c0.36458,-0.14583 0.8125,-0.21875 1.34375,-0.21875c0.58333,0 1.07292,0.07813 1.46875,0.23438c0.40625,0.14583 0.72396,0.34896 0.95313,0.60938c0.22917,0.25 0.39583,0.53646 0.5,0.85938c0.10417,0.32292 0.15625,0.65104 0.15625,0.98438v4.73438c0,0.10417 -0.03125,0.1875 -0.09375,0.25c-0.0625,0.0625 -0.14062,0.09375 -0.23437,0.09375h-0.6875c-0.10417,0 -0.1875,-0.03125 -0.25,-0.09375c-0.05208,-0.0625 -0.07812,-0.14583 -0.07812,-0.25v-0.625c-0.125,0.17708 -0.29687,0.35417 -0.51562,0.53125c-0.21875,0.16667 -0.48958,0.30729 -0.8125,0.42188c-0.32292,0.10417 -0.71875,0.15625 -1.1875,0.15625zM200.63364,183.79099c0.40625,0 0.77083,-0.08333 1.09375,-0.25c0.33333,-0.17708 0.59375,-0.44271 0.78125,-0.79687c0.19792,-0.36458 0.29688,-0.82292 0.29688,-1.375v-0.40625l-1.70312,0.25c-0.6875,0.09375 -1.20833,0.25521 -1.5625,0.48438c-0.35417,0.22917 -0.53125,0.52083 -0.53125,0.875c0,0.27083 0.07813,0.5 0.23438,0.6875c0.16667,0.17708 0.375,0.3125 0.625,0.40625c0.25,0.08333 0.50521,0.125 0.76563,0.125zM206.64578,184.74412c-0.09375,0 -0.17708,-0.03125 -0.25,-0.09375c-0.0625,-0.0625 -0.09375,-0.14583 -0.09375,-0.25v-9.71875c0,-0.10417 0.03125,-0.1875 0.09375,-0.25c0.07292,-0.0625 0.15625,-0.09375 0.25,-0.09375h0.6875c0.10417,0 0.1875,0.03125 0.25,0.09375c0.0625,0.0625 0.09375,0.14583 0.09375,0.25v9.71875c0,0.10417 -0.03125,0.1875 -0.09375,0.25c-0.0625,0.0625 -0.14583,0.09375 -0.25,0.09375zM210.20728,184.74412c-0.09375,0 -0.17708,-0.03125 -0.25,-0.09375c-0.0625,-0.0625 -0.09375,-0.14583 -0.09375,-0.25v-9.71875c0,-0.10417 0.03125,-0.1875 0.09375,-0.25c0.07292,-0.0625 0.15625,-0.09375 0.25,-0.09375h0.6875c0.10417,0 0.1875,0.03125 0.25,0.09375c0.0625,0.0625 0.09375,0.14583 0.09375,0.25v9.71875c0,0.10417 -0.03125,0.1875 -0.09375,0.25c-0.0625,0.0625 -0.14583,0.09375 -0.25,0.09375zM220.12514,184.88474c-0.73958,0 -1.35937,-0.14062 -1.85937,-0.42187c-0.5,-0.28125 -0.88021,-0.67187 -1.14062,-1.17187c-0.26042,-0.51042 -0.40625,-1.08854 -0.4375,-1.73437c-0.01042,-0.15625 -0.01562,-0.36458 -0.01562,-0.625c0,-0.26042 0.00521,-0.46875 0.01563,-0.625c0.03125,-0.65625 0.17708,-1.23437 0.4375,-1.73437c0.27083,-0.5 0.65625,-0.89062 1.15625,-1.17187c0.5,-0.28125 1.11458,-0.42187 1.84375,-0.42187c0.73958,0 1.35417,0.14063 1.84375,0.42188c0.5,0.28125 0.88542,0.67188 1.15625,1.17188c0.27083,0.5 0.42188,1.07813 0.45313,1.73438c0.01042,0.15625 0.01563,0.36458 0.01563,0.625c0,0.26042 -0.00521,0.46875 -0.01562,0.625c-0.03125,0.64583 -0.18229,1.22396 -0.45312,1.73438c-0.26042,0.5 -0.64062,0.89063 -1.14062,1.17188c-0.5,0.28125 -1.11979,0.42188 -1.85937,0.42188zM220.12514,183.75974c0.60417,0 1.08854,-0.19271 1.45313,-0.57812c0.36458,-0.38542 0.5625,-0.94792 0.59375,-1.6875c0.01042,-0.14583 0.01563,-0.32812 0.01563,-0.54687c0,-0.22917 -0.00521,-0.42187 -0.01562,-0.57812c-0.03125,-0.73958 -0.22917,-1.30208 -0.59375,-1.6875c-0.36458,-0.38542 -0.84896,-0.57812 -1.45312,-0.57812c-0.60417,0 -1.08854,0.19271 -1.45312,0.57813c-0.36458,0.38542 -0.55729,0.94792 -0.57812,1.6875c-0.01042,0.15625 -0.01562,0.34896 -0.01562,0.57813c0,0.21875 0.00521,0.40104 0.01563,0.54688c0.02083,0.73958 0.21354,1.30208 0.57813,1.6875c0.36458,0.38542 0.84896,0.57813 1.45313,0.57813zM228.32391,184.74412c-0.55208,0 -1,-0.10417 -1.34375,-0.3125c-0.33333,-0.20833 -0.57812,-0.50521 -0.73437,-0.89062c-0.15625,-0.38542 -0.23437,-0.84375 -0.23437,-1.375v-3.875h-1.15625c-0.09375,0 -0.17187,-0.03125 -0.23437,-0.09375c-0.0625,-0.0625 -0.09375,-0.14062 -0.09375,-0.23437v-0.5c0,-0.10417 0.03125,-0.1875 0.09375,-0.25c0.0625,-0.0625 0.14063,-0.09375 0.23438,-0.09375h1.15625v-2.4375c0,-0.10417 0.03125,-0.1875 0.09375,-0.25c0.0625,-0.0625 0.14063,-0.09375 0.23438,-0.09375h0.6875c0.10417,0 0.1875,0.03125 0.25,0.09375c0.0625,0.0625 0.09375,0.14583 0.09375,0.25v2.4375h1.8125c0.10417,0 0.1875,0.03125 0.25,0.09375c0.0625,0.0625 0.09375,0.14583 0.09375,0.25v0.5c0,0.09375 -0.03125,0.17188 -0.09375,0.23438c-0.0625,0.0625 -0.14583,0.09375 -0.25,0.09375h-1.8125v3.76563c0,0.45833 0.07813,0.82292 0.23438,1.09375c0.15625,0.26042 0.43229,0.39063 0.82813,0.39063h0.90625c0.09375,0 0.17188,0.03125 0.23438,0.09375c0.0625,0.0625 0.09375,0.14583 0.09375,0.25v0.51563c0,0.10417 -0.03125,0.1875 -0.09375,0.25c-0.0625,0.0625 -0.14062,0.09375 -0.23437,0.09375zM231.42954,184.74412c-0.09375,0 -0.17708,-0.03125 -0.25,-0.09375c-0.0625,-0.0625 -0.09375,-0.14583 -0.09375,-0.25v-9.71875c0,-0.10417 0.03125,-0.1875 0.09375,-0.25c0.07292,-0.0625 0.15625,-0.09375 0.25,-0.09375h0.73438c0.10417,0 0.18229,0.03125 0.23438,0.09375c0.0625,0.0625 0.09375,0.14583 0.09375,0.25v3.40625c0.27083,-0.33333 0.59375,-0.59896 0.96875,-0.79687c0.38542,-0.20833 0.86979,-0.3125 1.45313,-0.3125c0.63542,0 1.17188,0.14063 1.60938,0.42188c0.44792,0.27083 0.78646,0.65625 1.01563,1.15625c0.23958,0.48958 0.35938,1.0625 0.35938,1.71875v4.125c0,0.10417 -0.03125,0.1875 -0.09375,0.25c-0.0625,0.0625 -0.14583,0.09375 -0.25,0.09375h-0.73437c-0.09375,0 -0.17187,-0.03125 -0.23437,-0.09375c-0.0625,-0.0625 -0.09375,-0.14583 -0.09375,-0.25v-4.04687c0,-0.6875 -0.16667,-1.22396 -0.5,-1.60937c-0.33333,-0.38542 -0.82292,-0.57812 -1.46875,-0.57812c-0.60417,0 -1.09375,0.19271 -1.46875,0.57813c-0.375,0.38542 -0.5625,0.92188 -0.5625,1.60938v4.04688c0,0.10417 -0.03125,0.1875 -0.09375,0.25c-0.05208,0.0625 -0.13021,0.09375 -0.23437,0.09375zM243.05834,184.88474c-1.02083,0 -1.82812,-0.30729 -2.42187,-0.92187c-0.59375,-0.625 -0.92187,-1.47396 -0.98437,-2.54687c-0.01042,-0.125 -0.01562,-0.28646 -0.01562,-0.48437c0,-0.20833 0.00521,-0.375 0.01563,-0.5c0.04167,-0.6875 0.20313,-1.29167 0.48438,-1.8125c0.28125,-0.53125 0.66667,-0.9375 1.15625,-1.21875c0.5,-0.28125 1.08333,-0.42187 1.75,-0.42187c0.73958,0 1.35938,0.15625 1.85938,0.46875c0.5,0.3125 0.88021,0.76042 1.14063,1.34375c0.27083,0.57292 0.40625,1.24479 0.40625,2.01563v0.25c0,0.10417 -0.03125,0.1875 -0.09375,0.25c-0.0625,0.05208 -0.14062,0.07813 -0.23437,0.07813h-5.07812c0,0.01042 0,0.03125 0,0.0625c0,0.03125 0,0.05729 0,0.07813c0.02083,0.39583 0.10938,0.77083 0.26563,1.125c0.15625,0.34375 0.38021,0.625 0.67188,0.84375c0.30208,0.20833 0.65625,0.3125 1.0625,0.3125c0.34375,0 0.63021,-0.05208 0.85938,-0.15625c0.23958,-0.11458 0.43229,-0.23437 0.57813,-0.35937c0.15625,-0.13542 0.25521,-0.23958 0.29688,-0.3125c0.09375,-0.125 0.16146,-0.19792 0.20313,-0.21875c0.05208,-0.02083 0.13021,-0.03125 0.23438,-0.03125h0.71875c0.09375,0 0.17188,0.02604 0.23438,0.07813c0.0625,0.05208 0.08854,0.125 0.07813,0.21875c-0.01042,0.14583 -0.08854,0.32813 -0.23437,0.54688c-0.14583,0.20833 -0.35417,0.41667 -0.625,0.625c-0.27083,0.19792 -0.60417,0.36458 -1,0.5c-0.39583,0.125 -0.83854,0.1875 -1.32812,0.1875zM241.04272,180.36912h4.01563v-0.03125c0,-0.44792 -0.08333,-0.83854 -0.25,-1.17187c-0.15625,-0.34375 -0.38542,-0.61458 -0.6875,-0.8125c-0.30208,-0.20833 -0.66146,-0.3125 -1.07812,-0.3125c-0.42708,0 -0.79167,0.10417 -1.09375,0.3125c-0.29167,0.19792 -0.51562,0.46875 -0.67187,0.8125c-0.15625,0.33333 -0.23437,0.72396 -0.23437,1.17188zM248.54714,184.74412c-0.09375,0 -0.17708,-0.03125 -0.25,-0.09375c-0.0625,-0.0625 -0.09375,-0.14583 -0.09375,-0.25v-6.92187c0,-0.10417 0.03125,-0.1875 0.09375,-0.25c0.07292,-0.07292 0.15625,-0.10937 0.25,-0.10937h0.67188c0.10417,0 0.1875,0.03646 0.25,0.10938c0.07292,0.0625 0.10938,0.14583 0.10938,0.25v0.64063c0.1875,-0.33333 0.45313,-0.58333 0.79688,-0.75c0.34375,-0.16667 0.76042,-0.25 1.25,-0.25h0.57813c0.09375,0 0.17188,0.03125 0.23438,0.09375c0.0625,0.0625 0.09375,0.14583 0.09375,0.25v0.59375c0,0.10417 -0.03125,0.1875 -0.09375,0.25c-0.0625,0.05208 -0.14062,0.07813 -0.23437,0.07813h-0.89062c-0.52083,0 -0.9375,0.15625 -1.25,0.46875c-0.30208,0.30208 -0.45312,0.71875 -0.45312,1.25v4.29688c0,0.10417 -0.03646,0.1875 -0.10937,0.25c-0.0625,0.0625 -0.14062,0.09375 -0.23437,0.09375zM259.15124,184.88474c-0.47917,0 -0.92187,-0.09375 -1.32812,-0.28125c-0.39583,-0.19792 -0.71875,-0.46354 -0.96875,-0.79687c-0.23958,-0.33333 -0.35937,-0.70833 -0.35937,-1.125c0,-0.67708 0.27083,-1.21354 0.8125,-1.60937c0.55208,-0.40625 1.26563,-0.67187 2.14063,-0.79687l2.1875,-0.3125v-0.42187c0,-0.46875 -0.13542,-0.83333 -0.40625,-1.09375c-0.27083,-0.27083 -0.70833,-0.40625 -1.3125,-0.40625c-0.42708,0 -0.78125,0.08854 -1.0625,0.26563c-0.27083,0.17708 -0.45833,0.40104 -0.5625,0.67188c-0.0625,0.14583 -0.16667,0.21875 -0.3125,0.21875h-0.65625c-0.10417,0 -0.18229,-0.03125 -0.23437,-0.09375c-0.05208,-0.0625 -0.07812,-0.13542 -0.07812,-0.21875c0,-0.14583 0.05208,-0.32812 0.15625,-0.54687c0.11458,-0.21875 0.28646,-0.42708 0.51563,-0.625c0.23958,-0.20833 0.54167,-0.38021 0.90625,-0.51562c0.36458,-0.14583 0.8125,-0.21875 1.34375,-0.21875c0.58333,0 1.07292,0.07813 1.46875,0.23438c0.40625,0.14583 0.72396,0.34896 0.95313,0.60938c0.22917,0.25 0.39583,0.53646 0.5,0.85938c0.10417,0.32292 0.15625,0.65104 0.15625,0.98438v4.73438c0,0.10417 -0.03125,0.1875 -0.09375,0.25c-0.0625,0.0625 -0.14062,0.09375 -0.23437,0.09375h-0.6875c-0.10417,0 -0.1875,-0.03125 -0.25,-0.09375c-0.05208,-0.0625 -0.07812,-0.14583 -0.07812,-0.25v-0.625c-0.125,0.17708 -0.29687,0.35417 -0.51562,0.53125c-0.21875,0.16667 -0.48958,0.30729 -0.8125,0.42188c-0.32292,0.10417 -0.71875,0.15625 -1.1875,0.15625zM259.46374,183.79099c0.40625,0 0.77083,-0.08333 1.09375,-0.25c0.33333,-0.17708 0.59375,-0.44271 0.78125,-0.79687c0.19792,-0.36458 0.29688,-0.82292 0.29688,-1.375v-0.40625l-1.70312,0.25c-0.6875,0.09375 -1.20833,0.25521 -1.5625,0.48438c-0.35417,0.22917 -0.53125,0.52083 -0.53125,0.875c0,0.27083 0.07813,0.5 0.23438,0.6875c0.16667,0.17708 0.375,0.3125 0.625,0.40625c0.25,0.08333 0.50521,0.125 0.76563,0.125zM268.19467,184.88474c-0.6875,0 -1.28646,-0.13021 -1.79687,-0.39062c-0.5,-0.27083 -0.88542,-0.65625 -1.15625,-1.15625c-0.27083,-0.51042 -0.41667,-1.11458 -0.4375,-1.8125c-0.01042,-0.14583 -0.01562,-0.33854 -0.01562,-0.57812c0,-0.25 0.00521,-0.44792 0.01563,-0.59375c0.02083,-0.70833 0.16667,-1.3125 0.4375,-1.8125c0.27083,-0.51042 0.65625,-0.89583 1.15625,-1.15625c0.51042,-0.27083 1.10938,-0.40625 1.79688,-0.40625c0.57292,0 1.0625,0.07813 1.46875,0.23438c0.40625,0.15625 0.73958,0.35938 1,0.60938c0.26042,0.23958 0.45833,0.5 0.59375,0.78125c0.13542,0.28125 0.20833,0.55208 0.21875,0.8125c0.01042,0.09375 -0.02083,0.17188 -0.09375,0.23438c-0.07292,0.05208 -0.15625,0.07813 -0.25,0.07813h-0.70312c-0.09375,0 -0.16667,-0.02083 -0.21875,-0.0625c-0.05208,-0.04167 -0.09896,-0.11979 -0.14062,-0.23437c-0.17708,-0.47917 -0.42187,-0.8125 -0.73437,-1c-0.30208,-0.19792 -0.67708,-0.29687 -1.125,-0.29687c-0.58333,0 -1.05729,0.18229 -1.42187,0.54688c-0.36458,0.35417 -0.5625,0.93229 -0.59375,1.73438c-0.01042,0.35417 -0.01042,0.69792 0,1.03125c0.03125,0.8125 0.22917,1.39583 0.59375,1.75c0.36458,0.35417 0.83854,0.53125 1.42188,0.53125c0.44792,0 0.82292,-0.09375 1.125,-0.28125c0.3125,-0.19792 0.55729,-0.53646 0.73438,-1.01562c0.04167,-0.11458 0.08854,-0.19271 0.14063,-0.23437c0.05208,-0.05208 0.125,-0.07812 0.21875,-0.07812h0.70313c0.09375,0 0.17708,0.03125 0.25,0.09375c0.07292,0.0625 0.10417,0.14583 0.09375,0.25c-0.01042,0.19792 -0.05729,0.40625 -0.14062,0.625c-0.07292,0.21875 -0.19792,0.4375 -0.375,0.65625c-0.16667,0.21875 -0.38021,0.41667 -0.64062,0.59375c-0.25,0.16667 -0.55208,0.30208 -0.90625,0.40625c-0.35417,0.09375 -0.76042,0.14063 -1.21875,0.14063zM273.56622,184.74412c-0.09375,0 -0.17708,-0.03125 -0.25,-0.09375c-0.0625,-0.0625 -0.09375,-0.14583 -0.09375,-0.25v-9.71875c0,-0.10417 0.03125,-0.1875 0.09375,-0.25c0.07292,-0.0625 0.15625,-0.09375 0.25,-0.09375h0.73438c0.10417,0 0.18229,0.03125 0.23438,0.09375c0.0625,0.0625 0.09375,0.14583 0.09375,0.25v3.40625c0.27083,-0.33333 0.59375,-0.59896 0.96875,-0.79687c0.38542,-0.20833 0.86979,-0.3125 1.45313,-0.3125c0.63542,0 1.17188,0.14063 1.60938,0.42188c0.44792,0.27083 0.78646,0.65625 1.01563,1.15625c0.23958,0.48958 0.35938,1.0625 0.35938,1.71875v4.125c0,0.10417 -0.03125,0.1875 -0.09375,0.25c-0.0625,0.0625 -0.14583,0.09375 -0.25,0.09375h-0.73437c-0.09375,0 -0.17187,-0.03125 -0.23437,-0.09375c-0.0625,-0.0625 -0.09375,-0.14583 -0.09375,-0.25v-4.04687c0,-0.6875 -0.16667,-1.22396 -0.5,-1.60937c-0.33333,-0.38542 -0.82292,-0.57812 -1.46875,-0.57812c-0.60417,0 -1.09375,0.19271 -1.46875,0.57813c-0.375,0.38542 -0.5625,0.92188 -0.5625,1.60938v4.04688c0,0.10417 -0.03125,0.1875 -0.09375,0.25c-0.05208,0.0625 -0.13021,0.09375 -0.23437,0.09375zM282.47625,184.74412c-0.09375,0 -0.17708,-0.03125 -0.25,-0.09375c-0.0625,-0.0625 -0.09375,-0.14583 -0.09375,-0.25v-6.9375c0,-0.10417 0.03125,-0.1875 0.09375,-0.25c0.07292,-0.0625 0.15625,-0.09375 0.25,-0.09375h0.70313c0.09375,0 0.17188,0.03125 0.23438,0.09375c0.07292,0.0625 0.10938,0.14583 0.10938,0.25v6.9375c0,0.10417 -0.03646,0.1875 -0.10937,0.25c-0.0625,0.0625 -0.14062,0.09375 -0.23437,0.09375zM282.35125,175.69724c-0.09375,0 -0.17187,-0.03125 -0.23437,-0.09375c-0.0625,-0.0625 -0.09375,-0.14062 -0.09375,-0.23437v-0.79687c0,-0.09375 0.03125,-0.17187 0.09375,-0.23437c0.0625,-0.07292 0.14063,-0.10937 0.23438,-0.10937h0.9375c0.09375,0 0.17188,0.03646 0.23438,0.10938c0.07292,0.0625 0.10938,0.14063 0.10938,0.23438v0.79688c0,0.09375 -0.03646,0.17188 -0.10937,0.23438c-0.0625,0.0625 -0.14062,0.09375 -0.23437,0.09375zM288.74181,184.88474c-1.02083,0 -1.82812,-0.30729 -2.42187,-0.92187c-0.59375,-0.625 -0.92187,-1.47396 -0.98437,-2.54687c-0.01042,-0.125 -0.01562,-0.28646 -0.01562,-0.48437c0,-0.20833 0.00521,-0.375 0.01563,-0.5c0.04167,-0.6875 0.20313,-1.29167 0.48438,-1.8125c0.28125,-0.53125 0.66667,-0.9375 1.15625,-1.21875c0.5,-0.28125 1.08333,-0.42187 1.75,-0.42187c0.73958,0 1.35938,0.15625 1.85938,0.46875c0.5,0.3125 0.88021,0.76042 1.14063,1.34375c0.27083,0.57292 0.40625,1.24479 0.40625,2.01563v0.25c0,0.10417 -0.03125,0.1875 -0.09375,0.25c-0.0625,0.05208 -0.14062,0.07813 -0.23437,0.07813h-5.07812c0,0.01042 0,0.03125 0,0.0625c0,0.03125 0,0.05729 0,0.07813c0.02083,0.39583 0.10938,0.77083 0.26563,1.125c0.15625,0.34375 0.38021,0.625 0.67188,0.84375c0.30208,0.20833 0.65625,0.3125 1.0625,0.3125c0.34375,0 0.63021,-0.05208 0.85938,-0.15625c0.23958,-0.11458 0.43229,-0.23437 0.57813,-0.35937c0.15625,-0.13542 0.25521,-0.23958 0.29688,-0.3125c0.09375,-0.125 0.16146,-0.19792 0.20313,-0.21875c0.05208,-0.02083 0.13021,-0.03125 0.23438,-0.03125h0.71875c0.09375,0 0.17188,0.02604 0.23438,0.07813c0.0625,0.05208 0.08854,0.125 0.07813,0.21875c-0.01042,0.14583 -0.08854,0.32813 -0.23437,0.54688c-0.14583,0.20833 -0.35417,0.41667 -0.625,0.625c-0.27083,0.19792 -0.60417,0.36458 -1,0.5c-0.39583,0.125 -0.83854,0.1875 -1.32812,0.1875zM286.72619,180.36912h4.01563v-0.03125c0,-0.44792 -0.08333,-0.83854 -0.25,-1.17187c-0.15625,-0.34375 -0.38542,-0.61458 -0.6875,-0.8125c-0.30208,-0.20833 -0.66146,-0.3125 -1.07812,-0.3125c-0.42708,0 -0.79167,0.10417 -1.09375,0.3125c-0.29167,0.19792 -0.51562,0.46875 -0.67187,0.8125c-0.15625,0.33333 -0.23437,0.72396 -0.23437,1.17188zM296.27911,184.74412c-0.14583,0 -0.26042,-0.03125 -0.34375,-0.09375c-0.08333,-0.07292 -0.15104,-0.16146 -0.20312,-0.26562l-2.70312,-6.8125c-0.02083,-0.04167 -0.03125,-0.08854 -0.03125,-0.14062c0,-0.09375 0.02604,-0.16667 0.07813,-0.21875c0.0625,-0.0625 0.14063,-0.09375 0.23438,-0.09375h0.70313c0.10417,0 0.18229,0.03125 0.23438,0.09375c0.0625,0.05208 0.10417,0.10417 0.125,0.15625l2.23438,5.78125l2.21875,-5.78125c0.02083,-0.05208 0.05729,-0.10417 0.10938,-0.15625c0.0625,-0.0625 0.14583,-0.09375 0.25,-0.09375h0.71875c0.07292,0 0.14063,0.03125 0.20313,0.09375c0.07292,0.05208 0.10938,0.125 0.10938,0.21875c0,0.05208 -0.01042,0.09896 -0.03125,0.14063l-2.73437,6.8125c-0.04167,0.10417 -0.10417,0.19271 -0.1875,0.26563c-0.07292,0.0625 -0.1875,0.09375 -0.34375,0.09375zM304.5263,184.88474c-1.02083,0 -1.82812,-0.30729 -2.42187,-0.92187c-0.59375,-0.625 -0.92187,-1.47396 -0.98437,-2.54687c-0.01042,-0.125 -0.01562,-0.28646 -0.01562,-0.48437c0,-0.20833 0.00521,-0.375 0.01563,-0.5c0.04167,-0.6875 0.20313,-1.29167 0.48438,-1.8125c0.28125,-0.53125 0.66667,-0.9375 1.15625,-1.21875c0.5,-0.28125 1.08333,-0.42187 1.75,-0.42187c0.73958,0 1.35938,0.15625 1.85938,0.46875c0.5,0.3125 0.88021,0.76042 1.14063,1.34375c0.27083,0.57292 0.40625,1.24479 0.40625,2.01563v0.25c0,0.10417 -0.03125,0.1875 -0.09375,0.25c-0.0625,0.05208 -0.14062,0.07813 -0.23437,0.07813h-5.07812c0,0.01042 0,0.03125 0,0.0625c0,0.03125 0,0.05729 0,0.07813c0.02083,0.39583 0.10938,0.77083 0.26563,1.125c0.15625,0.34375 0.38021,0.625 0.67188,0.84375c0.30208,0.20833 0.65625,0.3125 1.0625,0.3125c0.34375,0 0.63021,-0.05208 0.85938,-0.15625c0.23958,-0.11458 0.43229,-0.23437 0.57813,-0.35937c0.15625,-0.13542 0.25521,-0.23958 0.29688,-0.3125c0.09375,-0.125 0.16146,-0.19792 0.20313,-0.21875c0.05208,-0.02083 0.13021,-0.03125 0.23438,-0.03125h0.71875c0.09375,0 0.17188,0.02604 0.23438,0.07813c0.0625,0.05208 0.08854,0.125 0.07813,0.21875c-0.01042,0.14583 -0.08854,0.32813 -0.23437,0.54688c-0.14583,0.20833 -0.35417,0.41667 -0.625,0.625c-0.27083,0.19792 -0.60417,0.36458 -1,0.5c-0.39583,0.125 -0.83854,0.1875 -1.32812,0.1875zM302.51066,180.36912h4.01563v-0.03125c0,-0.44792 -0.08333,-0.83854 -0.25,-1.17187c-0.15625,-0.34375 -0.38542,-0.61458 -0.6875,-0.8125c-0.30208,-0.20833 -0.66146,-0.3125 -1.07812,-0.3125c-0.42708,0 -0.79167,0.10417 -1.09375,0.3125c-0.29167,0.19792 -0.51562,0.46875 -0.67187,0.8125c-0.15625,0.33333 -0.23437,0.72396 -0.23437,1.17188zM310.01507,184.74412c-0.09375,0 -0.17708,-0.03125 -0.25,-0.09375c-0.0625,-0.0625 -0.09375,-0.14583 -0.09375,-0.25v-6.9375c0,-0.10417 0.03125,-0.1875 0.09375,-0.25c0.07292,-0.0625 0.15625,-0.09375 0.25,-0.09375h0.65625c0.10417,0 0.1875,0.03125 0.25,0.09375c0.0625,0.0625 0.09375,0.14583 0.09375,0.25v0.51563c0.21875,-0.30208 0.5,-0.54167 0.84375,-0.71875c0.34375,-0.1875 0.75521,-0.28125 1.23438,-0.28125c1.10417,-0.01042 1.88542,0.4375 2.34375,1.34375c0.22917,-0.40625 0.55729,-0.72917 0.98438,-0.96875c0.42708,-0.25 0.91667,-0.375 1.46875,-0.375c0.5,0 0.95833,0.11979 1.375,0.35938c0.41667,0.22917 0.74479,0.58333 0.98438,1.0625c0.23958,0.46875 0.35938,1.05729 0.35938,1.76563v4.23438c0,0.10417 -0.03125,0.1875 -0.09375,0.25c-0.0625,0.0625 -0.14062,0.09375 -0.23437,0.09375h-0.6875c-0.10417,0 -0.1875,-0.03125 -0.25,-0.09375c-0.0625,-0.0625 -0.09375,-0.14583 -0.09375,-0.25v-4.09375c0,-0.55208 -0.07812,-0.98437 -0.23437,-1.29687c-0.15625,-0.3125 -0.36979,-0.53125 -0.64062,-0.65625c-0.26042,-0.125 -0.54687,-0.1875 -0.85937,-0.1875c-0.25,0 -0.51042,0.0625 -0.78125,0.1875c-0.26042,0.125 -0.47917,0.34375 -0.65625,0.65625c-0.16667,0.3125 -0.25,0.74479 -0.25,1.29688v4.09375c0,0.10417 -0.03125,0.1875 -0.09375,0.25c-0.0625,0.0625 -0.14062,0.09375 -0.23437,0.09375h-0.6875c-0.10417,0 -0.1875,-0.03125 -0.25,-0.09375c-0.0625,-0.0625 -0.09375,-0.14583 -0.09375,-0.25v-4.09375c0,-0.55208 -0.08333,-0.98437 -0.25,-1.29687c-0.16667,-0.3125 -0.38021,-0.53125 -0.64062,-0.65625c-0.26042,-0.125 -0.54167,-0.1875 -0.84375,-0.1875c-0.25,0 -0.51042,0.0625 -0.78125,0.1875c-0.26042,0.125 -0.47396,0.34375 -0.64062,0.65625c-0.16667,0.3125 -0.25,0.73958 -0.25,1.28125v4.10938c0,0.10417 -0.03646,0.1875 -0.10937,0.25c-0.0625,0.0625 -0.14062,0.09375 -0.23437,0.09375zM325.76331,184.88474c-1.02083,0 -1.82812,-0.30729 -2.42187,-0.92187c-0.59375,-0.625 -0.92187,-1.47396 -0.98437,-2.54687c-0.01042,-0.125 -0.01562,-0.28646 -0.01562,-0.48437c0,-0.20833 0.00521,-0.375 0.01563,-0.5c0.04167,-0.6875 0.20313,-1.29167 0.48438,-1.8125c0.28125,-0.53125 0.66667,-0.9375 1.15625,-1.21875c0.5,-0.28125 1.08333,-0.42187 1.75,-0.42187c0.73958,0 1.35938,0.15625 1.85938,0.46875c0.5,0.3125 0.88021,0.76042 1.14063,1.34375c0.27083,0.57292 0.40625,1.24479 0.40625,2.01563v0.25c0,0.10417 -0.03125,0.1875 -0.09375,0.25c-0.0625,0.05208 -0.14062,0.07813 -0.23437,0.07813h-5.07812c0,0.01042 0,0.03125 0,0.0625c0,0.03125 0,0.05729 0,0.07813c0.02083,0.39583 0.10938,0.77083 0.26563,1.125c0.15625,0.34375 0.38021,0.625 0.67188,0.84375c0.30208,0.20833 0.65625,0.3125 1.0625,0.3125c0.34375,0 0.63021,-0.05208 0.85938,-0.15625c0.23958,-0.11458 0.43229,-0.23437 0.57813,-0.35937c0.15625,-0.13542 0.25521,-0.23958 0.29688,-0.3125c0.09375,-0.125 0.16146,-0.19792 0.20313,-0.21875c0.05208,-0.02083 0.13021,-0.03125 0.23438,-0.03125h0.71875c0.09375,0 0.17188,0.02604 0.23438,0.07813c0.0625,0.05208 0.08854,0.125 0.07813,0.21875c-0.01042,0.14583 -0.08854,0.32813 -0.23437,0.54688c-0.14583,0.20833 -0.35417,0.41667 -0.625,0.625c-0.27083,0.19792 -0.60417,0.36458 -1,0.5c-0.39583,0.125 -0.83854,0.1875 -1.32812,0.1875zM323.74768,180.36912h4.01563v-0.03125c0,-0.44792 -0.08333,-0.83854 -0.25,-1.17187c-0.15625,-0.34375 -0.38542,-0.61458 -0.6875,-0.8125c-0.30208,-0.20833 -0.66146,-0.3125 -1.07812,-0.3125c-0.42708,0 -0.79167,0.10417 -1.09375,0.3125c-0.29167,0.19792 -0.51562,0.46875 -0.67187,0.8125c-0.15625,0.33333 -0.23437,0.72396 -0.23437,1.17188zM331.25206,184.74412c-0.09375,0 -0.17708,-0.03125 -0.25,-0.09375c-0.0625,-0.0625 -0.09375,-0.14583 -0.09375,-0.25v-6.9375c0,-0.10417 0.03125,-0.1875 0.09375,-0.25c0.07292,-0.0625 0.15625,-0.09375 0.25,-0.09375h0.6875c0.09375,0 0.17188,0.03125 0.23438,0.09375c0.07292,0.0625 0.10938,0.14583 0.10938,0.25v0.64063c0.25,-0.33333 0.56771,-0.60417 0.95313,-0.8125c0.38542,-0.20833 0.88021,-0.3125 1.48438,-0.3125c0.63542,0 1.17708,0.14063 1.625,0.42188c0.44792,0.27083 0.78646,0.65625 1.01563,1.15625c0.22917,0.48958 0.34375,1.0625 0.34375,1.71875v4.125c0,0.10417 -0.03125,0.1875 -0.09375,0.25c-0.0625,0.0625 -0.14583,0.09375 -0.25,0.09375h-0.73437c-0.09375,0 -0.17187,-0.03125 -0.23437,-0.09375c-0.0625,-0.0625 -0.09375,-0.14583 -0.09375,-0.25v-4.04687c0,-0.6875 -0.16667,-1.22396 -0.5,-1.60937c-0.33333,-0.38542 -0.82292,-0.57812 -1.46875,-0.57812c-0.60417,0 -1.09375,0.19271 -1.46875,0.57813c-0.36458,0.38542 -0.54687,0.92188 -0.54687,1.60938v4.04688c0,0.10417 -0.03125,0.1875 -0.09375,0.25c-0.0625,0.0625 -0.14062,0.09375 -0.23437,0.09375zM342.67175,184.74412c-0.55208,0 -1,-0.10417 -1.34375,-0.3125c-0.33333,-0.20833 -0.57812,-0.50521 -0.73437,-0.89062c-0.15625,-0.38542 -0.23437,-0.84375 -0.23437,-1.375v-3.875h-1.15625c-0.09375,0 -0.17187,-0.03125 -0.23437,-0.09375c-0.0625,-0.0625 -0.09375,-0.14062 -0.09375,-0.23437v-0.5c0,-0.10417 0.03125,-0.1875 0.09375,-0.25c0.0625,-0.0625 0.14063,-0.09375 0.23438,-0.09375h1.15625v-2.4375c0,-0.10417 0.03125,-0.1875 0.09375,-0.25c0.0625,-0.0625 0.14063,-0.09375 0.23438,-0.09375h0.6875c0.10417,0 0.1875,0.03125 0.25,0.09375c0.0625,0.0625 0.09375,0.14583 0.09375,0.25v2.4375h1.8125c0.10417,0 0.1875,0.03125 0.25,0.09375c0.0625,0.0625 0.09375,0.14583 0.09375,0.25v0.5c0,0.09375 -0.03125,0.17188 -0.09375,0.23438c-0.0625,0.0625 -0.14583,0.09375 -0.25,0.09375h-1.8125v3.76563c0,0.45833 0.07813,0.82292 0.23438,1.09375c0.15625,0.26042 0.43229,0.39063 0.82813,0.39063h0.90625c0.09375,0 0.17188,0.03125 0.23438,0.09375c0.0625,0.0625 0.09375,0.14583 0.09375,0.25v0.51563c0,0.10417 -0.03125,0.1875 -0.09375,0.25c-0.0625,0.0625 -0.14062,0.09375 -0.23437,0.09375zM348.05865,184.88474c-0.54167,0 -1.01042,-0.06771 -1.40625,-0.20312c-0.38542,-0.13542 -0.70312,-0.29687 -0.95312,-0.48437c-0.23958,-0.19792 -0.42187,-0.39583 -0.54687,-0.59375c-0.125,-0.19792 -0.19271,-0.35417 -0.20312,-0.46875c-0.01042,-0.10417 0.02083,-0.1875 0.09375,-0.25c0.08333,-0.0625 0.16667,-0.09375 0.25,-0.09375h0.65625c0.05208,0 0.09375,0.01042 0.125,0.03125c0.03125,0.01042 0.07813,0.05208 0.14063,0.125c0.125,0.13542 0.26563,0.27083 0.42188,0.40625c0.15625,0.13542 0.34896,0.25 0.57813,0.34375c0.22917,0.08333 0.51563,0.125 0.85938,0.125c0.5,0 0.91146,-0.09375 1.23438,-0.28125c0.32292,-0.19792 0.48438,-0.47917 0.48438,-0.84375c0,-0.25 -0.06771,-0.44792 -0.20312,-0.59375c-0.125,-0.14583 -0.35937,-0.27604 -0.70312,-0.39062c-0.33333,-0.11458 -0.79167,-0.23958 -1.375,-0.375c-0.59375,-0.13542 -1.0625,-0.30208 -1.40625,-0.5c-0.33333,-0.19792 -0.57292,-0.4375 -0.71875,-0.71875c-0.14583,-0.28125 -0.21875,-0.59375 -0.21875,-0.9375c0,-0.36458 0.10417,-0.71354 0.3125,-1.04687c0.21875,-0.34375 0.53646,-0.61979 0.95313,-0.82812c0.41667,-0.21875 0.9375,-0.32812 1.5625,-0.32812c0.5,0 0.93229,0.0625 1.29688,0.1875c0.36458,0.125 0.66146,0.28646 0.89063,0.48438c0.23958,0.1875 0.41667,0.375 0.53125,0.5625c0.11458,0.17708 0.17708,0.33333 0.1875,0.46875c0.01042,0.09375 -0.02083,0.17188 -0.09375,0.23438c-0.0625,0.0625 -0.13542,0.09375 -0.21875,0.09375h-0.625c-0.0625,0 -0.11979,-0.01042 -0.17187,-0.03125c-0.04167,-0.03125 -0.08333,-0.06771 -0.125,-0.10937c-0.09375,-0.125 -0.20833,-0.25 -0.34375,-0.375c-0.125,-0.13542 -0.29687,-0.24479 -0.51562,-0.32812c-0.20833,-0.08333 -0.47917,-0.125 -0.8125,-0.125c-0.48958,0 -0.85937,0.10417 -1.10937,0.3125c-0.23958,0.20833 -0.35937,0.46875 -0.35937,0.78125c0,0.1875 0.05208,0.35417 0.15625,0.5c0.10417,0.14583 0.30729,0.27604 0.60938,0.39063c0.3125,0.11458 0.76563,0.23958 1.35938,0.375c0.64583,0.13542 1.15104,0.3125 1.51563,0.53125c0.375,0.20833 0.64063,0.45313 0.79688,0.73438c0.15625,0.28125 0.23438,0.60938 0.23438,0.98438c0,0.40625 -0.11979,0.78125 -0.35937,1.125c-0.22917,0.34375 -0.57812,0.61458 -1.04687,0.8125c-0.46875,0.19792 -1.04687,0.29688 -1.73437,0.29688z" fill="#ffffff" stroke="#ffffff" stroke-width="0.5" stroke-linecap="square" stroke-linejoin="miter"/></g></g></svg>