<svg version="1.1" xmlns="http://www.w3.org/2000/svg" xmlns:xlink="http://www.w3.org/1999/xlink" width="720" height="540" viewBox="0,0,720,540"><defs><clipPath id="clip-1"><rect x="-240" y="-180" transform="scale(0.5,0.5)" width="1440" height="1080" fill="none" fill-rule="nonzero" stroke-width="0.5" stroke-linecap="butt"/></clipPath></defs><g transform="translate(120,90)"><g clip-path="url(#clip-1)" data-paper-data="{&quot;isPaintingLayer&quot;:true}" stroke="none" stroke-linejoin="miter" stroke-miterlimit="10" stroke-dasharray="" stroke-dashoffset="0" style="mix-blend-mode: normal"><path d="M-240,-180h960v720h-960z" fill-opacity="0" fill="#000000" fill-rule="evenodd" stroke-width="1" stroke-linecap="square"/><path d="M150.44882,85.97113h254.33072v60.18897h-254.33072z" fill-opacity="0" fill="#000000" fill-rule="evenodd" stroke-width="1" stroke-linecap="square"/><g fill="#000000" fill-rule="nonzero" stroke-width="1" stroke-linecap="square"><path d="M229.65543,110.5786c0.1875,0.44792 0.28125,0.77083 0.28125,0.96875c0,0.46875 -0.39062,0.86458 -1.17187,1.1875c-0.39583,0.17708 -0.71354,0.26563 -0.95312,0.26563c-0.23958,0 -0.4375,-0.05729 -0.59375,-0.17187c-0.15625,-0.125 -0.27083,-0.24479 -0.34375,-0.35937c-0.125,-0.23958 -0.60937,-1.36979 -1.45312,-3.39062l-0.57812,0.04688h-2.35937v2.10938c0,0.28125 -0.01042,0.49479 -0.03125,0.64063c-0.01042,0.14583 -0.06771,0.3125 -0.17187,0.5c-0.17708,0.33333 -0.66146,0.5 -1.45312,0.5c-0.875,0 -1.38542,-0.22917 -1.53125,-0.6875c-0.07292,-0.21875 -0.10937,-0.54167 -0.10937,-0.96875v-10.35937c0,-0.29167 0.00521,-0.50521 0.01563,-0.64062c0.02083,-0.14583 0.08333,-0.3125 0.1875,-0.5c0.17708,-0.33333 0.66146,-0.5 1.45313,-0.5h4.03125c1.09375,0 2.15625,0.39583 3.1875,1.1875c0.5,0.38542 0.91146,0.91146 1.23438,1.57813c0.32292,0.65625 0.48438,1.38542 0.48438,2.1875c0,1.40625 -0.46875,2.5625 -1.40625,3.46875c0.28125,0.66667 0.70833,1.64583 1.28125,2.9375zM222.48356,105.81298h2.39063c0.36458,0 0.72396,-0.13542 1.07813,-0.40625c0.36458,-0.27083 0.54688,-0.67708 0.54688,-1.21875c0,-0.55208 -0.18229,-0.96875 -0.54687,-1.25c-0.35417,-0.28125 -0.72396,-0.42187 -1.10937,-0.42187h-2.35937zM240.0542,106.81298c0,0.76042 -0.19271,1.32292 -0.57812,1.6875c-0.375,0.36458 -0.79167,0.54688 -1.25,0.54688h-4.42187c0,0.34375 0.20313,0.63542 0.60938,0.875c0.41667,0.23958 0.83333,0.35938 1.25,0.35938c0.71875,0 1.28125,-0.07292 1.6875,-0.21875l0.20313,-0.07812c0.30208,-0.13542 0.55208,-0.20312 0.75,-0.20312c0.39583,0 0.73958,0.27604 1.03125,0.82813c0.15625,0.34375 0.23438,0.63021 0.23438,0.85938c0,1.11458 -1.32292,1.67188 -3.96875,1.67188c-0.91667,0 -1.73437,-0.15625 -2.45312,-0.46875c-0.71875,-0.32292 -1.27604,-0.75 -1.67187,-1.28125c-0.78125,-1 -1.17187,-2.125 -1.17187,-3.375c0,-1.5625 0.50521,-2.8125 1.51563,-3.75c1.01042,-0.9375 2.27604,-1.40625 3.79688,-1.40625c1.72917,0 3,0.60938 3.8125,1.82813c0.41667,0.64583 0.625,1.35417 0.625,2.125zM236.1167,107.34423c0.47917,0 0.71875,-0.19792 0.71875,-0.59375c0,-0.28125 -0.10937,-0.51042 -0.32812,-0.6875c-0.21875,-0.17708 -0.53125,-0.26562 -0.9375,-0.26562c-0.40625,0 -0.80729,0.16667 -1.20312,0.5c-0.39583,0.33333 -0.59375,0.68229 -0.59375,1.04688zM244.35361,107.98485c0,0.52083 0.17188,0.92708 0.51563,1.21875c0.35417,0.29167 0.72396,0.4375 1.10938,0.4375c0.39583,0 0.76563,-0.11458 1.10938,-0.34375c0.34375,-0.22917 0.61979,-0.34375 0.82813,-0.34375c0.375,0 0.82813,0.32813 1.35938,0.98438c0.28125,0.36458 0.42188,0.6875 0.42188,0.96875c0,0.47917 -0.33854,0.92188 -1.01562,1.32813c-0.70833,0.5 -1.57812,0.75 -2.60937,0.75c-1.15625,0 -2.27083,-0.41667 -3.34375,-1.25c-0.51042,-0.39583 -0.92708,-0.92708 -1.25,-1.59375c-0.32292,-0.66667 -0.48437,-1.40104 -0.48437,-2.20312c0,-0.80208 0.16146,-1.52604 0.48438,-2.17187c0.32292,-0.65625 0.73958,-1.1875 1.25,-1.59375c1.03125,-0.8125 2.13021,-1.21875 3.29688,-1.21875c0.47917,0 0.94271,0.06771 1.39063,0.20313c0.44792,0.125 0.77604,0.25 0.98438,0.375l0.29688,0.1875c0.21875,0.14583 0.39063,0.26042 0.51563,0.34375c0.32292,0.25 0.48438,0.53646 0.48438,0.85938c0,0.3125 -0.13021,0.66667 -0.39062,1.0625c-0.44792,0.6875 -0.875,1.03125 -1.28125,1.03125c-0.23958,0 -0.57292,-0.13542 -1,-0.40625c-0.22917,-0.21875 -0.55208,-0.32812 -0.96875,-0.32812c-0.41667,0 -0.80729,0.15104 -1.17187,0.45313c-0.35417,0.30208 -0.53125,0.71875 -0.53125,1.25zM250.6395,107.98485c0,-1.48958 0.52083,-2.71875 1.5625,-3.6875c1.04167,-0.97917 2.23438,-1.46875 3.57813,-1.46875c1.34375,0 2.53125,0.48438 3.5625,1.45313c1.04167,0.96875 1.5625,2.19792 1.5625,3.6875c0,1.03125 -0.27083,1.94792 -0.8125,2.75c-0.53125,0.80208 -1.18229,1.39583 -1.95312,1.78125c-0.76042,0.375 -1.55208,0.5625 -2.375,0.5625c-0.82292,0 -1.61979,-0.20312 -2.39062,-0.60937c-0.77083,-0.40625 -1.42187,-1.00521 -1.95312,-1.79687c-0.52083,-0.79167 -0.78125,-1.68229 -0.78125,-2.67187zM254.53012,109.3286c0.40625,0.30208 0.8125,0.45313 1.21875,0.45313c0.40625,0 0.8125,-0.15625 1.21875,-0.46875c0.41667,-0.3125 0.625,-0.77083 0.625,-1.375c0,-0.61458 -0.19271,-1.06771 -0.57812,-1.35937c-0.38542,-0.30208 -0.80208,-0.45312 -1.25,-0.45312c-0.44792,0 -0.86458,0.15625 -1.25,0.46875c-0.38542,0.30208 -0.57812,0.75521 -0.57812,1.35938c0,0.60417 0.19792,1.0625 0.59375,1.375zM267.58326,103.06298c1.23958,0 2.27083,0.47396 3.09375,1.42188c0.83333,0.94792 1.25,2.10938 1.25,3.48438v3.28125c0,0.28125 -0.01042,0.49479 -0.03125,0.64063c-0.02083,0.14583 -0.07292,0.30729 -0.15625,0.48438c-0.17708,0.33333 -0.66146,0.5 -1.45312,0.5c-0.88542,0 -1.39583,-0.22917 -1.53125,-0.6875c-0.07292,-0.21875 -0.10937,-0.53646 -0.10937,-0.95312v-3.28125c0,-0.51042 -0.14583,-0.90625 -0.4375,-1.1875c-0.29167,-0.29167 -0.6875,-0.4375 -1.1875,-0.4375c-0.48958,0 -0.88542,0.15104 -1.1875,0.45313c-0.30208,0.29167 -0.45312,0.68229 -0.45312,1.17188v3.29688c0,0.28125 -0.01042,0.49479 -0.03125,0.64063c-0.02083,0.14583 -0.07812,0.30729 -0.17187,0.48438c-0.16667,0.33333 -0.64583,0.5 -1.4375,0.5c-0.79167,0 -1.27083,-0.16667 -1.4375,-0.5c-0.09375,-0.1875 -0.15104,-0.35417 -0.17187,-0.5c-0.01042,-0.14583 -0.01562,-0.35937 -0.01562,-0.64062v-6.60937c0,-0.27083 0.00521,-0.47917 0.01563,-0.625c0.02083,-0.14583 0.08333,-0.30208 0.1875,-0.46875c0.17708,-0.3125 0.65625,-0.46875 1.4375,-0.46875c0.76042,0 1.22396,0.14063 1.39063,0.42188c0.125,0.21875 0.1875,0.47396 0.1875,0.76563c0.05208,-0.08333 0.16667,-0.20312 0.34375,-0.35937c0.17708,-0.16667 0.34375,-0.30208 0.5,-0.40625c0.42708,-0.28125 0.89583,-0.42187 1.40625,-0.42187zM278.88892,103.06298c1.23958,0 2.27083,0.47396 3.09375,1.42188c0.83333,0.94792 1.25,2.10938 1.25,3.48438v3.28125c0,0.28125 -0.01042,0.49479 -0.03125,0.64063c-0.02083,0.14583 -0.07292,0.30729 -0.15625,0.48438c-0.17708,0.33333 -0.66146,0.5 -1.45312,0.5c-0.88542,0 -1.39583,-0.22917 -1.53125,-0.6875c-0.07292,-0.21875 -0.10937,-0.53646 -0.10937,-0.95312v-3.28125c0,-0.51042 -0.14583,-0.90625 -0.4375,-1.1875c-0.29167,-0.29167 -0.68748,-0.4375 -1.18744,-0.4375c-0.48958,0 -0.88542,0.15104 -1.1875,0.45313c-0.30208,0.29167 -0.45312,0.68229 -0.45312,1.17188v3.29688c0,0.28125 -0.01042,0.49479 -0.03125,0.64063c-0.02083,0.14583 -0.07812,0.30729 -0.17187,0.48438c-0.16667,0.33333 -0.64583,0.5 -1.4375,0.5c-0.79167,0 -1.27083,-0.16667 -1.4375,-0.5c-0.09375,-0.1875 -0.15104,-0.35417 -0.17187,-0.5c-0.01042,-0.14583 -0.01562,-0.35937 -0.01562,-0.64062v-6.60937c0,-0.27083 0.00521,-0.47917 0.01563,-0.625c0.02083,-0.14583 0.08333,-0.30208 0.1875,-0.46875c0.17708,-0.3125 0.65625,-0.46875 1.4375,-0.46875c0.76042,0 1.22396,0.14063 1.39063,0.42188c0.125,0.21875 0.1875,0.47396 0.1875,0.76563c0.05208,-0.08333 0.16667,-0.20312 0.34375,-0.35937c0.17708,-0.16667 0.34375,-0.30208 0.5,-0.40625c0.42708,-0.28125 0.89581,-0.42187 1.40619,-0.42187zM294.19464,106.81298c0,0.76042 -0.19271,1.32292 -0.57812,1.6875c-0.375,0.36458 -0.79167,0.54688 -1.25,0.54688h-4.42187c0,0.34375 0.20313,0.63542 0.60938,0.875c0.41667,0.23958 0.83333,0.35938 1.25,0.35938c0.71875,0 1.28125,-0.07292 1.6875,-0.21875l0.20313,-0.07812c0.30208,-0.13542 0.55208,-0.20312 0.75,-0.20312c0.39583,0 0.73958,0.27604 1.03125,0.82813c0.15625,0.34375 0.23438,0.63021 0.23438,0.85938c0,1.11458 -1.32292,1.67188 -3.96875,1.67188c-0.91667,0 -1.73437,-0.15625 -2.45312,-0.46875c-0.71875,-0.32292 -1.27604,-0.75 -1.67187,-1.28125c-0.78125,-1 -1.17187,-2.125 -1.17187,-3.375c0,-1.5625 0.50521,-2.8125 1.51563,-3.75c1.01042,-0.9375 2.27604,-1.40625 3.79688,-1.40625c1.72917,0 3,0.60938 3.8125,1.82813c0.41667,0.64583 0.625,1.35417 0.625,2.125zM290.25714,107.34423c0.47917,0 0.71875,-0.19792 0.71875,-0.59375c0,-0.28125 -0.10937,-0.51042 -0.32812,-0.6875c-0.21875,-0.17708 -0.53125,-0.26562 -0.9375,-0.26562c-0.40625,0 -0.80729,0.16667 -1.20312,0.5c-0.39583,0.33333 -0.59375,0.68229 -0.59375,1.04688zM298.49402,107.98485c0,0.52083 0.17188,0.92708 0.51563,1.21875c0.35417,0.29167 0.72396,0.4375 1.10938,0.4375c0.39583,0 0.76563,-0.11458 1.10938,-0.34375c0.34375,-0.22917 0.61979,-0.34375 0.82813,-0.34375c0.375,0 0.82813,0.32813 1.35938,0.98438c0.28125,0.36458 0.42188,0.6875 0.42188,0.96875c0,0.47917 -0.33854,0.92188 -1.01562,1.32813c-0.70833,0.5 -1.57812,0.75 -2.60937,0.75c-1.15625,0 -2.27083,-0.41667 -3.34375,-1.25c-0.51042,-0.39583 -0.92708,-0.92708 -1.25,-1.59375c-0.32292,-0.66667 -0.48437,-1.40104 -0.48437,-2.20312c0,-0.80208 0.16146,-1.52604 0.48438,-2.17187c0.32292,-0.65625 0.73958,-1.1875 1.25,-1.59375c1.03125,-0.8125 2.13021,-1.21875 3.29688,-1.21875c0.47917,0 0.94271,0.06771 1.39063,0.20313c0.44792,0.125 0.77604,0.25 0.98438,0.375l0.29688,0.1875c0.21875,0.14583 0.39063,0.26042 0.51563,0.34375c0.32292,0.25 0.48438,0.53646 0.48438,0.85938c0,0.3125 -0.13021,0.66667 -0.39062,1.0625c-0.44792,0.6875 -0.875,1.03125 -1.28125,1.03125c-0.23958,0 -0.57292,-0.13542 -1,-0.40625c-0.22917,-0.21875 -0.55208,-0.32812 -0.96875,-0.32812c-0.41667,0 -0.80729,0.15104 -1.17187,0.45313c-0.35417,0.30208 -0.53125,0.71875 -0.53125,1.25zM310.57764,106.35985l-1.20312,-0.07812v2.57813c0,0.33333 0.05208,0.57813 0.15625,0.73438c0.10417,0.14583 0.30208,0.21875 0.59375,0.21875c0.29167,0 0.51563,0.01042 0.67188,0.03125c0.15625,0.02083 0.31771,0.07813 0.48438,0.17188c0.29167,0.16667 0.4375,0.58333 0.4375,1.25c0,0.78125 -0.17187,1.26042 -0.51562,1.4375c-0.1875,0.08333 -0.35417,0.13542 -0.5,0.15625c-0.14583,0.02083 -0.35417,0.03125 -0.625,0.03125c-1.29167,0 -2.27604,-0.29167 -2.95312,-0.875c-0.66667,-0.58333 -1,-1.57292 -1,-2.96875v-2.76562c-0.23958,0.04167 -0.49479,0.0625 -0.76562,0.0625c-0.27083,0 -0.5,-0.10417 -0.6875,-0.3125c-0.17708,-0.21875 -0.26562,-0.58333 -0.26562,-1.09375c0,-0.51042 0.03125,-0.88021 0.09375,-1.10937c0.0625,-0.22917 0.15104,-0.39062 0.26563,-0.48437c0.19792,-0.16667 0.44271,-0.25 0.73438,-0.25l0.625,0.07813v-1.92187c0,-0.29167 0.00521,-0.50521 0.01563,-0.64062c0.02083,-0.13542 0.08333,-0.28125 0.1875,-0.4375c0.15625,-0.3125 0.63542,-0.46875 1.4375,-0.46875c0.84375,0 1.34896,0.22917 1.51563,0.6875c0.0625,0.19792 0.09375,0.51563 0.09375,0.95313v1.82813c0.54167,-0.05208 0.95313,-0.07812 1.23438,-0.07812c0.28125,0 0.48958,0.01042 0.625,0.03125c0.14583,0.02083 0.3125,0.07813 0.5,0.17188c0.32292,0.16667 0.48438,0.64583 0.48438,1.4375c0,0.78125 -0.16667,1.26042 -0.5,1.4375c-0.1875,0.09375 -0.35417,0.15104 -0.5,0.17188c-0.13542,0.01042 -0.34896,0.01563 -0.64062,0.01563zM323.67438,106.35985l-1.20312,-0.07812v2.57813c0,0.33333 0.05208,0.57813 0.15625,0.73438c0.10417,0.14583 0.30208,0.21875 0.59375,0.21875c0.29167,0 0.51563,0.01042 0.67188,0.03125c0.15625,0.02083 0.31771,0.07813 0.48438,0.17188c0.29167,0.16667 0.4375,0.58333 0.4375,1.25c0,0.78125 -0.17187,1.26042 -0.51562,1.4375c-0.1875,0.08333 -0.35417,0.13542 -0.5,0.15625c-0.14583,0.02083 -0.35417,0.03125 -0.625,0.03125c-1.29167,0 -2.27604,-0.29167 -2.95312,-0.875c-0.66667,-0.58333 -1,-1.57292 -1,-2.96875v-2.76562c-0.23958,0.04167 -0.49479,0.0625 -0.76562,0.0625c-0.27083,0 -0.5,-0.10417 -0.6875,-0.3125c-0.17708,-0.21875 -0.26562,-0.58333 -0.26562,-1.09375c0,-0.51042 0.03125,-0.88021 0.09375,-1.10937c0.0625,-0.22917 0.15104,-0.39062 0.26563,-0.48437c0.19792,-0.16667 0.44271,-0.25 0.73438,-0.25l0.625,0.07813v-1.92187c0,-0.29167 0.00521,-0.50521 0.01563,-0.64062c0.02083,-0.13542 0.08333,-0.28125 0.1875,-0.4375c0.15625,-0.3125 0.63542,-0.46875 1.4375,-0.46875c0.84375,0 1.34896,0.22917 1.51563,0.6875c0.0625,0.19792 0.09375,0.51563 0.09375,0.95313v1.82813c0.54167,-0.05208 0.95313,-0.07812 1.23438,-0.07812c0.28125,0 0.48958,0.01042 0.625,0.03125c0.14583,0.02083 0.3125,0.07813 0.5,0.17188c0.32292,0.16667 0.48438,0.64583 0.48438,1.4375c0,0.78125 -0.16667,1.26042 -0.5,1.4375c-0.1875,0.09375 -0.35417,0.15104 -0.5,0.17188c-0.13542,0.01042 -0.34896,0.01563 -0.64062,0.01563zM326.06665,107.98485c0,-1.48958 0.52083,-2.71875 1.5625,-3.6875c1.04167,-0.97917 2.23438,-1.46875 3.57813,-1.46875c1.34375,0 2.53125,0.48438 3.5625,1.45313c1.04167,0.96875 1.5625,2.19792 1.5625,3.6875c0,1.03125 -0.27083,1.94792 -0.8125,2.75c-0.53125,0.80208 -1.18229,1.39583 -1.95312,1.78125c-0.76042,0.375 -1.55208,0.5625 -2.375,0.5625c-0.82292,0 -1.61979,-0.20312 -2.39062,-0.60937c-0.77083,-0.40625 -1.42187,-1.00521 -1.95312,-1.79687c-0.52083,-0.79167 -0.78125,-1.68229 -0.78125,-2.67187zM329.95728,109.3286c0.40625,0.30208 0.8125,0.45313 1.21875,0.45313c0.40625,0 0.8125,-0.15625 1.21875,-0.46875c0.41667,-0.3125 0.625,-0.77083 0.625,-1.375c0,-0.61458 -0.19271,-1.06771 -0.57812,-1.35937c-0.38542,-0.30208 -0.80208,-0.45312 -1.25,-0.45312c-0.44792,0 -0.86458,0.15625 -1.25,0.46875c-0.38542,0.30208 -0.57812,0.75521 -0.57812,1.35938c0,0.60417 0.19792,1.0625 0.59375,1.375z"/><path d="M275.17206,121.29736c0.83333,0.29167 1.25,0.6875 1.25,1.1875c0,0.16667 -0.07292,0.46875 -0.21875,0.90625l-3.59375,10.35938c-0.02083,0.09375 -0.0625,0.20313 -0.125,0.32813c-0.0625,0.11458 -0.22917,0.27604 -0.5,0.48438c-0.26042,0.20833 -0.57812,0.3125 -0.95312,0.3125c-0.36458,0 -0.68229,-0.10417 -0.95312,-0.3125c-0.26042,-0.20833 -0.43229,-0.41146 -0.51562,-0.60937l-2.1875,-6.4375c-1.38542,4.08333 -2.09375,6.16146 -2.125,6.23438c-0.02083,0.07292 -0.07292,0.18229 -0.15625,0.32813c-0.08333,0.13542 -0.18229,0.25521 -0.29687,0.35938c-0.28125,0.29167 -0.625,0.4375 -1.03125,0.4375c-0.39583,0 -0.72396,-0.09375 -0.98437,-0.28125c-0.25,-0.1875 -0.41667,-0.375 -0.5,-0.5625l-0.14062,-0.28125l-3.59375,-10.35937c-0.13542,-0.40625 -0.20312,-0.70833 -0.20312,-0.90625c0,-0.5 0.41667,-0.89062 1.25,-1.17187c0.36458,-0.125 0.69271,-0.1875 0.98438,-0.1875c0.29167,0 0.51563,0.09896 0.67188,0.29688c0.15625,0.19792 0.29167,0.5 0.40625,0.90625l2.0625,6.23438l2.03125,-6.14062c0.17708,-0.52083 0.49479,-0.88021 0.95313,-1.07812c0.19792,-0.08333 0.45313,-0.125 0.76563,-0.125c0.32292,0 0.61979,0.10417 0.89063,0.3125c0.27083,0.19792 0.44792,0.39583 0.53125,0.59375l2.14063,6.48438l2.04688,-6.28125c0.10417,-0.28125 0.1875,-0.48958 0.25,-0.625c0.0625,-0.13542 0.17708,-0.26562 0.34375,-0.39062c0.16667,-0.13542 0.375,-0.20312 0.625,-0.20312c0.25,0 0.54167,0.0625 0.875,0.1875zM276.89026,126.70361c0,-0.29167 0.00521,-0.50521 0.01563,-0.64062c0.02083,-0.14583 0.07813,-0.3125 0.17188,-0.5c0.16667,-0.32292 0.65104,-0.48437 1.45313,-0.48437c0.59375,0 1.01563,0.10417 1.26563,0.3125c0.20833,0.17708 0.32292,0.44792 0.34375,0.8125c0.01042,0.125 0.01563,0.30208 0.01563,0.53125v6.53125c0,0.29167 -0.01042,0.51042 -0.03125,0.65625c-0.02083,0.13542 -0.07812,0.29688 -0.17187,0.48438c-0.16667,0.32292 -0.64583,0.48438 -1.4375,0.48438c-0.79167,0 -1.27083,-0.16667 -1.4375,-0.5c-0.09375,-0.1875 -0.15104,-0.34896 -0.17187,-0.48437c-0.01042,-0.13542 -0.01562,-0.35417 -0.01562,-0.65625zM279.95276,123.25049c-0.09375,0.17708 -0.26042,0.30208 -0.5,0.375c-0.22917,0.07292 -0.54167,0.10938 -0.9375,0.10938c-0.38542,0 -0.69792,-0.03646 -0.9375,-0.10937c-0.23958,-0.07292 -0.40625,-0.20312 -0.5,-0.39062c-0.09375,-0.1875 -0.15104,-0.35417 -0.17187,-0.5c-0.01042,-0.14583 -0.01562,-0.35937 -0.01562,-0.64062c0,-0.29167 0.00521,-0.50521 0.01563,-0.64062c0.02083,-0.14583 0.07813,-0.30729 0.17188,-0.48437c0.16667,-0.33333 0.65104,-0.5 1.45313,-0.5c0.78125,0 1.25521,0.16667 1.42188,0.5c0.09375,0.1875 0.15104,0.35417 0.17188,0.5c0.02083,0.14583 0.03125,0.36458 0.03125,0.65625c0,0.28125 -0.01042,0.49479 -0.03125,0.64063c-0.02083,0.13542 -0.07812,0.29688 -0.17187,0.48438zM290.69452,121.21924c0.28125,0 0.49479,0.01042 0.64063,0.03125c0.14583,0.01042 0.30729,0.06771 0.48438,0.17188c0.17708,0.09375 0.30208,0.26042 0.375,0.5c0.08333,0.23958 0.125,0.55729 0.125,0.95313c0,0.39583 -0.04167,0.71354 -0.125,0.95313c-0.07292,0.23958 -0.20312,0.40625 -0.39062,0.5c-0.17708,0.09375 -0.33854,0.15104 -0.48437,0.17188c-0.14583,0.01042 -0.36979,0.01563 -0.67187,0.01563h-5.70312v1.89063h3.67188c0.30208,0 0.52083,0.01042 0.65625,0.03125c0.14583,0.01042 0.3125,0.06771 0.5,0.17188c0.32292,0.1875 0.48438,0.67708 0.48438,1.46875c0,0.875 -0.23437,1.39063 -0.70312,1.54688c-0.19792,0.0625 -0.51562,0.09375 -0.95312,0.09375h-3.65625v3.53125c0,0.30208 -0.01042,0.52083 -0.03125,0.65625c-0.01042,0.13542 -0.06771,0.29688 -0.17187,0.48438c-0.17708,0.33333 -0.66146,0.5 -1.45312,0.5c-0.875,0 -1.38542,-0.23437 -1.53125,-0.70312c-0.07292,-0.19792 -0.10937,-0.51562 -0.10937,-0.95312v-10.375c0,-0.63542 0.11458,-1.06771 0.34375,-1.29687c0.23958,-0.22917 0.6875,-0.34375 1.34375,-0.34375zM293.15833,126.70361c0,-0.29167 0.00521,-0.50521 0.01563,-0.64062c0.02083,-0.14583 0.07813,-0.3125 0.17188,-0.5c0.16667,-0.32292 0.65104,-0.48437 1.45313,-0.48437c0.59375,0 1.01563,0.10417 1.26563,0.3125c0.20833,0.17708 0.32292,0.44792 0.34375,0.8125c0.01042,0.125 0.01563,0.30208 0.01563,0.53125v6.53125c0,0.29167 -0.01042,0.51042 -0.03125,0.65625c-0.02083,0.13542 -0.07812,0.29688 -0.17187,0.48438c-0.16667,0.32292 -0.64583,0.48438 -1.4375,0.48438c-0.79167,0 -1.27083,-0.16667 -1.4375,-0.5c-0.09375,-0.1875 -0.15104,-0.34896 -0.17187,-0.48437c-0.01042,-0.13542 -0.01562,-0.35417 -0.01562,-0.65625zM296.22083,123.25049c-0.09375,0.17708 -0.26042,0.30208 -0.5,0.375c-0.22917,0.07292 -0.54167,0.10938 -0.9375,0.10938c-0.38542,0 -0.69792,-0.03646 -0.9375,-0.10937c-0.23958,-0.07292 -0.40625,-0.20312 -0.5,-0.39062c-0.09375,-0.1875 -0.15104,-0.35417 -0.17187,-0.5c-0.01042,-0.14583 -0.01562,-0.35937 -0.01562,-0.64062c0,-0.29167 0.00521,-0.50521 0.01563,-0.64062c0.02083,-0.14583 0.07813,-0.30729 0.17188,-0.48437c0.16667,-0.33333 0.65104,-0.5 1.45313,-0.5c0.78125,0 1.25521,0.16667 1.42188,0.5c0.09375,0.1875 0.15104,0.35417 0.17188,0.5c0.02083,0.14583 0.03125,0.36458 0.03125,0.65625c0,0.28125 -0.01042,0.49479 -0.03125,0.64063c-0.02083,0.13542 -0.07812,0.29688 -0.17187,0.48438z"/></g></g></g></svg>