<svg version="1.1" xmlns="http://www.w3.org/2000/svg" xmlns:xlink="http://www.w3.org/1999/xlink" width="19.68383" height="19.68383" viewBox="0,0,19.68383,19.68383"><defs><linearGradient x1="239.9781" y1="176.24507" x2="239.9781" y2="180.81375" gradientUnits="userSpaceOnUse" id="color-1"><stop offset="0" stop-color="#ffbf66"/><stop offset="1" stop-color="#ffd080"/></linearGradient></defs><g transform="translate(-230.15811,-170.15811)"><g data-paper-data="{&quot;isPaintingLayer&quot;:true}" fill-rule="nonzero" stroke="none" stroke-linecap="butt" stroke-linejoin="miter" stroke-miterlimit="10" stroke-dasharray="" stroke-dashoffset="0" style="mix-blend-mode: normal"><path d="M230.15812,189.84195v-19.68383h19.68383v19.68383z" data-paper-data="{&quot;index&quot;:null}" fill="none" stroke-width="0"/><path d="M236.8719,183.98289c-0.4866,0 -0.89545,-0.46555 -0.89545,-0.91397c0,-0.96204 -0.01292,-4.58517 -0.01292,-6.23207c0.08534,-0.06093 0.16611,-0.1251 0.24239,-0.19217c0.32972,-0.14065 0.62305,-0.35011 0.86195,-0.61033h6.93462l-0.01291,7.94854c0,0 -5.83384,0 -7.11767,0z" data-paper-data="{&quot;index&quot;:null}" fill="#ffbe4d" stroke-width="0"/><path d="M243.98136,177.92871l-6.83183,0.02461c0,0 -0.17386,-0.01054 -0.22642,-0.01054c-0.5302,0 -0.96,-0.42981 -0.96,-0.96c0,-0.5302 0.42981,-0.96 0.96,-0.96c0.06899,0 0.23341,-0.04341 0.23341,-0.04341l6.85562,0.00341z" data-paper-data="{&quot;index&quot;:null}" fill="#ffe3b3" stroke-width="0.5"/><path d="M236.60771,180.81373c-0.32784,0 -0.63618,-0.34638 -0.63618,-0.65709c0,-0.53233 0,-3.1869 0,-3.1869l8.01312,0.01309v3.83091c0,0 -6.26056,0 -7.37694,0z" data-paper-data="{&quot;index&quot;:null}" fill="url(#color-1)" stroke-width="0"/></g></g></svg>