<svg version="1.1" xmlns="http://www.w3.org/2000/svg" xmlns:xlink="http://www.w3.org/1999/xlink" width="72.8582" height="101.98456" viewBox="0,0,72.8582,101.98456"><g transform="translate(-203.5709,-129.00772)"><g data-paper-data="{&quot;isPaintingLayer&quot;:true}" fill="#ffffff" fill-rule="nonzero" stroke-linecap="square" stroke-linejoin="miter" stroke-miterlimit="10" stroke-dasharray="" stroke-dashoffset="0" style="mix-blend-mode: normal"><path d="M206.0709,163.21619c0,-8.95135 3.20183,-16.45675 9.60549,-22.51611c6.40366,-6.12825 14.18447,-9.19236 23.3424,-9.19236c11.56792,0 20.27829,3.71826 26.13109,11.15477c5.8528,7.43652 8.77922,16.83544 8.77922,28.19679c0,16.38786 -4.68226,30.09036 -14.04675,41.10741c-9.29564,11.01705 -21.9997,16.52559 -38.11214,16.52559h-0.82628c-3.58054,0 -6.23153,-0.55086 -7.95294,-1.65256c-3.0297,-1.79028 -4.54453,-5.71512 -4.54453,-11.77448c0,-7.02337 2.10014,-11.18921 6.30038,-12.49748c1.65256,-0.55086 4.16584,-0.82628 7.5398,-0.82628c3.37396,0 6.47251,-0.51643 9.29564,-1.54928c2.89198,-1.1017 5.09541,-2.30671 6.61024,-3.61497c3.16739,-3.16739 5.19869,-5.92168 6.09381,-8.26279l1.65256,0.51643c-1.92798,2.13454 -4.57898,3.20183 -7.95294,3.20183c-8.67593,0 -16.1813,-2.92642 -22.51611,-8.77922c-6.26594,-5.92168 -9.39893,-12.60076 -9.39893,-20.03727zM239.53522,156.70923c-4.68226,0 -7.02337,1.92798 -7.02337,5.78395c0,1.30827 0.48199,2.54769 1.44599,3.71826c0.96401,1.1017 2.71985,1.65256 5.26754,1.65256c2.54769,0 4.3724,-0.51643 5.4741,-1.54928c1.17057,-1.1017 1.75585,-2.20342 1.75585,-3.30511c0,-1.1017 -0.06885,-1.92798 -0.20657,-2.47884c-0.13772,-0.61971 -0.44758,-1.30827 -0.92957,-2.0657c-0.75743,-1.17057 -2.6854,-1.75585 -5.78395,-1.75585z" stroke="#28a5da" stroke-width="5"/><path d="M206.0709,163.21619c0,-8.95135 3.20183,-16.45675 9.60549,-22.51611c6.40366,-6.12825 14.18447,-9.19236 23.3424,-9.19236c11.56792,0 20.27829,3.71826 26.13109,11.15477c5.8528,7.43652 8.77922,16.83544 8.77922,28.19679c0,16.38786 -4.68226,30.09036 -14.04675,41.10741c-9.29564,11.01705 -21.9997,16.52559 -38.11214,16.52559h-0.82628c-3.58054,0 -6.23153,-0.55086 -7.95294,-1.65256c-3.0297,-1.79028 -4.54453,-5.71512 -4.54453,-11.77448c0,-7.02337 2.10014,-11.18921 6.30038,-12.49748c1.65256,-0.55086 4.16584,-0.82628 7.5398,-0.82628c3.37396,0 6.47251,-0.51643 9.29564,-1.54928c2.89198,-1.1017 5.09541,-2.30671 6.61024,-3.61497c3.16739,-3.16739 5.19869,-5.92168 6.09381,-8.26279l1.65256,0.51643c-1.92798,2.13454 -4.57898,3.20183 -7.95294,3.20183c-8.67593,0 -16.1813,-2.92642 -22.51611,-8.77922c-6.26594,-5.92168 -9.39893,-12.60076 -9.39893,-20.03727zM239.53522,156.70923c-4.68226,0 -7.02337,1.92798 -7.02337,5.78395c0,1.30827 0.48199,2.54769 1.44599,3.71826c0.96401,1.1017 2.71985,1.65256 5.26754,1.65256c2.54769,0 4.3724,-0.51643 5.4741,-1.54928c1.17057,-1.1017 1.75585,-2.20342 1.75585,-3.30511c0,-1.1017 -0.06885,-1.92798 -0.20657,-2.47884c-0.13772,-0.61971 -0.44758,-1.30827 -0.92957,-2.0657c-0.75743,-1.17057 -2.6854,-1.75585 -5.78395,-1.75585z" stroke="none" stroke-width="1"/></g></g></svg>