<svg version="1.1" xmlns="http://www.w3.org/2000/svg" xmlns:xlink="http://www.w3.org/1999/xlink" width="261.40822" height="115.93103" viewBox="0,0,261.40822,115.93103"><g transform="translate(-109.29589,-122.03449)"><g data-paper-data="{&quot;isPaintingLayer&quot;:true}" fill-rule="nonzero" stroke="none" stroke-miterlimit="10" stroke-dasharray="" stroke-dashoffset="0" style="mix-blend-mode: normal"><path d="M149.51142,122.03449h180.97717c22.27939,0 40.21552,17.93612 40.21552,40.21551c0,0.34841 -0.00439,36.19576 -0.01311,36.54199c-0.54893,21.79401 -18.27143,39.17353 -40.20241,39.17353h-180.97717c-21.91514,0 -39.62786,-17.3544 -40.2012,-39.12627c-0.00953,-0.36188 -0.01433,-36.47498 -0.01433,-36.83924c0,-22.27939 17.93612,-39.96551 40.21552,-39.96551z" fill-opacity="0.2008" fill="#000000" stroke-width="0.365" stroke-linecap="round" stroke-linejoin="round"/><path d="M168.22604,150.125h15.5625c0.59375,0 1.03125,0.07291 1.3125,0.21875c0.28125,0.13541 0.46875,0.35416 0.5625,0.65625c0.09375,0.29166 0.14063,0.68229 0.14063,1.17188c0,0.47916 -0.04687,0.86459 -0.14062,1.15625c-0.09375,0.29167 -0.25,0.48958 -0.46875,0.59375c-0.34375,0.17709 -0.82291,0.26563 -1.4375,0.26563h-5.34375v14.07813c0,0.42709 -0.01562,0.74479 -0.04687,0.95313c-0.02084,0.20834 -0.10416,0.44791 -0.25,0.71875c-0.13541,0.26041 -0.38021,0.44791 -0.73437,0.5625c-0.35416,0.11459 -0.82291,0.17188 -1.40625,0.17188c-0.57291,0 -1.03646,-0.05729 -1.39062,-0.17187c-0.34375,-0.11459 -0.58854,-0.30209 -0.73437,-0.5625c-0.13541,-0.27084 -0.21875,-0.51562 -0.25,-0.73437c-0.02084,-0.21875 -0.03125,-0.54166 -0.03125,-0.96875v-14.04687h-5.375c-0.59375,0 -1.03125,-0.06771 -1.3125,-0.20312c-0.28125,-0.14583 -0.46875,-0.36979 -0.5625,-0.67187c-0.09375,-0.30209 -0.14062,-0.69271 -0.14062,-1.17187c0,-0.48959 0.04688,-0.875 0.14063,-1.15625c0.09375,-0.29166 0.25,-0.49479 0.46875,-0.60937c0.34375,-0.16666 0.82291,-0.25 1.4375,-0.25zM195.52225,155.96875c1.86459,0 3.41667,0.71354 4.65625,2.14063c1.23959,1.41666 1.85938,3.15104 1.85938,5.20313v4.92188c0,0.42709 -0.01562,0.75 -0.04687,0.96875c-0.02084,0.21875 -0.10416,0.46354 -0.25,0.73438c-0.25,0.48959 -0.96875,0.73438 -2.15625,0.73438c-1.14583,0 -1.85416,-0.24479 -2.125,-0.73437c-0.15625,-0.27084 -0.25,-0.51562 -0.28125,-0.73437c-0.02083,-0.22916 -0.03125,-0.56771 -0.03125,-1.01562v-4.90625c0,-0.77084 -0.21875,-1.36979 -0.65625,-1.79687c-0.42708,-0.42709 -0.97396,-0.64062 -1.64062,-0.64062c-0.65625,0 -1.23958,0.20313 -1.75,0.60938c-0.5,0.39584 -0.78646,0.84375 -0.85937,1.34375v5.4375c0,0.42709 -0.01562,0.75 -0.04687,0.96875c-0.02083,0.21875 -0.10416,0.46354 -0.25,0.73438c-0.25,0.48959 -0.96875,0.73438 -2.15625,0.73438c-1.17708,0 -1.89583,-0.25 -2.15625,-0.75c-0.13541,-0.28125 -0.21875,-0.52604 -0.25,-0.73437c-0.02083,-0.20834 -0.03125,-0.53646 -0.03125,-0.98437v-16.73437c0,-0.4375 0.01042,-0.76041 0.03125,-0.96875c0.03125,-0.21875 0.11459,-0.45834 0.25,-0.71875c0.26042,-0.5 0.98438,-0.75 2.17188,-0.75c1.17709,0 1.89063,0.25 2.14063,0.75c0.14584,0.28125 0.22917,0.53125 0.25,0.75c0.03125,0.20834 0.04688,0.52604 0.04688,0.95313v6.20313c0.9375,-1.14584 2.03125,-1.71875 3.28125,-1.71875zM213.86856,157.48438c0.10416,-1.04166 0.83854,-1.5625 2.20313,-1.5625c0.72916,0 1.27084,0.05729 1.625,0.17188c0.35416,0.10416 0.59896,0.29688 0.73438,0.57813c0.14584,0.28125 0.22916,0.53125 0.25,0.75c0.03125,0.20834 0.04688,0.52604 0.04688,0.95313v9.8125c0,0.42709 -0.01562,0.75 -0.04687,0.96875c-0.02084,0.20834 -0.09896,0.45313 -0.23437,0.73438c-0.26041,0.47916 -0.90104,0.71875 -1.92187,0.71875c-1.01041,0 -1.6875,-0.125 -2.03125,-0.375c-0.34375,-0.25 -0.54687,-0.61979 -0.60937,-1.10937c-0.6875,0.98959 -1.83854,1.48438 -3.45312,1.48438c-1.61459,0 -3.11459,-0.73437 -4.5,-2.20312c-1.375,-1.47916 -2.0625,-3.19271 -2.0625,-5.14062c0,-1.94791 0.69271,-3.65625 2.07813,-5.125c1.39584,-1.46875 2.92188,-2.20312 4.57813,-2.20312c0.63541,0 1.21354,0.11459 1.73438,0.34375c0.53125,0.21875 0.89584,0.42709 1.09375,0.625c0.20834,0.19791 0.38021,0.39063 0.51563,0.57813zM208.75918,163.3125c0,0.61459 0.24479,1.17188 0.73438,1.67188c0.48959,0.48959 1.07813,0.73438 1.76563,0.73438c0.6875,0 1.26041,-0.25 1.71875,-0.75c0.45834,-0.51041 0.6875,-1.06771 0.6875,-1.67187c0,-0.60416 -0.21875,-1.16666 -0.65625,-1.6875c-0.4375,-0.53125 -1.02604,-0.79687 -1.76562,-0.79687c-0.73959,0 -1.33854,0.26563 -1.79687,0.79688c-0.45834,0.52084 -0.6875,1.08854 -0.6875,1.70313zM229.18161,155.92188c1.86459,0 3.41666,0.71354 4.65625,2.14063c1.23959,1.42709 1.85938,3.16666 1.85938,5.21875v4.92188c0,0.4375 -0.01562,0.76563 -0.04687,0.98438c-0.02084,0.20834 -0.09896,0.44271 -0.23437,0.70313c-0.26041,0.5 -0.98437,0.75 -2.17187,0.75c-1.33334,0 -2.09896,-0.34375 -2.29687,-1.03125c-0.11459,-0.32291 -0.17187,-0.79687 -0.17187,-1.42187v-4.9375c0,-0.76041 -0.21875,-1.35416 -0.65625,-1.78125c-0.4375,-0.4375 -1.02604,-0.65625 -1.76562,-0.65625c-0.73959,0 -1.33854,0.22396 -1.79687,0.67188c-0.45834,0.44791 -0.6875,1.03646 -0.6875,1.76563v4.95313c0,0.4375 -0.01562,0.76563 -0.04687,0.98438c-0.02084,0.20834 -0.10416,0.44271 -0.25,0.70313c-0.25,0.5 -0.96875,0.75 -2.15625,0.75c-1.17709,0 -1.89584,-0.25 -2.15625,-0.75c-0.13541,-0.28125 -0.21875,-0.52604 -0.25,-0.73437c-0.02084,-0.21875 -0.03125,-0.54166 -0.03125,-0.96875v-9.92187c0,-0.40625 0.01041,-0.71354 0.03125,-0.92187c0.03125,-0.21875 0.11979,-0.46354 0.26563,-0.73437c0.26041,-0.45834 0.97916,-0.6875 2.15625,-0.6875c1.14584,0 1.84896,0.21354 2.10938,0.64063c0.1875,0.3125 0.28125,0.69271 0.28125,1.14063c0.07291,-0.125 0.23959,-0.30729 0.5,-0.54687c0.26041,-0.25 0.51041,-0.44791 0.75,-0.59375c0.63541,-0.42709 1.33854,-0.64062 2.10938,-0.64062zM246.61844,163.28125l3.73438,3.07813c0.45834,0.39584 0.75,0.69791 0.875,0.90625c0.125,0.19791 0.1875,0.39063 0.1875,0.57813c0,0.44791 -0.29166,1.05209 -0.875,1.8125c-0.63541,0.79166 -1.19271,1.1875 -1.67187,1.1875c-0.41666,0 -0.98959,-0.27084 -1.71875,-0.8125l-0.28125,-0.20312c-0.42709,-0.35416 -1.08854,-0.97396 -1.98437,-1.85937c-0.89584,-0.88541 -1.57812,-1.51562 -2.04687,-1.89062v2.15625c0,0.42709 -0.01562,0.75 -0.04687,0.96875c-0.02084,0.21875 -0.10416,0.46354 -0.25,0.73438c-0.25,0.48959 -0.96875,0.73438 -2.15625,0.73438c-1.17709,0 -1.89584,-0.25 -2.15625,-0.75c-0.13541,-0.28125 -0.21875,-0.52604 -0.25,-0.73437c-0.02084,-0.21875 -0.03125,-0.54687 -0.03125,-0.98437v-16.76562c0,-0.42709 0.01041,-0.75 0.03125,-0.96875c0.03125,-0.21875 0.11459,-0.46354 0.25,-0.73437c0.26041,-0.51041 0.98438,-0.76562 2.17188,-0.76562c0.89584,0 1.53125,0.16146 1.90625,0.48438c0.32291,0.26041 0.48959,0.67188 0.5,1.23438c0.02084,0.16666 0.03125,0.42709 0.03125,0.78125v8.875c0.34375,-0.28125 0.85416,-0.75521 1.53125,-1.42187c0.67709,-0.67709 1.1875,-1.15625 1.53125,-1.4375l0.32813,-0.21875c0.65625,-0.51041 1.21354,-0.76562 1.67188,-0.76562c0.46875,0 1.00521,0.38021 1.60938,1.14063c0.61459,0.75 0.92188,1.34375 0.92188,1.78125c0,0.42709 -0.34375,0.92709 -1.03125,1.5zM253.06399,169.35938c-0.35417,-0.22916 -0.53125,-0.58334 -0.53125,-1.0625c0,-0.48959 0.35416,-1.22916 1.0625,-2.21875c0.20833,-0.3125 0.53646,-0.46875 0.98437,-0.46875c0.45834,0 1.07813,0.22916 1.85938,0.6875c0.79166,0.44791 1.50521,0.67188 2.14063,0.67188c1.13541,0 1.70313,-0.22396 1.70313,-0.67187c0,-0.35416 -0.625,-0.61459 -1.875,-0.78125c-1.17709,-0.16666 -2.34375,-0.60416 -3.5,-1.3125c-0.54166,-0.33334 -0.98958,-0.85937 -1.34375,-1.57812c-0.35417,-0.71875 -0.53125,-1.57291 -0.53125,-2.5625c0,-2.94791 2.02604,-4.42187 6.07812,-4.42187c1.32291,0 2.6875,0.31771 4.09375,0.95313c0.64584,0.29166 0.96875,0.66146 0.96875,1.10938c0,0.44791 -0.20834,1 -0.625,1.65625c-0.40625,0.65625 -0.82291,0.98438 -1.25,0.98438c-0.21875,0 -0.63541,-0.14062 -1.25,-0.42187c-0.60416,-0.28125 -1.26041,-0.42187 -1.96875,-0.42187c-1.10416,0 -1.65625,0.20313 -1.65625,0.60938c0,0.5625 0.63541,0.92709 1.90625,1.09375c1.23959,0.13541 2.4375,0.48959 3.59375,1.0625c0.54166,0.26041 0.98959,0.71354 1.34375,1.35938c0.36459,0.64584 0.54688,1.45834 0.54688,2.4375c0,0.96875 -0.18229,1.79166 -0.54687,2.46875c-0.35416,0.67709 -0.85937,1.1875 -1.51562,1.53125c-1.19791,0.57291 -2.69791,0.85938 -4.5,0.85938c-1.80209,0 -3.53125,-0.52084 -5.1875,-1.5625zM282.35571,155.9375c1.28125,0 2.03646,0.35938 2.26563,1.07813c0.11459,0.35416 0.17188,0.82291 0.17188,1.40625c0,0.57291 -0.0625,1.03125 -0.1875,1.375c-0.125,0.34375 -0.31771,0.58854 -0.57812,0.73438c-0.38541,0.22916 -0.95312,0.34375 -1.70312,0.34375l-1.79687,-0.10937v7.5c0,0.70834 -0.08854,1.23438 -0.26562,1.57813c-0.17709,0.34375 -0.44791,0.57291 -0.8125,0.6875c-0.36459,0.11459 -0.83854,0.17188 -1.42187,0.17188c-0.57291,0 -1.03125,-0.0625 -1.375,-0.1875c-0.34375,-0.125 -0.59375,-0.31771 -0.75,-0.57812c-0.14584,-0.27084 -0.23437,-0.51562 -0.26562,-0.73437c-0.02084,-0.22916 -0.03125,-0.5625 -0.03125,-1v-7.42187h-1.01562c-0.47917,-0.03125 -0.82292,-0.14062 -1.03125,-0.32812c-0.35417,-0.35416 -0.53125,-1.03646 -0.53125,-2.04687c0,-1.53125 0.55208,-2.29687 1.65625,-2.29687h0.92188v-1.48437c0,-1.4375 0.51041,-2.73959 1.53125,-3.90625c1.03125,-1.16666 2.51563,-1.75 4.45313,-1.75c0.42709,0 0.75,0.01563 0.96875,0.04688c0.21875,0.03125 0.46875,0.11979 0.75,0.26563c0.5,0.23959 0.75,0.95834 0.75,2.15625c0,0.89584 -0.16146,1.54166 -0.48437,1.9375c-0.26041,0.29167 -0.66666,0.45833 -1.21875,0.5c-0.17709,0 -0.44271,0 -0.79687,0c-0.6875,0 -1.03125,0.23438 -1.03125,0.70313v1.53125zM285.34888,163.3125c0,-2.23959 0.78125,-4.08854 2.34375,-5.54687c1.57291,-1.45834 3.36459,-2.1875 5.375,-2.1875c2.02084,0 3.80209,0.72396 5.34375,2.17188c1.55209,1.44791 2.32813,3.29166 2.32813,5.53125c0,1.55209 -0.40104,2.93229 -1.20312,4.14063c-0.80209,1.19791 -1.77604,2.08334 -2.92187,2.65625c-1.14584,0.5625 -2.33854,0.84375 -3.57812,0.84375c-1.22916,0 -2.42187,-0.30209 -3.57812,-0.90625c-1.15625,-0.60416 -2.13021,-1.5 -2.92187,-2.6875c-0.79166,-1.1875 -1.1875,-2.52604 -1.1875,-4.01562zM291.19263,165.3125c0.60416,0.45834 1.21354,0.6875 1.82813,0.6875c0.61459,0 1.22916,-0.23437 1.84375,-0.70312c0.61459,-0.46875 0.92188,-1.15625 0.92188,-2.0625c0,-0.91666 -0.29166,-1.59896 -0.875,-2.04687c-0.57291,-0.44791 -1.19791,-0.67187 -1.875,-0.67187c-0.66666,0 -1.29166,0.23438 -1.875,0.70313c-0.57291,0.45834 -0.85937,1.14063 -0.85937,2.04688c0,0.90625 0.29688,1.58854 0.89063,2.04688zM312.58646,156.09375c0.35417,0.10416 0.64584,0.29166 0.875,0.5625c0.23959,0.27084 0.35938,0.70834 0.35938,1.3125c0,0.59375 -0.17708,1.24479 -0.53125,1.95313c-0.35416,0.70834 -0.86979,1.0625 -1.54687,1.0625c-0.33334,0 -0.65625,-0.07291 -0.96875,-0.21875c-0.30209,-0.15625 -0.70834,-0.23437 -1.21875,-0.23437c-0.5,0 -0.96875,0.17709 -1.40625,0.53125c-0.4375,0.35416 -0.65625,0.78646 -0.65625,1.29688v5.875c0,0.42709 -0.01562,0.75 -0.04687,0.96875c-0.02084,0.21875 -0.10937,0.46354 -0.26562,0.73438c-0.28125,0.48959 -1.00521,0.73438 -2.17187,0.73438c-0.89584,0 -1.54166,-0.15625 -1.9375,-0.46875c-0.30209,-0.27084 -0.46875,-0.67709 -0.5,-1.21875c0,-0.17709 0,-0.44271 0,-0.79687v-9.82812c0,-0.4375 0.01041,-0.76041 0.03125,-0.96875c0.03125,-0.21875 0.11459,-0.45834 0.25,-0.71875c0.26041,-0.5 0.98438,-0.75 2.17188,-0.75c1.125,0 1.82813,0.21354 2.10938,0.64063c0.19791,0.30209 0.29688,0.60938 0.29688,0.92188c0.09375,-0.13541 0.22916,-0.29166 0.40625,-0.46875c0.17709,-0.1875 0.55729,-0.4375 1.14063,-0.75c0.58334,-0.32291 1.09375,-0.48437 1.53125,-0.48437c0.4375,0 0.80209,0.02604 1.09375,0.07813c0.30209,0.04166 0.63021,0.11979 0.98438,0.23438z" fill="#ffffff" stroke-width="1" stroke-linecap="square" stroke-linejoin="miter"/><path d="M189.00211,184.125h15.5625c0.59375,0 1.03125,0.07291 1.3125,0.21875c0.28125,0.13541 0.46875,0.35416 0.5625,0.65625c0.09375,0.29166 0.14063,0.68229 0.14063,1.17188c0,0.47916 -0.04687,0.86459 -0.14062,1.15625c-0.09375,0.29166 -0.25,0.48959 -0.46875,0.59375c-0.34375,0.17709 -0.82291,0.26563 -1.4375,0.26563h-5.34375v14.07813c0,0.42709 -0.01562,0.74479 -0.04687,0.95313c-0.02084,0.20834 -0.10417,0.44791 -0.25,0.71875c-0.13542,0.26041 -0.38021,0.44791 -0.73437,0.5625c-0.35417,0.11459 -0.82292,0.17188 -1.40625,0.17188c-0.57292,0 -1.03646,-0.05729 -1.39062,-0.17187c-0.34375,-0.11459 -0.58854,-0.30209 -0.73437,-0.5625c-0.13542,-0.27084 -0.21875,-0.51562 -0.25,-0.73437c-0.02084,-0.21875 -0.03125,-0.54166 -0.03125,-0.96875v-14.04687h-5.375c-0.59375,0 -1.03125,-0.06771 -1.3125,-0.20312c-0.28125,-0.14584 -0.46875,-0.36979 -0.5625,-0.67187c-0.09375,-0.30209 -0.14062,-0.69271 -0.14062,-1.17187c0,-0.48959 0.04688,-0.875 0.14063,-1.15625c0.09375,-0.29166 0.25,-0.49479 0.46875,-0.60937c0.34375,-0.16666 0.82291,-0.25 1.4375,-0.25zM218.98521,195.53125c0,1.14584 -0.28646,1.99479 -0.85937,2.54688c-0.5625,0.55209 -1.19271,0.82813 -1.89062,0.82813h-6.625c0,0.52084 0.30729,0.95834 0.92188,1.3125c0.61459,0.35416 1.22916,0.53125 1.84375,0.53125c1.08334,0 1.93229,-0.10937 2.54688,-0.32812l0.3125,-0.125c0.44791,-0.19791 0.82291,-0.29687 1.125,-0.29687c0.59375,0 1.10416,0.41666 1.53125,1.25c0.23959,0.51041 0.35938,0.94271 0.35938,1.29688c0,1.65625 -1.98437,2.48438 -5.95312,2.48438c-1.38541,0 -2.61459,-0.23437 -3.6875,-0.70312c-1.07291,-0.47916 -1.90625,-1.10937 -2.5,-1.89062c-1.17709,-1.52084 -1.76562,-3.21354 -1.76562,-5.07812c0,-2.35416 0.76041,-4.23437 2.28125,-5.64062c1.52084,-1.40625 3.42188,-2.10937 5.70313,-2.10937c2.59375,0 4.49479,0.91666 5.70313,2.75c0.63541,0.96875 0.95313,2.02604 0.95313,3.17188zM213.07896,196.35938c0.70834,0 1.0625,-0.30209 1.0625,-0.90625c0,-0.42709 -0.16666,-0.77084 -0.5,-1.03125c-0.32291,-0.26041 -0.78646,-0.39062 -1.39062,-0.39062c-0.60416,0 -1.20834,0.25 -1.8125,0.75c-0.59375,0.48959 -0.89062,1.01563 -0.89062,1.57813zM220.9199,203.35938c-0.35416,-0.22916 -0.53125,-0.58334 -0.53125,-1.0625c0,-0.48959 0.35416,-1.22916 1.0625,-2.21875c0.20834,-0.3125 0.53646,-0.46875 0.98438,-0.46875c0.45834,0 1.07813,0.22916 1.85938,0.6875c0.79166,0.44791 1.50521,0.67188 2.14063,0.67188c1.13541,0 1.70313,-0.22396 1.70313,-0.67187c0,-0.35416 -0.625,-0.61459 -1.875,-0.78125c-1.17709,-0.16666 -2.34375,-0.60416 -3.5,-1.3125c-0.54166,-0.33334 -0.98959,-0.85937 -1.34375,-1.57812c-0.35416,-0.71875 -0.53125,-1.57291 -0.53125,-2.5625c0,-2.94791 2.02604,-4.42187 6.07813,-4.42187c1.32291,0 2.6875,0.31771 4.09375,0.95313c0.64584,0.29166 0.96875,0.66146 0.96875,1.10938c0,0.44791 -0.20834,1 -0.625,1.65625c-0.40625,0.65625 -0.82291,0.98438 -1.25,0.98438c-0.21875,0 -0.63541,-0.14062 -1.25,-0.42187c-0.60416,-0.28125 -1.26041,-0.42187 -1.96875,-0.42187c-1.10416,0 -1.65625,0.20313 -1.65625,0.60938c0,0.5625 0.63541,0.92709 1.90625,1.09375c1.23959,0.13541 2.4375,0.48959 3.59375,1.0625c0.54166,0.26041 0.98959,0.71354 1.34375,1.35938c0.36459,0.64584 0.54688,1.45834 0.54688,2.4375c0,0.96875 -0.18229,1.79166 -0.54687,2.46875c-0.35416,0.67709 -0.85937,1.1875 -1.51562,1.53125c-1.19791,0.57291 -2.69791,0.85938 -4.5,0.85938c-1.80209,0 -3.53125,-0.52084 -5.1875,-1.5625zM242.61707,194.875l-1.8125,-0.10937v3.85938c0,0.5 0.07813,0.86459 0.23438,1.09375c0.15625,0.21875 0.45313,0.32813 0.89063,0.32813c0.4375,0 0.77084,0.01563 1,0.04688c0.23959,0.03125 0.48959,0.11979 0.75,0.26563c0.42709,0.23959 0.64063,0.86459 0.64063,1.875c0,1.17709 -0.26041,1.89584 -0.78125,2.15625c-0.28125,0.13541 -0.53125,0.21875 -0.75,0.25c-0.20834,0.02084 -0.51562,0.03125 -0.92187,0.03125c-1.94791,0 -3.42709,-0.4375 -4.4375,-1.3125c-1,-0.875 -1.5,-2.35937 -1.5,-4.45312v-4.14062c-0.35416,0.05209 -0.73959,0.07813 -1.15625,0.07813c-0.40625,0 -0.74479,-0.15625 -1.01562,-0.46875c-0.27084,-0.32291 -0.40625,-0.86459 -0.40625,-1.625c0,-0.77084 0.04688,-1.32812 0.14063,-1.67187c0.09375,-0.34375 0.22396,-0.59375 0.39063,-0.75c0.30209,-0.23959 0.67709,-0.35937 1.125,-0.35937l0.92188,0.10938v-2.875c0,-0.42709 0.01041,-0.74479 0.03125,-0.95312c0.03125,-0.20834 0.11979,-0.43229 0.26563,-0.67187c0.25,-0.46875 0.96875,-0.70312 2.15625,-0.70312c1.27084,0 2.03125,0.34375 2.28125,1.03125c0.09375,0.30209 0.14063,0.78125 0.14063,1.4375v2.73438c0.8125,-0.07291 1.42709,-0.10937 1.84375,-0.10937c0.42709,0 0.74479,0.01563 0.95313,0.04688c0.21875,0.03125 0.46875,0.11979 0.75,0.26563c0.48959,0.23959 0.73438,0.95834 0.73438,2.15625c0,1.17709 -0.25521,1.89584 -0.76562,2.15625c-0.28125,0.125 -0.53125,0.20313 -0.75,0.23438c-0.20834,0.03125 -0.52604,0.04688 -0.95312,0.04688zM246.62662,192.375c0,-0.42709 0.01041,-0.74479 0.03125,-0.95312c0.03125,-0.21875 0.11459,-0.46875 0.25,-0.75c0.26041,-0.48959 0.98438,-0.73437 2.17188,-0.73437c0.89584,0 1.53125,0.16146 1.90625,0.48438c0.32291,0.26041 0.48959,0.66146 0.5,1.20313c0.02084,0.1875 0.03125,0.45834 0.03125,0.8125v9.79688c0,0.42709 -0.01562,0.75 -0.04687,0.96875c-0.02084,0.21875 -0.10416,0.46354 -0.25,0.73438c-0.25,0.48959 -0.96875,0.73438 -2.15625,0.73438c-1.17709,0 -1.89584,-0.25 -2.15625,-0.75c-0.13541,-0.28125 -0.21875,-0.52604 -0.25,-0.73437c-0.02084,-0.20834 -0.03125,-0.53646 -0.03125,-0.98437zM251.22037,187.1875c-0.13541,0.27084 -0.38021,0.46354 -0.73437,0.57813c-0.35416,0.10416 -0.82812,0.15625 -1.42187,0.15625c-0.58334,0 -1.05209,-0.05209 -1.40625,-0.15625c-0.35416,-0.11459 -0.60416,-0.3125 -0.75,-0.59375c-0.13541,-0.28125 -0.21875,-0.52604 -0.25,-0.73437c-0.02084,-0.21875 -0.03125,-0.54166 -0.03125,-0.96875c0,-0.4375 0.01041,-0.76041 0.03125,-0.96875c0.03125,-0.21875 0.11459,-0.45834 0.25,-0.71875c0.26041,-0.5 0.98438,-0.75 2.17188,-0.75c1.17709,0 1.89063,0.25 2.14063,0.75c0.14584,0.28125 0.22916,0.53125 0.25,0.75c0.03125,0.20834 0.04688,0.53125 0.04688,0.96875c0,0.42709 -0.01562,0.75 -0.04687,0.96875c-0.02084,0.20834 -0.10416,0.44791 -0.25,0.71875zM261.96979,189.92188c1.86459,0 3.41666,0.71354 4.65625,2.14063c1.23959,1.42709 1.85938,3.16666 1.85938,5.21875v4.92188c0,0.4375 -0.01562,0.76563 -0.04687,0.98438c-0.02084,0.20834 -0.09896,0.44271 -0.23437,0.70313c-0.26041,0.5 -0.98437,0.75 -2.17187,0.75c-1.33334,0 -2.09896,-0.34375 -2.29687,-1.03125c-0.11459,-0.32291 -0.17187,-0.79687 -0.17187,-1.42187v-4.9375c0,-0.76041 -0.21875,-1.35416 -0.65625,-1.78125c-0.4375,-0.4375 -1.02604,-0.65625 -1.76562,-0.65625c-0.73959,0 -1.33854,0.22396 -1.79687,0.67188c-0.45834,0.44791 -0.6875,1.03646 -0.6875,1.76563v4.95313c0,0.4375 -0.01562,0.76563 -0.04687,0.98438c-0.02084,0.20834 -0.10416,0.44271 -0.25,0.70313c-0.25,0.5 -0.96875,0.75 -2.15625,0.75c-1.17709,0 -1.89584,-0.25 -2.15625,-0.75c-0.13542,-0.28125 -0.21875,-0.52604 -0.25,-0.73437c-0.02084,-0.21875 -0.03125,-0.54166 -0.03125,-0.96875v-9.92187c0,-0.40625 0.01041,-0.71354 0.03125,-0.92187c0.03125,-0.21875 0.11979,-0.46354 0.26563,-0.73437c0.26041,-0.45834 0.97916,-0.6875 2.15625,-0.6875c1.14584,0 1.84896,0.21354 2.10938,0.64063c0.1875,0.3125 0.28125,0.69271 0.28125,1.14063c0.07291,-0.125 0.23959,-0.30729 0.5,-0.54687c0.26041,-0.25 0.51041,-0.44791 0.75,-0.59375c0.63541,-0.42709 1.33854,-0.64062 2.10938,-0.64062zM280.07847,202.82813c-0.70834,0.92709 -1.83854,1.39063 -3.39062,1.39063c-1.54166,0 -2.98958,-0.71354 -4.34375,-2.14062c-1.35416,-1.42709 -2.03125,-3.08854 -2.03125,-4.98437c0,-1.90625 0.67709,-3.57812 2.03125,-5.01562c1.36459,-1.4375 2.85938,-2.15625 4.48438,-2.15625c0.63541,0 1.21354,0.11459 1.73438,0.34375c0.53125,0.22916 0.89063,0.44271 1.07813,0.64063c0.19791,0.19791 0.35416,0.38021 0.46875,0.54688c0.05209,-0.52084 0.23959,-0.91666 0.5625,-1.1875c0.33334,-0.27084 0.86458,-0.40625 1.59375,-0.40625c0.72916,0 1.26041,0.05729 1.59375,0.17188c0.33333,0.11459 0.56771,0.30729 0.70313,0.57813c0.14583,0.27084 0.23438,0.51041 0.26563,0.71875c0.03125,0.19791 0.04688,0.51041 0.04688,0.9375v11.59375c0,2.14584 -0.75,3.875 -2.25,5.1875c-1.48959,1.32291 -3.16666,1.98438 -5.03125,1.98438c-1.41667,0 -2.77084,-0.34896 -4.0625,-1.04687c-1.29166,-0.6875 -1.9375,-1.3125 -1.9375,-1.875c0,-0.71875 0.28125,-1.35937 0.84375,-1.92187c0.35417,-0.39584 0.63021,-0.67187 0.82813,-0.82812c0.19792,-0.14584 0.42709,-0.21875 0.6875,-0.21875c0.26042,0 0.53125,0.11459 0.8125,0.34375c0.89583,0.6875 1.86458,1.03125 2.90625,1.03125c0.70833,0 1.28646,-0.28125 1.73438,-0.84375c0.44791,-0.55209 0.67188,-1.22396 0.67188,-2.01562zM275.09409,197.10938c0,0.60416 0.23958,1.15104 0.71875,1.64063c0.47916,0.47916 1.05729,0.71875 1.73438,0.71875c0.67708,0 1.23958,-0.24479 1.6875,-0.73437c0.44791,-0.5 0.67188,-1.04166 0.67188,-1.625c0,-0.59375 -0.21354,-1.14584 -0.64062,-1.65625c-0.42709,-0.52084 -1.00521,-0.78125 -1.73437,-0.78125c-0.72917,0 -1.31771,0.25521 -1.76562,0.76563c-0.44792,0.5 -0.67187,1.05729 -0.67187,1.67188zM287.39603,200.40625c0.1875,-0.36459 0.46875,-0.60937 0.84375,-0.73437c0.38541,-0.13541 0.98438,-0.20312 1.79688,-0.20312c0.8125,0 1.40104,0.17709 1.76563,0.53125c0.36459,0.35416 0.54688,0.91146 0.54688,1.67188v0.45313c0,0.44791 -0.01562,0.78125 -0.04687,1c-0.03125,0.20834 -0.11979,0.46354 -0.26562,0.76563c-0.30209,0.54166 -1.01562,0.8125 -2.14062,0.8125c-1.125,0 -1.86979,-0.18229 -2.23437,-0.54687c-0.36459,-0.36459 -0.54687,-1.06771 -0.54687,-2.10937c0,-0.72916 0.09375,-1.27604 0.28125,-1.64062zM291.14603,197.14063c-0.35416,0.09375 -0.83334,0.14063 -1.4375,0.14063c-0.59375,0 -1.06771,-0.04687 -1.42187,-0.14062c-0.35416,-0.09375 -0.60416,-0.26041 -0.75,-0.5c-0.13541,-0.25 -0.21875,-0.46354 -0.25,-0.64062c-0.02084,-0.1875 -0.03125,-0.47916 -0.03125,-0.875v-8.875c0,-0.39584 0.01041,-0.6875 0.03125,-0.875c0.03125,-0.19791 0.11979,-0.41666 0.26563,-0.65625c0.15625,-0.25 0.41146,-0.42709 0.76563,-0.53125c0.35416,-0.10416 0.82813,-0.15625 1.42188,-0.15625c0.59375,0 1.06771,0.05209 1.42188,0.15625c0.36459,0.10416 0.61459,0.28125 0.75,0.53125c0.13541,0.25 0.21875,0.47396 0.25,0.67188c0.03125,0.19791 0.04688,0.49479 0.04688,0.89063v8.875c0,0.38541 -0.01562,0.67188 -0.04687,0.85938c-0.03125,0.1875 -0.11979,0.40104 -0.26562,0.64063c-0.14584,0.22916 -0.39584,0.39063 -0.75,0.48438z" fill="#ffffff" stroke-width="1" stroke-linecap="square" stroke-linejoin="miter"/></g></g></svg>