<svg version="1.1" xmlns="http://www.w3.org/2000/svg" xmlns:xlink="http://www.w3.org/1999/xlink" width="67.30093" height="127.5831" viewBox="0,0,67.30093,127.5831"><g transform="translate(-206.34954,-116.20845)"><g data-paper-data="{&quot;isPaintingLayer&quot;:true}" fill="#ffffff" fill-rule="nonzero" stroke="none" stroke-linecap="butt" stroke-linejoin="miter" stroke-miterlimit="10" stroke-dasharray="" stroke-dashoffset="0" style="mix-blend-mode: normal"><g><g><g stroke-width="0"><path d="M227.84251,234.07725v-108.18983h19.65123v108.18983z"/><path d="M227.76983,126.00341c0,-5.40965 4.3991,-9.79496 9.82564,-9.79496c5.42654,0 9.82564,4.3853 9.82564,9.79496c0,5.40965 -4.3991,9.79496 -9.82564,9.79496c-5.42654,0 -9.82564,-4.3853 -9.82564,-9.79496z"/><path d="M227.76983,233.99659c0,-5.40965 4.3991,-9.79496 9.82564,-9.79496c5.42654,0 9.82564,4.3853 9.82564,9.79496c0,5.40965 -4.3991,9.79496 -9.82564,9.79496c-5.42654,0 -9.82564,-4.3853 -9.82564,-9.79496z"/></g><path d="M252.79375,158.28647c-7.6824,0.78325 -16.67527,1.89151 -16.91105,4.69796c-0.12793,1.52249 11.22701,0.94555 20.21919,6.55375c9.90762,6.17913 17.54857,18.784 17.54857,25.2356c0,22.38811 -19.77128,33.95268 -43.53651,34.71048c-4.3543,0.13881 -9.22375,0.87802 -13.00624,-1.28336c-9.75007,-5.57145 -9.53118,-20.39406 0,-25.84043c1.89165,-1.08095 20.98338,-3.19964 20.9032,-7.87755c-0.15847,-9.2438 -31.3487,-7.26155 -31.66014,-31.65968c-0.03426,-2.68517 0.64795,-6.31831 1.32005,-9.00678c4.23107,-16.92443 22.42551,-22.8149 38.18818,-24.71704c4.4106,-0.53226 15.43455,-1.77731 17.61608,2.0404c4.35215,2.56858 7.27172,7.30604 7.27172,12.72557c0,4.80529 -2.29532,9.07449 -5.84941,11.7709c-0.45456,0.44005 -11.07722,2.87601 -12.10368,2.65025z" stroke-width="0.5"/></g></g></g></g></svg>