<svg version="1.1" xmlns="http://www.w3.org/2000/svg" xmlns:xlink="http://www.w3.org/1999/xlink" width="215" height="215" viewBox="0,0,215,215"><g transform="translate(-132.5,-72.5)"><g data-paper-data="{&quot;isPaintingLayer&quot;:true}" fill-rule="nonzero" stroke="none" stroke-linejoin="miter" stroke-miterlimit="10" stroke-dasharray="" stroke-dashoffset="0" style="mix-blend-mode: normal"><path d="M239.95259,169.29939c2.30426,0 4.12715,0.66287 5.46868,1.98861c1.34152,1.30995 2.01229,2.79352 2.01229,4.45069c0,1.64138 -0.73388,2.82508 -2.20166,3.55108v0.21307c0.18938,0.0947 0.46559,0.29988 0.8286,0.61552c0.36299,0.29988 0.66287,0.59973 0.8996,0.8996c0.61552,0.78913 0.92329,1.69663 0.92329,2.72251c0,2.02017 -0.75757,3.68523 -2.2727,4.9952c-1.49934,1.30995 -3.38535,1.96494 -5.65805,1.96494c-2.2727,0 -4.15871,-0.66287 -5.65805,-1.98861c-0.56817,-0.50504 -1.06532,-1.1758 -1.49145,-2.01227c-0.15783,-0.29988 -0.2683,-0.54449 -0.33143,-0.73388l-0.04735,-0.28409c-0.20518,-0.61552 -0.30775,-1.12056 -0.30775,-1.51513c0,-1.10478 0.92329,-1.65718 2.76985,-1.65718c0.75757,0 1.25472,0.0947 1.49146,0.28409c0.31565,0.25252 0.59973,0.74178 0.85226,1.46778c0.18938,0.61552 0.71022,1.07321 1.56248,1.37308c0.34723,0.11048 0.74178,0.16572 1.18369,0.16572c0.99431,0 1.7282,-0.19729 2.20168,-0.59184c0.47348,-0.41034 0.71022,-0.86805 0.71022,-1.37308c0,-0.52083 -0.23674,-0.97062 -0.71022,-1.34941c-0.45769,-0.39457 -1.0022,-0.59184 -1.63349,-0.59184c-0.63131,0 -1.05744,-0.01579 -1.27839,-0.04735c-0.22095,-0.04735 -0.46559,-0.14205 -0.73388,-0.28409c-0.50504,-0.25252 -0.75757,-0.97851 -0.75757,-2.178c0,-1.32574 0.34723,-2.10697 1.04165,-2.34371c0.31565,-0.0947 0.80491,-0.14205 1.46778,-0.14205c1.43622,0 2.15434,-0.37089 2.15434,-1.11267c0,-0.39457 -0.18938,-0.76546 -0.56817,-1.11267c-0.37879,-0.36299 -0.90751,-0.54449 -1.58614,-0.54449c-0.66287,0 -1.19159,0.11048 -1.58614,0.33143c-0.39457,0.22095 -0.63919,0.44981 -0.73388,0.68655l-0.16571,0.33143c-0.44192,0.94696 -1.06532,1.42043 -1.87023,1.42043c-0.47348,0 -0.99431,-0.17361 -1.56248,-0.52083c-0.93117,-0.53661 -1.39675,-1.16791 -1.39675,-1.89391c0,-0.29988 0.21307,-0.93906 0.6392,-1.91758c0.07891,-0.17361 0.28409,-0.46559 0.61552,-0.87593c0.34723,-0.42613 0.74178,-0.79702 1.18369,-1.11267c0.44192,-0.33143 1.06533,-0.62342 1.87024,-0.87593c0.80491,-0.2683 1.69663,-0.40245 2.67516,-0.40245z" fill="#ffffff" stroke-width="1" stroke-linecap="square"/><path d="M132.5,287.5v-215h215v215z" fill="none" stroke-width="0" stroke-linecap="butt"/></g></g></svg>