<svg version="1.1" xmlns="http://www.w3.org/2000/svg" xmlns:xlink="http://www.w3.org/1999/xlink" width="215" height="215" viewBox="0,0,215,215"><g transform="translate(-132.5,-72.5)"><g data-paper-data="{&quot;isPaintingLayer&quot;:true}" fill-rule="nonzero" stroke="none" stroke-linejoin="miter" stroke-miterlimit="10" stroke-dasharray="" stroke-dashoffset="0" style="mix-blend-mode: normal"><path d="M232.7913,176.15299c0,-1.89391 0.67866,-3.48006 2.03596,-4.75845c1.3573,-1.29418 3.00659,-1.94126 4.94785,-1.94126c2.46208,0 4.31655,0.78913 5.56338,2.36739c1.24683,1.57826 1.87024,3.60633 1.87024,6.0842c0,3.61422 -1.01797,6.62869 -3.05392,9.04343c-2.03596,2.39895 -4.81369,3.59843 -8.33321,3.59843h-0.18938c-0.71022,0 -1.21525,-0.0947 -1.51513,-0.28409c-0.52083,-0.31565 -0.78123,-1.05744 -0.78123,-2.22535c0,-1.32574 0.35512,-2.09909 1.06533,-2.32004c0.31565,-0.11048 0.86015,-0.16571 1.6335,-0.16571c0.77335,0 1.52302,-0.13415 2.24903,-0.40245c0.726,-0.2683 1.28628,-0.58397 1.68086,-0.94696c0.80491,-0.77335 1.32574,-1.47568 1.56248,-2.10697l0.14205,-0.40245c-0.726,0.33143 -1.43622,0.49716 -2.13065,0.49716c-1.84656,0 -3.4327,-0.61552 -4.75845,-1.84656c-1.32574,-1.24683 -1.98861,-2.64358 -1.98861,-4.19028zM239.89346,174.09337c-1.45199,0 -2.178,0.63131 -2.178,1.89391c0,0.44192 0.15783,0.85226 0.47348,1.23105c0.33143,0.37879 0.86805,0.56817 1.60982,0.56817c0.74178,0 1.30207,-0.17361 1.68086,-0.52083c0.37879,-0.36299 0.56817,-0.71811 0.56817,-1.06532c0,-0.34723 -0.02366,-0.61552 -0.07102,-0.80491c-0.03156,-0.20518 -0.12625,-0.41824 -0.28409,-0.63919c-0.28409,-0.44192 -0.88382,-0.66287 -1.79922,-0.66287z" fill="#ffffff" stroke-width="1" stroke-linecap="square"/><path d="M132.5,287.5v-215h215v215z" fill="none" stroke-width="0" stroke-linecap="butt"/></g></g></svg>