<svg version="1.1" xmlns="http://www.w3.org/2000/svg" xmlns:xlink="http://www.w3.org/1999/xlink" width="19.68383" height="19.68383" viewBox="0,0,19.68383,19.68383"><defs><linearGradient x1="240.03634" y1="175.98936" x2="240.03634" y2="180.55804" gradientUnits="userSpaceOnUse" id="color-1"><stop offset="0" stop-color="#ffbf66"/><stop offset="1" stop-color="#ffd080"/></linearGradient></defs><g transform="translate(-230.15808,-170.15809)"><g data-paper-data="{&quot;isPaintingLayer&quot;:true}" fill-rule="nonzero" stroke="none" stroke-linecap="butt" stroke-linejoin="miter" stroke-miterlimit="10" stroke-dasharray="" stroke-dashoffset="0" style="mix-blend-mode: normal"><path d="M236.01135,183.11197c0,-0.90569 0,-5.86465 0,-5.86465l1.33808,-1.25302h5.39754l1.24525,1.41431c0,0 0,4.71747 0,5.59223c0,0.48661 -0.45071,1.00658 -0.98404,1.00658c-1.67422,0 -5.14253,0 -6.08653,0c-0.44661,0 -0.91029,-0.40885 -0.91029,-0.89545z" data-paper-data="{&quot;index&quot;:null}" fill="#ffbe4d" stroke-width="0"/><path d="M230.15808,189.84192v-19.68383h19.68383v19.68383z" data-paper-data="{&quot;index&quot;:null}" fill="none" stroke-width="0"/><path d="M236.00774,176.98923c0,-0.53019 0.42981,-0.96 0.96,-0.96c0.53019,0 6.31484,1.92774 6.31484,1.92774c0,0 -5.78465,-0.00774 -6.31484,-0.00774c-0.53019,0 -0.96,-0.4298 -0.96,-0.96z" fill="#ffe3b3" stroke-width="0.5"/><path d="M237.03999,175.98925c0,0 5.52658,0.00774 6.05678,0.00774c0.53019,0 0.96,0.42981 0.96,0.96c0,0.53019 -0.4298,0.96 -0.96,0.96c-0.5302,0 -6.05678,-1.92774 -6.05678,-1.92774z" fill="#ffe3b3" stroke-width="0.5"/><path d="M243.42028,180.55804c-0.89298,0 -4.94364,0 -6.60286,0c-0.42345,0 -0.80377,-0.39477 -0.80377,-0.65709c0,-0.44195 0,-2.94395 0,-2.94395h8.04538c0,0 0,2.45885 0,2.94395c0,0.31071 -0.30958,0.65709 -0.63874,0.65709z" data-paper-data="{&quot;index&quot;:null}" fill="url(#color-1)" stroke-width="0"/></g></g></svg>