<svg version="1.1" xmlns="http://www.w3.org/2000/svg" xmlns:xlink="http://www.w3.org/1999/xlink" width="52.5" height="52.5" viewBox="0,0,52.5,52.5"><g transform="translate(-292.62262,-99.8471)"><g data-paper-data="{&quot;isPaintingLayer&quot;:true}" fill-rule="nonzero" stroke-linecap="butt" stroke-linejoin="miter" stroke-miterlimit="10" stroke-dasharray="" stroke-dashoffset="0" style="mix-blend-mode: normal"><path d="M293.87262,126.0971c0,-13.80712 11.19288,-25 25,-25c13.80712,0 25,11.19288 25,25c0,13.80712 -11.19288,25 -25,25c-13.80712,0 -25,-11.19288 -25,-25z" fill="#ffaf4d" stroke="#ffffff" stroke-width="2.5"/><path d="M299.82108,126.34501c0,-6.40937 2.98065,-12.12256 7.63143,-15.82907c0.84551,-0.67384 1.38944,2.73357 2.4765,2.77242c16.40534,1.37522 9.64623,-2.75004 13.24435,-2.75004c11.1727,0 17.10765,4.63399 17.10765,15.80669c0,11.1727 -2.55245,18.27852 -13.72515,18.27852c-1.9187,0 -5.8725,-3.432 -8.35215,-4.08054c-1.81236,-0.47402 -2.15718,1.89897 -3.72426,1.42582c-2.61771,-0.79036 -3.98531,-0.88585 -6.18598,-2.23259c-5.1754,-3.16718 -8.47238,-7.88213 -8.47238,-13.39121z" fill="#ffedb8" stroke="none" stroke-width="0"/><path d="M315.36341,125.44586c0,1.92683 -0.86778,3.48884 -1.93824,3.48884c-1.07046,0 -1.93824,-1.56201 -1.93824,-3.48884c0,-0.89053 0.44435,-3.93189 1.28182,-3.62127c2.92963,1.08662 2.59466,2.58496 2.59466,3.62127z" fill="#693a00" stroke="none" stroke-width="0"/><path d="M331.65583,122.40589c0.83747,-0.31062 1.28182,2.73074 1.28182,3.62127c0,1.92683 -0.86778,3.48884 -1.93824,3.48884c-1.07046,0 -1.93824,-1.56201 -1.93824,-3.48884c0,-1.03631 -0.33497,-2.53465 2.59466,-3.62127z" data-paper-data="{&quot;index&quot;:null}" fill="#693a00" stroke="none" stroke-width="0"/><path d="M326.86044,128.79097c0,0.64539 -1.74766,1.66062 -3.75177,1.66062c-2.00411,0 -3.62876,-1.50726 -3.62876,-2.15265c0,-0.64539 1.62465,-0.18451 3.62876,-0.18451c2.00411,0 3.75177,0.03116 3.75177,0.67655z" fill="#b46300" stroke="none" stroke-width="0"/></g></g></svg>