<svg version="1.1" xmlns="http://www.w3.org/2000/svg" xmlns:xlink="http://www.w3.org/1999/xlink" width="216.9227" height="18.8125" viewBox="0,0,216.9227,18.8125"><g transform="translate(95.69168,-253.85107)"><g data-paper-data="{&quot;isPaintingLayer&quot;:true}" fill="#ffffff" fill-rule="nonzero" stroke="none" stroke-width="1" stroke-linecap="square" stroke-linejoin="miter" stroke-miterlimit="10" stroke-dasharray="" stroke-dashoffset="0" style="mix-blend-mode: normal"><path d="M-91.22293,268.6167c-0.86458,0 -1.63542,-0.1875 -2.3125,-0.5625c-0.67708,-0.38542 -1.20833,-0.91667 -1.59375,-1.59375c-0.375,-0.67708 -0.5625,-1.45312 -0.5625,-2.32812c0,-0.28125 0.09375,-0.51042 0.28125,-0.6875c0.1875,-0.1875 0.41667,-0.28125 0.6875,-0.28125c0.28125,0 0.51042,0.09375 0.6875,0.28125c0.1875,0.17708 0.28125,0.40625 0.28125,0.6875c0,0.54167 0.10938,1.02083 0.32813,1.4375c0.21875,0.40625 0.51563,0.72396 0.89063,0.95313c0.38542,0.22917 0.82292,0.34375 1.3125,0.34375c0.5,0 0.94271,-0.11458 1.32813,-0.34375c0.38542,-0.22917 0.6875,-0.54687 0.90625,-0.95312c0.21875,-0.41667 0.32813,-0.89583 0.32813,-1.4375v-9.29687c0,-0.29167 0.08854,-0.52604 0.26563,-0.70312c0.17708,-0.1875 0.40625,-0.28125 0.6875,-0.28125c0.28125,0 0.51563,0.09375 0.70313,0.28125c0.1875,0.17708 0.28125,0.41146 0.28125,0.70313v9.29688c0,0.875 -0.19271,1.65104 -0.57812,2.32813c-0.38542,0.67708 -0.91667,1.20833 -1.59375,1.59375c-0.66667,0.375 -1.44271,0.5625 -2.32812,0.5625zM-78.54411,268.50732c-1.01042,0 -1.90104,-0.21875 -2.67187,-0.65625c-0.77083,-0.44792 -1.38021,-1.05729 -1.82812,-1.82812c-0.4375,-0.78125 -0.65625,-1.67708 -0.65625,-2.6875c0,-1.02083 0.21875,-1.91667 0.65625,-2.6875c0.44792,-0.78125 1.05729,-1.39062 1.82813,-1.82812c0.77083,-0.44792 1.66146,-0.67187 2.67188,-0.67187c0.98958,0 1.86979,0.22396 2.64063,0.67188c0.77083,0.4375 1.375,1.04688 1.8125,1.82813c0.44792,0.77083 0.67188,1.66667 0.67188,2.6875c0,1.01042 -0.21875,1.90625 -0.65625,2.6875c-0.4375,0.77083 -1.04167,1.38021 -1.8125,1.82813c-0.77083,0.4375 -1.65625,0.65625 -2.65625,0.65625zM-78.54411,266.81982c0.64583,0 1.21354,-0.14583 1.70313,-0.4375c0.5,-0.30208 0.89063,-0.71354 1.17188,-1.23437c0.28125,-0.52083 0.42188,-1.125 0.42188,-1.8125c0,-0.6875 -0.14062,-1.29167 -0.42187,-1.8125c-0.28125,-0.53125 -0.67187,-0.94271 -1.17187,-1.23437c-0.48958,-0.30208 -1.05729,-0.45312 -1.70312,-0.45312c-0.65625,0 -1.23437,0.15104 -1.73437,0.45313c-0.48958,0.29167 -0.88021,0.70313 -1.17187,1.23438c-0.28125,0.52083 -0.42187,1.125 -0.42187,1.8125c0,0.6875 0.14063,1.29167 0.42188,1.8125c0.29167,0.52083 0.68229,0.93229 1.17188,1.23438c0.5,0.29167 1.07813,0.4375 1.73438,0.4375zM-69.45114,268.4292c-0.27083,0 -0.5,-0.08854 -0.6875,-0.26562c-0.17708,-0.1875 -0.26562,-0.41667 -0.26562,-0.6875v-8.29687c0,-0.29167 0.08854,-0.52083 0.26563,-0.6875c0.1875,-0.17708 0.41667,-0.26562 0.6875,-0.26562c0.29167,0 0.52083,0.08854 0.6875,0.26563c0.17708,0.16667 0.26563,0.39583 0.26563,0.6875v8.29688c0,0.27083 -0.08854,0.5 -0.26562,0.6875c-0.16667,0.17708 -0.39583,0.26563 -0.6875,0.26563zM-69.27926,256.56982c-0.33333,0 -0.625,-0.11979 -0.875,-0.35937c-0.23958,-0.25 -0.35937,-0.54167 -0.35937,-0.875c0,-0.33333 0.11979,-0.61979 0.35938,-0.85937c0.25,-0.25 0.54167,-0.375 0.875,-0.375c0.33333,0 0.61979,0.125 0.85938,0.375c0.25,0.23958 0.375,0.52604 0.375,0.85938c0,0.33333 -0.125,0.625 -0.375,0.875c-0.23958,0.23958 -0.52604,0.35938 -0.85937,0.35938zM-56.33258,268.44482c-0.27083,0 -0.5,-0.08854 -0.6875,-0.26562c-0.17708,-0.17708 -0.26562,-0.40625 -0.26562,-0.6875v-4.57812c0,-0.70833 -0.13021,-1.28646 -0.39062,-1.73437c-0.26042,-0.44792 -0.61458,-0.78125 -1.0625,-1c-0.4375,-0.21875 -0.94271,-0.32812 -1.51562,-0.32812c-0.52083,0 -0.99479,0.10417 -1.42187,0.3125c-0.41667,0.20833 -0.75,0.48958 -1,0.84375c-0.25,0.35417 -0.375,0.76563 -0.375,1.23438h-1.17187c0,-0.79167 0.1875,-1.49479 0.5625,-2.10937c0.38542,-0.61458 0.90625,-1.09896 1.5625,-1.45312c0.65625,-0.36458 1.39583,-0.54687 2.21875,-0.54687c0.86458,0 1.63542,0.18229 2.3125,0.54688c0.67708,0.36458 1.20833,0.90104 1.59375,1.60938c0.39583,0.70833 0.59375,1.58333 0.59375,2.625v4.57813c0,0.28125 -0.09375,0.51042 -0.28125,0.6875c-0.17708,0.17708 -0.40104,0.26563 -0.67187,0.26563zM-64.00445,268.44482c-0.27083,0 -0.5,-0.08854 -0.6875,-0.26562c-0.17708,-0.17708 -0.26562,-0.40625 -0.26562,-0.6875v-8.3125c0,-0.29167 0.08854,-0.52083 0.26563,-0.6875c0.1875,-0.17708 0.41667,-0.26562 0.6875,-0.26562c0.29167,0 0.52083,0.08854 0.6875,0.26563c0.17708,0.16667 0.26563,0.39583 0.26563,0.6875v8.3125c0,0.28125 -0.08854,0.51042 -0.26562,0.6875c-0.16667,0.17708 -0.39583,0.26563 -0.6875,0.26563zM-51.09338,268.4292c-0.27083,0 -0.5,-0.08854 -0.6875,-0.26562c-0.17708,-0.1875 -0.26562,-0.41667 -0.26562,-0.6875v-8.29687c0,-0.29167 0.08854,-0.52083 0.26563,-0.6875c0.1875,-0.17708 0.41667,-0.26562 0.6875,-0.26562c0.29167,0 0.52083,0.08854 0.6875,0.26563c0.17708,0.16667 0.26563,0.39583 0.26563,0.6875v8.29688c0,0.27083 -0.08854,0.5 -0.26562,0.6875c-0.16667,0.17708 -0.39583,0.26563 -0.6875,0.26563zM-50.92151,256.56982c-0.33333,0 -0.625,-0.11979 -0.875,-0.35937c-0.23958,-0.25 -0.35937,-0.54167 -0.35937,-0.875c0,-0.33333 0.11979,-0.61979 0.35938,-0.85937c0.25,-0.25 0.54167,-0.375 0.875,-0.375c0.33333,0 0.61979,0.125 0.85938,0.375c0.25,0.23958 0.375,0.52604 0.375,0.85938c0,0.33333 -0.125,0.625 -0.375,0.875c-0.23958,0.23958 -0.52604,0.35938 -0.85937,0.35938zM-37.97482,268.44482c-0.27083,0 -0.5,-0.08854 -0.6875,-0.26562c-0.17708,-0.17708 -0.26562,-0.40625 -0.26562,-0.6875v-4.57812c0,-0.70833 -0.13021,-1.28646 -0.39062,-1.73437c-0.26042,-0.44792 -0.61458,-0.78125 -1.0625,-1c-0.4375,-0.21875 -0.94271,-0.32812 -1.51562,-0.32812c-0.52083,0 -0.99479,0.10417 -1.42187,0.3125c-0.41667,0.20833 -0.75,0.48958 -1,0.84375c-0.25,0.35417 -0.375,0.76563 -0.375,1.23438h-1.17187c0,-0.79167 0.1875,-1.49479 0.5625,-2.10937c0.38542,-0.61458 0.90625,-1.09896 1.5625,-1.45312c0.65625,-0.36458 1.39583,-0.54687 2.21875,-0.54687c0.86458,0 1.63542,0.18229 2.3125,0.54688c0.67708,0.36458 1.20833,0.90104 1.59375,1.60938c0.39583,0.70833 0.59375,1.58333 0.59375,2.625v4.57813c0,0.28125 -0.09375,0.51042 -0.28125,0.6875c-0.17708,0.17708 -0.40104,0.26563 -0.67187,0.26563zM-45.6467,268.44482c-0.27083,0 -0.5,-0.08854 -0.6875,-0.26562c-0.17708,-0.17708 -0.26562,-0.40625 -0.26562,-0.6875v-8.3125c0,-0.29167 0.08854,-0.52083 0.26563,-0.6875c0.1875,-0.17708 0.41667,-0.26562 0.6875,-0.26562c0.29167,0 0.52083,0.08854 0.6875,0.26563c0.17708,0.16667 0.26563,0.39583 0.26563,0.6875v8.3125c0,0.28125 -0.08854,0.51042 -0.26562,0.6875c-0.16667,0.17708 -0.39583,0.26563 -0.6875,0.26563zM-29.61062,268.50732c-0.9375,0 -1.76562,-0.21875 -2.48437,-0.65625c-0.70833,-0.44792 -1.27083,-1.05729 -1.6875,-1.82812c-0.40625,-0.78125 -0.60937,-1.67708 -0.60937,-2.6875c0,-1.02083 0.21875,-1.91667 0.65625,-2.6875c0.44792,-0.78125 1.05729,-1.39062 1.82813,-1.82812c0.77083,-0.44792 1.66146,-0.67187 2.67188,-0.67187c0.98958,0 1.86979,0.22396 2.64063,0.67188c0.77083,0.4375 1.375,1.04688 1.8125,1.82813c0.44792,0.77083 0.67188,1.66667 0.67188,2.6875h-1.10937c0,1.01042 -0.1875,1.90625 -0.5625,2.6875c-0.375,0.77083 -0.89583,1.38021 -1.5625,1.82813c-0.65625,0.4375 -1.41146,0.65625 -2.26562,0.65625zM-29.2825,272.66357c-0.88542,0 -1.71354,-0.17708 -2.48437,-0.53125c-0.77083,-0.34375 -1.42187,-0.84896 -1.95312,-1.51562c-0.16667,-0.21875 -0.22917,-0.44271 -0.1875,-0.67187c0.05208,-0.21875 0.17708,-0.39583 0.375,-0.53125c0.21875,-0.14583 0.44792,-0.19271 0.6875,-0.14062c0.25,0.05208 0.44792,0.17708 0.59375,0.375c0.34375,0.41667 0.76563,0.74479 1.26563,0.98438c0.51042,0.23958 1.09375,0.35938 1.75,0.35938c0.59375,0 1.14063,-0.14583 1.64063,-0.4375c0.51042,-0.28125 0.91146,-0.70312 1.20313,-1.26562c0.30208,-0.5625 0.45313,-1.24479 0.45313,-2.04687v-2.65625l0.60938,-1.64062l1.21875,0.39063v4.03125c0,0.97917 -0.21875,1.86979 -0.65625,2.67188c-0.4375,0.80208 -1.04687,1.4375 -1.82812,1.90625c-0.77083,0.47917 -1.66667,0.71875 -2.6875,0.71875zM-29.23562,266.81982c0.64583,0 1.21354,-0.14583 1.70313,-0.4375c0.5,-0.30208 0.89063,-0.71354 1.17188,-1.23437c0.28125,-0.52083 0.42188,-1.125 0.42188,-1.8125c0,-0.6875 -0.14062,-1.29167 -0.42187,-1.8125c-0.28125,-0.53125 -0.67187,-0.94271 -1.17187,-1.23437c-0.48958,-0.30208 -1.05729,-0.45312 -1.70312,-0.45312c-0.65625,0 -1.23437,0.15104 -1.73437,0.45313c-0.48958,0.29167 -0.88021,0.70313 -1.17187,1.23438c-0.28125,0.52083 -0.42187,1.125 -0.42187,1.8125c0,0.6875 0.14063,1.29167 0.42188,1.8125c0.29167,0.52083 0.68229,0.93229 1.17188,1.23438c0.5,0.29167 1.07813,0.4375 1.73438,0.4375zM-13.45762,268.4292c-0.19792,0 -0.38021,-0.05729 -0.54687,-0.17187c-0.16667,-0.125 -0.28125,-0.27083 -0.34375,-0.4375l-2.76562,-8.29687c-0.10417,-0.38542 -0.10417,-0.69792 0,-0.9375c0.11458,-0.23958 0.34896,-0.35937 0.70313,-0.35937c0.23958,0 0.4375,0.06771 0.59375,0.20313c0.15625,0.125 0.28125,0.34375 0.375,0.65625l2.35938,7.34375h-0.65625l2.21875,-7.5c0.0625,-0.20833 0.16667,-0.375 0.3125,-0.5c0.15625,-0.13542 0.36458,-0.20312 0.625,-0.20312c0.25,0 0.45313,0.06771 0.60938,0.20313c0.15625,0.125 0.25521,0.29167 0.29688,0.5l1.8125,7.0625h-0.28125l2.20313,-6.90625c0.17708,-0.57292 0.5,-0.85937 0.96875,-0.85937c0.35417,0 0.58854,0.11979 0.70313,0.35938c0.125,0.23958 0.11979,0.55208 -0.01562,0.9375l-2.75,8.29688c-0.05208,0.16667 -0.16146,0.3125 -0.32812,0.4375c-0.15625,0.11458 -0.33854,0.17188 -0.54687,0.17188c-0.20833,0 -0.40104,-0.05729 -0.57812,-0.17187c-0.16667,-0.125 -0.27604,-0.27083 -0.32812,-0.4375l-1.92187,-7.10937h0.1875l-2.01562,7.10938c-0.05208,0.16667 -0.16146,0.3125 -0.32812,0.4375c-0.16667,0.11458 -0.35417,0.17188 -0.5625,0.17188zM1.65705,268.50732c-0.90625,0 -1.72396,-0.22396 -2.45312,-0.67187c-0.71875,-0.45833 -1.28646,-1.07812 -1.70312,-1.85937c-0.41667,-0.78125 -0.625,-1.66146 -0.625,-2.64062c0,-0.97917 0.22396,-1.85937 0.67188,-2.64062c0.45833,-0.79167 1.07292,-1.41146 1.84375,-1.85937c0.78125,-0.45833 1.66146,-0.6875 2.64063,-0.6875c0.96875,0 1.83854,0.22917 2.60938,0.6875c0.77083,0.44792 1.38021,1.06771 1.82813,1.85938c0.45833,0.78125 0.6875,1.66146 0.6875,2.64063h-0.73437c0,0.97917 -0.20833,1.85938 -0.625,2.64063c-0.41667,0.78125 -0.98437,1.40104 -1.70312,1.85938c-0.71875,0.44792 -1.53125,0.67188 -2.4375,0.67188zM2.03205,266.81982c0.625,0 1.1875,-0.15104 1.6875,-0.45312c0.5,-0.30208 0.89063,-0.71875 1.17188,-1.25c0.29167,-0.53125 0.4375,-1.125 0.4375,-1.78125c0,-0.66667 -0.14583,-1.26562 -0.4375,-1.79687c-0.28125,-0.53125 -0.67187,-0.94792 -1.17187,-1.25c-0.5,-0.30208 -1.0625,-0.45312 -1.6875,-0.45312c-0.625,0 -1.19271,0.15104 -1.70312,0.45313c-0.5,0.30208 -0.89583,0.71875 -1.1875,1.25c-0.29167,0.53125 -0.4375,1.13021 -0.4375,1.79688c0,0.65625 0.14583,1.25 0.4375,1.78125c0.29167,0.53125 0.6875,0.94792 1.1875,1.25c0.51042,0.30208 1.07813,0.45313 1.70313,0.45313zM6.20392,268.44482c-0.27083,0 -0.5,-0.08854 -0.6875,-0.26562c-0.17708,-0.17708 -0.26562,-0.40625 -0.26562,-0.6875v-2.84375l0.35938,-1.98437l1.54688,0.67188v4.15625c0,0.28125 -0.09375,0.51042 -0.28125,0.6875c-0.17708,0.17708 -0.40104,0.26563 -0.67187,0.26563zM11.12502,268.4292c-0.27083,0 -0.5,-0.08854 -0.6875,-0.26562c-0.17708,-0.1875 -0.26562,-0.41667 -0.26562,-0.6875v-8.29687c0,-0.29167 0.08854,-0.52083 0.26563,-0.6875c0.1875,-0.17708 0.41667,-0.26562 0.6875,-0.26562c0.29167,0 0.52083,0.08854 0.6875,0.26563c0.17708,0.16667 0.26563,0.39583 0.26563,0.6875v8.29688c0,0.27083 -0.08854,0.5 -0.26562,0.6875c-0.16667,0.17708 -0.39583,0.26563 -0.6875,0.26563zM11.29689,256.56982c-0.33333,0 -0.625,-0.11979 -0.875,-0.35937c-0.23958,-0.25 -0.35937,-0.54167 -0.35937,-0.875c0,-0.33333 0.11979,-0.61979 0.35938,-0.85937c0.25,-0.25 0.54167,-0.375 0.875,-0.375c0.33333,0 0.61979,0.125 0.85938,0.375c0.25,0.23958 0.375,0.52604 0.375,0.85938c0,0.33333 -0.125,0.625 -0.375,0.875c-0.23958,0.23958 -0.52604,0.35938 -0.85937,0.35938zM19.33731,268.4292c-0.625,0 -1.1875,-0.15625 -1.6875,-0.46875c-0.48958,-0.32292 -0.88021,-0.75521 -1.17187,-1.29687c-0.28125,-0.55208 -0.42187,-1.17187 -0.42187,-1.85937v-8.89062c0,-0.27083 0.08333,-0.49479 0.25,-0.67187c0.17708,-0.17708 0.40625,-0.26562 0.6875,-0.26562c0.27083,0 0.48958,0.08854 0.65625,0.26563c0.17708,0.17708 0.26563,0.40104 0.26563,0.67188v8.89063c0,0.5 0.13542,0.92188 0.40625,1.26563c0.28125,0.33333 0.61979,0.5 1.01563,0.5h0.64063c0.21875,0 0.40625,0.08854 0.5625,0.26563c0.15625,0.16667 0.23438,0.38542 0.23438,0.65625c0,0.28125 -0.10417,0.51042 -0.3125,0.6875c-0.19792,0.16667 -0.45833,0.25 -0.78125,0.25zM15.1967,260.19482c-0.26042,0 -0.47396,-0.07292 -0.64062,-0.21875c-0.15625,-0.14583 -0.23437,-0.33333 -0.23437,-0.5625c0,-0.25 0.07813,-0.44792 0.23438,-0.59375c0.16667,-0.14583 0.38021,-0.21875 0.64063,-0.21875h4.31248c0.26042,0 0.46875,0.07292 0.625,0.21875c0.16667,0.14583 0.25,0.34375 0.25,0.59375c0,0.22917 -0.08333,0.41667 -0.25,0.5625c-0.15625,0.14583 -0.36458,0.21875 -0.625,0.21875zM24.24036,268.4292c-0.27083,0 -0.5,-0.08854 -0.6875,-0.26562c-0.17708,-0.1875 -0.26562,-0.41667 -0.26562,-0.6875v-8.29687c0,-0.29167 0.08854,-0.52083 0.26563,-0.6875c0.1875,-0.17708 0.41667,-0.26562 0.6875,-0.26562c0.29167,0 0.52083,0.08854 0.6875,0.26563c0.17708,0.16667 0.26563,0.39583 0.26563,0.6875v8.29688c0,0.27083 -0.08854,0.5 -0.26562,0.6875c-0.16667,0.17708 -0.39583,0.26563 -0.6875,0.26563zM24.41223,256.56982c-0.33333,0 -0.625,-0.11979 -0.875,-0.35937c-0.23958,-0.25 -0.35937,-0.54167 -0.35937,-0.875c0,-0.33333 0.11979,-0.61979 0.35938,-0.85937c0.25,-0.25 0.54167,-0.375 0.875,-0.375c0.33333,0 0.61979,0.125 0.85938,0.375c0.25,0.23958 0.375,0.52604 0.375,0.85938c0,0.33333 -0.125,0.625 -0.375,0.875c-0.23958,0.23958 -0.52604,0.35938 -0.85937,0.35938zM37.35892,268.44482c-0.27083,0 -0.5,-0.08854 -0.6875,-0.26562c-0.17708,-0.17708 -0.26562,-0.40625 -0.26562,-0.6875v-4.57812c0,-0.70833 -0.13021,-1.28646 -0.39062,-1.73437c-0.26042,-0.44792 -0.61458,-0.78125 -1.0625,-1c-0.4375,-0.21875 -0.94271,-0.32812 -1.51562,-0.32812c-0.52083,0 -0.99479,0.10417 -1.42187,0.3125c-0.41667,0.20833 -0.75,0.48958 -1,0.84375c-0.25,0.35417 -0.375,0.76563 -0.375,1.23438h-1.17187c0,-0.79167 0.1875,-1.49479 0.5625,-2.10937c0.38542,-0.61458 0.90625,-1.09896 1.5625,-1.45312c0.65625,-0.36458 1.39583,-0.54687 2.21875,-0.54687c0.86458,0 1.63542,0.18229 2.3125,0.54688c0.67708,0.36458 1.20833,0.90104 1.59375,1.60938c0.39583,0.70833 0.59375,1.58333 0.59375,2.625v4.57813c0,0.28125 -0.09375,0.51042 -0.28125,0.6875c-0.17708,0.17708 -0.40104,0.26563 -0.67187,0.26563zM29.68705,268.44482c-0.27083,0 -0.5,-0.08854 -0.6875,-0.26562c-0.17708,-0.17708 -0.26562,-0.40625 -0.26562,-0.6875v-8.3125c0,-0.29167 0.08854,-0.52083 0.26563,-0.6875c0.1875,-0.17708 0.41667,-0.26562 0.6875,-0.26562c0.29167,0 0.52083,0.08854 0.6875,0.26563c0.17708,0.16667 0.26563,0.39583 0.26563,0.6875v8.3125c0,0.28125 -0.08854,0.51042 -0.26562,0.6875c-0.16667,0.17708 -0.39583,0.26563 -0.6875,0.26563zM45.72312,268.50732c-0.9375,0 -1.76562,-0.21875 -2.48437,-0.65625c-0.70833,-0.44792 -1.27083,-1.05729 -1.6875,-1.82812c-0.40625,-0.78125 -0.60937,-1.67708 -0.60937,-2.6875c0,-1.02083 0.21875,-1.91667 0.65625,-2.6875c0.44792,-0.78125 1.05729,-1.39062 1.82813,-1.82812c0.77083,-0.44792 1.66146,-0.67187 2.67188,-0.67187c0.98958,0 1.86979,0.22396 2.64063,0.67188c0.77083,0.4375 1.375,1.04688 1.8125,1.82813c0.44792,0.77083 0.67188,1.66667 0.67188,2.6875h-1.10937c0,1.01042 -0.1875,1.90625 -0.5625,2.6875c-0.375,0.77083 -0.89583,1.38021 -1.5625,1.82813c-0.65625,0.4375 -1.41146,0.65625 -2.26562,0.65625zM46.05124,272.66357c-0.88542,0 -1.71354,-0.17708 -2.48437,-0.53125c-0.77083,-0.34375 -1.42187,-0.84896 -1.95312,-1.51562c-0.16667,-0.21875 -0.22917,-0.44271 -0.1875,-0.67187c0.05208,-0.21875 0.17708,-0.39583 0.375,-0.53125c0.21875,-0.14583 0.44792,-0.19271 0.6875,-0.14062c0.25,0.05208 0.44792,0.17708 0.59375,0.375c0.34375,0.41667 0.76563,0.74479 1.26563,0.98438c0.51042,0.23958 1.09375,0.35938 1.75,0.35938c0.59375,0 1.14063,-0.14583 1.64063,-0.4375c0.51042,-0.28125 0.91146,-0.70312 1.20313,-1.26562c0.30208,-0.5625 0.45313,-1.24479 0.45313,-2.04687v-2.65625l0.60938,-1.64062l1.21875,0.39063v4.03125c0,0.97917 -0.21875,1.86979 -0.65625,2.67188c-0.4375,0.80208 -1.04687,1.4375 -1.82812,1.90625c-0.77083,0.47917 -1.66667,0.71875 -2.6875,0.71875zM46.09812,266.81982c0.64583,0 1.21354,-0.14583 1.70313,-0.4375c0.5,-0.30208 0.89063,-0.71354 1.17188,-1.23437c0.28125,-0.52083 0.42188,-1.125 0.42188,-1.8125c0,-0.6875 -0.14062,-1.29167 -0.42187,-1.8125c-0.28125,-0.53125 -0.67187,-0.94271 -1.17187,-1.23437c-0.48958,-0.30208 -1.05729,-0.45312 -1.70312,-0.45312c-0.65625,0 -1.23437,0.15104 -1.73437,0.45313c-0.48958,0.29167 -0.88021,0.70313 -1.17187,1.23438c-0.28125,0.52083 -0.42187,1.125 -0.42187,1.8125c0,0.6875 0.14063,1.29167 0.42188,1.8125c0.29167,0.52083 0.68229,0.93229 1.17188,1.23438c0.5,0.29167 1.07813,0.4375 1.73438,0.4375zM60.4386,262.0542c0,-0.75 0.18229,-1.41667 0.54688,-2c0.36458,-0.59375 0.85938,-1.0625 1.48438,-1.40625c0.625,-0.35417 1.30729,-0.53125 2.04688,-0.53125c0.75,0 1.30729,0.11979 1.67188,0.35938c0.375,0.23958 0.51563,0.53125 0.42188,0.875c-0.03125,0.16667 -0.10417,0.29688 -0.21875,0.39063c-0.10417,0.09375 -0.22396,0.15625 -0.35937,0.1875c-0.13542,0.02083 -0.28125,0.01042 -0.4375,-0.03125c-0.80208,-0.15625 -1.52083,-0.16667 -2.15625,-0.03125c-0.63542,0.13542 -1.13542,0.39063 -1.5,0.76563c-0.36458,0.375 -0.54687,0.84896 -0.54687,1.42188zM60.45423,268.4292c-0.29167,0 -0.52083,-0.07812 -0.6875,-0.23437c-0.16667,-0.15625 -0.25,-0.39062 -0.25,-0.70312v-8.32812c0,-0.30208 0.08333,-0.53125 0.25,-0.6875c0.16667,-0.16667 0.39583,-0.25 0.6875,-0.25c0.3125,0 0.54688,0.07813 0.70313,0.23438c0.15625,0.15625 0.23438,0.39063 0.23438,0.70313v8.32813c0,0.30208 -0.07812,0.53646 -0.23437,0.70313c-0.15625,0.15625 -0.39062,0.23438 -0.70312,0.23438zM72.47763,268.50732c-1.01042,0 -1.90104,-0.21875 -2.67187,-0.65625c-0.77083,-0.44792 -1.38021,-1.05729 -1.82812,-1.82812c-0.4375,-0.78125 -0.65625,-1.67708 -0.65625,-2.6875c0,-1.02083 0.21875,-1.91667 0.65625,-2.6875c0.44792,-0.78125 1.05729,-1.39062 1.82813,-1.82812c0.77083,-0.44792 1.66146,-0.67187 2.67188,-0.67187c0.98958,0 1.86979,0.22396 2.64063,0.67188c0.77083,0.4375 1.375,1.04688 1.8125,1.82813c0.44792,0.77083 0.67188,1.66667 0.67188,2.6875c0,1.01042 -0.21875,1.90625 -0.65625,2.6875c-0.4375,0.77083 -1.04167,1.38021 -1.8125,1.82813c-0.77083,0.4375 -1.65625,0.65625 -2.65625,0.65625zM72.47763,266.81982c0.64583,0 1.21354,-0.14583 1.70313,-0.4375c0.5,-0.30208 0.89063,-0.71354 1.17188,-1.23437c0.28125,-0.52083 0.42188,-1.125 0.42188,-1.8125c0,-0.6875 -0.14062,-1.29167 -0.42187,-1.8125c-0.28125,-0.53125 -0.67187,-0.94271 -1.17187,-1.23437c-0.48958,-0.30208 -1.05729,-0.45312 -1.70312,-0.45312c-0.65625,0 -1.23437,0.15104 -1.73437,0.45313c-0.48958,0.29167 -0.88021,0.70313 -1.17187,1.23438c-0.28125,0.52083 -0.42187,1.125 -0.42187,1.8125c0,0.6875 0.14063,1.29167 0.42188,1.8125c0.29167,0.52083 0.68229,0.93229 1.17188,1.23438c0.5,0.29167 1.07813,0.4375 1.73438,0.4375zM85.07059,268.50732c-1.01042,0 -1.90104,-0.21875 -2.67187,-0.65625c-0.77083,-0.44792 -1.38021,-1.05729 -1.82812,-1.82812c-0.4375,-0.78125 -0.65625,-1.67708 -0.65625,-2.6875c0,-1.02083 0.21875,-1.91667 0.65625,-2.6875c0.44792,-0.78125 1.05729,-1.39062 1.82813,-1.82812c0.77083,-0.44792 1.66146,-0.67187 2.67188,-0.67187c0.98958,0 1.86979,0.22396 2.64063,0.67188c0.77083,0.4375 1.375,1.04688 1.8125,1.82813c0.44792,0.77083 0.67188,1.66667 0.67188,2.6875c0,1.01042 -0.21875,1.90625 -0.65625,2.6875c-0.4375,0.77083 -1.04167,1.38021 -1.8125,1.82813c-0.77083,0.4375 -1.65625,0.65625 -2.65625,0.65625zM85.07059,266.81982c0.64583,0 1.21354,-0.14583 1.70313,-0.4375c0.5,-0.30208 0.89063,-0.71354 1.17188,-1.23437c0.28125,-0.52083 0.42188,-1.125 0.42188,-1.8125c0,-0.6875 -0.14062,-1.29167 -0.42187,-1.8125c-0.28125,-0.53125 -0.67187,-0.94271 -1.17187,-1.23437c-0.48958,-0.30208 -1.05729,-0.45312 -1.70312,-0.45312c-0.65625,0 -1.23437,0.15104 -1.73437,0.45313c-0.48958,0.29167 -0.88021,0.70313 -1.17187,1.23438c-0.28125,0.52083 -0.42187,1.125 -0.42187,1.8125c0,0.6875 0.14063,1.29167 0.42188,1.8125c0.29167,0.52083 0.68229,0.93229 1.17188,1.23438c0.5,0.29167 1.07813,0.4375 1.73438,0.4375zM106.4292,268.44482c-0.28125,0 -0.51042,-0.08854 -0.6875,-0.26562c-0.17708,-0.17708 -0.26562,-0.40625 -0.26562,-0.6875v-5.32812c0,-0.78125 -0.19271,-1.35937 -0.57812,-1.73437c-0.38542,-0.38542 -0.89062,-0.57812 -1.51562,-0.57812c-0.64583,0 -1.17708,0.22396 -1.59375,0.67188c-0.41667,0.44792 -0.625,1.02083 -0.625,1.71875h-1.54687c0,-0.8125 0.17188,-1.52604 0.51563,-2.14062c0.35417,-0.61458 0.84375,-1.09375 1.46875,-1.4375c0.625,-0.35417 1.34375,-0.53125 2.15625,-0.53125c0.70833,0 1.33333,0.15625 1.875,0.46875c0.55208,0.3125 0.97917,0.77083 1.28125,1.375c0.3125,0.59375 0.46875,1.32292 0.46875,2.1875v5.32813c0,0.28125 -0.08854,0.51042 -0.26562,0.6875c-0.17708,0.17708 -0.40625,0.26563 -0.6875,0.26563zM93.97608,268.44482c-0.27083,0 -0.5,-0.08854 -0.6875,-0.26562c-0.17708,-0.17708 -0.26562,-0.40625 -0.26562,-0.6875v-8.29687c0,-0.28125 0.08854,-0.51042 0.26563,-0.6875c0.1875,-0.17708 0.41667,-0.26562 0.6875,-0.26562c0.29167,0 0.52083,0.08854 0.6875,0.26563c0.17708,0.17708 0.26563,0.40625 0.26563,0.6875v8.29688c0,0.28125 -0.08854,0.51042 -0.26562,0.6875c-0.16667,0.17708 -0.39583,0.26563 -0.6875,0.26563zM100.21045,268.44482c-0.27083,0 -0.5,-0.08854 -0.6875,-0.26562c-0.17708,-0.17708 -0.26562,-0.40625 -0.26562,-0.6875v-5.32812c0,-0.78125 -0.19271,-1.35937 -0.57812,-1.73437c-0.38542,-0.38542 -0.88542,-0.57812 -1.5,-0.57812c-0.65625,0 -1.19792,0.22396 -1.625,0.67188c-0.41667,0.44792 -0.625,1.02083 -0.625,1.71875h-1.17187c0,-0.8125 0.16146,-1.52604 0.48438,-2.14062c0.32292,-0.61458 0.77083,-1.09375 1.34375,-1.4375c0.57292,-0.35417 1.22396,-0.53125 1.95313,-0.53125c0.70833,0 1.33854,0.15625 1.89063,0.46875c0.55208,0.3125 0.97917,0.77083 1.28125,1.375c0.30208,0.59375 0.45313,1.32292 0.45313,2.1875v5.32813c0,0.28125 -0.08854,0.51042 -0.26562,0.6875c-0.16667,0.17708 -0.39583,0.26563 -0.6875,0.26563zM111.0694,268.72607c-0.34375,0 -0.64583,-0.125 -0.90625,-0.375c-0.25,-0.26042 -0.375,-0.5625 -0.375,-0.90625c0,-0.36458 0.125,-0.67187 0.375,-0.92187c0.26042,-0.26042 0.5625,-0.39062 0.90625,-0.39062c0.36458,0 0.66667,0.13021 0.90625,0.39063c0.25,0.25 0.375,0.55729 0.375,0.92188c0,0.34375 -0.125,0.64583 -0.375,0.90625c-0.23958,0.25 -0.54167,0.375 -0.90625,0.375zM115.50959,268.72607c-0.34375,0 -0.64583,-0.125 -0.90625,-0.375c-0.25,-0.26042 -0.375,-0.5625 -0.375,-0.90625c0,-0.36458 0.125,-0.67187 0.375,-0.92187c0.26042,-0.26042 0.5625,-0.39062 0.90625,-0.39062c0.36458,0 0.66667,0.13021 0.90625,0.39063c0.25,0.25 0.375,0.55729 0.375,0.92188c0,0.34375 -0.125,0.64583 -0.375,0.90625c-0.23958,0.25 -0.54167,0.375 -0.90625,0.375zM119.94977,268.72607c-0.34375,0 -0.64583,-0.125 -0.90625,-0.375c-0.25,-0.26042 -0.375,-0.5625 -0.375,-0.90625c0,-0.36458 0.125,-0.67187 0.375,-0.92187c0.26042,-0.26042 0.5625,-0.39062 0.90625,-0.39062c0.36458,0 0.66667,0.13021 0.90625,0.39063c0.25,0.25 0.375,0.55729 0.375,0.92188c0,0.34375 -0.125,0.64583 -0.375,0.90625c-0.23958,0.25 -0.54167,0.375 -0.90625,0.375z"/></g></g></svg>