<svg version="1.1" xmlns="http://www.w3.org/2000/svg" xmlns:xlink="http://www.w3.org/1999/xlink" width="104.97752" height="25.95512" viewBox="0,0,104.97752,25.95512"><g transform="translate(-187.51124,-167.02244)"><g data-paper-data="{&quot;isPaintingLayer&quot;:true}" fill-rule="nonzero" stroke-miterlimit="10" stroke-dasharray="" stroke-dashoffset="0" style="mix-blend-mode: normal"><path d="M200.4888,167.02244h79.0224c7.18957,0 12.97756,5.78799 12.97756,12.97756c0,7.18957 -5.788,12.97756 -12.97756,12.97756h-79.0224c-7.18957,0 -12.97756,-5.78799 -12.97756,-12.97756c0,-7.18957 5.78799,-12.97756 12.97756,-12.97756z" fill="#000000" stroke="none" stroke-width="0.365" stroke-linecap="round" stroke-linejoin="round"/><path d="M205.93616,184.43828c-0.45458,0 -0.88309,-0.0559 -1.28551,-0.16767c-0.40241,-0.11924 -0.76385,-0.29437 -1.08429,-0.52538c-0.31299,-0.23101 -0.56264,-0.52538 -0.74894,-0.88309c-0.1863,-0.3577 -0.29063,-0.77502 -0.31299,-1.25197c0,-0.08197 0.02608,-0.14905 0.07826,-0.20122c0.05962,-0.05962 0.13413,-0.08943 0.22356,-0.08943h0.7154c0.09688,0 0.17513,0.02981 0.23475,0.08943c0.05962,0.05216 0.09688,0.12296 0.11178,0.21238c0.03726,0.40241 0.15276,0.72659 0.34653,0.97249c0.19375,0.23847 0.4434,0.41733 0.74894,0.53657c0.30555,0.11178 0.64089,0.16767 1.00604,0.16767c0.67069,0 1.18489,-0.21984 1.5426,-0.65951c0.3577,-0.44712 0.53657,-1.03958 0.53657,-1.77734v-4.73958h-4.73958c-0.08943,0 -0.16395,-0.02608 -0.22356,-0.07826c-0.05216,-0.05962 -0.07826,-0.13413 -0.07826,-0.22356v-0.54773c0,-0.08943 0.02608,-0.16395 0.07826,-0.22356c0.05962,-0.05962 0.13413,-0.08943 0.22356,-0.08943h5.75679c0.09688,0 0.1714,0.02981 0.22356,0.08943c0.05962,0.05962 0.08943,0.13786 0.08943,0.23475v5.6003c0,0.72287 -0.13786,1.35257 -0.41359,1.88912c-0.27573,0.5291 -0.66698,0.93897 -1.17371,1.22961c-0.50674,0.29063 -1.12527,0.43595 -1.85559,0.43595zM213.9869,184.43828c-0.56636,0 -1.05075,-0.12668 -1.45316,-0.38006c-0.39497,-0.25337 -0.69678,-0.60736 -0.90543,-1.06193c-0.20122,-0.45458 -0.30181,-0.97624 -0.30181,-1.56495v-3.75589c0,-0.08943 0.02981,-0.16395 0.08943,-0.22356c0.05962,-0.05962 0.13413,-0.08943 0.22356,-0.08943h0.67069c0.08197,0 0.15276,0.02981 0.21238,0.08943c0.05962,0.05962 0.08943,0.13413 0.08943,0.22356v3.68882c0,1.32648 0.57755,1.98973 1.73263,1.98973c0.55146,0 0.99487,-0.17513 1.33021,-0.52538c0.33535,-0.35025 0.50302,-0.83837 0.50302,-1.46434v-3.68882c0,-0.08943 0.02608,-0.16395 0.07826,-0.22356c0.05962,-0.05962 0.13413,-0.08943 0.22356,-0.08943h0.67069c0.08943,0 0.16022,0.02981 0.21238,0.08943c0.05216,0.05962 0.07826,0.13413 0.07826,0.22356v6.32688c0,0.08197 -0.02608,0.15276 -0.07826,0.21238c-0.05216,0.05962 -0.12296,0.08943 -0.21238,0.08943h-0.62598c-0.08943,0 -0.16395,-0.02981 -0.22356,-0.08943c-0.05962,-0.05962 -0.08943,-0.13041 -0.08943,-0.21238v-0.59244c-0.23847,0.31299 -0.5291,0.56264 -0.8719,0.74894c-0.34279,0.1863 -0.79366,0.27945 -1.35257,0.27945zM219.74135,184.30414c-0.08943,0 -0.16395,-0.02981 -0.22356,-0.08943c-0.05962,-0.05962 -0.08943,-0.13041 -0.08943,-0.21238v-6.32688c0,-0.08943 0.02981,-0.16395 0.08943,-0.22356c0.05962,-0.05962 0.13413,-0.08943 0.22356,-0.08943h0.60363c0.08197,0 0.15276,0.02981 0.21238,0.08943c0.05962,0.05962 0.08943,0.13413 0.08943,0.22356v0.45831c0.20122,-0.27573 0.45831,-0.49557 0.7713,-0.65951c0.31299,-0.16395 0.68932,-0.24592 1.12901,-0.24592c0.99859,-0.00745 1.71028,0.40241 2.13504,1.22961c0.20122,-0.37261 0.49557,-0.67069 0.88309,-0.89426c0.39497,-0.22356 0.84209,-0.33535 1.34138,-0.33535c0.46203,0 0.88309,0.10805 1.26313,0.32418c0.38006,0.20866 0.67814,0.5291 0.89426,0.96132c0.21611,0.43223 0.32418,0.97249 0.32418,1.62085v3.86766c0,0.08197 -0.02981,0.15276 -0.08943,0.21238c-0.05216,0.05962 -0.12296,0.08943 -0.21238,0.08943h-0.62598c-0.08943,0 -0.16395,-0.02981 -0.22356,-0.08943c-0.05962,-0.05962 -0.08943,-0.13041 -0.08943,-0.21238v-3.7447c0,-0.49929 -0.07079,-0.89054 -0.21238,-1.17371c-0.1416,-0.28318 -0.33535,-0.48067 -0.58128,-0.59244c-0.23847,-0.11924 -0.49929,-0.17886 -0.78247,-0.17886c-0.23101,0 -0.46576,0.05962 -0.70423,0.17886c-0.23847,0.11178 -0.43595,0.30927 -0.59244,0.59244c-0.15649,0.28318 -0.23475,0.67442 -0.23475,1.17371v3.7447c0,0.08197 -0.02981,0.15276 -0.08943,0.21238c-0.05962,0.05962 -0.13413,0.08943 -0.22356,0.08943h-0.62598c-0.08943,0 -0.16395,-0.02981 -0.22356,-0.08943c-0.05216,-0.05962 -0.07826,-0.13041 -0.07826,-0.21238v-3.7447c0,-0.49929 -0.07826,-0.89054 -0.23475,-1.17371c-0.14905,-0.28318 -0.34279,-0.48067 -0.58128,-0.59244c-0.23847,-0.11924 -0.49185,-0.17886 -0.76012,-0.17886c-0.23101,0 -0.46948,0.05962 -0.7154,0.17886c-0.23847,0.11178 -0.43595,0.30927 -0.59244,0.59244c-0.14905,0.28318 -0.22356,0.67069 -0.22356,1.16254v3.75589c0,0.08197 -0.02981,0.15276 -0.08943,0.21238c-0.05962,0.05962 -0.13413,0.08943 -0.22356,0.08943zM231.61781,186.8416c-0.08943,0 -0.16395,-0.02981 -0.22356,-0.08943c-0.05216,-0.05962 -0.07826,-0.13413 -0.07826,-0.22356v-8.85315c0,-0.08943 0.02608,-0.16395 0.07826,-0.22356c0.05962,-0.05962 0.13413,-0.08943 0.22356,-0.08943h0.6148c0.08943,0 0.16022,0.02981 0.21238,0.08943c0.05962,0.05962 0.08943,0.13413 0.08943,0.22356v0.58128c0.21611,-0.29063 0.50302,-0.53282 0.86072,-0.72659c0.3577,-0.20122 0.8011,-0.30181 1.33021,-0.30181c0.49929,0 0.92407,0.0857 1.27431,0.25709c0.35025,0.1714 0.63716,0.40241 0.86072,0.69306c0.23101,0.29063 0.40241,0.62598 0.5142,1.00604c0.11924,0.37261 0.19003,0.7713 0.21238,1.19607c0.00745,0.1416 0.01118,0.29437 0.01118,0.45831c0,0.15649 -0.00373,0.30555 -0.01118,0.44712c-0.02236,0.41733 -0.09315,0.816 -0.21238,1.19607c-0.11178,0.38006 -0.28318,0.7154 -0.5142,1.00604c-0.22356,0.28318 -0.51046,0.5142 -0.86072,0.69306c-0.35025,0.1714 -0.77502,0.25709 -1.27431,0.25709c-0.5142,0 -0.94642,-0.09315 -1.29668,-0.27945c-0.35025,-0.19375 -0.63716,-0.43595 -0.86072,-0.72659v3.09637c0,0.08943 -0.02981,0.16395 -0.08943,0.22356c-0.05216,0.05962 -0.11924,0.08943 -0.20122,0.08943zM234.44591,183.35399c0.46203,0 0.82346,-0.1006 1.08429,-0.30181c0.26828,-0.20122 0.45831,-0.46203 0.57008,-0.78247c0.11924,-0.3279 0.1863,-0.67814 0.20122,-1.05075c0.00745,-0.25337 0.00745,-0.51046 0,-0.7713c-0.0149,-0.37261 -0.08197,-0.71913 -0.20122,-1.03958c-0.11178,-0.3279 -0.30181,-0.59244 -0.57008,-0.79366c-0.26084,-0.20122 -0.62226,-0.30181 -1.08429,-0.30181c-0.43223,0 -0.78621,0.10433 -1.06193,0.31299c-0.26828,0.20122 -0.46948,0.46203 -0.60363,0.78247c-0.12668,0.31299 -0.19747,0.63342 -0.21238,0.96132c-0.00745,0.1416 -0.01118,0.30927 -0.01118,0.50302c0,0.19375 0.00373,0.36888 0.01118,0.52538c0.00745,0.30555 0.07826,0.61108 0.21238,0.91662c0.1416,0.30555 0.35025,0.55519 0.62598,0.74894c0.27573,0.19375 0.62226,0.29063 1.03958,0.29063zM242.99898,184.30414c-0.09688,0 -0.1714,-0.02981 -0.22356,-0.08943c-0.05216,-0.05962 -0.07826,-0.13041 -0.07826,-0.21238v-8.71902c0,-0.09688 0.02608,-0.17513 0.07826,-0.23475c0.05216,-0.05962 0.12668,-0.08943 0.22356,-0.08943h3.65529c0.67069,0 1.2147,0.11178 1.63203,0.33535c0.42477,0.21611 0.73776,0.51046 0.93897,0.88309c0.20122,0.37261 0.30181,0.78993 0.30181,1.25197c0,0.36517 -0.05962,0.67814 -0.17886,0.93897c-0.11924,0.26084 -0.26828,0.47695 -0.44712,0.64834c-0.17886,0.16395 -0.35025,0.29063 -0.5142,0.38006c0.34279,0.16395 0.64834,0.43967 0.91662,0.8272c0.27573,0.38006 0.41359,0.84209 0.41359,1.3861c0,0.48439 -0.11178,0.93152 -0.33535,1.34138c-0.22356,0.40987 -0.55519,0.73776 -0.99487,0.98369c-0.43967,0.24592 -0.97996,0.36888 -1.62085,0.36888zM244.00503,183.21986h2.59335c0.56636,0 1.00604,-0.15276 1.31903,-0.45831c0.31299,-0.31299 0.46948,-0.69678 0.46948,-1.15135c0,-0.46948 -0.15649,-0.857 -0.46948,-1.16254c-0.31299,-0.31299 -0.75267,-0.46948 -1.31903,-0.46948h-2.59335zM244.00503,178.91624h2.45922c0.56636,0 0.99487,-0.13041 1.28551,-0.39125c0.29808,-0.26828 0.44712,-0.6297 0.44712,-1.08429c0,-0.45458 -0.14905,-0.8011 -0.44712,-1.03958c-0.29063,-0.23847 -0.71913,-0.3577 -1.28551,-0.3577h-2.45922zM254.28444,184.43828c-0.67814,0 -1.24451,-0.12668 -1.69909,-0.38006c-0.45458,-0.26084 -0.8011,-0.61853 -1.03958,-1.07311c-0.23847,-0.46203 -0.37261,-0.9874 -0.40241,-1.57613c-0.00745,-0.14905 -0.01118,-0.34279 -0.01118,-0.58128c0,-0.23847 0.00373,-0.42849 0.01118,-0.57008c0.02981,-0.59618 0.16395,-1.12155 0.40241,-1.57613c0.24592,-0.45458 0.59618,-0.80856 1.05075,-1.06193c0.45458,-0.26084 1.01722,-0.39125 1.68792,-0.39125c0.66325,0 1.22215,0.13041 1.67673,0.39125c0.45458,0.25337 0.80484,0.60736 1.05075,1.06193c0.24592,0.45458 0.38006,0.97996 0.40241,1.57613c0.00745,0.1416 0.01118,0.33163 0.01118,0.57008c0,0.23847 -0.00373,0.43223 -0.01118,0.58128c-0.02236,0.58872 -0.15649,1.1141 -0.40241,1.57613c-0.23847,0.45458 -0.58499,0.81229 -1.03958,1.07311c-0.45458,0.25337 -1.01722,0.38006 -1.68792,0.38006zM254.28444,183.40989c0.55146,0 0.99113,-0.17513 1.31903,-0.52538c0.3279,-0.35025 0.50674,-0.86445 0.53657,-1.5426c0.00745,-0.13413 0.01118,-0.30181 0.01118,-0.50302c0,-0.20866 -0.00373,-0.38006 -0.01118,-0.5142c-0.02981,-0.67814 -0.20866,-1.19235 -0.53657,-1.5426c-0.3279,-0.35025 -0.76758,-0.52538 -1.31903,-0.52538c-0.55146,0 -0.99487,0.17513 -1.33021,0.52538c-0.33535,0.35025 -0.51046,0.86445 -0.52538,1.5426c-0.00745,0.13413 -0.01118,0.30555 -0.01118,0.5142c0,0.20122 0.00373,0.36888 0.01118,0.50302c0.0149,0.67814 0.19003,1.19235 0.52538,1.5426c0.33535,0.35025 0.77875,0.52538 1.33021,0.52538zM261.94553,184.43828c-0.67814,0 -1.24451,-0.12668 -1.69909,-0.38006c-0.45458,-0.26084 -0.8011,-0.61853 -1.03958,-1.07311c-0.23847,-0.46203 -0.37261,-0.9874 -0.40241,-1.57613c-0.00745,-0.14905 -0.01118,-0.34279 -0.01118,-0.58128c0,-0.23847 0.00373,-0.42849 0.01118,-0.57008c0.02981,-0.59618 0.16395,-1.12155 0.40241,-1.57613c0.24592,-0.45458 0.59618,-0.80856 1.05075,-1.06193c0.45458,-0.26084 1.01722,-0.39125 1.68792,-0.39125c0.66325,0 1.22215,0.13041 1.67673,0.39125c0.45458,0.25337 0.80484,0.60736 1.05075,1.06193c0.24592,0.45458 0.38006,0.97996 0.40241,1.57613c0.00745,0.1416 0.01118,0.33163 0.01118,0.57008c0,0.23847 -0.00373,0.43223 -0.01118,0.58128c-0.02236,0.58872 -0.15649,1.1141 -0.40241,1.57613c-0.23847,0.45458 -0.58499,0.81229 -1.03958,1.07311c-0.45458,0.25337 -1.01722,0.38006 -1.68792,0.38006zM261.94553,183.40989c0.55146,0 0.99113,-0.17513 1.31903,-0.52538c0.3279,-0.35025 0.50674,-0.86445 0.53657,-1.5426c0.00745,-0.13413 0.01118,-0.30181 0.01118,-0.50302c0,-0.20866 -0.00373,-0.38006 -0.01118,-0.5142c-0.02981,-0.67814 -0.20866,-1.19235 -0.53657,-1.5426c-0.3279,-0.35025 -0.76758,-0.52538 -1.31903,-0.52538c-0.55146,0 -0.99487,0.17513 -1.33021,0.52538c-0.33535,0.35025 -0.51046,0.86445 -0.52538,1.5426c-0.00745,0.13413 -0.01118,0.30555 -0.01118,0.5142c0,0.20122 0.00373,0.36888 0.01118,0.50302c0.0149,0.67814 0.19003,1.19235 0.52538,1.5426c0.33535,0.35025 0.77875,0.52538 1.33021,0.52538zM269.15946,184.43828c-0.49929,0 -0.92779,-0.05962 -1.28551,-0.17886c-0.35025,-0.12668 -0.63716,-0.27945 -0.86072,-0.45831c-0.22356,-0.17886 -0.39125,-0.3577 -0.50302,-0.53657c-0.11178,-0.17886 -0.1714,-0.32044 -0.17886,-0.42477c-0.00745,-0.09688 0.02236,-0.1714 0.08943,-0.22356c0.07452,-0.05962 0.14905,-0.08943 0.22356,-0.08943h0.59244c0.04471,0 0.08197,0.00745 0.11178,0.02236c0.03726,0.0149 0.08197,0.05216 0.13413,0.11178c0.11178,0.12668 0.23847,0.25337 0.38006,0.38006c0.14905,0.11924 0.3279,0.21984 0.53657,0.30181c0.20866,0.08197 0.46576,0.12296 0.7713,0.12296c0.45458,0 0.8272,-0.0857 1.11781,-0.25709c0.29808,-0.17886 0.44712,-0.43595 0.44712,-0.7713c0,-0.22356 -0.05962,-0.40241 -0.17886,-0.53657c-0.11924,-0.13413 -0.33163,-0.25337 -0.63716,-0.3577c-0.30555,-0.10433 -0.72659,-0.21611 -1.26313,-0.33535c-0.53657,-0.12668 -0.96132,-0.27945 -1.27431,-0.45831c-0.30555,-0.1863 -0.52538,-0.40614 -0.65951,-0.65951c-0.13413,-0.25337 -0.20122,-0.54029 -0.20122,-0.86072c0,-0.3279 0.09688,-0.64461 0.29063,-0.95015c0.19375,-0.30555 0.48067,-0.55519 0.86072,-0.74894c0.38006,-0.20122 0.85328,-0.30181 1.41963,-0.30181c0.46203,0 0.857,0.05962 1.18489,0.17886c0.33535,0.11178 0.60736,0.25709 0.816,0.43595c0.21611,0.1714 0.37633,0.34279 0.48067,0.5142c0.11178,0.16395 0.1714,0.30555 0.17886,0.42477c0.00745,0.08943 -0.02236,0.16395 -0.08943,0.22356c-0.05962,0.05216 -0.12668,0.07826 -0.20122,0.07826h-0.57008c-0.05962,0 -0.11178,-0.01118 -0.15649,-0.03354c-0.03726,-0.02981 -0.07079,-0.06335 -0.1006,-0.1006c-0.08943,-0.11178 -0.19747,-0.22356 -0.32418,-0.33535c-0.11924,-0.11924 -0.27573,-0.21611 -0.46948,-0.29063c-0.1863,-0.08197 -0.43595,-0.12296 -0.74894,-0.12296c-0.43967,0 -0.7713,0.09315 -0.99487,0.27945c-0.22356,0.1863 -0.33535,0.42477 -0.33535,0.7154c0,0.16395 0.04844,0.31299 0.14532,0.44712c0.09688,0.13413 0.28318,0.25709 0.55891,0.36888c0.27573,0.10433 0.68559,0.21984 1.22961,0.34653c0.58872,0.11178 1.05075,0.26828 1.3861,0.46948c0.34279,0.19375 0.58499,0.42105 0.72659,0.68188c0.1416,0.25337 0.21238,0.54773 0.21238,0.88309c0,0.37261 -0.10805,0.7154 -0.32418,1.02839c-0.21611,0.31299 -0.53657,0.56264 -0.96132,0.74894c-0.42477,0.17886 -0.95015,0.26828 -1.57613,0.26828zM276.26599,184.30414c-0.49929,0 -0.90543,-0.09315 -1.21842,-0.27945c-0.31299,-0.19375 -0.54029,-0.46576 -0.68188,-0.816c-0.1416,-0.3577 -0.21238,-0.77502 -0.21238,-1.25197v-3.52113h-1.03958c-0.08943,0 -0.16395,-0.02981 -0.22356,-0.08943c-0.05962,-0.05962 -0.08943,-0.13413 -0.08943,-0.22356v-0.44712c0,-0.08943 0.02981,-0.16395 0.08943,-0.22356c0.05962,-0.05962 0.13413,-0.08943 0.22356,-0.08943h1.03958v-2.22446c0,-0.08943 0.02981,-0.16395 0.08943,-0.22356c0.05962,-0.05962 0.13413,-0.08943 0.22356,-0.08943h0.62598c0.08943,0 0.16022,0.02981 0.21238,0.08943c0.05962,0.05962 0.08943,0.13413 0.08943,0.22356v2.22446h1.65438c0.09688,0 0.1714,0.02981 0.22356,0.08943c0.05962,0.05962 0.08943,0.13413 0.08943,0.22356v0.44712c0,0.08943 -0.02981,0.16395 -0.08943,0.22356c-0.05216,0.05962 -0.12668,0.08943 -0.22356,0.08943h-1.65438v3.42054c0,0.42477 0.07079,0.7564 0.21238,0.99487c0.1416,0.23847 0.39497,0.3577 0.76012,0.3577h0.816c0.08943,0 0.16395,0.02981 0.22356,0.08943c0.05962,0.05962 0.08943,0.13413 0.08943,0.22356v0.48067c0,0.08197 -0.02981,0.15276 -0.08943,0.21238c-0.05962,0.05962 -0.13413,0.08943 -0.22356,0.08943z" fill="#ffffff" stroke="#ffffff" stroke-width="0.5" stroke-linecap="square" stroke-linejoin="miter"/></g></g></svg>