<svg version="1.1" xmlns="http://www.w3.org/2000/svg" xmlns:xlink="http://www.w3.org/1999/xlink" width="5.16" height="5.16" viewBox="0,0,5.16,5.16"><g transform="translate(-237.42,-177.42)"><g data-paper-data="{&quot;isPaintingLayer&quot;:true}" fill-rule="nonzero" stroke="none" stroke-width="0" stroke-linecap="butt" stroke-linejoin="miter" stroke-miterlimit="10" stroke-dasharray="" stroke-dashoffset="0" style="mix-blend-mode: normal"><path d="M237.42,182.58v-5.16h5.16v5.16z" data-paper-data="{&quot;index&quot;:null}" fill="none"/><path d="M237.9193,179.55102c-0.11687,-0.36223 -0.11992,-0.68463 -0.03939,-0.71062c0.08053,-0.02598 0.15837,0.29898 0.27525,0.66121c0.11687,0.36223 0.2285,0.62458 0.14796,0.65056c-0.08053,0.02598 -0.26696,-0.23891 -0.38383,-0.60115z" data-paper-data="{&quot;index&quot;:null}" fill="#693a00"/><path d="M241.71503,179.83026c0.0791,-0.03004 0.27877,0.22501 0.41394,0.58082c0.13515,0.3558 0.15463,0.67764 0.07553,0.70769c-0.07911,0.03006 -0.1734,-0.29052 -0.30857,-0.64633c-0.13517,-0.35581 -0.26002,-0.61212 -0.18092,-0.64217z" data-paper-data="{&quot;index&quot;:null}" fill="#693a00"/><path d="M239.77751,181.14892c0,0.29291 -0.05159,0.53036 -0.11524,0.53036c-0.06365,0 -0.11524,-0.23745 -0.11524,-0.53036c0,-0.29291 0.05159,-0.53036 0.11524,-0.53036c0.06365,0 0.11524,0.23745 0.11524,0.53036z" data-paper-data="{&quot;index&quot;:null}" fill="#693a00"/><path d="M240.41917,180.93962c0,0.29291 -0.05159,0.53036 -0.11524,0.53036c-0.06365,0 -0.11524,-0.23745 -0.11524,-0.53036c0,-0.29291 0.05159,-0.53036 0.11524,-0.53036c0.06365,0 0.11524,0.23745 0.11524,0.53036z" data-paper-data="{&quot;index&quot;:null}" fill="#693a00"/><path d="M242.04767,179.95571c0.00545,1.01079 0.01053,1.23685 -0.52482,1.31284c-0.03985,0.00428 -0.07817,0.02362 -0.07817,0.02362l-0.14851,0.22431l-0.52862,-0.00082l-0.1643,-0.16966c0,0 -0.50686,0.00622 -0.57158,0.00571c-2.04659,-0.01603 -2.02985,-0.00532 -2.04555,-1.41956c-0.01566,-1.41096 -0.02454,-1.42238 2.04555,-1.39881c0.15256,0.00174 0.45825,0.01864 0.45825,0.01864l0.1761,0.20589l0.57301,0.04115l0.16281,-0.21527c0,0 0.06115,0.00615 0.08983,0.0074c0.47129,0.02056 0.5512,0.47386 0.55601,1.36457z" data-paper-data="{&quot;index&quot;:null}" fill="#ffab19"/></g></g></svg>