<svg version="1.1" xmlns="http://www.w3.org/2000/svg" xmlns:xlink="http://www.w3.org/1999/xlink" width="52.5" height="52.5" viewBox="0,0,52.5,52.5"><g transform="translate(-84.14529,-206.86025)"><g data-paper-data="{&quot;isPaintingLayer&quot;:true}" fill-rule="nonzero" stroke-linejoin="miter" stroke-miterlimit="10" stroke-dasharray="" stroke-dashoffset="0" style="mix-blend-mode: normal"><path d="M85.3953,233.11025c0,-13.80712 11.19288,-25 25,-25c13.80712,0 25,11.19288 25,25c0,13.80712 -11.19288,25 -25,25c-13.80712,0 -25,-11.19288 -25,-25z" fill="#ffaf4d" stroke="#ffffff" stroke-width="2.5" stroke-linecap="butt"/><path d="M93.20417,233.42226c0,-10.10533 13.89697,-12.69731 24.62523,-12.69731c10.72826,0 14.22523,2.59198 14.22523,12.69731c0,10.10533 -8.69697,18.29731 -19.42523,18.29731c-10.72826,0 -19.42523,-8.19198 -19.42523,-18.29731z" fill="#ffedb8" stroke="none" stroke-width="0" stroke-linecap="butt"/><path d="" fill="none" stroke="#000000" stroke-width="2" stroke-linecap="round"/><path d="" fill="#000000" stroke="none" stroke-width="0.5" stroke-linecap="butt"/><path d="" fill="#000000" stroke="none" stroke-width="0.5" stroke-linecap="butt"/><path d="" fill="#000000" stroke="none" stroke-width="0.5" stroke-linecap="butt"/><path d="" fill="#000000" stroke="none" stroke-width="0.5" stroke-linecap="butt"/><path d="" fill="#000000" stroke="none" stroke-width="0.5" stroke-linecap="butt"/><path d="" fill="#000000" stroke="none" stroke-width="0.5" stroke-linecap="butt"/><path d="" fill="#000000" stroke="none" stroke-width="0.5" stroke-linecap="butt"/><path d="" fill="#000000" stroke="none" stroke-width="0.5" stroke-linecap="butt"/><path d="" fill="#000000" stroke="none" stroke-width="0.5" stroke-linecap="butt"/><path d="M109.59023,233.3767c0,1.88288 -0.77568,3.40912 -1.73252,3.40912c-0.95684,0 -1.73252,-1.52636 -1.73252,-3.40912c0,-1.88288 0.77568,-3.40912 1.73252,-3.40912c0.95684,0 1.73252,1.52636 1.73252,3.40912z" fill="#693a00" stroke="none" stroke-width="0" stroke-linecap="butt"/><path d="M125.73402,234.59066c0,1.88277 -0.77568,3.40912 -1.73252,3.40912c-0.95684,0 -1.7324,-1.52636 -1.7324,-3.40912c0,-1.88277 0.77556,-3.40912 1.7324,-3.40912c0.95684,0 1.73252,1.52636 1.73252,3.40912z" fill="#693a00" stroke="none" stroke-width="0" stroke-linecap="butt"/><path d="M120.62994,236.58575c0,0 -1.52636,1.45308 -3.40912,1.45308c-1.88277,0 -3.40912,-1.45308 -3.40912,-1.45308z" fill="#b46300" stroke="none" stroke-width="0" stroke-linecap="butt"/></g></g></svg>