<svg version="1.1" xmlns="http://www.w3.org/2000/svg" xmlns:xlink="http://www.w3.org/1999/xlink" width="65.77356" height="65.77358" viewBox="0,0,65.77356,65.77358"><defs><radialGradient cx="215.09526" cy="68.63357" r="32.88679" gradientUnits="userSpaceOnUse" id="color-1"><stop offset="0" stop-color="#ffc800"/><stop offset="1" stop-color="#ffc800" stop-opacity="0"/></radialGradient><linearGradient x1="215.4842" y1="52.41421" x2="215.4842" y2="80.55707" gradientUnits="userSpaceOnUse" id="color-2"><stop offset="0" stop-color="#fff75c"/><stop offset="1" stop-color="#ffd363"/></linearGradient></defs><g transform="translate(-182.20848,-35.74679)"><g data-paper-data="{&quot;isPaintingLayer&quot;:true}" fill-rule="nonzero" stroke-linecap="butt" stroke-linejoin="miter" stroke-miterlimit="10" stroke-dasharray="" stroke-dashoffset="0" style="mix-blend-mode: normal"><path d="M182.20848,68.63357c0,-18.16287 14.72392,-32.88678 32.88678,-32.88678c18.16287,0 32.88678,14.72392 32.88678,32.88679c0,18.16288 -14.72392,32.88679 -32.88678,32.88679c-18.16287,0 -32.88678,-14.72392 -32.88678,-32.88678z" fill="url(#color-1)" stroke="none" stroke-width="0"/><path d="" fill="#ffaf4d" stroke="none" stroke-width="0.5"/><path d="" fill="#ffedb8" stroke="none" stroke-width="0"/><path d="" fill="#693a00" stroke="none" stroke-width="0"/><path d="" data-paper-data="{&quot;index&quot;:null}" fill="#693a00" stroke="none" stroke-width="0"/><path d="" fill="#b46300" stroke="none" stroke-width="0"/><g><path d="M198.9842,80.55707v-28.14286c0,0 5.75092,14.71429 8.57143,14.71429c2.74909,0 8.14286,-14.71429 8.14286,-14.71429c0,0 5.07524,14.85714 7.85714,14.85714c2.63914,0 8.42857,-14.85714 8.42857,-14.85714v28.14286z" fill="url(#color-2)" stroke="#ffffff" stroke-width="2.5"/><path d="M198.9842,80.55707v-14.85715c0,0 5.75092,7.76795 8.57143,7.76795c2.74909,0 8.14286,-7.76795 8.14286,-7.76795c0,0 5.07524,7.84336 7.85714,7.84336c2.63914,0 8.42857,-7.84336 8.42857,-7.84336v14.85715z" fill="#fff75c" stroke="none" stroke-width="0"/></g><g fill="none"><path d="M198.98421,80.55706v-28.14286c0,0 5.75092,14.71429 8.57143,14.71429c2.74909,0 8.14286,-14.71429 8.14286,-14.71429c0,0 5.07524,14.85714 7.85714,14.85714c2.63914,0 8.42857,-14.85714 8.42857,-14.85714v28.14286z" stroke="#ffffff" stroke-width="2.5"/><path d="M198.98421,80.55706v-14.85715c0,0 5.75092,7.76795 8.57143,7.76795c2.74909,0 8.14286,-7.76795 8.14286,-7.76795c0,0 5.07524,7.84336 7.85714,7.84336c2.63914,0 8.42857,-7.84336 8.42857,-7.84336v14.85715z" stroke="none" stroke-width="0"/></g></g></g></svg>