<svg version="1.1" xmlns="http://www.w3.org/2000/svg" xmlns:xlink="http://www.w3.org/1999/xlink" width="104.07221" height="101.85023" viewBox="0,0,104.07221,101.85023"><g transform="translate(-157.36479,-129.02336)"><g data-paper-data="{&quot;isPaintingLayer&quot;:true}" fill="#ffffff" fill-rule="nonzero" stroke="none" stroke-width="0" stroke-linecap="butt" stroke-linejoin="miter" stroke-miterlimit="10" stroke-dasharray="" stroke-dashoffset="0" style="mix-blend-mode: normal"><path d="M231.00316,165.17921l-45.37778,1.18902c0,0 2.07522,-4.06369 2.596,-5.28817c0.17359,-0.40814 0.5641,-2.11551 0.72942,-2.52708c4.84133,-9.98981 11.23932,-29.29375 19.28419,-29.5262c6.91046,-0.14846 8.41701,4.56031 11.34204,9.78077c3.27543,5.84587 8.69131,18.45237 11.19258,24.66896c2.17135,5.39674 0.2335,1.70276 0.2335,1.70276z" data-paper-data="{&quot;origPos&quot;:null,&quot;origRot&quot;:0,&quot;index&quot;:null}"/><path d="M221.64499,156.72057c6.67938,0.53687 20.32666,1.95358 26.88262,3.33986c5.8546,1.238 10.79838,1.27424 12.71421,7.91546c2.17337,7.74923 -14.35002,19.60465 -22.44529,27.20085c-0.34366,0.28037 -1.85734,1.1615 -2.1953,1.44878c-1.01391,0.86175 -4.27541,4.05283 -4.27541,4.05283l-12.37587,-43.67369c0,0 -4.10341,-0.75007 1.69503,-0.28408z" data-paper-data="{&quot;origPos&quot;:null,&quot;origRot&quot;:0,&quot;index&quot;:null}"/><path d="M201.93109,210.56456l37.20532,-26.00608c0,0 0.50867,4.53444 0.74912,5.84323c0.08015,0.43625 0.69556,2.07603 0.78443,2.51054c1.46748,11.00373 6.77037,30.63671 0.18635,35.26528c-5.68389,3.93319 -9.53656,0.83492 -14.85476,-1.90833c-5.95531,-3.0719 -20.3768,-10.06768 -25.89047,-13.87566c-4.78659,-3.30576 1.82002,-1.82897 1.82002,-1.82897z" data-paper-data="{&quot;origPos&quot;:null,&quot;origRot&quot;:0,&quot;index&quot;:null}"/><path d="M214.73576,212.9574c-1.57779,1.08968 2.62423,-1.00016 1.02091,0.05159c-2.12593,1.39455 -5.55909,3.53884 -9.38884,5.83828c-1.9061,1.14446 -3.91049,2.32736 -5.9008,3.47538c-3.05838,1.76404 -6.08357,3.44568 -8.66828,4.77895c-5.31823,2.74326 -9.17086,5.84153 -14.85475,1.90829c-6.58402,-4.62857 -1.28114,-24.26161 0.18634,-35.26528c0.08892,-0.43451 0.70433,-2.07429 0.78443,-2.51058c0.24045,-1.30874 0.74911,-5.84322 0.74911,-5.84322c0,0 41.96285,24.29029 42.8724,24.92604c0.30319,0.21193 -5.66708,1.08003 -5.66708,1.08003c0,0 3.65314,-2.01379 -1.13345,1.29197z" data-paper-data="{&quot;origPos&quot;:null,&quot;origRot&quot;:0,&quot;index&quot;:null}"/><path d="M198.85183,157.57584l-12.37588,43.67369c0,0 -3.26153,-3.19103 -4.2754,-4.05283c-0.33796,-0.28724 -1.85164,-1.16841 -2.1953,-1.44878c-8.09527,-7.59615 -24.6187,-19.45162 -22.44528,-27.20085c1.91583,-6.64128 6.85959,-6.6775 12.71419,-7.91546c6.55596,-1.38633 20.20329,-2.80299 26.88263,-3.33985c5.79844,-0.46604 1.69503,0.28408 1.69503,0.28408z" data-paper-data="{&quot;origRot&quot;:0,&quot;index&quot;:null}"/><path d="M237.20696,184.85637c0,14.27271 -11.71588,25.843 -26.16807,25.843c-14.45224,0 -26.16806,-11.57029 -26.16806,-25.84299c0,-14.27271 11.71587,-25.84299 26.16806,-25.84299c14.45224,0 26.16807,11.57029 26.16807,25.84299z" data-paper-data="{&quot;origPos&quot;:null}"/></g></g></svg>