<svg version="1.1" xmlns="http://www.w3.org/2000/svg" xmlns:xlink="http://www.w3.org/1999/xlink" width="112.64419" height="25.95512" viewBox="0,0,112.64419,25.95512"><g transform="translate(-183.6779,-167.02244)"><g data-paper-data="{&quot;isPaintingLayer&quot;:true}" fill-rule="nonzero" stroke-miterlimit="10" stroke-dasharray="" stroke-dashoffset="0" style="mix-blend-mode: normal"><path d="M196.65547,167.02244h86.68907c7.18957,0 12.97756,5.78799 12.97756,12.97756c0,7.18957 -5.788,12.97756 -12.97756,12.97756h-86.68907c-7.18957,0 -12.97756,-5.78799 -12.97756,-12.97756c0,-7.18957 5.78799,-12.97756 12.97756,-12.97756z" fill="#000000" stroke="none" stroke-width="0.365" stroke-linecap="round" stroke-linejoin="round"/><path d="M204.49809,184.72278c-0.09688,0 -0.1714,-0.02981 -0.22356,-0.08943c-0.05216,-0.05962 -0.07826,-0.13041 -0.07826,-0.21238v-8.71902c0,-0.09688 0.02608,-0.17513 0.07826,-0.23475c0.05216,-0.05962 0.12668,-0.08943 0.22356,-0.08943h3.26404c1.00604,0 1.79969,0.23847 2.38097,0.7154c0.58872,0.46948 0.88309,1.16627 0.88309,2.09033c0,0.68559 -0.1714,1.24451 -0.5142,1.67673c-0.34279,0.43223 -0.80856,0.73031 -1.39728,0.89426l2.05679,3.55467c0.02981,0.05216 0.04471,0.1006 0.04471,0.14532c0,0.07452 -0.02981,0.13786 -0.08943,0.19003c-0.05962,0.05216 -0.12296,0.07826 -0.19003,0.07826h-0.63716c-0.15649,0 -0.272,-0.03726 -0.34653,-0.11178c-0.06706,-0.08197 -0.12668,-0.16395 -0.17886,-0.24592l-1.93385,-3.39819h-2.33626v3.45407c0,0.08197 -0.02981,0.15276 -0.08943,0.21238c-0.05962,0.05962 -0.13786,0.08943 -0.23475,0.08943zM205.50414,179.83791h2.2021c0.66325,0 1.15881,-0.13786 1.4867,-0.41359c0.33535,-0.28318 0.50302,-0.70051 0.50302,-1.25197c0,-0.54401 -0.16395,-0.9576 -0.49185,-1.24078c-0.32044,-0.29063 -0.81974,-0.43595 -1.49789,-0.43595h-2.2021zM214.69343,184.85694c-0.43967,0 -0.84209,-0.08943 -1.20725,-0.26828c-0.36517,-0.17886 -0.65951,-0.41733 -0.88309,-0.7154c-0.22356,-0.30555 -0.33535,-0.64834 -0.33535,-1.02839c0,-0.61853 0.24965,-1.11037 0.74894,-1.47553c0.49929,-0.36517 1.14763,-0.60363 1.94501,-0.7154l1.98973,-0.27945v-0.39125c0,-0.42477 -0.12296,-0.7564 -0.36888,-0.99487c-0.23847,-0.24592 -0.63342,-0.36888 -1.18489,-0.36888c-0.39497,0 -0.71913,0.08197 -0.97249,0.24592c-0.24592,0.15649 -0.41733,0.36143 -0.5142,0.6148c-0.05216,0.13413 -0.14532,0.20122 -0.27945,0.20122h-0.60363c-0.09688,0 -0.1714,-0.02981 -0.22356,-0.08943c-0.04471,-0.05962 -0.06706,-0.13041 -0.06706,-0.21238c0,-0.13413 0.04844,-0.29808 0.14532,-0.49185c0.10433,-0.19375 0.26456,-0.38377 0.48067,-0.57008c0.21611,-0.1863 0.48811,-0.34279 0.816,-0.46948c0.33535,-0.13413 0.74522,-0.20122 1.22961,-0.20122c0.5291,0 0.97624,0.07079 1.34138,0.21238c0.36517,0.13413 0.65206,0.31671 0.86072,0.54773c0.20866,0.23101 0.36143,0.49557 0.45831,0.79366c0.09688,0.29063 0.14532,0.58872 0.14532,0.89426v4.32597c0,0.08197 -0.02981,0.15276 -0.08943,0.21238c-0.05962,0.05962 -0.13413,0.08943 -0.22356,0.08943h-0.6148c-0.09688,0 -0.1714,-0.02981 -0.22356,-0.08943c-0.05216,-0.05962 -0.07826,-0.13041 -0.07826,-0.21238v-0.58128c-0.11924,0.16395 -0.27573,0.32418 -0.46948,0.48067c-0.19375,0.14905 -0.43967,0.27573 -0.73776,0.38006c-0.29063,0.10433 -0.65206,0.15649 -1.08429,0.15649zM214.98406,183.8509c0.36517,0 0.69678,-0.07452 0.99487,-0.22356c0.30555,-0.15649 0.54401,-0.39869 0.7154,-0.72659c0.1714,-0.33535 0.25709,-0.75267 0.25709,-1.25197v-0.36888l-1.5426,0.22356c-0.63342,0.08943 -1.11037,0.23847 -1.43081,0.44712c-0.32044,0.20866 -0.48067,0.47321 -0.48067,0.79366c0,0.25337 0.07079,0.46203 0.21238,0.62598c0.14905,0.16395 0.33535,0.28691 0.55891,0.36888c0.23101,0.07452 0.46948,0.11178 0.7154,0.11178zM222.93277,184.85694c-0.63342,0 -1.18117,-0.12296 -1.6432,-0.36888c-0.45458,-0.24592 -0.80856,-0.59618 -1.06193,-1.05075c-0.24592,-0.46203 -0.37633,-1.01349 -0.39125,-1.65438c-0.00745,-0.13413 -0.01118,-0.30927 -0.01118,-0.52538c0,-0.22356 0.00373,-0.40241 0.01118,-0.53657c0.0149,-0.64089 0.14532,-1.18862 0.39125,-1.6432c0.25337,-0.46203 0.60736,-0.816 1.06193,-1.06193c0.46203,-0.24592 1.00977,-0.36888 1.6432,-0.36888c0.5142,0 0.95388,0.07079 1.31903,0.21238c0.37261,0.1416 0.67814,0.32418 0.91662,0.54773c0.24592,0.22356 0.42849,0.46576 0.54773,0.72659c0.11924,0.25337 0.18258,0.49557 0.19003,0.72659c0.0149,0.08943 -0.01118,0.16395 -0.07826,0.22356c-0.05962,0.05216 -0.13413,0.07826 -0.22356,0.07826h-0.63716c-0.08943,0 -0.15649,-0.01864 -0.20122,-0.0559c-0.04471,-0.04471 -0.08943,-0.11552 -0.13413,-0.21238c-0.16395,-0.43967 -0.38377,-0.74522 -0.65951,-0.91662c-0.27573,-0.17886 -0.61853,-0.26828 -1.02839,-0.26828c-0.5291,0 -0.96132,0.16395 -1.29668,0.49185c-0.33535,0.3279 -0.5142,0.857 -0.53657,1.58732c-0.0149,0.32044 -0.0149,0.6297 0,0.92779c0.02236,0.73776 0.20122,1.2706 0.53657,1.59848c0.33535,0.3279 0.76758,0.49185 1.29668,0.49185c0.40987,0 0.75267,-0.08943 1.02839,-0.26828c0.27573,-0.17886 0.49557,-0.48811 0.65951,-0.92779c0.04471,-0.09688 0.08943,-0.16767 0.13413,-0.21238c0.04471,-0.04471 0.11178,-0.06706 0.20122,-0.06706h0.63716c0.08943,0 0.16395,0.02981 0.22356,0.08943c0.06706,0.05962 0.09315,0.13413 0.07826,0.22356c-0.00745,0.1863 -0.04844,0.37633 -0.12296,0.57008c-0.06706,0.19375 -0.17886,0.39125 -0.33535,0.59244c-0.15649,0.20122 -0.35025,0.38006 -0.58128,0.53657c-0.23101,0.15649 -0.50674,0.28318 -0.8272,0.38006c-0.32044,0.08943 -0.68932,0.13413 -1.10665,0.13413zM230.27785,184.85694c-0.92407,0 -1.65811,-0.28318 -2.2021,-0.84955c-0.54401,-0.56636 -0.84209,-1.33766 -0.89426,-2.31389c-0.00745,-0.11924 -0.01118,-0.26828 -0.01118,-0.44712c0,-0.1863 0.00373,-0.33535 0.01118,-0.44712c0.02981,-0.63342 0.17513,-1.18862 0.43595,-1.66556c0.26084,-0.47695 0.6148,-0.84209 1.06193,-1.09547c0.44712,-0.26084 0.97624,-0.39125 1.58732,-0.39125c0.67069,0 1.23333,0.14532 1.68792,0.43595c0.46203,0.28318 0.81229,0.68559 1.05075,1.20725c0.24592,0.52165 0.36888,1.13645 0.36888,1.84441v0.22356c0,0.09688 -0.02981,0.17513 -0.08943,0.23475c-0.05962,0.05216 -0.13413,0.07826 -0.22356,0.07826h-4.61661c0,0.00745 0,0.02608 0,0.0559c0,0.02236 0,0.04098 0,0.0559c0.02236,0.36517 0.10433,0.70796 0.24592,1.02839c0.1416,0.31299 0.34653,0.57008 0.6148,0.7713c0.27573,0.19375 0.59618,0.29063 0.96132,0.29063c0.31299,0 0.57755,-0.04844 0.79366,-0.14532c0.21611,-0.10433 0.39125,-0.21611 0.52538,-0.33535c0.13413,-0.11924 0.22356,-0.21238 0.26828,-0.27945c0.07452,-0.11178 0.13413,-0.17886 0.17886,-0.20122c0.04471,-0.02236 0.11552,-0.03354 0.21238,-0.03354h0.65951c0.08197,0 0.14905,0.02608 0.20122,0.07826c0.05962,0.04471 0.0857,0.11178 0.07826,0.20122c-0.00745,0.13413 -0.07826,0.29808 -0.21238,0.49185c-0.13413,0.19375 -0.32418,0.38377 -0.57008,0.57008c-0.24592,0.1863 -0.54773,0.33907 -0.90543,0.45831c-0.3577,0.11924 -0.76385,0.17886 -1.21842,0.17886zM228.44462,180.74334h3.65529v-0.03354c0,-0.40241 -0.07452,-0.76012 -0.22356,-1.07311c-0.1416,-0.31299 -0.35025,-0.55891 -0.62598,-0.73776c-0.27573,-0.1863 -0.60363,-0.27945 -0.98369,-0.27945c-0.38752,0 -0.71913,0.09315 -0.99487,0.27945c-0.26828,0.17886 -0.47321,0.42477 -0.6148,0.73776c-0.1416,0.31299 -0.21238,0.67069 -0.21238,1.07311zM241.78216,184.85694c-0.76758,0 -1.42336,-0.13041 -1.96737,-0.39125c-0.54401,-0.26828 -0.96132,-0.67442 -1.25197,-1.21842c-0.29063,-0.54401 -0.45458,-1.22961 -0.49185,-2.05679c-0.00745,-0.39497 -0.01118,-0.7713 -0.01118,-1.12901c0,-0.36517 0.00373,-0.74148 0.01118,-1.12901c0.03726,-0.81974 0.20866,-1.50162 0.5142,-2.04562c0.30555,-0.55146 0.73031,-0.96132 1.27431,-1.22961c0.55146,-0.27573 1.19235,-0.41359 1.92265,-0.41359c0.7154,0 1.34512,0.13786 1.88912,0.41359c0.55146,0.26828 0.98369,0.67814 1.29668,1.22961c0.31299,0.54401 0.48439,1.22589 0.5142,2.04562c0.0149,0.38752 0.02236,0.76385 0.02236,1.12901c0,0.3577 -0.00745,0.73404 -0.02236,1.12901c-0.02981,0.8272 -0.19375,1.51278 -0.49185,2.05679c-0.29808,0.54401 -0.71913,0.95015 -1.26313,1.21842c-0.54401,0.26084 -1.19235,0.39125 -1.94501,0.39125zM241.78216,183.71674c0.67814,0 1.22961,-0.20122 1.65438,-0.60363c0.43223,-0.40987 0.66698,-1.07311 0.70423,-1.98973c0.0149,-0.40241 0.02236,-0.76012 0.02236,-1.07311c0,-0.32044 -0.00745,-0.67442 -0.02236,-1.06193c-0.0149,-0.61853 -0.12668,-1.11781 -0.33535,-1.49789c-0.20866,-0.38006 -0.48811,-0.65951 -0.83837,-0.83837c-0.35025,-0.17886 -0.74522,-0.26828 -1.18489,-0.26828c-0.44712,0 -0.84581,0.08943 -1.19607,0.26828c-0.34279,0.17886 -0.61853,0.45831 -0.8272,0.83837c-0.20866,0.38006 -0.3279,0.87936 -0.3577,1.49789c-0.00745,0.38752 -0.01118,0.74148 -0.01118,1.06193c0,0.31299 0.00373,0.67069 0.01118,1.07311c0.03726,0.91662 0.272,1.57986 0.70423,1.98973c0.43967,0.40241 0.99859,0.60363 1.67673,0.60363zM247.58743,184.72278c-0.08943,0 -0.16395,-0.02981 -0.22356,-0.08943c-0.05962,-0.05962 -0.08943,-0.13041 -0.08943,-0.21238v-6.32688c0,-0.08943 0.02981,-0.16395 0.08943,-0.22356c0.05962,-0.05962 0.13413,-0.08943 0.22356,-0.08943h0.62598c0.08943,0 0.16022,0.02981 0.21238,0.08943c0.05962,0.05962 0.08943,0.13413 0.08943,0.22356v0.58128c0.23101,-0.29808 0.52165,-0.54401 0.8719,-0.73776c0.3577,-0.19375 0.81229,-0.29063 1.36374,-0.29063c0.5738,0 1.06193,0.12668 1.46434,0.38006c0.40987,0.25337 0.71913,0.60736 0.92779,1.06193c0.20866,0.44712 0.31299,0.96878 0.31299,1.56495v3.76706c0,0.08197 -0.02981,0.15276 -0.08943,0.21238c-0.05216,0.05962 -0.12296,0.08943 -0.21238,0.08943h-0.67069c-0.08943,0 -0.16395,-0.02981 -0.22356,-0.08943c-0.05216,-0.05962 -0.07826,-0.13041 -0.07826,-0.21238v-3.7c0,-0.62598 -0.15276,-1.1141 -0.45831,-1.46434c-0.30555,-0.35025 -0.74894,-0.52538 -1.33021,-0.52538c-0.55146,0 -0.99487,0.17513 -1.33021,0.52538c-0.33535,0.35025 -0.50302,0.83837 -0.50302,1.46434v3.7c0,0.08197 -0.02981,0.15276 -0.08943,0.21238c-0.05962,0.05962 -0.13041,0.08943 -0.21238,0.08943zM255.68678,184.72278c-0.08943,0 -0.16395,-0.02981 -0.22356,-0.08943c-0.05216,-0.05962 -0.07826,-0.13041 -0.07826,-0.21238v-8.86433c0,-0.08943 0.02608,-0.16395 0.07826,-0.22356c0.05962,-0.05962 0.13413,-0.08943 0.22356,-0.08943h0.62598c0.09688,0 0.1714,0.02981 0.22356,0.08943c0.05962,0.05962 0.08943,0.13413 0.08943,0.22356v8.86433c0,0.08197 -0.02981,0.15276 -0.08943,0.21238c-0.05216,0.05962 -0.12668,0.08943 -0.22356,0.08943zM258.91887,184.72278c-0.08943,0 -0.16395,-0.02981 -0.22356,-0.08943c-0.05962,-0.05962 -0.08943,-0.13041 -0.08943,-0.21238v-6.32688c0,-0.08943 0.02981,-0.16395 0.08943,-0.22356c0.05962,-0.05962 0.13413,-0.08943 0.22356,-0.08943h0.63716c0.08943,0 0.16395,0.02981 0.22356,0.08943c0.05962,0.05962 0.08943,0.13413 0.08943,0.22356v6.32688c0,0.08197 -0.02981,0.15276 -0.08943,0.21238c-0.05962,0.05962 -0.13413,0.08943 -0.22356,0.08943zM258.8071,176.48443c-0.08943,0 -0.16395,-0.02608 -0.22356,-0.07826c-0.05216,-0.05962 -0.07826,-0.13413 -0.07826,-0.22356v-0.72659c0,-0.08943 0.02608,-0.16395 0.07826,-0.22356c0.05962,-0.05962 0.13413,-0.08943 0.22356,-0.08943h0.83837c0.08943,0 0.16395,0.02981 0.22356,0.08943c0.06706,0.05962 0.1006,0.13413 0.1006,0.22356v0.72659c0,0.08943 -0.03354,0.16395 -0.1006,0.22356c-0.05962,0.05216 -0.13413,0.07826 -0.22356,0.07826zM262.14878,184.72278c-0.08943,0 -0.16395,-0.02981 -0.22356,-0.08943c-0.05962,-0.05962 -0.08943,-0.13041 -0.08943,-0.21238v-6.32688c0,-0.08943 0.02981,-0.16395 0.08943,-0.22356c0.05962,-0.05962 0.13413,-0.08943 0.22356,-0.08943h0.62598c0.08943,0 0.16022,0.02981 0.21238,0.08943c0.05962,0.05962 0.08943,0.13413 0.08943,0.22356v0.58128c0.23101,-0.29808 0.52165,-0.54401 0.8719,-0.73776c0.3577,-0.19375 0.81229,-0.29063 1.36374,-0.29063c0.5738,0 1.06193,0.12668 1.46434,0.38006c0.40987,0.25337 0.71913,0.60736 0.92779,1.06193c0.20866,0.44712 0.31299,0.96878 0.31299,1.56495v3.76706c0,0.08197 -0.02981,0.15276 -0.08943,0.21238c-0.05216,0.05962 -0.12296,0.08943 -0.21238,0.08943h-0.67069c-0.08943,0 -0.16395,-0.02981 -0.22356,-0.08943c-0.05216,-0.05962 -0.07826,-0.13041 -0.07826,-0.21238v-3.7c0,-0.62598 -0.15276,-1.1141 -0.45831,-1.46434c-0.30555,-0.35025 -0.74894,-0.52538 -1.33021,-0.52538c-0.55146,0 -0.99487,0.17513 -1.33021,0.52538c-0.33535,0.35025 -0.50302,0.83837 -0.50302,1.46434v3.7c0,0.08197 -0.02981,0.15276 -0.08943,0.21238c-0.05962,0.05962 -0.13041,0.08943 -0.21238,0.08943zM272.70736,184.85694c-0.92407,0 -1.65811,-0.28318 -2.2021,-0.84955c-0.54401,-0.56636 -0.84209,-1.33766 -0.89426,-2.31389c-0.00745,-0.11924 -0.01118,-0.26828 -0.01118,-0.44712c0,-0.1863 0.00373,-0.33535 0.01118,-0.44712c0.02981,-0.63342 0.17513,-1.18862 0.43595,-1.66556c0.26084,-0.47695 0.6148,-0.84209 1.06193,-1.09547c0.44712,-0.26084 0.97624,-0.39125 1.58732,-0.39125c0.67069,0 1.23333,0.14532 1.68792,0.43595c0.46203,0.28318 0.81229,0.68559 1.05075,1.20725c0.24592,0.52165 0.36888,1.13645 0.36888,1.84441v0.22356c0,0.09688 -0.02981,0.17513 -0.08943,0.23475c-0.05962,0.05216 -0.13413,0.07826 -0.22356,0.07826h-4.61661c0,0.00745 0,0.02608 0,0.0559c0,0.02236 0,0.04098 0,0.0559c0.02236,0.36517 0.10433,0.70796 0.24592,1.02839c0.1416,0.31299 0.34653,0.57008 0.6148,0.7713c0.27573,0.19375 0.59618,0.29063 0.96132,0.29063c0.31299,0 0.57755,-0.04844 0.79366,-0.14532c0.21611,-0.10433 0.39125,-0.21611 0.52538,-0.33535c0.13413,-0.11924 0.22356,-0.21238 0.26828,-0.27945c0.07452,-0.11178 0.13413,-0.17886 0.17886,-0.20122c0.04471,-0.02236 0.11552,-0.03354 0.21238,-0.03354h0.65951c0.08197,0 0.14905,0.02608 0.20122,0.07826c0.05962,0.04471 0.0857,0.11178 0.07826,0.20122c-0.00745,0.13413 -0.07826,0.29808 -0.21238,0.49185c-0.13413,0.19375 -0.32418,0.38377 -0.57008,0.57008c-0.24592,0.1863 -0.54773,0.33907 -0.90543,0.45831c-0.3577,0.11924 -0.76385,0.17886 -1.21842,0.17886zM270.87414,180.74334h3.65529v-0.03354c0,-0.40241 -0.07452,-0.76012 -0.22356,-1.07311c-0.1416,-0.31299 -0.35025,-0.55891 -0.62598,-0.73776c-0.27573,-0.1863 -0.60363,-0.27945 -0.98369,-0.27945c-0.38752,0 -0.71913,0.09315 -0.99487,0.27945c-0.26828,0.17886 -0.47321,0.42477 -0.6148,0.73776c-0.1416,0.31299 -0.21238,0.67069 -0.21238,1.07311z" fill="#ffffff" stroke="#ffffff" stroke-width="0.5" stroke-linecap="square" stroke-linejoin="miter"/></g></g></svg>