<svg version="1.1" xmlns="http://www.w3.org/2000/svg" xmlns:xlink="http://www.w3.org/1999/xlink" width="134" height="134" viewBox="0,0,134,134"><g transform="translate(-173,-113)"><g data-paper-data="{&quot;isPaintingLayer&quot;:true}" fill-rule="nonzero" stroke-linecap="butt" stroke-linejoin="miter" stroke-miterlimit="10" stroke-dasharray="" stroke-dashoffset="0" style="mix-blend-mode: normal"><path d="M216.76674,182.22319c0.13165,-6.71381 1.8171,-10.57737 7.34231,-13.21289c1.51129,-0.72088 2.3853,2.11268 4.51793,1.54236c1.51091,-0.40406 4.31803,0.21281 6.44885,-1.14755c1.37448,-0.87751 2.00809,-3.9038 3.36758,-4.12252c13.64143,-2.19484 24.39083,-1.68149 25.58253,10.68834c1.25321,13.00807 0.63805,15.99979 -23.14458,17.19206c-1.66833,0.08363 -2.8523,1.60106 -4.60402,2.06961c-2.62337,0.7017 -5.74499,0.42225 -7.46177,0.44126c-2.18107,0.02414 -2.43781,-2.14293 -3.98505,-2.27127c-7.75229,-0.64302 -8.21494,-3.46943 -8.06376,-11.17941z" fill="#9966ff" stroke="#ffffff" stroke-width="5"/><path d="M216.76674,182.22319c0.13165,-6.71381 1.8171,-10.57737 7.34231,-13.21289c1.51129,-0.72088 2.3853,2.11268 4.51793,1.54236c1.51091,-0.40406 4.31803,0.21281 6.44885,-1.14755c1.37448,-0.87751 2.00809,-3.9038 3.36758,-4.12252c13.64143,-2.19484 24.39083,-1.68149 25.58253,10.68834c1.25321,13.00807 0.63805,15.99979 -23.14458,17.19206c-1.66833,0.08363 -2.8523,1.60106 -4.60402,2.06961c-2.62337,0.7017 -5.74499,0.42225 -7.46177,0.44126c-2.18107,0.02414 -2.43781,-2.14293 -3.98505,-2.27127c-7.75229,-0.64302 -8.21494,-3.46943 -8.06376,-11.17941z" fill="#ff6680" stroke="none" stroke-width="0"/><path d="M231.14842,180.51878c0.33779,2.41695 -0.45709,4.52564 -1.77544,4.70989c-1.31834,0.18425 -2.66089,-1.62571 -2.99868,-4.04266c-0.33779,-2.41695 0.45709,-4.52564 1.77544,-4.70989c1.31834,-0.18425 2.66089,1.62571 2.99868,4.04266z" fill="#ffffff" stroke="none" stroke-width="0"/><path d="M249.28657,177.78533c0.33779,2.41695 -0.45709,4.52564 -1.77544,4.70989c-1.31834,0.18425 -2.66089,-1.62571 -2.99868,-4.04266c-0.33779,-2.41695 0.45709,-4.52564 1.77544,-4.70989c1.31834,-0.18425 2.66089,1.62571 2.99868,4.04266z" fill="#ffffff" stroke="none" stroke-width="0"/><path d="M233.52307,179.40251c0,0 2.39603,0.14394 3.57876,-0.16786c3.25956,-0.85933 5.28649,-2.04105 5.28649,-2.04105c0,0 1.57873,2.50474 0.97768,4.79363c-0.60106,2.28888 -3.29172,3.56577 -6.00978,2.85203c-2.71804,-0.71375 -3.83316,-5.43675 -3.83316,-5.43675z" data-paper-data="{&quot;index&quot;:null}" fill="#ffffff" stroke="none" stroke-width="0"/><path d="M173,247v-134h134v134z" fill="none" stroke="none" stroke-width="0"/></g></g></svg>