<svg version="1.1" xmlns="http://www.w3.org/2000/svg" xmlns:xlink="http://www.w3.org/1999/xlink" width="134" height="134" viewBox="0,0,134,134"><g transform="translate(-173,-113)"><g data-paper-data="{&quot;isPaintingLayer&quot;:true}" fill-rule="nonzero" stroke-linecap="butt" stroke-linejoin="miter" stroke-miterlimit="10" stroke-dasharray="" stroke-dashoffset="0" style="mix-blend-mode: normal"><path d="M213.2841,175.82163c1.99932,-7.36252 4.94986,-11.15622 11.85529,-12.53947c1.88881,-0.37835 2.08445,2.98491 4.62653,2.94355c1.80098,-0.02931 4.76977,1.42333 7.52777,0.51081c1.77904,-0.58864 3.32241,-3.74922 4.90295,-3.61598c15.85954,1.33686 27.73806,4.86201 25.65822,18.82191c-2.18715,14.68019 -3.70034,17.80777 -30.62335,12.57409c-1.88863,-0.36714 -3.63117,0.97913 -5.71923,1.01323c-3.12706,0.05106 -6.54063,-1.11632 -8.46559,-1.56803c-2.44557,-0.57387 -2.13483,-3.03271 -3.82958,-3.60011c-8.49134,-2.84291 -8.22897,-6.08504 -5.93299,-14.53999z" fill="#9966ff" stroke="#ffffff" stroke-width="5"/><path d="M213.2841,175.82163c1.99932,-7.36252 4.94986,-11.15622 11.85529,-12.53947c1.88881,-0.37835 2.08445,2.98491 4.62653,2.94355c1.80098,-0.02931 4.76977,1.42333 7.52777,0.51081c1.77904,-0.58864 3.32241,-3.74922 4.90295,-3.61598c15.85954,1.33686 27.73806,4.86201 25.65822,18.82191c-2.18715,14.68019 -3.70034,17.80777 -30.62335,12.57409c-1.88863,-0.36714 -3.63117,0.97913 -5.71923,1.01323c-3.12706,0.05106 -6.54063,-1.11632 -8.46559,-1.56803c-2.44557,-0.57387 -2.13483,-3.03271 -3.82958,-3.60011c-8.49134,-2.84291 -8.22897,-6.08504 -5.93299,-14.53999z" fill="#9966ff" stroke="none" stroke-width="0"/><path d="M231.57308,179.04182c1.92371,-7.08416 5.30483,-8.70048 17.47106,-7.67493c9.58348,0.80783 16.76135,2.93799 15.50455,11.37357c-1.32164,8.87085 -2.236,10.76074 -18.50485,7.59817c-15.90122,-3.09111 -16.49853,-3.82946 -14.47076,-11.29681z" fill="#7d53d0" stroke="none" stroke-width="0"/><path d="M245.1093,177.57951c-0.25449,2.42713 -1.53402,4.28218 -2.85792,4.14336c-1.32389,-0.13881 -2.19081,-2.21893 -1.93631,-4.64606c0.25449,-2.42713 1.53403,-4.28218 2.85793,-4.14337c1.32389,0.13881 2.1908,2.21894 1.93631,4.64607z" fill="#ffffff" stroke="none" stroke-width="0"/><path d="M262.60438,180.22178c-0.2545,2.42713 -1.53402,4.28218 -2.85792,4.14337c-1.32389,-0.13881 -2.19081,-2.21893 -1.93631,-4.64607c0.2545,-2.42713 1.53403,-4.28218 2.85793,-4.14337c1.32389,0.13881 2.19081,2.21893 1.93631,4.64606z" fill="#ffffff" stroke="none" stroke-width="0"/><path d="M256.85548,180.0502c0,0 -2.78652,3.79971 -5.62414,3.17019c-4.76138,-1.05627 -5.06194,-4.8477 -5.06194,-4.8477c0,0 1.99573,0.90554 4.88649,1.20865c2.89075,0.30311 5.79959,0.46886 5.79959,0.46886z" fill="#ffffff" stroke="none" stroke-width="0"/><path d="M173,247v-134h134v134z" fill="none" stroke="none" stroke-width="0"/></g></g></svg>