<svg version="1.1" xmlns="http://www.w3.org/2000/svg" xmlns:xlink="http://www.w3.org/1999/xlink" width="134" height="134" viewBox="0,0,134,134"><g transform="translate(-173,-113)"><g data-paper-data="{&quot;isPaintingLayer&quot;:true}" fill-rule="nonzero" stroke-linecap="butt" stroke-linejoin="miter" stroke-miterlimit="10" stroke-dasharray="" stroke-dashoffset="0" style="mix-blend-mode: normal"><path d="M200.76189,182.92632c0.38903,-7.61923 2.46595,-11.9533 8.9197,-14.77244c1.76527,-0.77111 2.67118,2.47375 5.1464,1.89312c1.75362,-0.41138 4.9633,0.37718 7.46438,-1.10061c1.61332,-0.95326 2.44976,-4.36964 4.02252,-4.57532c49.1948,-5.95351 51.81311,-3.75073 52.74742,10.3323c0.98253,14.80967 2.49689,20.24317 -50.9271,21.40172c-1.92351,0.0426 -3.34015,1.72843 -5.37327,2.20549c-3.04479,0.71443 -6.62846,0.29914 -8.60545,0.26683c-2.51166,-0.04105 -2.73056,-2.50976 -4.50717,-2.70404c-8.90154,-0.97345 -9.33415,-4.19729 -8.88739,-12.94704z" fill="#5cb1d6" stroke="#ffffff" stroke-width="5"/><path d="M200.76189,182.92631c0.38903,-7.61923 2.46595,-11.9533 8.9197,-14.77244c1.76527,-0.77111 2.67118,2.47375 5.1464,1.89312c1.75362,-0.41138 4.9633,0.37718 7.46438,-1.10061c1.61332,-0.95326 2.44976,-4.36964 4.02252,-4.57532c49.1948,-5.95351 51.81311,-3.75073 52.74742,10.3323c0.98253,14.80967 2.49689,20.24317 -50.9271,21.40172c-1.92351,0.0426 -3.34015,1.72843 -5.37327,2.20549c-3.04479,0.71443 -6.62846,0.29914 -8.60545,0.26683c-2.51166,-0.04105 -2.73056,-2.50976 -4.50717,-2.70404c-8.90154,-0.97345 -9.33415,-4.19729 -8.88739,-12.94704z" fill="#5cb1d6" stroke="none" stroke-width="0"/><path d="M216.33547,182.51467c0.3743,-7.33115 1.44458,-11.52292 39.11636,-13.81943c12.14274,-0.48326 17.43921,1.3628 17.56743,7.81886c0.59372,8.94908 0.10186,10.99013 -16.46747,11.35713c-39.36159,1.8587 -40.61087,2.37116 -40.21632,-5.35656z" fill="#ffffff" stroke="none" stroke-width="0"/><path d="M244.02567,176.16195c0.26711,2.42578 -0.58897,4.51037 -1.91213,4.65607c-1.32315,0.1457 -2.61232,-1.70267 -2.87943,-4.12845c-0.26711,-2.42578 0.58897,-4.51037 1.91213,-4.65607c1.32315,-0.1457 2.61232,1.70267 2.87943,4.12845z" fill="#519bbb" stroke="none" stroke-width="0"/><path d="M262.58197,175.5575c0.26711,2.42578 -0.58897,4.51037 -1.91213,4.65607c-1.32315,0.1457 -2.61232,-1.70267 -2.87943,-4.12845c-0.26711,-2.42578 0.58897,-4.51037 1.91213,-4.65607c1.32315,-0.1457 2.61232,1.70267 2.87943,4.12845z" fill="#519bbb" stroke="none" stroke-width="0"/><path d="M256.87041,176.61948c0,0 -2.51396,3.98528 -5.38867,3.55575c-4.82359,-0.7207 -5.38856,-4.48183 -5.38856,-4.48183c0,0 2.05417,0.76376 4.95905,0.86397c2.90487,0.10021 5.81819,0.06213 5.81819,0.06213z" data-paper-data="{&quot;index&quot;:null}" fill="#5cb1d6" stroke="none" stroke-width="0"/><path d="M173,247v-134h134v134z" fill="none" stroke="none" stroke-width="0"/></g></g></svg>