<svg version="1.1" xmlns="http://www.w3.org/2000/svg" xmlns:xlink="http://www.w3.org/1999/xlink" width="134" height="134" viewBox="0,0,134,134"><g transform="translate(-173,-113)"><g data-paper-data="{&quot;isPaintingLayer&quot;:true}" fill-rule="nonzero" stroke-linecap="butt" stroke-linejoin="miter" stroke-miterlimit="10" stroke-dasharray="" stroke-dashoffset="0" style="mix-blend-mode: normal"><path d="M185.7158,171.95058c0.54247,-4.26872 9.39074,-11.58282 15.13819,-10.85241c5.68936,0.72301 71.65954,10.07282 81.48778,11.32183c7.57212,0.96228 12.48502,10.02523 11.94251,14.29391c-0.56296,4.42983 -6.19511,12.97174 -12.35963,12.18834c-10.73872,-1.36471 -80.04625,-11.13863 -86.32359,-11.9364c-5.10244,-0.64844 -10.44822,-10.58544 -9.88523,-15.01528z" fill="#59c059" stroke="#ffffff" stroke-width="5"/><path d="M185.7158,171.95058c0.54247,-4.26872 9.39074,-11.58282 15.13819,-10.85241c5.68936,0.72301 71.65954,10.07282 81.48778,11.32183c7.57212,0.96228 12.48502,10.02523 11.94251,14.29391c-0.56296,4.42983 -6.19511,12.97174 -12.35963,12.18834c-10.73872,-1.36471 -80.04625,-11.13863 -86.32359,-11.9364c-5.10244,-0.64844 -10.44822,-10.58544 -9.88523,-15.01528z" fill="#59c059" stroke="none" stroke-width="0"/><path d="M232.08877,185.02744c-3.16176,-0.05979 4.24821,0.13272 -1.21365,0.02942c-4.20807,-0.07958 -7.65649,-2.92666 -7.39265,-7.6296c0.27323,-4.87028 2.62885,-6.97778 6.05466,-6.91299c5.96785,0.11287 0.41254,-0.04458 3.90106,0.02141c2.83559,0.05362 6.33062,5.18464 6.30751,7.64678c-0.04657,4.96181 -4.4629,6.90539 -7.65693,6.84498z" data-paper-data="{&quot;index&quot;:null}" fill="#4ea94e" stroke="none" stroke-width="0"/><path d="M272.99197,176.70664c3.16176,0.0598 -4.24821,-0.13272 1.21365,-0.02943c4.20807,0.07958 7.26138,2.76056 7.39265,7.6296c0.14051,5.21168 -2.62885,6.97778 -6.05466,6.91299c-5.96785,-0.11286 -0.41254,0.04458 -3.90105,-0.02141c-2.83559,-0.05362 -6.24793,-3.85193 -6.30751,-7.64678c-0.07791,-4.96264 4.46288,-6.90538 7.65692,-6.84497z" fill="#4ea94e" stroke="none" stroke-width="0"/><path d="M249.02806,180.29005c0,0 1.98955,0.47715 3.99471,0.85828c2.00519,0.38114 3.53041,0.17605 3.53041,0.17605c0,0 -0.96931,2.48866 -4.38475,2.23546c-2.0355,-0.1509 -3.14036,-3.2698 -3.14036,-3.2698z" data-paper-data="{&quot;index&quot;:null}" fill="#ffffff" stroke="none" stroke-width="0"/><path d="M173,247v-134h134v134z" fill="none" stroke="none" stroke-width="0"/><path d="M261.63846,182.28434c-0.36077,2.35495 -1.51259,4.12577 -2.57268,3.95521c-1.06009,-0.17056 -1.627,-2.2179 -1.26623,-4.57286c0.36077,-2.35495 1.51259,-4.12577 2.57268,-3.95521c1.06009,0.17056 1.627,2.2179 1.26623,4.57286z" fill="#ffffff" stroke="none" stroke-width="0"/><path d="M248.33846,180.18434c-0.36077,2.35495 -1.51258,4.12577 -2.57267,3.95521c-1.06009,-0.17056 -1.627,-2.21789 -1.26623,-4.57286c0.36077,-2.35495 1.51259,-4.12577 2.57268,-3.95521c1.06009,0.17056 1.62699,2.21789 1.26623,4.57286z" fill="#ffffff" stroke="none" stroke-width="0"/></g></g></svg>