<svg version="1.1" xmlns="http://www.w3.org/2000/svg" xmlns:xlink="http://www.w3.org/1999/xlink" width="52.5" height="52.5" viewBox="0,0,52.5,52.5"><g transform="translate(-84.93794,-261.55579)"><g data-paper-data="{&quot;isPaintingLayer&quot;:true}" fill-rule="nonzero" stroke-linecap="butt" stroke-linejoin="miter" stroke-miterlimit="10" stroke-dasharray="" stroke-dashoffset="0" style="mix-blend-mode: normal"><path d="M86.18794,287.80579c0,-13.80712 11.19288,-25 25,-25c13.80712,0 25,11.19288 25,25c0,13.80712 -11.19288,25 -25,25c-13.80712,0 -25,-11.19288 -25,-25z" fill="#ffaf4d" stroke="#ffffff" stroke-width="2.5"/><path d="M91.38891,288.15741c0,-10.76955 8.73045,-19.5 19.5,-19.5c10.76955,0 19.5,8.73045 19.5,19.5c0,10.76955 -8.73045,19.5 -19.5,19.5c-10.76955,0 -19.5,-8.73045 -19.5,-19.5z" fill="#ffedb8" stroke="none" stroke-width="0"/><g fill="#493216" stroke="none" stroke-width="0"><path d="M107.34116,285.36354c0,0.91496 -2.64983,-0.19491 -5.79836,-0.19491c-3.14853,0 -5.60345,1.10986 -5.60345,0.19491c0,-0.91496 2.55238,-1.65668 5.70091,-1.65668c3.14853,0 5.7009,0.74172 5.7009,1.65668z"/><path d="M124.91238,285.19862c0,0.91496 -2.64983,-0.19491 -5.79836,-0.19491c-3.14853,0 -5.60345,1.10986 -5.60345,0.19491c0,-0.91496 2.55238,-1.65668 5.70091,-1.65668c3.14853,0 5.70091,0.74172 5.70091,1.65668z"/></g><path d="M102.5,296.43518c0,-2.38611 -0.23256,-5.42997 1.35868,-6.9657c1.5189,-1.46591 4.80814,-0.0343 7.08576,-0.0343c1.75434,0 4.49485,-1.68725 5.84505,-0.77153c2.23917,1.51861 2.59939,4.86214 2.59939,7.77153c0,4.66374 -3.78071,8.44444 -8.44444,8.44444c-4.66374,0 -8.44444,-3.78071 -8.44444,-8.44444z" fill="#b46300" stroke="none" stroke-width="0"/></g></g></svg>