<svg version="1.1" xmlns="http://www.w3.org/2000/svg" xmlns:xlink="http://www.w3.org/1999/xlink" width="52.5" height="52.5" viewBox="0,0,52.5,52.5"><g transform="translate(-188.78028,-206.86021)"><g data-paper-data="{&quot;isPaintingLayer&quot;:true}" fill-rule="nonzero" stroke-linecap="butt" stroke-linejoin="miter" stroke-miterlimit="10" stroke-dasharray="" stroke-dashoffset="0" style="mix-blend-mode: normal"><path d="M190.03029,233.11021c0,-13.80712 11.19288,-25 25,-25c13.80712,0 25,11.19288 25,25c0,13.80712 -11.19288,25 -25,25c-13.80712,0 -25,-11.19288 -25,-25z" fill="#ffaf4d" stroke="#ffffff" stroke-width="2.5"/><path d="M195.93586,234.17097c0,-4.76281 3.89826,-14.78122 13.01622,-14.32448c4.50702,0.22577 12.43756,3.79873 17.56024,1.81101c6.26973,-2.4328 8.274,9.55485 8.274,12.51347c0,10.10533 -8.69697,18.29731 -19.42523,18.29731c-10.72826,0 -19.42523,-8.19198 -19.42523,-18.29731z" fill="#ffedb8" stroke="none" stroke-width="0"/><path d="M222.69025,237.43952c0,0 -2.17349,1.03082 -3.36403,0.89083c-1.34712,-0.15839 -4.30711,-1.79282 -4.30711,-1.79282z" fill="#b46300" stroke="none" stroke-width="0"/><path d="M212.95877,234.27232c0,1.92683 -0.86778,3.48884 -1.93824,3.48884c-1.07046,0 -1.93824,-1.56201 -1.93824,-3.48884c0,-1.92683 0.87478,-3.61104 1.93824,-3.48884c2.35684,0.27082 1.93824,1.56201 1.93824,3.48884z" fill="#693a00" stroke="none" stroke-width="0"/><path d="M228.61977,235.74538c0,1.54147 -0.72894,2.79107 -1.62812,2.79107c-0.89919,0 -1.62812,-1.2496 -1.62812,-2.79107c0,-1.54147 -0.08351,-2.65566 1.62812,-2.79107c0.89639,-0.07092 1.62812,1.2496 1.62812,2.79107z" fill="#693a00" stroke="none" stroke-width="0"/></g></g></svg>