<svg version="1.1" xmlns="http://www.w3.org/2000/svg" xmlns:xlink="http://www.w3.org/1999/xlink" width="52.5" height="52.5" viewBox="0,0,52.5,52.5"><g transform="translate(-83.35255,-150.54269)"><g data-paper-data="{&quot;isPaintingLayer&quot;:true}" fill-rule="nonzero" stroke-linecap="butt" stroke-linejoin="miter" stroke-miterlimit="10" stroke-dasharray="" stroke-dashoffset="0" style="mix-blend-mode: normal"><path d="M84.60255,176.79269c0,-13.80712 11.19288,-25 25,-25c13.80712,0 25,11.19288 25,25c0,13.80712 -11.19288,25 -25,25c-13.80712,0 -25,-11.19288 -25,-25z" fill="#ffaf4d" stroke="#ffffff" stroke-width="2.5"/><path d="M99.83895,190.36111c-6.07614,-6.31939 -11.19412,-23.40059 -0.44294,-26.72212c8.06331,-2.49112 14.35271,4.14378 25.27627,1.22212c11.29066,-3.01985 8.52797,15.93213 0.83333,23.83333c-7.69463,7.9012 -17.51594,8.5788 -25.66667,1.66667z" fill="#ffedb8" stroke="none" stroke-width="0"/><path d="M108.02206,175.52778c0,1.84095 -0.89543,3.33333 -2,3.33333c-1.10457,0 -2,-1.49238 -2,-3.33333c0,-1.84095 0.89543,-3.33333 2,-3.33333c1.10457,0 2,1.49238 2,3.33333z" fill="#693a00" stroke="none" stroke-width="0"/><path d="M123.83895,176.61111c0,1.61083 -0.67157,2.91667 -1.5,2.91667c-0.82843,0 -1.5,-1.30584 -1.5,-2.91667c0,-1.61083 0.67157,-2.91667 1.5,-2.91667c0.82843,0 1.5,1.30584 1.5,2.91667z" fill="#693a00" stroke="none" stroke-width="0"/><path d="M119.08225,178.12049c0,0 -1.4188,1.55828 -3.29676,1.6926c-1.87797,0.13433 -4.37438,-2.59458 -4.37438,-2.59458z" fill="#b46300" stroke="none" stroke-width="0"/></g></g></svg>