<svg version="1.1" xmlns="http://www.w3.org/2000/svg" xmlns:xlink="http://www.w3.org/1999/xlink" width="160.19646" height="25.95512" viewBox="0,0,160.19646,25.95512"><g transform="translate(-159.90177,-167.02244)"><g data-paper-data="{&quot;isPaintingLayer&quot;:true}" fill-rule="nonzero" stroke-miterlimit="10" stroke-dasharray="" stroke-dashoffset="0" style="mix-blend-mode: normal"><path d="M172.87933,167.02244h134.24134c7.18957,0 12.97756,5.78799 12.97756,12.97756c0,7.18957 -5.788,12.97756 -12.97756,12.97756h-134.24134c-7.18957,0 -12.97756,-5.78799 -12.97756,-12.97756c0,-7.18957 5.78799,-12.97756 12.97756,-12.97756z" fill="#000000" stroke="none" stroke-width="0.365" stroke-linecap="round" stroke-linejoin="round"/><path d="M173.75154,185.18744c-0.10417,0 -0.1875,-0.03125 -0.25,-0.09375c-0.05208,-0.0625 -0.07812,-0.14583 -0.07812,-0.25v-9.5625c0,-0.10417 0.02604,-0.1875 0.07813,-0.25c0.0625,-0.07292 0.14583,-0.10937 0.25,-0.10937h3.57813c1.10417,0 1.97917,0.26042 2.625,0.78125c0.64583,0.52083 0.96875,1.28646 0.96875,2.29688c0,0.76042 -0.1875,1.38021 -0.5625,1.85938c-0.375,0.46875 -0.88542,0.79167 -1.53125,0.96875l2.25,3.90625c0.03125,0.0625 0.04688,0.11458 0.04688,0.15625c0,0.08333 -0.03125,0.15625 -0.09375,0.21875c-0.0625,0.05208 -0.13542,0.07813 -0.21875,0.07813h-0.70312c-0.16667,0 -0.29167,-0.04167 -0.375,-0.125c-0.07292,-0.09375 -0.13542,-0.18229 -0.1875,-0.26562l-2.125,-3.73437h-2.5625v3.78125c0,0.10417 -0.03646,0.1875 -0.10937,0.25c-0.0625,0.0625 -0.14583,0.09375 -0.25,0.09375zM174.86092,179.82808h2.40625c0.73958,0 1.28646,-0.15104 1.64063,-0.45312c0.36458,-0.3125 0.54688,-0.77604 0.54688,-1.39062c0,-0.59375 -0.17708,-1.04687 -0.53125,-1.35937c-0.35417,-0.3125 -0.90625,-0.46875 -1.65625,-0.46875h-2.40625zM185.79466,185.32808c-1.02083,0 -1.82812,-0.30729 -2.42187,-0.92187c-0.59375,-0.625 -0.92187,-1.47396 -0.98437,-2.54687c-0.01042,-0.125 -0.01562,-0.28646 -0.01562,-0.48437c0,-0.20833 0.00521,-0.375 0.01563,-0.5c0.04167,-0.6875 0.20313,-1.29167 0.48438,-1.8125c0.28125,-0.53125 0.66667,-0.9375 1.15625,-1.21875c0.5,-0.28125 1.08333,-0.42187 1.75,-0.42187c0.73958,0 1.35938,0.15625 1.85938,0.46875c0.5,0.3125 0.88021,0.76042 1.14063,1.34375c0.27083,0.57292 0.40625,1.24479 0.40625,2.01563v0.25c0,0.10417 -0.03125,0.1875 -0.09375,0.25c-0.0625,0.05208 -0.14062,0.07813 -0.23437,0.07813h-5.07812c0,0.01042 0,0.03125 0,0.0625c0,0.03125 0,0.05729 0,0.07813c0.02083,0.39583 0.10938,0.77083 0.26563,1.125c0.15625,0.34375 0.38021,0.625 0.67188,0.84375c0.30208,0.20833 0.65625,0.3125 1.0625,0.3125c0.34375,0 0.63021,-0.05208 0.85938,-0.15625c0.23958,-0.11458 0.43229,-0.23437 0.57813,-0.35937c0.15625,-0.13542 0.25521,-0.23958 0.29688,-0.3125c0.09375,-0.125 0.16146,-0.19792 0.20313,-0.21875c0.05208,-0.02083 0.13021,-0.03125 0.23438,-0.03125h0.71875c0.09375,0 0.17188,0.02604 0.23438,0.07813c0.0625,0.05208 0.08854,0.125 0.07813,0.21875c-0.01042,0.14583 -0.08854,0.32813 -0.23437,0.54688c-0.14583,0.20833 -0.35417,0.41667 -0.625,0.625c-0.27083,0.19792 -0.60417,0.36458 -1,0.5c-0.39583,0.125 -0.83854,0.1875 -1.32812,0.1875zM183.77904,180.81244h4.01563v-0.03125c0,-0.44792 -0.08333,-0.83854 -0.25,-1.17187c-0.15625,-0.34375 -0.38542,-0.61458 -0.6875,-0.8125c-0.30208,-0.20833 -0.66146,-0.3125 -1.07812,-0.3125c-0.42708,0 -0.79167,0.10417 -1.09375,0.3125c-0.29167,0.19792 -0.51562,0.46875 -0.67187,0.8125c-0.15625,0.33333 -0.23437,0.72396 -0.23437,1.17188zM193.06471,185.32808c-0.47917,0 -0.92187,-0.09375 -1.32812,-0.28125c-0.39583,-0.19792 -0.71875,-0.46354 -0.96875,-0.79687c-0.23958,-0.33333 -0.35937,-0.70833 -0.35937,-1.125c0,-0.67708 0.27083,-1.21354 0.8125,-1.60937c0.55208,-0.40625 1.26563,-0.67187 2.14063,-0.79687l2.1875,-0.3125v-0.42187c0,-0.46875 -0.13542,-0.83333 -0.40625,-1.09375c-0.27083,-0.27083 -0.70833,-0.40625 -1.3125,-0.40625c-0.42708,0 -0.78125,0.08854 -1.0625,0.26563c-0.27083,0.17708 -0.45833,0.40104 -0.5625,0.67188c-0.0625,0.14583 -0.16667,0.21875 -0.3125,0.21875h-0.65625c-0.10417,0 -0.18229,-0.03125 -0.23437,-0.09375c-0.05208,-0.0625 -0.07812,-0.13542 -0.07812,-0.21875c0,-0.14583 0.05208,-0.32812 0.15625,-0.54687c0.11458,-0.21875 0.28646,-0.42708 0.51563,-0.625c0.23958,-0.20833 0.54167,-0.38021 0.90625,-0.51562c0.36458,-0.14583 0.8125,-0.21875 1.34375,-0.21875c0.58333,0 1.07292,0.07813 1.46875,0.23438c0.40625,0.14583 0.72396,0.34896 0.95313,0.60938c0.22917,0.25 0.39583,0.53646 0.5,0.85938c0.10417,0.32292 0.15625,0.65104 0.15625,0.98438v4.73438c0,0.10417 -0.03125,0.1875 -0.09375,0.25c-0.0625,0.0625 -0.14062,0.09375 -0.23437,0.09375h-0.6875c-0.10417,0 -0.1875,-0.03125 -0.25,-0.09375c-0.05208,-0.0625 -0.07812,-0.14583 -0.07812,-0.25v-0.625c-0.125,0.17708 -0.29687,0.35417 -0.51562,0.53125c-0.21875,0.16667 -0.48958,0.30729 -0.8125,0.42188c-0.32292,0.10417 -0.71875,0.15625 -1.1875,0.15625zM193.37721,184.23433c0.40625,0 0.77083,-0.08333 1.09375,-0.25c0.33333,-0.17708 0.59375,-0.44271 0.78125,-0.79687c0.19792,-0.36458 0.29688,-0.82292 0.29688,-1.375v-0.40625l-1.70312,0.25c-0.6875,0.09375 -1.20833,0.25521 -1.5625,0.48438c-0.35417,0.22917 -0.53125,0.52083 -0.53125,0.875c0,0.27083 0.07813,0.5 0.23438,0.6875c0.16667,0.17708 0.375,0.3125 0.625,0.40625c0.25,0.08333 0.50521,0.125 0.76563,0.125zM202.10811,185.32808c-0.6875,0 -1.28646,-0.13021 -1.79687,-0.39062c-0.5,-0.27083 -0.88542,-0.65625 -1.15625,-1.15625c-0.27083,-0.51042 -0.41667,-1.11458 -0.4375,-1.8125c-0.01042,-0.14583 -0.01562,-0.33854 -0.01562,-0.57812c0,-0.25 0.00521,-0.44792 0.01563,-0.59375c0.02083,-0.70833 0.16667,-1.3125 0.4375,-1.8125c0.27083,-0.51042 0.65625,-0.89583 1.15625,-1.15625c0.51042,-0.27083 1.10938,-0.40625 1.79688,-0.40625c0.57292,0 1.0625,0.07813 1.46875,0.23438c0.40625,0.15625 0.73958,0.35938 1,0.60938c0.26042,0.23958 0.45833,0.5 0.59375,0.78125c0.13542,0.28125 0.20833,0.55208 0.21875,0.8125c0.01042,0.09375 -0.02083,0.17188 -0.09375,0.23438c-0.07292,0.05208 -0.15625,0.07813 -0.25,0.07813h-0.70312c-0.09375,0 -0.16667,-0.02083 -0.21875,-0.0625c-0.05208,-0.04167 -0.09896,-0.11979 -0.14062,-0.23437c-0.17708,-0.47917 -0.42187,-0.8125 -0.73437,-1c-0.30208,-0.19792 -0.67708,-0.29687 -1.125,-0.29687c-0.58333,0 -1.05729,0.18229 -1.42187,0.54688c-0.36458,0.35417 -0.5625,0.93229 -0.59375,1.73438c-0.01042,0.35417 -0.01042,0.69792 0,1.03125c0.03125,0.8125 0.22917,1.39583 0.59375,1.75c0.36458,0.35417 0.83854,0.53125 1.42188,0.53125c0.44792,0 0.82292,-0.09375 1.125,-0.28125c0.3125,-0.19792 0.55729,-0.53646 0.73438,-1.01562c0.04167,-0.11458 0.08854,-0.19271 0.14063,-0.23437c0.05208,-0.05208 0.125,-0.07812 0.21875,-0.07812h0.70313c0.09375,0 0.17708,0.03125 0.25,0.09375c0.07292,0.0625 0.10417,0.14583 0.09375,0.25c-0.01042,0.19792 -0.05729,0.40625 -0.14062,0.625c-0.07292,0.21875 -0.19792,0.4375 -0.375,0.65625c-0.16667,0.21875 -0.38021,0.41667 -0.64062,0.59375c-0.25,0.16667 -0.55208,0.30208 -0.90625,0.40625c-0.35417,0.09375 -0.76042,0.14063 -1.21875,0.14063zM207.47966,185.18744c-0.09375,0 -0.17708,-0.03125 -0.25,-0.09375c-0.0625,-0.0625 -0.09375,-0.14583 -0.09375,-0.25v-9.71875c0,-0.10417 0.03125,-0.1875 0.09375,-0.25c0.07292,-0.0625 0.15625,-0.09375 0.25,-0.09375h0.73438c0.10417,0 0.18229,0.03125 0.23438,0.09375c0.0625,0.0625 0.09375,0.14583 0.09375,0.25v3.40625c0.27083,-0.33333 0.59375,-0.59896 0.96875,-0.79687c0.38542,-0.20833 0.86979,-0.3125 1.45313,-0.3125c0.63542,0 1.17188,0.14063 1.60938,0.42188c0.44792,0.27083 0.78646,0.65625 1.01563,1.15625c0.23958,0.48958 0.35938,1.0625 0.35938,1.71875v4.125c0,0.10417 -0.03125,0.1875 -0.09375,0.25c-0.0625,0.0625 -0.14583,0.09375 -0.25,0.09375h-0.73437c-0.09375,0 -0.17187,-0.03125 -0.23437,-0.09375c-0.0625,-0.0625 -0.09375,-0.14583 -0.09375,-0.25v-4.04687c0,-0.6875 -0.16667,-1.22396 -0.5,-1.60937c-0.33333,-0.38542 -0.82292,-0.57812 -1.46875,-0.57812c-0.60417,0 -1.09375,0.19271 -1.46875,0.57813c-0.375,0.38542 -0.5625,0.92188 -0.5625,1.60938v4.04688c0,0.10417 -0.03125,0.1875 -0.09375,0.25c-0.05208,0.0625 -0.13021,0.09375 -0.23437,0.09375zM221.33067,185.18744c-0.125,0 -0.22396,-0.03125 -0.29687,-0.09375c-0.0625,-0.0625 -0.11979,-0.15104 -0.17187,-0.26562l-2.07812,-6.8125c-0.02083,-0.04167 -0.03125,-0.08854 -0.03125,-0.14062c0,-0.09375 0.03125,-0.16667 0.09375,-0.21875c0.0625,-0.0625 0.13021,-0.09375 0.20313,-0.09375h0.65625c0.10417,0 0.18229,0.03125 0.23438,0.09375c0.0625,0.05208 0.10417,0.10417 0.125,0.15625l1.625,5.53125l1.75,-5.46875c0.02083,-0.07292 0.0625,-0.14062 0.125,-0.20312c0.0625,-0.07292 0.15625,-0.10937 0.28125,-0.10937h0.5c0.125,0 0.21875,0.03646 0.28125,0.10938c0.07292,0.0625 0.11458,0.13021 0.125,0.20313l1.75,5.46875l1.625,-5.53125c0.01042,-0.05208 0.04167,-0.10417 0.09375,-0.15625c0.0625,-0.0625 0.15104,-0.09375 0.26563,-0.09375h0.65625c0.07292,0 0.14063,0.03125 0.20313,0.09375c0.0625,0.05208 0.09375,0.125 0.09375,0.21875c0,0.05208 -0.01042,0.09896 -0.03125,0.14063l-2.07812,6.8125c-0.03125,0.11458 -0.08333,0.20313 -0.15625,0.26563c-0.0625,0.0625 -0.17187,0.09375 -0.32812,0.09375h-0.5625c-0.125,0 -0.22917,-0.03125 -0.3125,-0.09375c-0.08333,-0.0625 -0.14062,-0.15104 -0.17187,-0.26562l-1.70312,-5.25l-1.70312,5.25c-0.03125,0.11458 -0.08854,0.20313 -0.17187,0.26563c-0.07292,0.0625 -0.18229,0.09375 -0.32812,0.09375zM231.39754,185.18744c-0.09375,0 -0.17708,-0.03125 -0.25,-0.09375c-0.0625,-0.0625 -0.09375,-0.14583 -0.09375,-0.25v-6.9375c0,-0.10417 0.03125,-0.1875 0.09375,-0.25c0.07292,-0.0625 0.15625,-0.09375 0.25,-0.09375h0.70313c0.09375,0 0.17188,0.03125 0.23438,0.09375c0.07292,0.0625 0.10938,0.14583 0.10938,0.25v6.9375c0,0.10417 -0.03646,0.1875 -0.10937,0.25c-0.0625,0.0625 -0.14062,0.09375 -0.23437,0.09375zM231.27254,176.14058c-0.09375,0 -0.17187,-0.03125 -0.23437,-0.09375c-0.0625,-0.0625 -0.09375,-0.14062 -0.09375,-0.23437v-0.79687c0,-0.09375 0.03125,-0.17187 0.09375,-0.23437c0.0625,-0.07292 0.14063,-0.10937 0.23438,-0.10937h0.9375c0.09375,0 0.17188,0.03646 0.23438,0.10938c0.07292,0.0625 0.10938,0.14063 0.10938,0.23438v0.79688c0,0.09375 -0.03646,0.17188 -0.10937,0.23438c-0.0625,0.0625 -0.14062,0.09375 -0.23437,0.09375zM234.94438,185.18744c-0.09375,0 -0.17708,-0.03125 -0.25,-0.09375c-0.0625,-0.0625 -0.09375,-0.14583 -0.09375,-0.25v-6.9375c0,-0.10417 0.03125,-0.1875 0.09375,-0.25c0.07292,-0.0625 0.15625,-0.09375 0.25,-0.09375h0.6875c0.09375,0 0.17188,0.03125 0.23438,0.09375c0.07292,0.0625 0.10938,0.14583 0.10938,0.25v0.64063c0.25,-0.33333 0.56771,-0.60417 0.95313,-0.8125c0.38542,-0.20833 0.8802,-0.3125 1.48434,-0.3125c0.63542,0 1.17708,0.14063 1.625,0.42188c0.44792,0.27083 0.78646,0.65625 1.01563,1.15625c0.22917,0.48958 0.34375,1.0625 0.34375,1.71875v4.125c0,0.10417 -0.03125,0.1875 -0.09375,0.25c-0.0625,0.0625 -0.14583,0.09375 -0.25,0.09375h-0.73437c-0.09375,0 -0.17187,-0.03125 -0.23437,-0.09375c-0.0625,-0.0625 -0.09375,-0.14583 -0.09375,-0.25v-4.04687c0,-0.6875 -0.16667,-1.22396 -0.5,-1.60937c-0.33333,-0.38542 -0.82292,-0.57812 -1.46875,-0.57812c-0.60415,0 -1.09372,0.19271 -1.46872,0.57813c-0.36458,0.38542 -0.54687,0.92188 -0.54687,1.60938v4.04688c0,0.10417 -0.03125,0.1875 -0.09375,0.25c-0.0625,0.0625 -0.14062,0.09375 -0.23437,0.09375zM249.71373,185.32808c-0.54167,0 -1.01042,-0.06771 -1.40625,-0.20312c-0.38542,-0.13542 -0.70312,-0.29687 -0.95312,-0.48437c-0.23958,-0.19792 -0.42187,-0.39583 -0.54687,-0.59375c-0.125,-0.19792 -0.19271,-0.35417 -0.20312,-0.46875c-0.01042,-0.10417 0.02083,-0.1875 0.09375,-0.25c0.08333,-0.0625 0.16667,-0.09375 0.25,-0.09375h0.65625c0.05208,0 0.09375,0.01042 0.125,0.03125c0.03125,0.01042 0.07813,0.05208 0.14063,0.125c0.125,0.13542 0.26563,0.27083 0.42188,0.40625c0.15625,0.13542 0.34896,0.25 0.57813,0.34375c0.22917,0.08333 0.51563,0.125 0.85938,0.125c0.5,0 0.91146,-0.09375 1.23438,-0.28125c0.32292,-0.19792 0.48438,-0.47917 0.48438,-0.84375c0,-0.25 -0.06771,-0.44792 -0.20312,-0.59375c-0.125,-0.14583 -0.35937,-0.27604 -0.70312,-0.39062c-0.33333,-0.11458 -0.79167,-0.23958 -1.375,-0.375c-0.59375,-0.13542 -1.0625,-0.30208 -1.40625,-0.5c-0.33333,-0.19792 -0.57292,-0.4375 -0.71875,-0.71875c-0.14583,-0.28125 -0.21875,-0.59375 -0.21875,-0.9375c0,-0.36458 0.10417,-0.71354 0.3125,-1.04687c0.21875,-0.34375 0.53646,-0.61979 0.95313,-0.82812c0.41667,-0.21875 0.9375,-0.32812 1.5625,-0.32812c0.5,0 0.93229,0.0625 1.29688,0.1875c0.36458,0.125 0.66146,0.28646 0.89063,0.48438c0.23958,0.1875 0.41667,0.375 0.53125,0.5625c0.11458,0.17708 0.17708,0.33333 0.1875,0.46875c0.01042,0.09375 -0.02083,0.17188 -0.09375,0.23438c-0.0625,0.0625 -0.13542,0.09375 -0.21875,0.09375h-0.625c-0.0625,0 -0.11979,-0.01042 -0.17187,-0.03125c-0.04167,-0.03125 -0.08333,-0.06771 -0.125,-0.10937c-0.09375,-0.125 -0.20833,-0.25 -0.34375,-0.375c-0.125,-0.13542 -0.29687,-0.24479 -0.51562,-0.32812c-0.20833,-0.08333 -0.47917,-0.125 -0.8125,-0.125c-0.48958,0 -0.85937,0.10417 -1.10937,0.3125c-0.23958,0.20833 -0.35937,0.46875 -0.35937,0.78125c0,0.1875 0.05208,0.35417 0.15625,0.5c0.10417,0.14583 0.30729,0.27604 0.60938,0.39063c0.3125,0.11458 0.76563,0.23958 1.35938,0.375c0.64583,0.13542 1.15104,0.3125 1.51563,0.53125c0.375,0.20833 0.64063,0.45313 0.79688,0.73438c0.15625,0.28125 0.23438,0.60938 0.23438,0.98438c0,0.40625 -0.11979,0.78125 -0.35937,1.125c-0.22917,0.34375 -0.57812,0.61458 -1.04687,0.8125c-0.46875,0.19792 -1.04687,0.29688 -1.73437,0.29688zM257.51752,185.18744c-0.55208,0 -1,-0.10417 -1.34375,-0.3125c-0.33333,-0.20833 -0.57812,-0.50521 -0.73437,-0.89062c-0.15625,-0.38542 -0.23437,-0.84375 -0.23437,-1.375v-3.875h-1.15625c-0.09375,0 -0.17187,-0.03125 -0.23437,-0.09375c-0.0625,-0.0625 -0.09375,-0.14062 -0.09375,-0.23437v-0.5c0,-0.10417 0.03125,-0.1875 0.09375,-0.25c0.0625,-0.0625 0.14063,-0.09375 0.23438,-0.09375h1.15625v-2.4375c0,-0.10417 0.03125,-0.1875 0.09375,-0.25c0.0625,-0.0625 0.14063,-0.09375 0.23438,-0.09375h0.6875c0.10417,0 0.1875,0.03125 0.25,0.09375c0.0625,0.0625 0.09375,0.14583 0.09375,0.25v2.4375h1.8125c0.10417,0 0.1875,0.03125 0.25,0.09375c0.0625,0.0625 0.09375,0.14583 0.09375,0.25v0.5c0,0.09375 -0.03125,0.17188 -0.09375,0.23438c-0.0625,0.0625 -0.14583,0.09375 -0.25,0.09375h-1.8125v3.76563c0,0.45833 0.07813,0.82292 0.23438,1.09375c0.15625,0.26042 0.43229,0.39063 0.82813,0.39063h0.90625c0.09375,0 0.17188,0.03125 0.23438,0.09375c0.0625,0.0625 0.09375,0.14583 0.09375,0.25v0.51563c0,0.10417 -0.03125,0.1875 -0.09375,0.25c-0.0625,0.0625 -0.14062,0.09375 -0.23437,0.09375zM260.60753,185.18744c-0.09375,0 -0.17708,-0.03125 -0.25,-0.09375c-0.0625,-0.0625 -0.09375,-0.14583 -0.09375,-0.25v-6.92187c0,-0.10417 0.03125,-0.1875 0.09375,-0.25c0.07292,-0.07292 0.15625,-0.10937 0.25,-0.10937h0.67188c0.10417,0 0.1875,0.03646 0.25,0.10938c0.07292,0.0625 0.10938,0.14583 0.10938,0.25v0.64063c0.1875,-0.33333 0.45313,-0.58333 0.79688,-0.75c0.34375,-0.16667 0.76042,-0.25 1.25,-0.25h0.57813c0.09375,0 0.17188,0.03125 0.23438,0.09375c0.0625,0.0625 0.09375,0.14583 0.09375,0.25v0.59375c0,0.10417 -0.03125,0.1875 -0.09375,0.25c-0.0625,0.05208 -0.14062,0.07813 -0.23437,0.07813h-0.89062c-0.52083,0 -0.9375,0.15625 -1.25,0.46875c-0.30208,0.30208 -0.45312,0.71875 -0.45312,1.25v4.29688c0,0.10417 -0.03646,0.1875 -0.10937,0.25c-0.0625,0.0625 -0.14062,0.09375 -0.23437,0.09375zM268.74901,185.32808c-1.02083,0 -1.82812,-0.30729 -2.42187,-0.92187c-0.59375,-0.625 -0.92187,-1.47396 -0.98437,-2.54687c-0.01042,-0.125 -0.01562,-0.28646 -0.01562,-0.48437c0,-0.20833 0.00521,-0.375 0.01563,-0.5c0.04167,-0.6875 0.20313,-1.29167 0.48438,-1.8125c0.28125,-0.53125 0.66667,-0.9375 1.15625,-1.21875c0.5,-0.28125 1.08333,-0.42187 1.75,-0.42187c0.73958,0 1.35938,0.15625 1.85938,0.46875c0.5,0.3125 0.88021,0.76042 1.14063,1.34375c0.27085,0.57292 0.40628,1.24479 0.40628,2.01563v0.25c0,0.10417 -0.03125,0.1875 -0.09375,0.25c-0.0625,0.05208 -0.14064,0.07813 -0.23441,0.07813h-5.07812c0,0.01042 0,0.03125 0,0.0625c0,0.03125 0,0.05729 0,0.07813c0.02083,0.39583 0.10938,0.77083 0.26563,1.125c0.15625,0.34375 0.38021,0.625 0.67188,0.84375c0.30208,0.20833 0.65625,0.3125 1.0625,0.3125c0.34375,0 0.63021,-0.05208 0.85938,-0.15625c0.23958,-0.11458 0.43229,-0.23437 0.57813,-0.35937c0.15625,-0.13542 0.25521,-0.23958 0.29688,-0.3125c0.09375,-0.125 0.16146,-0.19792 0.20313,-0.21875c0.05208,-0.02083 0.13021,-0.03125 0.23438,-0.03125h0.71875c0.09375,0 0.17189,0.02604 0.23441,0.07813c0.0625,0.05208 0.08854,0.125 0.07813,0.21875c-0.01042,0.14583 -0.08855,0.32813 -0.23441,0.54688c-0.14583,0.20833 -0.35417,0.41667 -0.625,0.625c-0.27083,0.19792 -0.60417,0.36458 -1,0.5c-0.39583,0.125 -0.83854,0.1875 -1.32813,0.1875zM266.73338,180.81244h4.01563v-0.03125c0,-0.44792 -0.08333,-0.83854 -0.25,-1.17187c-0.15625,-0.34375 -0.38542,-0.61458 -0.6875,-0.8125c-0.30208,-0.20833 -0.66146,-0.3125 -1.07812,-0.3125c-0.42708,0 -0.79167,0.10417 -1.09375,0.3125c-0.29167,0.19792 -0.51562,0.46875 -0.67187,0.8125c-0.15625,0.33333 -0.23437,0.72396 -0.23437,1.17188zM276.01905,185.32808c-0.47917,0 -0.92187,-0.09375 -1.32812,-0.28125c-0.39583,-0.19792 -0.71875,-0.46354 -0.96875,-0.79687c-0.23958,-0.33333 -0.35937,-0.70833 -0.35937,-1.125c0,-0.67708 0.27083,-1.21354 0.8125,-1.60937c0.55208,-0.40625 1.26563,-0.67187 2.14063,-0.79687l2.1875,-0.3125v-0.42187c0,-0.46875 -0.13542,-0.83333 -0.40625,-1.09375c-0.27083,-0.27083 -0.70833,-0.40625 -1.3125,-0.40625c-0.42708,0 -0.78125,0.08854 -1.0625,0.26563c-0.27083,0.17708 -0.45833,0.40104 -0.5625,0.67188c-0.0625,0.14583 -0.16667,0.21875 -0.3125,0.21875h-0.65625c-0.10417,0 -0.18229,-0.03125 -0.23437,-0.09375c-0.05208,-0.0625 -0.07812,-0.13542 -0.07812,-0.21875c0,-0.14583 0.05208,-0.32812 0.15625,-0.54687c0.11458,-0.21875 0.28646,-0.42708 0.51563,-0.625c0.23958,-0.20833 0.54167,-0.38021 0.90625,-0.51562c0.36458,-0.14583 0.8125,-0.21875 1.34375,-0.21875c0.58333,0 1.07292,0.07813 1.46875,0.23438c0.40625,0.14583 0.72396,0.34896 0.95313,0.60938c0.22917,0.25 0.39583,0.53646 0.5,0.85938c0.10417,0.32292 0.15625,0.65104 0.15625,0.98438v4.73438c0,0.10417 -0.03125,0.1875 -0.09375,0.25c-0.0625,0.0625 -0.14062,0.09375 -0.23437,0.09375h-0.6875c-0.10417,0 -0.1875,-0.03125 -0.25,-0.09375c-0.05208,-0.0625 -0.07812,-0.14583 -0.07812,-0.25v-0.625c-0.125,0.17708 -0.29687,0.35417 -0.51562,0.53125c-0.21875,0.16667 -0.48958,0.30729 -0.8125,0.42188c-0.32292,0.10417 -0.71875,0.15625 -1.1875,0.15625zM276.33155,184.23433c0.40625,0 0.77083,-0.08333 1.09375,-0.25c0.33333,-0.17708 0.59375,-0.44271 0.78125,-0.79687c0.19792,-0.36458 0.29688,-0.82292 0.29688,-1.375v-0.40625l-1.70312,0.25c-0.6875,0.09375 -1.20833,0.25521 -1.5625,0.48438c-0.35417,0.22917 -0.53125,0.52083 -0.53125,0.875c0,0.27083 0.07813,0.5 0.23438,0.6875c0.16667,0.17708 0.375,0.3125 0.625,0.40625c0.25,0.08333 0.50521,0.125 0.76563,0.125zM282.3437,185.18744c-0.09375,0 -0.17708,-0.03125 -0.25,-0.09375c-0.0625,-0.0625 -0.09375,-0.14583 -0.09375,-0.25v-9.71875c0,-0.10417 0.03125,-0.1875 0.09375,-0.25c0.07292,-0.0625 0.15625,-0.09375 0.25,-0.09375h0.6875c0.09375,0 0.17188,0.03125 0.23438,0.09375c0.07292,0.0625 0.10938,0.14583 0.10938,0.25v5.09375l2.875,-2.40625c0.125,-0.09375 0.21875,-0.15625 0.28125,-0.1875c0.0625,-0.04167 0.16667,-0.0625 0.3125,-0.0625h0.78125c0.08333,0 0.15104,0.03125 0.20313,0.09375c0.0625,0.05208 0.09375,0.125 0.09375,0.21875c0,0.04167 -0.01042,0.08854 -0.03125,0.14063c-0.02083,0.04167 -0.06771,0.08854 -0.14062,0.14063l-3.39062,2.8125l3.75,3.64063c0.125,0.10417 0.1875,0.19271 0.1875,0.26563c0,0.09375 -0.03125,0.17188 -0.09375,0.23438c-0.0625,0.05208 -0.13542,0.07813 -0.21875,0.07813h-0.76562c-0.14583,0 -0.25521,-0.01562 -0.32812,-0.04687c-0.0625,-0.04167 -0.14583,-0.10937 -0.25,-0.20312l-3.26562,-3.125v3.03125c0,0.10417 -0.03646,0.1875 -0.10937,0.25c-0.0625,0.0625 -0.14062,0.09375 -0.23437,0.09375zM295.95984,185.18744c-0.09375,0 -0.17708,-0.03125 -0.25,-0.09375c-0.0625,-0.0625 -0.09375,-0.14583 -0.09375,-0.25v-8.20312l-2.42187,1.875c-0.08333,0.0625 -0.17187,0.08854 -0.26562,0.07813c-0.08333,-0.01042 -0.15104,-0.05729 -0.20312,-0.14062l-0.39062,-0.46875c-0.05208,-0.09375 -0.07292,-0.18229 -0.0625,-0.26562c0.01042,-0.09375 0.05729,-0.16667 0.14063,-0.21875l3.1875,-2.46875c0.07292,-0.05208 0.13542,-0.08333 0.1875,-0.09375c0.0625,-0.01042 0.13021,-0.01562 0.20313,-0.01562h0.75c0.09375,0 0.17188,0.03646 0.23438,0.10938c0.0625,0.0625 0.09375,0.14063 0.09375,0.23438v9.57813c0,0.10417 -0.03125,0.1875 -0.09375,0.25c-0.0625,0.0625 -0.14062,0.09375 -0.23437,0.09375zM302.82655,185.32808c-0.66667,0 -1.23437,-0.10417 -1.70312,-0.3125c-0.45833,-0.20833 -0.83854,-0.49479 -1.14062,-0.85937c-0.29167,-0.375 -0.50521,-0.80208 -0.64062,-1.28125c-0.125,-0.47917 -0.19792,-0.98958 -0.21875,-1.53125c-0.01042,-0.26042 -0.02083,-0.53646 -0.03125,-0.82812c0,-0.29167 0,-0.58854 0,-0.89062c0.01042,-0.3125 0.02083,-0.60417 0.03125,-0.875c0.01042,-0.53125 0.08333,-1.03646 0.21875,-1.51562c0.14583,-0.47917 0.36458,-0.90104 0.65625,-1.26562c0.29167,-0.375 0.67188,-0.66667 1.14063,-0.875c0.46875,-0.20833 1.03125,-0.3125 1.6875,-0.3125c0.67708,0 1.24479,0.10417 1.70313,0.3125c0.46875,0.20833 0.84896,0.5 1.14063,0.875c0.29167,0.36458 0.51042,0.78646 0.65625,1.26563c0.14583,0.47917 0.22396,0.98438 0.23438,1.51563c0.01042,0.27083 0.01563,0.5625 0.01563,0.875c0,0.30208 0,0.59896 0,0.89063c0,0.29167 -0.00521,0.56771 -0.01562,0.82813c-0.01042,0.54167 -0.08854,1.05208 -0.23437,1.53125c-0.14583,0.47917 -0.36458,0.90625 -0.65625,1.28125c-0.28125,0.36458 -0.65625,0.65104 -1.125,0.85938c-0.45833,0.20833 -1.03125,0.3125 -1.71875,0.3125zM302.82655,184.07808c0.77083,0 1.33854,-0.25 1.70313,-0.75c0.36458,-0.5 0.55208,-1.18229 0.5625,-2.04687c0.02083,-0.29167 0.03125,-0.56771 0.03125,-0.82812c0,-0.27083 0,-0.54167 0,-0.8125c0,-0.27083 -0.01042,-0.53646 -0.03125,-0.79687c-0.01042,-0.85417 -0.19792,-1.53646 -0.5625,-2.04687c-0.36458,-0.51042 -0.93229,-0.76562 -1.70312,-0.76562c-0.75,0 -1.30729,0.25521 -1.67187,0.76563c-0.36458,0.51042 -0.55729,1.19271 -0.57812,2.04688c0,0.26042 -0.00521,0.52604 -0.01562,0.79688c0,0.27083 0,0.54167 0,0.8125c0.01042,0.26042 0.01563,0.53646 0.01563,0.82813c0.02083,0.86458 0.21354,1.54688 0.57813,2.04688c0.375,0.5 0.93229,0.75 1.67188,0.75z" fill="#ffffff" stroke="#ffffff" stroke-width="0.5" stroke-linecap="square" stroke-linejoin="miter"/></g></g></svg>