<svg version="1.1" xmlns="http://www.w3.org/2000/svg" xmlns:xlink="http://www.w3.org/1999/xlink" width="134" height="134" viewBox="0,0,134,134"><g transform="translate(-173,-113)"><g data-paper-data="{&quot;isPaintingLayer&quot;:true}" fill-rule="nonzero" stroke-linecap="butt" stroke-linejoin="miter" stroke-miterlimit="10" stroke-dasharray="" stroke-dashoffset="0" style="mix-blend-mode: normal"><path d="M212.83335,179.27811c1.1165,-7.54701 3.59871,-11.6624 10.29266,-13.85089c1.83097,-0.59861 2.42215,2.71806 4.94158,2.377c1.78494,-0.24164 4.90442,0.8505 7.53545,-0.38112c1.69715,-0.79447 2.85674,-4.11511 4.44197,-4.16932c15.90648,-0.54407 28.11801,1.55465 27.70011,15.66245c-0.43945,14.83572 -1.57298,18.12002 -28.92549,16.10011c-1.91876,-0.1417 -3.49025,1.40081 -5.55969,1.68107c-3.09919,0.41974 -6.62666,-0.33665 -8.59147,-0.55804c-2.4962,-0.28126 -2.4778,-2.75959 -4.22767,-3.12303c-8.7675,-1.82097 -8.88958,-5.07142 -7.6074,-13.73824z" data-paper-data="{&quot;index&quot;:null}" fill="#9966ff" stroke="#ffffff" stroke-width="5"/><path d="M212.83335,179.27811c1.1165,-7.54701 3.59871,-11.6624 10.29266,-13.85089c1.83097,-0.59861 2.42215,2.71806 4.94158,2.377c1.78494,-0.24164 4.90442,0.8505 7.53545,-0.38112c1.69715,-0.79447 2.85674,-4.11511 4.44197,-4.16932c15.90648,-0.54407 28.11801,1.55465 27.70011,15.66245c-0.43945,14.83572 -1.57298,18.12002 -28.92549,16.10011c-1.91876,-0.1417 -3.49025,1.40081 -5.55969,1.68107c-3.09919,0.41974 -6.62666,-0.33665 -8.59147,-0.55804c-2.4962,-0.28126 -2.4778,-2.75959 -4.22767,-3.12303c-8.7675,-1.82097 -8.88958,-5.07142 -7.6074,-13.73824z" data-paper-data="{&quot;index&quot;:null}" fill="#ff6680" stroke="none" stroke-width="0"/><path d="M231.37456,180.31749c1.07427,-7.26167 4.24101,-9.2657 16.44325,-9.68306c9.61184,-0.32876 16.99093,0.93944 16.73841,9.46439c-0.26555,8.96482 -0.9505,10.94943 -17.47889,9.72885c-16.15489,-1.193 -16.83516,-1.8557 -15.70278,-9.51017z" data-paper-data="{&quot;index&quot;:null}" fill="#ffffff" stroke="none" stroke-width="0"/><path d="M244.55093,178.60274c0.03371,2.44021 -1.01797,4.43329 -2.349,4.45168c-1.33102,0.01838 -2.43735,-1.94489 -2.47106,-4.3851c-0.03371,-2.44021 1.13706,-5.00232 2.349,-4.45168c1.8988,0.86275 2.43735,1.94489 2.47106,4.3851z" data-paper-data="{&quot;index&quot;:null}" fill="#e25a71" stroke="none" stroke-width="0"/><path d="M259.88023,175.10862c1.22883,-0.51182 2.43735,1.94489 2.47106,4.3851c0.03371,2.44021 -1.01797,4.43329 -2.349,4.45168c-1.33103,0.01838 -2.43735,-1.94489 -2.47106,-4.3851c-0.03371,-2.44021 0.14145,-3.5322 2.349,-4.45168z" data-paper-data="{&quot;index&quot;:null}" fill="#e25a71" stroke="none" stroke-width="0"/><path d="M251.41161,183.8135c-4.85276,-0.487 -5.59865,-4.21647 -5.59865,-4.21647c0,0 2.08864,0.6637 4.99498,0.62355c2.90632,-0.04015 5.8144,-0.21883 5.8144,-0.21883c0,0 -2.31864,4.10199 -5.21073,3.81175z" data-paper-data="{&quot;index&quot;:null}" fill="#ff6680" stroke="none" stroke-width="0"/><path d="M173,247v-134h134v134z" fill="none" stroke="none" stroke-width="0"/></g></g></svg>