<svg version="1.1" xmlns="http://www.w3.org/2000/svg" xmlns:xlink="http://www.w3.org/1999/xlink" width="108.87879" height="25.95512" viewBox="0,0,108.87879,25.95512"><g transform="translate(-185.5606,-167.02244)"><g data-paper-data="{&quot;isPaintingLayer&quot;:true}" fill-rule="nonzero" stroke-miterlimit="10" stroke-dasharray="" stroke-dashoffset="0" style="mix-blend-mode: normal"><path d="M198.53816,167.02244h82.92367c7.18957,0 12.97756,5.78799 12.97756,12.97756c0,7.18957 -5.788,12.97756 -12.97756,12.97756h-82.92367c-7.18957,0 -12.97756,-5.78799 -12.97756,-12.97756c0,-7.18957 5.78799,-12.97756 12.97756,-12.97756z" fill="#000000" stroke="none" stroke-width="0.365" stroke-linecap="round" stroke-linejoin="round"/><path d="M205.76267,184.28742c-0.77502,0 -1.42708,-0.11924 -1.95619,-0.3577c-0.52165,-0.24592 -0.92407,-0.55519 -1.20725,-0.92779c-0.27573,-0.38006 -0.42477,-0.77875 -0.44712,-1.19607c0,-0.07452 0.02981,-0.13786 0.08943,-0.19003c0.05962,-0.05962 0.12668,-0.08943 0.20122,-0.08943h0.68188c0.11178,0 0.19375,0.02608 0.24592,0.07826c0.05216,0.05216 0.0857,0.11552 0.1006,0.19003c0.05962,0.20866 0.1714,0.41733 0.33535,0.62598c0.1714,0.20866 0.41359,0.38377 0.72659,0.52538c0.32044,0.13413 0.73031,0.20122 1.22961,0.20122c0.76012,0 1.31903,-0.13413 1.67673,-0.40241c0.36517,-0.26828 0.54773,-0.6297 0.54773,-1.08429c0,-0.31299 -0.09688,-0.56264 -0.29063,-0.74894c-0.1863,-0.19375 -0.47695,-0.36517 -0.8719,-0.5142c-0.38752,-0.15649 -0.89426,-0.32418 -1.52024,-0.50302c-0.64834,-0.1863 -1.18862,-0.39125 -1.62085,-0.6148c-0.42477,-0.22356 -0.74148,-0.49929 -0.95015,-0.8272c-0.20866,-0.3279 -0.31299,-0.74522 -0.31299,-1.25197c0,-0.48439 0.12668,-0.9129 0.38006,-1.28551c0.26084,-0.38006 0.63716,-0.68188 1.12901,-0.90543c0.49185,-0.22356 1.08057,-0.33535 1.76615,-0.33535c0.55146,0 1.03211,0.07452 1.442,0.22356c0.41733,0.14905 0.76385,0.34653 1.03958,0.59244c0.27573,0.23847 0.48439,0.49929 0.62598,0.78247c0.1416,0.28318 0.21611,0.55519 0.22356,0.816c0,0.06706 -0.02236,0.13041 -0.06706,0.19003c-0.04471,0.05216 -0.11552,0.07826 -0.21238,0.07826h-0.70423c-0.06706,0 -0.13413,-0.0149 -0.20122,-0.04471c-0.06706,-0.03726 -0.11552,-0.10433 -0.14532,-0.20122c-0.05962,-0.36517 -0.26828,-0.67069 -0.62598,-0.91662c-0.35025,-0.25337 -0.80856,-0.38006 -1.37493,-0.38006c-0.58128,0 -1.05448,0.11178 -1.41963,0.33535c-0.3577,0.21611 -0.53657,0.56264 -0.53657,1.03958c0,0.29808 0.0857,0.54773 0.25709,0.74894c0.1714,0.20122 0.43967,0.38006 0.80484,0.53657c0.36517,0.14905 0.83837,0.30555 1.41963,0.46948c0.7154,0.20122 1.3004,0.40987 1.75498,0.62598c0.45458,0.21611 0.78993,0.48811 1.00604,0.816c0.21611,0.32044 0.32418,0.73404 0.32418,1.24078c0,0.56636 -0.14905,1.04702 -0.44712,1.442c-0.29063,0.39497 -0.70051,0.69678 -1.22961,0.90543c-0.5291,0.20866 -1.15135,0.31299 -1.86675,0.31299zM211.19158,184.15328c-0.08943,0 -0.16395,-0.02981 -0.22356,-0.08943c-0.05962,-0.05962 -0.08943,-0.13041 -0.08943,-0.21238v-6.32688c0,-0.08943 0.02981,-0.16395 0.08943,-0.22356c0.05962,-0.05962 0.13413,-0.08943 0.22356,-0.08943h0.63716c0.08943,0 0.16395,0.02981 0.22356,0.08943c0.05962,0.05962 0.08943,0.13413 0.08943,0.22356v6.32688c0,0.08197 -0.02981,0.15276 -0.08943,0.21238c-0.05962,0.05962 -0.13413,0.08943 -0.22356,0.08943zM211.0798,175.91491c-0.08943,0 -0.16395,-0.02608 -0.22356,-0.07826c-0.05216,-0.05962 -0.07826,-0.13413 -0.07826,-0.22356v-0.72659c0,-0.08943 0.02608,-0.16395 0.07826,-0.22356c0.05962,-0.05962 0.13413,-0.08943 0.22356,-0.08943h0.83837c0.08943,0 0.16395,0.02981 0.22356,0.08943c0.06706,0.05962 0.1006,0.13413 0.1006,0.22356v0.72659c0,0.08943 -0.03354,0.16395 -0.1006,0.22356c-0.05962,0.05216 -0.13413,0.07826 -0.22356,0.07826zM214.4215,184.15328c-0.08943,0 -0.16395,-0.02981 -0.22356,-0.08943c-0.05962,-0.05962 -0.08943,-0.13041 -0.08943,-0.21238v-6.32688c0,-0.08943 0.02981,-0.16395 0.08943,-0.22356c0.05962,-0.05962 0.13413,-0.08943 0.22356,-0.08943h0.62598c0.08943,0 0.16022,0.02981 0.21238,0.08943c0.05962,0.05962 0.08943,0.13413 0.08943,0.22356v0.58128c0.23101,-0.29808 0.52165,-0.54401 0.8719,-0.73776c0.3577,-0.19375 0.81229,-0.29063 1.36374,-0.29063c0.5738,0 1.06193,0.12668 1.46434,0.38006c0.40987,0.25337 0.71913,0.60736 0.92779,1.06193c0.20866,0.44712 0.31299,0.96878 0.31299,1.56495v3.76706c0,0.08197 -0.02981,0.15276 -0.08943,0.21238c-0.05216,0.05962 -0.12296,0.08943 -0.21238,0.08943h-0.67069c-0.08943,0 -0.16395,-0.02981 -0.22356,-0.08943c-0.05216,-0.05962 -0.07826,-0.13041 -0.07826,-0.21238v-3.7c0,-0.62598 -0.15276,-1.1141 -0.45831,-1.46434c-0.30555,-0.35025 -0.74894,-0.52538 -1.33021,-0.52538c-0.55146,0 -0.99487,0.17513 -1.33021,0.52538c-0.33535,0.35025 -0.50302,0.83837 -0.50302,1.46434v3.7c0,0.08197 -0.02981,0.15276 -0.08943,0.21238c-0.05962,0.05962 -0.13041,0.08943 -0.21238,0.08943zM225.04713,187.09314c-0.61108,0 -1.11037,-0.08197 -1.49789,-0.24592c-0.38006,-0.15649 -0.68188,-0.35025 -0.90543,-0.58128c-0.21611,-0.22356 -0.37261,-0.45087 -0.46948,-0.68188c-0.08943,-0.22356 -0.13786,-0.40241 -0.14532,-0.53657c-0.00745,-0.08943 0.02236,-0.16767 0.08943,-0.23475c0.06706,-0.05962 0.13786,-0.08943 0.21238,-0.08943h0.64834c0.07452,0 0.13786,0.01864 0.19003,0.0559c0.05962,0.03726 0.10433,0.11178 0.13413,0.22356c0.05962,0.13413 0.1416,0.28318 0.24592,0.44712c0.10433,0.1714 0.26828,0.31671 0.49185,0.43595c0.22356,0.11924 0.53657,0.17886 0.93897,0.17886c0.41733,0 0.76758,-0.05962 1.05075,-0.17886c0.28318,-0.11178 0.49929,-0.30555 0.64834,-0.58128c0.14905,-0.27573 0.22356,-0.65951 0.22356,-1.15135v-0.90543c-0.21611,0.27573 -0.49929,0.50674 -0.84955,0.69306c-0.34279,0.17886 -0.77875,0.26828 -1.30785,0.26828c-0.49185,0 -0.91662,-0.0857 -1.27431,-0.25709c-0.3577,-0.17886 -0.65206,-0.41733 -0.88309,-0.7154c-0.22356,-0.29808 -0.39125,-0.63716 -0.50302,-1.01722c-0.11178,-0.38006 -0.17513,-0.78247 -0.19003,-1.20725c-0.00745,-0.24592 -0.00745,-0.48811 0,-0.72659c0.0149,-0.41733 0.07826,-0.816 0.19003,-1.19607c0.11178,-0.38752 0.27945,-0.73031 0.50302,-1.02839c0.23101,-0.30555 0.52538,-0.54401 0.88309,-0.7154c0.3577,-0.17886 0.78247,-0.26828 1.27431,-0.26828c0.53657,0 0.97996,0.1006 1.33021,0.30181c0.35025,0.19375 0.63716,0.43595 0.86072,0.72659v-0.57008c0,-0.08943 0.02981,-0.16395 0.08943,-0.22356c0.05962,-0.06706 0.13413,-0.1006 0.22356,-0.1006h0.6148c0.08943,0 0.16395,0.03354 0.22356,0.1006c0.05962,0.05962 0.08943,0.13413 0.08943,0.22356v6.4722c0,0.59618 -0.1006,1.12527 -0.30181,1.58732c-0.19375,0.46203 -0.52165,0.8272 -0.98369,1.09547c-0.45458,0.26828 -1.06939,0.40241 -1.84441,0.40241zM225.0136,183.13604c0.44712,0 0.80484,-0.1006 1.07311,-0.30181c0.27573,-0.20866 0.47695,-0.46576 0.60363,-0.7713c0.12668,-0.31299 0.19747,-0.6297 0.21238,-0.95015c0.00745,-0.12668 0.01118,-0.27945 0.01118,-0.45831c0,-0.1863 -0.00373,-0.34279 -0.01118,-0.46948c-0.0149,-0.32044 -0.0857,-0.63342 -0.21238,-0.93897c-0.12668,-0.31299 -0.3279,-0.57008 -0.60363,-0.7713c-0.26828,-0.20866 -0.62598,-0.31299 -1.07311,-0.31299c-0.43967,0 -0.79366,0.1006 -1.06193,0.30181c-0.26828,0.20122 -0.46203,0.46576 -0.58128,0.79366c-0.11178,0.32044 -0.17513,0.66698 -0.19003,1.03958c-0.0149,0.23101 -0.0149,0.46576 0,0.70423c0.0149,0.37261 0.07826,0.72287 0.19003,1.05075c0.11924,0.3279 0.31299,0.59244 0.58128,0.79366c0.26828,0.19375 0.62226,0.29063 1.06193,0.29063zM230.4889,184.15328c-0.08943,0 -0.16395,-0.02981 -0.22356,-0.08943c-0.05216,-0.05962 -0.07826,-0.13041 -0.07826,-0.21238v-8.86433c0,-0.08943 0.02608,-0.16395 0.07826,-0.22356c0.05962,-0.05962 0.13413,-0.08943 0.22356,-0.08943h0.62598c0.09688,0 0.1714,0.02981 0.22356,0.08943c0.05962,0.05962 0.08943,0.13413 0.08943,0.22356v8.86433c0,0.08197 -0.02981,0.15276 -0.08943,0.21238c-0.05216,0.05962 -0.12668,0.08943 -0.22356,0.08943zM236.1914,184.28742c-0.92407,0 -1.65811,-0.28318 -2.2021,-0.84955c-0.54401,-0.56636 -0.84209,-1.33766 -0.89426,-2.31389c-0.00745,-0.11924 -0.01118,-0.26828 -0.01118,-0.44712c0,-0.1863 0.00373,-0.33535 0.01118,-0.44712c0.02981,-0.63342 0.17513,-1.18862 0.43595,-1.66556c0.26084,-0.47695 0.6148,-0.84209 1.06193,-1.09547c0.44712,-0.26084 0.97624,-0.39125 1.58732,-0.39125c0.67069,0 1.23333,0.14532 1.68792,0.43595c0.46203,0.28318 0.81229,0.68559 1.05075,1.20725c0.24592,0.52165 0.36888,1.13645 0.36888,1.84441v0.22356c0,0.09688 -0.02981,0.17513 -0.08943,0.23475c-0.05962,0.05216 -0.13413,0.07826 -0.22356,0.07826h-4.61661c0,0.00745 0,0.02608 0,0.0559c0,0.02236 0,0.04098 0,0.0559c0.02236,0.36517 0.10433,0.70796 0.24592,1.02839c0.1416,0.31299 0.34653,0.57008 0.6148,0.7713c0.27573,0.19375 0.59618,0.29063 0.96132,0.29063c0.31299,0 0.57755,-0.04844 0.79366,-0.14532c0.21611,-0.10433 0.39125,-0.21611 0.52538,-0.33535c0.13413,-0.11924 0.22356,-0.21238 0.26828,-0.27945c0.07452,-0.11178 0.13413,-0.17886 0.17886,-0.20122c0.04471,-0.02236 0.11552,-0.03354 0.21238,-0.03354h0.65951c0.08197,0 0.14905,0.02608 0.20122,0.07826c0.05962,0.04471 0.0857,0.11178 0.07826,0.20122c-0.00745,0.13413 -0.07826,0.29808 -0.21238,0.49185c-0.13413,0.19375 -0.32418,0.38377 -0.57008,0.57008c-0.24592,0.1863 -0.54773,0.33907 -0.90543,0.45831c-0.3577,0.11924 -0.76385,0.17886 -1.21842,0.17886zM234.35817,180.17382h3.65529v-0.03354c0,-0.40241 -0.07452,-0.76012 -0.22356,-1.07311c-0.1416,-0.31299 -0.35025,-0.55891 -0.62598,-0.73776c-0.27573,-0.1863 -0.60363,-0.27945 -0.98369,-0.27945c-0.38752,0 -0.71913,0.09315 -0.99487,0.27945c-0.26828,0.17886 -0.47321,0.42477 -0.6148,0.73776c-0.1416,0.31299 -0.21238,0.67069 -0.21238,1.07311zM241.20641,186.69074c-0.08943,0 -0.16395,-0.02981 -0.22356,-0.08943c-0.05216,-0.05962 -0.07826,-0.13413 -0.07826,-0.22356v-8.85315c0,-0.08943 0.02608,-0.16395 0.07826,-0.22356c0.05962,-0.05962 0.13413,-0.08943 0.22356,-0.08943h0.6148c0.08943,0 0.16022,0.02981 0.21238,0.08943c0.05962,0.05962 0.08943,0.13413 0.08943,0.22356v0.58128c0.21611,-0.29063 0.50302,-0.53282 0.86072,-0.72659c0.3577,-0.20122 0.8011,-0.30181 1.33021,-0.30181c0.49929,0 0.92407,0.0857 1.27431,0.25709c0.35025,0.1714 0.63716,0.40241 0.86072,0.69306c0.23101,0.29063 0.40241,0.62598 0.5142,1.00604c0.11924,0.37261 0.19003,0.7713 0.21238,1.19607c0.00745,0.1416 0.01118,0.29437 0.01118,0.45831c0,0.15649 -0.00373,0.30555 -0.01118,0.44712c-0.02236,0.41733 -0.09315,0.816 -0.21238,1.19607c-0.11178,0.38006 -0.28318,0.7154 -0.5142,1.00604c-0.22356,0.28318 -0.51046,0.5142 -0.86072,0.69306c-0.35025,0.1714 -0.77502,0.25709 -1.27431,0.25709c-0.5142,0 -0.94642,-0.09315 -1.29668,-0.27945c-0.35025,-0.19375 -0.63716,-0.43595 -0.86072,-0.72659v3.09637c0,0.08943 -0.02981,0.16395 -0.08943,0.22356c-0.05216,0.05962 -0.11924,0.08943 -0.20122,0.08943zM244.03449,183.20313c0.46203,0 0.82346,-0.1006 1.08429,-0.30181c0.26828,-0.20122 0.45831,-0.46203 0.57008,-0.78247c0.11924,-0.3279 0.1863,-0.67814 0.20122,-1.05075c0.00745,-0.25337 0.00745,-0.51046 0,-0.7713c-0.0149,-0.37261 -0.08197,-0.71913 -0.20122,-1.03958c-0.11178,-0.3279 -0.30181,-0.59244 -0.57008,-0.79366c-0.26084,-0.20122 -0.62226,-0.30181 -1.08429,-0.30181c-0.43223,0 -0.78621,0.10433 -1.06193,0.31299c-0.26828,0.20122 -0.46948,0.46203 -0.60363,0.78247c-0.12668,0.31299 -0.19747,0.63342 -0.21238,0.96132c-0.00745,0.1416 -0.01118,0.30927 -0.01118,0.50302c0,0.19375 0.00373,0.36888 0.01118,0.52538c0.00745,0.30555 0.07826,0.61108 0.21238,0.91662c0.1416,0.30555 0.35025,0.55519 0.62598,0.74894c0.27573,0.19375 0.62226,0.29063 1.03958,0.29063zM249.16109,184.15328c-0.08943,0 -0.16395,-0.02981 -0.22356,-0.08943c-0.05216,-0.05962 -0.07826,-0.13041 -0.07826,-0.21238v-8.86433c0,-0.08943 0.02608,-0.16395 0.07826,-0.22356c0.05962,-0.05962 0.13413,-0.08943 0.22356,-0.08943h0.62598c0.09688,0 0.1714,0.02981 0.22356,0.08943c0.05962,0.05962 0.08943,0.13413 0.08943,0.22356v8.86433c0,0.08197 -0.02981,0.15276 -0.08943,0.21238c-0.05216,0.05962 -0.12668,0.08943 -0.22356,0.08943zM254.01404,184.28742c-0.43967,0 -0.84209,-0.08943 -1.20725,-0.26828c-0.36517,-0.17886 -0.65951,-0.41733 -0.88309,-0.7154c-0.22356,-0.30555 -0.33535,-0.64834 -0.33535,-1.02839c0,-0.61853 0.24965,-1.11037 0.74894,-1.47553c0.49929,-0.36517 1.14763,-0.60363 1.94501,-0.7154l1.98973,-0.27945v-0.39125c0,-0.42477 -0.12296,-0.7564 -0.36888,-0.99487c-0.23847,-0.24592 -0.63342,-0.36888 -1.18489,-0.36888c-0.39497,0 -0.71913,0.08197 -0.97249,0.24592c-0.24592,0.15649 -0.41733,0.36143 -0.5142,0.6148c-0.05216,0.13413 -0.14532,0.20122 -0.27945,0.20122h-0.60363c-0.09688,0 -0.1714,-0.02981 -0.22356,-0.08943c-0.04471,-0.05962 -0.06706,-0.13041 -0.06706,-0.21238c0,-0.13413 0.04844,-0.29808 0.14532,-0.49185c0.10433,-0.19375 0.26456,-0.38377 0.48067,-0.57008c0.21611,-0.1863 0.48811,-0.34279 0.816,-0.46948c0.33535,-0.13413 0.74522,-0.20122 1.22961,-0.20122c0.5291,0 0.97624,0.07079 1.34138,0.21238c0.36517,0.13413 0.65206,0.31671 0.86072,0.54773c0.20866,0.23101 0.36143,0.49557 0.45831,0.79366c0.09688,0.29063 0.14532,0.58872 0.14532,0.89426v4.32597c0,0.08197 -0.02981,0.15276 -0.08943,0.21238c-0.05962,0.05962 -0.13413,0.08943 -0.22356,0.08943h-0.6148c-0.09688,0 -0.1714,-0.02981 -0.22356,-0.08943c-0.05216,-0.05962 -0.07826,-0.13041 -0.07826,-0.21238v-0.58128c-0.11924,0.16395 -0.27573,0.32418 -0.46948,0.48067c-0.19375,0.14905 -0.43967,0.27573 -0.73776,0.38006c-0.29063,0.10433 -0.65206,0.15649 -1.08429,0.15649zM254.30467,183.28136c0.36517,0 0.69678,-0.07452 0.99487,-0.22356c0.30555,-0.15649 0.54401,-0.39869 0.7154,-0.72659c0.1714,-0.33535 0.25709,-0.75267 0.25709,-1.25197v-0.36888l-1.5426,0.22356c-0.63342,0.08943 -1.11037,0.23847 -1.43081,0.44712c-0.32044,0.20866 -0.48067,0.47321 -0.48067,0.79366c0,0.25337 0.07079,0.46203 0.21238,0.62598c0.14905,0.16395 0.33535,0.28691 0.55891,0.36888c0.23101,0.07452 0.46948,0.11178 0.7154,0.11178zM260.51917,186.69074c-0.07452,0 -0.13786,-0.02608 -0.19003,-0.07826c-0.05216,-0.05216 -0.07826,-0.11552 -0.07826,-0.19003c0,-0.03726 0.00373,-0.07452 0.01118,-0.11178c0.0149,-0.02981 0.03354,-0.07452 0.0559,-0.13413l1.02839,-2.43686l-2.54864,-6.02506c-0.04471,-0.10433 -0.06706,-0.17886 -0.06706,-0.22356c0,-0.08197 0.02608,-0.14905 0.07826,-0.20122c0.05216,-0.05216 0.11924,-0.07826 0.20122,-0.07826h0.65951c0.09688,0 0.16767,0.02236 0.21238,0.06706c0.04471,0.04471 0.07826,0.09688 0.1006,0.15649l2.03444,4.86254l2.07914,-4.86254c0.02981,-0.05962 0.06706,-0.11178 0.11178,-0.15649c0.05216,-0.04471 0.12668,-0.06706 0.22356,-0.06706h0.62598c0.08197,0 0.14905,0.02608 0.20122,0.07826c0.05216,0.05216 0.07826,0.11552 0.07826,0.19003c0,0.04471 -0.02236,0.12296 -0.06706,0.23475l-3.78942,8.75256c-0.02981,0.05962 -0.07079,0.11178 -0.12296,0.15649c-0.04471,0.04471 -0.11552,0.06706 -0.21238,0.06706zM269.21115,184.28742c-0.92407,0 -1.65811,-0.28318 -2.2021,-0.84955c-0.54401,-0.56636 -0.84209,-1.33766 -0.89426,-2.31389c-0.00745,-0.11924 -0.01118,-0.26828 -0.01118,-0.44712c0,-0.1863 0.00373,-0.33535 0.01118,-0.44712c0.02981,-0.63342 0.17513,-1.18862 0.43595,-1.66556c0.26084,-0.47695 0.6148,-0.84209 1.06193,-1.09547c0.44712,-0.26084 0.97624,-0.39125 1.58732,-0.39125c0.67069,0 1.23333,0.14532 1.68792,0.43595c0.46203,0.28318 0.81229,0.68559 1.05075,1.20725c0.24592,0.52165 0.36888,1.13645 0.36888,1.84441v0.22356c0,0.09688 -0.02981,0.17513 -0.08943,0.23475c-0.05962,0.05216 -0.13413,0.07826 -0.22356,0.07826h-4.61661c0,0.00745 0,0.02608 0,0.0559c0,0.02236 0,0.04098 0,0.0559c0.02236,0.36517 0.10433,0.70796 0.24592,1.02839c0.1416,0.31299 0.34653,0.57008 0.6148,0.7713c0.27573,0.19375 0.59618,0.29063 0.96132,0.29063c0.31299,0 0.57755,-0.04844 0.79366,-0.14532c0.21611,-0.10433 0.39125,-0.21611 0.52538,-0.33535c0.13413,-0.11924 0.22356,-0.21238 0.26828,-0.27945c0.07452,-0.11178 0.13413,-0.17886 0.17886,-0.20122c0.04471,-0.02236 0.11552,-0.03354 0.21238,-0.03354h0.65951c0.08197,0 0.14905,0.02608 0.20122,0.07826c0.05962,0.04471 0.0857,0.11178 0.07826,0.20122c-0.00745,0.13413 -0.07826,0.29808 -0.21238,0.49185c-0.13413,0.19375 -0.32418,0.38377 -0.57008,0.57008c-0.24592,0.1863 -0.54773,0.33907 -0.90543,0.45831c-0.3577,0.11924 -0.76385,0.17886 -1.21842,0.17886zM267.37793,180.17382h3.65529v-0.03354c0,-0.40241 -0.07452,-0.76012 -0.22356,-1.07311c-0.1416,-0.31299 -0.35025,-0.55891 -0.62598,-0.73776c-0.27573,-0.1863 -0.60363,-0.27945 -0.98369,-0.27945c-0.38752,0 -0.71913,0.09315 -0.99487,0.27945c-0.26828,0.17886 -0.47321,0.42477 -0.6148,0.73776c-0.1416,0.31299 -0.21238,0.67069 -0.21238,1.07311zM274.215,184.15328c-0.08943,0 -0.16395,-0.02981 -0.22356,-0.08943c-0.05962,-0.05962 -0.08943,-0.13041 -0.08943,-0.21238v-6.3157c0,-0.08943 0.02981,-0.16395 0.08943,-0.22356c0.05962,-0.06706 0.13413,-0.1006 0.22356,-0.1006h0.6148c0.08943,0 0.16395,0.03354 0.22356,0.1006c0.05962,0.05962 0.08943,0.13413 0.08943,0.22356v0.58128c0.17886,-0.29808 0.42477,-0.52165 0.73776,-0.67069c0.31299,-0.15649 0.69306,-0.23475 1.14019,-0.23475h0.5142c0.08943,0 0.16395,0.02981 0.22356,0.08943c0.05962,0.05962 0.08943,0.13413 0.08943,0.22356v0.54773c0,0.08197 -0.02981,0.15276 -0.08943,0.21238c-0.05962,0.05216 -0.13413,0.07826 -0.22356,0.07826h-0.80484c-0.47695,0 -0.85328,0.1416 -1.12901,0.42477c-0.27573,0.27573 -0.41359,0.65578 -0.41359,1.14019v3.92356c0,0.08197 -0.03354,0.15276 -0.1006,0.21238c-0.05962,0.05962 -0.13413,0.08943 -0.22356,0.08943z" fill="#ffffff" stroke="#ffffff" stroke-width="0.5" stroke-linecap="square" stroke-linejoin="miter"/></g></g></svg>