<svg version="1.1" xmlns="http://www.w3.org/2000/svg" xmlns:xlink="http://www.w3.org/1999/xlink" width="113.13184" height="113.13184" viewBox="0,0,113.13184,113.13184"><g transform="translate(-183.43408,-123.43408)"><g data-paper-data="{&quot;isPaintingLayer&quot;:true}" fill-rule="nonzero" stroke-linejoin="miter" stroke-miterlimit="10" stroke-dasharray="" stroke-dashoffset="0" style="mix-blend-mode: normal"><path d="M183.43408,236.56592v-113.13184h113.13184v113.13184z" fill="none" stroke="none" stroke-width="0" stroke-linecap="butt"/><path d="M242.24998,229.28676c-5.10477,0 -9.77198,-0.61986 -14.00164,-1.85959c-4.15674,-1.31266 -7.76653,-3.17225 -10.8294,-5.57878c-2.98993,-2.47946 -5.32355,-5.36001 -7.00081,-8.64163c-1.60435,-3.35456 -2.40653,-7.18314 -2.40653,-11.48573c0,-5.32355 1.27619,-9.88137 3.82857,-13.67349c2.55239,-3.86504 5.97987,-6.78204 10.28245,-8.75103c-3.42748,-2.04191 -6.08925,-4.66721 -7.98531,-7.87592c-1.89605,-3.20871 -2.84409,-7.03729 -2.84409,-11.48573c0,-5.25062 1.27619,-9.6626 3.82857,-13.23593c2.55239,-3.64625 6.16219,-6.45388 10.8294,-8.42287c4.66721,-2.04191 10.10015,-3.06285 16.2988,-3.06285c6.0528,0 11.41281,0.98449 16.08002,2.95348c4.66721,1.96899 8.27702,4.77661 10.8294,8.42287c2.55239,3.64625 3.82857,8.05825 3.82857,13.23593c0,4.44844 -0.94803,8.31348 -2.84409,11.59511c-1.89605,3.20871 -4.48492,5.83401 -7.76653,7.87592c4.22967,1.96899 7.62069,4.886 10.17307,8.75103c2.62531,3.79211 3.93797,8.34994 3.93797,13.67349c0,5.68817 -1.45851,10.61062 -4.37552,14.76736c-2.84409,4.08381 -6.85497,7.25605 -12.03268,9.51675c-5.10477,2.18776 -11.04817,3.28164 -17.83022,3.28164zM242.24998,218.78553c4.0109,0 7.62069,-0.6928 10.8294,-2.07837c3.20871,-1.38557 5.76109,-3.35456 7.65716,-5.90695c1.96899,-2.55239 2.95348,-5.57878 2.95348,-9.0792c0,-3.57333 -0.98449,-6.59973 -2.95348,-9.0792c-1.89605,-2.47946 -4.44844,-4.37552 -7.65716,-5.68817c-3.20871,-1.38557 -6.81852,-2.07837 -10.8294,-2.07837c-4.0109,0 -7.65716,0.6928 -10.93879,2.07837c-3.28164,1.31266 -5.87049,3.20871 -7.76653,5.68817c-1.89605,2.47946 -2.84409,5.50585 -2.84409,9.0792c0,3.50042 0.94803,6.52681 2.84409,9.0792c1.89605,2.55239 4.48492,4.52136 7.76653,5.90695c3.28164,1.38557 6.9279,2.07837 10.93879,2.07837zM242.24998,174.59281c3.28164,0 6.34449,-0.61986 9.18857,-1.85959c2.84409,-1.23973 5.10477,-2.88054 6.78204,-4.92245c1.67728,-2.11483 2.51592,-4.66721 2.51592,-7.65716c0,-2.91701 -0.80218,-5.4694 -2.40653,-7.65716c-1.60435,-2.18776 -3.82857,-3.86504 -6.67266,-5.03185c-2.84409,-1.1668 -5.97987,-1.75021 -9.40735,-1.75021c-3.50042,0 -6.67266,0.58341 -9.51675,1.75021c-2.84409,1.1668 -5.10477,2.84409 -6.78204,5.03185c-1.60435,2.18776 -2.40653,4.74014 -2.40653,7.65716c0,3.06285 0.80218,5.68817 2.40653,7.87592c1.67728,2.11483 3.93797,3.75565 6.78204,4.92245c2.84409,1.09388 6.01633,1.64081 9.51675,1.64081z" fill="#ffffff" stroke="#ffffff" stroke-width="5" stroke-linecap="square"/></g></g></svg>