<svg version="1.1" xmlns="http://www.w3.org/2000/svg" xmlns:xlink="http://www.w3.org/1999/xlink" width="170" height="185"><g transform="translate(-158.55707,-83.66847)"><g data-paper-data="{&quot;isPaintingLayer&quot;:true}" fill-rule="nonzero" stroke-width="0" stroke-linecap="butt" stroke-linejoin="miter" stroke-miterlimit="10" stroke-dasharray="" stroke-dashoffset="0" style="mix-blend-mode: normal"><g data-paper-data="{&quot;origPos&quot;:null}" fill="#b82832" stroke="none"><path d="M189.00548,230.33458l0.32341,-36.87273l99.31646,-0.54666l-0.22314,37.41941z" data-paper-data="{&quot;origPos&quot;:null}"/><path d="M273.23632,239.84629c-0.92187,-0.79333 -0.78357,-2.3427 -0.78357,-2.3427v-18.08129h16.08182v18.01243c0,0 0.23183,1.5405 -0.7516,2.38709c-0.98344,0.84659 -2.82891,0.69517 -2.82891,0.69517h-8.99968c0,0 -1.79618,0.12265 -2.71806,-0.67068z" data-paper-data="{&quot;origPos&quot;:null}"/><path d="M245.14263,240.16866c-0.92187,-0.79333 -0.78356,-2.3427 -0.78356,-2.3427v-18.08129h16.08183v18.01242c0,0 0.23183,1.5405 -0.75161,2.38709c-0.98344,0.84659 -2.82891,0.69517 -2.82891,0.69517h-8.99968c0,0 -1.79619,0.12265 -2.71806,-0.67069z" data-paper-data="{&quot;origPos&quot;:null}"/><path d="M216.82873,240.28274c-0.92187,-0.79333 -0.78356,-2.3427 -0.78356,-2.3427v-18.08129h16.08182v18.01243c0,0 0.23184,1.5405 -0.7516,2.38709c-0.98344,0.84659 -2.82891,0.69517 -2.82891,0.69517h-8.99968c0,0 -1.79619,0.12265 -2.71806,-0.67068z" data-paper-data="{&quot;origPos&quot;:null}"/><path d="M189.75297,241.22995c-0.90795,-0.79333 -0.77174,-2.3427 -0.77174,-2.3427v-18.08129h15.83896v18.01242c0,0 0.22833,1.54051 -0.74026,2.38709c-0.96859,0.84659 -2.78619,0.69517 -2.78619,0.69517h-8.86377c0,0 -1.76906,0.12265 -2.67701,-0.67069z" data-paper-data="{&quot;origPos&quot;:null}"/></g><path d="M189.02238,217.33287l0.37105,-65.90787l99.70454,0.11272l0.13371,41.57429c0,0 -0.21618,1.29042 -0.70141,1.68511c-0.48523,0.39469 -2.02747,0.56009 -2.02747,0.56009l-68.59116,-0.12743c0,0 -1.04765,-0.11115 -1.61624,0.37442c-0.56859,0.48557 -0.44744,1.38795 -0.44744,1.38795l-0.09121,5.32564c0,0 -0.20692,1.04684 0.43627,1.5728c0.64319,0.52598 1.94799,0.37693 1.94799,0.37693l67.47031,-0.03305c0,0 1.56572,0.13975 2.11039,0.53985c0.54467,0.4001 0.80241,1.67263 0.80241,1.67263l-0.04291,10.79171z" data-paper-data="{&quot;origPos&quot;:null}" fill="#fe404f" stroke="#000000"/><path d="M189.35517,165.15487v-10.84181c0,0 0.03818,-4.41313 2.77859,-6.43634c2.74041,-2.02319 7.77553,-1.87858 7.77553,-1.87858h76.93528c0,0 6.44492,-0.04428 9.32105,2.42453c2.87613,2.46879 2.83257,7.5823 2.83257,7.5823v9.1499z" data-paper-data="{&quot;origPos&quot;:null}" fill="#b82832" stroke="none"/><path d="M209.5218,136.02469c1.14174,-0.99924 3.49827,-0.87019 3.49827,-0.87019l41.268,-0.1968c0,0 5.99622,-0.04129 8.67829,2.26093c2.68207,2.30222 2.6553,7.047 2.6553,7.047v8.55625h-57.30603l0.17562,-13.7065c0,0 -0.11119,-2.09146 1.03055,-3.0907z" data-paper-data="{&quot;origPos&quot;:null}" fill="#b82832" stroke="none"/><g data-paper-data="{&quot;origPos&quot;:null}" fill="#ffffff" stroke="none"><path d="M287.79317,195.50335c0,0 1.29537,0.03035 1.60945,1.07223c0.31408,1.04185 -0.64215,2.13656 -0.64215,2.13656l-7.74481,10.68824c0,0 -0.90557,1.60598 -1.94471,1.50351c-1.03914,-0.10247 -1.8741,-1.88009 -1.8741,-1.88009l-9.18059,-13.52045z" data-paper-data="{&quot;origPos&quot;:null,&quot;index&quot;:null}"/><path d="M270.39317,195.50335c0,0 1.29538,0.03035 1.60945,1.07223c0.31408,1.04185 -0.64216,2.13656 -0.64216,2.13656l-7.74481,10.68824c0,0 -0.90557,1.60598 -1.94471,1.50351c-1.03914,-0.10247 -1.8741,-1.88009 -1.8741,-1.88009l-9.18059,-13.52045z" data-paper-data="{&quot;origPos&quot;:null,&quot;index&quot;:null}"/></g><path d="M229.35072,176.95975c-1.79194,-1.48172 -1.4572,-4.42431 -1.4572,-4.42431l0.16223,-24.03517c0,0 0.04546,-3.45424 2.39299,-4.55647c2.34753,-1.10223 6.73526,0.50461 6.73526,0.50461l49.00367,26.11087c0,0 3.99774,2.15212 2.48058,5.29611c-1.37726,2.85407 -6.68494,2.4677 -6.68494,2.4677l-47.25865,-0.13912c0,0 -3.582,0.2575 -5.37394,-1.22421z" data-paper-data="{&quot;origPos&quot;:null}" fill="#fdf883" stroke="none"/><path d="M244.78775,159.75636c0,-4.54999 4.30926,-8.23849 9.625,-8.23849c5.31574,0 9.625,3.6885 9.625,8.23849c0,4.54999 -4.30926,8.23849 -9.625,8.23849c-5.31574,0 -9.625,-3.6885 -9.625,-8.23849z" data-paper-data="{&quot;origPos&quot;:null}" fill="#f02333" stroke="none"/><path d="M158.55707,268.66847v-185h170v185z" fill="none" stroke="none"/></g></g></svg>