<svg version="1.1" xmlns="http://www.w3.org/2000/svg" xmlns:xlink="http://www.w3.org/1999/xlink" width="606.39724" height="271.00967" viewBox="0,0,606.39724,271.00967"><defs><linearGradient x1="83.44848" y1="194.62327" x2="83.44848" y2="436.09716" gradientUnits="userSpaceOnUse" id="color-1"><stop offset="0" stop-color="#48f4ff" stop-opacity="0"/><stop offset="1" stop-color="#48f4ff"/></linearGradient></defs><g transform="translate(71.6504,-178.31352)"><g data-paper-data="{&quot;isPaintingLayer&quot;:true}" stroke="none" stroke-miterlimit="10" stroke-dasharray="" stroke-dashoffset="0" style="mix-blend-mode: normal"><path d="M39.49412,217.35256v-39.03904h495.25272v39.03904z" data-paper-data="{&quot;origPos&quot;:null}" fill="none" fill-rule="nonzero" stroke-width="0" stroke-linecap="butt" stroke-linejoin="miter"/><path d="M114.34602,238.22603v0c0,-0.90528 1.11794,-1.63929 2.4971,-1.63929h44.01606c1.37915,0 2.4971,0.73401 2.4971,1.63929v0c0,0.90538 -1.11794,1.63938 -2.4971,1.63938h-44.01606c-1.37915,0 -2.4971,-0.73401 -2.4971,-1.63938z" data-paper-data="{&quot;origPos&quot;:null}" fill="#ffffff" fill-rule="evenodd" stroke-width="1" stroke-linecap="round" stroke-linejoin="round" opacity="0.42445"/><path d="M189.37531,343.40305v-0.21721c0,-0.96276 1.38261,-1.74338 3.08826,-1.74338h19.42187c1.70566,0 3.08827,0.56341 3.08827,1.52617v0.21721c0,0.96288 -1.38262,1.7435 -3.08827,1.7435h-19.42187c-1.70566,0 -3.08826,-0.56342 -3.08826,-1.5263z" data-paper-data="{&quot;origPos&quot;:null}" fill="#ffffff" fill-rule="evenodd" stroke-width="1" stroke-linecap="round" stroke-linejoin="round" opacity="0.42445"/><path d="M-53.93911,360.99379v-0.21721c0,-0.96276 1.38261,-1.74338 3.08826,-1.74338h19.42187c1.70566,0 3.08827,0.56341 3.08827,1.52617v0.21721c0,0.96288 -1.38262,1.7435 -3.08827,1.7435h-19.42187c-1.70566,0 -3.08826,-0.56342 -3.08826,-1.5263z" data-paper-data="{&quot;origPos&quot;:null}" fill="#ffffff" fill-rule="evenodd" stroke-width="1" stroke-linecap="round" stroke-linejoin="round" opacity="0.42445"/><path d="M-71.6504,449.32319v-219.01075h310.1977v217.79672z" data-paper-data="{&quot;origPos&quot;:null}" fill="url(#color-1)" fill-rule="nonzero" stroke-width="0" stroke-linecap="butt" stroke-linejoin="miter"/><path d="M-71.59372,226.48917h309.92125v3.90167h-309.92125z" data-paper-data="{&quot;origPos&quot;:null}" fill="#ffffff" fill-rule="evenodd" stroke-width="1" stroke-linecap="round" stroke-linejoin="round" opacity="0.68561"/></g></g></svg>