<svg version="1.1" xmlns="http://www.w3.org/2000/svg" xmlns:xlink="http://www.w3.org/1999/xlink" width="525.26844" height="370.58386"><g transform="translate(72.59705,11.26417)"><g data-paper-data="{&quot;isPaintingLayer&quot;:true}" fill-rule="nonzero" stroke-linejoin="miter" stroke-miterlimit="10" stroke-dasharray="" stroke-dashoffset="0" style="mix-blend-mode: normal"><path d="M283.36098,92.60871c0,0 -0.32614,-3.51337 1.52254,-4.90636c1.61617,-1.21781 5.07223,-1.80293 7.98262,-1.80293c218.23614,0 141.06953,0 144.80678,0c1.24575,0 3.93383,0 5.17958,0c3.14312,0 6.17364,0.43076 7.96215,1.7312c1.79886,1.30796 1.37639,5.31142 1.37639,5.31142z" data-paper-data="{&quot;origPos&quot;:null,&quot;index&quot;:null}" fill="#b4ff53" stroke="none" stroke-width="0" stroke-linecap="butt"/><path d="M452.31826,344.53882c0,0 0.32408,4.6691 -1.05583,6.41224c-1.37197,1.73311 -3.69668,2.30719 -6.10774,2.30719c-0.95559,0 -3.01762,0 -3.97324,0c-92.56244,0 -234.96908,0 -237.17972,0c-0.73688,0 -1.15129,0 -1.88817,0c-2.23256,0 -4.8837,-0.7798 -6.12345,-2.40279c-1.4181,-1.85645 -114.32327,5.46123 -114.32327,5.46123l-0.02822,-350.87624l207.26254,-0.28742l0.74875,112.98225l162.78069,2.68886z" data-paper-data="{&quot;origPos&quot;:null,&quot;index&quot;:null}" fill="#03a63b" stroke="none" stroke-width="0" stroke-linecap="butt"/><path d="M452.52994,122.02826c0,0 -149.35549,-0.15264 -156.75914,-0.16021c-2.46789,-0.00252 -6.32365,-0.00646 -6.32365,-0.00646l0.22555,-29.65591l162.99869,-0.01442z" data-paper-data="{&quot;origPos&quot;:null,&quot;index&quot;:null}" fill="#48c900" stroke="none" stroke-width="0" stroke-linecap="butt"/><path d="M288.89935,25.02744l-207.35926,-0.16667l0.02944,-29.65591l207.52793,-0.01442z" data-paper-data="{&quot;origPos&quot;:null,&quot;index&quot;:null}" fill="#48c900" stroke="none" stroke-width="0" stroke-linecap="butt"/><path d="M80.90534,-4.55488c0,0 -0.16098,-3.51337 0.75155,-4.90636c0.79775,-1.21781 2.5037,-1.80293 3.9403,-1.80293c25.27368,0 198.03679,0 198.03679,0c0,0 2.86531,0.18722 4.16103,2.00038c1.29572,1.81316 0.67941,4.77305 0.67941,4.77305z" data-paper-data="{&quot;origPos&quot;:null,&quot;index&quot;:null}" fill="#b4ff53" stroke="none" stroke-width="0" stroke-linecap="butt"/><path d="M452.31825,344.53882c0,0 0.32408,4.6691 -1.05583,6.41224c-1.37197,1.73311 -3.69668,2.30719 -6.10774,2.30719c-0.95559,0 -3.01762,0 -3.97324,0c-92.56244,0 -234.96908,0 -237.17972,0c-0.73688,0 -1.15129,0 -1.88817,0c-2.23256,0 -4.8837,-0.7798 -6.12345,-2.40279c-1.4181,-1.85645 -268.58715,8.46423 -268.58715,8.46423c0,0 21.15077,-269.4601 27.84275,-266.35131c2.23066,1.03626 126.39291,-87.52793 126.39291,-87.52793l207.26254,-0.28742l0.85798,112.98225l162.67146,2.68886z" data-paper-data="{&quot;origPos&quot;:null,&quot;index&quot;:null}" fill="#03a63b" stroke="none" stroke-width="0" stroke-linecap="butt"/><path d="M84.33821,12.81028l-126.1324,69.77918" data-paper-data="{&quot;origPos&quot;:null}" fill="none" stroke="#48c900" stroke-width="34" stroke-linecap="round"/><path d="M83.28046,-7.24747l-131.77751,74.02919" data-paper-data="{&quot;origPos&quot;:null}" fill="none" stroke="#b4ff53" stroke-width="7.5" stroke-linecap="round"/><path d="M-70.79597,70.83364v-6.71683h23.31134v6.71683z" data-paper-data="{&quot;origPos&quot;:null}" fill="#b4ff53" stroke="none" stroke-width="0" stroke-linecap="butt"/></g></g></svg>