<svg version="1.1" xmlns="http://www.w3.org/2000/svg" xmlns:xlink="http://www.w3.org/1999/xlink" width="576.70991" height="259.71105"><g transform="translate(7.61955,-199.91407)"><g data-paper-data="{&quot;isPaintingLayer&quot;:true}" fill-rule="nonzero" stroke-linejoin="miter" stroke-miterlimit="10" stroke-dasharray="" stroke-dashoffset="0" style="mix-blend-mode: normal"><path d="M-6.24636,256.81816l148.4377,1.83871l0.40995,-32.02627l147.93555,-22.99138l0.14191,58.7685l115.23462,0.2818l0.60603,-57.90667l162.57097,4.64687l-6.79714,239.75387l-273.4091,10.44154c0,0 -77.78248,-1.1966 -80.3026,-1.1966c-188.97066,0 -198.72709,0 -201.96318,0c-1.07871,0 -3.40632,0 -4.48499,0c-2.72161,0 -5.34574,-0.64802 -6.89442,-2.60436c-1.55764,-1.96765 -2.85848,-5.9048 -2.85848,-5.9048z" data-paper-data="{&quot;origPos&quot;:null,&quot;index&quot;:null}" fill="#03a63b" stroke="none" stroke-width="0" stroke-linecap="butt"/><path d="M-6.13222,263.13149c0,0 -0.24317,-4.00346 0.79224,-5.31142c1.02945,-1.30044 2.77379,-1.7312 4.58294,-1.7312c0.71704,0 2.26428,0 2.98132,0c2.15113,0 140.00132,0 140.00132,0l0.22109,6.70929z" data-paper-data="{&quot;origPos&quot;:null,&quot;index&quot;:null}" fill="#b4ff53" stroke="none" stroke-width="0" stroke-linecap="butt"/><path d="M-5.99883,262.48037l88.61739,0.01222l59.49529,-56.03081l30.78866,0.34591l117.27814,-0.7598l0.10781,29.91244l-147.94704,-0.33073l-31.83886,42.19853l-16.23208,14.33159l-100.185,0.15763z" data-paper-data="{&quot;origPos&quot;:null,&quot;index&quot;:null}" fill="#48c900" stroke="none" stroke-width="0" stroke-linecap="butt"/><path d="M141.86776,206.9567c0,0 -0.24317,-4.00346 0.79224,-5.31142c1.02945,-1.30044 2.77379,-1.7312 4.58294,-1.7312c0.71704,0 2.26428,0 2.98132,0c2.15113,0 9.48573,0 135.10052,0c1.6752,0 3.66448,0.58512 4.59473,1.80293c1.06408,1.39299 0.87636,4.90636 0.87636,4.90636c0,0 -16.80791,0.03592 -27.02229,0.05892c-30.64316,0.06898 -121.90582,0.27441 -121.90582,0.27441z" data-paper-data="{&quot;origPos&quot;:null,&quot;index&quot;:null}" fill="#b4ff53" stroke="none" stroke-width="0" stroke-linecap="butt"/><path d="M88.71608,274.2505l56.5,-50.5" data-paper-data="{&quot;origPos&quot;:null}" fill="none" stroke="#48c900" stroke-width="34" stroke-linecap="round"/><path d="M84.96607,259.00051l59.75,-54.75" data-paper-data="{&quot;origPos&quot;:null}" fill="none" stroke="#b4ff53" stroke-width="7.5" stroke-linecap="round"/><path d="M-6.12658,263.13149l-0.02826,-6.97809l91.75679,-0.06453l0.27118,6.70929z" data-paper-data="{&quot;origPos&quot;:null,&quot;index&quot;:null}" fill="#b4ff53" stroke="none" stroke-width="0" stroke-linecap="butt"/><path d="M437.88129,207.16889c-9.2713,-0.023 -31.87556,-0.05892 -31.87556,-0.05892c0,0 0.1491,-3.51337 1.11493,-4.90636c0.84436,-1.21781 2.64997,-1.80293 4.17051,-1.80293c114.01701,0 127.70312,0 129.65564,0c0.65084,0 2.05523,0 2.70606,0c1.64211,0 3.2254,0.43076 4.1598,1.7312c0.93981,1.30796 0.71909,5.31142 0.71909,5.31142c0,0 -82.83655,-0.20543 -110.65048,-0.27441z" data-paper-data="{&quot;origPos&quot;:null,&quot;index&quot;:null}" fill="#b4ff53" stroke="none" stroke-width="0" stroke-linecap="butt"/><path d="M290.45322,269.22439v-21.66666h115.33333v21.66666z" data-paper-data="{&quot;origPos&quot;:null}" fill="#9966ff" stroke="none" stroke-width="NaN" stroke-linecap="butt"/></g></g></svg>