<svg version="1.1" xmlns="http://www.w3.org/2000/svg" xmlns:xlink="http://www.w3.org/1999/xlink" width="409.91" height="617.11712" viewBox="0,0,409.91,617.11712"><defs><linearGradient x1="399.90053" y1="-60.4776" x2="399.90053" y2="68.08825" gradientUnits="userSpaceOnUse" id="color-1"><stop offset="0" stop-color="#fd3281"/><stop offset="1" stop-color="#fd3376"/></linearGradient><linearGradient x1="453.19381" y1="87.06273" x2="453.19381" y2="116.12989" gradientUnits="userSpaceOnUse" id="color-2"><stop offset="0" stop-color="#ffe9d8"/><stop offset="1" stop-color="#f7cbd0"/></linearGradient><linearGradient x1="416.4552" y1="86.98802" x2="416.4552" y2="116.05516" gradientUnits="userSpaceOnUse" id="color-3"><stop offset="0" stop-color="#ffe9d8"/><stop offset="1" stop-color="#f7cbd0"/></linearGradient><linearGradient x1="380.60365" y1="86.91327" x2="380.60365" y2="115.98044" gradientUnits="userSpaceOnUse" id="color-4"><stop offset="0" stop-color="#ffe9d8"/><stop offset="1" stop-color="#f7cbd0"/></linearGradient><linearGradient x1="342.26609" y1="91.43727" x2="342.26609" y2="122.67928" gradientUnits="userSpaceOnUse" id="color-5"><stop offset="0" stop-color="#fde3d6"/><stop offset="1" stop-color="#f7cbd0"/></linearGradient><linearGradient x1="473.89628" y1="98.87981" x2="473.89628" y2="129.04014" gradientUnits="userSpaceOnUse" id="color-6"><stop offset="0" stop-color="#fde0d6"/><stop offset="1" stop-color="#f7cbd0"/></linearGradient><linearGradient x1="362.01541" y1="98.17954" x2="362.01541" y2="128.33988" gradientUnits="userSpaceOnUse" id="color-7"><stop offset="0" stop-color="#fbdcd4"/><stop offset="1" stop-color="#f7cbd0"/></linearGradient><linearGradient x1="431.6773" y1="240.71439" x2="431.6773" y2="269.78155" gradientUnits="userSpaceOnUse" id="color-8"><stop offset="0" stop-color="#ffe9d8"/><stop offset="1" stop-color="#f7cbd0"/></linearGradient><linearGradient x1="394.93869" y1="240.63968" x2="394.93869" y2="269.70682" gradientUnits="userSpaceOnUse" id="color-9"><stop offset="0" stop-color="#ffe9d8"/><stop offset="1" stop-color="#f7cbd0"/></linearGradient><linearGradient x1="359.08714" y1="240.56493" x2="359.08714" y2="269.6321" gradientUnits="userSpaceOnUse" id="color-10"><stop offset="0" stop-color="#ffe9d8"/><stop offset="1" stop-color="#f7cbd0"/></linearGradient><linearGradient x1="320.74958" y1="245.08893" x2="320.74958" y2="276.33094" gradientUnits="userSpaceOnUse" id="color-11"><stop offset="0" stop-color="#fde3d6"/><stop offset="1" stop-color="#f7cbd0"/></linearGradient><linearGradient x1="452.37977" y1="252.53147" x2="452.37977" y2="282.6918" gradientUnits="userSpaceOnUse" id="color-12"><stop offset="0" stop-color="#fde0d6"/><stop offset="1" stop-color="#f7cbd0"/></linearGradient><linearGradient x1="340.4989" y1="251.8312" x2="340.4989" y2="281.99154" gradientUnits="userSpaceOnUse" id="color-13"><stop offset="0" stop-color="#fbdcd4"/><stop offset="1" stop-color="#f7cbd0"/></linearGradient><linearGradient x1="398.5548" y1="125.10225" x2="398.5548" y2="154.1694" gradientUnits="userSpaceOnUse" id="color-14"><stop offset="0" stop-color="#ffe9d8"/><stop offset="1" stop-color="#f7cbd0"/></linearGradient><linearGradient x1="362.70326" y1="125.02751" x2="362.70326" y2="154.09467" gradientUnits="userSpaceOnUse" id="color-15"><stop offset="0" stop-color="#ffe9d8"/><stop offset="1" stop-color="#f7cbd0"/></linearGradient><linearGradient x1="325.96466" y1="124.95279" x2="325.96466" y2="154.01994" gradientUnits="userSpaceOnUse" id="color-16"><stop offset="0" stop-color="#ffe9d8"/><stop offset="1" stop-color="#f7cbd0"/></linearGradient><linearGradient x1="289.22605" y1="124.87805" x2="289.22605" y2="153.9452" gradientUnits="userSpaceOnUse" id="color-17"><stop offset="0" stop-color="#ffe9d8"/><stop offset="1" stop-color="#f7cbd0"/></linearGradient><linearGradient x1="324.3657" y1="129.55151" x2="324.3657" y2="160.79352" gradientUnits="userSpaceOnUse" id="color-18"><stop offset="0" stop-color="#fde3d6"/><stop offset="1" stop-color="#f7cbd0"/></linearGradient><linearGradient x1="422.41076" y1="136.48863" x2="422.41076" y2="166.64896" gradientUnits="userSpaceOnUse" id="color-19"><stop offset="0" stop-color="#fde0d6"/><stop offset="1" stop-color="#f7cbd0"/></linearGradient><linearGradient x1="265.94822" y1="135.65844" x2="265.94822" y2="165.81879" gradientUnits="userSpaceOnUse" id="color-20"><stop offset="0" stop-color="#fbdcd4"/><stop offset="1" stop-color="#f7cbd0"/></linearGradient><linearGradient x1="356.60223" y1="356.83149" x2="356.60223" y2="385.89865" gradientUnits="userSpaceOnUse" id="color-21"><stop offset="0" stop-color="#ffe9d8"/><stop offset="1" stop-color="#f7cbd0"/></linearGradient><linearGradient x1="319.86362" y1="356.75678" x2="319.86362" y2="385.82392" gradientUnits="userSpaceOnUse" id="color-22"><stop offset="0" stop-color="#ffe9d8"/><stop offset="1" stop-color="#f7cbd0"/></linearGradient><linearGradient x1="284.01207" y1="356.68203" x2="284.01207" y2="385.7492" gradientUnits="userSpaceOnUse" id="color-23"><stop offset="0" stop-color="#ffe9d8"/><stop offset="1" stop-color="#f7cbd0"/></linearGradient><linearGradient x1="245.67451" y1="361.20603" x2="245.67451" y2="392.44804" gradientUnits="userSpaceOnUse" id="color-24"><stop offset="0" stop-color="#fde3d6"/><stop offset="1" stop-color="#f7cbd0"/></linearGradient><linearGradient x1="377.3047" y1="368.64857" x2="377.3047" y2="398.8089" gradientUnits="userSpaceOnUse" id="color-25"><stop offset="0" stop-color="#fde0d6"/><stop offset="1" stop-color="#f7cbd0"/></linearGradient><linearGradient x1="265.42383" y1="367.9483" x2="265.42383" y2="398.10864" gradientUnits="userSpaceOnUse" id="color-26"><stop offset="0" stop-color="#fbdcd4"/><stop offset="1" stop-color="#f7cbd0"/></linearGradient></defs><g transform="translate(-194.24158,78.82871)"><g data-paper-data="{&quot;isPaintingLayer&quot;:true}" fill-rule="nonzero" stroke-linejoin="miter" stroke-miterlimit="10" stroke-dasharray="" stroke-dashoffset="0" style="mix-blend-mode: normal"><path d="" data-paper-data="{&quot;origPos&quot;:null,&quot;index&quot;:null}" fill="#9e233c" stroke="none" stroke-width="0" stroke-linecap="butt"/><path d="" data-paper-data="{&quot;origPos&quot;:null}" fill="#95153c" stroke="none" stroke-width="0" stroke-linecap="butt"/><path d="" data-paper-data="{&quot;origPos&quot;:null}" fill="#88143c" stroke="none" stroke-width="0" stroke-linecap="butt"/><path d="" data-paper-data="{&quot;origPos&quot;:null}" fill="#88143c" stroke="none" stroke-width="0" stroke-linecap="butt"/><path d="" data-paper-data="{&quot;origPos&quot;:null}" fill="#830e37" stroke="none" stroke-width="0" stroke-linecap="butt"/><path d="" data-paper-data="{&quot;origPos&quot;:null}" fill="#7a1039" stroke="none" stroke-width="0" stroke-linecap="butt"/><path d="" data-paper-data="{&quot;origPos&quot;:null}" fill="#7a1039" stroke="none" stroke-width="0" stroke-linecap="butt"/><path d="" data-paper-data="{&quot;origPos&quot;:null}" fill="#7a1039" stroke="none" stroke-width="0" stroke-linecap="butt"/><path d="M311.21899,114.54197l-51.7224,-0.35121c0,0 -9.09675,-0.56383 -14.54716,-5.74889c-5.29257,-5.03489 -5.44632,-14.15405 -5.44632,-14.15405l-0.30258,-41.74317c0,0 0.3246,-9.10711 6.35405,-14.45661c4.73854,-4.20418 12.45076,-4.94452 12.45076,-4.94452l47.16916,-0.40957l10.60127,15.02509l-0.24923,55.01386z" data-paper-data="{&quot;origPos&quot;:null,&quot;origRot&quot;:0,&quot;index&quot;:null}" fill="#fc2468" stroke="none" stroke-width="0" stroke-linecap="butt"/><path d="M329.22947,93.83191l-40.50026,-0.27488c0,0 -7.12304,-0.44127 -11.39088,-4.49928c-4.14425,-3.94049 -4.26464,-11.07745 -4.26464,-11.07745l-0.23692,-60.3134c0,0 0.25417,-7.12756 4.97542,-11.31426c3.71043,-3.29033 9.74934,-3.86975 9.74934,-3.86975l36.93493,-0.32055l8.30113,11.75918l-0.19515,46.64666z" data-paper-data="{&quot;origPos&quot;:null,&quot;origRot&quot;:0,&quot;index&quot;:null}" fill="#fd3376" stroke="none" stroke-width="0" stroke-linecap="butt"/><path d="M321.80635,132.54816l-43.6558,-0.26744c0,0 -7.12304,-0.42933 -11.39088,-4.37761c-4.14425,-3.83392 -4.26464,-10.77788 -4.26464,-10.77788l-0.23692,-18.65931c0,0 0.25417,-6.93479 4.97542,-11.00827c3.71043,-3.20135 9.74934,-3.7651 9.74934,-3.7651l41.32287,-0.31187l3.91318,11.44115l-0.19515,28.76454z" data-paper-data="{&quot;origPos&quot;:null,&quot;origRot&quot;:0,&quot;index&quot;:null}" fill="#ff387b" stroke="none" stroke-width="0" stroke-linecap="butt"/><g data-paper-data="{&quot;origPos&quot;:null,&quot;index&quot;:null}" stroke-width="0" stroke-linecap="butt"><path d="M320.46627,168.42325v-128.03004h100.8518v128.03004z" data-paper-data="{&quot;origPos&quot;:null}" fill="#95153c" stroke="#95153c"/><path d="M420.88397,165.04168v-124.66764h14.60612v124.66764z" data-paper-data="{&quot;origPos&quot;:null}" fill="#88143c" stroke="none"/><path d="M306.10136,166.90103l-0.11111,-126.88815h15.10613v126.88815z" data-paper-data="{&quot;origPos&quot;:null}" fill="#88143c" stroke="none"/><path d="M358.71921,164.62203v-124.66764h25.03907v124.66764z" data-paper-data="{&quot;origPos&quot;:null}" fill="#88143c" stroke="none"/></g><path d="M446.27779,98.79203c0,0 -5.6187,0.14581 -8.32215,3.25602c-2.70345,3.1102 -2.60483,9.56027 -2.60483,9.56027l-8.65112,-5.14291l0.26187,-21.19764l8.28682,-6.2129c0,0 0.1128,2.84941 1.18124,3.91785c1.06845,1.06844 4.0432,1.30658 4.0432,1.30658h9.17706c0,0 1.48573,-0.24054 2.16741,-0.86134c0.68168,-0.6208 0.9359,-1.96479 0.9359,-1.96479l0.04892,-15.42631l13.49099,-2.04826l-0.17023,24.80876c0,0 -0.51971,4.15741 -3.00058,6.488c-2.48087,2.33059 -7.28593,3.17539 -7.28593,3.17539z" data-paper-data="{&quot;origPos&quot;:null,&quot;index&quot;:null}" fill="#88143c" stroke="none" stroke-width="0" stroke-linecap="butt"/><path d="M419.5612,40.95226l-0.24923,-55.01386l10.60127,-15.02509l47.16916,0.40957c0,0 7.71222,0.74034 12.45076,4.94452c6.02945,5.3495 6.35405,14.45661 6.35405,14.45661l-0.30258,41.74317c0,0 -0.15375,9.11916 -5.44632,14.15405c-5.45041,5.18506 -14.54716,5.74889 -14.54716,5.74889l-51.7224,0.35121z" data-paper-data="{&quot;origPos&quot;:null,&quot;origRot&quot;:0,&quot;index&quot;:null}" fill="#fc2468" stroke="none" stroke-width="0" stroke-linecap="butt"/><path d="M390.68737,425.21843l-0.24923,-55.01386l10.60127,-15.02509l47.16916,0.40956c0,0 7.71222,0.74035 12.45076,4.94452c6.02945,5.3495 6.35405,14.45661 6.35405,14.45661l-0.30257,41.74317c0,0 -0.15376,9.11916 -5.44632,14.15405c-5.45042,5.18507 -14.54716,5.74889 -14.54716,5.74889l-51.7224,0.35121z" data-paper-data="{&quot;origPos&quot;:null,&quot;origRot&quot;:0,&quot;index&quot;:null}" fill="#fc2468" stroke="none" stroke-width="0" stroke-linecap="butt"/><path d="M390.95993,442.99342l-0.19515,-28.76454l8.30113,-11.44115l36.93493,0.31187c0,0 6.03891,0.56375 9.74934,3.7651c4.72125,4.07348 4.97542,11.00827 4.97542,11.00827l-0.23693,18.65931c0,0 -0.1204,6.94395 -4.26464,10.77787c-4.26784,3.94826 -11.39088,4.3776 -11.39088,4.3776l-40.50026,0.26744z" data-paper-data="{&quot;origPos&quot;:null,&quot;origRot&quot;:0,&quot;index&quot;:null}" fill="#ff387b" stroke="none" stroke-width="0" stroke-linecap="butt"/><path d="M345.73197,366.6352l-51.7224,-0.35121c0,0 -9.09674,-0.56382 -14.54715,-5.74889c-5.29256,-5.03489 -5.44632,-14.15404 -5.44632,-14.15404l-0.30258,-41.74317c0,0 0.3246,-9.10712 6.35405,-14.45662c4.73855,-4.20417 12.45077,-4.94452 12.45077,-4.94452l47.16915,-0.40956l10.60127,15.02509l-0.24923,55.01386z" data-paper-data="{&quot;origPos&quot;:null,&quot;origRot&quot;:0,&quot;index&quot;:null}" fill="#fc2468" stroke="none" stroke-width="0" stroke-linecap="butt"/><path d="M314.31433,303.94002l-51.7224,-0.35121c0,0 -9.09674,-0.56382 -14.54715,-5.74889c-5.29257,-5.03489 -5.44632,-14.15405 -5.44632,-14.15405l-0.30257,-41.74317c0,0 0.3246,-9.10712 6.35405,-14.45662c4.73855,-4.20418 12.45077,-4.94452 12.45077,-4.94452l47.16915,-0.40957l10.60127,15.02509l-0.24923,55.01386z" data-paper-data="{&quot;origPos&quot;:null,&quot;origRot&quot;:0,&quot;index&quot;:null}" fill="#fc2468" stroke="none" stroke-width="0" stroke-linecap="butt"/><path d="M345.29283,382.70363l-40.50027,-0.26743c0,0 -7.12304,-0.42933 -11.39088,-4.3776c-4.14425,-3.83392 -4.26464,-10.77788 -4.26464,-10.77788l-0.23692,-18.65931c0,0 0.25417,-6.93479 4.97542,-11.00827c3.71043,-3.20135 9.74934,-3.7651 9.74934,-3.7651l36.93493,-0.31188l8.30113,11.44116l-0.19515,28.76454z" data-paper-data="{&quot;origPos&quot;:null,&quot;origRot&quot;:0,&quot;index&quot;:null}" fill="#ff387b" stroke="none" stroke-width="0" stroke-linecap="butt"/><path d="M332.07595,279.92441l-40.50027,-0.26743c0,0 -7.12304,-0.42934 -11.39088,-4.37761c-4.14425,-3.83391 -4.26464,-10.77787 -4.26464,-10.77787l-0.23692,-58.68226c0,0 0.25417,-6.93479 4.97542,-11.00827c3.71043,-3.20135 9.74934,-3.7651 9.74934,-3.7651l36.93493,-0.31188l8.30113,11.44116l-0.19515,45.38513z" data-paper-data="{&quot;origPos&quot;:null,&quot;origRot&quot;:0,&quot;index&quot;:null}" fill="#fd3376" stroke="none" stroke-width="0" stroke-linecap="butt"/><path d="M314.55772,319.46705l-40.50027,-0.26743c0,0 -7.12304,-0.42934 -11.39088,-4.37761c-4.14425,-3.83391 -4.26464,-10.77787 -4.26464,-10.77787l-0.23692,-18.65931c0,0 0.25417,-6.93479 4.97542,-11.00827c3.71043,-3.20135 9.74934,-3.7651 9.74934,-3.7651l41.32287,-0.31188l3.91319,11.44116l-0.19515,28.76454z" data-paper-data="{&quot;origPos&quot;:null,&quot;origRot&quot;:0,&quot;index&quot;:null}" fill="#ff387b" stroke="none" stroke-width="0" stroke-linecap="butt"/><path d="M422.52262,259.87339l-0.24923,-55.01386l10.60127,-15.02509l47.16916,0.40957c0,0 7.71222,0.74034 12.45076,4.94452c6.02945,5.3495 6.35405,14.45661 6.35405,14.45661l-0.30258,41.74317c0,0 -0.15375,9.11916 -5.44632,14.15405c-5.45041,5.18506 -14.54716,5.74889 -14.54716,5.74889l-51.7224,0.35121z" data-paper-data="{&quot;origPos&quot;:null,&quot;origRot&quot;:0,&quot;index&quot;:null}" fill="#fc2468" stroke="none" stroke-width="0" stroke-linecap="butt"/><path d="M405.69564,216.84231l-0.19515,-46.64666l8.30113,-11.75918l36.93493,0.32055c0,0 6.03891,0.57942 9.74934,3.86975c4.72125,4.1867 4.97542,11.31426 4.97542,11.31426l-0.23692,60.3134c0,0 -0.12039,7.13696 -4.26464,11.07745c-4.26784,4.05801 -11.39088,4.49928 -11.39088,4.49928l-40.50026,0.27487z" data-paper-data="{&quot;origPos&quot;:null,&quot;origRot&quot;:0,&quot;index&quot;:null}" fill="#fd3376" stroke="none" stroke-width="0" stroke-linecap="butt"/><path d="M423.21384,278.20771l-0.19515,-28.76454l3.91318,-11.44115l41.32287,0.31187c0,0 6.03891,0.56375 9.74934,3.7651c4.72125,4.07348 4.97542,11.00827 4.97542,11.00827l-0.23692,18.65931c0,0 -0.12039,6.94396 -4.26464,10.77788c-4.26784,3.94828 -11.39088,4.37761 -11.39088,4.37761l-40.50027,0.26744z" data-paper-data="{&quot;origPos&quot;:null,&quot;origRot&quot;:0,&quot;index&quot;:null}" fill="#ff387b" stroke="none" stroke-width="0" stroke-linecap="butt"/><g data-paper-data="{&quot;origPos&quot;:null,&quot;index&quot;:null}" stroke-width="0" stroke-linecap="butt"><path d="M320.30151,494.84813v-336.93913h100.8518v336.93913z" data-paper-data="{&quot;origPos&quot;:null}" fill="#95153c" stroke="#95153c"/><path d="M420.71921,494.71987v-336.86263h14.60612v336.86263z" data-paper-data="{&quot;origPos&quot;:null}" fill="#88143c" stroke="none"/><path d="M305.82546,495.23949l0.21937,-342.86263h14.88676v342.86263z" data-paper-data="{&quot;origPos&quot;:null}" fill="#88143c" stroke="none"/><path d="M358.55445,493.58594v-336.86263h25.03907v336.86263z" data-paper-data="{&quot;origPos&quot;:null}" fill="#88143c" stroke="none"/></g><path d="M415.45462,110.53584v30.03733" data-paper-data="{&quot;origPos&quot;:null,&quot;index&quot;:null}" fill="none" stroke="#ac2841" stroke-width="10" stroke-linecap="round"/><path d="M388.60435,192.01162v40.01243" data-paper-data="{&quot;origPos&quot;:null,&quot;index&quot;:null}" fill="none" stroke="#ac2841" stroke-width="10" stroke-linecap="round"/><path d="M415.42974,303.99973v-25.28728" data-paper-data="{&quot;origPos&quot;:null,&quot;index&quot;:null}" fill="none" stroke="#ac2841" stroke-width="10" stroke-linecap="round"/><path d="M325.86083,196.12308v-30.03733" data-paper-data="{&quot;origPos&quot;:null,&quot;index&quot;:null}" fill="none" stroke="#a31a40" stroke-width="10" stroke-linecap="round"/><path d="M353.3572,253.10038v30.03733" data-paper-data="{&quot;origPos&quot;:null,&quot;index&quot;:null}" fill="none" stroke="#a31a40" stroke-width="10" stroke-linecap="round"/><path d="M326.17714,374.27888v-33.64804" data-paper-data="{&quot;origPos&quot;:null,&quot;index&quot;:null}" fill="none" stroke="#a31a40" stroke-width="10" stroke-linecap="round"/><path d="M388.74896,389.99096v33.64803" data-paper-data="{&quot;origPos&quot;:null,&quot;index&quot;:null}" fill="none" stroke="#ac2841" stroke-width="10" stroke-linecap="round"/><path d="M415.80024,349.83911v16.21392" data-paper-data="{&quot;origPos&quot;:null,&quot;index&quot;:null}" fill="none" stroke="#a31a40" stroke-width="10" stroke-linecap="round"/><path d="M326.92599,297.76498v11.38308" data-paper-data="{&quot;origPos&quot;:null,&quot;index&quot;:null}" fill="none" stroke="#ac2841" stroke-width="10" stroke-linecap="round"/><path d="M415.23831,179.50923v11.38308" data-paper-data="{&quot;origPos&quot;:null,&quot;index&quot;:null}" fill="none" stroke="#ac2841" stroke-width="10" stroke-linecap="round"/><path d="M353.83305,117.89995v-11.38307" data-paper-data="{&quot;origPos&quot;:null,&quot;index&quot;:null}" fill="none" stroke="#ac2841" stroke-width="10" stroke-linecap="round"/><path d="M306.21322,77.95223v-37.51622h129.11372v37.51622z" data-paper-data="{&quot;origPos&quot;:null,&quot;index&quot;:null}" fill="#830e37" stroke="none" stroke-width="0" stroke-linecap="butt"/><path d="M453.09888,65.89191h12.96984v12.00157h-12.96984z" data-paper-data="{&quot;origPos&quot;:null,&quot;origRot&quot;:0,&quot;index&quot;:null}" fill="#7a1039" stroke="none" stroke-width="0" stroke-linecap="butt"/><path d="M207.75518,451.21112v-530.03983h396.3964v530.03983z" data-paper-data="{&quot;origPos&quot;:null,&quot;index&quot;:null}" fill="none" stroke="none" stroke-width="NaN" stroke-linecap="butt"/><path d="M194.24158,538.28841v-178.67868h363.36336v178.67868z" data-paper-data="{&quot;origPos&quot;:null,&quot;index&quot;:null}" fill="none" stroke="none" stroke-width="0" stroke-linecap="butt"/><path d="M421.09941,65.98291h14.2845v12.00157h-14.2845z" data-paper-data="{&quot;origPos&quot;:null,&quot;origRot&quot;:0,&quot;index&quot;:null}" fill="#7a1039" stroke="none" stroke-width="0" stroke-linecap="butt"/><path d="M358.66399,65.82846h24.99689v12.00157h-24.99689z" data-paper-data="{&quot;origPos&quot;:null,&quot;origRot&quot;:0,&quot;index&quot;:null}" fill="#7a1039" stroke="none" stroke-width="0" stroke-linecap="butt"/><path d="M306.62862,41.5289h14.44254v36.05568h-14.44254z" data-paper-data="{&quot;origPos&quot;:null,&quot;origRot&quot;:0,&quot;index&quot;:null}" fill="#7a1039" stroke="none" stroke-width="0" stroke-linecap="butt"/><path d="M375.45626,52.60513l-51.7224,-0.35121c0,0 -9.09675,-0.56383 -14.54716,-5.74889c-5.29257,-5.03489 -5.44632,-14.15405 -5.44632,-14.15405l-0.30258,-41.74317c0,0 0.3246,-9.10711 6.35405,-14.45661c4.73854,-4.20418 12.45076,-4.94452 12.45076,-4.94452l47.16916,-0.40957l10.60127,15.02509l-0.24923,55.01386z" data-paper-data="{&quot;origPos&quot;:null,&quot;origRot&quot;:0,&quot;index&quot;:null}" fill="#fc2468" stroke="none" stroke-width="0" stroke-linecap="butt"/><path d="M336.22915,68.08825l-0.25843,-107.64555c0,0 0.56516,-9.37655 5.76255,-14.9946c5.04685,-5.45536 14.18766,-5.61384 14.18766,-5.61384l88.05192,-0.31187c0,0 9.12874,0.33459 14.49094,6.54949c4.21416,4.88429 4.95626,12.83372 4.95626,12.83372l0.41054,108.7284z" data-paper-data="{&quot;origPos&quot;:null,&quot;origRot&quot;:0,&quot;index&quot;:null}" fill="url(#color-1)" stroke="none" stroke-width="0" stroke-linecap="butt"/><path d="M379.27895,54.44363c0,0 -0.88282,7.21624 -6.4535,10.87085c-5.57068,3.65461 -10.12942,2.62919 -13.2065,2.60887c-9.23124,-0.06096 -25.64266,-0.20176 -25.64266,-0.20176c0,0 -6.76043,-0.40747 -10.81101,-4.15476c-3.93328,-3.63875 -4.04754,-10.22922 -4.04754,-10.22922l-0.22486,-17.70944c0,0 0.24123,-6.58177 4.72214,-10.44788c3.52155,-3.03838 9.25304,-3.57343 9.25304,-3.57343l30.00354,-0.55917c0,0 8.26732,-0.18196 12.28727,3.51542c4.01995,3.69738 4.30529,11.7457 4.30529,11.7457l-0.18522,18.13482z" data-paper-data="{&quot;origPos&quot;:null,&quot;origRot&quot;:0,&quot;index&quot;:null}" fill="#ff3b7c" stroke="none" stroke-width="0" stroke-linecap="butt"/><path d="M481.11214,53.94938c0,0 -0.88282,7.21624 -6.45349,10.87085c-5.57068,3.6546 -10.12942,2.62918 -13.2065,2.60886c-9.23124,-0.06096 -25.64266,-0.20176 -25.64266,-0.20176c0,0 -6.76043,-0.40747 -10.81101,-4.15476c-3.93329,-3.63875 -4.04755,-10.22922 -4.04755,-10.22922l-0.22486,-17.70944c0,0 0.24123,-6.58178 4.72214,-10.44789c3.52155,-3.03838 9.25304,-3.57343 9.25304,-3.57343l30.00354,-0.55917c0,0 8.26731,-0.18196 12.28727,3.51542c4.01996,3.69738 4.30529,11.7457 4.30529,11.7457l-0.18521,18.13482z" data-paper-data="{&quot;origPos&quot;:null,&quot;origRot&quot;:0,&quot;index&quot;:null}" fill="#ff3b7c" stroke="none" stroke-width="0" stroke-linecap="butt"/><g data-paper-data="{&quot;origPos&quot;:null,&quot;index&quot;:null}"><g data-paper-data="{&quot;origPos&quot;:null}" stroke="none" stroke-linecap="butt"><path d="M429.24293,109.23946c0,-12.24786 10.72317,-22.1767 23.95085,-22.1767c13.22769,0 23.95085,9.92884 23.95085,22.1767c0,12.24786 -20.84611,4.43534 -20.84611,4.43534c0,0 -27.05558,7.81252 -27.05558,-4.43534z" data-paper-data="{&quot;origPos&quot;:null}" fill="url(#color-2)" stroke-width="NaN"/><path d="M392.50433,109.16472c0,-12.24786 10.72317,-22.17671 23.95085,-22.17671c13.22769,0 23.95085,9.92885 23.95085,22.17671c0,12.24787 -20.84611,4.43534 -20.84611,4.43534c0,0 -27.05558,7.81252 -27.05558,-4.43534z" data-paper-data="{&quot;origPos&quot;:null}" fill="url(#color-3)" stroke-width="NaN"/><path d="M356.65279,109.08999c0,-12.24786 10.72317,-22.17671 23.95085,-22.17671c13.22769,0 23.95085,9.92885 23.95085,22.17671c0,12.24787 -20.84611,4.43534 -20.84611,4.43534c0,0 -27.05558,7.81252 -27.05558,-4.43534z" data-paper-data="{&quot;origPos&quot;:null}" fill="url(#color-4)" stroke-width="NaN"/><path d="M354.093,123.47641l14.22687,-29.87477l93.29811,-1.66667v31.41098z" data-paper-data="{&quot;origPos&quot;:null}" fill="url(#color-5)" stroke-width="0"/><path d="M458.37255,113.95997c0,-8.32855 6.9502,-15.08016 15.5237,-15.08016c8.5735,0 15.5237,6.75161 15.5237,15.08016c0,8.32854 -5.46672,15.94632 -14.04022,15.94632c-8.5735,0 -17.00717,-7.61777 -17.00717,-15.94632z" data-paper-data="{&quot;origPos&quot;:null}" fill="url(#color-6)" stroke-width="0"/><path d="M362.01543,98.17957c3.71778,0 5.90243,0.65935 8.96486,2.76731c4.66595,3.21169 6.55884,6.64839 6.55884,12.31285c0,8.32855 -9.1921,16.63162 -17.7656,16.63162c-8.5735,0 -13.2818,-8.30307 -13.2818,-16.63162c0,-8.32854 6.9502,-15.08016 15.5237,-15.08016z" data-paper-data="{&quot;origPos&quot;:null}" fill="url(#color-7)" stroke-width="0"/></g><path d="M476.8572,127.29138h-121.79394" data-paper-data="{&quot;origPos&quot;:null}" fill="#ffc3d5" stroke="#ffc3d5" stroke-width="9" stroke-linecap="round"/><path d="M415.70005,122.49019c5.16868,-1.6283 6.93222,-1.48741 10.36417,-3.39753c4.6158,-3.00757 9.67257,-2.34864 9.67257,-2.34864c4.85924,0 8.14324,-0.09767 12.8288,2.71514c2.1293,1.27826 4.81478,1.43009 7.80643,2.82298c0.29545,0.13756 -6.44486,2.90845 -6.44486,3.23435c0,5.87785 -6.9113,0.28571 -14.74843,0.28571c-7.83712,0 -23.97788,-0.78138 -19.47867,-3.31201z" data-paper-data="{&quot;origPos&quot;:null}" fill="#ffc3d5" stroke="none" stroke-width="0" stroke-linecap="butt"/><path d="M377.54404,122.27873c5.16868,-1.6283 6.93222,-1.48741 10.36417,-3.39753c4.6158,-3.00757 9.67257,-2.34864 9.67257,-2.34864c4.85924,0 8.14324,-0.09767 12.8288,2.71514c2.12931,1.27826 4.81479,1.43009 7.80644,2.82298c0.29545,0.13756 -6.44486,2.90845 -6.44486,3.23435c0,5.87785 -6.9113,0.28571 -14.74843,0.28571c-7.83713,0 -23.97789,-0.78138 -19.47868,-3.31201z" data-paper-data="{&quot;origPos&quot;:null}" fill="#ffc3d5" stroke="none" stroke-width="0" stroke-linecap="butt"/></g><g data-paper-data="{&quot;origPos&quot;:null,&quot;index&quot;:null}"><g data-paper-data="{&quot;origPos&quot;:null}" stroke="none" stroke-linecap="butt"><path d="M407.72642,262.89112c0,-12.24786 10.72317,-22.1767 23.95085,-22.1767c13.22769,0 23.95085,9.92884 23.95085,22.1767c0,12.24786 -20.84611,4.43534 -20.84611,4.43534c0,0 -27.05558,7.81252 -27.05558,-4.43534z" data-paper-data="{&quot;origPos&quot;:null}" fill="url(#color-8)" stroke-width="NaN"/><path d="M370.98782,262.81638c0,-12.24786 10.72317,-22.17671 23.95085,-22.17671c13.22769,0 23.95085,9.92885 23.95085,22.17671c0,12.24787 -20.84611,4.43534 -20.84611,4.43534c0,0 -27.05558,7.81252 -27.05558,-4.43534z" data-paper-data="{&quot;origPos&quot;:null}" fill="url(#color-9)" stroke-width="NaN"/><path d="M335.13628,262.74165c0,-12.24786 10.72317,-22.17671 23.95085,-22.17671c13.22769,0 23.95085,9.92885 23.95085,22.17671c0,12.24787 -20.84611,4.43534 -20.84611,4.43534c0,0 -27.05558,7.81252 -27.05558,-4.43534z" data-paper-data="{&quot;origPos&quot;:null}" fill="url(#color-10)" stroke-width="NaN"/><path d="M332.57649,277.12807l14.22687,-29.87477l93.29811,-1.66667v31.41098z" data-paper-data="{&quot;origPos&quot;:null}" fill="url(#color-11)" stroke-width="0"/><path d="M436.85604,267.61163c0,-8.32855 6.9502,-15.08016 15.5237,-15.08016c8.5735,0 15.5237,6.75161 15.5237,15.08016c0,8.32854 -5.46672,15.94632 -14.04022,15.94632c-8.5735,0 -17.00717,-7.61777 -17.00717,-15.94632z" data-paper-data="{&quot;origPos&quot;:null}" fill="url(#color-12)" stroke-width="0"/><path d="M340.49892,251.83123c3.71778,0 5.90243,0.65935 8.96486,2.76731c4.66595,3.21169 6.55884,6.64839 6.55884,12.31285c0,8.32855 -9.1921,16.63162 -17.7656,16.63162c-8.5735,0 -13.2818,-8.30307 -13.2818,-16.63162c0,-8.32854 6.9502,-15.08016 15.5237,-15.08016z" data-paper-data="{&quot;origPos&quot;:null}" fill="url(#color-13)" stroke-width="0"/></g><path d="M455.34069,280.94304h-121.79394" data-paper-data="{&quot;origPos&quot;:null}" fill="#ffc3d5" stroke="#ffc3d5" stroke-width="9" stroke-linecap="round"/><path d="M394.18354,276.14185c5.16868,-1.6283 6.93222,-1.48741 10.36417,-3.39753c4.6158,-3.00757 9.67257,-2.34864 9.67257,-2.34864c4.85924,0 8.14324,-0.09767 12.8288,2.71514c2.1293,1.27826 4.81478,1.43009 7.80643,2.82298c0.29545,0.13756 -6.44486,2.90845 -6.44486,3.23435c0,5.87785 -6.9113,0.28571 -14.74843,0.28571c-7.83712,0 -23.97788,-0.78138 -19.47867,-3.31201z" data-paper-data="{&quot;origPos&quot;:null}" fill="#ffc3d5" stroke="none" stroke-width="0" stroke-linecap="butt"/><path d="M356.02753,275.93039c5.16868,-1.6283 6.93222,-1.48741 10.36417,-3.39753c4.6158,-3.00757 9.67257,-2.34864 9.67257,-2.34864c4.85924,0 8.14324,-0.09767 12.8288,2.71514c2.12931,1.27826 4.81479,1.43009 7.80644,2.82298c0.29545,0.13756 -6.44486,2.90845 -6.44486,3.23435c0,5.87785 -6.9113,0.28571 -14.74843,0.28571c-7.83713,0 -23.97789,-0.78138 -19.47868,-3.31201z" data-paper-data="{&quot;origPos&quot;:null}" fill="#ffc3d5" stroke="none" stroke-width="0" stroke-linecap="butt"/></g><g data-paper-data="{&quot;origPos&quot;:null,&quot;index&quot;:null}"><g data-paper-data="{&quot;origPos&quot;:null}" stroke="none" stroke-linecap="butt"><path d="M374.60394,147.27896c0,-12.24786 10.72317,-22.17671 23.95085,-22.17671c13.22769,0 23.95085,9.92885 23.95085,22.17671c0,12.24787 -20.84611,4.43534 -20.84611,4.43534c0,0 -27.05558,7.81252 -27.05558,-4.43534z" data-paper-data="{&quot;origPos&quot;:null}" fill="url(#color-14)" stroke-width="NaN"/><path d="M338.7524,147.20423c0,-12.24786 10.72317,-22.17671 23.95085,-22.17671c13.22769,0 23.95085,9.92885 23.95085,22.17671c0,12.24787 -20.84611,4.43534 -20.84611,4.43534c0,0 -27.05558,7.81252 -27.05558,-4.43534z" data-paper-data="{&quot;origPos&quot;:null}" fill="url(#color-15)" stroke-width="NaN"/><path d="M302.0138,147.1295c0,-12.24786 10.72317,-22.17671 23.95085,-22.17671c13.2277,0 23.95085,9.92885 23.95085,22.17671c0,12.24787 -20.84611,4.43534 -20.84611,4.43534c0,0 -27.05558,7.81252 -27.05558,-4.43534z" data-paper-data="{&quot;origPos&quot;:null}" fill="url(#color-16)" stroke-width="NaN"/><path d="M265.2752,147.05476c0,-12.24786 10.72317,-22.17671 23.95085,-22.17671c13.2277,0 23.95085,9.92885 23.95085,22.17671c0,12.24786 -20.84611,4.43533 -20.84611,4.43533c0,0 -27.05558,7.81253 -27.05558,-4.43533z" data-paper-data="{&quot;origPos&quot;:null}" fill="url(#color-17)" stroke-width="NaN"/><path d="M257.82847,160.79352l20.22687,-30.74431l134.02408,1.46022l8.76134,30.25757z" data-paper-data="{&quot;origPos&quot;:null}" fill="url(#color-18)" stroke-width="0"/><path d="M406.88705,151.56879c0,-8.32855 6.9502,-15.08016 15.5237,-15.08016c8.5735,0 15.5237,6.75161 15.5237,15.08016c0,8.32854 -4.64605,16.4396 -13.21955,16.4396c-8.5735,0 -17.82784,-8.11105 -17.82784,-16.4396z" data-paper-data="{&quot;origPos&quot;:null}" fill="url(#color-19)" stroke-width="0"/><path d="M265.94824,135.65847c3.71778,0 5.90243,0.65935 8.96486,2.76731c4.66595,3.21169 6.55884,6.64839 6.55884,12.31285c0,8.32855 -9.2474,16.62852 -17.8209,16.62852c-8.5735,0 -13.2265,-8.29997 -13.2265,-16.62852c0,-8.32854 6.9502,-15.08016 15.5237,-15.08016z" data-paper-data="{&quot;origPos&quot;:null}" fill="url(#color-20)" stroke-width="0"/></g><path d="M425.23457,164.18674c0,0 -70.9387,0 -119.85778,0c-15.5848,0 -33.91934,0 -39.9341,0c-2.00492,0 -3.47146,0 -3.47146,0" data-paper-data="{&quot;origPos&quot;:null}" fill="#ffc3d5" stroke="#ffc3d5" stroke-width="10" stroke-linecap="round"/><path d="M359.64364,160.39296c5.16868,-1.6283 6.93222,-1.48741 10.36417,-3.39753c4.6158,-3.00757 9.67257,-2.34864 9.67257,-2.34864c4.85924,0 8.14324,-0.09767 12.8288,2.71514c2.12931,1.27826 4.81479,1.43009 7.80644,2.82298c0.29545,0.13756 -6.44486,2.90845 -6.44486,3.23435c0,5.87785 -6.9113,0.28571 -14.74843,0.28571c-7.83713,0 -23.97789,-0.78138 -19.47868,-3.31201z" data-paper-data="{&quot;origPos&quot;:null}" fill="#ffc3d5" stroke="none" stroke-width="0" stroke-linecap="butt"/><path d="M323.7311,160.06503c5.16868,-1.6283 6.93222,-1.48741 10.36417,-3.39753c4.6158,-3.00757 9.67257,-2.34864 9.67257,-2.34864c4.85924,0 8.14324,-0.09767 12.8288,2.71514c2.1293,1.27826 4.81478,1.43009 7.80643,2.82298c0.29544,0.13756 -6.44485,2.90845 -6.44485,3.23435c0,5.87785 -6.9113,0.28571 -14.74843,0.28571c-7.83713,0 -23.97789,-0.78138 -19.47868,-3.31201z" data-paper-data="{&quot;origPos&quot;:null}" fill="#ffc3d5" stroke="none" stroke-width="0" stroke-linecap="butt"/><path d="M286.54984,159.85353c5.16868,-1.6283 6.93222,-1.4874 10.36417,-3.39752c4.6158,-3.00757 9.67257,-2.34864 9.67257,-2.34864c4.85924,0 8.14324,-0.09767 12.8288,2.71514c2.1293,1.27826 4.81478,1.43009 7.80643,2.82298c0.29544,0.13756 -6.44485,2.90845 -6.44485,3.23435c0,5.87785 -6.91131,0.28571 -14.74844,0.28571c-7.83712,0 -23.97788,-0.78138 -19.47867,-3.31201z" data-paper-data="{&quot;origPos&quot;:null}" fill="#ffc3d5" stroke="none" stroke-width="0" stroke-linecap="butt"/></g><g data-paper-data="{&quot;origPos&quot;:null,&quot;index&quot;:null}"><g data-paper-data="{&quot;origPos&quot;:null}" stroke="none" stroke-linecap="butt"><path d="M332.65135,379.00822c0,-12.24786 10.72317,-22.1767 23.95085,-22.1767c13.22769,0 23.95085,9.92884 23.95085,22.1767c0,12.24786 -20.84611,4.43534 -20.84611,4.43534c0,0 -27.05558,7.81252 -27.05558,-4.43534z" data-paper-data="{&quot;origPos&quot;:null}" fill="url(#color-21)" stroke-width="NaN"/><path d="M295.91275,378.93348c0,-12.24786 10.72317,-22.17671 23.95085,-22.17671c13.22769,0 23.95085,9.92885 23.95085,22.17671c0,12.24787 -20.84611,4.43534 -20.84611,4.43534c0,0 -27.05558,7.81252 -27.05558,-4.43534z" data-paper-data="{&quot;origPos&quot;:null}" fill="url(#color-22)" stroke-width="NaN"/><path d="M260.06121,378.85875c0,-12.24786 10.72317,-22.17671 23.95085,-22.17671c13.22769,0 23.95085,9.92885 23.95085,22.17671c0,12.24787 -20.84611,4.43534 -20.84611,4.43534c0,0 -27.05558,7.81252 -27.05558,-4.43534z" data-paper-data="{&quot;origPos&quot;:null}" fill="url(#color-23)" stroke-width="NaN"/><path d="M257.50142,393.24517l14.22687,-29.87477l93.29811,-1.66667v31.41098z" data-paper-data="{&quot;origPos&quot;:null}" fill="url(#color-24)" stroke-width="0"/><path d="M361.78097,383.72873c0,-8.32855 6.9502,-15.08016 15.5237,-15.08016c8.5735,0 15.5237,6.75161 15.5237,15.08016c0,8.32854 -5.46672,15.94632 -14.04022,15.94632c-8.5735,0 -17.00717,-7.61777 -17.00717,-15.94632z" data-paper-data="{&quot;origPos&quot;:null}" fill="url(#color-25)" stroke-width="0"/><path d="M265.42385,367.94833c3.71778,0 5.90243,0.65935 8.96486,2.76731c4.66595,3.21169 6.55884,6.64839 6.55884,12.31285c0,8.32855 -9.1921,16.63162 -17.7656,16.63162c-8.5735,0 -13.2818,-8.30307 -13.2818,-16.63162c0,-8.32854 6.9502,-15.08016 15.5237,-15.08016z" data-paper-data="{&quot;origPos&quot;:null}" fill="url(#color-26)" stroke-width="0"/></g><path d="M258.47168,397.06014h121.79394" data-paper-data="{&quot;origPos&quot;:null}" fill="#ffc3d5" stroke="#ffc3d5" stroke-width="9" stroke-linecap="round"/><path d="M319.10847,392.25895c5.16868,-1.6283 6.93222,-1.48741 10.36417,-3.39753c4.6158,-3.00757 9.67257,-2.34864 9.67257,-2.34864c4.85924,0 8.14324,-0.09767 12.8288,2.71514c2.1293,1.27826 4.81478,1.43009 7.80643,2.82298c0.29545,0.13756 -6.44486,2.90845 -6.44486,3.23435c0,5.87785 -6.9113,0.28571 -14.74843,0.28571c-7.83712,0 -23.97788,-0.78138 -19.47867,-3.31201z" data-paper-data="{&quot;origPos&quot;:null}" fill="#ffc3d5" stroke="none" stroke-width="0" stroke-linecap="butt"/><path d="M280.95246,392.04749c5.16868,-1.6283 6.93222,-1.48741 10.36417,-3.39753c4.6158,-3.00757 9.67257,-2.34864 9.67257,-2.34864c4.85924,0 8.14324,-0.09767 12.8288,2.71514c2.12931,1.27826 4.81479,1.43009 7.80644,2.82298c0.29545,0.13756 -6.44486,2.90845 -6.44486,3.23435c0,5.87785 -6.9113,0.28571 -14.74843,0.28571c-7.83713,0 -23.97789,-0.78138 -19.47868,-3.31201z" data-paper-data="{&quot;origPos&quot;:null}" fill="#ffc3d5" stroke="none" stroke-width="0" stroke-linecap="butt"/></g></g></g></svg>