<svg version="1.1" xmlns="http://www.w3.org/2000/svg" xmlns:xlink="http://www.w3.org/1999/xlink" width="170" height="185"><g transform="translate(-158.55707,-83.66847)"><g data-paper-data="{&quot;isPaintingLayer&quot;:true}" fill-rule="nonzero" stroke-width="0" stroke-linecap="butt" stroke-linejoin="miter" stroke-miterlimit="10" stroke-dasharray="" stroke-dashoffset="0" style="mix-blend-mode: normal"><g data-paper-data="{&quot;origPos&quot;:null}" fill="#b82832" stroke="none"><path d="M189.00548,231.79581l0.32341,-32.21854l99.31646,-0.47766l-0.22314,32.69622z" data-paper-data="{&quot;origPos&quot;:null}"/><path d="M273.23632,240.10692c-0.92187,-0.69319 -0.78357,-2.047 -0.78357,-2.047v-15.79901h16.08182v15.73885c0,0 0.23183,1.34605 -0.7516,2.08578c-0.98344,0.73973 -2.82891,0.60742 -2.82891,0.60742h-8.99968c0,0 -1.79618,0.10717 -2.71806,-0.58602z" data-paper-data="{&quot;origPos&quot;:null}"/><path d="M245.14263,240.3886c-0.92187,-0.69319 -0.78356,-2.047 -0.78356,-2.047v-15.79901h16.08183v15.73884c0,0 0.23183,1.34605 -0.75161,2.08578c-0.98344,0.73973 -2.82891,0.60742 -2.82891,0.60742h-8.99968c0,0 -1.79619,0.10717 -2.71806,-0.58603z" data-paper-data="{&quot;origPos&quot;:null}"/><path d="M216.82873,240.48828c-0.92187,-0.69319 -0.78356,-2.047 -0.78356,-2.047v-15.79901h16.08182v15.73885c0,0 0.23184,1.34605 -0.7516,2.08578c-0.98344,0.73973 -2.82891,0.60742 -2.82891,0.60742h-8.99968c0,0 -1.79619,0.10717 -2.71806,-0.58602z" data-paper-data="{&quot;origPos&quot;:null}"/><path d="M189.75297,241.31593c-0.90795,-0.69319 -0.77174,-2.047 -0.77174,-2.047v-15.79901h15.83896v15.73884c0,0 0.22833,1.34606 -0.74026,2.08578c-0.96859,0.73973 -2.78619,0.60742 -2.78619,0.60742h-8.86377c0,0 -1.76906,0.10717 -2.67701,-0.58603z" data-paper-data="{&quot;origPos&quot;:null}"/></g><path d="M189.02238,220.43522l0.37105,-57.58878l99.70454,0.09849l0.13371,36.32666c0,0 -0.21618,1.12754 -0.70141,1.47241c-0.48523,0.34487 -2.02747,0.48939 -2.02747,0.48939l-68.59116,-0.11135c0,0 -1.04765,-0.09712 -1.61624,0.32716c-0.56859,0.42428 -0.44744,1.21276 -0.44744,1.21276l-0.09121,4.65342c0,0 -0.20692,0.9147 0.43627,1.37428c0.64319,0.45959 1.94799,0.32935 1.94799,0.32935l67.47031,-0.02888c0,0 1.56572,0.12211 2.11039,0.47171c0.54467,0.3496 0.80241,1.46151 0.80241,1.46151l-0.04291,9.42955z" data-paper-data="{&quot;origPos&quot;:null}" fill="#fe404f" stroke="#000000"/><path d="M189.35517,174.84328v-9.47332c0,0 0.03818,-3.85609 2.77859,-5.62393c2.74041,-1.76782 7.77553,-1.64146 7.77553,-1.64146h76.93528c0,0 6.44492,-0.03869 9.32105,2.1185c2.87613,2.15717 2.83257,6.62524 2.83257,6.62524v7.99497z" data-paper-data="{&quot;origPos&quot;:null}" fill="#b82832" stroke="none"/><path d="M209.5218,149.39c1.14174,-0.87311 3.49827,-0.76035 3.49827,-0.76035l41.268,-0.17196c0,0 5.99622,-0.03608 8.67829,1.97555c2.68207,2.01163 2.6553,6.15751 2.6553,6.15751v7.47625h-57.30603l0.17562,-11.97642c0,0 -0.11119,-1.82747 1.03055,-2.70058z" data-paper-data="{&quot;origPos&quot;:null}" fill="#b82832" stroke="none"/><g data-paper-data="{&quot;origPos&quot;:null}" fill="#ffffff" stroke="none"><path d="M287.79317,201.36109c0,0 1.29537,0.02652 1.60945,0.93689c0.31408,0.91034 -0.64215,1.86688 -0.64215,1.86688l-7.74481,9.33914c0,0 -0.90557,1.40327 -1.94471,1.31373c-1.03914,-0.08954 -1.8741,-1.64278 -1.8741,-1.64278l-9.18059,-11.81386z" data-paper-data="{&quot;origPos&quot;:null,&quot;index&quot;:null}"/><path d="M270.39317,201.36109c0,0 1.29538,0.02652 1.60945,0.93689c0.31408,0.91034 -0.64216,1.86688 -0.64216,1.86688l-7.74481,9.33914c0,0 -0.90557,1.40327 -1.94471,1.31373c-1.03914,-0.08954 -1.8741,-1.64278 -1.8741,-1.64278l-9.18059,-11.81386z" data-paper-data="{&quot;origPos&quot;:null,&quot;index&quot;:null}"/></g><path d="M229.35072,185.15812c-1.79194,-1.29469 -1.4572,-3.86586 -1.4572,-3.86586l0.16223,-21.00138c0,0 0.04546,-3.01824 2.39299,-3.98134c2.34753,-0.9631 6.73526,0.44092 6.73526,0.44092l49.00367,22.81508c0,0 3.99774,1.88047 2.48058,4.62762c-1.37726,2.49382 -6.68494,2.15622 -6.68494,2.15622l-47.25865,-0.12156c0,0 -3.582,0.225 -5.37394,-1.06969z" data-paper-data="{&quot;origPos&quot;:null}" fill="#fdf883" stroke="none"/><path d="M244.78775,170.12619c0,-3.97568 4.30926,-7.1986 9.625,-7.1986c5.31574,0 9.625,3.22293 9.625,7.1986c0,3.97568 -4.30926,7.1986 -9.625,7.1986c-5.31574,0 -9.625,-3.22293 -9.625,-7.1986z" data-paper-data="{&quot;origPos&quot;:null}" fill="#f02333" stroke="none"/><path d="M158.55707,268.66847v-185h170v185z" fill="none" stroke="none"/></g></g></svg>