<svg version="1.1" xmlns="http://www.w3.org/2000/svg" xmlns:xlink="http://www.w3.org/1999/xlink" width="73.61589" height="369.49741" viewBox="0,0,73.61589,369.49741"><g transform="translate(-12.00911,-37.13206)"><g data-paper-data="{&quot;isPaintingLayer&quot;:true}" fill="none" fill-rule="nonzero" stroke="none" stroke-width="none" stroke-linecap="butt" stroke-linejoin="miter" stroke-miterlimit="10" stroke-dasharray="" stroke-dashoffset="0" font-family="none" font-weight="none" font-size="none" text-anchor="none" style="mix-blend-mode: normal"><path d="M76.16748,37.38206c0,-0.13807 0.10242,-0.25 0.22876,-0.25c0.12634,0 0.22876,0.11193 0.22876,0.25c0,0.13807 -0.10242,0.25 -0.22876,0.25c-0.12634,0 -0.22876,-0.11193 -0.22876,-0.25z" fill="#ffffff" stroke-width="0.5"/><g data-paper-data="{&quot;origPos&quot;:null}" fill="#fe6780" stroke-width="0"><path d="M32.82854,392.07099c1.49102,6.94668 -2.50854,16.06308 -7.97771,14.34779c-5.46733,-1.7147 -11.00549,-8.47431 -12.4965,-15.42098c-1.49102,-6.94668 1.99127,-12.59785 7.67846,-12.40489c5.68719,0.19296 11.30474,6.53141 12.79576,13.47808z" data-paper-data="{&quot;origPos&quot;:null,&quot;origRot&quot;:0}"/><path d="M32.36517,378.5048c5.68719,-0.19296 9.16948,5.45821 7.67846,12.40489c-1.49102,6.94668 -8.68057,14.95534 -13.88407,15.71467c-1.99453,-0.20056 -3.12315,-0.85157 -4.47612,-2.46564c-0.76781,-0.91598 -1.16694,-1.47462 -1.71894,-2.56055c-1.656,-3.25776 -1.44852,-5.09557 -0.59661,-9.06464c1.49102,-6.94668 7.3101,-13.83576 12.9973,-14.02872z" data-paper-data="{&quot;origPos&quot;:null,&quot;origRot&quot;:0,&quot;index&quot;:null}"/></g><path d="M85.16749,37.38206c0,-0.13807 0.10242,-0.25 0.22876,-0.25c0.12634,0 0.22876,0.11193 0.22876,0.25c0,0.13807 -0.10242,0.25 -0.22876,0.25c-0.12634,0 -0.22876,-0.11193 -0.22876,-0.25z" fill="#ffffff" stroke-width="0.5"/><g data-paper-data="{&quot;origPos&quot;:null}" fill="#fe6780" stroke-width="0"><path d="M41.82855,392.07099c1.49102,6.94668 -2.50854,16.06308 -7.97771,14.34779c-5.46733,-1.7147 -11.00549,-8.47431 -12.4965,-15.42098c-1.49102,-6.94668 1.99127,-12.59785 7.67846,-12.40489c5.68719,0.19296 11.30474,6.53141 12.79576,13.47808z" data-paper-data="{&quot;origPos&quot;:null,&quot;origRot&quot;:0}"/><path d="M41.36518,378.5048c5.68719,-0.19296 9.16948,5.45821 7.67846,12.40489c-1.49102,6.94668 -8.68057,14.95534 -13.88407,15.71467c-1.99453,-0.20056 -3.12315,-0.85157 -4.47612,-2.46564c-0.76781,-0.91598 -1.16694,-1.47462 -1.71894,-2.56055c-1.656,-3.25776 -1.44852,-5.09557 -0.59661,-9.06464c1.49102,-6.94668 7.3101,-13.83576 12.9973,-14.02872z" data-paper-data="{&quot;origPos&quot;:null,&quot;origRot&quot;:0,&quot;index&quot;:null}"/></g></g></g></svg>