<svg version="1.1" xmlns="http://www.w3.org/2000/svg" xmlns:xlink="http://www.w3.org/1999/xlink" width="522.09261" height="525.40968"><g transform="translate(-59.29866,24.21822)"><g data-paper-data="{&quot;isPaintingLayer&quot;:true}" fill-rule="nonzero" stroke-linejoin="miter" stroke-miterlimit="10" stroke-dasharray="" stroke-dashoffset="0" style="mix-blend-mode: normal"><path d="M136.44148,426.75175l0.699,-260.95889l119.63953,-4.63378l137.71086,128.26317l126.19223,-0.12789l-0.75223,140.64992z" data-paper-data="{&quot;origPos&quot;:null,&quot;index&quot;:null}" fill="#03a63b" stroke="none" stroke-width="0" stroke-linecap="butt"/><path d="M390.72989,269.97157l130.12559,0.01442l0.01847,29.65591l-130.01984,0.16667z" data-paper-data="{&quot;origPos&quot;:null,&quot;index&quot;:null}" fill="#48c900" stroke="none" stroke-width="0" stroke-linecap="butt"/><path d="M392.50636,283.20209l-129.64664,-122.07474" data-paper-data="{&quot;origPos&quot;:null,&quot;index&quot;:null,&quot;origRot&quot;:0}" fill="none" stroke="#48c900" stroke-width="32.5" stroke-linecap="round"/><path d="M520.93173,270.97908c0,0 -124.57103,0.54444 -124.51346,0.29067c0.17271,-0.76132 1.87713,-7.75278 1.87713,-7.75278c0,0 103.98072,0 119.26948,0c0.86904,0 2.16532,1.17007 2.64791,2.52452c0.55201,1.54929 0.71893,5.30832 0.71893,5.30832z" data-paper-data="{&quot;origPos&quot;:null,&quot;index&quot;:null}" fill="#b4ff53" stroke="none" stroke-width="0" stroke-linecap="butt"/><path d="M483.63068,285.36112h-45.37424" data-paper-data="{&quot;origPos&quot;:null}" fill="none" stroke="#3dc400" stroke-width="27" stroke-linecap="round"/><path d="M345.07383,242.21047l-40.08969,-38.48804" data-paper-data="{&quot;origPos&quot;:null,&quot;origRot&quot;:0}" fill="none" stroke="#3dc400" stroke-width="27" stroke-linecap="round"/><path d="M267.14085,172.47524l-131.01984,-0.16667l1.01847,-29.65591l130.12559,-0.01442z" data-paper-data="{&quot;origPos&quot;:null,&quot;index&quot;:null}" fill="#48c900" stroke="none" stroke-width="0" stroke-linecap="butt"/><path d="M136.89662,143.76648c0,0 0.50021,-3.55908 1.96893,-5.30832c1.46872,-1.74924 4.89791,-2.27452 4.89791,-2.27452h117.60281c0,0 1.37109,6.99146 1.5438,7.75278c0.05757,0.25377 -126.01345,-0.16994 -126.01345,-0.16994z" data-paper-data="{&quot;origPos&quot;:null,&quot;index&quot;:null}" fill="#b4ff53" stroke="none" stroke-width="0" stroke-linecap="butt"/><path d="M170.36432,158.02779h45.37424" data-paper-data="{&quot;origPos&quot;:null,&quot;index&quot;:null}" fill="none" stroke="#3dc400" stroke-width="27" stroke-linecap="round"/><path d="M261.78162,140.24172l136.01852,127.41462" data-paper-data="{&quot;origPos&quot;:null,&quot;index&quot;:null,&quot;origRot&quot;:0}" fill="none" stroke="#b4ff53" stroke-width="7.5" stroke-linecap="round"/><path d="M394.11001,349.60337h57.42663" data-paper-data="{&quot;origPos&quot;:null,&quot;index&quot;:null}" fill="none" stroke="#04b742" stroke-width="30" stroke-linecap="round"/><path d="M196.11,243.60337h57.42663" data-paper-data="{&quot;origPos&quot;:null,&quot;index&quot;:null}" fill="none" stroke="#04b742" stroke-width="30" stroke-linecap="round"/><path d="M220.39522,272.32668h-54.40671" data-paper-data="{&quot;origPos&quot;:null,&quot;index&quot;:null}" fill="none" stroke="#02af3d" stroke-width="30" stroke-linecap="round"/><path d="M155.47362,501.19146v-87.93139h375.08232v87.93139z" fill="#03a63b" stroke="none" stroke-width="0" stroke-linecap="butt"/><path d="M59.29866,480.58254v-504.80076h522.09261v504.80076z" fill="none" stroke="none" stroke-width="0" stroke-linecap="butt"/></g></g></svg>