<svg version="1.1" xmlns="http://www.w3.org/2000/svg" xmlns:xlink="http://www.w3.org/1999/xlink" width="126.7335" height="88.28625" viewBox="0,0,126.7335,88.28625"><g transform="translate(-205.45308,-142.7171)"><g data-paper-data="{&quot;isPaintingLayer&quot;:true}" stroke="none" stroke-miterlimit="10" stroke-dasharray="" stroke-dashoffset="0" style="mix-blend-mode: normal"><path d="M242.36568,158.57806c0,-0.96222 0.85223,-1.78696 1.84194,-1.78696c0.96222,0 1.81444,0.82475 1.81444,1.78696c0,0.96222 -0.85223,1.78696 -1.81444,1.78696c-0.9897,0 -1.84194,-0.82475 -1.84194,-1.78696zM245.99456,164.13138v10.88669c0,1.01721 -0.82475,1.84194 -1.78696,1.84194c-0.9897,0 -1.81444,-0.82475 -1.81444,-1.84194v-10.88669c0,-0.9897 0.82475,-1.81444 1.81444,-1.81444c0.96222,0 1.78696,0.82475 1.78696,1.81444z" fill="#363636" fill-rule="evenodd" stroke-width="1" stroke-linecap="round" stroke-linejoin="round"/><path d="M239.02109,174.84377c0,1.26461 -1.23713,1.92441 -3.10656,1.92441c-1.86943,0 -3.76636,-0.60481 -3.76636,-4.42616v-7.17531h-0.79726c-0.87974,0 -1.45706,-0.57733 -1.45706,-1.40206c0,-0.85223 0.57733,-1.42957 1.45706,-1.42957h0.79726v-1.86943c0,-0.9897 0.82475,-1.81467 1.81444,-1.81467c0.9897,0 1.78697,0.82497 1.78697,1.81467v1.86943h1.81444c0.90722,0 1.45706,0.57733 1.45706,1.42957c0,0.82475 -0.54984,1.40206 -1.45706,1.40206h-1.81444v7.2853c0,0.79726 0.27492,1.20963 0.87974,1.20963c0.30241,0 0.74226,-0.10996 1.04468,-0.10996c0.82475,-0.05499 1.3471,0.43986 1.3471,1.2921z" fill="#363636" fill-rule="evenodd" stroke-width="1" stroke-linecap="round" stroke-linejoin="round"/><path d="M289.84492,168.69248c0,1.42957 -0.79726,1.92441 -2.25431,1.92441l-8.16501,-0.05499c0.3299,2.00689 1.92441,3.07906 3.9313,3.07906c0.9897,0 1.45706,-0.21995 2.2818,-0.57733c0.49485,-0.21994 0.87974,-0.43986 1.3471,-0.43986c0.76976,0 1.23712,0.54983 1.23712,1.23713c0,0.43986 -0.19242,0.93472 -0.87974,1.51205c-1.01721,0.71478 -2.39177,1.18215 -4.12375,1.18215c-3.65639,0 -7.53271,-2.25431 -7.53271,-7.25779c0,-4.9485 4.09625,-7.34027 7.2303,-7.34027c3.13405,0 6.92788,2.47424 6.92788,6.73546zM279.42562,168.08767h6.87291c-0.27492,-2.11686 -1.81444,-2.99659 -3.38147,-2.99659c-1.56702,0 -3.24402,0.87974 -3.49144,2.99659z" fill="#363636" fill-rule="evenodd" stroke-width="1" stroke-linecap="round" stroke-linejoin="round"/><path d="M273.17613,168.76812v6.2131c0,0.9897 -0.82475,1.78696 -1.81444,1.78696c-0.96222,0 -1.78696,-0.79726 -1.78696,-1.78696v-6.2131c0,-2.47424 -1.2921,-3.49144 -2.91411,-3.49144c-2.47424,0 -3.32649,2.30928 -3.40897,3.07906v-0.02749v0.43986v6.2131c0,0.9897 -0.82475,1.78696 -1.81444,1.78696c-0.96222,0 -1.78696,-0.79726 -1.78696,-1.78696v-6.2131c0,-2.47424 -1.2921,-3.49144 -2.91411,-3.49144c-2.47424,0 -3.299,2.30928 -3.40897,3.07906v6.62549c0,0.9897 -0.82475,1.78696 -1.78696,1.78696c-0.9897,0 -1.81444,-0.79726 -1.81444,-1.78696v-10.91418c0,-0.9897 0.82475,-1.81444 1.81444,-1.81444c0.96222,0 1.78696,0.82475 1.78696,1.81444v1.37458c0.10996,-0.9897 1.73197,-3.24402 4.70106,-3.24402c2.06186,0 3.9313,0.98969 4.75606,3.43645c0.76976,-1.70448 2.50174,-3.43645 5.16843,-3.43645c2.77666,0 5.22341,1.81444 5.22341,6.5705z" fill="#363636" fill-rule="evenodd" stroke-width="1" stroke-linecap="round" stroke-linejoin="round"/><path d="M291.74031,165.94206c0,-0.98106 0.79532,-1.77637 1.77638,-1.77637c0.98106,0 1.77638,0.79531 1.77638,1.77637c0,0.98106 -0.79532,1.77638 -1.77638,1.77638c-0.98106,0 -1.77638,-0.79532 -1.77638,-1.77638z" fill="#363636" fill-rule="nonzero" stroke-width="0" stroke-linecap="butt" stroke-linejoin="miter"/><path d="M291.75161,173.79298c0,-0.98106 0.79531,-1.77638 1.77637,-1.77638c0.98106,0 1.77638,0.79532 1.77638,1.77638c0,0.98106 -0.79533,1.77637 -1.77638,1.77637c-0.98106,0 -1.77637,-0.7953 -1.77637,-1.77637z" fill="#363636" fill-rule="nonzero" stroke-width="0" stroke-linecap="butt" stroke-linejoin="miter"/><path d="M205.45309,231.00336v-88.28625h126.7335v88.28625z" fill="none" fill-rule="nonzero" stroke-width="0" stroke-linecap="butt" stroke-linejoin="miter"/></g></g></svg>