<svg version="1.1" xmlns="http://www.w3.org/2000/svg" xmlns:xlink="http://www.w3.org/1999/xlink" width="105.88977" height="90" viewBox="0,0,105.88977,90"><g transform="translate(-193.43509,-138.01146)"><g data-paper-data="{&quot;isPaintingLayer&quot;:true}" fill-rule="nonzero" stroke-miterlimit="10" stroke-dasharray="" stroke-dashoffset="0" style="mix-blend-mode: normal"><g id="color" stroke="none" stroke-width="1" stroke-linecap="butt" stroke-linejoin="miter"><path d="M222.24491,180c0,-8.49343 6.88529,-15.37871 15.37872,-15.37871c8.49343,0 15.37872,6.88528 15.37872,15.37871c0,8.49343 -6.88529,15.37872 -15.37872,15.37872c-8.49343,0 -15.37871,-6.88529 -15.37871,-15.37872z" fill="#fcea2b"/><path d="M247.60717,179.07414c0.44601,0.88006 0.71161,1.84039 0.78123,2.82456c-6.30316,5.30066 -14.49552,7.44727 -15.81162,7.76497c-0.71567,-0.63549 -1.29989,-1.40504 -1.71966,-2.26516l0.06312,-0.03133c0,0 9.5166,-2.16058 16.59767,-8.19865z" fill="#ffffff"/><path d="M248.38831,181.89871c0.19056,2.96072 -1.58195,5.95963 -5.7938,8.05287c-4.25203,2.11316 -7.76715,1.69211 -10.01763,-0.2879c1.31603,-0.31777 9.50847,-2.46444 15.81143,-7.76497z" fill="#ea5a47"/><path d="M257.93182,178.02001c-0.22937,0.68378 -0.72107,1.24836 -1.36687,1.56946c-0.6458,0.32109 -1.39274,0.37236 -2.07635,0.14252c-2.55274,-0.85775 -4.28041,-4.28483 -4.29764,-4.31886c0.13648,-0.05843 3.48994,-1.68974 6.02973,-0.83634c0.68377,0.22938 1.24832,0.72116 1.56929,1.36701c0.32098,0.64585 0.37204,1.39281 0.14197,2.07635z" fill="#92d3f5"/><path d="M223.7798,194.9935c-0.68379,-0.22938 -1.24837,-0.72111 -1.56947,-1.36692c-0.3211,-0.6458 -0.37238,-1.39276 -0.14256,-2.07639c0.85781,-2.55268 4.28483,-4.2804 4.31886,-4.29758c0.05844,0.13648 1.68967,3.48994 0.83634,6.02974c-0.22938,0.68377 -0.72116,1.24832 -1.36701,1.56931c-0.64585,0.32099 -1.39281,0.37208 -2.07636,0.14202z" fill="#92d3f5"/></g><g id="line" fill="none" stroke="#000000" stroke-width="1.25" stroke-linejoin="round"><path d="M223.75436,184.98967c-0.02268,-0.06543 -0.06773,-0.1903 -0.08971,-0.25586c-2.3782,-7.01614 0.82067,-14.70737 7.47295,-17.96762c6.65228,-3.26025 14.69086,-1.07646 18.77909,5.1016c0.01987,0.03003 0.0396,0.06017 0.05921,0.09041" stroke-linecap="round"/><path d="M252.18352,182.29006c-0.77645,4.70308 -3.74807,8.75446 -8.00071,10.9078c-4.30964,2.07986 -9.35068,1.99056 -13.58396,-0.24062" stroke-linecap="round"/><path d="M247.60717,179.07414c0.44601,0.88006 0.71161,1.84039 0.78123,2.82456c-6.30316,5.30066 -14.49552,7.44727 -15.81162,7.76497c-0.71567,-0.63549 -1.29989,-1.40504 -1.71966,-2.26516l0.06312,-0.03133c0,0 9.5166,-2.16058 16.59767,-8.19865z" stroke-linecap="round"/><path d="M248.38831,181.89871c0.19056,2.96072 -1.58195,5.95963 -5.7938,8.05287c-4.25203,2.11316 -7.76715,1.69211 -10.01763,-0.2879c1.31603,-0.31783 9.5084,-2.46438 15.81143,-7.76497z" stroke-linecap="round"/><path d="M257.93182,178.02001c-0.22937,0.68378 -0.72107,1.24836 -1.36687,1.56946c-0.6458,0.32109 -1.39274,0.37236 -2.07635,0.14252c-2.55274,-0.85775 -4.28041,-4.28483 -4.29764,-4.31886c0.13648,-0.05843 3.48994,-1.68974 6.02973,-0.83634c0.68377,0.22938 1.24832,0.72116 1.56929,1.36701c0.32098,0.64585 0.37204,1.39281 0.14197,2.07635z" stroke-linecap="butt"/><path d="M223.7798,194.9935c-0.68379,-0.22938 -1.24837,-0.72111 -1.56947,-1.36692c-0.3211,-0.6458 -0.37238,-1.39276 -0.14256,-2.07639c0.85781,-2.55268 4.28483,-4.2804 4.31886,-4.29758c0.05844,0.13648 1.68967,3.48994 0.83634,6.02974c-0.22938,0.68377 -0.72116,1.24832 -1.36701,1.56931c-0.64585,0.32099 -1.39281,0.37208 -2.07636,0.14202z" stroke-linecap="butt"/><path d="M228.95922,178.16168l4.92439,0.42484l-2.7137,4.02345" stroke-linecap="round"/><path d="M243.60101,176.43156l-4.84557,-0.26657l2.63488,-4.18173" stroke-linecap="round"/></g><path d="M193.4351,228.01146v-90h105.88977v90z" fill="none" stroke="none" stroke-width="none" stroke-linecap="butt" stroke-linejoin="miter"/></g></g></svg>