<svg version="1.1" xmlns="http://www.w3.org/2000/svg" xmlns:xlink="http://www.w3.org/1999/xlink" width="644.14414" height="498.03677"><defs><linearGradient x1="66.2051" y1="-37.50235" x2="66.2051" y2="88.02821" gradientUnits="userSpaceOnUse" id="color-1"><stop offset="0" stop-color="#ffce17"/><stop offset="1" stop-color="#ff9100"/></linearGradient></defs><g transform="translate(107.93097,37.50235)"><g data-paper-data="{&quot;isPaintingLayer&quot;:true}" stroke-miterlimit="10" stroke-dasharray="" stroke-dashoffset="0" style="mix-blend-mode: normal"><g data-paper-data="{&quot;origPos&quot;:null,&quot;index&quot;:null}" fill-rule="nonzero" stroke-linejoin="miter"><g data-paper-data="{&quot;origPos&quot;:null}"><g data-paper-data="{&quot;origPos&quot;:null}"><g data-paper-data="{&quot;origPos&quot;:null}" stroke="none" stroke-width="0" stroke-linecap="butt"><path d="M95.91524,162.14965c-5.87796,-0.23854 -11.69324,-0.63816 -17.2477,-1.08753c-3.03244,-0.24534 -6.09518,0.12079 -9.1346,-0.1308c-10.78425,-0.76172 -21.74135,8.21359 -32.61769,8.38381v-73.44925h59z" data-paper-data="{&quot;origPos&quot;:null}" fill="#95153c"/><path d="M48.34903,161.13741c-3.87575,0.04235 -7.7525,12.45399 -11.61887,12.51393c0,-1.85704 0,-16.66354 0,-18.40116c0,-22.6086 0,-58.94292 0,-58.94292l11.74843,1.01121z" data-paper-data="{&quot;origPos&quot;:null}" fill="#88143c"/><path d="M96.23017,162.16228c-3.91732,-0.15506 -7.8084,-0.38249 -11.61464,-0.64938l-0.13379,-65.21202h11.74843z" data-paper-data="{&quot;origPos&quot;:null}" fill="#88143c"/><path d="M48.68243,108.36108v-12.46863h35.7453v12.46863z" data-paper-data="{&quot;origPos&quot;:null}" fill="#830e37"/><path d="M36.68242,108.61388v-12.71984h12.00157v12.71984z" data-paper-data="{&quot;origPos&quot;:null}" fill="#7a1039"/><path d="M84.28152,108.35948v-12.21105h11.7547v12.21105z" data-paper-data="{&quot;origPos&quot;:null}" fill="#7a1039"/></g><g data-paper-data="{&quot;origPos&quot;:null}"><path d="M66.2051,88.02821c-34.66431,0 -62.76528,-28.10097 -62.76528,-62.76528c0,-34.6643 28.10097,-62.76528 62.76528,-62.76528c34.6643,0 62.76528,28.10098 62.76528,62.76528c0,34.66431 -28.10098,62.76528 -62.76528,62.76528z" data-paper-data="{&quot;origPos&quot;:null}" fill="url(#color-1)" stroke="none" stroke-width="0" stroke-linecap="butt"/><path d="M121.51069,-2.23383h-109.90225" data-paper-data="{&quot;origPos&quot;:null}" fill="none" stroke="#ffde3d" stroke-width="28" stroke-linecap="round"/><path d="M11.93011,73.61984h109.90225" data-paper-data="{&quot;origPos&quot;:null}" fill="none" stroke="#fd7323" stroke-width="47" stroke-linecap="round"/><path d="M48.3126,18.71005v-11.59518" data-paper-data="{&quot;origPos&quot;:null}" fill="none" stroke="#ffde3d" stroke-width="9" stroke-linecap="round"/><path d="M24.95746,88.39173v17.64485" data-paper-data="{&quot;origPos&quot;:null}" fill="none" stroke="#fd7323" stroke-width="9" stroke-linecap="round"/><path d="M111.02044,93.82495c0.07076,0.457 0.11965,0.92178 0.14552,1.39327c0.42396,7.72771 -5.49689,14.33594 -13.2246,14.7599c-7.72771,0.42396 -14.33594,-5.49689 -14.7599,-13.2246c-0.05427,-0.98896 -0.0046,-1.95958 0.13945,-2.90125" data-paper-data="{&quot;origPos&quot;:null,&quot;origRot&quot;:0}" fill="none" stroke="#fd7323" stroke-width="9" stroke-linecap="butt"/></g></g><path d="M53.85025,165.2418v-40.01243" data-paper-data="{&quot;origPos&quot;:null}" fill="none" stroke="#ac2841" stroke-width="10" stroke-linecap="round"/></g><path d="M79.46825,130.16904v-10.02648" data-paper-data="{&quot;origPos&quot;:null}" fill="none" stroke="#ac2841" stroke-width="10" stroke-linecap="round"/></g><path d="M-81.6123,230.29374l60.83014,-58.65108l137.33033,6.65693c0,0 0.13357,228.73274 -0.27699,271.70711c-0.13685,14.32479 -2.41312,9.87396 -2.41312,9.87396l-195.63388,-10.6971z" data-paper-data="{&quot;origPos&quot;:null,&quot;index&quot;:null}" fill="#03a63b" fill-rule="nonzero" stroke="none" stroke-width="0" stroke-linecap="butt" stroke-linejoin="miter"/><path d="M-78.39053,218.19044l56,-50.5" data-paper-data="{&quot;origPos&quot;:null}" fill="none" fill-rule="nonzero" stroke="#48c900" stroke-width="34" stroke-linecap="round" stroke-linejoin="miter"/><path d="M-90.64053,203.10711l60.75,-54.25" data-paper-data="{&quot;origPos&quot;:null}" fill="none" fill-rule="nonzero" stroke="#b4ff53" stroke-width="7.5" stroke-linecap="round" stroke-linejoin="miter"/><path d="M115.91067,181.38316l-143.89061,-0.08594l0.09904,-29.91244l144.00064,-0.08611z" data-paper-data="{&quot;origPos&quot;:null,&quot;index&quot;:null}" fill="#48c900" fill-rule="nonzero" stroke="none" stroke-width="0" stroke-linecap="butt" stroke-linejoin="miter"/><path d="M-32.69563,151.63361c0,0 -0.25296,-4.00346 0.82415,-5.31142c1.07091,-1.30044 2.88551,-1.7312 4.76753,-1.7312c0.74592,0 2.35548,0 3.1014,0c2.23777,0 9.86779,0 140.54206,0c1.74267,0 3.81208,0.58512 4.7798,1.80293c1.10694,1.39299 0.91166,5.15636 0.91166,5.15636c0,0 -17.48489,-0.21408 -28.11069,-0.19108c-31.8774,0.06898 -126.81591,0.27441 -126.81591,0.27441z" data-paper-data="{&quot;origPos&quot;:null,&quot;index&quot;:null}" fill="#b4ff53" fill-rule="nonzero" stroke="none" stroke-width="0" stroke-linecap="butt" stroke-linejoin="miter"/><path d="M60.67172,261.52821h-51.20144" data-paper-data="{&quot;origPos&quot;:null}" fill="none" fill-rule="nonzero" stroke="#04b742" stroke-width="30" stroke-linecap="round" stroke-linejoin="miter"/><path d="M81.19496,166.21619h-63.04564" data-paper-data="{&quot;origPos&quot;:null}" fill="none" fill-rule="nonzero" stroke="#3dc400" stroke-width="28.5" stroke-linecap="round" stroke-linejoin="miter"/><g data-paper-data="{&quot;origPos&quot;:null}"><path d="M114.95766,181.57774v-32.79814h388.71376l0.33333,32.79814z" data-paper-data="{&quot;origPos&quot;:null}" fill="#ffbb51" fill-rule="nonzero" stroke="none" stroke-width="0" stroke-linecap="butt" stroke-linejoin="miter"/><path d="M351.21005,182.05747v-30.40128l52.79411,-0.33333v30.73462z" data-paper-data="{&quot;origPos&quot;:null}" fill="#ffcf59" fill-rule="nonzero" stroke="none" stroke-width="0" stroke-linecap="butt" stroke-linejoin="miter"/><path d="M440.9439,175.95873v-10.197c0,-2.79218 2.19312,-5.05554 4.89864,-5.05554h30.98056c2.70533,0 4.89864,2.26336 4.89864,5.05554v10.197c0,2.79212 -2.19332,5.05559 -4.89864,5.05559h-30.98056c-2.70552,0 -4.89864,-2.26347 -4.89864,-5.05559z" data-paper-data="{&quot;origPos&quot;:null,&quot;origRot&quot;:0}" fill="#ffcc5c" fill-rule="evenodd" stroke="none" stroke-width="14" stroke-linecap="round" stroke-linejoin="round"/><path d="M385.42697,165.67408v-10.19698c0,-2.79218 2.19312,-5.05555 4.89864,-5.05555h30.98056c2.70532,0 4.89865,2.26336 4.89865,5.05555v10.19698c0,2.79212 -2.19333,5.05559 -4.89865,5.05559h-30.98056c-2.70551,0 -4.89864,-2.26348 -4.89864,-5.05559z" data-paper-data="{&quot;origPos&quot;:null,&quot;origRot&quot;:0}" fill="#feaf49" fill-rule="evenodd" stroke="none" stroke-width="14" stroke-linecap="round" stroke-linejoin="round"/><path d="M211.03257,181.45064v-29.73462h70.39215v29.73462z" data-paper-data="{&quot;origPos&quot;:null}" fill="#ffcf59" fill-rule="nonzero" stroke="none" stroke-width="0" stroke-linecap="butt" stroke-linejoin="miter"/><path d="M321.28811,176.18884v-10.197c0,-2.79218 2.19313,-5.05555 4.89865,-5.05555h30.98056c2.70532,0 4.89865,2.26336 4.89865,5.05555v10.197c0,2.7921 -2.19333,5.05559 -4.89865,5.05559h-30.98056c-2.70551,0 -4.89865,-2.26347 -4.89865,-5.05559z" data-paper-data="{&quot;origPos&quot;:null,&quot;origRot&quot;:0}" fill="#feaf49" fill-rule="evenodd" stroke="none" stroke-width="14" stroke-linecap="round" stroke-linejoin="round"/><path d="M132.74711,176.50917v-10.19698c0,-2.79218 2.19312,-5.05555 4.89865,-5.05555h30.98056c2.70532,0 4.89864,2.26336 4.89864,5.05555v10.19698c0,2.7921 -2.19332,5.05559 -4.89864,5.05559h-30.98056c-2.70552,0 -4.89865,-2.26347 -4.89865,-5.05559z" data-paper-data="{&quot;origPos&quot;:null,&quot;origRot&quot;:0}" fill="#feaf49" fill-rule="evenodd" stroke="none" stroke-width="14" stroke-linecap="round" stroke-linejoin="round"/><path d="M192.27949,160.56679v-10.197c0,-2.79218 2.19312,-5.05555 4.89865,-5.05555h30.98056c2.70532,0 4.89865,2.26336 4.89865,5.05555v10.197c0,2.7921 -2.19333,5.05559 -4.89865,5.05559h-30.98056c-2.70552,0 -4.89865,-2.26347 -4.89865,-5.05559z" data-paper-data="{&quot;origPos&quot;:null,&quot;origRot&quot;:0}" fill="#ffdd66" fill-rule="evenodd" stroke="none" stroke-width="14" stroke-linecap="round" stroke-linejoin="round"/><path d="M262.80697,175.97347v-10.19698c0,-2.79218 2.19313,-5.05555 4.89865,-5.05555h30.98056c2.70532,0 4.89865,2.26336 4.89865,5.05555v10.19698c0,2.79212 -2.19333,5.05559 -4.89865,5.05559h-30.98056c-2.70552,0 -4.89865,-2.26347 -4.89865,-5.05559z" data-paper-data="{&quot;origPos&quot;:null,&quot;origRot&quot;:0}" fill="#ffdd66" fill-rule="evenodd" stroke="none" stroke-width="14" stroke-linecap="round" stroke-linejoin="round"/><g data-paper-data="{&quot;origPos&quot;:null}" fill-rule="nonzero" stroke="#000000" stroke-width="0" stroke-linecap="butt" stroke-linejoin="miter"><path d="M127.63785,447.00081v-256.33818h361.85358v256.33818l-36.3955,0.30775l0.27168,-170.89844c0,0 0.21505,-30.91615 -13.42522,-48.30693c-18.12332,-23.10647 -49.25502,-24.07573 -49.25502,-24.07573l-151.80335,-0.16683c0,0 -34.76187,-2.52758 -56.02581,18.50275c-20.98246,20.75195 -18.62832,42.99413 -18.62832,42.99413l-0.40667,181.64331z" data-paper-data="{&quot;origPos&quot;:null}" fill="#ff8483"/><path d="M115.17181,447.11921v-266.00675h388.81596v265.00675l-39.10739,0.33067c0,0 0.08176,-149.29911 0.1341,-155.25101c0.06159,-7.00511 0.15782,-17.94973 0.15782,-17.94973c0,0 0.23108,-33.21977 -14.42556,-51.90636c-19.47372,-24.82817 -52.92509,-25.86965 -52.92509,-25.86965l-163.1145,-0.17927c0,0 -37.35204,-2.71591 -60.20039,19.88143c-22.54589,22.29821 -20.01637,46.19771 -20.01637,46.19771l-0.43697,185.74622z" data-paper-data="{&quot;origPos&quot;:null}" fill="#ff6461"/></g><path d="M119.83922,148.04331h-4.90006h389.10448h-4.61923" data-paper-data="{&quot;origPos&quot;:null}" fill="none" fill-rule="nonzero" stroke="#fff69d" stroke-width="7" stroke-linecap="round" stroke-linejoin="miter"/></g><path d="M-107.93097,452.22368v-340.84084h644.14414v340.84084z" data-paper-data="{&quot;origPos&quot;:null}" fill="none" fill-rule="nonzero" stroke="none" stroke-width="0" stroke-linecap="butt" stroke-linejoin="miter"/></g></g></svg>