<svg version="1.1" xmlns="http://www.w3.org/2000/svg" xmlns:xlink="http://www.w3.org/1999/xlink" width="417.70408" height="481.08006"><g transform="translate(42.94724,173.7497)"><g data-paper-data="{&quot;isPaintingLayer&quot;:true}" stroke-miterlimit="10" stroke-dasharray="" stroke-dashoffset="0" style="mix-blend-mode: normal"><path d="M-42.94723,307.33036v-325.30931h387.38739v325.30931z" data-paper-data="{&quot;origPos&quot;:null}" fill="none" fill-rule="nonzero" stroke="none" stroke-width="0" stroke-linecap="butt" stroke-linejoin="miter"/><path d="M-1.22271,98.06295l0.05028,-6.20928c0,0 35.55822,0 41.19247,0c1.87809,0 3.23363,-0.09488 4.38379,1.42857c1.21895,1.61457 0.85714,4.78071 0.85714,4.78071z" data-paper-data="{&quot;origPos&quot;:null,&quot;index&quot;:null}" fill="#b4ff53" fill-rule="nonzero" stroke="none" stroke-width="0" stroke-linecap="butt" stroke-linejoin="miter"/><path d="M-42.90777,174.56496c0,0 5.84422,-17.22296 25.24392,-27.74134c13.25128,-7.18475 24.30587,-27.10184 39.13395,-24.39168c6.8496,1.25192 17.4349,1.7687 17.4349,1.7687l0.30383,-125.49282h293.3834l0.48056,267.62397c0,0 -1.19695,6.58937 -4.0937,9.1898c-2.89674,2.60043 -9.98908,3.54337 -9.98908,3.54337l-294.24338,-1.13273c0,0 -6.80149,0.18404 -10.45246,3.55995c-3.30092,3.05224 -4.39511,10.98135 -4.39511,10.98135c0,0 -36.66067,-61.77725 -39.00369,-67.39411c-1.87448,-4.49366 29.19686,-14.51444 29.19686,-14.51444z" data-paper-data="{&quot;origPos&quot;:null}" fill="#03a63b" fill-rule="nonzero" stroke="none" stroke-width="0" stroke-linecap="butt" stroke-linejoin="miter"/><path d="M39.40531,-1.11218c0,0 -0.16409,-3.51337 0.76605,-4.90636c0.81316,-1.21781 2.55205,-1.80293 4.01639,-1.80293c109.80371,0 279.47797,0 281.35834,0c0.62679,0 1.97928,0 2.60606,0c1.58143,0 3.10621,0.43076 4.00609,1.7312c0.90508,1.30796 0.69252,4.81142 0.69252,4.81142z" data-paper-data="{&quot;origPos&quot;:null}" fill="#b4ff53" fill-rule="nonzero" stroke="none" stroke-width="0" stroke-linecap="butt" stroke-linejoin="miter"/><path d="M-28.93061,142.08086v-64.16866h79.81956v64.16867z" data-paper-data="{&quot;origPos&quot;:null}" fill="none" fill-rule="nonzero" stroke="none" stroke-width="0" stroke-linecap="butt" stroke-linejoin="miter"/><path d="M175.43092,80.1754h-58.85811" data-paper-data="{&quot;origPos&quot;:null}" fill="none" fill-rule="nonzero" stroke="#02af3d" stroke-width="35" stroke-linecap="round" stroke-linejoin="miter"/><path d="M114.75478,224.31845h-44.21847" data-paper-data="{&quot;origPos&quot;:null}" fill="none" fill-rule="nonzero" stroke="#02af3d" stroke-width="35" stroke-linecap="round" stroke-linejoin="miter"/><g data-paper-data="{&quot;origPos&quot;:null}" fill="#ffffff" fill-rule="evenodd" stroke="none" stroke-width="1" stroke-linecap="round" stroke-linejoin="round"><path d="M359.2287,18.5546c0,0 0.73189,0.74532 1.37669,0.7158c0.64479,-0.02951 1.26798,-0.83683 1.26798,-0.83683c0,0 4.49435,-5.31832 7.73521,-9.0179c0.79157,-0.90361 2.60035,-1.26134 3.56829,-0.23427c0.96794,1.02707 0.70833,2.77388 0.05802,3.73772c-0.65032,0.96384 -8.3747,9.66009 -9.28626,10.57656c-0.91156,0.91647 -1.99373,1.60584 -3.22503,1.68948c-1.2313,0.08364 -2.54031,-0.67273 -3.46932,-1.48417c-0.929,-0.81144 -10.38103,-10.00381 -10.38103,-10.00381c-0.93039,-0.92117 -1.1855,-2.57336 -0.25295,-3.73869c0.93255,-1.16532 2.61999,-1.02699 3.42958,-0.23084z" data-paper-data="{&quot;origPos&quot;:null,&quot;origRot&quot;:0,&quot;index&quot;:null}" opacity="0.42445"/><path d="M359.69961,37.78695c0,0 0.73189,0.74532 1.37669,0.7158c0.64479,-0.02951 1.26798,-0.83683 1.26798,-0.83683c0,0 4.49435,-5.31832 7.73521,-9.0179c0.79157,-0.90361 2.60035,-1.26135 3.56829,-0.23427c0.96794,1.02707 0.70833,2.77389 0.05802,3.73773c-0.65032,0.96384 -8.3747,9.66009 -9.28626,10.57656c-0.91156,0.91647 -1.99373,1.60584 -3.22503,1.68948c-1.2313,0.08364 -2.54031,-0.67273 -3.46932,-1.48417c-0.929,-0.81144 -10.38103,-10.00381 -10.38103,-10.00381c-0.93039,-0.92117 -1.1855,-2.57336 -0.25295,-3.73868c0.93255,-1.16532 2.61999,-1.02699 3.42958,-0.23084z" data-paper-data="{&quot;origPos&quot;:null,&quot;origRot&quot;:0,&quot;index&quot;:null}" opacity="0.42445"/><path d="M360.1705,57.01929c0,0 0.73189,0.74532 1.37669,0.7158c0.64479,-0.02951 1.26798,-0.83683 1.26798,-0.83683c0,0 4.49435,-5.31832 7.73521,-9.0179c0.79157,-0.90361 2.60035,-1.26135 3.56829,-0.23427c0.96794,1.02707 0.70833,2.77389 0.05802,3.73773c-0.65032,0.96384 -8.3747,9.66009 -9.28626,10.57656c-0.91156,0.91647 -1.99373,1.60584 -3.22503,1.68948c-1.2313,0.08364 -2.54031,-0.67273 -3.46932,-1.48417c-0.929,-0.81144 -10.38103,-10.00381 -10.38103,-10.00381c-0.93039,-0.92117 -1.1855,-2.57336 -0.25295,-3.73869c0.93255,-1.16532 2.61999,-1.02699 3.42958,-0.23084z" data-paper-data="{&quot;origPos&quot;:null,&quot;origRot&quot;:0,&quot;index&quot;:null}" opacity="0.42445"/></g><path d="M38.83317,27.26826v-28.52853h293.84943v28.52853z" data-paper-data="{&quot;origPos&quot;:null}" fill="#48c900" fill-rule="nonzero" stroke="none" stroke-width="0" stroke-linecap="butt" stroke-linejoin="miter"/><path d="M293.14646,173.567h-71.41663" data-paper-data="{&quot;origPos&quot;:null,&quot;index&quot;:null}" fill="none" fill-rule="nonzero" stroke="#04b742" stroke-width="35" stroke-linecap="round" stroke-linejoin="miter"/><path d="M165.92868,80.1754c0,0 14.5493,0 23.86159,0c7.94453,0 20.35688,0 20.35688,0" data-paper-data="{&quot;origPos&quot;:null}" fill="none" fill-rule="nonzero" stroke="#04b742" stroke-width="35" stroke-linecap="round" stroke-linejoin="miter"/><path d="M258.09091,13.0869h36.04564" data-paper-data="{&quot;origPos&quot;:null}" fill="none" fill-rule="nonzero" stroke="#3dc400" stroke-width="29" stroke-linecap="round" stroke-linejoin="miter"/><path d="M74.75109,13.14875h76.64817" data-paper-data="{&quot;origPos&quot;:null}" fill="none" fill-rule="nonzero" stroke="#3dc400" stroke-width="29" stroke-linecap="round" stroke-linejoin="miter"/><path d="M31.43116,-16.09204v-157.65766h336.33634v157.65766z" data-paper-data="{&quot;origPos&quot;:null}" fill="none" fill-rule="nonzero" stroke="none" stroke-width="0" stroke-linecap="butt" stroke-linejoin="miter"/><g data-paper-data="{&quot;origPos&quot;:null}" fill="#363636" fill-rule="evenodd" stroke="none" stroke-width="1" stroke-linecap="round" stroke-linejoin="round"><path d="M107.29054,-124.41933c0,-0.65497 0.58011,-1.21637 1.23508,-1.21637c0.67368,0 1.2538,0.5614 1.2538,1.21637c0,0.65497 -0.58011,1.21637 -1.2538,1.21637c-0.65497,0 -1.23508,-0.5614 -1.23508,-1.21637zM109.76071,-120.62052v9.48768c0,1.87134 -1.16023,2.88186 -2.86315,2.88186c-0.48655,0 -0.99181,-0.07485 -1.51578,-0.29941c-0.41169,-0.22456 -0.93567,-0.61754 -0.93567,-1.2538c0,-0.71111 0.65497,-1.29122 1.38479,-1.06666c0.18713,0.03743 0.39298,0.24327 0.72982,0.24327c0.6924,0 0.74854,-0.6924 0.74854,-1.16023v-8.83272c0,-0.6924 0.5614,-1.2538 1.21637,-1.2538c0.67368,0 1.23508,0.5614 1.23508,1.2538z"/><path d="M112.02503,-116.42872v-4.22922c0,-0.67368 0.5614,-1.21637 1.23508,-1.21637c0.65497,0 1.21637,0.54269 1.21637,1.21637v4.22922c0,1.6842 0.87969,2.3766 1.98378,2.3766c1.6842,0 2.24561,-1.57192 2.32046,-2.0959v-4.50993c0,-0.67368 0.5614,-1.21637 1.21637,-1.21637c0.67368,0 1.23508,0.54269 1.23508,1.21637v7.42921c0,0.67368 -0.5614,1.23508 -1.23508,1.23508c-0.65497,0 -1.21637,-0.5614 -1.21637,-1.23508v-0.93567c-0.07485,0.67368 -1.17894,2.20818 -3.19999,2.20818c-1.89021,0 -3.5557,-1.23508 -3.5557,-4.4725z"/><path d="M139.44028,-117.43924v4.22922c0,0.67368 -0.5614,1.21637 -1.23508,1.21637c-0.65497,0 -1.21637,-0.54269 -1.21637,-1.21637v-4.22922c0,-1.6842 -0.87953,-2.3766 -1.98362,-2.3766c-1.6842,0 -2.26432,1.57192 -2.32046,2.0959v-0.01871v0.29941v4.22922c0,0.67368 -0.5614,1.21637 -1.23508,1.21637c-0.65497,0 -1.21637,-0.54269 -1.21637,-1.21637v-4.22922c0,-1.6842 -0.87953,-2.3766 -1.98362,-2.3766c-1.6842,0 -2.24561,1.57192 -2.32046,2.0959v4.50993c0,0.67368 -0.5614,1.21637 -1.21637,1.21637c-0.67368,0 -1.23508,-0.54269 -1.23508,-1.21637v-7.42921c0,-0.67368 0.5614,-1.23508 1.23508,-1.23508c0.65497,0 1.21637,0.5614 1.21637,1.23508v0.93567c0.07485,-0.67368 1.17894,-2.20818 3.19999,-2.20818c1.4035,0 2.67601,0.67368 3.23742,2.33917c0.52397,-1.16023 1.70292,-2.33917 3.51812,-2.33917c1.89005,0 3.55554,1.23508 3.55554,4.4725z"/><path d="M151.52914,-116.9527c0,3.40584 -2.47017,4.99647 -4.52864,4.99647c-1.62806,0 -2.61987,-1.01052 -2.76958,-1.59064v0.35555c0,0.07485 0,0.14971 -0.01871,0.20585v3.36841c0,0.67368 -0.58011,1.21637 -1.23508,1.21637c-0.67368,0 -1.23508,-0.54269 -1.23508,-1.21637v-11.0409c0,-0.65497 0.59883,-1.21637 1.2538,-1.21637c0.67368,0 1.23508,0.5614 1.23508,1.21637v0.31813c0.37427,-0.87953 1.44093,-1.59064 2.76958,-1.59064c2.03976,0 4.52864,1.64678 4.52864,4.97776zM149.07768,-116.9527c0,-1.90876 -1.29122,-2.88186 -2.52631,-2.88186c-1.04795,0 -2.43274,0.76725 -2.43274,2.88186c0,2.11461 1.38479,2.88186 2.43274,2.88186c1.23508,0 2.52631,-0.95438 2.52631,-2.88186z"/><path d="M168.3899,-116.93398c0,3.3497 -2.86315,4.97776 -4.99647,4.97776c-2.15204,0 -4.99647,-1.62806 -4.99647,-4.97776c0,-3.33098 2.84443,-4.99647 4.99647,-4.99647c2.13333,0 4.99647,1.66549 4.99647,4.99647zM160.82969,-116.93398c0,1.79648 1.23508,2.84443 2.56373,2.84443c1.30994,0 2.56373,-1.04795 2.56373,-2.84443c0,-1.8152 -1.2538,-2.86315 -2.56373,-2.86315c-1.32865,0 -2.56373,1.04795 -2.56373,2.86315z"/><path d="M179.46822,-117.43924v4.22922c0,0.67368 -0.5614,1.21637 -1.23508,1.21637c-0.65497,0 -1.21637,-0.54269 -1.21637,-1.21637v-4.22922c0,-1.6842 -0.87953,-2.3766 -1.98362,-2.3766c-1.6842,0 -2.24561,1.57192 -2.32046,2.0959v4.50993c0,0.67368 -0.5614,1.21637 -1.21637,1.21637c-0.67368,0 -1.23508,-0.54269 -1.23508,-1.21637v-7.42921c0,-0.67368 0.5614,-1.23508 1.23508,-1.23508c0.65497,0 1.21637,0.5614 1.21637,1.23508v0.93567c0.07485,-0.67368 1.17894,-2.20818 3.19999,-2.20818c1.89005,0 3.55554,1.23508 3.55554,4.4725z"/><path d="M195.31845,-114.1644c0,0.59883 -0.44912,0.89824 -0.6924,1.1228c-0.78596,0.6924 -1.70292,1.04795 -2.91929,1.04795c-2.26432,0 -4.99647,-1.62806 -4.99647,-4.95905c0,-3.3497 2.73215,-4.97776 4.99647,-4.97776c1.21637,0 2.13333,0.33684 2.91929,1.02924c0.24327,0.24327 0.6924,0.54269 0.6924,1.14152c0,0.58011 -0.48655,0.93567 -0.99181,0.93567c-0.44912,0 -0.80468,-0.26199 -0.95438,-0.39298c-0.43041,-0.41169 -1.06666,-0.58011 -1.57192,-0.58011c-1.47836,0 -2.6573,1.02924 -2.6573,2.84443c0,1.79648 1.17894,2.82572 2.6573,2.82572c0.50526,0 1.14152,-0.16842 1.57192,-0.58011c0.14971,-0.13099 0.50526,-0.39298 0.95438,-0.39298c0.50526,0 0.99181,0.35555 0.99181,0.93567z"/><path d="M203.72076,-120.78894c0,0.6924 -0.52397,1.16023 -1.57192,1.16023c-1.47836,0 -2.41403,1.14152 -2.50759,1.90876v4.50993c0,0.65497 -0.5614,1.21637 -1.21637,1.21637c-0.67368,0 -1.23508,-0.5614 -1.23508,-1.21637v-7.42921c0,-0.67368 0.5614,-1.23508 1.23508,-1.23508c0.65497,0 1.21637,0.5614 1.21637,1.23508v0.93567c0.07485,-0.67368 1.23508,-2.20818 2.91929,-2.20818c0.76725,0 1.16023,0.52397 1.16023,1.1228z"/><path d="M205.53596,-124.41933c0,-0.65497 0.58011,-1.21637 1.2538,-1.21637c0.65497,0 1.23508,0.5614 1.23508,1.21637c0,0.65497 -0.58011,1.21637 -1.23508,1.21637c-0.67368,0 -1.2538,-0.5614 -1.2538,-1.21637zM208.00612,-120.63923v7.4105c0,0.6924 -0.5614,1.2538 -1.21637,1.2538c-0.67368,0 -1.23508,-0.5614 -1.23508,-1.2538v-7.4105c0,-0.67368 0.5614,-1.23508 1.23508,-1.23508c0.65497,0 1.21637,0.5614 1.21637,1.23508z"/><path d="M215.73476,-113.30359c0,0.86082 -0.8421,1.30994 -2.11461,1.30994c-1.27251,0 -2.56373,-0.41169 -2.56373,-3.01285v-4.88419h-0.54269c-0.59883,0 -0.99181,-0.39298 -0.99181,-0.95438c0,-0.58011 0.39298,-0.9731 0.99181,-0.9731h0.54269v-1.27251c0,-0.67368 0.5614,-1.23508 1.23508,-1.23508c0.67368,0 1.21637,0.5614 1.21637,1.23508v1.27251h1.23508c0.61754,0 0.99181,0.39298 0.99181,0.9731c0,0.5614 -0.37427,0.95438 -0.99181,0.95438h-1.23508v4.95905c0,0.54269 0.18713,0.82339 0.59883,0.82339c0.20585,0 0.50526,-0.07485 0.71111,-0.07485c0.5614,-0.03743 0.91696,0.29941 0.91696,0.87953z"/><path d="M222.88326,-113.30359c0,0.86082 -0.8421,1.30994 -2.11461,1.30994c-1.27251,0 -2.56373,-0.41169 -2.56373,-3.01285v-4.88419h-0.54269c-0.59883,0 -0.99181,-0.39298 -0.99181,-0.95438c0,-0.58011 0.39298,-0.9731 0.99181,-0.9731h0.54269v-1.27251c0,-0.67368 0.5614,-1.23508 1.23508,-1.23508c0.67368,0 1.21637,0.5614 1.21637,1.23508v1.27251h1.23508c0.61754,0 0.99181,0.39298 0.99181,0.9731c0,0.5614 -0.37427,0.95438 -0.99181,0.95438h-1.23508v4.95905c0,0.54269 0.18713,0.82339 0.59883,0.82339c0.20585,0 0.50526,-0.07485 0.71111,-0.07485c0.5614,-0.03743 0.91696,0.29941 0.91696,0.87953z"/><path d="M233.64346,-117.34568c0,0.9731 -0.54269,1.30994 -1.5345,1.30994l-5.55787,-0.03743c0.22456,1.36608 1.30994,2.0959 2.67601,2.0959c0.67368,0 0.99181,-0.14971 1.55321,-0.39298c0.33684,-0.14971 0.59883,-0.29941 0.91696,-0.29941c0.52397,0 0.8421,0.37427 0.8421,0.8421c0,0.29941 -0.13099,0.63625 -0.59883,1.02924c-0.6924,0.48655 -1.62806,0.80468 -2.80701,0.80468c-2.48888,0 -5.12747,-1.5345 -5.12747,-4.94033c0,-3.36841 2.78829,-4.99647 4.92162,-4.99647c2.13333,0 4.71577,1.6842 4.71577,4.58478zM226.55109,-117.75737h4.67835c-0.18713,-1.44093 -1.23508,-2.03976 -2.30175,-2.03976c-1.06666,0 -2.20818,0.59883 -2.3766,2.03976z"/><path d="M242.04577,-120.78894c0,0.6924 -0.52397,1.16023 -1.57192,1.16023c-1.47836,0 -2.41403,1.14152 -2.50759,1.90876v4.50993c0,0.65497 -0.5614,1.21637 -1.21637,1.21637c-0.67368,0 -1.23508,-0.5614 -1.23508,-1.21637v-7.42921c0,-0.67368 0.5614,-1.23508 1.23508,-1.23508c0.65497,0 1.21637,0.5614 1.21637,1.23508v0.93567c0.07485,-0.67368 1.23508,-2.20818 2.91929,-2.20818c0.76725,0 1.16023,0.52397 1.16023,1.1228z"/><path d="M249.79312,-120.56438c0.11228,0.16842 0.29941,0.43041 0.29941,0.82339c0,0.59883 -0.41169,0.91696 -0.95438,0.91696c-0.35555,0 -0.71111,-0.13099 -1.02924,-0.52397c-0.37427,-0.43041 -0.80468,-0.63625 -1.34736,-0.63625c-0.72982,0 -1.16023,0.35555 -1.16023,0.87953c0,0.29941 0.11228,0.6924 0.9731,0.93567l1.14152,0.33684c1.49707,0.41169 2.75087,1.1228 2.75087,2.78829c0,2.05847 -1.90876,3.05028 -3.85496,3.05028c-1.6842,0 -2.69473,-0.71111 -3.2187,-1.34736c-0.09357,-0.13099 -0.50526,-0.59883 -0.50526,-1.17894c0,-0.41169 0.26199,-0.93567 0.93567,-0.93567c0.50526,0 0.78596,0.31813 1.01052,0.59883c0.54269,0.67368 1.14152,0.86082 1.77777,0.86082c0.91696,0 1.42222,-0.39298 1.42222,-0.91696c0,-0.31813 -0.20585,-0.72982 -1.10409,-0.99181l-1.06666,-0.31813c-1.89005,-0.52397 -2.67601,-1.5345 -2.67601,-2.86315c0,-1.87134 1.72163,-2.84443 3.4994,-2.84443c1.27251,0 2.48888,0.50526 3.10642,1.36608z"/><path d="M116.87195,-90.84737c0,0.86082 -0.8421,1.30994 -2.11477,1.30994c-1.27251,0 -2.56373,-0.41169 -2.56373,-3.01285v-4.88419h-0.54269c-0.59883,0 -0.99181,-0.39298 -0.99181,-0.95438c0,-0.58011 0.39298,-0.9731 0.99181,-0.9731h0.54269v-1.27251c0,-0.67368 0.5614,-1.23524 1.23508,-1.23524c0.67368,0 1.21637,0.56156 1.21637,1.23524v1.27251h1.23524c0.61754,0 0.99181,0.39298 0.99181,0.9731c0,0.5614 -0.37427,0.95438 -0.99181,0.95438h-1.23524v4.95905c0,0.54269 0.18729,0.82339 0.59899,0.82339c0.20585,0 0.50526,-0.07485 0.71111,-0.07485c0.5614,-0.03743 0.91696,0.29941 0.91696,0.87953z"/><path d="M127.9877,-94.47776c0,3.3497 -2.86315,4.97776 -4.99647,4.97776c-2.15204,0 -4.99647,-1.62806 -4.99647,-4.97776c0,-3.33098 2.84443,-4.99647 4.99647,-4.99647c2.13333,0 4.99647,1.66549 4.99647,4.99647zM120.4275,-94.47776c0,1.79648 1.23508,2.84443 2.56373,2.84443c1.30994,0 2.56373,-1.04795 2.56373,-2.84443c0,-1.8152 -1.2538,-2.86315 -2.56373,-2.86315c-1.32865,0 -2.56373,1.04795 -2.56373,2.86315z"/><path d="M144.64261,-101.77614v11.04105c0,0.67368 -0.59883,1.21637 -1.2538,1.21637c-0.67368,0 -1.23508,-0.54269 -1.23508,-1.21637v-0.35555c-0.14971,0.58011 -1.14152,1.59064 -2.76958,1.59064c-2.05847,0 -4.52864,-1.59064 -4.52864,-4.99647c0,-3.33098 2.48888,-4.97776 4.52864,-4.97776c1.32865,0 2.39531,0.71111 2.76958,1.59064v-0.31813c0,-0.07485 0,-0.13099 0.01871,-0.20585v-3.36857c0,-0.65497 0.5614,-1.21637 1.21637,-1.21637c0.67368,0 1.2538,0.5614 1.2538,1.21637zM142.26601,-94.49648c0,-2.11461 -1.38479,-2.88186 -2.43274,-2.88186c-1.23508,0 -2.52631,0.9731 -2.52631,2.88186c0,1.92748 1.29122,2.88186 2.52631,2.88186c1.04795,0 2.43274,-0.76725 2.43274,-2.88186z"/><path d="M156.15133,-94.88946c0,0.9731 -0.54269,1.30994 -1.5345,1.30994l-5.55787,-0.03743c0.22456,1.36608 1.30994,2.0959 2.67601,2.0959c0.67368,0 0.99181,-0.14971 1.55321,-0.39298c0.33684,-0.14971 0.59883,-0.29941 0.91696,-0.29941c0.52397,0 0.8421,0.37427 0.8421,0.8421c0,0.29941 -0.13099,0.63625 -0.59883,1.02924c-0.6924,0.48655 -1.62806,0.80468 -2.80701,0.80468c-2.48888,0 -5.12747,-1.5345 -5.12747,-4.94033c0,-3.36841 2.78829,-4.99647 4.92162,-4.99647c2.13333,0 4.71577,1.6842 4.71577,4.58478zM149.05897,-95.30115h4.67835c-0.18713,-1.44093 -1.23508,-2.03976 -2.30175,-2.03976c-1.06666,0 -2.20818,0.59883 -2.3766,2.03976z"/><path d="M164.60978,-101.72c0,0.52413 -0.39298,0.87969 -0.91696,0.87969c-0.16842,0 -0.43041,-0.05614 -0.78596,-0.16842c-0.24327,-0.09357 -0.39298,-0.14971 -0.63625,-0.14971c-1.04795,0 -1.17894,0.86082 -1.17894,1.23508v0.5614h1.5345c0.59883,0 0.99181,0.39298 0.99181,0.9731c0,0.5614 -0.39298,0.95438 -0.99181,0.95438h-1.5345v6.69939c0,0.67368 -0.5614,1.21637 -1.23508,1.21637c-0.65497,0 -1.21637,-0.54269 -1.21637,-1.21637v-6.69939h-0.5614c-0.59883,0 -0.99181,-0.39298 -0.99181,-0.95438c0,-0.58011 0.39298,-0.9731 0.99181,-0.9731h0.5614v-0.6924c0,-2.62003 2.07719,-3.18143 3.27484,-3.18143c0.82339,0 1.5345,0.20585 2.03976,0.52397c0.43041,0.26199 0.65497,0.58011 0.65497,0.99181z"/><path d="M173.68578,-94.88946c0,0.9731 -0.54269,1.30994 -1.5345,1.30994l-5.55787,-0.03743c0.22456,1.36608 1.30994,2.0959 2.67601,2.0959c0.67368,0 0.99181,-0.14971 1.55321,-0.39298c0.33684,-0.14971 0.59883,-0.29941 0.91696,-0.29941c0.52397,0 0.8421,0.37427 0.8421,0.8421c0,0.29941 -0.13099,0.63625 -0.59883,1.02924c-0.6924,0.48655 -1.62806,0.80468 -2.80701,0.80468c-2.48888,0 -5.12747,-1.5345 -5.12747,-4.94033c0,-3.36841 2.78829,-4.99647 4.92162,-4.99647c2.13333,0 4.71577,1.6842 4.71577,4.58478zM166.5934,-95.30115h4.67835c-0.18713,-1.44093 -1.23508,-2.03976 -2.30175,-2.03976c-1.06666,0 -2.20818,0.59883 -2.3766,2.03976z"/><path d="M184.82024,-98.20173v7.46664c0,0.67368 -0.59883,1.21637 -1.2538,1.21637c-0.67368,0 -1.23508,-0.54269 -1.23508,-1.21637v-0.35555c-0.14971,0.58011 -1.14152,1.59064 -2.76958,1.59064c-2.05847,0 -4.52864,-1.59064 -4.52864,-4.99647c0,-3.33098 2.48888,-4.97776 4.52864,-4.97776c1.32865,0 2.39531,0.71111 2.76958,1.59064v-0.31813c0,-0.65497 0.5614,-1.21637 1.23508,-1.21637c0.65497,0 1.2538,0.5614 1.2538,1.21637zM182.44365,-94.49648c0,-2.11461 -1.38479,-2.88186 -2.43274,-2.88186c-1.23508,0 -2.52631,0.9731 -2.52631,2.88186c0,1.92748 1.29122,2.88186 2.52631,2.88186c1.04795,0 2.43274,-0.76725 2.43274,-2.88186z"/><path d="M192.53016,-90.84737c0,0.86082 -0.8421,1.30994 -2.11461,1.30994c-1.27251,0 -2.56373,-0.41169 -2.56373,-3.01285v-4.88419h-0.54269c-0.59883,0 -0.99181,-0.39298 -0.99181,-0.95438c0,-0.58011 0.39298,-0.9731 0.99181,-0.9731h0.54269v-1.27251c0,-0.67368 0.5614,-1.23524 1.23508,-1.23524c0.67368,0 1.21637,0.56156 1.21637,1.23524v1.27251h1.23508c0.61754,0 0.99181,0.39298 0.99181,0.9731c0,0.5614 -0.37427,0.95438 -0.99181,0.95438h-1.23508v4.95905c0,0.54269 0.18713,0.82339 0.59883,0.82339c0.20585,0 0.50526,-0.07485 0.71111,-0.07485c0.5614,-0.03743 0.91696,0.29941 0.91696,0.87953z"/><path d="M205.04942,-90.84737c0,0.86082 -0.8421,1.30994 -2.11461,1.30994c-1.27251,0 -2.56373,-0.41169 -2.56373,-3.01285v-4.88419h-0.54269c-0.59883,0 -0.99181,-0.39298 -0.99181,-0.95438c0,-0.58011 0.39298,-0.9731 0.99181,-0.9731h0.54269v-1.27251c0,-0.67368 0.5614,-1.23524 1.23508,-1.23524c0.67368,0 1.21637,0.56156 1.21637,1.23524v1.27251h1.23508c0.61754,0 0.99181,0.39298 0.99181,0.9731c0,0.5614 -0.37427,0.95438 -0.99181,0.95438h-1.23508v4.95905c0,0.54269 0.18713,0.82339 0.59883,0.82339c0.20585,0 0.50526,-0.07485 0.71111,-0.07485c0.5614,-0.03743 0.91696,0.29941 0.91696,0.87953z"/><path d="M215.94061,-94.98303v4.22922c0,0.67368 -0.5614,1.21637 -1.23508,1.21637c-0.65497,0 -1.21637,-0.54269 -1.21637,-1.21637v-4.22922c0,-1.6842 -0.87953,-2.3766 -1.98362,-2.3766c-1.6842,0 -2.24561,1.57192 -2.32046,2.0959v4.50993c0,0.67368 -0.5614,1.21637 -1.21637,1.21637c-0.67368,0 -1.23508,-0.54269 -1.23508,-1.21637v-11.02234c0,-0.65497 0.5614,-1.21637 1.23508,-1.21637c0.65497,0 1.21637,0.5614 1.21637,1.21637v4.5288c0.07485,-0.67368 1.17894,-2.20818 3.19999,-2.20818c1.89005,0 3.55554,1.23508 3.55554,4.4725z"/><path d="M227.44933,-94.88946c0,0.9731 -0.54269,1.30994 -1.5345,1.30994l-5.55787,-0.03743c0.22456,1.36608 1.30994,2.0959 2.67601,2.0959c0.67368,0 0.99181,-0.14971 1.55321,-0.39298c0.33684,-0.14971 0.59883,-0.29941 0.91696,-0.29941c0.52397,0 0.8421,0.37427 0.8421,0.8421c0,0.29941 -0.13099,0.63625 -0.59883,1.02924c-0.6924,0.48655 -1.62806,0.80468 -2.80701,0.80468c-2.48888,0 -5.12747,-1.5345 -5.12747,-4.94033c0,-3.36841 2.78829,-4.99647 4.92162,-4.99647c2.13333,0 4.71577,1.6842 4.71577,4.58478zM220.35697,-95.30115h4.67835c-0.18713,-1.44093 -1.23508,-2.03976 -2.30175,-2.03976c-1.06666,0 -2.20818,0.59883 -2.3766,2.03976z"/><path d="M245.28319,-94.98303v4.22922c0,0.67368 -0.5614,1.21637 -1.23508,1.21637c-0.65497,0 -1.21637,-0.54269 -1.21637,-1.21637v-4.22922c0,-1.6842 -0.87953,-2.3766 -1.98362,-2.3766c-1.6842,0 -2.26432,1.57192 -2.32046,2.0959v-0.01871v0.29941v4.22922c0,0.67368 -0.5614,1.21637 -1.23508,1.21637c-0.65497,0 -1.21637,-0.54269 -1.21637,-1.21637v-4.22922c0,-1.6842 -0.87953,-2.3766 -1.98362,-2.3766c-1.6842,0 -2.24561,1.57192 -2.32046,2.0959v4.50993c0,0.67368 -0.5614,1.21637 -1.21637,1.21637c-0.67368,0 -1.23508,-0.54269 -1.23508,-1.21637v-7.42921c0,-0.67368 0.5614,-1.23508 1.23508,-1.23508c0.65497,0 1.21637,0.5614 1.21637,1.23508v0.93567c0.07485,-0.67368 1.17894,-2.20818 3.19999,-2.20818c1.4035,0 2.67601,0.67368 3.23742,2.33917c0.52397,-1.16023 1.70292,-2.33917 3.51812,-2.33917c1.89005,0 3.55554,1.23508 3.55554,4.4725z"/></g><path d="M198.09782,-5.41592v-10.51051h31.53153v10.51051z" fill="none" fill-rule="nonzero" stroke="none" stroke-width="0" stroke-linecap="butt" stroke-linejoin="miter"/></g></g></svg>