<svg version="1.1" xmlns="http://www.w3.org/2000/svg" xmlns:xlink="http://www.w3.org/1999/xlink" width="42" height="32" viewBox="0,0,42,32"><defs><linearGradient x1="236.02915" y1="180.00271" x2="204.28489" y2="180.00271" gradientUnits="userSpaceOnUse" id="color-1"><stop offset="0" stop-color="#ffffff"/><stop offset="1" stop-color="#e5e5e5"/></linearGradient></defs><g transform="translate(-198.13946,-164.69664)"><g data-paper-data="{&quot;isPaintingLayer&quot;:true}" fill-rule="nonzero" stroke-width="0" stroke-linecap="butt" stroke-linejoin="miter" stroke-miterlimit="10" stroke-dasharray="" stroke-dashoffset="0" style="mix-blend-mode: normal"><path d="M235.85125,180.94272c-0.07279,0.21887 -0.31881,0.64823 -0.49497,0.86169c-0.28185,0.34684 -9.44871,9.56849 -9.65475,9.71122c-1.42453,1.00194 -3.36668,0.58297 -4.20949,-0.91024c-0.26207,-0.46239 -0.36141,-0.86058 -0.36119,-1.43643c0.00072,-0.4725 0.04396,-0.69418 0.21622,-1.10843c0.20142,-0.49411 0.23373,-0.5297 2.60548,-2.92704c0,0 0.60918,-0.61581 0.99909,-1.00995c0.24887,-0.25158 0.42784,-0.72804 0.20962,-1.00663c-0.25008,-0.31927 -0.69785,-0.22426 -1.1034,-0.22234c-2.48148,0.01178 -7.44824,0.03535 -7.44824,0.03535c-8.2064,0.03894 -9.60911,0.03969 -9.84848,0.00244c-1.53371,-0.22602 -2.60922,-1.59409 -2.46294,-3.12743c0.11822,-1.22313 0.95524,-2.19571 2.18506,-2.53524l0.23593,-0.06609l9.71536,-0.05201c0,0 5.68977,-0.03219 7.85932,-0.04447c0.37293,-0.00211 0.93144,-0.05206 1.00041,-0.41857c0.07559,-0.40169 -0.37353,-0.81134 -0.66335,-1.09957c-0.2826,-0.28104 -0.72413,-0.72014 -0.72413,-0.72014c-1.82176,-1.80748 -2.27282,-2.26898 -2.39479,-2.4574c-1.08574,-1.65742 -0.23985,-3.87033 1.6713,-4.38438c0.25068,-0.06911 0.35693,-0.08142 0.70834,-0.08309c0.46066,-0.00514 0.74144,0.04668 1.13201,0.20725c0.54442,0.22184 0.34568,0.03675 5.44299,5.08003c2.59315,2.56572 4.79179,4.75828 4.88685,4.87595c0.33564,0.40888 0.5924,0.99828 0.65682,1.5059c0.05207,0.39251 -0.00475,0.86527 -0.15906,1.32963z" data-paper-data="{&quot;origRot&quot;:0,&quot;index&quot;:null}" fill="url(#color-1)" stroke="#ffffff"/><path d="M198.13946,196.69664v-32h42v32z" fill="none" stroke="none"/></g></g></svg>