<svg version="1.1" xmlns="http://www.w3.org/2000/svg" xmlns:xlink="http://www.w3.org/1999/xlink" width="565.60122" height="419.43014" viewBox="0,0,565.60122,419.43014"><g transform="translate(-57.37682,-26.18764)"><g data-paper-data="{&quot;isPaintingLayer&quot;:true}" fill-rule="nonzero" stroke-linejoin="miter" stroke-miterlimit="10" stroke-dasharray="" stroke-dashoffset="0" style="mix-blend-mode: normal"><path d="M479.9206,292.44202l0.56948,8.14872l-422.22516,0.24037c0,0 -0.06167,-6.44168 0.33776,-8.77788c0.19369,-1.13287 421.31792,0.38879 421.31792,0.38879z" data-paper-data="{&quot;origPos&quot;:null}" fill="#11b738" stroke="none" stroke-width="0" stroke-linecap="butt"/><path d="M57.53644,291.97829c0,0 -0.68645,-5.99643 0.78766,-5.99643c110.53681,0 414.32345,-0.5 416.21637,-0.5c0.63097,0 1.99249,0 2.62346,0c1.59199,0 3.12695,0.385 4.03284,1.54726c0.91112,1.16899 0.69714,4.30021 0.69714,4.30021z" data-paper-data="{&quot;origPos&quot;:null}" fill="#7aff75" stroke="none" stroke-width="0" stroke-linecap="butt"/><path d="M106.63006,445.61778l-22.64704,-104.51042l226.5613,-2.10651c0,0 6.75554,-0.43922 9.15045,-3.08417c1.71738,-1.89669 1.35494,-3.23304 2.52884,-5.50653c0.53155,-1.02945 1.28934,-2.67368 1.28934,-2.67368l0.33333,-254.37365l260.12262,2.99206l-1.38001,364.98239z" data-paper-data="{&quot;origPos&quot;:null,&quot;index&quot;:null}" fill="#1c4974" stroke="none" stroke-width="0" stroke-linecap="butt"/><path d="M495.92553,279.13818h-58.95796" data-paper-data="{&quot;origPos&quot;:null}" fill="none" stroke="#1f5281" stroke-width="35" stroke-linecap="round"/><path d="M314.25223,440.2144l158.5478,-329.52292l5.30361,-55.45202l144.61088,-9.00751l0.26351,290.99007l-0.34658,103.51919z" data-paper-data="{&quot;origPos&quot;:null,&quot;index&quot;:null}" fill="#1c4974" stroke="none" stroke-width="0" stroke-linecap="butt"/><path d="M622.59369,107.88086c0,0 -0.97444,-4.90623 -3.22045,-7.50391c-2.27798,-2.63466 -6.9655,-2.66275 -6.9655,-2.66275l-14.20939,0.13882c0,0 -5.01916,-0.36159 -7.83247,-2.9875c-2.86903,-2.67792 -3.16648,-7.90504 -3.16648,-7.90504l-0.2715,-7.14088c0,0 0.28929,-4.21272 -2.22334,-6.56892c-2.95157,-2.76782 -7.22709,-2.1146 -7.22709,-2.1146l-91.16762,-0.41136l-6.63682,-21.01051l142.46234,2l0.45833,56.16666z" data-paper-data="{&quot;origPos&quot;:null,&quot;index&quot;:null}" fill="#21548f" stroke="none" stroke-width="0" stroke-linecap="butt"/><path d="M622.74275,77.80867l-14.85489,0.16286c0,0 -3.10361,0.4597 -5.69503,-2.32385c-2.13213,-2.29021 -1.59501,-6.07871 -1.59501,-6.07871l-0.127,-5.72537c0,0 0.37791,-5.45542 -2.68421,-8.22897c-3.06212,-2.77355 -8.58641,-2.52663 -8.58641,-2.52663h-106.5v-20.5h140v13.07312z" data-paper-data="{&quot;origPos&quot;:null,&quot;index&quot;:null}" fill="#2568a7" stroke="none" stroke-width="0" stroke-linecap="butt"/><path d="M467.97799,30.0788h115.42856c0,0 0.82101,4.86369 -1.99287,7.57658c-2.48066,2.39163 -8.20578,2.01761 -8.20578,2.01761l-74.04524,0.10292c0,0 -3.75056,-0.02865 -6.65979,3.34572c-2.74351,3.18215 -2.33968,7.83763 -2.33968,7.83763l-0.35684,28.34221c0,0 0.40795,4.36023 -1.40417,6.61151c-1.5534,1.92985 -5.87376,2.12675 -5.87376,2.12675l-15.29687,-0.15808z" data-paper-data="{&quot;origPos&quot;:null,&quot;index&quot;:null}" fill="#11b738" stroke="none" stroke-width="0" stroke-linecap="butt"/><path d="M467.7912,32.89693c0,0 -0.16409,-3.51337 0.76605,-4.90636c0.81316,-1.21781 2.55205,-1.80293 4.01639,-1.80293c109.80371,0 140.97797,0 142.85834,0c0.62679,0 1.97928,0 2.60606,0c1.58143,0 3.10621,0.43076 4.00609,1.7312c0.90508,1.30796 0.69252,4.81142 0.69252,4.81142z" data-paper-data="{&quot;origPos&quot;:null,&quot;index&quot;:null}" fill="#7aff75" stroke="none" stroke-width="0" stroke-linecap="butt"/><path d="M476.2002,87.95371l-113.22346,-0.00001c0,0 -3.30951,0.17697 -5.65852,-1.33333c-2.401,-1.54373 -2.33333,-4.95321 -2.33333,-4.95321v-4.71345h115.91176z" data-paper-data="{&quot;origPos&quot;:null,&quot;index&quot;:null}" fill="#11b738" stroke="none" stroke-width="0" stroke-linecap="butt"/><path d="M468.21281,77.23817l-144.6716,-0.34124c0,0 -0.16409,-3.51337 0.76605,-4.90636c0.81316,-1.21781 2.80205,-1.80293 4.26639,-1.80293c109.80371,0 139.69167,0 139.69167,0z" data-paper-data="{&quot;origPos&quot;:null,&quot;index&quot;:null}" fill="#7aff75" stroke="none" stroke-width="0" stroke-linecap="butt"/></g></g></svg>