<svg version="1.1" xmlns="http://www.w3.org/2000/svg" xmlns:xlink="http://www.w3.org/1999/xlink" width="584.20787" height="369.99997"><g transform="translate(104.94562,-35.66038)"><g data-paper-data="{&quot;isPaintingLayer&quot;:true}" fill-rule="nonzero" stroke-linejoin="miter" stroke-miterlimit="10" stroke-dasharray="" stroke-dashoffset="0" style="mix-blend-mode: normal"><path d="M324.0212,404.6451l0.25807,-272.93727l154.61989,1.5l-0.95686,266.43967z" data-paper-data="{&quot;origPos&quot;:null,&quot;index&quot;:null}" fill="#1c4974" stroke="none" stroke-width="0" stroke-linecap="butt"/><path d="M396.38958,155.99721c-2.06297,-2.06297 -2.19864,-7.00918 -2.19864,-7.00918v-17.1448h63.65169v26.35261h-54.44388c0,0 -4.94621,-0.13568 -7.00918,-2.19864z" data-paper-data="{&quot;origPos&quot;:null}" fill="#21548f" stroke="none" stroke-width="0" stroke-linecap="butt"/><path d="M324.26061,148.81394v-16h87.5v10.5c0,0 -0.2372,3.02914 -1.75,4.25c-1.5128,1.22086 -5.375,1.25 -5.375,1.25z" data-paper-data="{&quot;origPos&quot;:null}" fill="#2568a7" stroke="none" stroke-width="0" stroke-linecap="butt"/><path d="M479.26225,166.87256l-14.82225,0.15808c0,0 -4.32036,-0.1969 -5.87376,-2.12675c-1.81212,-2.25128 -1.40417,-6.61151 -1.40417,-6.61151l-0.35684,-6.34221c0,0 0.40383,-4.65548 -2.33968,-7.83763c-2.90923,-3.37437 -6.65979,-3.34572 -6.65979,-3.34572l-74.04524,-0.10292c0,0 -5.72512,0.37402 -8.20578,-2.01761c-2.81388,-2.71289 -1.99287,-7.57658 -1.99287,-7.57658h115.42856z" data-paper-data="{&quot;origPos&quot;:null,&quot;index&quot;:null}" fill="#11b738" stroke="none" stroke-width="0" stroke-linecap="butt"/><g data-paper-data="{&quot;origPos&quot;:null,&quot;index&quot;:null}"><path d="M420.04295,240.70511h44.30702" data-paper-data="{&quot;origPos&quot;:null,&quot;index&quot;:null}" fill="none" stroke="#205485" stroke-width="25" stroke-linecap="round"/><path d="M457.26788,253.1113v-24.78571h21v24.78571z" data-paper-data="{&quot;origPos&quot;:null}" fill="#205485" stroke="none" stroke-width="0" stroke-linecap="butt"/></g><path d="M324.23178,133.22117c0,0 -0.21256,-3.50346 0.69252,-4.81142c0.89988,-1.30044 2.42466,-1.7312 4.00609,-1.7312c0.62678,0 1.97927,0 2.60606,0c1.88037,0 33.05463,0 142.85834,0c1.46434,0 3.20323,0.58512 4.01639,1.80293c0.93014,1.39299 0.76605,4.90636 0.76605,4.90636z" data-paper-data="{&quot;origPos&quot;:null,&quot;index&quot;:null}" fill="#7aff75" stroke="none" stroke-width="0" stroke-linecap="butt"/><path d="M364.32502,328.70509h55" data-paper-data="{&quot;origPos&quot;:null,&quot;index&quot;:null}" fill="none" stroke="#26649e" stroke-width="25" stroke-linecap="round"/><path d="M190.35155,203.51977h-25.70514c0,0 -2.85895,-0.17121 -4.12722,-1.85183c-1.61511,-2.14023 -1.45612,-4.7315 -1.45612,-4.7315l0.25,-11.25h40v9.16667c0,0 0.3735,4.37126 -2,6.66667c-2.3735,2.2954 -6.96153,2 -6.96153,2z" data-paper-data="{&quot;origPos&quot;:null,&quot;index&quot;:null}" fill="#21548f" stroke="none" stroke-width="0" stroke-linecap="butt"/><path d="M168.44599,187.9989h-26.5" data-paper-data="{&quot;origPos&quot;:null,&quot;index&quot;:null}" fill="none" stroke="#2568a7" stroke-width="13" stroke-linecap="round"/><path d="M40.39132,106.91758v-19.5h36.5v12c0,0 0.1224,4.24463 -1.75,6c-1.8724,1.75537 -6.25,1.5 -6.25,1.5z" data-paper-data="{&quot;origPos&quot;:null}" fill="#2568a7" stroke="none" stroke-width="0" stroke-linecap="butt"/><path d="M20.54498,108.9875v-23.75717l30.3,2.8905v20.2c0,0 0.32691,3.92125 -1.2439,5.75666c-1.57081,1.83541 -5.65983,2.11002 -5.65983,2.11002l-17.28364,-0.16358c0,0 -3.27625,-0.43407 -4.62273,-2.07215c-1.34648,-1.63808 -1.48989,-4.96427 -1.48989,-4.96427z" data-paper-data="{&quot;origPos&quot;:null}" fill="#21548f" stroke="none" stroke-width="0" stroke-linecap="butt"/><path d="M1.48653,77.14963c0,0 -0.18772,-3.51337 0.87636,-4.90636c0.93025,-1.21781 2.91953,-1.80293 4.59473,-1.80293c125.61479,0 81.19837,0 83.3495,0c0.71704,0 2.26428,0 2.98132,0c1.80915,0 3.55349,0.43076 4.58294,1.7312c1.03541,1.30796 0.79224,5.31142 0.79224,5.31142z" data-paper-data="{&quot;origPos&quot;:null,&quot;index&quot;:null}" fill="#7aff75" stroke="none" stroke-width="0" stroke-linecap="butt"/><path d="M98.66364,90.0567c0,0 0.24317,3.50346 -0.79224,4.81142c-1.02946,1.30044 -2.7738,1.7312 -4.58294,1.7312c-0.71703,0 -2.26427,0 -2.98132,0c-2.15113,0 42.26528,0 -83.3495,0c-1.6752,0 -3.66448,-0.58512 -4.59473,-1.80293c-1.06407,-1.39299 -0.87636,-4.90636 -0.87636,-4.90636l0.1344,-12.89413l97.12698,-0.01442z" data-paper-data="{&quot;origPos&quot;:null,&quot;index&quot;:null}" fill="#11b738" stroke="none" stroke-width="0" stroke-linecap="butt"/><path d="M-56.29501,365.66038v-330h437.3494v330z" data-paper-data="{&quot;origPos&quot;:null}" fill="none" stroke="none" stroke-width="0" stroke-linecap="butt"/><path d="M-104.94562,315.66033v-249h330c0,0 0,83.81236 0,137.45654c0,43.53127 0,111.54346 0,111.54346z" data-paper-data="{&quot;origPos&quot;:null,&quot;index&quot;:null}" fill="none" stroke="none" stroke-width="0" stroke-linecap="butt"/><path d="M119.48653,167.14963c0,0 -0.18772,-3.51337 0.87636,-4.90636c0.93025,-1.21781 2.91953,-1.80293 4.59473,-1.80293c125.61479,0 81.19837,0 83.3495,0c0.71704,0 2.26428,0 2.98132,0c1.80915,0 3.55349,0.43076 4.58294,1.7312c1.03541,1.30796 0.79224,5.31142 0.79224,5.31142z" data-paper-data="{&quot;origPos&quot;:null,&quot;index&quot;:null}" fill="#7aff75" stroke="none" stroke-width="0" stroke-linecap="butt"/><path d="M216.66364,180.0567c0,0 0.24317,3.50346 -0.79224,4.81142c-1.02946,1.30044 -2.7738,1.7312 -4.58294,1.7312c-0.71703,0 -2.26427,0 -2.98132,0c-2.15113,0 42.26528,0 -83.3495,0c-1.6752,0 -3.66448,-0.58512 -4.59473,-1.80293c-1.06407,-1.39299 -0.87636,-4.90636 -0.87636,-4.90636l0.1344,-12.89413l97.12698,-0.01442z" data-paper-data="{&quot;origPos&quot;:null,&quot;index&quot;:null}" fill="#11b738" stroke="none" stroke-width="0" stroke-linecap="butt"/><path d="M13.05438,405.66035v-249h330c0,0 0,83.81236 0,137.45654c0,43.53127 0,111.54346 0,111.54346z" data-paper-data="{&quot;origPos&quot;:null,&quot;index&quot;:null}" fill="none" stroke="none" stroke-width="0" stroke-linecap="butt"/></g></g></svg>