<svg version="1.1" xmlns="http://www.w3.org/2000/svg" xmlns:xlink="http://www.w3.org/1999/xlink" width="170" height="185"><g transform="translate(-158.55707,-83.66847)"><g data-paper-data="{&quot;isPaintingLayer&quot;:true}" fill-rule="nonzero" stroke="none" stroke-width="0" stroke-linecap="butt" stroke-linejoin="miter" stroke-miterlimit="10" stroke-dasharray="" stroke-dashoffset="0" style="mix-blend-mode: normal"><path d="M228.66392,164.94191v-33.79016h21.26122v33.79016z" data-paper-data="{&quot;origPos&quot;:null,&quot;index&quot;:null}" fill="#2d3f94"/><path d="M191.77854,216.07188v-52.61581c0,0 -0.14124,-6.46429 2.82556,-9.33382c2.9668,-2.86953 8.9111,-2.55037 8.9111,-2.55037h72.22659c0,0 5.59702,-0.34465 8.64739,2.75186c3.05037,3.09651 2.75186,8.26943 2.75186,8.26943v53.47871z" data-paper-data="{&quot;origPos&quot;:null,&quot;index&quot;:null}" fill="#2e93fd"/><path d="M213.10391,200.92121c-1.2099,-1.27039 -1.03231,-4.18219 -1.03231,-4.18219v-27.61809c0,0 -0.25511,-3.42662 1.29039,-4.89977c1.54551,-1.47315 4.93306,-1.03231 4.93306,-1.03231h53.6507c0,0 3.20642,-0.15123 4.64541,1.29039c1.43899,1.44163 1.08003,4.44554 1.08003,4.44554l0.21036,28.07923c0,0 0.28748,2.86708 -1.03231,4.12235c-1.31979,1.25526 -4.64541,1.03231 -4.64541,1.03231h-54.97067c0,0 -2.91935,0.03294 -4.12925,-1.23745z" data-paper-data="{&quot;origPos&quot;:null,&quot;index&quot;:null}" fill="#011e46"/><g data-paper-data="{&quot;origPos&quot;:null,&quot;index&quot;:null}" fill="#2d3f94"><path d="M194.02555,227.29913c-2.71722,-2.43422 -2.20149,-7.15484 -2.20149,-7.15484v-6.32928h95.39193v5.77891c0,0 0.26348,5.33378 -2.37898,7.70522c-2.64246,2.37144 -8.53077,1.92631 -8.53077,1.92631h-74.34531c0,0 -5.21816,0.50792 -7.93537,-1.92631z" data-paper-data="{&quot;origPos&quot;:null}"/><path d="M212.14011,236.52541v-17.75275h14.37565v17.67972c0,0 0.07108,2.48215 -1.02686,3.59616c-1.09794,1.11401 -3.59376,1.09212 -3.59376,1.09212h-5.20493c0,0 -2.42205,0.0218 -3.49467,-1.06617c-1.07262,-1.08797 -1.05543,-3.54909 -1.05543,-3.54909z" data-paper-data="{&quot;origPos&quot;:null}"/><path d="M250.55061,236.58977v-17.75275h14.37565v17.67972c0,0 0.07108,2.48215 -1.02686,3.59616c-1.09794,1.11401 -3.59377,1.09212 -3.59377,1.09212h-5.20493c0,0 -2.42205,0.0218 -3.49467,-1.06617c-1.07262,-1.08797 -1.05543,-3.54909 -1.05543,-3.54909z" data-paper-data="{&quot;origPos&quot;:null}"/></g><g data-paper-data="{&quot;origPos&quot;:null,&quot;index&quot;:null}"><path d="M239.44097,101.142c38.10854,0.15976 47.83373,33.14208 47.83373,33.14208c0,0 1.63451,3.2642 0.10931,5.2731c-1.5252,2.0089 -5.56889,1.91795 -5.56889,1.91795l-84.0107,0.43243c0,0 -3.65085,0.00414 -4.97974,-1.85442c-1.32888,-1.85855 -0.139,-5.30457 -0.139,-5.30457c0,0 7.11963,-33.77855 46.75528,-33.60658z" data-paper-data="{&quot;origPos&quot;:null}" fill="#32d675"/><path d="M239.9013,101.23504c13.90803,0.05141 23.2051,5.76582 30.4918,10.5058c-13.41588,0.11579 -43.25647,0.25684 -62.37337,0.0562c7.51347,-5.93116 17.84511,-10.6255 31.88157,-10.562z" data-paper-data="{&quot;origPos&quot;:null}" fill="#51fd40"/><path d="M193.94607,131.03362c0,0 1.47288,-3.46192 2.58078,-5.67772c0.90647,-1.81293 2.58078,-4.64541 2.58078,-4.64541l81.03657,0.25808c0,0 1.65506,2.41296 2.54919,3.95738c1.32167,2.28288 2.87045,5.59152 2.87045,5.59152z" data-paper-data="{&quot;origPos&quot;:null}" fill="#51fd40"/></g><path d="M237.415,181.69075c0,-5.13118 4.15964,-9.29082 9.29082,-9.29082c5.13118,0 9.29082,4.15964 9.29082,9.29082c0,5.13118 -4.15964,9.29082 -9.29082,9.29082c-5.13118,0 -9.29082,-4.15964 -9.29082,-9.29082z" data-paper-data="{&quot;origPos&quot;:null,&quot;index&quot;:null}" fill="#fd50e7"/><path d="M158.55707,268.66847v-185h170v185z" fill="none"/></g></g></svg>