<svg version="1.1" xmlns="http://www.w3.org/2000/svg" xmlns:xlink="http://www.w3.org/1999/xlink" width="197.00418" height="184" viewBox="0,0,197.00418,184"><g transform="translate(64.42412,-254.35844)"><g data-paper-data="{&quot;isPaintingLayer&quot;:true}" stroke="none" stroke-miterlimit="10" stroke-dasharray="" stroke-dashoffset="0" style="mix-blend-mode: normal"><path d="M13.20358,326.2556c2.68843,-2.78413 8.1373,-2.27051 8.1373,-2.27051l36.75212,0.22646c0,0 5.84364,-0.32494 8.75851,2.39351c2.91486,2.71844 2.62385,7.65157 2.62385,7.65157l0.02232,6.25011c0,0 0.21709,6.00179 -2.52169,8.76563c-2.73878,2.76384 -8.64827,2.30567 -8.64827,2.30567l-37.46104,0.132c0,0 -4.91527,0.14079 -7.33688,-2.30424c-2.42161,-2.44503 -2.36899,-7.49548 -2.36899,-7.49548l-0.18798,-7.18815c0,0 -0.4577,-5.68245 2.23075,-8.46657z" data-paper-data="{&quot;origRot&quot;:0,&quot;index&quot;:null}" fill="#000000" fill-rule="evenodd" stroke-width="1" stroke-linecap="round" stroke-linejoin="round" opacity="0.42445"/><path d="M-7.41994,438.35844v-119h140v119z" fill="none" fill-rule="nonzero" stroke-width="0" stroke-linecap="butt" stroke-linejoin="miter"/><path d="M18.58006,284.35844v-30h46v30z" fill="none" fill-rule="nonzero" stroke-width="0" stroke-linecap="butt" stroke-linejoin="miter"/><path d="M-64.42412,369.28364v-67.6384h107.60679v67.6384z" fill="none" fill-rule="nonzero" stroke-width="0" stroke-linecap="butt" stroke-linejoin="miter"/><g fill="#ffffff" fill-rule="evenodd" stroke-width="1" stroke-linecap="round" stroke-linejoin="round"><path d="M25.72963,334.36958c0.1191,0.17865 0.3176,0.45655 0.3176,0.8734c0,0.6352 -0.4367,0.97265 -1.01235,0.97265c-0.37716,0 -0.75429,-0.13896 -1.09174,-0.5558c-0.397,-0.45654 -0.85355,-0.6749 -1.42919,-0.6749c-0.77415,0 -1.2307,0.37715 -1.2307,0.93295c0,0.3176 0.11909,0.73446 1.0322,0.9925l1.21085,0.3573c1.58799,0.4367 2.91793,1.191 2.91793,2.95764c0,2.18349 -2.02469,3.23554 -4.08908,3.23554c-1.7865,0 -2.85838,-0.7543 -3.41417,-1.42919c-0.09925,-0.13896 -0.53595,-0.6352 -0.53595,-1.25054c0,-0.4367 0.2779,-0.9925 0.99249,-0.9925c0.53595,0 0.8337,0.33745 1.0719,0.6352c0.57566,0.71459 1.21085,0.9131 1.88573,0.9131c0.97265,0 1.5086,-0.41683 1.5086,-0.97265c0,-0.33745 -0.21834,-0.77415 -1.17114,-1.05204l-1.13145,-0.33745c-2.00485,-0.5558 -2.83853,-1.6277 -2.83853,-3.03704c0,-1.98499 1.82618,-3.01718 3.71193,-3.01718c1.34979,0 2.64003,0.53595 3.29508,1.44903z"/><path d="M38.09614,337.68452v4.48608c0,0.71459 -0.5955,1.29025 -1.3101,1.29025c-0.69475,0 -1.29025,-0.57566 -1.29025,-1.29025v-4.48608c0,-1.7865 -0.93295,-2.52093 -2.1041,-2.52093c-1.7865,0 -2.38199,1.6674 -2.46139,2.22319v4.78383c0,0.71459 -0.5955,1.29025 -1.29024,1.29025c-0.71459,0 -1.3101,-0.57566 -1.3101,-1.29025v-11.69159c0,-0.69475 0.5955,-1.29025 1.3101,-1.29025c0.69475,0 1.29024,0.5955 1.29024,1.29025v4.80368c0.07941,-0.71459 1.25054,-2.34229 3.39434,-2.34229c2.00485,0 3.77147,1.31009 3.77147,4.74412z"/><path d="M50.68097,338.22047c0,3.55314 -3.03704,5.28008 -5.29993,5.28008c-2.28274,0 -5.29992,-1.72695 -5.29992,-5.28008c0,-3.53329 3.01718,-5.29992 5.29992,-5.29992c2.2629,0 5.29993,1.76664 5.29993,5.29992zM42.66161,338.22047c0,1.9056 1.3101,3.01718 2.71944,3.01718c1.3895,0 2.71944,-1.11159 2.71944,-3.01718c0,-1.92544 -1.32994,-3.03704 -2.71944,-3.03704c-1.40935,0 -2.71944,1.11159 -2.71944,3.03704z"/><path d="M62.57108,338.20062c0,3.61268 -2.62018,5.29993 -4.80367,5.29993c-1.72694,0 -2.77899,-1.07191 -2.93779,-1.68725v0.37715c0,0.07941 -0.00001,0.1588 -0.01985,0.21835v3.57299c0,0.71459 -0.61534,1.29024 -1.3101,1.29024c-0.71459,0 -1.3101,-0.57565 -1.3101,-1.29024v-11.71145c0,-0.69475 0.6352,-1.29025 1.32994,-1.29025c0.71459,0 1.3101,0.5955 1.3101,1.29025v0.33745c0.397,-0.93295 1.52844,-1.68724 2.93779,-1.68724c2.16365,0 4.80367,1.74679 4.80367,5.28008zM59.97075,338.20062c0,-2.02469 -1.36964,-3.05688 -2.67974,-3.05688c-1.11159,0 -2.58049,0.81384 -2.58049,3.05688c0,2.24303 1.4689,3.05689 2.58049,3.05689c1.3101,0 2.67974,-1.01235 2.67974,-3.05689z"/></g></g></g></svg>