<svg version="1.1" xmlns="http://www.w3.org/2000/svg" xmlns:xlink="http://www.w3.org/1999/xlink" width="581.67272" height="265.75852" viewBox="0,0,581.67272,265.75852"><g transform="translate(36.82154,-136.18365)"><g data-paper-data="{&quot;isPaintingLayer&quot;:true}" fill-rule="nonzero" stroke-linejoin="miter" stroke-miterlimit="10" stroke-dasharray="" stroke-dashoffset="0" style="mix-blend-mode: normal"><path d="M9.18235,143.93644c0.72749,-0.76132 6.50282,-7.75278 6.50282,-7.75278h529.16601l-4.87258,7.58284c0,0 -531.03876,0.42371 -530.79627,0.16994z" data-paper-data="{&quot;origPos&quot;:null,&quot;index&quot;:null}" fill="#b4ff53" stroke="none" stroke-width="0" stroke-linecap="butt"/><path d="M328.61172,221.08089h-57.42663" data-paper-data="{&quot;origPos&quot;:null,&quot;index&quot;:null}" fill="none" stroke="#04b742" stroke-width="30" stroke-linecap="round"/><path d="M422.74528,243.79819h54.40671" data-paper-data="{&quot;origPos&quot;:null,&quot;index&quot;:null}" fill="none" stroke="#02af3d" stroke-width="30" stroke-linecap="round"/><path d="M79.66415,268.23054h81.43374" data-paper-data="{&quot;origPos&quot;:null,&quot;index&quot;:null}" fill="none" stroke="#02af3d" stroke-width="30" stroke-linecap="round"/><path d="M-36.58435,401.94217v-237.23724h578.28951v237.23724z" data-paper-data="{&quot;origPos&quot;:null}" fill="#03a63b" stroke="none" stroke-width="0" stroke-linecap="butt"/><path d="M-36.46182,142.63824l576.62969,0.01442l2.82664,29.65591l-579.57062,0.16667z" data-paper-data="{&quot;origPos&quot;:null,&quot;index&quot;:null}" fill="#48c900" stroke="none" stroke-width="0" stroke-linecap="butt"/><path d="M-35.33456,138.70777c1.63719,-1.88771 4.90745,-2.52413 4.90745,-2.52413h575.27828l-5.28799,7.58284l-576.38085,0.16994c0,0 -0.15407,-3.34094 1.48311,-5.22865z" data-paper-data="{&quot;origPos&quot;:null,&quot;index&quot;:null}" fill="#b4ff53" stroke="none" stroke-width="0" stroke-linecap="butt"/></g></g></svg>