<svg version="1.1" xmlns="http://www.w3.org/2000/svg" xmlns:xlink="http://www.w3.org/1999/xlink" width="292.09089" height="131.02019" viewBox="0,0,292.09089,131.02019"><g transform="translate(-230.67922,13.58579)"><g data-paper-data="{&quot;isPaintingLayer&quot;:true}" stroke="none" stroke-miterlimit="10" stroke-dasharray="" stroke-dashoffset="0" style="mix-blend-mode: normal"><path d="M366.99231,8.84903h93.69833c5.8697,0 10.62818,4.75852 10.62818,10.62822v45.98685c0,5.8697 -4.75848,10.62819 -10.62818,10.62819h-93.69833c-5.86991,0 -10.62843,-4.75849 -10.62843,-10.62819v-45.98685c0,-5.8697 4.75853,-10.62822 10.62843,-10.62822z" data-paper-data="{&quot;origPos&quot;:null}" fill="#ffffff" fill-rule="evenodd" stroke-width="1" stroke-linecap="round" stroke-linejoin="round"/><path d="M230.67922,117.4344v-131.02019h292.09089v131.02019z" fill="none" fill-rule="nonzero" stroke-width="0" stroke-linecap="butt" stroke-linejoin="miter"/><path d="" data-paper-data="{&quot;origPos&quot;:null}" fill="#000000" fill-rule="nonzero" stroke-width="1" stroke-linecap="butt" stroke-linejoin="miter"/><g data-paper-data="{&quot;origPos&quot;:null}" fill-rule="nonzero" stroke-width="1" stroke-linecap="butt" stroke-linejoin="miter"><path d="M430.93719,60.16093c0,3.41201 -1.59926,6.29457 -4.91204,6.88285h-25.01712c-3.31277,-0.58827 -4.91204,-3.47084 -4.91204,-6.88285c0,-2.64725 1.59926,-5.05919 3.88394,-5.94161c-0.17135,-0.35297 0.45693,-0.35297 0.45693,-0.76476c0,-1.29421 0.28558,-2.70608 1.54215,-2.70608c0.17135,0 0.28558,0.05883 0.39981,0.05883c-0.22847,-0.47062 0.39981,-0.52945 0.39981,-1.0589c0,-2.05897 0.91387,-4.05912 2.85584,-4.05912c0.57116,0 0.97098,0.11765 1.54215,0.35297v0c0,-3.41201 2.68449,-6.17691 5.94014,-6.11809c3.31277,0 5.94014,2.70608 5.99725,6.05926c2.17043,-0.88242 4.74069,-0.47062 6.5113,1.35304c1.82773,1.82366 1.59926,4.64739 0.62828,6.94167c2.34178,0.82359 4.62645,3.1767 4.68357,5.88278z" data-paper-data="{&quot;origPos&quot;:null}" fill="#00d655"/><path d="M430.88007,58.8525c0,3.41201 -2.68449,6.11809 -5.99725,6.11809h-22.84668c-3.31277,0 -5.99725,-2.70608 -5.94014,-6.17691c0,-2.64725 1.59926,-4.82388 3.88394,-5.70629c-0.17135,-0.35297 -0.28558,-0.70593 -0.28558,-1.11773c0,-1.29421 1.0281,-2.35311 2.28467,-2.35311c0.17135,0 0.28558,0.05883 0.39981,0.05883c-0.17135,-0.41179 -0.28558,-0.88242 -0.28558,-1.41187c0,-2.00014 1.59926,-3.64732 3.54124,-3.64732c0.57116,0 0.97098,0.11765 1.54215,0.35297v0c0,-3.41201 2.68449,-6.17691 5.94014,-6.17691c3.31277,0 5.94014,2.70608 5.99725,6.05926c2.17043,-0.88242 4.74069,-0.47062 6.5113,1.35304c1.77061,1.82366 2.17043,4.58856 1.19945,6.88285c2.34178,0.82359 4.05529,3.05904 4.05529,5.76512z" data-paper-data="{&quot;origPos&quot;:null}" fill="#00ff66"/><path d="M424.88276,64.97059h-7.48229l-15.07881,-15.4717c-0.17135,-0.41179 -0.22847,-0.76476 -0.22847,-1.23538c0,-2.00014 1.59926,-3.64732 3.54124,-3.64732c0.57116,0 0.97098,0.11765 1.54215,0.35297c0,-3.41201 2.68449,-6.17691 5.94014,-6.23574c3.31277,0 5.94014,2.70608 5.99725,6.05926c2.17043,-0.88242 4.74069,-0.47062 6.5113,1.35304c1.77061,1.88249 2.17043,4.58856 1.19945,6.88285c2.34178,0.88242 4.05529,3.11787 4.05529,5.82395c0,3.41201 -2.68449,6.11809 -5.99725,6.11809z" data-paper-data="{&quot;origPos&quot;:null}" fill="#00ef60"/><g data-paper-data="{&quot;origPos&quot;:null}" fill="none" font-family="sans-serif" font-weight="normal" font-size="12" text-anchor="start"/><g data-paper-data="{&quot;origPos&quot;:null}" fill="none" font-family="sans-serif" font-weight="normal" font-size="12" text-anchor="start"/></g><path d="M361.03349,83.48872v-52.80417h69.16102v52.80417z" data-paper-data="{&quot;origPos&quot;:null}" fill="none" fill-rule="nonzero" stroke-width="0" stroke-linecap="butt" stroke-linejoin="miter"/><path d="M420.03113,54.71563l-7.77094,7.77094c-0.31592,0.31585 -0.72989,0.47373 -1.14392,0.47373c-0.41404,0 -0.82807,-0.15788 -1.14391,-0.47373l-4.14021,-4.14021c-0.63178,-0.63169 -0.63169,-1.65599 0,-2.28776c0.63169,-0.63177 1.65598,-0.63177 2.28776,0l2.99637,2.99645l6.62711,-6.62719c0.63169,-0.63177 1.65598,-0.63177 2.28776,0c0.63178,0.63177 0.63178,1.65607 0,2.28776z" data-paper-data="{&quot;origPos&quot;:null}" fill="#00d655" fill-rule="nonzero" stroke-width="1" stroke-linecap="butt" stroke-linejoin="miter"/><path d="M420.11446,53.04897l-7.77094,7.77094c-0.31592,0.31585 -0.72989,0.47373 -1.14392,0.47373c-0.41404,0 -0.82807,-0.15788 -1.14391,-0.47373l-4.14021,-4.14021c-0.63178,-0.63169 -0.63169,-1.65599 0,-2.28776c0.63169,-0.63177 1.65598,-0.63177 2.28776,0l2.99637,2.99645l6.62711,-6.62719c0.63169,-0.63177 1.65598,-0.63177 2.28776,0c0.63178,0.63177 0.63178,1.65607 0,2.28776z" data-paper-data="{&quot;origPos&quot;:null}" fill="#ffffff" fill-rule="nonzero" stroke-width="1" stroke-linecap="butt" stroke-linejoin="miter"/><g fill-opacity="0.93614" fill="#000000" fill-rule="evenodd" stroke-width="1" stroke-linecap="round" stroke-linejoin="round"><path d="M379.03802,26.72613c0,0.40982 -0.27868,0.70489 -0.77046,1.03274c-0.73767,0.50817 -1.68845,0.81963 -2.85233,0.81963c-2.88511,0 -5.77023,-2.39333 -5.77023,-5.85219c0,-3.45886 2.88511,-5.85219 5.77023,-5.85219c1.16388,0 2.11466,0.31146 2.85233,0.81963c0.49178,0.32785 0.77046,0.62292 0.77046,1.03274c0,0.50817 -0.39342,0.80324 -0.81963,0.80324c-0.34425,0 -0.57374,-0.16393 -0.78685,-0.32785c-0.36064,-0.27868 -1.08192,-0.63932 -1.99991,-0.63932c-2.04909,0 -3.93425,1.77041 -3.93425,4.16375c0,2.39333 1.88516,4.16375 3.93425,4.16375c0.91799,0 1.63927,-0.36064 1.99991,-0.63932c0.21311,-0.16393 0.4426,-0.32785 0.78685,-0.32785c0.42621,0 0.81963,0.29507 0.81963,0.80324z"/><path d="M388.59496,24.21805c0,2.93429 -2.44251,4.36046 -4.32767,4.36046c-1.88516,0 -4.31128,-1.42616 -4.31128,-4.36046c0,-2.9179 2.42612,-4.37685 4.31128,-4.37685c1.88516,0 4.32767,1.45895 4.32767,4.37685zM381.67724,24.21805c0,1.85237 1.32781,2.85233 2.59005,2.85233c1.27863,0 2.60644,-0.99995 2.60644,-2.85233c0,-1.86877 -1.32781,-2.86872 -2.60644,-2.86872c-1.26224,0 -2.59005,0.99995 -2.59005,2.86872z"/><path d="M398.05355,23.6443v4.0326c0,0.47539 -0.37703,0.86881 -0.85242,0.86881c-0.47539,0 -0.86881,-0.39342 -0.86881,-0.86881v-4.0326c0,-1.63927 -0.93438,-2.29498 -1.99991,-2.29498c-1.5737,0 -2.26219,1.40977 -2.36055,2.11466v4.21292c0,0.47539 -0.39342,0.86881 -0.86881,0.86881c-0.47539,0 -0.86881,-0.39342 -0.86881,-0.86881v-6.90133c0,-0.49178 0.39342,-0.88521 0.86881,-0.88521c0.47539,0 0.86881,0.39342 0.86881,0.88521v1.08192c0.08196,-0.57374 1.06553,-1.99991 2.93429,-1.99991c1.59009,0 3.1474,0.99995 3.1474,3.78671z"/><path d="M407.83999,23.6443v4.0326c0,0.47539 -0.37703,0.86881 -0.85242,0.86881c-0.47539,0 -0.86881,-0.39342 -0.86881,-0.86881v-4.0326c0,-1.63927 -0.93438,-2.29498 -1.99991,-2.29498c-1.5737,0 -2.26219,1.40977 -2.36055,2.11466v4.21292c0,0.47539 -0.39342,0.86881 -0.86881,0.86881c-0.47539,0 -0.86881,-0.39342 -0.86881,-0.86881v-6.90133c0,-0.49178 0.39342,-0.88521 0.86881,-0.88521c0.47539,0 0.86881,0.39342 0.86881,0.88521v1.08192c0.08196,-0.57374 1.06553,-1.99991 2.93429,-1.99991c1.59009,0 3.1474,0.99995 3.1474,3.78671z"/><path d="M417.83953,23.92298c0,0.6721 -0.37703,0.93438 -1.08192,0.93438l-5.49155,-0.01639c0.18032,1.52452 1.37699,2.27859 2.6884,2.27859c0.6721,0 1.1311,-0.16393 1.63927,-0.47539c0.27868,-0.14753 0.459,-0.26228 0.68849,-0.26228c0.37703,0 0.60653,0.26228 0.60653,0.62292c0,0.21311 -0.08196,0.4426 -0.4426,0.73767c-0.62292,0.50817 -1.52452,0.80324 -2.55726,0.80324c-2.13105,0 -4.40964,-1.36059 -4.40964,-4.32767c0,-2.95069 2.37694,-4.37685 4.24571,-4.37685c1.86877,0 4.11457,1.47534 4.11457,4.08178zM411.26606,23.59512h4.88502c-0.14753,-1.55731 -1.32781,-2.2458 -2.42612,-2.2458c-1.08192,0 -2.31137,0.68849 -2.4589,2.2458z"/><path d="M426.51127,26.64417c0,0.39342 -0.27868,0.60653 -0.459,0.78685c-0.70489,0.73767 -1.62288,1.1147 -2.75397,1.1147c-1.95073,0 -4.31128,-1.42616 -4.31128,-4.34407c0,-2.93429 2.36055,-4.36046 4.31128,-4.36046c1.1311,0 2.04909,0.37703 2.75397,1.1147c0.18032,0.18032 0.459,0.39342 0.459,0.78685c0,0.40982 -0.34425,0.6721 -0.70489,0.6721c-0.32785,0 -0.57374,-0.18032 -0.70489,-0.31146c-0.4426,-0.52457 -1.1311,-0.75406 -1.73763,-0.75406c-1.37699,0 -2.65562,0.98356 -2.65562,2.85233c0,1.85237 1.27863,2.83594 2.65562,2.83594c0.60653,0 1.29502,-0.2295 1.73763,-0.75406c0.13114,-0.13114 0.37703,-0.31146 0.70489,-0.31146c0.36064,0 0.70489,0.26228 0.70489,0.6721z"/><path d="M432.46182,27.57855c0,0.6721 -0.77046,0.96717 -1.68845,0.96717c-0.98356,0 -1.95073,-0.34425 -1.95073,-2.22941v-4.98338h-0.62292c-0.42621,0 -0.70489,-0.27868 -0.70489,-0.70489c0,-0.40982 0.27868,-0.68849 0.70489,-0.68849h0.62292v-1.27863c0,-0.459 0.39342,-0.85242 0.85242,-0.85242c0.47539,0 0.86881,0.39342 0.86881,0.85242v1.27863h1.19667c0.42621,0 0.72128,0.27868 0.72128,0.68849c0,0.42621 -0.29507,0.70489 -0.72128,0.70489h-1.19667v4.99977c0,0.49178 0.19671,0.72128 0.57374,0.72128c0.21311,0 0.459,-0.06557 0.63932,-0.08196c0.40982,-0.06557 0.70489,0.19671 0.70489,0.60653z"/><path d="M441.80566,23.92298c0,0.6721 -0.37703,0.93438 -1.08192,0.93438l-5.49155,-0.01639c0.18032,1.52452 1.37699,2.27859 2.6884,2.27859c0.6721,0 1.1311,-0.16393 1.63927,-0.47539c0.27868,-0.14753 0.459,-0.26228 0.68849,-0.26228c0.37703,0 0.60653,0.26228 0.60653,0.62292c0,0.21311 -0.08196,0.4426 -0.4426,0.73767c-0.62292,0.50817 -1.52452,0.80324 -2.55726,0.80324c-2.13105,0 -4.40964,-1.36059 -4.40964,-4.32767c0,-2.95069 2.37694,-4.37685 4.24571,-4.37685c1.86877,0 4.11457,1.47534 4.11457,4.08178zM435.23219,23.59512h4.88502c-0.14753,-1.55731 -1.32781,-2.2458 -2.42612,-2.2458c-1.08192,0 -2.31137,0.68849 -2.4589,2.2458z"/><path d="M451.39539,17.62818v10.06512c0,0.47539 -0.40982,0.86881 -0.88521,0.86881c-0.47539,0 -0.86881,-0.39342 -0.86881,-0.86881v-0.88521c-0.11475,0.73767 -1.1311,1.77041 -2.6884,1.77041c-1.81959,0 -3.99982,-1.40977 -3.99982,-4.37685c0,-2.9179 2.19662,-4.36046 3.99982,-4.36046c1.21306,0 2.26219,0.62292 2.6884,1.5737v-0.65571c0,-0.04918 0,-0.11475 0.01639,-0.16393v-2.96708c0,-0.47539 0.39342,-0.86881 0.85242,-0.86881c0.47539,0 0.88521,0.39342 0.88521,0.86881zM449.72333,24.20165c0,-2.04909 -1.37699,-2.86872 -2.49169,-2.86872c-1.19667,0 -2.54087,0.93438 -2.54087,2.86872c0,1.95073 1.3442,2.88511 2.54087,2.88511c1.1147,0 2.49169,-0.85242 2.49169,-2.88511z"/><path d="M455.34603,17.90686v6.2784c0,0.52457 -0.4426,0.96717 -0.95078,0.96717c-0.54096,0 -0.98356,-0.4426 -0.98356,-0.96717v-6.2784c0,-0.52457 0.4426,-0.96717 0.98356,-0.96717c0.50817,0 0.95078,0.4426 0.95078,0.96717zM453.36251,27.48019c0,-0.55735 0.459,-1.01635 1.03274,-1.01635c0.54096,0 0.99995,0.459 0.99995,1.01635c0,0.57374 -0.459,1.03274 -0.99995,1.03274c-0.57374,0 -1.03274,-0.459 -1.03274,-1.03274z"/></g></g></g></svg>