<svg version="1.1" xmlns="http://www.w3.org/2000/svg" xmlns:xlink="http://www.w3.org/1999/xlink" width="105.88977" height="90" viewBox="0,0,105.88977,90"><g transform="translate(-193.43509,-138.01146)"><g data-paper-data="{&quot;isPaintingLayer&quot;:true}" fill-rule="nonzero" stroke-miterlimit="10" stroke-dasharray="" stroke-dashoffset="0" style="mix-blend-mode: normal"><path d="M225.38078,180c0,-8.07399 6.54527,-14.61926 14.61927,-14.61926c8.07399,0 14.61926,6.54527 14.61926,14.61926c0,8.07399 -6.54527,14.61927 -14.61926,14.61927c-8.07399,0 -14.61927,-6.54528 -14.61927,-14.61927z" fill="#fcea2b" stroke="none" stroke-width="1" stroke-linecap="butt" stroke-linejoin="miter"/><g id="line"><path d="M225.38067,180c0,-8.07404 6.5453,-14.61933 14.61933,-14.61933c8.07404,0 14.61933,6.5453 14.61933,14.61933c0,8.07404 -6.5453,14.61933 -14.61933,14.61933c-8.07404,0 -14.61933,-6.5453 -14.61933,-14.61933z" fill="none" stroke="#000000" stroke-width="1.25" stroke-linecap="round" stroke-linejoin="round"/><path d="M246.23856,185.67567c-1.84298,1.04001 -3.9715,1.63349 -6.23858,1.63349c-2.26708,0 -4.39552,-0.59342 -6.23857,-1.63349" fill="none" stroke="#000000" stroke-width="1.25" stroke-linecap="round" stroke-linejoin="round"/><path d="M236.18625,176.82189c0,1.0531 -0.85479,1.90687 -1.90687,1.90687c-1.05215,0 -1.90687,-0.85384 -1.90687,-1.90687c0,-1.05208 0.85471,-1.90687 1.90687,-1.90687c1.05208,0 1.90687,0.85478 1.90687,1.90687" fill="#000000" stroke="none" stroke-width="1" stroke-linecap="butt" stroke-linejoin="miter"/><path d="M247.62745,176.82189c0,1.0531 -0.85472,1.90687 -1.90687,1.90687c-1.05215,0 -1.90687,-0.85384 -1.90687,-1.90687c0,-1.05208 0.85471,-1.90687 1.90687,-1.90687c1.05215,0 1.90687,0.85478 1.90687,1.90687" fill="#000000" stroke="none" stroke-width="1" stroke-linecap="butt" stroke-linejoin="miter"/></g><path d="M193.4351,228.01146v-90h105.88977v90z" fill="none" stroke="none" stroke-width="none" stroke-linecap="butt" stroke-linejoin="miter"/></g></g></svg>