<svg version="1.1" xmlns="http://www.w3.org/2000/svg" xmlns:xlink="http://www.w3.org/1999/xlink" width="517" height="543.4777" viewBox="0,0,517,543.4777"><g transform="translate(20.44293,82.94778)"><g data-paper-data="{&quot;isPaintingLayer&quot;:true}" fill-rule="nonzero" stroke-linejoin="miter" stroke-miterlimit="10" stroke-dasharray="" stroke-dashoffset="0" style="mix-blend-mode: normal"><path d="M26.20497,459.87616c0,0 -2.27627,4.45083 -2.41312,-9.87396c-0.41056,-42.97437 0.47301,-271.70711 0.47301,-271.70711l147.58919,-6.65693l0.27173,277.14812z" data-paper-data="{&quot;origPos&quot;:null,&quot;index&quot;:null}" fill="#03a63b" stroke="none" stroke-width="0" stroke-linecap="butt"/><path d="M23.94329,151.29417l148.50064,-0.16389l-0.40096,30.16244l-147.89061,0.08594z" data-paper-data="{&quot;origPos&quot;:null,&quot;index&quot;:null}" fill="#48c900" stroke="none" stroke-width="0" stroke-linecap="butt"/><path d="M47.4162,151.6047c-11.34009,-0.023 -23.33021,0.19108 -23.33021,0.19108l-0.06248,-7.20929c0,0 147.06776,0 149.45596,0c0.79606,0 2.51382,0.25 3.30988,0.25c2.00853,0 3.94511,0.43076 5.08801,1.7312c1.14952,1.30796 0.87955,5.31142 0.87955,5.31142c0,0 -101.32046,-0.20543 -135.34072,-0.27441z" data-paper-data="{&quot;origPos&quot;:null,&quot;index&quot;:null}" fill="#b4ff53" stroke="none" stroke-width="0" stroke-linecap="butt"/><path d="M60.14932,166.38286h63.04564" data-paper-data="{&quot;origPos&quot;:null}" fill="none" stroke="#3dc400" stroke-width="28.5" stroke-linecap="round"/><path d="M-20.44293,368.72979v-271h517v271z" data-paper-data="{&quot;origPos&quot;:null}" fill="none" stroke="none" stroke-width="0" stroke-linecap="butt"/><path d="M160.39417,181.54496c0,0 6.75554,-0.43922 9.15045,-3.08417c2.3949,-2.64495 2.31668,-8.18021 2.31668,-8.18021l0.20439,-253.22836l261.75306,12.16153l6.61999,476.9914c0,0 -280.93937,35.55579 -285.28447,35.71222c-1.44837,0.05214 -0.87307,-25.41005 -0.87307,-25.41005l-13.32794,-234.40374z" data-paper-data="{&quot;origPos&quot;:null,&quot;index&quot;:null}" fill="#03a63b" stroke="none" stroke-width="0" stroke-linecap="butt"/><path d="M99.04384,255.51621c0,0 75.06987,0 87.55828,0" data-paper-data="{&quot;origPos&quot;:null}" fill="none" stroke="#04b742" stroke-width="30" stroke-linecap="round"/><path d="M329.44049,121.88858h-79.94915" data-paper-data="{&quot;origPos&quot;:null}" fill="none" stroke="#04b742" stroke-width="30" stroke-linecap="round"/><path d="M374.31109,151.11339h-81.43374" data-paper-data="{&quot;origPos&quot;:null,&quot;index&quot;:null}" fill="none" stroke="#02af3d" stroke-width="30" stroke-linecap="round"/><path d="M302.8381,-25.65887h-62.24107" data-paper-data="{&quot;origPos&quot;:null}" fill="none" stroke="#02af3d" stroke-width="30" stroke-linecap="round"/><path d="M340.95697,-25.75407h-51.20144" data-paper-data="{&quot;origPos&quot;:null}" fill="none" stroke="#04b742" stroke-width="30" stroke-linecap="round"/></g></g></svg>