<svg version="1.1" xmlns="http://www.w3.org/2000/svg" xmlns:xlink="http://www.w3.org/1999/xlink" width="594.66582" height="452.92563"><defs><linearGradient x1="141.87072" y1="171.35054" x2="141.87072" y2="318.57624" gradientUnits="userSpaceOnUse" id="color-1"><stop offset="0" stop-color="#fb64b3"/><stop offset="1" stop-color="#f56fb6"/></linearGradient><linearGradient x1="203.30031" y1="124.34453" x2="203.30031" y2="288.05174" gradientUnits="userSpaceOnUse" id="color-2"><stop offset="0" stop-color="#fb64b3"/><stop offset="1" stop-color="#f56fb6"/></linearGradient><linearGradient x1="337.77029" y1="162.36555" x2="337.77029" y2="315.59125" gradientUnits="userSpaceOnUse" id="color-3"><stop offset="0" stop-color="#fb64b3"/><stop offset="1" stop-color="#f56fb6"/></linearGradient><linearGradient x1="399.77929" y1="190.35954" x2="399.77929" y2="309.07313" gradientUnits="userSpaceOnUse" id="color-4"><stop offset="0" stop-color="#fe76be"/><stop offset="1" stop-color="#f780c0"/></linearGradient><linearGradient x1="233.79732" y1="183.85204" x2="233.79732" y2="302.56563" gradientUnits="userSpaceOnUse" id="color-5"><stop offset="0" stop-color="#fe76be"/><stop offset="1" stop-color="#f780c0"/></linearGradient><linearGradient x1="55.69295" y1="262.06498" x2="55.69295" y2="416.61083" gradientUnits="userSpaceOnUse" id="color-6"><stop offset="0" stop-color="#fb8cce"/><stop offset="1" stop-color="#edbbd9"/></linearGradient><linearGradient x1="124.76681" y1="228.21011" x2="124.76681" y2="444.94325" gradientUnits="userSpaceOnUse" id="color-7"><stop offset="0" stop-color="#fa86cc"/><stop offset="1" stop-color="#edbbd9"/></linearGradient><linearGradient x1="209.46777" y1="253.19989" x2="209.46777" y2="446.3561" gradientUnits="userSpaceOnUse" id="color-8"><stop offset="0" stop-color="#fb8cce"/><stop offset="1" stop-color="#edbbd9"/></linearGradient><linearGradient x1="277.59122" y1="237.07176" x2="277.59122" y2="391.61758" gradientUnits="userSpaceOnUse" id="color-9"><stop offset="0" stop-color="#fb8cce"/><stop offset="1" stop-color="#efb0d6"/></linearGradient><linearGradient x1="339.03619" y1="278.01045" x2="339.03619" y2="431.51873" gradientUnits="userSpaceOnUse" id="color-10"><stop offset="0" stop-color="#f593ce"/><stop offset="1" stop-color="#efb5d8"/></linearGradient><linearGradient x1="402.57395" y1="261.40918" x2="402.57395" y2="415.95503" gradientUnits="userSpaceOnUse" id="color-11"><stop offset="0" stop-color="#fb8cce"/><stop offset="1" stop-color="#efb3d7"/></linearGradient></defs><g data-paper-data="{&quot;isPaintingLayer&quot;:true}" fill-rule="nonzero" stroke-linejoin="miter" stroke-miterlimit="10" stroke-dasharray="" stroke-dashoffset="0" style="mix-blend-mode: normal"><path d="M102.93087,316.1625l2.82426,-107.55724c0,0 1.90815,-37.25471 35.70803,-37.25471c35.14369,0 33.62016,37.77942 33.62016,37.77942l1.90298,109.44628z" data-paper-data="{&quot;origPos&quot;:null}" fill="url(#color-1)" stroke="none" stroke-width="0" stroke-linecap="butt"/><path d="M157.67291,287.36778l6.58069,-121.59797c0,0 1.00981,-41.42527 38.59349,-41.42527c39.07792,0 37.38385,42.00872 37.38385,42.00872l2.11602,121.69849z" data-paper-data="{&quot;origPos&quot;:null}" fill="url(#color-2)" stroke="none" stroke-width="0" stroke-linecap="butt"/><path d="M303.48802,313.07914l-2.26441,-111.9406c0,0 0.94516,-38.77298 36.12251,-38.77298c36.57592,0 35.99031,40.31907 35.99031,40.31907l-1.04348,109.40813z" data-paper-data="{&quot;origPos&quot;:null}" fill="url(#color-3)" stroke="none" stroke-width="0" stroke-linecap="butt"/><path d="M365.497,309.07313l-2.26441,-79.94061c0,0 0.94516,-38.77298 36.12251,-38.77298c36.57592,0 34.99031,39.31907 34.99031,39.31907l1.98054,70.90662z" data-paper-data="{&quot;origPos&quot;:null}" fill="url(#color-4)" stroke="none" stroke-width="0" stroke-linecap="butt"/><path d="M199.51505,302.56563l-2.26441,-79.94061c0,0 0.94516,-38.77298 36.12251,-38.77298c36.57592,0 34.99031,39.31907 34.99031,39.31907l1.98054,70.90662z" data-paper-data="{&quot;origPos&quot;:null}" fill="url(#color-5)" stroke="none" stroke-width="0" stroke-linecap="butt"/><g data-paper-data="{&quot;origPos&quot;:null,&quot;index&quot;:null}" stroke="none" stroke-width="0" stroke-linecap="butt"><path d="M17.13149,300.83795c0,0 3.94516,-38.77298 39.12251,-38.77298c36.57592,0 34.99031,39.31907 34.99031,39.31907l-0.99861,147.49095c-19.43077,0.08214 -70.07208,4.30779 -73.52284,3.20894c0,0 -0.15456,-29.77558 -0.09142,-48.83629c0.13238,-39.96682 0.50005,-102.40969 0.50005,-102.40969z" data-paper-data="{&quot;origPos&quot;:null}" fill="url(#color-6)"/><path d="M78.16159,283.58344c0,0 0.78374,-55.37334 47.22762,-55.37334c29.0593,0 44.92875,28.67963 45.69148,45.75323c0.13118,2.93656 2.274,-1.33652 2.274,-1.33652c0,0 -1.14777,65.22228 -1.8824,106.96786c-1.23182,69.99843 184.81403,-35.47246 253.72212,-23.1043c58.4475,10.49061 48.02273,87.13965 48.02273,87.13965c-4.65535,-0.00148 -393.4708,9.37096 -399.51784,9.29515c0,0 4.4623,-55.65743 4.4623,-68.35015c0,-38.07817 0,-100.99157 0,-100.99157z" data-paper-data="{&quot;origPos&quot;:null}" fill="url(#color-7)"/><path d="M165.86574,301.65954c0,0 3.20279,-48.45968 43.09597,-48.45968c39.48659,0 41.74519,50.17978 41.74519,50.17978l1.87749,113.60542c-12.08157,-0.10905 -23.79696,-0.24946 -34.28321,-0.36751c-3.02899,-0.0341 -6.15858,-0.86839 -9.23131,-0.90863c-4.82865,-0.06323 -9.68118,-0.22122 -14.47535,0.47899c-3.07167,0.44863 -5.7122,1.76285 -8.8544,1.7925c-6.46794,0.06104 -12.93647,0.08477 -19.4048,0.06531c-0.19304,-39.99412 -0.35752,-86.19943 -0.41824,-102.48028c-0.02024,-5.42695 -0.05133,-13.90589 -0.05133,-13.90589z" data-paper-data="{&quot;origPos&quot;:null}" fill="url(#color-8)"/><path d="M241.0446,275.8447c0,0 0.94516,-38.77298 36.12251,-38.77298c36.57592,0 34.99031,39.31907 34.99031,39.31907l1.7341,140.29018c-2.08284,0.22614 -4.16853,0.36959 -6.25845,0.3908c-20.13,0.20436 -43.36493,0.03968 -64.66181,-0.18007z" data-paper-data="{&quot;origPos&quot;:null}" fill="url(#color-9)"/><path d="M302.73486,316.52315c0,0 0.93882,-38.51267 35.88,-38.51267c36.33036,0 34.75539,39.0551 34.75539,39.0551l1.63091,94.88574c-9.2461,-0.21231 -23.66907,-0.54643 -33.28794,0.27403c-11.38392,0.97102 -22.66897,4.73061 -34.0802,4.84646c-0.96997,0.00984 -1.94716,0.01883 -2.93099,0.027z" data-paper-data="{&quot;origPos&quot;:null}" fill="url(#color-10)"/><path d="M366.02727,300.18219c0,0 0.94516,-38.77298 36.12251,-38.77298c36.57592,0 34.99031,39.31907 34.99031,39.31907l1.86225,108.34468c-4.21438,-0.14918 -8.4371,-0.23318 -12.67509,-0.17858c-14.65987,0.18887 -29.25942,3.07089 -43.91221,3.18012c-2.49824,0.01862 -7.86236,-0.15125 -14.20451,-0.26819z" data-paper-data="{&quot;origPos&quot;:null}" fill="url(#color-11)"/></g><path d="M241.51881,206.28701l97.12698,0.38234l0.1344,123.04457c0,0 0.18771,3.51337 -0.87636,4.90636c-0.93025,1.21781 -2.91953,1.80293 -4.59473,1.80293c-125.61478,0 -81.19837,0 -83.3495,0c-0.71705,0 -2.26429,0 -2.98132,0c-1.80914,0 -3.55348,-0.43076 -4.58294,-1.7312c-1.03541,-1.30796 -0.79224,-4.81142 -0.79224,-4.81142z" data-paper-data="{&quot;origPos&quot;:null,&quot;index&quot;:null}" fill="#03a63b" stroke="none" stroke-width="0" stroke-linecap="butt"/><path d="M241.38197,205.00972l97.12698,0.01442l0.1344,29.65591l-97.17709,0.16667z" data-paper-data="{&quot;origPos&quot;:null,&quot;index&quot;:null}" fill="#48c900" stroke="none" stroke-width="0" stroke-linecap="butt"/><path d="M241.46628,206.08042c0,0 -0.24317,-4.00346 0.79224,-5.31142c1.02945,-1.30044 2.77379,-1.7312 4.58294,-1.7312c0.71704,0 2.26428,0 2.98132,0c2.15113,0 -42.26529,0 83.3495,0c1.6752,0 3.66448,0.58512 4.59473,1.80293c1.06408,1.39299 0.87636,4.90636 0.87636,4.90636z" data-paper-data="{&quot;origPos&quot;:null,&quot;index&quot;:null}" fill="#b4ff53" stroke="none" stroke-width="0" stroke-linecap="butt"/><path d="M287.80004,262.04524h30.71855" data-paper-data="{&quot;origPos&quot;:null}" fill="none" stroke="#04b742" stroke-width="25" stroke-linecap="round"/><path d="M242.05919,316.93378v-24.87197h26.40873v24.87197z" data-paper-data="{&quot;origPos&quot;:null}" fill="#02af3d" stroke="none" stroke-width="0" stroke-linecap="butt"/><path d="M262.25333,304.77073h25.66667" data-paper-data="{&quot;origPos&quot;:null}" fill="none" stroke="#02af3d" stroke-width="25" stroke-linecap="round"/><g data-paper-data="{&quot;origPos&quot;:null}" stroke="none" stroke-width="0" stroke-linecap="butt"><path d="M57.98579,271.24276l97.12698,0.38234l0.1344,123.04457c0,0 0.18771,3.51337 -0.87636,4.90636c-0.93025,1.21781 -2.91953,1.80293 -4.59473,1.80293c-125.61478,0 -81.19837,0 -83.3495,0c-0.71705,0 -2.26429,0 -2.98132,0c-1.80914,0 -3.55348,-0.43076 -4.58294,-1.7312c-1.03541,-1.30796 -0.79224,-4.81142 -0.79224,-4.81142z" data-paper-data="{&quot;origPos&quot;:null,&quot;index&quot;:null}" fill="#03a63b"/><path d="M57.84895,269.96547l97.12698,0.01442l0.1344,29.65591l-97.17709,0.16667z" data-paper-data="{&quot;origPos&quot;:null,&quot;index&quot;:null}" fill="#48c900"/><path d="M57.93326,271.03617c0,0 -0.24317,-4.00346 0.79224,-5.31142c1.02945,-1.30044 2.77379,-1.7312 4.58294,-1.7312c0.71704,0 2.26428,0 2.98132,0c2.15113,0 -42.26529,0 83.3495,0c1.6752,0 3.66448,0.58512 4.59473,1.80293c1.06408,1.39299 0.87636,4.90636 0.87636,4.90636z" data-paper-data="{&quot;origPos&quot;:null,&quot;index&quot;:null}" fill="#b4ff53"/></g><path d="M128.55131,352.92202v-25.26777h26.40872v25.26777z" data-paper-data="{&quot;origPos&quot;:null}" fill="#02af3d" stroke="none" stroke-width="0" stroke-linecap="butt"/><path d="M134.7659,340.115h-25.66667" data-paper-data="{&quot;origPos&quot;:null}" fill="none" stroke="#02af3d" stroke-width="25" stroke-linecap="round"/><g data-paper-data="{&quot;index&quot;:null,&quot;origPos&quot;:null}" stroke="none" stroke-linecap="butt" text-anchor="start"><g data-paper-data="{&quot;origPos&quot;:null}" fill="#000000" stroke-width="0" font-family="&quot;Helvetica Neue&quot;, Helvetica, Arial, sans-serif" font-weight="400" font-size="16"/><g data-paper-data="{&quot;index&quot;:null,&quot;origPos&quot;:null}" fill="none" stroke-width="1" font-family="sans-serif" font-weight="normal" font-size="12"/></g><path d="M417.48864,423.69515v-250.75075h177.17718v250.75075z" fill="none" stroke="none" stroke-width="0" stroke-linecap="butt"/></g></svg>