<svg version="1.1" xmlns="http://www.w3.org/2000/svg" xmlns:xlink="http://www.w3.org/1999/xlink" width="105.88977" height="90" viewBox="0,0,105.88977,90"><g transform="translate(-193.43509,-138.01146)"><g data-paper-data="{&quot;isPaintingLayer&quot;:true}" fill-rule="nonzero" stroke-miterlimit="10" stroke-dasharray="" stroke-dashoffset="0" style="mix-blend-mode: normal"><g id="color" stroke-linecap="butt" stroke-linejoin="miter"><path d="M225.75344,179.98245c0,-7.88752 6.39409,-14.28161 14.28161,-14.28161c7.88752,0 14.28162,6.39409 14.28162,14.28161c0,7.88752 -6.3941,14.28161 -14.28162,14.28161c-7.88752,0 -14.28161,-6.39409 -14.28161,-14.28161z" fill="#fcea2b" stroke="none" stroke-width="1"/><path d="M241.37178,177.60736c0,-0.88906 -0.10339,-2.24781 0.4513,-2.90923c0.81256,-0.96885 2.54256,-1.05789 4.00593,-1.05789c1.23039,0 3.12159,0.34002 3.92831,1.05789c0.80673,0.71787 0.52898,1.81352 0.52898,2.90923c0,2.19011 -1.99657,3.96712 -4.45723,3.96712c-2.46233,0 -4.45723,-1.777 -4.45729,-3.96712z" fill="#3f3f3f" stroke="none" stroke-width="1"/><path d="M229.20595,177.60736c0,-0.88906 -0.10339,-2.24781 0.4513,-2.90923c0.81256,-0.96885 2.54256,-1.05789 4.00593,-1.05789c1.23039,0 3.12159,0.34002 3.92831,1.05789c0.80673,0.71787 0.52898,1.81352 0.52898,2.90923c0,2.19011 -1.99657,3.96712 -4.45723,3.96712c-2.46233,0 -4.45723,-1.777 -4.45729,-3.96712z" fill="#3f3f3f" stroke="none" stroke-width="1"/><path d="M238.67864,179.75365" fill="#9b9b9a" stroke="#9b9b9a" stroke-width="2"/></g><g id="line" fill="none" stroke="#000000" stroke-width="1.25" stroke-linecap="round" stroke-linejoin="round"><path d="M225.68333,180.01754c0,-7.88752 6.3941,-14.28162 14.28162,-14.28162c7.88752,0 14.28161,6.3941 14.28161,14.28162c0,7.88752 -6.39409,14.28162 -14.28161,14.28162c-7.88752,0 -14.28162,-6.3941 -14.28162,-14.28162z"/><path d="M246.05938,185.48521c-4.08206,2.18869 -8.72135,2.27115 -12.18874,0"/><path d="M231.8728,173.76547c3.95725,-0.34096 5.51388,0.03421 6.175,0.88297c0.49862,0.64013 0.50631,1.19959 0.50346,1.63295c-0.03142,4.77627 -3.25825,5.04868 -4.88493,5.18032c-4.8519,0.39262 -4.26014,-4.91691 -4.26014,-4.91691c0.32674,-2.8408 2.46668,-2.77927 2.46662,-2.77933z"/><path d="M229.45015,176.2138l-0.26893,-2.09338l2.38,-0.32767"/><path d="M250.43036,176.54483c0,0 0.59176,5.30953 -4.26014,4.91691c-1.62668,-0.13164 -4.85352,-0.40404 -4.88494,-5.18032c-0.00286,-0.43336 0.00484,-0.99282 0.50346,-1.63295c0.66111,-0.84877 2.21775,-1.22393 6.175,-0.88297c0,0.00006 2.13994,-0.06147 2.46662,2.77933z"/><path d="M242.61922,174.03123c-2.81459,1.5734 -5.37542,0 -5.37542,0"/><path d="M241.28531,176.28141"/><path d="M238.55125,176.28141"/><path d="M238.50513,177.07518c0,0 1.36725,-2.32909 2.81671,0"/><path d="M248.27126,173.79429l2.38,0.32767l-0.26893,2.09338"/><path d="M238.76517,176.27362c0,0 1.11483,-2.32909 2.29673,0"/></g><path d="M193.4351,228.01146v-90h105.88977v90z" fill="none" stroke="none" stroke-width="none" stroke-linecap="butt" stroke-linejoin="miter"/></g></g></svg>