<svg version="1.1" xmlns="http://www.w3.org/2000/svg" xmlns:xlink="http://www.w3.org/1999/xlink" width="28.72152" height="55.09833" viewBox="0,0,28.72152,55.09833"><g transform="translate(-225.63924,-152.45083)"><g data-paper-data="{&quot;isPaintingLayer&quot;:true}" fill="#000000" fill-rule="evenodd" stroke="none" stroke-width="1" stroke-linecap="round" stroke-linejoin="round" stroke-miterlimit="10" stroke-dasharray="" stroke-dashoffset="0" style="mix-blend-mode: normal"><g data-paper-data="{&quot;origPos&quot;:null}"><path d="M238.8326,162.44756c0,0 0.73189,0.74532 1.37669,0.7158c0.64479,-0.02951 1.26798,-0.83683 1.26798,-0.83683c0,0 4.49435,-5.31832 7.73521,-9.0179c0.79157,-0.90361 2.60035,-1.26134 3.56829,-0.23427c0.96794,1.02707 0.70833,2.77388 0.05802,3.73772c-0.65032,0.96384 -8.3747,9.66009 -9.28626,10.57656c-0.91156,0.91647 -1.99373,1.60584 -3.22503,1.68948c-1.2313,0.08364 -2.54031,-0.67273 -3.46932,-1.48417c-0.929,-0.81144 -10.38103,-10.00381 -10.38103,-10.00381c-0.93039,-0.92117 -1.1855,-2.57336 -0.25295,-3.73869c0.93255,-1.16532 2.61999,-1.02699 3.42958,-0.23084z" data-paper-data="{&quot;origPos&quot;:null,&quot;origRot&quot;:0,&quot;index&quot;:null}" opacity="0.42445"/><path d="M239.3035,181.67991c0,0 0.73189,0.74532 1.37669,0.7158c0.64479,-0.02951 1.26798,-0.83683 1.26798,-0.83683c0,0 4.49435,-5.31832 7.73521,-9.0179c0.79157,-0.90361 2.60035,-1.26135 3.56829,-0.23427c0.96794,1.02707 0.70833,2.77389 0.05802,3.73773c-0.65032,0.96384 -8.3747,9.66009 -9.28626,10.57656c-0.91156,0.91647 -1.99373,1.60584 -3.22503,1.68948c-1.2313,0.08364 -2.54031,-0.67273 -3.46932,-1.48417c-0.929,-0.81144 -10.38103,-10.00381 -10.38103,-10.00381c-0.93039,-0.92117 -1.1855,-2.57336 -0.25295,-3.73868c0.93255,-1.16532 2.61999,-1.02699 3.42958,-0.23084z" data-paper-data="{&quot;origPos&quot;:null,&quot;origRot&quot;:0,&quot;index&quot;:null}" opacity="0.42445"/><path d="M239.77441,200.91225c0,0 0.73189,0.74532 1.37669,0.7158c0.64479,-0.02951 1.26798,-0.83683 1.26798,-0.83683c0,0 4.49435,-5.31832 7.73521,-9.0179c0.79157,-0.90361 2.60035,-1.26135 3.56829,-0.23427c0.96794,1.02707 0.70833,2.77389 0.05802,3.73773c-0.65032,0.96384 -8.3747,9.66009 -9.28626,10.57656c-0.91156,0.91647 -1.99373,1.60584 -3.22503,1.68948c-1.2313,0.08364 -2.54031,-0.67273 -3.46932,-1.48417c-0.929,-0.81144 -10.38103,-10.00381 -10.38103,-10.00381c-0.93039,-0.92117 -1.1855,-2.57336 -0.25295,-3.73869c0.93255,-1.16532 2.61999,-1.02699 3.42958,-0.23084z" data-paper-data="{&quot;origPos&quot;:null,&quot;origRot&quot;:0,&quot;index&quot;:null}" opacity="0.42445"/></g></g></g></svg>