<svg version="1.1" xmlns="http://www.w3.org/2000/svg" xmlns:xlink="http://www.w3.org/1999/xlink" width="170" height="185"><g transform="translate(-158.55707,-83.66847)"><g data-paper-data="{&quot;isPaintingLayer&quot;:true}" fill-rule="nonzero" stroke-width="0" stroke-linecap="butt" stroke-linejoin="miter" stroke-miterlimit="10" stroke-dasharray="" stroke-dashoffset="0" style="mix-blend-mode: normal"><g data-paper-data="{&quot;origPos&quot;:null}" fill="#b82832" stroke="none"><path d="M189.00548,229.73926l0.32341,-38.76889l99.31646,-0.57477l-0.22314,39.34367z" data-paper-data="{&quot;origPos&quot;:null}"/><path d="M273.23632,239.74011c-0.92187,-0.83413 -0.78357,-2.46318 -0.78357,-2.46318v-19.01111h16.08182v18.93871c0,0 0.23183,1.61972 -0.7516,2.50984c-0.98344,0.89013 -2.82891,0.73091 -2.82891,0.73091h-8.99968c0,0 -1.79618,0.12896 -2.71806,-0.70517z" data-paper-data="{&quot;origPos&quot;:null}"/><path d="M245.14263,240.07905c-0.92187,-0.83413 -0.78356,-2.46318 -0.78356,-2.46318v-19.01111h16.08183v18.9387c0,0 0.23183,1.61972 -0.75161,2.50984c-0.98344,0.89013 -2.82891,0.73092 -2.82891,0.73092h-8.99968c0,0 -1.79619,0.12896 -2.71806,-0.70518z" data-paper-data="{&quot;origPos&quot;:null}"/><path d="M216.82873,240.199c-0.92187,-0.83413 -0.78356,-2.46318 -0.78356,-2.46318v-19.01111h16.08182v18.93871c0,0 0.23184,1.61972 -0.7516,2.50984c-0.98344,0.89013 -2.82891,0.73091 -2.82891,0.73091h-8.99968c0,0 -1.79619,0.12896 -2.71806,-0.70517z" data-paper-data="{&quot;origPos&quot;:null}"/><path d="M189.75297,241.19492c-0.90795,-0.83413 -0.77174,-2.46318 -0.77174,-2.46318v-19.01111h15.83896v18.9387c0,0 0.22833,1.61973 -0.74026,2.50984c-0.96859,0.89013 -2.78619,0.73091 -2.78619,0.73091h-8.86377c0,0 -1.76906,0.12896 -2.67701,-0.70518z" data-paper-data="{&quot;origPos&quot;:null}"/></g><path d="M189.02238,216.06896l0.37105,-69.29713l99.70454,0.11852l0.13371,43.71222c0,0 -0.21618,1.35678 -0.70141,1.77177c-0.48523,0.41499 -2.02747,0.5889 -2.02747,0.5889l-68.59116,-0.13398c0,0 -1.04765,-0.11687 -1.61624,0.39367c-0.56859,0.51054 -0.44744,1.45932 -0.44744,1.45932l-0.09121,5.59951c0,0 -0.20692,1.10067 0.43627,1.65368c0.64319,0.55302 1.94799,0.39631 1.94799,0.39631l67.47031,-0.03475c0,0 1.56572,0.14694 2.11039,0.56762c0.54467,0.42068 0.80241,1.75864 0.80241,1.75864l-0.04291,11.34667z" data-paper-data="{&quot;origPos&quot;:null}" fill="#fe404f" stroke="#000000"/><path d="M189.35517,161.20773v-11.39935c0,0 0.03818,-4.64008 2.77859,-6.76732c2.74041,-2.12723 7.77553,-1.97518 7.77553,-1.97518h76.93528c0,0 6.44492,-0.04656 9.32105,2.54921c2.87613,2.59575 2.83257,7.97221 2.83257,7.97221v9.62043z" data-paper-data="{&quot;origPos&quot;:null}" fill="#b82832" stroke="none"/><path d="M209.5218,130.57957c1.14174,-1.05063 3.49827,-0.91494 3.49827,-0.91494l41.268,-0.20692c0,0 5.99622,-0.04341 8.67829,2.3772c2.68207,2.42061 2.6553,7.40939 2.6553,7.40939v8.99624h-57.30603l0.17562,-14.41135c0,0 -0.11119,-2.19901 1.03055,-3.24964z" data-paper-data="{&quot;origPos&quot;:null}" fill="#b82832" stroke="none"/><g data-paper-data="{&quot;origPos&quot;:null}" fill="#ffffff" stroke="none"><path d="M287.79317,193.11687c0,0 1.29537,0.03191 1.60945,1.12737c0.31408,1.09543 -0.64215,2.24643 -0.64215,2.24643l-7.74481,11.23787c0,0 -0.90557,1.68857 -1.94471,1.58083c-1.03914,-0.10774 -1.8741,-1.97678 -1.8741,-1.97678l-9.18059,-14.21572z" data-paper-data="{&quot;origPos&quot;:null,&quot;index&quot;:null}"/><path d="M270.39317,193.11687c0,0 1.29538,0.03191 1.60945,1.12737c0.31408,1.09543 -0.64216,2.24643 -0.64216,2.24643l-7.74481,11.23787c0,0 -0.90557,1.68857 -1.94471,1.58083c-1.03914,-0.10774 -1.8741,-1.97678 -1.8741,-1.97678l-9.18059,-14.21572z" data-paper-data="{&quot;origPos&quot;:null,&quot;index&quot;:null}"/></g><path d="M229.35072,173.61967c-1.79194,-1.55792 -1.4572,-4.65183 -1.4572,-4.65183l0.16223,-25.27116c0,0 0.04546,-3.63187 2.39299,-4.79078c2.34753,-1.15891 6.73526,0.53056 6.73526,0.53056l49.00367,27.4536c0,0 3.99774,2.26279 2.48058,5.56846c-1.37726,3.00083 -6.68494,2.5946 -6.68494,2.5946l-47.25865,-0.14627c0,0 -3.582,0.27075 -5.37394,-1.28716z" data-paper-data="{&quot;origPos&quot;:null}" fill="#fdf883" stroke="none"/><path d="M244.78775,155.53161c0,-4.78397 4.30926,-8.66214 9.625,-8.66214c5.31574,0 9.625,3.87817 9.625,8.66214c0,4.78397 -4.30926,8.66214 -9.625,8.66214c-5.31574,0 -9.625,-3.87817 -9.625,-8.66214z" data-paper-data="{&quot;origPos&quot;:null}" fill="#f02333" stroke="none"/><path d="M158.55707,268.66847v-185h170v185z" fill="none" stroke="none"/></g></g></svg>