<svg version="1.1" xmlns="http://www.w3.org/2000/svg" xmlns:xlink="http://www.w3.org/1999/xlink" width="685.73269" height="384.04997"><defs><linearGradient x1="527.16707" y1="167.82839" x2="527.16707" y2="360.7863" gradientUnits="userSpaceOnUse" id="color-1"><stop offset="0" stop-color="#fa88cc"/><stop offset="1" stop-color="#eeb7d8"/></linearGradient><linearGradient x1="-10.25626" y1="227.45142" x2="-10.25626" y2="420.40934" gradientUnits="userSpaceOnUse" id="color-2"><stop offset="0" stop-color="#fa88cc"/><stop offset="1" stop-color="#eeb7d8"/></linearGradient><linearGradient x1="162.89175" y1="90.6429" x2="162.89175" y2="237.86855" gradientUnits="userSpaceOnUse" id="color-3"><stop offset="0" stop-color="#fb64b3"/><stop offset="1" stop-color="#f56fb6"/></linearGradient><linearGradient x1="418.01505" y1="76.16636" x2="418.01505" y2="239.87357" gradientUnits="userSpaceOnUse" id="color-4"><stop offset="0" stop-color="#fb64b3"/><stop offset="1" stop-color="#f56fb6"/></linearGradient><linearGradient x1="349.78234" y1="112.68586" x2="349.78234" y2="265.91155" gradientUnits="userSpaceOnUse" id="color-5"><stop offset="0" stop-color="#fb64b3"/><stop offset="1" stop-color="#f56fb6"/></linearGradient><linearGradient x1="390.77032" y1="140.51381" x2="390.77032" y2="259.22741" gradientUnits="userSpaceOnUse" id="color-6"><stop offset="0" stop-color="#fe76be"/><stop offset="1" stop-color="#f780c0"/></linearGradient><linearGradient x1="109.17272" y1="113.65491" x2="109.17272" y2="232.36846" gradientUnits="userSpaceOnUse" id="color-7"><stop offset="0" stop-color="#fe76be"/><stop offset="1" stop-color="#f780c0"/></linearGradient><linearGradient x1="59.46478" y1="196.21074" x2="59.46478" y2="350.75659" gradientUnits="userSpaceOnUse" id="color-8"><stop offset="0" stop-color="#fb8cce"/><stop offset="1" stop-color="#edbbd9"/></linearGradient><linearGradient x1="130.25633" y1="156.51774" x2="130.25633" y2="373.25089" gradientUnits="userSpaceOnUse" id="color-9"><stop offset="0" stop-color="#fa86cc"/><stop offset="1" stop-color="#edbbd9"/></linearGradient><linearGradient x1="214.95729" y1="174.50172" x2="214.95729" y2="367.65797" gradientUnits="userSpaceOnUse" id="color-10"><stop offset="0" stop-color="#fb8cce"/><stop offset="1" stop-color="#edbbd9"/></linearGradient><linearGradient x1="283.08073" y1="166.547" x2="283.08073" y2="321.09284" gradientUnits="userSpaceOnUse" id="color-11"><stop offset="0" stop-color="#fb8cce"/><stop offset="1" stop-color="#efb0d6"/></linearGradient><linearGradient x1="344.52571" y1="212.15621" x2="344.52571" y2="365.66453" gradientUnits="userSpaceOnUse" id="color-12"><stop offset="0" stop-color="#f593ce"/><stop offset="1" stop-color="#efb5d8"/></linearGradient><linearGradient x1="408.06347" y1="181.54338" x2="408.06347" y2="336.08927" gradientUnits="userSpaceOnUse" id="color-13"><stop offset="0" stop-color="#fb8cce"/><stop offset="1" stop-color="#efb3d7"/></linearGradient><linearGradient x1="470.79135" y1="153.48735" x2="470.79135" y2="346.44526" gradientUnits="userSpaceOnUse" id="color-14"><stop offset="0" stop-color="#fa88cc"/><stop offset="1" stop-color="#eeb7d8"/></linearGradient><linearGradient x1="298.42889" y1="244.54938" x2="298.42889" y2="263.25982" gradientUnits="userSpaceOnUse" id="color-15"><stop offset="0" stop-color="#690606"/><stop offset="1" stop-color="#c50d0c"/></linearGradient><linearGradient x1="312.37756" y1="244.79116" x2="312.37756" y2="263.5016" gradientUnits="userSpaceOnUse" id="color-16"><stop offset="0" stop-color="#690606"/><stop offset="1" stop-color="#c50d0c"/></linearGradient><linearGradient x1="326.88505" y1="244.56581" x2="326.88505" y2="263.27626" gradientUnits="userSpaceOnUse" id="color-17"><stop offset="0" stop-color="#690606"/><stop offset="1" stop-color="#c50d0c"/></linearGradient><linearGradient x1="340.83373" y1="244.8076" x2="340.83373" y2="263.51804" gradientUnits="userSpaceOnUse" id="color-18"><stop offset="0" stop-color="#690606"/><stop offset="1" stop-color="#c50d0c"/></linearGradient><linearGradient x1="355.44381" y1="244.65952" x2="355.44381" y2="263.36996" gradientUnits="userSpaceOnUse" id="color-19"><stop offset="0" stop-color="#690606"/><stop offset="1" stop-color="#c50d0c"/></linearGradient><linearGradient x1="369.3964" y1="244.9013" x2="369.3964" y2="263.61174" gradientUnits="userSpaceOnUse" id="color-20"><stop offset="0" stop-color="#690606"/><stop offset="1" stop-color="#c50d0c"/></linearGradient><linearGradient x1="383.90389" y1="244.67595" x2="383.90389" y2="263.3864" gradientUnits="userSpaceOnUse" id="color-21"><stop offset="0" stop-color="#690606"/><stop offset="1" stop-color="#c50d0c"/></linearGradient><linearGradient x1="397.52118" y1="244.91774" x2="397.52118" y2="263.62818" gradientUnits="userSpaceOnUse" id="color-22"><stop offset="0" stop-color="#690606"/><stop offset="1" stop-color="#c50d0c"/></linearGradient></defs><g transform="translate(73.73508,-76.16634)"><g data-paper-data="{&quot;isPaintingLayer&quot;:true}" fill-rule="nonzero" stroke-linejoin="miter" stroke-miterlimit="10" stroke-dasharray="" stroke-dashoffset="0" style="mix-blend-mode: normal"><path d="M490.62039,206.60131c0,0 0.94516,-38.77298 36.12251,-38.77298c22.49086,0 30.55235,14.86705 33.42588,26.31739c-0.74242,0.10093 -1.45893,0.28335 -2.14024,0.53794c-2.14779,0.80258 -3.94569,2.32246 -5.10223,4.26816c-2.93254,1.74313 -4.89777,4.94318 -4.89777,8.60223c0,5.52285 4.47715,10 10,10c1.30181,0 2.54552,-0.24876 3.6862,-0.70133l-0.34977,183.74061l-25.88882,-41.81211c-1.47438,-0.0104 -2.94873,-0.02281 -4.42306,-0.03717c-12.75109,-0.12419 -25.42647,-1.25907 -38.2184,-1.37081z" data-paper-data="{&quot;origPos&quot;:null}" fill="url(#color-1)" stroke="none" stroke-width="0" stroke-linecap="butt"/><path d="M-45.53056,266.22429c0,0 -0.32722,-38.77298 34.85013,-38.77298c36.57592,0 34.99031,39.31907 34.99031,39.31907l3.13464,193.44593l-29.39171,-41.81211c-1.47438,-0.0104 -2.94873,-0.02281 -4.42306,-0.03717c-12.75109,-0.12419 -25.42647,-1.25907 -38.2184,-1.37081z" data-paper-data="{&quot;origPos&quot;:null}" fill="url(#color-2)" stroke="none" stroke-width="0" stroke-linecap="butt"/><path d="M123.95192,235.45485l2.82426,-107.55724c0,0 1.90815,-37.25471 35.70803,-37.25471c35.14369,0 33.62016,37.77942 33.62016,37.77942l1.90298,109.44628z" data-paper-data="{&quot;origPos&quot;:null}" fill="url(#color-3)" stroke="none" stroke-width="0" stroke-linecap="butt"/><path d="M372.38766,239.18958l6.58069,-121.59797c0,0 1.00981,-41.42527 38.59349,-41.42527c39.07792,0 37.38385,42.00872 37.38385,42.00872l2.11602,121.69849z" data-paper-data="{&quot;origPos&quot;:null}" fill="url(#color-4)" stroke="none" stroke-width="0" stroke-linecap="butt"/><path d="M313.99852,263.39946l-0.76291,-111.9406c0,0 0.94516,-38.77298 36.12251,-38.77298c36.57592,0 35.99031,40.31907 35.99031,40.31907l-1.04348,109.40813z" data-paper-data="{&quot;origPos&quot;:null}" fill="url(#color-5)" stroke="none" stroke-width="0" stroke-linecap="butt"/><path d="M356.48803,259.22741l-2.26441,-79.94061c0,0 0.94516,-38.77298 36.12251,-38.77298c36.57592,0 34.99031,39.31907 34.99031,39.31907l1.98054,70.90662z" data-paper-data="{&quot;origPos&quot;:null}" fill="url(#color-6)" stroke="none" stroke-width="0" stroke-linecap="butt"/><path d="M74.89042,232.36846l-2.26441,-79.94061c0,0 0.94516,-38.77298 36.12251,-38.77298c36.57592,0 34.99031,39.31907 34.99031,39.31907l1.98054,70.90662z" data-paper-data="{&quot;origPos&quot;:null}" fill="url(#color-7)" stroke="none" stroke-width="0" stroke-linecap="butt"/><g data-paper-data="{&quot;origPos&quot;:null}" stroke="none" stroke-width="0" stroke-linecap="butt"><path d="M20.90332,234.98368c0,0 3.94516,-38.77298 39.12251,-38.77298c36.57592,0 34.99031,39.31907 34.99031,39.31907l-0.99861,147.49095c-19.43077,0.08214 -70.07208,4.30779 -73.52284,3.20894c0,0 -0.15456,-29.77558 -0.09142,-48.83629c0.13238,-39.96682 0.50005,-102.40969 0.50005,-102.40969z" data-paper-data="{&quot;origPos&quot;:null}" fill="url(#color-8)"/><path d="M83.65109,211.89105c0,0 0.78374,-55.37334 47.22762,-55.37334c29.0593,0 44.92875,28.67963 45.69148,45.75323c0.13118,2.93656 2.274,-1.33652 2.274,-1.33652c0,0 -1.14777,65.22228 -1.8824,106.96786c-1.23182,69.99843 221.71293,-32.92771 290.62102,-20.55955c58.4475,10.49061 30.20947,92.22915 30.20947,92.22915c-4.65535,-0.00148 -412.55644,1.7367 -418.60348,1.66089c0,0 4.4623,-55.65743 4.4623,-68.35015c0,-38.07817 0,-100.99157 0,-100.99157z" data-paper-data="{&quot;origPos&quot;:null}" fill="url(#color-9)"/><path d="M171.35525,222.96137c0,0 3.20279,-48.45968 43.09597,-48.45968c39.48659,0 41.74519,50.17978 41.74519,50.17978l1.87749,113.60542c-12.08157,-0.10905 -23.79696,-0.24946 -34.28321,-0.36751c-3.02899,-0.0341 -6.15858,-0.86839 -9.23131,-0.90863c-4.82865,-0.06323 -9.68118,-0.22122 -14.47535,0.47899c-3.07167,0.44863 -5.7122,1.76285 -8.8544,1.7925c-6.46794,0.06104 -12.93647,0.08477 -19.4048,0.06531c-0.19304,-39.99412 -0.35752,-86.19943 -0.41824,-102.48028c-0.02024,-5.42695 -0.05133,-13.90589 -0.05133,-13.90589z" data-paper-data="{&quot;origPos&quot;:null}" fill="url(#color-10)"/><path d="M246.53409,205.31994c0,0 0.94516,-38.77298 36.12251,-38.77298c36.57592,0 34.99031,39.31907 34.99031,39.31907l1.7341,140.29018c-2.08284,0.22614 -4.16853,0.36959 -6.25845,0.3908c-20.13,0.20436 -43.36493,0.03968 -64.66181,-0.18007z" data-paper-data="{&quot;origPos&quot;:null}" fill="url(#color-11)"/><path d="M308.22437,250.66886c0,0 0.93882,-38.51267 35.88,-38.51267c36.33036,0 34.75539,39.0551 34.75539,39.0551l1.63091,94.88574c-9.2461,-0.21231 -23.66907,-0.54643 -33.28794,0.27403c-11.38392,0.97102 -22.66897,4.73061 -34.0802,4.84646c-0.96997,0.00984 -1.94716,0.01883 -2.93099,0.027z" data-paper-data="{&quot;origPos&quot;:null}" fill="url(#color-12)"/><path d="M371.51679,220.31639c0,0 0.94516,-38.77298 36.12251,-38.77298c36.57592,0 34.99031,39.31907 34.99031,39.31907l1.86225,108.34468c-4.21438,-0.14918 -8.4371,-0.23318 -12.67509,-0.17858c-14.65987,0.18887 -29.25942,3.07089 -43.91221,3.18012c-2.49824,0.01862 -7.86236,-0.15125 -14.20451,-0.26819z" data-paper-data="{&quot;origPos&quot;:null}" fill="url(#color-13)"/><path d="M434.24466,192.26027c0,0 0.94516,-38.77298 36.12251,-38.77298c36.57592,0 34.99031,39.31907 34.99031,39.31907l3.13464,193.44593l-29.39171,-41.81211c-1.47438,-0.0104 -2.94873,-0.02281 -4.42306,-0.03717c-12.75109,-0.12419 -25.42647,-1.25907 -38.2184,-1.37081z" data-paper-data="{&quot;origPos&quot;:null}" fill="url(#color-14)"/></g><g data-paper-data="{&quot;origPos&quot;:null}" stroke="#690606" stroke-width="2.5" stroke-linecap="butt"><g data-paper-data="{&quot;origPos&quot;:null}"><path d="M291.41079,263.25982c0,0 5.49464,-16.12881 6.31628,-18.31936c0.27388,-0.73018 0.68392,-0.39804 0.82941,-0.05282c0.14547,0.34522 6.89049,18.37219 6.89049,18.37219c0,0 0.1979,0.38055 -0.0838,0.38055c0,0 -12.51298,0.06734 -13.77104,0.03107c-0.41936,-0.0121 -0.18133,-0.41162 -0.18133,-0.41162z" data-paper-data="{&quot;origPos&quot;:null}" fill="url(#color-15)"/><path d="M305.35947,263.5016c0,0 5.49464,-16.12881 6.31629,-18.31936c0.27388,-0.73018 0.68391,-0.39804 0.8294,-0.05282c0.14548,0.34522 6.89049,18.37219 6.89049,18.37219c0,0 0.1979,0.38055 -0.0838,0.38055c0,0 -12.51297,0.06734 -13.77103,0.03107c-0.41936,-0.0121 -0.18134,-0.41162 -0.18134,-0.41162z" data-paper-data="{&quot;origPos&quot;:null}" fill="url(#color-16)"/><path d="M319.86695,263.27626c0,0 5.49464,-16.12881 6.31629,-18.31936c0.27388,-0.73018 0.68392,-0.39804 0.8294,-0.05282c0.14547,0.34522 6.89049,18.37219 6.89049,18.37219c0,0 0.19789,0.38055 -0.08381,0.38055c0,0 -12.51297,0.06734 -13.77103,0.03107c-0.41936,-0.0121 -0.18134,-0.41162 -0.18134,-0.41162z" data-paper-data="{&quot;origPos&quot;:null}" fill="url(#color-17)"/><path d="M333.81565,263.51804c0,0 5.49464,-16.12881 6.31628,-18.31936c0.27388,-0.73018 0.68392,-0.39804 0.82941,-0.05282c0.14547,0.34522 6.89049,18.37219 6.89049,18.37219c0,0 0.19789,0.38055 -0.08381,0.38055c0,0 -12.51297,0.06734 -13.77103,0.03107c-0.41936,-0.0121 -0.18133,-0.41162 -0.18133,-0.41162z" data-paper-data="{&quot;origPos&quot;:null}" fill="url(#color-18)"/></g><g data-paper-data="{&quot;origPos&quot;:null}"><path d="M348.42572,263.36996c0,0 5.49463,-16.12881 6.31628,-18.31936c0.27388,-0.73018 0.68392,-0.39804 0.82941,-0.05282c0.14547,0.34522 6.89049,18.37218 6.89049,18.37218c0,0 0.1979,0.38055 -0.0838,0.38055c0,0 -12.51297,0.06735 -13.77103,0.03107c-0.41936,-0.0121 -0.18133,-0.41162 -0.18133,-0.41162z" data-paper-data="{&quot;origPos&quot;:null}" fill="url(#color-19)"/><path d="M362.37832,263.61174c0,0 5.49464,-16.12881 6.31628,-18.31936c0.27388,-0.73018 0.68392,-0.39804 0.82939,-0.05282c0.14547,0.34522 6.89049,18.37218 6.89049,18.37218c0,0 0.1979,0.38055 -0.0838,0.38055c0,0 -12.51297,0.06735 -13.77104,0.03107c-0.41936,-0.0121 -0.18133,-0.41162 -0.18133,-0.41162z" data-paper-data="{&quot;origPos&quot;:null}" fill="url(#color-20)"/><path d="M376.8858,263.3864c0,0 5.49464,-16.12881 6.31628,-18.31936c0.27388,-0.73018 0.68392,-0.39804 0.82941,-0.05282c0.14547,0.34522 6.89049,18.37218 6.89049,18.37218c0,0 0.19791,0.38055 -0.0838,0.38055c0,0 -12.51298,0.06735 -13.77104,0.03107c-0.41936,-0.0121 -0.18133,-0.41162 -0.18133,-0.41162z" data-paper-data="{&quot;origPos&quot;:null}" fill="url(#color-21)"/><path d="M390.50309,263.62818c0,0 5.49464,-16.12881 6.31629,-18.31936c0.27388,-0.73018 0.68392,-0.39804 0.8294,-0.05282c0.14547,0.34522 6.89048,18.37218 6.89048,18.37218c0,0 0.19791,0.38055 -0.0838,0.38055c0,0 -12.51296,0.06735 -13.77103,0.03107c-0.41936,-0.0121 -0.18134,-0.41162 -0.18134,-0.41162z" data-paper-data="{&quot;origPos&quot;:null}" fill="url(#color-22)"/></g></g><path d="M-6.07969,260.15146l126.27103,1.00538l22.40995,-34.52627l147.43555,1.50862l0.14191,33.7685l115.23462,0.7818l0.60603,-32.40667l156.43241,0.01092l-0.15857,218.88982l-273.4091,10.44154c0,0 -77.78248,-1.1966 -80.3026,-1.1966c-188.97066,0 -198.72709,0 -201.96318,0c-1.07871,0 -3.40632,0 -4.48499,0c-2.72161,0 -5.34574,-0.64802 -6.89442,-2.60436c-1.55764,-1.96765 -1.19181,-7.23813 -1.19181,-7.23813z" data-paper-data="{&quot;origPos&quot;:null,&quot;index&quot;:null}" fill="#03a63b" stroke="none" stroke-width="0" stroke-linecap="butt"/><path d="M-5.99884,262.48037l88.61739,0.01222l59.49529,-56.03081l30.78866,0.34591l117.27814,-0.7598l0.10781,29.91244l-147.94704,-0.33073l-31.83886,42.19853l-16.23208,14.33159l-100.185,0.15763z" data-paper-data="{&quot;origPos&quot;:null,&quot;index&quot;:null}" fill="#48c900" stroke="none" stroke-width="0" stroke-linecap="butt"/><path d="M7.57875,413.18474v-181.68168h144.14414v181.68168z" data-paper-data="{&quot;origPos&quot;:null}" fill="none" stroke="none" stroke-width="NaN" stroke-linecap="butt"/><path d="M141.86776,206.95668c0,0 -0.24317,-4.00346 0.79224,-5.31142c1.02945,-1.30044 2.77379,-1.7312 4.58294,-1.7312c0.71704,0 2.26428,0 2.98132,0c2.15113,0 9.48573,0 135.10052,0c1.6752,0 3.66448,0.58512 4.59473,1.80293c1.06408,1.39299 0.87636,4.90636 0.87636,4.90636c0,0 -16.80791,0.03592 -27.02229,0.05892c-30.64316,0.06898 -121.90582,0.27441 -121.90582,0.27441z" data-paper-data="{&quot;origPos&quot;:null,&quot;index&quot;:null}" fill="#b4ff53" stroke="none" stroke-width="0" stroke-linecap="butt"/><path d="M123.39169,390.52483h-86.26509" data-paper-data="{&quot;origPos&quot;:null,&quot;index&quot;:null}" fill="none" stroke="#02af3d" stroke-width="30" stroke-linecap="round"/><path d="M245.78105,336.20299h-62.24107" data-paper-data="{&quot;origPos&quot;:null}" fill="none" stroke="#02af3d" stroke-width="30" stroke-linecap="round"/><path d="M232.69848,336.10779h51.20144" data-paper-data="{&quot;origPos&quot;:null}" fill="none" stroke="#04b742" stroke-width="30" stroke-linecap="round"/><path d="M203.34903,221.10957l51.54564,0.5" data-paper-data="{&quot;origPos&quot;:null}" fill="none" stroke="#3dc400" stroke-width="28.5" stroke-linecap="round"/><path d="M563.47359,235.44488l-157.53982,1.00209l0.11194,-29.91244l162.74375,0.41389z" data-paper-data="{&quot;origPos&quot;:null,&quot;index&quot;:null}" fill="#48c900" stroke="none" stroke-width="0" stroke-linecap="butt"/><path d="M454.59077,222.10507h47.04564" data-paper-data="{&quot;origPos&quot;:null}" fill="none" stroke="#3dc400" stroke-width="28.5" stroke-linecap="round"/><path d="M506.61767,297.56425h-51.20144" data-paper-data="{&quot;origPos&quot;:null}" fill="none" stroke="#04b742" stroke-width="30" stroke-linecap="round"/><path d="M469.23254,326.45572h-77.25609" data-paper-data="{&quot;origPos&quot;:null,&quot;index&quot;:null}" fill="none" stroke="#02af3d" stroke-width="30" stroke-linecap="round"/><path d="M88.71608,274.2505l56.5,-50.5" data-paper-data="{&quot;origPos&quot;:null}" fill="none" stroke="#48c900" stroke-width="34" stroke-linecap="round"/><path d="M84.96608,259.0005l59.75,-54.75" data-paper-data="{&quot;origPos&quot;:null}" fill="none" stroke="#b4ff53" stroke-width="7.5" stroke-linecap="round"/><path d="M25.95177,277.85982h33.70144" data-paper-data="{&quot;origPos&quot;:null}" fill="none" stroke="#3dc400" stroke-width="29" stroke-linecap="round"/><path d="M-6.12659,263.13149c0,0 -0.29827,-4.00346 0.97174,-5.31142c1.2627,-1.30044 3.40226,-1.7312 5.62132,-1.7312c0.87951,0 2.77731,0 3.65682,0c2.63852,0 81.47865,0 81.47865,0l0.27118,6.70929z" data-paper-data="{&quot;origPos&quot;:null,&quot;index&quot;:null}" fill="#b4ff53" stroke="none" stroke-width="0" stroke-linecap="butt"/><path d="M437.88129,207.16888c-9.2713,-0.023 -31.87556,-0.05892 -31.87556,-0.05892c0,0 0.1491,-3.51337 1.11493,-4.90636c0.84436,-1.21781 2.64997,-1.80293 4.17051,-1.80293c114.01701,0 127.70312,0 129.65564,0c0.65084,0 2.05523,0 2.70606,0c1.64211,0 3.2254,0.43076 4.1598,1.7312c0.93981,1.30796 0.71909,5.31142 0.71909,5.31142c0,0 -82.83655,-0.20543 -110.65048,-0.27441z" data-paper-data="{&quot;origPos&quot;:null,&quot;index&quot;:null}" fill="#b4ff53" stroke="none" stroke-width="0" stroke-linecap="butt"/><path d="M-73.73508,454.50454v-377.6562h678.42173v377.6562z" data-paper-data="{&quot;origPos&quot;:null}" fill="none" stroke="none" stroke-width="0" stroke-linecap="butt"/><path d="M547.49761,203.60711l60.75,-54.25" data-paper-data="{&quot;origPos&quot;:null}" fill="none" stroke="#b4ff53" stroke-width="7.5" stroke-linecap="round"/></g></g></svg>