<svg version="1.1" xmlns="http://www.w3.org/2000/svg" xmlns:xlink="http://www.w3.org/1999/xlink" width="170" height="185"><g transform="translate(-158.55707,-83.66847)"><g data-paper-data="{&quot;isPaintingLayer&quot;:true}" fill-rule="nonzero" stroke-width="0" stroke-linecap="butt" stroke-linejoin="miter" stroke-miterlimit="10" stroke-dasharray="" stroke-dashoffset="0" style="mix-blend-mode: normal"><g data-paper-data="{&quot;origPos&quot;:null}" fill="#b82832" stroke="none"><path d="M189.00548,240.83378l0.32341,-3.43151l99.31646,-0.05088l-0.22314,3.48239z" data-paper-data="{&quot;origPos&quot;:null}"/><path d="M273.23632,241.71897c-0.92187,-0.07383 -0.78357,-0.21802 -0.78357,-0.21802v-1.68271h16.08182v1.6763c0,0 0.23183,0.14336 -0.7516,0.22215c-0.98344,0.07879 -2.82891,0.0647 -2.82891,0.0647h-8.99968c0,0 -1.79618,0.01142 -2.71806,-0.06242z" data-paper-data="{&quot;origPos&quot;:null}"/><path d="M245.14263,241.74897c-0.92187,-0.07383 -0.78356,-0.21802 -0.78356,-0.21802v-1.68271h16.08183v1.6763c0,0 0.23183,0.14336 -0.75161,0.22215c-0.98344,0.07879 -2.82891,0.0647 -2.82891,0.0647h-8.99968c0,0 -1.79619,0.01142 -2.71806,-0.06242z" data-paper-data="{&quot;origPos&quot;:null}"/><path d="M216.82873,241.75959c-0.92187,-0.07383 -0.78356,-0.21802 -0.78356,-0.21802v-1.68271h16.08182v1.6763c0,0 0.23184,0.14336 -0.7516,0.22215c-0.98344,0.07879 -2.82891,0.0647 -2.82891,0.0647h-8.99968c0,0 -1.79619,0.01142 -2.71806,-0.06242z" data-paper-data="{&quot;origPos&quot;:null}"/><path d="M189.75297,241.84774c-0.90795,-0.07383 -0.77174,-0.21802 -0.77174,-0.21802v-1.68271h15.83896v1.6763c0,0 0.22833,0.14337 -0.74026,0.22215c-0.96859,0.07879 -2.78619,0.0647 -2.78619,0.0647h-8.86377c0,0 -1.76906,0.01142 -2.67701,-0.06242z" data-paper-data="{&quot;origPos&quot;:null}"/></g><path d="M189.02238,239.62378l0.37105,-6.13363l99.70454,0.01049l0.13371,3.86906c0,0 -0.21618,0.12009 -0.70141,0.15682c-0.48523,0.03673 -2.02747,0.05212 -2.02747,0.05212l-68.59116,-0.01186c0,0 -1.04765,-0.01035 -1.61624,0.03484c-0.56859,0.04519 -0.44744,0.12917 -0.44744,0.12917l-0.09121,0.49562c0,0 -0.20692,0.09742 0.43627,0.14637c0.64319,0.04895 1.94799,0.03508 1.94799,0.03508l67.47031,-0.00308c0,0 1.56572,0.01301 2.11039,0.05024c0.54467,0.03723 0.80241,0.15566 0.80241,0.15566l-0.04291,1.00432z" data-paper-data="{&quot;origPos&quot;:null}" fill="#fe404f" stroke="#000000"/><path d="M189.35517,234.76791v-1.00898c0,0 0.03818,-0.4107 2.77859,-0.59899c2.74041,-0.18829 7.77553,-0.17483 7.77553,-0.17483h76.93528c0,0 6.44492,-0.00412 9.32105,0.22564c2.87613,0.22975 2.83257,0.70564 2.83257,0.70564v0.85153z" data-paper-data="{&quot;origPos&quot;:null}" fill="#b82832" stroke="none"/><path d="M209.5218,232.05694c1.14174,-0.09299 3.49827,-0.08099 3.49827,-0.08099l41.268,-0.01832c0,0 5.99622,-0.00384 8.67829,0.21041c2.68207,0.21425 2.6553,0.65582 2.6553,0.65582v0.79628h-57.30603l0.17562,-1.27558c0,0 -0.11119,-0.19464 1.03055,-0.28763z" data-paper-data="{&quot;origPos&quot;:null}" fill="#b82832" stroke="none"/><g data-paper-data="{&quot;origPos&quot;:null}" fill="#ffffff" stroke="none"><path d="M287.79317,237.59225c0,0 1.29537,0.00282 1.60945,0.09979c0.31408,0.09696 -0.64215,0.19884 -0.64215,0.19884l-7.74481,0.99469c0,0 -0.90557,0.14946 -1.94471,0.13992c-1.03914,-0.00954 -1.8741,-0.17497 -1.8741,-0.17497l-9.18059,-1.25826z" data-paper-data="{&quot;origPos&quot;:null,&quot;index&quot;:null}"/><path d="M270.39317,237.59225c0,0 1.29538,0.00282 1.60945,0.09979c0.31408,0.09696 -0.64216,0.19884 -0.64216,0.19884l-7.74481,0.99469c0,0 -0.90557,0.14946 -1.94471,0.13992c-1.03914,-0.00954 -1.8741,-0.17497 -1.8741,-0.17497l-9.18059,-1.25826z" data-paper-data="{&quot;origPos&quot;:null,&quot;index&quot;:null}"/></g><path d="M229.35072,235.86651c-1.79194,-0.13789 -1.4572,-0.41174 -1.4572,-0.41174l0.16223,-2.2368c0,0 0.04546,-0.32147 2.39299,-0.42404c2.34753,-0.10258 6.73526,0.04696 6.73526,0.04696l49.00367,2.42998c0,0 3.99774,0.20028 2.48058,0.49288c-1.37726,0.26561 -6.68494,0.22965 -6.68494,0.22965l-47.25865,-0.01295c0,0 -3.582,0.02396 -5.37394,-0.11393z" data-paper-data="{&quot;origPos&quot;:null}" fill="#fdf883" stroke="none"/><path d="M244.78775,234.2655c0,-0.42344 4.30926,-0.7667 9.625,-0.7667c5.31574,0 9.625,0.34327 9.625,0.7667c0,0.42344 -4.30926,0.7667 -9.625,0.7667c-5.31574,0 -9.625,-0.34327 -9.625,-0.7667z" data-paper-data="{&quot;origPos&quot;:null}" fill="#f02333" stroke="none"/><path d="M158.55707,268.66847v-185h170v185z" fill="none" stroke="none"/></g></g></svg>