<svg version="1.1" xmlns="http://www.w3.org/2000/svg" xmlns:xlink="http://www.w3.org/1999/xlink" width="349.1046" height="300.295"><g transform="translate(16.23219,7.82147)"><g data-paper-data="{&quot;isPaintingLayer&quot;:true}" fill-rule="nonzero" stroke-linejoin="miter" stroke-miterlimit="10" stroke-dasharray="" stroke-dashoffset="0" style="mix-blend-mode: normal"><path d="M59.1506,153.1761l-59.21122,-6.58937l-1.04579,-0.15248l-0.00313,-49.32255l3.57847,-1.70279l56.68167,1.60197z" data-paper-data="{&quot;origPos&quot;:null,&quot;index&quot;:null}" fill="#11b738" stroke="none" stroke-width="0" stroke-linecap="butt"/><path d="M-1.22277,98.06295l0.05028,-6.20928c0,0 35.55822,0 41.19247,0c1.87809,0 3.23363,-0.09488 4.38379,1.42857c1.21895,1.61457 0.85714,4.78071 0.85714,4.78071z" data-paper-data="{&quot;origPos&quot;:null,&quot;index&quot;:null}" fill="#7aff75" stroke="none" stroke-width="0" stroke-linecap="butt"/><path d="M-7.58271,192.73622v-72.31449c0,0 -0.4304,-5.86366 2.19048,-9.84811c2.43443,-3.701 7.42024,-3.54257 7.42024,-3.54257h58.38928v85.70517z" data-paper-data="{&quot;origPos&quot;:null}" fill="#2568a7" stroke="none" stroke-width="0" stroke-linecap="butt"/><path d="M39.40525,-1.11218c0,0 -0.16409,-3.51337 0.76605,-4.90636c0.81316,-1.21781 2.55205,-1.80293 4.01639,-1.80293c109.80371,0 279.47797,0 281.35834,0c0.62679,0 1.97928,0 2.60606,0c1.58143,0 3.10621,0.43076 4.00609,1.7312c0.90508,1.30796 0.69252,4.81142 0.69252,4.81142z" data-paper-data="{&quot;origPos&quot;:null}" fill="#7aff75" stroke="none" stroke-width="0" stroke-linecap="butt"/><path d="M79.30034,56.87176l-5.20834,-33.16666h87c0,0 0,7.40675 0,12.14745c0,4.23535 0.24144,6.90687 -2.5,9.10255c-2.74144,2.19568 -5.76197,1.75 -11.05005,1.75h-58.72232c0,0 -4.35419,0.02809 -6.63217,2.66275c-2.24601,2.59768 -2.88712,7.50391 -2.88712,7.50391z" data-paper-data="{&quot;origPos&quot;:null}" fill="#21548f" stroke="none" stroke-width="0" stroke-linecap="butt"/><path d="M39.09206,14.67384v-15.9375h214.09523c0,0 5.93,7.62831 3.64762,9.85277c-2.0638,2.01143 -10.57339,-0.27619 -14.64049,-0.27619c-12.20131,0 -175.3809,0.14286 -175.3809,0.14286l-5.4718,115.34175l-22.56707,0.33845c0,0 -1.52087,-15.89216 -1.33238,-22.14418c0.06283,-2.08401 2.16099,-5.34 2.16099,-5.34z" data-paper-data="{&quot;origPos&quot;:null}" fill="#11b738" stroke="none" stroke-width="0" stroke-linecap="butt"/><path d="M18.7587,211.37176v-43c0,0 -1.27067,-7.99625 3,-12c4.27067,-4.00375 13,-3 13,-3h50l-10,58z" data-paper-data="{&quot;origPos&quot;:null}" fill="#1c4974" stroke="none" stroke-width="0" stroke-linecap="butt"/><g data-paper-data="{&quot;index&quot;:null,&quot;origPos&quot;:null}"><path d="M308.36136,114.70509h-101" data-paper-data="{&quot;origPos&quot;:null,&quot;index&quot;:null}" fill="none" stroke="#205485" stroke-width="40" stroke-linecap="round"/><path d="M269.08396,134.8587v-40h63v40z" data-paper-data="{&quot;origPos&quot;:null}" fill="#205485" stroke="none" stroke-width="0" stroke-linecap="butt"/></g><path d="M38.628,153.43503l-1.37867,-46.26705l12.11201,-0.3012c0,0 4.80889,0.02724 7.41374,-2.61983c2.56249,-2.60402 2.25292,-6.41661 2.25292,-6.41661c0,0 0,-76.30333 0,-78.86299c0,-0.85322 0,-2.18627 0,-2.18627c0,0 -0.44971,-3.64318 1.72527,-6.16933c2.17498,-2.52615 5.62891,-2.37225 5.62891,-2.37225h12.97915c0,0 100.18505,0.07414 164.30858,0.12159c2.51726,0.00186 5.38258,-1.22282 6.95781,-3.1863c1.69415,-2.11173 1.73229,-6.45338 1.73229,-6.45338l79.90277,-0.0949l0.04863,27.36958c0,0 -198.00007,-0.24826 -242.05354,-0.3101c-4.25252,-0.00597 -6.27978,1.02575 -8.46543,3.52502c-1.84052,2.10461 -2.43111,4.9521 -2.43111,10.38768c0,16.30674 0,105.98024 0,105.98024c0,0 0.65941,4.57454 -1.8,6.65611c-2.45941,2.08157 -7.84285,1.50531 -7.84285,1.50531z" data-paper-data="{&quot;origPos&quot;:null}" fill="#2568a7" stroke="none" stroke-width="0" stroke-linecap="butt"/><path d="M170.69301,8.79592h-48.52952" data-paper-data="{&quot;origPos&quot;:null}" fill="none" stroke="#11b738" stroke-width="10" stroke-linecap="round"/><path d="M273.693,26.79592h-48.52952" data-paper-data="{&quot;origPos&quot;:null}" fill="none" stroke="#2568a7" stroke-width="20" stroke-linecap="round"/><path d="M-16.23219,274.36303l1.32425,-91.9366c0,0 -0.71453,0 19.32142,0c2.0047,0 4.29527,-0.81183 5.62093,-2.3626c1.30561,-1.52732 1.66478,-4.85602 1.66478,-4.85602l-0.10714,7.21862l-1,91.9366z" data-paper-data="{&quot;origPos&quot;:null}" fill="#1c4974" stroke="none" stroke-width="0" stroke-linecap="butt"/><path d="M0.09215,210.56496l37.58688,-37.89712l2.52972,-172.96002l292.3834,-1l-1.01944,266.62397l-0.86331,11.92019l-11.71947,1.81298l-294.24338,-1.13273c0,0 -6.80149,0.18404 -10.45246,3.55995c-3.30092,3.05224 -3.39511,10.98135 -3.39511,10.98135c0,0 -10.66067,-56.77725 -13.00369,-62.39411c-1.87448,-4.49366 2.19686,-19.51444 2.19686,-19.51444z" data-paper-data="{&quot;origPos&quot;:null}" fill="#1c4974" stroke="none" stroke-width="0" stroke-linecap="butt"/></g></g></svg>