<svg version="1.1" xmlns="http://www.w3.org/2000/svg" xmlns:xlink="http://www.w3.org/1999/xlink" width="292.09089" height="131.02019" viewBox="0,0,292.09089,131.02019"><g transform="translate(-228.51258,13.08579)"><g data-paper-data="{&quot;isPaintingLayer&quot;:true}" stroke="none" stroke-miterlimit="10" stroke-dasharray="" stroke-dashoffset="0" style="mix-blend-mode: normal"><path d="M346.31118,8.18236h113.13503c5.8697,0 10.62818,4.81749 10.62818,10.75993v46.55676c0,5.94245 -4.75848,10.7599 -10.62818,10.7599h-113.13503c-5.86991,0 -10.62843,-4.81746 -10.62843,-10.7599v-46.55675c0,-5.94245 4.75853,-10.75993 10.62843,-10.75993z" data-paper-data="{&quot;origPos&quot;:null}" fill="#ffffff" fill-rule="evenodd" stroke-width="1" stroke-linecap="round" stroke-linejoin="round"/><path d="M228.51259,117.9344v-131.02019h292.09089v131.02019z" fill="none" fill-rule="nonzero" stroke-width="0" stroke-linecap="butt" stroke-linejoin="miter"/><path d="" data-paper-data="{&quot;origPos&quot;:null}" fill="#000000" fill-rule="nonzero" stroke-width="1" stroke-linecap="butt" stroke-linejoin="miter"/><path d="M358.36686,83.48872v-52.80417h69.16102v52.80417z" data-paper-data="{&quot;origPos&quot;:null}" fill="none" fill-rule="nonzero" stroke-width="0" stroke-linecap="butt" stroke-linejoin="miter"/><g fill-rule="nonzero" stroke-linecap="butt" stroke-linejoin="miter"><path d="M420.20395,61.69206c0,3.43084 -1.6282,6.22202 -5.05904,6.80353h-25.87668c-3.43084,-0.5815 -5.05904,-3.37269 -5.05904,-6.86168c0,-2.61674 1.68635,-4.94274 4.01234,-5.81498c-0.17446,-0.3489 0.52335,-0.34891 0.52335,-0.75596c0,-1.33745 0.29075,-2.73305 1.6282,-2.73305c0.11631,0 0.29075,0.05815 0.40705,0.05815c-0.17446,-0.40705 0.4652,-0.52334 0.4652,-1.04669c0,-2.03524 0.93041,-4.07049 2.96565,-4.07049c0.5815,0 1.0467,0.1163 1.6282,0.3489v0c0,-3.43084 2.73304,-6.16387 6.16387,-6.16387c3.37269,0 6.04758,2.67489 6.04758,6.10573c2.26785,-0.93041 4.94275,-0.4652 6.74538,1.33745c1.86079,1.8608 1.68635,4.71015 0.63964,6.97799c2.4423,0.87226 4.82644,3.14009 4.76829,5.81498z" data-paper-data="{&quot;origPos&quot;:null}" fill="#c40e0e" stroke-width="1"/><path d="M420.26209,60.53173c0,3.43084 -2.79119,6.33833 -6.16387,6.33833h-23.66698c-3.43084,0 -6.22202,-2.90749 -6.22202,-6.33833c0,-2.6749 1.68635,-5.05904 4.07048,-5.93129c-0.17446,-0.3489 -0.29075,-0.69779 -0.29075,-1.10484c0,-1.33745 1.04669,-2.38415 2.38415,-2.38415c0.11631,0 0.29076,0.05815 0.40706,0.05815c-0.17446,-0.4652 -0.29076,-0.93041 -0.29076,-1.45375c0,-2.03524 1.68636,-3.66344 3.7216,-3.66344c0.5815,0 1.04669,0.1163 1.6282,0.34891c0,-3.43084 2.73305,-6.22203 6.16388,-6.22203c3.37269,0 6.04757,2.73304 6.04757,6.10573c2.26785,-0.93041 4.94274,-0.4652 6.74538,1.33745c1.86079,1.8608 2.32601,4.65199 1.27929,6.91983c2.4423,0.87226 4.1868,3.31453 4.1868,5.98942z" data-paper-data="{&quot;origPos&quot;:null}" fill="#e83838" stroke-width="1"/><path d="M414.09822,66.87007h-7.79209l-15.58415,-15.70045c-0.17446,-0.40705 -0.23261,-0.98855 -0.23261,-1.45375c0,-2.03524 1.68635,-3.66345 3.72159,-3.66345c0.5815,0 1.0467,0.1163 1.6282,0.34891c0,-3.43084 2.73304,-6.22202 6.16387,-6.22202c3.37269,0 6.04758,2.73305 6.04758,6.04758c2.26785,-0.87226 4.94275,-0.40705 6.74538,1.3956c1.86079,1.91895 2.326,4.71013 1.27929,6.97799c2.4423,0.87226 4.18679,3.19823 4.18679,5.93129c0,3.43084 -2.79119,6.33833 -6.16387,6.33833z" data-paper-data="{&quot;origPos&quot;:null}" fill="#d91c1c" stroke-width="1"/><g data-paper-data="{&quot;origPos&quot;:null}" fill="#c40e0e" stroke-width="1"><path d="M405.66648,63.49737c-0.40705,0 -0.87225,-0.17446 -1.22114,-0.52335l-6.86167,-6.86167c-0.63964,-0.63965 -0.63964,-1.7445 0,-2.38415c0.63964,-0.63965 1.7445,-0.63965 2.38415,0l6.91982,6.86167c0.63964,0.63965 0.63964,1.7445 0,2.38415c-0.3489,0.3489 -0.75594,0.52335 -1.22114,0.52335z" data-paper-data="{&quot;origPos&quot;:null}"/><path d="M407.35281,54.89119c0,0.40705 -0.17446,0.87225 -0.52335,1.22114l-6.86168,6.86168c-0.63964,0.63965 -1.7445,0.63965 -2.38416,0c-0.63964,-0.63965 -0.63964,-1.7445 0,-2.38415l6.91983,-6.91982c0.63964,-0.63965 1.7445,-0.63965 2.38415,0c0.3489,0.3489 0.4652,0.81409 0.4652,1.22113z" data-paper-data="{&quot;origPos&quot;:null}"/></g><g data-paper-data="{&quot;origPos&quot;:null}" fill="#ffffff" stroke-width="1"><path d="M405.66648,62.27621c-0.40705,0 -0.87225,-0.17446 -1.22114,-0.52335l-6.86167,-6.86167c-0.63964,-0.63965 -0.63964,-1.7445 0,-2.38415c0.63964,-0.63965 1.7445,-0.63965 2.38415,0l6.91982,6.91983c0.63964,0.63965 0.63964,1.7445 0,2.38415c-0.3489,0.29075 -0.75594,0.4652 -1.22114,0.4652z"/><path d="M407.35281,53.7282c0,0.40705 -0.17446,0.87225 -0.52335,1.22114l-6.86168,6.86167c-0.63964,0.63965 -1.7445,0.63965 -2.38416,0c-0.63964,-0.63965 -0.63964,-1.7445 0,-2.38415l6.91983,-6.91983c0.63964,-0.63965 1.7445,-0.63965 2.38415,0c0.3489,0.3489 0.4652,0.75595 0.4652,1.22114z"/></g><path d="M376.04155,70.68496v-37.83777h48.39116v37.83777z" data-paper-data="{&quot;origPos&quot;:null}" fill="none" stroke-width="0"/></g><path d="M355.01179,21.48779c0,0.34747 -0.23628,0.59765 -0.65324,0.87562c-0.62545,0.43087 -1.43158,0.69495 -2.41839,0.69495c-2.44618,0 -4.89236,-2.02895 -4.89236,-4.96185c0,-2.93264 2.44618,-4.96159 4.89236,-4.96159c0.98681,0 1.79296,0.26381 2.41839,0.69467c0.41696,0.27824 0.65324,0.52815 0.65324,0.87589c0,0.4306 -0.33357,0.68077 -0.69494,0.68077c-0.29187,0 -0.48645,-0.13898 -0.66713,-0.2777c-0.30577,-0.23628 -0.91732,-0.54232 -1.69565,-0.54232c-1.73735,0 -3.33571,1.50107 -3.33571,3.53028c0,2.02949 1.59836,3.53028 3.33571,3.53028c0.77833,0 1.38987,-0.30578 1.69565,-0.54205c0.18068,-0.13899 0.37526,-0.27798 0.66713,-0.27798c0.36137,0 0.69494,0.25017 0.69494,0.68104z" fill="#000000" fill-rule="evenodd" stroke-width="1" stroke-linecap="round" stroke-linejoin="round"/><path d="M357.06881,23.03081c-0.40307,0 -0.73663,-0.33383 -0.73663,-0.73663v-8.52021c0,-0.40279 0.33357,-0.73663 0.73663,-0.73663c0.40307,0 0.73663,0.33384 0.73663,0.73663v8.52022c0,0.4028 -0.33357,0.73663 -0.73663,0.73663z" fill="#000000" fill-rule="evenodd" stroke-width="1" stroke-linecap="round" stroke-linejoin="round"/><path d="M366.51996,19.36127c0,2.48814 -2.07092,3.69707 -3.66929,3.69707c-1.59836,0 -3.65538,-1.20893 -3.65538,-3.69707c0,-2.47398 2.05702,-3.71097 3.65538,-3.71097c1.59836,0 3.66929,1.23699 3.66929,3.71097zM360.65467,19.36127c0,1.57056 1.12581,2.41839 2.19601,2.41839c1.08409,0 2.2099,-0.84783 2.2099,-2.41839c0,-1.58445 -1.1258,-2.43229 -2.2099,-2.43229c-1.07021,0 -2.19601,0.84782 -2.19601,2.43229z" fill="#000000" fill-rule="evenodd" stroke-width="1" stroke-linecap="round" stroke-linejoin="round"/><path d="M367.90983,19.84799v-3.41936c0,-0.4028 0.31967,-0.73663 0.72274,-0.73663c0.40307,0 0.73663,0.33384 0.73663,0.73663v3.41936c0,1.38987 0.79224,1.94556 1.69565,1.94556c1.33428,0 1.91803,-1.19502 2.00143,-1.79294v-3.57198c0,-0.4028 0.33357,-0.73663 0.73663,-0.73663c0.40307,0 0.73663,0.33384 0.73663,0.73663v5.85138c0,0.41696 -0.33356,0.7508 -0.73663,0.7508c-0.40307,0 -0.73663,-0.33384 -0.73663,-0.7508v-0.91732c-0.0695,0.48673 -0.90342,1.69565 -2.48789,1.69565c-1.34819,0 -2.66856,-0.84783 -2.66856,-3.21035z" fill="#000000" fill-rule="evenodd" stroke-width="1" stroke-linecap="round" stroke-linejoin="round"/><path d="M383.08728,13.77397v8.53384c0,0.40333 -0.34746,0.73663 -0.75053,0.73663c-0.40307,0 -0.73664,-0.33331 -0.73664,-0.73663v-0.75026c-0.09729,0.62545 -0.959,1.5008 -2.27939,1.5008c-1.54275,0 -3.3913,-1.19503 -3.3913,-3.71097c0,-2.47398 1.86243,-3.69707 3.3913,-3.69707c1.02852,0 1.91802,0.52842 2.27939,1.33428v-0.55595c0,-0.04143 0,-0.09701 0.01391,-0.13872v-2.51594c0,-0.40279 0.33357,-0.73663 0.72274,-0.73663c0.40307,0 0.75053,0.33384 0.75053,0.73663zM381.6696,19.34738c0,-1.73735 -1.16749,-2.43201 -2.11261,-2.43201c-1.01461,0 -2.15431,0.79223 -2.15431,2.43201c0,1.65395 1.1397,2.44618 2.15431,2.44618c0.94511,0 2.11261,-0.72273 2.11261,-2.44618z" fill="#000000" fill-rule="evenodd" stroke-width="1" stroke-linecap="round" stroke-linejoin="round"/><path d="M394.26189,14.55257h-4.12793v3.04356h3.37739c0.36137,0 0.66715,0.27797 0.66715,0.6396c0,0.36137 -0.30577,0.63909 -0.66715,0.63909h-3.37739v3.39129c0,0.41696 -0.33356,0.77833 -0.73663,0.77833c-0.41696,0 -0.76444,-0.36137 -0.76444,-0.77833v-8.21416c0,-0.47256 0.34747,-0.81975 0.82003,-0.81975h4.80897c0.36137,0 0.66713,0.29161 0.66713,0.65298c0,0.37527 -0.30576,0.66741 -0.66713,0.66741z" fill="#000000" fill-rule="evenodd" stroke-width="1" stroke-linecap="round" stroke-linejoin="round"/><path d="M396.24941,19.84799v-3.41936c0,-0.4028 0.31967,-0.73663 0.72274,-0.73663c0.40307,0 0.73665,0.33384 0.73665,0.73663v3.41936c0,1.38987 0.79222,1.94556 1.69564,1.94556c1.33428,0 1.91803,-1.19502 2.00143,-1.79294v-3.57198c0,-0.4028 0.33357,-0.73663 0.73663,-0.73663c0.40307,0 0.73663,0.33384 0.73663,0.73663v5.85138c0,0.41696 -0.33357,0.7508 -0.73663,0.7508c-0.40307,0 -0.73663,-0.33384 -0.73663,-0.7508v-0.91732c-0.0695,0.48673 -0.90342,1.69565 -2.48789,1.69565c-1.34819,0 -2.66856,-0.84783 -2.66856,-3.21035z" fill="#000000" fill-rule="evenodd" stroke-width="1" stroke-linecap="round" stroke-linejoin="round"/><path d="M405.2836,23.03081c-0.40307,0 -0.73663,-0.33383 -0.73663,-0.73663v-8.52021c0,-0.40279 0.33357,-0.73663 0.73663,-0.73663c0.40307,0 0.73664,0.33384 0.73664,0.73663v8.52022c0,0.4028 -0.33357,0.73663 -0.73664,0.73663z" fill="#000000" fill-rule="evenodd" stroke-width="1" stroke-linecap="round" stroke-linejoin="round"/><path d="M408.42472,23.03081c-0.40307,0 -0.73664,-0.33383 -0.73664,-0.73663v-8.52021c0,-0.40279 0.33357,-0.73663 0.73664,-0.73663c0.40307,0 0.73664,0.33384 0.73664,0.73663v8.52022c0,0.4028 -0.33357,0.73663 -0.73664,0.73663z" fill="#000000" fill-rule="evenodd" stroke-width="1" stroke-linecap="round" stroke-linejoin="round"/><path d="M425.81909,18.21652c0,2.9329 -2.40448,4.96186 -4.83676,4.96186c-2.43228,0 -4.83677,-2.02895 -4.83677,-4.96185c0,-2.93264 2.40449,-4.9616 4.83677,-4.9616c2.43228,0 4.83676,2.02896 4.83676,4.9616zM417.71612,18.21652c0,2.11261 1.57056,3.53028 3.26621,3.53028c1.69565,0 3.26621,-1.41767 3.26621,-3.53028c0,-2.11261 -1.55666,-3.54418 -3.26621,-3.54418c-1.69565,0 -3.26621,1.43157 -3.26621,3.54418z" fill="#000000" fill-rule="evenodd" stroke-width="1" stroke-linecap="round" stroke-linejoin="round"/><path d="M431.00334,22.33055c0,0.56986 -0.65324,0.8203 -1.43158,0.8203c-0.83393,0 -1.65395,-0.29214 -1.65395,-1.89023v-4.22549h-0.52814c-0.36137,0 -0.59764,-0.23627 -0.59764,-0.59764c0,-0.34747 0.23627,-0.58375 0.59765,-0.58375h0.52814v-1.0841c0,-0.38916 0.33358,-0.72247 0.72274,-0.72247c0.40307,0 0.73663,0.33331 0.73663,0.72247v1.0841h1.01461c0.36137,0 0.61156,0.23628 0.61156,0.58375c0,0.36137 -0.25018,0.59765 -0.61156,0.59765h-1.01461v4.23913c0,0.41696 0.16679,0.61155 0.48646,0.61155c0.18068,0 0.38916,-0.0556 0.54205,-0.0695c0.34747,-0.0556 0.59765,0.16678 0.59765,0.51425z" fill="#000000" fill-rule="evenodd" stroke-width="1" stroke-linecap="round" stroke-linejoin="round"/><path d="M438.88393,18.99511v3.41883c0,0.40307 -0.31967,0.7369 -0.72274,0.7369c-0.40307,0 -0.73663,-0.33383 -0.73663,-0.7369v-3.41883c0,-1.39015 -0.79223,-1.94609 -1.69565,-1.94609c-1.33428,0 -1.91803,1.1953 -2.00142,1.79321v3.57171c0,0.40307 -0.33357,0.7369 -0.73664,0.7369c-0.40307,0 -0.73663,-0.33383 -0.73663,-0.7369v-8.51967c0,-0.40334 0.33356,-0.73691 0.73663,-0.73691c0.40307,0 0.73664,0.33357 0.73664,0.73691v3.58562c0.0695,-0.48619 0.90342,-1.69539 2.48787,-1.69539c1.34818,0 2.66856,0.84757 2.66856,3.21063z" fill="#000000" fill-rule="evenodd" stroke-width="1" stroke-linecap="round" stroke-linejoin="round"/><path d="M447.36217,19.23113c0,0.56986 -0.31967,0.79223 -0.91732,0.79223l-4.65609,-0.0139c0.1529,1.29258 1.16749,1.93219 2.2794,1.93219c0.56984,0 0.95902,-0.13925 1.38988,-0.40334c0.23627,-0.12482 0.38917,-0.22237 0.58375,-0.22237c0.31967,0 0.51425,0.22238 0.51425,0.52815c0,0.18069 -0.0695,0.37526 -0.37527,0.6257c-0.52814,0.4306 -1.29259,0.68104 -2.16821,0.68104c-1.80683,0 -3.73876,-1.15387 -3.73876,-3.66954c0,-2.50178 2.01532,-3.71097 3.59977,-3.71097c1.58447,0 3.48859,1.25089 3.48859,3.46079zM441.78877,18.95315h4.14184c-0.12508,-1.32012 -1.12581,-1.90413 -2.05702,-1.90413c-0.91732,0 -1.95973,0.58401 -2.08481,1.90413z" fill="#000000" fill-rule="evenodd" stroke-width="1" stroke-linecap="round" stroke-linejoin="round"/><path d="M453.28304,16.46554c0,0.4167 -0.31968,0.69467 -0.94511,0.69467c-1.22309,0 -2.01532,0.94512 -2.11261,1.68202v3.57171c0,0.40307 -0.33357,0.7369 -0.73663,0.7369c-0.40307,0 -0.73663,-0.33383 -0.73663,-0.7369v-5.85138c0,-0.41696 0.33357,-0.75054 0.73663,-0.75054c0.40307,0 0.73663,0.33358 0.73663,0.75054v0.91732c0.0695,-0.48619 0.94512,-1.69539 2.3072,-1.69539c0.48646,0 0.75053,0.30551 0.75053,0.68104z" fill="#000000" fill-rule="evenodd" stroke-width="1" stroke-linecap="round" stroke-linejoin="round"/><path d="M459.24561,16.85444c0.08339,0.12509 0.19459,0.27797 0.19459,0.51452c0,0.3472 -0.26407,0.55569 -0.59765,0.55569c-0.22238,0 -0.43086,-0.09729 -0.63934,-0.37527c-0.27798,-0.34747 -0.66715,-0.58375 -1.23699,-0.58375c-0.69493,0 -1.1119,0.34747 -1.1119,0.84783c0,0.34774 0.19459,0.68104 0.93123,0.88953l0.86172,0.23627c1.1814,0.31995 2.07092,0.84809 2.07092,2.01532c0,1.45937 -1.37598,2.19628 -2.82144,2.19628c-1.2092,0 -2.05701,-0.52815 -2.41839,-1.09801c-0.0695,-0.09756 -0.29188,-0.37526 -0.29188,-0.7091c0,-0.29187 0.18068,-0.59765 0.56985,-0.59765c0.31967,0 0.48646,0.19459 0.62545,0.40334c0.34747,0.58348 0.91733,0.77806 1.51497,0.77806c0.80612,0 1.36209,-0.33357 1.36209,-0.88952c0,-0.4167 -0.29189,-0.72247 -0.98682,-0.91732l-0.93122,-0.25018c-1.34819,-0.37526 -1.93193,-1.098 -1.93193,-2.04312c0,-1.30648 1.18139,-2.05702 2.52958,-2.05702c1.00071,0 1.86244,0.40307 2.3072,1.0841z" fill="#000000" fill-rule="evenodd" stroke-width="1" stroke-linecap="round" stroke-linejoin="round"/><path d="M371.21695,28.49492c0,0.11119 -0.0556,0.20848 -0.09729,0.33384l-1.95973,5.71213c-0.12508,0.36137 -0.38916,0.55621 -0.69493,0.55621c-0.31967,0 -0.56984,-0.19484 -0.72274,-0.55621l-1.87633,-4.5866l-1.89023,4.5866c-0.13898,0.36137 -0.40306,0.55621 -0.70883,0.55621c-0.31967,0 -0.56986,-0.19484 -0.69495,-0.55621l-1.95972,-5.71212c-0.0417,-0.12536 -0.09729,-0.22264 -0.09729,-0.33384c0,-0.38916 0.30577,-0.69495 0.69493,-0.69495c0.26408,0 0.54204,0.1668 0.62545,0.40307l1.52886,4.72557l1.83463,-4.66999c0.11118,-0.29187 0.34747,-0.45866 0.66713,-0.45866c0.31967,0 0.54206,0.16679 0.66714,0.45866l1.83463,4.66999l1.52886,-4.72557c0.0695,-0.25017 0.36137,-0.40307 0.62545,-0.40307c0.38916,0 0.69494,0.30578 0.69494,0.69495z" fill="#000000" fill-rule="evenodd" stroke-width="1" stroke-linecap="round" stroke-linejoin="round"/><path d="M379.51451,31.46926c0,2.48789 -2.07091,3.69707 -3.66927,3.69707c-1.59836,0 -3.65537,-1.20918 -3.65537,-3.69707c0,-2.47398 2.05701,-3.71097 3.65537,-3.71097c1.59836,0 3.66927,1.23699 3.66927,3.71097zM373.64924,31.46926c0,1.57056 1.12581,2.41838 2.19601,2.41838c1.08409,0 2.2099,-0.84782 2.2099,-2.41838c0,-1.58419 -1.12581,-2.43229 -2.2099,-2.43229c-1.07021,0 -2.19601,0.8481 -2.19601,2.43229z" fill="#000000" fill-rule="evenodd" stroke-width="1" stroke-linecap="round" stroke-linejoin="round"/><path d="M387.5341,30.98307v3.41883c0,0.40306 -0.31967,0.73691 -0.72274,0.73691c-0.40307,0 -0.73663,-0.33383 -0.73663,-0.73691v-3.41883c0,-1.39015 -0.79224,-1.94609 -1.69565,-1.94609c-1.33428,0 -1.91803,1.19529 -2.00143,1.79321v3.57171c0,0.40306 -0.33356,0.73691 -0.73663,0.73691c-0.40307,0 -0.73663,-0.33383 -0.73663,-0.73691v-5.85138c0,-0.41696 0.33357,-0.75054 0.73663,-0.75054c0.40307,0 0.73663,0.33358 0.73663,0.75054v0.91732c0.0695,-0.48619 0.90342,-1.69539 2.48789,-1.69539c1.34819,0 2.66856,0.84757 2.66856,3.21063z" fill="#000000" fill-rule="evenodd" stroke-width="1" stroke-linecap="round" stroke-linejoin="round"/><path d="M388.84059,28.07796l0.72273,-2.15431c0.1529,-0.4167 0.38917,-0.58374 0.76443,-0.58374h0.45866c0.47256,0 0.54205,0.25018 0.30578,0.70884l-1.09801,2.1821c-0.18068,0.36137 -0.45866,0.43087 -0.73663,0.43087h-0.08339c-0.34747,0 -0.45865,-0.24992 -0.33357,-0.58375z" fill="#000000" fill-rule="evenodd" stroke-width="1" stroke-linecap="round" stroke-linejoin="round"/><path d="M396.13744,34.3185c0,0.56985 -0.65324,0.8203 -1.43157,0.8203c-0.83393,0 -1.65395,-0.29214 -1.65395,-1.89023v-4.2255h-0.52816c-0.36137,0 -0.59764,-0.23627 -0.59764,-0.59764c0,-0.34747 0.23627,-0.58375 0.59765,-0.58375h0.52816v-1.0841c0,-0.38916 0.33357,-0.72247 0.72274,-0.72247c0.40307,0 0.73663,0.33331 0.73663,0.72247v1.0841h1.01461c0.36137,0 0.61154,0.23627 0.61154,0.58375c0,0.36137 -0.25017,0.59765 -0.61154,0.59765h-1.01461v4.23913c0,0.41696 0.16679,0.61155 0.48646,0.61155c0.18068,0 0.38916,-0.0556 0.54206,-0.0695c0.34747,-0.05559 0.59765,0.16678 0.59765,0.51426z" fill="#000000" fill-rule="evenodd" stroke-width="1" stroke-linecap="round" stroke-linejoin="round"/><path d="M406.06761,28.6687c0.08339,0.12482 0.19459,0.27771 0.19459,0.51398c0,0.34747 -0.26408,0.55622 -0.59765,0.55622c-0.22238,0 -0.43086,-0.09756 -0.63934,-0.37526c-0.27798,-0.34774 -0.66715,-0.58402 -1.23699,-0.58402c-0.69493,0 -1.1119,0.34774 -1.1119,0.84783c0,0.34774 0.19459,0.68103 0.93122,0.88952l0.86173,0.23628c1.1814,0.31967 2.07091,0.84783 2.07091,2.01559c0,1.4591 -1.37597,2.19574 -2.82145,2.19574c-1.2092,0 -2.05701,-0.52815 -2.41839,-1.098c-0.0695,-0.09702 -0.29187,-0.37526 -0.29187,-0.70884c0,-0.29187 0.18068,-0.59737 0.56984,-0.59737c0.31967,0 0.48646,0.19458 0.62545,0.40279c0.34747,0.58374 0.91732,0.7786 1.51497,0.7786c0.80612,0 1.36208,-0.33384 1.36208,-0.88979c0,-0.41696 -0.29187,-0.72274 -0.98681,-0.91704l-0.93122,-0.25046c-1.34818,-0.37526 -1.93194,-1.09801 -1.93194,-2.04312c0,-1.30648 1.1814,-2.05701 2.52958,-2.05701c1.00071,0 1.86242,0.40307 2.30719,1.08438z" fill="#000000" fill-rule="evenodd" stroke-width="1" stroke-linecap="round" stroke-linejoin="round"/><path d="M414.67094,31.04512c0,0.57012 -0.31967,0.79222 -0.91731,0.79222l-4.65609,-0.01389c0.1529,1.29258 1.16749,1.93192 2.27939,1.93192c0.56984,0 0.95901,-0.13871 1.38988,-0.40279c0.23627,-0.12537 0.38916,-0.22238 0.58374,-0.22238c0.31967,0 0.51426,0.22238 0.51426,0.52814c0,0.18041 -0.06949,0.37527 -0.37527,0.62518c-0.52814,0.43113 -1.2926,0.68104 -2.16822,0.68104c-1.80683,0 -3.73876,-1.15333 -3.73876,-3.66928c0,-2.50178 2.01532,-3.71097 3.59977,-3.71097c1.58447,0 3.48859,1.25089 3.48859,3.4608zM409.09754,30.76715h4.14182c-0.12508,-1.32039 -1.12579,-1.90386 -2.05701,-1.90386c-0.91732,0 -1.95973,0.58348 -2.08481,1.90386z" fill="#000000" fill-rule="evenodd" stroke-width="1" stroke-linecap="round" stroke-linejoin="round"/><path d="M422.87121,31.04512c0,0.57012 -0.31967,0.79222 -0.91732,0.79222l-4.65609,-0.01389c0.1529,1.29258 1.16748,1.93192 2.27938,1.93192c0.56984,0 0.95901,-0.13871 1.38988,-0.40279c0.23627,-0.12537 0.38917,-0.22238 0.58375,-0.22238c0.31967,0 0.51425,0.22238 0.51425,0.52814c0,0.18041 -0.06949,0.37527 -0.37527,0.62518c-0.52814,0.43113 -1.29259,0.68104 -2.16821,0.68104c-1.80683,0 -3.73876,-1.15333 -3.73876,-3.66928c0,-2.50178 2.01532,-3.71097 3.59977,-3.71097c1.58447,0 3.48859,1.25089 3.48859,3.4608zM417.29781,30.76715h4.14182c-0.12508,-1.32039 -1.12579,-1.90386 -2.05702,-1.90386c-0.91732,0 -1.95972,0.58348 -2.08481,1.90386z" fill="#000000" fill-rule="evenodd" stroke-width="1" stroke-linecap="round" stroke-linejoin="round"/><path d="M434.65736,28.29344c0,0.13873 -0.0417,0.23601 -0.08339,0.3333l-3.71097,8.47824c-0.1529,0.34774 -0.41696,0.50036 -0.69493,0.50036c-0.38916,0 -0.65324,-0.3055 -0.65324,-0.66714c0,-0.13898 0.0417,-0.23628 0.08339,-0.3333l0.86172,-1.98779l-2.65466,-5.99036c-0.0417,-0.09729 -0.08339,-0.19458 -0.08339,-0.3333c0,-0.36137 0.29188,-0.66741 0.68104,-0.66741c0.27798,0 0.54204,0.15289 0.69493,0.50036l2.08482,4.85094l2.09872,-4.85094c0.1529,-0.34747 0.41696,-0.50036 0.69493,-0.50036c0.38916,0 0.68104,0.30604 0.68104,0.66741z" fill="#000000" fill-rule="evenodd" stroke-width="1" stroke-linecap="round" stroke-linejoin="round"/><path d="M442.95492,31.2953c0,2.48789 -2.07091,3.69707 -3.66927,3.69707c-1.59836,0 -3.65538,-1.20918 -3.65538,-3.69707c0,-2.47371 2.05702,-3.71097 3.65538,-3.71097c1.59836,0 3.66927,1.23726 3.66927,3.71097zM437.08964,31.2953c0,1.57056 1.1258,2.41838 2.19601,2.41838c1.08409,0 2.20991,-0.84782 2.20991,-2.41838c0,-1.58445 -1.12581,-2.43202 -2.20991,-2.43202c-1.07021,0 -2.19601,0.84756 -2.19601,2.43202z" fill="#000000" fill-rule="evenodd" stroke-width="1" stroke-linecap="round" stroke-linejoin="round"/><path d="M444.3448,31.78203v-3.41937c0,-0.40307 0.31967,-0.73663 0.72274,-0.73663c0.40307,0 0.73664,0.33357 0.73664,0.73663v3.41937c0,1.3896 0.79223,1.94556 1.69564,1.94556c1.33428,0 1.91802,-1.19503 2.00142,-1.79267v-3.57225c0,-0.40307 0.33357,-0.73663 0.73664,-0.73663c0.40307,0 0.73663,0.33357 0.73663,0.73663v5.85138c0,0.41696 -0.33356,0.75054 -0.73663,0.75054c-0.40307,0 -0.73664,-0.33358 -0.73664,-0.75054v-0.91705c-0.0695,0.48619 -0.90341,1.69537 -2.48787,1.69537c-1.34819,0 -2.66856,-0.84755 -2.66856,-3.21034z" fill="#000000" fill-rule="evenodd" stroke-width="1" stroke-linecap="round" stroke-linejoin="round"/><path d="M412.15281,22.07637c0,0.43179 -0.35004,0.78182 -0.78182,0.78182c-0.43178,0 -0.78183,-0.35004 -0.78183,-0.78182c0,-0.43179 0.35004,-0.78182 0.78183,-0.78182c0.43178,0 0.78182,0.35003 0.78182,0.78182z" fill="#000000" fill-rule="nonzero" stroke-width="0" stroke-linecap="butt" stroke-linejoin="miter"/></g></g></svg>