<svg version="1.1" xmlns="http://www.w3.org/2000/svg" xmlns:xlink="http://www.w3.org/1999/xlink" width="170" height="185"><g transform="translate(-158.55707,-83.66847)"><g data-paper-data="{&quot;isPaintingLayer&quot;:true}" fill-rule="nonzero" stroke-width="0" stroke-linecap="butt" stroke-linejoin="miter" stroke-miterlimit="10" stroke-dasharray="" stroke-dashoffset="0" style="mix-blend-mode: normal"><g data-paper-data="{&quot;origPos&quot;:null}" fill="#b82832" stroke="none"><path d="M189.00548,238.29017l0.32341,-11.53325l99.31646,-0.17099l-0.22314,11.70425z" data-paper-data="{&quot;origPos&quot;:null}"/><path d="M273.23632,241.26529c-0.92187,-0.24814 -0.78357,-0.73276 -0.78357,-0.73276v-5.65557h16.08182v5.63402c0,0 0.23183,0.48184 -0.7516,0.74664c-0.98344,0.2648 -2.82891,0.21744 -2.82891,0.21744h-8.99968c0,0 -1.79618,0.03837 -2.71806,-0.20978z" data-paper-data="{&quot;origPos&quot;:null}"/><path d="M245.14263,241.36612c-0.92187,-0.24814 -0.78356,-0.73276 -0.78356,-0.73276v-5.65557h16.08183v5.63402c0,0 0.23183,0.48184 -0.75161,0.74664c-0.98344,0.2648 -2.82891,0.21744 -2.82891,0.21744h-8.99968c0,0 -1.79619,0.03837 -2.71806,-0.20978z" data-paper-data="{&quot;origPos&quot;:null}"/><path d="M216.82873,241.4018c-0.92187,-0.24814 -0.78356,-0.73276 -0.78356,-0.73276v-5.65557h16.08182v5.63402c0,0 0.23184,0.48184 -0.7516,0.74664c-0.98344,0.2648 -2.82891,0.21744 -2.82891,0.21744h-8.99968c0,0 -1.79619,0.03837 -2.71806,-0.20978z" data-paper-data="{&quot;origPos&quot;:null}"/><path d="M189.75297,241.69807c-0.90795,-0.24814 -0.77174,-0.73276 -0.77174,-0.73276v-5.65557h15.83896v5.63402c0,0 0.22833,0.48185 -0.74026,0.74664c-0.96859,0.2648 -2.78619,0.21744 -2.78619,0.21744h-8.86377c0,0 -1.76906,0.03837 -2.67701,-0.20978z" data-paper-data="{&quot;origPos&quot;:null}"/></g><path d="M189.02238,234.22341l0.37105,-20.61502l99.70454,0.03526l0.13371,13.00383c0,0 -0.21618,0.40362 -0.70141,0.52708c-0.48523,0.12345 -2.02747,0.17518 -2.02747,0.17518l-68.59116,-0.03986c0,0 -1.04765,-0.03477 -1.61624,0.11711c-0.56859,0.15188 -0.44744,0.43413 -0.44744,0.43413l-0.09121,1.66578c0,0 -0.20692,0.32744 0.43627,0.49195c0.64319,0.16452 1.94799,0.1179 1.94799,0.1179l67.47031,-0.01034c0,0 1.56572,0.04371 2.11039,0.16886c0.54467,0.12514 0.80241,0.52318 0.80241,0.52318l-0.04291,3.37549z" data-paper-data="{&quot;origPos&quot;:null}" fill="#fe404f" stroke="#000000"/><path d="M189.35517,217.9029v-3.39116c0,0 0.03818,-1.38036 2.77859,-2.01319c2.74041,-0.63283 7.77553,-0.58759 7.77553,-0.58759h76.93528c0,0 6.44492,-0.01385 9.32105,0.75836c2.87613,0.7722 2.83257,2.37164 2.83257,2.37164v2.86196z" data-paper-data="{&quot;origPos&quot;:null}" fill="#b82832" stroke="none"/><path d="M209.5218,208.7914c1.14174,-0.31255 3.49827,-0.27219 3.49827,-0.27219l41.268,-0.06156c0,0 5.99622,-0.01291 8.67829,0.70718c2.68207,0.7201 2.6553,2.2042 2.6553,2.2042v2.67627h-57.30603l0.17562,-4.28719c0,0 -0.11119,-0.65418 1.03055,-0.96672z" data-paper-data="{&quot;origPos&quot;:null}" fill="#b82832" stroke="none"/><g data-paper-data="{&quot;origPos&quot;:null}" fill="#ffffff" stroke="none"><path d="M287.79317,227.39546c0,0 1.29537,0.00949 1.60945,0.33538c0.31408,0.32587 -0.64215,0.66829 -0.64215,0.66829l-7.74481,3.34313c0,0 -0.90557,0.50233 -1.94471,0.47027c-1.03914,-0.03205 -1.8741,-0.58806 -1.8741,-0.58806l-9.18059,-4.229z" data-paper-data="{&quot;origPos&quot;:null,&quot;index&quot;:null}"/><path d="M270.39317,227.39546c0,0 1.29538,0.00949 1.60945,0.33538c0.31408,0.32587 -0.64216,0.66829 -0.64216,0.66829l-7.74481,3.34313c0,0 -0.90557,0.50233 -1.94471,0.47027c-1.03914,-0.03205 -1.8741,-0.58806 -1.8741,-0.58806l-9.18059,-4.229z" data-paper-data="{&quot;origPos&quot;:null,&quot;index&quot;:null}"/></g><path d="M229.35072,221.59529c-1.79194,-0.46346 -1.4572,-1.38386 -1.4572,-1.38386l0.16223,-7.51785c0,0 0.04546,-1.08044 2.39299,-1.4252c2.34753,-0.34476 6.73526,0.15783 6.73526,0.15783l49.00367,8.16711c0,0 3.99774,0.67315 2.48058,1.65655c-1.37726,0.89271 -6.68494,0.77186 -6.68494,0.77186l-47.25865,-0.04352c0,0 -3.582,0.08054 -5.37394,-0.38292z" data-paper-data="{&quot;origPos&quot;:null}" fill="#fdf883" stroke="none"/><path d="M244.78775,216.21432c0,-1.42317 4.30926,-2.57688 9.625,-2.57688c5.31574,0 9.625,1.15371 9.625,2.57688c0,1.42317 -4.30926,2.57688 -9.625,2.57688c-5.31574,0 -9.625,-1.15371 -9.625,-2.57688z" data-paper-data="{&quot;origPos&quot;:null}" fill="#f02333" stroke="none"/><path d="M158.55707,268.66847v-185h170v185z" fill="none" stroke="none"/></g></g></svg>