<svg version="1.1" xmlns="http://www.w3.org/2000/svg" xmlns:xlink="http://www.w3.org/1999/xlink" width="254" height="124" viewBox="0,0,254,124"><defs><linearGradient x1="250.37483" y1="27.19448" x2="250.37483" y2="56.26164" gradientUnits="userSpaceOnUse" id="color-1"><stop offset="0" stop-color="#ffe9d8"/><stop offset="1" stop-color="#f7cbd0"/></linearGradient><linearGradient x1="213.63622" y1="27.11977" x2="213.63622" y2="56.18691" gradientUnits="userSpaceOnUse" id="color-2"><stop offset="0" stop-color="#ffe9d8"/><stop offset="1" stop-color="#f7cbd0"/></linearGradient><linearGradient x1="177.78467" y1="27.04502" x2="177.78467" y2="56.11219" gradientUnits="userSpaceOnUse" id="color-3"><stop offset="0" stop-color="#ffe9d8"/><stop offset="1" stop-color="#f7cbd0"/></linearGradient><linearGradient x1="139.44711" y1="31.56902" x2="139.44711" y2="62.81103" gradientUnits="userSpaceOnUse" id="color-4"><stop offset="0" stop-color="#fde3d6"/><stop offset="1" stop-color="#f7cbd0"/></linearGradient><linearGradient x1="271.0773" y1="39.01156" x2="271.0773" y2="69.17189" gradientUnits="userSpaceOnUse" id="color-5"><stop offset="0" stop-color="#fde0d6"/><stop offset="1" stop-color="#f7cbd0"/></linearGradient><linearGradient x1="159.19643" y1="38.31129" x2="159.19643" y2="68.47163" gradientUnits="userSpaceOnUse" id="color-6"><stop offset="0" stop-color="#fbdcd4"/><stop offset="1" stop-color="#f7cbd0"/></linearGradient></defs><g transform="translate(-78.32486,-2.01146)"><g data-paper-data="{&quot;isPaintingLayer&quot;:true}" fill-rule="nonzero" stroke-linejoin="miter" stroke-miterlimit="10" stroke-dasharray="" stroke-dashoffset="0" style="mix-blend-mode: normal"><g data-paper-data="{&quot;origPos&quot;:null}" stroke="none" stroke-linecap="butt"><path d="M226.42395,49.37121c0,-12.24786 10.72317,-22.1767 23.95085,-22.1767c13.22769,0 23.95085,9.92884 23.95085,22.1767c0,12.24786 -20.84611,4.43534 -20.84611,4.43534c0,0 -27.05558,7.81252 -27.05558,-4.43534z" data-paper-data="{&quot;origPos&quot;:null}" fill="url(#color-1)" stroke-width="NaN"/><path d="M189.68535,49.29647c0,-12.24786 10.72317,-22.17671 23.95085,-22.17671c13.22769,0 23.95085,9.92885 23.95085,22.17671c0,12.24787 -20.84611,4.43534 -20.84611,4.43534c0,0 -27.05558,7.81252 -27.05558,-4.43534z" data-paper-data="{&quot;origPos&quot;:null}" fill="url(#color-2)" stroke-width="NaN"/><path d="M153.83381,49.22174c0,-12.24786 10.72317,-22.17671 23.95085,-22.17671c13.22769,0 23.95085,9.92885 23.95085,22.17671c0,12.24787 -20.84611,4.43534 -20.84611,4.43534c0,0 -27.05558,7.81252 -27.05558,-4.43534z" data-paper-data="{&quot;origPos&quot;:null}" fill="url(#color-3)" stroke-width="NaN"/><path d="M151.27402,63.60816l14.22687,-29.87477l93.29811,-1.66667v31.41098z" data-paper-data="{&quot;origPos&quot;:null}" fill="url(#color-4)" stroke-width="0"/><path d="M255.55357,54.09172c0,-8.32855 6.9502,-15.08016 15.5237,-15.08016c8.5735,0 15.5237,6.75161 15.5237,15.08016c0,8.32854 -5.46672,15.94632 -14.04022,15.94632c-8.5735,0 -17.00717,-7.61777 -17.00717,-15.94632z" data-paper-data="{&quot;origPos&quot;:null}" fill="url(#color-5)" stroke-width="0"/><path d="M159.19645,38.31132c3.71778,0 5.90243,0.65935 8.96486,2.76731c4.66595,3.21169 6.55884,6.64839 6.55884,12.31285c0,8.32855 -9.1921,16.63162 -17.7656,16.63162c-8.5735,0 -13.2818,-8.30307 -13.2818,-16.63162c0,-8.32854 6.9502,-15.08016 15.5237,-15.08016z" data-paper-data="{&quot;origPos&quot;:null}" fill="url(#color-6)" stroke-width="0"/></g><path d="M274.03822,67.42313h-121.79394" data-paper-data="{&quot;origPos&quot;:null}" fill="#ffc3d5" stroke="#ffc3d5" stroke-width="9" stroke-linecap="round"/><path d="M212.88107,62.62194c5.16868,-1.6283 6.93222,-1.48741 10.36417,-3.39753c4.6158,-3.00757 9.67257,-2.34864 9.67257,-2.34864c4.85924,0 8.14324,-0.09767 12.8288,2.71514c2.1293,1.27826 4.81478,1.43009 7.80643,2.82298c0.29545,0.13756 -6.44486,2.90845 -6.44486,3.23435c0,5.87785 -6.9113,0.28571 -14.74843,0.28571c-7.83712,0 -23.97788,-0.78138 -19.47867,-3.31201z" data-paper-data="{&quot;origPos&quot;:null}" fill="#ffc3d5" stroke="none" stroke-width="0" stroke-linecap="butt"/><path d="M174.72506,62.41048c5.16868,-1.6283 6.93222,-1.48741 10.36417,-3.39753c4.6158,-3.00757 9.67257,-2.34864 9.67257,-2.34864c4.85924,0 8.14324,-0.09767 12.8288,2.71514c2.12931,1.27826 4.81479,1.43009 7.80644,2.82298c0.29545,0.13756 -6.44486,2.90845 -6.44486,3.23435c0,5.87785 -6.9113,0.28571 -14.74843,0.28571c-7.83713,0 -23.97789,-0.78138 -19.47868,-3.31201z" data-paper-data="{&quot;origPos&quot;:null}" fill="#ffc3d5" stroke="none" stroke-width="0" stroke-linecap="butt"/><path d="M78.32486,126.01146v-124h254v124z" fill="none" stroke="none" stroke-width="0" stroke-linecap="butt"/></g></g></svg>