<svg version="1.1" xmlns="http://www.w3.org/2000/svg" xmlns:xlink="http://www.w3.org/1999/xlink" width="95" height="110"><g transform="translate(-213.32486,-102.01146)"><g data-paper-data="{&quot;isPaintingLayer&quot;:true}" stroke="none" stroke-miterlimit="10" stroke-dasharray="" stroke-dashoffset="0" style="mix-blend-mode: normal"><path d="M272.90101,137.104l-8.85,11.025c5.925,1.2 12.975,6.6 12.975,15.3c0,9.9 -8.4,16.65 -18.9,16.65c-7.5,0 -14.625,-3.3 -17.625,-10.875c-1.05,-2.925 0.6,-6.3 4.05,-6.3c2.325,0 3.825,1.425 4.35,2.775c1.95,4.875 6.6,5.925 9.225,5.925c2.775,0 9.075,-1.425 9.075,-8.175c0,-6.3 -6.825,-8.175 -10.05,-9c-2.1,-0.45 -3.45,-2.25 -3.45,-3.975c0,-1.575 1.125,-2.775 2.325,-4.35l8.25,-10.875h-18.15c-2.325,0 -4.275,-1.8 -4.275,-4.2c0,-2.325 1.95,-4.2 4.275,-4.2h20.925c5.85,0 9.45,5.625 5.85,10.275z" data-paper-data="{&quot;origPos&quot;:null}" fill="#000000" fill-rule="evenodd" stroke-width="1" stroke-linecap="round" stroke-linejoin="round"/><path d="M213.32486,212.01146v-110h95v110z" fill="none" fill-rule="nonzero" stroke-width="0" stroke-linecap="butt" stroke-linejoin="miter"/></g></g></svg>