<svg version="1.1" xmlns="http://www.w3.org/2000/svg" xmlns:xlink="http://www.w3.org/1999/xlink" width="184" height="181" viewBox="0,0,184,181"><g transform="translate(-260.54488,-212.04184)"><g data-paper-data="{&quot;isPaintingLayer&quot;:true}" fill-rule="nonzero" stroke="none" stroke-width="0" stroke-linecap="butt" stroke-linejoin="miter" stroke-miterlimit="10" stroke-dasharray="" stroke-dashoffset="0" style="mix-blend-mode: normal"><path d="" data-paper-data="{&quot;origPos&quot;:null,&quot;index&quot;:null}" fill="#3b3b3b"/><g><path d="M301.41901,301.87199c0.48014,-4.70595 1.1565,-9.41358 1.19147,-14.09072c0.01797,-2.40411 0.024,-4.80367 0.02011,-7.19992c0.9688,-0.07496 1.93662,-0.16462 2.90087,-0.26755c0.86496,0.0905 1.74304,0.13689 2.63196,0.13689c2.9626,0.52876 4.94291,-0.30128 7.82405,-0.35564c5.09658,-0.09616 10.19588,-0.09616 15.29246,0c10.5936,0.19988 20.91542,2.0632 31.65184,2.13383c10.919,0.07184 22.03407,1.51004 32.99102,1.68329c-0.01457,0.35036 -0.02192,0.70258 -0.02192,1.05652c-0.81621,5.84244 0.18088,11.36544 1.1453,16.90329z" data-paper-data="{&quot;origPos&quot;:null}" fill="#343434"/><path d="M311.31251,290.6763c15.14238,0.20946 32.80384,-3.68585 48.70055,-8.50853c0.96982,0.03346 1.94255,0.0547 2.91871,0.06113c10.919,0.07184 22.03407,1.51004 32.99102,1.68329c-0.01457,0.35036 -0.02192,0.70258 -0.02192,1.05652c-1.39101,9.95687 2.48456,18.98598 2.48947,28.74196c0.00131,2.60765 -0.00557,5.21534 -0.01462,7.82305c-0.22003,2.35398 -0.53992,4.69907 -0.9863,7.03311c-0.91044,4.76058 -4.96195,8.00939 -8.91165,11.28516l-86.42103,-1.16407c0.33751,-9.79454 -1.22666,-20.19286 -1.10855,-29.58672c0.07939,-6.31375 1.28954,-12.66035 1.5944,-18.96159c2.88864,0.30948 5.80843,0.49572 8.76992,0.53669z" data-paper-data="{&quot;origPos&quot;:null,&quot;index&quot;:null}" fill="#3b3b3b"/></g><path d="M260.54488,393.04184v-181h184v181z" fill="none"/></g></g></svg>