<svg version="1.1" xmlns="http://www.w3.org/2000/svg" xmlns:xlink="http://www.w3.org/1999/xlink" width="812.15938" height="521.04208" viewBox="0,0,812.15938,521.04208"><g transform="translate(209.01172,56.01577)"><g data-paper-data="{&quot;isPaintingLayer&quot;:true}" stroke-miterlimit="10" stroke-dasharray="" stroke-dashoffset="0" style="mix-blend-mode: normal"><g fill-rule="nonzero" stroke-linejoin="miter"><g data-paper-data="{&quot;origPos&quot;:null}" stroke-width="0" stroke-linecap="butt"><path d="M318.88937,148.29168v-45.17719h102.3518l-1.5,45.17719z" data-paper-data="{&quot;origPos&quot;:null}" fill="#95153c" stroke="#95153c"/><path d="M306.21733,147.09845v-43.99072h14.10612l0.5,43.99072z" data-paper-data="{&quot;origPos&quot;:null}" fill="#88143c" stroke="none"/><path d="M419.611,147.75454l0.5,-44.77425h13.88676l0.21937,44.77425z" data-paper-data="{&quot;origPos&quot;:null}" fill="#88143c" stroke="none"/><path d="M357.4491,146.95037v-43.99072h25.03907v43.99072z" data-paper-data="{&quot;origPos&quot;:null}" fill="#88143c" stroke="none"/></g><path d="M414.57881,71.46283v27.21392" data-paper-data="{&quot;origPos&quot;:null}" fill="none" stroke="#a31a40" stroke-width="10" stroke-linecap="round"/><path d="M352.24548,119.34342v-16.21392" data-paper-data="{&quot;origPos&quot;:null}" fill="none" stroke="#a31a40" stroke-width="10" stroke-linecap="round"/></g><path d="M-31.58435,428.82337c-6.13881,-6.2725 -5,-18.80602 -5,-18.80602v-240.80791h578.28951v265.77555h-553.85408c0,0 -13.29663,0.11089 -19.43543,-6.16162z" data-paper-data="{&quot;origPos&quot;:null}" fill="#03a63b" fill-rule="nonzero" stroke="none" stroke-width="0" stroke-linecap="butt" stroke-linejoin="miter"/><path d="M-36.46182,142.63826l576.62969,0.01442l2.82664,29.65591l-579.57062,0.16667z" data-paper-data="{&quot;origPos&quot;:null,&quot;index&quot;:null}" fill="#48c900" fill-rule="nonzero" stroke="none" stroke-width="0" stroke-linecap="butt" stroke-linejoin="miter"/><path d="M-35.33456,138.70778c1.63719,-1.88771 4.90745,-2.52413 4.90745,-2.52413h575.27828l-5.28799,7.58284l-576.38086,0.16994c0,0 -0.15408,-3.34094 1.48311,-5.22865z" data-paper-data="{&quot;origPos&quot;:null,&quot;index&quot;:null}" fill="#b4ff53" fill-rule="nonzero" stroke="none" stroke-width="0" stroke-linecap="butt" stroke-linejoin="miter"/><path d="M-191.92742,465.02632v-521.04208h795.07508v521.04208z" data-paper-data="{&quot;origPos&quot;:null}" fill="none" fill-rule="nonzero" stroke="none" stroke-width="0" stroke-linecap="butt" stroke-linejoin="miter"/><path d="M348.85268,158.02783h-45.37424" data-paper-data="{&quot;origPos&quot;:null,&quot;index&quot;:null}" fill="none" fill-rule="nonzero" stroke="#3dc400" stroke-width="27" stroke-linecap="round" stroke-linejoin="miter"/><path d="M248.66256,215.07488h57.42663" data-paper-data="{&quot;origPos&quot;:null,&quot;index&quot;:null}" fill="none" fill-rule="nonzero" stroke="#04b742" stroke-width="30" stroke-linecap="round" stroke-linejoin="miter"/><path d="M477.15198,243.79819h-54.40671" data-paper-data="{&quot;origPos&quot;:null,&quot;index&quot;:null}" fill="none" fill-rule="nonzero" stroke="#02af3d" stroke-width="30" stroke-linecap="round" stroke-linejoin="miter"/><path d="M123.56034,259.22153h-81.43374" data-paper-data="{&quot;origPos&quot;:null,&quot;index&quot;:null}" fill="none" fill-rule="nonzero" stroke="#02af3d" stroke-width="30" stroke-linecap="round" stroke-linejoin="miter"/><path d="M149.85268,158.02783h-64.37424" data-paper-data="{&quot;origPos&quot;:null,&quot;index&quot;:null}" fill="none" fill-rule="nonzero" stroke="#3dc400" stroke-width="27" stroke-linecap="round" stroke-linejoin="miter"/><path d="M271.94177,244.29367h-54.40671" data-paper-data="{&quot;origPos&quot;:null,&quot;index&quot;:null}" fill="none" fill-rule="nonzero" stroke="#02af3d" stroke-width="30" stroke-linecap="round" stroke-linejoin="miter"/><g data-paper-data="{&quot;origPos&quot;:null}" fill="#363636" fill-rule="evenodd" stroke="none" stroke-width="1" stroke-linecap="round" stroke-linejoin="round"><path d="M-199.43754,402.30805c0,3.20932 -2.74316,4.76916 -4.78709,4.76916c-2.06186,0 -4.78709,-1.55984 -4.78709,-4.76916c0,-3.19139 2.72524,-4.78709 4.78709,-4.78709c2.04393,0 4.78709,1.5957 4.78709,4.78709zM-206.68093,402.30805c0,1.7212 1.18333,2.72524 2.4563,2.72524c1.25504,0 2.4563,-1.00403 2.4563,-2.72524c0,-1.73913 -1.20125,-2.74316 -2.4563,-2.74316c-1.27297,0 -2.4563,1.00403 -2.4563,2.74316z"/><path d="M-188.82347,401.82396v4.05199c0,0.64545 -0.53788,1.1654 -1.18333,1.1654c-0.62752,0 -1.1654,-0.51995 -1.1654,-1.1654v-4.05199c0,-1.61363 -0.84267,-2.27701 -1.90049,-2.27701c-1.61363,0 -2.1515,1.50605 -2.22322,2.00807v4.32093c0,0.64545 -0.53788,1.1654 -1.1654,1.1654c-0.64545,0 -1.18333,-0.51995 -1.18333,-1.1654v-7.11788c0,-0.64545 0.53788,-1.18333 1.18333,-1.18333c0.62752,0 1.1654,0.53788 1.1654,1.18333v0.89646c0.07172,-0.64545 1.12954,-2.11564 3.06589,-2.11564c1.81085,0 3.40654,1.18333 3.40654,4.28507z"/><path d="M-185.48864,407.04135c-0.64545,0 -1.18333,-0.51995 -1.18333,-1.1654v-10.56029c0,-0.62752 0.53788,-1.1654 1.18333,-1.1654c0.62752,0 1.1654,0.53788 1.1654,1.1654v10.56029c0,0.64545 -0.53788,1.1654 -1.1654,1.1654z"/><path d="M-173.44004,398.63257c0,0.21515 -0.07172,0.39444 -0.14343,0.53788l-4.64385,10.45271c-0.25101,0.57373 -0.68131,0.82474 -1.12954,0.82474c-0.60959,0 -1.03989,-0.48409 -1.03989,-1.05782c0,-0.21515 0.07172,-0.39444 0.1255,-0.53788l1.02196,-2.33079l-3.33483,-7.35096c-0.05379,-0.14343 -0.1255,-0.32273 -0.1255,-0.53788c0,-0.57373 0.46616,-1.05782 1.07575,-1.05782c0.44823,0 0.87853,0.25101 1.12954,0.82474l2.40251,5.55805l2.4563,-5.55805c0.25101,-0.57373 0.66338,-0.82474 1.1118,-0.82474c0.62752,0 1.09368,0.48409 1.09368,1.05782z"/><path d="M-161.44542,405.78631c0,0.82474 -0.80681,1.25504 -2.026,1.25504c-1.21918,0 -2.4563,-0.39444 -2.4563,-2.8866v-4.67952h-0.51995c-0.57373,0 -0.95025,-0.37651 -0.95025,-0.91439c0,-0.5558 0.37651,-0.93232 0.95025,-0.93232h0.51995v-1.21918c0,-0.64545 0.53788,-1.18333 1.18333,-1.18333c0.64545,0 1.1654,0.53788 1.1654,1.18333v1.21918h1.18333c0.59166,0 0.95025,0.37651 0.95025,0.93232c0,0.53788 -0.35858,0.91439 -0.95025,0.91439h-1.18333v4.75123c0,0.51995 0.17929,0.78888 0.57373,0.78888c0.19722,0 0.48409,-0.07172 0.68131,-0.07172c0.53788,-0.03586 0.87853,0.28687 0.87853,0.84267z"/><path d="M-153.57451,398.61464c0,0.66338 -0.50202,1.11161 -1.50605,1.11161c-1.41641,0 -2.31286,1.09368 -2.40251,1.82878v4.32093c0,0.62752 -0.53788,1.1654 -1.1654,1.1654c-0.64545,0 -1.18333,-0.53788 -1.18333,-1.1654v-7.11788c0,-0.64545 0.53788,-1.18333 1.18333,-1.18333c0.62752,0 1.1654,0.53788 1.1654,1.18333v0.89646c0.07172,-0.64545 1.18333,-2.11564 2.79695,-2.11564c0.7351,0 1.11161,0.50202 1.11161,1.07575z"/><path d="M-151.96089,402.79214v-4.05199c0,-0.64545 0.53788,-1.1654 1.18333,-1.1654c0.62752,0 1.1654,0.51995 1.1654,1.1654v4.05199c0,1.61363 0.84267,2.27701 1.90049,2.27701c1.61363,0 2.1515,-1.50605 2.22322,-2.00807v-4.32093c0,-0.64545 0.53788,-1.1654 1.1654,-1.1654c0.64545,0 1.18333,0.51995 1.18333,1.1654v7.11788c0,0.64545 -0.53788,1.18333 -1.18333,1.18333c-0.62752,0 -1.1654,-0.53788 -1.1654,-1.18333v-0.89646c-0.07172,0.64545 -1.12954,2.11564 -3.06589,2.11564c-1.81085,0 -3.40654,-1.18333 -3.40654,-4.28507z"/><path d="M-132.11329,401.9136c0,0.93232 -0.51995,1.25504 -1.47019,1.25504l-5.32497,-0.03586c0.21515,1.30883 1.25504,2.00807 2.56387,2.00807c0.64545,0 0.95025,-0.14343 1.48812,-0.37651c0.32273,-0.14343 0.57373,-0.28687 0.87853,-0.28687c0.50202,0 0.80681,0.35858 0.80681,0.80681c0,0.28687 -0.1255,0.60959 -0.57373,0.9861c-0.66338,0.46616 -1.55984,0.77095 -2.68938,0.77095c-2.38458,0 -4.91259,-1.47019 -4.91259,-4.7333c0,-3.22725 2.67145,-4.78709 4.71537,-4.78709c2.04393,0 4.51815,1.61363 4.51815,4.39265zM-138.90845,401.51917h4.48229c-0.17929,-1.38055 -1.18333,-1.95428 -2.20529,-1.95428c-1.02196,0 -2.11564,0.57373 -2.27701,1.95428z"/><path d="M-116.29975,401.9136c0,0.93232 -0.51995,1.25504 -1.47019,1.25504l-5.32497,-0.03586c0.21515,1.30883 1.25504,2.00807 2.56387,2.00807c0.64545,0 0.95025,-0.14343 1.48812,-0.37651c0.32273,-0.14343 0.57373,-0.28687 0.87853,-0.28687c0.50202,0 0.80681,0.35858 0.80681,0.80681c0,0.28687 -0.1255,0.60959 -0.57373,0.9861c-0.66338,0.46616 -1.55984,0.77095 -2.68938,0.77095c-2.38458,0 -4.91259,-1.47019 -4.91259,-4.7333c0,-3.22725 2.67145,-4.78709 4.71537,-4.78709c2.04393,0 4.51815,1.61363 4.51815,4.39265zM-123.09491,401.51917h4.48229c-0.17929,-1.38055 -1.18333,-1.95428 -2.20529,-1.95428c-1.02196,0 -2.11564,0.57373 -2.27701,1.95428z"/><path d="M-106.70764,406.00146c0,0.57373 -0.51995,1.03989 -1.07575,1.03989c-0.34065,0 -0.60959,-0.17929 -0.82474,-0.4303l-2.22322,-2.76109l-2.22322,2.76109c-0.21515,0.25101 -0.48409,0.4303 -0.82474,0.4303c-0.5558,0 -1.07575,-0.46616 -1.07575,-1.03989c0,-0.23308 0.08965,-0.44823 0.23308,-0.62752l2.5818,-3.08382l-2.54594,-3.04796c-0.14343,-0.17929 -0.23308,-0.37651 -0.23308,-0.62752c0,-0.57373 0.51995,-1.03989 1.07575,-1.03989c0.34065,0 0.62752,0.16136 0.82474,0.4303l2.18736,2.70731l2.18736,-2.70731c0.21515,-0.26894 0.48409,-0.4303 0.82474,-0.4303c0.53788,0 1.05782,0.46616 1.05782,1.03989c0,0.25101 -0.07172,0.44823 -0.23308,0.62752l-2.52801,3.04796l2.56387,3.08382c0.16136,0.17929 0.25101,0.39444 0.25101,0.62752z"/><path d="M-95.62741,402.29012c0,3.26311 -2.36665,4.78709 -4.33886,4.78709c-1.55984,0 -2.51008,-0.96818 -2.65352,-1.52398v0.34065c0,0.07172 0,0.14343 -0.01793,0.19722v3.22725c0,0.64545 -0.5558,1.1654 -1.18333,1.1654c-0.64545,0 -1.18333,-0.51995 -1.18333,-1.1654v-10.57821c0,-0.62752 0.57373,-1.1654 1.20125,-1.1654c0.64545,0 1.18333,0.53788 1.18333,1.1654v0.3048c0.35858,-0.84267 1.38055,-1.52398 2.65352,-1.52398c1.95428,0 4.33886,1.57777 4.33886,4.76916zM-97.97613,402.29012c0,-1.82878 -1.23711,-2.76109 -2.42044,-2.76109c-1.00403,0 -2.33079,0.7351 -2.33079,2.76109c0,2.026 1.32676,2.76109 2.33079,2.76109c1.18333,0 2.42044,-0.91439 2.42044,-2.76109z"/><path d="M-92.65117,407.04135c-0.64545,0 -1.18333,-0.51995 -1.18333,-1.1654v-10.56029c0,-0.62752 0.53788,-1.1654 1.18333,-1.1654c0.62752,0 1.1654,0.53788 1.1654,1.1654v10.56029c0,0.64545 -0.53788,1.1654 -1.1654,1.1654z"/><path d="M-80.11867,402.30805c0,3.20932 -2.74316,4.76916 -4.78709,4.76916c-2.06186,0 -4.78709,-1.55984 -4.78709,-4.76916c0,-3.19139 2.72524,-4.78709 4.78709,-4.78709c2.04393,0 4.78709,1.5957 4.78709,4.78709zM-87.36206,402.30805c0,1.7212 1.18333,2.72524 2.4563,2.72524c1.25504,0 2.4563,-1.00403 2.4563,-2.72524c0,-1.73913 -1.20125,-2.74316 -2.4563,-2.74316c-1.27297,0 -2.4563,1.00403 -2.4563,2.74316z"/><path d="M-72.06847,398.61464c0,0.66338 -0.50202,1.11161 -1.50605,1.11161c-1.41641,0 -2.31286,1.09368 -2.40251,1.82878v4.32093c0,0.62752 -0.53788,1.1654 -1.1654,1.1654c-0.64545,0 -1.18333,-0.53788 -1.18333,-1.1654v-7.11788c0,-0.64545 0.53788,-1.18333 1.18333,-1.18333c0.62752,0 1.1654,0.53788 1.1654,1.18333v0.89646c0.07172,-0.64545 1.18333,-2.11564 2.79695,-2.11564c0.7351,0 1.11161,0.50202 1.11161,1.07575z"/><path d="M-61.5799,401.9136c0,0.93232 -0.51995,1.25504 -1.47019,1.25504l-5.32497,-0.03586c0.21515,1.30883 1.25504,2.00807 2.56387,2.00807c0.64545,0 0.95025,-0.14343 1.48812,-0.37651c0.32273,-0.14343 0.57373,-0.28687 0.87853,-0.28687c0.50202,0 0.80681,0.35858 0.80681,0.80681c0,0.28687 -0.1255,0.60959 -0.57373,0.9861c-0.66338,0.46616 -1.55984,0.77095 -2.68938,0.77095c-2.38458,0 -4.91259,-1.47019 -4.91259,-4.7333c0,-3.22725 2.67145,-4.78709 4.71537,-4.78709c2.04393,0 4.51815,1.61363 4.51815,4.39265zM-68.37506,401.51917h4.48229c-0.17929,-1.38055 -1.18333,-1.95428 -2.20529,-1.95428c-1.02196,0 -2.11564,0.57373 -2.27701,1.95428z"/><path d="M-53.5297,398.61464c0,0.66338 -0.50202,1.11161 -1.50605,1.11161c-1.41641,0 -2.31286,1.09368 -2.40251,1.82878v4.32093c0,0.62752 -0.53788,1.1654 -1.1654,1.1654c-0.64545,0 -1.18333,-0.53788 -1.18333,-1.1654v-7.11788c0,-0.64545 0.53788,-1.18333 1.18333,-1.18333c0.62752,0 1.1654,0.53788 1.1654,1.18333v0.89646c0.07172,-0.64545 1.18333,-2.11564 2.79695,-2.11564c0.7351,0 1.11161,0.50202 1.11161,1.07575z"/><path d="M-45.74844,398.82979c0.10758,0.16136 0.28687,0.41237 0.28687,0.78888c0,0.57373 -0.39444,0.87853 -0.91439,0.87853c-0.34065,0 -0.68131,-0.1255 -0.9861,-0.50202c-0.35858,-0.41237 -0.77095,-0.60959 -1.2909,-0.60959c-0.69924,0 -1.11161,0.34065 -1.11161,0.84267c0,0.28687 0.10758,0.66338 0.93232,0.89646l1.09368,0.32273c1.43433,0.39444 2.63559,1.07575 2.63559,2.67145c0,1.97221 -1.82878,2.92246 -3.69341,2.92246c-1.61363,0 -2.5818,-0.68131 -3.08382,-1.2909c-0.08965,-0.1255 -0.48409,-0.57373 -0.48409,-1.12954c0,-0.39444 0.25101,-0.89646 0.89646,-0.89646c0.48409,0 0.75303,0.3048 0.96818,0.57373c0.51995,0.64545 1.09368,0.82474 1.70327,0.82474c0.87853,0 1.36262,-0.37651 1.36262,-0.87853c0,-0.3048 -0.19722,-0.69924 -1.05782,-0.95025l-1.02196,-0.3048c-1.81085,-0.50202 -2.56387,-1.47019 -2.56387,-2.74316c0,-1.79292 1.64948,-2.72524 3.35276,-2.72524c1.21918,0 2.38458,0.48409 2.97624,1.30883z"/><path d="M-178.47833,420.20137c0,0.16136 -0.10758,0.34065 -0.16136,0.53788l-2.40251,6.86688c-0.19722,0.59166 -0.62752,0.89646 -1.11161,0.89646c-0.51995,0 -0.93232,-0.3048 -1.1654,-0.89646l-2.18736,-5.12774l-2.18736,5.12774c-0.23308,0.59166 -0.66338,0.89646 -1.14747,0.89646c-0.51995,0 -0.93232,-0.3048 -1.12954,-0.89646l-2.38458,-6.86688c-0.07172,-0.19722 -0.16136,-0.37651 -0.16136,-0.53788c0,-0.62752 0.48409,-1.11161 1.11161,-1.11161c0.41237,0 0.8606,0.25101 0.9861,0.62752l1.7212,5.39668l2.13357,-5.30704c0.19722,-0.46616 0.5558,-0.71717 1.05782,-0.71717c0.51995,0 0.87853,0.25101 1.05782,0.71717l2.13357,5.30704l1.7212,-5.39668c0.1255,-0.37651 0.57373,-0.62752 1.00403,-0.62752c0.60959,0 1.11161,0.48409 1.11161,1.11161z"/><path d="M-167.64892,423.82306c0,3.20932 -2.74316,4.76916 -4.78709,4.76916c-2.06186,0 -4.78728,-1.55984 -4.78728,-4.76916c0,-3.19139 2.72543,-4.78709 4.78728,-4.78709c2.04393,0 4.78709,1.5957 4.78709,4.78709zM-174.8925,423.82306c0,1.7212 1.18352,2.72524 2.45649,2.72524c1.25504,0 2.4563,-1.00403 2.4563,-2.72524c0,-1.73913 -1.20125,-2.74316 -2.4563,-2.74316c-1.27297,0 -2.45649,1.00403 -2.45649,2.74316z"/><path d="M-165.856,424.30715v-4.05199c0,-0.64545 0.53788,-1.1654 1.18333,-1.1654c0.62752,0 1.1654,0.51995 1.1654,1.1654v4.05199c0,1.61363 0.84267,2.27701 1.90049,2.27701c1.61363,0 2.1515,-1.50605 2.22322,-2.00807v-4.32093c0,-0.64545 0.53788,-1.1654 1.1654,-1.1654c0.64545,0 1.18333,0.51995 1.18333,1.1654v7.11788c0,0.64545 -0.53788,1.18333 -1.18333,1.18333c-0.62752,0 -1.1654,-0.53788 -1.1654,-1.18333v-0.89646c-0.07172,0.64545 -1.12954,2.11564 -3.06589,2.11564c-1.81085,0 -3.40654,-1.18333 -3.40654,-4.28507z"/><path d="M-153.70002,428.55637c-0.64545,0 -1.18333,-0.51995 -1.18333,-1.1654v-10.56029c0,-0.62752 0.53788,-1.1654 1.18333,-1.1654c0.62752,0 1.1654,0.53788 1.1654,1.1654v10.56029c0,0.64545 -0.53788,1.1654 -1.1654,1.1654z"/><path d="M-141.36474,416.83069v10.57821c0,0.64545 -0.57373,1.1654 -1.20125,1.1654c-0.64545,0 -1.18333,-0.51995 -1.18333,-1.1654v-0.34065c-0.14343,0.5558 -1.09368,1.52398 -2.65352,1.52398c-1.97221,0 -4.33886,-1.52398 -4.33886,-4.78709c0,-3.19139 2.38458,-4.76916 4.33886,-4.76916c1.27297,0 2.29493,0.68131 2.65352,1.52398v-0.3048c0,-0.07172 0,-0.1255 0.01793,-0.19722v-3.22725c0,-0.62752 0.53788,-1.1654 1.1654,-1.1654c0.64545,0 1.20125,0.53788 1.20125,1.1654zM-143.64175,423.80514c0,-2.026 -1.32676,-2.76109 -2.33079,-2.76109c-1.18333,0 -2.42044,0.93232 -2.42044,2.76109c0,1.84671 1.23711,2.76109 2.42044,2.76109c1.00403,0 2.33079,-0.7351 2.33079,-2.76109z"/><path d="M-125.04919,427.4089c0,0.08965 -0.01793,0.17929 -0.03586,0.26894v0.60959c0,2.92246 -2.72524,3.85477 -4.62573,3.85477c-1.11161,0 -2.00807,-0.3048 -2.40251,-0.48409c-0.50202,-0.21515 -0.77095,-0.57373 -0.77095,-1.00403c0,-0.53788 0.4303,-0.93232 0.93232,-0.93232c0.10758,0 0.25101,0.01793 0.48409,0.08965c0.35858,0.08965 0.96818,0.3048 1.77499,0.3048c1.45226,0 2.25908,-0.77095 2.25908,-1.82878v-1.21918c-0.14343,0.5558 -1.09368,1.52398 -2.65352,1.52398c-1.97221,0 -4.33886,-1.52398 -4.33886,-4.78709c0,-3.19139 2.38458,-4.76916 4.33886,-4.76916c1.27297,0 2.29493,0.68131 2.65352,1.52398v-0.3048c0,-0.62752 0.53788,-1.1654 1.18333,-1.1654c0.62752,0 1.20125,0.53788 1.20125,1.1654zM-127.3262,423.80514c0,-2.026 -1.32676,-2.76109 -2.33079,-2.76109c-1.18333,0 -2.42044,0.93232 -2.42044,2.76109c0,1.84671 1.23711,2.76109 2.42044,2.76109c1.00403,0 2.33079,-0.7351 2.33079,-2.76109z"/><path d="M-114.04068,423.42862c0,0.93232 -0.51995,1.25504 -1.47019,1.25504l-5.32497,-0.03586c0.21515,1.30883 1.25504,2.00807 2.56387,2.00807c0.64545,0 0.95025,-0.14343 1.48812,-0.37651c0.32273,-0.14343 0.57373,-0.28687 0.87853,-0.28687c0.50202,0 0.80681,0.35858 0.80681,0.80681c0,0.28687 -0.1255,0.60959 -0.57373,0.9861c-0.66338,0.46616 -1.55984,0.77095 -2.68938,0.77095c-2.38458,0 -4.91259,-1.47019 -4.91259,-4.7333c0,-3.22725 2.67145,-4.78709 4.71537,-4.78709c2.04393,0 4.51815,1.61363 4.51815,4.39265zM-120.83584,423.03418h4.48229c-0.17929,-1.38055 -1.18333,-1.95428 -2.20529,-1.95428c-1.02196,0 -2.11564,0.57373 -2.27701,1.95428z"/><path d="M-107.01244,427.30133c0,0.82474 -0.80681,1.25504 -2.026,1.25504c-1.21918,0 -2.4563,-0.39444 -2.4563,-2.8866v-4.67952h-0.51995c-0.57373,0 -0.95025,-0.37651 -0.95025,-0.91439c0,-0.5558 0.37651,-0.93232 0.95025,-0.93232h0.51995v-1.21918c0,-0.64545 0.53788,-1.18333 1.18333,-1.18333c0.64545,0 1.1654,0.53788 1.1654,1.18333v1.21918h1.18333c0.59166,0 0.95025,0.37651 0.95025,0.93232c0,0.53788 -0.35858,0.91439 -0.95025,0.91439h-1.18333v4.75123c0,0.51995 0.17929,0.78888 0.57373,0.78888c0.19722,0 0.48409,-0.07172 0.68131,-0.07172c0.53788,-0.03586 0.87853,0.28687 0.87853,0.84267z"/><path d="M-91.43198,423.33898v4.05199c0,0.64545 -0.53788,1.1654 -1.18333,1.1654c-0.62752,0 -1.1654,-0.51995 -1.1654,-1.1654v-4.05199c0,-1.61363 -0.84267,-2.27701 -1.90049,-2.27701c-1.61363,0 -2.1515,1.50605 -2.22322,2.00807v4.32093c0,0.64545 -0.53788,1.1654 -1.1654,1.1654c-0.64545,0 -1.18333,-0.51995 -1.18333,-1.1654v-10.56029c0,-0.62752 0.53788,-1.1654 1.18333,-1.1654c0.62752,0 1.1654,0.53788 1.1654,1.1654v4.33886c0.07172,-0.64545 1.12954,-2.11564 3.06589,-2.11564c1.81085,0 3.40654,1.18333 3.40654,4.28507z"/><path d="M-80.40554,423.42862c0,0.93232 -0.51995,1.25504 -1.47019,1.25504l-5.32497,-0.03586c0.21515,1.30883 1.25504,2.00807 2.56387,2.00807c0.64545,0 0.95025,-0.14343 1.48812,-0.37651c0.32273,-0.14343 0.57373,-0.28687 0.87853,-0.28687c0.50202,0 0.80681,0.35858 0.80681,0.80681c0,0.28687 -0.1255,0.60959 -0.57373,0.9861c-0.66338,0.46616 -1.55984,0.77095 -2.68938,0.77095c-2.38458,0 -4.91259,-1.47019 -4.91259,-4.7333c0,-3.22725 2.67145,-4.78709 4.71537,-4.78709c2.04393,0 4.51815,1.61363 4.51815,4.39265zM-87.2007,423.03418h4.48229c-0.17929,-1.38055 -1.18333,-1.95428 -2.20529,-1.95428c-1.02196,0 -2.11564,0.57373 -2.27701,1.95428z"/><path d="M-72.35534,420.12965c0,0.66338 -0.50202,1.11161 -1.50605,1.11161c-1.41641,0 -2.31286,1.09368 -2.40251,1.82878v4.32093c0,0.62752 -0.53788,1.1654 -1.1654,1.1654c-0.64545,0 -1.18333,-0.53788 -1.18333,-1.1654v-7.11788c0,-0.64545 0.53788,-1.18333 1.18333,-1.18333c0.62752,0 1.1654,0.53788 1.1654,1.18333v0.89646c0.07172,-0.64545 1.18333,-2.11564 2.79695,-2.11564c0.7351,0 1.11161,0.50202 1.11161,1.07575z"/><path d="M-61.86677,423.42862c0,0.93232 -0.51995,1.25504 -1.47019,1.25504l-5.32497,-0.03586c0.21515,1.30883 1.25504,2.00807 2.56387,2.00807c0.64545,0 0.95025,-0.14343 1.48812,-0.37651c0.32273,-0.14343 0.57373,-0.28687 0.87853,-0.28687c0.50202,0 0.80681,0.35858 0.80681,0.80681c0,0.28687 -0.1255,0.60959 -0.57373,0.9861c-0.66338,0.46616 -1.55984,0.77095 -2.68938,0.77095c-2.38458,0 -4.91259,-1.47019 -4.91259,-4.7333c0,-3.22725 2.67145,-4.78709 4.71537,-4.78709c2.04393,0 4.51815,1.61363 4.51815,4.39265zM-68.66193,423.03418h4.48229c-0.17929,-1.38055 -1.18333,-1.95428 -2.20529,-1.95428c-1.02196,0 -2.11564,0.57373 -2.27701,1.95428z"/></g><g data-paper-data="{&quot;origPos&quot;:null}" fill-rule="evenodd" stroke="none" stroke-width="1" stroke-linecap="round" stroke-linejoin="round"><path d="M137.9226,67.82757c0,0.20694 -0.06898,0.37939 -0.13796,0.51735l-4.46642,10.05377c-0.24143,0.55184 -0.65531,0.79326 -1.08643,0.79326c-0.58633,0 -1.0002,-0.46561 -1.0002,-1.01745c0,-0.20694 0.06898,-0.37939 0.12071,-0.51735l0.98296,-2.24183l-3.20755,-7.0704c-0.05173,-0.13796 -0.12071,-0.31041 -0.12071,-0.51735c0,-0.55184 0.44837,-1.01745 1.03469,-1.01745c0.43112,0 0.845,0.24143 1.08643,0.79326l2.31081,5.34591l2.36255,-5.34591c0.24143,-0.55184 0.63806,-0.79326 1.06918,-0.79326c0.60357,0 1.05194,0.46561 1.05194,1.01745z" fill="#363636"/><path d="M147.82117,71.36277c0,3.08683 -2.63847,4.58714 -4.60438,4.58714c-1.98316,0 -4.60438,-1.5003 -4.60438,-4.58714c0,-3.06959 2.62122,-4.60438 4.60438,-4.60438c1.96592,0 4.60438,1.53479 4.60438,4.60438zM140.85423,71.36277c0,1.65551 1.13816,2.62122 2.36255,2.62122c1.20714,0 2.36255,-0.96571 2.36255,-2.62122c0,-1.67275 -1.15541,-2.63847 -2.36255,-2.63847c-1.22439,0 -2.36255,0.96571 -2.36255,2.63847z" fill="#363636"/><path d="M149.54566,71.82838v-3.89734c0,-0.62082 0.51735,-1.12092 1.13816,-1.12092c0.60357,0 1.12092,0.5001 1.12092,1.12092v3.89734c0,1.55204 0.81033,2.1901 1.82777,2.1901c1.55204,0 2.06939,-1.44857 2.13837,-1.93143v-4.15602c0,-0.62082 0.51735,-1.12092 1.12092,-1.12092c0.62082,0 1.13816,0.5001 1.13816,1.12092v6.84622c0,0.62082 -0.51735,1.13816 -1.13816,1.13816c-0.60357,0 -1.12092,-0.51735 -1.12092,-1.13816v-0.86224c-0.06898,0.62082 -1.08643,2.0349 -2.94888,2.0349c-1.74155,0 -3.27634,-1.13816 -3.27634,-4.12153z" fill="#363636"/><path d="M159.66822,67.27573l0.845,-2.60398c0.22418,-0.63806 0.60357,-0.91398 1.1899,-0.91398h0.63806c0.74153,0 0.86224,0.39663 0.46561,1.15541l-1.36235,2.60398c-0.31041,0.58633 -0.74153,0.67255 -1.17265,0.67255h-0.10347c-0.53459,0 -0.6898,-0.39663 -0.5001,-0.91398z" fill="#363636"/><path d="M165.79015,75.91542c-0.62082,0 -1.13816,-0.5001 -1.13816,-1.12092v-10.15724c0,-0.60357 0.51735,-1.12092 1.13816,-1.12092c0.60357,0 1.12092,0.51735 1.12092,1.12092v10.15724c0,0.62082 -0.51735,1.12092 -1.12092,1.12092z" fill="#363636"/><path d="M170.11862,75.91542c-0.62082,0 -1.13816,-0.5001 -1.13816,-1.12092v-10.15724c0,-0.60357 0.51735,-1.12092 1.13816,-1.12092c0.60357,0 1.12092,0.51735 1.12092,1.12092v10.15724c0,0.62082 -0.51735,1.12092 -1.12092,1.12092z" fill="#363636"/><path d="M186.74269,70.89714v3.89734c0,0.62082 -0.51735,1.12092 -1.13816,1.12092c-0.60357,0 -1.12092,-0.5001 -1.12092,-1.12092v-3.89734c0,-1.55204 -0.81051,-2.1901 -1.82796,-2.1901c-1.55204,0 -2.06939,1.44857 -2.13837,1.93143v4.15602c0,0.62082 -0.51735,1.12092 -1.12092,1.12092c-0.62082,0 -1.13816,-0.5001 -1.13816,-1.12092v-6.84622c0,-0.62082 0.51735,-1.13816 1.13816,-1.13816c0.60357,0 1.12092,0.51735 1.12092,1.13816v0.86224c0.06898,-0.62082 1.08643,-2.0349 2.94888,-2.0349c1.74173,0 3.27653,1.13816 3.27653,4.12153z" fill="#363636"/><path d="M197.34829,70.98337c0,0.89673 -0.5001,1.20714 -1.41408,1.20714l-5.12173,-0.03449c0.20694,1.25888 1.20714,1.93143 2.46602,1.93143c0.62082,0 0.91398,-0.13796 1.43133,-0.36214c0.31041,-0.13796 0.55184,-0.27592 0.845,-0.27592c0.48286,0 0.77602,0.3449 0.77602,0.77602c0,0.27592 -0.12071,0.58633 -0.55184,0.94847c-0.63806,0.44837 -1.5003,0.74153 -2.58673,0.74153c-2.29357,0 -4.7251,-1.41408 -4.7251,-4.55265c0,-3.10408 2.56949,-4.60438 4.5354,-4.60438c1.96592,0 4.34571,1.55204 4.34571,4.225zM190.81248,70.60399h4.31122c-0.17245,-1.32786 -1.13816,-1.87969 -2.12112,-1.87969c-0.98296,0 -2.0349,0.55184 -2.1901,1.87969z" fill="#363636"/><path d="M207.43655,70.98337c0,0.89673 -0.5001,1.20714 -1.41408,1.20714l-5.12173,-0.03449c0.20694,1.25888 1.20714,1.93143 2.46602,1.93143c0.62082,0 0.91398,-0.13796 1.43133,-0.36214c0.31041,-0.13796 0.55184,-0.27592 0.845,-0.27592c0.48286,0 0.77602,0.3449 0.77602,0.77602c0,0.27592 -0.12071,0.58633 -0.55184,0.94847c-0.63806,0.44837 -1.5003,0.74153 -2.58673,0.74153c-2.29357,0 -4.7251,-1.41408 -4.7251,-4.55265c0,-3.10408 2.56949,-4.60438 4.5354,-4.60438c1.96592,0 4.34571,1.55204 4.34571,4.225zM200.90074,70.60399h4.31122c-0.17245,-1.32786 -1.13816,-1.87969 -2.12112,-1.87969c-0.98296,0 -2.0349,0.55184 -2.1901,1.87969z" fill="#363636"/><path d="M217.69725,64.63725v10.17448c0,0.62082 -0.55184,1.12092 -1.15541,1.12092c-0.62082,0 -1.13816,-0.5001 -1.13816,-1.12092v-0.32765c-0.13796,0.53459 -1.05194,1.46582 -2.55224,1.46582c-1.89694,0 -4.17326,-1.46582 -4.17326,-4.60438c0,-3.06959 2.29357,-4.58714 4.17326,-4.58714c1.22439,0 2.20735,0.65531 2.55224,1.46582v-0.29316c0,-0.06898 0,-0.12071 0.01724,-0.18969v-3.10408c0,-0.60357 0.51735,-1.12092 1.12092,-1.12092c0.62082,0 1.15541,0.51735 1.15541,1.12092zM215.50715,71.34552c0,-1.94867 -1.27612,-2.65571 -2.24183,-2.65571c-1.13816,0 -2.32806,0.89673 -2.32806,2.65571c0,1.77622 1.1899,2.65571 2.32806,2.65571c0.96571,0 2.24183,-0.70704 2.24183,-2.65571z" fill="#363636"/><path d="M233.3901,67.93103v6.88071c0,0.62082 -0.55184,1.12092 -1.15541,1.12092c-0.62082,0 -1.13816,-0.5001 -1.13816,-1.12092v-0.32765c-0.13796,0.53459 -1.05194,1.46582 -2.55224,1.46582c-1.89694,0 -4.17326,-1.46582 -4.17326,-4.60438c0,-3.06959 2.29357,-4.58714 4.17326,-4.58714c1.22439,0 2.20735,0.65531 2.55224,1.46582v-0.29316c0,-0.60357 0.51735,-1.12092 1.13816,-1.12092c0.60357,0 1.15541,0.51735 1.15541,1.12092zM231.2,71.34552c0,-1.94867 -1.27612,-2.65571 -2.24183,-2.65571c-1.13816,0 -2.32806,0.89673 -2.32806,2.65571c0,1.77622 1.1899,2.65571 2.32806,2.65571c0.96571,0 2.24183,-0.70704 2.24183,-2.65571z" fill="#363636"/><path d="M240.9606,64.4648c0,-0.60357 0.53459,-1.12092 1.13816,-1.12092c0.62082,0 1.15541,0.51735 1.15541,1.12092c0,0.60357 -0.53459,1.12092 -1.15541,1.12092c-0.60357,0 -1.13816,-0.51735 -1.13816,-1.12092zM243.23692,67.96551v8.74316c0,1.72449 -1.06918,2.65571 -2.63847,2.65571c-0.44837,0 -0.91398,-0.06898 -1.39684,-0.27592c-0.37939,-0.20694 -0.86224,-0.56908 -0.86224,-1.15541c0,-0.65531 0.60357,-1.1899 1.27612,-0.98296c0.17245,0.03449 0.36214,0.22418 0.67255,0.22418c0.63806,0 0.6898,-0.63806 0.6898,-1.06918v-8.13959c0,-0.63806 0.51735,-1.15541 1.12092,-1.15541c0.62082,0 1.13816,0.51735 1.13816,1.15541z" fill="#ff0000"/><path d="M245.32356,71.82838v-3.89734c0,-0.62082 0.51735,-1.12092 1.13816,-1.12092c0.60357,0 1.12092,0.5001 1.12092,1.12092v3.89734c0,1.55204 0.81051,2.1901 1.82796,2.1901c1.55204,0 2.06939,-1.44857 2.13837,-1.93143v-4.15602c0,-0.62082 0.51735,-1.12092 1.12092,-1.12092c0.62082,0 1.13816,0.5001 1.13816,1.12092v6.84622c0,0.62082 -0.51735,1.13816 -1.13816,1.13816c-0.60357,0 -1.12092,-0.51735 -1.12092,-1.13816v-0.86224c-0.06898,0.62082 -1.08643,2.0349 -2.94888,2.0349c-1.74173,0 -3.27653,-1.13816 -3.27653,-4.12153z" fill="#ff0000"/><path d="M270.58731,70.89714v3.89734c0,0.62082 -0.51735,1.12092 -1.13816,1.12092c-0.60357,0 -1.12092,-0.5001 -1.12092,-1.12092v-3.89734c0,-1.55204 -0.81051,-2.1901 -1.82796,-2.1901c-1.55204,0 -2.08663,1.44857 -2.13837,1.93143v-0.01724v0.27592v3.89734c0,0.62082 -0.51735,1.12092 -1.13816,1.12092c-0.60357,0 -1.12092,-0.5001 -1.12092,-1.12092v-3.89734c0,-1.55204 -0.81051,-2.1901 -1.82796,-2.1901c-1.55204,0 -2.06939,1.44857 -2.13837,1.93143v4.15602c0,0.62082 -0.51735,1.12092 -1.12092,1.12092c-0.62082,0 -1.13816,-0.5001 -1.13816,-1.12092v-6.84622c0,-0.62082 0.51735,-1.13816 1.13816,-1.13816c0.60357,0 1.12092,0.51735 1.12092,1.13816v0.86224c0.06898,-0.62082 1.08643,-2.0349 2.94888,-2.0349c1.29337,0 2.46602,0.62082 2.98336,2.15561c0.48286,-1.06918 1.56928,-2.15561 3.24204,-2.15561c1.74173,0 3.27653,1.13816 3.27653,4.12153z" fill="#ff0000"/><path d="M281.7275,71.34552c0,3.13857 -2.27632,4.60438 -4.17326,4.60438c-1.5003,0 -2.41428,-0.93122 -2.55224,-1.46582v0.32765c0,0.06898 0,0.13796 -0.01724,0.18969v3.10408c0,0.62082 -0.53459,1.12092 -1.13816,1.12092c-0.62082,0 -1.13816,-0.5001 -1.13816,-1.12092v-10.17448c0,-0.60357 0.55184,-1.12092 1.15541,-1.12092c0.62082,0 1.13816,0.51735 1.13816,1.12092v0.29316c0.3449,-0.81051 1.32786,-1.46582 2.55224,-1.46582c1.87969,0 4.17326,1.51755 4.17326,4.58714zM279.46842,71.34552c0,-1.75898 -1.1899,-2.65571 -2.32806,-2.65571c-0.96571,0 -2.24183,0.70704 -2.24183,2.65571c0,1.94867 1.27612,2.65571 2.24183,2.65571c1.13816,0 2.32806,-0.87949 2.32806,-2.65571z" fill="#ff0000"/><path d="M130.92118,92.03927c0,3.13857 -2.27632,4.60438 -4.17326,4.60438c-1.5003,0 -2.41428,-0.93122 -2.55224,-1.46582v0.32765c0,0.62082 -0.51735,1.12092 -1.13816,1.12092c-0.60357,0 -1.15541,-0.5001 -1.15541,-1.12092v-10.17448c0,-0.60357 0.53459,-1.12092 1.15541,-1.12092c0.60357,0 1.12092,0.51735 1.12092,1.12092v3.10408c0.01724,0.06898 0.01724,0.12071 0.01724,0.18969v0.29316c0.3449,-0.81051 1.32786,-1.46582 2.55224,-1.46582c1.87969,0 4.17326,1.51755 4.17326,4.58714zM128.6621,92.03927c0,-1.75898 -1.1899,-2.65571 -2.32806,-2.65571c-0.96571,0 -2.24183,0.70704 -2.24183,2.65571c0,1.94867 1.27612,2.65571 2.24183,2.65571c1.13816,0 2.32806,-0.87949 2.32806,-2.65571z" fill="#ff0202"/><path d="M141.37158,92.05652c0,3.08683 -2.63847,4.58714 -4.60438,4.58714c-1.98316,0 -4.60438,-1.5003 -4.60438,-4.58714c0,-3.06959 2.62122,-4.60438 4.60438,-4.60438c1.96592,0 4.60438,1.53479 4.60438,4.60438zM134.40465,92.05652c0,1.65551 1.13816,2.62122 2.36255,2.62122c1.20714,0 2.36255,-0.96571 2.36255,-2.62122c0,-1.67275 -1.15541,-2.63847 -2.36255,-2.63847c-1.22439,0 -2.36255,0.96571 -2.36255,2.63847z" fill="#ff0202"/><path d="M151.82198,92.05652c0,3.08683 -2.63847,4.58714 -4.60438,4.58714c-1.98316,0 -4.60438,-1.5003 -4.60438,-4.58714c0,-3.06959 2.62122,-4.60438 4.60438,-4.60438c1.96592,0 4.60438,1.53479 4.60438,4.60438zM144.85505,92.05652c0,1.65551 1.13816,2.62122 2.36255,2.62122c1.20714,0 2.36255,-0.96571 2.36255,-2.62122c0,-1.67275 -1.15541,-2.63847 -2.36255,-2.63847c-1.22439,0 -2.36255,0.96571 -2.36255,2.63847z" fill="#ff0202"/><path d="M159.30608,88.71101c0.10347,0.1552 0.27592,0.39663 0.27592,0.75877c0,0.55184 -0.37939,0.845 -0.87949,0.845c-0.32765,0 -0.65531,-0.12071 -0.94847,-0.48286c-0.3449,-0.39663 -0.74153,-0.58633 -1.24163,-0.58633c-0.67255,0 -1.06918,0.32765 -1.06918,0.81051c0,0.27592 0.10347,0.63806 0.89673,0.86224l1.05194,0.31041c1.37959,0.37939 2.535,1.03469 2.535,2.56949c0,1.89694 -1.75898,2.81092 -3.55245,2.81092c-1.55204,0 -2.48326,-0.65531 -2.96612,-1.24163c-0.08622,-0.12071 -0.46561,-0.55184 -0.46561,-1.08643c0,-0.37939 0.24143,-0.86224 0.86224,-0.86224c0.46561,0 0.72429,0.29316 0.93122,0.55184c0.5001,0.62082 1.05194,0.79326 1.63826,0.79326c0.845,0 1.31061,-0.36214 1.31061,-0.845c0,-0.29316 -0.18969,-0.67255 -1.01745,-0.91398l-0.98296,-0.29316c-1.74173,-0.48286 -2.46602,-1.41408 -2.46602,-2.63847c0,-1.72449 1.58653,-2.62122 3.22479,-2.62122c1.17265,0 2.29357,0.46561 2.86265,1.25888z" fill="#ff0202"/><path d="M166.42821,95.40202c0,0.79326 -0.77602,1.20714 -1.94867,1.20714c-1.17265,0 -2.36255,-0.37939 -2.36255,-2.77643v-4.50091h-0.5001c-0.55184,0 -0.91398,-0.36214 -0.91398,-0.87949c0,-0.53459 0.36214,-0.89673 0.91398,-0.89673h0.5001v-1.17265c0,-0.62082 0.51735,-1.13816 1.13816,-1.13816c0.62082,0 1.12092,0.51735 1.12092,1.13816v1.17265h1.13816c0.56908,0 0.91398,0.36214 0.91398,0.89673c0,0.51735 -0.3449,0.87949 -0.91398,0.87949h-1.13816v4.56989c0,0.5001 0.17245,0.75877 0.55184,0.75877c0.18969,0 0.46561,-0.06898 0.65531,-0.06898c0.51735,-0.03449 0.845,0.27592 0.845,0.81051z" fill="#ff0202"/><path d="M179.17218,85.38275c0,0.48286 -0.36214,0.81051 -0.845,0.81051c-0.1552,0 -0.39663,-0.05173 -0.72429,-0.1552c-0.22418,-0.08622 -0.36214,-0.13796 -0.58633,-0.13796c-0.96571,0 -1.08643,0.79326 -1.08643,1.13816v0.51735h1.41408c0.55184,0 0.91398,0.36214 0.91398,0.89673c0,0.51735 -0.36214,0.87949 -0.91398,0.87949h-1.41408v6.17367c0,0.62082 -0.51735,1.12092 -1.13816,1.12092c-0.60357,0 -1.12092,-0.5001 -1.12092,-1.12092v-6.17367h-0.51735c-0.55184,0 -0.91398,-0.36214 -0.91398,-0.87949c0,-0.53459 0.36214,-0.89673 0.91398,-0.89673h0.51735v-0.63806c0,-2.41428 1.91418,-2.93163 3.01785,-2.93163c0.75877,0 1.41408,0.18969 1.87969,0.48286c0.39663,0.24143 0.60357,0.53459 0.60357,0.91398z" fill="#363636"/><path d="M185.70799,88.50407c0,0.63806 -0.48286,1.06918 -1.44857,1.06918c-1.36235,0 -2.22459,1.05194 -2.31081,1.75898v4.15602c0,0.60357 -0.51735,1.12092 -1.12092,1.12092c-0.62082,0 -1.13816,-0.51735 -1.13816,-1.12092v-6.84622c0,-0.62082 0.51735,-1.13816 1.13816,-1.13816c0.60357,0 1.12092,0.51735 1.12092,1.13816v0.86224c0.06898,-0.62082 1.13816,-2.0349 2.6902,-2.0349c0.70704,0 1.06918,0.48286 1.06918,1.03469z" fill="#363636"/><path d="M195.60656,92.05652c0,3.08683 -2.63847,4.58714 -4.60438,4.58714c-1.98316,0 -4.60438,-1.5003 -4.60438,-4.58714c0,-3.06959 2.62122,-4.60438 4.60438,-4.60438c1.96592,0 4.60438,1.53479 4.60438,4.60438zM188.63962,92.05652c0,1.65551 1.13816,2.62122 2.36255,2.62122c1.20714,0 2.36255,-0.96571 2.36255,-2.62122c0,-1.67275 -1.15541,-2.63847 -2.36255,-2.63847c-1.22439,0 -2.36255,0.96571 -2.36255,2.63847z" fill="#363636"/><path d="M212.04093,91.5909v3.89734c0,0.62082 -0.51735,1.12092 -1.13816,1.12092c-0.60357,0 -1.12092,-0.5001 -1.12092,-1.12092v-3.89734c0,-1.55204 -0.81051,-2.1901 -1.82796,-2.1901c-1.55204,0 -2.08663,1.44857 -2.13837,1.93143v-0.01724v0.27592v3.89734c0,0.62082 -0.51735,1.12092 -1.13816,1.12092c-0.60357,0 -1.12092,-0.5001 -1.12092,-1.12092v-3.89734c0,-1.55204 -0.81051,-2.1901 -1.82796,-2.1901c-1.55204,0 -2.06939,1.44857 -2.13837,1.93143v4.15602c0,0.62082 -0.51735,1.12092 -1.12092,1.12092c-0.62082,0 -1.13816,-0.5001 -1.13816,-1.12092v-6.84622c0,-0.62082 0.51735,-1.13816 1.13816,-1.13816c0.60357,0 1.12092,0.51735 1.12092,1.13816v0.86224c0.06898,-0.62082 1.08643,-2.0349 2.94888,-2.0349c1.29337,0 2.46602,0.62082 2.98336,2.15561c0.48286,-1.06918 1.56928,-2.15561 3.24204,-2.15561c1.74173,0 3.27653,1.13816 3.27653,4.12153z" fill="#363636"/><path d="M224.0951,95.40202c0,0.79326 -0.77602,1.20714 -1.94867,1.20714c-1.17265,0 -2.36255,-0.37939 -2.36255,-2.77643v-4.50091h-0.5001c-0.55184,0 -0.91398,-0.36214 -0.91398,-0.87949c0,-0.53459 0.36214,-0.89673 0.91398,-0.89673h0.5001v-1.17265c0,-0.62082 0.51735,-1.13816 1.13816,-1.13816c0.62082,0 1.12092,0.51735 1.12092,1.13816v1.17265h1.13816c0.56908,0 0.91398,0.36214 0.91398,0.89673c0,0.51735 -0.3449,0.87949 -0.91398,0.87949h-1.13816v4.56989c0,0.5001 0.17245,0.75877 0.55184,0.75877c0.18969,0 0.46561,-0.06898 0.65531,-0.06898c0.51735,-0.03449 0.845,0.27592 0.845,0.81051z" fill="#363636"/><path d="M234.13163,91.5909v3.89734c0,0.62082 -0.51735,1.12092 -1.13816,1.12092c-0.60357,0 -1.12092,-0.5001 -1.12092,-1.12092v-3.89734c0,-1.55204 -0.81051,-2.1901 -1.82796,-2.1901c-1.55204,0 -2.06939,1.44857 -2.13837,1.93143v4.15602c0,0.62082 -0.51735,1.12092 -1.12092,1.12092c-0.62082,0 -1.13816,-0.5001 -1.13816,-1.12092v-10.15724c0,-0.60357 0.51735,-1.12092 1.13816,-1.12092c0.60357,0 1.12092,0.51735 1.12092,1.12092v4.17326c0.06898,-0.62082 1.08643,-2.0349 2.94888,-2.0349c1.74173,0 3.27653,1.13816 3.27653,4.12153z" fill="#363636"/><path d="M244.73723,91.67713c0,0.89673 -0.5001,1.20714 -1.41408,1.20714l-5.12173,-0.03449c0.20694,1.25888 1.20714,1.93143 2.46602,1.93143c0.62082,0 0.91398,-0.13796 1.43133,-0.36214c0.31041,-0.13796 0.55184,-0.27592 0.845,-0.27592c0.48286,0 0.77602,0.3449 0.77602,0.77602c0,0.27592 -0.12071,0.58633 -0.55184,0.94847c-0.63806,0.44837 -1.5003,0.74153 -2.58673,0.74153c-2.29357,0 -4.7251,-1.41408 -4.7251,-4.55265c0,-3.10408 2.56949,-4.60438 4.5354,-4.60438c1.96592,0 4.34571,1.55204 4.34571,4.225zM238.20142,91.29774h4.31122c-0.17245,-1.32786 -1.13816,-1.87969 -2.12112,-1.87969c-0.98296,0 -2.0349,0.55184 -2.1901,1.87969z" fill="#363636"/><path d="M257.34324,88.71101c0.10347,0.1552 0.27592,0.39663 0.27592,0.75877c0,0.55184 -0.37939,0.845 -0.87949,0.845c-0.32765,0 -0.65531,-0.12071 -0.94847,-0.48286c-0.3449,-0.39663 -0.74153,-0.58633 -1.24163,-0.58633c-0.67255,0 -1.06918,0.32765 -1.06918,0.81051c0,0.27592 0.10347,0.63806 0.89673,0.86224l1.05194,0.31041c1.37959,0.37939 2.535,1.03469 2.535,2.56949c0,1.89694 -1.75898,2.81092 -3.55245,2.81092c-1.55204,0 -2.48326,-0.65531 -2.96612,-1.24163c-0.08622,-0.12071 -0.46561,-0.55184 -0.46561,-1.08643c0,-0.37939 0.24143,-0.86224 0.86224,-0.86224c0.46561,0 0.72429,0.29316 0.93122,0.55184c0.5001,0.62082 1.05194,0.79326 1.63826,0.79326c0.845,0 1.31061,-0.36214 1.31061,-0.845c0,-0.29316 -0.18969,-0.67255 -1.01745,-0.91398l-0.98296,-0.29316c-1.74173,-0.48286 -2.46602,-1.41408 -2.46602,-2.63847c0,-1.72449 1.58653,-2.62122 3.22479,-2.62122c1.17265,0 2.29357,0.46561 2.86265,1.25888z" fill="#000000"/><path d="M268.0868,91.5909v3.89734c0,0.62082 -0.51735,1.12092 -1.13816,1.12092c-0.60357,0 -1.12092,-0.5001 -1.12092,-1.12092v-3.89734c0,-1.55204 -0.81051,-2.1901 -1.82796,-2.1901c-1.55204,0 -2.06939,1.44857 -2.13837,1.93143v4.15602c0,0.62082 -0.51735,1.12092 -1.12092,1.12092c-0.62082,0 -1.13816,-0.5001 -1.13816,-1.12092v-10.15724c0,-0.60357 0.51735,-1.12092 1.13816,-1.12092c0.60357,0 1.12092,0.51735 1.12092,1.12092v4.17326c0.06898,-0.62082 1.08643,-2.0349 2.94888,-2.0349c1.74173,0 3.27653,1.13816 3.27653,4.12153z" fill="#000000"/><path d="M279.02006,92.05652c0,3.08683 -2.63847,4.58714 -4.60438,4.58714c-1.98316,0 -4.60438,-1.5003 -4.60438,-4.58714c0,-3.06959 2.62122,-4.60438 4.60438,-4.60438c1.96592,0 4.60438,1.53479 4.60438,4.60438zM272.05312,92.05652c0,1.65551 1.13816,2.62122 2.36255,2.62122c1.20714,0 2.36255,-0.96571 2.36255,-2.62122c0,-1.67275 -1.15541,-2.63847 -2.36255,-2.63847c-1.22439,0 -2.36255,0.96571 -2.36255,2.63847z" fill="#000000"/><path d="M289.34974,92.03927c0,3.13857 -2.27632,4.60438 -4.17326,4.60438c-1.5003,0 -2.41428,-0.93122 -2.55224,-1.46582v0.32765c0,0.06898 0,0.13796 -0.01724,0.18969v3.10408c0,0.62082 -0.53459,1.12092 -1.13816,1.12092c-0.62082,0 -1.13816,-0.5001 -1.13816,-1.12092v-10.17448c0,-0.60357 0.55184,-1.12092 1.15541,-1.12092c0.62082,0 1.13816,0.51735 1.13816,1.12092v0.29316c0.3449,-0.81051 1.32786,-1.46582 2.55224,-1.46582c1.87969,0 4.17326,1.51755 4.17326,4.58714zM287.09066,92.03927c0,-1.75898 -1.1899,-2.65571 -2.32806,-2.65571c-0.96571,0 -2.24183,0.70704 -2.24183,2.65571c0,1.94867 1.27612,2.65571 2.24183,2.65571c1.13816,0 2.32806,-0.87949 2.32806,-2.65571z" fill="#000000"/></g><g fill="#ffffff" fill-rule="evenodd" stroke="none" stroke-width="1" stroke-linecap="round" stroke-linejoin="round"><path d="M496.40409,105.12263c0,0 -0.72499,-0.75203 -1.37004,-0.72845c-0.64503,0.02357 -1.27564,0.82511 -1.27564,0.82511c0,0 -4.54315,5.27669 -7.81796,8.94626c-0.79986,0.89628 -2.61186,1.23733 -3.5703,0.20139c-0.95844,-1.03594 -0.68275,-2.78029 -0.02358,-3.7381c0.65917,-0.95781 8.46334,-9.58253 9.3833,-10.49056c0.91996,-0.90803 2.00844,-1.58741 3.24046,-1.6597c1.23202,-0.07229 2.534,0.6961 3.4555,1.51607c0.92149,0.81996 10.28843,10.09902 10.28843,10.09902c0.92186,0.9297 1.16174,2.58417 0.2185,3.74086c-0.94325,1.15668 -2.62934,1.00281 -3.43156,0.19924z" data-paper-data="{&quot;origPos&quot;:null,&quot;origRot&quot;:0,&quot;index&quot;:null}" opacity="0.42445"/><path d="M496.11039,85.88676c0,0 -0.72499,-0.75203 -1.37004,-0.72845c-0.64503,0.02357 -1.27564,0.82511 -1.27564,0.82511c0,0 -4.54315,5.27669 -7.81796,8.94626c-0.79986,0.89628 -2.61186,1.23734 -3.5703,0.20139c-0.95844,-1.03594 -0.68275,-2.7803 -0.02358,-3.73811c0.65917,-0.95781 8.46334,-9.58253 9.3833,-10.49056c0.91996,-0.90803 2.00844,-1.58741 3.24046,-1.6597c1.23202,-0.07229 2.534,0.6961 3.4555,1.51607c0.92149,0.81996 10.28843,10.09902 10.28843,10.09902c0.92186,0.9297 1.16174,2.58417 0.2185,3.74085c-0.94325,1.15668 -2.62934,1.00281 -3.43156,0.19924z" data-paper-data="{&quot;origPos&quot;:null,&quot;origRot&quot;:0,&quot;index&quot;:null}" opacity="0.42445"/><path d="M495.81667,66.65089c0,0 -0.72499,-0.75203 -1.37004,-0.72845c-0.64503,0.02357 -1.27564,0.82511 -1.27564,0.82511c0,0 -4.54315,5.27669 -7.81796,8.94626c-0.79986,0.89628 -2.61186,1.23734 -3.5703,0.20139c-0.95844,-1.03594 -0.68275,-2.7803 -0.02358,-3.73811c0.65917,-0.95781 8.46334,-9.58253 9.3833,-10.49056c0.91996,-0.90803 2.00844,-1.58741 3.24046,-1.6597c1.23202,-0.07229 2.534,0.6961 3.4555,1.51607c0.92149,0.81996 10.28843,10.09902 10.28843,10.09902c0.92186,0.9297 1.16174,2.58417 0.2185,3.74086c-0.94325,1.15668 -2.62934,1.00281 -3.43156,0.19924z" data-paper-data="{&quot;origPos&quot;:null,&quot;origRot&quot;:0,&quot;index&quot;:null}" opacity="0.42445"/></g></g></g></svg>