<svg version="1.1" xmlns="http://www.w3.org/2000/svg" xmlns:xlink="http://www.w3.org/1999/xlink" width="901.42518" height="415.75877" viewBox="0,0,901.42518,415.75877"><defs><linearGradient x1="120.69925" y1="119.09001" x2="120.69925" y2="333.00255" gradientUnits="userSpaceOnUse" id="color-1"><stop offset="0" stop-color="#005236"/><stop offset="1" stop-color="#006f4a"/></linearGradient><linearGradient x1="542.55303" y1="61.29366" x2="542.55303" y2="174.83716" gradientUnits="userSpaceOnUse" id="color-2"><stop offset="0" stop-color="#ff926d"/><stop offset="1" stop-color="#ff264a"/></linearGradient><linearGradient x1="478.26624" y1="182.67671" x2="478.26624" y2="237.18546" gradientUnits="userSpaceOnUse" id="color-3"><stop offset="0" stop-color="#fc3464"/><stop offset="1" stop-color="#f62e63"/></linearGradient></defs><g transform="translate(269.92295,-61.29365)"><g data-paper-data="{&quot;isPaintingLayer&quot;:true}" stroke-miterlimit="10" stroke-dasharray="" stroke-dashoffset="0" style="mix-blend-mode: normal"><path d="M-9.18063,333.00255v-213.91254h259.75976v213.91254z" data-paper-data="{&quot;origPos&quot;:null}" fill="url(#color-1)" fill-rule="nonzero" stroke="none" stroke-width="0" stroke-linecap="butt" stroke-linejoin="miter"/><g data-paper-data="{&quot;origPos&quot;:null}" fill-rule="nonzero" stroke-linejoin="miter"><g data-paper-data="{&quot;origPos&quot;:null}"><path d="M479.58972,265.80681c0,0 -3.55608,-0.36456 -5.00559,-1.88219c-1.44952,-1.51763 -1.49204,-4.92076 -1.49204,-4.92076l-0.28251,-28.22366l13.56909,2.04827l0.04522,16.41478c0,0 0.23496,1.34399 0.86503,1.96479c0.63007,0.6208 2.00332,0.86135 2.00332,0.86135h20.42249v13.73743z" data-paper-data="{&quot;origPos&quot;:null,&quot;index&quot;:null}" fill="#9e233c" stroke="none" stroke-width="0" stroke-linecap="butt"/><path d="M559.59244,217.75875v-13.73743h21.25c0,0 1.37324,-0.24054 2.00331,-0.86134c0.63007,-0.6208 0.86504,-1.96479 0.86504,-1.96479l0.04522,-16.41478l12.19001,-2.04826l0.26906,28.22365c0,0 -0.04253,3.40313 -1.49204,4.92076c-1.44951,1.51763 -5.00559,1.88219 -5.00559,1.88219z" data-paper-data="{&quot;origPos&quot;:null}" fill="#93133d" stroke="none" stroke-width="0" stroke-linecap="butt"/><g data-paper-data="{&quot;origPos&quot;:null}"><path d="M505.10333,296.92306v-123.12806h59v123.12806z" data-paper-data="{&quot;origPos&quot;:null}" fill="#95153c" stroke="none" stroke-width="0" stroke-linecap="butt"/><path d="M552.78842,296.34047l-0.24843,-121.09288l11.74843,-1.01121c0,0 0,36.33432 0,58.94292c0,24.64945 0,63.16118 0,63.16118z" data-paper-data="{&quot;origPos&quot;:null}" fill="#88143c" stroke="none" stroke-width="0" stroke-linecap="butt"/><path d="M504.78841,295.32288v-121.09288h11.74843l-0.24843,121.09288z" data-paper-data="{&quot;origPos&quot;:null}" fill="#88143c" stroke="none" stroke-width="0" stroke-linecap="butt"/><path d="M516.59085,186.2902v-12.46863h35.7453v12.46863z" data-paper-data="{&quot;origPos&quot;:null}" fill="#830e37" stroke="none" stroke-width="0" stroke-linecap="butt"/><path d="M552.33459,186.543v-12.71984h12.00157v12.71984z" data-paper-data="{&quot;origPos&quot;:null}" fill="#7a1039" stroke="none" stroke-width="0" stroke-linecap="butt"/><path d="M504.98236,186.2886v-12.21105h11.7547v12.21105z" data-paper-data="{&quot;origPos&quot;:null}" fill="#7a1039" stroke="none" stroke-width="0" stroke-linecap="butt"/><path d="M583.83615,186.03421l-0.24843,-12.71984h12.25l0.24843,12.71984z" data-paper-data="{&quot;origPos&quot;:null}" fill="#7a1039" stroke="none" stroke-width="0" stroke-linecap="butt"/><path d="M521.71244,240.78476v-40.01243" data-paper-data="{&quot;origPos&quot;:null}" fill="none" stroke="#a31a40" stroke-width="10" stroke-linecap="round"/><path d="M547.35574,288.20459v-40.01243" data-paper-data="{&quot;origPos&quot;:null}" fill="none" stroke="#ac2841" stroke-width="10" stroke-linecap="round"/><path d="M546.73774,220.46516v-6.02647" data-paper-data="{&quot;origPos&quot;:null}" fill="none" stroke="#ac2841" stroke-width="10" stroke-linecap="round"/></g><path d="M473.18404,247.20983v-12.71984h13.02918v12.71984z" data-paper-data="{&quot;origPos&quot;:null}" fill="#7a1039" stroke="none" stroke-width="0" stroke-linecap="butt"/></g><g data-paper-data="{&quot;origPos&quot;:null}" stroke="none" stroke-width="0" stroke-linecap="butt"><path d="M457.92637,155.58228v-64.19425c0,0 0.83604,-13.48837 8.52429,-21.57008c7.4656,-7.84766 20.98719,-8.07565 20.98719,-8.07565l110.36715,-0.44865c0,0 13.50376,0.4813 21.43584,9.42159c6.23383,7.02617 7.33157,18.46163 7.33157,18.46163l0.60729,69.94104l-21.23725,15.71924l-131.08605,-0.36956z" data-paper-data="{&quot;origPos&quot;:null}" fill="url(#color-2)"/><path d="M494.35524,87.20882c0,-4.21227 3.41472,-7.627 7.627,-7.627c4.21228,0 7.627,3.41472 7.627,7.627c0,4.21228 -3.41473,7.627 -7.627,7.627c-4.21228,0 -7.627,-3.41472 -7.627,-7.627z" data-paper-data="{&quot;origPos&quot;:null}" fill="#ff9d73"/><path d="M580.49546,95.50879c0,-2.6017 2.10909,-4.71079 4.71079,-4.71079c2.6017,0 4.71079,2.10909 4.71079,4.71079c0,2.6017 -2.10909,4.7108 -4.71079,4.7108c-2.6017,0 -4.71079,-2.1091 -4.71079,-4.7108z" data-paper-data="{&quot;origPos&quot;:null}" fill="#ff886b"/><path d="M490.31742,131.20654c0,-5.2034 4.21819,-9.42159 9.42158,-9.42159c5.2034,0 9.42159,4.21819 9.42159,9.42159c0,5.2034 -4.21819,9.42158 -9.42159,9.42158c-5.2034,0 -9.42158,-4.21818 -9.42158,-9.42158z" data-paper-data="{&quot;origPos&quot;:null}" fill="#ff274c"/><path d="M536.07941,125.14981c0,-4.08839 3.31429,-7.40268 7.40268,-7.40268c4.08838,0 7.40267,3.31429 7.40267,7.40268c0,4.08839 -3.31429,7.40268 -7.40267,7.40268c-4.08838,0 -7.40268,-3.31429 -7.40268,-7.40268z" data-paper-data="{&quot;origPos&quot;:null}" fill="#ff274c"/><path d="M580.93226,148.52944c0,-3.22115 2.61126,-5.83241 5.83241,-5.83241c3.22115,0 5.83241,2.61126 5.83241,5.83241c0,3.22115 -2.61126,5.83241 -5.83241,5.83241c-3.22115,0 -5.83241,-2.61126 -5.83241,-5.83241z" data-paper-data="{&quot;origPos&quot;:null}" fill="#fc3464"/><path d="M454.50006,156.72116c0,-4.08838 3.31429,-7.40267 7.40268,-7.40267c4.08839,0 7.40268,3.31429 7.40268,7.40267c0,4.08838 -3.31429,7.40268 -7.40268,7.40268c-4.08839,0 -7.40268,-3.31429 -7.40268,-7.40268z" data-paper-data="{&quot;origPos&quot;:null}" fill="#fd3357"/><path d="M462.64059,168.45086c0,-5.07951 4.11775,-9.19726 9.19726,-9.19726c5.07951,0 9.19727,4.11775 9.19727,9.19726c0,5.07951 -4.11776,9.19726 -9.19727,9.19726c-5.07951,0 -9.19726,-4.11775 -9.19726,-9.19726z" data-paper-data="{&quot;origPos&quot;:null}" fill="#f51a4a"/><path d="M510.19716,171.59139c0,-4.08838 3.31429,-7.40267 7.40268,-7.40267c4.08838,0 7.40267,3.31429 7.40267,7.40267c0,4.08838 -3.31429,7.40267 -7.40267,7.40267c-4.08838,0 -7.40268,-3.31429 -7.40268,-7.40267z" data-paper-data="{&quot;origPos&quot;:null}" fill="#ff294b"/><path d="M523.51728,169.34153c0,-6.19452 5.02166,-11.21617 11.21618,-11.21617c6.19452,0 11.21617,5.02165 11.21617,11.21617c0,6.19452 -5.02165,11.21618 -11.21617,11.21618c-6.19452,0 -11.21618,-5.02166 -11.21618,-11.21618z" data-paper-data="{&quot;origPos&quot;:null}" fill="#f51a4a"/><path d="M596.52214,170.6352c0,-4.33616 3.51516,-7.85132 7.85133,-7.85132c4.33617,0 7.85132,3.51516 7.85132,7.85132c0,4.33616 -3.51515,7.85133 -7.85132,7.85133c-4.33616,0 -7.85133,-3.51516 -7.85133,-7.85133z" data-paper-data="{&quot;origPos&quot;:null}" fill="#f51a4a"/><path d="M617.52078,146.52141c0,-3.86087 3.12985,-6.99072 6.99072,-6.99072c3.86087,0 6.99073,3.12985 6.99073,6.99072c0,3.86087 -3.12986,6.99073 -6.99073,6.99073c-3.86087,0 -6.99072,-3.12986 -6.99072,-6.99073z" data-paper-data="{&quot;origPos&quot;:null}" fill="#ff465f"/><path d="M609.01873,161.38753c0,-5.76205 4.67106,-10.43311 10.43311,-10.43311c5.76205,0 10.43311,4.67106 10.43311,10.43311c0,5.76205 -4.67106,10.43312 -10.43311,10.43312c-5.76205,0 -10.43311,-4.67107 -10.43311,-10.43312z" data-paper-data="{&quot;origPos&quot;:null}" fill="#ff354f"/></g><g data-paper-data="{&quot;origPos&quot;:null}" stroke="none" stroke-width="0" stroke-linecap="butt"><path d="M437.38958,233.94178l0.25,-36.81769c0,0 0.40135,-6.47536 4.09225,-10.35514c3.584,-3.76742 10.07531,-3.87687 10.07531,-3.87687l52.98388,-0.21538c0,0 6.48274,0.23106 10.29069,4.52302c2.99267,3.37305 3.51967,8.86286 3.51967,8.86286l0.29154,33.57654l-10.69535,7.54633l-62.43039,-0.17741z" data-paper-data="{&quot;origPos&quot;:null}" fill="url(#color-3)"/><path d="M457.10682,198.82079c0,-3.52081 2.85418,-6.375 6.375,-6.375c3.52082,0 6.375,2.85419 6.375,6.375c0,3.52081 -2.85418,6.375 -6.375,6.375c-3.52082,0 -6.375,-2.85419 -6.375,-6.375z" data-paper-data="{&quot;origPos&quot;:null}" fill="#f94e67"/><path d="M437.35682,234.63933c0,-3.79696 3.07804,-6.875 6.875,-6.875c3.79696,0 6.875,3.07804 6.875,6.875c0,3.79696 -3.07804,6.875 -6.875,6.875c-3.79696,0 -6.875,-3.07804 -6.875,-6.875z" data-paper-data="{&quot;origPos&quot;:null}" fill="#f62e63"/><path d="M493.35682,192.94579c0,-2.34721 1.90279,-4.25 4.25,-4.25c2.34721,0 4.25,1.90279 4.25,4.25c0,2.34721 -1.90279,4.25 -4.25,4.25c-2.34721,0 -4.25,-1.90279 -4.25,-4.25z" fill="#f94e67"/><path d="M432.85682,222.19579c0,-3.72792 3.02208,-6.75 6.75,-6.75c3.72792,0 6.75,3.02208 6.75,6.75c0,3.72792 -3.02208,6.75 -6.75,6.75c-3.72792,0 -6.75,-3.02208 -6.75,-6.75z" data-paper-data="{&quot;origPos&quot;:null}" fill="#f94e67"/><path d="M464.90218,233.60838c0,-4.83249 3.91751,-8.75 8.75,-8.75c4.83249,0 8.75,3.91751 8.75,8.75c0,4.83249 -3.91751,8.75 -8.75,8.75c-4.83249,0 -8.75,-3.91751 -8.75,-8.75z" data-paper-data="{&quot;origPos&quot;:null}" fill="#f01552"/><path d="M497.35682,234.88933c0,-3.79696 3.07804,-6.875 6.875,-6.875c3.79696,0 6.875,3.07804 6.875,6.875c0,3.79696 -3.07804,6.875 -6.875,6.875c-3.79696,0 -6.875,-3.07804 -6.875,-6.875z" data-paper-data="{&quot;origPos&quot;:null}" fill="#f62e63"/><path d="M502.90218,226.10838c0,-4.83249 3.91751,-8.75 8.75,-8.75c4.8325,0 8.75,3.9175 8.75,8.75c0,4.83249 -3.91751,8.75 -8.75,8.75c-4.83249,0 -8.75,-3.91751 -8.75,-8.75z" data-paper-data="{&quot;origPos&quot;:null}" fill="#f01552"/></g></g><path d="M-9.25784,467.21129v-109.68128c0,0 50.98092,-2.33364 132.49987,-2.33364c60.21812,0 11.46561,-48.74901 71.68314,-48.34937c80.31151,0.53302 406.1418,-5.31513 406.1418,-5.31513l-2.906,175.52055z" data-paper-data="{&quot;origPos&quot;:null}" fill="#03a63b" fill-rule="nonzero" stroke="none" stroke-width="0" stroke-linecap="butt" stroke-linejoin="miter"/><path d="" data-paper-data="{&quot;origPos&quot;:null,&quot;index&quot;:null}" fill="#11b738" fill-rule="nonzero" stroke="none" stroke-width="0" stroke-linecap="butt" stroke-linejoin="miter"/><path d="" data-paper-data="{&quot;origPos&quot;:null,&quot;index&quot;:null}" fill="#7aff75" fill-rule="nonzero" stroke="none" stroke-width="0" stroke-linecap="butt" stroke-linejoin="miter"/><path d="" data-paper-data="{&quot;origPos&quot;:null}" fill="#2568a7" fill-rule="nonzero" stroke="none" stroke-width="0" stroke-linecap="butt" stroke-linejoin="miter"/><path d="" data-paper-data="{&quot;origPos&quot;:null}" fill="#1c4974" fill-rule="nonzero" stroke="none" stroke-width="0" stroke-linecap="butt" stroke-linejoin="miter"/><path d="" data-paper-data="{&quot;origPos&quot;:null}" fill="#1c4974" fill-rule="nonzero" stroke="none" stroke-width="0" stroke-linecap="butt" stroke-linejoin="miter"/><path d="" data-paper-data="{&quot;origPos&quot;:null}" fill="none" fill-rule="nonzero" stroke="#205485" stroke-width="35" stroke-linecap="round" stroke-linejoin="miter"/><path d="" data-paper-data="{&quot;origPos&quot;:null}" fill="none" fill-rule="nonzero" stroke="#235d92" stroke-width="35" stroke-linecap="round" stroke-linejoin="miter"/><path d="" data-paper-data="{&quot;origPos&quot;:null}" fill="#7aff75" fill-rule="nonzero" stroke="none" stroke-width="0" stroke-linecap="butt" stroke-linejoin="miter"/><path d="" data-paper-data="{&quot;origPos&quot;:null,&quot;index&quot;:null}" fill="#21548f" fill-rule="nonzero" stroke="none" stroke-width="0" stroke-linecap="butt" stroke-linejoin="miter"/><path d="" data-paper-data="{&quot;origPos&quot;:null}" fill="#11b738" fill-rule="nonzero" stroke="none" stroke-width="0" stroke-linecap="butt" stroke-linejoin="miter"/><path d="" data-paper-data="{&quot;origPos&quot;:null}" fill="#1c4974" fill-rule="nonzero" stroke="none" stroke-width="0" stroke-linecap="butt" stroke-linejoin="miter"/><path d="" data-paper-data="{&quot;origPos&quot;:null,&quot;index&quot;:null}" fill="none" fill-rule="nonzero" stroke="#205485" stroke-width="35" stroke-linecap="round" stroke-linejoin="miter"/><path d="" data-paper-data="{&quot;origPos&quot;:null}" fill="#205485" fill-rule="nonzero" stroke="none" stroke-width="0" stroke-linecap="butt" stroke-linejoin="miter"/><path d="" data-paper-data="{&quot;origPos&quot;:null}" fill="#2568a7" fill-rule="nonzero" stroke="none" stroke-width="0" stroke-linecap="butt" stroke-linejoin="miter"/><path d="" data-paper-data="{&quot;origPos&quot;:null}" fill="none" fill-rule="nonzero" stroke="#11b738" stroke-width="15" stroke-linecap="round" stroke-linejoin="miter"/><path d="" data-paper-data="{&quot;origPos&quot;:null}" fill="none" fill-rule="nonzero" stroke="#2568a7" stroke-width="15" stroke-linecap="round" stroke-linejoin="miter"/><path d="" data-paper-data="{&quot;origPos&quot;:null}" fill="none" fill-rule="nonzero" stroke="none" stroke-width="0" stroke-linecap="butt" stroke-linejoin="miter"/><path d="M199.75799,303.88945v0v0v0l-49.85707,38.95307" data-paper-data="{&quot;origPos&quot;:null}" fill="none" fill-rule="nonzero" stroke="#48c900" stroke-width="28" stroke-linecap="round" stroke-linejoin="miter"/><path d="M145.42009,325.05956l45.18079,-35.37167" data-paper-data="{&quot;origPos&quot;:null}" fill="none" fill-rule="nonzero" stroke="#b4ff53" stroke-width="6.5" stroke-linecap="round" stroke-linejoin="miter"/><path d="M6.99606,329.06636h142.72147l-0.21745,28.90699l-142.68969,1.99378z" data-paper-data="{&quot;origPos&quot;:null}" fill="#48c900" fill-rule="nonzero" stroke="none" stroke-width="0" stroke-linecap="butt" stroke-linejoin="miter"/><path d="M146.43714,322.55456c0,0 0.10437,3.50346 -0.34004,4.81142c-0.44186,1.30044 -1.19056,1.7312 -1.96707,1.7312c-0.30776,0 -0.97186,0 -1.27963,0c-0.9233,0 -84.23687,0 -138.15276,0c-0.71902,0 -1.57285,-0.58512 -1.97213,-1.80293c-0.45672,-1.39299 -0.37615,-4.90636 -0.37615,-4.90636z" data-paper-data="{&quot;origPos&quot;:null,&quot;index&quot;:null}" fill="#b4ff53" fill-rule="nonzero" stroke="none" stroke-width="0" stroke-linecap="butt" stroke-linejoin="miter"/><path d="M364.41427,388.12133h-50.91208" data-paper-data="{&quot;origPos&quot;:null}" fill="none" fill-rule="nonzero" stroke="#04b742" stroke-width="35" stroke-linecap="round" stroke-linejoin="miter"/><path d="M-117.3488,464.00443v-345.34535h127.61048l-0.66667,227.22164c0,0 -0.07822,5.53526 2.31668,8.18021c2.39491,2.64495 9.15045,3.08417 9.15045,3.08417l140.07286,-0.63522l-150.87333,107.49455z" data-paper-data="{&quot;origPos&quot;:null}" fill="#03a63b" fill-rule="nonzero" stroke="none" stroke-width="0" stroke-linecap="butt" stroke-linejoin="miter"/><path d="M103.20609,343.38595h-33.04564" data-paper-data="{&quot;origPos&quot;:null}" fill="none" fill-rule="nonzero" stroke="#3dc400" stroke-width="26.5" stroke-linecap="round" stroke-linejoin="miter"/><path d="M550.14575,368.94819v-111.11111h78.07808v111.11111z" fill="none" fill-rule="nonzero" stroke="none" stroke-width="0" stroke-linecap="butt" stroke-linejoin="miter"/><path d="M-269.92295,469.00443v-345.34535h159.45022l-0.83301,227.43832c0,0 -0.09774,5.53526 2.89471,8.18021c2.99246,2.64495 11.43355,3.08417 11.43355,3.08417l-13.49527,106.64265z" data-paper-data="{&quot;origPos&quot;:null}" fill="#03a63b" fill-rule="nonzero" stroke="none" stroke-width="0" stroke-linecap="butt" stroke-linejoin="miter"/><path d="M624.05241,291.28316l0.58182,28.04046l-431.3773,2.93241c0,0 -0.06301,-24.27166 0.34508,-32.31073c0.19789,-3.8983 430.4504,1.33786 430.4504,1.33786z" data-paper-data="{&quot;origPos&quot;:null}" fill="#48c900" fill-rule="nonzero" stroke="none" stroke-width="0" stroke-linecap="butt" stroke-linejoin="miter"/><path d="M191.06801,292.22829c0,0 -0.70362,-5.76567 0.80736,-5.76567c113.30104,0 424.68456,-0.48076 426.62481,-0.48076c0.64675,0 2.04232,0 2.68907,0c1.6318,0 3.20515,0.37018 4.13369,1.48772c0.9339,1.124 0.71457,4.13473 0.71457,4.13473z" data-paper-data="{&quot;origPos&quot;:null}" fill="#b4ff53" fill-rule="nonzero" stroke="none" stroke-width="0" stroke-linecap="butt" stroke-linejoin="miter"/><path d="M-104.36091,270.50266h68.52631" data-paper-data="{&quot;origPos&quot;:null}" fill="none" fill-rule="nonzero" stroke="#04b742" stroke-width="35" stroke-linecap="round" stroke-linejoin="miter"/><path d="M56.27183,412.57609h-69.82772" data-paper-data="{&quot;origPos&quot;:null,&quot;index&quot;:null}" fill="none" fill-rule="nonzero" stroke="#02af3d" stroke-width="35" stroke-linecap="round" stroke-linejoin="miter"/><path d="M44.35157,412.78442h65.79249" data-paper-data="{&quot;origPos&quot;:null}" fill="none" fill-rule="nonzero" stroke="#04b742" stroke-width="35" stroke-linecap="round" stroke-linejoin="miter"/><path d="M478.6145,306.85592h-55.04564" data-paper-data="{&quot;origPos&quot;:null}" fill="none" fill-rule="nonzero" stroke="#3dc400" stroke-width="29" stroke-linecap="round" stroke-linejoin="miter"/><g fill="#ffffff" fill-rule="evenodd" stroke="none" stroke-width="1" stroke-linecap="round" stroke-linejoin="round"><path d="M374.43945,274.48136c0.79615,0.80959 0.93448,2.49703 -0.23084,3.42958c-1.16533,0.93255 -2.81752,0.67744 -3.73869,-0.25295c0,0 -9.19237,-9.45203 -10.00381,-10.38103c-0.81144,-0.92901 -1.56781,-2.23802 -1.48417,-3.46932c0.08364,-1.2313 0.77301,-2.31347 1.68948,-3.22503c0.91647,-0.91156 9.61272,-8.63594 10.57656,-9.28626c0.96384,-0.65031 2.71065,-0.90992 3.73772,0.05802c1.02707,0.96794 0.66934,2.77672 -0.23427,3.56829c-3.69958,3.24086 -9.0179,7.73521 -9.0179,7.73521c0,0 -0.80732,0.62319 -0.83683,1.26798c-0.02952,0.6448 0.7158,1.37669 0.7158,1.37669z" data-paper-data="{&quot;origPos&quot;:null,&quot;origRot&quot;:0,&quot;index&quot;:null}" opacity="0.42445"/><path d="M355.20708,274.01046c0.79615,0.80959 0.93448,2.49703 -0.23084,3.42958c-1.16532,0.93255 -2.81751,0.67744 -3.73868,-0.25295c0,0 -9.19237,-9.45203 -10.00381,-10.38103c-0.81144,-0.92901 -1.56781,-2.23802 -1.48417,-3.46932c0.08364,-1.2313 0.77301,-2.31347 1.68948,-3.22503c0.91647,-0.91156 9.61272,-8.63594 10.57656,-9.28626c0.96384,-0.65031 2.71066,-0.90992 3.73773,0.05802c1.02708,0.96794 0.66934,2.77672 -0.23427,3.56829c-3.69958,3.24086 -9.0179,7.73521 -9.0179,7.73521c0,0 -0.80732,0.62319 -0.83683,1.26798c-0.02952,0.6448 0.7158,1.37669 0.7158,1.37669z" data-paper-data="{&quot;origPos&quot;:null,&quot;origRot&quot;:0,&quot;index&quot;:null}" opacity="0.42445"/><path d="M335.97475,273.53955c0.79615,0.80959 0.93448,2.49703 -0.23084,3.42958c-1.16533,0.93255 -2.81752,0.67744 -3.73869,-0.25295c0,0 -9.19237,-9.45203 -10.00381,-10.38103c-0.81144,-0.92901 -1.56781,-2.23802 -1.48417,-3.46932c0.08364,-1.2313 0.77301,-2.31347 1.68948,-3.22503c0.91647,-0.91156 9.61272,-8.63594 10.57656,-9.28626c0.96384,-0.65031 2.71066,-0.90992 3.73773,0.05802c1.02708,0.96794 0.66934,2.77672 -0.23427,3.56829c-3.69958,3.24086 -9.0179,7.73521 -9.0179,7.73521c0,0 -0.80732,0.62319 -0.83683,1.26798c-0.02952,0.6448 0.7158,1.37669 0.7158,1.37669z" data-paper-data="{&quot;origPos&quot;:null,&quot;origRot&quot;:0,&quot;index&quot;:null}" opacity="0.42445"/></g></g></g></svg>