<svg version="1.1" xmlns="http://www.w3.org/2000/svg" xmlns:xlink="http://www.w3.org/1999/xlink" width="88.61589" height="369.49741" viewBox="0,0,88.61589,369.49741"><g transform="translate(-93.00911,-37.13206)"><g data-paper-data="{&quot;isPaintingLayer&quot;:true}" fill="none" fill-rule="nonzero" stroke="none" stroke-width="none" stroke-linecap="butt" stroke-linejoin="miter" stroke-miterlimit="10" stroke-dasharray="" stroke-dashoffset="0" font-family="none" font-weight="none" font-size="none" text-anchor="none" style="mix-blend-mode: normal"><path d="M159.15332,37.38206c0,-0.13807 0.10559,-0.25 0.23584,-0.25c0.13025,0 0.23584,0.11193 0.23584,0.25c0,0.13807 -0.10559,0.25 -0.23584,0.25c-0.13025,0 -0.23584,-0.11193 -0.23584,-0.25z" fill="#ffffff" stroke-width="0.5"/><g data-paper-data="{&quot;origPos&quot;:null}" fill="#fe6780" stroke-width="0"><path d="M114.47295,392.07099c1.53717,6.94668 -2.58618,16.06308 -8.22464,14.34779c-5.63656,-1.7147 -11.34613,-8.47431 -12.88329,-15.42098c-1.53717,-6.94668 2.0529,-12.59785 7.91612,-12.40489c5.86322,0.19296 11.65465,6.53141 13.19182,13.47808z" data-paper-data="{&quot;origPos&quot;:null,&quot;origRot&quot;:0}"/><path d="M113.99523,378.5048c5.86322,-0.19296 9.45329,5.45821 7.91612,12.40489c-1.53717,6.94668 -8.94926,14.95534 -14.31382,15.71467c-2.05627,-0.20056 -3.21981,-0.85157 -4.61467,-2.46564c-0.79158,-0.91598 -1.20306,-1.47462 -1.77215,-2.56055c-1.70726,-3.25776 -1.49335,-5.09557 -0.61508,-9.06464c1.53717,-6.94668 7.53636,-13.83576 13.39959,-14.02872z" data-paper-data="{&quot;origPos&quot;:null,&quot;origRot&quot;:0,&quot;index&quot;:null}"/></g><path d="M181.15333,37.38206c0,-0.13807 0.10559,-0.25 0.23584,-0.25c0.13025,0 0.23584,0.11193 0.23584,0.25c0,0.13807 -0.10559,0.25 -0.23584,0.25c-0.13025,0 -0.23584,-0.11193 -0.23584,-0.25z" fill="#ffffff" stroke-width="0.5"/><g data-paper-data="{&quot;origPos&quot;:null}" fill="#fe6780" stroke-width="0"><path d="M136.47296,392.07099c1.53717,6.94668 -2.58618,16.06308 -8.22464,14.34779c-5.63656,-1.7147 -11.34613,-8.47431 -12.88329,-15.42098c-1.53717,-6.94668 2.0529,-12.59785 7.91612,-12.40489c5.86322,0.19296 11.65465,6.53141 13.19182,13.47808z" data-paper-data="{&quot;origPos&quot;:null,&quot;origRot&quot;:0}"/><path d="M135.99523,378.5048c5.86322,-0.19296 9.45329,5.45821 7.91612,12.40489c-1.53717,6.94668 -8.94926,14.95534 -14.31382,15.71467c-2.05627,-0.20056 -3.21981,-0.85157 -4.61467,-2.46564c-0.79158,-0.91598 -1.20306,-1.47462 -1.77215,-2.56055c-1.70726,-3.25776 -1.49335,-5.09557 -0.61508,-9.06464c1.53717,-6.94668 7.53636,-13.83576 13.39959,-14.02872z" data-paper-data="{&quot;origPos&quot;:null,&quot;origRot&quot;:0,&quot;index&quot;:null}"/></g></g></g></svg>