<svg version="1.1" xmlns="http://www.w3.org/2000/svg" xmlns:xlink="http://www.w3.org/1999/xlink" width="841.74381" height="413.02102"><defs><linearGradient x1="276.19633" y1="124.0973" x2="276.19633" y2="153.16446" gradientUnits="userSpaceOnUse" id="color-1"><stop offset="0" stop-color="#ffe9d8"/><stop offset="1" stop-color="#f7cbd0"/></linearGradient><linearGradient x1="312.93494" y1="124.02258" x2="312.93494" y2="153.08973" gradientUnits="userSpaceOnUse" id="color-2"><stop offset="0" stop-color="#ffe9d8"/><stop offset="1" stop-color="#f7cbd0"/></linearGradient><linearGradient x1="348.78649" y1="123.94784" x2="348.78649" y2="153.015" gradientUnits="userSpaceOnUse" id="color-3"><stop offset="0" stop-color="#ffe9d8"/><stop offset="1" stop-color="#f7cbd0"/></linearGradient><linearGradient x1="387.12405" y1="128.47184" x2="387.12405" y2="159.71385" gradientUnits="userSpaceOnUse" id="color-4"><stop offset="0" stop-color="#fde3d6"/><stop offset="1" stop-color="#f7cbd0"/></linearGradient><linearGradient x1="255.49387" y1="135.91438" x2="255.49387" y2="166.07471" gradientUnits="userSpaceOnUse" id="color-5"><stop offset="0" stop-color="#fde0d6"/><stop offset="1" stop-color="#f7cbd0"/></linearGradient><linearGradient x1="367.37473" y1="135.2141" x2="367.37473" y2="165.37445" gradientUnits="userSpaceOnUse" id="color-6"><stop offset="0" stop-color="#fbdcd4"/><stop offset="1" stop-color="#f7cbd0"/></linearGradient><linearGradient x1="215.83691" y1="161.30447" x2="215.83691" y2="191.71448" gradientUnits="userSpaceOnUse" id="color-7"><stop offset="0" stop-color="#ffe9d8"/><stop offset="1" stop-color="#f7cbd0"/></linearGradient><linearGradient x1="253.3447" y1="161.22626" x2="253.3447" y2="191.63627" gradientUnits="userSpaceOnUse" id="color-8"><stop offset="0" stop-color="#ffe9d8"/><stop offset="1" stop-color="#f7cbd0"/></linearGradient><linearGradient x1="291.78056" y1="161.1481" x2="291.78056" y2="191.5581" gradientUnits="userSpaceOnUse" id="color-9"><stop offset="0" stop-color="#ffe9d8"/><stop offset="1" stop-color="#f7cbd0"/></linearGradient><linearGradient x1="330.21646" y1="161.06992" x2="330.21646" y2="191.47992" gradientUnits="userSpaceOnUse" id="color-10"><stop offset="0" stop-color="#ffe9d8"/><stop offset="1" stop-color="#f7cbd0"/></linearGradient><linearGradient x1="367.72425" y1="160.99172" x2="367.72425" y2="191.40174" gradientUnits="userSpaceOnUse" id="color-11"><stop offset="0" stop-color="#ffe9d8"/><stop offset="1" stop-color="#f7cbd0"/></linearGradient><linearGradient x1="406.62415" y1="161.37755" x2="406.62415" y2="191.78758" gradientUnits="userSpaceOnUse" id="color-12"><stop offset="0" stop-color="#ffe9d8"/><stop offset="1" stop-color="#f7cbd0"/></linearGradient><linearGradient x1="293.45338" y1="165.95928" x2="293.45338" y2="198.64461" gradientUnits="userSpaceOnUse" id="color-13"><stop offset="0" stop-color="#fde3d6"/><stop offset="1" stop-color="#f7cbd0"/></linearGradient><linearGradient x1="190.29596" y1="172.69377" x2="190.29596" y2="204.24747" gradientUnits="userSpaceOnUse" id="color-14"><stop offset="0" stop-color="#fde0d6"/><stop offset="1" stop-color="#f7cbd0"/></linearGradient><linearGradient x1="429.70174" y1="171.82526" x2="429.70174" y2="203.37895" gradientUnits="userSpaceOnUse" id="color-15"><stop offset="0" stop-color="#fbdcd4"/><stop offset="1" stop-color="#f7cbd0"/></linearGradient><linearGradient x1="406.48254" y1="162.51365" x2="406.48254" y2="191.58081" gradientUnits="userSpaceOnUse" id="color-16"><stop offset="0" stop-color="#ffe9d8"/><stop offset="1" stop-color="#f7cbd0"/></linearGradient><linearGradient x1="198.74661" y1="198.46955" x2="198.74661" y2="228.87956" gradientUnits="userSpaceOnUse" id="color-17"><stop offset="0" stop-color="#ffe9d8"/><stop offset="1" stop-color="#f7cbd0"/></linearGradient><linearGradient x1="237.18245" y1="198.39139" x2="237.18245" y2="228.80139" gradientUnits="userSpaceOnUse" id="color-18"><stop offset="0" stop-color="#ffe9d8"/><stop offset="1" stop-color="#f7cbd0"/></linearGradient><linearGradient x1="275.61834" y1="198.31321" x2="275.61834" y2="228.72321" gradientUnits="userSpaceOnUse" id="color-19"><stop offset="0" stop-color="#ffe9d8"/><stop offset="1" stop-color="#f7cbd0"/></linearGradient><linearGradient x1="313.12613" y1="198.23501" x2="313.12613" y2="228.64503" gradientUnits="userSpaceOnUse" id="color-20"><stop offset="0" stop-color="#ffe9d8"/><stop offset="1" stop-color="#f7cbd0"/></linearGradient><linearGradient x1="238.85527" y1="203.20257" x2="238.85527" y2="235.8879" gradientUnits="userSpaceOnUse" id="color-21"><stop offset="0" stop-color="#fde3d6"/><stop offset="1" stop-color="#f7cbd0"/></linearGradient><linearGradient x1="176.19785" y1="209.93706" x2="176.19785" y2="241.49076" gradientUnits="userSpaceOnUse" id="color-22"><stop offset="0" stop-color="#fde0d6"/><stop offset="1" stop-color="#f7cbd0"/></linearGradient><linearGradient x1="334.10362" y1="209.06855" x2="334.10362" y2="240.62224" gradientUnits="userSpaceOnUse" id="color-23"><stop offset="0" stop-color="#fbdcd4"/><stop offset="1" stop-color="#f7cbd0"/></linearGradient><linearGradient x1="436.06161" y1="196.97418" x2="436.06161" y2="227.38419" gradientUnits="userSpaceOnUse" id="color-24"><stop offset="0" stop-color="#ffe9d8"/><stop offset="1" stop-color="#f7cbd0"/></linearGradient><linearGradient x1="473.56944" y1="196.89597" x2="473.56944" y2="227.30598" gradientUnits="userSpaceOnUse" id="color-25"><stop offset="0" stop-color="#ffe9d8"/><stop offset="1" stop-color="#f7cbd0"/></linearGradient><linearGradient x1="512.00528" y1="196.81781" x2="512.00528" y2="227.22781" gradientUnits="userSpaceOnUse" id="color-26"><stop offset="0" stop-color="#ffe9d8"/><stop offset="1" stop-color="#f7cbd0"/></linearGradient><linearGradient x1="550.44116" y1="196.73963" x2="550.44116" y2="227.14963" gradientUnits="userSpaceOnUse" id="color-27"><stop offset="0" stop-color="#ffe9d8"/><stop offset="1" stop-color="#f7cbd0"/></linearGradient><linearGradient x1="587.94895" y1="196.66143" x2="587.94895" y2="227.07145" gradientUnits="userSpaceOnUse" id="color-28"><stop offset="0" stop-color="#ffe9d8"/><stop offset="1" stop-color="#f7cbd0"/></linearGradient><linearGradient x1="626.84885" y1="197.04726" x2="626.84885" y2="227.45729" gradientUnits="userSpaceOnUse" id="color-29"><stop offset="0" stop-color="#ffe9d8"/><stop offset="1" stop-color="#f7cbd0"/></linearGradient><linearGradient x1="513.6781" y1="201.62899" x2="513.6781" y2="234.31432" gradientUnits="userSpaceOnUse" id="color-30"><stop offset="0" stop-color="#fde3d6"/><stop offset="1" stop-color="#f7cbd0"/></linearGradient><linearGradient x1="410.52068" y1="208.36348" x2="410.52068" y2="239.91718" gradientUnits="userSpaceOnUse" id="color-31"><stop offset="0" stop-color="#fde0d6"/><stop offset="1" stop-color="#f7cbd0"/></linearGradient><linearGradient x1="649.92647" y1="207.49497" x2="649.92647" y2="239.04866" gradientUnits="userSpaceOnUse" id="color-32"><stop offset="0" stop-color="#fbdcd4"/><stop offset="1" stop-color="#f7cbd0"/></linearGradient><linearGradient x1="626.70727" y1="198.18336" x2="626.70727" y2="227.25052" gradientUnits="userSpaceOnUse" id="color-33"><stop offset="0" stop-color="#ffe9d8"/><stop offset="1" stop-color="#f7cbd0"/></linearGradient><linearGradient x1="417.2423" y1="235.29603" x2="417.2423" y2="265.70604" gradientUnits="userSpaceOnUse" id="color-34"><stop offset="0" stop-color="#ffe9d8"/><stop offset="1" stop-color="#f7cbd0"/></linearGradient><linearGradient x1="454.7501" y1="235.21783" x2="454.7501" y2="265.62784" gradientUnits="userSpaceOnUse" id="color-35"><stop offset="0" stop-color="#ffe9d8"/><stop offset="1" stop-color="#f7cbd0"/></linearGradient><linearGradient x1="493.18597" y1="235.13967" x2="493.18597" y2="265.54967" gradientUnits="userSpaceOnUse" id="color-36"><stop offset="0" stop-color="#ffe9d8"/><stop offset="1" stop-color="#f7cbd0"/></linearGradient><linearGradient x1="531.62182" y1="235.06148" x2="531.62182" y2="265.47148" gradientUnits="userSpaceOnUse" id="color-37"><stop offset="0" stop-color="#ffe9d8"/><stop offset="1" stop-color="#f7cbd0"/></linearGradient><linearGradient x1="569.12964" y1="234.98328" x2="569.12964" y2="265.3933" gradientUnits="userSpaceOnUse" id="color-38"><stop offset="0" stop-color="#ffe9d8"/><stop offset="1" stop-color="#f7cbd0"/></linearGradient><linearGradient x1="608.02951" y1="235.36911" x2="608.02951" y2="265.77914" gradientUnits="userSpaceOnUse" id="color-39"><stop offset="0" stop-color="#ffe9d8"/><stop offset="1" stop-color="#f7cbd0"/></linearGradient><linearGradient x1="494.85879" y1="239.95084" x2="494.85879" y2="272.63617" gradientUnits="userSpaceOnUse" id="color-40"><stop offset="0" stop-color="#fde3d6"/><stop offset="1" stop-color="#f7cbd0"/></linearGradient><linearGradient x1="391.70135" y1="246.68534" x2="391.70135" y2="278.23903" gradientUnits="userSpaceOnUse" id="color-41"><stop offset="0" stop-color="#fde0d6"/><stop offset="1" stop-color="#f7cbd0"/></linearGradient><linearGradient x1="629.45184" y1="245.81682" x2="629.45184" y2="277.37051" gradientUnits="userSpaceOnUse" id="color-42"><stop offset="0" stop-color="#fbdcd4"/><stop offset="1" stop-color="#f7cbd0"/></linearGradient><linearGradient x1="607.88793" y1="236.50522" x2="607.88793" y2="265.57238" gradientUnits="userSpaceOnUse" id="color-43"><stop offset="0" stop-color="#ffe9d8"/><stop offset="1" stop-color="#f7cbd0"/></linearGradient><linearGradient x1="644.6265" y1="236.4305" x2="644.6265" y2="265.49765" gradientUnits="userSpaceOnUse" id="color-44"><stop offset="0" stop-color="#ffe9d8"/><stop offset="1" stop-color="#f7cbd0"/></linearGradient><linearGradient x1="681.36514" y1="236.35576" x2="681.36514" y2="265.42291" gradientUnits="userSpaceOnUse" id="color-45"><stop offset="0" stop-color="#ffe9d8"/><stop offset="1" stop-color="#f7cbd0"/></linearGradient><linearGradient x1="646.22547" y1="241.02922" x2="646.22547" y2="272.27123" gradientUnits="userSpaceOnUse" id="color-46"><stop offset="0" stop-color="#fde3d6"/><stop offset="1" stop-color="#f7cbd0"/></linearGradient><linearGradient x1="704.64297" y1="247.13615" x2="704.64297" y2="277.2965" gradientUnits="userSpaceOnUse" id="color-47"><stop offset="0" stop-color="#fbdcd4"/><stop offset="1" stop-color="#f7cbd0"/></linearGradient><linearGradient x1="358.56363" y1="273.74323" x2="358.56363" y2="304.15324" gradientUnits="userSpaceOnUse" id="color-48"><stop offset="0" stop-color="#ffe9d8"/><stop offset="1" stop-color="#f7cbd0"/></linearGradient><linearGradient x1="396.07144" y1="273.66503" x2="396.07144" y2="304.07504" gradientUnits="userSpaceOnUse" id="color-49"><stop offset="0" stop-color="#ffe9d8"/><stop offset="1" stop-color="#f7cbd0"/></linearGradient><linearGradient x1="434.5073" y1="273.58687" x2="434.5073" y2="303.99687" gradientUnits="userSpaceOnUse" id="color-50"><stop offset="0" stop-color="#ffe9d8"/><stop offset="1" stop-color="#f7cbd0"/></linearGradient><linearGradient x1="472.94318" y1="273.50868" x2="472.94318" y2="303.91868" gradientUnits="userSpaceOnUse" id="color-51"><stop offset="0" stop-color="#ffe9d8"/><stop offset="1" stop-color="#f7cbd0"/></linearGradient><linearGradient x1="510.45097" y1="273.43048" x2="510.45097" y2="303.8405" gradientUnits="userSpaceOnUse" id="color-52"><stop offset="0" stop-color="#ffe9d8"/><stop offset="1" stop-color="#f7cbd0"/></linearGradient><linearGradient x1="436.18012" y1="278.39804" x2="436.18012" y2="311.08337" gradientUnits="userSpaceOnUse" id="color-53"><stop offset="0" stop-color="#fde3d6"/><stop offset="1" stop-color="#f7cbd0"/></linearGradient><linearGradient x1="333.02266" y1="285.13254" x2="333.02266" y2="316.68623" gradientUnits="userSpaceOnUse" id="color-54"><stop offset="0" stop-color="#fde0d6"/><stop offset="1" stop-color="#f7cbd0"/></linearGradient><linearGradient x1="534.56355" y1="284.26402" x2="534.56355" y2="315.81771" gradientUnits="userSpaceOnUse" id="color-55"><stop offset="0" stop-color="#fbdcd4"/><stop offset="1" stop-color="#f7cbd0"/></linearGradient><linearGradient x1="560.26032" y1="108.07206" x2="560.26032" y2="138.48207" gradientUnits="userSpaceOnUse" id="color-56"><stop offset="0" stop-color="#ffe9d8"/><stop offset="1" stop-color="#f7cbd0"/></linearGradient><linearGradient x1="597.76812" y1="107.99386" x2="597.76812" y2="138.40387" gradientUnits="userSpaceOnUse" id="color-57"><stop offset="0" stop-color="#ffe9d8"/><stop offset="1" stop-color="#f7cbd0"/></linearGradient><linearGradient x1="636.20399" y1="107.9157" x2="636.20399" y2="138.3257" gradientUnits="userSpaceOnUse" id="color-58"><stop offset="0" stop-color="#ffe9d8"/><stop offset="1" stop-color="#f7cbd0"/></linearGradient><linearGradient x1="674.63987" y1="107.83751" x2="674.63987" y2="138.24751" gradientUnits="userSpaceOnUse" id="color-59"><stop offset="0" stop-color="#ffe9d8"/><stop offset="1" stop-color="#f7cbd0"/></linearGradient><linearGradient x1="712.14766" y1="107.75931" x2="712.14766" y2="138.16933" gradientUnits="userSpaceOnUse" id="color-60"><stop offset="0" stop-color="#ffe9d8"/><stop offset="1" stop-color="#f7cbd0"/></linearGradient><linearGradient x1="637.87681" y1="112.72687" x2="637.87681" y2="145.4122" gradientUnits="userSpaceOnUse" id="color-61"><stop offset="0" stop-color="#fde3d6"/><stop offset="1" stop-color="#f7cbd0"/></linearGradient><linearGradient x1="534.71937" y1="119.46137" x2="534.71937" y2="151.01506" gradientUnits="userSpaceOnUse" id="color-62"><stop offset="0" stop-color="#fde0d6"/><stop offset="1" stop-color="#f7cbd0"/></linearGradient><linearGradient x1="736.26025" y1="118.59285" x2="736.26025" y2="150.14654" gradientUnits="userSpaceOnUse" id="color-63"><stop offset="0" stop-color="#fbdcd4"/><stop offset="1" stop-color="#f7cbd0"/></linearGradient><linearGradient x1="98.27317" y1="18.68319" x2="98.27317" y2="47.75034" gradientUnits="userSpaceOnUse" id="color-64"><stop offset="0" stop-color="#ffe9d8"/><stop offset="1" stop-color="#f7cbd0"/></linearGradient><linearGradient x1="134.12471" y1="18.60845" x2="134.12471" y2="47.67561" gradientUnits="userSpaceOnUse" id="color-65"><stop offset="0" stop-color="#ffe9d8"/><stop offset="1" stop-color="#f7cbd0"/></linearGradient><linearGradient x1="170.86332" y1="18.53373" x2="170.86332" y2="47.60088" gradientUnits="userSpaceOnUse" id="color-66"><stop offset="0" stop-color="#ffe9d8"/><stop offset="1" stop-color="#f7cbd0"/></linearGradient><linearGradient x1="207.60195" y1="18.45899" x2="207.60195" y2="47.52615" gradientUnits="userSpaceOnUse" id="color-67"><stop offset="0" stop-color="#ffe9d8"/><stop offset="1" stop-color="#f7cbd0"/></linearGradient><linearGradient x1="172.46227" y1="23.13245" x2="172.46227" y2="54.37446" gradientUnits="userSpaceOnUse" id="color-68"><stop offset="0" stop-color="#fde3d6"/><stop offset="1" stop-color="#f7cbd0"/></linearGradient><linearGradient x1="74.41724" y1="30.06957" x2="74.41724" y2="60.2299" gradientUnits="userSpaceOnUse" id="color-69"><stop offset="0" stop-color="#fde0d6"/><stop offset="1" stop-color="#f7cbd0"/></linearGradient><linearGradient x1="230.87976" y1="29.23938" x2="230.87976" y2="59.39973" gradientUnits="userSpaceOnUse" id="color-70"><stop offset="0" stop-color="#fbdcd4"/><stop offset="1" stop-color="#f7cbd0"/></linearGradient><linearGradient x1="37.87681" y1="55.66199" x2="37.87681" y2="86.07201" gradientUnits="userSpaceOnUse" id="color-71"><stop offset="0" stop-color="#ffe9d8"/><stop offset="1" stop-color="#f7cbd0"/></linearGradient><linearGradient x1="75.38465" y1="55.58379" x2="75.38465" y2="85.99381" gradientUnits="userSpaceOnUse" id="color-72"><stop offset="0" stop-color="#ffe9d8"/><stop offset="1" stop-color="#f7cbd0"/></linearGradient><linearGradient x1="113.82047" y1="55.50563" x2="113.82047" y2="85.91564" gradientUnits="userSpaceOnUse" id="color-73"><stop offset="0" stop-color="#ffe9d8"/><stop offset="1" stop-color="#f7cbd0"/></linearGradient><linearGradient x1="152.25639" y1="55.42744" x2="152.25639" y2="85.83744" gradientUnits="userSpaceOnUse" id="color-74"><stop offset="0" stop-color="#ffe9d8"/><stop offset="1" stop-color="#f7cbd0"/></linearGradient><linearGradient x1="189.76418" y1="55.34924" x2="189.76418" y2="85.75926" gradientUnits="userSpaceOnUse" id="color-75"><stop offset="0" stop-color="#ffe9d8"/><stop offset="1" stop-color="#f7cbd0"/></linearGradient><linearGradient x1="115.49329" y1="60.3168" x2="115.49329" y2="93.00214" gradientUnits="userSpaceOnUse" id="color-76"><stop offset="0" stop-color="#fde3d6"/><stop offset="1" stop-color="#f7cbd0"/></linearGradient><linearGradient x1="12.33585" y1="67.0513" x2="12.33585" y2="98.60499" gradientUnits="userSpaceOnUse" id="color-77"><stop offset="0" stop-color="#fde0d6"/><stop offset="1" stop-color="#f7cbd0"/></linearGradient><linearGradient x1="213.87676" y1="66.18278" x2="213.87676" y2="97.73648" gradientUnits="userSpaceOnUse" id="color-78"><stop offset="0" stop-color="#fbdcd4"/><stop offset="1" stop-color="#f7cbd0"/></linearGradient></defs><g transform="translate(89.24271,35.00956)"><g data-paper-data="{&quot;isPaintingLayer&quot;:true}" fill-rule="nonzero" stroke-linejoin="miter" stroke-miterlimit="10" stroke-dasharray="" stroke-dashoffset="0" style="mix-blend-mode: normal"><path d="M283.36097,92.60871c0,0 -0.32613,-3.51337 1.52254,-4.90636c1.61617,-1.21781 5.07223,-1.80293 7.98263,-1.80293c218.23614,0 141.06953,0 144.80678,0c1.24575,0 3.93383,0 5.17958,0c3.14311,0 6.17363,0.43076 7.96214,1.7312c1.79887,1.30796 1.37639,5.31142 1.37639,5.31142z" data-paper-data="{&quot;origPos&quot;:null,&quot;index&quot;:null}" fill="#b4ff53" stroke="none" stroke-width="0" stroke-linecap="butt"/><path d="M452.31825,344.53882c0,0 0.32408,4.6691 -1.05583,6.41224c-1.37197,1.73311 -3.69668,2.30719 -6.10774,2.30719c-0.95559,0 -3.01762,0 -3.97324,0c-92.56244,0 -234.96908,0 -237.17972,0c-0.73688,0 -1.15129,0 -1.88817,0c-2.23256,0 -4.8837,-0.7798 -6.12345,-2.40279c-1.4181,-1.85645 -268.58715,8.46423 -268.58715,8.46423c0,0 21.15077,-269.4601 27.84275,-266.35131c2.23066,1.03626 126.39291,-87.52793 126.39291,-87.52793l207.26254,-0.28742l0.85798,112.98225l162.67146,2.68886z" data-paper-data="{&quot;origPos&quot;:null,&quot;index&quot;:null}" fill="#03a63b" stroke="none" stroke-width="0" stroke-linecap="butt"/><path d="M452.52993,122.02826c0,0 -149.35549,-0.15264 -156.75914,-0.16021c-2.46789,-0.00252 -6.32365,-0.00646 -6.32365,-0.00646l0.22555,-29.65591l162.99869,-0.01442z" data-paper-data="{&quot;origPos&quot;:null,&quot;index&quot;:null}" fill="#48c900" stroke="none" stroke-width="0" stroke-linecap="butt"/><path d="M368.80505,107.08416h36.04564" data-paper-data="{&quot;origPos&quot;:null}" fill="none" stroke="#3dc400" stroke-width="29" stroke-linecap="round"/><g data-paper-data="{&quot;origPos&quot;:null}"><g data-paper-data="{&quot;origPos&quot;:null}" stroke="none" stroke-linecap="butt"><path d="M300.1472,146.27402c0,12.24786 -27.05558,4.43534 -27.05558,4.43534c0,0 -20.84611,7.81252 -20.84611,-4.43534c0,-12.24786 10.72316,-22.1767 23.95085,-22.1767c13.22768,0 23.95085,9.92884 23.95085,22.1767z" data-paper-data="{&quot;origPos&quot;:null}" fill="url(#color-1)" stroke-width="NaN"/><path d="M336.8858,146.19929c0,12.24786 -27.05558,4.43534 -27.05558,4.43534c0,0 -20.84611,7.81253 -20.84611,-4.43534c0,-12.24786 10.72316,-22.17671 23.95085,-22.17671c13.22768,0 23.95085,9.92885 23.95085,22.17671z" data-paper-data="{&quot;origPos&quot;:null}" fill="url(#color-2)" stroke-width="NaN"/><path d="M372.73734,146.12456c0,12.24786 -27.05558,4.43534 -27.05558,4.43534c0,0 -20.84611,7.81253 -20.84611,-4.43534c0,-12.24786 10.72316,-22.17671 23.95085,-22.17671c13.22768,0 23.95085,9.92885 23.95085,22.17671z" data-paper-data="{&quot;origPos&quot;:null}" fill="url(#color-3)" stroke-width="NaN"/><path d="M267.77216,159.71385v-30.74431l93.29811,1.66667l14.22687,29.87477z" data-paper-data="{&quot;origPos&quot;:null}" fill="url(#color-4)" stroke-width="0"/><path d="M271.01757,150.99454c0,8.32855 -8.43367,15.94632 -17.00717,15.94632c-8.5735,0 -14.04022,-7.61778 -14.04022,-15.94632c0,-8.32855 6.9502,-15.08016 15.5237,-15.08016c8.5735,0 15.5237,6.75161 15.5237,15.08016z" data-paper-data="{&quot;origPos&quot;:null}" fill="url(#color-5)" stroke-width="0"/><path d="M382.89841,150.29429c0,8.32855 -4.7083,16.63162 -13.2818,16.63162c-8.5735,0 -17.7656,-8.30307 -17.7656,-16.63162c0,-5.66446 1.89289,-9.10116 6.55884,-12.31285c3.06243,-2.10796 5.24708,-2.76731 8.96486,-2.76731c8.5735,0 15.5237,6.75162 15.5237,15.08016z" data-paper-data="{&quot;origPos&quot;:null}" fill="url(#color-6)" stroke-width="0"/></g><path d="M374.32687,163.82594h-121.79394" data-paper-data="{&quot;origPos&quot;:null}" fill="#ffc3d5" stroke="#ffc3d5" stroke-width="9" stroke-linecap="round"/><path d="M313.69007,159.52476c4.49921,2.53063 -11.64155,3.31201 -19.47867,3.31201c-7.83713,0 -14.74843,5.59214 -14.74843,-0.28571c0,-0.3259 -6.74031,-3.09679 -6.44486,-3.23435c2.99165,-1.39289 5.67713,-1.54472 7.80643,-2.82298c4.68556,-2.81281 7.96956,-2.71514 12.8288,-2.71514c0,0 5.05677,-0.65893 9.67257,2.34864c3.43195,1.91012 5.19549,1.76923 10.36417,3.39753z" data-paper-data="{&quot;origPos&quot;:null}" fill="#ffc3d5" stroke="none" stroke-width="0" stroke-linecap="butt"/><path d="M351.84609,159.31329c4.49921,2.53063 -11.64155,3.31201 -19.47868,3.31201c-7.83713,0 -14.74843,5.59214 -14.74843,-0.28571c0,-0.3259 -6.74031,-3.09679 -6.44486,-3.23435c2.99165,-1.39289 5.67713,-1.54472 7.80644,-2.82298c4.68556,-2.81281 7.96956,-2.71514 12.8288,-2.71514c0,0 5.05677,-0.65893 9.67257,2.34864c3.43195,1.91012 5.19549,1.76923 10.36417,3.39753z" data-paper-data="{&quot;origPos&quot;:null}" fill="#ffc3d5" stroke="none" stroke-width="0" stroke-linecap="butt"/></g><g data-paper-data="{&quot;origPos&quot;:null}"><g><g data-paper-data="{&quot;origPos&quot;:null}" stroke="none" stroke-linecap="butt"><path d="M240.89421,184.5057c0,12.81369 -28.3055,4.64025 -28.3055,4.64025c0,0 -21.80916,8.17345 -21.80916,-4.64025c0,-12.81369 11.21855,-23.20124 25.05733,-23.20124c13.83878,0 25.05733,10.38755 25.05733,23.20124z" data-paper-data="{&quot;origPos&quot;:null}" fill="url(#color-7)" stroke-width="NaN"/><path d="M278.40205,184.42752c0,12.81369 -28.3055,4.64025 -28.3055,4.64025c0,0 -21.80916,8.17345 -21.80916,-4.64025c0,-12.81369 11.21855,-23.20124 25.05733,-23.20124c13.83878,0 25.05733,10.38755 25.05733,23.20124z" data-paper-data="{&quot;origPos&quot;:null}" fill="url(#color-8)" stroke-width="NaN"/><path d="M316.8379,184.34934c0,12.81369 -28.3055,4.64025 -28.3055,4.64025c0,0 -21.80916,8.17345 -21.80916,-4.64025c0,-12.81369 11.21854,-23.20124 25.05733,-23.20124c13.83878,0 25.05733,10.38755 25.05733,23.20124z" data-paper-data="{&quot;origPos&quot;:null}" fill="url(#color-9)" stroke-width="NaN"/><path d="M355.27378,184.27113c0,12.81369 -28.3055,4.64024 -28.3055,4.64024c0,0 -21.80916,8.17345 -21.80916,-4.64024c0,-11.90973 9.40153,-19.84432 17.74486,-22.19773c2.78111,-0.78447 4.42284,-1.00351 7.31247,-1.00351c13.83878,0 25.05733,10.38755 25.05733,23.20124z" data-paper-data="{&quot;origPos&quot;:null}" fill="url(#color-10)" stroke-width="NaN"/><path d="M392.78159,184.19298c0,12.81369 -28.3055,4.64024 -28.3055,4.64024c0,0 -21.80916,8.17345 -21.80916,-4.64024c0,-12.81369 11.21855,-23.20124 25.05733,-23.20124c13.83878,0 25.05733,10.38755 25.05733,23.20124z" data-paper-data="{&quot;origPos&quot;:null}" fill="url(#color-11)" stroke-width="NaN"/><path d="M431.68148,184.57882c0,12.81369 -28.3055,4.64025 -28.3055,4.64025c0,0 -21.80916,8.17345 -21.80916,-4.64025c0,-12.81369 11.21854,-23.20124 25.05733,-23.20124c13.83878,0 25.05733,10.38755 25.05733,23.20124z" data-paper-data="{&quot;origPos&quot;:null}" fill="url(#color-12)" stroke-width="NaN"/><path d="M192.56382,199.34979l7.75699,-31.45946l217.99828,-1.41036v32.16464z" data-paper-data="{&quot;origPos&quot;:null}" fill="url(#color-13)" stroke-width="0"/><path d="M206.53685,188.47062c0,8.71332 -10.03162,16.03718 -19.00121,16.03718c-8.96958,0 -13.48052,-7.32387 -13.48052,-16.03718c0,-8.71332 7.27128,-15.77684 16.24087,-15.77684c8.96958,0 16.24087,7.06352 16.24087,15.77684z" data-paper-data="{&quot;origPos&quot;:null}" fill="url(#color-14)" stroke-width="0"/><path d="M445.9426,187.60211c0,8.71332 -5.44891,17.83887 -14.4185,17.83887c-8.96958,0 -18.06324,-9.12556 -18.06324,-17.83887c0,-8.71332 7.27127,-15.77684 16.24087,-15.77684c8.96958,0 16.24087,7.06353 16.24087,15.77684z" data-paper-data="{&quot;origPos&quot;:null}" fill="url(#color-15)" stroke-width="0"/></g><path d="M428.60128,202.06744c0,0 -50.9832,0 -85.21518,0c-62.77023,0 -158.2303,0 -158.2303,0" data-paper-data="{&quot;origPos&quot;:null}" fill="#ffc3d5" stroke="#ffc3d5" stroke-width="9" stroke-linecap="round"/><path d="M256.54567,198.22555c4.70706,2.64754 -12.17937,3.46502 -20.37856,3.46502c-8.19919,0 -15.42978,5.85048 -15.42978,-0.29891c0,-0.34096 -7.0517,-3.23986 -6.7426,-3.38377c3.12986,-1.45724 5.9394,-1.61608 8.16708,-2.95339c4.90203,-2.94276 8.33774,-2.84057 13.42146,-2.84057c0,0 5.29038,-0.68937 10.11942,2.45714c3.5905,1.99836 5.43552,1.85096 10.84298,3.55449z" data-paper-data="{&quot;origPos&quot;:null}" fill="#ffc3d5" stroke="none" stroke-width="0" stroke-linecap="butt"/><path d="M294.11731,197.88247c4.70706,2.64754 -12.17937,3.46502 -20.37856,3.46502c-8.19919,0 -15.42978,5.85048 -15.42978,-0.29891c0,-0.34096 -7.05168,-3.23986 -6.74259,-3.38377c3.12986,-1.45724 5.9394,-1.61608 8.16707,-2.95339c4.90203,-2.94276 8.33774,-2.84057 13.42146,-2.84057c0,0 5.29038,-0.68937 10.11942,2.45714c3.5905,1.99836 5.43552,1.85096 10.84298,3.55449z" data-paper-data="{&quot;origPos&quot;:null}" fill="#ffc3d5" stroke="none" stroke-width="0" stroke-linecap="butt"/><path d="M333.01626,197.6612c4.70706,2.64754 -12.17937,3.46502 -20.37855,3.46502c-8.19919,0 -15.42979,5.85048 -15.42979,-0.29891c0,-0.34096 -7.05168,-3.23986 -6.74259,-3.38377c3.12986,-1.45724 5.9394,-1.61608 8.16707,-2.95339c4.90203,-2.94276 8.33774,-2.84057 13.42146,-2.84057c0,0 5.29038,-0.68937 10.11942,2.45714c3.5905,1.99836 5.43552,1.85095 10.84298,3.55448z" data-paper-data="{&quot;origPos&quot;:null}" fill="#ffc3d5" stroke="none" stroke-width="0" stroke-linecap="butt"/><path d="M368.59336,197.88247c4.70706,2.64754 -12.17937,3.46502 -20.37855,3.46502c-8.19919,0 -15.42978,5.85048 -15.42978,-0.29891c0,-0.34096 -7.0517,-3.23986 -6.7426,-3.38377c3.12986,-1.45724 5.9394,-1.61608 8.16707,-2.95339c4.90203,-2.94276 8.33774,-2.84057 13.42146,-2.84057c0,0 5.29038,-0.68937 10.11942,2.45714c3.5905,1.99836 5.43552,1.85096 10.84298,3.55449z" data-paper-data="{&quot;origPos&quot;:null}" fill="#ffc3d5" stroke="none" stroke-width="0" stroke-linecap="butt"/><path d="M406.98245,197.6612c4.70706,2.64754 -12.17937,3.46502 -20.37856,3.46502c-8.19919,0 -15.42978,5.85048 -15.42978,-0.29891c0,-0.34096 -7.05168,-3.23986 -6.74259,-3.38377c3.12986,-1.45724 5.9394,-1.61608 8.16707,-2.95339c4.90203,-2.94276 8.33774,-2.84057 13.42146,-2.84057c0,0 5.29038,-0.68937 10.11942,2.45714c3.5905,1.99836 5.43552,1.85095 10.84298,3.55448z" data-paper-data="{&quot;origPos&quot;:null}" fill="#ffc3d5" stroke="none" stroke-width="0" stroke-linecap="butt"/></g><g data-paper-data="{&quot;origPos&quot;:null}" stroke="none" stroke-linecap="butt"><g data-paper-data="{&quot;origPos&quot;:null}" fill="url(#color-16)" stroke-width="NaN"><path d="M430.4334,184.69037c0,12.24786 -27.05558,4.43534 -27.05558,4.43534c0,0 -20.84611,7.81253 -20.84611,-4.43534c0,-12.24786 10.72316,-22.17671 23.95085,-22.17671c13.22768,0 23.95085,9.92885 23.95085,22.17671z" data-paper-data="{&quot;origPos&quot;:null}" stroke-width="NaN"/></g><path d="M409.54216,197.8791c4.49921,2.53063 -11.64155,3.31201 -19.47868,3.31201c-7.83713,0 -14.74843,5.59214 -14.74843,-0.28571c0,-0.3259 -6.74031,-3.09679 -6.44486,-3.23435c2.99165,-1.39289 5.67713,-1.54472 7.80644,-2.82298c4.68556,-2.81281 7.96956,-2.71514 12.8288,-2.71514c0,0 5.05677,-0.65893 9.67257,2.34864c3.43195,1.91012 5.19549,1.76923 10.36417,3.39753z" data-paper-data="{&quot;origPos&quot;:null}" fill="#ffc3d5" stroke-width="0"/></g></g><g data-paper-data="{&quot;origPos&quot;:null,&quot;index&quot;:null}"><g data-paper-data="{&quot;origPos&quot;:null}" stroke="none" stroke-linecap="butt"><path d="M223.80394,221.67081c0,12.81369 -28.3055,4.64025 -28.3055,4.64025c0,0 -21.80916,8.17345 -21.80916,-4.64025c0,-12.81369 11.21855,-23.20124 25.05733,-23.20124c13.83878,0 25.05733,10.38755 25.05733,23.20124z" data-paper-data="{&quot;origPos&quot;:null}" fill="url(#color-17)" stroke-width="NaN"/><path d="M262.23979,221.59263c0,12.81369 -28.3055,4.64025 -28.3055,4.64025c0,0 -21.80916,8.17345 -21.80916,-4.64025c0,-12.81369 11.21854,-23.20124 25.05733,-23.20124c13.83878,0 25.05733,10.38755 25.05733,23.20124z" data-paper-data="{&quot;origPos&quot;:null}" fill="url(#color-18)" stroke-width="NaN"/><path d="M300.67566,221.51442c0,12.81369 -28.3055,4.64024 -28.3055,4.64024c0,0 -21.80916,8.17345 -21.80916,-4.64024c0,-11.90973 9.40153,-19.84432 17.74486,-22.19773c2.78111,-0.78447 4.42284,-1.00351 7.31247,-1.00351c13.83878,0 25.05733,10.38755 25.05733,23.20124z" data-paper-data="{&quot;origPos&quot;:null}" fill="url(#color-19)" stroke-width="NaN"/><path d="M338.18348,221.43627c0,12.81369 -28.3055,4.64024 -28.3055,4.64024c0,0 -21.80916,8.17345 -21.80916,-4.64024c0,-12.81369 11.21855,-23.20124 25.05733,-23.20124c13.83878,0 25.05733,10.38755 25.05733,23.20124z" data-paper-data="{&quot;origPos&quot;:null}" fill="url(#color-20)" stroke-width="NaN"/><path d="M164.46571,238.09308l16.75699,-30.95946c0,0 128.32833,-1.17636 147.83616,-1.30257c6.50261,-0.04207 2.66213,32.05685 2.66213,32.05685z" data-paper-data="{&quot;origPos&quot;:null}" fill="url(#color-21)" stroke-width="0"/><path d="M192.43873,225.71391c0,8.71332 -10.03162,16.03718 -19.00121,16.03718c-8.96958,0 -13.48052,-7.32387 -13.48052,-16.03718c0,-8.71332 7.27128,-15.77684 16.24087,-15.77684c8.96958,0 16.24087,7.06352 16.24087,15.77684z" data-paper-data="{&quot;origPos&quot;:null}" fill="url(#color-22)" stroke-width="0"/><path d="M350.34449,224.8454c0,8.71332 -5.44891,17.83887 -14.4185,17.83887c-8.96958,0 -18.06324,-9.12556 -18.06324,-17.83887c0,-8.71332 7.27127,-15.77684 16.24087,-15.77684c8.96958,0 16.24087,7.06353 16.24087,15.77684z" data-paper-data="{&quot;origPos&quot;:null}" fill="url(#color-23)" stroke-width="0"/></g><path d="M170.5577,239.81073c0,0 84.5268,-0.5 164.2303,-0.5" data-paper-data="{&quot;origPos&quot;:null}" fill="#ffc3d5" stroke="#ffc3d5" stroke-width="9" stroke-linecap="round"/><path d="M239.51921,235.12576c4.70706,2.64754 -12.17937,3.46502 -20.37856,3.46502c-8.19919,0 -15.42978,5.85048 -15.42978,-0.29891c0,-0.34096 -7.05168,-3.23986 -6.74259,-3.38377c3.12986,-1.45724 5.9394,-1.61608 8.16707,-2.95339c4.90203,-2.94276 8.33774,-2.84057 13.42146,-2.84057c0,0 5.29038,-0.68937 10.11942,2.45714c3.5905,1.99836 5.43552,1.85096 10.84298,3.55449z" data-paper-data="{&quot;origPos&quot;:null}" fill="#ffc3d5" stroke="none" stroke-width="0" stroke-linecap="butt"/><path d="M278.41814,234.90449c4.70706,2.64754 -12.17937,3.46502 -20.37855,3.46502c-8.19919,0 -15.42979,5.85048 -15.42979,-0.29891c0,-0.34096 -7.05168,-3.23986 -6.74259,-3.38377c3.12986,-1.45724 5.9394,-1.61608 8.16707,-2.95339c4.90203,-2.94276 8.33774,-2.84057 13.42146,-2.84057c0,0 5.29038,-0.68937 10.11942,2.45714c3.5905,1.99836 5.43552,1.85095 10.84298,3.55448z" data-paper-data="{&quot;origPos&quot;:null}" fill="#ffc3d5" stroke="none" stroke-width="0" stroke-linecap="butt"/><path d="M313.99523,235.12576c4.70706,2.64754 -12.17937,3.46502 -20.37855,3.46502c-8.19919,0 -15.42978,5.85048 -15.42978,-0.29891c0,-0.34096 -7.0517,-3.23986 -6.7426,-3.38377c3.12986,-1.45724 5.9394,-1.61608 8.16707,-2.95339c4.90203,-2.94276 8.33774,-2.84057 13.42146,-2.84057c0,0 5.29038,-0.68937 10.11942,2.45714c3.5905,1.99836 5.43552,1.85096 10.84298,3.55449z" data-paper-data="{&quot;origPos&quot;:null}" fill="#ffc3d5" stroke="none" stroke-width="0" stroke-linecap="butt"/></g><g data-paper-data="{&quot;origPos&quot;:null}"><g><g data-paper-data="{&quot;origPos&quot;:null}" stroke="none" stroke-linecap="butt"><path d="M461.11895,220.17541c0,12.81369 -28.3055,4.64025 -28.3055,4.64025c0,0 -21.80916,8.17345 -21.80916,-4.64025c0,-12.81369 11.21855,-23.20124 25.05733,-23.20124c13.83878,0 25.05733,10.38755 25.05733,23.20124z" data-paper-data="{&quot;origPos&quot;:null}" fill="url(#color-24)" stroke-width="NaN"/><path d="M498.62677,220.09723c0,12.81369 -28.3055,4.64025 -28.3055,4.64025c0,0 -21.80916,8.17345 -21.80916,-4.64025c0,-12.81369 11.21855,-23.20124 25.05733,-23.20124c13.83878,0 25.05733,10.38755 25.05733,23.20124z" data-paper-data="{&quot;origPos&quot;:null}" fill="url(#color-25)" stroke-width="NaN"/><path d="M537.0626,220.01905c0,12.81369 -28.3055,4.64025 -28.3055,4.64025c0,0 -21.80916,8.17345 -21.80916,-4.64025c0,-12.81369 11.21854,-23.20124 25.05733,-23.20124c13.83878,0 25.05733,10.38755 25.05733,23.20124z" data-paper-data="{&quot;origPos&quot;:null}" fill="url(#color-26)" stroke-width="NaN"/><path d="M575.49848,219.94084c0,12.81369 -28.3055,4.64024 -28.3055,4.64024c0,0 -21.80916,8.17345 -21.80916,-4.64024c0,-12.81369 11.21854,-23.20124 25.05733,-23.20124c13.83878,0 25.05733,10.38755 25.05733,23.20124z" data-paper-data="{&quot;origPos&quot;:null}" fill="url(#color-27)" stroke-width="NaN"/><path d="M613.00628,219.86269c0,12.81369 -28.3055,4.64024 -28.3055,4.64024c0,0 -21.80916,8.17345 -21.80916,-4.64024c0,-12.81369 11.21855,-23.20124 25.05733,-23.20124c13.83878,0 25.05733,10.38755 25.05733,23.20124z" data-paper-data="{&quot;origPos&quot;:null}" fill="url(#color-28)" stroke-width="NaN"/><path d="M651.90618,220.24853c0,12.81369 -28.3055,4.64025 -28.3055,4.64025c0,0 -21.80916,8.17345 -21.80916,-4.64025c0,-12.81369 11.21854,-23.20124 25.05733,-23.20124c13.83878,0 25.05733,10.38755 25.05733,23.20124z" data-paper-data="{&quot;origPos&quot;:null}" fill="url(#color-29)" stroke-width="NaN"/><path d="M412.78856,235.0195l7.75699,-31.45946l217.99828,-1.41036v32.16464z" data-paper-data="{&quot;origPos&quot;:null}" fill="url(#color-30)" stroke-width="0"/><path d="M426.76159,224.14033c0,8.71332 -10.03162,16.03718 -19.00121,16.03718c-8.96958,0 -13.48052,-7.32387 -13.48052,-16.03718c0,-8.71332 7.27128,-15.77684 16.24087,-15.77684c8.96958,0 16.24087,7.06352 16.24087,15.77684z" data-paper-data="{&quot;origPos&quot;:null}" fill="url(#color-31)" stroke-width="0"/><path d="M666.1673,223.27182c0,8.71332 -5.44891,17.83887 -14.4185,17.83887c-8.96958,0 -18.06324,-9.12556 -18.06324,-17.83887c0,-8.71332 7.27127,-15.77684 16.24087,-15.77684c8.96958,0 16.24087,7.06353 16.24087,15.77684z" data-paper-data="{&quot;origPos&quot;:null}" fill="url(#color-32)" stroke-width="0"/></g><path d="M648.82601,237.73715c0,0 -50.9832,0 -85.21518,0c-62.77023,0 -158.2303,0 -158.2303,0" data-paper-data="{&quot;origPos&quot;:null}" fill="#ffc3d5" stroke="#ffc3d5" stroke-width="9" stroke-linecap="round"/><path d="M476.77041,233.89526c4.70706,2.64754 -12.17937,3.46502 -20.37856,3.46502c-8.19919,0 -15.42978,5.85048 -15.42978,-0.29891c0,-0.34096 -7.0517,-3.23986 -6.7426,-3.38377c3.12986,-1.45724 5.9394,-1.61608 8.16708,-2.95339c4.90203,-2.94276 8.33774,-2.84057 13.42146,-2.84057c0,0 5.29038,-0.68937 10.11942,2.45714c3.5905,1.99836 5.43552,1.85096 10.84298,3.55449z" data-paper-data="{&quot;origPos&quot;:null}" fill="#ffc3d5" stroke="none" stroke-width="0" stroke-linecap="butt"/><path d="M514.34204,233.55218c4.70706,2.64754 -12.17937,3.46502 -20.37856,3.46502c-8.19919,0 -15.42978,5.85048 -15.42978,-0.29891c0,-0.34096 -7.05168,-3.23986 -6.74259,-3.38377c3.12986,-1.45724 5.9394,-1.61608 8.16707,-2.95339c4.90203,-2.94276 8.33774,-2.84057 13.42146,-2.84057c0,0 5.29038,-0.68937 10.11942,2.45714c3.5905,1.99836 5.43552,1.85096 10.84298,3.55449z" data-paper-data="{&quot;origPos&quot;:null}" fill="#ffc3d5" stroke="none" stroke-width="0" stroke-linecap="butt"/><path d="M553.24096,233.33091c4.70706,2.64754 -12.17937,3.46502 -20.37855,3.46502c-8.19919,0 -15.42979,5.85048 -15.42979,-0.29891c0,-0.34096 -7.05168,-3.23986 -6.74259,-3.38377c3.12986,-1.45724 5.9394,-1.61608 8.16707,-2.95339c4.90203,-2.94276 8.33774,-2.84057 13.42146,-2.84057c0,0 5.29038,-0.68937 10.11942,2.45714c3.5905,1.99836 5.43552,1.85095 10.84298,3.55448z" data-paper-data="{&quot;origPos&quot;:null}" fill="#ffc3d5" stroke="none" stroke-width="0" stroke-linecap="butt"/><path d="M588.81805,233.55218c4.70706,2.64754 -12.17937,3.46502 -20.37855,3.46502c-8.19919,0 -15.42978,5.85048 -15.42978,-0.29891c0,-0.34096 -7.0517,-3.23986 -6.7426,-3.38377c3.12986,-1.45724 5.9394,-1.61608 8.16707,-2.95339c4.90203,-2.94276 8.33774,-2.84057 13.42146,-2.84057c0,0 5.29038,-0.68937 10.11942,2.45714c3.5905,1.99836 5.43552,1.85096 10.84298,3.55449z" data-paper-data="{&quot;origPos&quot;:null}" fill="#ffc3d5" stroke="none" stroke-width="0" stroke-linecap="butt"/><path d="M627.20715,233.33091c4.70706,2.64754 -12.17937,3.46502 -20.37856,3.46502c-8.19919,0 -15.42978,5.85048 -15.42978,-0.29891c0,-0.34096 -7.05168,-3.23986 -6.74259,-3.38377c3.12986,-1.45724 5.9394,-1.61608 8.16707,-2.95339c4.90203,-2.94276 8.33774,-2.84057 13.42146,-2.84057c0,0 5.29038,-0.68937 10.11942,2.45714c3.5905,1.99836 5.43552,1.85095 10.84298,3.55448z" data-paper-data="{&quot;origPos&quot;:null}" fill="#ffc3d5" stroke="none" stroke-width="0" stroke-linecap="butt"/></g><g data-paper-data="{&quot;origPos&quot;:null}" stroke="none" stroke-linecap="butt"><g data-paper-data="{&quot;origPos&quot;:null}" fill="url(#color-33)" stroke-width="NaN"><path d="M650.65811,220.36008c0,12.24786 -27.05558,4.43534 -27.05558,4.43534c0,0 -20.84611,7.81253 -20.84611,-4.43534c0,-12.24786 10.72316,-22.17671 23.95085,-22.17671c13.22768,0 23.95085,9.92885 23.95085,22.17671z" data-paper-data="{&quot;origPos&quot;:null}" stroke-width="NaN"/></g><path d="M629.76686,233.54881c4.49921,2.53063 -11.64155,3.31201 -19.47868,3.31201c-7.83713,0 -14.74843,5.59214 -14.74843,-0.28571c0,-0.3259 -6.74031,-3.09679 -6.44486,-3.23435c2.99165,-1.39289 5.67713,-1.54472 7.80644,-2.82298c4.68556,-2.81281 7.96956,-2.71514 12.8288,-2.71514c0,0 5.05677,-0.65893 9.67257,2.34864c3.43195,1.91012 5.19549,1.76923 10.36417,3.39753z" data-paper-data="{&quot;origPos&quot;:null}" fill="#ffc3d5" stroke-width="0"/></g></g><g data-paper-data="{&quot;origPos&quot;:null}"><g><g data-paper-data="{&quot;origPos&quot;:null}" stroke="none" stroke-linecap="butt"><path d="M442.29962,258.49726c0,12.81369 -28.3055,4.64025 -28.3055,4.64025c0,0 -21.80916,8.17345 -21.80916,-4.64025c0,-12.81369 11.21855,-23.20124 25.05733,-23.20124c13.83878,0 25.05733,10.38755 25.05733,23.20124z" data-paper-data="{&quot;origPos&quot;:null}" fill="url(#color-34)" stroke-width="NaN"/><path d="M479.80744,258.41908c0,12.81369 -28.3055,4.64025 -28.3055,4.64025c0,0 -21.80916,8.17345 -21.80916,-4.64025c0,-12.81369 11.21855,-23.20124 25.05733,-23.20124c13.83878,0 25.05733,10.38755 25.05733,23.20124z" data-paper-data="{&quot;origPos&quot;:null}" fill="url(#color-35)" stroke-width="NaN"/><path d="M518.24329,258.3409c0,12.81369 -28.3055,4.64025 -28.3055,4.64025c0,0 -21.80916,8.17345 -21.80916,-4.64025c0,-12.81369 11.21854,-23.20124 25.05733,-23.20124c13.83878,0 25.05733,10.38755 25.05733,23.20124z" data-paper-data="{&quot;origPos&quot;:null}" fill="url(#color-36)" stroke-width="NaN"/><path d="M556.67917,258.2627c0,12.81369 -28.3055,4.64024 -28.3055,4.64024c0,0 -21.80916,8.17345 -21.80916,-4.64024c0,-12.81369 11.21854,-23.20124 25.05733,-23.20124c13.83878,0 25.05733,10.38755 25.05733,23.20124z" data-paper-data="{&quot;origPos&quot;:null}" fill="url(#color-37)" stroke-width="NaN"/><path d="M594.18697,258.18454c0,12.81369 -28.3055,4.64024 -28.3055,4.64024c0,0 -21.80916,8.17345 -21.80916,-4.64024c0,-12.81369 11.21855,-23.20124 25.05733,-23.20124c13.83878,0 25.05733,10.38755 25.05733,23.20124z" data-paper-data="{&quot;origPos&quot;:null}" fill="url(#color-38)" stroke-width="NaN"/><path d="M633.08687,258.57038c0,12.81369 -28.3055,4.64025 -28.3055,4.64025c0,0 -21.80916,8.17345 -21.80916,-4.64025c0,-12.81369 11.21854,-23.20124 25.05733,-23.20124c13.83878,0 25.05733,10.38755 25.05733,23.20124z" data-paper-data="{&quot;origPos&quot;:null}" fill="url(#color-39)" stroke-width="NaN"/><path d="M393.96923,273.34135l7.75699,-31.45946l217.99828,-1.41036v32.16464z" data-paper-data="{&quot;origPos&quot;:null}" fill="url(#color-40)" stroke-width="0"/><path d="M407.94226,262.46218c0,8.71332 -10.03162,16.03718 -19.00121,16.03718c-8.96958,0 -13.48052,-7.32387 -13.48052,-16.03718c0,-8.71332 7.27128,-15.77684 16.24087,-15.77684c8.96958,0 16.24087,7.06352 16.24087,15.77684z" data-paper-data="{&quot;origPos&quot;:null}" fill="url(#color-41)" stroke-width="0"/><path d="M645.69269,261.59367c0,8.71332 -5.44891,17.83887 -14.4185,17.83887c-8.96958,0 -18.06324,-9.12556 -18.06324,-17.83887c0,-8.71332 7.27127,-15.77684 16.24087,-15.77684c8.96958,0 16.24087,7.06353 16.24087,15.77684z" data-paper-data="{&quot;origPos&quot;:null}" fill="url(#color-42)" stroke-width="0"/></g><path d="M386.56119,276.059c0,0 95.46007,0 158.2303,0c34.23198,0 85.21518,0 85.21518,0" data-paper-data="{&quot;origPos&quot;:null}" fill="#ffc3d5" stroke="#ffc3d5" stroke-width="9" stroke-linecap="round"/><path d="M457.95108,272.21711c4.70706,2.64754 -12.17937,3.46502 -20.37856,3.46502c-8.19919,0 -15.42978,5.85048 -15.42978,-0.29891c0,-0.34096 -7.0517,-3.23986 -6.7426,-3.38377c3.12986,-1.45724 5.9394,-1.61608 8.16708,-2.95339c4.90203,-2.94276 8.33774,-2.84057 13.42146,-2.84057c0,0 5.29038,-0.68937 10.11942,2.45714c3.5905,1.99836 5.43552,1.85096 10.84298,3.55449z" data-paper-data="{&quot;origPos&quot;:null}" fill="#ffc3d5" stroke="none" stroke-width="0" stroke-linecap="butt"/><path d="M495.52272,271.87403c4.70706,2.64754 -12.17937,3.46502 -20.37856,3.46502c-8.19919,0 -15.42978,5.85048 -15.42978,-0.29891c0,-0.34096 -7.05168,-3.23986 -6.74259,-3.38377c3.12986,-1.45724 5.9394,-1.61608 8.16707,-2.95339c4.90203,-2.94276 8.33774,-2.84057 13.42146,-2.84057c0,0 5.29038,-0.68937 10.11942,2.45714c3.5905,1.99836 5.43552,1.85096 10.84298,3.55449z" data-paper-data="{&quot;origPos&quot;:null}" fill="#ffc3d5" stroke="none" stroke-width="0" stroke-linecap="butt"/><path d="M534.42162,271.65276c4.70706,2.64754 -12.17937,3.46502 -20.37855,3.46502c-8.19919,0 -15.42979,5.85048 -15.42979,-0.29891c0,-0.34096 -7.05168,-3.23986 -6.74259,-3.38377c3.12986,-1.45724 5.9394,-1.61608 8.16707,-2.95339c4.90203,-2.94276 8.33774,-2.84057 13.42146,-2.84057c0,0 5.29038,-0.68937 10.11942,2.45714c3.5905,1.99836 5.43552,1.85095 10.84298,3.55448z" data-paper-data="{&quot;origPos&quot;:null}" fill="#ffc3d5" stroke="none" stroke-width="0" stroke-linecap="butt"/><path d="M569.99874,271.87403c4.70706,2.64754 -12.17937,3.46502 -20.37855,3.46502c-8.19919,0 -15.42978,5.85048 -15.42978,-0.29891c0,-0.34096 -7.0517,-3.23986 -6.7426,-3.38377c3.12986,-1.45724 5.9394,-1.61608 8.16707,-2.95339c4.90203,-2.94276 8.33774,-2.84057 13.42146,-2.84057c0,0 5.29038,-0.68937 10.11942,2.45714c3.5905,1.99836 5.43552,1.85096 10.84298,3.55449z" data-paper-data="{&quot;origPos&quot;:null}" fill="#ffc3d5" stroke="none" stroke-width="0" stroke-linecap="butt"/><path d="M608.38784,271.65276c4.70706,2.64754 -12.17937,3.46502 -20.37856,3.46502c-8.19919,0 -15.42978,5.85048 -15.42978,-0.29891c0,-0.34096 -7.05168,-3.23986 -6.74259,-3.38377c3.12986,-1.45724 5.9394,-1.61608 8.16707,-2.95339c4.90203,-2.94276 8.33774,-2.84057 13.42146,-2.84057c0,0 5.29038,-0.68937 10.11942,2.45714c3.5905,1.99836 5.43552,1.85095 10.84298,3.55448z" data-paper-data="{&quot;origPos&quot;:null}" fill="#ffc3d5" stroke="none" stroke-width="0" stroke-linecap="butt"/></g><g data-paper-data="{&quot;origPos&quot;:null}"><g data-paper-data="{&quot;origPos&quot;:null}" stroke="none" stroke-linecap="butt"><path d="M631.83877,258.68194c0,12.24786 -27.05558,4.43534 -27.05558,4.43534c0,0 -20.84611,7.81253 -20.84611,-4.43534c0,-12.24786 10.72316,-22.17671 23.95085,-22.17671c13.22768,0 23.95085,9.92885 23.95085,22.17671z" data-paper-data="{&quot;origPos&quot;:null}" fill="url(#color-43)" stroke-width="NaN"/><path d="M668.57737,258.60721c0,12.24786 -27.05558,4.43534 -27.05558,4.43534c0,0 -20.84611,7.81253 -20.84611,-4.43534c0,-12.24786 10.72315,-22.17671 23.95085,-22.17671c13.22768,0 23.95085,9.92885 23.95085,22.17671z" data-paper-data="{&quot;origPos&quot;:null}" fill="url(#color-44)" stroke-width="NaN"/><path d="M705.31598,258.53247c0,12.24786 -27.05558,4.43533 -27.05558,4.43533c0,0 -20.84611,7.81253 -20.84611,-4.43533c0,-12.24786 10.72315,-22.17671 23.95085,-22.17671c13.22768,0 23.95085,9.92885 23.95085,22.17671z" data-paper-data="{&quot;origPos&quot;:null}" fill="url(#color-45)" stroke-width="NaN"/><path d="M565.08373,270.24471l-6.57199,-27.25757l134.02408,-1.46022l20.22687,30.74431z" data-paper-data="{&quot;origPos&quot;:null}" fill="url(#color-46)" stroke-width="0"/><path d="M720.16665,262.21634c0,8.32855 -4.653,16.62852 -13.2265,16.62852c-8.5735,0 -17.8209,-8.29997 -17.8209,-16.62852c0,-5.66446 1.89289,-9.10116 6.55884,-12.31285c3.06243,-2.10796 5.24708,-2.76731 8.96486,-2.76731c8.5735,0 15.5237,6.75162 15.5237,15.08016z" data-paper-data="{&quot;origPos&quot;:null}" fill="url(#color-47)" stroke-width="0"/></g><path d="M708.61994,275.66445c0,0 -1.46654,0 -3.47146,0c-6.01476,0 -24.3493,0 -39.9341,0c-48.91908,0 -119.85778,0 -119.85778,0" data-paper-data="{&quot;origPos&quot;:null}" fill="#ffc3d5" stroke="#ffc3d5" stroke-width="10" stroke-linecap="round"/><path d="M610.94754,271.87067c4.49921,2.53063 -11.64155,3.31201 -19.47868,3.31201c-7.83713,0 -14.74843,5.59214 -14.74843,-0.28571c0,-0.3259 -6.74031,-3.09679 -6.44486,-3.23435c2.99165,-1.39289 5.67713,-1.54472 7.80644,-2.82298c4.68556,-2.81281 7.96956,-2.71514 12.8288,-2.71514c0,0 5.05677,-0.65893 9.67257,2.34864c3.43195,1.91012 5.19549,1.76923 10.36417,3.39753z" data-paper-data="{&quot;origPos&quot;:null}" fill="#ffc3d5" stroke="none" stroke-width="0" stroke-linecap="butt"/><path d="M646.86007,271.54274c4.49921,2.53063 -11.64155,3.31201 -19.47868,3.31201c-7.83713,0 -14.74843,5.59214 -14.74843,-0.28571c0,-0.3259 -6.74029,-3.09679 -6.44485,-3.23435c2.99165,-1.39289 5.67713,-1.54472 7.80643,-2.82298c4.68556,-2.81281 7.96956,-2.71514 12.8288,-2.71514c0,0 5.05677,-0.65893 9.67257,2.34864c3.43195,1.91012 5.19549,1.76923 10.36417,3.39753z" data-paper-data="{&quot;origPos&quot;:null}" fill="#ffc3d5" stroke="none" stroke-width="0" stroke-linecap="butt"/><path d="M684.04133,271.33125c4.49921,2.53063 -11.64155,3.31201 -19.47867,3.31201c-7.83713,0 -14.74844,5.59214 -14.74844,-0.28571c0,-0.3259 -6.74029,-3.09679 -6.44485,-3.23435c2.99165,-1.39289 5.67713,-1.54472 7.80643,-2.82298c4.68556,-2.81281 7.96956,-2.71514 12.8288,-2.71514c0,0 5.05677,-0.65893 9.67257,2.34864c3.43195,1.91012 5.19549,1.76922 10.36417,3.39752z" data-paper-data="{&quot;origPos&quot;:null}" fill="#ffc3d5" stroke="none" stroke-width="0" stroke-linecap="butt"/></g></g><path d="M288.89934,25.02744l-207.35926,-0.16667l0.02945,-29.65591l207.52792,-0.01442z" data-paper-data="{&quot;origPos&quot;:null,&quot;index&quot;:null}" fill="#48c900" stroke="none" stroke-width="0" stroke-linecap="butt"/><path d="M80.90534,-4.55488c0,0 -0.16098,-3.51337 0.75154,-4.90636c0.79776,-1.21781 2.50371,-1.80293 3.94031,-1.80293c25.27368,0 198.03679,0 198.03679,0c0,0 2.86532,0.18722 4.16104,2.00038c1.29572,1.81316 0.6794,4.77305 0.6794,4.77305z" data-paper-data="{&quot;origPos&quot;:null,&quot;index&quot;:null}" fill="#b4ff53" stroke="none" stroke-width="0" stroke-linecap="butt"/><path d="M140.47259,10.08334h75.37424" data-paper-data="{&quot;origPos&quot;:null}" fill="none" stroke="#3dc400" stroke-width="29" stroke-linecap="round"/><g data-paper-data="{&quot;origPos&quot;:null}"><g><g data-paper-data="{&quot;origPos&quot;:null}" stroke="none" stroke-linecap="butt"><path d="M383.62095,296.94446c0,12.81369 -28.3055,4.64025 -28.3055,4.64025c0,0 -21.80916,8.17345 -21.80916,-4.64025c0,-12.81369 11.21855,-23.20124 25.05733,-23.20124c13.83878,0 25.05733,10.38755 25.05733,23.20124z" data-paper-data="{&quot;origPos&quot;:null}" fill="url(#color-48)" stroke-width="NaN"/><path d="M421.12877,296.86628c0,12.81369 -28.3055,4.64025 -28.3055,4.64025c0,0 -21.80916,8.17345 -21.80916,-4.64025c0,-12.81369 11.21855,-23.20124 25.05733,-23.20124c13.83878,0 25.05733,10.38755 25.05733,23.20124z" data-paper-data="{&quot;origPos&quot;:null}" fill="url(#color-49)" stroke-width="NaN"/><path d="M459.56462,296.7881c0,12.81369 -28.3055,4.64025 -28.3055,4.64025c0,0 -21.80916,8.17345 -21.80916,-4.64025c0,-12.81369 11.21854,-23.20124 25.05733,-23.20124c13.83878,0 25.05733,10.38755 25.05733,23.20124z" data-paper-data="{&quot;origPos&quot;:null}" fill="url(#color-50)" stroke-width="NaN"/><path d="M498.0005,296.7099c0,12.81369 -28.3055,4.64024 -28.3055,4.64024c0,0 -21.80916,8.17345 -21.80916,-4.64024c0,-12.81369 11.21854,-23.20124 25.05733,-23.20124c13.83878,0 25.05733,10.38755 25.05733,23.20124z" data-paper-data="{&quot;origPos&quot;:null}" fill="url(#color-51)" stroke-width="NaN"/><path d="M535.5083,296.63174c0,12.81369 -28.3055,4.64024 -28.3055,4.64024c0,0 -21.80916,8.17345 -21.80916,-4.64024c0,-12.81369 11.21855,-23.20124 25.05733,-23.20124c13.83878,0 25.05733,10.38755 25.05733,23.20124z" data-paper-data="{&quot;origPos&quot;:null}" fill="url(#color-52)" stroke-width="NaN"/><path d="M335.29056,311.78855l7.75699,-31.45946l183.10537,0.56471l8.55863,30.84793z" data-paper-data="{&quot;origPos&quot;:null}" fill="url(#color-53)" stroke-width="0"/><path d="M349.26359,300.90938c0,8.71332 -10.03162,16.03718 -19.00121,16.03718c-8.96958,0 -13.48052,-7.32387 -13.48052,-16.03718c0,-8.71332 7.27128,-15.77684 16.24087,-15.77684c8.96958,0 16.24087,7.06352 16.24087,15.77684z" data-paper-data="{&quot;origPos&quot;:null}" fill="url(#color-54)" stroke-width="0"/><path d="M550.80441,300.04087c0,8.71332 -5.44891,17.83887 -14.4185,17.83887c-8.96958,0 -18.06324,-9.12556 -18.06324,-17.83887c0,-8.71332 7.27127,-15.77684 16.24087,-15.77684c8.96958,0 16.24087,7.06353 16.24087,15.77684z" data-paper-data="{&quot;origPos&quot;:null}" fill="url(#color-55)" stroke-width="0"/></g><path d="M541.70196,314.5062c0,0 -21.35715,0 -55.58913,0c-62.77023,0 -158.2303,0 -158.2303,0" data-paper-data="{&quot;origPos&quot;:null}" fill="#ffc3d5" stroke="#ffc3d5" stroke-width="9" stroke-linecap="round"/><path d="M399.27239,310.66431c4.70706,2.64754 -12.17937,3.46502 -20.37856,3.46502c-8.19919,0 -15.42978,5.85048 -15.42978,-0.29891c0,-0.34096 -7.0517,-3.23986 -6.7426,-3.38377c3.12986,-1.45724 5.9394,-1.61608 8.16708,-2.95339c4.90203,-2.94276 8.33774,-2.84057 13.42146,-2.84057c0,0 5.29038,-0.68937 10.11942,2.45714c3.5905,1.99836 5.43552,1.85096 10.84298,3.55449z" data-paper-data="{&quot;origPos&quot;:null}" fill="#ffc3d5" stroke="none" stroke-width="0" stroke-linecap="butt"/><path d="M436.84403,310.32123c4.70706,2.64754 -12.17937,3.46502 -20.37856,3.46502c-8.19919,0 -15.42978,5.85048 -15.42978,-0.29891c0,-0.34096 -7.05168,-3.23986 -6.74259,-3.38377c3.12986,-1.45724 5.9394,-1.61608 8.16707,-2.95339c4.90203,-2.94276 8.33774,-2.84057 13.42146,-2.84057c0,0 5.29038,-0.68937 10.11942,2.45714c3.5905,1.99836 5.43552,1.85096 10.84298,3.55449z" data-paper-data="{&quot;origPos&quot;:null}" fill="#ffc3d5" stroke="none" stroke-width="0" stroke-linecap="butt"/><path d="M475.74298,310.09996c4.70706,2.64754 -12.17937,3.46502 -20.37855,3.46502c-8.19919,0 -15.42979,5.85048 -15.42979,-0.29891c0,-0.34096 -7.05168,-3.23986 -6.74259,-3.38377c3.12986,-1.45724 5.9394,-1.61608 8.16707,-2.95339c4.90203,-2.94276 8.33774,-2.84057 13.42146,-2.84057c0,0 5.29038,-0.68937 10.11942,2.45714c3.5905,1.99836 5.43552,1.85095 10.84298,3.55448z" data-paper-data="{&quot;origPos&quot;:null}" fill="#ffc3d5" stroke="none" stroke-width="0" stroke-linecap="butt"/><path d="M511.32007,310.32123c4.70706,2.64754 -12.17937,3.46502 -20.37855,3.46502c-8.19919,0 -15.42978,5.85048 -15.42978,-0.29891c0,-0.34096 -7.0517,-3.23986 -6.7426,-3.38377c3.12986,-1.45724 5.9394,-1.61608 8.16707,-2.95339c4.90203,-2.94276 8.33774,-2.84057 13.42146,-2.84057c0,0 5.29038,-0.68937 10.11942,2.45714c3.5905,1.99836 5.43552,1.85096 10.84298,3.55449z" data-paper-data="{&quot;origPos&quot;:null}" fill="#ffc3d5" stroke="none" stroke-width="0" stroke-linecap="butt"/></g><g data-paper-data="{&quot;origPos&quot;:null}"><g data-paper-data="{&quot;origPos&quot;:null}" fill="none" stroke="none" stroke-width="1" stroke-linecap="butt" font-family="sans-serif" font-weight="normal" font-size="12" text-anchor="start"/><path d="M486.67795,314.11165c0,0 25.89613,0 42.47096,0" data-paper-data="{&quot;origPos&quot;:null}" fill="#ffc3d5" stroke="#ffc3d5" stroke-width="10" stroke-linecap="round"/></g></g><g data-paper-data="{&quot;origPos&quot;:null}"><g><g data-paper-data="{&quot;origPos&quot;:null}" stroke="none" stroke-linecap="butt"><path d="M585.31764,131.27329c0,12.81369 -28.3055,4.64025 -28.3055,4.64025c0,0 -21.80916,8.17345 -21.80916,-4.64025c0,-12.81369 11.21855,-23.20124 25.05733,-23.20124c13.83878,0 25.05733,10.38755 25.05733,23.20124z" data-paper-data="{&quot;origPos&quot;:null}" fill="url(#color-56)" stroke-width="NaN"/><path d="M622.82546,131.19511c0,12.81369 -28.3055,4.64025 -28.3055,4.64025c0,0 -21.80916,8.17345 -21.80916,-4.64025c0,-12.81369 11.21855,-23.20124 25.05733,-23.20124c13.83878,0 25.05733,10.38755 25.05733,23.20124z" data-paper-data="{&quot;origPos&quot;:null}" fill="url(#color-57)" stroke-width="NaN"/><path d="M661.26131,131.11693c0,12.81369 -28.3055,4.64025 -28.3055,4.64025c0,0 -21.80916,8.17345 -21.80916,-4.64025c0,-12.81369 11.21854,-23.20124 25.05733,-23.20124c13.83878,0 25.05733,10.38755 25.05733,23.20124z" data-paper-data="{&quot;origPos&quot;:null}" fill="url(#color-58)" stroke-width="NaN"/><path d="M699.69719,131.03873c0,12.81369 -28.3055,4.64024 -28.3055,4.64024c0,0 -21.80916,8.17345 -21.80916,-4.64024c0,-12.81369 11.21854,-23.20124 25.05733,-23.20124c13.83878,0 25.05733,10.38755 25.05733,23.20124z" data-paper-data="{&quot;origPos&quot;:null}" fill="url(#color-59)" stroke-width="NaN"/><path d="M737.20499,130.96057c0,12.81369 -28.3055,4.64024 -28.3055,4.64024c0,0 -21.80916,8.17345 -21.80916,-4.64024c0,-12.81369 11.21855,-23.20124 25.05733,-23.20124c13.83878,0 25.05733,10.38755 25.05733,23.20124z" data-paper-data="{&quot;origPos&quot;:null}" fill="url(#color-60)" stroke-width="NaN"/><path d="M536.98725,146.11738l7.75699,-31.45946l183.10537,0.56471l8.55863,30.84793z" data-paper-data="{&quot;origPos&quot;:null}" fill="url(#color-61)" stroke-width="0"/><path d="M550.96028,135.23821c0,8.71332 -10.03162,16.03718 -19.00121,16.03718c-8.96958,0 -13.48052,-7.32387 -13.48052,-16.03718c0,-8.71332 7.27128,-15.77684 16.24087,-15.77684c8.96958,0 16.24087,7.06352 16.24087,15.77684z" data-paper-data="{&quot;origPos&quot;:null}" fill="url(#color-62)" stroke-width="0"/><path d="M752.5011,134.3697c0,8.71332 -5.44891,17.83887 -14.4185,17.83887c-8.96958,0 -18.06324,-9.12556 -18.06324,-17.83887c0,-8.71332 7.27127,-15.77684 16.24087,-15.77684c8.96958,0 16.24087,7.06353 16.24087,15.77684z" data-paper-data="{&quot;origPos&quot;:null}" fill="url(#color-63)" stroke-width="0"/></g><path d="M529.57922,148.83503c0,0 95.46007,0 158.2303,0c34.23198,0 55.58913,0 55.58913,0" data-paper-data="{&quot;origPos&quot;:null}" fill="#ffc3d5" stroke="#ffc3d5" stroke-width="9" stroke-linecap="round"/><path d="M600.9691,144.99314c4.70706,2.64754 -12.17937,3.46502 -20.37856,3.46502c-8.19919,0 -15.42978,5.85048 -15.42978,-0.29891c0,-0.34096 -7.0517,-3.23986 -6.7426,-3.38377c3.12986,-1.45724 5.9394,-1.61608 8.16708,-2.95339c4.90203,-2.94276 8.33774,-2.84057 13.42146,-2.84057c0,0 5.29038,-0.68937 10.11942,2.45714c3.5905,1.99836 5.43552,1.85096 10.84298,3.55449z" data-paper-data="{&quot;origPos&quot;:null}" fill="#ffc3d5" stroke="none" stroke-width="0" stroke-linecap="butt"/><path d="M638.54074,144.65006c4.70706,2.64754 -12.17937,3.46502 -20.37856,3.46502c-8.19919,0 -15.42978,5.85048 -15.42978,-0.29891c0,-0.34096 -7.05168,-3.23986 -6.74259,-3.38377c3.12986,-1.45724 5.9394,-1.61608 8.16707,-2.95339c4.90203,-2.94276 8.33774,-2.84057 13.42146,-2.84057c0,0 5.29038,-0.68937 10.11942,2.45714c3.5905,1.99836 5.43552,1.85096 10.84298,3.55449z" data-paper-data="{&quot;origPos&quot;:null}" fill="#ffc3d5" stroke="none" stroke-width="0" stroke-linecap="butt"/><path d="M677.43967,144.42879c4.70706,2.64754 -12.17937,3.46502 -20.37855,3.46502c-8.19919,0 -15.42979,5.85048 -15.42979,-0.29891c0,-0.34096 -7.05168,-3.23986 -6.74259,-3.38377c3.12986,-1.45724 5.9394,-1.61608 8.16707,-2.95339c4.90203,-2.94276 8.33774,-2.84057 13.42146,-2.84057c0,0 5.29038,-0.68937 10.11942,2.45714c3.5905,1.99836 5.43552,1.85095 10.84298,3.55448z" data-paper-data="{&quot;origPos&quot;:null}" fill="#ffc3d5" stroke="none" stroke-width="0" stroke-linecap="butt"/><path d="M713.01676,144.65006c4.70706,2.64754 -12.17937,3.46502 -20.37855,3.46502c-8.19919,0 -15.42978,5.85048 -15.42978,-0.29891c0,-0.34096 -7.0517,-3.23986 -6.7426,-3.38377c3.12986,-1.45724 5.9394,-1.61608 8.16707,-2.95339c4.90203,-2.94276 8.33774,-2.84057 13.42146,-2.84057c0,0 5.29038,-0.68937 10.11942,2.45714c3.5905,1.99836 5.43552,1.85096 10.84298,3.55449z" data-paper-data="{&quot;origPos&quot;:null}" fill="#ffc3d5" stroke="none" stroke-width="0" stroke-linecap="butt"/></g><g data-paper-data="{&quot;origPos&quot;:null}"><g data-paper-data="{&quot;origPos&quot;:null}" fill="none" stroke="none" stroke-width="1" stroke-linecap="butt" font-family="sans-serif" font-weight="normal" font-size="12" text-anchor="start"/><path d="M730.8456,148.44048c-16.57483,0 -42.47096,0 -42.47096,0" data-paper-data="{&quot;origPos&quot;:null}" fill="#ffc3d5" stroke="#ffc3d5" stroke-width="10" stroke-linecap="round"/></g></g><path d="M-41.79419,82.58946l126.1324,-69.77918" data-paper-data="{&quot;origPos&quot;:null}" fill="none" stroke="#48c900" stroke-width="34" stroke-linecap="round"/><path d="M83.28046,-7.24747l-131.77751,74.02919" data-paper-data="{&quot;origPos&quot;:null}" fill="none" stroke="#b4ff53" stroke-width="7.5" stroke-linecap="round"/><g data-paper-data="{&quot;origPos&quot;:null}"><g data-paper-data="{&quot;origPos&quot;:null}" stroke="none" stroke-linecap="butt"><path d="M122.22402,40.8599c0,12.24786 -27.05558,4.43534 -27.05558,4.43534c0,0 -20.84611,7.81253 -20.84611,-4.43534c0,-12.24786 10.72316,-22.17671 23.95085,-22.17671c13.22768,0 23.95085,9.92885 23.95085,22.17671z" data-paper-data="{&quot;origPos&quot;:null}" fill="url(#color-64)" stroke-width="NaN"/><path d="M158.07559,40.78517c0,12.24786 -27.05558,4.43534 -27.05558,4.43534c0,0 -20.84611,7.81253 -20.84611,-4.43534c0,-12.24786 10.72316,-22.17671 23.95085,-22.17671c13.22768,0 23.95085,9.92885 23.95085,22.17671z" data-paper-data="{&quot;origPos&quot;:null}" fill="url(#color-65)" stroke-width="NaN"/><path d="M194.81417,40.71044c0,12.24786 -27.05558,4.43534 -27.05558,4.43534c0,0 -20.84611,7.81253 -20.84611,-4.43534c0,-12.24786 10.72315,-22.17671 23.95085,-22.17671c13.22768,0 23.95085,9.92885 23.95085,22.17671z" data-paper-data="{&quot;origPos&quot;:null}" fill="url(#color-66)" stroke-width="NaN"/><path d="M231.55278,40.6357c0,12.24786 -27.05558,4.43533 -27.05558,4.43533c0,0 -20.84611,7.81253 -20.84611,-4.43533c0,-12.24786 10.72315,-22.17671 23.95085,-22.17671c13.22768,0 23.95085,9.92885 23.95085,22.17671z" data-paper-data="{&quot;origPos&quot;:null}" fill="url(#color-67)" stroke-width="NaN"/><path d="M75.98724,55.34794l8.76134,-30.25757l134.02408,-1.46022l20.22687,30.74431z" data-paper-data="{&quot;origPos&quot;:null}" fill="url(#color-68)" stroke-width="0"/><path d="M89.9409,45.14973c0,8.32855 -9.25434,16.4396 -17.82784,16.4396c-8.5735,0 -13.21955,-8.11106 -13.21955,-16.4396c0,-8.32855 6.9502,-15.08016 15.5237,-15.08016c8.5735,0 15.5237,6.75161 15.5237,15.08016z" data-paper-data="{&quot;origPos&quot;:null}" fill="url(#color-69)" stroke-width="0"/><path d="M246.40344,44.31958c0,8.32855 -4.653,16.62852 -13.2265,16.62852c-8.5735,0 -17.8209,-8.29997 -17.8209,-16.62852c0,-5.66446 1.89289,-9.10116 6.55884,-12.31285c3.06243,-2.10796 5.24708,-2.76731 8.96486,-2.76731c8.5735,0 15.5237,6.75162 15.5237,15.08016z" data-paper-data="{&quot;origPos&quot;:null}" fill="url(#color-70)" stroke-width="0"/></g><path d="M71.5934,57.76768c0,0 70.9387,0 119.85778,0c15.5848,0 33.91934,0 39.9341,0c2.00492,0 1.97146,0 1.97146,0" data-paper-data="{&quot;origPos&quot;:null}" fill="#ffc3d5" stroke="#ffc3d5" stroke-width="10" stroke-linecap="round"/><path d="M137.18433,53.9739c4.49921,2.53063 -11.64155,3.31201 -19.47868,3.31201c-7.83713,0 -14.74843,5.59214 -14.74843,-0.28571c0,-0.3259 -6.74031,-3.09679 -6.44486,-3.23435c2.99165,-1.39289 5.67713,-1.54472 7.80644,-2.82298c4.68556,-2.81281 7.96956,-2.71514 12.8288,-2.71514c0,0 5.05677,-0.65893 9.67257,2.34864c3.43195,1.91012 5.19549,1.76923 10.36417,3.39753z" data-paper-data="{&quot;origPos&quot;:null}" fill="#ffc3d5" stroke="none" stroke-width="0" stroke-linecap="butt"/><path d="M173.09686,53.64597c4.49921,2.53063 -11.64155,3.31201 -19.47868,3.31201c-7.83713,0 -14.74843,5.59214 -14.74843,-0.28571c0,-0.3259 -6.74029,-3.09679 -6.44485,-3.23435c2.99165,-1.39289 5.67713,-1.54472 7.80643,-2.82298c4.68556,-2.81281 7.96956,-2.71514 12.8288,-2.71514c0,0 5.05677,-0.65893 9.67257,2.34864c3.43195,1.91012 5.19549,1.76923 10.36417,3.39753z" data-paper-data="{&quot;origPos&quot;:null}" fill="#ffc3d5" stroke="none" stroke-width="0" stroke-linecap="butt"/><path d="M210.27815,53.43448c4.49921,2.53063 -11.64155,3.31201 -19.47867,3.31201c-7.83713,0 -14.74844,5.59214 -14.74844,-0.28571c0,-0.3259 -6.74029,-3.09679 -6.44485,-3.23435c2.99165,-1.39289 5.67713,-1.54472 7.80643,-2.82298c4.68556,-2.81281 7.96956,-2.71514 12.8288,-2.71514c0,0 5.05677,-0.65893 9.67257,2.34864c3.43195,1.91012 5.19549,1.76922 10.36417,3.39752z" data-paper-data="{&quot;origPos&quot;:null}" fill="#ffc3d5" stroke="none" stroke-width="0" stroke-linecap="butt"/></g><g data-paper-data="{&quot;origPos&quot;:null}"><g><g data-paper-data="{&quot;origPos&quot;:null}" stroke="none" stroke-linecap="butt"><path d="M62.93416,78.86322c0,12.81369 -28.3055,4.64025 -28.3055,4.64025c0,0 -21.80916,8.17345 -21.80916,-4.64025c0,-12.81369 11.21855,-23.20124 25.05733,-23.20124c13.83878,0 25.05733,10.38755 25.05733,23.20124z" data-paper-data="{&quot;origPos&quot;:null}" fill="url(#color-71)" stroke-width="NaN"/><path d="M100.44194,78.78504c0,12.81369 -28.3055,4.64025 -28.3055,4.64025c0,0 -21.80916,8.17345 -21.80916,-4.64025c0,-12.81369 11.21855,-23.20124 25.05733,-23.20124c13.83878,0 25.05733,10.38755 25.05733,23.20124z" data-paper-data="{&quot;origPos&quot;:null}" fill="url(#color-72)" stroke-width="NaN"/><path d="M138.87783,78.70687c0,12.81369 -28.3055,4.64025 -28.3055,4.64025c0,0 -21.80916,8.17345 -21.80916,-4.64025c0,-12.81369 11.21854,-23.20124 25.05733,-23.20124c13.83878,0 25.05733,10.38755 25.05733,23.20124z" data-paper-data="{&quot;origPos&quot;:null}" fill="url(#color-73)" stroke-width="NaN"/><path d="M177.31371,78.62866c0,12.81369 -28.3055,4.64024 -28.3055,4.64024c0,0 -21.80916,8.17345 -21.80916,-4.64024c0,-12.81369 11.21854,-23.20124 25.05733,-23.20124c13.83878,0 25.05733,10.38755 25.05733,23.20124z" data-paper-data="{&quot;origPos&quot;:null}" fill="url(#color-74)" stroke-width="NaN"/><path d="M214.82149,78.55051c0,12.81369 -28.3055,4.64024 -28.3055,4.64024c0,0 -21.80916,8.17345 -21.80916,-4.64024c0,-12.81369 11.21855,-23.20124 25.05733,-23.20124c13.83878,0 25.05733,10.38755 25.05733,23.20124z" data-paper-data="{&quot;origPos&quot;:null}" fill="url(#color-75)" stroke-width="NaN"/><path d="M14.60375,93.70732l7.75699,-31.45946l183.10537,0.56471l8.55863,30.84793z" data-paper-data="{&quot;origPos&quot;:null}" fill="url(#color-76)" stroke-width="0"/><path d="M28.57675,82.82814c0,8.71332 -10.03162,16.03718 -19.00121,16.03718c-8.96958,0 -13.48052,-7.32387 -13.48052,-16.03718c0,-8.71332 7.27128,-15.77684 16.24087,-15.77684c8.96958,0 16.24087,7.06352 16.24087,15.77684z" data-paper-data="{&quot;origPos&quot;:null}" fill="url(#color-77)" stroke-width="0"/><path d="M230.1176,81.95964c0,8.71332 -5.44891,17.83887 -14.4185,17.83887c-8.96958,0 -18.06324,-9.12556 -18.06324,-17.83887c0,-8.71332 7.27127,-15.77684 16.24087,-15.77684c8.96958,0 16.24087,7.06353 16.24087,15.77684z" data-paper-data="{&quot;origPos&quot;:null}" fill="url(#color-78)" stroke-width="0"/></g><path d="M217.02513,96.42497c-1.15911,0 -30.2911,0 -51.59911,0c-62.77023,0 -158.2303,0 -158.2303,0" data-paper-data="{&quot;origPos&quot;:null}" fill="#ffc3d5" stroke="#ffc3d5" stroke-width="9" stroke-linecap="round"/><path d="M78.58559,92.58307c4.70706,2.64754 -12.17937,3.46502 -20.37856,3.46502c-8.19919,0 -15.42978,5.85048 -15.42978,-0.29891c0,-0.34096 -7.0517,-3.23986 -6.7426,-3.38377c3.12986,-1.45724 5.9394,-1.61608 8.16708,-2.95339c4.90203,-2.94276 8.33774,-2.84057 13.42146,-2.84057c0,0 5.29038,-0.68937 10.11942,2.45714c3.5905,1.99836 5.43552,1.85096 10.84298,3.55449z" data-paper-data="{&quot;origPos&quot;:null}" fill="#ffc3d5" stroke="none" stroke-width="0" stroke-linecap="butt"/><path d="M116.15722,92.23999c4.70706,2.64754 -12.17937,3.46502 -20.37856,3.46502c-8.19919,0 -15.42978,5.85048 -15.42978,-0.29891c0,-0.34096 -7.05168,-3.23986 -6.74259,-3.38377c3.12986,-1.45724 5.9394,-1.61608 8.16707,-2.95339c4.90203,-2.94276 8.33774,-2.84057 13.42146,-2.84057c0,0 5.29038,-0.68937 10.11942,2.45714c3.5905,1.99836 5.43552,1.85096 10.84298,3.55449z" data-paper-data="{&quot;origPos&quot;:null}" fill="#ffc3d5" stroke="none" stroke-width="0" stroke-linecap="butt"/><path d="M155.05619,92.01872c4.70706,2.64754 -12.17937,3.46502 -20.37855,3.46502c-8.19919,0 -15.42979,5.85048 -15.42979,-0.29891c0,-0.34096 -7.05168,-3.23986 -6.74259,-3.38377c3.12986,-1.45724 5.9394,-1.61608 8.16707,-2.95339c4.90203,-2.94276 8.33774,-2.84057 13.42146,-2.84057c0,0 5.29038,-0.68937 10.11942,2.45714c3.5905,1.99836 5.43552,1.85095 10.84298,3.55448z" data-paper-data="{&quot;origPos&quot;:null}" fill="#ffc3d5" stroke="none" stroke-width="0" stroke-linecap="butt"/><path d="M190.63329,92.23999c4.70706,2.64754 -12.17937,3.46502 -20.37855,3.46502c-8.19919,0 -15.42978,5.85048 -15.42978,-0.29891c0,-0.34096 -7.0517,-3.23986 -6.7426,-3.38377c3.12986,-1.45724 5.9394,-1.61608 8.16707,-2.95339c4.90203,-2.94276 8.33774,-2.84057 13.42146,-2.84057c0,0 5.29038,-0.68937 10.11942,2.45714c3.5905,1.99836 5.43552,1.85096 10.84298,3.55449z" data-paper-data="{&quot;origPos&quot;:null}" fill="#ffc3d5" stroke="none" stroke-width="0" stroke-linecap="butt"/></g><g data-paper-data="{&quot;origPos&quot;:null}"><g data-paper-data="{&quot;origPos&quot;:null}" fill="none" stroke="none" stroke-width="1" stroke-linecap="butt" font-family="sans-serif" font-weight="normal" font-size="12" text-anchor="start"/><path d="M208.46212,96.03041c-16.57483,0 -42.47096,0 -42.47096,0" data-paper-data="{&quot;origPos&quot;:null}" fill="#ffc3d5" stroke="#ffc3d5" stroke-width="10" stroke-linecap="round"/></g></g><path d="M-89.24271,378.01146v-413.02102h689.42205v413.02102z" data-paper-data="{&quot;origPos&quot;:null}" fill="none" stroke="none" stroke-width="0" stroke-linecap="butt"/><path d="M-70.79597,70.83364v-6.71683h23.31134v6.71683z" data-paper-data="{&quot;origPos&quot;:null}" fill="#b4ff53" stroke="none" stroke-width="0" stroke-linecap="butt"/><path d="M84.69575,141.40813h-79.94915" data-paper-data="{&quot;origPos&quot;:null,&quot;index&quot;:null}" fill="none" stroke="#04b742" stroke-width="30" stroke-linecap="round"/></g></g></svg>