<svg version="1.1" xmlns="http://www.w3.org/2000/svg" xmlns:xlink="http://www.w3.org/1999/xlink" width="197" height="206" viewBox="0,0,197,206"><g transform="translate(-143.05686,-80.17615)"><g data-paper-data="{&quot;isPaintingLayer&quot;:true}" stroke="none" stroke-miterlimit="10" stroke-dasharray="" stroke-dashoffset="0" style="mix-blend-mode: normal"><path d="M297.50775,93.02583c3.27192,3.18049 2.64507,9.60258 2.64507,9.60258l-0.41457,139.68469c0,0 0.82956,6.89235 -2.38683,10.31829c-3.21638,3.42593 -9.7337,2.5919 -9.7337,2.5919l-113.7223,-0.93597c0,0 -7.07761,0.46714 -10.32541,-2.77263c-3.2478,-3.23977 -2.68452,-10.20514 -2.68452,-10.20514l-0.00917,-139.34861c0,0 -0.14677,-5.79554 2.74533,-8.64101c2.8921,-2.84547 8.84627,-2.76368 8.84627,-2.76368l115.06664,-0.19352c0,0 6.70127,-0.5174 9.97318,2.6631z" data-paper-data="{&quot;origRot&quot;:0,&quot;index&quot;:null}" fill="#000000" fill-rule="evenodd" stroke-width="1" stroke-linecap="round" stroke-linejoin="round" opacity="0.42445"/><text transform="translate(167.76981,109.17084) scale(0.36383,0.36383)" font-size="40" xml:space="preserve" data-paper-data="{&quot;origPos&quot;:null}" fill="#ffffff" fill-rule="nonzero" stroke="none" stroke-width="1" stroke-linecap="butt" stroke-linejoin="miter" stroke-miterlimit="10" stroke-dasharray="" stroke-dashoffset="0" font-family="Sans Serif" font-weight="normal" text-anchor="start" style="mix-blend-mode: normal"><tspan x="0" dy="0">[1] Hello!</tspan><tspan x="0" dy="46.150000000000006px">[2] This way!</tspan><tspan x="0" dy="46.150000000000006px">[3] Bye!</tspan><tspan x="0" dy="46.150000000000006px">[4] Watch out!</tspan><tspan x="0" dy="46.150000000000006px">[5] Lol</tspan><tspan x="0" dy="46.150000000000006px">[6] It's lagging :(</tspan><tspan x="0" dy="46.150000000000006px">[7] Which way?</tspan><tspan x="0" dy="46.150000000000006px">[8] Okay!</tspan><tspan x="0" dy="46.150000000000006px">[9] Got to go :)</tspan></text><path d="M143.05686,286.17615v-206h197v206z" data-paper-data="{&quot;origPos&quot;:null}" fill="none" fill-rule="nonzero" stroke-width="0" stroke-linecap="butt" stroke-linejoin="miter"/></g></g></svg>