<svg version="1.1" xmlns="http://www.w3.org/2000/svg" xmlns:xlink="http://www.w3.org/1999/xlink" width="95" height="110"><g transform="translate(-213.32486,-102.01146)"><g data-paper-data="{&quot;isPaintingLayer&quot;:true}" stroke="none" stroke-miterlimit="10" stroke-dasharray="" stroke-dashoffset="0" style="mix-blend-mode: normal"><path d="M247.49267,175.779c0,-0.975 0.45,-1.95 0.975,-2.7l9.3,-12.7c-0.225,-0.225 0.1,-0.05 -0.35,-0.05c-8.85,0 -17.475,-7.2 -17.475,-17.25c0,-9.9 8.625,-16.725 17.475,-16.725c9,0 17.775,6.825 17.775,17.85c0,8.1 -5,13.975 -10.55,21.775l-9.1,12.275c-0.75,1.2 -2.1,1.875 -3.525,1.875c-2.475,0 -4.525,-1.95 -4.525,-4.35zM265.96767,143.079c0,-4.5 -3.675,-8.175 -8.4,-8.175c-4.8,0 -8.25,3.75 -8.25,8.175c0,4.35 3.45,8.175 8.25,8.175c5.325,0 8.4,-3.825 8.4,-8.175z" data-paper-data="{&quot;origPos&quot;:null}" fill="#000000" fill-rule="evenodd" stroke-width="1" stroke-linecap="round" stroke-linejoin="round"/><path d="M213.32486,212.01146v-110h95v110z" fill="none" fill-rule="nonzero" stroke-width="0" stroke-linecap="butt" stroke-linejoin="miter"/></g></g></svg>