<svg version="1.1" xmlns="http://www.w3.org/2000/svg" xmlns:xlink="http://www.w3.org/1999/xlink" width="196.09089" height="131.02019" viewBox="0,0,196.09089,131.02019"><g transform="translate(-324.01256,13.58579)"><g data-paper-data="{&quot;isPaintingLayer&quot;:true}" stroke="none" stroke-miterlimit="10" stroke-dasharray="" stroke-dashoffset="0" style="mix-blend-mode: normal"><path d="M340.06849,8.84903h119.29867c6.18948,0 11.20721,4.90005 11.20721,10.94433v47.35463c0,6.04428 -5.01772,10.9443 -11.20721,10.9443h-119.29867c-6.18971,0 -11.20747,-4.90002 -11.20747,-10.9443v-47.35463c0,-6.04428 5.01778,-10.94433 11.20747,-10.94433z" fill="#ffffff" fill-rule="evenodd" stroke-width="1" stroke-linecap="round" stroke-linejoin="round"/><path d="M324.01256,117.4344v-131.02019h196.09089v131.02019z" fill="none" fill-rule="nonzero" stroke-width="0" stroke-linecap="butt" stroke-linejoin="miter"/><path d="" data-paper-data="{&quot;origPos&quot;:null}" fill="#000000" fill-rule="nonzero" stroke-width="1" stroke-linecap="butt" stroke-linejoin="miter"/><path d="M358.36683,83.48872v-52.80417h69.16102v52.80417z" data-paper-data="{&quot;origPos&quot;:null}" fill="none" fill-rule="nonzero" stroke-width="0" stroke-linecap="butt" stroke-linejoin="miter"/><g fill-rule="nonzero" stroke-linecap="butt" stroke-linejoin="miter"><path d="M351.86683,73.98872v-52.80417h69.16102v52.80417z" data-paper-data="{&quot;origPos&quot;:null}" fill="none" stroke-width="0"/><g data-paper-data="{&quot;origPos&quot;:null}"><path d="M418.4437,62.25731c0,3.43084 -1.6282,6.3762 -5.05904,6.80353h-25.87668c-3.50793,-0.42732 -5.05904,-3.37269 -5.05904,-6.86168c0,-2.61674 1.68635,-4.94274 4.01234,-5.81498c-0.17446,-0.3489 0.52335,-0.34891 0.52335,-0.75596c0,-1.33745 0.29075,-2.73305 1.6282,-2.73305c0.11631,0 0.29075,0.05815 0.40705,0.05815c-0.17446,-0.40705 0.4652,-0.52334 0.4652,-1.04669c0,-2.03524 0.93041,-4.07049 2.96565,-4.07049c0.5815,0 1.0467,0.1163 1.6282,0.3489v0c0,-3.43084 2.73304,-6.16387 6.16387,-6.16387c3.37269,0 6.04758,2.67489 6.04758,6.10573c2.26785,-0.93041 4.94275,-0.4652 6.74538,1.33745c1.86079,1.8608 1.68635,4.71015 0.63964,6.97799c2.4423,0.87226 4.82644,3.14009 4.76829,5.81498z" data-paper-data="{&quot;origPos&quot;:null}" fill="#d68800" stroke-width="1"/><path d="M418.50184,60.9428c0,3.43084 -2.79119,6.33833 -6.16387,6.33833h-23.66698c-3.43084,0 -6.22202,-2.90749 -6.22202,-6.33833c0,-2.6749 1.68635,-5.05904 4.07048,-5.93129c-0.17446,-0.3489 -0.29075,-0.69779 -0.29075,-1.10484c0,-1.33745 1.04669,-2.38415 2.38415,-2.38415c0.11631,0 0.29076,0.05815 0.40706,0.05815c-0.17446,-0.4652 -0.29076,-0.93041 -0.29076,-1.45375c0,-2.03524 1.68636,-3.66344 3.7216,-3.66344c0.5815,0 1.04669,0.1163 1.6282,0.34891c0,-3.43084 2.73305,-6.22203 6.16388,-6.22203c3.37269,0 6.04757,2.73304 6.04757,6.10573c2.26785,-0.93041 4.94274,-0.4652 6.74538,1.33745c1.86079,1.8608 2.32601,4.65199 1.27929,6.91983c2.4423,0.87226 4.1868,3.31453 4.1868,5.98942z" data-paper-data="{&quot;origPos&quot;:null}" fill="#ffa200" stroke-width="1"/><path d="M412.33797,67.28114h-7.79209l-15.58415,-15.70045c-0.17446,-0.40705 -0.23261,-0.98855 -0.23261,-1.45375c0,-2.03524 1.68635,-3.66345 3.72159,-3.66345c0.5815,0 1.0467,0.1163 1.6282,0.34891c0,-3.43084 2.73304,-6.22202 6.16387,-6.22202c3.37269,0 6.04758,2.73305 6.04758,6.04758c2.26785,-0.87226 4.94275,-0.40705 6.74538,1.3956c1.86079,1.91895 2.326,4.71013 1.27929,6.97799c2.4423,0.87226 4.18679,3.19823 4.18679,5.93129c0,3.43084 -2.79119,6.33833 -6.16387,6.33833z" data-paper-data="{&quot;origPos&quot;:null}" fill="#ec9600" stroke-width="1"/><g data-paper-data="{&quot;origPos&quot;:null}" fill="none" stroke-width="1" font-family="sans-serif" font-weight="normal" font-size="12" text-anchor="start"/><g data-paper-data="{&quot;origPos&quot;:null}" fill="none" stroke-width="1" font-family="sans-serif" font-weight="normal" font-size="12" text-anchor="start"/><path d="M374.28131,71.09603v-37.83777h48.39116v37.83777z" data-paper-data="{&quot;origPos&quot;:null}" fill="none" stroke-width="0"/></g><path d="M406.32892,57.61032c0,3.2192 -2.61903,5.70144 -5.8382,5.70144c-3.21918,0 -5.74704,-2.48221 -5.74704,-5.70144c0,-2.93634 2.0879,-5.14493 4.91383,-5.55048v-0.66031c0,-0.39859 0.21441,-0.76989 0.55962,-0.96914c0.34653,-0.20001 0.77344,-0.10828 1.11906,0.09147l2.94012,1.69883c0.3449,0.19929 0.55916,0.5705 0.55916,0.96883c0,0.39828 -0.21421,0.76951 -0.55911,0.9688l-2.94017,1.69885c-0.3451,0.19942 -0.77199,0.20062 -1.11908,0.00031c-0.34518,-0.19919 -0.55962,-0.57052 -0.55962,-0.96908v-0.57411c-1.252,0.36206 -2.58052,1.19943 -2.58052,3.34163c0,1.97527 1.75816,3.37368 3.41375,3.41375c1.88405,0.0456 3.27183,-1.80606 3.36813,-3.45934c0.0456,-0.78282 0.54341,-1.41742 1.32623,-1.41742c0.78282,0 1.14387,0.6346 1.14384,1.41742z" data-paper-data="{&quot;origPos&quot;:null}" fill="#d68800" stroke-width="1"/><path d="M406.32892,56.45397c0,3.2192 -2.61903,5.70144 -5.8382,5.70144c-3.21918,0 -5.74704,-2.48221 -5.74704,-5.70144c0,-2.93634 2.0879,-5.14493 4.91383,-5.55048v-0.66031c0,-0.39859 0.21441,-0.76989 0.55962,-0.96914c0.34653,-0.20001 0.77344,-0.10828 1.11906,0.09147l2.94012,1.69883c0.3449,0.19929 0.55916,0.5705 0.55916,0.96883c0,0.39828 -0.21421,0.76951 -0.55911,0.9688l-2.94017,1.69885c-0.3451,0.19942 -0.77199,0.20062 -1.11908,0.00031c-0.34518,-0.19919 -0.55962,-0.57052 -0.55962,-0.96908v-0.57411c-1.252,0.36206 -2.58052,1.19943 -2.58052,3.34163c0,1.97527 1.75816,3.37368 3.41375,3.41375c1.88405,0.0456 3.27183,-1.80606 3.36813,-3.45934c0.0456,-0.78282 0.54341,-1.41742 1.32623,-1.41742c0.78282,0 1.14387,0.6346 1.14384,1.41742z" data-paper-data="{&quot;origPos&quot;:null}" fill="#ffffff" stroke-width="1"/></g><g fill="#000000" fill-rule="evenodd" stroke-width="1" stroke-linecap="round" stroke-linejoin="round"><path d="M339.60327,29.38561v-0.48525c0,-0.35181 0.29115,-0.64296 0.64296,-0.64296c0.35181,0 0.65509,0.29115 0.65509,0.64296v5.13155c0,0.35181 -0.30328,0.64296 -0.65509,0.64296c-0.35181,0 -0.64296,-0.29115 -0.64296,-0.64296v-0.65509c-0.08492,0.54591 -0.83707,1.31018 -1.98954,1.31018c-1.34658,0 -2.96004,-1.0433 -2.96004,-3.23907c0,-2.15938 1.62559,-3.22693 2.96004,-3.22693c0.89772,0 1.67412,0.461 1.98954,1.16461zM339.66392,31.44793c0,-1.51642 -1.01903,-2.12298 -1.84396,-2.12298c-0.88559,0 -1.88036,0.69148 -1.88036,2.12298c0,1.44363 0.99477,2.13512 1.88036,2.13512c0.82493,0 1.84396,-0.63083 1.84396,-2.13512z"/><path d="M348.36209,34.0319c0,0.03639 0,0.08492 -0.01213,0.12131v0.32755c0,1.98954 -1.79544,2.60823 -3.08136,2.60823c-0.77641,0 -1.38297,-0.21836 -1.66199,-0.36394c-0.25476,-0.10918 -0.40033,-0.30328 -0.40033,-0.54591c0,-0.29115 0.23049,-0.50951 0.50951,-0.50951c0.07279,0 0.16984,0.01213 0.30328,0.06066c0.26689,0.10918 0.71575,0.25475 1.27379,0.25475c1.05542,0 1.77117,-0.5459 1.77117,-1.50428v-1.10395c-0.08492,0.54591 -0.83706,1.31018 -1.98954,1.31018c-1.34658,0 -2.96004,-1.0433 -2.96004,-3.23907c0,-2.15938 1.62559,-3.22693 2.96004,-3.22693c0.89772,0 1.67412,0.461 1.98954,1.16461v-0.48525c0,-0.35181 0.29115,-0.64296 0.64296,-0.64296c0.35181,0 0.6551,0.29115 0.6551,0.64296zM347.12469,31.44793c0,-1.51642 -1.01903,-2.12298 -1.84396,-2.12298c-0.88559,0 -1.88036,0.69148 -1.88036,2.12298c0,1.44363 0.99477,2.13512 1.88036,2.13512c0.82493,0 1.84396,-0.63083 1.84396,-2.13512z"/><path d="M354.52481,29.38561v-0.48525c0,-0.35181 0.29115,-0.64296 0.64296,-0.64296c0.35181,0 0.65509,0.29115 0.65509,0.64296v5.13155c0,0.35181 -0.30328,0.64296 -0.65509,0.64296c-0.35181,0 -0.64296,-0.29115 -0.64296,-0.64296v-0.65509c-0.08492,0.54591 -0.83706,1.31018 -1.98954,1.31018c-1.34658,0 -2.96005,-1.0433 -2.96005,-3.23907c0,-2.15938 1.6256,-3.22693 2.96005,-3.22693c0.89772,0 1.67412,0.461 1.98954,1.16461zM354.58546,31.44793c0,-1.51642 -1.01904,-2.12298 -1.84397,-2.12298c-0.88559,0 -1.88035,0.69148 -1.88035,2.12298c0,1.44363 0.99477,2.13512 1.88035,2.13512c0.82493,0 1.84397,-0.63083 1.84397,-2.13512z"/><path d="M357.27862,26.46196c0,-0.35181 0.30328,-0.64297 0.65509,-0.64297c0.35181,0 0.65509,0.29116 0.65509,0.64297c0,0.35181 -0.30328,0.64296 -0.65509,0.64296c-0.35181,0 -0.65509,-0.29115 -0.65509,-0.64296zM358.57667,28.91249v5.10729c0,0.36394 -0.29115,0.65509 -0.64296,0.65509c-0.35181,0 -0.64297,-0.29115 -0.64297,-0.65509v-5.10729c0,-0.36394 0.29116,-0.65509 0.64297,-0.65509c0.35181,0 0.64296,0.29115 0.64296,0.65509z"/><path d="M365.83125,31.03546v2.98431c0,0.35181 -0.27902,0.64297 -0.63083,0.64297c-0.35181,0 -0.64297,-0.29116 -0.64297,-0.64297v-2.98431c0,-1.21314 -0.69148,-1.69839 -1.48006,-1.69839c-1.16461,0 -1.67412,1.0433 -1.74691,1.56494v3.11775c0,0.35181 -0.29115,0.64297 -0.64296,0.64297c-0.35181,0 -0.64297,-0.29116 -0.64297,-0.64297v-5.10729c0,-0.36394 0.29116,-0.65509 0.64297,-0.65509c0.35181,0 0.64296,0.29115 0.64296,0.65509v0.80066c0.06066,-0.4246 0.78854,-1.48002 2.17155,-1.48002c1.17674,0 2.32922,0.74001 2.32922,2.80234z"/><path d="M370.67165,26.46196c0,-0.35181 0.30328,-0.64297 0.65509,-0.64297c0.35181,0 0.65509,0.29116 0.65509,0.64297c0,0.35181 -0.30328,0.64296 -0.65509,0.64296c-0.35181,0 -0.65509,-0.29115 -0.65509,-0.64296zM371.96971,28.91249v5.10729c0,0.36394 -0.29116,0.65509 -0.64297,0.65509c-0.35181,0 -0.64296,-0.29115 -0.64296,-0.65509v-5.10729c0,-0.36394 0.29115,-0.65509 0.64296,-0.65509c0.35181,0 0.64297,0.29115 0.64297,0.65509z"/><path d="M379.22425,31.03546v2.98431c0,0.35181 -0.27903,0.64297 -0.63083,0.64297c-0.35181,0 -0.64296,-0.29116 -0.64296,-0.64297v-2.98431c0,-1.21314 -0.69148,-1.69839 -1.48002,-1.69839c-1.16461,0 -1.67412,1.0433 -1.74691,1.56494v3.11775c0,0.35181 -0.29116,0.64297 -0.64297,0.64297c-0.35181,0 -0.64296,-0.29116 -0.64296,-0.64297v-5.10729c0,-0.36394 0.29115,-0.65509 0.64296,-0.65509c0.35181,0 0.64297,0.29115 0.64297,0.65509v0.80066c0.06066,-0.4246 0.78853,-1.48002 2.1715,-1.48002c1.17674,0 2.32922,0.74001 2.32922,2.80234z"/><path d="M388.7716,29.38561v-0.48525c0,-0.35181 0.29115,-0.64296 0.64296,-0.64296c0.35181,0 0.65509,0.29115 0.65509,0.64296v5.13155c0,0.35181 -0.30328,0.64296 -0.65509,0.64296c-0.35181,0 -0.64296,-0.29115 -0.64296,-0.64296v-0.65509c-0.08492,0.54591 -0.83706,1.31018 -1.98954,1.31018c-1.34658,0 -2.96004,-1.0433 -2.96004,-3.23907c0,-2.15938 1.62559,-3.22693 2.96004,-3.22693c0.89772,0 1.67412,0.461 1.98954,1.16461zM388.83226,31.44793c0,-1.51642 -1.01903,-2.12298 -1.84396,-2.12298c-0.88559,0 -1.88036,0.69148 -1.88036,2.12298c0,1.44363 0.99477,2.13512 1.88036,2.13512c0.82493,0 1.84396,-0.63083 1.84396,-2.13512z"/><path d="M399.02258,26.66819c0,0.27902 -0.20623,0.47312 -0.47312,0.47312c-0.10918,0 -0.26689,-0.04852 -0.461,-0.12131c-0.16984,-0.07279 -0.32754,-0.14557 -0.57017,-0.14557c-0.67936,0 -0.89772,0.50951 -0.89772,1.0069v0.41246h1.21314c0.31542,0 0.53378,0.20623 0.53378,0.50951c0,0.31542 -0.21836,0.52165 -0.53378,0.52165h-1.21314v4.70695c0,0.35181 -0.29116,0.64296 -0.63083,0.64296c-0.35181,0 -0.64296,-0.29115 -0.64296,-0.64296v-4.70695h-0.40033c-0.31542,0 -0.52165,-0.20624 -0.52165,-0.52165c0,-0.30328 0.20623,-0.50951 0.52165,-0.50951h0.40033v-0.46099c0,-1.66199 1.22527,-2.0502 2.01381,-2.0502c0.54591,0 1.00689,0.14558 1.33444,0.37607c0.20624,0.13345 0.32755,0.29115 0.32755,0.50951z"/><path d="M404.84562,31.2417c0,0.49739 -0.27903,0.69148 -0.80067,0.69148l-4.064,-0.01213c0.13345,1.12821 1.01903,1.68626 1.98954,1.68626c0.49739,0 0.83705,-0.12131 1.21313,-0.35181c0.20624,-0.10918 0.33968,-0.1941 0.50952,-0.1941c0.27902,0 0.44886,0.1941 0.44886,0.461c0,0.1577 -0.06065,0.32754 -0.32754,0.5459c-0.46099,0.37607 -1.12822,0.59444 -1.89249,0.59444c-1.57708,0 -3.26332,-1.00691 -3.26332,-3.20268c0,-2.18364 1.75904,-3.23907 3.14201,-3.23907c1.38297,0 3.04497,1.09182 3.04497,3.0207zM399.98095,30.99907h3.61513c-0.10918,-1.15248 -0.98264,-1.662 -1.79544,-1.662c-0.80067,0 -1.71051,0.50952 -1.8197,1.662z"/><path d="M414.67199,28.86395c0,0.09705 -0.04852,0.18198 -0.08492,0.29116l-1.71052,4.98597c-0.10918,0.31542 -0.33967,0.48525 -0.60656,0.48525c-0.27902,0 -0.49739,-0.16984 -0.63083,-0.48525l-1.63773,-4.00334l-1.64986,4.00334c-0.12131,0.31542 -0.35181,0.48525 -0.6187,0.48525c-0.27902,0 -0.49739,-0.16984 -0.60657,-0.48525l-1.71051,-4.98597c-0.03639,-0.10918 -0.08492,-0.19411 -0.08492,-0.29116c0,-0.33967 0.26689,-0.60656 0.60657,-0.60656c0.23049,0 0.47312,0.14557 0.54591,0.35181l1.33445,4.12465l1.60133,-4.07613c0.09705,-0.25476 0.30328,-0.40033 0.5823,-0.40033c0.27902,0 0.47313,0.14557 0.58231,0.40033l1.60133,4.07613l1.33445,-4.12465c0.06066,-0.21836 0.31542,-0.35181 0.54591,-0.35181c0.33967,0 0.60656,0.26689 0.60656,0.60656z"/><path d="M423.26098,29.16724c0.07279,0.10918 0.16984,0.24263 0.16984,0.44886c0,0.30328 -0.23049,0.48525 -0.52165,0.48525c-0.1941,0 -0.37607,-0.08492 -0.55804,-0.32755c-0.24263,-0.30328 -0.5823,-0.50951 -1.07969,-0.50951c-0.60657,0 -0.97051,0.30328 -0.97051,0.74001c0,0.30328 0.16984,0.59443 0.8128,0.77641l0.75214,0.20624c1.03116,0.27902 1.80757,0.74001 1.80757,1.75905c0,1.27379 -1.201,1.91675 -2.46266,1.91675c-1.05542,0 -1.79544,-0.46099 -2.11085,-0.95838c-0.06066,-0.08492 -0.25475,-0.32755 -0.25475,-0.6187c0,-0.25476 0.1577,-0.52165 0.49738,-0.52165c0.27902,0 0.4246,0.16984 0.54591,0.35181c0.30328,0.50951 0.80067,0.67935 1.32232,0.67935c0.70362,0 1.18887,-0.29115 1.18887,-0.77641c0,-0.36394 -0.25475,-0.63083 -0.86132,-0.80066l-0.8128,-0.21837c-1.17674,-0.32755 -1.68626,-0.95838 -1.68626,-1.7833c0,-1.14035 1.03117,-1.79544 2.20791,-1.79544c0.87345,0 1.62559,0.35181 2.0138,0.94624z"/><path d="M430.64896,31.2417c0,0.49739 -0.27903,0.69148 -0.80067,0.69148l-4.064,-0.01213c0.13345,1.12821 1.01903,1.68626 1.98954,1.68626c0.49739,0 0.83705,-0.12131 1.21313,-0.35181c0.20624,-0.10918 0.33968,-0.1941 0.50952,-0.1941c0.27902,0 0.44886,0.1941 0.44886,0.461c0,0.1577 -0.06065,0.32754 -0.32754,0.5459c-0.46099,0.37607 -1.12822,0.59444 -1.89249,0.59444c-1.57708,0 -3.26332,-1.00691 -3.26332,-3.20268c0,-2.18364 1.75904,-3.23907 3.14201,-3.23907c1.38297,0 3.04497,1.09182 3.04497,3.0207zM425.7843,30.99907h3.61513c-0.10918,-1.15248 -0.98264,-1.662 -1.79544,-1.662c-0.80067,0 -1.71051,0.50952 -1.8197,1.662z"/><path d="M437.06643,33.2555c0,0.29115 -0.20623,0.44886 -0.33967,0.5823c-0.52165,0.54591 -1.201,0.82494 -2.03806,0.82494c-1.44363,0 -3.19054,-1.05543 -3.19054,-3.21481c0,-2.17151 1.74691,-3.22693 3.19054,-3.22693c0.83706,0 1.51642,0.27902 2.03806,0.82493c0.13345,0.13345 0.33967,0.29116 0.33967,0.58231c0,0.30328 -0.25475,0.49738 -0.52165,0.49738c-0.24263,0 -0.4246,-0.13345 -0.52165,-0.23049c-0.32755,-0.38821 -0.83706,-0.55804 -1.28592,-0.55804c-1.01903,0 -1.96527,0.72788 -1.96527,2.11085c0,1.37084 0.94624,2.09872 1.96527,2.09872c0.44886,0 0.95838,-0.16984 1.28592,-0.55804c0.09705,-0.09705 0.27902,-0.23049 0.52165,-0.23049c0.26689,0 0.52165,0.1941 0.52165,0.49739z"/><path d="M444.30884,31.46006c0,2.17151 -1.80756,3.22693 -3.20267,3.22693c-1.39511,0 -3.19054,-1.05542 -3.19054,-3.22693c0,-2.15938 1.79544,-3.23907 3.19054,-3.23907c1.39511,0 3.20267,1.07969 3.20267,3.23907zM439.18942,31.46006c0,1.37084 0.98264,2.11085 1.91675,2.11085c0.94624,0 1.92888,-0.74001 1.92888,-2.11085c0,-1.38297 -0.98264,-2.12299 -1.92888,-2.12299c-0.93411,0 -1.91675,0.74001 -1.91675,2.12299z"/><path d="M451.30862,31.03546v2.98431c0,0.35181 -0.27903,0.64297 -0.63083,0.64297c-0.35181,0 -0.64296,-0.29116 -0.64296,-0.64297v-2.98431c0,-1.21314 -0.69148,-1.69839 -1.48002,-1.69839c-1.16461,0 -1.67412,1.0433 -1.74691,1.56494v3.11775c0,0.35181 -0.29116,0.64297 -0.64297,0.64297c-0.35181,0 -0.64296,-0.29116 -0.64296,-0.64297v-5.10729c0,-0.36394 0.29115,-0.65509 0.64296,-0.65509c0.35181,0 0.64297,0.29115 0.64297,0.65509v0.80066c0.06066,-0.4246 0.78853,-1.48002 2.1715,-1.48002c1.17674,0 2.32922,0.74001 2.32922,2.80234z"/><path d="M458.76939,26.58326v7.44864c0,0.35181 -0.30328,0.64296 -0.65509,0.64296c-0.35181,0 -0.64296,-0.29115 -0.64296,-0.64296v-0.65509c-0.08492,0.54591 -0.83706,1.31018 -1.98954,1.31018c-1.34658,0 -2.96005,-1.0433 -2.96005,-3.23907c0,-2.15938 1.6256,-3.22693 2.96005,-3.22693c0.89772,0 1.67412,0.461 1.98954,1.16461v-0.48525c0,-0.03639 -0.00001,-0.08492 0.01213,-0.12131v-2.19578c0,-0.35181 0.29116,-0.64296 0.63083,-0.64296c0.35181,0 0.65509,0.29115 0.65509,0.64296zM457.53199,31.44793c0,-1.51642 -1.01904,-2.12298 -1.84397,-2.12298c-0.88559,0 -1.88035,0.69148 -1.88035,2.12298c0,1.44363 0.99477,2.13512 1.88035,2.13512c0.82493,0 1.84397,-0.63083 1.84397,-2.13512z"/><path d="M464.33767,29.16724c0.07279,0.10918 0.16984,0.24263 0.16984,0.44886c0,0.30328 -0.23049,0.48525 -0.52165,0.48525c-0.1941,0 -0.37607,-0.08492 -0.55804,-0.32755c-0.24263,-0.30328 -0.5823,-0.50951 -1.07969,-0.50951c-0.60657,0 -0.97051,0.30328 -0.97051,0.74001c0,0.30328 0.16984,0.59443 0.8128,0.77641l0.75214,0.20624c1.03116,0.27902 1.80757,0.74001 1.80757,1.75905c0,1.27379 -1.201,1.91675 -2.46266,1.91675c-1.05542,0 -1.79544,-0.46099 -2.11085,-0.95838c-0.06066,-0.08492 -0.25475,-0.32755 -0.25475,-0.6187c0,-0.25476 0.1577,-0.52165 0.49738,-0.52165c0.27902,0 0.4246,0.16984 0.54591,0.35181c0.30328,0.50951 0.80067,0.67935 1.32232,0.67935c0.70362,0 1.18887,-0.29115 1.18887,-0.77641c0,-0.36394 -0.25475,-0.63083 -0.86132,-0.80066l-0.8128,-0.21837c-1.17674,-0.32755 -1.68626,-0.95838 -1.68626,-1.7833c0,-1.14035 1.03117,-1.79544 2.20791,-1.79544c0.87345,0 1.62559,0.35181 2.0138,0.94624z"/></g><g fill="#000000" fill-rule="evenodd" stroke-width="1" stroke-linecap="round" stroke-linejoin="round"><path d="M345.02859,15.13485c0,0.32755 -0.26689,0.5823 -0.58231,0.5823h-1.91675v6.70863c0,0.37607 -0.30328,0.69148 -0.64296,0.69148c-0.36394,0 -0.66722,-0.31541 -0.66722,-0.69148v-6.70863h-1.91675c-0.31542,0 -0.5823,-0.25475 -0.5823,-0.5823c0,-0.32755 0.26689,-0.5823 0.5823,-0.5823h5.14368c0.31542,0 0.58231,0.25475 0.58231,0.5823z"/><path d="M349.22602,17.26996c0,0.36394 -0.27902,0.60657 -0.82493,0.60657c-1.06756,0 -1.75904,0.82493 -1.84396,1.46789v3.11775c0,0.35181 -0.29115,0.64297 -0.64296,0.64297c-0.35181,0 -0.64296,-0.29116 -0.64296,-0.64297v-5.10729c0,-0.36394 0.29115,-0.65509 0.64296,-0.65509c0.35181,0 0.64296,0.29115 0.64296,0.65509v0.80066c0.06066,-0.4246 0.82493,-1.48002 2.0138,-1.48002c0.4246,0 0.65509,0.26689 0.65509,0.59443z"/><path d="M354.66087,17.82801v-0.48525c0,-0.35181 0.29115,-0.64296 0.64296,-0.64296c0.35181,0 0.65509,0.29115 0.65509,0.64296v5.13155c0,0.35181 -0.30328,0.64296 -0.65509,0.64296c-0.35181,0 -0.64296,-0.29115 -0.64296,-0.64296v-0.65509c-0.08492,0.54591 -0.83706,1.31018 -1.98954,1.31018c-1.34658,0 -2.96005,-1.0433 -2.96005,-3.23907c0,-2.15938 1.6256,-3.22693 2.96005,-3.22693c0.89772,0 1.67412,0.461 1.98954,1.16461zM354.72152,19.89033c0,-1.51642 -1.01904,-2.12298 -1.84397,-2.12298c-0.88559,0 -1.88035,0.69148 -1.88035,2.12298c0,1.44363 0.99477,2.13512 1.88035,2.13512c0.82493,0 1.84397,-0.63083 1.84397,-2.13512z"/><path d="M361.5272,15.11059c0,0.27902 -0.20623,0.47312 -0.47312,0.47312c-0.10918,0 -0.26689,-0.04852 -0.46099,-0.12131c-0.16984,-0.07279 -0.32755,-0.14557 -0.57018,-0.14557c-0.67936,0 -0.89772,0.50951 -0.89772,1.0069v0.41246h1.21314c0.31542,0 0.53378,0.20624 0.53378,0.50952c0,0.31542 -0.21836,0.52165 -0.53378,0.52165h-1.21314v4.70695c0,0.35181 -0.29115,0.64296 -0.63083,0.64296c-0.35181,0 -0.64297,-0.29115 -0.64297,-0.64296v-4.70695h-0.40033c-0.31542,0 -0.52165,-0.20623 -0.52165,-0.52165c0,-0.30328 0.20623,-0.50952 0.52165,-0.50952h0.40033v-0.46099c0,-1.66199 1.22527,-2.0502 2.01381,-2.0502c0.54591,0 1.00689,0.14558 1.33444,0.37607c0.20624,0.13345 0.32755,0.29115 0.32755,0.50951z"/><path d="M366.24633,15.11059c0,0.27902 -0.20623,0.47312 -0.47312,0.47312c-0.10918,0 -0.26689,-0.04852 -0.461,-0.12131c-0.16984,-0.07279 -0.32754,-0.14557 -0.57017,-0.14557c-0.67936,0 -0.89777,0.50951 -0.89777,1.0069v0.41246h1.21318c0.31542,0 0.53379,0.20624 0.53379,0.50952c0,0.31542 -0.21837,0.52165 -0.53379,0.52165h-1.21318v4.70695c0,0.35181 -0.29115,0.64296 -0.63083,0.64296c-0.35181,0 -0.64296,-0.29115 -0.64296,-0.64296v-4.70695h-0.40034c-0.31542,0 -0.52165,-0.20623 -0.52165,-0.52165c0,-0.30328 0.20623,-0.50952 0.52165,-0.50952h0.40034v-0.46099c0,-1.66199 1.22526,-2.0502 2.01384,-2.0502c0.54591,0 1.0069,0.14558 1.33445,0.37607c0.20624,0.13345 0.32755,0.29115 0.32755,0.50951z"/><path d="M366.97421,14.90436c0,-0.35181 0.30329,-0.64297 0.6551,-0.64297c0.35181,0 0.65509,0.29116 0.65509,0.64297c0,0.35181 -0.30328,0.64296 -0.65509,0.64296c-0.35181,0 -0.6551,-0.29115 -0.6551,-0.64296zM368.27227,17.35489v5.10729c0,0.36394 -0.29115,0.65509 -0.64296,0.65509c-0.35181,0 -0.64297,-0.29115 -0.64297,-0.65509v-5.10729c0,-0.36394 0.29116,-0.65509 0.64297,-0.65509c0.35181,0 0.64296,0.29115 0.64296,0.65509z"/><path d="M375.06581,21.6979c0,0.29115 -0.20623,0.44886 -0.33967,0.5823c-0.52165,0.54591 -1.201,0.82494 -2.03806,0.82494c-1.44363,0 -3.19054,-1.05543 -3.19054,-3.21481c0,-2.17151 1.74691,-3.22693 3.19054,-3.22693c0.83706,0 1.51642,0.27902 2.03806,0.82493c0.13345,0.13345 0.33967,0.29116 0.33967,0.58231c0,0.30328 -0.25475,0.49738 -0.52165,0.49738c-0.24263,0 -0.4246,-0.13345 -0.52165,-0.23049c-0.32755,-0.38821 -0.83706,-0.55804 -1.28592,-0.55804c-1.01903,0 -1.96527,0.72787 -1.96527,2.11085c0,1.37084 0.94624,2.09872 1.96527,2.09872c0.44886,0 0.95838,-0.16983 1.28592,-0.55804c0.09705,-0.09705 0.27902,-0.2305 0.52165,-0.2305c0.26689,0 0.52165,0.1941 0.52165,0.49739z"/><path d="M379.66359,14.90436c0,-0.35181 0.30328,-0.64297 0.65509,-0.64297c0.35181,0 0.65509,0.29116 0.65509,0.64297c0,0.35181 -0.30328,0.64296 -0.65509,0.64296c-0.35181,0 -0.65509,-0.29115 -0.65509,-0.64296zM380.96164,17.35489v5.10729c0,0.36394 -0.29115,0.65509 -0.64296,0.65509c-0.35181,0 -0.64297,-0.29115 -0.64297,-0.65509v-5.10729c0,-0.36394 0.29116,-0.65509 0.64297,-0.65509c0.35181,0 0.64296,0.29115 0.64296,0.65509z"/><path d="M386.54205,17.60964c0.07279,0.10918 0.16984,0.24263 0.16984,0.44886c0,0.30328 -0.23049,0.48525 -0.52165,0.48525c-0.1941,0 -0.37607,-0.08492 -0.55804,-0.32755c-0.24263,-0.30328 -0.5823,-0.50951 -1.07969,-0.50951c-0.60657,0 -0.97051,0.30328 -0.97051,0.74001c0,0.30328 0.16984,0.59444 0.8128,0.77641l0.75214,0.20623c1.03116,0.27902 1.80757,0.74001 1.80757,1.75905c0,1.27379 -1.201,1.91675 -2.46266,1.91675c-1.05542,0 -1.79544,-0.46099 -2.11085,-0.95838c-0.06066,-0.08492 -0.25476,-0.32755 -0.25476,-0.6187c0,-0.25476 0.15771,-0.52165 0.49739,-0.52165c0.27902,0 0.4246,0.16984 0.54591,0.35181c0.30328,0.50951 0.80067,0.67936 1.32232,0.67936c0.70362,0 1.18887,-0.29116 1.18887,-0.77641c0,-0.36394 -0.25476,-0.63083 -0.86133,-0.80066l-0.8128,-0.21837c-1.17674,-0.32755 -1.68626,-0.95838 -1.68626,-1.7833c0,-1.14035 1.03116,-1.79544 2.2079,-1.79544c0.87345,0 1.6256,0.35181 2.01381,0.94624z"/><path d="M394.68218,22.38939c0,0.49739 -0.57017,0.71575 -1.24953,0.71575c-0.72788,0 -1.44363,-0.25476 -1.44363,-1.64987v-3.68792h-0.461c-0.31542,0 -0.52165,-0.20623 -0.52165,-0.52165c0,-0.30328 0.20623,-0.50952 0.52165,-0.50952h0.461v-0.94624c0,-0.33967 0.29115,-0.63083 0.63083,-0.63083c0.35181,0 0.64296,0.29116 0.64296,0.63083v0.94624h0.88559c0.31542,0 0.53378,0.20624 0.53378,0.50952c0,0.31542 -0.21836,0.52165 -0.53378,0.52165h-0.88559v3.70005c0,0.36394 0.14558,0.53378 0.4246,0.53378c0.1577,0 0.33967,-0.04852 0.47312,-0.06066c0.30328,-0.04852 0.52165,0.14558 0.52165,0.44886z"/><path d="M401.80327,19.90246c0,2.17151 -1.80757,3.22693 -3.20268,3.22693c-1.39511,0 -3.19054,-1.05542 -3.19054,-3.22693c0,-2.15938 1.79543,-3.23907 3.19054,-3.23907c1.39511,0 3.20268,1.07969 3.20268,3.23907zM396.68384,19.90246c0,1.37084 0.98264,2.11085 1.91675,2.11085c0.94624,0 1.92888,-0.74001 1.92888,-2.11085c0,-1.38297 -0.98264,-2.12298 -1.92888,-2.12298c-0.93411,0 -1.91675,0.74001 -1.91675,2.12298z"/><path d="M409.04567,19.90246c0,2.17151 -1.80757,3.22693 -3.20268,3.22693c-1.39511,0 -3.19054,-1.05542 -3.19054,-3.22693c0,-2.15938 1.79543,-3.23907 3.19054,-3.23907c1.39511,0 3.20268,1.07969 3.20268,3.23907zM403.92625,19.90246c0,1.37084 0.98264,2.11085 1.91675,2.11085c0.94624,0 1.92888,-0.74001 1.92888,-2.11085c0,-1.38297 -0.98264,-2.12298 -1.92888,-2.12298c-0.93411,0 -1.91675,0.74001 -1.91675,2.12298z"/><path d="M419.43009,19.47786v2.98431c0,0.35181 -0.27902,0.64297 -0.63083,0.64297c-0.35181,0 -0.64296,-0.29116 -0.64296,-0.64297v-2.98431c0,-1.21314 -0.69149,-1.69838 -1.48003,-1.69838c-1.16461,0 -1.67412,1.04329 -1.74691,1.56494v3.11775c0,0.35181 -0.29115,0.64297 -0.64296,0.64297c-0.35181,0 -0.64296,-0.29116 -0.64296,-0.64297v-7.4365c0,-0.35181 0.29115,-0.64297 0.64296,-0.64297c0.35181,0 0.64296,0.29116 0.64296,0.64297v3.12988c0.06066,-0.4246 0.78854,-1.48002 2.17151,-1.48002c1.17674,0 2.32922,0.74001 2.32922,2.80234z"/><path d="M420.88585,14.90436c0,-0.35181 0.30328,-0.64297 0.65509,-0.64297c0.35181,0 0.65509,0.29116 0.65509,0.64297c0,0.35181 -0.30328,0.64296 -0.65509,0.64296c-0.35181,0 -0.65509,-0.29115 -0.65509,-0.64296zM422.1839,17.35489v5.10729c0,0.36394 -0.29115,0.65509 -0.64296,0.65509c-0.35181,0 -0.64296,-0.29115 -0.64296,-0.65509v-5.10729c0,-0.36394 0.29115,-0.65509 0.64296,-0.65509c0.35181,0 0.64296,0.29115 0.64296,0.65509z"/><path d="M429.65681,22.4743c0,0.03639 0,0.08492 -0.01213,0.12131v0.32755c0,1.98954 -1.79544,2.60823 -3.08136,2.60823c-0.77641,0 -1.38297,-0.21836 -1.66199,-0.36394c-0.25476,-0.10918 -0.40033,-0.30328 -0.40033,-0.54591c0,-0.29115 0.23049,-0.50951 0.50951,-0.50951c0.07279,0 0.16984,0.01213 0.30328,0.06066c0.26689,0.10918 0.71575,0.25476 1.27379,0.25476c1.05542,0 1.77117,-0.54591 1.77117,-1.50429v-1.10395c-0.08492,0.54591 -0.83706,1.31018 -1.98954,1.31018c-1.34658,0 -2.96004,-1.0433 -2.96004,-3.23907c0,-2.15938 1.62559,-3.22693 2.96004,-3.22693c0.89772,0 1.67412,0.461 1.98954,1.16461v-0.48525c0,-0.35181 0.29115,-0.64296 0.64296,-0.64296c0.35181,0 0.6551,0.29115 0.6551,0.64296zM428.41941,19.89033c0,-1.51642 -1.01903,-2.12298 -1.84396,-2.12298c-0.88559,0 -1.88036,0.69148 -1.88036,2.12298c0,1.44363 0.99477,2.13512 1.88036,2.13512c0.82493,0 1.84396,-0.63083 1.84396,-2.13512z"/><path d="M436.89921,19.47786v2.98431c0,0.35181 -0.27903,0.64297 -0.63083,0.64297c-0.35181,0 -0.64296,-0.29116 -0.64296,-0.64297v-2.98431c0,-1.21314 -0.69148,-1.69838 -1.48002,-1.69838c-1.16461,0 -1.67412,1.04329 -1.74691,1.56494v3.11775c0,0.35181 -0.29116,0.64297 -0.64297,0.64297c-0.35181,0 -0.64296,-0.29116 -0.64296,-0.64297v-7.4365c0,-0.35181 0.29115,-0.64297 0.64296,-0.64297c0.35181,0 0.64297,0.29116 0.64297,0.64297v3.12988c0.06066,-0.4246 0.78853,-1.48002 2.1715,-1.48002c1.17674,0 2.32922,0.74001 2.32922,2.80234z"/><path d="M439.82286,15.2319v4.6463c0,0.38821 -0.32755,0.71575 -0.70362,0.71575c-0.40033,0 -0.72787,-0.32754 -0.72787,-0.71575v-4.6463c0,-0.38821 0.32754,-0.71575 0.72787,-0.71575c0.37607,0 0.70362,0.32754 0.70362,0.71575zM438.35497,22.3166c0,-0.41246 0.33967,-0.75215 0.76427,-0.75215c0.40033,0 0.74001,0.33968 0.74001,0.75215c0,0.4246 -0.33968,0.76427 -0.74001,0.76427c-0.4246,0 -0.76427,-0.33967 -0.76427,-0.76427z"/><path d="M450.64401,15.13485c0,0.32755 -0.26689,0.5823 -0.5823,0.5823h-1.91675v6.70863c0,0.37607 -0.30329,0.69148 -0.64297,0.69148c-0.36394,0 -0.66722,-0.31541 -0.66722,-0.69148v-6.70863h-1.91675c-0.31542,0 -0.58231,-0.25475 -0.58231,-0.5823c0,-0.32755 0.26689,-0.5823 0.58231,-0.5823h5.14368c0.31542,0 0.5823,0.25475 0.5823,0.5823z"/><path d="M454.84145,17.26996c0,0.36394 -0.27902,0.60657 -0.82493,0.60657c-1.06756,0 -1.75905,0.82493 -1.84397,1.46789v3.11775c0,0.35181 -0.29115,0.64297 -0.64296,0.64297c-0.35181,0 -0.64296,-0.29116 -0.64296,-0.64297v-5.10729c0,-0.36394 0.29115,-0.65509 0.64296,-0.65509c0.35181,0 0.64296,0.29115 0.64296,0.65509v0.80066c0.06066,-0.4246 0.82494,-1.48002 2.01381,-1.48002c0.4246,0 0.65509,0.26689 0.65509,0.59443z"/><path d="M461.62287,17.2821c0,0.12131 -0.0364,0.20623 -0.07279,0.29115l-3.23907,7.40011c-0.13345,0.30328 -0.36394,0.43673 -0.60657,0.43673c-0.33967,0 -0.57017,-0.26689 -0.57017,-0.5823c0,-0.12131 0.03639,-0.20623 0.07278,-0.29115l0.75215,-1.73478l-2.31709,-5.22861c-0.03639,-0.08492 -0.07278,-0.16984 -0.07278,-0.29115c0,-0.31542 0.25476,-0.5823 0.59443,-0.5823c0.24263,0 0.47312,0.13344 0.60657,0.43672l1.8197,4.23384l1.83184,-4.23384c0.13345,-0.30328 0.36394,-0.43672 0.60657,-0.43672c0.33967,0 0.59443,0.26689 0.59443,0.5823z"/></g></g></g></svg>