<svg version="1.1" xmlns="http://www.w3.org/2000/svg" xmlns:xlink="http://www.w3.org/1999/xlink" width="271.75271" height="171.01273" viewBox="0,0,271.75271,171.01273"><g transform="translate(-148.64454,-234.19042)"><g data-paper-data="{&quot;isPaintingLayer&quot;:true}" fill-rule="nonzero" stroke="none" stroke-width="0" stroke-linecap="butt" stroke-linejoin="miter" stroke-miterlimit="10" stroke-dasharray="" stroke-dashoffset="0" style="mix-blend-mode: normal"><g data-paper-data="{&quot;origPos&quot;:null}"><path d="M420.17612,365.03322c0,0 0.24317,3.50346 -0.79224,4.81142c-1.02946,1.30044 -2.7738,1.7312 -4.58294,1.7312c-0.71703,0 -2.26427,0 -2.98132,0c-2.15113,0 42.26528,0 -83.3495,0c-1.6752,0 -3.66448,-0.58512 -4.59473,-1.80293c-1.06407,-1.39299 -0.87636,-4.90636 -0.87636,-4.90636l0.1344,-123.04457l97.12698,-0.38234z" data-paper-data="{&quot;origPos&quot;:null,&quot;index&quot;:null}" fill="#21548f"/><path d="M420.31296,269.99935l-97.17709,-0.16667l0.1344,-29.65591l97.12698,-0.01442z" data-paper-data="{&quot;origPos&quot;:null,&quot;index&quot;:null}" fill="#11b738"/><path d="M323.13585,240.89972c0,0 -0.18772,-3.51337 0.87636,-4.90636c0.93025,-1.21781 2.91953,-1.80293 4.59473,-1.80293c125.61479,0 81.19837,0 83.3495,0c0.71704,0 2.26428,0 2.98132,0c1.80915,0 3.55349,0.43076 4.58294,1.7312c1.03541,1.30796 0.79224,5.31142 0.79224,5.31142z" data-paper-data="{&quot;origPos&quot;:null,&quot;index&quot;:null}" fill="#7aff75"/></g><g data-paper-data="{&quot;origPos&quot;:null}"><path d="M245.8344,398.66054c0,0 0.24317,3.50346 -0.79224,4.81142c-1.02946,1.30044 -2.7738,1.7312 -4.58294,1.7312c-0.71703,0 -2.26427,0 -2.98132,0c-2.15113,0 42.26528,0 -83.3495,0c-1.6752,0 -3.66448,-0.58512 -4.59473,-1.80293c-1.06407,-1.39299 -0.87636,-4.90636 -0.87636,-4.90636l0.1344,-123.04457l97.12698,-0.38234z" data-paper-data="{&quot;origPos&quot;:null,&quot;index&quot;:null}" fill="#21548f"/><path d="M245.97124,303.62667l-97.17709,-0.16667l0.1344,-29.65591l97.12698,-0.01442z" data-paper-data="{&quot;origPos&quot;:null,&quot;index&quot;:null}" fill="#11b738"/><path d="M148.79413,274.52704c0,0 -0.18772,-3.51337 0.87636,-4.90636c0.93025,-1.21781 2.91953,-1.80293 4.59473,-1.80293c125.61479,0 81.19837,0 83.3495,0c0.71704,0 2.26428,0 2.98132,0c1.80915,0 3.55349,0.43076 4.58294,1.7312c1.03541,1.30796 0.79224,5.31142 0.79224,5.31142z" data-paper-data="{&quot;origPos&quot;:null,&quot;index&quot;:null}" fill="#7aff75"/></g></g></g></svg>