<svg version="1.1" xmlns="http://www.w3.org/2000/svg" xmlns:xlink="http://www.w3.org/1999/xlink" width="659.15917" height="569.01485"><g transform="translate(18.80183,31.18655)"><g data-paper-data="{&quot;isPaintingLayer&quot;:true}" stroke-miterlimit="10" stroke-dasharray="" stroke-dashoffset="0" style="mix-blend-mode: normal"><path d="M0.71769,536.17569l-19.51952,-562.46518l408.40842,-4.89706l250.75075,569.01485z" data-paper-data="{&quot;origPos&quot;:null}" fill="none" fill-rule="nonzero" stroke="none" stroke-width="0" stroke-linecap="butt" stroke-linejoin="miter"/><path d="M479.9206,291.28316l0.56948,28.04046l-422.22516,2.93241c0,0 -0.06167,-24.27166 0.33776,-32.31073c0.19369,-3.89831 421.31792,1.33786 421.31792,1.33786z" data-paper-data="{&quot;origPos&quot;:null}" fill="#48c900" fill-rule="nonzero" stroke="none" stroke-width="0" stroke-linecap="butt" stroke-linejoin="miter"/><path d="M57.53644,291.97829c0,0 -0.68645,-5.99643 0.78766,-5.99643c110.53681,0 414.32345,-0.5 416.21637,-0.5c0.63097,0 1.99249,0 2.62346,0c1.59199,0 3.12695,0.385 4.03284,1.54726c0.91112,1.16899 0.69714,4.30021 0.69714,4.30021z" data-paper-data="{&quot;origPos&quot;:null}" fill="#b4ff53" fill-rule="nonzero" stroke="none" stroke-width="0" stroke-linecap="butt" stroke-linejoin="miter"/><path d="M106.63006,445.61778l-22.64704,-124.88682l229.5643,-1.05387c0,0 6.75554,-0.43922 9.15045,-3.08417c2.3949,-2.64495 2.31668,-8.18021 2.31668,-8.18021l-1.79861,-207.89142l260.75306,-33.17541l-1.38001,373.9914z" data-paper-data="{&quot;origPos&quot;:null,&quot;index&quot;:null}" fill="#03a63b" fill-rule="nonzero" stroke="none" stroke-width="0" stroke-linecap="butt" stroke-linejoin="miter"/><path d="M495.92553,279.13818h-58.95796" data-paper-data="{&quot;origPos&quot;:null}" fill="none" fill-rule="nonzero" stroke="#1f5281" stroke-width="35" stroke-linecap="round" stroke-linejoin="miter"/><path d="M195.49271,400.12728h58.95796" data-paper-data="{&quot;origPos&quot;:null}" fill="none" fill-rule="nonzero" stroke="#02af3d" stroke-width="35" stroke-linecap="round" stroke-linejoin="miter"/><path d="M302.99421,400.62278h-58.95796" data-paper-data="{&quot;origPos&quot;:null}" fill="none" fill-rule="nonzero" stroke="#04b742" stroke-width="35" stroke-linecap="round" stroke-linejoin="miter"/><path d="M314.25223,440.2144l154.00032,-329.77949l-0.08433,-63.40564l154.54629,-0.79733l0.26351,290.99006l-0.34658,103.51919z" data-paper-data="{&quot;origPos&quot;:null,&quot;index&quot;:null}" fill="#03a63b" fill-rule="nonzero" stroke="none" stroke-width="0" stroke-linecap="butt" stroke-linejoin="miter"/><path d="M562.4481,154.32454h44.30702" data-paper-data="{&quot;origPos&quot;:null,&quot;index&quot;:null}" fill="none" fill-rule="nonzero" stroke="#02af3d" stroke-width="30" stroke-linecap="round" stroke-linejoin="miter"/><path d="M599.17303,168.73073l-1,-28.92608h24.5l-0.5,28.92608z" data-paper-data="{&quot;origPos&quot;:null}" fill="#02af3d" fill-rule="nonzero" stroke="none" stroke-width="0" stroke-linecap="butt" stroke-linejoin="miter"/><path d="M467.7912,32.89693c0,0 -0.16409,-3.51337 0.76605,-4.90636c0.81316,-1.21781 2.55205,-1.80293 4.01639,-1.80293c109.80371,0 140.97797,0 142.85834,0c0.62679,0 1.97928,0 2.60606,0c1.58143,0 3.10621,0.43076 4.00609,1.7312c0.90508,1.30796 0.69252,4.81142 0.69252,4.81142z" data-paper-data="{&quot;origPos&quot;:null,&quot;index&quot;:null}" fill="#b4ff53" fill-rule="nonzero" stroke="none" stroke-width="0" stroke-linecap="butt" stroke-linejoin="miter"/><path d="M469.86333,305.18484h70" data-paper-data="{&quot;origPos&quot;:null,&quot;index&quot;:null}" fill="none" fill-rule="nonzero" stroke="#04b742" stroke-width="30" stroke-linecap="round" stroke-linejoin="miter"/><path d="M450.38338,200.06452h-54" data-paper-data="{&quot;origPos&quot;:null,&quot;index&quot;:null}" fill="none" fill-rule="nonzero" stroke="#02af3d" stroke-width="30" stroke-linecap="round" stroke-linejoin="miter"/><path d="M407.88489,200.06452h-19" data-paper-data="{&quot;origPos&quot;:null,&quot;index&quot;:null}" fill="none" fill-rule="nonzero" stroke="#04b742" stroke-width="30" stroke-linecap="round" stroke-linejoin="miter"/><path d="M468.21281,77.23817l-144.6716,-0.34124c0,0 -0.16409,-3.51337 0.76605,-4.90636c0.81316,-1.21781 2.80205,-1.80293 4.26639,-1.80293c109.80371,0 139.69167,0 139.69167,0z" data-paper-data="{&quot;origPos&quot;:null,&quot;index&quot;:null}" fill="#b4ff53" fill-rule="nonzero" stroke="none" stroke-width="0" stroke-linecap="butt" stroke-linejoin="miter"/><path d="M29.12474,407.98723v-162.16216h116.38753v162.16216z" fill="none" fill-rule="nonzero" stroke="none" stroke-width="0" stroke-linecap="butt" stroke-linejoin="miter"/><path d="M467.90848,61.72279v-28.96615h154.68184v28.96615z" data-paper-data="{&quot;origPos&quot;:null}" fill="#48c900" fill-rule="nonzero" stroke="none" stroke-width="NaN" stroke-linecap="butt" stroke-linejoin="miter"/><path d="M323.17341,105.78411v-28.96614h145.21243v15.32972c0,0 0.81122,7.45802 -2.83333,10.80309c-3.64456,3.34507 -12.02397,2.83333 -12.02397,2.83333z" data-paper-data="{&quot;origPos&quot;:null}" fill="#48c900" fill-rule="nonzero" stroke="none" stroke-width="NaN" stroke-linecap="butt" stroke-linejoin="miter"/><path d="M378.87514,91.51055h46.69873" data-paper-data="{&quot;origPos&quot;:null}" fill="none" fill-rule="nonzero" stroke="#3dc400" stroke-width="29" stroke-linecap="round" stroke-linejoin="miter"/><path d="M544.26805,47.44923h-36.04564" data-paper-data="{&quot;origPos&quot;:null}" fill="none" fill-rule="nonzero" stroke="#3dc400" stroke-width="29" stroke-linecap="round" stroke-linejoin="miter"/><g data-paper-data="{&quot;origPos&quot;:null}" fill="#363636" fill-rule="evenodd" stroke="none" stroke-width="1" stroke-linecap="round" stroke-linejoin="round"><g data-paper-data="{&quot;origPos&quot;:null}"><path d="M242.09032,181.13731c0,0.16119 -0.10746,0.3403 -0.16119,0.53732l-2.40006,6.85985c-0.19702,0.59106 -0.62688,0.89554 -1.11047,0.89554c-0.51942,0 -0.93137,-0.30448 -1.1642,-0.89554l-2.18512,-5.12249l-2.18511,5.12249c-0.23284,0.59106 -0.66271,0.89554 -1.1463,0.89554c-0.51942,0 -0.93136,-0.30448 -1.12839,-0.89554l-2.38213,-6.85985c-0.07164,-0.19702 -0.1612,-0.37613 -0.1612,-0.53732c0,-0.62688 0.4836,-1.11047 1.11047,-1.11047c0.41195,0 0.85972,0.25074 0.9851,0.62687l1.71943,5.39116l2.13139,-5.30161c0.19702,-0.46568 0.55523,-0.71643 1.05674,-0.71643c0.51942,0 0.87763,0.25074 1.05675,0.71643l2.13139,5.30161l1.71944,-5.39116c0.12537,-0.37613 0.57314,-0.62687 1.00301,-0.62687c0.60897,0 1.11047,0.48359 1.11047,1.11047z" data-paper-data="{&quot;origPos&quot;:null}"/><path d="M243.7023,177.59098c0,-0.62688 0.55524,-1.16421 1.20002,-1.16421c0.62687,0 1.18212,0.53733 1.18212,1.16421c0,0.62688 -0.55523,1.1642 -1.18212,1.1642c-0.64479,0 -1.20002,-0.53732 -1.20002,-1.1642zM246.06653,181.20896v7.09268c0,0.6627 -0.53732,1.20002 -1.1642,1.20002c-0.64479,0 -1.18212,-0.53733 -1.18212,-1.20002v-7.09268c0,-0.64479 0.53733,-1.18212 1.18212,-1.18212c0.62688,0 1.1642,0.53733 1.1642,1.18212z" data-paper-data="{&quot;origPos&quot;:null}"/><path d="M253.46369,188.23c0,0.82389 -0.80599,1.25376 -2.02392,1.25376c-1.21794,0 -2.45378,-0.39404 -2.45378,-2.88364v-4.67473h-0.51942c-0.57314,0 -0.94927,-0.37613 -0.94927,-0.91344c0,-0.55524 0.37613,-0.93136 0.94927,-0.93136h0.51942v-1.21793c0,-0.64479 0.53732,-1.18212 1.18212,-1.18212c0.64479,0 1.1642,0.53733 1.1642,1.18212v1.21793h1.18212c0.59106,0 0.94927,0.37613 0.94927,0.93136c0,0.53733 -0.35821,0.91344 -0.94927,0.91344h-1.18212v4.74637c0,0.51942 0.17911,0.78807 0.57314,0.78807c0.19702,0 0.48359,-0.07164 0.68061,-0.07164c0.53733,-0.03582 0.87763,0.28657 0.87763,0.8418z" data-paper-data="{&quot;origPos&quot;:null}"/><path d="M263.88779,184.27171v4.04784c0,0.64479 -0.53733,1.1642 -1.18212,1.1642c-0.62687,0 -1.1642,-0.51942 -1.1642,-1.1642v-4.04784c0,-1.61198 -0.84181,-2.27467 -1.89855,-2.27467c-1.61197,0 -2.1493,1.5045 -2.22094,2.00601v4.31651c0,0.64479 -0.53733,1.1642 -1.1642,1.1642c-0.64479,0 -1.18212,-0.51941 -1.18212,-1.1642v-10.54947c0,-0.62688 0.53732,-1.1642 1.18212,-1.1642c0.62687,0 1.1642,0.53732 1.1642,1.1642v4.33442c0.07164,-0.64479 1.12838,-2.11348 3.06275,-2.11348c1.80899,0 3.40305,1.18212 3.40305,4.28068z" data-paper-data="{&quot;origPos&quot;:null}"/><path d="M275.93818,187.72299c0,0.82389 -0.80599,1.25377 -2.02393,1.25377c-1.21794,0 -2.45378,-0.39404 -2.45378,-2.88365v-4.67472h-0.51942c-0.57314,0 -0.94928,-0.37614 -0.94928,-0.91345c0,-0.55524 0.37613,-0.93136 0.94928,-0.93136h0.51942v-1.21794c0,-0.64479 0.53733,-1.18212 1.18212,-1.18212c0.64479,0 1.1642,0.53733 1.1642,1.18212v1.21794h1.18212c0.59106,0 0.94928,0.37613 0.94928,0.93136c0,0.53733 -0.35821,0.91345 -0.94928,0.91345h-1.18212v4.74636c0,0.51942 0.17912,0.78808 0.57315,0.78808c0.19702,0 0.48359,-0.07164 0.68061,-0.07164c0.53733,-0.03582 0.87763,0.28657 0.87763,0.8418z" data-paper-data="{&quot;origPos&quot;:null}"/><path d="M286.36213,183.7647v4.04784c0,0.64479 -0.53733,1.16421 -1.18212,1.16421c-0.62672,0 -1.16406,-0.51942 -1.16406,-1.16421v-4.04784c0,-1.61198 -0.84181,-2.27467 -1.89855,-2.27467c-1.61197,0 -2.1493,1.50451 -2.22094,2.00602v4.31651c0,0.64479 -0.53733,1.16421 -1.1642,1.16421c-0.64479,0 -1.18212,-0.51942 -1.18212,-1.16421v-10.54947c0,-0.62688 0.53733,-1.1642 1.18212,-1.1642c0.62687,0 1.1642,0.53732 1.1642,1.1642v4.33442c0.07164,-0.64479 1.12838,-2.11347 3.06275,-2.11347c1.80899,0 3.4029,1.18212 3.4029,4.28069z" data-paper-data="{&quot;origPos&quot;:null}"/><path d="M297.37728,183.85425c0,0.93136 -0.51941,1.25376 -1.46869,1.25376l-5.31951,-0.03583c0.21493,1.30749 1.25377,2.00602 2.56125,2.00602c0.64479,0 0.94927,-0.1433 1.4866,-0.37613c0.32239,-0.14329 0.57314,-0.28657 0.87763,-0.28657c0.50151,0 0.80599,0.35821 0.80599,0.80598c0,0.28657 -0.12538,0.60897 -0.57315,0.9851c-0.6627,0.46568 -1.55824,0.77017 -2.68662,0.77017c-2.38214,0 -4.90757,-1.46869 -4.90757,-4.72846c0,-3.22394 2.66871,-4.78219 4.71055,-4.78219c2.04183,0 4.51353,1.61198 4.51353,4.38815zM290.58907,183.46021h4.4777c-0.17911,-1.37914 -1.18212,-1.95228 -2.20303,-1.95228c-1.02092,0 -2.11347,0.57314 -2.27466,1.95228z" data-paper-data="{&quot;origPos&quot;:null}"/></g><g><path d="M178.53973,184.2374c0,3.25977 -2.36423,4.78219 -4.33442,4.78219c-1.55824,0 -2.50752,-0.96718 -2.6508,-1.52241v0.34031c0,0.07164 0,0.14329 -0.01791,0.19702v3.22395c0,0.64479 -0.55524,1.1642 -1.18212,1.1642c-0.64479,0 -1.18212,-0.51941 -1.18212,-1.1642v-10.5674c0,-0.62688 0.57314,-1.1642 1.20002,-1.1642c0.64479,0 1.18212,0.53732 1.18212,1.1642v0.30449c0.35822,-0.8418 1.37914,-1.52241 2.6508,-1.52241c1.95228,0 4.33442,1.57616 4.33442,4.76427zM176.19341,184.2374c0,-1.82691 -1.23585,-2.75827 -2.41797,-2.75827c-1.00301,0 -2.32841,0.73434 -2.32841,2.75827c0,2.02392 1.32539,2.75827 2.32841,2.75827c1.18212,0 2.41797,-0.91345 2.41797,-2.75827z" data-paper-data="{&quot;origPos&quot;:null}"/><path d="M181.51292,188.98376c-0.64479,0 -1.18212,-0.51941 -1.18212,-1.1642v-10.54947c0,-0.62688 0.53732,-1.1642 1.18212,-1.1642c0.62688,0 1.16421,0.53732 1.16421,1.1642v10.54948c0,0.64479 -0.53733,1.1642 -1.16421,1.1642z" data-paper-data="{&quot;origPos&quot;:null}"/><path d="M193.83557,180.69105v7.14641c0,0.64479 -0.57314,1.1642 -1.20002,1.1642c-0.64479,0 -1.18212,-0.51942 -1.18212,-1.1642v-0.34031c-0.14329,0.55524 -1.09256,1.52242 -2.6508,1.52242c-1.97019,0 -4.33442,-1.52242 -4.33442,-4.7822c0,-3.18813 2.38214,-4.76427 4.33442,-4.76427c1.27167,0 2.29259,0.68061 2.6508,1.52241v-0.30448c0,-0.62688 0.53732,-1.16421 1.18212,-1.16421c0.62688,0 1.20002,0.53733 1.20002,1.16421zM191.56089,184.2374c0,-2.02392 -1.3254,-2.75827 -2.32841,-2.75827c-1.18212,0 -2.41796,0.93136 -2.41796,2.75827c0,1.84482 1.23584,2.75827 2.41796,2.75827c1.00301,0 2.32841,-0.73435 2.32841,-2.75827z" data-paper-data="{&quot;origPos&quot;:null}"/><path d="M203.86562,186.90611c0,0.57314 -0.42987,0.85972 -0.6627,1.07465c-0.75225,0.6627 -1.62989,1.003 -2.79408,1.003c-2.16721,0 -4.78219,-1.55824 -4.78219,-4.74636c0,-3.20604 2.61498,-4.76427 4.78219,-4.76427c1.1642,0 2.04183,0.3224 2.79408,0.9851c0.23284,0.23284 0.6627,0.51942 0.6627,1.09256c0,0.55524 -0.46568,0.89554 -0.94927,0.89554c-0.42987,0 -0.77016,-0.25074 -0.91345,-0.37613c-0.41195,-0.39404 -1.02092,-0.55524 -1.5045,-0.55524c-1.41495,0 -2.54333,0.9851 -2.54333,2.72245c0,1.71944 1.12839,2.70453 2.54333,2.70453c0.48359,0 1.09256,-0.16119 1.5045,-0.55523c0.14329,-0.12537 0.48359,-0.37614 0.91345,-0.37614c0.48359,0 0.94927,0.3403 0.94927,0.89555z" data-paper-data="{&quot;origPos&quot;:null}"/><path d="M214.34346,183.86127c0,0.93136 -0.51942,1.25376 -1.46869,1.25376l-5.31951,-0.03582c0.21493,1.30749 1.25376,2.00601 2.56125,2.00601c0.64479,0 0.94927,-0.14329 1.4866,-0.37613c0.3224,-0.14329 0.57314,-0.28657 0.87763,-0.28657c0.50151,0 0.80598,0.35821 0.80598,0.80599c0,0.28657 -0.12537,0.60897 -0.57314,0.9851c-0.6627,0.46568 -1.55824,0.77016 -2.68662,0.77016c-2.38214,0 -4.90757,-1.46868 -4.90757,-4.72845c0,-3.22394 2.66871,-4.7822 4.71055,-4.7822c2.04183,0 4.51353,1.61198 4.51353,4.38816zM207.55526,183.46723h4.4777c-0.17911,-1.37914 -1.18212,-1.95228 -2.20303,-1.95228c-1.02092,0 -2.11347,0.57314 -2.27467,1.95228z" data-paper-data="{&quot;origPos&quot;:null}"/><path d="M222.11675,180.78061c0.10747,0.16119 0.28657,0.41195 0.28657,0.78808c0,0.57314 -0.39404,0.87763 -0.91344,0.87763c-0.34031,0 -0.68061,-0.12538 -0.9851,-0.50151c-0.35822,-0.41195 -0.77016,-0.60897 -1.28958,-0.60897c-0.69853,0 -1.11046,0.34031 -1.11046,0.84181c0,0.28657 0.10747,0.6627 0.93136,0.89555l1.09256,0.3224c1.43286,0.39404 2.63289,1.07465 2.63289,2.66871c0,1.97019 -1.82691,2.91946 -3.68963,2.91946c-1.61198,0 -2.57916,-0.68061 -3.08067,-1.28958c-0.08955,-0.12537 -0.48359,-0.57314 -0.48359,-1.12839c0,-0.39404 0.25074,-0.89554 0.89554,-0.89554c0.48359,0 0.75225,0.30448 0.96719,0.57314c0.51942,0.64479 1.09256,0.82389 1.70153,0.82389c0.87763,0 1.36122,-0.37613 1.36122,-0.87763c0,-0.30449 -0.19702,-0.69853 -1.05674,-0.94927l-1.02092,-0.30449c-1.809,-0.50151 -2.56125,-1.46869 -2.56125,-2.74035c0,-1.79108 1.6478,-2.72245 3.34933,-2.72245c1.21794,0 2.38214,0.4836 2.9732,1.30749z" data-paper-data="{&quot;origPos&quot;:null}"/></g><path d="M223.42775,205.24829c0,3.20604 -2.74035,4.76427 -4.7822,4.76427c-2.05974,0 -4.78219,-1.55824 -4.78219,-4.76427c0,-3.18813 2.72245,-4.78219 4.78219,-4.78219c2.04183,0 4.7822,1.59405 4.7822,4.78219zM216.19178,205.24829c0,1.71944 1.18212,2.72245 2.45378,2.72245c1.25376,0 2.45378,-1.00301 2.45378,-2.72245c0,-1.73736 -1.20002,-2.74035 -2.45378,-2.74035c-1.27167,0 -2.45378,1.00301 -2.45378,2.74035z"/><path d="M231.52345,198.3168c0,0.50151 -0.37613,0.8418 -0.87763,0.8418c-0.16119,0 -0.41195,-0.05372 -0.75225,-0.16119c-0.23284,-0.08955 -0.37614,-0.14329 -0.60897,-0.14329c-1.00301,0 -1.12839,0.82389 -1.12839,1.18212v0.53733h1.46869c0.57314,0 0.94928,0.37613 0.94928,0.93136c0,0.53733 -0.37614,0.91344 -0.94928,0.91344h-1.46869v6.41207c0,0.64479 -0.53732,1.1642 -1.18211,1.1642c-0.62688,0 -1.16421,-0.51941 -1.16421,-1.1642v-6.41207h-0.53733c-0.57314,0 -0.94927,-0.37613 -0.94927,-0.91344c0,-0.55524 0.37613,-0.93136 0.94927,-0.93136h0.53733v-0.66271c0,-2.50752 1.98809,-3.04484 3.13439,-3.04484c0.78808,0 1.46869,0.19702 1.95228,0.50151c0.41195,0.25074 0.62688,0.55524 0.62688,0.94928z"/><path d="M244.16849,201.55866c0,0.6627 -0.50151,1.11047 -1.50451,1.11047c-1.41495,0 -2.31049,1.09256 -2.40005,1.8269v4.31651c0,0.62688 -0.53732,1.1642 -1.1642,1.1642c-0.64479,0 -1.18212,-0.53732 -1.18212,-1.1642v-7.1106c0,-0.64479 0.53733,-1.18212 1.18212,-1.18212c0.62688,0 1.1642,0.53733 1.1642,1.18212v0.89554c0.07164,-0.64479 1.18212,-2.11347 2.79409,-2.11347c0.73434,0 1.11047,0.50151 1.11047,1.07465z"/><path d="M254.44929,205.24829c0,3.20604 -2.74035,4.76427 -4.78219,4.76427c-2.05974,0 -4.7822,-1.55824 -4.7822,-4.76427c0,-3.18813 2.72246,-4.78219 4.7822,-4.78219c2.04183,0 4.78219,1.59405 4.78219,4.78219zM247.21332,205.24829c0,1.71944 1.18212,2.72245 2.45378,2.72245c1.25376,0 2.45378,-1.00301 2.45378,-2.72245c0,-1.73736 -1.20002,-2.74035 -2.45378,-2.74035c-1.27167,0 -2.45378,1.00301 -2.45378,2.74035z"/><path d="M265.60774,205.23038c0,3.25977 -2.36423,4.78219 -4.33442,4.78219c-1.55824,0 -2.50752,-0.96718 -2.6508,-1.52241v0.34031c0,0.64479 -0.53733,1.1642 -1.18212,1.1642c-0.62687,0 -1.20002,-0.51941 -1.20002,-1.1642v-10.56739c0,-0.62688 0.55523,-1.16421 1.20002,-1.16421c0.62687,0 1.1642,0.53733 1.1642,1.16421v3.22394c0.01791,0.07164 0.01791,0.12537 0.01791,0.19702v0.30449c0.35821,-0.8418 1.37914,-1.52241 2.6508,-1.52241c1.95228,0 4.33442,1.57616 4.33442,4.76427zM263.26142,205.23038c0,-1.82691 -1.23584,-2.75827 -2.41796,-2.75827c-1.00301,0 -2.32841,0.73435 -2.32841,2.75827c0,2.02392 1.3254,2.75826 2.32841,2.75826c1.18212,0 2.41796,-0.91344 2.41796,-2.75826z"/><path d="M276.46169,205.24829c0,3.20604 -2.74035,4.76427 -4.78219,4.76427c-2.05974,0 -4.7822,-1.55824 -4.7822,-4.76427c0,-3.18813 2.72246,-4.78219 4.7822,-4.78219c2.04183,0 4.78219,1.59405 4.78219,4.78219zM269.22572,205.24829c0,1.71944 1.18212,2.72245 2.45378,2.72245c1.25376,0 2.45378,-1.00301 2.45378,-2.72245c0,-1.73736 -1.20002,-2.74035 -2.45378,-2.74035c-1.27167,0 -2.45378,1.00301 -2.45378,2.74035z" data-paper-data="{&quot;origPos&quot;:null}"/><path d="M283.30363,208.72299c0,0.82389 -0.80599,1.25377 -2.02392,1.25377c-1.21794,0 -2.45378,-0.39404 -2.45378,-2.88365v-4.67472h-0.51942c-0.57314,0 -0.94928,-0.37614 -0.94928,-0.91345c0,-0.55524 0.37613,-0.93136 0.94928,-0.93136h0.51942v-1.21794c0,-0.64479 0.53733,-1.18212 1.18212,-1.18212c0.64479,0 1.1642,0.53733 1.1642,1.18212v1.21794h1.18212c0.59106,0 0.94927,0.37613 0.94927,0.93136c0,0.53733 -0.35821,0.91345 -0.94927,0.91345h-1.18212v4.74636c0,0.51942 0.17911,0.78808 0.57314,0.78808c0.19702,0 0.48359,-0.07164 0.68061,-0.07164c0.53733,-0.03582 0.87763,0.28657 0.87763,0.8418z"/><path d="M291.14857,201.77359c0.10747,0.16119 0.28657,0.41195 0.28657,0.78808c0,0.57314 -0.39404,0.87763 -0.91345,0.87763c-0.34031,0 -0.68061,-0.12538 -0.9851,-0.50151c-0.35821,-0.41195 -0.77016,-0.60896 -1.28958,-0.60896c-0.69853,0 -1.11047,0.34031 -1.11047,0.8418c0,0.28657 0.10747,0.6627 0.93137,0.89554l1.09256,0.3224c1.43286,0.39404 2.63289,1.07464 2.63289,2.6687c0,1.97019 -1.8269,2.91947 -3.68962,2.91947c-1.61197,0 -2.57916,-0.68061 -3.08067,-1.28958c-0.08955,-0.12537 -0.48359,-0.57314 -0.48359,-1.12839c0,-0.39404 0.25074,-0.89554 0.89555,-0.89554c0.48359,0 0.75225,0.30448 0.96718,0.57314c0.51941,0.64479 1.09256,0.8239 1.70153,0.8239c0.87763,0 1.36122,-0.37613 1.36122,-0.87763c0,-0.30449 -0.19702,-0.69853 -1.05674,-0.94928l-1.02092,-0.30448c-1.80899,-0.50151 -2.56125,-1.46869 -2.56125,-2.74035c0,-1.79108 1.64781,-2.72245 3.34933,-2.72245c1.21794,0 2.38213,0.4836 2.97319,1.30749z"/><g data-paper-data="{&quot;origPos&quot;:null}"><path d="M181.12089,204.2647v4.04784c0,0.64479 -0.53733,1.16421 -1.18212,1.16421c-0.62688,0 -1.1642,-0.51942 -1.1642,-1.16421v-4.04784c0,-1.61198 -0.8418,-2.27467 -1.89854,-2.27467c-1.61198,0 -2.1493,1.50451 -2.22095,2.00602v4.31651c0,0.64479 -0.53732,1.16421 -1.1642,1.16421c-0.64479,0 -1.18212,-0.51942 -1.18212,-1.16421v-10.54947c0,-0.62688 0.53733,-1.1642 1.18212,-1.1642c0.62688,0 1.1642,0.53732 1.1642,1.1642v4.33442c0.07164,-0.64479 1.12838,-2.11347 3.06275,-2.11347c1.809,0 3.40305,1.18212 3.40305,4.28069z" data-paper-data="{&quot;origPos&quot;:null}"/><path d="M192.13604,204.35425c0,0.93136 -0.51942,1.25376 -1.46869,1.25376l-5.3195,-0.03583c0.21493,1.30749 1.25376,2.00602 2.56124,2.00602c0.64479,0 0.94928,-0.1433 1.4866,-0.37613c0.3224,-0.14329 0.57314,-0.28657 0.87763,-0.28657c0.50151,0 0.80599,0.35821 0.80599,0.80598c0,0.28657 -0.12538,0.60897 -0.57314,0.9851c-0.6627,0.46568 -1.55824,0.77017 -2.68662,0.77017c-2.38214,0 -4.90757,-1.46869 -4.90757,-4.72846c0,-3.22394 2.66871,-4.78219 4.71055,-4.78219c2.04183,0 4.51353,1.61198 4.51353,4.38815zM185.34785,203.96021h4.4777c-0.17911,-1.37914 -1.18212,-1.95228 -2.20303,-1.95228c-1.02092,0 -2.11347,0.57314 -2.27466,1.95228z" data-paper-data="{&quot;origPos&quot;:null}"/><path d="M195.10924,209.47674c-0.64479,0 -1.18212,-0.51941 -1.18212,-1.1642v-10.54947c0,-0.62688 0.53733,-1.16421 1.18212,-1.16421c0.62688,0 1.1642,0.53733 1.1642,1.16421v10.54948c0,0.64479 -0.53732,1.1642 -1.1642,1.1642z" data-paper-data="{&quot;origPos&quot;:null}"/><path d="M207.7901,204.73038c0,3.25977 -2.36423,4.78219 -4.33442,4.78219c-1.55824,0 -2.50752,-0.96718 -2.6508,-1.52241v0.34031c0,0.07164 0,0.1433 -0.01791,0.19702v3.22394c0,0.64479 -0.55524,1.1642 -1.18212,1.1642c-0.64479,0 -1.18212,-0.51942 -1.18212,-1.1642v-10.56739c0,-0.62688 0.57314,-1.1642 1.20002,-1.1642c0.64479,0 1.18212,0.53732 1.18212,1.1642v0.30449c0.35822,-0.8418 1.37914,-1.52241 2.6508,-1.52241c1.95228,0 4.33442,1.57616 4.33442,4.76427zM205.44379,204.73038c0,-1.82691 -1.23584,-2.75827 -2.41796,-2.75827c-1.00301,0 -2.32841,0.73435 -2.32841,2.75827c0,2.02392 1.32539,2.75826 2.32841,2.75826c1.18212,0 2.41796,-0.91344 2.41796,-2.75826z" data-paper-data="{&quot;origPos&quot;:null}"/></g><g data-paper-data="{&quot;origPos&quot;:null}"><path d="M192.41688,161.56567c0,0.6627 -0.50151,1.11047 -1.5045,1.11047c-1.41495,0 -2.3105,1.09256 -2.40006,1.8269v4.31651c0,0.62688 -0.53732,1.1642 -1.1642,1.1642c-0.64479,0 -1.18212,-0.53733 -1.18212,-1.1642v-7.11059c0,-0.64479 0.53733,-1.18212 1.18212,-1.18212c0.62688,0 1.1642,0.53733 1.1642,1.18212v0.89555c0.07164,-0.64479 1.18212,-2.11348 2.79408,-2.11348c0.73434,0 1.11047,0.50151 1.11047,1.07465z"/><path d="M202.35739,164.86127c0,0.93136 -0.51942,1.25376 -1.46869,1.25376l-5.3195,-0.03582c0.21493,1.30749 1.25376,2.00601 2.56124,2.00601c0.64479,0 0.94928,-0.14329 1.4866,-0.37613c0.3224,-0.14329 0.57314,-0.28657 0.87763,-0.28657c0.50151,0 0.80599,0.35821 0.80599,0.80599c0,0.28657 -0.12538,0.60897 -0.57314,0.9851c-0.6627,0.46568 -1.55824,0.77016 -2.68662,0.77016c-2.38214,0 -4.90757,-1.46868 -4.90757,-4.72845c0,-3.22394 2.66871,-4.7822 4.71055,-4.7822c2.04183,0 4.51353,1.61198 4.51353,4.38816zM195.56919,164.46723h4.47771c-0.17911,-1.37914 -1.18212,-1.95228 -2.20303,-1.95228c-1.02092,0 -2.11348,0.57314 -2.27467,1.95228z"/><path d="M213.01433,161.69105v7.14641c0,0.64479 -0.57314,1.1642 -1.20002,1.1642c-0.64479,0 -1.18212,-0.51942 -1.18212,-1.1642v-0.34031c-0.14329,0.55524 -1.09256,1.52242 -2.6508,1.52242c-1.97019,0 -4.33442,-1.52242 -4.33442,-4.7822c0,-3.18813 2.38214,-4.76427 4.33442,-4.76427c1.27167,0 2.29259,0.68061 2.6508,1.52241v-0.30448c0,-0.62688 0.53732,-1.16421 1.18212,-1.16421c0.62688,0 1.20002,0.53733 1.20002,1.16421zM210.73965,165.2374c0,-2.02392 -1.32539,-2.75827 -2.32841,-2.75827c-1.18212,0 -2.41797,0.93136 -2.41797,2.75827c0,1.84482 1.23585,2.75827 2.41797,2.75827c1.00301,0 2.32841,-0.73435 2.32841,-2.75827z"/><path d="M223.04424,167.90611c0,0.57314 -0.42987,0.85972 -0.66271,1.07465c-0.75225,0.6627 -1.62988,1.003 -2.79394,1.003c-2.16721,0 -4.78219,-1.55824 -4.78219,-4.74636c0,-3.20604 2.61498,-4.76427 4.78219,-4.76427c1.16405,0 2.04168,0.3224 2.79394,0.9851c0.23284,0.23284 0.66271,0.51942 0.66271,1.09256c0,0.55524 -0.46569,0.89554 -0.94928,0.89554c-0.42987,0 -0.77016,-0.25074 -0.91344,-0.37613c-0.41195,-0.39404 -1.02076,-0.55524 -1.50436,-0.55524c-1.41495,0 -2.54333,0.9851 -2.54333,2.72245c0,1.71944 1.12839,2.70453 2.54333,2.70453c0.48359,0 1.09241,-0.16119 1.50436,-0.55523c0.14329,-0.12537 0.48359,-0.37614 0.91344,-0.37614c0.48359,0 0.94928,0.3403 0.94928,0.89555z"/><path d="M233.64744,164.77171v4.04784c0,0.64479 -0.53732,1.1642 -1.18212,1.1642c-0.62688,0 -1.16421,-0.51942 -1.16421,-1.1642v-4.04784c0,-1.61198 -0.8418,-2.27467 -1.89854,-2.27467c-1.61198,0 -2.1493,1.5045 -2.22095,2.00601v4.31651c0,0.64479 -0.53732,1.1642 -1.1642,1.1642c-0.64479,0 -1.18212,-0.51941 -1.18212,-1.1642v-10.54947c0,-0.62688 0.53733,-1.1642 1.18212,-1.1642c0.62688,0 1.1642,0.53732 1.1642,1.1642v4.33442c0.07164,-0.64479 1.12838,-2.11348 3.06275,-2.11348c1.809,0 3.40305,1.18212 3.40305,4.28068z"/><path d="M250.74927,164.77171v4.04784c0,0.64479 -0.53733,1.1642 -1.18212,1.1642c-0.62687,0 -1.1642,-0.51942 -1.1642,-1.1642v-4.04784c0,-1.61198 -0.84181,-2.27467 -1.89855,-2.27467c-1.61198,0 -2.1493,1.5045 -2.22095,2.00601v4.31651c0,0.64479 -0.53732,1.1642 -1.1642,1.1642c-0.64479,0 -1.18212,-0.51941 -1.18212,-1.1642v-10.54947c0,-0.62688 0.53733,-1.1642 1.18212,-1.1642c0.62688,0 1.1642,0.53732 1.1642,1.1642v4.33442c0.07164,-0.64479 1.12839,-2.11348 3.06275,-2.11348c1.80899,0 3.40305,1.18212 3.40305,4.28068z" data-paper-data="{&quot;origPos&quot;:null}"/><path d="M252.89857,158.09098c0,-0.62688 0.55524,-1.16421 1.20002,-1.16421c0.62687,0 1.18212,0.53733 1.18212,1.16421c0,0.62688 -0.55523,1.1642 -1.18212,1.1642c-0.64479,0 -1.20002,-0.53732 -1.20002,-1.1642zM255.26279,161.70896v7.09268c0,0.6627 -0.53733,1.20002 -1.1642,1.20002c-0.64479,0 -1.18212,-0.53733 -1.18212,-1.20002v-7.09268c0,-0.64479 0.53733,-1.18212 1.18212,-1.18212c0.62687,0 1.1642,0.53733 1.1642,1.18212z"/><path d="M266.43913,168.83747c0,0.08955 -0.0179,0.17911 -0.03582,0.26866v0.60897c0,2.91946 -2.72245,3.85082 -4.621,3.85082c-1.11046,0 -2.00601,-0.30449 -2.40006,-0.48359c-0.50151,-0.21493 -0.77016,-0.57314 -0.77016,-1.00301c0,-0.53733 0.42986,-0.93136 0.93136,-0.93136c0.10747,0 0.25074,0.01791 0.48359,0.08955c0.35821,0.08955 0.96718,0.30448 1.77317,0.30448c1.45078,0 2.25676,-0.77016 2.25676,-1.8269v-1.21794c-0.1433,0.55524 -1.09256,1.52241 -2.6508,1.52241c-1.97019,0 -4.33442,-1.52241 -4.33442,-4.78219c0,-3.18813 2.38214,-4.76428 4.33442,-4.76428c1.27167,0 2.29259,0.68061 2.6508,1.52242v-0.30449c0,-0.62688 0.53733,-1.1642 1.18212,-1.1642c0.62687,0 1.20002,0.53732 1.20002,1.1642zM264.16447,165.2374c0,-2.02392 -1.3254,-2.75827 -2.32841,-2.75827c-1.18212,0 -2.41796,0.93136 -2.41796,2.75827c0,1.84482 1.23584,2.75827 2.41796,2.75827c1.00301,0 2.32841,-0.73435 2.32841,-2.75827z"/><path d="M277.38267,164.77171v4.04784c0,0.64479 -0.53733,1.1642 -1.18212,1.1642c-0.62687,0 -1.1642,-0.51942 -1.1642,-1.1642v-4.04784c0,-1.61198 -0.84181,-2.27467 -1.89855,-2.27467c-1.61197,0 -2.14929,1.5045 -2.22094,2.00601v4.31651c0,0.64479 -0.53733,1.1642 -1.16421,1.1642c-0.64479,0 -1.18212,-0.51941 -1.18212,-1.1642v-10.54947c0,-0.62688 0.53732,-1.1642 1.18212,-1.1642c0.62687,0 1.16421,0.53732 1.16421,1.1642v4.33442c0.07164,-0.64479 1.12838,-2.11348 3.06275,-2.11348c1.80899,0 3.40305,1.18212 3.40305,4.28068z"/></g></g></g></g></svg>