<svg version="1.1" xmlns="http://www.w3.org/2000/svg" xmlns:xlink="http://www.w3.org/1999/xlink" width="522.94232" height="412.40657" viewBox="0,0,522.94232,412.40657"><g transform="translate(12.04788,11.58811)"><g data-paper-data="{&quot;isPaintingLayer&quot;:true}" stroke-miterlimit="10" stroke-dasharray="" stroke-dashoffset="0" style="mix-blend-mode: normal"><path d="M-12.04788,400.81846v-412.40657h522.94232v412.40657z" fill="#000000" fill-rule="nonzero" stroke="none" stroke-width="0" stroke-linecap="butt" stroke-linejoin="miter"/><path d="" data-paper-data="{&quot;origPos&quot;:null}" fill="#000000" fill-rule="nonzero" stroke="none" stroke-width="1" stroke-linecap="butt" stroke-linejoin="miter"/><path d="M358.36683,83.48877v-52.80417h69.16102v52.80417z" data-paper-data="{&quot;origPos&quot;:null}" fill="none" fill-rule="nonzero" stroke="none" stroke-width="0" stroke-linecap="butt" stroke-linejoin="miter"/><g fill-rule="nonzero" stroke="none" stroke-linecap="butt" stroke-linejoin="miter"><g data-paper-data="{&quot;origPos&quot;:null}"><path d="M322.81971,290.91921c0,15.12757 -7.17921,28.11452 -22.30678,29.99875h-114.09783c-15.46749,-1.88417 -22.30678,-14.87118 -22.30678,-30.25515c0,-11.53796 7.43561,-21.79398 17.69159,-25.63995c-0.76925,-1.53841 2.30761,-1.53844 2.30761,-3.33324c0,-5.89721 1.282,-12.05082 7.17921,-12.05082c0.51285,0 1.282,0.25641 1.7948,0.25641c-0.76925,-1.7948 2.0512,-2.30756 2.0512,-4.61516c0,-8.97396 4.10246,-17.94798 13.07642,-17.94798c2.564,0 4.61521,0.5128 7.17921,1.53841v0c0,-15.12757 12.05077,-27.1783 27.1783,-27.1783c14.87117,0 26.66555,11.79438 26.66555,26.92195c9.9996,-4.10246 21.79403,-2.0512 29.74235,5.89721c8.20477,8.20481 7.4356,20.76842 2.82036,30.76799c10.76881,3.84605 21.28117,13.84557 21.02478,25.63994z" data-paper-data="{&quot;origPos&quot;:null}" fill="#a3a3a3" stroke-width="1"/><path d="M323.07607,285.12313c0,15.12757 -12.30718,27.94755 -27.17831,27.94755h-104.35462c-15.12757,0 -27.4347,-12.81998 -27.4347,-27.94755c0,-11.79442 7.43561,-22.30678 17.94793,-26.15279c-0.76925,-1.53841 -1.282,-3.07676 -1.282,-4.87156c0,-5.89721 4.61516,-10.51241 10.51241,-10.51241c0.51285,0 1.28205,0.25639 1.79485,0.25639c-0.76925,-2.0512 -1.28205,-4.10244 -1.28205,-6.41001c0,-8.97396 7.43565,-16.15318 16.40962,-16.15318c2.564,0 4.61516,0.5128 7.17921,1.53844c0,-15.12757 12.05082,-27.43474 27.17835,-27.43474c14.87117,0 26.6655,12.05076 26.6655,26.92194c9.9996,-4.10246 21.79398,-2.0512 29.74235,5.89721c8.20477,8.20481 10.25606,20.51198 5.64076,30.51155c10.76881,3.84605 18.46083,14.61473 18.46083,26.40911z" data-paper-data="{&quot;origPos&quot;:null}" fill="#b9b9b9" stroke-width="1"/><path d="M295.89775,313.07074h-34.35759l-68.71506,-69.22786c-0.76925,-1.7948 -1.02564,-4.3588 -1.02564,-6.41001c0,-8.97396 7.43561,-16.15322 16.40957,-16.15322c2.564,0 4.61521,0.51281 7.17921,1.53845c0,-15.12757 12.05077,-27.4347 27.1783,-27.4347c14.87118,0 26.66555,12.05082 26.66555,26.66555c9.9996,-3.84605 21.79403,-1.79481 29.74235,6.15361c8.20477,8.46121 10.25601,20.76834 5.64076,30.76799c10.76881,3.84605 18.46078,14.10194 18.46078,26.1528c0,15.12757 -12.30717,27.94755 -27.1783,27.94755z" data-paper-data="{&quot;origPos&quot;:null}" fill="#cbcbcb" stroke-width="1"/><g data-paper-data="{&quot;origPos&quot;:null}" fill="none" stroke-width="1" font-family="sans-serif" font-weight="normal" font-size="12" text-anchor="start"/><g data-paper-data="{&quot;origPos&quot;:null}" fill="none" stroke-width="1" font-family="sans-serif" font-weight="normal" font-size="12" text-anchor="start"/><path d="M128.09483,329.89171v-166.83777h213.37075v166.83777z" data-paper-data="{&quot;origPos&quot;:null}" fill="none" stroke-width="0"/></g><path d="M269.4021,274.83859c0,14.19439 -11.54806,25.13931 -25.74232,25.13931c-14.19431,0 -25.34038,-10.94479 -25.34038,-25.13931c0,-12.94718 9.20616,-22.68549 21.66652,-24.47368v-2.9115c0,-1.75749 0.94539,-3.39467 2.46753,-4.27322c1.52795,-0.8819 3.41033,-0.47744 4.93426,0.40332l12.96385,7.49064c1.52076,0.87873 2.4655,2.5155 2.4655,4.27186c0,1.75613 -0.94451,3.39299 -2.46529,4.27172l-12.96406,7.49073c-1.52166,0.8793 -3.40393,0.8846 -4.93434,0.00137c-1.522,-0.87829 -2.46753,-2.5156 -2.46753,-4.27296v-2.53141c-5.52043,1.59643 -11.37827,5.28863 -11.37827,14.73421c0,8.70955 7.75225,14.87555 15.05222,15.05222c8.30733,0.20106 14.42645,-7.96345 14.85107,-15.25324c0.20106,-3.45168 2.39605,-6.24981 5.84773,-6.24981c3.45168,0 5.04365,2.79813 5.04352,6.24981z" data-paper-data="{&quot;origPos&quot;:null}" fill="#a3a3a3" stroke-width="1"/><path d="M269.4021,269.73991c0,14.19439 -11.54806,25.13931 -25.74232,25.13931c-14.19431,0 -25.34038,-10.94479 -25.34038,-25.13931c0,-12.94718 9.20616,-22.68549 21.66652,-24.47368v-2.9115c0,-1.75749 0.94539,-3.39467 2.46753,-4.27322c1.52795,-0.8819 3.41033,-0.47744 4.93426,0.40332l12.96385,7.49064c1.52076,0.87873 2.4655,2.5155 2.4655,4.27186c0,1.75613 -0.94451,3.39299 -2.46529,4.27172l-12.96406,7.49073c-1.52166,0.8793 -3.40393,0.8846 -4.93434,0.00137c-1.522,-0.87829 -2.46753,-2.5156 -2.46753,-4.27296v-2.53141c-5.52043,1.59643 -11.37827,5.28863 -11.37827,14.73421c0,8.70955 7.75225,14.87555 15.05222,15.05222c8.30733,0.20106 14.42645,-7.96345 14.85107,-15.25324c0.20106,-3.45168 2.39605,-6.24981 5.84773,-6.24981c3.45168,0 5.04365,2.79813 5.04352,6.24981z" data-paper-data="{&quot;origPos&quot;:null}" fill="#ffffff" stroke-width="1"/></g><g fill="#ffffff" fill-rule="evenodd" stroke="#ffffff" stroke-width="0" stroke-linecap="round" stroke-linejoin="round"><path d="M76.854,35.47165c0.893,1.034 1.363,1.88 1.363,2.82c0,1.41 -1.128,2.538 -2.632,2.538c-0.987,0 -1.927,-0.611 -2.538,-1.269c-1.316,-1.363 -2.4439,-2.115 -4.5119,-2.115c-2.867,0 -4.512,1.457 -4.512,3.525c0,1.55098 0.846,2.96098 3.666,4.04198l1.833,0.705c7.3319,2.773 10.2929,5.452 10.2929,9.964c0,6.486 -6.439,9.729 -11.8909,9.729c-3.713,0 -7.614,-1.504 -9.917,-4.418c-0.47,-0.564 -1.316,-1.645 -1.316,-3.055c0,-1.316 0.846,-2.679 2.585,-2.679c1.41,0 2.35,0.893 3.008,1.786c1.645,2.068 3.854,2.726 5.64,2.726c2.303,0 5.4519,-0.893 5.4519,-4.089c0,-2.444 -1.645,-3.572 -5.2639,-4.982l-1.974,-0.752c-4.841,-1.88 -8.413,-4.23 -8.413,-9.02398c0,-5.593 4.7,-9.07101 10.575,-9.07101c4.1359,0 6.6739,1.55101 8.5539,3.61901z"/><path d="M107.78,51.87463c0,2.444 -1.363,3.29 -3.854,3.29l-13.959,-0.094c0.564,3.431 3.29,5.264 6.721,5.264c1.692,0 2.491,-0.376 3.901,-0.987c0.846,-0.376 1.504,-0.752 2.303,-0.752c1.316,0 2.115,0.94 2.115,2.115c0,0.752 -0.329,1.598 -1.504,2.585c-1.739,1.222 -4.089,2.021 -7.05,2.021c-6.251,0 -12.878,-3.854 -12.878,-12.408c0,-8.46 7.003,-12.54898 12.361,-12.54898c5.358,0 11.844,4.22998 11.844,11.51498zM89.967,50.84063h11.75c-0.47,-3.619 -3.102,-5.123 -5.781,-5.123c-2.679,0 -5.546,1.504 -5.969,5.123z"/><path d="M128.648,43.79062c0.282,0.423 0.752,1.081 0.752,2.068c0,1.504 -1.034,2.303 -2.397,2.303c-0.893,0 -1.786,-0.329 -2.585,-1.316c-0.94,-1.081 -2.021,-1.598 -3.384,-1.598c-1.833,0 -2.914,0.893 -2.914,2.209c0,0.752 0.282,1.739 2.444,2.35l2.867,0.846c3.76,1.034 6.909,2.82 6.909,7.003c0,5.17 -4.794,7.661 -9.682,7.661c-4.23,0 -6.768,-1.786 -8.084,-3.384c-0.235,-0.329 -1.269,-1.504 -1.269,-2.961c0,-1.034 0.658,-2.35 2.35,-2.35c1.269,0 1.974,0.799 2.538,1.504c1.363,1.692 2.867,2.162 4.465,2.162c2.303,0 3.572,-0.987 3.572,-2.303c0,-0.799 -0.517,-1.833 -2.773,-2.491l-2.679,-0.799c-4.747,-1.316 -6.721,-3.854 -6.721,-7.191c0,-4.7 4.324,-7.14398 8.789,-7.14398c3.196,0 6.251,1.269 7.802,3.43098z"/><path d="M150.973,43.79062c0.282,0.423 0.752,1.081 0.752,2.068c0,1.504 -1.034,2.303 -2.397,2.303c-0.893,0 -1.786,-0.329 -2.585,-1.316c-0.94,-1.081 -2.021,-1.598 -3.384,-1.598c-1.833,0 -2.914,0.893 -2.914,2.209c0,0.752 0.282,1.739 2.444,2.35l2.867,0.846c3.76,1.034 6.909,2.82 6.909,7.003c0,5.17 -4.794,7.661 -9.682,7.661c-4.23,0 -6.768,-1.786 -8.084,-3.384c-0.235,-0.329 -1.269,-1.504 -1.269,-2.961c0,-1.034 0.658,-2.35 2.35,-2.35c1.269,0 1.974,0.799 2.538,1.504c1.363,1.692 2.867,2.162 4.465,2.162c2.303,0 3.572,-0.987 3.572,-2.303c0,-0.799 -0.517,-1.833 -2.773,-2.491l-2.679,-0.799c-4.747,-1.316 -6.721,-3.854 -6.721,-7.191c0,-4.7 4.324,-7.14398 8.789,-7.14398c3.196,0 6.251,1.269 7.802,3.43098z"/><path d="M157.13,34.10865c0,-1.645 1.457,-3.055 3.149,-3.055c1.645,0 3.102,1.41 3.102,3.055c0,1.645 -1.457,3.055 -3.102,3.055c-1.692,0 -3.149,-1.41 -3.149,-3.055zM163.334,43.60263v18.612c0,1.739 -1.41,3.149 -3.055,3.149c-1.692,0 -3.102,-1.41 -3.102,-3.149v-18.612c0,-1.69198 1.41,-3.10198 3.102,-3.10198c1.645,0 3.055,1.41 3.055,3.10198z"/><path d="M193.179,52.90863c0,8.413 -7.191,12.502 -12.549,12.502c-5.405,0 -12.549,-4.089 -12.549,-12.502c0,-8.366 7.144,-12.54898 12.549,-12.54898c5.358,0 12.549,4.18298 12.549,12.54898zM174.191,52.90863c0,4.512 3.102,7.144 6.439,7.144c3.29,0 6.439,-2.632 6.439,-7.144c0,-4.559 -3.149,-7.191 -6.439,-7.191c-3.337,0 -6.439,2.632 -6.439,7.191z"/><path d="M221.003,51.63963v10.622c0,1.692 -1.41,3.055 -3.102,3.055c-1.645,0 -3.055,-1.363 -3.055,-3.055v-10.622c0,-4.23 -2.209,-5.969 -4.982,-5.969c-4.23,0 -5.64,3.948 -5.828,5.264v11.327c0,1.692 -1.41,3.055 -3.055,3.055c-1.692,0 -3.102,-1.363 -3.102,-3.055v-18.659c0,-1.69198 1.41,-3.10198 3.102,-3.10198c1.645,0 3.055,1.41 3.055,3.10198v2.35c0.188,-1.692 2.961,-5.54598 8.037,-5.54598c4.747,0 8.93,3.10198 8.93,11.23298z"/><path d="M253.856,62.02663c0,2.162 -2.115,3.29 -5.311,3.29c-3.196,0 -6.439,-1.034 -6.439,-7.567v-12.267h-1.363c-1.504,0 -2.491,-0.987 -2.491,-2.397c0,-1.45698 0.987,-2.44398 2.491,-2.44398h1.363v-3.196c0,-1.692 1.41,-3.102 3.102,-3.102c1.692,0 3.055,1.41 3.055,3.102v3.196h3.102c1.551,0 2.491,0.987 2.491,2.44398c0,1.41 -0.94,2.397 -2.491,2.397h-3.102v12.455c0,1.363 0.47,2.068 1.504,2.068c0.517,0 1.269,-0.188 1.786,-0.188c1.41,-0.094 2.303,0.752 2.303,2.209z"/><path d="M258.086,34.10865c0,-1.645 1.457,-3.055 3.149,-3.055c1.645,0 3.102,1.41 3.102,3.055c0,1.645 -1.457,3.055 -3.102,3.055c-1.692,0 -3.149,-1.41 -3.149,-3.055zM264.29,43.60263v18.612c0,1.739 -1.41,3.149 -3.055,3.149c-1.692,0 -3.102,-1.41 -3.102,-3.149v-18.612c0,-1.69198 1.41,-3.10198 3.102,-3.10198c1.645,0 3.055,1.41 3.055,3.10198z"/><path d="M310.068,51.63963v10.622c0,1.692 -1.41,3.055 -3.102,3.055c-1.645,0 -3.055,-1.363 -3.055,-3.055v-10.622c0,-4.23 -2.209,-5.969 -4.982,-5.969c-4.23,0 -5.687,3.948 -5.828,5.264v-0.047v0.752v10.622c0,1.692 -1.41,3.055 -3.102,3.055c-1.645,0 -3.055,-1.363 -3.055,-3.055v-10.622c0,-4.23 -2.209,-5.969 -4.982,-5.969c-4.23,0 -5.64,3.948 -5.828,5.264v11.327c0,1.692 -1.41,3.055 -3.055,3.055c-1.692,0 -3.102,-1.363 -3.102,-3.055v-18.659c0,-1.69198 1.41,-3.10198 3.102,-3.10198c1.645,0 3.055,1.41 3.055,3.10198v2.35c0.188,-1.692 2.961,-5.54598 8.037,-5.54598c3.525,0 6.721,1.69198 8.131,5.87498c1.316,-2.914 4.277,-5.87498 8.836,-5.87498c4.747,0 8.93,3.10198 8.93,11.23298z"/><path d="M338.973,51.87463c0,2.444 -1.363,3.29 -3.854,3.29l-13.959,-0.094c0.564,3.431 3.29,5.264 6.721,5.264c1.692,0 2.491,-0.376 3.901,-0.987c0.846,-0.376 1.504,-0.752 2.303,-0.752c1.316,0 2.115,0.94 2.115,2.115c0,0.752 -0.329,1.598 -1.504,2.585c-1.739,1.222 -4.089,2.021 -7.05,2.021c-6.251,0 -12.878,-3.854 -12.878,-12.408c0,-8.46 7.003,-12.54898 12.361,-12.54898c5.358,0 11.844,4.22998 11.844,11.51498zM321.16,50.84063h11.75c-0.47,-3.619 -3.102,-5.123 -5.781,-5.123c-2.679,0 -5.546,1.504 -5.969,5.123z"/><path d="M367.831,52.90863c0,8.413 -7.191,12.502 -12.549,12.502c-5.405,0 -12.549,-4.089 -12.549,-12.502c0,-8.366 7.144,-12.54898 12.549,-12.54898c5.358,0 12.549,4.18298 12.549,12.54898zM348.843,52.90863c0,4.512 3.102,7.144 6.439,7.144c3.29,0 6.439,-2.632 6.439,-7.144c0,-4.559 -3.149,-7.191 -6.439,-7.191c-3.337,0 -6.439,2.632 -6.439,7.191z"/><path d="M372.531,54.17763v-10.622c0,-1.69198 1.41,-3.05498 3.102,-3.05498c1.645,0 3.055,1.363 3.055,3.05498v10.622c0,4.23 2.209,5.969 4.982,5.969c4.23,0 5.64,-3.948 5.828,-5.264v-11.327c0,-1.69198 1.41,-3.05498 3.055,-3.05498c1.692,0 3.102,1.363 3.102,3.05498v18.659c0,1.692 -1.41,3.102 -3.102,3.102c-1.645,0 -3.055,-1.41 -3.055,-3.102v-2.35c-0.188,1.692 -2.961,5.546 -8.037,5.546c-4.747,0 -8.93,-3.102 -8.93,-11.233z"/><path d="M415.019,62.02663c0,2.162 -2.115,3.29 -5.311,3.29c-3.196,0 -6.439,-1.034 -6.439,-7.567v-12.267h-1.363c-1.504,0 -2.491,-0.987 -2.491,-2.397c0,-1.45698 0.987,-2.44398 2.491,-2.44398h1.363v-3.196c0,-1.692 1.41,-3.102 3.102,-3.102c1.692,0 3.055,1.41 3.055,3.102v3.196h3.102c1.551,0 2.491,0.987 2.491,2.44398c0,1.41 -0.94,2.397 -2.491,2.397h-3.102v12.455c0,1.363 0.47,2.068 1.504,2.068c0.517,0 1.269,-0.188 1.786,-0.188c1.41,-0.094 2.303,0.752 2.303,2.209z"/></g><g fill="#ffffff" fill-rule="evenodd" stroke="none" stroke-width="1" stroke-linecap="round" stroke-linejoin="round"><path d="M140.22018,116.6193c0,1.08661 -0.75733,1.81101 -1.97565,2.60128c-1.38296,0.85612 -3.19397,1.41589 -5.43305,1.41589c-5.82818,0 -11.65636,-4.80742 -11.65636,-11.75514c0,-6.94772 5.86111,-11.75514 11.5905,-11.75514c2.30493,0 4.11595,0.5927 5.4989,1.41589c1.21832,0.79026 1.97565,1.51467 1.97565,2.60128c0,1.28417 -1.02076,2.00858 -2.07444,2.00858c-0.82319,0 -1.41588,-0.42806 -1.77809,-0.69148c-0.49391,-0.32928 -1.71223,-1.11953 -3.55618,-1.11953c-3.72081,0 -7.01357,3.29276 -7.01357,7.54041c0,4.24765 3.25983,7.54041 7.0465,7.54041c1.77809,0 3.02934,-0.79026 3.52325,-1.11954c0.3622,-0.26342 0.92197,-0.69148 1.77809,-0.69148c1.05368,0 2.07444,0.72441 2.07444,2.00858z"/><path d="M145.52152,120.57061c-1.18539,0 -2.17322,-0.9549 -2.17322,-2.14029v-19.39433c0,-1.15247 0.98783,-2.14029 2.17322,-2.14029c1.15247,0 2.14029,0.98783 2.14029,2.14029v19.39433c0,1.18539 -0.98783,2.14029 -2.14029,2.14029z"/><path d="M151.61312,98.70671c0,-1.15247 1.02075,-2.14029 2.20615,-2.14029c1.15247,0 2.17322,0.98783 2.17322,2.14029c0,1.15247 -1.02075,2.14029 -2.17322,2.14029c-1.18539,0 -2.20615,-0.98783 -2.20615,-2.14029zM155.95956,105.35807v13.03931c0,1.21832 -0.98783,2.20615 -2.14029,2.20615c-1.18539,0 -2.17322,-0.98783 -2.17322,-2.20615v-13.03931c0,-1.18539 0.98783,-2.17322 2.17322,-2.17322c1.15247,0 2.14029,0.98783 2.14029,2.17322z"/><path d="M174.43192,116.75101c0,1.05368 -0.79026,1.58052 -1.21832,1.97565c-1.38296,1.21832 -2.99641,1.84394 -5.1367,1.84394c-3.98423,0 -8.79166,-2.8647 -8.79166,-8.7258c0,-5.89403 4.80743,-8.75873 8.79166,-8.75873c2.14029,0 3.75374,0.5927 5.1367,1.81102c0.42806,0.42806 1.21832,0.9549 1.21832,2.00858c0,1.02075 -0.85611,1.64638 -1.74516,1.64638c-0.79026,0 -1.41589,-0.46098 -1.67931,-0.69148c-0.75733,-0.7244 -1.87687,-1.02076 -2.76592,-1.02076c-2.60128,0 -4.67571,1.81102 -4.67571,5.00499c0,3.16104 2.07444,4.97206 4.67571,4.97206c0.88905,0 2.00858,-0.29635 2.76592,-1.02075c0.26342,-0.23049 0.88905,-0.69148 1.67931,-0.69148c0.88905,0 1.74516,0.62562 1.74516,1.64638z"/><path d="M193.13477,118.69374c0,0.98783 -0.82319,1.87687 -1.9098,1.87687c-0.52684,0 -1.02075,-0.23049 -1.3171,-0.5927l-5.89404,-6.55258l-1.97565,1.84395v3.16104c0,1.18539 -0.98783,2.14029 -2.14029,2.14029c-1.18539,0 -2.17322,-0.9549 -2.17322,-2.14029v-19.39433c0,-1.15247 0.98783,-2.14029 2.17322,-2.14029c1.15247,0 2.14029,0.98783 2.14029,2.14029v11.16244l6.51966,-6.38795c0.3622,-0.3622 0.88904,-0.62562 1.44881,-0.62562c1.08661,0 1.94273,0.92197 1.94273,1.94273c0,0.55977 -0.19756,1.02075 -0.52684,1.38296l-4.74157,4.41229l5.89403,6.4538c0.29635,0.29635 0.55977,0.75733 0.55977,1.3171z"/><path d="M214.99867,118.26568c0,1.51467 -1.48174,2.30493 -3.72082,2.30493c-2.23908,0 -4.51107,-0.7244 -4.51107,-5.30133v-8.5941h-0.9549c-1.05368,0 -1.74516,-0.69148 -1.74516,-1.67931c0,-1.02075 0.69148,-1.71223 1.74516,-1.71223h0.9549v-2.23907c0,-1.18539 0.98783,-2.17322 2.17322,-2.17322c1.18539,0 2.14029,0.98783 2.14029,2.17322v2.23907h2.17322c1.08661,0 1.74516,0.69148 1.74516,1.71223c0,0.98783 -0.65855,1.67931 -1.74516,1.67931h-2.17322v8.7258c0,0.9549 0.32928,1.44881 1.05368,1.44881c0.3622,0 0.88905,-0.13171 1.25125,-0.13171c0.98783,-0.06586 1.61345,0.52684 1.61345,1.5476z"/><path d="M234.16252,110.98869v7.44163c0,1.18539 -0.98783,2.14029 -2.17322,2.14029c-1.15247,0 -2.14029,-0.9549 -2.14029,-2.14029v-7.44163c0,-2.96348 -1.5476,-4.1818 -3.49032,-4.1818c-2.96348,0 -3.95131,2.76591 -4.08302,3.68788v7.93554c0,1.18539 -0.98783,2.14029 -2.14029,2.14029c-1.18539,0 -2.17322,-0.9549 -2.17322,-2.14029v-19.39433c0,-1.15247 0.98783,-2.14029 2.17322,-2.14029c1.15247,0 2.14029,0.98783 2.14029,2.14029v7.96847c0.13171,-1.18539 2.07444,-3.88545 5.63062,-3.88545c3.32568,0 6.25624,2.17322 6.25624,7.86969z"/><path d="M254.41297,111.15333c0,1.71223 -0.9549,2.30493 -2.70006,2.30493l-9.77949,-0.06586c0.39513,2.40371 2.30493,3.68789 4.70864,3.68789c1.18539,0 1.74516,-0.26342 2.73299,-0.69148c0.5927,-0.26342 1.05368,-0.52684 1.61345,-0.52684c0.92197,0 1.48174,0.65855 1.48174,1.48174c0,0.52684 -0.23049,1.11954 -1.05368,1.81101c-1.21832,0.85612 -2.8647,1.41589 -4.93913,1.41589c-4.37937,0 -9.02215,-2.70006 -9.02215,-8.69288c0,-5.92696 4.90621,-8.79166 8.65995,-8.79166c3.75374,0 8.29775,2.96348 8.29775,8.06726zM241.93342,110.42892h8.23189c-0.32928,-2.53542 -2.17322,-3.5891 -4.05009,-3.5891c-1.87687,0 -3.88545,1.05368 -4.1818,3.5891z"/><path d="M283.7185,118.46324c0,0.16464 -0.03292,0.32928 -0.06585,0.49391v1.11954c0,5.36719 -5.00499,7.07943 -8.49531,7.07943c-2.04151,0 -3.68789,-0.55977 -4.41229,-0.88905c-0.92197,-0.39513 -1.41589,-1.05368 -1.41589,-1.84394c0,-0.98783 0.79026,-1.71223 1.71223,-1.71223c0.19756,0 0.46099,0.03293 0.88905,0.16464c0.65855,0.16464 1.77809,0.55977 3.25983,0.55977c2.66713,0 4.14887,-1.41589 4.14887,-3.35861v-2.23908c-0.26342,1.02075 -2.00858,2.79884 -4.87328,2.79884c-3.62203,0 -7.96847,-2.79884 -7.96847,-8.79166c0,-5.86111 4.37937,-8.75873 7.96847,-8.75873c2.33786,0 4.21473,1.25125 4.87328,2.79884v-0.55977c0,-1.15247 0.98783,-2.14029 2.17322,-2.14029c1.15247,0 2.20615,0.98783 2.20615,2.14029zM279.5367,111.8448c0,-3.72081 -2.43664,-5.07084 -4.28059,-5.07084c-2.17322,0 -4.44522,1.71223 -4.44522,5.07084c0,3.39154 2.272,5.07085 4.44522,5.07085c1.84394,0 4.28059,-1.35003 4.28059,-5.07085z"/><path d="M299.45787,105.09465c0,1.21832 -0.92197,2.04151 -2.76592,2.04151c-2.60128,0 -4.24766,2.00858 -4.41229,3.35861v7.93554c0,1.15247 -0.98783,2.14029 -2.14029,2.14029c-1.18539,0 -2.17322,-0.98783 -2.17322,-2.14029v-13.07224c0,-1.18539 0.98783,-2.17322 2.17322,-2.17322c1.15247,0 2.14029,0.98783 2.14029,2.17322v1.64638c0.13171,-1.18539 2.17322,-3.88545 5.1367,-3.88545c1.35003,0 2.04151,0.92197 2.04151,1.97565z"/><path d="M317.73267,111.15333c0,1.71223 -0.9549,2.30493 -2.70006,2.30493l-9.77949,-0.06586c0.39513,2.40371 2.30493,3.68789 4.70864,3.68789c1.18539,0 1.74516,-0.26342 2.73299,-0.69148c0.5927,-0.26342 1.05368,-0.52684 1.61345,-0.52684c0.92197,0 1.48174,0.65855 1.48174,1.48174c0,0.52684 -0.23049,1.11954 -1.05368,1.81101c-1.21832,0.85612 -2.8647,1.41589 -4.93913,1.41589c-4.37937,0 -9.02215,-2.70006 -9.02215,-8.69288c0,-5.92696 4.90621,-8.79166 8.65995,-8.79166c3.75374,0 8.29775,2.96348 8.29775,8.06726zM305.25312,110.42892h8.23189c-0.32928,-2.53542 -2.17322,-3.5891 -4.05009,-3.5891c-1.87687,0 -3.88545,1.05368 -4.1818,3.5891z"/><path d="M336.99529,111.15333c0,1.71223 -0.9549,2.30493 -2.70006,2.30493l-9.77949,-0.06586c0.39513,2.40371 2.30493,3.68789 4.70864,3.68789c1.18539,0 1.74516,-0.26342 2.73299,-0.69148c0.5927,-0.26342 1.05368,-0.52684 1.61345,-0.52684c0.92197,0 1.48174,0.65855 1.48174,1.48174c0,0.52684 -0.2305,1.11954 -1.05369,1.81101c-1.21832,0.85612 -2.8647,1.41589 -4.93913,1.41589c-4.37937,0 -9.02215,-2.70006 -9.02215,-8.69288c0,-5.92696 4.90621,-8.79166 8.65995,-8.79166c3.75374,0 8.29774,2.96348 8.29774,8.06726zM324.51575,110.42892h8.23189c-0.32928,-2.53542 -2.17322,-3.5891 -4.05009,-3.5891c-1.87687,0 -3.88545,1.05368 -4.1818,3.5891z"/><path d="M356.48841,110.98869v7.44163c0,1.18539 -0.98783,2.14029 -2.17322,2.14029c-1.15247,0 -2.14029,-0.9549 -2.14029,-2.14029v-7.44163c0,-2.96348 -1.54759,-4.1818 -3.49032,-4.1818c-2.96348,0 -3.95131,2.76591 -4.08302,3.68788v7.93554c0,1.18539 -0.98783,2.14029 -2.1403,2.14029c-1.18539,0 -2.17322,-0.9549 -2.17322,-2.14029v-13.07224c0,-1.18539 0.98783,-2.17322 2.17322,-2.17322c1.15247,0 2.1403,0.98783 2.1403,2.17322v1.64638c0.13171,-1.18539 2.07443,-3.88545 5.63061,-3.88545c3.32568,0 6.25624,2.17322 6.25624,7.86969z"/></g><g fill="#ffffff" fill-rule="evenodd" stroke="none" stroke-width="1" stroke-linecap="round" stroke-linejoin="round"><path d="M120.85668,131.27714c0,0.88641 -0.66481,1.48789 -1.5512,1.48789c-0.28491,0 -0.72811,-0.09498 -1.3296,-0.28491c-0.41154,-0.15828 -0.6648,-0.25325 -1.07634,-0.25325c-1.7728,0 -1.9944,1.45623 -1.9944,2.08937v0.94971h2.59589c1.01303,0 1.67783,0.66481 1.67783,1.64617c0,0.94971 -0.6648,1.61451 -1.67783,1.61451h-2.59589v11.33326c0,1.13966 -0.94971,2.05771 -2.08937,2.05771c-1.10801,0 -2.05772,-0.91805 -2.05772,-2.05771v-11.33326h-0.94971c-1.01303,0 -1.67783,-0.6648 -1.67783,-1.61451c0,-0.98137 0.6648,-1.64617 1.67783,-1.64617h0.94971v-1.17131c0,-4.432 3.51394,-5.38172 5.54,-5.38172c1.39291,0 2.59589,0.34822 3.45063,0.8864c0.72811,0.4432 1.10801,0.98137 1.10801,1.67783zM126.61828,131.18218v18.64606c0,1.13966 -0.94971,2.05772 -2.05772,2.05772c-1.13966,0 -2.08937,-0.91806 -2.08937,-2.05772v-18.64606c0,-1.10801 0.94971,-2.05771 2.08937,-2.05771c1.10801,0 2.05772,0.94971 2.05772,2.05771z"/><path d="M146.34068,137.22869v12.63121c0,1.13966 -1.01303,2.05771 -2.12102,2.05771c-1.13966,0 -2.08937,-0.91805 -2.08937,-2.05771v-0.60148c-0.25325,0.98137 -1.93109,2.69085 -4.68527,2.69085c-3.48228,0 -7.66103,-2.69086 -7.66103,-8.45246c0,-5.63498 4.2104,-8.42079 7.66103,-8.42079c2.24766,0 4.05212,1.20297 4.68527,2.69085v-0.53818c0,-1.10801 0.94971,-2.05771 2.08937,-2.05771c1.10801,0 2.12102,0.94971 2.12102,2.05771zM142.32022,143.49681c0,-3.57725 -2.34263,-4.87519 -4.11543,-4.87519c-2.08937,0 -4.27371,1.64616 -4.27371,4.87519c0,3.26069 2.18434,4.8752 4.27371,4.8752c1.7728,0 4.11543,-1.29794 4.11543,-4.8752z"/><path d="M166.06308,149.8599c0,0.15828 -0.03165,0.31657 -0.06331,0.47485v1.07634c0,5.16011 -4.81189,6.80628 -8.16755,6.80628c-1.96274,0 -3.54561,-0.53817 -4.24206,-0.85474c-0.8864,-0.37989 -1.36126,-1.01304 -1.36126,-1.7728c0,-0.94971 0.75977,-1.64617 1.64617,-1.64617c0.18994,0 0.44321,0.03165 0.85474,0.15828c0.63314,0.15828 1.70949,0.53818 3.13405,0.53818c2.56423,0 3.9888,-1.36126 3.9888,-3.22903v-2.15269c-0.25325,0.98137 -1.93109,2.69085 -4.68526,2.69085c-3.48229,0 -7.66103,-2.69086 -7.66103,-8.45246c0,-5.63498 4.2104,-8.42079 7.66103,-8.42079c2.24766,0 4.05211,1.20297 4.68526,2.69085v-0.53818c0,-1.10801 0.94971,-2.05771 2.08937,-2.05771c1.10801,0 2.12102,0.94971 2.12102,2.05771zM162.04263,143.49681c0,-3.57725 -2.34263,-4.87519 -4.11543,-4.87519c-2.08937,0 -4.27371,1.64616 -4.27371,4.87519c0,3.26069 2.18434,4.8752 4.27371,4.8752c1.7728,0 4.11543,-1.29794 4.11543,-4.8752z"/><path d="M188.15976,149.66995c0,1.45623 -1.42457,2.216 -3.57725,2.216c-2.15269,0 -4.33703,-0.69646 -4.33703,-5.0968v-8.26252h-0.91806c-1.01303,0 -1.67783,-0.6648 -1.67783,-1.61451c0,-0.98137 0.6648,-1.64617 1.67783,-1.64617h0.91806v-2.15269c0,-1.13966 0.94971,-2.08937 2.08937,-2.08937c1.13966,0 2.05772,0.94971 2.05772,2.08937v2.15269h2.08937c1.04468,0 1.67783,0.66481 1.67783,1.64617c0,0.94971 -0.63314,1.61451 -1.67783,1.61451h-2.08937v8.38915c0,0.91806 0.31657,1.39291 1.01303,1.39291c0.34823,0 0.85474,-0.12662 1.20297,-0.12662c0.94971,-0.06332 1.5512,0.50651 1.5512,1.48788z"/><path d="M206.96412,143.52846c0,5.66663 -4.84354,8.4208 -8.45245,8.4208c-3.64058,0 -8.45246,-2.75418 -8.45246,-8.4208c0,-5.63498 4.81189,-8.45245 8.45246,-8.45245c3.60891,0 8.45245,2.81748 8.45245,8.45245zM194.17463,143.52846c0,3.03908 2.08938,4.81189 4.33704,4.81189c2.216,0 4.33703,-1.7728 4.33703,-4.81189c0,-3.07074 -2.12102,-4.84354 -4.33703,-4.84354c-2.24766,0 -4.33704,1.7728 -4.33704,4.84354z"/><path d="M235.77212,143.49681c0,5.7616 -4.17874,8.45246 -7.66103,8.45246c-2.75418,0 -4.432,-1.70949 -4.68526,-2.69085v0.60148c0,0.12663 0,0.25325 -0.03166,0.34823v5.69829c0,1.13966 -0.98137,2.05771 -2.08937,2.05771c-1.13966,0 -2.08937,-0.91805 -2.08937,-2.05771v-18.67771c0,-1.10801 1.01303,-2.05771 2.12103,-2.05771c1.13966,0 2.08937,0.94971 2.08937,2.05771v0.53818c0.63314,-1.48789 2.4376,-2.69085 4.68526,-2.69085c3.45063,0 7.66103,2.78582 7.66103,8.42079zM231.62504,143.49681c0,-3.22903 -2.18435,-4.87519 -4.27372,-4.87519c-1.7728,0 -4.11543,1.29794 -4.11543,4.87519c0,3.57726 2.34262,4.8752 4.11543,4.8752c2.08937,0 4.27372,-1.61452 4.27372,-4.8752z"/><path d="M241.0272,151.88594c-1.13966,0 -2.08937,-0.91806 -2.08937,-2.05772v-18.64606c0,-1.10801 0.94971,-2.05771 2.08937,-2.05771c1.10801,0 2.05772,0.94971 2.05772,2.05771v18.64606c0,1.13966 -0.94971,2.05772 -2.05772,2.05772z"/><path d="M262.80732,137.22869v12.63121c0,1.13966 -1.01303,2.05771 -2.12103,2.05771c-1.13966,0 -2.08937,-0.91805 -2.08937,-2.05771v-0.60148c-0.25325,0.98137 -1.93108,2.69085 -4.68526,2.69085c-3.48228,0 -7.66103,-2.69086 -7.66103,-8.45246c0,-5.63498 4.2104,-8.42079 7.66103,-8.42079c2.24766,0 4.05211,1.20297 4.68526,2.69085v-0.53818c0,-1.10801 0.94971,-2.05771 2.08937,-2.05771c1.10801,0 2.12103,0.94971 2.12103,2.05771zM258.78687,143.49681c0,-3.57725 -2.34263,-4.87519 -4.11543,-4.87519c-2.08937,0 -4.27371,1.64616 -4.27371,4.87519c0,3.26069 2.18435,4.8752 4.27371,4.8752c1.7728,0 4.11543,-1.29794 4.11543,-4.8752z"/><path d="M281.70664,137.03875c0,0.37988 -0.12663,0.69645 -0.25326,0.94971l-8.1992,18.45612c-0.4432,1.01303 -1.20297,1.45624 -1.9944,1.45624c-1.07634,0 -1.83611,-0.85474 -1.83611,-1.86777c0,-0.37989 0.12663,-0.69646 0.2216,-0.94972l1.80446,-4.11543l-5.88823,-12.97943c-0.09497,-0.25325 -0.2216,-0.56983 -0.2216,-0.94971c0,-1.01303 0.82308,-1.86777 1.89943,-1.86777c0.79143,0 1.5512,0.4432 1.9944,1.45623l4.24206,9.81371l4.33703,-9.81371c0.4432,-1.01303 1.17132,-1.45623 1.96275,-1.45623c1.108,0 1.93109,0.85474 1.93109,1.86777z"/><path d="M309.56492,137.22869v12.63121c0,1.13966 -1.01303,2.05771 -2.12103,2.05771c-1.13966,0 -2.08937,-0.91805 -2.08937,-2.05771v-0.60148c-0.25326,0.98137 -1.93109,2.69085 -4.68526,2.69085c-3.48229,0 -7.66103,-2.69086 -7.66103,-8.45246c0,-5.63498 4.2104,-8.42079 7.66103,-8.42079c2.24766,0 4.05211,1.20297 4.68526,2.69085v-0.53818c0,-1.10801 0.94971,-2.05771 2.08937,-2.05771c1.10801,0 2.12103,0.94971 2.12103,2.05771zM305.54447,143.49681c0,-3.57725 -2.34263,-4.87519 -4.11544,-4.87519c-2.08937,0 -4.27371,1.64616 -4.27371,4.87519c0,3.26069 2.18434,4.8752 4.27371,4.8752c1.7728,0 4.11544,-1.29794 4.11544,-4.8752z"/><path d="M329.28733,149.8599c0,0.15828 -0.03165,0.31657 -0.06332,0.47485v1.07634c0,5.16011 -4.81189,6.80628 -8.16754,6.80628c-1.96275,0 -3.54561,-0.53817 -4.24206,-0.85474c-0.88641,-0.37989 -1.36126,-1.01304 -1.36126,-1.7728c0,-0.94971 0.75977,-1.64617 1.64617,-1.64617c0.18994,0 0.4432,0.03165 0.85474,0.15828c0.63314,0.15828 1.70949,0.53818 3.13406,0.53818c2.56423,0 3.98881,-1.36126 3.98881,-3.22903v-2.15269c-0.25326,0.98137 -1.93109,2.69085 -4.68526,2.69085c-3.48228,0 -7.66103,-2.69086 -7.66103,-8.45246c0,-5.63498 4.2104,-8.42079 7.66103,-8.42079c2.24766,0 4.05211,1.20297 4.68526,2.69085v-0.53818c0,-1.10801 0.94971,-2.05771 2.08937,-2.05771c1.108,0 2.12102,0.94971 2.12102,2.05771zM325.26687,143.49681c0,-3.57725 -2.34263,-4.87519 -4.11543,-4.87519c-2.08937,0 -4.27372,1.64616 -4.27372,4.87519c0,3.26069 2.18435,4.8752 4.27372,4.8752c1.7728,0 4.11543,-1.29794 4.11543,-4.8752z"/><path d="M348.97808,137.22869v12.63121c0,1.13966 -1.01303,2.05771 -2.12102,2.05771c-1.13966,0 -2.08937,-0.91805 -2.08937,-2.05771v-0.60148c-0.25326,0.98137 -1.93109,2.69085 -4.68526,2.69085c-3.48228,0 -7.66103,-2.69086 -7.66103,-8.45246c0,-5.63498 4.2104,-8.42079 7.66103,-8.42079c2.24766,0 4.05211,1.20297 4.68526,2.69085v-0.53818c0,-1.10801 0.94971,-2.05771 2.08937,-2.05771c1.108,0 2.12102,0.94971 2.12102,2.05771zM344.95762,143.49681c0,-3.57725 -2.34263,-4.87519 -4.11543,-4.87519c-2.08937,0 -4.27372,1.64616 -4.27372,4.87519c0,3.26069 2.18435,4.8752 4.27372,4.8752c1.7728,0 4.11543,-1.29794 4.11543,-4.8752z"/><path d="M352.77694,130.86561c0,-1.10801 0.98137,-2.05772 2.12103,-2.05772c1.108,0 2.08937,0.94972 2.08937,2.05772c0,1.10801 -0.98137,2.05771 -2.08937,2.05771c-1.13966,0 -2.12103,-0.94971 -2.12103,-2.05771zM356.95568,137.26035v12.53623c0,1.17131 -0.94971,2.12102 -2.05771,2.12102c-1.13966,0 -2.08937,-0.94971 -2.08937,-2.12102v-12.53623c0,-1.13966 0.94971,-2.08937 2.08937,-2.08937c1.108,0 2.05771,0.94971 2.05771,2.08937z"/><path d="M376.3615,142.67372v7.15451c0,1.13966 -0.94971,2.05772 -2.08937,2.05772c-1.108,0 -2.05771,-0.91806 -2.05771,-2.05772v-7.15451c0,-2.84915 -1.48789,-4.02046 -3.35566,-4.02046c-2.84914,0 -3.79886,2.65919 -3.92549,3.5456v7.62937c0,1.13966 -0.94971,2.05772 -2.05772,2.05772c-1.13966,0 -2.08937,-0.91806 -2.08937,-2.05772v-12.56789c0,-1.13966 0.94971,-2.08937 2.08937,-2.08937c1.108,0 2.05772,0.94971 2.05772,2.08937v1.58286c0.12663,-1.13966 1.9944,-3.73554 5.41337,-3.73554c3.19737,0 6.01486,2.08937 6.01486,7.56607z"/></g></g></g></svg>