<svg version="1.1" xmlns="http://www.w3.org/2000/svg" xmlns:xlink="http://www.w3.org/1999/xlink" width="508" height="378" viewBox="0,0,508,378"><g transform="translate(-18.27336,-30.43868)"><g data-paper-data="{&quot;isPaintingLayer&quot;:true}" stroke-miterlimit="10" stroke-dasharray="" stroke-dashoffset="0" style="mix-blend-mode: normal"><path d="M208.80877,319.08276l-158.51701,-0.5" fill="none" fill-rule="nonzero" stroke="#ffffff" stroke-width="28.5" stroke-linecap="round" stroke-linejoin="miter"/><path d="M18.27336,408.43868v-378h508v378z" fill="none" fill-rule="nonzero" stroke="none" stroke-width="NaN" stroke-linecap="butt" stroke-linejoin="miter"/><g fill-rule="nonzero" stroke-linejoin="miter"><path d="M50.45844,292.74943l158.51701,0.5" fill="none" stroke="#ffffff" stroke-width="28.5" stroke-linecap="round"/><path d="M208.80878,318.08276l-158.51701,-0.5" fill="none" stroke="#ffffff" stroke-width="28.5" stroke-linecap="round"/><path d="M36.03143,319.20453v-25.81788h187.29994l-0.21709,26.07222z" fill="#ffffff" stroke="none" stroke-width="0" stroke-linecap="butt"/></g><path d="M122.83167,307.82992v13.71038c0,2.50719 -2.64819,4.53981 -4.97566,4.53981h-31.35737c-2.32739,0 -4.97566,-2.03262 -4.97566,-4.53981v-13.71038c0,-2.50733 2.64826,-4.5398 4.97566,-4.5398h31.35737c2.32747,0 4.97566,2.03246 4.97566,4.5398z" data-paper-data="{&quot;index&quot;:null}" fill="#6d6d6d" fill-rule="evenodd" stroke="none" stroke-width="1" stroke-linecap="round" stroke-linejoin="round" opacity="0.0863"/><path d="M168.76871,308.7507v13.47114c0,2.46344 -2.17704,4.46059 -4.1704,4.46059h-26.85124c-1.99332,0 -4.35742,-1.99715 -4.35742,-4.46059v-13.47114c0,-2.46358 2.36412,-4.46058 4.35742,-4.46058h26.66423c1.99338,0 4.35742,1.997 4.35742,4.46058z" data-paper-data="{&quot;index&quot;:null}" fill="#000000" fill-rule="evenodd" stroke="none" stroke-width="1" stroke-linecap="round" stroke-linejoin="round" opacity="0.0863"/><g fill-opacity="0.93614" fill="#000000" fill-rule="evenodd" stroke="none" stroke-width="1" stroke-linecap="round" stroke-linejoin="round"><path d="M59.03966,295.55945c0,0.44474 -0.31502,0.68564 -0.51886,0.88948c-0.79683,0.83389 -1.83455,1.26009 -3.11318,1.26009c-2.20517,0 -4.87361,-1.61218 -4.87361,-4.91067c0,-3.31701 2.66844,-4.9292 4.87361,-4.9292c1.27862,0 2.31635,0.42621 3.11318,1.26009c0.20383,0.20383 0.51886,0.44474 0.51886,0.88948c0,0.46327 -0.38915,0.75977 -0.79683,0.75977c-0.37062,0 -0.64858,-0.20383 -0.79683,-0.35209c-0.50034,-0.59298 -1.27862,-0.85242 -1.96426,-0.85242c-1.55658,0 -3.00199,1.11185 -3.00199,3.22437c0,2.09398 1.44541,3.20584 3.00199,3.20584c0.68564,0 1.46394,-0.25943 1.96426,-0.85242c0.14825,-0.14825 0.42621,-0.35209 0.79683,-0.35209c0.40768,0 0.79683,0.29649 0.79683,0.75977z"/><path d="M70.10255,292.8169c0,3.31701 -2.76109,4.9292 -4.89214,4.9292c-2.13105,0 -4.87361,-1.61218 -4.87361,-4.9292c0,-3.29848 2.74256,-4.94773 4.87361,-4.94773c2.13105,0 4.89214,1.64924 4.89214,4.94773zM62.28255,292.8169c0,2.09398 1.501,3.22437 2.92787,3.22437c1.44541,0 2.9464,-1.13038 2.9464,-3.22437c0,-2.11252 -1.501,-3.2429 -2.9464,-3.2429c-1.42687,0 -2.92787,1.13038 -2.92787,3.2429z"/><path d="M80.79484,292.16833v4.55858c0,0.53739 -0.42621,0.98213 -0.9636,0.98213c-0.53739,0 -0.98213,-0.44474 -0.98213,-0.98213v-4.55858c0,-1.85309 -1.05626,-2.59431 -2.26076,-2.59431c-1.77896,0 -2.55726,1.59365 -2.66844,2.39048v4.76242c0,0.53739 -0.44474,0.98213 -0.98213,0.98213c-0.53739,0 -0.98213,-0.44474 -0.98213,-0.98213v-7.80147c0,-0.55592 0.44474,-1.00066 0.98213,-1.00066c0.53739,0 0.98213,0.44474 0.98213,1.00066v1.22303c0.09266,-0.64858 1.2045,-2.26076 3.31701,-2.26076c1.79749,0 3.55792,1.13038 3.55792,4.28062z"/><path d="M87.70684,296.61572c0,0.75977 -0.87094,1.09332 -1.90867,1.09332c-1.11185,0 -2.20517,-0.38915 -2.20517,-2.5202v-5.63337h-0.70417c-0.48181,0 -0.79683,-0.31502 -0.79683,-0.79683c0,-0.46327 0.31502,-0.7783 0.79683,-0.7783h0.70417v-1.44541c0,-0.51886 0.44474,-0.9636 0.9636,-0.9636c0.53739,0 0.98213,0.44474 0.98213,0.9636v1.44541h1.35275c0.48181,0 0.81536,0.31502 0.81536,0.7783c0,0.48181 -0.33355,0.79683 -0.81536,0.79683h-1.35275v5.65191c0,0.55592 0.22237,0.81536 0.64858,0.81536c0.2409,0 0.51886,-0.07413 0.7227,-0.09266c0.46327,-0.07413 0.79683,0.22237 0.79683,0.68564z"/><path d="M89.37462,285.1822c0,-0.53739 0.46327,-0.98213 1.00066,-0.98213c0.53739,0 1.00066,0.44474 1.00066,0.98213c0,0.53739 -0.46327,0.98213 -1.00066,0.98213c-0.53739,0 -1.00066,-0.44474 -1.00066,-0.98213zM91.35742,288.92543v7.80147c0,0.55592 -0.44474,1.00066 -0.98213,1.00066c-0.53739,0 -0.98213,-0.44474 -0.98213,-1.00066v-7.80147c0,-0.55592 0.44474,-1.00066 0.98213,-1.00066c0.53739,0 0.98213,0.44474 0.98213,1.00066z"/><path d="M102.43885,292.16833v4.55858c0,0.53739 -0.42621,0.98213 -0.9636,0.98213c-0.53739,0 -0.98213,-0.44474 -0.98213,-0.98213v-4.55858c0,-1.85309 -1.05626,-2.59431 -2.26076,-2.59431c-1.77896,0 -2.55726,1.59365 -2.66844,2.39048v4.76242c0,0.53739 -0.44474,0.98213 -0.98213,0.98213c-0.53739,0 -0.98213,-0.44474 -0.98213,-0.98213v-7.80147c0,-0.55592 0.44474,-1.00066 0.98213,-1.00066c0.53739,0 0.98213,0.44474 0.98213,1.00066v1.22303c0.09266,-0.64858 1.2045,-2.26076 3.31701,-2.26076c1.79749,0 3.55792,1.13038 3.55792,4.28062z"/><path d="M104.66255,293.46548v-4.55858c0,-0.53739 0.42621,-0.98213 0.9636,-0.98213c0.53739,0 0.98213,0.44474 0.98213,0.98213v4.55858c0,1.85309 1.05626,2.59431 2.26076,2.59431c1.77896,0 2.55726,-1.59365 2.66844,-2.39048v-4.76242c0,-0.53739 0.44474,-0.98213 0.98213,-0.98213c0.53739,0 0.98213,0.44474 0.98213,0.98213v7.80147c0,0.55592 -0.44474,1.00066 -0.98213,1.00066c-0.53739,0 -0.98213,-0.44474 -0.98213,-1.00066v-1.22303c-0.09266,0.64858 -1.2045,2.26076 -3.31701,2.26076c-1.79749,0 -3.55792,-1.13038 -3.55792,-4.28062z"/><path d="M124.80555,292.48335c0,0.75977 -0.42621,1.05626 -1.22303,1.05626l-6.20783,-0.01853c0.20383,1.72337 1.55658,2.57579 3.03905,2.57579c0.75977,0 1.27862,-0.1853 1.85309,-0.53739c0.31502,-0.16678 0.51886,-0.29649 0.7783,-0.29649c0.42621,0 0.68564,0.29649 0.68564,0.70417c0,0.2409 -0.09266,0.50034 -0.50034,0.83389c-0.70417,0.57445 -1.72337,0.90801 -2.89081,0.90801c-2.40901,0 -4.98479,-1.53806 -4.98479,-4.89214c0,-3.33555 2.68697,-4.94773 4.79948,-4.94773c2.11252,0 4.65123,1.66777 4.65123,4.61418zM117.37469,292.11272h5.52219c-0.16678,-1.76043 -1.501,-2.53873 -2.74256,-2.53873c-1.22303,0 -2.61284,0.7783 -2.77962,2.53873z"/><path d="M141.3721,292.79837c0,3.35408 -2.4646,4.94773 -4.52152,4.94773c-1.76043,0 -2.90934,-1.16745 -3.03905,-2.00133v1.00066c0,0.05559 0,0.12972 -0.01853,0.1853v3.33555c0,0.53739 -0.44474,0.98213 -0.98213,0.98213c-0.53739,0 -0.98213,-0.44474 -0.98213,-0.98213v-11.35939c0,-0.53739 0.46327,-0.98213 1.00066,-0.98213c0.53739,0 0.98213,0.44474 0.98213,0.98213v0.74123c0.48181,-1.07479 1.66777,-1.77896 3.03905,-1.77896c2.03839,0 4.52152,1.63071 4.52152,4.9292zM139.40784,292.79837c0,-2.18664 -1.51953,-3.2429 -2.87228,-3.2429c-1.26009,0 -2.81669,0.92654 -2.81669,3.2429c0,2.29782 1.55658,3.26143 2.81669,3.26143c1.35275,0 2.87228,-1.05626 2.87228,-3.26143z"/><path d="M144.20732,297.70904c-0.53739,0 -0.98213,-0.44474 -0.98213,-0.98213v-11.35939c0,-0.53739 0.44474,-0.98213 0.98213,-0.98213c0.53739,0 0.98213,0.44474 0.98213,0.98213v11.35939c0,0.53739 -0.44474,0.98213 -0.98213,0.98213z"/><path d="M154.6031,289.64813v-0.74123c0,-0.53739 0.44474,-0.98213 0.98213,-0.98213c0.53739,0 1.00066,0.44474 1.00066,0.98213v7.83854c0,0.53739 -0.46327,0.98213 -1.00066,0.98213c-0.53739,0 -0.98213,-0.44474 -0.98213,-0.98213v-1.00066c-0.12972,0.83389 -1.27862,2.00133 -3.03905,2.00133c-2.05692,0 -4.52152,-1.59365 -4.52152,-4.94773c0,-3.29848 2.48313,-4.9292 4.52152,-4.9292c1.37128,0 2.55726,0.70417 3.03905,1.77896zM154.69575,292.79837c0,-2.31635 -1.55658,-3.2429 -2.81669,-3.2429c-1.35275,0 -2.87228,1.05626 -2.87228,3.2429c0,2.20517 1.51953,3.26143 2.87228,3.26143c1.26009,0 2.81669,-0.9636 2.81669,-3.26143z"/><path d="M167.31526,288.81425c0,0.1853 -0.05559,0.31502 -0.11119,0.44474l-4.94773,11.3038c-0.20383,0.46327 -0.55592,0.66711 -0.92654,0.66711c-0.51886,0 -0.87094,-0.40768 -0.87094,-0.88948c0,-0.1853 0.05559,-0.31502 0.11119,-0.44474l1.14891,-2.6499l-3.53939,-7.98679c-0.05559,-0.12972 -0.11119,-0.25943 -0.11119,-0.44474c0,-0.48181 0.38915,-0.88948 0.90801,-0.88948c0.37062,0 0.7227,0.20383 0.92654,0.66711l2.77962,6.46726l2.79816,-6.46726c0.20383,-0.46327 0.55592,-0.66711 0.92654,-0.66711c0.51886,0 0.90801,0.40768 0.90801,0.88948z"/><path d="M168.98303,285.1822c0,-0.53739 0.46327,-0.98213 1.00066,-0.98213c0.53739,0 1.00066,0.44474 1.00066,0.98213c0,0.53739 -0.46327,0.98213 -1.00066,0.98213c-0.53739,0 -1.00066,-0.44474 -1.00066,-0.98213zM170.96583,288.92543v7.80147c0,0.55592 -0.44474,1.00066 -0.98213,1.00066c-0.53739,0 -0.98213,-0.44474 -0.98213,-1.00066v-7.80147c0,-0.55592 0.44474,-1.00066 0.98213,-1.00066c0.53739,0 0.98213,0.44474 0.98213,1.00066z"/><path d="M182.04726,292.16833v4.55858c0,0.53739 -0.42621,0.98213 -0.9636,0.98213c-0.53739,0 -0.98213,-0.44474 -0.98213,-0.98213v-4.55858c0,-1.85309 -1.05626,-2.59431 -2.26076,-2.59431c-1.77896,0 -2.55726,1.59365 -2.66844,2.39048v4.76242c0,0.53739 -0.44474,0.98213 -0.98213,0.98213c-0.53739,0 -0.98213,-0.44474 -0.98213,-0.98213v-7.80147c0,-0.55592 0.44474,-1.00066 0.98213,-1.00066c0.53739,0 0.98213,0.44474 0.98213,1.00066v1.22303c0.09266,-0.64858 1.2045,-2.26076 3.31701,-2.26076c1.79749,0 3.55792,1.13038 3.55792,4.28062z"/><path d="M193.44372,296.74544c0,0.05559 0,0.12972 -0.01853,0.1853v0.50034c0,3.03905 -2.74256,3.98412 -4.70683,3.98412c-1.18598,0 -2.11252,-0.33355 -2.53873,-0.55592c-0.38915,-0.16678 -0.61151,-0.46327 -0.61151,-0.83389c0,-0.44474 0.35209,-0.7783 0.7783,-0.7783c0.11119,0 0.25943,0.01853 0.46327,0.09266c0.40768,0.16678 1.09332,0.38915 1.94573,0.38915c1.61218,0 2.7055,-0.83389 2.7055,-2.29782v-1.6863c-0.12972,0.83389 -1.27862,2.00133 -3.03905,2.00133c-2.05692,0 -4.52152,-1.59365 -4.52152,-4.94773c0,-3.29848 2.48313,-4.9292 4.52152,-4.9292c1.37128,0 2.55726,0.70417 3.03905,1.77896v-0.74123c0,-0.53739 0.44474,-0.98213 0.98213,-0.98213c0.53739,0 1.00066,0.44474 1.00066,0.98213zM191.55356,292.79837c0,-2.31635 -1.55658,-3.2429 -2.81669,-3.2429c-1.35275,0 -2.87228,1.05626 -2.87228,3.2429c0,2.20517 1.51953,3.26143 2.87228,3.26143c1.26009,0 2.81669,-0.9636 2.81669,-3.26143z"/><path d="M203.54302,288.20272c0,2.76109 -2.96493,2.83522 -2.96493,4.91067c0,0.51886 -0.37062,1.01919 -1.01919,1.01919c-0.64858,0 -1.01919,-0.50034 -1.01919,-1.01919c0,-2.57579 3.05758,-3.00199 3.05758,-4.96626c0,-0.94507 -0.7783,-1.94573 -2.16811,-1.94573c-1.48247,0 -2.24223,1.09332 -2.2237,2.40901c0,0.51886 -0.31502,1.03773 -1.00066,1.03773c-0.68564,0 -1.00066,-0.51886 -1.00066,-1.03773c0,-2.61284 2.07545,-4.09531 4.22503,-4.09531c2.18664,0 4.11384,1.42687 4.11384,3.68763zM198.37292,296.50453c0,-0.63005 0.51886,-1.14891 1.16745,-1.14891c0.61151,0 1.13038,0.51886 1.13038,1.14891c0,0.64858 -0.51886,1.16745 -1.13038,1.16745c-0.64858,0 -1.16745,-0.51886 -1.16745,-1.16745z"/></g><g fill-opacity="0.93614" fill="#000000" fill-rule="evenodd" stroke="none" stroke-width="1" stroke-linecap="round" stroke-linejoin="round"><path d="M96.72439,310.28672c0,0.20259 -0.06078,0.3444 -0.12155,0.48621l-5.40912,12.35802c-0.22284,0.50647 -0.60777,0.72932 -1.01294,0.72932c-0.56726,0 -0.95216,-0.4457 -0.95216,-0.97242c0,-0.20258 0.06077,-0.3444 0.12155,-0.48621l1.25605,-2.89702l-3.86944,-8.73169c-0.06077,-0.14181 -0.12155,-0.28362 -0.12155,-0.48621c0,-0.52673 0.42544,-0.97242 0.99268,-0.97242c0.40518,0 0.7901,0.22285 1.01295,0.72933l3.03883,7.07046l3.05909,-7.07046c0.22284,-0.50647 0.60777,-0.72933 1.01294,-0.72933c0.56726,0 0.99268,0.4457 0.99268,0.97242z"/><path d="M107.86682,314.29797c0,0.83061 -0.46596,1.15475 -1.33714,1.15475l-6.78673,-0.02025c0.22284,1.88419 1.70175,2.8161 3.32245,2.8161c0.83061,0 1.39786,-0.20258 2.02589,-0.58751c0.3444,-0.18233 0.56725,-0.32414 0.85087,-0.32414c0.46596,0 0.74958,0.32414 0.74958,0.76984c0,0.26336 -0.10129,0.54699 -0.54699,0.91165c-0.76984,0.62802 -1.88407,0.99268 -3.16038,0.99268c-2.63365,0 -5.44964,-1.68149 -5.44964,-5.34846c0,-3.6466 2.93754,-5.40911 5.24705,-5.40911c2.30951,0 5.08503,1.8233 5.08503,5.04446zM99.74295,313.8928h6.03714c-0.18233,-1.92459 -1.64097,-2.77547 -2.99831,-2.77547c-1.33709,0 -2.8565,0.85087 -3.03884,2.77547z"/><path d="M116.55787,310.83371c0.12155,0.18233 0.28362,0.40518 0.28362,0.74958c0,0.50647 -0.38492,0.81035 -0.87114,0.81035c-0.32414,0 -0.62802,-0.14181 -0.9319,-0.54699c-0.40518,-0.50647 -0.97242,-0.85087 -1.80304,-0.85087c-1.01294,0 -1.62071,0.50647 -1.62071,1.2358c0,0.50647 0.28362,0.99268 1.35735,1.29657l1.25605,0.3444c1.722,0.46596 3.01857,1.2358 3.01857,2.93754c0,2.12729 -2.00563,3.20101 -4.11255,3.20101c-1.76251,0 -2.99831,-0.76984 -3.52505,-1.60045c-0.10129,-0.14181 -0.42544,-0.54699 -0.42544,-1.0332c0,-0.42555 0.26337,-0.87124 0.83061,-0.87124c0.46596,0 0.70906,0.28362 0.91165,0.58762c0.50647,0.85087 1.33709,1.13449 2.20821,1.13449c1.17502,0 1.98537,-0.48621 1.98537,-1.29668c0,-0.60777 -0.42544,-1.05346 -1.43838,-1.33709l-1.35735,-0.36466c-1.96511,-0.54699 -2.81598,-1.60044 -2.81598,-2.97805c0,-1.90433 1.72199,-2.99831 3.68711,-2.99831c1.45864,0 2.71469,0.5875 3.36297,1.58018z"/></g><g fill-opacity="0.93614" fill="#000000" fill-rule="evenodd" stroke="none" stroke-width="1" stroke-linecap="round" stroke-linejoin="round"><path d="M149.38137,314.48036v5.25323c0,0.61927 -0.49114,1.13177 -1.11042,1.13177c-0.61927,0 -1.13177,-0.51249 -1.13177,-1.13177v-5.25323c0,-2.1354 -1.21718,-2.98957 -2.60519,-2.98957c-2.04999,0 -2.94687,1.83645 -3.07499,2.75468v5.48812c0,0.61927 -0.51249,1.13177 -1.13177,1.13177c-0.61927,0 -1.13177,-0.51249 -1.13177,-1.13177v-8.99019c0,-0.64063 0.51249,-1.15313 1.13177,-1.15313c0.61927,0 1.13177,0.5125 1.13177,1.15313v1.40937c0.10678,-0.74739 1.38802,-2.60519 3.82239,-2.60519c2.07135,0 4.09999,1.30259 4.09999,4.9328z"/><path d="M162.77039,315.22774c0,3.8225 -3.18176,5.68031 -5.63748,5.68031c-2.45572,0 -5.61613,-1.85781 -5.61613,-5.68031c0,-3.80104 3.16041,-5.70154 5.61613,-5.70154c2.45572,0 5.63748,1.90051 5.63748,5.70154zM153.75896,315.22774c0,2.41302 1.72968,3.71574 3.37394,3.71574c1.66563,0 3.39531,-1.30272 3.39531,-3.71574c0,-2.43437 -1.72968,-3.73697 -3.3953,-3.73697c-1.64427,0 -3.37394,1.30259 -3.37394,3.73697z"/></g></g></g></svg>