<svg version="1.1" xmlns="http://www.w3.org/2000/svg" xmlns:xlink="http://www.w3.org/1999/xlink" width="67.27495" height="67.57437"><g transform="translate(-209.50829,-140.37562)"><g data-paper-data="{&quot;isPaintingLayer&quot;:true}" stroke="none" stroke-miterlimit="10" stroke-dasharray="" stroke-dashoffset="0" style="mix-blend-mode: normal"><path d="M209.50829,207.94999v-67.57437h67.27495v67.57437z" data-paper-data="{&quot;origPos&quot;:null}" fill="none" fill-rule="nonzero" stroke-width="0" stroke-linecap="butt" stroke-linejoin="miter"/><path d="M228.01696,176.36068h9.54172c0.93355,0 1.69014,0.71993 1.69014,1.60772v0c0,0.88781 -0.75658,1.60772 -1.69014,1.60772h-9.54172c-0.93355,0 -1.69035,-0.71993 -1.69035,-1.60772v0c0,-0.88781 0.7568,-1.60772 1.69035,-1.60772z" data-paper-data="{&quot;origPos&quot;:null}" fill="#ffffff" fill-rule="evenodd" stroke-width="1" stroke-linecap="round" stroke-linejoin="round"/><path d="M234.47816,173.43085v9.07512c0,0.88781 -0.7568,1.60732 -1.69031,1.60732v0c-0.93355,0 -1.69035,-0.71951 -1.69035,-1.60732v-9.07512c0,-0.88781 0.7568,-1.60772 1.69035,-1.60772v0c0.93351,0 1.69031,0.71993 1.69031,1.60772z" data-paper-data="{&quot;origPos&quot;:null}" fill="#ffffff" fill-rule="evenodd" stroke-width="1" stroke-linecap="round" stroke-linejoin="round"/><path d="M246.76717,167.39337v0c0.9762,0 1.76765,0.82451 1.76765,1.62692c0,0 0,4.14831 0,6.91477c0,3.02378 0,7.40012 0,7.40012c0,0.8024 -0.79146,1.80089 -1.76765,1.80089v0c-0.9762,0 -1.76765,-0.99848 -1.76765,-1.80089v-14.31491c0,-0.8024 0.79146,-1.62692 1.76765,-1.62692z" data-paper-data="{&quot;origPos&quot;:null}" fill="#ffffff" fill-rule="evenodd" stroke-width="1" stroke-linecap="round" stroke-linejoin="round"/><path d="M240.82799,174.52056c-0.66256,-0.70969 -0.58803,-1.84467 0.00727,-2.38927c0,0 2.8005,-2.56199 4.84016,-4.42795c0.25065,0.34173 0.52429,0.67252 0.821,0.99033c0.52198,0.55912 1.09001,1.05094 1.69299,1.47501l-4.9547,4.53275c-0.59529,0.5446 -1.74418,0.52882 -2.40673,-0.18086z" data-paper-data="{&quot;origPos&quot;:null,&quot;origRot&quot;:0}" fill="#ffffff" fill-rule="evenodd" stroke-width="1" stroke-linecap="round" stroke-linejoin="round"/></g></g></svg>