<svg version="1.1" xmlns="http://www.w3.org/2000/svg" xmlns:xlink="http://www.w3.org/1999/xlink" width="766.15018" height="685.70726" viewBox="0,0,766.15018,685.70726"><defs><linearGradient x1="290.94161" y1="35.35317" x2="290.94161" y2="64.42032" gradientUnits="userSpaceOnUse" id="color-1"><stop offset="0" stop-color="#ffe9d8"/><stop offset="1" stop-color="#f7cbd0"/></linearGradient><linearGradient x1="327.68021" y1="35.27845" x2="327.68021" y2="64.3456" gradientUnits="userSpaceOnUse" id="color-2"><stop offset="0" stop-color="#ffe9d8"/><stop offset="1" stop-color="#f7cbd0"/></linearGradient><linearGradient x1="401.86933" y1="39.7277" x2="401.86933" y2="70.96972" gradientUnits="userSpaceOnUse" id="color-3"><stop offset="0" stop-color="#fde3d6"/><stop offset="1" stop-color="#f7cbd0"/></linearGradient><linearGradient x1="270.23913" y1="47.17024" x2="270.23913" y2="77.33058" gradientUnits="userSpaceOnUse" id="color-4"><stop offset="0" stop-color="#fde0d6"/><stop offset="1" stop-color="#f7cbd0"/></linearGradient><linearGradient x1="347.12904" y1="46.46997" x2="347.12904" y2="76.63032" gradientUnits="userSpaceOnUse" id="color-5"><stop offset="0" stop-color="#fbdcd4"/><stop offset="1" stop-color="#f7cbd0"/></linearGradient><linearGradient x1="309.39707" y1="72.64995" x2="309.39707" y2="101.71711" gradientUnits="userSpaceOnUse" id="color-6"><stop offset="0" stop-color="#ffe9d8"/><stop offset="1" stop-color="#f7cbd0"/></linearGradient><linearGradient x1="346.1357" y1="72.57522" x2="346.1357" y2="101.64236" gradientUnits="userSpaceOnUse" id="color-7"><stop offset="0" stop-color="#ffe9d8"/><stop offset="1" stop-color="#f7cbd0"/></linearGradient><linearGradient x1="381.98725" y1="72.50047" x2="381.98725" y2="101.56766" gradientUnits="userSpaceOnUse" id="color-8"><stop offset="0" stop-color="#ffe9d8"/><stop offset="1" stop-color="#f7cbd0"/></linearGradient><linearGradient x1="420.32481" y1="77.0245" x2="420.32481" y2="108.2665" gradientUnits="userSpaceOnUse" id="color-9"><stop offset="0" stop-color="#fde3d6"/><stop offset="1" stop-color="#f7cbd0"/></linearGradient><linearGradient x1="288.69462" y1="84.46704" x2="288.69462" y2="114.62737" gradientUnits="userSpaceOnUse" id="color-10"><stop offset="0" stop-color="#fde0d6"/><stop offset="1" stop-color="#f7cbd0"/></linearGradient><linearGradient x1="400.57549" y1="83.76675" x2="400.57549" y2="113.9271" gradientUnits="userSpaceOnUse" id="color-11"><stop offset="0" stop-color="#fbdcd4"/><stop offset="1" stop-color="#f7cbd0"/></linearGradient><linearGradient x1="248.87681" y1="109.69995" x2="248.87681" y2="140.10996" gradientUnits="userSpaceOnUse" id="color-12"><stop offset="0" stop-color="#ffe9d8"/><stop offset="1" stop-color="#f7cbd0"/></linearGradient><linearGradient x1="286.38464" y1="109.62176" x2="286.38464" y2="140.03177" gradientUnits="userSpaceOnUse" id="color-13"><stop offset="0" stop-color="#ffe9d8"/><stop offset="1" stop-color="#f7cbd0"/></linearGradient><linearGradient x1="324.82048" y1="109.54359" x2="324.82048" y2="139.9536" gradientUnits="userSpaceOnUse" id="color-14"><stop offset="0" stop-color="#ffe9d8"/><stop offset="1" stop-color="#f7cbd0"/></linearGradient><linearGradient x1="363.2564" y1="109.4654" x2="363.2564" y2="139.87541" gradientUnits="userSpaceOnUse" id="color-15"><stop offset="0" stop-color="#ffe9d8"/><stop offset="1" stop-color="#f7cbd0"/></linearGradient><linearGradient x1="400.76419" y1="109.3872" x2="400.76419" y2="139.79723" gradientUnits="userSpaceOnUse" id="color-16"><stop offset="0" stop-color="#ffe9d8"/><stop offset="1" stop-color="#f7cbd0"/></linearGradient><linearGradient x1="326.4933" y1="114.35476" x2="326.4933" y2="147.0401" gradientUnits="userSpaceOnUse" id="color-17"><stop offset="0" stop-color="#fde3d6"/><stop offset="1" stop-color="#f7cbd0"/></linearGradient><linearGradient x1="223.33585" y1="121.08927" x2="223.33585" y2="152.64296" gradientUnits="userSpaceOnUse" id="color-18"><stop offset="0" stop-color="#fde0d6"/><stop offset="1" stop-color="#f7cbd0"/></linearGradient><linearGradient x1="424.87677" y1="120.22073" x2="424.87677" y2="151.77443" gradientUnits="userSpaceOnUse" id="color-19"><stop offset="0" stop-color="#fbdcd4"/><stop offset="1" stop-color="#f7cbd0"/></linearGradient><linearGradient x1="267.33669" y1="147.35917" x2="267.33669" y2="177.76918" gradientUnits="userSpaceOnUse" id="color-20"><stop offset="0" stop-color="#ffe9d8"/><stop offset="1" stop-color="#f7cbd0"/></linearGradient><linearGradient x1="305.77254" y1="147.28103" x2="305.77254" y2="177.69101" gradientUnits="userSpaceOnUse" id="color-21"><stop offset="0" stop-color="#ffe9d8"/><stop offset="1" stop-color="#f7cbd0"/></linearGradient><linearGradient x1="344.20843" y1="147.20283" x2="344.20843" y2="177.61284" gradientUnits="userSpaceOnUse" id="color-22"><stop offset="0" stop-color="#ffe9d8"/><stop offset="1" stop-color="#f7cbd0"/></linearGradient><linearGradient x1="381.71623" y1="147.12464" x2="381.71623" y2="177.53466" gradientUnits="userSpaceOnUse" id="color-23"><stop offset="0" stop-color="#ffe9d8"/><stop offset="1" stop-color="#f7cbd0"/></linearGradient><linearGradient x1="307.44536" y1="152.0922" x2="307.44536" y2="184.77754" gradientUnits="userSpaceOnUse" id="color-24"><stop offset="0" stop-color="#fde3d6"/><stop offset="1" stop-color="#f7cbd0"/></linearGradient><linearGradient x1="244.78794" y1="158.8267" x2="244.78794" y2="190.3804" gradientUnits="userSpaceOnUse" id="color-25"><stop offset="0" stop-color="#fde0d6"/><stop offset="1" stop-color="#f7cbd0"/></linearGradient><linearGradient x1="402.69372" y1="157.95817" x2="402.69372" y2="189.51187" gradientUnits="userSpaceOnUse" id="color-26"><stop offset="0" stop-color="#fbdcd4"/><stop offset="1" stop-color="#f7cbd0"/></linearGradient><linearGradient x1="388.20391" y1="2.07328" x2="388.20391" y2="31.14046" gradientUnits="userSpaceOnUse" id="color-27"><stop offset="0" stop-color="#ffe9d8"/><stop offset="1" stop-color="#f7cbd0"/></linearGradient><linearGradient x1="424.94252" y1="1.99858" x2="424.94252" y2="31.06573" gradientUnits="userSpaceOnUse" id="color-28"><stop offset="0" stop-color="#ffe9d8"/><stop offset="1" stop-color="#f7cbd0"/></linearGradient><linearGradient x1="499.13163" y1="5.78115" x2="499.13163" y2="37.02318" gradientUnits="userSpaceOnUse" id="color-29"><stop offset="0" stop-color="#fde3d6"/><stop offset="1" stop-color="#f7cbd0"/></linearGradient><linearGradient x1="367.50145" y1="13.2237" x2="367.50145" y2="43.38404" gradientUnits="userSpaceOnUse" id="color-30"><stop offset="0" stop-color="#fde0d6"/><stop offset="1" stop-color="#f7cbd0"/></linearGradient><linearGradient x1="444.39133" y1="12.52343" x2="444.39133" y2="42.68378" gradientUnits="userSpaceOnUse" id="color-31"><stop offset="0" stop-color="#fbdcd4"/><stop offset="1" stop-color="#f7cbd0"/></linearGradient><linearGradient x1="85.61679" y1="361.34166" x2="85.61679" y2="380.0521" gradientUnits="userSpaceOnUse" id="color-32"><stop offset="0" stop-color="#690606"/><stop offset="1" stop-color="#c50d0c"/></linearGradient><linearGradient x1="99.56546" y1="361.58344" x2="99.56546" y2="380.29388" gradientUnits="userSpaceOnUse" id="color-33"><stop offset="0" stop-color="#690606"/><stop offset="1" stop-color="#c50d0c"/></linearGradient><linearGradient x1="114.07295" y1="361.35808" x2="114.07295" y2="380.06854" gradientUnits="userSpaceOnUse" id="color-34"><stop offset="0" stop-color="#690606"/><stop offset="1" stop-color="#c50d0c"/></linearGradient><linearGradient x1="128.02163" y1="361.59988" x2="128.02163" y2="380.31032" gradientUnits="userSpaceOnUse" id="color-35"><stop offset="0" stop-color="#690606"/><stop offset="1" stop-color="#c50d0c"/></linearGradient><linearGradient x1="142.63171" y1="361.4518" x2="142.63171" y2="380.16224" gradientUnits="userSpaceOnUse" id="color-36"><stop offset="0" stop-color="#690606"/><stop offset="1" stop-color="#c50d0c"/></linearGradient><linearGradient x1="156.5843" y1="361.69358" x2="156.5843" y2="380.40402" gradientUnits="userSpaceOnUse" id="color-37"><stop offset="0" stop-color="#690606"/><stop offset="1" stop-color="#c50d0c"/></linearGradient><linearGradient x1="171.0918" y1="361.46822" x2="171.0918" y2="380.17868" gradientUnits="userSpaceOnUse" id="color-38"><stop offset="0" stop-color="#690606"/><stop offset="1" stop-color="#c50d0c"/></linearGradient><linearGradient x1="184.70908" y1="361.71002" x2="184.70908" y2="380.42046" gradientUnits="userSpaceOnUse" id="color-39"><stop offset="0" stop-color="#690606"/><stop offset="1" stop-color="#c50d0c"/></linearGradient><linearGradient x1="-28.5541" y1="361.33701" x2="-28.5541" y2="380.04745" gradientUnits="userSpaceOnUse" id="color-40"><stop offset="0" stop-color="#690606"/><stop offset="1" stop-color="#c50d0c"/></linearGradient><linearGradient x1="-14.60543" y1="361.57879" x2="-14.60543" y2="380.28923" gradientUnits="userSpaceOnUse" id="color-41"><stop offset="0" stop-color="#690606"/><stop offset="1" stop-color="#c50d0c"/></linearGradient><linearGradient x1="-0.09794" y1="361.35344" x2="-0.09794" y2="380.06389" gradientUnits="userSpaceOnUse" id="color-42"><stop offset="0" stop-color="#690606"/><stop offset="1" stop-color="#c50d0c"/></linearGradient><linearGradient x1="13.85074" y1="361.59523" x2="13.85074" y2="380.30567" gradientUnits="userSpaceOnUse" id="color-43"><stop offset="0" stop-color="#690606"/><stop offset="1" stop-color="#c50d0c"/></linearGradient><linearGradient x1="28.46082" y1="361.44715" x2="28.46082" y2="380.15759" gradientUnits="userSpaceOnUse" id="color-44"><stop offset="0" stop-color="#690606"/><stop offset="1" stop-color="#c50d0c"/></linearGradient><linearGradient x1="42.41341" y1="361.68893" x2="42.41341" y2="380.39937" gradientUnits="userSpaceOnUse" id="color-45"><stop offset="0" stop-color="#690606"/><stop offset="1" stop-color="#c50d0c"/></linearGradient><linearGradient x1="56.9209" y1="361.46358" x2="56.9209" y2="380.17403" gradientUnits="userSpaceOnUse" id="color-46"><stop offset="0" stop-color="#690606"/><stop offset="1" stop-color="#c50d0c"/></linearGradient><linearGradient x1="70.53819" y1="361.70537" x2="70.53819" y2="380.41581" gradientUnits="userSpaceOnUse" id="color-47"><stop offset="0" stop-color="#690606"/><stop offset="1" stop-color="#c50d0c"/></linearGradient></defs><g transform="translate(263.06727,85.63964)"><g data-paper-data="{&quot;isPaintingLayer&quot;:true}" fill-rule="nonzero" stroke-linejoin="miter" stroke-miterlimit="10" stroke-dasharray="" stroke-dashoffset="0" style="mix-blend-mode: normal"><path d="M-55.58044,600.06762v-191.57748h401.50419v191.57748z" fill="#03a63b" stroke="none" stroke-width="0" stroke-linecap="butt"/><text transform="translate(233.90007,138.4176) scale(0.35963,0.35963)" font-size="40" xml:space="preserve" data-paper-data="{&quot;origPos&quot;:null}" fill="#05ff5d" fill-rule="nonzero" stroke="none" stroke-width="1" stroke-linecap="butt" stroke-linejoin="miter" stroke-miterlimit="10" stroke-dasharray="" stroke-dashoffset="0" font-family="Sans Serif" font-weight="normal" text-anchor="start" style="mix-blend-mode: normal"><tspan x="0" dy="0">copyright @StratfordJames</tspan></text><g data-paper-data="{&quot;origPos&quot;:null}"><g data-paper-data="{&quot;origPos&quot;:null}"><g data-paper-data="{&quot;origPos&quot;:null}" stroke="none" stroke-linecap="butt"><path d="M314.89248,57.52989c0,12.24786 -27.05558,4.43534 -27.05558,4.43534c0,0 -20.84611,7.81252 -20.84611,-4.43534c0,-12.24786 10.72316,-22.1767 23.95085,-22.1767c13.22768,0 23.95085,9.92884 23.95085,22.1767z" data-paper-data="{&quot;origPos&quot;:null}" fill="url(#color-1)" stroke-width="NaN"/><path d="M351.63107,57.45515c0,12.24786 -27.05558,4.43534 -27.05558,4.43534c0,0 -20.84611,7.81253 -20.84611,-4.43534c0,-12.24786 10.72316,-22.17671 23.95085,-22.17671c13.22768,0 23.95085,9.92885 23.95085,22.17671z" data-paper-data="{&quot;origPos&quot;:null}" fill="url(#color-2)" stroke-width="NaN"/><path d="M282.51743,70.96972v-30.74431c0,0 43.03769,1.45557 61.02014,1.77681c5.99415,0.10708 -0.40613,31.3027 -0.40613,31.3027z" data-paper-data="{&quot;origPos&quot;:null}" fill="url(#color-3)" stroke-width="0"/><path d="M285.76284,62.25041c0,8.32855 -8.43367,15.94632 -17.00717,15.94632c-8.5735,0 -14.04022,-7.61778 -14.04022,-15.94632c0,-8.32855 6.9502,-15.08016 15.5237,-15.08016c8.5735,0 15.5237,6.75161 15.5237,15.08016z" data-paper-data="{&quot;origPos&quot;:null}" fill="url(#color-4)" stroke-width="0"/><path d="M362.65272,61.55014c0,8.32855 -4.7083,16.63162 -13.2818,16.63162c-8.5735,0 -17.7656,-8.30307 -17.7656,-16.63162c0,-5.66446 1.89289,-9.10116 6.55884,-12.31285c3.06243,-2.10796 5.24708,-2.76731 8.96486,-2.76731c8.5735,0 15.5237,6.75162 15.5237,15.08016z" data-paper-data="{&quot;origPos&quot;:null}" fill="url(#color-5)" stroke-width="0"/></g><path d="M267.27821,75.08182h86.03394" data-paper-data="{&quot;origPos&quot;:null}" fill="#ffc3d5" stroke="#ffc3d5" stroke-width="9" stroke-linecap="round"/><path d="M328.43535,70.78062c4.49921,2.53063 -11.64155,3.31201 -19.47867,3.31201c-7.83713,0 -14.74843,5.59214 -14.74843,-0.28571c0,-0.3259 -6.74031,-3.09679 -6.44486,-3.23435c2.99165,-1.39289 5.67713,-1.54472 7.80643,-2.82298c4.68556,-2.81281 7.96956,-2.71514 12.8288,-2.71514c0,0 5.05677,-0.65893 9.67257,2.34864c3.43195,1.91012 5.19549,1.76923 10.36417,3.39753z" data-paper-data="{&quot;origPos&quot;:null}" fill="#ffc3d5" stroke="none" stroke-width="0" stroke-linecap="butt"/></g><g data-paper-data="{&quot;origPos&quot;:null}"><g data-paper-data="{&quot;origPos&quot;:null}" stroke="none" stroke-linecap="butt"><path d="M333.34796,94.82667c0,12.24786 -27.05558,4.43534 -27.05558,4.43534c0,0 -20.84611,7.81252 -20.84611,-4.43534c0,-12.24786 10.72316,-22.1767 23.95085,-22.1767c13.22768,0 23.95085,9.92884 23.95085,22.1767z" data-paper-data="{&quot;origPos&quot;:null}" fill="url(#color-6)" stroke-width="NaN"/><path d="M370.08656,94.75194c0,12.24786 -27.05558,4.43534 -27.05558,4.43534c0,0 -20.84611,7.81253 -20.84611,-4.43534c0,-12.24786 10.72316,-22.17671 23.95085,-22.17671c13.22768,0 23.95085,9.92885 23.95085,22.17671z" data-paper-data="{&quot;origPos&quot;:null}" fill="url(#color-7)" stroke-width="NaN"/><path d="M405.9381,94.67721c0,12.24786 -27.05558,4.43534 -27.05558,4.43534c0,0 -20.84611,7.81253 -20.84611,-4.43534c0,-12.24786 10.72316,-22.17671 23.95085,-22.17671c13.22768,0 23.95085,9.92885 23.95085,22.17671z" data-paper-data="{&quot;origPos&quot;:null}" fill="url(#color-8)" stroke-width="NaN"/><path d="M300.9729,108.2665v-30.74431l93.29811,1.66667l14.22687,29.87477z" data-paper-data="{&quot;origPos&quot;:null}" fill="url(#color-9)" stroke-width="0"/><path d="M304.21831,99.54719c0,8.32855 -8.43367,15.94632 -17.00717,15.94632c-8.5735,0 -14.04022,-7.61778 -14.04022,-15.94632c0,-8.32855 6.9502,-15.08016 15.5237,-15.08016c8.5735,0 15.5237,6.75161 15.5237,15.08016z" data-paper-data="{&quot;origPos&quot;:null}" fill="url(#color-10)" stroke-width="0"/><path d="M416.09917,98.84695c0,8.32855 -4.7083,16.63162 -13.2818,16.63162c-8.5735,0 -17.7656,-8.30307 -17.7656,-16.63162c0,-5.66446 1.89289,-9.10116 6.55884,-12.31285c3.06243,-2.10796 5.24708,-2.76731 8.96486,-2.76731c8.5735,0 15.5237,6.75162 15.5237,15.08016z" data-paper-data="{&quot;origPos&quot;:null}" fill="url(#color-11)" stroke-width="0"/></g><path d="M285.73369,112.37858h121.79394" data-paper-data="{&quot;origPos&quot;:null}" fill="#ffc3d5" stroke="#ffc3d5" stroke-width="9" stroke-linecap="round"/><path d="M346.89082,108.07741c4.49921,2.53063 -11.64155,3.31201 -19.47867,3.31201c-7.83713,0 -14.74843,5.59214 -14.74843,-0.28571c0,-0.3259 -6.74031,-3.09679 -6.44486,-3.23435c2.99165,-1.39289 5.67713,-1.54472 7.80643,-2.82298c4.68556,-2.81281 7.96956,-2.71514 12.8288,-2.71514c0,0 5.05677,-0.65893 9.67257,2.34864c3.43195,1.91012 5.19549,1.76923 10.36417,3.39753z" data-paper-data="{&quot;origPos&quot;:null}" fill="#ffc3d5" stroke="none" stroke-width="0" stroke-linecap="butt"/><path d="M385.04684,107.86595c4.49921,2.53063 -11.64155,3.31201 -19.47868,3.31201c-7.83713,0 -14.74843,5.59214 -14.74843,-0.28571c0,-0.3259 -6.74031,-3.09679 -6.44486,-3.23435c2.99165,-1.39289 5.67713,-1.54472 7.80644,-2.82298c4.68556,-2.81281 7.96956,-2.71514 12.8288,-2.71514c0,0 5.05677,-0.65893 9.67257,2.34864c3.43195,1.91012 5.19549,1.76923 10.36417,3.39753z" data-paper-data="{&quot;origPos&quot;:null}" fill="#ffc3d5" stroke="none" stroke-width="0" stroke-linecap="butt"/></g><g data-paper-data="{&quot;origPos&quot;:null}"><g><g data-paper-data="{&quot;origPos&quot;:null}" stroke="none" stroke-linecap="butt"><path d="M273.93415,132.90119c0,12.81369 -28.3055,4.64025 -28.3055,4.64025c0,0 -21.80916,8.17345 -21.80916,-4.64025c0,-12.81369 11.21855,-23.20124 25.05733,-23.20124c13.83878,0 25.05733,10.38755 25.05733,23.20124z" data-paper-data="{&quot;origPos&quot;:null}" fill="url(#color-12)" stroke-width="NaN"/><path d="M311.44194,132.82299c0,12.81369 -28.3055,4.64025 -28.3055,4.64025c0,0 -21.80916,8.17345 -21.80916,-4.64025c0,-12.81369 11.21855,-23.20124 25.05733,-23.20124c13.83878,0 25.05733,10.38755 25.05733,23.20124z" data-paper-data="{&quot;origPos&quot;:null}" fill="url(#color-13)" stroke-width="NaN"/><path d="M349.87784,132.74482c0,12.81369 -28.3055,4.64025 -28.3055,4.64025c0,0 -21.80916,8.17345 -21.80916,-4.64025c0,-12.81369 11.21854,-23.20124 25.05733,-23.20124c13.83878,0 25.05733,10.38755 25.05733,23.20124z" data-paper-data="{&quot;origPos&quot;:null}" fill="url(#color-14)" stroke-width="NaN"/><path d="M388.31372,132.66663c0,12.81369 -28.3055,4.64024 -28.3055,4.64024c0,0 -21.80916,8.17345 -21.80916,-4.64024c0,-12.81369 11.21854,-23.20124 25.05733,-23.20124c13.83878,0 25.05733,10.38755 25.05733,23.20124z" data-paper-data="{&quot;origPos&quot;:null}" fill="url(#color-15)" stroke-width="NaN"/><path d="M425.8215,132.58846c0,12.81369 -28.3055,4.64024 -28.3055,4.64024c0,0 -21.80916,8.17345 -21.80916,-4.64024c0,-12.81369 11.21855,-23.20124 25.05733,-23.20124c13.83878,0 25.05733,10.38755 25.05733,23.20124z" data-paper-data="{&quot;origPos&quot;:null}" fill="url(#color-16)" stroke-width="NaN"/><path d="M225.60375,147.74527l7.75699,-31.45946l183.10537,0.56471l8.55863,30.84793z" data-paper-data="{&quot;origPos&quot;:null}" fill="url(#color-17)" stroke-width="0"/><path d="M239.57676,136.86611c0,8.71332 -10.03162,16.03718 -19.00121,16.03718c-8.96958,0 -13.48052,-7.32387 -13.48052,-16.03718c0,-8.71332 7.27128,-15.77684 16.24087,-15.77684c8.96958,0 16.24087,7.06352 16.24087,15.77684z" data-paper-data="{&quot;origPos&quot;:null}" fill="url(#color-18)" stroke-width="0"/><path d="M441.1176,135.99759c0,8.71332 -5.44891,17.83887 -14.4185,17.83887c-8.96958,0 -18.06324,-9.12556 -18.06324,-17.83887c0,-8.71332 7.27127,-15.77684 16.24087,-15.77684c8.96958,0 16.24087,7.06353 16.24087,15.77684z" data-paper-data="{&quot;origPos&quot;:null}" fill="url(#color-19)" stroke-width="0"/></g><path d="M428.02514,150.46292c-1.15911,0 -30.2911,0 -51.59911,0c-62.77023,0 -158.2303,0 -158.2303,0" data-paper-data="{&quot;origPos&quot;:null}" fill="#ffc3d5" stroke="#ffc3d5" stroke-width="9" stroke-linecap="round"/><path d="M289.58558,146.62104c4.70706,2.64754 -12.17937,3.46502 -20.37856,3.46502c-8.19919,0 -15.42978,5.85048 -15.42978,-0.29891c0,-0.34096 -7.0517,-3.23986 -6.7426,-3.38377c3.12986,-1.45724 5.9394,-1.61608 8.16708,-2.95339c4.90203,-2.94276 8.33774,-2.84057 13.42146,-2.84057c0,0 5.29038,-0.68937 10.11942,2.45714c3.5905,1.99836 5.43552,1.85096 10.84298,3.55449z" data-paper-data="{&quot;origPos&quot;:null}" fill="#ffc3d5" stroke="none" stroke-width="0" stroke-linecap="butt"/><path d="M327.15723,146.27794c4.70706,2.64754 -12.17937,3.46502 -20.37856,3.46502c-8.19919,0 -15.42978,5.85048 -15.42978,-0.29891c0,-0.34096 -7.05168,-3.23986 -6.74259,-3.38377c3.12986,-1.45724 5.9394,-1.61608 8.16707,-2.95339c4.90203,-2.94276 8.33774,-2.84057 13.42146,-2.84057c0,0 5.29038,-0.68937 10.11942,2.45714c3.5905,1.99836 5.43552,1.85096 10.84298,3.55449z" data-paper-data="{&quot;origPos&quot;:null}" fill="#ffc3d5" stroke="none" stroke-width="0" stroke-linecap="butt"/><path d="M366.0562,146.05667c4.70706,2.64754 -12.17937,3.46502 -20.37855,3.46502c-8.19919,0 -15.42979,5.85048 -15.42979,-0.29891c0,-0.34096 -7.05168,-3.23986 -6.74259,-3.38377c3.12986,-1.45724 5.9394,-1.61608 8.16707,-2.95339c4.90203,-2.94276 8.33774,-2.84057 13.42146,-2.84057c0,0 5.29038,-0.68937 10.11942,2.45714c3.5905,1.99836 5.43552,1.85095 10.84298,3.55448z" data-paper-data="{&quot;origPos&quot;:null}" fill="#ffc3d5" stroke="none" stroke-width="0" stroke-linecap="butt"/><path d="M401.6333,146.27794c4.70706,2.64754 -12.17937,3.46502 -20.37855,3.46502c-8.19919,0 -15.42978,5.85048 -15.42978,-0.29891c0,-0.34096 -7.0517,-3.23986 -6.7426,-3.38377c3.12986,-1.45724 5.9394,-1.61608 8.16707,-2.95339c4.90203,-2.94276 8.33774,-2.84057 13.42146,-2.84057c0,0 5.29038,-0.68937 10.11942,2.45714c3.5905,1.99836 5.43552,1.85096 10.84298,3.55449z" data-paper-data="{&quot;origPos&quot;:null}" fill="#ffc3d5" stroke="none" stroke-width="0" stroke-linecap="butt"/></g><g data-paper-data="{&quot;origPos&quot;:null}"><g data-paper-data="{&quot;origPos&quot;:null}" fill="none" stroke="none" stroke-width="1" stroke-linecap="butt" font-family="sans-serif" font-weight="normal" font-size="12" text-anchor="start"/><path d="M376.99117,150.06838c0,0 25.89613,0 42.47096,0" data-paper-data="{&quot;origPos&quot;:null}" fill="#ffc3d5" stroke="#ffc3d5" stroke-width="10" stroke-linecap="round"/></g></g><path d="M291.39162,314.42762v-123.12806h59v123.12806z" data-paper-data="{&quot;origPos&quot;:null}" fill="#95153c" stroke="none" stroke-width="0" stroke-linecap="butt"/><path d="M339.07672,313.84502l-0.24843,-121.09288l11.74843,-1.01121c0,0 0,36.33432 0,58.94292c0,24.64945 0,63.16118 0,63.16118z" data-paper-data="{&quot;origPos&quot;:null}" fill="#88143c" stroke="none" stroke-width="0" stroke-linecap="butt"/><path d="M291.07669,312.82741v-121.09288h11.74843l-0.24843,121.09288z" data-paper-data="{&quot;origPos&quot;:null}" fill="#88143c" stroke="none" stroke-width="0" stroke-linecap="butt"/><path d="M302.87915,203.79474v-12.46863h35.7453v12.46863z" data-paper-data="{&quot;origPos&quot;:null}" fill="#830e37" stroke="none" stroke-width="0" stroke-linecap="butt"/><path d="M307.64401,233.61023v40.01243" data-paper-data="{&quot;origPos&quot;:null,&quot;index&quot;:null}" fill="none" stroke="#a31a40" stroke-width="10" stroke-linecap="round"/><path d="M334.00073,247.65175v40.01243" data-paper-data="{&quot;origPos&quot;:null,&quot;index&quot;:null}" fill="none" stroke="#ac2841" stroke-width="10" stroke-linecap="round"/><path d="M334.11873,221.40067v-6.02647" data-paper-data="{&quot;origPos&quot;:null,&quot;index&quot;:null}" fill="none" stroke="#ac2841" stroke-width="10" stroke-linecap="round"/><path d="M338.64019,203.79096v-12.48461h36.9354v5.56815c0,0 0.10168,3.91865 -1.64657,5.50511c-1.74825,1.58647 -5.97524,1.41135 -5.97524,1.41135z" data-paper-data="{&quot;origPos&quot;:null}" fill="#7a1039" stroke="none" stroke-width="0" stroke-linecap="butt"/><path d="M266.11888,201.88998c-1.99831,-1.8596 -1.64657,-5.48594 -1.64657,-5.48594v-5.07853h38.57032v12.21105h-30.90577c0,0 -4.01967,0.21302 -6.01798,-1.64658z" data-paper-data="{&quot;origPos&quot;:null}" fill="#7a1039" stroke="none" stroke-width="0" stroke-linecap="butt"/><g data-paper-data="{&quot;origPos&quot;:null,&quot;index&quot;:null}"><g data-paper-data="{&quot;origPos&quot;:null}" stroke="none" stroke-linecap="butt"><path d="M292.39403,170.56044c0,12.81369 -28.3055,4.64025 -28.3055,4.64025c0,0 -21.80916,8.17345 -21.80916,-4.64025c0,-12.81369 11.21855,-23.20124 25.05733,-23.20124c13.83878,0 25.05733,10.38755 25.05733,23.20124z" data-paper-data="{&quot;origPos&quot;:null}" fill="url(#color-20)" stroke-width="NaN"/><path d="M330.82989,170.48226c0,12.81369 -28.3055,4.64025 -28.3055,4.64025c0,0 -21.80916,8.17345 -21.80916,-4.64025c0,-12.81369 11.21854,-23.20124 25.05733,-23.20124c13.83878,0 25.05733,10.38755 25.05733,23.20124z" data-paper-data="{&quot;origPos&quot;:null}" fill="url(#color-21)" stroke-width="NaN"/><path d="M369.26576,170.40404c0,12.81369 -28.3055,4.64024 -28.3055,4.64024c0,0 -21.80916,8.17345 -21.80916,-4.64024c0,-11.90973 9.40153,-19.84432 17.74486,-22.19773c2.78111,-0.78447 4.42284,-1.00351 7.31247,-1.00351c13.83878,0 25.05733,10.38755 25.05733,23.20124z" data-paper-data="{&quot;origPos&quot;:null}" fill="url(#color-22)" stroke-width="NaN"/><path d="M406.77358,170.3259c0,12.81369 -28.3055,4.64024 -28.3055,4.64024c0,0 -21.80916,8.17345 -21.80916,-4.64024c0,-12.81369 11.21855,-23.20124 25.05733,-23.20124c13.83878,0 25.05733,10.38755 25.05733,23.20124z" data-paper-data="{&quot;origPos&quot;:null}" fill="url(#color-23)" stroke-width="NaN"/><path d="M233.0558,186.98271l16.75699,-30.95946c0,0 128.32833,-1.17636 147.83616,-1.30257c6.50261,-0.04207 2.66213,32.05685 2.66213,32.05685z" data-paper-data="{&quot;origPos&quot;:null}" fill="url(#color-24)" stroke-width="0"/><path d="M261.02883,174.60353c0,8.71332 -10.03162,16.03718 -19.00121,16.03718c-8.96958,0 -13.48052,-7.32387 -13.48052,-16.03718c0,-8.71332 7.27128,-15.77684 16.24087,-15.77684c8.96958,0 16.24087,7.06352 16.24087,15.77684z" data-paper-data="{&quot;origPos&quot;:null}" fill="url(#color-25)" stroke-width="0"/><path d="M418.93459,173.73503c0,8.71332 -5.44891,17.83887 -14.4185,17.83887c-8.96958,0 -18.06324,-9.12556 -18.06324,-17.83887c0,-8.71332 7.27127,-15.77684 16.24087,-15.77684c8.96958,0 16.24087,7.06353 16.24087,15.77684z" data-paper-data="{&quot;origPos&quot;:null}" fill="url(#color-26)" stroke-width="0"/></g><path d="M239.14779,188.70036c0,0 84.5268,-0.5 164.2303,-0.5" data-paper-data="{&quot;origPos&quot;:null}" fill="#ffc3d5" stroke="#ffc3d5" stroke-width="9" stroke-linecap="round"/><path d="M308.10929,184.01538c4.70706,2.64754 -12.17937,3.46502 -20.37856,3.46502c-8.19919,0 -15.42978,5.85048 -15.42978,-0.29891c0,-0.34096 -7.05168,-3.23986 -6.74259,-3.38377c3.12986,-1.45724 5.9394,-1.61608 8.16707,-2.95339c4.90203,-2.94276 8.33774,-2.84057 13.42146,-2.84057c0,0 5.29038,-0.68937 10.11942,2.45714c3.5905,1.99836 5.43552,1.85096 10.84298,3.55449z" data-paper-data="{&quot;origPos&quot;:null}" fill="#ffc3d5" stroke="none" stroke-width="0" stroke-linecap="butt"/><path d="M347.00824,183.79411c4.70706,2.64754 -12.17937,3.46502 -20.37855,3.46502c-8.19919,0 -15.42979,5.85048 -15.42979,-0.29891c0,-0.34096 -7.05168,-3.23986 -6.74259,-3.38377c3.12986,-1.45724 5.9394,-1.61608 8.16707,-2.95339c4.90203,-2.94276 8.33774,-2.84057 13.42146,-2.84057c0,0 5.29038,-0.68937 10.11942,2.45714c3.5905,1.99836 5.43552,1.85095 10.84298,3.55448z" data-paper-data="{&quot;origPos&quot;:null}" fill="#ffc3d5" stroke="none" stroke-width="0" stroke-linecap="butt"/><path d="M382.58533,184.01538c4.70706,2.64754 -12.17937,3.46502 -20.37855,3.46502c-8.19919,0 -15.42978,5.85048 -15.42978,-0.29891c0,-0.34096 -7.0517,-3.23986 -6.7426,-3.38377c3.12986,-1.45724 5.9394,-1.61608 8.16707,-2.95339c4.90203,-2.94276 8.33774,-2.84057 13.42146,-2.84057c0,0 5.29038,-0.68937 10.11942,2.45714c3.5905,1.99836 5.43552,1.85096 10.84298,3.55449z" data-paper-data="{&quot;origPos&quot;:null}" fill="#ffc3d5" stroke="none" stroke-width="0" stroke-linecap="butt"/></g><g data-paper-data="{&quot;origPos&quot;:null}"><g data-paper-data="{&quot;origPos&quot;:null}" stroke="none" stroke-linecap="butt"><path d="M412.15478,24.25002c0,12.24786 -27.05558,4.43534 -27.05558,4.43534c0,0 -20.84611,7.81252 -20.84611,-4.43534c0,-12.24786 10.72316,-22.1767 23.95085,-22.1767c13.22768,0 23.95085,9.92884 23.95085,22.1767z" data-paper-data="{&quot;origPos&quot;:null}" fill="url(#color-27)" stroke-width="NaN"/><path d="M448.89339,24.17529c0,12.24786 -27.05558,4.43534 -27.05558,4.43534c0,0 -20.84611,7.81253 -20.84611,-4.43534c0,-12.24786 10.72316,-22.17671 23.95085,-22.17671c13.22768,0 23.95085,9.92885 23.95085,22.17671z" data-paper-data="{&quot;origPos&quot;:null}" fill="url(#color-28)" stroke-width="NaN"/><path d="M379.77973,37.02318v-30.74431c0,0 43.03769,1.45557 61.02014,1.77681c5.99415,0.10708 -0.40613,31.3027 -0.40613,31.3027z" data-paper-data="{&quot;origPos&quot;:null}" fill="url(#color-29)" stroke-width="0"/><path d="M383.02515,28.30387c0,8.32855 -8.43367,15.94632 -17.00717,15.94632c-8.5735,0 -14.04022,-7.61778 -14.04022,-15.94632c0,-8.32855 6.9502,-15.08016 15.5237,-15.08016c8.5735,0 15.5237,6.75161 15.5237,15.08016z" data-paper-data="{&quot;origPos&quot;:null}" fill="url(#color-30)" stroke-width="0"/><path d="M459.91501,27.60362c0,8.32855 -4.7083,16.63162 -13.2818,16.63162c-8.5735,0 -17.7656,-8.30307 -17.7656,-16.63162c0,-5.66446 1.89289,-9.10116 6.55884,-12.31285c3.06243,-2.10796 5.24708,-2.76731 8.96486,-2.76731c8.5735,0 15.5237,6.75162 15.5237,15.08016z" data-paper-data="{&quot;origPos&quot;:null}" fill="url(#color-31)" stroke-width="0"/></g><path d="M364.54051,41.13527h86.03394" data-paper-data="{&quot;origPos&quot;:null}" fill="#ffc3d5" stroke="#ffc3d5" stroke-width="9" stroke-linecap="round"/><path d="M425.69765,36.83409c4.49921,2.53063 -11.64155,3.31201 -19.47867,3.31201c-7.83713,0 -14.74843,5.59214 -14.74843,-0.28571c0,-0.3259 -6.74031,-3.09679 -6.44486,-3.23435c2.99165,-1.39289 5.67713,-1.54472 7.80643,-2.82298c4.68556,-2.81281 7.96956,-2.71514 12.8288,-2.71514c0,0 5.05677,-0.65893 9.67257,2.34864c3.43195,1.91012 5.19549,1.76923 10.36417,3.39753z" data-paper-data="{&quot;origPos&quot;:null}" fill="#ffc3d5" stroke="none" stroke-width="0" stroke-linecap="butt"/></g></g><path d="M193.03254,418.94428l-0.4807,-129.64992l242.54262,-1.5015l-4.5045,132.13213z" data-paper-data="{&quot;origPos&quot;:null}" fill="#03a63b" stroke="none" stroke-width="0" stroke-linecap="butt"/><path d="M436.38566,299.03346l-243.675,-0.16667l0.03461,-29.65591l243.87319,-0.01442z" data-paper-data="{&quot;origPos&quot;:null,&quot;index&quot;:null}" fill="#48c900" stroke="none" stroke-width="0" stroke-linecap="butt"/><path d="M192.59727,270.57471c0,0 0.32797,-3.75903 1.4125,-5.30832c0.94815,-1.35445 3.49498,-2.52452 5.2024,-2.52452c30.03808,0 234.33063,0 234.33063,0c0,0 3.3487,6.99146 3.68803,7.75278c0.11311,0.25377 -244.63356,-0.29067 -244.63356,-0.29067z" data-paper-data="{&quot;origPos&quot;:null,&quot;index&quot;:null}" fill="#b4ff53" stroke="none" stroke-width="0" stroke-linecap="butt"/><path d="M-20.17364,420.03252v-392h508c0,0 0,166.80096 0,273.56208c0,46.22192 0,118.43792 0,118.43792z" data-paper-data="{&quot;origPos&quot;:null}" fill="none" stroke="none" stroke-width="0" stroke-linecap="butt"/><path d="M345.95701,336.60336h-57.42663" data-paper-data="{&quot;origPos&quot;:null,&quot;index&quot;:null}" fill="none" stroke="#04b742" stroke-width="30" stroke-linecap="round"/><path d="M324.40891,364.32667h54.40671" data-paper-data="{&quot;origPos&quot;:null,&quot;index&quot;:null}" fill="none" stroke="#02af3d" stroke-width="30" stroke-linecap="round"/><path d="M157.73755,433.87988v-519.51952h345.34535v519.51952z" fill="none" stroke="none" stroke-width="NaN" stroke-linecap="butt"/><g data-paper-data="{&quot;origPos&quot;:null}" stroke="#690606" stroke-width="2.5" stroke-linecap="butt"><g data-paper-data="{&quot;origPos&quot;:null}"><g data-paper-data="{&quot;origPos&quot;:null}"><path d="M78.59869,380.0521c0,0 5.49464,-16.12881 6.31628,-18.31936c0.27388,-0.73018 0.68392,-0.39804 0.82941,-0.05282c0.14547,0.34522 6.89049,18.37219 6.89049,18.37219c0,0 0.1979,0.38055 -0.0838,0.38055c0,0 -12.51298,0.06734 -13.77104,0.03107c-0.41936,-0.0121 -0.18133,-0.41162 -0.18133,-0.41162z" data-paper-data="{&quot;origPos&quot;:null}" fill="url(#color-32)"/><path d="M92.54737,380.29388c0,0 5.49464,-16.12881 6.31629,-18.31936c0.27388,-0.73018 0.68391,-0.39804 0.8294,-0.05282c0.14548,0.34522 6.89049,18.37219 6.89049,18.37219c0,0 0.1979,0.38055 -0.0838,0.38055c0,0 -12.51297,0.06734 -13.77103,0.03107c-0.41936,-0.0121 -0.18134,-0.41162 -0.18134,-0.41162z" data-paper-data="{&quot;origPos&quot;:null}" fill="url(#color-33)"/><path d="M107.05485,380.06854c0,0 5.49464,-16.12881 6.31629,-18.31936c0.27388,-0.73018 0.68392,-0.39804 0.8294,-0.05282c0.14547,0.34522 6.89049,18.37219 6.89049,18.37219c0,0 0.19789,0.38055 -0.08381,0.38055c0,0 -12.51297,0.06734 -13.77103,0.03107c-0.41936,-0.0121 -0.18134,-0.41162 -0.18134,-0.41162z" data-paper-data="{&quot;origPos&quot;:null}" fill="url(#color-34)"/><path d="M121.00355,380.31032c0,0 5.49464,-16.12881 6.31628,-18.31936c0.27388,-0.73018 0.68392,-0.39804 0.82941,-0.05282c0.14547,0.34522 6.89049,18.37219 6.89049,18.37219c0,0 0.19789,0.38055 -0.08381,0.38055c0,0 -12.51297,0.06734 -13.77103,0.03107c-0.41936,-0.0121 -0.18133,-0.41162 -0.18133,-0.41162z" data-paper-data="{&quot;origPos&quot;:null}" fill="url(#color-35)"/></g><g data-paper-data="{&quot;origPos&quot;:null}"><path d="M135.61362,380.16224c0,0 5.49463,-16.12881 6.31628,-18.31936c0.27388,-0.73018 0.68392,-0.39804 0.82941,-0.05282c0.14547,0.34522 6.89049,18.37218 6.89049,18.37218c0,0 0.1979,0.38055 -0.0838,0.38055c0,0 -12.51297,0.06735 -13.77103,0.03107c-0.41936,-0.0121 -0.18133,-0.41162 -0.18133,-0.41162z" data-paper-data="{&quot;origPos&quot;:null}" fill="url(#color-36)"/><path d="M149.56622,380.40402c0,0 5.49464,-16.12881 6.31628,-18.31936c0.27388,-0.73018 0.68392,-0.39804 0.82939,-0.05282c0.14547,0.34522 6.89049,18.37218 6.89049,18.37218c0,0 0.1979,0.38055 -0.0838,0.38055c0,0 -12.51297,0.06735 -13.77104,0.03107c-0.41936,-0.0121 -0.18133,-0.41162 -0.18133,-0.41162z" data-paper-data="{&quot;origPos&quot;:null}" fill="url(#color-37)"/><path d="M164.07369,380.17868c0,0 5.49464,-16.12881 6.31628,-18.31936c0.27388,-0.73018 0.68392,-0.39804 0.82941,-0.05282c0.14547,0.34522 6.89049,18.37218 6.89049,18.37218c0,0 0.19791,0.38055 -0.0838,0.38055c0,0 -12.51298,0.06735 -13.77104,0.03107c-0.41936,-0.0121 -0.18133,-0.41162 -0.18133,-0.41162z" data-paper-data="{&quot;origPos&quot;:null}" fill="url(#color-38)"/><path d="M177.691,380.42046c0,0 5.49464,-16.12881 6.31629,-18.31936c0.27388,-0.73018 0.68392,-0.39804 0.8294,-0.05282c0.14547,0.34522 6.89048,18.37218 6.89048,18.37218c0,0 0.19791,0.38055 -0.0838,0.38055c0,0 -12.51296,0.06735 -13.77103,0.03107c-0.41936,-0.0121 -0.18134,-0.41162 -0.18134,-0.41162z" data-paper-data="{&quot;origPos&quot;:null}" fill="url(#color-39)"/></g></g><g data-paper-data="{&quot;origPos&quot;:null}"><g data-paper-data="{&quot;origPos&quot;:null}"><path d="M-35.5722,380.04745c0,0 5.49464,-16.12881 6.31628,-18.31936c0.27388,-0.73018 0.68392,-0.39804 0.82941,-0.05282c0.14547,0.34522 6.89049,18.37219 6.89049,18.37219c0,0 0.1979,0.38055 -0.0838,0.38055c0,0 -12.51298,0.06734 -13.77104,0.03107c-0.41936,-0.0121 -0.18133,-0.41162 -0.18133,-0.41162z" data-paper-data="{&quot;origPos&quot;:null}" fill="url(#color-40)"/><path d="M-21.62352,380.28923c0,0 5.49464,-16.12881 6.31629,-18.31936c0.27388,-0.73018 0.68391,-0.39804 0.8294,-0.05282c0.14548,0.34522 6.89049,18.37219 6.89049,18.37219c0,0 0.1979,0.38055 -0.0838,0.38055c0,0 -12.51297,0.06734 -13.77103,0.03107c-0.41936,-0.0121 -0.18134,-0.41162 -0.18134,-0.41162z" data-paper-data="{&quot;origPos&quot;:null}" fill="url(#color-41)"/><path d="M-7.11604,380.06389c0,0 5.49464,-16.12881 6.31629,-18.31936c0.27388,-0.73018 0.68392,-0.39804 0.8294,-0.05282c0.14547,0.34522 6.89049,18.37219 6.89049,18.37219c0,0 0.19789,0.38055 -0.08381,0.38055c0,0 -12.51297,0.06734 -13.77103,0.03107c-0.41936,-0.0121 -0.18134,-0.41162 -0.18134,-0.41162z" data-paper-data="{&quot;origPos&quot;:null}" fill="url(#color-42)"/><path d="M6.83266,380.30567c0,0 5.49464,-16.12881 6.31628,-18.31936c0.27388,-0.73018 0.68392,-0.39804 0.82941,-0.05282c0.14547,0.34522 6.89049,18.37219 6.89049,18.37219c0,0 0.19789,0.38055 -0.08381,0.38055c0,0 -12.51297,0.06734 -13.77103,0.03107c-0.41936,-0.0121 -0.18133,-0.41162 -0.18133,-0.41162z" data-paper-data="{&quot;origPos&quot;:null}" fill="url(#color-43)"/></g><g data-paper-data="{&quot;origPos&quot;:null}"><path d="M21.44273,380.15759c0,0 5.49463,-16.12881 6.31628,-18.31936c0.27388,-0.73018 0.68392,-0.39804 0.82941,-0.05282c0.14547,0.34522 6.89049,18.37218 6.89049,18.37218c0,0 0.1979,0.38055 -0.0838,0.38055c0,0 -12.51297,0.06735 -13.77103,0.03107c-0.41936,-0.0121 -0.18133,-0.41162 -0.18133,-0.41162z" data-paper-data="{&quot;origPos&quot;:null}" fill="url(#color-44)"/><path d="M35.39533,380.39937c0,0 5.49464,-16.12881 6.31628,-18.31936c0.27388,-0.73018 0.68392,-0.39804 0.82939,-0.05282c0.14547,0.34522 6.89049,18.37218 6.89049,18.37218c0,0 0.1979,0.38055 -0.0838,0.38055c0,0 -12.51297,0.06735 -13.77104,0.03107c-0.41936,-0.0121 -0.18133,-0.41162 -0.18133,-0.41162z" data-paper-data="{&quot;origPos&quot;:null}" fill="url(#color-45)"/><path d="M49.90281,380.17403c0,0 5.49464,-16.12881 6.31628,-18.31936c0.27388,-0.73018 0.68392,-0.39804 0.82941,-0.05282c0.14547,0.34522 6.89049,18.37218 6.89049,18.37218c0,0 0.19791,0.38055 -0.0838,0.38055c0,0 -12.51298,0.06735 -13.77104,0.03107c-0.41936,-0.0121 -0.18133,-0.41162 -0.18133,-0.41162z" data-paper-data="{&quot;origPos&quot;:null}" fill="url(#color-46)"/><path d="M63.5201,380.41581c0,0 5.49464,-16.12881 6.31629,-18.31936c0.27388,-0.73018 0.68392,-0.39804 0.8294,-0.05282c0.14547,0.34522 6.89048,18.37218 6.89048,18.37218c0,0 0.19791,0.38055 -0.0838,0.38055c0,0 -12.51296,0.06735 -13.77103,0.03107c-0.41936,-0.0121 -0.18134,-0.41162 -0.18134,-0.41162z" data-paper-data="{&quot;origPos&quot;:null}" fill="url(#color-47)"/></g></g></g><path d="M-38.47704,497.51188v-117.47884h458.5976v117.47884z" data-paper-data="{&quot;origPos&quot;:null}" fill="#03a63b" stroke="none" stroke-width="0" stroke-linecap="butt"/><path d="M150.78284,432.68445h-57.42663" data-paper-data="{&quot;origPos&quot;:null,&quot;index&quot;:null}" fill="none" stroke="#04b742" stroke-width="30" stroke-linecap="round"/><path d="M322.45345,284.85812h-75.37424" data-paper-data="{&quot;origPos&quot;:null}" fill="none" stroke="#3dc400" stroke-width="29" stroke-linecap="round"/><path d="M-75.23805,448.98222v-70.07032h38.46998v70.07032z" fill="#03a63b" stroke="none" stroke-width="0" stroke-linecap="butt"/><path d="M-263.06727,592.1073v-171.17117h271.77177v171.17117z" fill="#03a63b" stroke="none" stroke-width="0" stroke-linecap="butt"/><path d="M248.94474,571.08628v-163.66366h213.21321v163.66366z" fill="#03a63b" stroke="none" stroke-width="0" stroke-linecap="butt"/></g></g></svg>