<svg version="1.1" xmlns="http://www.w3.org/2000/svg" xmlns:xlink="http://www.w3.org/1999/xlink" width="467.96695" height="267.87036" viewBox="0,0,467.96695,267.87036"><g transform="translate(-1.72739,-91.8525)"><g data-paper-data="{&quot;isPaintingLayer&quot;:true}" fill-rule="nonzero" stroke-linejoin="miter" stroke-miterlimit="10" stroke-dasharray="" stroke-dashoffset="0" style="mix-blend-mode: normal"><path d="M1.77718,359.72287v-178.65671h466.94895v178.65671z" data-paper-data="{&quot;origPos&quot;:null}" fill="#1c4974" stroke="none" stroke-width="0" stroke-linecap="butt"/><path d="M1.73527,182.20398v-30.23286h234.79833c0,0 0.19392,20.48594 0.31804,33.59798c0.05689,6.01023 0.80521,7.89448 -2.52088,11.73381c-2.23661,2.58174 -6.25979,3.64131 -11.97318,3.62508c-17.14016,-0.0487 -137.62941,-0.2944 -137.62941,-0.2944c0,0 -2.14831,0.31422 -3.85199,-1.18411c-1.6423,-1.35314 -1.52132,-4.11537 -1.52132,-4.11537c0,0 0.62334,-7.03783 -3.79281,-10.41107c-4.90225,-3.74453 -12.26694,-2.8205 -12.26694,-2.8205z" data-paper-data="{&quot;origPos&quot;:null}" fill="#21548f" stroke="none" stroke-width="0" stroke-linecap="butt"/><path d="M1.79799,153.68296v-25.93486l140.07036,-2l0.30043,36.38191l318.36046,1.62544l1.02743,-25.30936l7.97874,-0.03093l-0.44854,43.71464l-343.52081,-0.32039c0,0 -2.21936,-0.41948 -3.58127,-1.91452c-1.81648,-1.99404 -1.37847,-4.17692 -1.37847,-4.17692l-0.45299,-16.6979c0,0 0.21737,-2.89385 -1.15151,-4.226c-1.36888,-1.33215 -4.32051,-1.11111 -4.32051,-1.11111z" data-paper-data="{&quot;origPos&quot;:null}" fill="#2568a7" stroke="none" stroke-width="0" stroke-linecap="butt"/><path d="M32.32102,128.08706h116.73462v9.00347l0.06453,11.67073l294.32197,1.09329l0.17291,-52.77897l25.9661,0.36651l-0.0227,41.28289l-7.58849,0.03282c0,0 -0.09287,18.16332 -0.11116,21.93519c-0.00505,1.04229 -0.53153,2.63002 -1.3505,3.27475c-0.80976,0.63748 -2.48625,0.94019 -3.51683,0.93713c-3.84147,-0.01144 -194.25498,-0.52967 -319.59307,-0.9592c-1.68555,-0.00577 -2.6266,0.37148 -4.53598,-1.19462c-1.9056,-1.56301 -1.44163,-3.56323 -1.44708,-5.21347c-0.01886,-5.7122 -0.04924,-13.6368 -0.04924,-13.6368c0,0 0.47122,-3.75468 -1.55309,-5.4769c-2.02431,-1.72222 -6.45171,-1.33334 -6.45171,-1.33334h-17.78828c0,0 -0.19117,2.06922 -1.43446,3.68967c-1.49602,1.94986 -3.42897,1.96302 -3.42897,1.96302l-21.49962,0.25627c0,0 -1.64031,-0.09719 -3.08175,-1.622c-1.55419,-1.64408 -1.43756,-4.28696 -1.43756,-4.28696c0,0 -23.33276,0 -39.08069,0c0,0 -1.31123,0.06155 -2.35822,-0.74903c-0.99575,-0.7709 -0.93074,-2.16541 -0.93074,-2.16541z" data-paper-data="{&quot;origPos&quot;:null}" fill="#11b738" stroke="none" stroke-width="0" stroke-linecap="butt"/><path d="M1.73855,129.55449c0,0 -0.16409,-3.51337 0.76605,-4.90636c0.81316,-1.21781 2.55205,-1.80293 4.01639,-1.80293c5.59923,0 84.12202,0 137.9644,0c1.58143,0 3.10621,0.43076 4.00609,1.7312c0.90508,1.30796 0.69252,4.81142 0.69252,4.81142c0,0 -10.14072,0.01146 -16.63129,0.0188c-19.47173,0.02201 -130.81416,0.14787 -130.81416,0.14787z" data-paper-data="{&quot;origPos&quot;:null}" fill="#7aff75" stroke="none" stroke-width="0" stroke-linecap="butt"/><path d="M149.09903,152.36387v-6.20929l294.43282,0.3267v6.20929z" data-paper-data="{&quot;origPos&quot;:null}" fill="#7aff75" stroke="none" stroke-width="0" stroke-linecap="butt"/><path d="M402.02321,166.37816c0,0 -0.19117,2.06922 -1.43446,3.68967c-1.49602,1.94986 -3.42897,1.96302 -3.42897,1.96302l-197.26747,-0.31435c0,0 -1.64031,-0.09719 -3.08175,-1.622c-1.55419,-1.64408 -1.43756,-4.28696 -1.43756,-4.28696l-0.02209,-7.81606l206.39096,-0.76167z" data-paper-data="{&quot;origPos&quot;:null}" fill="#11b738" stroke="none" stroke-width="0" stroke-linecap="butt"/><path d="M443.71066,98.06295c0,0 -0.36181,-3.16614 0.85714,-4.78071c1.15016,-1.52345 2.5057,-1.42857 4.38379,-1.42857c5.63425,0 20.69247,0 20.69247,0l0.05028,6.20928z" data-paper-data="{&quot;origPos&quot;:null}" fill="#7aff75" stroke="none" stroke-width="0" stroke-linecap="butt"/><path d="M408.0839,240.7051h-126" data-paper-data="{&quot;origPos&quot;:null}" fill="none" stroke="#205485" stroke-width="20" stroke-linecap="round"/><path d="M71.0839,283.70509h101" data-paper-data="{&quot;origPos&quot;:null}" fill="none" stroke="#205485" stroke-width="30" stroke-linecap="round"/></g></g></svg>