<svg version="1.1" xmlns="http://www.w3.org/2000/svg" xmlns:xlink="http://www.w3.org/1999/xlink" width="543.90802" height="583.15152"><g transform="translate(40.82511,85.63964)"><g data-paper-data="{&quot;isPaintingLayer&quot;:true}" fill-rule="nonzero" stroke-linejoin="miter" stroke-miterlimit="10" stroke-dasharray="" stroke-dashoffset="0" style="mix-blend-mode: normal"><path d="M193.03254,418.94428l-0.4807,-129.64992l242.54262,-1.5015l-4.5045,132.13213z" data-paper-data="{&quot;origPos&quot;:null}" fill="#03a63b" stroke="none" stroke-width="0" stroke-linecap="butt"/><path d="M436.38565,299.03346l-243.675,-0.16667l0.03461,-29.65591l243.87319,-0.01442z" data-paper-data="{&quot;origPos&quot;:null,&quot;index&quot;:null}" fill="#48c900" stroke="none" stroke-width="0" stroke-linecap="butt"/><path d="M192.59727,270.57471c0,0 0.32797,-3.75903 1.4125,-5.30832c0.94815,-1.35445 3.49498,-2.52452 5.2024,-2.52452c30.03808,0 234.33063,0 234.33063,0c0,0 3.3487,6.99146 3.68803,7.75278c0.11311,0.25377 -244.63356,-0.29067 -244.63356,-0.29067z" data-paper-data="{&quot;origPos&quot;:null,&quot;index&quot;:null}" fill="#b4ff53" stroke="none" stroke-width="0" stroke-linecap="butt"/><path d="M288.53038,336.60336h57.42663" data-paper-data="{&quot;origPos&quot;:null,&quot;index&quot;:null}" fill="none" stroke="#04b742" stroke-width="30" stroke-linecap="round"/><path d="M324.4089,364.32667h54.40671" data-paper-data="{&quot;origPos&quot;:null,&quot;index&quot;:null}" fill="none" stroke="#02af3d" stroke-width="30" stroke-linecap="round"/><path d="M157.73756,433.87988v-519.51952h345.34535v519.51952z" fill="none" stroke="none" stroke-width="NaN" stroke-linecap="butt"/><path d="M-38.47704,497.51188v-117.47884h437.57658v117.47884z" data-paper-data="{&quot;origPos&quot;:null}" fill="#03a63b" stroke="none" stroke-width="0" stroke-linecap="butt"/><path d="M150.78284,432.68445h-57.42663" data-paper-data="{&quot;origPos&quot;:null,&quot;index&quot;:null}" fill="none" stroke="#04b742" stroke-width="30" stroke-linecap="round"/><path d="M-40.82511,404.94515v-43.54354h256.75676v43.54354z" data-paper-data="{&quot;origPos&quot;:null}" fill="#03a63b" stroke="none" stroke-width="0" stroke-linecap="butt"/></g></g></svg>