<svg version="1.1" xmlns="http://www.w3.org/2000/svg" xmlns:xlink="http://www.w3.org/1999/xlink" width="56.89921" height="45.61793"><defs><linearGradient x1="23.97126" y1="11.84291" x2="23.97126" y2="32.78188" gradientUnits="userSpaceOnUse" id="color-1"><stop offset="0" stop-color="#ff0f0f"/><stop offset="1" stop-color="#ff880f"/></linearGradient></defs><g transform="translate(5.24947,1.25246)"><g data-paper-data="{&quot;isPaintingLayer&quot;:true}" fill-rule="nonzero" stroke-linecap="butt" stroke-linejoin="miter" stroke-miterlimit="10" stroke-dasharray="" stroke-dashoffset="0" style="mix-blend-mode: normal"><path d="M23.9226,33.5394c-1.59072,-0.05694 -4.12152,-2.06793 -4.12152,-2.06793c0,0 -2.16965,-2.13408 -4.08633,-4.01241c-1.40514,-1.37704 -3.60051,-4.53738 -3.60051,-4.53738c0,0 -1.11518,-1.78557 -1.25162,-3.11247c-0.10576,-1.02858 -0.08501,-1.39184 0.00814,-2.16213c0.04472,-1.29263 1.79387,-5.06717 5.69963,-5.64134c3.1765,-0.46696 6.46875,1.43196 7.3675,3.1206c0.13592,0.25538 0.1801,0.23115 0.1801,0.23115c0,0 0.0427,0.09178 0.20556,-0.21388c1.09112,-2.04776 4.91592,-4.13695 8.19115,-3.02055c2.91894,0.99495 4.41877,3.31984 4.5544,5.24074c0.09504,1.34585 0.35103,1.93532 0.04379,3.21668c-0.30723,1.28136 -0.71305,2.12764 -1.55357,3.08011c-1.49123,1.68985 -2.64725,3.31205 -4.27021,4.87558c-1.61376,1.55467 -3.16661,2.94006 -3.16661,2.94006c0,0 -2.54277,2.1225 -4.1999,2.06318z" data-paper-data="{&quot;origPos&quot;:null}" fill="url(#color-1)" stroke="#ffffff" stroke-width="2.6"/><path d="M-5.24947,44.36547v-45.61793h56.89921v45.61793z" fill="none" stroke="none" stroke-width="0"/></g></g></svg>