<svg version="1.1" xmlns="http://www.w3.org/2000/svg" xmlns:xlink="http://www.w3.org/1999/xlink" width="170" height="185"><g transform="translate(-158.55707,-83.66847)"><g data-paper-data="{&quot;isPaintingLayer&quot;:true}" fill-rule="nonzero" stroke-width="0" stroke-linecap="butt" stroke-linejoin="miter" stroke-miterlimit="10" stroke-dasharray="" stroke-dashoffset="0" style="mix-blend-mode: normal"><path d="M266.81627,203.51566l9.18059,-9.34986c0,0 0.83496,-2.22928 1.8741,-2.30014c1.03914,-0.07086 1.94471,2.03973 1.94471,2.03973l7.74481,7.39128c0,0 0.95622,-0.24298 0.64215,0.47751c-0.31407,0.72049 -1.60945,0.74148 -1.60945,0.74148z" data-paper-data="{&quot;origPos&quot;:null}" fill="#ffffff" stroke="none"/><path d="M249.41627,203.51566l9.18059,-9.34985c0,0 0.83496,-2.22929 1.8741,-2.30015c1.03914,-0.07086 1.94471,2.03973 1.94471,2.03973l7.74481,7.39128c0,0 0.95623,-0.24298 0.64215,0.47751c-0.31408,0.72048 -1.60945,0.74148 -1.60945,0.74148z" data-paper-data="{&quot;origPos&quot;:null}" fill="#ffffff" stroke="none"/><path d="M233.01627,203.51566l9.18059,-9.34985c0,0 0.83495,-2.22929 1.8741,-2.30015c1.03914,-0.07086 1.94471,2.03973 1.94471,2.03973l7.74481,7.39128c0,0 0.95623,-0.24298 0.64216,0.47751c-0.31408,0.72048 -1.60945,0.74148 -1.60945,0.74148z" data-paper-data="{&quot;origPos&quot;:null}" fill="#ffffff" stroke="none"/><path d="M215.61627,203.51566l9.18059,-9.34985c0,0 0.83496,-2.22929 1.8741,-2.30015c1.03914,-0.07086 1.94472,2.03973 1.94472,2.03973l7.74481,7.39128c0,0 0.95623,-0.24298 0.64216,0.47751c-0.31408,0.72048 -1.60945,0.74148 -1.60945,0.74148z" data-paper-data="{&quot;origPos&quot;:null}" fill="#ffffff" stroke="none"/><g data-paper-data="{&quot;origPos&quot;:null}" fill="#b82832" stroke="none"><path d="M189.00548,228.38628l0.32341,-22.07833l99.31646,1.36134l-0.22314,20.717z" data-paper-data="{&quot;origPos&quot;:null}"/><path d="M273.23632,239.4988c-0.92187,-0.92685 -0.78357,-2.73698 -0.78357,-2.73698v-21.12433h16.08182v21.04388c0,0 0.23183,1.79976 -0.7516,2.78883c-0.98344,0.98907 -2.82891,0.81216 -2.82891,0.81216h-8.99968c0,0 -1.79618,0.14329 -2.71806,-0.78356z" data-paper-data="{&quot;origPos&quot;:null}"/><path d="M245.14263,239.87541c-0.92187,-0.92685 -0.78356,-2.73698 -0.78356,-2.73698v-21.12433h16.08183v21.04387c0,0 0.23183,1.79976 -0.75161,2.78883c-0.98344,0.98907 -2.82891,0.81217 -2.82891,0.81217h-8.99968c0,0 -1.79619,0.14329 -2.71806,-0.78357z" data-paper-data="{&quot;origPos&quot;:null}"/><path d="M216.82873,240.00869c-0.92187,-0.92685 -0.78356,-2.73698 -0.78356,-2.73698v-21.12433h16.08182v21.04388c0,0 0.23184,1.79976 -0.7516,2.78883c-0.98344,0.98907 -2.82891,0.81216 -2.82891,0.81216h-8.99968c0,0 -1.79619,0.14329 -2.71806,-0.78356z" data-paper-data="{&quot;origPos&quot;:null}"/><path d="M189.75297,241.11532c-0.90795,-0.92685 -0.77174,-2.73698 -0.77174,-2.73698v-21.12433h15.83896v21.04387c0,0 0.22833,1.79977 -0.74026,2.78883c-0.96859,0.98907 -2.78619,0.81216 -2.78619,0.81216h-8.86377c0,0 -1.76906,0.14329 -2.67701,-0.78357z" data-paper-data="{&quot;origPos&quot;:null}"/></g><path d="M189.02238,213.19643l0.37105,-86l99.70454,0.63169l0.13371,39.07114c0,0 -0.21618,1.5076 -0.70141,1.96872c-0.48523,0.46112 -2.02747,0.65436 -2.02747,0.65436l-68.59116,-0.14887c0,0 -1.04765,-0.12986 -1.61624,0.43743c-0.56859,0.56729 -0.44744,1.62153 -0.44744,1.62153l-0.09121,27.22193c0,0 -0.20692,1.22302 0.43627,1.8375c0.64319,0.61449 1.94799,0.44036 1.94799,0.44036l67.47031,-0.03861c0,0 1.56572,0.16327 2.11039,0.63071c0.54467,0.46744 0.80241,1.95413 0.80241,1.95413l-0.04291,9.60793z" data-paper-data="{&quot;origPos&quot;:null}" fill="#fe404f" stroke="#000000"/><path d="M189.35517,138.23698v-12.66647c0,0 0.03818,-5.15586 2.77859,-7.51955c2.74041,-2.36369 7.77553,-2.19474 7.77553,-2.19474h76.93528c0,0 6.44492,-0.05173 9.32105,2.83257c2.87613,2.88429 2.83257,8.85838 2.83257,8.85838v10.68981z" data-paper-data="{&quot;origPos&quot;:null}" fill="#b82832" stroke="none"/><path d="M209.5218,104.20429c1.14174,-1.16742 3.49827,-1.01664 3.49827,-1.01664l41.268,-0.22992c0,0 5.99622,-0.04824 8.67829,2.64144c2.68207,2.68968 2.6553,8.233 2.6553,8.233v9.99624c0,0 -37.42305,0 -48.1467,0c-3.57455,0 -9.15933,0 -9.15933,0l0.17562,-16.01327c0,0 -0.11119,-2.44344 1.03055,-3.61086z" data-paper-data="{&quot;origPos&quot;:null}" fill="#b82832" stroke="none"/><g data-paper-data="{&quot;origPos&quot;:null}" fill="#ffffff" stroke="none"><path d="M287.92234,169.69305c0,0 1.19534,0.01871 1.48517,0.66107c0.28983,0.64234 -0.59256,1.31727 -0.59256,1.31727l-7.14675,6.58969c0,0 -0.83564,0.99015 -1.79454,0.92697c-0.9589,-0.06317 -1.72938,-1.15915 -1.72938,-1.15915l-8.47166,-8.33585z" data-paper-data="{&quot;origPos&quot;:null,&quot;index&quot;:null}"/><path d="M271.86598,169.69305c0,0 1.19535,0.01871 1.48517,0.66107c0.28983,0.64234 -0.59257,1.31727 -0.59257,1.31727l-7.14675,6.58969c0,0 -0.83564,0.99015 -1.79454,0.92697c-0.9589,-0.06317 -1.72938,-1.15915 -1.72938,-1.15915l-8.47166,-8.33585z" data-paper-data="{&quot;origPos&quot;:null,&quot;index&quot;:null}"/></g><path d="M229.35072,153.0286c-1.79194,-1.73109 -1.4572,-5.16891 -1.4572,-5.16891l0.16223,-28.08023c0,0 0.04546,-4.03558 2.39299,-5.32331c2.34753,-1.28773 6.73526,0.58953 6.73526,0.58953l49.00367,30.50526c0,0 3.99774,2.51432 2.48058,6.18743c-1.37726,3.33439 -6.68494,2.88301 -6.68494,2.88301l-47.25865,-0.16253c0,0 -3.582,0.30085 -5.37394,-1.43024z" data-paper-data="{&quot;origPos&quot;:null}" fill="#fdf883" stroke="none"/><path d="M244.78775,132.92992c0,-5.31574 4.30926,-9.625 9.625,-9.625c5.31574,0 9.625,4.30926 9.625,9.625c0,5.31574 -4.30926,9.625 -9.625,9.625c-5.31574,0 -9.625,-4.30926 -9.625,-9.625z" data-paper-data="{&quot;origPos&quot;:null}" fill="#f02333" stroke="none"/><g data-paper-data="{&quot;origPos&quot;:null}" fill="#ffffff" stroke="none"><path d="M253.42235,169.69305c0,0 1.19534,0.01871 1.48517,0.66107c0.28983,0.64234 -0.59256,1.31727 -0.59256,1.31727l-7.14675,6.58969c0,0 -0.83564,0.99015 -1.79454,0.92697c-0.9589,-0.06317 -1.72938,-1.15915 -1.72938,-1.15915l-8.47166,-8.33585z" data-paper-data="{&quot;origPos&quot;:null,&quot;index&quot;:null}"/><path d="M237.36599,169.69305c0,0 1.19535,0.01871 1.48517,0.66107c0.28983,0.64234 -0.59257,1.31727 -0.59257,1.31727l-7.14675,6.58969c0,0 -0.83564,0.99015 -1.79454,0.92697c-0.9589,-0.06317 -1.72938,-1.15915 -1.72938,-1.15915l-8.47166,-8.33585z" data-paper-data="{&quot;origPos&quot;:null,&quot;index&quot;:null}"/></g><path d="M158.55707,268.66847v-185h170v185z" data-paper-data="{&quot;origPos&quot;:null}" fill="none" stroke="none"/></g></g></svg>