<svg version="1.1" xmlns="http://www.w3.org/2000/svg" xmlns:xlink="http://www.w3.org/1999/xlink" width="280.94401" height="202.34116"><g transform="translate(-57.84895,-199.0378)"><g data-paper-data="{&quot;isPaintingLayer&quot;:true}" fill-rule="nonzero" stroke-linejoin="miter" stroke-miterlimit="10" stroke-dasharray="" stroke-dashoffset="0" style="mix-blend-mode: normal"><g data-paper-data="{&quot;index&quot;:null,&quot;origPos&quot;:null}"><g data-paper-data="{&quot;origPos&quot;:null}" stroke="none" stroke-width="0" stroke-linecap="butt"><path d="M241.51881,206.28701l97.12698,0.38234l0.1344,123.04457c0,0 0.18771,3.51337 -0.87636,4.90636c-0.93025,1.21781 -2.91953,1.80293 -4.59473,1.80293c-125.61478,0 -81.19837,0 -83.3495,0c-0.71705,0 -2.26429,0 -2.98132,0c-1.80914,0 -3.55348,-0.43076 -4.58294,-1.7312c-1.03541,-1.30796 -0.79224,-4.81142 -0.79224,-4.81142z" data-paper-data="{&quot;origPos&quot;:null,&quot;index&quot;:null}" fill="#21548f"/><path d="M241.38197,205.00972l97.12698,0.01442l0.1344,29.65591l-97.17709,0.16667z" data-paper-data="{&quot;origPos&quot;:null,&quot;index&quot;:null}" fill="#11b738"/><path d="M241.46628,206.08042c0,0 -0.24317,-4.00346 0.79224,-5.31142c1.02945,-1.30044 2.77379,-1.7312 4.58294,-1.7312c0.71704,0 2.26428,0 2.98132,0c2.15113,0 -42.26529,0 83.3495,0c1.6752,0 3.66448,0.58512 4.59473,1.80293c1.06408,1.39299 0.87636,4.90636 0.87636,4.90636z" data-paper-data="{&quot;origPos&quot;:null,&quot;index&quot;:null}" fill="#7aff75"/></g><path d="M278.32777,258.88782h30.71855" data-paper-data="{&quot;origPos&quot;:null}" fill="none" stroke="#256aa6" stroke-width="17.65" stroke-linecap="round"/><g data-paper-data="{&quot;index&quot;:null,&quot;origPos&quot;:null}"><path d="M242.05919,307.46151v-17.76777h26.40873v17.76777z" data-paper-data="{&quot;origPos&quot;:null}" fill="#256aa6" stroke="none" stroke-width="0" stroke-linecap="butt"/><path d="M287.92,298.45588h-25.66667" data-paper-data="{&quot;origPos&quot;:null}" fill="none" stroke="#256aa6" stroke-width="17.65" stroke-linecap="round"/></g></g><g data-paper-data="{&quot;origPos&quot;:null,&quot;index&quot;:null}"><g data-paper-data="{&quot;origPos&quot;:null}" stroke="none" stroke-width="0" stroke-linecap="butt"><path d="M57.98579,271.24276l97.12698,0.38234l0.1344,123.04457c0,0 0.18771,3.51337 -0.87636,4.90636c-0.93025,1.21781 -2.91953,1.80293 -4.59473,1.80293c-125.61478,0 -81.19837,0 -83.3495,0c-0.71705,0 -2.26429,0 -2.98132,0c-1.80914,0 -3.55348,-0.43076 -4.58294,-1.7312c-1.03541,-1.30796 -0.79224,-4.81142 -0.79224,-4.81142z" data-paper-data="{&quot;origPos&quot;:null,&quot;index&quot;:null}" fill="#21548f"/><path d="M57.84895,269.96547l97.12698,0.01442l0.1344,29.65591l-97.17709,0.16667z" data-paper-data="{&quot;origPos&quot;:null,&quot;index&quot;:null}" fill="#11b738"/><path d="M57.93326,271.03617c0,0 -0.24317,-4.00346 0.79224,-5.31142c1.02945,-1.30044 2.77379,-1.7312 4.58294,-1.7312c0.71704,0 2.26428,0 2.98132,0c2.15113,0 -42.26529,0 83.3495,0c1.6752,0 3.66448,0.58512 4.59473,1.80293c1.06408,1.39299 0.87636,4.90636 0.87636,4.90636z" data-paper-data="{&quot;origPos&quot;:null,&quot;index&quot;:null}" fill="#7aff75"/></g><g data-paper-data="{&quot;origPos&quot;:null}"><path d="M127.55131,330.42202v-17.76777h26.40872v17.76777z" data-paper-data="{&quot;origPos&quot;:null}" fill="#256aa6" stroke="none" stroke-width="0" stroke-linecap="butt"/><path d="M108.09923,321.41639h25.66667" data-paper-data="{&quot;origPos&quot;:null}" fill="none" stroke="#256aa6" stroke-width="17.65" stroke-linecap="round"/></g></g></g></g></svg>