<svg version="1.1" xmlns="http://www.w3.org/2000/svg" xmlns:xlink="http://www.w3.org/1999/xlink" width="105.88977" height="90" viewBox="0,0,105.88977,90"><g transform="translate(-193.43509,-138.01146)"><g data-paper-data="{&quot;isPaintingLayer&quot;:true}" fill-rule="nonzero" stroke-miterlimit="10" stroke-dasharray="" stroke-dashoffset="0" style="mix-blend-mode: normal"><g id="color" stroke="none" stroke-width="1" stroke-linecap="butt" stroke-linejoin="miter"><path d="M226.65726,180.17359c0,-8.22467 6.66741,-14.89209 14.89209,-14.89209c8.22467,0 14.89209,6.66741 14.89209,14.89209c0,8.22467 -6.66741,14.89209 -14.89209,14.89209c-8.22467,0 -14.89209,-6.66741 -14.89209,-14.89209z" fill="#fcea2b"/><path d="M226.35246,179.12476c0.7209,-1.1851 2.26614,-1.56137 3.45124,-0.84047c1.1851,0.7209 1.56144,2.26608 0.84047,3.45124l-0.14396,0.21234l-4.4621,5.7198l-4.48829,-5.75505c-0.08954,-0.12274 -0.16772,-0.25335 -0.23368,-0.39023c-0.60207,-1.24969 -0.07707,-2.75088 1.17269,-3.35295c1.24969,-0.60207 2.75088,-0.07707 3.35295,1.17269c0.02141,0.04437 0.05721,0.08017 0.10158,0.10158c0.10846,0.05237 0.23877,0.00683 0.29108,-0.10158c0.03574,-0.07434 0.07508,-0.14687 0.11802,-0.21736z" fill="#ffa7c0"/><path d="M249.31109,162.37116c0.7209,-1.1851 2.26608,-1.56144 3.45124,-0.84047c1.1851,0.7209 1.56144,2.26608 0.84047,3.45124l-0.14396,0.21234l-4.4621,5.7198l-4.48829,-5.75505c-0.08954,-0.12274 -0.16772,-0.25335 -0.23368,-0.39023c-0.60207,-1.24969 -0.077,-2.75088 1.17269,-3.35295c1.24969,-0.60207 2.75088,-0.07707 3.35295,1.17269c0.02141,0.04437 0.05721,0.08017 0.10158,0.10158c0.10846,0.05237 0.23877,0.00683 0.29108,-0.10158c0.03574,-0.07434 0.07508,-0.14687 0.11802,-0.21736z" fill="#ffa7c0"/><path d="M254.27511,190.29383c0.7209,-1.1851 2.26608,-1.56144 3.45124,-0.84047c1.1851,0.7209 1.56144,2.26608 0.84047,3.45124l-0.14396,0.21234l-4.4621,5.7198l-4.48829,-5.75505c-0.08954,-0.12274 -0.16772,-0.25335 -0.23368,-0.39023c-0.60207,-1.24969 -0.07707,-2.75088 1.17269,-3.35295c1.24969,-0.60207 2.75088,-0.07707 3.35295,1.17269c0.02141,0.04437 0.05721,0.08017 0.10158,0.10158c0.10846,0.05237 0.23877,0.00683 0.29108,-0.10158c0.03574,-0.07434 0.07508,-0.14687 0.11802,-0.21736z" fill="#ffa7c0"/></g><g id="line" fill="none" stroke="#000000" stroke-width="1.25" stroke-linecap="round"><path d="M247.63954,185.6367c-3.53675,2.91562 -8.64374,2.91562 -12.18049,0" stroke-linejoin="round"/><path d="M253.76399,190.51116c0.02141,0.04437 0.05721,0.08017 0.10158,0.10158c0.10846,0.05237 0.23877,0.00683 0.29108,-0.10158c0.06683,-0.13924 0.14631,-0.27203 0.23753,-0.39663c0.81931,-1.11951 2.39105,-1.36294 3.51056,-0.54362c1.11951,0.81931 1.36294,2.39105 0.54362,3.51056l-4.48829,5.75505l-4.4621,-5.7198l-0.14396,-0.21234c-0.23858,-0.39303 -0.36473,-0.84401 -0.36473,-1.30374c-0.00006,-1.38788 1.12497,-2.5131 2.51292,-2.51316c0.96594,-0.00329 1.84705,0.55132 2.2618,1.42368z" stroke-linejoin="round"/><path d="M225.84134,179.34203c0.02141,0.04437 0.05721,0.08017 0.10158,0.10158c0.10846,0.05237 0.23877,0.00683 0.29108,-0.10158c0.06683,-0.13918 0.14631,-0.27197 0.23753,-0.39656c0.81931,-1.11951 2.39105,-1.36294 3.51056,-0.54362c1.11951,0.81931 1.36294,2.39105 0.54362,3.51056l-4.48829,5.75505l-4.4621,-5.7198l-0.14396,-0.21234c-0.23858,-0.39303 -0.36473,-0.84401 -0.36473,-1.30374c-0.00006,-1.38788 1.12497,-2.5131 2.51292,-2.51316c0.96594,-0.00329 1.84705,0.55132 2.2618,1.42362z" stroke-linejoin="round"/><path d="M248.79997,162.58852c0.02141,0.04437 0.05721,0.08017 0.10158,0.10158c0.10846,0.05237 0.23877,0.00683 0.29108,-0.10158c0.06683,-0.13924 0.14631,-0.27203 0.23753,-0.39663c0.81931,-1.11951 2.39105,-1.36294 3.51056,-0.54362c1.11951,0.81931 1.36294,2.39105 0.54362,3.51056l-4.48829,5.75505l-4.4621,-5.7198l-0.14396,-0.21234c-0.23858,-0.39303 -0.36473,-0.84401 -0.36473,-1.30374c-0.00006,-1.38788 1.12497,-2.5131 2.51292,-2.51316c0.96594,-0.00329 1.84705,0.55132 2.2618,1.42368z" stroke-linejoin="round"/><path d="M245.77343,193.80966c-1.33489,0.41307 -2.75355,0.63552 -4.22414,0.63552c-4.92624,0 -9.26952,-2.49591 -11.83425,-6.29222" stroke-linejoin="round"/><path d="M252.56193,171.09557c2.03593,2.46694 3.25895,5.62964 3.25895,9.07803c0,2.23599 -0.51421,4.3519 -1.43082,6.23588" stroke-linejoin="round"/><path d="M228.35263,174.73009c2.13968,-5.18164 7.24233,-8.82809 13.19669,-8.82809" stroke-linejoin="round"/><path d="M233.51748,177.94202c0.29493,-0.66375 0.82558,-1.19447 1.48933,-1.48933c1.48009,-0.65761 3.21309,0.00918 3.8707,1.48933" stroke-linejoin="miter"/><path d="M244.22113,177.94202c0.29493,-0.66375 0.82558,-1.19447 1.48933,-1.48933c1.48009,-0.65761 3.21309,0.00918 3.8707,1.48933" stroke-linejoin="miter"/></g><path d="M193.4351,228.01146v-90h105.88977v90z" fill="none" stroke="none" stroke-width="none" stroke-linecap="butt" stroke-linejoin="miter"/></g></g></svg>