<svg version="1.1" xmlns="http://www.w3.org/2000/svg" xmlns:xlink="http://www.w3.org/1999/xlink" width="384.99089" height="293.76065"><g transform="translate(-136.44149,-136.18364)"><g data-paper-data="{&quot;isPaintingLayer&quot;:true}" fill-rule="nonzero" stroke-linejoin="miter" stroke-miterlimit="10" stroke-dasharray="" stroke-dashoffset="0" style="mix-blend-mode: normal"><path d="M136.4415,426.75176l0.699,-260.95889l122.64253,-24.1533l134.70786,131.26617l126.19223,-6.1339l0.74927,163.17244z" data-paper-data="{&quot;origPos&quot;:null,&quot;index&quot;:null}" fill="#03a63b" stroke="none" stroke-width="0" stroke-linecap="butt"/><path d="M520.93175,270.97909c0,0 -124.57103,0.54444 -124.51346,0.29067c0.17271,-0.76132 1.87713,-7.75278 1.87713,-7.75278c0,0 103.98072,0 119.26948,0c0.86904,0 2.16532,1.17007 2.64791,2.52452c0.55201,1.54929 0.71893,5.30832 0.71893,5.30832z" data-paper-data="{&quot;origPos&quot;:null,&quot;index&quot;:null}" fill="#b4ff53" stroke="none" stroke-width="0" stroke-linecap="butt"/><path d="M267.14087,172.47525l-130.01984,-0.16667l0.01847,-29.65591l130.12559,-0.01442z" data-paper-data="{&quot;origPos&quot;:null,&quot;index&quot;:null}" fill="#48c900" stroke="none" stroke-width="0" stroke-linecap="butt"/><path d="M136.89664,143.76648c0,0 0.50021,-3.55908 1.96893,-5.30832c1.46872,-1.74924 4.89791,-2.27452 4.89791,-2.27452h117.60281c0,0 1.37109,6.99146 1.5438,7.75278c0.05757,0.25377 -126.01345,-0.16994 -126.01345,-0.16994z" data-paper-data="{&quot;origPos&quot;:null,&quot;index&quot;:null}" fill="#b4ff53" stroke="none" stroke-width="0" stroke-linecap="butt"/><path d="M397.80016,267.65635l-136.01852,-127.41462" data-paper-data="{&quot;origPos&quot;:null,&quot;index&quot;:null,&quot;origRot&quot;:0}" fill="none" stroke="#b4ff53" stroke-width="7.5" stroke-linecap="round"/></g></g></svg>