<svg version="1.1" xmlns="http://www.w3.org/2000/svg" xmlns:xlink="http://www.w3.org/1999/xlink" width="292.09089" height="131.02019" viewBox="0,0,292.09089,131.02019"><g transform="translate(-230.67927,13.58579)"><g data-paper-data="{&quot;isPaintingLayer&quot;:true}" stroke="none" stroke-miterlimit="10" stroke-dasharray="" stroke-dashoffset="0" style="mix-blend-mode: normal"><path d="M366.99233,8.84903h93.69833c5.8697,0 10.62819,4.75853 10.62819,10.62823v45.98685c0,5.8697 -4.75849,10.62819 -10.62819,10.62819h-93.69833c-5.86991,0 -10.62843,-4.75849 -10.62843,-10.62819v-45.98685c0,-5.8697 4.75853,-10.62823 10.62843,-10.62823z" data-paper-data="{&quot;origPos&quot;:null}" fill="#ffffff" fill-rule="evenodd" stroke-width="1" stroke-linecap="round" stroke-linejoin="round"/><path d="M230.67928,117.4344v-131.02019h292.09089v131.02019z" fill="none" fill-rule="nonzero" stroke-width="0" stroke-linecap="butt" stroke-linejoin="miter"/><path d="" data-paper-data="{&quot;origPos&quot;:null}" fill="#000000" fill-rule="nonzero" stroke-width="1" stroke-linecap="butt" stroke-linejoin="miter"/><g data-paper-data="{&quot;origPos&quot;:null}" fill-rule="nonzero" stroke-width="1" stroke-linecap="butt" stroke-linejoin="miter"><path d="M431.77693,60.16093c0,3.41201 -1.59926,6.29457 -4.91204,6.88285h-25.01712c-3.31277,-0.58827 -4.91204,-3.47084 -4.91204,-6.88285c0,-2.64725 1.59926,-5.05919 3.88394,-5.94161c-0.17135,-0.35297 0.45693,-0.35297 0.45693,-0.76476c0,-1.29421 0.28558,-2.70608 1.54215,-2.70608c0.17135,0 0.28558,0.05883 0.39981,0.05883c-0.22847,-0.47062 0.39981,-0.52945 0.39981,-1.0589c0,-2.05897 0.91387,-4.05912 2.85584,-4.05912c0.57116,0 0.97098,0.11765 1.54215,0.35297v0c0,-3.41201 2.68449,-6.17691 5.94014,-6.11809c3.31277,0 5.94014,2.70608 5.99725,6.05926c2.17043,-0.88242 4.74069,-0.47062 6.5113,1.35304c1.82773,1.82366 1.59926,4.64739 0.62828,6.94167c2.34178,0.82359 4.62645,3.1767 4.68357,5.88278z" data-paper-data="{&quot;origPos&quot;:null}" fill="#007af4"/><path d="M431.71981,58.8525c0,3.41201 -2.68449,6.11809 -5.99725,6.11809h-22.84668c-3.31277,0 -5.99725,-2.70608 -5.94014,-6.17691c0,-2.64725 1.59926,-4.82388 3.88394,-5.70629c-0.17135,-0.35297 -0.28558,-0.70593 -0.28558,-1.11773c0,-1.29421 1.0281,-2.35311 2.28467,-2.35311c0.17135,0 0.28558,0.05883 0.39981,0.05883c-0.17135,-0.41179 -0.28558,-0.88242 -0.28558,-1.41187c0,-2.00014 1.59926,-3.64732 3.54124,-3.64732c0.57116,0 0.97098,0.11765 1.54215,0.35297v0c0,-3.41201 2.68449,-6.17691 5.94014,-6.17691c3.31277,0 5.94014,2.70608 5.99725,6.05926c2.17043,-0.88242 4.74069,-0.47062 6.5113,1.35304c1.77061,1.82366 2.17043,4.58856 1.19945,6.88285c2.34178,0.82359 4.05529,3.05904 4.05529,5.76512z" data-paper-data="{&quot;origPos&quot;:null}" fill="#00a6f9"/><path d="M425.72251,64.97059h-7.48229l-15.07881,-15.4717c-0.17135,-0.41179 -0.22847,-0.76476 -0.22847,-1.23538c0,-2.00014 1.59926,-3.64732 3.54124,-3.64732c0.57116,0 0.97098,0.11765 1.54215,0.35297c0,-3.41201 2.68449,-6.17691 5.94014,-6.23574c3.31277,0 5.94014,2.70608 5.99725,6.05926c2.17043,-0.88242 4.74069,-0.47062 6.5113,1.35304c1.77061,1.88249 2.17043,4.58856 1.19945,6.88285c2.34178,0.88242 4.05529,3.11787 4.05529,5.82395c0,3.41201 -2.68449,6.11809 -5.99725,6.11809z" data-paper-data="{&quot;origPos&quot;:null}" fill="#0093f7"/><g data-paper-data="{&quot;origPos&quot;:null}" fill="#007af4"><path d="M414.29922,50.32247l5.25474,5.41216c0.62828,0.6471 0.62828,1.706 0,2.35312c-0.62828,0.6471 -1.65638,0.6471 -2.28467,0l-2.97007,-3.00022l-2.91295,3.00022c-0.62828,0.6471 -1.65638,0.6471 -2.28467,0c-0.62828,-0.6471 -0.62828,-1.706 0,-2.35311z"/><path d="M414.29922,52.67558c0.91386,0 1.7135,0.76476 1.7135,1.706v7.64761c0,0.94124 -0.79963,1.706 -1.7135,1.706c-0.91386,0 -1.7135,-0.76476 -1.7135,-1.706v-7.64761c0,-0.94124 0.79963,-1.706 1.7135,-1.706z"/></g><g data-paper-data="{&quot;origPos&quot;:null}" fill="#ffffff"><path d="M414.29922,49.69676c0.6685,-0.02348 1.26825,0.69657 1.26825,0.69657l3.98649,4.10591c0.62828,0.6471 0.62828,1.706 0,2.35312c-0.62828,0.6471 -1.65638,0.6471 -2.28467,0l-2.97007,-3.00022l-2.91295,3.00022c-0.62828,0.6471 -1.65638,0.6471 -2.28467,0c-0.62828,-0.6471 -0.62828,-1.706 0,-2.35312l3.85508,-4.0142c0,0 0.67405,-0.76479 1.34254,-0.78828z" data-paper-data="{&quot;origPos&quot;:null}"/><path d="M414.29922,51.49903c0.91386,0 1.7135,0.76476 1.7135,1.706v7.64761c0,0.94124 -0.79963,1.706 -1.7135,1.706c-0.91386,0 -1.7135,-0.76476 -1.7135,-1.706v-7.64761c0,-1.00007 0.79963,-1.706 1.7135,-1.706z"/></g></g><g fill-opacity="0.93614" fill="#000000" fill-rule="evenodd" stroke-width="1" stroke-linecap="round" stroke-linejoin="round"><path d="M375.05508,25.76533c0,0.40844 -0.27774,0.70252 -0.76787,1.02931c-0.7352,0.50647 -1.68278,0.81688 -2.84275,0.81688c-2.87543,0 -5.75086,-2.38533 -5.75086,-5.83258c0,-3.44725 2.87543,-5.83255 5.75086,-5.83255c1.15997,0 2.10756,0.31042 2.84275,0.81688c0.49013,0.32675 0.76787,0.62083 0.76787,1.02927c0,0.50647 -0.3921,0.80055 -0.81688,0.80055c-0.34309,0 -0.57182,-0.16338 -0.78421,-0.32675c-0.35943,-0.27774 -1.07829,-0.63717 -1.9932,-0.63717c-2.04221,0 -3.92104,1.76447 -3.92104,4.14977c0,2.3853 1.87883,4.14977 3.92104,4.14977c0.91491,0 1.63377,-0.35943 1.9932,-0.63717c0.21239,-0.16338 0.44112,-0.32675 0.78421,-0.32675c0.42478,0 0.81688,0.29408 0.81688,0.80055z"/><path d="M384.8905,23.26566c0,2.92444 -2.43431,4.34585 -4.31328,4.34585c-1.87883,0 -4.29681,-1.42141 -4.29681,-4.34585c0,-2.90811 2.41798,-4.36216 4.29681,-4.36216c1.87897,0 4.31328,1.45405 4.31328,4.36216zM377.99586,23.26566c0,1.84616 1.32335,2.84275 2.58135,2.84275c1.27448,0 2.59783,-0.9966 2.59783,-2.84275c0,-1.86249 -1.32335,-2.85909 -2.59783,-2.85909c-1.258,0 -2.58135,0.9966 -2.58135,2.85909z"/><path d="M394.31734,22.69385v4.0191c0,0.47379 -0.37577,0.8659 -0.84956,0.8659c-0.47379,0 -0.8659,-0.3921 -0.8659,-0.8659v-4.0191c0,-1.63377 -0.93125,-2.28727 -1.9932,-2.28727c-1.56842,0 -2.2546,1.40504 -2.35262,2.10756v4.19882c0,0.47379 -0.3921,0.8659 -0.8659,0.8659c-0.47379,0 -0.8659,-0.3921 -0.8659,-0.8659v-6.87819c0,-0.49013 0.3921,-0.88223 0.8659,-0.88223c0.47379,0 0.8659,0.3921 0.8659,0.88223v1.07829c0.08169,-0.57182 1.06195,-1.9932 2.92444,-1.9932c1.58475,0 3.13683,0.9966 3.13683,3.774z"/><path d="M404.07092,22.69385v4.0191c0,0.47379 -0.37577,0.8659 -0.84956,0.8659c-0.47379,0 -0.8659,-0.3921 -0.8659,-0.8659v-4.0191c0,-1.63377 -0.93125,-2.28727 -1.9932,-2.28727c-1.56842,0 -2.2546,1.40504 -2.35262,2.10756v4.19882c0,0.47379 -0.3921,0.8659 -0.8659,0.8659c-0.47379,0 -0.8659,-0.3921 -0.8659,-0.8659v-6.87819c0,-0.49013 0.3921,-0.88223 0.8659,-0.88223c0.47379,0 0.8659,0.3921 0.8659,0.88223v1.07829c0.08169,-0.57182 1.06195,-1.9932 2.92444,-1.9932c1.58475,0 3.13683,0.9966 3.13683,3.774z"/><path d="M414.0369,22.97159c0,0.66984 -0.37577,0.93125 -1.07829,0.93125l-5.47312,-0.01634c0.17971,1.5194 1.37236,2.27094 2.67938,2.27094c0.66984,0 1.1273,-0.16338 1.63377,-0.47379c0.27774,-0.14704 0.45745,-0.2614 0.68618,-0.2614c0.37577,0 0.60449,0.2614 0.60449,0.62083c0,0.21239 -0.08169,0.44112 -0.44112,0.73523c-0.62083,0.50647 -1.5194,0.80055 -2.54868,0.80055c-2.1239,0 -4.39483,-1.35606 -4.39483,-4.31318c0,-2.94078 2.36896,-4.36216 4.23146,-4.36216c1.86249,0 4.10075,1.47039 4.10075,4.06808zM407.4855,22.64483h4.86863c-0.14704,-1.55208 -1.32335,-2.23826 -2.41798,-2.23826c-1.07829,0 -2.30361,0.68618 -2.45065,2.23826z"/><path d="M422.84291,25.68364c0,0.3921 -0.27774,0.60449 -0.45745,0.78421c-0.70252,0.73523 -1.61743,1.111 -2.74473,1.111c-1.94418,0 -4.29681,-1.42141 -4.29681,-4.32952c0,-2.92444 2.35262,-4.34582 4.29681,-4.34582c1.1273,0 2.04221,0.37577 2.74473,1.11096c0.17971,0.17971 0.45745,0.3921 0.45745,0.78421c0,0.40844 -0.34309,0.66984 -0.70252,0.66984c-0.32675,0 -0.57182,-0.17971 -0.70252,-0.31042c-0.44112,-0.52281 -1.1273,-0.75153 -1.73179,-0.75153c-1.37236,0 -2.6467,0.98026 -2.6467,2.84275c0,1.84616 1.27434,2.82642 2.6467,2.82642c0.60449,0 1.29068,-0.22873 1.73179,-0.75153c0.1307,-0.1307 0.37577,-0.31042 0.70252,-0.31042c0.35943,0 0.70252,0.2614 0.70252,0.66984z"/><path d="M428.77348,26.61492c0,0.66984 -0.76787,0.96392 -1.68278,0.96392c-0.98026,0 -1.94418,-0.34309 -1.94418,-2.22196v-4.96665h-0.62083c-0.42478,0 -0.70252,-0.27774 -0.70252,-0.70252c0,-0.40844 0.27774,-0.68618 0.70252,-0.68618h0.62083v-1.27434c0,-0.45745 0.3921,-0.84956 0.84956,-0.84956c0.47379,0 0.8659,0.3921 0.8659,0.84956v1.27434h1.19265c0.42478,0 0.71886,0.27774 0.71886,0.68618c0,0.42478 -0.29408,0.70252 -0.71886,0.70252h-1.19265v4.98299c0,0.49013 0.19605,0.71886 0.57182,0.71886c0.21239,0 0.45745,-0.06535 0.63717,-0.08169c0.40844,-0.06535 0.70252,0.19605 0.70252,0.60453z"/><path d="M430.24387,16.53454c0,-0.47379 0.40844,-0.8659 0.88223,-0.8659c0.47379,0 0.88223,0.3921 0.88223,0.8659c0,0.47379 -0.40844,0.8659 -0.88223,0.8659c-0.47379,0 -0.88223,-0.3921 -0.88223,-0.8659zM431.992,19.83475v6.87819c0,0.49013 -0.3921,0.88223 -0.8659,0.88223c-0.47379,0 -0.8659,-0.3921 -0.8659,-0.88223v-6.87819c0,-0.49013 0.3921,-0.88223 0.8659,-0.88223c0.47379,0 0.8659,0.3921 0.8659,0.88223z"/><path d="M441.76193,22.69385v4.0191c0,0.47379 -0.37577,0.8659 -0.84956,0.8659c-0.47379,0 -0.8659,-0.3921 -0.8659,-0.8659v-4.0191c0,-1.63377 -0.93125,-2.28727 -1.9932,-2.28727c-1.56842,0 -2.2546,1.40504 -2.35262,2.10756v4.19882c0,0.47379 -0.3921,0.8659 -0.8659,0.8659c-0.47379,0 -0.8659,-0.3921 -0.8659,-0.8659v-6.87819c0,-0.49013 0.3921,-0.88223 0.8659,-0.88223c0.47379,0 0.8659,0.3921 0.8659,0.88223v1.07829c0.08169,-0.57182 1.06195,-1.9932 2.92444,-1.9932c1.58475,0 3.13683,0.9966 3.13683,3.774z"/><path d="M451.80959,26.72929c0,0.04901 0,0.11436 -0.01634,0.16338v0.44112c0,2.67938 -2.41798,3.5126 -4.14977,3.5126c-1.04561,0 -1.86249,-0.29408 -2.23826,-0.49013c-0.34309,-0.14704 -0.53914,-0.40844 -0.53914,-0.7352c0,-0.3921 0.31042,-0.68618 0.68618,-0.68618c0.09803,0 0.22873,0.01634 0.40844,0.08169c0.35943,0.14704 0.96392,0.34309 1.71546,0.34309c1.42138,0 2.3853,-0.7352 2.3853,-2.02587v-1.48676c-0.11436,0.7352 -1.1273,1.7645 -2.67938,1.7645c-1.81348,0 -3.98639,-1.40507 -3.98639,-4.36219c0,-2.90811 2.18925,-4.34582 3.98639,-4.34582c1.20899,0 2.2546,0.62083 2.67938,1.56842v-0.65351c0,-0.47379 0.3921,-0.8659 0.8659,-0.8659c0.47379,0 0.88223,0.3921 0.88223,0.8659zM450.14315,23.24933c0,-2.04221 -1.37236,-2.85909 -2.48333,-2.85909c-1.19265,0 -2.53234,0.93125 -2.53234,2.85909c0,1.94418 1.33969,2.87543 2.53234,2.87543c1.11096,0 2.48333,-0.84956 2.48333,-2.87543z"/><path d="M453.44336,26.51686c0,-0.55548 0.45745,-1.01294 1.02927,-1.01294c0.53914,0 0.9966,0.45745 0.9966,1.01294c0,0.57185 -0.45745,1.02931 -0.9966,1.02931c-0.57182,0 -1.02927,-0.45745 -1.02927,-1.02931z"/><path d="M456.77624,26.51686c0,-0.55548 0.45745,-1.01294 1.02927,-1.01294c0.53914,0 0.9966,0.45745 0.9966,1.01294c0,0.57185 -0.45745,1.02931 -0.9966,1.02931c-0.57182,0 -1.02927,-0.45745 -1.02927,-1.02931z"/><path d="M460.10913,26.51686c0,-0.55548 0.45745,-1.01294 1.02927,-1.01294c0.53914,0 0.9966,0.45745 0.9966,1.01294c0,0.57185 -0.45745,1.02931 -0.9966,1.02931c-0.57182,0 -1.02927,-0.45745 -1.02927,-1.02931z"/></g></g></g></svg>