<svg version="1.1" xmlns="http://www.w3.org/2000/svg" xmlns:xlink="http://www.w3.org/1999/xlink" width="565.37721" height="209.36969" viewBox="0,0,565.37721,209.36969"><defs><linearGradient x1="393.33552" y1="182.03983" x2="393.33552" y2="358.50218" gradientUnits="userSpaceOnUse" id="color-1"><stop offset="0" stop-color="#2da7fe"/><stop offset="1" stop-color="#58c7ff"/></linearGradient><linearGradient x1="145.45574" y1="144.83761" x2="145.45574" y2="361.20729" gradientUnits="userSpaceOnUse" id="color-2"><stop offset="0" stop-color="#20a2ff"/><stop offset="1" stop-color="#4cc3ff"/></linearGradient></defs><g transform="translate(48.28885,-151.83759)"><g data-paper-data="{&quot;isPaintingLayer&quot;:true}" fill-rule="nonzero" stroke="none" stroke-width="0" stroke-linecap="butt" stroke-linejoin="miter" stroke-miterlimit="10" stroke-dasharray="" stroke-dashoffset="0" style="mix-blend-mode: normal"><path d="M247.71115,358.50217c0,0 34.06761,-52.12131 53.95346,-84.4866c20.77191,-31.4848 44.62697,-82.87079 80.67161,-82.97559c34.48754,-0.10771 60.32216,44.78959 82.59574,80.04449c22.27358,35.2549 52.1564,87.41771 52.1564,87.41771z" data-paper-data="{&quot;origPos&quot;:null,&quot;index&quot;:null}" fill="url(#color-1)"/><path d="M-48.28885,361.20728c0,0 45.32494,-72.49172 71.78187,-112.1765c27.6358,-38.60515 59.37353,-97.0645 107.32879,-97.19299c45.88363,-0.13207 80.25506,65.95423 109.88873,109.18208c29.63367,43.22786 69.391,100.1874 69.391,100.1874z" data-paper-data="{&quot;origPos&quot;:null,&quot;index&quot;:null}" fill="url(#color-2)"/></g></g></svg>