<svg version="1.1" xmlns="http://www.w3.org/2000/svg" xmlns:xlink="http://www.w3.org/1999/xlink" width="502.60883" height="337.50348"><defs><linearGradient x1="165.36023" y1="165.85507" x2="165.36023" y2="313.08074" gradientUnits="userSpaceOnUse" id="color-1"><stop offset="0" stop-color="#fb64b3"/><stop offset="1" stop-color="#f56fb6"/></linearGradient><linearGradient x1="357.79131" y1="159.85507" x2="357.79131" y2="313.08074" gradientUnits="userSpaceOnUse" id="color-2"><stop offset="0" stop-color="#fb64b3"/><stop offset="1" stop-color="#f56fb6"/></linearGradient><linearGradient x1="419.79133" y1="193.85509" x2="419.79133" y2="347.08078" gradientUnits="userSpaceOnUse" id="color-3"><stop offset="0" stop-color="#fb64b3"/><stop offset="1" stop-color="#f56fb6"/></linearGradient><linearGradient x1="106.79132" y1="201.85509" x2="106.79132" y2="320.56863" gradientUnits="userSpaceOnUse" id="color-4"><stop offset="0" stop-color="#fe76be"/><stop offset="1" stop-color="#f780c0"/></linearGradient><linearGradient x1="325.79131" y1="200.85509" x2="325.79131" y2="319.56863" gradientUnits="userSpaceOnUse" id="color-5"><stop offset="0" stop-color="#fe76be"/><stop offset="1" stop-color="#f780c0"/></linearGradient><linearGradient x1="61.18244" y1="270.57849" x2="61.18244" y2="425.12435" gradientUnits="userSpaceOnUse" id="color-6"><stop offset="0" stop-color="#fb8cce"/><stop offset="1" stop-color="#edbbd9"/></linearGradient><linearGradient x1="130.2563" y1="236.72363" x2="130.2563" y2="453.45677" gradientUnits="userSpaceOnUse" id="color-7"><stop offset="0" stop-color="#fa86cc"/><stop offset="1" stop-color="#edbbd9"/></linearGradient><linearGradient x1="214.95726" y1="261.71341" x2="214.95726" y2="454.86962" gradientUnits="userSpaceOnUse" id="color-8"><stop offset="0" stop-color="#fb8cce"/><stop offset="1" stop-color="#edbbd9"/></linearGradient><linearGradient x1="283.08071" y1="245.58528" x2="283.08071" y2="400.1311" gradientUnits="userSpaceOnUse" id="color-9"><stop offset="0" stop-color="#fb8cce"/><stop offset="1" stop-color="#efb0d6"/></linearGradient><linearGradient x1="344.52568" y1="286.52396" x2="344.52568" y2="440.03225" gradientUnits="userSpaceOnUse" id="color-10"><stop offset="0" stop-color="#f593ce"/><stop offset="1" stop-color="#efb5d8"/></linearGradient><linearGradient x1="408.06344" y1="269.92269" x2="408.06344" y2="424.46855" gradientUnits="userSpaceOnUse" id="color-11"><stop offset="0" stop-color="#fb8cce"/><stop offset="1" stop-color="#efb3d7"/></linearGradient><linearGradient x1="470.79133" y1="227.85509" x2="470.79133" y2="420.81298" gradientUnits="userSpaceOnUse" id="color-12"><stop offset="0" stop-color="#fa88cc"/><stop offset="1" stop-color="#eeb7d8"/></linearGradient></defs><g transform="translate(-14.05436,-159.85505)"><g data-paper-data="{&quot;isPaintingLayer&quot;:true}" fill-rule="nonzero" stroke-linejoin="miter" stroke-miterlimit="10" stroke-dasharray="" stroke-dashoffset="0" style="mix-blend-mode: normal"><path d="M107.42039,309.66703l21.82426,-106.55724c0,0 1.90815,-37.25471 35.70803,-37.25471c35.14369,0 33.62016,37.77942 33.62016,37.77942l1.90298,109.44628z" data-paper-data="{&quot;origPos&quot;:null}" fill="url(#color-1)" stroke="none" stroke-width="0" stroke-linecap="butt"/><path d="M323.50901,310.56863l-2.26441,-111.9406c0,0 0.94516,-38.77298 36.12251,-38.77298c36.57592,0 34.99031,39.31907 34.99031,39.31907l1.98054,113.90663z" data-paper-data="{&quot;origPos&quot;:null}" fill="url(#color-2)" stroke="none" stroke-width="0" stroke-linecap="butt"/><path d="M385.50906,344.56869l-2.26441,-111.9406c0,0 0.94516,-38.77298 36.12251,-38.77298c36.57592,0 34.99031,39.31907 34.99031,39.31907l1.98054,113.90663z" data-paper-data="{&quot;origPos&quot;:null}" fill="url(#color-3)" stroke="none" stroke-width="0" stroke-linecap="butt"/><path d="M72.50906,320.56863l-2.26441,-79.94061c0,0 0.94516,-38.77298 36.12251,-38.77298c36.57592,0 34.99031,39.31907 34.99031,39.31907l1.98054,70.90662z" data-paper-data="{&quot;origPos&quot;:null}" fill="url(#color-4)" stroke="none" stroke-width="0" stroke-linecap="butt"/><path d="M291.50901,319.56863l-2.26441,-79.94061c0,0 0.94516,-38.77298 36.12251,-38.77298c36.57592,0 34.99031,39.31907 34.99031,39.31907l1.98054,70.90662z" data-paper-data="{&quot;origPos&quot;:null}" fill="url(#color-5)" stroke="none" stroke-width="0" stroke-linecap="butt"/><g data-paper-data="{&quot;origPos&quot;:null}" stroke="none" stroke-width="0" stroke-linecap="butt"><path d="M22.62098,309.35147c0,0 3.94516,-38.77298 39.12251,-38.77298c36.57592,0 34.99031,39.31907 34.99031,39.31907l-0.99861,147.49095c-19.43077,0.08214 -70.07208,4.30779 -73.52284,3.20894c0,0 -0.15456,-29.77558 -0.09142,-48.83629c0.13238,-39.96682 0.50005,-102.40969 0.50005,-102.40969z" data-paper-data="{&quot;origPos&quot;:null}" fill="url(#color-6)"/><path d="M83.65108,292.09695c0,0 0.78374,-55.37334 47.22762,-55.37334c29.0593,0 44.92875,28.67963 45.69148,45.75323c0.13118,2.93656 2.274,-1.33652 2.274,-1.33652c0,0 -1.14777,65.22228 -1.8824,106.96786c-1.23182,69.99843 221.71293,-32.92771 290.62102,-20.55955c58.4475,10.49061 30.20947,92.22915 30.20947,92.22915c-4.65535,-0.00148 -412.55644,1.7367 -418.60348,1.66089c0,0 4.4623,-55.65743 4.4623,-68.35015c0,-38.07817 0,-100.99157 0,-100.99157z" data-paper-data="{&quot;origPos&quot;:null}" fill="url(#color-7)"/><path d="M171.35523,310.17305c0,0 3.20279,-48.45968 43.09597,-48.45968c39.48659,0 41.74519,50.17978 41.74519,50.17978l1.87749,113.60542c-12.08157,-0.10905 -23.79696,-0.24946 -34.28321,-0.36751c-3.02899,-0.0341 -6.15858,-0.86839 -9.23131,-0.90863c-4.82865,-0.06323 -9.68118,-0.22122 -14.47535,0.47899c-3.07167,0.44863 -5.7122,1.76285 -8.8544,1.7925c-6.46794,0.06104 -12.93647,0.08477 -19.4048,0.06531c-0.19304,-39.99412 -0.35752,-86.19943 -0.41824,-102.48028c-0.02024,-5.42695 -0.05133,-13.90589 -0.05133,-13.90589z" data-paper-data="{&quot;origPos&quot;:null}" fill="url(#color-8)"/><path d="M246.53409,284.35821c0,0 0.94516,-38.77298 36.12251,-38.77298c36.57592,0 34.99031,39.31907 34.99031,39.31907l1.7341,140.29018c-2.08284,0.22614 -4.16853,0.36959 -6.25845,0.3908c-20.13,0.20436 -43.36493,0.03968 -64.66181,-0.18007z" data-paper-data="{&quot;origPos&quot;:null}" fill="url(#color-9)"/><path d="M308.22435,325.03667c0,0 0.93882,-38.51267 35.88,-38.51267c36.33036,0 34.75539,39.0551 34.75539,39.0551l1.63091,94.88574c-9.2461,-0.21231 -23.66907,-0.54643 -33.28794,0.27403c-11.38392,0.97102 -22.66897,4.73061 -34.0802,4.84646c-0.96997,0.00984 -1.94716,0.01883 -2.93099,0.027z" data-paper-data="{&quot;origPos&quot;:null}" fill="url(#color-10)"/><path d="M371.51676,308.6957c0,0 0.94516,-38.77298 36.12251,-38.77298c36.57592,0 34.99031,39.31907 34.99031,39.31907l1.86225,108.34468c-4.21438,-0.14918 -8.4371,-0.23318 -12.67509,-0.17858c-14.65987,0.18887 -29.25942,3.07089 -43.91221,3.18012c-2.49824,0.01862 -7.86236,-0.15125 -14.20451,-0.26819z" data-paper-data="{&quot;origPos&quot;:null}" fill="url(#color-11)"/><path d="M434.24463,266.62802c0,0 0.94516,-38.77298 36.12251,-38.77298c36.57592,0 34.99031,39.31907 34.99031,39.31907l3.13464,193.44593l-29.39171,-41.81211c-1.47438,-0.0104 -2.94873,-0.02281 -4.42306,-0.03717c-12.75109,-0.12419 -25.42647,-1.25907 -38.2184,-1.37081z" data-paper-data="{&quot;origPos&quot;:null}" fill="url(#color-12)"/></g><path d="M21.16771,497.35854v-51.05106h495.49549v51.05106z" fill="#edbbd9" stroke="none" stroke-width="0" stroke-linecap="butt"/><path d="M14.05437,428.66037v-249h330c0,0 0,83.81236 0,137.45654c0,43.53127 0,111.54346 0,111.54346z" data-paper-data="{&quot;origPos&quot;:null,&quot;index&quot;:null}" fill="none" stroke="none" stroke-width="0" stroke-linecap="butt"/><path d="M420.17612,365.03322c0,0 0.24317,3.50346 -0.79224,4.81142c-1.02946,1.30044 -2.7738,1.7312 -4.58294,1.7312c-0.71703,0 -2.26427,0 -2.98132,0c-2.15113,0 42.26528,0 -83.3495,0c-1.6752,0 -3.66448,-0.58512 -4.59473,-1.80293c-1.06407,-1.39299 -0.87636,-4.90636 -0.87636,-4.90636l0.1344,-123.04457l97.12698,-0.38234z" data-paper-data="{&quot;origPos&quot;:null,&quot;index&quot;:null}" fill="#03a63b" stroke="none" stroke-width="0" stroke-linecap="butt"/><path d="M420.31296,269.99935l-97.17709,-0.16667l0.1344,-29.65591l97.12698,-0.01442z" data-paper-data="{&quot;origPos&quot;:null,&quot;index&quot;:null}" fill="#48c900" stroke="none" stroke-width="0" stroke-linecap="butt"/><path d="M323.13585,240.89972c0,0 -0.18772,-3.51337 0.87636,-4.90636c0.93025,-1.21781 2.91953,-1.80293 4.59473,-1.80293c125.61479,0 81.19837,0 83.3495,0c0.71704,0 2.26428,0 2.98132,0c1.80915,0 3.55349,0.43076 4.58294,1.7312c1.03541,1.30796 0.79224,5.31142 0.79224,5.31142z" data-paper-data="{&quot;origPos&quot;:null,&quot;index&quot;:null}" fill="#b4ff53" stroke="none" stroke-width="0" stroke-linecap="butt"/><path d="M345.98361,299.89995h30.71855" data-paper-data="{&quot;origPos&quot;:null}" fill="none" stroke="#04b742" stroke-width="25" stroke-linecap="round"/><path d="M393.3113,353.73666v-25.13101h26.40873v25.13101z" data-paper-data="{&quot;origPos&quot;:null}" fill="#02af3d" stroke="none" stroke-width="0" stroke-linecap="butt"/><path d="M373.85922,341.31243h25.66667" data-paper-data="{&quot;origPos&quot;:null}" fill="none" stroke="#02af3d" stroke-width="25" stroke-linecap="round"/><path d="M245.8344,398.66054c0,0 0.24317,3.50346 -0.79224,4.81142c-1.02946,1.30044 -2.7738,1.7312 -4.58294,1.7312c-0.71703,0 -2.26427,0 -2.98132,0c-2.15113,0 42.26528,0 -83.3495,0c-1.6752,0 -3.66448,-0.58512 -4.59473,-1.80293c-1.06407,-1.39299 -0.87636,-4.90636 -0.87636,-4.90636l0.1344,-123.04457l97.12698,-0.38234z" data-paper-data="{&quot;origPos&quot;:null,&quot;index&quot;:null}" fill="#03a63b" stroke="none" stroke-width="0" stroke-linecap="butt"/><path d="M245.97124,303.62667l-97.17709,-0.16667l0.1344,-29.65591l97.12698,-0.01442z" data-paper-data="{&quot;origPos&quot;:null,&quot;index&quot;:null}" fill="#48c900" stroke="none" stroke-width="0" stroke-linecap="butt"/><path d="M148.79413,274.52704c0,0 -0.18772,-3.51337 0.87636,-4.90636c0.93025,-1.21781 2.91953,-1.80293 4.59473,-1.80293c125.61479,0 81.19837,0 83.3495,0c0.71704,0 2.26428,0 2.98132,0c1.80915,0 3.55349,0.43076 4.58294,1.7312c1.03541,1.30796 0.79224,5.31142 0.79224,5.31142z" data-paper-data="{&quot;origPos&quot;:null,&quot;index&quot;:null}" fill="#b4ff53" stroke="none" stroke-width="0" stroke-linecap="butt"/><path d="M169.2245,344.95386h35.71855" data-paper-data="{&quot;origPos&quot;:null}" fill="none" stroke="#02af3d" stroke-width="25" stroke-linecap="round"/><path d="M201.50971,345.07757h25.71855" data-paper-data="{&quot;origPos&quot;:null}" fill="none" stroke="#04b742" stroke-width="25" stroke-linecap="round"/><path d="M190.94357,289.15633h36.04564" data-paper-data="{&quot;origPos&quot;:null}" fill="none" stroke="#3dc400" stroke-width="29" stroke-linecap="round"/></g></g></svg>