<svg version="1.1" xmlns="http://www.w3.org/2000/svg" xmlns:xlink="http://www.w3.org/1999/xlink" width="719.61116" height="345.34535"><g transform="translate(116.99698,-118.65905)"><g data-paper-data="{&quot;isPaintingLayer&quot;:true}" fill-rule="nonzero" stroke-linejoin="miter" stroke-miterlimit="10" stroke-dasharray="" stroke-dashoffset="0" style="mix-blend-mode: normal"><path d="" data-paper-data="{&quot;origPos&quot;:null,&quot;index&quot;:null}" fill="#11b738" stroke="none" stroke-width="0" stroke-linecap="butt"/><path d="" data-paper-data="{&quot;origPos&quot;:null,&quot;index&quot;:null}" fill="#7aff75" stroke="none" stroke-width="0" stroke-linecap="butt"/><path d="" data-paper-data="{&quot;origPos&quot;:null}" fill="#2568a7" stroke="none" stroke-width="0" stroke-linecap="butt"/><path d="" data-paper-data="{&quot;origPos&quot;:null}" fill="#1c4974" stroke="none" stroke-width="0" stroke-linecap="butt"/><path d="" data-paper-data="{&quot;origPos&quot;:null}" fill="#1c4974" stroke="none" stroke-width="0" stroke-linecap="butt"/><path d="" data-paper-data="{&quot;origPos&quot;:null}" fill="none" stroke="#205485" stroke-width="35" stroke-linecap="round"/><path d="" data-paper-data="{&quot;origPos&quot;:null}" fill="none" stroke="#235d92" stroke-width="35" stroke-linecap="round"/><path d="" data-paper-data="{&quot;origPos&quot;:null}" fill="#7aff75" stroke="none" stroke-width="0" stroke-linecap="butt"/><path d="" data-paper-data="{&quot;origPos&quot;:null,&quot;index&quot;:null}" fill="#21548f" stroke="none" stroke-width="0" stroke-linecap="butt"/><path d="" data-paper-data="{&quot;origPos&quot;:null}" fill="#11b738" stroke="none" stroke-width="0" stroke-linecap="butt"/><path d="" data-paper-data="{&quot;origPos&quot;:null}" fill="#1c4974" stroke="none" stroke-width="0" stroke-linecap="butt"/><path d="" data-paper-data="{&quot;origPos&quot;:null,&quot;index&quot;:null}" fill="none" stroke="#205485" stroke-width="35" stroke-linecap="round"/><path d="" data-paper-data="{&quot;origPos&quot;:null}" fill="#205485" stroke="none" stroke-width="0" stroke-linecap="butt"/><path d="" data-paper-data="{&quot;origPos&quot;:null}" fill="#2568a7" stroke="none" stroke-width="0" stroke-linecap="butt"/><path d="" data-paper-data="{&quot;origPos&quot;:null}" fill="none" stroke="#11b738" stroke-width="15" stroke-linecap="round"/><path d="" data-paper-data="{&quot;origPos&quot;:null}" fill="none" stroke="#2568a7" stroke-width="15" stroke-linecap="round"/><path d="" data-paper-data="{&quot;origPos&quot;:null}" fill="none" stroke="none" stroke-width="0" stroke-linecap="butt"/><path d="M188.54943,292.19118c0,0 -0.16409,-3.51337 0.76605,-4.90636c0.81316,-1.21781 2.55205,-1.80293 4.01639,-1.80293c109.80371,0 279.47797,0 281.35834,0c0.62679,0 1.97928,0 2.60606,0c1.58143,0 3.10621,0.43076 4.00609,1.7312c0.90508,1.30796 0.69252,4.81142 0.69252,4.81142z" data-paper-data="{&quot;origPos&quot;:null}" fill="#7aff75" stroke="none" stroke-width="0" stroke-linecap="butt"/><path d="M147.74233,333.60499l46.34664,-36.1489v0v0v0" data-paper-data="{&quot;origPos&quot;:null}" fill="none" stroke="#11b738" stroke-width="10.5" stroke-linecap="round"/><path d="M145.77191,325.05956l45.18079,-35.37167" data-paper-data="{&quot;origPos&quot;:null}" fill="none" stroke="#7aff75" stroke-width="6.5" stroke-linecap="round"/><path d="M193.97521,291.88052h287.54544l-0.43982,8.90991l-288.60062,0.80953c0,0 -0.2257,-5.95 0.16721,-8.50444c0.19053,-1.2387 1.32779,-1.215 1.32779,-1.215z" data-paper-data="{&quot;origPos&quot;:null}" fill="#11b738" stroke="none" stroke-width="0" stroke-linecap="butt"/><path d="M7.34476,329.06638h140.31209l-0.21378,9.90992l-140.28085,0.80953z" data-paper-data="{&quot;origPos&quot;:null}" fill="#11b738" stroke="none" stroke-width="0" stroke-linecap="butt"/><path d="M146.78895,322.55456c0,0 0.10437,3.50346 -0.34004,4.81142c-0.44186,1.30044 -1.19056,1.7312 -1.96707,1.7312c-0.30776,0 -0.97186,0 -1.27963,0c-0.9233,0 -84.23687,0 -138.15276,0c-0.71902,0 -1.57285,-0.58512 -1.97213,-1.80293c-0.45672,-1.39299 -0.37615,-4.90636 -0.37615,-4.90636z" data-paper-data="{&quot;origPos&quot;:null,&quot;index&quot;:null}" fill="#7aff75" stroke="none" stroke-width="0" stroke-linecap="butt"/><path d="M7.34475,329.06636h140.31209l-0.21378,9.90992l-140.28085,0.80953z" data-paper-data="{&quot;origPos&quot;:null}" fill="#11b738" stroke="none" stroke-width="0" stroke-linecap="butt"/><path d="M146.78895,322.55456c0,0 0.10437,3.50346 -0.34004,4.81142c-0.44186,1.30044 -1.19056,1.7312 -1.96707,1.7312c-0.30776,0 -0.97186,0 -1.27963,0c-0.9233,0 -84.23687,0 -138.15276,0c-0.71902,0 -1.57285,-0.58512 -1.97213,-1.80293c-0.45672,-1.39299 -0.37615,-4.90636 -0.37615,-4.90636z" data-paper-data="{&quot;origPos&quot;:null,&quot;index&quot;:null}" fill="#7aff75" stroke="none" stroke-width="0" stroke-linecap="butt"/><path d="" data-paper-data="{&quot;origPos&quot;:null,&quot;index&quot;:null}" fill="#11b738" stroke="none" stroke-width="0" stroke-linecap="butt"/><path d="" data-paper-data="{&quot;origPos&quot;:null,&quot;index&quot;:null}" fill="#7aff75" stroke="none" stroke-width="0" stroke-linecap="butt"/><path d="" data-paper-data="{&quot;origPos&quot;:null}" fill="#2568a7" stroke="none" stroke-width="0" stroke-linecap="butt"/><path d="" data-paper-data="{&quot;origPos&quot;:null}" fill="#1c4974" stroke="none" stroke-width="0" stroke-linecap="butt"/><path d="" data-paper-data="{&quot;origPos&quot;:null}" fill="#1c4974" stroke="none" stroke-width="0" stroke-linecap="butt"/><path d="" data-paper-data="{&quot;origPos&quot;:null}" fill="none" stroke="#205485" stroke-width="35" stroke-linecap="round"/><path d="" data-paper-data="{&quot;origPos&quot;:null}" fill="none" stroke="#235d92" stroke-width="35" stroke-linecap="round"/><path d="" data-paper-data="{&quot;origPos&quot;:null}" fill="#7aff75" stroke="none" stroke-width="0" stroke-linecap="butt"/><path d="" data-paper-data="{&quot;origPos&quot;:null,&quot;index&quot;:null}" fill="#21548f" stroke="none" stroke-width="0" stroke-linecap="butt"/><path d="" data-paper-data="{&quot;origPos&quot;:null}" fill="#11b738" stroke="none" stroke-width="0" stroke-linecap="butt"/><path d="" data-paper-data="{&quot;origPos&quot;:null}" fill="#1c4974" stroke="none" stroke-width="0" stroke-linecap="butt"/><path d="" data-paper-data="{&quot;origPos&quot;:null,&quot;index&quot;:null}" fill="none" stroke="#205485" stroke-width="35" stroke-linecap="round"/><path d="" data-paper-data="{&quot;origPos&quot;:null}" fill="#205485" stroke="none" stroke-width="0" stroke-linecap="butt"/><path d="" data-paper-data="{&quot;origPos&quot;:null}" fill="#2568a7" stroke="none" stroke-width="0" stroke-linecap="butt"/><path d="" data-paper-data="{&quot;origPos&quot;:null}" fill="none" stroke="#11b738" stroke-width="15" stroke-linecap="round"/><path d="" data-paper-data="{&quot;origPos&quot;:null}" fill="none" stroke="#2568a7" stroke-width="15" stroke-linecap="round"/><path d="" data-paper-data="{&quot;origPos&quot;:null}" fill="none" stroke="none" stroke-width="0" stroke-linecap="butt"/><path d="M188.54943,292.19115c0,0 -0.16409,-3.51337 0.76605,-4.90636c0.81316,-1.21781 2.55205,-1.80293 4.01639,-1.80293c109.80371,0 400.07557,0 401.95594,0c0.62679,0 1.97928,0 2.60606,0c1.58143,0 3.10621,0.43076 4.00609,1.7312c0.90508,1.30796 0.69252,4.81142 0.69252,4.81142z" data-paper-data="{&quot;origPos&quot;:null}" fill="#7aff75" stroke="none" stroke-width="0" stroke-linecap="butt"/><path d="M147.74233,333.60499l46.34664,-36.1489v0v0v0" data-paper-data="{&quot;origPos&quot;:null}" fill="none" stroke="#11b738" stroke-width="10.5" stroke-linecap="round"/><path d="M-116.99697,464.00441v-345.34535h127.61048l0.83483,227.43832c0,0 -1.57972,5.53526 0.81518,8.18021c2.39491,2.64495 9.15045,3.08417 9.15045,3.08417l-10.80047,106.64265z" data-paper-data="{&quot;origPos&quot;:null}" fill="#1c4974" stroke="none" stroke-width="0" stroke-linecap="butt"/><path d="M190.9527,289.68789l-45.18079,35.37167" data-paper-data="{&quot;origPos&quot;:null}" fill="none" stroke="#7aff75" stroke-width="6.5" stroke-linecap="round"/><path d="M193.97521,291.88052h407.66256l0.56018,8.90991l-409.71774,0.80953c0,0 -0.2257,-5.95 0.16721,-8.50444c0.19053,-1.2387 1.32779,-1.215 1.32779,-1.215z" data-paper-data="{&quot;origPos&quot;:null}" fill="#11b738" stroke="none" stroke-width="0" stroke-linecap="butt"/><path d="M7.34476,329.06638h140.31209l-0.21378,9.90992l-140.28085,0.80953z" data-paper-data="{&quot;origPos&quot;:null}" fill="#11b738" stroke="none" stroke-width="0" stroke-linecap="butt"/><path d="M146.78895,322.55456c0,0 0.10437,3.50346 -0.34004,4.81142c-0.44186,1.30044 -1.19056,1.7312 -1.96707,1.7312c-0.30776,0 -0.97186,0 -1.27963,0c-0.9233,0 -84.23687,0 -138.15276,0c-0.71902,0 -1.57285,-0.58512 -1.97213,-1.80293c-0.45672,-1.39299 -0.37615,-4.90636 -0.37615,-4.90636z" data-paper-data="{&quot;origPos&quot;:null,&quot;index&quot;:null}" fill="#7aff75" stroke="none" stroke-width="0" stroke-linecap="butt"/></g></g></svg>