<svg version="1.1" xmlns="http://www.w3.org/2000/svg" xmlns:xlink="http://www.w3.org/1999/xlink" width="605.84699" height="414.90242" viewBox="0,0,605.84699,414.90242"><g transform="translate(62.48612,44.59644)"><g data-paper-data="{&quot;isPaintingLayer&quot;:true}" stroke-miterlimit="10" stroke-dasharray="" stroke-dashoffset="0" style="mix-blend-mode: normal"><path d="M1.77719,349.69587v-222.6297l126.04247,1.97952c0,0 40.92323,46.41965 56.46301,46.43824c91.24269,0.10917 260.41221,-23.2804 260.41221,-23.2804l-0.4657,-36.67248l43.49696,1.03512l-19,233.12968z" data-paper-data="{&quot;origPos&quot;:null}" fill="#03a63b" fill-rule="nonzero" stroke="none" stroke-width="0" stroke-linecap="butt" stroke-linejoin="miter"/><path d="M150.67219,180.75475c-2.07481,-2.17373 -2.16936,-6.18216 -2.16936,-6.18216v-24.67971h296.29241v22.57401c0,0 0.04347,5.53065 -1.79514,7.86678c-1.83861,2.33613 -6.46959,2.63434 -6.46959,2.63434l-280.52195,-0.53186c0,0 -3.26156,0.49233 -5.33637,-1.6814z" data-paper-data="{&quot;origPos&quot;:null}" fill="#48c900" fill-rule="nonzero" stroke="none" stroke-width="0" stroke-linecap="butt" stroke-linejoin="miter"/><path d="M149.09903,152.36389v-6.20929l295.59949,0.3267v6.20929z" data-paper-data="{&quot;origPos&quot;:null}" fill="#b4ff53" fill-rule="nonzero" stroke="none" stroke-width="0" stroke-linecap="butt" stroke-linejoin="miter"/><path d="M443.71068,98.06298c0,0 -0.36181,-3.16614 0.85714,-4.78071c1.15016,-1.52345 2.5057,-1.42857 4.38379,-1.42857c5.63425,0 20.69247,0 20.69247,0l0.05028,6.20928z" data-paper-data="{&quot;origPos&quot;:null}" fill="#b4ff53" fill-rule="nonzero" stroke="none" stroke-width="0" stroke-linecap="butt" stroke-linejoin="miter"/><path d="M325.62746,240.70511h82.45646" data-paper-data="{&quot;origPos&quot;:null}" fill="none" fill-rule="nonzero" stroke="#04b742" stroke-width="35" stroke-linecap="round" stroke-linejoin="miter"/><path d="M131.54937,257.70511h-66.46547" data-paper-data="{&quot;origPos&quot;:null}" fill="none" fill-rule="nonzero" stroke="#02af3d" stroke-width="35" stroke-linecap="round" stroke-linejoin="miter"/><path d="M121.13496,258.20061c0,0 21.72091,0 35.6234,0c12.03651,0 17.32855,0 17.32855,0" data-paper-data="{&quot;origPos&quot;:null}" fill="none" fill-rule="nonzero" stroke="#04b742" stroke-width="35" stroke-linecap="round" stroke-linejoin="miter"/><path d="M506.2404,128.12495c-2.63343,2.55169 -8.36051,2.33333 -8.36051,2.33333h-53.47283l-0.33333,-32.5h64.16666v22.46106c0,0 0.63343,5.15391 -2,7.7056z" data-paper-data="{&quot;origPos&quot;:null,&quot;origRot&quot;:0}" fill="#48c900" fill-rule="nonzero" stroke="none" stroke-width="0" stroke-linecap="butt" stroke-linejoin="miter"/><path d="M422.68169,198.50853v-120.12048h120.67918v120.12048z" data-paper-data="{&quot;origPos&quot;:null}" fill="none" fill-rule="nonzero" stroke="none" stroke-width="0" stroke-linecap="butt" stroke-linejoin="miter"/><path d="M148.50287,157.34692h-147v-30.5h147z" data-paper-data="{&quot;origPos&quot;:null,&quot;origRot&quot;:0}" fill="#48c900" fill-rule="nonzero" stroke="none" stroke-width="0" stroke-linecap="butt" stroke-linejoin="miter"/><path d="M286.62901,167.74155h-52.04564" data-paper-data="{&quot;origPos&quot;:null}" fill="none" fill-rule="nonzero" stroke="#3dc400" stroke-width="29" stroke-linecap="round" stroke-linejoin="miter"/><path d="M85.24162,143.74155h-37.04564" data-paper-data="{&quot;origPos&quot;:null}" fill="none" fill-rule="nonzero" stroke="#3dc400" stroke-width="27.5" stroke-linecap="round" stroke-linejoin="miter"/><path d="M1.73855,129.55449c0,0 -0.16409,-3.51337 0.76605,-4.90636c0.81316,-1.21781 2.55205,-1.80293 4.01639,-1.80293c5.59923,0 84.12202,0 137.9644,0c1.58143,0 3.10621,0.43076 4.00609,1.7312c0.90508,1.30796 0.69252,4.81142 0.69252,4.81142c0,0 -10.14072,0.01146 -16.63129,0.0188c-19.47173,0.02201 -130.81415,0.14787 -130.81415,0.14787z" data-paper-data="{&quot;origPos&quot;:null}" fill="#b4ff53" fill-rule="nonzero" stroke="none" stroke-width="0" stroke-linecap="butt" stroke-linejoin="miter"/><path d="M-62.48612,370.30598v-276h94v276z" data-paper-data="{&quot;origPos&quot;:null}" fill="none" fill-rule="nonzero" stroke="none" stroke-width="0" stroke-linecap="butt" stroke-linejoin="miter"/><path d="M102.44504,-2.24683c0,0.27022 -0.18015,0.57046 -0.27022,0.90073l-4.02327,11.49935c-0.33027,0.99081 -1.05089,1.50122 -1.86155,1.50122c-0.87071,0 -1.56127,-0.51041 -1.95159,-1.50122l-3.66298,-8.58698l-3.66298,8.58698c-0.39032,0.99081 -1.1109,1.50122 -1.92156,1.50122c-0.87071,0 -1.56127,-0.51041 -1.89154,-1.50122l-3.99325,-11.49935c-0.1201,-0.33027 -0.27022,-0.63051 -0.27022,-0.90073c0,-1.05085 0.81066,-1.86151 1.86151,-1.86151c0.69056,0 1.44117,0.42034 1.65134,1.05085l2.88234,9.03735l3.5729,-8.88722c0.33027,-0.78063 0.93076,-1.20098 1.77144,-1.20098c0.87071,0 1.4712,0.42034 1.77144,1.20098l3.5729,8.88722l2.88238,-9.03735c0.21017,-0.63051 0.96078,-1.05085 1.68137,-1.05085c1.02083,0 1.86151,0.81066 1.86151,1.86151z" fill="#363636" fill-rule="evenodd" stroke="none" stroke-width="1" stroke-linecap="round" stroke-linejoin="round"/><path d="M120.00932,3.15757c0,1.56127 -0.87071,2.10171 -2.462,2.10171l-8.91725,-0.06005c0.36029,2.19178 2.10171,3.36273 4.29349,3.36273c1.08088,0 1.59129,-0.2402 2.49203,-0.63051c0.54044,-0.2402 0.96078,-0.48039 1.4712,-0.48039c0.84068,0 1.3511,0.60049 1.3511,1.3511c0,0.48039 -0.21017,1.02083 -0.96078,1.65134c-1.1109,0.78063 -2.61212,1.29105 -4.50366,1.29105c-3.99325,0 -8.22669,-2.462 -8.22669,-7.92644c0,-5.40439 4.47364,-8.01652 7.89642,-8.01652c3.42278,0 7.56615,2.7022 7.56615,7.35598zM108.63007,2.49703h7.5061c-0.30024,-2.31188 -1.98161,-3.27266 -3.693,-3.27266c-1.71139,0 -3.54288,0.96078 -3.8131,3.27266z" fill="#363636" fill-rule="evenodd" stroke="none" stroke-width="1" stroke-linecap="round" stroke-linejoin="round"/><path d="M124.99337,11.74455c-1.08088,0 -1.98161,-0.87071 -1.98161,-1.95159v-17.68437c0,-1.05085 0.90073,-1.95159 1.98161,-1.95159c1.05085,0 1.95159,0.90073 1.95159,1.95159v17.68437c0,1.08088 -0.90073,1.95159 -1.95159,1.95159z" fill="#363636" fill-rule="evenodd" stroke="none" stroke-width="1" stroke-linecap="round" stroke-linejoin="round"/><path d="M143.75862,8.26172c0,0.96078 -0.72059,1.44117 -1.1109,1.80146c-1.26103,1.1109 -2.73222,1.68137 -4.68381,1.68137c-3.63295,0 -8.01652,-2.61212 -8.01652,-7.95647c0,-5.37437 4.38356,-7.98649 8.01652,-7.98649c1.95159,0 3.42278,0.54044 4.68381,1.65134c0.39032,0.39032 1.1109,0.87071 1.1109,1.83149c0,0.93076 -0.78063,1.50122 -1.59129,1.50122c-0.72059,0 -1.29105,-0.42034 -1.53124,-0.63051c-0.69056,-0.66054 -1.71139,-0.93076 -2.52205,-0.93076c-2.37193,0 -4.26347,1.65134 -4.26347,4.56371c0,2.88234 1.89154,4.53369 4.26347,4.53369c0.81066,0 1.83149,-0.27022 2.52205,-0.93076c0.2402,-0.21017 0.81066,-0.63051 1.53124,-0.63051c0.81066,0 1.59129,0.57046 1.59129,1.50122z" fill="#363636" fill-rule="evenodd" stroke="none" stroke-width="1" stroke-linecap="round" stroke-linejoin="round"/><path d="M162.19361,3.8181c0,5.37437 -4.59373,7.98649 -8.01652,7.98649c-3.45281,0 -8.01652,-2.61212 -8.01652,-7.98649c0,-5.34434 4.56371,-8.01652 8.01652,-8.01652c3.42278,0 8.01652,2.67217 8.01652,8.01652zM150.06375,3.8181c0,2.88234 1.98161,4.56371 4.11334,4.56371c2.10171,0 4.11334,-1.68137 4.11334,-4.56371c0,-2.91237 -2.01164,-4.59373 -4.11334,-4.59373c-2.13173,0 -4.11334,1.68137 -4.11334,4.59373z" fill="#363636" fill-rule="evenodd" stroke="none" stroke-width="1" stroke-linecap="round" stroke-linejoin="round"/><path d="M190.80687,3.00745v6.78552c0,1.08088 -0.90073,1.95159 -1.98161,1.95159c-1.05085,0 -1.95159,-0.87071 -1.95159,-1.95159v-6.78552c0,-2.7022 -1.41115,-3.8131 -3.18259,-3.8131c-2.7022,0 -3.63295,2.52205 -3.72303,3.36273v-0.03002v0.48039v6.78552c0,1.08088 -0.90073,1.95159 -1.98161,1.95159c-1.05085,0 -1.95159,-0.87071 -1.95159,-1.95159v-6.78552c0,-2.7022 -1.41115,-3.8131 -3.18259,-3.8131c-2.7022,0 -3.60293,2.52205 -3.72303,3.36273v7.23588c0,1.08088 -0.90073,1.95159 -1.95159,1.95159c-1.08088,0 -1.98161,-0.87071 -1.98161,-1.95159v-11.91969c0,-1.08088 0.90073,-1.98161 1.98161,-1.98161c1.05085,0 1.95159,0.90073 1.95159,1.98161v1.50122c0.1201,-1.08088 1.89154,-3.54288 5.13417,-3.54288c2.25183,0 4.29349,1.08088 5.19422,3.75305c0.84068,-1.86151 2.73222,-3.75305 5.64459,-3.75305c3.03246,0 5.70464,1.98161 5.70464,7.17583z" fill="#363636" fill-rule="evenodd" stroke="none" stroke-width="1" stroke-linecap="round" stroke-linejoin="round"/><path d="M209.27187,3.15757c0,1.56127 -0.87071,2.10171 -2.462,2.10171l-8.91725,-0.06005c0.36029,2.19178 2.10171,3.36273 4.29349,3.36273c1.08088,0 1.59129,-0.2402 2.49203,-0.63051c0.54044,-0.2402 0.96078,-0.48039 1.4712,-0.48039c0.84068,0 1.3511,0.60049 1.3511,1.3511c0,0.48039 -0.21017,1.02083 -0.96078,1.65134c-1.1109,0.78063 -2.61212,1.29105 -4.50366,1.29105c-3.99325,0 -8.22669,-2.462 -8.22669,-7.92644c0,-5.40439 4.47364,-8.01652 7.89642,-8.01652c3.42278,0 7.56615,2.7022 7.56615,7.35598zM197.89262,2.49703h7.5061c-0.30024,-2.31188 -1.98161,-3.27266 -3.693,-3.27266c-1.71139,0 -3.54288,0.96078 -3.8131,3.27266z" fill="#363636" fill-rule="evenodd" stroke="none" stroke-width="1" stroke-linecap="round" stroke-linejoin="round"/><path d="M216.74795,-7.29093v10.26835c0,1.20098 -0.99081,2.22181 -2.19178,2.22181c-1.20098,0 -2.22181,-1.02083 -2.22181,-2.22181v-10.26835c0,-1.20098 1.02083,-2.22181 2.22181,-2.22181c1.20098,0 2.19178,1.02083 2.19178,2.22181zM212.27431,9.43267c0,-1.231 1.02083,-2.25183 2.28185,-2.25183c1.231,0 2.25183,1.02083 2.25183,2.25183c0,1.26103 -1.02083,2.28185 -2.25183,2.28185c-1.26103,0 -2.28185,-1.02083 -2.28185,-2.28185z" fill="#363636" fill-rule="evenodd" stroke="none" stroke-width="1" stroke-linecap="round" stroke-linejoin="round"/><path d="M42.48346,50.91425v-95.51069h203.67942v95.51069z" fill="none" fill-rule="nonzero" stroke="none" stroke-width="none" stroke-linecap="butt" stroke-linejoin="miter"/></g></g></svg>