<svg version="1.1" xmlns="http://www.w3.org/2000/svg" xmlns:xlink="http://www.w3.org/1999/xlink" width="170" height="185"><g transform="translate(-158.55707,-83.66847)"><g data-paper-data="{&quot;isPaintingLayer&quot;:true}" fill-rule="nonzero" stroke-width="0" stroke-linecap="butt" stroke-linejoin="miter" stroke-miterlimit="10" stroke-dasharray="" stroke-dashoffset="0" style="mix-blend-mode: normal"><g data-paper-data="{&quot;origPos&quot;:null}" fill="#b82832" stroke="none"><path d="M189.00548,235.85479l0.32341,-19.29023l99.31646,-0.28599l-0.22314,19.57624z" data-paper-data="{&quot;origPos&quot;:null}"/><path d="M273.23632,240.8309c-0.92187,-0.41504 -0.78357,-1.2256 -0.78357,-1.2256v-9.45936h16.08182v9.42333c0,0 0.23183,0.80592 -0.7516,1.24882c-0.98344,0.4429 -2.82891,0.36368 -2.82891,0.36368h-8.99968c0,0 -1.79618,0.06417 -2.71806,-0.35087z" data-paper-data="{&quot;origPos&quot;:null}"/><path d="M245.14263,240.99955c-0.92187,-0.41504 -0.78356,-1.2256 -0.78356,-1.2256v-9.45936h16.08183v9.42333c0,0 0.23183,0.80592 -0.75161,1.24882c-0.98344,0.4429 -2.82891,0.36368 -2.82891,0.36368h-8.99968c0,0 -1.79619,0.06417 -2.71806,-0.35088z" data-paper-data="{&quot;origPos&quot;:null}"/><path d="M216.82873,241.05923c-0.92187,-0.41504 -0.78356,-1.2256 -0.78356,-1.2256v-9.45936h16.08182v9.42333c0,0 0.23184,0.80592 -0.7516,1.24882c-0.98344,0.4429 -2.82891,0.36368 -2.82891,0.36368h-8.99968c0,0 -1.79619,0.06417 -2.71806,-0.35087z" data-paper-data="{&quot;origPos&quot;:null}"/><path d="M189.75297,241.55477c-0.90795,-0.41504 -0.77174,-1.2256 -0.77174,-1.2256v-9.45936h15.83896v9.42333c0,0 0.22833,0.80593 -0.74026,1.24882c-0.96859,0.4429 -2.78619,0.36368 -2.78619,0.36368h-8.86377c0,0 -1.76906,0.06417 -2.67701,-0.35088z" data-paper-data="{&quot;origPos&quot;:null}"/></g><path d="M189.02238,229.05284l0.37105,-34.48018l99.70454,0.05897l0.13371,21.74989c0,0 -0.21618,0.67509 -0.70141,0.88158c-0.48523,0.20648 -2.02747,0.29301 -2.02747,0.29301l-68.59116,-0.06667c0,0 -1.04765,-0.05815 -1.61624,0.19588c-0.56859,0.25403 -0.44744,0.72612 -0.44744,0.72612l-0.09121,2.78615c0,0 -0.20692,0.54766 0.43627,0.82282c0.64319,0.27517 1.94799,0.19719 1.94799,0.19719l67.47031,-0.01729c0,0 1.56572,0.07311 2.11039,0.28243c0.54467,0.20931 0.80241,0.87505 0.80241,0.87505l-0.04291,5.64576z" data-paper-data="{&quot;origPos&quot;:null}" fill="#fe404f" stroke="#000000"/><path d="M189.35517,201.75554v-5.67197c0,0 0.03818,-2.30876 2.77859,-3.36722c2.74041,-1.05845 7.77553,-0.98279 7.77553,-0.98279h76.93528c0,0 6.44492,-0.02317 9.32105,1.26841c2.87613,1.29157 2.83257,3.96674 2.83257,3.96674v4.78684z" data-paper-data="{&quot;origPos&quot;:null}" fill="#b82832" stroke="none"/><path d="M209.5218,186.51588c1.14174,-0.52276 3.49827,-0.45525 3.49827,-0.45525l41.268,-0.10296c0,0 5.99622,-0.0216 8.67829,1.18282c2.68207,1.20442 2.6553,3.68669 2.6553,3.68669v4.47626h-57.30603l0.17562,-7.17065c0,0 -0.11119,-1.09416 1.03055,-1.61692z" data-paper-data="{&quot;origPos&quot;:null}" fill="#b82832" stroke="none"/><g data-paper-data="{&quot;origPos&quot;:null}" fill="#ffffff" stroke="none"><path d="M287.79317,217.63257c0,0 1.29537,0.01588 1.60945,0.56095c0.31408,0.54505 -0.64215,1.11776 -0.64215,1.11776l-7.74481,5.59164c0,0 -0.90557,0.84018 -1.94471,0.78657c-1.03914,-0.05361 -1.8741,-0.98358 -1.8741,-0.98358l-9.18059,-7.07332z" data-paper-data="{&quot;origPos&quot;:null,&quot;index&quot;:null}"/><path d="M270.39317,217.63257c0,0 1.29538,0.01588 1.60945,0.56095c0.31408,0.54505 -0.64216,1.11776 -0.64216,1.11776l-7.74481,5.59164c0,0 -0.90557,0.84018 -1.94471,0.78657c-1.03914,-0.05361 -1.8741,-0.98358 -1.8741,-0.98358l-9.18059,-7.07332z" data-paper-data="{&quot;origPos&quot;:null,&quot;index&quot;:null}"/></g><path d="M229.35072,207.93135c-1.79194,-0.77517 -1.4572,-2.31461 -1.4572,-2.31461l0.16223,-12.57417c0,0 0.04546,-1.80711 2.39299,-2.38375c2.34753,-0.57664 6.73526,0.26399 6.73526,0.26399l49.00367,13.6601c0,0 3.99774,1.12589 2.48058,2.7707c-1.37726,1.49313 -6.68494,1.29099 -6.68494,1.29099l-47.25865,-0.07279c0,0 -3.582,0.13471 -5.37394,-0.64046z" data-paper-data="{&quot;origPos&quot;:null}" fill="#fdf883" stroke="none"/><path d="M244.78775,198.93127c0,-2.38036 4.30926,-4.31002 9.625,-4.31002c5.31574,0 9.625,1.92967 9.625,4.31002c0,2.38036 -4.30926,4.31002 -9.625,4.31002c-5.31574,0 -9.625,-1.92967 -9.625,-4.31002z" data-paper-data="{&quot;origPos&quot;:null}" fill="#f02333" stroke="none"/><path d="M158.55707,268.66847v-185h170v185z" fill="none" stroke="none"/></g></g></svg>