<svg version="1.1" xmlns="http://www.w3.org/2000/svg" xmlns:xlink="http://www.w3.org/1999/xlink" width="58.22333" height="46.67952"><defs><linearGradient x1="240.78907" y1="170.06036" x2="240.78907" y2="191.48661" gradientUnits="userSpaceOnUse" id="color-1"><stop offset="0" stop-color="#ff0f0f"/><stop offset="1" stop-color="#ff880f"/></linearGradient></defs><g transform="translate(-210.88833,-156.66024)"><g data-paper-data="{&quot;isPaintingLayer&quot;:true}" fill-rule="nonzero" stroke-linecap="butt" stroke-linejoin="miter" stroke-miterlimit="10" stroke-dasharray="" stroke-dashoffset="0" style="mix-blend-mode: normal"><path d="M240.73927,192.26175c-1.62774,-0.05826 -4.21743,-2.11605 -4.21743,-2.11605c0,0 -2.22014,-2.18374 -4.18143,-4.10578c-1.43784,-1.40909 -3.6843,-4.64297 -3.6843,-4.64297c0,0 -1.14113,-1.82712 -1.28074,-3.1849c-0.10822,-1.05252 -0.08699,-1.42423 0.00833,-2.21245c0.04576,-1.32272 1.83561,-5.18509 5.83226,-5.77262c3.25042,-0.47783 6.61929,1.46528 7.53895,3.19322c0.13908,0.26132 0.18429,0.23653 0.18429,0.23653c0,0 0.04369,0.09391 0.21034,-0.21886c1.11651,-2.09541 5.03032,-4.23322 8.38177,-3.09084c2.98687,1.01811 4.5216,3.3971 4.66039,5.3627c0.09725,1.37716 0.35919,1.98036 0.04481,3.29154c-0.31438,1.31118 -0.72964,2.17716 -1.58973,3.15179c-1.52593,1.72918 -2.70885,3.38913 -4.36959,4.98904c-1.65131,1.59085 -3.24031,3.00848 -3.24031,3.00848c0,0 -2.60194,2.17189 -4.29763,2.1112z" data-paper-data="{&quot;origPos&quot;:null}" fill="url(#color-1)" stroke="#ffffff" stroke-width="2.6"/><path d="M210.88833,203.33976v-46.67952h58.22333v46.67952z" data-paper-data="{&quot;origPos&quot;:null}" fill="none" stroke="none" stroke-width="0"/></g></g></svg>