<svg version="1.1" xmlns="http://www.w3.org/2000/svg" xmlns:xlink="http://www.w3.org/1999/xlink" width="95" height="110" viewBox="0,0,95,110"><g transform="translate(-213.32486,-101.46494)"><g data-paper-data="{&quot;isPaintingLayer&quot;:true}" stroke="none" stroke-miterlimit="10" stroke-dasharray="" stroke-dashoffset="0" style="mix-blend-mode: normal"><path d="" data-paper-data="{&quot;origPos&quot;:null}" fill="#000000" fill-rule="evenodd" stroke-width="1" stroke-linecap="round" stroke-linejoin="round"/><path d="M270.96767,130.34915c0,2.4 -1.95,4.2 -4.275,4.2h-15.225l-1.125,10.875c0.525,-0.075 3.525,-2.025 8.475,-2.025c9.15,0 16.875,7.125 16.875,17.925c0,10.5 -8.175,18.075 -19.125,18.075c-6.3,0 -11.475,-2.325 -14.925,-6.3c-0.675,-0.675 -1.425,-2.025 -1.425,-3.525c0,-2.4 1.8,-4.275 4.425,-4.275c1.575,0 2.925,0.825 3.675,1.725c1.65,2.1 4.35,3.9 8.025,3.9c4.2,0 9.525,-2.4 9.525,-9.6c0,-6.45 -4.65,-9.45 -8.925,-9.45c-1.95,0 -3.975,0.6 -6.225,2.025c-0.9,0.525 -2.775,0.825 -4.05,0.825c-3.9,0 -6.225,-3.15 -5.775,-7.05l2.025,-16.875c0.375,-2.775 2.55,-4.65 5.325,-4.65h18.45c2.325,0 4.275,1.875 4.275,4.2z" data-paper-data="{&quot;origPos&quot;:null}" fill="#000000" fill-rule="evenodd" stroke-width="1" stroke-linecap="round" stroke-linejoin="round"/><path d="M213.32486,211.46494v-110h95v110z" fill="none" fill-rule="nonzero" stroke-width="0" stroke-linecap="butt" stroke-linejoin="miter"/></g></g></svg>