<svg version="1.1" xmlns="http://www.w3.org/2000/svg" xmlns:xlink="http://www.w3.org/1999/xlink" width="95" height="110" viewBox="0,0,95,110"><g transform="translate(-209.50508,-102.01146)"><g data-paper-data="{&quot;isPaintingLayer&quot;:true}" stroke="none" stroke-miterlimit="10" stroke-dasharray="" stroke-dashoffset="0" style="mix-blend-mode: normal"><path d="M255.11597,127.18412v0c2.91106,0 4.89619,2.45871 4.89619,4.85153c0,0 0,12.3704 0,20.62008c0,9.01701 0,22.0674 0,22.0674c0,2.39279 -1.52683,5.37032 -4.43785,5.37032h-0.16667c-2.91106,0 -4.60453,-2.9775 -4.60453,-5.37032l-0.30769,-42.14908c0,-2.39279 1.70952,-5.38999 4.62055,-5.38999z" data-paper-data="{&quot;origPos&quot;:null}" fill="#000000" fill-rule="evenodd" stroke-width="1" stroke-linecap="round" stroke-linejoin="round"/><path d="M237.1968,148.39597c-1.64244,-1.84966 -1.25352,-5.3342 0.52168,-6.95822c0,0 8.68452,-7.8066 14.76686,-13.37096c0.74744,1.01905 1.23012,2.17215 2.11492,3.11987c1.55656,1.66732 1.75045,2.63393 3.54856,3.89852l-13.77508,12.68348c-1.77518,1.62402 -5.23454,2.54363 -7.01028,0.69401z" data-paper-data="{&quot;origPos&quot;:null,&quot;origRot&quot;:0}" fill="#000000" fill-rule="evenodd" stroke-width="1" stroke-linecap="round" stroke-linejoin="round"/><path d="M209.50508,212.01146v-110h95v110z" fill="none" fill-rule="nonzero" stroke-width="0" stroke-linecap="butt" stroke-linejoin="miter"/></g></g></svg>