<svg version="1.1" xmlns="http://www.w3.org/2000/svg" xmlns:xlink="http://www.w3.org/1999/xlink" width="665.51875" height="463.44424" viewBox="0,0,665.51875,463.44424"><defs><radialGradient cx="240" cy="180" r="249.97545" gradientUnits="userSpaceOnUse" id="color-1"><stop offset="0" stop-color="#ffe04e"/><stop offset="1" stop-color="#ff4278"/></radialGradient><radialGradient cx="469.3989" cy="254.43434" r="152.93373" gradientUnits="userSpaceOnUse" id="color-2"><stop offset="0" stop-color="#ffffff"/><stop offset="1" stop-color="#ffffff" stop-opacity="0"/></radialGradient><radialGradient cx="15.09378" cy="141.17342" r="189.19043" gradientUnits="userSpaceOnUse" id="color-3"><stop offset="0" stop-color="#ffffff"/><stop offset="1" stop-color="#ffffff" stop-opacity="0"/></radialGradient><radialGradient cx="237.34859" cy="188.79604" r="226.63118" gradientUnits="userSpaceOnUse" id="color-4"><stop offset="0" stop-color="#ffffff"/><stop offset="1" stop-color="#ffffff" stop-opacity="0"/></radialGradient><radialGradient cx="108.71613" cy="185.82304" r="224.2104" gradientUnits="userSpaceOnUse" id="color-5"><stop offset="0" stop-color="#ffffff"/><stop offset="1" stop-color="#ffffff" stop-opacity="0"/></radialGradient><radialGradient cx="374.01011" cy="184.9362" r="221.28659" gradientUnits="userSpaceOnUse" id="color-6"><stop offset="0" stop-color="#ffffff"/><stop offset="1" stop-color="#ffffff" stop-opacity="0"/></radialGradient><radialGradient cx="504.10463" cy="211.53511" r="253.736" gradientUnits="userSpaceOnUse" id="color-7"><stop offset="0" stop-color="#ffffff"/><stop offset="1" stop-color="#ffffff" stop-opacity="0"/></radialGradient><linearGradient x1="238.30213" y1="167.10909" x2="238.30213" y2="219.85474" gradientUnits="userSpaceOnUse" id="color-8"><stop offset="0" stop-color="#000000"/><stop offset="1" stop-color="#454545"/></linearGradient><linearGradient x1="238.30213" y1="183.46317" x2="238.30213" y2="203.50065" gradientUnits="userSpaceOnUse" id="color-9"><stop offset="0" stop-color="#0f0f0f"/><stop offset="1" stop-color="#353535"/></linearGradient></defs><g transform="translate(56.79658,48.01702)"><g data-paper-data="{&quot;isPaintingLayer&quot;:true}" stroke-miterlimit="10" stroke-dasharray="" stroke-dashoffset="0" style="mix-blend-mode: normal"><path d="M-9.97545,370.0015v-380.003h499.9509v380.003z" fill="url(#color-1)" fill-rule="nonzero" stroke="none" stroke-width="0" stroke-linecap="butt" stroke-linejoin="miter"/><g stroke="none" stroke-width="1"><path d="M527.67631,101.50062c-0.22665,3.45454 -0.37959,6.89973 -0.38793,10.32906c-0.02382,9.79084 0.25082,19.58494 0,29.37259c-0.15175,5.92195 -1.4899,19.63775 -1.5015,29.18596c-0.01065,8.76541 0.06991,17.53159 0.11449,26.29739l-80.45728,210.68244c-7.12766,-0.16363 -14.99317,-0.3092 -20.57154,-0.31103c-4.58367,-0.00151 -9.16737,0.00282 -13.75106,0.00998z" data-paper-data="{&quot;origRot&quot;:0,&quot;index&quot;:null}" fill="url(#color-2)" fill-rule="nonzero" stroke-linecap="butt" stroke-linejoin="miter" opacity="0.42445"/><path d="M-56.79658,330.36385c0.25664,-16.66911 1.18875,-25.75208 1.50957,-38.66813c0.38307,-15.42246 0.64511,-37.03452 1.10976,-58.52905l107.25432,-281.18369c10.64632,0.50519 21.29132,1.03149 31.92511,1.74675c0.6607,0.04444 1.32136,0.08953 1.98197,0.13525z" data-paper-data="{&quot;origRot&quot;:0,&quot;index&quot;:null}" fill="url(#color-3)" fill-rule="evenodd" stroke-linecap="round" stroke-linejoin="round" opacity="0.42445"/><path d="M166.21886,415.42722c-1.86424,-0.28771 -3.7262,-0.54882 -5.58107,-0.70503c-5.85165,-0.49281 -12.53159,-1.17146 -19.35195,-1.83032l-5.90337,-6.85859l169.00659,-443.07674c11.69399,-0.32032 23.35263,-0.62249 34.92566,-0.79167z" data-paper-data="{&quot;origRot&quot;:0,&quot;index&quot;:null}" fill="url(#color-4)" fill-rule="evenodd" stroke-linecap="round" stroke-linejoin="round" opacity="0.42445"/><path d="M39.65033,409.29077c-6.14708,-0.01087 -12.29436,0.00331 -18.44159,0.03996c-2.31894,0.01382 -4.95785,0.31174 -7.58673,0.7027l-6.0118,-6.98457l168.38083,-441.43622c5.57202,0.44387 11.14698,0.85389 16.72602,1.21532c5.67269,0.36749 11.37642,0.6486 17.10501,0.85744z" data-paper-data="{&quot;origRot&quot;:0,&quot;index&quot;:null}" fill="url(#color-5)" fill-rule="evenodd" stroke-linecap="round" stroke-linejoin="round" opacity="0.42445"/><path d="M474.59304,-31.19185l-167.04379,437.41464c-11.379,-0.31984 -22.7407,-0.6464 -34.12206,-0.81515l168.50358,-441.75802c8.83871,0.00706 17.67742,0.00835 26.51613,0.00053z" data-paper-data="{&quot;origRot&quot;:0,&quot;index&quot;:null}" fill="url(#color-6)" fill-rule="evenodd" stroke-linecap="round" stroke-linejoin="round" opacity="0.42445"/></g><path d="M-7.16844,357.32732v-362.75632h508.8665v362.75632z" fill="none" fill-rule="nonzero" stroke="none" stroke-width="0" stroke-linecap="butt" stroke-linejoin="miter"/><path d="M608.72217,-20.18585l-11.53315,30.20029c-1.99767,-11.04682 -2.94623,-23.01908 -6.33439,-33.94996c-1.73964,-5.61242 -3.89743,-11.07322 -6.22728,-16.47135z" data-paper-data="{&quot;origRot&quot;:0,&quot;index&quot;:null}" fill="url(#color-7)" fill-rule="nonzero" stroke="none" stroke-width="1" stroke-linecap="butt" stroke-linejoin="miter" opacity="0.42445"/><g fill-rule="nonzero" stroke-linejoin="miter"><g fill="none" stroke="#fffa42" stroke-width="7.5" stroke-linecap="round"><path d="M408.96713,172.72507h-343.13234"/><path d="M121.98319,158.57248h-39.97382"/><path d="M334.5635,158.57248h-195.30744"/><path d="M425.14173,158.57248h-74.46068"/><path d="M160.07533,187.16667h-83.26493"/><path d="M395.85203,187.16667h-82.51611"/><path d="M91.88762,201.87848h288.88899"/></g><path d="M178.56097,183.66543c0,-32.70109 26.50946,-59.21054 59.21055,-59.21054c32.70109,0 59.21055,26.50946 59.21055,59.21055c0,32.70109 -26.50947,59.21055 -59.21055,59.21055c-32.70109,0 -59.21054,-26.50946 -59.21054,-59.21054z" fill="#68ff5c" stroke="none" stroke-width="0" stroke-linecap="butt"/><path d="M189.53658,183.66543c0,-26.95845 21.85415,-48.81259 48.8126,-48.81259c26.95845,0 48.8126,21.85414 48.8126,48.81259c0,26.95845 -21.85415,48.8126 -48.8126,48.8126c-26.95845,0 -48.8126,-21.85415 -48.8126,-48.8126z" fill="#0edbff" stroke="none" stroke-width="0" stroke-linecap="butt"/><path d="M201.08986,183.3766c0,-20.73727 16.81089,-37.54816 37.54816,-37.54816c20.73726,0 37.54815,16.81089 37.54815,37.54816c0,20.73727 -16.81088,37.54815 -37.54815,37.54815c-20.73727,0 -37.54816,-16.81088 -37.54816,-37.54815z" fill="#5c7aff" stroke="none" stroke-width="0" stroke-linecap="butt"/></g><g stroke="none"><path d="M193.90028,231.46622v-86.18745h81.84467v86.18745z" fill="none" fill-rule="nonzero" stroke-width="0" stroke-linecap="butt" stroke-linejoin="miter"/><path d="M193.90029,231.46622v-86.18745h81.84467v86.18745z" data-paper-data="{&quot;origPos&quot;:null}" fill="none" fill-rule="nonzero" stroke-width="0" stroke-linecap="butt" stroke-linejoin="miter"/><path d="M222.98921,167.10909h30.62591c6.43169,0 11.64527,5.05177 11.64527,11.28386v30.17793c0,6.23162 -5.21357,11.28386 -11.64527,11.28386h-30.62591c-6.43154,0 -11.64538,-5.05226 -11.64538,-11.28386v-30.17793c0,-6.23207 5.21383,-11.28386 11.64538,-11.28386z" data-paper-data="{&quot;origPos&quot;:null}" fill="url(#color-8)" fill-rule="evenodd" stroke-width="14" stroke-linecap="round" stroke-linejoin="round"/><path d="M219.55738,193.48191c0,-10.35243 8.3923,-18.74473 18.74473,-18.74473c10.35243,0 18.74474,8.3923 18.74474,18.74473c0,10.35243 -8.39231,18.74473 -18.74474,18.74473c-10.35243,0 -18.74473,-8.3923 -18.74473,-18.74473z" data-paper-data="{&quot;origPos&quot;:null}" fill="#ffffff" fill-rule="nonzero" stroke-width="0" stroke-linecap="butt" stroke-linejoin="miter"/><path d="M228.28337,193.48191c0,-5.5332 4.48554,-10.01874 10.01874,-10.01874c5.5332,0 10.01874,4.48554 10.01874,10.01874c0,5.5332 -4.48554,10.01874 -10.01874,10.01874c-5.5332,0 -10.01874,-4.48554 -10.01874,-10.01874z" data-paper-data="{&quot;origPos&quot;:null}" fill="url(#color-9)" fill-rule="nonzero" stroke-width="0" stroke-linecap="butt" stroke-linejoin="miter"/><path d="M238.15852,190.39981c0,-2.1844 1.7708,-3.95521 3.9552,-3.95521c2.1844,0 3.9552,1.7708 3.9552,3.95521c0,2.1844 -1.7708,3.9552 -3.9552,3.9552c-2.1844,0 -3.9552,-1.7708 -3.9552,-3.9552z" data-paper-data="{&quot;origPos&quot;:null}" fill="#ffffff" fill-rule="nonzero" stroke-width="0" stroke-linecap="butt" stroke-linejoin="miter"/></g><path d="M177.46292,229.74791h118.51701" fill="none" fill-rule="nonzero" stroke="#ffffff" stroke-width="28.5" stroke-linecap="round" stroke-linejoin="miter"/><g fill="#ffffff" fill-rule="evenodd" stroke="none" stroke-width="1" stroke-linecap="round" stroke-linejoin="round"><path d="M128.28159,49.47906c0,0.99213 -0.22984,1.83163 -0.76407,2.5948l-15.49251,22.59007v19.38472c0,2.74744 -2.36585,4.96066 -5.1124,4.96066c-2.67201,0 -5.03697,-2.21322 -5.03697,-4.96066v-19.38472l-15.49295,-22.59007c-0.53422,-0.76318 -0.76318,-1.60267 -0.76318,-2.5948c0,-2.5948 2.06058,-4.65539 4.73126,-4.65539c1.52636,0 2.82376,0.68686 3.73957,1.90794l12.82228,19.23208l12.89682,-19.23208c0.84038,-1.22108 2.2141,-1.90794 3.74046,-1.90794c2.5948,0 4.7317,2.06058 4.7317,4.65539z"/><path d="M174.91087,78.70877c0,13.66088 -11.67573,20.30053 -20.37596,20.30053c-8.77743,0 -20.37774,-6.63965 -20.37774,-20.30053c0,-13.58457 11.6003,-20.37685 20.37774,-20.37685c8.70023,0 20.37596,6.79228 20.37596,20.37685zM144.07848,78.70877c0,7.32651 5.03786,11.6003 10.45642,11.6003c5.34225,0 10.45554,-4.2738 10.45554,-11.6003c0,-7.40283 -5.11329,-11.67662 -10.45554,-11.67662c-5.41856,0 -10.45642,4.2738 -10.45642,11.67662z"/><path d="M182.54265,80.76935v-17.24782c0,-2.74744 2.28953,-4.96066 5.03786,-4.96066c2.67112,0 4.96066,2.21322 4.96066,4.96066v17.24782c0,6.8686 3.58694,9.69236 8.0888,9.69236c6.86949,0 9.15813,-6.41069 9.46429,-8.54759v-18.39259c0,-2.74744 2.28865,-4.96066 4.96066,-4.96066c2.74744,0 5.03609,2.21322 5.03609,4.96066v30.29816c0,2.74744 -2.28865,5.03697 -5.03609,5.03697c-2.67201,0 -4.96066,-2.28953 -4.96066,-5.03697v-3.81589c-0.30616,2.74744 -4.80802,9.0055 -13.05034,9.0055c-7.70898,0 -14.50127,-5.03697 -14.50127,-18.23995z"/><path d="M308.62052,63.29258c0,0.68686 -0.45791,1.45004 -0.68686,2.28953l-10.22658,29.22971c-0.8395,2.51849 -2.67112,3.81589 -4.7317,3.81589c-2.21322,0 -3.96853,-1.2974 -4.96066,-3.81589l-9.31077,-21.82689l-9.31077,21.82689c-0.99213,2.51849 -2.82376,3.81589 -4.88434,3.81589c-2.21322,0 -3.96853,-1.2974 -4.80802,-3.81589l-10.15027,-29.22971c-0.30527,-0.8395 -0.68686,-1.60267 -0.68686,-2.28953c0,-2.67112 2.06058,-4.7317 4.7317,-4.7317c1.75531,0 3.66325,1.06845 4.19748,2.67112l7.32651,22.97165l9.08182,-22.59007c0.8395,-1.98426 2.36585,-3.05271 4.50275,-3.05271c2.21322,0 3.73868,1.06845 4.50275,3.05271l9.08182,22.59007l7.32651,-22.97165c0.53334,-1.60267 2.44217,-2.67112 4.2738,-2.67112c2.5948,0 4.7317,2.06058 4.7317,4.7317z"/><path d="M315.48913,48.18166c0,-2.67112 2.36585,-4.96066 5.11329,-4.96066c2.67112,0 5.03697,2.28953 5.03697,4.96066c0,2.67112 -2.36585,4.96066 -5.03697,4.96066c-2.74744,0 -5.11329,-2.28953 -5.11329,-4.96066zM325.56307,63.59785v30.22184c0,2.82376 -2.28953,5.11329 -4.96066,5.11329c-2.74744,0 -5.03697,-2.28953 -5.03697,-5.11329v-30.22184c0,-2.74744 2.28953,-5.03697 5.03697,-5.03697c2.67112,0 4.96066,2.28953 4.96066,5.03697z"/><path d="M372.34499,76.64819v17.24782c0,2.74744 -2.28865,4.96066 -5.03609,4.96066c-2.67112,0 -4.96066,-2.21322 -4.96066,-4.96066v-17.24782c0,-6.8686 -3.58782,-9.69236 -8.09057,-9.69236c-6.86771,0 -9.15813,6.41069 -9.46341,8.54759v18.39259c0,2.74744 -2.28865,4.96066 -4.95977,4.96066c-2.74744,0 -5.03697,-2.21322 -5.03697,-4.96066v-30.29816c0,-2.74744 2.28953,-5.03697 5.03697,-5.03697c2.67112,0 4.95977,2.28953 4.95977,5.03697v3.81589c0.30527,-2.74744 4.80891,-9.0055 13.05123,-9.0055c7.70721,0 14.49949,5.03697 14.49949,18.23995z"/><path d="M392.87536,50.47119v26.10068c0,3.05271 -2.51849,5.64752 -5.5712,5.64752c-3.05271,0 -5.64752,-2.5948 -5.64752,-5.64752v-26.10068c0,-3.05271 2.5948,-5.64752 5.64752,-5.64752c3.05271,0 5.5712,2.5948 5.5712,5.64752zM381.50401,92.9802c0,-3.12903 2.5948,-5.72383 5.80015,-5.72383c3.12814,0 5.72383,2.5948 5.72383,5.72383c0,3.20535 -2.59569,5.80015 -5.72383,5.80015c-3.20535,0 -5.80015,-2.5948 -5.80015,-5.80015z"/></g><g><path d="M275.45842,294.74943l158.51701,0.5" fill="none" fill-rule="nonzero" stroke="#ffffff" stroke-width="28.5" stroke-linecap="round" stroke-linejoin="miter"/><path d="M433.80876,320.08276l-158.51701,-0.5" fill="none" fill-rule="nonzero" stroke="#ffffff" stroke-width="28.5" stroke-linecap="round" stroke-linejoin="miter"/><path d="M261.03141,321.20453v-25.81788h187.29994l-0.21709,26.07222z" fill="#ffffff" fill-rule="nonzero" stroke="none" stroke-width="0" stroke-linecap="butt" stroke-linejoin="miter"/><path d="M277.97137,304.066c-1.35904,-1.14096 -2.21473,-2.86916 -2.21473,-4.7819c0,-3.49001 2.81889,-6.3089 6.3089,-6.3089c3.47325,0 6.29212,2.81889 6.29212,6.3089c0,1.92958 -0.83895,3.64101 -2.21493,4.78202c1.7282,0.82217 3.2215,2.13092 4.34568,3.77524c1.2752,1.87925 2.08059,4.21151 2.19804,6.74514c0.03357,0.23491 0.03356,0.46981 0.03356,0.70472c0,6.72836 -21.32604,6.72836 -21.32604,0c0,-5.05046 2.70141,-9.37946 6.57735,-11.22513z" id="follow-icon" fill="#376db8" fill-rule="evenodd" stroke="#376db8" stroke-width="0.5" stroke-linecap="round" stroke-linejoin="round"/><path d="M276.44062,302.58327c-1.35904,-1.14096 -2.21473,-2.86916 -2.21473,-4.7819c0,-3.49001 2.81888,-6.3089 6.3089,-6.3089c3.47325,0 6.29212,2.81889 6.29212,6.3089c0,1.92958 -0.83895,3.64101 -2.21493,4.78202c1.7282,0.82217 3.2215,2.13092 4.34568,3.77524c1.2752,1.87925 2.08059,4.21151 2.19804,6.74515c0.03357,0.23491 0.03357,0.46981 0.03357,0.70472c0,6.72836 -21.32605,6.72836 -21.32605,0c0,-5.05046 2.70141,-9.37946 6.57735,-11.22513z" id="follow-icon" fill="#4c97ff" fill-rule="evenodd" stroke="#4c97ff" stroke-width="0.5" stroke-linecap="round" stroke-linejoin="round"/><text transform="translate(300.24165,303.46686) scale(0.31123,0.31123)" font-size="40" xml:space="preserve" fill="#000000" fill-rule="nonzero" stroke="none" stroke-width="1" stroke-linecap="butt" stroke-linejoin="miter" stroke-miterlimit="10" stroke-dasharray="" stroke-dashoffset="0" font-family="Sans Serif" font-weight="normal" text-anchor="start" style="mix-blend-mode: normal"><tspan x="0" dy="0">Make sure to follow!</tspan><tspan x="0" dy="46.15px">A sequel is coming out!</tspan></text></g></g></g></svg>