<svg version="1.1" xmlns="http://www.w3.org/2000/svg" xmlns:xlink="http://www.w3.org/1999/xlink" width="170" height="185"><g transform="translate(-158.55707,-83.66847)"><g data-paper-data="{&quot;isPaintingLayer&quot;:true}" fill-rule="nonzero" stroke-width="0" stroke-linecap="butt" stroke-linejoin="miter" stroke-miterlimit="10" stroke-dasharray="" stroke-dashoffset="0" style="mix-blend-mode: normal"><g data-paper-data="{&quot;origPos&quot;:null}" fill="#b82832" stroke="none"><path d="M189.00548,233.90648l0.32341,-25.49582l99.31646,-0.37799l-0.22314,25.87383z" data-paper-data="{&quot;origPos&quot;:null}"/><path d="M273.23632,240.48339c-0.92187,-0.54855 -0.78357,-1.61987 -0.78357,-1.61987v-12.50239h16.08182v12.45478c0,0 0.23183,1.06518 -0.7516,1.65056c-0.98344,0.58538 -2.82891,0.48068 -2.82891,0.48068h-8.99968c0,0 -1.79618,0.08481 -2.71806,-0.46374z" data-paper-data="{&quot;origPos&quot;:null}"/><path d="M245.14263,240.70629c-0.92187,-0.54855 -0.78356,-1.61987 -0.78356,-1.61987v-12.50239h16.08183v12.45477c0,0 0.23183,1.06518 -0.75161,1.65056c-0.98344,0.58538 -2.82891,0.48068 -2.82891,0.48068h-8.99968c0,0 -1.79619,0.08481 -2.71806,-0.46375z" data-paper-data="{&quot;origPos&quot;:null}"/><path d="M216.82873,240.78517c-0.92187,-0.54855 -0.78356,-1.61987 -0.78356,-1.61987v-12.50239h16.08182v12.45478c0,0 0.23184,1.06518 -0.7516,1.65056c-0.98344,0.58538 -2.82891,0.48068 -2.82891,0.48068h-8.99968c0,0 -1.79619,0.08481 -2.71806,-0.46374z" data-paper-data="{&quot;origPos&quot;:null}"/><path d="M189.75297,241.44013c-0.90795,-0.54855 -0.77174,-1.61987 -0.77174,-1.61987v-12.50239h15.83896v12.45477c0,0 0.22833,1.06519 -0.74026,1.65056c-0.96859,0.58538 -2.78619,0.48068 -2.78619,0.48068h-8.86377c0,0 -1.76906,0.08481 -2.67701,-0.46375z" data-paper-data="{&quot;origPos&quot;:null}"/></g><path d="M189.02238,224.91638l0.37105,-45.57231l99.70454,0.07794l0.13371,28.74674c0,0 -0.21618,0.89227 -0.70141,1.16518c-0.48523,0.27291 -2.02747,0.38727 -2.02747,0.38727l-68.59116,-0.08812c0,0 -1.04765,-0.07685 -1.61624,0.25889c-0.56859,0.33575 -0.44744,0.95971 -0.44744,0.95971l-0.09121,3.68244c0,0 -0.20692,0.72384 0.43627,1.08752c0.64319,0.36369 1.94799,0.26063 1.94799,0.26063l67.47031,-0.02285c0,0 1.56572,0.09663 2.11039,0.37328c0.54467,0.27665 0.80241,1.15655 0.80241,1.15655l-0.04291,7.46198z" data-paper-data="{&quot;origPos&quot;:null}" fill="#fe404f" stroke="#000000"/><path d="M189.35517,188.83766v-7.49662c0,0 0.03818,-3.05148 2.77859,-4.45044c2.74041,-1.39895 7.77553,-1.29895 7.77553,-1.29895h76.93528c0,0 6.44492,-0.03062 9.32105,1.67645c2.87613,1.70706 2.83257,5.24282 2.83257,5.24282v6.32674z" data-paper-data="{&quot;origPos&quot;:null}" fill="#b82832" stroke="none"/><path d="M209.5218,168.69546c1.14174,-0.69093 3.49827,-0.6017 3.49827,-0.6017l41.268,-0.13608c0,0 5.99622,-0.02855 8.67829,1.56333c2.68207,1.59188 2.6553,4.87268 2.6553,4.87268v5.91626h-57.30603l0.17562,-9.47742c0,0 -0.11119,-1.44615 1.03055,-2.13708z" data-paper-data="{&quot;origPos&quot;:null}" fill="#b82832" stroke="none"/><g data-paper-data="{&quot;origPos&quot;:null}" fill="#ffffff" stroke="none"><path d="M287.79317,209.82226c0,0 1.29537,0.02099 1.60945,0.7414c0.31408,0.72039 -0.64215,1.47734 -0.64215,1.47734l-7.74481,7.39044c0,0 -0.90557,1.11046 -1.94471,1.03961c-1.03914,-0.07086 -1.8741,-1.3 -1.8741,-1.3l-9.18059,-9.34878z" data-paper-data="{&quot;origPos&quot;:null,&quot;index&quot;:null}"/><path d="M270.39317,209.82226c0,0 1.29538,0.02099 1.60945,0.7414c0.31408,0.72039 -0.64216,1.47734 -0.64216,1.47734l-7.74481,7.39044c0,0 -0.90557,1.11046 -1.94471,1.03961c-1.03914,-0.07086 -1.8741,-1.3 -1.8741,-1.3l-9.18059,-9.34878z" data-paper-data="{&quot;origPos&quot;:null,&quot;index&quot;:null}"/></g><path d="M229.35072,197.0002c-1.79194,-1.02454 -1.4572,-3.05921 -1.4572,-3.05921l0.16223,-16.61923c0,0 0.04546,-2.38845 2.39299,-3.15059c2.34753,-0.76214 6.73526,0.34892 6.73526,0.34892l49.00367,18.05449c0,0 3.99774,1.48809 2.48058,3.66202c-1.37726,1.97346 -6.68494,1.7063 -6.68494,1.7063l-47.25865,-0.0962c0,0 -3.582,0.17805 -5.37394,-0.84649z" data-paper-data="{&quot;origPos&quot;:null}" fill="#fdf883" stroke="none"/><path d="M244.78775,185.10483c0,-3.14611 4.30926,-5.69654 9.625,-5.69654c5.31574,0 9.625,2.55043 9.625,5.69654c0,3.14611 -4.30926,5.69654 -9.625,5.69654c-5.31574,0 -9.625,-2.55043 -9.625,-5.69654z" data-paper-data="{&quot;origPos&quot;:null}" fill="#f02333" stroke="none"/><path d="M158.55707,268.66847v-185h170v185z" fill="none" stroke="none"/></g></g></svg>