<svg version="1.1" xmlns="http://www.w3.org/2000/svg" xmlns:xlink="http://www.w3.org/1999/xlink" width="623.19914" height="251.49961" viewBox="0,0,623.19914,251.49961"><defs><linearGradient x1="64.27176" y1="164.83761" x2="64.27176" y2="364.20728" gradientUnits="userSpaceOnUse" id="color-1"><stop offset="0" stop-color="#27a5ff"/><stop offset="1" stop-color="#4dc4ff"/></linearGradient><linearGradient x1="325.8651" y1="110.70769" x2="325.8651" y2="325.96982" gradientUnits="userSpaceOnUse" id="color-2"><stop offset="0" stop-color="#2e95ff"/><stop offset="1" stop-color="#2dbafe"/></linearGradient></defs><g transform="translate(84.28886,-112.70766)"><g data-paper-data="{&quot;isPaintingLayer&quot;:true}" fill-rule="nonzero" stroke="none" stroke-width="0" stroke-linecap="butt" stroke-linejoin="miter" stroke-miterlimit="10" stroke-dasharray="" stroke-dashoffset="0" style="mix-blend-mode: normal"><path d="M-84.28886,364.20727c0,0 35.87321,-58.93428 62.6118,-98.76577c26.73859,-39.83148 57.75207,-100.72542 99.15308,-100.60373c43.27024,0.11839 71.90733,60.43465 96.84323,96.00663c23.87221,36.56678 64.7691,103.36287 64.7691,103.36287z" data-paper-data="{&quot;origPos&quot;:null}" fill="url(#color-1)"/><path d="M142.31078,359.60364c0,0 56.98284,-97.26597 87.01585,-140.27258c30.033,-43.00659 64.86762,-106.7546 111.36958,-106.6232c48.60149,0.12783 80.76693,63.2521 108.77513,101.65965c26.81347,39.48164 89.43894,148.83975 89.43894,148.83975z" data-paper-data="{&quot;origPos&quot;:null}" fill="url(#color-2)"/></g></g></svg>