<svg version="1.1" xmlns="http://www.w3.org/2000/svg" xmlns:xlink="http://www.w3.org/1999/xlink" width="226.4802" height="50" viewBox="0,0,226.4802,50"><g transform="translate(-125.99656,-131.81665)"><g data-paper-data="{&quot;isPaintingLayer&quot;:true}" stroke-linecap="round" stroke-miterlimit="10" stroke-dasharray="" stroke-dashoffset="0" style="mix-blend-mode: normal"><path d="M150.99656,156.81665h176.4802" fill="none" fill-rule="nonzero" stroke="#ff3d3d" stroke-width="50" stroke-linejoin="miter"/><path d="M160.91758,165.15516c0,0.19144 -0.03829,0.38287 -0.07657,0.57431v1.30177c0,6.24084 -5.81967,8.23178 -9.87813,8.23178c-2.37381,0 -4.28818,-0.65088 -5.1305,-1.03376c-1.07205,-0.45945 -1.64636,-1.22519 -1.64636,-2.14409c0,-1.14862 0.9189,-1.99094 1.99094,-1.99094c0.22972,0 0.53602,0.03829 1.03376,0.19144c0.76575,0.19144 2.06752,0.65088 3.79045,0.65088c3.10127,0 4.8242,-1.64636 4.8242,-3.90531v-2.60354c-0.3063,1.18691 -2.33553,3.25442 -5.66653,3.25442c-4.21161,0 -9.26568,-3.25442 -9.26568,-10.22272c0,-6.81515 5.09236,-10.18443 9.26568,-10.18443c2.7184,0 4.90078,1.45492 5.66653,3.25442v-0.65088c0,-1.34006 1.14862,-2.48868 2.52696,-2.48868c1.34006,0 2.56525,1.14862 2.56525,2.48868zM156.05509,157.45941c0,-4.32647 -2.83326,-5.89625 -4.97735,-5.89625c-2.52696,0 -5.16879,1.99094 -5.16879,5.89625c0,3.9436 2.64183,5.89625 5.16879,5.89625c2.14409,0 4.97735,-1.56978 4.97735,-5.89625z" fill="#ffffff" fill-rule="evenodd" stroke="none" stroke-width="1" stroke-linejoin="round"/><path d="M184.73231,149.87851v15.27665c0,1.37834 -1.22519,2.48868 -2.56525,2.48868c-1.37834,0 -2.52696,-1.11033 -2.52696,-2.48868v-0.72746c-0.3063,1.18691 -2.33553,3.25442 -5.66653,3.25442c-4.21161,0 -9.26553,-3.25442 -9.26553,-10.22272c0,-6.81515 5.09222,-10.18443 9.26553,-10.18443c2.7184,0 4.90078,1.45492 5.66653,3.25442v-0.65088c0,-1.34006 1.14862,-2.48868 2.52696,-2.48868c1.34006,0 2.56525,1.14862 2.56525,2.48868zM179.86981,157.45941c0,-4.32647 -2.83326,-5.89625 -4.97735,-5.89625c-2.52696,0 -5.16879,1.99094 -5.16879,5.89625c0,3.9436 2.64183,5.89625 5.16879,5.89625c2.14409,0 4.97735,-1.56978 4.97735,-5.89625z" fill="#ffffff" fill-rule="evenodd" stroke="none" stroke-width="1" stroke-linejoin="round"/><path d="M221.98588,156.46394v8.65294c0,1.37834 -1.14862,2.48868 -2.52696,2.48868c-1.34006,0 -2.48868,-1.11033 -2.48868,-2.48868v-8.65294c0,-3.44586 -1.7995,-4.86249 -4.05846,-4.86249c-3.44586,0 -4.63277,3.21614 -4.74763,4.28818v-0.03829v0.6126v8.65294c0,1.37834 -1.14862,2.48868 -2.52696,2.48868c-1.34006,0 -2.48868,-1.11033 -2.48868,-2.48868v-8.65294c0,-3.44586 -1.7995,-4.86249 -4.05846,-4.86249c-3.44586,0 -4.59448,3.21614 -4.74763,4.28818v9.22725c0,1.37834 -1.14862,2.48868 -2.48868,2.48868c-1.37834,0 -2.52696,-1.11033 -2.52696,-2.48868v-15.20007c0,-1.37834 1.14862,-2.52696 2.52696,-2.52696c1.34006,0 2.48868,1.14862 2.48868,2.52696v1.91437c0.15315,-1.37834 2.4121,-4.51791 6.54713,-4.51791c2.87155,0 5.47509,1.37834 6.62371,4.78592c1.07205,-2.37381 3.48415,-4.78592 7.19802,-4.78592c3.86702,0 7.27459,2.52696 7.27459,9.15067z" fill="#ffffff" fill-rule="evenodd" stroke="none" stroke-width="1" stroke-linejoin="round"/><path d="M245.53259,156.65537c0,1.99094 -1.11033,2.68011 -3.13956,2.68011l-11.37134,-0.07657c0.45945,2.79498 2.68011,4.28818 5.47509,4.28818c1.37834,0 2.02923,-0.3063 3.17785,-0.80403c0.68917,-0.3063 1.22519,-0.6126 1.87608,-0.6126c1.07205,0 1.72293,0.76575 1.72293,1.72293c0,0.6126 -0.26801,1.30177 -1.22519,2.1058c-1.41663,0.99547 -3.331,1.64636 -5.7431,1.64636c-5.09222,0 -10.49073,-3.13956 -10.49073,-10.10786c0,-6.89172 5.70481,-10.22272 10.06957,-10.22272c4.36476,0 9.64841,3.44586 9.64841,9.3804zM231.02169,155.81305h9.57183c-0.38287,-2.94812 -2.52696,-4.17332 -4.70934,-4.17332c-2.18238,0 -4.51791,1.22519 -4.86249,4.17332z" fill="#ffffff" fill-rule="evenodd" stroke="none" stroke-width="1" stroke-linejoin="round"/><path d="M280.02948,157.49769c0,6.85343 -5.85796,10.18443 -10.22272,10.18443c-4.40304,0 -10.22272,-3.331 -10.22272,-10.18443c0,-6.81515 5.81967,-10.22272 10.22272,-10.22272c4.36476,0 10.22272,3.40757 10.22272,10.22272zM264.5614,157.49769c0,3.67558 2.52696,5.81967 5.24536,5.81967c2.68011,0 5.24536,-2.14409 5.24536,-5.81967c0,-3.71387 -2.56525,-5.85796 -5.24536,-5.85796c-2.7184,0 -5.24536,2.14409 -5.24536,5.85796z" fill="#ffffff" fill-rule="evenodd" stroke="none" stroke-width="1" stroke-linejoin="round"/><path d="M300.66636,149.64879c0,0.45945 -0.15315,0.84232 -0.3063,1.14862l-6.73857,14.77891c-0.57431,1.18691 -1.34006,1.91437 -2.52696,1.91437c-1.18691,0 -1.95265,-0.72746 -2.48868,-1.91437l-6.77686,-14.77891c-0.11486,-0.3063 -0.26801,-0.68917 -0.26801,-1.14862c0,-1.22519 0.99547,-2.25895 2.29724,-2.25895c0.95718,0 1.87608,0.53602 2.4121,1.76122l4.8242,11.33305l4.86249,-11.33305c0.49774,-1.22519 1.41663,-1.76122 2.37381,-1.76122c1.34006,0 2.33553,1.03376 2.33553,2.25895z" fill="#ffffff" fill-rule="evenodd" stroke="none" stroke-width="1" stroke-linejoin="round"/><path d="M321.91583,156.65537c0,1.99094 -1.11033,2.68011 -3.13956,2.68011l-11.37134,-0.07657c0.45945,2.79498 2.68011,4.28818 5.47509,4.28818c1.37834,0 2.02923,-0.3063 3.17785,-0.80403c0.68917,-0.3063 1.22519,-0.6126 1.87608,-0.6126c1.07205,0 1.72293,0.76575 1.72293,1.72293c0,0.6126 -0.26801,1.30177 -1.22519,2.1058c-1.41663,0.99547 -3.331,1.64636 -5.7431,1.64636c-5.09222,0 -10.49073,-3.13956 -10.49073,-10.10786c0,-6.89172 5.70481,-10.22272 10.06957,-10.22272c4.36476,0 9.64841,3.44586 9.64841,9.3804zM307.40493,155.81305h9.57183c-0.38287,-2.94812 -2.52696,-4.17332 -4.70934,-4.17332c-2.18238,0 -4.51791,1.22519 -4.86249,4.17332z" fill="#ffffff" fill-rule="evenodd" stroke="none" stroke-width="1" stroke-linejoin="round"/><path d="M339.10684,149.6105c0,1.41663 -1.07205,2.37381 -3.21614,2.37381c-3.0247,0 -4.93907,2.33553 -5.1305,3.90531v9.22725c0,1.34006 -1.14862,2.48868 -2.48868,2.48868c-1.37834,0 -2.52696,-1.14862 -2.52696,-2.48868v-15.20007c0,-1.37834 1.14862,-2.52696 2.52696,-2.52696c1.34006,0 2.48868,1.14862 2.48868,2.52696v1.91437c0.15315,-1.37834 2.52696,-4.51791 5.97282,-4.51791c1.56978,0 2.37381,1.07205 2.37381,2.29724z" fill="#ffffff" fill-rule="evenodd" stroke="none" stroke-width="1" stroke-linejoin="round"/></g></g></svg>