<svg version="1.1" xmlns="http://www.w3.org/2000/svg" xmlns:xlink="http://www.w3.org/1999/xlink" width="620.41947" height="257.78364"><defs><linearGradient x1="238.30064" y1="195.7967" x2="238.30064" y2="436.09716" gradientUnits="userSpaceOnUse" id="color-1"><stop offset="0" stop-color="#48f4ff" stop-opacity="0"/><stop offset="1" stop-color="#48f4ff"/></linearGradient></defs><g transform="translate(71.6504,-178.31352)"><g data-paper-data="{&quot;isPaintingLayer&quot;:true}" stroke="none" stroke-miterlimit="10" stroke-dasharray="" stroke-dashoffset="0" style="mix-blend-mode: normal"><path d="M30.41788,217.35256v-39.03904h454.80957v39.03904z" data-paper-data="{&quot;origPos&quot;:null}" fill="none" fill-rule="nonzero" stroke-width="0" stroke-linecap="butt" stroke-linejoin="miter"/><path d="M-31.41192,236.22603v0c0,-0.90528 1.02665,-1.63929 2.29318,-1.63929h40.42164c1.26653,0 2.29318,0.73401 2.29318,1.63929v0c0,0.90538 -1.02665,1.63938 -2.29318,1.63938h-40.42164c-1.26653,0 -2.29318,-0.73401 -2.29318,-1.63938z" data-paper-data="{&quot;origPos&quot;:null}" fill="#ffffff" fill-rule="evenodd" stroke-width="1" stroke-linecap="round" stroke-linejoin="round" opacity="0.42445"/><path d="M118.58808,237.95795v-0.21348c0,-0.94625 0.63892,-1.71345 1.42713,-1.71345h39.4695c0.78821,0 1.42713,0.55373 1.42713,1.49997v0.21348c0,0.94634 -0.63893,1.71357 -1.42713,1.71357h-39.4695c-0.78821,0 -1.42713,-0.55375 -1.42713,-1.5001z" data-paper-data="{&quot;origPos&quot;:null}" fill="#ffffff" fill-rule="evenodd" stroke-width="1" stroke-linecap="round" stroke-linejoin="round" opacity="0.42445"/><path d="M436.11059,329.90155v-0.21721c0,-0.96277 1.2697,-1.74338 2.83607,-1.74338h17.83585c1.56637,0 2.83608,0.56341 2.83608,1.52617v0.21721c0,0.96288 -1.26971,1.7435 -2.83608,1.7435h-17.83585c-1.56637,0 -2.83607,-0.56342 -2.83607,-1.5263z" data-paper-data="{&quot;origPos&quot;:null}" fill="#ffffff" fill-rule="evenodd" stroke-width="1" stroke-linecap="round" stroke-linejoin="round" opacity="0.42445"/><path d="M45.11059,339.90155v-0.21721c0,-0.96276 1.2697,-1.74338 2.83607,-1.74338h17.83585c1.56637,0 2.83608,0.56341 2.83608,1.52617v0.21721c0,0.96288 -1.26971,1.7435 -2.83608,1.7435h-17.83585c-1.56637,0 -2.83607,-0.56342 -2.83607,-1.5263z" data-paper-data="{&quot;origPos&quot;:null}" fill="#ffffff" fill-rule="evenodd" stroke-width="1" stroke-linecap="round" stroke-linejoin="round" opacity="0.42445"/><path d="M297.60222,238.1426v-0.21721c0,-0.96277 1.2697,-1.74338 2.83607,-1.74338h27.0191c1.56637,0 2.83608,0.56341 2.83608,1.52617v0.21721c0,0.96288 -1.26971,1.7435 -2.83608,1.7435h-27.0191c-1.56637,0 -2.83607,-0.56342 -2.83607,-1.5263z" data-paper-data="{&quot;origPos&quot;:null}" fill="#ffffff" fill-rule="evenodd" stroke-width="1" stroke-linecap="round" stroke-linejoin="round" opacity="0.42445"/><path d="M181.67069,354.37998v-0.21721c0,-0.96276 0.89162,-1.74338 1.99157,-1.74338h12.52485c1.09995,0 1.99158,0.56341 1.99158,1.52617v0.21721c0,0.96288 -0.89163,1.7435 -1.99158,1.7435h-12.52485c-1.09995,0 -1.99157,-0.56342 -1.99157,-1.5263z" data-paper-data="{&quot;origPos&quot;:null}" fill="#ffffff" fill-rule="evenodd" stroke-width="1" stroke-linecap="round" stroke-linejoin="round" opacity="0.42445"/><path d="M-71.6504,436.09716v-204.78471h619.90196v204.78471z" data-paper-data="{&quot;origPos&quot;:null}" fill="url(#color-1)" fill-rule="nonzero" stroke-width="0" stroke-linecap="butt" stroke-linejoin="miter"/><path d="M-71.59363,226.48917h620.3627v3.90167h-620.3627z" data-paper-data="{&quot;origPos&quot;:null}" fill="#ffffff" fill-rule="evenodd" stroke-width="1" stroke-linecap="round" stroke-linejoin="round" opacity="0.68561"/></g></g></svg>