<svg version="1.1" xmlns="http://www.w3.org/2000/svg" xmlns:xlink="http://www.w3.org/1999/xlink" width="517" height="543.4777"><g transform="translate(20.44293,82.94778)"><g data-paper-data="{&quot;isPaintingLayer&quot;:true}" fill-rule="nonzero" stroke-linejoin="miter" stroke-miterlimit="10" stroke-dasharray="" stroke-dashoffset="0" style="mix-blend-mode: normal"><path d="M26.20498,459.87616c0,0 -2.27627,4.45083 -2.41312,-9.87396c-0.41056,-42.97437 0.47301,-271.70711 0.47301,-271.70711l147.58919,-6.65693l0.27173,277.14812z" data-paper-data="{&quot;origPos&quot;:null,&quot;index&quot;:null}" fill="#03a63b" stroke="none" stroke-width="0" stroke-linecap="butt"/><path d="M23.9433,151.29418l148.50064,-0.16389l-0.40096,30.16244l-147.89061,0.08594z" data-paper-data="{&quot;origPos&quot;:null,&quot;index&quot;:null}" fill="#48c900" stroke="none" stroke-width="0" stroke-linecap="butt"/><path d="M45.94276,151.60471c-10.6258,-0.023 -21.86069,0.19108 -21.86069,0.19108l-0.05854,-7.20929c0,0 137.80429,0 140.04206,0c0.74592,0 2.35548,0.25 3.1014,0.25c1.88202,0 3.69662,0.43076 4.76753,1.7312c1.07711,1.30796 0.82415,5.31142 0.82415,5.31142c0,0 -94.93851,-0.20543 -126.81591,-0.27441z" data-paper-data="{&quot;origPos&quot;:null,&quot;index&quot;:null}" fill="#b4ff53" stroke="none" stroke-width="0" stroke-linecap="butt"/><path d="M123.19496,166.38286h-63.04564" data-paper-data="{&quot;origPos&quot;:null}" fill="none" stroke="#3dc400" stroke-width="28.5" stroke-linecap="round"/><path d="M-20.44293,368.7298v-271h517v271z" fill="none" stroke="none" stroke-width="0" stroke-linecap="butt"/><path d="M160.39416,181.54497c0,0 6.75554,-0.43922 9.15045,-3.08417c2.3949,-2.64495 2.31668,-8.18021 2.31668,-8.18021l0.20439,-253.22836l261.75306,12.16154l6.61999,476.9914l-286.15755,10.30217l-13.32793,-234.40374z" data-paper-data="{&quot;origPos&quot;:null,&quot;index&quot;:null}" fill="#03a63b" stroke="none" stroke-width="0" stroke-linecap="butt"/></g></g></svg>