<svg version="1.1" xmlns="http://www.w3.org/2000/svg" xmlns:xlink="http://www.w3.org/1999/xlink" width="836.33633" height="372.37237"><defs><linearGradient x1="-30.76764" y1="87.52221" x2="-30.76764" y2="116.58937" gradientUnits="userSpaceOnUse" id="color-1"><stop offset="0" stop-color="#ffe9d8"/><stop offset="1" stop-color="#f7cbd0"/></linearGradient><linearGradient x1="5.97097" y1="87.44749" x2="5.97097" y2="116.51464" gradientUnits="userSpaceOnUse" id="color-2"><stop offset="0" stop-color="#ffe9d8"/><stop offset="1" stop-color="#f7cbd0"/></linearGradient><linearGradient x1="41.82251" y1="87.37275" x2="41.82251" y2="116.43991" gradientUnits="userSpaceOnUse" id="color-3"><stop offset="0" stop-color="#ffe9d8"/><stop offset="1" stop-color="#f7cbd0"/></linearGradient><linearGradient x1="80.16007" y1="91.89675" x2="80.16007" y2="123.13876" gradientUnits="userSpaceOnUse" id="color-4"><stop offset="0" stop-color="#fde3d6"/><stop offset="1" stop-color="#f7cbd0"/></linearGradient><linearGradient x1="-51.47011" y1="99.33929" x2="-51.47011" y2="129.49962" gradientUnits="userSpaceOnUse" id="color-5"><stop offset="0" stop-color="#fde0d6"/><stop offset="1" stop-color="#f7cbd0"/></linearGradient><linearGradient x1="60.41075" y1="98.63901" x2="60.41075" y2="128.79936" gradientUnits="userSpaceOnUse" id="color-6"><stop offset="0" stop-color="#fbdcd4"/><stop offset="1" stop-color="#f7cbd0"/></linearGradient><linearGradient x1="-12.07972" y1="124.82904" x2="-12.07972" y2="155.23905" gradientUnits="userSpaceOnUse" id="color-7"><stop offset="0" stop-color="#ffe9d8"/><stop offset="1" stop-color="#f7cbd0"/></linearGradient><linearGradient x1="25.42809" y1="124.75084" x2="25.42809" y2="155.16085" gradientUnits="userSpaceOnUse" id="color-8"><stop offset="0" stop-color="#ffe9d8"/><stop offset="1" stop-color="#f7cbd0"/></linearGradient><linearGradient x1="63.86395" y1="124.67268" x2="63.86395" y2="155.08268" gradientUnits="userSpaceOnUse" id="color-9"><stop offset="0" stop-color="#ffe9d8"/><stop offset="1" stop-color="#f7cbd0"/></linearGradient><linearGradient x1="102.29983" y1="124.59449" x2="102.29983" y2="155.00449" gradientUnits="userSpaceOnUse" id="color-10"><stop offset="0" stop-color="#ffe9d8"/><stop offset="1" stop-color="#f7cbd0"/></linearGradient><linearGradient x1="139.80762" y1="124.51629" x2="139.80762" y2="154.92631" gradientUnits="userSpaceOnUse" id="color-11"><stop offset="0" stop-color="#ffe9d8"/><stop offset="1" stop-color="#f7cbd0"/></linearGradient><linearGradient x1="178.70752" y1="124.90212" x2="178.70752" y2="155.31215" gradientUnits="userSpaceOnUse" id="color-12"><stop offset="0" stop-color="#ffe9d8"/><stop offset="1" stop-color="#f7cbd0"/></linearGradient><linearGradient x1="65.53677" y1="129.48385" x2="65.53677" y2="162.16918" gradientUnits="userSpaceOnUse" id="color-13"><stop offset="0" stop-color="#fde3d6"/><stop offset="1" stop-color="#f7cbd0"/></linearGradient><linearGradient x1="-37.62067" y1="136.21835" x2="-37.62067" y2="167.77204" gradientUnits="userSpaceOnUse" id="color-14"><stop offset="0" stop-color="#fde0d6"/><stop offset="1" stop-color="#f7cbd0"/></linearGradient><linearGradient x1="200.12984" y1="135.34983" x2="200.12984" y2="166.90352" gradientUnits="userSpaceOnUse" id="color-15"><stop offset="0" stop-color="#fbdcd4"/><stop offset="1" stop-color="#f7cbd0"/></linearGradient><linearGradient x1="238.24557" y1="187.74268" x2="238.24557" y2="216.80983" gradientUnits="userSpaceOnUse" id="color-16"><stop offset="0" stop-color="#ffe9d8"/><stop offset="1" stop-color="#f7cbd0"/></linearGradient><linearGradient x1="274.09711" y1="187.66794" x2="274.09711" y2="216.7351" gradientUnits="userSpaceOnUse" id="color-17"><stop offset="0" stop-color="#ffe9d8"/><stop offset="1" stop-color="#f7cbd0"/></linearGradient><linearGradient x1="310.83571" y1="187.59322" x2="310.83571" y2="216.66037" gradientUnits="userSpaceOnUse" id="color-18"><stop offset="0" stop-color="#ffe9d8"/><stop offset="1" stop-color="#f7cbd0"/></linearGradient><linearGradient x1="347.57432" y1="187.51848" x2="347.57432" y2="216.58563" gradientUnits="userSpaceOnUse" id="color-19"><stop offset="0" stop-color="#ffe9d8"/><stop offset="1" stop-color="#f7cbd0"/></linearGradient><linearGradient x1="312.43467" y1="192.19194" x2="312.43467" y2="223.43395" gradientUnits="userSpaceOnUse" id="color-20"><stop offset="0" stop-color="#fde3d6"/><stop offset="1" stop-color="#f7cbd0"/></linearGradient><linearGradient x1="214.38961" y1="199.12906" x2="214.38961" y2="229.28939" gradientUnits="userSpaceOnUse" id="color-21"><stop offset="0" stop-color="#fde0d6"/><stop offset="1" stop-color="#f7cbd0"/></linearGradient><linearGradient x1="370.85215" y1="198.29887" x2="370.85215" y2="228.45922" gradientUnits="userSpaceOnUse" id="color-22"><stop offset="0" stop-color="#fbdcd4"/><stop offset="1" stop-color="#f7cbd0"/></linearGradient><linearGradient x1="330.43129" y1="223.89778" x2="330.43129" y2="252.96494" gradientUnits="userSpaceOnUse" id="color-23"><stop offset="0" stop-color="#ffe9d8"/><stop offset="1" stop-color="#f7cbd0"/></linearGradient><linearGradient x1="367.1699" y1="223.82306" x2="367.1699" y2="252.89021" gradientUnits="userSpaceOnUse" id="color-24"><stop offset="0" stop-color="#ffe9d8"/><stop offset="1" stop-color="#f7cbd0"/></linearGradient><linearGradient x1="403.02144" y1="223.74832" x2="403.02144" y2="252.81548" gradientUnits="userSpaceOnUse" id="color-25"><stop offset="0" stop-color="#ffe9d8"/><stop offset="1" stop-color="#f7cbd0"/></linearGradient><linearGradient x1="439.76003" y1="223.6736" x2="439.76003" y2="252.74075" gradientUnits="userSpaceOnUse" id="color-26"><stop offset="0" stop-color="#ffe9d8"/><stop offset="1" stop-color="#f7cbd0"/></linearGradient><linearGradient x1="476.49865" y1="223.59886" x2="476.49865" y2="252.66601" gradientUnits="userSpaceOnUse" id="color-27"><stop offset="0" stop-color="#ffe9d8"/><stop offset="1" stop-color="#f7cbd0"/></linearGradient><linearGradient x1="441.359" y1="228.27232" x2="441.359" y2="259.51433" gradientUnits="userSpaceOnUse" id="color-28"><stop offset="0" stop-color="#fde3d6"/><stop offset="1" stop-color="#f7cbd0"/></linearGradient><linearGradient x1="309.72882" y1="234.70944" x2="309.72882" y2="264.86977" gradientUnits="userSpaceOnUse" id="color-29"><stop offset="0" stop-color="#fde0d6"/><stop offset="1" stop-color="#f7cbd0"/></linearGradient><linearGradient x1="499.77648" y1="233.87925" x2="499.77648" y2="264.0396" gradientUnits="userSpaceOnUse" id="color-30"><stop offset="0" stop-color="#fbdcd4"/><stop offset="1" stop-color="#f7cbd0"/></linearGradient><linearGradient x1="7.27" y1="163.63713" x2="7.27" y2="192.70429" gradientUnits="userSpaceOnUse" id="color-31"><stop offset="0" stop-color="#ffe9d8"/><stop offset="1" stop-color="#f7cbd0"/></linearGradient><linearGradient x1="44.00861" y1="163.56241" x2="44.00861" y2="192.62956" gradientUnits="userSpaceOnUse" id="color-32"><stop offset="0" stop-color="#ffe9d8"/><stop offset="1" stop-color="#f7cbd0"/></linearGradient><linearGradient x1="79.86015" y1="163.48767" x2="79.86015" y2="192.55483" gradientUnits="userSpaceOnUse" id="color-33"><stop offset="0" stop-color="#ffe9d8"/><stop offset="1" stop-color="#f7cbd0"/></linearGradient><linearGradient x1="118.19771" y1="168.01167" x2="118.19771" y2="199.25368" gradientUnits="userSpaceOnUse" id="color-34"><stop offset="0" stop-color="#fde3d6"/><stop offset="1" stop-color="#f7cbd0"/></linearGradient><linearGradient x1="98.44839" y1="174.75393" x2="98.44839" y2="204.91428" gradientUnits="userSpaceOnUse" id="color-35"><stop offset="0" stop-color="#fbdcd4"/><stop offset="1" stop-color="#f7cbd0"/></linearGradient><linearGradient x1="-65.80512" y1="163.18888" x2="-65.80512" y2="192.25604" gradientUnits="userSpaceOnUse" id="color-36"><stop offset="0" stop-color="#ffe9d8"/><stop offset="1" stop-color="#f7cbd0"/></linearGradient><linearGradient x1="-29.06651" y1="163.11416" x2="-29.06651" y2="192.18131" gradientUnits="userSpaceOnUse" id="color-37"><stop offset="0" stop-color="#ffe9d8"/><stop offset="1" stop-color="#f7cbd0"/></linearGradient><linearGradient x1="6.78503" y1="163.03942" x2="6.78503" y2="192.10658" gradientUnits="userSpaceOnUse" id="color-38"><stop offset="0" stop-color="#ffe9d8"/><stop offset="1" stop-color="#f7cbd0"/></linearGradient><linearGradient x1="43.52362" y1="162.9647" x2="43.52362" y2="192.03185" gradientUnits="userSpaceOnUse" id="color-39"><stop offset="0" stop-color="#ffe9d8"/><stop offset="1" stop-color="#f7cbd0"/></linearGradient><linearGradient x1="45.12259" y1="167.56342" x2="45.12259" y2="198.80543" gradientUnits="userSpaceOnUse" id="color-40"><stop offset="0" stop-color="#fde3d6"/><stop offset="1" stop-color="#f7cbd0"/></linearGradient><linearGradient x1="-86.50759" y1="175.00596" x2="-86.50759" y2="205.16629" gradientUnits="userSpaceOnUse" id="color-41"><stop offset="0" stop-color="#fde0d6"/><stop offset="1" stop-color="#f7cbd0"/></linearGradient></defs><g transform="translate(268.35303,96.43022)"><g data-paper-data="{&quot;isPaintingLayer&quot;:true}" stroke-miterlimit="10" stroke-dasharray="" stroke-dashoffset="0" style="mix-blend-mode: normal"><g data-paper-data="{&quot;origPos&quot;:null}" fill-rule="nonzero" stroke-linejoin="miter"><g data-paper-data="{&quot;origPos&quot;:null}" stroke="none" stroke-linecap="butt"><path d="M-6.81678,109.69893c0,12.24786 -27.05558,4.43534 -27.05558,4.43534c0,0 -20.84611,7.81252 -20.84611,-4.43534c0,-12.24786 10.72316,-22.1767 23.95085,-22.1767c13.22768,0 23.95085,9.92884 23.95085,22.1767z" data-paper-data="{&quot;origPos&quot;:null}" fill="url(#color-1)" stroke-width="NaN"/><path d="M29.92182,109.6242c0,12.24786 -27.05558,4.43534 -27.05558,4.43534c0,0 -20.84611,7.81253 -20.84611,-4.43534c0,-12.24786 10.72316,-22.17671 23.95085,-22.17671c13.22768,0 23.95085,9.92885 23.95085,22.17671z" data-paper-data="{&quot;origPos&quot;:null}" fill="url(#color-2)" stroke-width="NaN"/><path d="M65.77336,109.54947c0,12.24786 -27.05558,4.43534 -27.05558,4.43534c0,0 -20.84611,7.81253 -20.84611,-4.43534c0,-12.24786 10.72316,-22.17671 23.95085,-22.17671c13.22768,0 23.95085,9.92885 23.95085,22.17671z" data-paper-data="{&quot;origPos&quot;:null}" fill="url(#color-3)" stroke-width="NaN"/><path d="M-39.19181,123.13876v-30.74431l93.29811,1.66667l14.22687,29.87477z" data-paper-data="{&quot;origPos&quot;:null}" fill="url(#color-4)" stroke-width="0"/><path d="M-35.9464,114.41945c0,8.32855 -8.43367,15.94632 -17.00717,15.94632c-8.5735,0 -14.04022,-7.61778 -14.04022,-15.94632c0,-8.32855 6.9502,-15.08016 15.5237,-15.08016c8.5735,0 15.5237,6.75161 15.5237,15.08016z" data-paper-data="{&quot;origPos&quot;:null}" fill="url(#color-5)" stroke-width="0"/><path d="M75.93443,113.7192c0,8.32855 -4.7083,16.63162 -13.2818,16.63162c-8.5735,0 -17.7656,-8.30307 -17.7656,-16.63162c0,-5.66446 1.89289,-9.10116 6.55884,-12.31285c3.06243,-2.10796 5.24708,-2.76731 8.96486,-2.76731c8.5735,0 15.5237,6.75162 15.5237,15.08016z" data-paper-data="{&quot;origPos&quot;:null}" fill="url(#color-6)" stroke-width="0"/></g><path d="M-54.43104,127.75085h121.79394" data-paper-data="{&quot;origPos&quot;:null}" fill="#ffc3d5" stroke="#ffc3d5" stroke-width="9" stroke-linecap="round"/><path d="M6.7261,122.94967c4.49921,2.53063 -11.64155,3.31201 -19.47867,3.31201c-7.83713,0 -14.74843,5.59214 -14.74843,-0.28571c0,-0.3259 -6.74031,-3.09679 -6.44486,-3.23435c2.99165,-1.39289 5.67713,-1.54472 7.80643,-2.82298c4.68556,-2.81281 7.96956,-2.71514 12.8288,-2.71514c0,0 5.05677,-0.65893 9.67257,2.34864c3.43195,1.91012 5.19549,1.76923 10.36417,3.39753z" data-paper-data="{&quot;origPos&quot;:null}" fill="#ffc3d5" stroke="none" stroke-width="0" stroke-linecap="butt"/><path d="M44.88211,122.7382c4.49921,2.53063 -11.64155,3.31201 -19.47868,3.31201c-7.83713,0 -14.74843,5.59214 -14.74843,-0.28571c0,-0.3259 -6.74031,-3.09679 -6.44486,-3.23435c2.99165,-1.39289 5.67713,-1.54472 7.80644,-2.82298c4.68556,-2.81281 7.96956,-2.71514 12.8288,-2.71514c0,0 5.05677,-0.65893 9.67257,2.34864c3.43195,1.91012 5.19549,1.76923 10.36417,3.39753z" data-paper-data="{&quot;origPos&quot;:null}" fill="#ffc3d5" stroke="none" stroke-width="0" stroke-linecap="butt"/></g><g data-paper-data="{&quot;origPos&quot;:null}" fill-rule="nonzero" stroke-linejoin="miter"><g data-paper-data="{&quot;origPos&quot;:null}" stroke="none" stroke-linecap="butt"><path d="M12.9776,148.03027c0,12.81369 -28.3055,4.64025 -28.3055,4.64025c0,0 -21.80916,8.17345 -21.80916,-4.64025c0,-12.81369 11.21855,-23.20124 25.05733,-23.20124c13.83878,0 25.05733,10.38755 25.05733,23.20124z" data-paper-data="{&quot;origPos&quot;:null}" fill="url(#color-7)" stroke-width="NaN"/><path d="M50.48542,147.95209c0,12.81369 -28.3055,4.64025 -28.3055,4.64025c0,0 -21.80916,8.17345 -21.80916,-4.64025c0,-12.81369 11.21855,-23.20124 25.05733,-23.20124c13.83878,0 25.05733,10.38755 25.05733,23.20124z" data-paper-data="{&quot;origPos&quot;:null}" fill="url(#color-8)" stroke-width="NaN"/><path d="M88.92127,147.87391c0,12.81369 -28.3055,4.64025 -28.3055,4.64025c0,0 -21.80916,8.17345 -21.80916,-4.64025c0,-12.81369 11.21854,-23.20124 25.05733,-23.20124c13.83878,0 25.05733,10.38755 25.05733,23.20124z" data-paper-data="{&quot;origPos&quot;:null}" fill="url(#color-9)" stroke-width="NaN"/><path d="M127.35715,147.79571c0,12.81369 -28.3055,4.64024 -28.3055,4.64024c0,0 -21.80916,8.17345 -21.80916,-4.64024c0,-12.81369 11.21854,-23.20124 25.05733,-23.20124c13.83878,0 25.05733,10.38755 25.05733,23.20124z" data-paper-data="{&quot;origPos&quot;:null}" fill="url(#color-10)" stroke-width="NaN"/><path d="M164.86496,147.71755c0,12.81369 -28.3055,4.64024 -28.3055,4.64024c0,0 -21.80916,8.17345 -21.80916,-4.64024c0,-12.81369 11.21855,-23.20124 25.05733,-23.20124c13.83878,0 25.05733,10.38755 25.05733,23.20124z" data-paper-data="{&quot;origPos&quot;:null}" fill="url(#color-11)" stroke-width="NaN"/><path d="M203.76485,148.10339c0,12.81369 -28.3055,4.64025 -28.3055,4.64025c0,0 -21.80916,8.17345 -21.80916,-4.64025c0,-12.81369 11.21854,-23.20124 25.05733,-23.20124c13.83878,0 25.05733,10.38755 25.05733,23.20124z" data-paper-data="{&quot;origPos&quot;:null}" fill="url(#color-12)" stroke-width="NaN"/><path d="M-35.35279,162.87436l7.75699,-31.45946l217.99828,-1.41036v32.16464z" data-paper-data="{&quot;origPos&quot;:null}" fill="url(#color-13)" stroke-width="0"/><path d="M-21.37976,151.99519c0,8.71332 -10.03162,16.03718 -19.00121,16.03718c-8.96958,0 -13.48052,-7.32387 -13.48052,-16.03718c0,-8.71332 7.27128,-15.77684 16.24087,-15.77684c8.96958,0 16.24087,7.06352 16.24087,15.77684z" data-paper-data="{&quot;origPos&quot;:null}" fill="url(#color-14)" stroke-width="0"/><path d="M216.37069,151.12668c0,8.71332 -5.44891,17.83887 -14.4185,17.83887c-8.96958,0 -18.06324,-9.12556 -18.06324,-17.83887c0,-8.71332 7.27127,-15.77684 16.24087,-15.77684c8.96958,0 16.24087,7.06353 16.24087,15.77684z" data-paper-data="{&quot;origPos&quot;:null}" fill="url(#color-15)" stroke-width="0"/></g><path d="M200.68466,165.59201c0,0 -50.9832,0 -85.21518,0c-62.77023,0 -159.3409,0 -159.3409,0" data-paper-data="{&quot;origPos&quot;:null}" fill="#ffc3d5" stroke="#ffc3d5" stroke-width="9" stroke-linecap="round"/><path d="M28.62906,161.75012c4.70706,2.64754 -12.17937,3.46502 -20.37856,3.46502c-8.19919,0 -15.42978,5.85048 -15.42978,-0.29891c0,-0.34096 -7.0517,-3.23986 -6.7426,-3.38377c3.12986,-1.45724 5.9394,-1.61608 8.16708,-2.95339c4.90203,-2.94276 8.33774,-2.84057 13.42146,-2.84057c0,0 5.29038,-0.68937 10.11942,2.45714c3.5905,1.99836 5.43552,1.85096 10.84298,3.55449z" data-paper-data="{&quot;origPos&quot;:null}" fill="#ffc3d5" stroke="none" stroke-width="0" stroke-linecap="butt"/><path d="M66.2007,161.40704c4.70706,2.64754 -12.17937,3.46502 -20.37856,3.46502c-8.19919,0 -15.42978,5.85048 -15.42978,-0.29891c0,-0.34096 -7.05168,-3.23986 -6.74259,-3.38377c3.12986,-1.45724 5.9394,-1.61608 8.16707,-2.95339c4.90203,-2.94276 8.33774,-2.84057 13.42146,-2.84057c0,0 5.29038,-0.68937 10.11942,2.45714c3.5905,1.99836 5.43552,1.85096 10.84298,3.55449z" data-paper-data="{&quot;origPos&quot;:null}" fill="#ffc3d5" stroke="none" stroke-width="0" stroke-linecap="butt"/><path d="M105.09963,161.18577c4.70706,2.64754 -12.17937,3.46502 -20.37855,3.46502c-8.19919,0 -15.42979,5.85048 -15.42979,-0.29891c0,-0.34096 -7.05168,-3.23986 -6.74259,-3.38377c3.12986,-1.45724 5.9394,-1.61608 8.16707,-2.95339c4.90203,-2.94276 8.33774,-2.84057 13.42146,-2.84057c0,0 5.29038,-0.68937 10.11942,2.45714c3.5905,1.99836 5.43552,1.85095 10.84298,3.55448z" data-paper-data="{&quot;origPos&quot;:null}" fill="#ffc3d5" stroke="none" stroke-width="0" stroke-linecap="butt"/><path d="M140.67673,161.40704c4.70706,2.64754 -12.17937,3.46502 -20.37855,3.46502c-8.19919,0 -15.42978,5.85048 -15.42978,-0.29891c0,-0.34096 -7.0517,-3.23986 -6.7426,-3.38377c3.12986,-1.45724 5.9394,-1.61608 8.16707,-2.95339c4.90203,-2.94276 8.33774,-2.84057 13.42146,-2.84057c0,0 5.29038,-0.68937 10.11942,2.45714c3.5905,1.99836 5.43552,1.85096 10.84298,3.55449z" data-paper-data="{&quot;origPos&quot;:null}" fill="#ffc3d5" stroke="none" stroke-width="0" stroke-linecap="butt"/><path d="M179.06582,161.18577c4.70706,2.64754 -12.17937,3.46502 -20.37856,3.46502c-8.19919,0 -15.42978,5.85048 -15.42978,-0.29891c0,-0.34096 -7.05168,-3.23986 -6.74259,-3.38377c3.12986,-1.45724 5.9394,-1.61608 8.16707,-2.95339c4.90203,-2.94276 8.33774,-2.84057 13.42146,-2.84057c0,0 5.29038,-0.68937 10.11942,2.45714c3.5905,1.99836 5.43552,1.85095 10.84298,3.55448z" data-paper-data="{&quot;origPos&quot;:null}" fill="#ffc3d5" stroke="none" stroke-width="0" stroke-linecap="butt"/></g><g data-paper-data="{&quot;origPos&quot;:null}" fill-rule="nonzero" stroke-linejoin="miter"><g data-paper-data="{&quot;origPos&quot;:null}" stroke="none" stroke-linecap="butt"><path d="M262.19642,209.91939c0,12.24786 -27.05558,4.43534 -27.05558,4.43534c0,0 -20.84611,7.81253 -20.84611,-4.43534c0,-12.24786 10.72316,-22.17671 23.95085,-22.17671c13.22768,0 23.95085,9.92885 23.95085,22.17671z" data-paper-data="{&quot;origPos&quot;:null}" fill="url(#color-16)" stroke-width="NaN"/><path d="M298.04796,209.84466c0,12.24786 -27.05558,4.43534 -27.05558,4.43534c0,0 -20.84611,7.81253 -20.84611,-4.43534c0,-12.24786 10.72316,-22.17671 23.95085,-22.17671c13.22768,0 23.95085,9.92885 23.95085,22.17671z" data-paper-data="{&quot;origPos&quot;:null}" fill="url(#color-17)" stroke-width="NaN"/><path d="M334.78656,209.76993c0,12.24786 -27.05558,4.43534 -27.05558,4.43534c0,0 -20.84611,7.81253 -20.84611,-4.43534c0,-12.24786 10.72315,-22.17671 23.95085,-22.17671c13.22768,0 23.95085,9.92885 23.95085,22.17671z" data-paper-data="{&quot;origPos&quot;:null}" fill="url(#color-18)" stroke-width="NaN"/><path d="M371.52516,209.69519c0,12.24786 -27.05558,4.43533 -27.05558,4.43533c0,0 -20.84611,7.81253 -20.84611,-4.43533c0,-12.24786 10.72315,-22.17671 23.95085,-22.17671c13.22768,0 23.95085,9.92885 23.95085,22.17671z" data-paper-data="{&quot;origPos&quot;:null}" fill="url(#color-19)" stroke-width="NaN"/><path d="M215.95961,224.40743l8.76134,-30.25757l134.02408,-1.46022l20.22687,30.74431z" data-paper-data="{&quot;origPos&quot;:null}" fill="url(#color-20)" stroke-width="0"/><path d="M229.91331,214.20922c0,8.32855 -8.69904,15.329 -17.27254,15.329c-8.5735,0 -13.77485,-7.00046 -13.77485,-15.329c0,-8.32855 6.9502,-15.08016 15.5237,-15.08016c8.5735,0 15.5237,6.75161 15.5237,15.08016z" data-paper-data="{&quot;origPos&quot;:null}" fill="url(#color-21)" stroke-width="0"/><path d="M386.37583,213.37906c0,8.32855 -5.2083,16.07322 -13.7818,16.07322c-8.5735,0 -17.2656,-7.74467 -17.2656,-16.07322c0,-5.66446 1.89289,-9.10116 6.55884,-12.31285c3.06243,-2.10796 5.24708,-2.76731 8.96486,-2.76731c8.5735,0 15.5237,6.75162 15.5237,15.08016z" data-paper-data="{&quot;origPos&quot;:null}" fill="url(#color-22)" stroke-width="0"/></g><path d="M210.4552,226.27187c0,0 72.0493,0 120.96838,0c15.5848,0 33.91934,0 39.9341,0c2.00492,0 5.13736,0 5.13736,0" data-paper-data="{&quot;origPos&quot;:null}" fill="#ffc3d5" stroke="#ffc3d5" stroke-width="8.5" stroke-linecap="round"/><path d="M277.15672,223.03339c4.49921,2.53063 -11.64155,3.31201 -19.47868,3.31201c-7.83713,0 -14.74843,5.59214 -14.74843,-0.28571c0,-0.3259 -6.74031,-3.09679 -6.44486,-3.23435c2.99165,-1.39289 5.67713,-1.54472 7.80644,-2.82298c4.68556,-2.81281 7.96956,-2.71514 12.8288,-2.71514c0,0 5.05677,-0.65893 9.67257,2.34864c3.43195,1.91012 5.19549,1.76923 10.36417,3.39753z" data-paper-data="{&quot;origPos&quot;:null}" fill="#ffc3d5" stroke="none" stroke-width="0" stroke-linecap="butt"/><path d="M313.06926,222.70546c4.49921,2.53063 -11.64155,3.31201 -19.47868,3.31201c-7.83713,0 -14.74843,5.59214 -14.74843,-0.28571c0,-0.3259 -6.74029,-3.09679 -6.44485,-3.23435c2.99165,-1.39289 5.67713,-1.54472 7.80643,-2.82298c4.68556,-2.81281 7.96956,-2.71514 12.8288,-2.71514c0,0 5.05677,-0.65893 9.67257,2.34864c3.43195,1.91012 5.19549,1.76923 10.36417,3.39753z" data-paper-data="{&quot;origPos&quot;:null}" fill="#ffc3d5" stroke="none" stroke-width="0" stroke-linecap="butt"/><path d="M350.25052,222.49397c4.49921,2.53063 -11.64155,3.31201 -19.47867,3.31201c-7.83713,0 -14.74844,5.59214 -14.74844,-0.28571c0,-0.3259 -6.74029,-3.09679 -6.44485,-3.23435c2.99165,-1.39289 5.67713,-1.54472 7.80643,-2.82298c4.68556,-2.81281 7.96956,-2.71514 12.8288,-2.71514c0,0 5.05677,-0.65893 9.67257,2.34864c3.43195,1.91012 5.19549,1.76922 10.36417,3.39752z" data-paper-data="{&quot;origPos&quot;:null}" fill="#ffc3d5" stroke="none" stroke-width="0" stroke-linecap="butt"/></g><g data-paper-data="{&quot;origPos&quot;:null}" fill-rule="nonzero" stroke-linejoin="miter"><g data-paper-data="{&quot;origPos&quot;:null}" stroke="none" stroke-linecap="butt"><path d="M354.38215,246.0745c0,12.24786 -27.05558,4.43534 -27.05558,4.43534c0,0 -20.84611,7.81252 -20.84611,-4.43534c0,-12.24786 10.72316,-22.1767 23.95085,-22.1767c13.22768,0 23.95085,9.92884 23.95085,22.1767z" data-paper-data="{&quot;origPos&quot;:null}" fill="url(#color-23)" stroke-width="NaN"/><path d="M391.12075,245.99977c0,12.24786 -27.05558,4.43534 -27.05558,4.43534c0,0 -20.84611,7.81253 -20.84611,-4.43534c0,-12.24786 10.72316,-22.17671 23.95085,-22.17671c13.22768,0 23.95085,9.92885 23.95085,22.17671z" data-paper-data="{&quot;origPos&quot;:null}" fill="url(#color-24)" stroke-width="NaN"/><path d="M426.97229,245.92504c0,12.24786 -27.05558,4.43534 -27.05558,4.43534c0,0 -20.84611,7.81253 -20.84611,-4.43534c0,-12.24786 10.72316,-22.17671 23.95085,-22.17671c13.22768,0 23.95085,9.92885 23.95085,22.17671z" data-paper-data="{&quot;origPos&quot;:null}" fill="url(#color-25)" stroke-width="NaN"/><path d="M463.71088,245.85031c0,12.24786 -27.05558,4.43534 -27.05558,4.43534c0,0 -20.84611,7.81253 -20.84611,-4.43534c0,-12.24786 10.72315,-22.17671 23.95085,-22.17671c13.22768,0 23.95085,9.92885 23.95085,22.17671z" data-paper-data="{&quot;origPos&quot;:null}" fill="url(#color-26)" stroke-width="NaN"/><path d="M500.44949,245.77557c0,12.24786 -27.05558,4.43533 -27.05558,4.43533c0,0 -20.84611,7.81253 -20.84611,-4.43533c0,-12.24786 10.72315,-22.17671 23.95085,-22.17671c13.22768,0 23.95085,9.92885 23.95085,22.17671z" data-paper-data="{&quot;origPos&quot;:null}" fill="url(#color-27)" stroke-width="NaN"/><path d="M322.00712,259.51433v-30.74431h165.66223l20.22687,30.74431z" data-paper-data="{&quot;origPos&quot;:null}" fill="url(#color-28)" stroke-width="0"/><path d="M325.25253,249.7896c0,8.32855 -7.19904,15.329 -15.77254,15.329c-8.5735,0 -15.27485,-7.00046 -15.27485,-15.329c0,-8.32855 6.9502,-15.08016 15.5237,-15.08016c8.5735,0 15.5237,6.75161 15.5237,15.08016z" data-paper-data="{&quot;origPos&quot;:null}" fill="url(#color-29)" stroke-width="0"/><path d="M515.30016,248.95944c0,8.32855 -5.2083,16.07322 -13.7818,16.07322c-8.5735,0 -17.2656,-7.74467 -17.2656,-16.07322c0,-5.66446 1.89289,-9.10116 6.55884,-12.31285c3.06243,-2.10796 5.24708,-2.76731 8.96486,-2.76731c8.5735,0 15.5237,6.75162 15.5237,15.08016z" data-paper-data="{&quot;origPos&quot;:null}" fill="url(#color-30)" stroke-width="0"/></g><path d="M505.41936,262.75322c0,0 -3.13244,0 -5.13736,0c-6.01476,0 -24.3493,0 -39.9341,0c-59.44837,0 -153.58002,0 -153.58002,0" data-paper-data="{&quot;origPos&quot;:null}" fill="#ffc3d5" stroke="#ffc3d5" stroke-width="8.5" stroke-linecap="round"/><path d="M367.92503,259.32524c4.49921,2.53063 -11.64155,3.31201 -19.47867,3.31201c-7.83713,0 -14.74843,5.59214 -14.74843,-0.28571c0,-0.3259 -6.74031,-3.09679 -6.44486,-3.23435c2.99165,-1.39289 5.67713,-1.54472 7.80643,-2.82298c4.68556,-2.81281 7.96956,-2.71514 12.8288,-2.71514c0,0 5.05677,-0.65893 9.67257,2.34864c3.43195,1.91012 5.19549,1.76923 10.36417,3.39753z" data-paper-data="{&quot;origPos&quot;:null}" fill="#ffc3d5" stroke="none" stroke-width="0" stroke-linecap="butt"/><path d="M406.08104,259.11377c2.57491,1.44829 -2.20485,2.27205 -5.13995,2.60806c-5.5687,0.63749 -8.73366,0.70395 -14.33873,0.70395c-7.83713,0 -14.74843,5.59214 -14.74843,-0.28571c0,-0.3259 -6.74031,-3.09679 -6.44486,-3.23435c2.99165,-1.39289 5.67713,-1.54472 7.80644,-2.82298c4.68556,-2.81281 7.96956,-2.71514 12.8288,-2.71514c0,0 5.05677,-0.65893 9.67257,2.34864c3.43195,1.91012 5.19549,1.76923 10.36417,3.39753z" data-paper-data="{&quot;origPos&quot;:null}" fill="#ffc3d5" stroke="none" stroke-width="0" stroke-linecap="butt"/><path d="M441.99359,258.78584c4.49921,2.53063 -11.64155,3.31201 -19.47868,3.31201c-7.83713,0 -14.74843,5.59214 -14.74843,-0.28571c0,-0.3259 -6.74029,-3.09679 -6.44485,-3.23435c2.99165,-1.39289 5.67713,-1.54472 7.80643,-2.82298c4.68556,-2.81281 7.96956,-2.71514 12.8288,-2.71514c0,0 5.05677,-0.65893 9.67257,2.34864c3.43195,1.91012 5.19549,1.76923 10.36417,3.39753z" data-paper-data="{&quot;origPos&quot;:null}" fill="#ffc3d5" stroke="none" stroke-width="0" stroke-linecap="butt"/><path d="M479.17485,258.57435c4.49921,2.53063 -11.64155,3.31201 -19.47867,3.31201c-7.83713,0 -14.74844,5.59214 -14.74844,-0.28571c0,-0.3259 -6.74029,-3.09679 -6.44485,-3.23435c2.99165,-1.39289 5.67713,-1.54472 7.80643,-2.82298c4.68556,-2.81281 7.96956,-2.71514 12.8288,-2.71514c0,0 5.05677,-0.65893 9.67257,2.34864c3.43195,1.91012 5.19549,1.76922 10.36417,3.39752z" data-paper-data="{&quot;origPos&quot;:null}" fill="#ffc3d5" stroke="none" stroke-width="0" stroke-linecap="butt"/></g><path d="M-268.35303,275.94215v-372.37237h836.33633v372.37237z" data-paper-data="{&quot;origPos&quot;:null}" fill="none" fill-rule="nonzero" stroke="none" stroke-width="NaN" stroke-linecap="butt" stroke-linejoin="miter"/><path d="M23.7246,161.87894c4.49921,2.53063 -11.64155,3.31201 -19.47868,3.31201c-7.83713,0 -14.74843,5.59214 -14.74843,-0.28571c0,-0.3259 -6.74031,-3.09679 -6.44486,-3.23435c2.99165,-1.39289 5.67713,-1.54472 7.80644,-2.82298c4.68556,-2.81281 7.96956,-2.71514 12.8288,-2.71514c0,0 5.05677,-0.65893 9.67257,2.34864c3.43195,1.91012 5.19549,1.76923 10.36417,3.39753z" data-paper-data="{&quot;origPos&quot;:null}" fill="#ffc3d5" fill-rule="nonzero" stroke="none" stroke-width="0" stroke-linecap="butt" stroke-linejoin="miter"/><g data-paper-data="{&quot;origRot&quot;:0,&quot;origPos&quot;:null}" fill="#ffffff" fill-rule="evenodd" stroke="none" stroke-width="1" stroke-linecap="round" stroke-linejoin="round"><path d="M424.5642,191.98985c0,0 -1.0374,0.12234 -1.40884,0.65023c-0.37145,0.52788 -0.11469,1.51489 -0.11469,1.51489c0,0 1.45325,6.80968 2.3941,11.63719c0.2298,1.1791 -0.5948,2.82825 -1.9995,2.96473c-1.40469,0.13647 -2.62687,-1.13829 -2.99078,-2.24258c-0.3639,-1.1043 -2.51031,-12.536 -2.67682,-13.81785c-0.1665,-1.28185 -0.04899,-2.55955 0.63876,-3.58429c0.68775,-1.02474 2.08723,-1.59663 3.2976,-1.83434c1.21036,-0.23771 14.26547,-2.08289 14.26547,-2.08289c1.29797,-0.17162 2.76048,0.63824 3.11089,2.08905c0.3504,1.45081 -0.79212,2.7003 -1.91728,2.85295z" data-paper-data="{&quot;origPos&quot;:null,&quot;origRot&quot;:0,&quot;index&quot;:null}" opacity="0.42445"/><path d="M409.06971,180.58697c0,0 -1.0374,0.12234 -1.40884,0.65023c-0.37145,0.52788 -0.11469,1.51489 -0.11469,1.51489c0,0 1.45325,6.80968 2.3941,11.63719c0.2298,1.1791 -0.5948,2.82826 -1.9995,2.96473c-1.40469,0.13647 -2.62688,-1.1383 -2.99078,-2.24259c-0.3639,-1.1043 -2.51031,-12.536 -2.67682,-13.81785c-0.1665,-1.28185 -0.04899,-2.55955 0.63876,-3.58429c0.68775,-1.02474 2.08723,-1.59663 3.2976,-1.83434c1.21036,-0.23771 14.26547,-2.08289 14.26547,-2.08289c1.29797,-0.17162 2.76048,0.63824 3.11088,2.08905c0.3504,1.45081 -0.79212,2.7003 -1.91728,2.85295z" data-paper-data="{&quot;origPos&quot;:null,&quot;origRot&quot;:0,&quot;index&quot;:null}" opacity="0.42445"/><path d="M393.57522,169.1841c0,0 -1.0374,0.12234 -1.40884,0.65023c-0.37145,0.52788 -0.11469,1.51489 -0.11469,1.51489c0,0 1.45325,6.80968 2.3941,11.63719c0.2298,1.1791 -0.5948,2.82826 -1.9995,2.96473c-1.40469,0.13647 -2.62688,-1.1383 -2.99078,-2.24259c-0.3639,-1.1043 -2.51031,-12.536 -2.67682,-13.81785c-0.1665,-1.28185 -0.04899,-2.55955 0.63876,-3.58429c0.68775,-1.02474 2.08723,-1.59663 3.2976,-1.83434c1.21036,-0.23771 14.26547,-2.08289 14.26547,-2.08289c1.29797,-0.17162 2.76048,0.63824 3.11089,2.08905c0.3504,1.45081 -0.79212,2.7003 -1.91728,2.85295z" data-paper-data="{&quot;origPos&quot;:null,&quot;origRot&quot;:0,&quot;index&quot;:null}" opacity="0.42445"/></g><g data-paper-data="{&quot;origPos&quot;:null}" fill-rule="nonzero" stroke-linejoin="miter"><g data-paper-data="{&quot;origPos&quot;:null}" stroke="none" stroke-linecap="butt"><path d="M31.22086,185.81385c0,12.24786 -27.05558,4.43534 -27.05558,4.43534c0,0 -20.84611,7.81252 -20.84611,-4.43534c0,-12.24786 10.72316,-22.1767 23.95085,-22.1767c13.22768,0 23.95085,9.92884 23.95085,22.1767z" data-paper-data="{&quot;origPos&quot;:null}" fill="url(#color-31)" stroke-width="NaN"/><path d="M67.95946,185.73912c0,12.24786 -27.05558,4.43534 -27.05558,4.43534c0,0 -20.84611,7.81253 -20.84611,-4.43534c0,-12.24786 10.72316,-22.17671 23.95085,-22.17671c13.22768,0 23.95085,9.92885 23.95085,22.17671z" data-paper-data="{&quot;origPos&quot;:null}" fill="url(#color-32)" stroke-width="NaN"/><path d="M103.811,185.66439c0,12.24786 -27.05558,4.43534 -27.05558,4.43534c0,0 -20.84611,7.81253 -20.84611,-4.43534c0,-12.24786 10.72316,-22.17671 23.95085,-22.17671c13.22768,0 23.95085,9.92885 23.95085,22.17671z" data-paper-data="{&quot;origPos&quot;:null}" fill="url(#color-33)" stroke-width="NaN"/><path d="M-1.15417,199.25368v-30.74431l93.29811,1.66667l14.22687,29.87477z" data-paper-data="{&quot;origPos&quot;:null}" fill="url(#color-34)" stroke-width="0"/><path d="M113.97207,189.83412c0,8.32855 -4.7083,16.63162 -13.2818,16.63162c-8.5735,0 -17.7656,-8.30307 -17.7656,-16.63162c0,-5.66446 1.89289,-9.10116 6.55884,-12.31285c3.06243,-2.10796 5.24708,-2.76731 8.96486,-2.76731c8.5735,0 15.5237,6.75162 15.5237,15.08016z" data-paper-data="{&quot;origPos&quot;:null}" fill="url(#color-35)" stroke-width="0"/></g><path d="M-16.3934,203.60163l121.79394,0.26414" data-paper-data="{&quot;origPos&quot;:null}" fill="#ffc3d5" stroke="#ffc3d5" stroke-width="9" stroke-linecap="round"/><path d="M44.76374,199.06459c4.49921,2.53063 -11.64155,3.31201 -19.47867,3.31201c-7.83713,0 -14.74843,5.59214 -14.74843,-0.28571c0,-0.3259 -6.74031,-3.09679 -6.44486,-3.23435c2.99165,-1.39289 5.67713,-1.54472 7.80643,-2.82298c4.68556,-2.81281 7.96956,-2.71514 12.8288,-2.71514c0,0 5.05677,-0.65893 9.67257,2.34864c3.43195,1.91012 5.19549,1.76923 10.36417,3.39753z" data-paper-data="{&quot;origPos&quot;:null}" fill="#ffc3d5" stroke="none" stroke-width="0" stroke-linecap="butt"/><path d="M82.91975,198.85312c4.49921,2.53063 -11.64155,3.31201 -19.47868,3.31201c-7.83713,0 -14.74843,5.59214 -14.74843,-0.28571c0,-0.3259 -6.74031,-3.09679 -6.44486,-3.23435c2.99165,-1.39289 5.67713,-1.54472 7.80644,-2.82298c4.68556,-2.81281 7.96956,-2.71514 12.8288,-2.71514c0,0 5.05677,-0.65893 9.67257,2.34864c3.43195,1.91012 5.19549,1.76923 10.36417,3.39753z" data-paper-data="{&quot;origPos&quot;:null}" fill="#ffc3d5" stroke="none" stroke-width="0" stroke-linecap="butt"/></g><g data-paper-data="{&quot;origPos&quot;:null}" fill-rule="nonzero" stroke-linejoin="miter"><g data-paper-data="{&quot;origPos&quot;:null}" stroke="none" stroke-linecap="butt"><path d="M-41.85426,185.3656c0,12.24786 -27.05558,4.43534 -27.05558,4.43534c0,0 -20.84611,7.81252 -20.84611,-4.43534c0,-12.24786 10.72316,-22.1767 23.95085,-22.1767c13.22768,0 23.95085,9.92884 23.95085,22.1767z" data-paper-data="{&quot;origPos&quot;:null}" fill="url(#color-36)" stroke-width="NaN"/><path d="M-5.11566,185.29087c0,12.24786 -27.05558,4.43534 -27.05558,4.43534c0,0 -20.84611,7.81253 -20.84611,-4.43534c0,-12.24786 10.72316,-22.17671 23.95085,-22.17671c13.22768,0 23.95085,9.92885 23.95085,22.17671z" data-paper-data="{&quot;origPos&quot;:null}" fill="url(#color-37)" stroke-width="NaN"/><path d="M30.73588,185.21614c0,12.24786 -27.05558,4.43534 -27.05558,4.43534c0,0 -20.84611,7.81253 -20.84611,-4.43534c0,-12.24786 10.72316,-22.17671 23.95085,-22.17671c13.22768,0 23.95085,9.92885 23.95085,22.17671z" data-paper-data="{&quot;origPos&quot;:null}" fill="url(#color-38)" stroke-width="NaN"/><path d="M67.47447,185.14141c0,12.24786 -27.05558,4.43534 -27.05558,4.43534c0,0 -20.84611,7.81253 -20.84611,-4.43534c0,-12.24786 10.72315,-22.17671 23.95085,-22.17671c13.22768,0 23.95085,9.92885 23.95085,22.17671z" data-paper-data="{&quot;origPos&quot;:null}" fill="url(#color-39)" stroke-width="NaN"/><path d="M-74.22929,198.80543v-30.74431l133.66223,1.66667l-25.15854,30.63234z" data-paper-data="{&quot;origPos&quot;:null}" fill="url(#color-40)" stroke-width="0"/><path d="M-70.98388,190.08612c0,8.32855 -8.43367,15.94632 -17.00717,15.94632c-8.5735,0 -14.04022,-7.61778 -14.04022,-15.94632c0,-8.32855 6.9502,-15.08016 15.5237,-15.08016c8.5735,0 15.5237,6.75161 15.5237,15.08016z" data-paper-data="{&quot;origPos&quot;:null}" fill="url(#color-41)" stroke-width="0"/></g><path d="M-89.46853,203.41752h136.12752" data-paper-data="{&quot;origPos&quot;:null}" fill="#ffc3d5" stroke="#ffc3d5" stroke-width="9" stroke-linecap="round"/><path d="M-28.31138,198.61634c4.49921,2.53063 -11.64155,3.31201 -19.47867,3.31201c-7.83713,0 -14.74843,5.59214 -14.74843,-0.28571c0,-0.3259 -6.74031,-3.09679 -6.44486,-3.23435c2.99165,-1.39289 5.67713,-1.54472 7.80643,-2.82298c4.68556,-2.81281 7.96956,-2.71514 12.8288,-2.71514c0,0 5.05677,-0.65893 9.67257,2.34864c3.43195,1.91012 5.19549,1.76923 10.36417,3.39753z" data-paper-data="{&quot;origPos&quot;:null}" fill="#ffc3d5" stroke="none" stroke-width="0" stroke-linecap="butt"/><path d="M9.84463,198.40487c4.49921,2.53063 -11.64155,3.31201 -19.47868,3.31201c-7.83713,0 -14.74843,5.59214 -14.74843,-0.28571c0,-0.3259 -6.74031,-3.09679 -6.44486,-3.23435c2.99165,-1.39289 5.67713,-1.54472 7.80644,-2.82298c4.68556,-2.81281 7.96956,-2.71514 12.8288,-2.71514c0,0 5.05677,-0.65893 9.67257,2.34864c3.43195,1.91012 5.19549,1.76923 10.36417,3.39753z" data-paper-data="{&quot;origPos&quot;:null}" fill="#ffc3d5" stroke="none" stroke-width="0" stroke-linecap="butt"/><path d="M45.75718,198.07694c4.49921,2.53063 -11.64155,3.31201 -19.47868,3.31201c-7.83713,0 -14.74843,5.59214 -14.74843,-0.28571c0,-0.3259 -6.74029,-3.09679 -6.44485,-3.23435c2.99165,-1.39289 5.67713,-1.54472 7.80643,-2.82298c4.68556,-2.81281 7.96956,-2.71514 12.8288,-2.71514c0,0 5.05677,-0.65893 9.67257,2.34864c3.43195,1.91012 5.19549,1.76923 10.36417,3.39753z" data-paper-data="{&quot;origPos&quot;:null}" fill="#ffc3d5" stroke="none" stroke-width="0" stroke-linecap="butt"/></g></g></g></svg>