<svg version="1.1" xmlns="http://www.w3.org/2000/svg" xmlns:xlink="http://www.w3.org/1999/xlink" width="105.88977" height="90" viewBox="0,0,105.88977,90"><g transform="translate(-193.43509,-138.01146)"><g data-paper-data="{&quot;isPaintingLayer&quot;:true}" fill-rule="nonzero" stroke-miterlimit="10" stroke-dasharray="" stroke-dashoffset="0" style="mix-blend-mode: normal"><g id="color" stroke="none" stroke-width="1" stroke-linecap="butt" stroke-linejoin="miter"><path d="M227.81925,173.35862c3.712,-1.68867 7.84009,-2.62918 12.18743,-2.62918c4.27618,0 8.34015,0.90973 12.00792,2.54711c-0.69496,0.37191 -1.57135,0.61482 -2.54006,0.66996c-0.19208,0.01096 -0.34735,0.09405 -0.36421,0.19676c-0.17695,1.07578 -1.8778,1.91947 -3.94985,1.91947c-0.54943,0 -1.04052,-0.05039 -1.50532,-0.15463c-0.17246,-0.03872 -0.36851,-0.00295 -0.4857,0.07495c-1.20592,0.80138 -3.0632,1.30529 -5.14872,1.30529c-3.20617,0 -5.91901,-1.21105 -6.50723,-2.82215c-0.0384,-0.10533 -0.20118,-0.1806 -0.40172,-0.18868c-1.29055,-0.05193 -2.44774,-0.39409 -3.29336,-0.9187z" fill="#f1b31c"/><path d="M240.00058,196.31959c-8.14205,0 -14.74544,-6.60339 -14.74544,-14.74544c0,-3.04974 0.92768,-5.88535 2.51634,-8.23821c0.84882,0.53853 2.02269,0.89082 3.33311,0.94371c0.2006,0.00808 0.36331,0.08334 0.40172,0.18868c0.58661,1.6111 3.29977,2.82215 6.50723,2.82215c2.08552,0 3.9428,-0.50391 5.14872,-1.30529c0.11713,-0.07789 0.31318,-0.11367 0.48564,-0.07495c0.4648,0.10424 0.95589,0.15463 1.50532,0.15463c2.07205,0 3.77329,-0.8437 3.94985,-1.91947c0.01686,-0.10271 0.17214,-0.18579 0.36421,-0.19676c1.03154,-0.05898 1.95794,-0.3303 2.67213,-0.74368c1.64315,2.37914 2.60545,5.26348 2.60545,8.37284c0,8.14205 -6.60339,14.74544 -14.74544,14.74544z" fill="#fcea2b"/><path d="M236.6368,189.52239c0,-2.31503 1.50532,-4.19155 3.3626,-4.19155c1.85728,0 3.3626,1.87652 3.3626,4.19155c0,2.31503 -1.50532,4.19155 -3.3626,4.19155c-1.85728,0 -3.3626,-1.87652 -3.3626,-4.19155z" fill="#ffffff"/><path d="M231.65183,166.42853c0.1622,-0.9405 1.72137,-1.67906 3.62097,-1.67906c0.50391,0 0.95358,0.04417 1.37966,0.13534c0.15816,0.03385 0.33786,0.00256 0.44525,-0.06559c1.10527,-0.70156 2.80804,-1.14245 4.71982,-1.14245c2.94075,0 5.4276,1.05975 5.96677,2.46954c0.0352,0.09219 0.18438,0.15806 0.36825,0.16515c2.41376,0.09296 4.3217,1.24375 4.3217,2.64969c0,1.46557 -2.07462,2.6545 -4.63456,2.65546h0.09777c0,0 -0.78766,0.67957 -1.24503,1.7297c-0.36389,0.83472 -0.57155,1.87844 -0.71163,2.66957c-0.26773,0.03026 -0.54513,0.04616 -0.82959,0.04616c-0.54943,0 -1.04045,-0.05046 -1.50532,-0.1547c-0.17246,-0.03872 -0.36851,-0.00288 -0.48564,0.07495c-1.20592,0.80138 -3.0632,1.30529 -5.14872,1.30529c-1.44826,0 -2.79586,-0.24651 -3.89215,-0.66547c-0.01551,-0.087 -0.03193,-0.18182 -0.04937,-0.28311c-0.13983,-0.811 -0.35177,-2.03872 -0.7674,-2.99268c-0.45711,-1.05013 -1.24503,-1.7297 -1.24503,-1.7297h-0.31549c-2.3317,0 -4.22168,-1.12514 -4.22168,-2.51314c0,-1.30978 1.65149,-2.38626 3.79791,-2.50288c0.17611,-0.00955 0.31844,-0.08232 0.33389,-0.17214z" fill="#ffffff"/></g><g id="line"><path d="M247.69268,180.9367c0,1.06231 -0.86229,1.92332 -1.92332,1.92332c-1.06103,0 -1.92332,-0.86101 -1.92332,-1.92332c0,-1.06103 0.86229,-1.92332 1.92332,-1.92332c1.06103,0 1.92332,0.86229 1.92332,1.92332z" fill="#000000" stroke="none" stroke-width="1" stroke-linecap="butt" stroke-linejoin="miter"/><path d="M236.15279,180.9367c0,1.06231 -0.86229,1.92332 -1.92332,1.92332c-1.06103,0 -1.92332,-0.86101 -1.92332,-1.92332c0,-1.06103 0.86229,-1.92332 1.92332,-1.92332c1.06103,0 1.92332,0.86229 1.92332,1.92332z" fill="#000000" stroke="none" stroke-width="1" stroke-linecap="butt" stroke-linejoin="miter"/><path d="M240.00058,196.31959c-8.14205,0 -14.74544,-6.60339 -14.74544,-14.74544c0,-3.04974 0.92768,-5.88535 2.51634,-8.23821c0.84882,0.53853 2.02269,0.89082 3.33311,0.94371c0.2006,0.00808 0.36331,0.08334 0.40172,0.18868c0.58661,1.6111 3.29977,2.82215 6.50723,2.82215c2.08552,0 3.9428,-0.50391 5.14872,-1.30529c0.11713,-0.07789 0.31318,-0.11367 0.48564,-0.07495c0.4648,0.10424 0.95589,0.15463 1.50532,0.15463c2.07205,0 3.77329,-0.8437 3.94985,-1.91947c0.01686,-0.10271 0.17214,-0.18579 0.36421,-0.19676c1.03154,-0.05898 1.95794,-0.33036 2.67213,-0.74368c1.64315,2.37914 2.60545,5.26348 2.60545,8.37284c0,8.14205 -6.60339,14.74544 -14.74544,14.74544z" fill="none" stroke="#000000" stroke-width="1.25" stroke-linecap="round" stroke-linejoin="round"/><path d="M236.6368,189.52239c0,-2.31503 1.50532,-4.19155 3.3626,-4.19155c1.85728,0 3.3626,1.87652 3.3626,4.19155c0,2.31503 -1.50532,4.19155 -3.3626,4.19155c-1.85728,0 -3.3626,-1.87652 -3.3626,-4.19155z" fill="none" stroke="#000000" stroke-width="1.25" stroke-linecap="round" stroke-linejoin="round"/><path d="M231.65183,166.42853c0.1622,-0.9405 1.72137,-1.67906 3.62097,-1.67906c0.50391,0 0.95358,0.04417 1.37966,0.13534c0.15816,0.03385 0.33786,0.00256 0.44525,-0.06559c1.10527,-0.70156 2.80804,-1.14245 4.71982,-1.14245c2.94075,0 5.4276,1.05975 5.96677,2.46954c0.0352,0.09219 0.18438,0.15806 0.36825,0.16515c2.41376,0.09296 4.3217,1.24375 4.3217,2.64969c0,1.46557 -2.07462,2.6545 -4.63456,2.65546h0.09777c0,0 -0.78766,0.67957 -1.24503,1.7297c-0.36389,0.83472 -0.57155,1.87844 -0.71163,2.66957c-0.26773,0.03026 -0.54513,0.04616 -0.82959,0.04616c-0.54943,0 -1.04045,-0.05046 -1.50532,-0.1547c-0.17246,-0.03872 -0.36851,-0.00288 -0.48564,0.07495c-1.20592,0.80138 -3.0632,1.30529 -5.14872,1.30529c-1.44826,0 -2.79586,-0.24651 -3.89215,-0.66547c-0.01551,-0.087 -0.03193,-0.18182 -0.04937,-0.28311c-0.13983,-0.811 -0.35177,-2.03872 -0.7674,-2.99268c-0.45711,-1.05013 -1.24503,-1.7297 -1.24503,-1.7297h-0.31549c-2.3317,0 -4.22168,-1.12514 -4.22168,-2.51314c0,-1.30978 1.65149,-2.38626 3.79791,-2.50288c0.17611,-0.00955 0.31844,-0.08232 0.33389,-0.17214z" fill="none" stroke="#000000" stroke-width="1.25" stroke-linecap="round" stroke-linejoin="round"/><path d="M227.81839,173.29473c1.53865,-1.02577 3.41902,-1.49589 4.16719,-1.60277" fill="none" stroke="#000000" stroke-width="1.25" stroke-linecap="butt" stroke-linejoin="miter"/><path d="M247.69268,171.69194c0.74817,0.10687 2.94909,0.577 4.48774,1.60277" fill="none" stroke="#000000" stroke-width="1.25" stroke-linecap="butt" stroke-linejoin="miter"/><path d="M232.06254,171.62141c1.32324,0.37812 4.19668,0.68085 5.10449,-1.13412c1.36107,1.36107 4.53711,0.94499 5.67122,0c0.56712,1.13412 2.83561,2.04192 5.10449,1.13412" fill="none" stroke="#000000" stroke-width="1.25" stroke-linecap="butt" stroke-linejoin="round"/></g><path d="M193.4351,228.01146v-90h105.88977v90z" fill="none" stroke="none" stroke-width="none" stroke-linecap="butt" stroke-linejoin="miter"/></g></g></svg>