<svg version="1.1" xmlns="http://www.w3.org/2000/svg" xmlns:xlink="http://www.w3.org/1999/xlink" width="105.88976" height="90" viewBox="0,0,105.88976,90"><g transform="translate(-193.43509,-138.01146)"><g data-paper-data="{&quot;isPaintingLayer&quot;:true}" fill-rule="nonzero" stroke-miterlimit="10" stroke-dasharray="" stroke-dashoffset="0" style="mix-blend-mode: normal"><g id="color" stroke="none" stroke-width="1" stroke-linecap="butt" stroke-linejoin="miter"><path d="M225.64,180c0,-7.93081 6.42919,-14.36 14.36,-14.36c7.93081,0 14.36,6.42919 14.36,14.36c0,7.93081 -6.42919,14.36 -14.36,14.36c-7.93081,0 -14.36,-6.42919 -14.36,-14.36z" fill="#fcea2b"/><path d="M249.11233,183.52131c0.00751,0.9613 -0.17716,1.9144 -0.54318,2.80333c-7.7981,1.89177 -15.87716,0.21228 -17.16331,-0.08117c-0.34887,-0.86484 -0.52492,-1.78963 -0.51821,-2.72216h0.06868c0,0 9.24034,2.24141 18.0374,0.0437z" fill="#ffffff"/><path d="M248.56923,186.32462c-1.11758,2.66596 -3.96461,4.51403 -8.54732,4.51403c-4.62641,0 -7.51091,-1.89177 -8.61599,-4.5952c1.28615,0.29344 9.36515,1.97294 17.16331,0.08117z" fill="#ea5a47"/></g><g id="line" fill="none" stroke="#000000" stroke-width="1.25" stroke-linecap="round"><path d="M225.64,180c0,-7.93081 6.42919,-14.36 14.36,-14.36c7.93081,0 14.36,6.42919 14.36,14.36c0,7.93081 -6.42919,14.36 -14.36,14.36c-7.93081,0 -14.36,-6.42919 -14.36,-14.36z" stroke-linejoin="round"/><path d="M249.11233,183.52131c0.00751,0.9613 -0.17716,1.9144 -0.54318,2.80333c-7.7981,1.89177 -15.87716,0.21228 -17.16331,-0.08117c-0.34887,-0.86484 -0.52492,-1.78963 -0.51821,-2.72216h0.06868c0,0 9.24034,2.24141 18.0374,0.0437z" stroke-linejoin="round"/><path d="M248.56923,186.32462c-1.11758,2.66596 -3.96461,4.51403 -8.54732,4.51403c-4.62641,0 -7.51091,-1.89177 -8.61599,-4.5952c1.28615,0.29344 9.36515,1.97294 17.16331,0.08117z" stroke-linejoin="round"/><path d="M231.91837,177.75458c0.47352,-1.0658 1.53036,-1.7527 2.69662,-1.7527c1.16626,0 2.22309,0.6869 2.69662,1.7527" stroke-linejoin="miter"/><path d="M242.68835,177.75458c0.47352,-1.0658 1.53036,-1.7527 2.69662,-1.7527c1.16626,0 2.22309,0.6869 2.69662,1.7527" stroke-linejoin="miter"/></g><path d="M193.4351,228.01146v-90h105.88976v90z" fill="none" stroke="none" stroke-width="NaN" stroke-linecap="butt" stroke-linejoin="miter"/></g></g></svg>