<svg version="1.1" xmlns="http://www.w3.org/2000/svg" xmlns:xlink="http://www.w3.org/1999/xlink" width="197" height="326" viewBox="0,0,197,326"><g transform="translate(-143.05686,-33.54823)"><g data-paper-data="{&quot;isPaintingLayer&quot;:true}" stroke-miterlimit="10" stroke-dasharray="" stroke-dashoffset="0" style="mix-blend-mode: normal"><path d="M297.50775,46.39792c3.27192,3.18049 2.64507,9.60258 2.64507,9.60258l-0.41457,247.00497c0,0 0.82956,6.89235 -2.38683,10.31829c-3.21638,3.42593 -9.7337,2.5919 -9.7337,2.5919l-113.7223,-0.93597c0,0 -7.07761,0.46714 -10.32541,-2.77263c-3.2478,-3.23977 -2.68452,-10.20514 -2.68452,-10.20514l-0.00917,-246.66889c0,0 -0.14677,-5.79554 2.74533,-8.64101c2.8921,-2.84547 8.84627,-2.76368 8.84627,-2.76368l115.06664,-0.19352c0,0 6.70127,-0.5174 9.97318,2.6631z" data-paper-data="{&quot;origRot&quot;:0,&quot;index&quot;:null}" fill="#000000" fill-rule="evenodd" stroke="none" stroke-width="1" stroke-linecap="round" stroke-linejoin="round" opacity="0.42445"/><text transform="translate(167.76984,62.54293) scale(0.36383,0.36383)" font-size="40" xml:space="preserve" data-paper-data="{&quot;origPos&quot;:null}" fill="#ffffff" fill-rule="nonzero" stroke="none" stroke-width="1" stroke-linecap="butt" stroke-linejoin="miter" stroke-miterlimit="10" stroke-dasharray="" stroke-dashoffset="0" font-family="Sans Serif" font-weight="normal" text-anchor="start" style="mix-blend-mode: normal"><tspan x="0" dy="0">[1] Hello!</tspan><tspan x="0" dy="46.150000000000006px">[2] This way!</tspan><tspan x="0" dy="46.150000000000006px">[3] Bye!</tspan><tspan x="0" dy="46.150000000000006px">[4] Watch out!</tspan><tspan x="0" dy="46.150000000000006px">[5] Lol</tspan><tspan x="0" dy="46.150000000000006px">[6] It's lagging :(</tspan><tspan x="0" dy="46.150000000000006px">[7] Which way?</tspan><tspan x="0" dy="46.150000000000006px">[8] Okay!</tspan><tspan x="0" dy="46.150000000000006px">[9] Got to go :)</tspan><tspan x="0" dy="46.150000000000006px"> </tspan></text><path d="M143.05686,359.54824v-326h197v326z" data-paper-data="{&quot;origPos&quot;:null}" fill="none" fill-rule="nonzero" stroke="none" stroke-width="0" stroke-linecap="butt" stroke-linejoin="miter"/><text transform="translate(168.49815,226.67661) scale(0.36383,0.36383)" font-size="40" xml:space="preserve" fill="#ffffff" fill-rule="nonzero" stroke="none" stroke-width="1" stroke-linecap="butt" stroke-linejoin="miter" stroke-miterlimit="10" stroke-dasharray="" stroke-dashoffset="0" font-family="Sans Serif" font-weight="normal" text-anchor="start" style="mix-blend-mode: normal"><tspan x="0" dy="0">[g]</tspan></text><text transform="translate(231.20939,225.66979) scale(0.36383,0.36383)" font-size="40" xml:space="preserve" fill="#ffffff" fill-rule="nonzero" stroke="none" stroke-width="1" stroke-linecap="butt" stroke-linejoin="miter" stroke-miterlimit="10" stroke-dasharray="" stroke-dashoffset="0" font-family="Sans Serif" font-weight="normal" text-anchor="start" style="mix-blend-mode: normal"><tspan x="0" dy="0">[v]</tspan></text><g fill-rule="nonzero"><path d="M255.1145,256.83585c0,-8.07399 6.54527,-14.61926 14.61927,-14.61926c8.07399,0 14.61926,6.54527 14.61926,14.61926c0,8.07399 -6.54527,14.61927 -14.61926,14.61927c-8.07399,0 -14.61927,-6.54528 -14.61927,-14.61927z" fill="#fcea2b" stroke="none" stroke-width="1" stroke-linecap="butt" stroke-linejoin="miter"/><g id="line"><path d="M255.11439,256.83585c0,-8.07404 6.5453,-14.61933 14.61933,-14.61933c8.07404,0 14.61933,6.5453 14.61933,14.61933c0,8.07404 -6.5453,14.61933 -14.61933,14.61933c-8.07404,0 -14.61933,-6.5453 -14.61933,-14.61933z" fill="none" stroke="#000000" stroke-width="1.25" stroke-linecap="round" stroke-linejoin="round"/><path d="M275.97229,262.51153c-1.84298,1.04001 -3.9715,1.63349 -6.23858,1.63349c-2.26708,0 -4.39552,-0.59342 -6.23857,-1.63349" fill="none" stroke="#000000" stroke-width="1.25" stroke-linecap="round" stroke-linejoin="round"/><path d="M265.91997,253.65773c0,1.0531 -0.85479,1.90687 -1.90687,1.90687c-1.05215,0 -1.90687,-0.85384 -1.90687,-1.90687c0,-1.05208 0.85471,-1.90687 1.90687,-1.90687c1.05208,0 1.90687,0.85478 1.90687,1.90687" fill="#000000" stroke="none" stroke-width="1" stroke-linecap="butt" stroke-linejoin="miter"/><path d="M277.36118,253.65773c0,1.0531 -0.85472,1.90687 -1.90687,1.90687c-1.05215,0 -1.90687,-0.85384 -1.90687,-1.90687c0,-1.05208 0.85471,-1.90687 1.90687,-1.90687c1.05215,0 1.90687,0.85478 1.90687,1.90687" fill="#000000" stroke="none" stroke-width="1" stroke-linecap="butt" stroke-linejoin="miter"/></g></g><g id="color" fill-rule="nonzero" stroke="none" stroke-width="1" stroke-linecap="butt" stroke-linejoin="miter"><path d="M190.94939,258.44115c0,-8.49343 6.88529,-15.37871 15.37872,-15.37871c8.49343,0 15.37872,6.88528 15.37872,15.37871c0,8.49343 -6.88529,15.37872 -15.37872,15.37872c-8.49343,0 -15.37871,-6.88529 -15.37871,-15.37872z" fill="#fcea2b"/><path d="M216.31165,257.51529c0.44601,0.88006 0.71161,1.84039 0.78123,2.82456c-6.30316,5.30066 -14.49552,7.44727 -15.81162,7.76497c-0.71567,-0.63549 -1.29989,-1.40504 -1.71966,-2.26516l0.06312,-0.03133c0,0 9.5166,-2.16058 16.59767,-8.19865z" fill="#ffffff"/><path d="M217.0928,260.33986c0.19056,2.96072 -1.58195,5.95963 -5.7938,8.05287c-4.25203,2.11316 -7.76715,1.69211 -10.01763,-0.2879c1.31603,-0.31777 9.50847,-2.46444 15.81143,-7.76497z" fill="#ea5a47"/><path d="M226.63631,256.46115c-0.22937,0.68378 -0.72107,1.24836 -1.36687,1.56946c-0.6458,0.32109 -1.39274,0.37236 -2.07635,0.14252c-2.55274,-0.85775 -4.28041,-4.28483 -4.29764,-4.31886c0.13648,-0.05843 3.48994,-1.68974 6.02973,-0.83634c0.68377,0.22938 1.24832,0.72116 1.56929,1.36701c0.32098,0.64585 0.37204,1.39281 0.14197,2.07635z" fill="#92d3f5"/><path d="M192.48429,273.43465c-0.68379,-0.22938 -1.24837,-0.72111 -1.56947,-1.36692c-0.3211,-0.6458 -0.37238,-1.39276 -0.14256,-2.07639c0.85781,-2.55268 4.28483,-4.2804 4.31886,-4.29758c0.05844,0.13648 1.68967,3.48994 0.83634,6.02974c-0.22938,0.68377 -0.72116,1.24832 -1.36701,1.56931c-0.64585,0.32099 -1.39281,0.37208 -2.07636,0.14202z" fill="#92d3f5"/></g><g id="line" fill="none" fill-rule="nonzero" stroke="#000000" stroke-width="1.25" stroke-linejoin="round"><path d="M192.45885,263.43084c-0.02268,-0.06543 -0.06773,-0.1903 -0.08971,-0.25586c-2.3782,-7.01614 0.82067,-14.70737 7.47295,-17.96762c6.65228,-3.26025 14.69086,-1.07646 18.77909,5.1016c0.01987,0.03003 0.0396,0.06017 0.05921,0.09041" stroke-linecap="round"/><path d="M220.88801,260.73123c-0.77645,4.70308 -3.74807,8.75446 -8.00071,10.9078c-4.30964,2.07986 -9.35068,1.99056 -13.58396,-0.24062" stroke-linecap="round"/><path d="M216.31165,257.51529c0.44601,0.88006 0.71161,1.84039 0.78123,2.82456c-6.30316,5.30066 -14.49552,7.44727 -15.81162,7.76497c-0.71567,-0.63549 -1.29989,-1.40504 -1.71966,-2.26516l0.06312,-0.03133c0,0 9.5166,-2.16058 16.59767,-8.19865z" stroke-linecap="round"/><path d="M217.0928,260.33986c0.19056,2.96072 -1.58195,5.95963 -5.7938,8.05287c-4.25203,2.11316 -7.76715,1.69211 -10.01763,-0.2879c1.31603,-0.31783 9.5084,-2.46438 15.81143,-7.76497z" stroke-linecap="round"/><path d="M226.63631,256.46115c-0.22937,0.68378 -0.72107,1.24836 -1.36687,1.56946c-0.6458,0.32109 -1.39274,0.37236 -2.07635,0.14252c-2.55274,-0.85775 -4.28041,-4.28483 -4.29764,-4.31886c0.13648,-0.05843 3.48994,-1.68974 6.02973,-0.83634c0.68377,0.22938 1.24832,0.72116 1.56929,1.36701c0.32098,0.64585 0.37204,1.39281 0.14197,2.07635z" stroke-linecap="butt"/><path d="M192.48429,273.43465c-0.68379,-0.22938 -1.24837,-0.72111 -1.56947,-1.36692c-0.3211,-0.6458 -0.37238,-1.39276 -0.14256,-2.07639c0.85781,-2.55268 4.28483,-4.2804 4.31886,-4.29758c0.05844,0.13648 1.68967,3.48994 0.83634,6.02974c-0.22938,0.68377 -0.72116,1.24832 -1.36701,1.56931c-0.64585,0.32099 -1.39281,0.37208 -2.07636,0.14202z" stroke-linecap="butt"/><path d="M197.66371,256.60283l4.92439,0.42484l-2.7137,4.02345" stroke-linecap="round"/><path d="M212.30549,254.87272l-4.84557,-0.26657l2.63488,-4.18173" stroke-linecap="round"/></g><text transform="translate(168.29966,261.9724) scale(0.36383,0.36383)" font-size="40" xml:space="preserve" fill="#ffffff" fill-rule="nonzero" stroke="none" stroke-width="1" stroke-linecap="butt" stroke-linejoin="miter" stroke-miterlimit="10" stroke-dasharray="" stroke-dashoffset="0" font-family="Sans Serif" font-weight="normal" text-anchor="start" style="mix-blend-mode: normal"><tspan x="0" dy="0">[h]</tspan></text><text transform="translate(230.74942,262.78317) scale(0.36383,0.36383)" font-size="40" xml:space="preserve" fill="#ffffff" fill-rule="nonzero" stroke="none" stroke-width="1" stroke-linecap="butt" stroke-linejoin="miter" stroke-miterlimit="10" stroke-dasharray="" stroke-dashoffset="0" font-family="Sans Serif" font-weight="normal" text-anchor="start" style="mix-blend-mode: normal"><tspan x="0" dy="0">[b]</tspan></text><g id="color" fill-rule="nonzero" stroke="none" stroke-width="1" stroke-linecap="butt" stroke-linejoin="miter"><path d="M255.93386,222.81112c0,-8.22467 6.66741,-14.89209 14.89209,-14.89209c8.22467,0 14.89209,6.66741 14.89209,14.89209c0,8.22467 -6.66741,14.89209 -14.89209,14.89209c-8.22467,0 -14.89209,-6.66741 -14.89209,-14.89209z" fill="#fcea2b"/><path d="M255.62906,221.7623c0.7209,-1.1851 2.26614,-1.56137 3.45124,-0.84047c1.1851,0.7209 1.56144,2.26608 0.84047,3.45124l-0.14396,0.21234l-4.4621,5.7198l-4.48829,-5.75505c-0.08954,-0.12274 -0.16772,-0.25335 -0.23368,-0.39023c-0.60207,-1.24969 -0.07707,-2.75088 1.17269,-3.35295c1.24969,-0.60207 2.75088,-0.07707 3.35295,1.17269c0.02141,0.04437 0.05721,0.08017 0.10158,0.10158c0.10846,0.05237 0.23877,0.00683 0.29108,-0.10158c0.03574,-0.07434 0.07508,-0.14687 0.11802,-0.21736z" fill="#ffa7c0"/><path d="M278.58768,205.0087c0.7209,-1.1851 2.26608,-1.56144 3.45124,-0.84047c1.1851,0.7209 1.56144,2.26608 0.84047,3.45124l-0.14396,0.21234l-4.4621,5.7198l-4.48829,-5.75505c-0.08954,-0.12274 -0.16772,-0.25335 -0.23368,-0.39023c-0.60207,-1.24969 -0.077,-2.75088 1.17269,-3.35295c1.24969,-0.60207 2.75088,-0.07707 3.35295,1.17269c0.02141,0.04437 0.05721,0.08017 0.10158,0.10158c0.10846,0.05237 0.23877,0.00683 0.29108,-0.10158c0.03574,-0.07434 0.07508,-0.14687 0.11802,-0.21736z" fill="#ffa7c0"/><path d="M283.5517,232.93137c0.7209,-1.1851 2.26608,-1.56144 3.45124,-0.84047c1.1851,0.7209 1.56144,2.26608 0.84047,3.45124l-0.14396,0.21234l-4.4621,5.7198l-4.48829,-5.75505c-0.08954,-0.12274 -0.16772,-0.25335 -0.23368,-0.39023c-0.60207,-1.24969 -0.07707,-2.75088 1.17269,-3.35295c1.24969,-0.60207 2.75088,-0.07707 3.35295,1.17269c0.02141,0.04437 0.05721,0.08017 0.10158,0.10158c0.10846,0.05237 0.23877,0.00683 0.29108,-0.10158c0.03574,-0.07434 0.07508,-0.14687 0.11802,-0.21736z" fill="#ffa7c0"/></g><g id="line" fill="none" fill-rule="nonzero" stroke="#000000" stroke-width="1.25" stroke-linecap="round"><path d="M276.91614,228.27423c-3.53675,2.91562 -8.64374,2.91562 -12.18049,0" stroke-linejoin="round"/><path d="M283.04058,233.14869c0.02141,0.04437 0.05721,0.08017 0.10158,0.10158c0.10846,0.05237 0.23877,0.00683 0.29108,-0.10158c0.06683,-0.13924 0.14631,-0.27203 0.23753,-0.39663c0.81931,-1.11951 2.39105,-1.36294 3.51056,-0.54362c1.11951,0.81931 1.36294,2.39105 0.54362,3.51056l-4.48829,5.75505l-4.4621,-5.7198l-0.14396,-0.21234c-0.23858,-0.39303 -0.36473,-0.84401 -0.36473,-1.30374c-0.00006,-1.38788 1.12497,-2.5131 2.51292,-2.51316c0.96594,-0.00329 1.84705,0.55132 2.2618,1.42368z" stroke-linejoin="round"/><path d="M255.11795,221.97956c0.02141,0.04437 0.05721,0.08017 0.10158,0.10158c0.10846,0.05237 0.23877,0.00683 0.29108,-0.10158c0.06683,-0.13918 0.14631,-0.27197 0.23753,-0.39656c0.81931,-1.11951 2.39105,-1.36294 3.51056,-0.54362c1.11951,0.81931 1.36294,2.39105 0.54362,3.51056l-4.48829,5.75505l-4.4621,-5.7198l-0.14396,-0.21234c-0.23858,-0.39303 -0.36473,-0.84401 -0.36473,-1.30374c-0.00006,-1.38788 1.12497,-2.5131 2.51292,-2.51316c0.96594,-0.00329 1.84705,0.55132 2.2618,1.42362z" stroke-linejoin="round"/><path d="M278.07656,205.22605c0.02141,0.04437 0.05721,0.08017 0.10158,0.10158c0.10846,0.05237 0.23877,0.00683 0.29108,-0.10158c0.06683,-0.13924 0.14631,-0.27203 0.23753,-0.39663c0.81931,-1.11951 2.39105,-1.36294 3.51056,-0.54362c1.11951,0.81931 1.36294,2.39105 0.54362,3.51056l-4.48829,5.75505l-4.4621,-5.7198l-0.14396,-0.21234c-0.23858,-0.39303 -0.36473,-0.84401 -0.36473,-1.30374c-0.00006,-1.38788 1.12497,-2.5131 2.51292,-2.51316c0.96594,-0.00329 1.84705,0.55132 2.2618,1.42368z" stroke-linejoin="round"/><path d="M275.05003,236.4472c-1.33489,0.41307 -2.75355,0.63552 -4.22414,0.63552c-4.92624,0 -9.26952,-2.49591 -11.83425,-6.29222" stroke-linejoin="round"/><path d="M281.83853,213.73311c2.03593,2.46694 3.25895,5.62964 3.25895,9.07803c0,2.23599 -0.51421,4.3519 -1.43082,6.23588" stroke-linejoin="round"/><path d="M257.62922,217.36762c2.13968,-5.18164 7.24233,-8.82809 13.19669,-8.82809" stroke-linejoin="round"/><path d="M262.79407,220.57956c0.29493,-0.66375 0.82558,-1.19447 1.48933,-1.48933c1.48009,-0.65761 3.21309,0.00918 3.8707,1.48933" stroke-linejoin="miter"/><path d="M273.49773,220.57956c0.29493,-0.66375 0.82558,-1.19447 1.48933,-1.48933c1.48009,-0.65761 3.21309,0.00918 3.8707,1.48933" stroke-linejoin="miter"/></g><text transform="translate(168.44426,296.59056) scale(0.36383,0.36383)" font-size="40" xml:space="preserve" fill="#ffffff" fill-rule="nonzero" stroke="none" stroke-width="1" stroke-linecap="butt" stroke-linejoin="miter" stroke-miterlimit="10" stroke-dasharray="" stroke-dashoffset="0" font-family="Sans Serif" font-weight="normal" text-anchor="start" style="mix-blend-mode: normal"><tspan x="0" dy="0">[j]</tspan></text><text transform="translate(231.2239,297.70619) scale(0.36383,0.36383)" font-size="40" xml:space="preserve" fill="#ffffff" fill-rule="nonzero" stroke="none" stroke-width="1" stroke-linecap="butt" stroke-linejoin="miter" stroke-miterlimit="10" stroke-dasharray="" stroke-dashoffset="0" font-family="Sans Serif" font-weight="normal" text-anchor="start" style="mix-blend-mode: normal"><tspan x="0" dy="0">[n]</tspan></text><g id="color" fill-rule="nonzero" stroke-linecap="butt" stroke-linejoin="miter"><path d="M192.68004,292.93523c0,-7.88752 6.39409,-14.28161 14.28161,-14.28161c7.88752,0 14.28162,6.39409 14.28162,14.28161c0,7.88752 -6.3941,14.28161 -14.28162,14.28161c-7.88752,0 -14.28161,-6.39409 -14.28161,-14.28161z" fill="#fcea2b" stroke="none" stroke-width="1"/><path d="M208.29839,290.56014c0,-0.88906 -0.10339,-2.24781 0.4513,-2.90923c0.81256,-0.96885 2.54256,-1.05789 4.00593,-1.05789c1.23039,0 3.12159,0.34002 3.92831,1.05789c0.80673,0.71787 0.52898,1.81352 0.52898,2.90923c0,2.19011 -1.99657,3.96712 -4.45723,3.96712c-2.46233,0 -4.45723,-1.777 -4.45729,-3.96712z" fill="#3f3f3f" stroke="none" stroke-width="1"/><path d="M196.13256,290.56014c0,-0.88906 -0.10339,-2.24781 0.4513,-2.90923c0.81256,-0.96885 2.54256,-1.05789 4.00593,-1.05789c1.23039,0 3.12159,0.34002 3.92831,1.05789c0.80673,0.71787 0.52898,1.81352 0.52898,2.90923c0,2.19011 -1.99657,3.96712 -4.45723,3.96712c-2.46233,0 -4.45723,-1.777 -4.45729,-3.96712z" fill="#3f3f3f" stroke="none" stroke-width="1"/><path d="M205.60525,292.70642" fill="#9b9b9a" stroke="#9b9b9a" stroke-width="2"/></g><g id="line" fill="none" fill-rule="nonzero" stroke="#000000" stroke-width="1.25" stroke-linecap="round" stroke-linejoin="round"><path d="M192.60993,292.97031c0,-7.88752 6.3941,-14.28162 14.28162,-14.28162c7.88752,0 14.28161,6.3941 14.28161,14.28162c0,7.88752 -6.39409,14.28162 -14.28161,14.28162c-7.88752,0 -14.28162,-6.3941 -14.28162,-14.28162z"/><path d="M212.98599,298.438c-4.08206,2.18869 -8.72135,2.27115 -12.18874,0"/><path d="M198.7994,286.71826c3.95725,-0.34096 5.51388,0.03421 6.175,0.88297c0.49862,0.64013 0.50631,1.19959 0.50346,1.63295c-0.03142,4.77627 -3.25825,5.04868 -4.88493,5.18032c-4.8519,0.39262 -4.26014,-4.91691 -4.26014,-4.91691c0.32674,-2.8408 2.46668,-2.77927 2.46662,-2.77933z"/><path d="M196.37675,289.16657l-0.26893,-2.09338l2.38,-0.32767"/><path d="M217.35696,289.4976c0,0 0.59176,5.30953 -4.26014,4.91691c-1.62668,-0.13164 -4.85352,-0.40404 -4.88494,-5.18032c-0.00286,-0.43336 0.00484,-0.99282 0.50346,-1.63295c0.66111,-0.84877 2.21775,-1.22393 6.175,-0.88297c0,0.00006 2.13994,-0.06147 2.46662,2.77933z"/><path d="M209.54582,286.98402c-2.81459,1.5734 -5.37542,0 -5.37542,0"/><path d="M208.21191,289.23418"/><path d="M205.47785,289.23418"/><path d="M205.43173,290.02795c0,0 1.36725,-2.32909 2.81671,0"/><path d="M215.19786,286.74706l2.38,0.32767l-0.26893,2.09338"/><path d="M205.69177,289.22641c0,0 1.11483,-2.32909 2.29673,0"/></g><g id="color" fill-rule="nonzero" stroke="none" stroke-width="1" stroke-linecap="butt" stroke-linejoin="miter"><path d="M256.71356,285.69124c3.712,-1.68867 7.84009,-2.62918 12.18743,-2.62918c4.27618,0 8.34015,0.90973 12.00792,2.54711c-0.69496,0.37191 -1.57135,0.61482 -2.54006,0.66996c-0.19208,0.01096 -0.34735,0.09405 -0.36421,0.19676c-0.17695,1.07578 -1.8778,1.91947 -3.94985,1.91947c-0.54943,0 -1.04052,-0.05039 -1.50532,-0.15463c-0.17246,-0.03872 -0.36851,-0.00295 -0.4857,0.07495c-1.20592,0.80138 -3.0632,1.30529 -5.14872,1.30529c-3.20617,0 -5.91901,-1.21105 -6.50723,-2.82215c-0.0384,-0.10533 -0.20118,-0.1806 -0.40172,-0.18868c-1.29055,-0.05193 -2.44774,-0.39409 -3.29336,-0.9187z" fill="#f1b31c"/><path d="M268.89489,308.6522c-8.14205,0 -14.74544,-6.60339 -14.74544,-14.74544c0,-3.04974 0.92768,-5.88535 2.51634,-8.23821c0.84882,0.53853 2.02269,0.89082 3.33311,0.94371c0.2006,0.00808 0.36331,0.08334 0.40172,0.18868c0.58661,1.6111 3.29977,2.82215 6.50723,2.82215c2.08552,0 3.9428,-0.50391 5.14872,-1.30529c0.11713,-0.07789 0.31318,-0.11367 0.48564,-0.07495c0.4648,0.10424 0.95589,0.15463 1.50532,0.15463c2.07205,0 3.77329,-0.8437 3.94985,-1.91947c0.01686,-0.10271 0.17214,-0.18579 0.36421,-0.19676c1.03154,-0.05898 1.95794,-0.3303 2.67213,-0.74368c1.64315,2.37914 2.60545,5.26348 2.60545,8.37284c0,8.14205 -6.60339,14.74544 -14.74544,14.74544z" fill="#fcea2b"/><path d="M265.53112,301.85501c0,-2.31503 1.50532,-4.19155 3.3626,-4.19155c1.85728,0 3.3626,1.87652 3.3626,4.19155c0,2.31503 -1.50532,4.19155 -3.3626,4.19155c-1.85728,0 -3.3626,-1.87652 -3.3626,-4.19155z" fill="#ffffff"/><path d="M260.54614,278.76115c0.1622,-0.9405 1.72137,-1.67906 3.62097,-1.67906c0.50391,0 0.95358,0.04417 1.37966,0.13534c0.15816,0.03385 0.33786,0.00256 0.44525,-0.06559c1.10527,-0.70156 2.80804,-1.14245 4.71982,-1.14245c2.94075,0 5.4276,1.05975 5.96677,2.46954c0.0352,0.09219 0.18438,0.15806 0.36825,0.16515c2.41376,0.09296 4.3217,1.24375 4.3217,2.64969c0,1.46557 -2.07462,2.6545 -4.63456,2.65546h0.09777c0,0 -0.78766,0.67957 -1.24503,1.7297c-0.36389,0.83472 -0.57155,1.87844 -0.71163,2.66957c-0.26773,0.03026 -0.54513,0.04616 -0.82959,0.04616c-0.54943,0 -1.04045,-0.05046 -1.50532,-0.1547c-0.17246,-0.03872 -0.36851,-0.00288 -0.48564,0.07495c-1.20592,0.80138 -3.0632,1.30529 -5.14872,1.30529c-1.44826,0 -2.79586,-0.24651 -3.89215,-0.66547c-0.01551,-0.087 -0.03193,-0.18182 -0.04937,-0.28311c-0.13983,-0.811 -0.35177,-2.03872 -0.7674,-2.99268c-0.45711,-1.05013 -1.24503,-1.7297 -1.24503,-1.7297h-0.31549c-2.3317,0 -4.22168,-1.12514 -4.22168,-2.51314c0,-1.30978 1.65149,-2.38626 3.79791,-2.50288c0.17611,-0.00955 0.31844,-0.08232 0.33389,-0.17214z" fill="#ffffff"/></g><g id="line" fill-rule="nonzero"><path d="M276.587,293.2693c0,1.06231 -0.86229,1.92332 -1.92332,1.92332c-1.06103,0 -1.92332,-0.86101 -1.92332,-1.92332c0,-1.06103 0.86229,-1.92332 1.92332,-1.92332c1.06103,0 1.92332,0.86229 1.92332,1.92332z" fill="#000000" stroke="none" stroke-width="1" stroke-linecap="butt" stroke-linejoin="miter"/><path d="M265.04711,293.2693c0,1.06231 -0.86229,1.92332 -1.92332,1.92332c-1.06103,0 -1.92332,-0.86101 -1.92332,-1.92332c0,-1.06103 0.86229,-1.92332 1.92332,-1.92332c1.06103,0 1.92332,0.86229 1.92332,1.92332z" fill="#000000" stroke="none" stroke-width="1" stroke-linecap="butt" stroke-linejoin="miter"/><path d="M268.89489,308.6522c-8.14205,0 -14.74544,-6.60339 -14.74544,-14.74544c0,-3.04974 0.92768,-5.88535 2.51634,-8.23821c0.84882,0.53853 2.02269,0.89082 3.33311,0.94371c0.2006,0.00808 0.36331,0.08334 0.40172,0.18868c0.58661,1.6111 3.29977,2.82215 6.50723,2.82215c2.08552,0 3.9428,-0.50391 5.14872,-1.30529c0.11713,-0.07789 0.31318,-0.11367 0.48564,-0.07495c0.4648,0.10424 0.95589,0.15463 1.50532,0.15463c2.07205,0 3.77329,-0.8437 3.94985,-1.91947c0.01686,-0.10271 0.17214,-0.18579 0.36421,-0.19676c1.03154,-0.05898 1.95794,-0.33036 2.67213,-0.74368c1.64315,2.37914 2.60545,5.26348 2.60545,8.37284c0,8.14205 -6.60339,14.74544 -14.74544,14.74544z" fill="none" stroke="#000000" stroke-width="1.25" stroke-linecap="round" stroke-linejoin="round"/><path d="M265.53112,301.85501c0,-2.31503 1.50532,-4.19155 3.3626,-4.19155c1.85728,0 3.3626,1.87652 3.3626,4.19155c0,2.31503 -1.50532,4.19155 -3.3626,4.19155c-1.85728,0 -3.3626,-1.87652 -3.3626,-4.19155z" fill="none" stroke="#000000" stroke-width="1.25" stroke-linecap="round" stroke-linejoin="round"/><path d="M260.54614,278.76115c0.1622,-0.9405 1.72137,-1.67906 3.62097,-1.67906c0.50391,0 0.95358,0.04417 1.37966,0.13534c0.15816,0.03385 0.33786,0.00256 0.44525,-0.06559c1.10527,-0.70156 2.80804,-1.14245 4.71982,-1.14245c2.94075,0 5.4276,1.05975 5.96677,2.46954c0.0352,0.09219 0.18438,0.15806 0.36825,0.16515c2.41376,0.09296 4.3217,1.24375 4.3217,2.64969c0,1.46557 -2.07462,2.6545 -4.63456,2.65546h0.09777c0,0 -0.78766,0.67957 -1.24503,1.7297c-0.36389,0.83472 -0.57155,1.87844 -0.71163,2.66957c-0.26773,0.03026 -0.54513,0.04616 -0.82959,0.04616c-0.54943,0 -1.04045,-0.05046 -1.50532,-0.1547c-0.17246,-0.03872 -0.36851,-0.00288 -0.48564,0.07495c-1.20592,0.80138 -3.0632,1.30529 -5.14872,1.30529c-1.44826,0 -2.79586,-0.24651 -3.89215,-0.66547c-0.01551,-0.087 -0.03193,-0.18182 -0.04937,-0.28311c-0.13983,-0.811 -0.35177,-2.03872 -0.7674,-2.99268c-0.45711,-1.05013 -1.24503,-1.7297 -1.24503,-1.7297h-0.31549c-2.3317,0 -4.22168,-1.12514 -4.22168,-2.51314c0,-1.30978 1.65149,-2.38626 3.79791,-2.50288c0.17611,-0.00955 0.31844,-0.08232 0.33389,-0.17214z" fill="none" stroke="#000000" stroke-width="1.25" stroke-linecap="round" stroke-linejoin="round"/><path d="M256.7127,285.62733c1.53865,-1.02577 3.41902,-1.49589 4.16719,-1.60277" fill="none" stroke="#000000" stroke-width="1.25" stroke-linecap="butt" stroke-linejoin="miter"/><path d="M276.587,284.02455c0.74817,0.10687 2.94909,0.577 4.48774,1.60277" fill="none" stroke="#000000" stroke-width="1.25" stroke-linecap="butt" stroke-linejoin="miter"/><path d="M260.95685,283.95403c1.32324,0.37812 4.19668,0.68085 5.10449,-1.13412c1.36107,1.36107 4.53711,0.94499 5.67122,0c0.56712,1.13412 2.83561,2.04192 5.10449,1.13412" fill="none" stroke="#000000" stroke-width="1.25" stroke-linecap="butt" stroke-linejoin="round"/></g><g fill-rule="nonzero"><g id="color" stroke="none" stroke-width="1" stroke-linecap="butt" stroke-linejoin="miter"><path d="M190.75259,222.08778c0,-7.93081 6.42919,-14.36 14.36,-14.36c7.93081,0 14.36,6.42919 14.36,14.36c0,7.93081 -6.42919,14.36 -14.36,14.36c-7.93081,0 -14.36,-6.42919 -14.36,-14.36z" fill="#fcea2b"/><path d="M214.22492,225.60909c0.00751,0.9613 -0.17716,1.9144 -0.54318,2.80333c-7.7981,1.89177 -15.87716,0.21228 -17.16331,-0.08117c-0.34887,-0.86484 -0.52492,-1.78963 -0.51821,-2.72216h0.06868c0,0 9.24034,2.24141 18.0374,0.0437z" fill="#ffffff"/><path d="M213.68182,228.41239c-1.11758,2.66596 -3.96461,4.51403 -8.54732,4.51403c-4.62641,0 -7.51091,-1.89177 -8.61599,-4.5952c1.28615,0.29344 9.36515,1.97294 17.16331,0.08117z" fill="#ea5a47"/></g><g id="line" fill="none" stroke="#000000" stroke-width="1.25" stroke-linecap="round"><path d="M190.75259,222.08778c0,-7.93081 6.42919,-14.36 14.36,-14.36c7.93081,0 14.36,6.42919 14.36,14.36c0,7.93081 -6.42919,14.36 -14.36,14.36c-7.93081,0 -14.36,-6.42919 -14.36,-14.36z" stroke-linejoin="round"/><path d="M214.22492,225.60909c0.00751,0.9613 -0.17716,1.9144 -0.54318,2.80333c-7.7981,1.89177 -15.87716,0.21228 -17.16331,-0.08117c-0.34887,-0.86484 -0.52492,-1.78963 -0.51821,-2.72216h0.06868c0,0 9.24034,2.24141 18.0374,0.0437z" stroke-linejoin="round"/><path d="M213.68182,228.41239c-1.11758,2.66596 -3.96461,4.51403 -8.54732,4.51403c-4.62641,0 -7.51091,-1.89177 -8.61599,-4.5952c1.28615,0.29344 9.36515,1.97294 17.16331,0.08117z" stroke-linejoin="round"/><path d="M197.03095,219.84236c0.47352,-1.0658 1.53036,-1.7527 2.69662,-1.7527c1.16626,0 2.22309,0.6869 2.69662,1.7527" stroke-linejoin="miter"/><path d="M207.80093,219.84236c0.47352,-1.0658 1.53036,-1.7527 2.69662,-1.7527c1.16626,0 2.22309,0.6869 2.69662,1.7527" stroke-linejoin="miter"/></g></g></g></g></svg>