<svg version="1.1" xmlns="http://www.w3.org/2000/svg" xmlns:xlink="http://www.w3.org/1999/xlink" width="97.38281" height="82.65048" viewBox="0,0,97.38281,82.65048"><g transform="translate(-165.75062,-145.34443)"><g data-paper-data="{&quot;isPaintingLayer&quot;:true}" fill-rule="nonzero" stroke="none" stroke-linecap="butt" stroke-linejoin="miter" stroke-miterlimit="10" stroke-dasharray="" stroke-dashoffset="0" style="mix-blend-mode: normal"><path d="M214.75302,227.99491c-16.27801,0 -29.47395,-5.57574 -29.47395,-12.45378c0,-6.87803 13.19594,-12.45378 29.47395,-12.45378c16.27801,0 29.47394,5.57574 29.47394,12.45378c0,6.87804 -13.19593,12.45378 -29.47394,12.45378z" fill="#e40000" stroke-width="0"/><path d="M214.87409,222.99491c-16.27801,0 -29.47394,-5.57575 -29.47394,-12.45378c0,-6.87803 13.19593,-12.45378 29.47394,-12.45378c16.27801,0 29.47394,5.57575 29.47394,12.45378c0,6.87803 -13.19593,12.45378 -29.47394,12.45378z" fill="#e40000" stroke-width="0"/><path d="M214.9395,220.29283c-16.27802,0 -29.47395,-5.57575 -29.47395,-12.45378c0,-6.87803 13.19594,-12.45378 29.47395,-12.45378c16.27802,0 29.47395,5.57575 29.47395,12.45378c0,6.87803 -13.19594,12.45378 -29.47395,12.45378z" fill="#ff0000" stroke-width="0"/><text transform="translate(166.00062,184.35292) scale(0.5,0.5)" font-size="40" xml:space="preserve" fill="#ffffff" fill-rule="nonzero" stroke="none" stroke-width="1" stroke-linecap="butt" stroke-linejoin="miter" stroke-miterlimit="10" stroke-dasharray="" stroke-dashoffset="0" font-family="&quot;Microsoft YaHei&quot;, &quot;微软雅黑&quot;, STXihei, &quot;华文细黑&quot;" font-weight="normal" text-anchor="start" style="mix-blend-mode: normal"><tspan x="0" dy="0">Dropper 5</tspan></text><text transform="translate(184.38426,162.84443) scale(0.5,0.5)" font-size="40" xml:space="preserve" fill="#ffffff" fill-rule="nonzero" stroke="none" stroke-width="1" stroke-linecap="butt" stroke-linejoin="miter" stroke-miterlimit="10" stroke-dasharray="" stroke-dashoffset="0" font-family="&quot;Microsoft YaHei&quot;, &quot;微软雅黑&quot;, STXihei, &quot;华文细黑&quot;" font-weight="normal" text-anchor="start" style="mix-blend-mode: normal"><tspan x="0" dy="0">$1000</tspan></text></g></g></svg>