<svg version="1.1" xmlns="http://www.w3.org/2000/svg" xmlns:xlink="http://www.w3.org/1999/xlink" width="96.48047" height="102.90048" viewBox="0,0,96.48047,102.90048"><g transform="translate(-192.81001,-118.67476)"><g data-paper-data="{&quot;isPaintingLayer&quot;:true}" fill-rule="nonzero" stroke="none" stroke-linecap="butt" stroke-linejoin="miter" stroke-miterlimit="10" stroke-dasharray="" stroke-dashoffset="0" style="mix-blend-mode: normal"><path d="M240.56241,221.57525c-16.27801,0 -29.47395,-5.57574 -29.47395,-12.45378c0,-6.87803 13.19594,-12.45378 29.47395,-12.45378c16.27801,0 29.47394,5.57574 29.47394,12.45378c0,6.87804 -13.19593,12.45378 -29.47394,12.45378z" fill="#e40000" stroke-width="0"/><path d="M240.68348,216.57525c-16.27801,0 -29.47394,-5.57575 -29.47394,-12.45378c0,-6.87803 13.19593,-12.45378 29.47394,-12.45378c16.27801,0 29.47394,5.57575 29.47394,12.45378c0,6.87803 -13.19593,12.45378 -29.47394,12.45378z" fill="#e40000" stroke-width="0"/><path d="M240.74889,213.87316c-16.27802,0 -29.47395,-5.57575 -29.47395,-12.45378c0,-6.87803 13.19594,-12.45378 29.47395,-12.45378c16.27802,0 29.47395,5.57575 29.47395,12.45378c0,6.87803 -13.19594,12.45378 -29.47395,12.45378z" fill="#ff0000" stroke-width="0"/><text transform="translate(193.06001,157.43325) scale(0.5,0.5)" font-size="40" xml:space="preserve" fill="#ffffff" fill-rule="nonzero" stroke="none" stroke-width="1" stroke-linecap="butt" stroke-linejoin="miter" stroke-miterlimit="10" stroke-dasharray="" stroke-dashoffset="0" font-family="&quot;Microsoft YaHei&quot;, &quot;微软雅黑&quot;, STXihei, &quot;华文细黑&quot;" font-weight="normal" text-anchor="start" style="mix-blend-mode: normal"><tspan x="0" dy="0">Upgrade</tspan><tspan x="0" dy="48px">Conveyor</tspan></text><text transform="translate(218.20165,136.17476) scale(0.5,0.5)" font-size="40" xml:space="preserve" fill="#ffffff" fill-rule="nonzero" stroke="none" stroke-width="1" stroke-linecap="butt" stroke-linejoin="miter" stroke-miterlimit="10" stroke-dasharray="" stroke-dashoffset="0" font-family="&quot;Microsoft YaHei&quot;, &quot;微软雅黑&quot;, STXihei, &quot;华文细黑&quot;" font-weight="normal" text-anchor="start" style="mix-blend-mode: normal"><tspan x="0" dy="0">$320</tspan></text></g></g></svg>