<svg version="1.1" xmlns="http://www.w3.org/2000/svg" xmlns:xlink="http://www.w3.org/1999/xlink" width="97.38281" height="82.65048" viewBox="0,0,97.38281,82.65048"><g transform="translate(-167.28693,-163.26816)"><g data-paper-data="{&quot;isPaintingLayer&quot;:true}" fill-rule="nonzero" stroke="none" stroke-linecap="butt" stroke-linejoin="miter" stroke-miterlimit="10" stroke-dasharray="" stroke-dashoffset="0" style="mix-blend-mode: normal"><path d="M216.28933,245.91864c-16.27801,0 -29.47395,-5.57574 -29.47395,-12.45378c0,-6.87803 13.19594,-12.45378 29.47395,-12.45378c16.27801,0 29.47394,5.57574 29.47394,12.45378c0,6.87804 -13.19593,12.45378 -29.47394,12.45378z" fill="#e40000" stroke-width="0"/><path d="M216.4104,240.91864c-16.27801,0 -29.47394,-5.57575 -29.47394,-12.45378c0,-6.87803 13.19593,-12.45378 29.47394,-12.45378c16.27801,0 29.47394,5.57575 29.47394,12.45378c0,6.87803 -13.19593,12.45378 -29.47394,12.45378z" fill="#e40000" stroke-width="0"/><path d="M216.47581,238.21656c-16.27802,0 -29.47395,-5.57575 -29.47395,-12.45378c0,-6.87803 13.19594,-12.45378 29.47395,-12.45378c16.27802,0 29.47395,5.57575 29.47395,12.45378c0,6.87803 -13.19594,12.45378 -29.47395,12.45378z" fill="#ff0000" stroke-width="0"/><text transform="translate(167.53693,202.27665) scale(0.5,0.5)" font-size="40" xml:space="preserve" fill="#ffffff" fill-rule="nonzero" stroke="none" stroke-width="1" stroke-linecap="butt" stroke-linejoin="miter" stroke-miterlimit="10" stroke-dasharray="" stroke-dashoffset="0" font-family="&quot;Microsoft YaHei&quot;, &quot;微软雅黑&quot;, STXihei, &quot;华文细黑&quot;" font-weight="normal" text-anchor="start" style="mix-blend-mode: normal"><tspan x="0" dy="0">Dropper 9</tspan></text><text transform="translate(188.98711,180.76816) scale(0.5,0.5)" font-size="40" xml:space="preserve" fill="#ffffff" fill-rule="nonzero" stroke="none" stroke-width="1" stroke-linecap="butt" stroke-linejoin="miter" stroke-miterlimit="10" stroke-dasharray="" stroke-dashoffset="0" font-family="&quot;Microsoft YaHei&quot;, &quot;微软雅黑&quot;, STXihei, &quot;华文细黑&quot;" font-weight="normal" text-anchor="start" style="mix-blend-mode: normal"><tspan x="0" dy="0">$1900</tspan></text></g></g></svg>