<svg version="1.1" xmlns="http://www.w3.org/2000/svg" xmlns:xlink="http://www.w3.org/1999/xlink" width="70.35281" height="57" viewBox="0,0,70.35281,57"><g transform="translate(-206.17884,-153.25)"><g data-paper-data="{&quot;isPaintingLayer&quot;:true}" fill-rule="nonzero" stroke="none" stroke-linecap="butt" stroke-linejoin="miter" stroke-miterlimit="10" stroke-dasharray="" stroke-dashoffset="0" style="mix-blend-mode: normal"><path d="M213,181.75c0,-15.74011 12.75989,-28.5 28.5,-28.5c15.74011,0 28.5,12.75989 28.5,28.5c0,15.74011 -12.75989,28.5 -28.5,28.5c-15.74011,0 -28.5,-12.75989 -28.5,-28.5z" fill="#dc0000" stroke-width="0"/><path d="M214,179.75c0,-14.22133 11.52867,-25.75 25.75,-25.75c14.22133,0 25.75,11.52867 25.75,25.75c0,14.22133 -11.52867,25.75 -25.75,25.75c-14.22133,0 -25.75,-11.52867 -25.75,-25.75z" fill="#ff0000" stroke-width="0"/><text transform="translate(206.36674,173.77929) scale(0.37581,0.37581)" font-size="40" xml:space="preserve" fill="#ffffff" fill-rule="nonzero" stroke="none" stroke-width="1" stroke-linecap="butt" stroke-linejoin="miter" stroke-miterlimit="10" stroke-dasharray="" stroke-dashoffset="0" font-family="&quot;Microsoft YaHei&quot;, &quot;微软雅黑&quot;, STXihei, &quot;华文细黑&quot;" font-weight="normal" text-anchor="start" style="mix-blend-mode: normal"><tspan x="0" dy="0">Upgrader</tspan></text><text transform="translate(224.86674,191.81482) scale(0.29016,0.29016)" font-size="40" xml:space="preserve" fill="#ffffff" fill-rule="nonzero" stroke="none" stroke-width="1" stroke-linecap="butt" stroke-linejoin="miter" stroke-miterlimit="10" stroke-dasharray="" stroke-dashoffset="0" font-family="&quot;Microsoft YaHei&quot;, &quot;微软雅黑&quot;, STXihei, &quot;华文细黑&quot;" font-weight="normal" text-anchor="start" style="mix-blend-mode: normal"><tspan x="0" dy="0">$5000</tspan></text></g></g></svg>