<svg version="1.1" xmlns="http://www.w3.org/2000/svg" xmlns:xlink="http://www.w3.org/1999/xlink" width="21.54787" height="21.0467" viewBox="0,0,21.54787,21.0467"><defs><linearGradient x1="245.36715" y1="171.83634" x2="234.63285" y2="188.16366" gradientUnits="userSpaceOnUse" id="color-1"><stop offset="0" stop-color="#a6a129" stop-opacity="0"/><stop offset="1" stop-color="#a6a129"/></linearGradient></defs><g transform="translate(-229.22606,-169.47665)"><g data-paper-data="{&quot;isPaintingLayer&quot;:true}" fill-rule="nonzero" stroke-linecap="butt" stroke-linejoin="miter" stroke-miterlimit="10" stroke-dasharray="" stroke-dashoffset="0" style="mix-blend-mode: normal"><path d="" fill="#000000" stroke="none" stroke-width="0.5"/><path d="" fill="#000000" stroke="none" stroke-width="0.5"/><path d="M229.72606,180c0,-5.53575 4.5998,-10.02335 10.27394,-10.02335c5.67415,0 10.27394,4.48761 10.27394,10.02335c0,5.53575 -4.5998,10.02335 -10.27394,10.02335c-5.67414,0 -10.27394,-4.48761 -10.27394,-10.02335z" fill="#e0da38" stroke="#e7edf3" stroke-width="1"/><path d="M247.96455,185.23624c-2.9642,4.50867 -8.933,5.81931 -13.3317,2.92741c-4.39869,-2.8919 -5.56158,-8.89125 -2.59739,-13.3999c2.9642,-4.50867 8.933,-5.81931 13.3317,-2.92741c4.39869,2.8919 5.56158,8.89125 2.59739,13.3999z" data-paper-data="{&quot;index&quot;:null}" fill="url(#color-1)" stroke="none" stroke-width="0"/></g></g></svg>