<svg version="1.1" xmlns="http://www.w3.org/2000/svg" xmlns:xlink="http://www.w3.org/1999/xlink" width="120.23906" height="45.10584" viewBox="0,0,120.23906,45.10584"><g transform="translate(-10.39397,-304.9583)"><g data-paper-data="{&quot;isPaintingLayer&quot;:true}" fill-rule="evenodd" stroke="none" stroke-width="1" stroke-linecap="round" stroke-linejoin="round" stroke-miterlimit="10" stroke-dasharray="" stroke-dashoffset="0" style="mix-blend-mode: normal"><path d="M41.89706,314.17428c0.78243,0.90598 1.19424,1.64725 1.19424,2.47086c0,1.23544 -0.98835,2.22377 -2.30612,2.22377c-0.8648,0 -1.68843,-0.53536 -2.22377,-1.11189c-1.15306,-1.19425 -2.1414,-1.85314 -3.95335,-1.85314c-2.51203,0 -3.95337,1.2766 -3.95337,3.08856c0,1.35897 0.74126,2.5944 3.21212,3.54155l1.60606,0.61772c6.42423,2.42967 9.01863,4.77699 9.01863,8.73036c0,5.68297 -5.64178,8.52445 -10.41876,8.52445c-3.2533,0 -6.67131,-1.3178 -8.68917,-3.87101c-0.41181,-0.49418 -1.15307,-1.44133 -1.15307,-2.67674c0,-1.15307 0.74125,-2.34731 2.26495,-2.34731c1.23542,0 2.05905,0.78244 2.63558,1.56488c1.44134,1.81196 3.37684,2.38849 4.94171,2.38849c2.01787,0 4.77699,-0.78244 4.77699,-3.58273c0,-2.14141 -1.44134,-3.12975 -4.61227,-4.36518l-1.7296,-0.65889c-4.24163,-1.64724 -7.37138,-3.70628 -7.37138,-7.90673c0,-4.90053 4.11808,-7.94791 9.2657,-7.94791c3.62391,0 5.8477,1.35897 7.49493,3.17093z" fill="#ffffff"/><path d="M69.14796,327.9988v9.30689c0,1.48251 -1.23542,2.67675 -2.71793,2.67675c-1.44134,0 -2.67676,-1.19425 -2.67676,-2.67675v-9.30689c0,-3.70628 -1.93552,-5.22997 -4.36518,-5.22997c-3.70627,0 -4.94171,3.4592 -5.10643,4.61227v9.92461c0,1.48251 -1.23542,2.67675 -2.67675,2.67675c-1.48251,0 -2.71795,-1.19425 -2.71795,-2.67675v-24.25555c0,-1.44134 1.23544,-2.67676 2.71795,-2.67676c1.44134,0 2.67675,1.23544 2.67675,2.67676v9.96578c0.16472,-1.48251 2.59439,-4.85935 7.04192,-4.85935c4.15926,0 7.82437,2.71794 7.82437,9.84224z" fill="#ffffff"/><path d="M94.86761,329.98066c0,7.37138 -6.30068,10.95412 -10.99529,10.95412c-4.7358,0 -10.99529,-3.58274 -10.99529,-10.95412c0,-7.33021 6.25951,-10.99529 10.99529,-10.99529c4.69464,0 10.99529,3.6651 10.99529,10.99529zM78.23053,329.98066c0,3.95336 2.71793,6.2595 5.64178,6.2595c2.88267,0 5.64179,-2.30613 5.64179,-6.2595c0,-3.99455 -2.75912,-6.30068 -5.64179,-6.30068c-2.92384,0 -5.64178,2.30612 -5.64178,6.30068z" fill="#ffffff"/><path d="M121.27492,327.32957c0,7.49493 -5.43588,10.99529 -9.96578,10.99529c-3.58273,0 -5.76533,-2.22377 -6.09478,-3.50038v0.78244c0,0.16472 0,0.32944 -0.04117,0.45298v7.41256c0,1.48251 -1.27661,2.67676 -2.71794,2.67676c-1.48251,0 -2.71795,-1.19425 -2.71795,-2.67676v-24.29674c0,-1.44134 1.31779,-2.67676 2.75912,-2.67676c1.48251,0 2.71794,1.23541 2.71794,2.67676v0.70008c0.82361,-1.93551 3.17093,-3.50039 6.09478,-3.50039c4.48871,0 9.96579,3.62391 9.96579,10.95412zM115.88022,327.32957c0,-4.20045 -2.84149,-6.34186 -5.55943,-6.34186c-2.30612,0 -5.35352,1.68842 -5.35352,6.34186c0,4.65344 3.0474,6.34186 5.35352,6.34186c2.71795,0 5.55943,-2.10023 5.55943,-6.34186z" fill="#ffffff"/><path d="M22.66064,304.9583h95.70574c6.77446,0 12.26666,4.02265 12.26666,8.98515v27.13552c0,4.9622 -5.4922,8.98516 -12.26666,8.98516h-95.70573c-6.77467,0 -12.26666,-4.02296 -12.26666,-8.98516v-27.13552c0,-4.96251 5.49199,-8.98515 12.26666,-8.98515z" fill="#000000" opacity="0.0863"/></g></g></svg>