<svg version="1.1" xmlns="http://www.w3.org/2000/svg" xmlns:xlink="http://www.w3.org/1999/xlink" width="468.7681" height="393.7503" viewBox="0,0,468.7681,393.7503"><g transform="translate(-5.61595,16.87515)"><g data-paper-data="{&quot;isPaintingLayer&quot;:true}" fill="#4998fb" stroke="none" stroke-miterlimit="10" stroke-dasharray="" stroke-dashoffset="0" style="mix-blend-mode: normal"><g fill-rule="evenodd" stroke-width="1" stroke-linecap="round" stroke-linejoin="round"><path d="M21.54095,202.49715c0,0.675 -0.575,1.25 -1.325,1.25c-0.6,0 -1.075,-0.35 -1.3,-0.85l-1.525,-3.575h-7.625l-1.525,3.575c-0.225,0.5 -0.7,0.85 -1.3,0.85c-0.75,0 -1.325,-0.575 -1.325,-1.25c0,-0.25 0.075,-0.525 0.175,-0.725l6.475,-14.725c0.275,-0.65 0.675,-1 1.3,-1c0.625,0 1.05,0.35 1.325,1l6.475,14.725c0.1,0.2 0.175,0.475 0.175,0.725zM16.46595,197.17215l-2.9,-6.75l-2.875,6.75z"/><path d="M36.36595,198.62215c0,3.075 -2.225,5.025 -6.45,5.025h-4.525c-0.85,0 -1.475,-0.625 -1.475,-1.475v-14.55c0,-0.85 0.625,-1.475 1.475,-1.475h4.35c3.25,0 5.5,1.575 5.5,4.375c0,1.5 -0.675,2.8 -2.475,3.45c2.65,0.925 3.6,2.6 3.6,4.65zM26.61595,193.17215h3.125c1.825,0 2.85,-0.85 2.85,-2.35c0,-1.475 -1.025,-2.375 -2.85,-2.375h-3.125zM33.74095,198.39715c0,-1.725 -1.125,-3.1 -3.825,-3.1h-3.3v6.05h3.3c2.7,0 3.825,-1.2 3.825,-2.95z"/><path d="M52.94095,200.99715c0,0.625 -0.425,1.075 -1.175,1.575c-1.125,0.775 -2.575,1.25 -4.35,1.25c-4.4,0 -8.8,-3.65 -8.8,-8.925c0,-5.275 4.4,-8.925 8.8,-8.925c1.775,0 3.225,0.475 4.35,1.25c0.75,0.5 1.175,0.95 1.175,1.575c0,0.775 -0.6,1.225 -1.25,1.225c-0.525,0 -0.875,-0.25 -1.2,-0.5c-0.55,-0.425 -1.65,-0.975 -3.05,-0.975c-3.125,0 -6,2.7 -6,6.35c0,3.65 2.875,6.35 6,6.35c1.4,0 2.5,-0.55 3.05,-0.975c0.325,-0.25 0.675,-0.5 1.2,-0.5c0.65,0 1.25,0.45 1.25,1.225z"/><path d="M69.36605,194.84715c0,5.675 -3.775,8.8 -8.8501,8.8h-3.725c-0.85,0 -1.475,-0.625 -1.475,-1.475v-14.55c0,-0.85 0.625,-1.475 1.475,-1.475h3.725c5.0751,0 8.8501,3.125 8.8501,8.7zM66.66605,194.84715c0,-4.325 -2.275,-6.4 -6.1501,-6.4h-2.5v12.9h2.5c3.8751,0 6.1501,-2.075 6.1501,-6.5z"/><path d="M82.24105,201.27215c0.65,0 1.2,0.525 1.2,1.175c0,0.675 -0.55,1.2 -1.2,1.2h-8.9c-0.85,0 -1.475,-0.625 -1.475,-1.475v-14.55c0,-0.85 0.625,-1.475 1.475,-1.475h8.65c0.65,0 1.2,0.525 1.2,1.175c0,0.675 -0.55,1.2 -1.2,1.2h-7.425v5.2h5.1c0.65,0 1.175,0.525 1.175,1.125c0,0.625 -0.525,1.15 -1.175,1.15h-5.1v5.275z"/><path d="M95.94105,188.52215h-7.425v5.475h6.075c0.65,0 1.2,0.5 1.2,1.15c0,0.65 -0.55,1.15 -1.2,1.15h-6.075v6.1c0,0.75 -0.6,1.4 -1.325,1.4c-0.75,0 -1.375,-0.65 -1.375,-1.4v-14.775c0,-0.85 0.625,-1.475 1.475,-1.475h8.65c0.65,0 1.2,0.525 1.2,1.175c0,0.675 -0.55,1.2 -1.2,1.2z"/><path d="M115.91605,196.19715c-0.2,4.925 -3.775,7.625 -7.8,7.625c-4.45,0 -8.85,-3.65 -8.85,-8.925c0,-5.275 4.4,-8.925 8.8,-8.925c1.775,0 3.225,0.475 4.35,1.25c0.75,0.5 1.175,0.95 1.175,1.575c0,0.775 -0.6,1.225 -1.25,1.225c-0.525,0 -0.875,-0.25 -1.2,-0.5c-0.55,-0.425 -1.65,-0.975 -3.05,-0.975c-3.125,0 -6,2.7 -6,6.35c0,3.65 2.875,6.35 6.025,6.35c2.475,0 4.875,-1.6 5.175,-4.45h-3.55c-0.65,0 -1.2,-0.475 -1.2,-1.125c0,-0.65 0.55,-1.125 1.2,-1.125h4.75c1,0 1.475,0.675 1.425,1.65z"/><path d="M130.96605,186.07215c0.75,0 1.325,0.625 1.325,1.375v14.9c0,0.75 -0.575,1.375 -1.325,1.375c-0.775,0 -1.375,-0.625 -1.375,-1.375v-6.125h-8.375v6.125c0,0.75 -0.6,1.375 -1.325,1.375c-0.775,0 -1.375,-0.625 -1.375,-1.375v-14.9c0,-0.75 0.6,-1.375 1.375,-1.375c0.725,0 1.325,0.625 1.325,1.375v6.45h8.375v-6.45c0,-0.75 0.6,-1.375 1.375,-1.375z"/><path d="M138.04105,187.47215v14.925c0,0.75 -0.625,1.4 -1.35,1.4c-0.775,0 -1.4,-0.65 -1.4,-1.4v-14.925c0,-0.75 0.625,-1.4 1.4,-1.4c0.725,0 1.35,0.65 1.35,1.4z"/><path d="M151.01605,187.39715v9.85c0,5 -2.85,6.575 -5.85,6.575c-1.725,0 -3,-0.5 -3.9,-1.2c-0.475,-0.35 -0.85,-0.8 -0.85,-1.375c0,-0.6 0.375,-1.15 1.125,-1.15c0.45,0 0.875,0.225 1.05,0.35c0.825,0.575 1.475,0.925 2.525,0.925c1.625,0 3.15,-0.8 3.15,-4.125v-9.85c0,-0.725 0.625,-1.325 1.375,-1.325c0.75,0 1.375,0.6 1.375,1.325z"/><path d="M168.31605,202.59715c0,0.65 -0.55,1.2 -1.225,1.2c-0.325,0 -0.675,-0.175 -0.9,-0.425l-6.6,-7.275l-2.875,2.95v3.375c0,0.75 -0.625,1.375 -1.35,1.375c-0.75,0 -1.35,-0.625 -1.35,-1.375v-15.05c0,-0.75 0.6,-1.375 1.35,-1.375c0.725,0 1.35,0.625 1.35,1.375v8.05l8.775,-8.975c0.225,-0.225 0.575,-0.45 0.95,-0.45c0.675,0 1.225,0.55 1.225,1.225c0,0.325 -0.1,0.6 -0.275,0.8l-6.1,6.3l6.7,7.45c0.2,0.225 0.325,0.5 0.325,0.825z"/><path d="M180.26605,201.24715c0.625,0 1.2,0.525 1.2,1.2c0,0.675 -0.575,1.2 -1.2,1.2h-8.225c-0.85,0 -1.475,-0.625 -1.475,-1.475v-14.7c0,-0.775 0.6,-1.4 1.375,-1.4c0.725,0 1.325,0.625 1.325,1.4v13.775z"/><path d="M202.51605,187.32215v15c0,0.75 -0.6,1.4 -1.375,1.4c-0.75,0 -1.375,-0.65 -1.375,-1.4v-10.15l-5.4,10.075c-0.275,0.5 -0.7,0.75 -1.175,0.75c-0.475,0 -0.925,-0.25 -1.175,-0.75l-5.425,-10.075v10.15c0,0.75 -0.625,1.4 -1.35,1.4c-0.775,0 -1.4,-0.65 -1.4,-1.4v-15c0,-0.825 0.625,-1.25 1.225,-1.25c0.575,0 1.1,0.4 1.4,0.9l6.725,12.225l6.725,-12.225c0.275,-0.5 0.825,-0.9 1.4,-0.9c0.6,0 1.2,0.425 1.2,1.25z"/><path d="M219.74105,187.47215v15c0,0.85 -0.575,1.3 -1.275,1.3c-0.575,0 -1.025,-0.275 -1.375,-0.8l-8.825,-11.925v11.325c0,0.75 -0.625,1.4 -1.35,1.4c-0.775,0 -1.4,-0.65 -1.4,-1.4v-15c0,-0.85 0.575,-1.3 1.275,-1.3c0.575,0 1.025,0.275 1.375,0.8l8.825,11.925v-11.325c0,-0.75 0.625,-1.4 1.35,-1.4c0.775,0 1.4,0.65 1.4,1.4z"/><path d="M23.39095,224.89715c0,5.275 -4.325,8.925 -8.7,8.925c-4.375,0 -8.7,-3.65 -8.7,-8.925c0,-5.275 4.325,-8.925 8.7,-8.925c4.375,0 8.7,3.65 8.7,8.925zM8.81595,224.89715c0,3.8 2.825,6.35 5.875,6.35c3.05,0 5.875,-2.55 5.875,-6.35c0,-3.8 -2.8,-6.375 -5.875,-6.375c-3.05,0 -5.875,2.575 -5.875,6.375z"/><path d="M38.56595,221.69715c0,3.275 -2.475,5.575 -6.375,5.575h-3.35v5.15c0,0.75 -0.6,1.375 -1.325,1.375c-0.775,0 -1.375,-0.625 -1.375,-1.375v-14.8c0,-0.85 0.625,-1.475 1.475,-1.475h4.575c3.9,0 6.375,2.4 6.375,5.55zM35.94095,221.69715c0,-2.2 -1.55,-3.225 -3.85,-3.225h-3.25v6.475h3.25c2.3,0 3.85,-0.925 3.85,-3.25z"/><path d="M56.29095,231.99715c0.175,0.225 0.3,0.475 0.3,0.775c0,0.625 -0.5,1.125 -1.125,1.125c-0.3,0 -0.6,-0.125 -0.775,-0.35l-0.95,-0.95c-1.325,0.775 -2.825,1.225 -4.35,1.225c-4.375,0 -8.7,-3.65 -8.7,-8.925c0,-5.275 4.325,-8.925 8.7,-8.925c4.375,0 8.7,3.65 8.7,8.925c0,2.575 -1.025,4.75 -2.575,6.3zM51.86595,230.67215l-2,-2.05c-0.175,-0.2 -0.325,-0.475 -0.325,-0.775c0,-0.6 0.5,-1.125 1.125,-1.125c0.325,0 0.6,0.125 0.8,0.35l2.175,2.225c1,-1.1 1.625,-2.6 1.625,-4.4c0,-3.8 -2.8,-6.375 -5.875,-6.375c-3.05,0 -5.875,2.575 -5.875,6.375c0,3.8 2.825,6.35 5.875,6.35c0.875,0 1.7,-0.2 2.475,-0.575z"/><path d="M73.49105,232.47215c0,0.7 -0.525,1.25 -1.225,1.25c-0.425,0 -0.775,-0.225 -1,-0.5l-4.7,-5.95h-3.025v5.15c0,0.75 -0.6,1.375 -1.325,1.375c-0.7751,0 -1.3751,-0.625 -1.3751,-1.375v-14.8c0,-0.85 0.625,-1.475 1.4751,-1.475h4.575c3.9,0 6.375,2.4 6.375,5.55c0,2.525 -1.475,4.475 -3.95,5.225l3.85,4.7c0.2,0.225 0.325,0.525 0.325,0.85zM63.54105,224.94715h3.25c2.3,0 3.85,-0.925 3.85,-3.25c0,-2.2 -1.55,-3.225 -3.85,-3.225h-3.25z"/><path d="M86.21605,218.17215c0.375,0.475 0.575,0.85 0.575,1.25c0,0.6 -0.475,1.075 -1.125,1.075c-0.475,0 -0.875,-0.25 -1.15,-0.575c-0.7,-0.925 -1.475,-1.55 -2.9,-1.55c-1.775,0 -2.875,0.9 -2.875,2.275c0,1.1 0.7,1.9 2.325,2.525l1.225,0.475c3.525,1.35 5.325,2.625 5.325,5.15c0,3.325 -3.275,5.025 -6.175,5.025c-2.125,0 -4.3,-0.925 -5.425,-2.65c-0.2,-0.275 -0.525,-0.725 -0.525,-1.275c0,-0.6 0.375,-1.175 1.125,-1.175c0.6,0 1.025,0.375 1.3,0.8c0.85,1.3 2.175,1.875 3.525,1.875c1.55,0 3.4,-0.65 3.4,-2.6c0,-1.575 -1.175,-2.2 -3.1,-2.95l-1.35,-0.525c-2.5,-0.975 -4.35,-2.25 -4.35,-4.7c0,-2.825 2.45,-4.65 5.475,-4.65c2.3,0 3.75,1 4.7,2.2z"/><path d="M102.36605,217.34715c0,0.675 -0.55,1.2 -1.2,1.2h-3.95v13.825c0,0.775 -0.625,1.425 -1.325,1.425c-0.75,0 -1.375,-0.65 -1.375,-1.425v-13.825h-3.95c-0.65,0 -1.2,-0.525 -1.2,-1.2c0,-0.675 0.55,-1.2 1.2,-1.2h10.6c0.65,0 1.2,0.525 1.2,1.2z"/><path d="M118.44105,217.39715v9.85c0,4.15 -2.975,6.575 -6.85,6.575c-3.9,0 -6.85,-2.425 -6.85,-6.575v-9.85c0,-0.725 0.575,-1.325 1.325,-1.325c0.75,0 1.375,0.6 1.375,1.325v9.825c0,2.925 1.8,4.325 4.15,4.325c2.35,0 4.15,-1.4 4.15,-4.325v-9.825c0,-0.725 0.625,-1.325 1.4,-1.325c0.725,0 1.3,0.6 1.3,1.325z"/><path d="M136.86605,217.32215c0,0.25 -0.075,0.525 -0.175,0.725l-6.475,14.725c-0.275,0.65 -0.7,1 -1.325,1c-0.625,0 -1.025,-0.35 -1.3,-1l-6.475,-14.725c-0.1,-0.2 -0.175,-0.475 -0.175,-0.725c0,-0.675 0.575,-1.25 1.325,-1.25c0.6,0 1.075,0.35 1.3,0.85l5.325,12.475l5.35,-12.475c0.225,-0.5 0.7,-0.85 1.3,-0.85c0.75,0 1.325,0.575 1.325,1.25z"/><path d="M162.49105,217.32215c0,0.25 -0.075,0.525 -0.15,0.725l-4.55,14.725c-0.225,0.65 -0.75,1 -1.45,1c-0.7,0 -1.175,-0.35 -1.4,-1l-4.375,-11.85l-4.375,11.85c-0.25,0.65 -0.725,1 -1.425,1c-0.7,0 -1.225,-0.35 -1.425,-1l-4.55,-14.725c-0.075,-0.2 -0.175,-0.475 -0.175,-0.725c0,-0.675 0.575,-1.25 1.325,-1.25c0.6,0 1.15,0.35 1.3,0.85l3.625,12.475l4.475,-12.45c0.25,-0.625 0.7,-0.875 1.2,-0.875c0.525,0 1,0.25 1.225,0.875l4.5,12.45l3.625,-12.475c0.15,-0.5 0.7,-0.85 1.3,-0.85c0.725,0 1.3,0.575 1.3,1.25z"/><path d="M178.24105,232.62215c0,0.675 -0.525,1.175 -1.25,1.175c-0.475,0 -0.85,-0.2 -1.125,-0.6l-4.5,-6.4l-4.475,6.4c-0.3,0.4 -0.675,0.6 -1.125,0.6c-0.75,0 -1.275,-0.5 -1.275,-1.175c0,-0.35 0.125,-0.675 0.3,-0.95l5.075,-7.025l-4.65,-6.475c-0.2,-0.25 -0.325,-0.6 -0.325,-0.925c0,-0.675 0.525,-1.175 1.275,-1.175c0.45,0 0.825,0.2 1.125,0.6l4.075,5.825l4.075,-5.825c0.3,-0.4 0.675,-0.6 1.15,-0.6c0.725,0 1.25,0.5 1.25,1.175c0,0.325 -0.1,0.675 -0.3,0.925l-4.65,6.475l5.05,7.025c0.2,0.275 0.3,0.6 0.3,0.95z"/><path d="M193.94105,217.29715c0,0.25 -0.075,0.5 -0.225,0.725l-5.3,7.675v6.775c0,0.725 -0.6,1.325 -1.325,1.325c-0.725,0 -1.35,-0.6 -1.35,-1.325v-6.775l-5.3,-7.675c-0.125,-0.225 -0.2,-0.475 -0.2,-0.725c0,-0.675 0.55,-1.225 1.25,-1.225c0.4,0 0.75,0.2 1,0.525l4.6,6.8l4.575,-6.8c0.25,-0.325 0.6,-0.525 1.025,-0.525c0.7,0 1.25,0.55 1.25,1.225z"/><path d="M207.81605,219.02215l-9.15,12.225h8.425c0.65,0 1.2,0.525 1.2,1.2c0,0.675 -0.55,1.2 -1.2,1.2h-9.35c-1.6,0 -2.525,-1.575 -1.55,-2.875l9.15,-12.225h-7.875c-0.65,0 -1.2,-0.525 -1.2,-1.2c0,-0.675 0.55,-1.2 1.2,-1.2h8.8c1.6,0 2.525,1.575 1.55,2.875z"/><path d="M15.94095,282.89715v-1c0,-0.725 0.6,-1.325 1.325,-1.325c0.725,0 1.35,0.6 1.35,1.325v10.575c0,0.725 -0.625,1.325 -1.35,1.325c-0.725,0 -1.325,-0.6 -1.325,-1.325v-1.35c-0.175,1.125 -1.725,2.7 -4.1,2.7c-2.775,0 -6.1,-2.15 -6.1,-6.675c0,-4.45 3.35,-6.65 6.1,-6.65c1.85,0 3.45,0.95 4.1,2.4zM16.06595,287.14715c0,-3.125 -2.1,-4.375 -3.8,-4.375c-1.825,0 -3.875,1.425 -3.875,4.375c0,2.975 2.05,4.4 3.875,4.4c1.7,0 3.8,-1.3 3.8,-4.4z"/><path d="M34.49095,287.14715c0,4.525 -3.325,6.675 -6.1,6.675c-2.375,0 -3.925,-1.575 -4.1,-2.7v1.35c0,0.725 -0.6,1.325 -1.325,1.325c-0.725,0 -1.35,-0.6 -1.35,-1.325v-15.35c0,-0.725 0.625,-1.325 1.35,-1.325c0.7,0 1.3,0.6 1.3,1.325v4.525c0.025,0.075 0.025,0.175 0.025,0.25v1c0.65,-1.45 2.25,-2.4 4.1,-2.4c2.75,0 6.1,2.2 6.1,6.65zM31.84095,287.14715c0,-2.95 -2.05,-4.375 -3.875,-4.375c-1.7,0 -3.8,1.25 -3.8,4.375c0,3.1 2.1,4.4 3.8,4.4c1.825,0 3.875,-1.425 3.875,-4.4z"/><path d="M47.71595,290.87215c0,0.6 -0.425,0.925 -0.7,1.2c-1.075,1.125 -2.475,1.7 -4.2,1.7c-2.975,0 -6.575,-2.175 -6.575,-6.625c0,-4.475 3.6,-6.65 6.575,-6.65c1.725,0 3.125,0.575 4.2,1.7c0.275,0.275 0.7,0.6 0.7,1.2c0,0.625 -0.525,1.025 -1.075,1.025c-0.5,0 -0.875,-0.275 -1.075,-0.475c-0.675,-0.8 -1.725,-1.15 -2.65,-1.15c-2.1,0 -4.05,1.5 -4.05,4.35c0,2.825 1.95,4.325 4.05,4.325c0.925,0 1.975,-0.35 2.65,-1.15c0.2,-0.2 0.575,-0.475 1.075,-0.475c0.55,0 1.075,0.4 1.075,1.025z"/><path d="M62.34105,277.12215v15.35c0,0.725 -0.625,1.325 -1.3501,1.325c-0.725,0 -1.325,-0.6 -1.325,-1.325v-1.35c-0.175,1.125 -1.725,2.7 -4.1,2.7c-2.775,0 -6.1,-2.15 -6.1,-6.675c0,-4.45 3.35,-6.65 6.1,-6.65c1.85,0 3.45,0.95 4.1,2.4v-1c0,-0.075 0,-0.175 0.025,-0.25v-4.525c0,-0.725 0.6,-1.325 1.3,-1.325c0.7251,0 1.3501,0.6 1.3501,1.325zM59.79095,287.14715c0,-3.125 -2.1,-4.375 -3.8,-4.375c-1.825,0 -3.875,1.425 -3.875,4.375c0,2.975 2.05,4.4 3.875,4.4c1.7,0 3.8,-1.3 3.8,-4.4z"/><path d="M77.59105,286.72215c0,1.025 -0.575,1.425 -1.65,1.425l-8.375,-0.025c0.275,2.325 2.1,3.475 4.1,3.475c1.025,0 1.725,-0.25 2.5,-0.725c0.425,-0.225 0.7,-0.4 1.05,-0.4c0.575,0 0.925,0.4 0.925,0.95c0,0.325 -0.125,0.675 -0.675,1.125c-0.95,0.775 -2.325,1.225 -3.9,1.225c-3.25,0 -6.725,-2.075 -6.725,-6.6c0,-4.5 3.625,-6.675 6.475,-6.675c2.85,0 6.275,2.25 6.275,6.225zM67.56605,286.22215h7.45c-0.225,-2.375 -2.025,-3.425 -3.7,-3.425c-1.65,0 -3.525,1.05 -3.75,3.425z"/><path d="M88.31605,277.29715c0,0.575 -0.425,0.975 -0.975,0.975c-0.225,0 -0.55,-0.1 -0.95,-0.25c-0.35,-0.15 -0.675,-0.3 -1.175,-0.3c-1.4,0 -1.85,1.05 -1.85,2.075v0.85h2.5c0.65,0 1.1,0.425 1.1,1.05c0,0.65 -0.45,1.075 -1.1,1.075h-2.5v9.7c0,0.725 -0.6,1.325 -1.3,1.325c-0.725,0 -1.325,-0.6 -1.325,-1.325v-9.7h-0.825c-0.65,0 -1.075,-0.425 -1.075,-1.075c0,-0.625 0.425,-1.05 1.075,-1.05h0.825v-0.95c0,-3.425 2.525,-4.225 4.15,-4.225c1.125,0 2.075,0.3 2.75,0.775c0.425,0.275 0.675,0.6 0.675,1.05z"/><path d="M100.44105,292.47215c0,0.075 0,0.175 -0.025,0.25v0.675c0,4.1 -3.7,5.375 -6.35,5.375c-1.6,0 -2.85,-0.45 -3.425,-0.75c-0.525,-0.225 -0.825,-0.625 -0.825,-1.125c0,-0.6 0.475,-1.05 1.05,-1.05c0.15,0 0.35,0.025 0.625,0.125c0.55,0.225 1.475,0.525 2.625,0.525c2.175,0 3.65,-1.125 3.65,-3.1v-2.275c-0.175,1.125 -1.725,2.7 -4.1,2.7c-2.775,0 -6.1,-2.15 -6.1,-6.675c0,-4.45 3.35,-6.65 6.1,-6.65c1.85,0 3.45,0.95 4.1,2.4v-1c0,-0.725 0.6,-1.325 1.325,-1.325c0.725,0 1.35,0.6 1.35,1.325zM97.89105,287.14715c0,-3.125 -2.1,-4.375 -3.8,-4.375c-1.825,0 -3.875,1.425 -3.875,4.375c0,2.975 2.05,4.4 3.875,4.4c1.7,0 3.8,-1.3 3.8,-4.4z"/><path d="M115.36605,286.29715v6.15c0,0.725 -0.575,1.325 -1.3,1.325c-0.725,0 -1.325,-0.6 -1.325,-1.325v-6.15c0,-2.5 -1.425,-3.5 -3.05,-3.5c-2.4,0 -3.45,2.15 -3.6,3.225v6.425c0,0.725 -0.6,1.325 -1.325,1.325c-0.725,0 -1.325,-0.6 -1.325,-1.325v-15.325c0,-0.725 0.6,-1.325 1.325,-1.325c0.725,0 1.325,0.6 1.325,1.325v6.45c0.125,-0.875 1.625,-3.05 4.475,-3.05c2.425,0 4.8,1.525 4.8,5.775z"/><path d="M118.36605,276.87215c0,-0.725 0.625,-1.325 1.35,-1.325c0.725,0 1.35,0.6 1.35,1.325c0,0.725 -0.625,1.325 -1.35,1.325c-0.725,0 -1.35,-0.6 -1.35,-1.325zM121.04105,281.92215v10.525c0,0.75 -0.6,1.35 -1.325,1.35c-0.725,0 -1.325,-0.6 -1.325,-1.35v-10.525c0,-0.75 0.6,-1.35 1.325,-1.35c0.725,0 1.325,0.6 1.325,1.35z"/><path d="M124.86605,276.87215c0,-0.725 0.625,-1.325 1.35,-1.325c0.725,0 1.35,0.6 1.35,1.325c0,0.725 -0.625,1.325 -1.35,1.325c-0.725,0 -1.35,-0.6 -1.35,-1.325zM127.54105,281.92215v13.125c0,2.55 -1.5,3.725 -3.525,3.725c-0.7,0 -1.35,-0.125 -1.95,-0.425c-0.45,-0.25 -1,-0.675 -1,-1.35c0,-0.75 0.725,-1.375 1.525,-1.125c0.3,0.125 0.6,0.375 1.125,0.375c0.95,0 1.175,-0.875 1.175,-1.8v-12.525c0,-0.75 0.6,-1.35 1.325,-1.35c0.725,0 1.325,0.6 1.325,1.35z"/><path d="M141.91605,292.62215c0,0.625 -0.525,1.15 -1.175,1.15c-0.325,0 -0.625,-0.15 -0.825,-0.35l-4.95,-5.375l-1.75,1.675v2.725c0,0.725 -0.6,1.325 -1.325,1.325c-0.725,0 -1.325,-0.6 -1.325,-1.325v-15.325c0,-0.725 0.6,-1.325 1.325,-1.325c0.725,0 1.325,0.6 1.325,1.325v9.475l5.625,-5.65c0.225,-0.2 0.575,-0.375 0.9,-0.375c0.675,0 1.2,0.55 1.2,1.2c0,0.325 -0.125,0.625 -0.325,0.85l-4.025,3.875l4.975,5.3c0.2,0.2 0.35,0.5 0.35,0.825z"/><path d="M145.36605,293.77215c-0.725,0 -1.325,-0.6 -1.325,-1.325v-15.325c0,-0.725 0.6,-1.325 1.325,-1.325c0.725,0 1.325,0.6 1.325,1.325v15.325c0,0.725 -0.6,1.325 -1.325,1.325z"/><path d="M170.91605,286.29715v6.15c0,0.725 -0.6,1.325 -1.3,1.325c-0.725,0 -1.325,-0.6 -1.325,-1.325v-6.15c0,-2.5 -1.425,-3.5 -3.05,-3.5c-2.4,0 -3.45,2.15 -3.625,3.225v0.275v6.15c0,0.725 -0.575,1.325 -1.3,1.325c-0.725,0 -1.325,-0.6 -1.325,-1.325v-6.15c0,-2.5 -1.425,-3.5 -3.05,-3.5c-2.4,0 -3.45,2.15 -3.6,3.225v6.425c0,0.725 -0.6,1.325 -1.325,1.325c-0.725,0 -1.325,-0.6 -1.325,-1.325v-10.525c0,-0.75 0.6,-1.35 1.325,-1.35c0.725,0 1.325,0.6 1.325,1.35v1.65c0.125,-0.875 1.625,-3.05 4.475,-3.05c1.85,0 3.7,0.9 4.45,3.225c0.7,-1.55 2.3,-3.225 4.85,-3.225c2.425,0 4.8,1.525 4.8,5.775z"/><path d="M185.84105,286.29715v6.15c0,0.725 -0.575,1.325 -1.3,1.325c-0.725,0 -1.325,-0.6 -1.325,-1.325v-6.15c0,-2.5 -1.425,-3.5 -3.05,-3.5c-2.4,0 -3.45,2.15 -3.6,3.225v6.425c0,0.725 -0.6,1.325 -1.325,1.325c-0.725,0 -1.325,-0.6 -1.325,-1.325v-10.525c0,-0.75 0.6,-1.35 1.325,-1.35c0.725,0 1.325,0.6 1.325,1.35v1.65c0.125,-0.875 1.625,-3.05 4.475,-3.05c2.425,0 4.8,1.525 4.8,5.775z"/><path d="M201.51605,287.17215c0,4.475 -3.725,6.65 -6.6,6.65c-2.875,0 -6.575,-2.175 -6.575,-6.65c0,-4.45 3.7,-6.675 6.575,-6.675c2.875,0 6.6,2.225 6.6,6.675zM190.96605,287.17215c0,2.825 2.025,4.35 3.95,4.35c1.95,0 3.975,-1.525 3.975,-4.35c0,-2.85 -2.025,-4.375 -3.975,-4.375c-1.925,0 -3.95,1.525 -3.95,4.375z"/><path d="M216.41605,287.14715c0,4.525 -3.325,6.675 -6.1,6.675c-2.375,0 -3.925,-1.575 -4.1,-2.7v1.35c0,0.075 0,0.175 -0.025,0.25v4.5c0,0.725 -0.6,1.325 -1.325,1.325c-0.725,0 -1.325,-0.6 -1.325,-1.325v-15.325c0,-0.725 0.625,-1.325 1.35,-1.325c0.725,0 1.325,0.6 1.325,1.325v1c0.65,-1.45 2.25,-2.4 4.1,-2.4c2.75,0 6.1,2.2 6.1,6.65zM213.76605,287.14715c0,-2.95 -2.05,-4.375 -3.875,-4.375c-1.7,0 -3.8,1.25 -3.8,4.375c0,3.1 2.1,4.4 3.8,4.4c1.825,0 3.875,-1.425 3.875,-4.4z"/><path d="M18.61595,311.89715v15.325c0,0.725 -0.6,1.325 -1.325,1.325c-0.725,0 -1.325,-0.6 -1.325,-1.325v-4.5c-0.025,-0.075 -0.025,-0.175 -0.025,-0.25v-1.35c-0.175,1.125 -1.725,2.7 -4.1,2.7c-2.775,0 -6.1,-2.15 -6.1,-6.675c0,-4.45 3.35,-6.65 6.1,-6.65c1.85,0 3.45,0.95 4.1,2.4v-1c0,-0.725 0.6,-1.325 1.325,-1.325c0.725,0 1.35,0.6 1.35,1.325zM16.06595,317.14715c0,-3.125 -2.1,-4.375 -3.8,-4.375c-1.825,0 -3.875,1.425 -3.875,4.375c0,2.975 2.05,4.4 3.875,4.4c1.7,0 3.8,-1.3 3.8,-4.4z"/><path d="M29.76595,311.74715c0,0.75 -0.575,1.25 -1.7,1.25c-2.2,0 -3.625,1.7 -3.8,3.025v6.425c0,0.725 -0.6,1.325 -1.325,1.325c-0.725,0 -1.325,-0.6 -1.325,-1.325v-10.525c0,-0.75 0.6,-1.35 1.325,-1.35c0.725,0 1.325,0.6 1.325,1.35v1.65c0.125,-0.875 1.7,-3.05 4.15,-3.05c0.875,0 1.35,0.55 1.35,1.225z"/><path d="M39.99095,312.44715c0.15,0.225 0.35,0.5 0.35,0.925c0,0.625 -0.475,1 -1.075,1c-0.4,0 -0.775,-0.175 -1.15,-0.675c-0.5,-0.625 -1.2,-1.05 -2.225,-1.05c-1.25,0 -2,0.625 -2,1.525c0,0.625 0.35,1.225 1.675,1.6l1.55,0.425c2.125,0.575 3.725,1.525 3.725,3.625c0,2.625 -2.475,3.95 -5.075,3.95c-2.175,0 -3.7,-0.95 -4.35,-1.975c-0.125,-0.175 -0.525,-0.675 -0.525,-1.275c0,-0.525 0.325,-1.075 1.025,-1.075c0.575,0 0.875,0.35 1.125,0.725c0.625,1.05 1.65,1.4 2.725,1.4c1.45,0 2.45,-0.6 2.45,-1.6c0,-0.75 -0.525,-1.3 -1.775,-1.65l-1.675,-0.45c-2.425,-0.675 -3.475,-1.975 -3.475,-3.675c0,-2.35 2.125,-3.7 4.55,-3.7c1.8,0 3.35,0.725 4.15,1.95z"/><path d="M49.54095,322.29715c0,1.025 -1.175,1.475 -2.575,1.475c-1.5,0 -2.975,-0.525 -2.975,-3.4v-7.6h-0.95c-0.65,0 -1.075,-0.425 -1.075,-1.075c0,-0.625 0.425,-1.05 1.075,-1.05h0.95v-1.95c0,-0.7 0.6,-1.3 1.3,-1.3c0.725,0 1.325,0.6 1.325,1.3v1.95h1.825c0.65,0 1.1,0.425 1.1,1.05c0,0.65 -0.45,1.075 -1.1,1.075h-1.825v7.625c0,0.75 0.3,1.1 0.875,1.1c0.325,0 0.7,-0.1 0.975,-0.125c0.625,-0.1 1.075,0.3 1.075,0.925z"/><path d="M51.79095,318.04715v-6.15c0,-0.725 0.575,-1.325 1.3,-1.325c0.725,0 1.325,0.6 1.325,1.325v6.15c0,2.5 1.425,3.5 3.05,3.5c2.4,0 3.45,-2.15 3.6,-3.225v-6.425c0,-0.725 0.6001,-1.325 1.3251,-1.325c0.725,0 1.325,0.6 1.325,1.325v10.525c0,0.75 -0.6,1.35 -1.325,1.35c-0.725,0 -1.3251,-0.6 -1.3251,-1.35v-1.65c-0.125,0.875 -1.625,3.05 -4.475,3.05c-2.425,0 -4.8,-1.525 -4.8,-5.775z"/><path d="M78.11605,311.77215c0,0.25 -0.075,0.425 -0.15,0.6l-4.6,10.325c-0.3,0.625 -0.675,1 -1.325,1c-0.65,0 -1.025,-0.375 -1.325,-1l-4.6,-10.325c-0.075,-0.175 -0.15,-0.35 -0.15,-0.6c0,-0.65 0.525,-1.2 1.225,-1.2c0.5,0 0.975,0.275 1.25,0.9l3.6,8.475l3.6,-8.475c0.25,-0.625 0.75,-0.9 1.25,-0.9c0.7,0 1.225,0.55 1.225,1.2z"/><path d="M98.86605,311.82215c0,0.2 -0.1,0.375 -0.175,0.6l-3.525,10.275c-0.225,0.65 -0.7,1 -1.25,1c-0.575,0 -1.025,-0.35 -1.3,-1l-3.375,-8.25l-3.4,8.25c-0.25,0.65 -0.725,1 -1.275,1c-0.575,0 -1.025,-0.35 -1.25,-1l-3.525,-10.275c-0.075,-0.225 -0.175,-0.4 -0.175,-0.6c0,-0.7 0.55,-1.25 1.25,-1.25c0.475,0 0.975,0.3 1.125,0.725l2.75,8.5l3.3,-8.4c0.2,-0.525 0.625,-0.825 1.2,-0.825c0.575,0 0.975,0.3 1.2,0.825l3.3,8.4l2.75,-8.5c0.125,-0.45 0.65,-0.725 1.125,-0.725c0.7,0 1.25,0.55 1.25,1.25z"/><path d="M111.56605,322.59715c0,0.65 -0.575,1.175 -1.2,1.175c-0.375,0 -0.7,-0.2 -0.925,-0.475l-3.4,-4.4l-3.425,4.4c-0.225,0.275 -0.55,0.475 -0.925,0.475c-0.625,0 -1.2,-0.525 -1.2,-1.175c0,-0.275 0.1,-0.5 0.25,-0.7l3.825,-4.775l-3.725,-4.675c-0.175,-0.2 -0.275,-0.425 -0.275,-0.7c0,-0.65 0.575,-1.175 1.2,-1.175c0.375,0 0.725,0.2 0.95,0.475l3.325,4.3l3.325,-4.3c0.225,-0.275 0.55,-0.475 0.925,-0.475c0.625,0 1.2,0.525 1.2,1.175c0,0.275 -0.1,0.5 -0.275,0.7l-3.725,4.675l3.825,4.775c0.15,0.2 0.25,0.425 0.25,0.7z"/><path d="M125.66605,311.77215c0,0.25 -0.075,0.425 -0.15,0.6l-6.675,15.25c-0.275,0.625 -0.75,0.9 -1.25,0.9c-0.7,0 -1.175,-0.55 -1.175,-1.2c0,-0.25 0.075,-0.425 0.15,-0.6l1.55,-3.575l-4.775,-10.775c-0.075,-0.175 -0.15,-0.35 -0.15,-0.6c0,-0.65 0.525,-1.2 1.225,-1.2c0.5,0 0.975,0.275 1.25,0.9l3.75,8.725l3.775,-8.725c0.275,-0.625 0.75,-0.9 1.25,-0.9c0.7,0 1.225,0.55 1.225,1.2z"/><path d="M137.11605,313.64715l-6.9,7.725h6.45c0.625,0 1.15,0.5 1.15,1.125c0,0.65 -0.525,1.15 -1.15,1.15h-7.35c-1.65,0 -2.55,-1.65 -1.325,-3.025l6.875,-7.7h-6.025c-0.625,0 -1.15,-0.5 -1.15,-1.15c0,-0.625 0.525,-1.125 1.15,-1.125h6.9c1.625,0 2.575,1.65 1.375,3z"/><path d="M153.74105,314.57215v0.6c0,5.6 -3.325,8.6 -6.9,8.6c-3.55,0 -6.9,-3 -6.9,-8.6v-0.6c0,-5.575 3.35,-8.6 6.9,-8.6c3.575,0 6.9,3.025 6.9,8.6zM142.59105,314.57215v0.6c0,3.3 1.4,6.325 4.25,6.325c2.85,0 4.25,-3.025 4.25,-6.325v-0.6c0,-3.3 -1.4,-6.325 -4.25,-6.325c-2.85,0 -4.25,3.025 -4.25,6.325z"/><path d="M160.94105,307.62215v14.825c0,0.725 -0.6,1.325 -1.325,1.325c-0.725,0 -1.325,-0.6 -1.325,-1.325v-14.025h-1.65c-0.625,0 -1.15,-0.5 -1.15,-1.15c0,-0.625 0.525,-1.125 1.15,-1.125h2.8c0.875,0 1.5,0.625 1.5,1.475z"/><path d="M175.14105,311.09715c0,2.3 -1.675,3.725 -4.725,6.775l-3.375,3.425h7.05c0.625,0 1.175,0.5 1.175,1.175c0,0.675 -0.55,1.175 -1.175,1.175h-8.05c-1.85,0 -2.8,-1.925 -1.45,-3.275l3.25,-3.325c3.15,-3.175 4.65,-4.325 4.65,-6.05c0,-1.85 -1.575,-2.7 -2.925,-2.7c-1.25,0 -2.625,0.7 -3,2.475c-0.15,0.55 -0.675,1.075 -1.375,1.075c-0.925,0 -1.4,-0.875 -1.125,-1.85c0.55,-2.25 2.5,-4.025 5.375,-4.025c3.35,0 5.7,2.4 5.7,5.125z"/><path d="M188.24105,308.89715l-3.35,4.35c2.15,0.375 4.65,2.15 4.65,5.175c0,3.25 -2.725,5.475 -6.15,5.475c-2.675,0 -5.025,-1.375 -5.8,-3.925c-0.275,-0.8 0.2,-1.675 1.1,-1.675c0.625,0 1.075,0.375 1.2,0.8c0.55,1.775 2.175,2.525 3.5,2.525c1.425,0 3.525,-0.85 3.525,-3.2c0,-2.3 -2.275,-3.125 -3.75,-3.4c-0.675,-0.125 -1.05,-0.65 -1.05,-1.15c0,-0.425 0.3,-0.775 0.625,-1.2l3.125,-4.25h-6.625c-0.625,0 -1.15,-0.5 -1.15,-1.15c0,-0.625 0.525,-1.125 1.15,-1.125h7.425c1.575,0 2.525,1.5 1.575,2.75z"/><path d="M202.66605,317.09715c0.625,0 1.15,0.5 1.15,1.1c0,0.625 -0.525,1.1 -1.15,1.1h-0.875v3.175c0,0.725 -0.6,1.325 -1.325,1.325c-0.725,0 -1.325,-0.6 -1.325,-1.325v-3.175h-5.575c-1.7,0 -2.25,-1.325 -1.375,-2.575l6.8,-9.75c0.95,-1.375 2.8,-0.875 2.8,0.7v9.425zM194.59105,317.09715h4.55v-6.65z"/><path d="M215.94105,307.27215c0,0.65 -0.525,1.15 -1.15,1.15h-5.65l-0.525,4.425c0.475,-0.35 1.625,-0.95 3.25,-0.95c3.025,0 5.7,2.375 5.7,5.975c0,3.5 -2.75,6.025 -6.325,6.025c-2.225,0 -4,-0.95 -5.1,-2.4c-0.15,-0.2 -0.35,-0.525 -0.35,-0.9c0,-0.65 0.5,-1.175 1.2,-1.175c0.425,0 0.825,0.225 1.025,0.5c0.6,0.925 1.75,1.7 3.2,1.7c1.775,0 3.7,-1.2 3.7,-3.75c0,-2.375 -1.725,-3.7 -3.525,-3.7c-0.85,0 -1.775,0.325 -2.65,1.025c-0.25,0.15 -0.75,0.25 -1.1,0.25c-1.025,0 -1.675,-0.85 -1.575,-1.875l0.775,-6.175c0.1,-0.75 0.675,-1.25 1.425,-1.25h6.525c0.625,0 1.15,0.5 1.15,1.125z"/><path d="M14.76595,337.17215c0,0.275 -0.1,0.525 -0.25,0.725l-3.75,4.9c0.35,-0.1 0.65,-0.1 0.925,-0.1c2.95,0 5.775,2.4 5.775,5.65c0,3.25 -2.825,5.55 -5.775,5.55c-2.975,0 -5.825,-2.3 -5.825,-5.8c0,-2.8 1.85,-4.725 3.75,-7.35l3.05,-4.25c0.2,-0.3 0.575,-0.5 0.95,-0.5c0.675,0 1.15,0.525 1.15,1.175zM8.36595,348.34715c0,1.85 1.55,3.25 3.3,3.25c1.775,0 3.275,-1.4 3.275,-3.25c0,-1.85 -1.5,-3.2 -3.275,-3.2c-2.025,0 -3.3,1.35 -3.3,3.2z"/><path d="M29.31595,338.62215l-6.875,14.425c-0.2,0.425 -0.625,0.75 -1.125,0.75c-0.7,0 -1.25,-0.575 -1.25,-1.275c0,-0.2 0.05,-0.375 0.125,-0.525l6.625,-13.575h-7.2c-0.625,0 -1.15,-0.5 -1.15,-1.15c0,-0.625 0.525,-1.125 1.15,-1.125h8.1c1.375,0 2.2,1.225 1.6,2.475z"/><path d="M43.31595,348.32215c0,3.45 -2.975,5.55 -5.975,5.55c-2.975,0 -5.975,-2.1 -5.975,-5.55c0,-2.075 1.1,-3.625 2.6,-4.525c-0.925,-0.85 -1.5,-2 -1.5,-3.275c0,-2.45 1.825,-4.55 4.875,-4.55c3.05,0 4.9,2.1 4.9,4.55c0,1.275 -0.6,2.45 -1.525,3.275c1.5,0.9 2.6,2.45 2.6,4.525zM37.34095,342.87215c1.425,0 2.375,-1.1 2.375,-2.325c0,-1.175 -0.925,-2.3 -2.375,-2.3c-1.45,0 -2.375,1.125 -2.375,2.3c0,1.225 0.975,2.325 2.375,2.325zM40.61595,348.32215c0,-2.025 -1.6,-3.25 -3.275,-3.25c-1.675,0 -3.275,1.225 -3.275,3.25c0,1.925 1.55,3.275 3.275,3.275c1.75,0 3.275,-1.35 3.275,-3.275z"/><path d="M48.14095,352.64715c0,-0.275 0.1,-0.525 0.25,-0.725l3.75,-4.9c-0.35,0.1 -0.65,0.1 -0.925,0.1c-2.95,0 -5.775,-2.4 -5.775,-5.65c0,-3.25 2.825,-5.55 5.775,-5.55c2.975,0 5.825,2.3 5.825,5.8c0,2.8 -1.85,4.725 -3.75,7.35l-3.05,4.25c-0.2,0.3 -0.575,0.5 -0.95,0.5c-0.675,0 -1.15,-0.525 -1.15,-1.175zM54.54095,341.47215c0,-1.85 -1.55,-3.25 -3.3,-3.25c-1.775,0 -3.275,1.4 -3.275,3.25c0,1.85 1.5,3.2 3.275,3.2c2.025,0 3.3,-1.35 3.3,-3.2z"/></g><g fill-rule="evenodd" stroke-width="1" stroke-linecap="round" stroke-linejoin="round"><path d="M272.70905,225.92515c0,0.425 -0.35,0.825 -0.85,0.825c-0.375,0 -0.675,-0.25 -0.825,-0.55l-1.925,-4.45h-8.425l-1.925,4.45c-0.125,0.3 -0.45,0.55 -0.825,0.55c-0.475,0 -0.85,-0.4 -0.85,-0.825c0,-0.15 0.05,-0.3 0.1,-0.425l6.875,-15.775c0.175,-0.4 0.4,-0.65 0.85,-0.65c0.425,0 0.675,0.25 0.85,0.65l6.875,15.775c0.05,0.125 0.075,0.275 0.075,0.425zM268.50905,220.32515l-3.6,-8.325l-3.6,8.325z"/><path d="M286.95905,221.72515c0,3.125 -2.25,4.925 -6.45,4.925h-4.475c-0.55,0 -0.95,-0.4 -0.95,-0.95v-15.625c0,-0.55 0.4,-0.925 0.95,-0.925h4.375c3.5,0 5.5,1.7 5.5,4.35c0,1.6 -0.775,2.925 -2.7,3.55c2.65,0.825 3.75,2.5 3.75,4.675zM276.83405,216.47515h3.575c2.5,0 3.8,-0.9 3.8,-2.825c0,-1.825 -1.3,-3 -3.8,-3h-3.575zM285.25905,221.62515c0,-2.25 -1.575,-3.75 -4.75,-3.75h-3.675v7.275h3.675c3.2,0 4.75,-1.225 4.75,-3.525z"/><path d="M303.33405,224.32515c0,0.325 -0.25,0.65 -0.675,0.975c-1.275,0.975 -2.85,1.525 -4.725,1.525c-4.35,0 -8.725,-3.65 -8.725,-8.925c0,-5.275 4.325,-8.925 8.775,-8.925c1.85,0 3.375,0.55 4.65,1.5c0.5,0.35 0.7,0.625 0.7,1c0,0.475 -0.375,0.8 -0.8,0.8c-0.35,0 -0.6,-0.2 -0.95,-0.475c-0.8,-0.675 -2.175,-1.175 -3.625,-1.175c-3.525,0 -6.95,3.025 -6.95,7.275c0,4.25 3.45,7.275 6.925,7.275c1.475,0 2.85,-0.5 3.65,-1.175c0.35,-0.275 0.625,-0.475 0.95,-0.475c0.425,0 0.8,0.325 0.8,0.8z"/><path d="M319.13405,217.92515c0,5.5 -3.45,8.725 -8.725,8.725h-3.75c-0.55,0 -0.95,-0.4 -0.95,-0.95v-15.625c0,-0.55 0.4,-0.925 0.95,-0.925h3.75c5.275,0 8.725,3.2 8.725,8.775zM317.40905,217.92515c0,-4.8 -2.575,-7.275 -7,-7.275h-2.95v14.5h2.95c4.425,0 7,-2.5 7,-7.225z"/><path d="M331.95905,225.10015c0.4,0 0.775,0.35 0.775,0.775c0,0.425 -0.375,0.775 -0.775,0.775h-9.375c-0.55,0 -0.95,-0.4 -0.95,-0.95v-15.625c0,-0.55 0.4,-0.925 0.95,-0.925h9.125c0.4,0 0.775,0.35 0.775,0.775c0,0.425 -0.375,0.775 -0.775,0.775h-8.325v6.4h5.975c0.425,0 0.75,0.35 0.75,0.75c0,0.4 -0.325,0.75 -0.75,0.75h-5.975v6.5z"/><path d="M345.18405,210.70015h-8.325v6.5h6.8c0.425,0 0.775,0.325 0.775,0.75c0,0.4 -0.35,0.75 -0.775,0.75h-6.8v7.15c0,0.475 -0.4,0.9 -0.875,0.9c-0.475,0 -0.875,-0.425 -0.875,-0.9v-15.775c0,-0.55 0.4,-0.925 0.95,-0.925h9.125c0.4,0 0.775,0.35 0.775,0.775c0,0.425 -0.375,0.775 -0.775,0.775z"/><path d="M364.75905,218.90015c-0.2,4.975 -3.625,7.925 -7.875,7.925c-4.425,0 -8.8,-3.65 -8.8,-8.925c0,-5.275 4.325,-8.925 8.775,-8.925c1.85,0 3.375,0.55 4.65,1.5c0.5,0.35 0.7,0.625 0.7,1c0,0.475 -0.375,0.8 -0.8,0.8c-0.35,0 -0.6,-0.2 -0.95,-0.475c-0.8,-0.675 -2.175,-1.175 -3.625,-1.175c-3.525,0 -6.95,3.025 -6.95,7.275c0,4.25 3.45,7.275 7,7.275c3.25,0 5.9,-2.175 6.2,-5.775h-4.6c-0.45,0 -0.8,-0.35 -0.8,-0.75c0,-0.425 0.35,-0.775 0.8,-0.775h5.425c0.6,0 0.9,0.425 0.85,1.025z"/><path d="M379.58405,209.07515c0.475,0 0.85,0.4 0.85,0.875v15.9c0,0.475 -0.375,0.875 -0.85,0.875c-0.5,0 -0.875,-0.4 -0.875,-0.875v-6.975h-9.575v6.975c0,0.475 -0.4,0.875 -0.875,0.875c-0.5,0 -0.875,-0.4 -0.875,-0.875v-15.9c0,-0.475 0.375,-0.875 0.875,-0.875c0.475,0 0.875,0.4 0.875,0.875v7.4h9.575v-7.4c0,-0.475 0.375,-0.875 0.875,-0.875z"/><path d="M385.18405,209.97515v15.875c0,0.475 -0.375,0.9 -0.85,0.9c-0.5,0 -0.9,-0.425 -0.9,-0.9v-15.875c0,-0.5 0.4,-0.9 0.9,-0.9c0.475,0 0.85,0.4 0.85,0.9z"/><path d="M397.80905,209.92515v10.175c0,5 -2.6,6.725 -5.675,6.725c-1.775,0 -3.15,-0.575 -4,-1.35c-0.4,-0.375 -0.575,-0.65 -0.575,-0.975c0,-0.4 0.25,-0.775 0.75,-0.775c0.3,0 0.575,0.15 0.7,0.275c0.85,0.75 1.825,1.225 3.15,1.225c2.175,0 3.9,-1.2 3.9,-5.15v-10.15c0,-0.45 0.375,-0.85 0.875,-0.85c0.475,0 0.875,0.4 0.875,0.85z"/><path d="M414.48405,225.95015c0,0.425 -0.375,0.8 -0.8,0.8c-0.225,0 -0.45,-0.1 -0.6,-0.275l-7.375,-7.9l-3.15,3.225v4.075c0,0.475 -0.425,0.875 -0.9,0.875c-0.475,0 -0.85,-0.425 -0.85,-0.9v-15.925c0,-0.475 0.375,-0.875 0.85,-0.875c0.475,0 0.9,0.4 0.9,0.875v9.625l9.95,-10.225c0.15,-0.15 0.375,-0.275 0.6,-0.275c0.45,0 0.8,0.375 0.8,0.8c0,0.225 -0.05,0.4 -0.2,0.55l-6.9,7.05l7.45,7.95c0.125,0.15 0.225,0.325 0.225,0.55z"/><path d="M426.33405,225.10015c0.4,0 0.775,0.35 0.775,0.775c0,0.425 -0.375,0.775 -0.775,0.775h-8.65c-0.55,0 -0.95,-0.4 -0.95,-0.95v-15.725c0,-0.5 0.375,-0.9 0.875,-0.9c0.475,0 0.875,0.4 0.875,0.9v15.125z"/><path d="M448.03405,209.82515v16c0,0.475 -0.375,0.9 -0.85,0.9c-0.5,0 -0.9,-0.425 -0.9,-0.9v-12.75l-6.75,12.5c-0.175,0.35 -0.475,0.5 -0.775,0.5c-0.3,0 -0.575,-0.175 -0.775,-0.5l-6.75,-12.5v12.75c0,0.475 -0.4,0.9 -0.875,0.9c-0.475,0 -0.875,-0.425 -0.875,-0.9v-16c0,-0.475 0.375,-0.75 0.75,-0.75c0.4,0 0.725,0.225 0.95,0.6l7.575,13.95l7.6,-13.95c0.2,-0.375 0.55,-0.6 0.925,-0.6c0.4,0 0.75,0.275 0.75,0.75z"/><path d="M464.83405,209.97515v15.975c0,0.5 -0.375,0.8 -0.775,0.8c-0.35,0 -0.625,-0.15 -0.9,-0.525l-10.375,-13.95v13.55c0,0.475 -0.425,0.925 -0.875,0.925c-0.475,0 -0.875,-0.45 -0.875,-0.925v-15.95c0,-0.525 0.4,-0.8 0.775,-0.8c0.375,0 0.625,0.15 0.9,0.5l10.375,13.975v-13.575c0,-0.475 0.425,-0.9 0.875,-0.9c0.475,0 0.875,0.425 0.875,0.9z"/><path d="M274.83405,247.90015c0,5.275 -4.325,8.925 -8.7,8.925c-4.35,0 -8.675,-3.65 -8.675,-8.925c0,-5.275 4.325,-8.925 8.675,-8.925c4.375,0 8.7,3.65 8.7,8.925zM259.25905,247.90015c0,4.325 3.4,7.3 6.875,7.3c3.5,0 6.9,-2.975 6.9,-7.3c0,-4.35 -3.4,-7.3 -6.9,-7.3c-3.475,0 -6.875,2.95 -6.875,7.3z"/><path d="M289.40905,244.52515c0,3.35 -2.4,5.45 -6.3,5.45h-3.775v5.9c0,0.475 -0.4,0.875 -0.875,0.875c-0.5,0 -0.875,-0.4 -0.875,-0.875v-15.8c0,-0.55 0.4,-0.925 0.95,-0.925h4.575c3.9,0 6.3,2.225 6.3,5.375zM287.70905,244.52515c0,-2.425 -1.75,-3.85 -4.65,-3.85h-3.725v7.8h3.725c2.9,0 4.65,-1.3 4.65,-3.95z"/><path d="M307.10905,255.60015c0.1,0.15 0.2,0.325 0.2,0.5c0,0.425 -0.35,0.75 -0.75,0.75c-0.2,0 -0.375,-0.1 -0.5,-0.225l-1.2,-1.225c-1.4,0.925 -3.025,1.425 -4.65,1.425c-4.35,0 -8.675,-3.65 -8.675,-8.925c0,-5.275 4.325,-8.925 8.675,-8.925c4.375,0 8.7,3.65 8.7,8.925c0,2.725 -1.15,5.025 -2.875,6.6zM303.68405,254.20015l-2.875,-2.95c-0.1,-0.125 -0.2,-0.3 -0.2,-0.5c0,-0.4 0.325,-0.725 0.725,-0.725c0.2,0 0.4,0.075 0.525,0.225l2.975,3.05c1.375,-1.3 2.275,-3.175 2.275,-5.4c0,-4.35 -3.4,-7.3 -6.9,-7.3c-3.475,0 -6.875,2.95 -6.875,7.3c0,4.325 3.4,7.3 6.875,7.3c1.225,0 2.425,-0.35 3.475,-1z"/><path d="M323.73405,255.95015c0,0.45 -0.325,0.775 -0.775,0.775c-0.275,0 -0.525,-0.15 -0.675,-0.325l-5.075,-6.425h-0.025h-3.775v5.9c0,0.475 -0.4,0.875 -0.875,0.875c-0.5,0 -0.875,-0.4 -0.875,-0.875v-15.8c0,-0.55 0.4,-0.925 0.95,-0.925h4.575c3.9,0 6.3,2.225 6.3,5.375c0,2.8 -1.675,4.725 -4.475,5.275l4.5,5.55c0.15,0.175 0.225,0.375 0.225,0.6zM313.40905,248.47515h3.725c2.9,0 4.65,-1.3 4.65,-3.95c0,-2.425 -1.75,-3.85 -4.65,-3.85h-3.725z"/><path d="M336.48405,241.57515c0.225,0.375 0.325,0.625 0.325,0.875c0,0.4 -0.275,0.725 -0.725,0.725c-0.4,0 -0.625,-0.225 -0.825,-0.5c-0.7,-1.2 -1.75,-2.125 -3.675,-2.125c-2.125,0 -3.55,1.05 -3.55,2.8c0,1.525 1.075,2.425 2.85,3.125l1.575,0.625c3,1.2 5.1,2.25 5.1,4.925c0,3.125 -3.05,4.8 -5.925,4.8c-2.325,0 -4.675,-1.1 -5.65,-3.125c-0.1,-0.2 -0.25,-0.45 -0.25,-0.725c0,-0.45 0.275,-0.8 0.75,-0.8c0.425,0 0.7,0.25 0.875,0.575c0.8,1.6 2.375,2.475 4.3,2.475c2.025,0 4.15,-0.925 4.15,-3.2c0,-1.975 -1.6,-2.625 -3.575,-3.4l-1.75,-0.7c-2.425,-0.95 -4.175,-2.25 -4.175,-4.55c0,-2.65 2.35,-4.4 5.25,-4.4c2.4,0 4.05,1.25 4.925,2.6z"/><path d="M351.68405,239.90015c0,0.45 -0.375,0.775 -0.775,0.775h-4.55v15.175c0,0.475 -0.375,0.9 -0.85,0.9c-0.5,0 -0.875,-0.425 -0.875,-0.9v-15.175h-4.575c-0.4,0 -0.75,-0.325 -0.75,-0.775c0,-0.4 0.35,-0.75 0.75,-0.75h10.85c0.4,0 0.775,0.35 0.775,0.75z"/><path d="M367.40905,239.92515v10.175c0,4.225 -2.8,6.725 -6.675,6.725c-3.9,0 -6.675,-2.5 -6.675,-6.725v-10.175c0,-0.45 0.375,-0.85 0.85,-0.85c0.5,0 0.9,0.4 0.9,0.85v10.15c0,3.4 1.975,5.25 4.925,5.25c2.925,0 4.925,-1.85 4.925,-5.25v-10.15c0,-0.45 0.4,-0.85 0.9,-0.85c0.475,0 0.85,0.4 0.85,0.85z"/><path d="M385.53405,239.90015c0,0.15 -0.025,0.3 -0.075,0.425l-6.875,15.775c-0.175,0.4 -0.425,0.65 -0.85,0.65c-0.45,0 -0.675,-0.25 -0.85,-0.65l-6.875,-15.775c-0.05,-0.125 -0.1,-0.275 -0.1,-0.425c0,-0.425 0.375,-0.825 0.85,-0.825c0.375,0 0.7,0.25 0.825,0.55l6.15,14.2l6.125,-14.2c0.15,-0.3 0.45,-0.55 0.825,-0.55c0.5,0 0.85,0.4 0.85,0.825z"/><path d="M411.25905,239.90015c0,0.15 -0.05,0.3 -0.1,0.425l-4.95,15.775c-0.125,0.4 -0.425,0.65 -0.9,0.65c-0.475,0 -0.75,-0.25 -0.9,-0.65l-5.15,-13.8l-5.125,13.8c-0.15,0.4 -0.45,0.65 -0.9,0.65c-0.475,0 -0.775,-0.25 -0.925,-0.65l-4.925,-15.775c-0.05,-0.125 -0.1,-0.275 -0.1,-0.425c0,-0.425 0.375,-0.825 0.85,-0.825c0.375,0 0.725,0.25 0.825,0.55l4.325,14.2l5.2,-14.175c0.15,-0.4 0.425,-0.575 0.775,-0.575c0.375,0 0.65,0.175 0.8,0.575l5.2,14.175l4.325,-14.2c0.075,-0.3 0.425,-0.55 0.825,-0.55c0.475,0 0.85,0.4 0.85,0.825z"/><path d="M426.68405,256.00015c0,0.425 -0.35,0.75 -0.8,0.75c-0.3,0 -0.525,-0.125 -0.725,-0.425l-5.175,-7.325l-5.175,7.325c-0.2,0.3 -0.45,0.425 -0.75,0.425c-0.45,0 -0.8,-0.325 -0.8,-0.75c0,-0.2 0.075,-0.4 0.2,-0.6l5.575,-7.775l-5.15,-7.2c-0.125,-0.2 -0.2,-0.4 -0.2,-0.625c0,-0.4 0.35,-0.725 0.8,-0.725c0.3,0 0.525,0.125 0.725,0.425l4.775,6.75l4.75,-6.75c0.225,-0.3 0.45,-0.425 0.75,-0.425c0.425,0 0.8,0.325 0.8,0.725c0,0.225 -0.075,0.425 -0.2,0.625l-5.15,7.2l5.55,7.775c0.125,0.2 0.2,0.4 0.2,0.6z"/><path d="M441.88405,239.85015c0,0.175 -0.05,0.35 -0.175,0.525l-5.6,8.1v7.4c0,0.45 -0.375,0.875 -0.875,0.875c-0.475,0 -0.875,-0.425 -0.875,-0.875v-7.4l-5.6,-8.1c-0.1,-0.175 -0.15,-0.35 -0.15,-0.525c0,-0.4 0.325,-0.75 0.8,-0.75c0.275,0 0.525,0.125 0.675,0.375l5.15,7.5l5.175,-7.5c0.15,-0.25 0.4,-0.375 0.675,-0.375c0.45,0 0.8,0.35 0.8,0.75z"/><path d="M455.53405,240.97515l-9.925,14.125h9.475c0.4,0 0.775,0.35 0.775,0.775c0,0.425 -0.375,0.775 -0.775,0.775h-10.175c-1.025,0 -1.575,-0.975 -0.975,-1.825l9.95,-14.15h-9.025c-0.425,0 -0.775,-0.325 -0.775,-0.775c0,-0.4 0.35,-0.75 0.775,-0.75h9.7c1.025,0 1.6,0.975 0.975,1.825z"/><path d="M268.05905,306.27515v-1.825c0,-0.475 0.4,-0.875 0.85,-0.875c0.5,0 0.875,0.4 0.875,0.875v11.475c0,0.45 -0.4,0.875 -0.875,0.875c-0.45,0 -0.85,-0.425 -0.85,-0.875v-2.1c-0.725,1.8 -2.55,3 -4.65,3c-2.8,0 -6.2,-2.175 -6.2,-6.675c0,-4.45 3.4,-6.65 6.2,-6.65c1.925,0 3.8,0.95 4.65,2.775zM268.15905,310.15015c0,-3.6 -2.45,-5.15 -4.575,-5.15c-2.125,0 -4.675,1.65 -4.675,5.15c0,3.525 2.55,5.175 4.675,5.175c2.125,0 4.575,-1.65 4.575,-5.175z"/><path d="M285.35905,310.15015c0,4.5 -3.4,6.675 -6.2,6.675c-2.1,0 -3.925,-1.2 -4.65,-3v2.1c0,0.45 -0.4,0.875 -0.85,0.875c-0.475,0 -0.875,-0.425 -0.875,-0.875v-16.25c0,-0.475 0.4,-0.875 0.85,-0.875c0.475,0 0.85,0.4 0.85,0.875v4.575c0.025,0.05 0.025,0.125 0.025,0.2v1.825c0.85,-1.825 2.725,-2.775 4.65,-2.775c2.8,0 6.2,2.2 6.2,6.65zM283.65905,310.15015c0,-3.5 -2.55,-5.15 -4.675,-5.15c-2.125,0 -4.575,1.55 -4.575,5.15c0,3.525 2.45,5.175 4.575,5.175c2.125,0 4.675,-1.65 4.675,-5.175z"/><path d="M298.45905,313.87515c0,0.3 -0.2,0.5 -0.375,0.725c-1.1,1.45 -2.775,2.175 -4.625,2.175c-2.925,0 -6.45,-2.2 -6.45,-6.625c0,-4.45 3.525,-6.65 6.45,-6.65c1.85,0 3.525,0.725 4.625,2.175c0.175,0.225 0.375,0.425 0.375,0.725c0,0.425 -0.35,0.7 -0.75,0.7c-0.3,0 -0.575,-0.175 -0.775,-0.45c-0.775,-1.1 -2.15,-1.65 -3.4,-1.65c-2.275,0 -4.825,1.675 -4.825,5.15c0,3.45 2.55,5.125 4.825,5.125c1.25,0 2.625,-0.55 3.4,-1.65c0.2,-0.275 0.475,-0.45 0.775,-0.45c0.4,0 0.75,0.275 0.75,0.7z"/><path d="M312.68405,299.67515v16.25c0,0.45 -0.4,0.875 -0.875,0.875c-0.45,0 -0.85,-0.425 -0.85,-0.875v-2.1c-0.725,1.8 -2.55,3 -4.65,3c-2.8,0 -6.2,-2.175 -6.2,-6.675c0,-4.45 3.4,-6.65 6.2,-6.65c1.925,0 3.8,0.95 4.65,2.775v-1.825c0,-0.075 0,-0.15 0.025,-0.2v-4.575c0,-0.475 0.375,-0.875 0.85,-0.875c0.45,0 0.85,0.4 0.85,0.875zM311.05905,310.15015c0,-3.6 -2.45,-5.15 -4.575,-5.15c-2.125,0 -4.675,1.65 -4.675,5.15c0,3.525 2.55,5.175 4.675,5.175c2.125,0 4.575,-1.65 4.575,-5.175z"/><path d="M327.78405,309.85015c0,0.65 -0.4,0.975 -1.1,0.975h-9.75c0.2,3.075 2.575,4.5 4.85,4.5c1.2,0 2.3,-0.375 3.15,-1.075c0.325,-0.25 0.525,-0.375 0.75,-0.375c0.425,0 0.675,0.3 0.675,0.675c0,0.225 -0.1,0.45 -0.475,0.8c-1.05,0.95 -2.575,1.425 -4.15,1.425c-3.15,0 -6.55,-2.125 -6.55,-6.625c0,-4.45 3.5,-6.65 6.35,-6.65c2.85,0 6.25,2.225 6.25,6.35zM316.93405,309.45015h9.2c-0.2,-3.05 -2.575,-4.45 -4.6,-4.45c-2,0 -4.375,1.4 -4.6,4.45z"/><path d="M337.68405,300.00015c0,0.375 -0.3,0.675 -0.65,0.675c-0.225,0 -0.5,-0.1 -0.775,-0.25c-0.35,-0.225 -0.875,-0.45 -1.625,-0.45c-1.425,0 -2.25,0.875 -2.25,2.7v0.975h3.15c0.425,0 0.75,0.275 0.75,0.725c0,0.45 -0.325,0.725 -0.75,0.725h-3.15v10.825c0,0.45 -0.375,0.875 -0.85,0.875c-0.475,0 -0.85,-0.425 -0.85,-0.875v-10.825h-0.925c-0.425,0 -0.725,-0.275 -0.725,-0.725c0,-0.45 0.3,-0.725 0.725,-0.725h0.925v-1.025c0,-3.25 2.125,-4.15 3.85,-4.15c1.15,0 2.1,0.375 2.775,0.875c0.2,0.15 0.375,0.375 0.375,0.65z"/><path d="M349.50905,304.45015v11.95c0,4.125 -3.525,5.375 -6.175,5.375c-1.675,0 -2.925,-0.5 -3.525,-0.85c-0.3,-0.15 -0.5,-0.4 -0.5,-0.725c0,-0.375 0.325,-0.7 0.7,-0.7c0.175,0 0.35,0.075 0.55,0.15c0.625,0.35 1.675,0.625 2.825,0.625c2.4,0 4.425,-1.175 4.425,-3.875v-0.275c-0.025,-0.075 -0.025,-0.125 -0.025,-0.2v-2.1c-0.725,1.8 -2.55,3 -4.65,3c-2.8,0 -6.2,-2.175 -6.2,-6.675c0,-4.45 3.4,-6.65 6.2,-6.65c1.925,0 3.8,0.95 4.65,2.775v-1.825c0,-0.475 0.4,-0.875 0.85,-0.875c0.5,0 0.875,0.4 0.875,0.875zM347.88405,310.15015c0,-3.6 -2.45,-5.15 -4.575,-5.15c-2.125,0 -4.675,1.65 -4.675,5.15c0,3.525 2.55,5.175 4.675,5.175c2.125,0 4.575,-1.65 4.575,-5.175z"/><path d="M363.90905,309.00015v6.9c0,0.45 -0.375,0.875 -0.85,0.875c-0.475,0 -0.85,-0.425 -0.85,-0.875v-6.9c0,-2.9 -1.775,-3.95 -3.625,-3.95c-2.65,0 -4.1,2.175 -4.375,3.825v7.025c0,0.45 -0.375,0.875 -0.85,0.875c-0.475,0 -0.85,-0.425 -0.85,-0.875v-16.25c0,-0.45 0.375,-0.85 0.85,-0.85c0.475,0 0.85,0.4 0.85,0.85v7.05c0.15,-0.825 1.725,-3.175 4.775,-3.175c2.325,0 4.925,1.35 4.925,5.475z"/><path d="M366.90905,299.42515c0,-0.475 0.4,-0.875 0.875,-0.875c0.475,0 0.875,0.4 0.875,0.875c0,0.475 -0.4,0.875 -0.875,0.875c-0.475,0 -0.875,-0.4 -0.875,-0.875zM368.63405,304.45015v11.475c0,0.475 -0.375,0.875 -0.85,0.875c-0.475,0 -0.85,-0.4 -0.85,-0.875v-11.475c0,-0.475 0.375,-0.875 0.85,-0.875c0.475,0 0.85,0.4 0.85,0.875z"/><path d="M372.48405,299.42515c0,-0.475 0.4,-0.875 0.875,-0.875c0.475,0 0.875,0.4 0.875,0.875c0,0.475 -0.4,0.875 -0.875,0.875c-0.475,0 -0.875,-0.4 -0.875,-0.875zM374.20905,304.42515v13.8c0,2.65 -1.4,3.55 -3.075,3.55c-0.75,0 -1.4,-0.2 -1.85,-0.45c-0.325,-0.2 -0.625,-0.475 -0.625,-0.875c0,-0.475 0.525,-0.9 1.025,-0.675c0.4,0.175 0.775,0.425 1.325,0.425c1.05,0 1.5,-0.8 1.5,-2.15v-13.625c0,-0.45 0.375,-0.85 0.85,-0.85c0.475,0 0.85,0.4 0.85,0.85z"/><path d="M388.05905,316.02515c0,0.425 -0.325,0.75 -0.75,0.75c-0.225,0 -0.425,-0.075 -0.575,-0.225l-5.675,-5.9l-2.125,2.15v3.1c0,0.45 -0.375,0.875 -0.85,0.875c-0.475,0 -0.85,-0.425 -0.85,-0.875v-16.25c0,-0.45 0.375,-0.85 0.85,-0.85c0.475,0 0.85,0.4 0.85,0.85v11.05l6.675,-6.875c0.15,-0.15 0.375,-0.25 0.575,-0.25c0.45,0 0.8,0.35 0.8,0.775c0,0.225 -0.1,0.4 -0.225,0.55l-4.625,4.675l5.675,5.875c0.175,0.175 0.25,0.375 0.25,0.575z"/><path d="M391.03405,316.77515c-0.475,0 -0.85,-0.425 -0.85,-0.875v-16.25c0,-0.45 0.375,-0.85 0.85,-0.85c0.475,0 0.85,0.4 0.85,0.85v16.25c0,0.45 -0.375,0.875 -0.85,0.875z"/><path d="M415.98405,309.00015v6.9c0,0.45 -0.375,0.875 -0.85,0.875c-0.45,0 -0.85,-0.425 -0.85,-0.875v-6.9c0,-2.9 -1.775,-3.95 -3.6,-3.95c-2.675,0 -4.125,2.175 -4.4,3.825v0.125v6.9c0,0.45 -0.375,0.875 -0.85,0.875c-0.475,0 -0.85,-0.425 -0.85,-0.875v-6.9c0,-2.9 -1.775,-3.95 -3.625,-3.95c-2.65,0 -4.1,2.175 -4.375,3.825v7.025c0,0.45 -0.375,0.875 -0.85,0.875c-0.475,0 -0.85,-0.425 -0.85,-0.875v-11.45c0,-0.475 0.375,-0.875 0.85,-0.875c0.475,0 0.85,0.4 0.85,0.875v2.25c0.15,-0.825 1.725,-3.175 4.775,-3.175c1.85,0 3.9,0.85 4.625,3.325c0.725,-1.575 2.4,-3.325 5.1,-3.325c2.325,0 4.9,1.35 4.9,5.475z"/><path d="M430.38405,309.00015v6.9c0,0.45 -0.375,0.875 -0.85,0.875c-0.475,0 -0.85,-0.425 -0.85,-0.875v-6.9c0,-2.9 -1.775,-3.95 -3.625,-3.95c-2.65,0 -4.1,2.175 -4.375,3.825v7.025c0,0.45 -0.375,0.875 -0.85,0.875c-0.475,0 -0.85,-0.425 -0.85,-0.875v-11.45c0,-0.475 0.375,-0.875 0.85,-0.875c0.475,0 0.85,0.4 0.85,0.875v2.25c0.15,-0.825 1.725,-3.175 4.775,-3.175c2.325,0 4.925,1.35 4.925,5.475z"/><path d="M445.80905,310.15015c0,4.475 -3.575,6.675 -6.475,6.675c-2.875,0 -6.45,-2.2 -6.45,-6.675c0,-4.45 3.575,-6.65 6.45,-6.65c2.9,0 6.475,2.2 6.475,6.65zM434.58405,310.15015c0,3.5 2.575,5.175 4.75,5.175c2.2,0 4.775,-1.675 4.775,-5.175c0,-3.475 -2.575,-5.15 -4.775,-5.15c-2.175,0 -4.75,1.675 -4.75,5.15z"/><path d="M460.55905,310.15015c0,4.5 -3.4,6.675 -6.2,6.675c-2.1,0 -3.925,-1.2 -4.65,-3v2.1c0,0.075 0,0.125 -0.025,0.2v4.525c0,0.45 -0.375,0.85 -0.85,0.85c-0.475,0 -0.85,-0.4 -0.85,-0.85v-16.2c0,-0.475 0.375,-0.875 0.875,-0.875c0.45,0 0.85,0.4 0.85,0.875v1.825c0.85,-1.825 2.725,-2.775 4.65,-2.775c2.8,0 6.2,2.2 6.2,6.65zM458.85905,310.15015c0,-3.5 -2.55,-5.15 -4.675,-5.15c-2.125,0 -4.575,1.55 -4.575,5.15c0,3.525 2.45,5.175 4.575,5.175c2.125,0 4.675,-1.65 4.675,-5.175z"/><path d="M269.78405,334.45015v16.2c0,0.45 -0.375,0.85 -0.85,0.85c-0.475,0 -0.85,-0.4 -0.85,-0.85v-4.525c-0.025,-0.075 -0.025,-0.125 -0.025,-0.2v-2.1c-0.725,1.8 -2.55,3 -4.65,3c-2.8,0 -6.2,-2.175 -6.2,-6.675c0,-4.45 3.4,-6.65 6.2,-6.65c1.925,0 3.8,0.95 4.65,2.775v-1.825c0,-0.475 0.4,-0.875 0.85,-0.875c0.5,0 0.875,0.4 0.875,0.875zM268.15905,340.15015c0,-3.6 -2.45,-5.15 -4.575,-5.15c-2.125,0 -4.675,1.65 -4.675,5.15c0,3.525 2.55,5.175 4.675,5.175c2.125,0 4.575,-1.65 4.575,-5.175z"/><path d="M280.08405,334.35015c0,0.5 -0.425,0.825 -1.15,0.825c-2.475,0 -4.175,1.975 -4.45,3.7v7.025c0,0.475 -0.375,0.875 -0.85,0.875c-0.475,0 -0.85,-0.4 -0.85,-0.875v-11.45c0,-0.475 0.375,-0.875 0.85,-0.875c0.475,0 0.85,0.4 0.85,0.875v2.25c0.15,-0.825 1.8,-3.175 4.575,-3.175c0.65,0 1.025,0.35 1.025,0.825z"/><path d="M290.15905,335.60015c0.15,0.25 0.225,0.45 0.225,0.675c0,0.425 -0.325,0.7 -0.725,0.7c-0.325,0 -0.55,-0.175 -0.85,-0.625c-0.5,-0.75 -1.4,-1.4 -2.85,-1.4c-1.675,0 -2.675,0.85 -2.675,2.075c0,0.95 0.65,1.675 2.225,2.075l1.6,0.425c2.325,0.575 3.8,1.525 3.8,3.475c0,2.45 -2.35,3.775 -4.95,3.775c-2.075,0 -3.875,-0.925 -4.45,-2.25c-0.1,-0.2 -0.3,-0.475 -0.3,-0.85c0,-0.45 0.275,-0.775 0.7,-0.775c0.4,0 0.6,0.225 0.775,0.6c0.525,1.25 1.825,1.775 3.275,1.775c1.75,0 3.275,-0.7 3.275,-2.175c0,-1.175 -0.925,-1.725 -2.275,-2.075l-2,-0.525c-2.325,-0.6 -3.35,-1.875 -3.35,-3.45c0,-2.1 1.875,-3.55 4.375,-3.55c1.925,0 3.4,0.825 4.175,2.1z"/><path d="M298.53405,345.70015c0,0.825 -1.25,1.075 -2.2,1.075c-1.2,0 -2.35,-0.45 -2.35,-2.475v-9.2h-1.225c-0.425,0 -0.725,-0.275 -0.725,-0.725c0,-0.45 0.3,-0.725 0.725,-0.725h1.225v-2.275c0,-0.475 0.375,-0.85 0.85,-0.85c0.475,0 0.85,0.375 0.85,0.85v2.275h2.1c0.425,0 0.75,0.275 0.75,0.725c0,0.45 -0.325,0.725 -0.75,0.725h-2.1v9.1c0,0.8 0.35,1.1 1,1.1c0.4,0 0.725,-0.1 1,-0.175c0.475,-0.15 0.85,0.15 0.85,0.575z"/><path d="M300.78405,341.37515v-6.9c0,-0.45 0.375,-0.875 0.85,-0.875c0.475,0 0.85,0.425 0.85,0.875v6.9c0,2.9 1.775,3.95 3.625,3.95c2.65,0 4.1,-2.175 4.375,-3.825v-7.025c0,-0.45 0.375,-0.875 0.85,-0.875c0.475,0 0.85,0.425 0.85,0.875v11.45c0,0.475 -0.375,0.875 -0.85,0.875c-0.475,0 -0.85,-0.4 -0.85,-0.875v-2.25c-0.15,0.825 -1.725,3.175 -4.775,3.175c-2.325,0 -4.925,-1.35 -4.925,-5.475z"/><path d="M326.10905,334.37515c0,0.15 -0.05,0.25 -0.075,0.35l-4.9,11.325c-0.2,0.4 -0.4,0.65 -0.85,0.65c-0.45,0 -0.675,-0.25 -0.85,-0.65l-4.925,-11.325c-0.025,-0.1 -0.075,-0.2 -0.075,-0.35c0,-0.425 0.35,-0.8 0.8,-0.8c0.325,0 0.65,0.175 0.8,0.55l4.25,10.025l4.225,-10.025c0.15,-0.375 0.475,-0.55 0.8,-0.55c0.45,0 0.8,0.375 0.8,0.8z"/><path d="M346.38405,334.37515c0,0.15 -0.05,0.25 -0.075,0.375l-3.8,11.3c-0.15,0.4 -0.425,0.65 -0.8,0.65c-0.35,0 -0.65,-0.25 -0.8,-0.65l-3.9,-9.825l-3.9,9.825c-0.15,0.4 -0.45,0.65 -0.8,0.65c-0.35,0 -0.65,-0.25 -0.8,-0.65l-3.8,-11.3c-0.05,-0.125 -0.1,-0.225 -0.1,-0.375c0,-0.425 0.375,-0.8 0.8,-0.8c0.325,0 0.675,0.2 0.775,0.475l3.225,9.975l3.8,-9.9c0.125,-0.35 0.425,-0.55 0.8,-0.55c0.35,0 0.65,0.2 0.775,0.55l3.825,9.9l3.2,-9.975c0.1,-0.3 0.45,-0.475 0.775,-0.475c0.425,0 0.8,0.375 0.8,0.8z"/><path d="M358.48405,346.00015c0,0.425 -0.35,0.775 -0.775,0.775c-0.225,0 -0.45,-0.1 -0.6,-0.3l-3.85,-5.225l-3.875,5.225c-0.15,0.2 -0.375,0.3 -0.625,0.3c-0.4,0 -0.75,-0.35 -0.75,-0.775c0,-0.175 0.075,-0.325 0.15,-0.45l4.15,-5.45l-4.025,-5.325c-0.1,-0.125 -0.175,-0.275 -0.175,-0.45c0,-0.4 0.375,-0.75 0.8,-0.75c0.225,0 0.45,0.125 0.6,0.3l3.75,5.025l3.725,-5.025c0.15,-0.175 0.375,-0.3 0.6,-0.3c0.425,0 0.775,0.35 0.775,0.75c0,0.175 -0.05,0.325 -0.15,0.45l-4.025,5.325l4.15,5.45c0.075,0.125 0.15,0.275 0.15,0.45z"/><path d="M371.93405,334.37515c0,0.15 -0.05,0.25 -0.1,0.35l-6.95,16.25c-0.15,0.375 -0.475,0.55 -0.8,0.55c-0.45,0 -0.75,-0.375 -0.75,-0.8c0,-0.15 0.05,-0.25 0.075,-0.35l1.775,-4.15l-5,-11.5c-0.025,-0.1 -0.075,-0.2 -0.075,-0.35c0,-0.425 0.35,-0.8 0.8,-0.8c0.325,0 0.65,0.175 0.8,0.55l4.3,10.15l4.325,-10.15c0.15,-0.375 0.45,-0.55 0.8,-0.55c0.425,0 0.8,0.375 0.8,0.8z"/><path d="M383.40905,335.60015l-7.875,9.55h7.65c0.4,0 0.775,0.325 0.775,0.75c0,0.425 -0.375,0.75 -0.775,0.75h-8.275c-1.075,0 -1.65,-1.05 -0.85,-1.95l7.875,-9.55h-7.2c-0.425,0 -0.75,-0.325 -0.75,-0.775c0,-0.4 0.325,-0.725 0.75,-0.725h7.825c1.05,0 1.65,1.05 0.85,1.95z"/><path d="M399.40905,337.57515v0.6c0,5.45 -3.025,8.6 -6.65,8.6c-3.65,0 -6.675,-3.15 -6.675,-8.6v-0.6c0,-5.425 3.025,-8.6 6.675,-8.6c3.625,0 6.65,3.175 6.65,8.6zM387.78405,337.57515v0.6c0,4.25 2.025,7.1 4.975,7.1c2.925,0 4.95,-2.85 4.95,-7.1v-0.6c0,-4.225 -2.025,-7.1 -4.95,-7.1c-2.95,0 -4.975,2.875 -4.975,7.1z"/><path d="M405.33405,330.07515v15.8c0,0.45 -0.4,0.875 -0.85,0.875c-0.475,0 -0.85,-0.425 -0.85,-0.875v-15.225h-1.725c-0.4,0 -0.75,-0.325 -0.75,-0.775c0,-0.4 0.35,-0.725 0.75,-0.725h2.475c0.55,0 0.95,0.375 0.95,0.925z"/><path d="M419.10905,333.92515c0,2.45 -1.975,4.2 -4.85,7.25l-3.7,3.925h8.025c0.4,0 0.775,0.35 0.775,0.775c0,0.45 -0.375,0.775 -0.775,0.775h-8.725c-1.175,0 -1.775,-1.175 -0.95,-2.05l3.775,-4.075c2.975,-3.15 4.725,-4.55 4.725,-6.625c0,-2.1 -1.775,-3.4 -3.675,-3.4c-1.775,0 -3.4,1.15 -3.7,3.3c-0.075,0.4 -0.45,0.75 -0.9,0.75c-0.55,0 -0.875,-0.5 -0.75,-1.1c0.4,-2.6 2.475,-4.475 5.3,-4.475c3.1,0 5.425,2.275 5.425,4.95z"/><path d="M432.03405,330.95015l-3.9,5.3c2.4,0.35 5.175,2.05 5.175,5.275c0,3.175 -2.7,5.375 -5.95,5.375c-2.925,0 -5.225,-1.8 -5.725,-4.375c-0.125,-0.525 0.225,-1.05 0.775,-1.05c0.4,0 0.75,0.275 0.825,0.65c0.375,1.975 2.125,3.275 4.125,3.275c2.125,0 4.25,-1.325 4.25,-3.875c0,-2.575 -2.3,-3.725 -4.375,-4c-0.625,-0.1 -0.875,-0.475 -0.875,-0.85c0,-0.325 0.2,-0.6 0.4,-0.875l3.7,-5.15h-7.45c-0.425,0 -0.75,-0.325 -0.75,-0.775c0,-0.4 0.325,-0.725 0.75,-0.725h8.05c1,0 1.6,0.95 0.975,1.8z"/><path d="M446.33405,340.37515c0.4,0 0.75,0.325 0.75,0.725c0,0.425 -0.35,0.75 -0.75,0.75h-1.225v4.025c0,0.45 -0.375,0.875 -0.85,0.875c-0.45,0 -0.85,-0.425 -0.85,-0.875v-4.025h-6.675c-1.1,0 -1.475,-0.975 -0.9,-1.8l7.1,-10.3c0.75,-1.075 2.175,-0.6 2.175,0.625v10zM437.40905,340.37515h6v-8.825z"/><path d="M459.08405,329.87515c0,0.45 -0.35,0.775 -0.75,0.775h-6.5l-0.725,5.6c0.9,-0.85 2.275,-1.375 3.85,-1.375c2.975,0 5.8,2.4 5.8,6c0,3.5 -2.775,6.025 -6.225,6.025c-2.425,0 -4.275,-1.25 -5.3,-2.875c-0.075,-0.125 -0.15,-0.275 -0.15,-0.5c0,-0.425 0.35,-0.775 0.8,-0.775c0.275,0 0.55,0.15 0.7,0.375c0.7,1.25 2.175,2.275 4,2.275c2.325,0 4.475,-1.75 4.475,-4.525c0,-2.7 -2,-4.5 -4.325,-4.5c-1.225,0 -2.5,0.5 -3.525,1.525c-0.175,0.15 -0.475,0.225 -0.75,0.225c-0.65,0 -1.1,-0.55 -1.025,-1.2l0.9,-6.975c0.05,-0.475 0.425,-0.8 0.9,-0.8h7.1c0.4,0 0.75,0.325 0.75,0.725z"/><path d="M471.58405,329.82515c0,0.175 -0.075,0.35 -0.175,0.475l-4.525,5.975c0.725,-0.325 1.35,-0.4 1.825,-0.4c2.95,0 5.675,2.4 5.675,5.525c0,3.125 -2.725,5.5 -5.675,5.5c-2.95,0 -5.7,-2.375 -5.7,-5.575c0,-2.925 2,-4.975 3.975,-7.65l3.2,-4.3c0.125,-0.175 0.375,-0.325 0.625,-0.325c0.45,0 0.775,0.35 0.775,0.775zM464.65905,341.40015c0,2.35 2.025,4 4.05,4c2.025,0 4.025,-1.625 4.025,-4c0,-2.425 -2,-3.95 -4.025,-3.95c-2.425,0 -4.05,1.525 -4.05,3.95z"/><path d="M267.63405,360.70015l-7.375,15.575c-0.125,0.275 -0.425,0.475 -0.75,0.475c-0.45,0 -0.8,-0.375 -0.8,-0.825c0,-0.125 0.025,-0.25 0.075,-0.325l7.2,-14.95h-8.15c-0.4,0 -0.75,-0.325 -0.75,-0.775c0,-0.4 0.35,-0.725 0.75,-0.725h8.8c0.85,0 1.375,0.775 1,1.55z"/><path d="M280.88405,371.55015c0,3.25 -2.75,5.325 -5.625,5.325c-2.875,0 -5.625,-2.075 -5.625,-5.325c0,-2.225 1.25,-3.85 2.95,-4.65c-1.15,-0.8 -1.9,-2.1 -1.9,-3.55c0,-2.325 1.775,-4.375 4.575,-4.375c2.8,0 4.575,2.05 4.575,4.375c0,1.45 -0.75,2.75 -1.9,3.55c1.7,0.8 2.95,2.425 2.95,4.65zM275.25905,366.30015c1.675,0 2.975,-1.35 2.975,-2.925c0,-1.475 -1.125,-2.925 -2.975,-2.925c-1.85,0 -2.975,1.45 -2.975,2.925c0,1.575 1.3,2.925 2.975,2.925zM279.18405,371.55015c0,-2.325 -1.8,-3.85 -3.925,-3.85c-2.125,0 -3.925,1.525 -3.925,3.85c0,2.325 1.85,3.85 3.925,3.85c2.075,0 3.925,-1.5 3.925,-3.85z"/><path d="M285.70905,376.00015c0,-0.175 0.075,-0.35 0.175,-0.475l4.525,-5.975c-0.725,0.325 -1.35,0.4 -1.825,0.4c-2.95,0 -5.675,-2.4 -5.675,-5.525c0,-3.125 2.725,-5.5 5.675,-5.5c2.95,0 5.7,2.375 5.7,5.575c0,2.925 -2,4.975 -3.975,7.65l-3.2,4.3c-0.125,0.175 -0.375,0.325 -0.625,0.325c-0.45,0 -0.775,-0.35 -0.775,-0.775zM292.63405,364.42515c0,-2.35 -2.025,-4 -4.05,-4c-2.025,0 -4.025,1.625 -4.025,4c0,2.425 2,3.95 4.025,3.95c2.425,0 4.05,-1.525 4.05,-3.95z"/></g><g><g fill-rule="evenodd" stroke-width="1" stroke-linecap="round" stroke-linejoin="round"><path d="M31.64915,-0.62515c0,0.825 -0.7,1.525 -1.625,1.525c-0.75,0 -1.35,-0.425 -1.625,-1.075l-1.25,-2.95h-7.1l-1.25,2.95c-0.275,0.65 -0.875,1.075 -1.6,1.075c-0.925,0 -1.65,-0.7 -1.65,-1.525c0,-0.35 0.1,-0.675 0.225,-0.95l6.2,-13.975c0.35,-0.85 0.875,-1.25 1.625,-1.25c0.75,0 1.275,0.4 1.65,1.25l6.2,13.975c0.125,0.275 0.2,0.6 0.2,0.95zM25.99915,-5.80015l-2.4,-5.65l-2.4,5.65z"/><path d="M46.87415,-4.30015c0,3.025 -2.2,5.1 -6.45,5.1h-4.55c-1.075,0 -1.85,-0.775 -1.85,-1.85v-13.8c0,-1.075 0.775,-1.85 1.85,-1.85h4.3c3.1,0 5.5,1.475 5.5,4.4c0,1.425 -0.6,2.725 -2.325,3.375c2.65,1 3.525,2.65 3.525,4.625zM37.39915,-9.85015h2.775c1.375,0 2.225,-0.825 2.225,-2.05c0,-1.25 -0.85,-1.95 -2.225,-1.95h-2.775zM43.59915,-4.60015c0,-1.375 -0.825,-2.675 -3.175,-2.675h-3.025v5.225h3.025c2.325,0 3.175,-1.2 3.175,-2.55z"/><path d="M63.59905,-2.07515c0,0.825 -0.575,1.375 -1.5,1.975c-1.0499,0.65 -2.4249,1.075 -4.1249,1.075c-4.425,0 -8.85,-3.65 -8.85,-8.925c0,-5.275 4.45,-8.925 8.8,-8.925c1.75,0 3.125,0.45 4.1749,1.075c0.925,0.6 1.5,1.15 1.5,1.975c0,0.975 -0.775,1.525 -1.575,1.525c-0.6249,0 -1.0749,-0.325 -1.3499,-0.525c-0.375,-0.25 -1.3,-0.85 -2.7,-0.85c-2.825,0 -5.325,2.5 -5.325,5.725c0,3.225 2.475,5.725 5.35,5.725c1.35,0 2.3,-0.6 2.675,-0.85c0.275,-0.2 0.7,-0.525 1.3499,-0.525c0.8,0 1.575,0.55 1.575,1.525z"/><path d="M80.44905,-8.02515c0,5.75 -4,8.825 -8.95,8.825h-3.675c-1.075,0 -1.85,-0.775 -1.85,-1.85v-13.8c0,-1.075 0.775,-1.85 1.85,-1.85h3.675c4.95,0 8.95,3.075 8.95,8.675zM77.07405,-8.02515c0,-4.025 -2.05,-5.825 -5.575,-5.825h-2.15v11.8h2.15c3.525,0 5.575,-1.8 5.575,-5.975z"/><path d="M93.34905,-2.15015c0.8,0 1.5,0.675 1.5,1.475c0,0.825 -0.7,1.475 -1.5,1.475h-8.55c-1.075,0 -1.85,-0.775 -1.85,-1.85v-13.8c0,-1.075 0.775,-1.85 1.85,-1.85h8.3c0.8,0 1.5,0.65 1.5,1.45c0,0.825 -0.7,1.5 -1.5,1.5h-6.775v4.35h4.45c0.825,0 1.475,0.65 1.475,1.4c0,0.775 -0.65,1.425 -1.475,1.425h-4.45v4.425z"/><path d="M107.37405,-13.75015h-6.775v4.75h5.55c0.8,0 1.475,0.625 1.475,1.45c0,0.8 -0.675,1.425 -1.475,1.425h-5.55v5.375c0,0.925 -0.75,1.725 -1.675,1.725c-0.925,0 -1.7,-0.8 -1.7,-1.725v-14.1c0,-1.075 0.775,-1.85 1.85,-1.85h8.3c0.8,0 1.5,0.65 1.5,1.45c0,0.825 -0.7,1.5 -1.5,1.5z"/><path d="M127.62405,-6.45015c-0.2,4.9 -3.875,7.425 -7.75,7.425c-4.45,0 -8.875,-3.65 -8.875,-8.925c0,-5.275 4.45,-8.925 8.8,-8.925c1.75,0 3.125,0.45 4.175,1.075c0.925,0.6 1.5,1.15 1.5,1.975c0,0.975 -0.775,1.525 -1.575,1.525c-0.625,0 -1.075,-0.325 -1.35,-0.525c-0.375,-0.25 -1.3,-0.85 -2.7,-0.85c-2.825,0 -5.325,2.5 -5.325,5.725c0,3.225 2.475,5.725 5.35,5.725c1.975,0 4.175,-1.225 4.475,-3.55h-2.85c-0.775,0 -1.475,-0.575 -1.475,-1.375c0,-0.825 0.7,-1.4 1.475,-1.4h4.325c1.25,0 1.875,0.875 1.8,2.1z"/><path d="M142.84905,-16.77515c0.925,0 1.65,0.775 1.65,1.7v14.25c0,0.925 -0.725,1.7 -1.65,1.7c-0.95,0 -1.7,-0.775 -1.7,-1.7v-5.55h-7.55v5.55c0,0.925 -0.75,1.7 -1.675,1.7c-0.95,0 -1.7,-0.775 -1.7,-1.7v-14.25c0,-0.925 0.75,-1.7 1.7,-1.7c0.925,0 1.675,0.775 1.675,1.7v5.825h7.55v-5.825c0,-0.925 0.75,-1.7 1.7,-1.7z"/><path d="M150.92405,-15.05015v14.3c0,0.925 -0.775,1.725 -1.7,1.725c-0.95,0 -1.725,-0.8 -1.725,-1.725v-14.3c0,-0.925 0.775,-1.725 1.725,-1.725c0.925,0 1.7,0.8 1.7,1.725z"/><path d="M164.14905,-15.15015v9.675c0,5 -3.05,6.45 -5.975,6.45c-1.7,0 -2.925,-0.475 -3.85,-1.1c-0.5,-0.325 -1.025,-0.9 -1.025,-1.65c0,-0.725 0.475,-1.4 1.4,-1.4c0.55,0 1.05,0.25 1.25,0.4c0.8,0.475 1.275,0.725 2.125,0.725c1.25,0 2.65,-0.525 2.65,-3.425v-9.675c0,-0.875 0.775,-1.625 1.7,-1.625c0.95,0 1.725,0.75 1.725,1.625z"/><path d="M181.87405,-0.50015c0,0.8 -0.675,1.475 -1.5,1.475c-0.425,0 -0.825,-0.2 -1.1,-0.5l-6.1,-6.9l-2.65,2.75v2.95c0,0.925 -0.775,1.7 -1.7,1.7c-0.925,0 -1.675,-0.775 -1.675,-1.675v-14.475c0,-0.925 0.75,-1.7 1.675,-1.7c0.925,0 1.7,0.775 1.7,1.7v7l7.95,-8.125c0.275,-0.3 0.725,-0.575 1.2,-0.575c0.825,0 1.525,0.675 1.525,1.5c0,0.375 -0.175,0.75 -0.35,0.975l-5.575,5.8l6.225,7.1c0.225,0.25 0.375,0.625 0.375,1z"/><path d="M193.87405,-2.17515c0.8,0 1.5,0.65 1.5,1.5c0,0.825 -0.7,1.475 -1.5,1.475h-7.9c-1.075,0 -1.85,-0.775 -1.85,-1.85v-14c0,-0.95 0.75,-1.725 1.7,-1.725c0.925,0 1.675,0.775 1.675,1.725v12.875z"/><path d="M216.52405,-15.20015v14.35c0,0.925 -0.775,1.725 -1.75,1.725c-0.925,0 -1.7,-0.8 -1.7,-1.725v-8.4l-4.475,8.425c-0.325,0.6 -0.875,0.95 -1.475,0.95c-0.575,0 -1.125,-0.35 -1.45,-0.95l-4.5,-8.425v8.4c0,0.925 -0.75,1.725 -1.675,1.725c-0.975,0 -1.75,-0.8 -1.75,-1.725v-14.35c0,-1.05 0.8,-1.575 1.55,-1.575c0.7,0 1.35,0.525 1.7,1.125l6.125,11.025l6.15,-11.025c0.35,-0.6 1,-1.125 1.7,-1.125c0.75,0 1.55,0.525 1.55,1.575z"/><path d="M234.02405,-15.05015v14.35c0,1.075 -0.7,1.65 -1.575,1.65c-0.725,0 -1.3,-0.375 -1.75,-1l-7.75,-10.55v9.825c0,0.925 -0.75,1.725 -1.675,1.725c-0.975,0 -1.75,-0.8 -1.75,-1.725v-14.375c0,-1.05 0.7,-1.625 1.6,-1.625c0.725,0 1.3,0.375 1.725,0.975l7.75,10.575v-9.825c0,-0.925 0.775,-1.725 1.7,-1.725c0.975,0 1.725,0.8 1.725,1.725z"/><path d="M33.34915,22.04985c0,5.275 -4.325,8.925 -8.725,8.925c-4.375,0 -8.7,-3.65 -8.7,-8.925c0,-5.275 4.325,-8.925 8.7,-8.925c4.4,0 8.725,3.65 8.725,8.925zM19.44915,22.04985c0,3.425 2.425,5.725 5.175,5.725c2.775,0 5.2,-2.3 5.2,-5.725c0,-3.425 -2.4,-5.725 -5.2,-5.725c-2.75,0 -5.175,2.3 -5.175,5.725z"/><path d="M48.92415,18.97485c0,3.2 -2.5,5.625 -6.4,5.625h-3.05v4.675c0,0.925 -0.75,1.7 -1.675,1.7c-0.95,0 -1.7,-0.775 -1.7,-1.7v-14.125c0,-1.075 0.775,-1.85 1.85,-1.85h4.575c3.9,0 6.4,2.525 6.4,5.675zM45.64915,18.97485c0,-2.05 -1.4,-2.8 -3.275,-2.8h-2.9v5.55h2.9c1.875,0 3.275,-0.675 3.275,-2.75z"/><path d="M66.67405,28.72485c0.225,0.275 0.375,0.6 0.375,0.95c0,0.775 -0.625,1.4 -1.4,1.4c-0.375,0 -0.725,-0.15 -0.975,-0.4l-0.775,-0.8c-1.275,0.7 -2.6999,1.1 -4.1499,1.1c-4.375,0 -8.7,-3.65 -8.7,-8.925c0,-5.275 4.325,-8.925 8.7,-8.925c4.3999,0 8.7249,3.65 8.7249,8.925c0,2.45 -0.925,4.55 -2.375,6.1zM61.54915,27.44985l-1.375,-1.425c-0.25,-0.25 -0.425,-0.575 -0.425,-0.95c0,-0.75 0.625,-1.4 1.4,-1.4c0.375,0 0.7499,0.15 0.9749,0.425l1.625,1.675c0.75,-0.975 1.2,-2.25 1.2,-3.725c0,-3.425 -2.4,-5.725 -5.1999,-5.725c-2.75,0 -5.175,2.3 -5.175,5.725c0,3.425 2.425,5.725 5.175,5.725c0.625,0 1.225,-0.125 1.8,-0.325z"/><path d="M84.27405,29.29985c0,0.875 -0.65,1.575 -1.525,1.575c-0.525,0 -0.975,-0.25 -1.25,-0.625l-4.425,-5.65h-2.475v4.675c0,0.925 -0.75,1.7 -1.675,1.7c-0.95,0 -1.7,-0.775 -1.7,-1.7v-14.125c0,-1.075 0.775,-1.85 1.85,-1.85h4.575c3.9,0 6.4,2.525 6.4,5.675c0,2.35 -1.35,4.275 -3.625,5.15l3.45,4.15c0.225,0.275 0.4,0.625 0.4,1.025zM74.59905,21.72485h2.9c1.875,0 3.275,-0.675 3.275,-2.75c0,-2.05 -1.4,-2.8 -3.275,-2.8h-2.9z"/><path d="M96.99905,15.04985c0.475,0.55 0.725,1 0.725,1.5c0,0.75 -0.6,1.35 -1.4,1.35c-0.525,0 -1.025,-0.325 -1.35,-0.675c-0.7,-0.725 -1.3,-1.125 -2.4,-1.125c-1.525,0 -2.4,0.775 -2.4,1.875c0,0.825 0.45,1.575 1.95,2.15l0.975,0.375c3.9,1.475 5.475,2.9 5.475,5.3c0,3.45 -3.425,5.175 -6.325,5.175c-1.975,0 -4.05,-0.8 -5.275,-2.35c-0.25,-0.3 -0.7,-0.875 -0.7,-1.625c0,-0.7 0.45,-1.425 1.375,-1.425c0.75,0 1.25,0.475 1.6,0.95c0.875,1.1 2.05,1.45 3,1.45c1.225,0 2.9,-0.475 2.9,-2.175c0,-1.3 -0.875,-1.9 -2.8,-2.65l-1.05,-0.4c-2.575,-1 -4.475,-2.25 -4.475,-4.8c0,-2.975 2.5,-4.825 5.625,-4.825c2.2,0 3.55,0.825 4.55,1.925z"/><path d="M113.74905,14.79985c0,0.825 -0.675,1.475 -1.475,1.475h-3.55v12.925c0,0.975 -0.775,1.775 -1.675,1.775c-0.925,0 -1.7,-0.8 -1.7,-1.775v-12.925h-3.525c-0.8,0 -1.5,-0.65 -1.5,-1.475c0,-0.85 0.7,-1.5 1.5,-1.5h10.45c0.8,0 1.475,0.65 1.475,1.5z"/><path d="M130.07405,14.84985v9.675c0,4.05 -3.1,6.45 -6.975,6.45c-3.9,0 -6.975,-2.4 -6.975,-6.45v-9.675c0,-0.875 0.725,-1.625 1.65,-1.625c0.925,0 1.725,0.75 1.725,1.625v9.625c0,2.625 1.675,3.675 3.6,3.675c1.95,0 3.6,-1.05 3.6,-3.675v-9.625c0,-0.875 0.8,-1.625 1.75,-1.625c0.925,0 1.625,0.75 1.625,1.625z"/><path d="M148.67405,14.74985c0,0.35 -0.075,0.675 -0.2,0.95l-6.2,13.975c-0.375,0.85 -0.9,1.25 -1.65,1.25c-0.75,0 -1.275,-0.4 -1.625,-1.25l-6.2,-13.975c-0.125,-0.275 -0.225,-0.6 -0.225,-0.95c0,-0.825 0.725,-1.525 1.65,-1.525c0.725,0 1.325,0.425 1.6,1.075l4.8,11.275l4.8,-11.275c0.275,-0.65 0.875,-1.075 1.625,-1.075c0.925,0 1.625,0.7 1.625,1.525z"/><path d="M174.24905,14.74985c0,0.35 -0.125,0.675 -0.2,0.95l-4.3,13.975c-0.25,0.85 -0.925,1.25 -1.775,1.25c-0.875,0 -1.475,-0.4 -1.775,-1.25l-3.85,-10.5l-3.875,10.5c-0.3,0.85 -0.9,1.25 -1.75,1.25c-0.85,0 -1.525,-0.4 -1.8,-1.25l-4.275,-13.975c-0.1,-0.275 -0.225,-0.6 -0.225,-0.95c0,-0.825 0.725,-1.525 1.65,-1.525c0.725,0 1.425,0.425 1.6,1.075l3.175,11.275l4,-11.25c0.3,-0.825 0.85,-1.1 1.475,-1.1c0.6,0 1.225,0.275 1.525,1.1l4,11.25l3.15,-11.275c0.175,-0.65 0.875,-1.075 1.625,-1.075c0.925,0 1.625,0.7 1.625,1.525z"/><path d="M190.22405,29.49985c0,0.85 -0.625,1.475 -1.575,1.475c-0.575,0 -1.05,-0.225 -1.4,-0.725l-4,-5.75l-4.025,5.75c-0.35,0.5 -0.825,0.725 -1.375,0.725c-0.95,0 -1.6,-0.625 -1.6,-1.475c0,-0.425 0.15,-0.825 0.375,-1.15l4.725,-6.525l-4.325,-5.975c-0.225,-0.325 -0.375,-0.725 -0.375,-1.15c0,-0.85 0.65,-1.475 1.575,-1.475c0.575,0 1.05,0.225 1.4,0.725l3.625,5.175l3.6,-5.175c0.35,-0.5 0.85,-0.725 1.4,-0.725c0.95,0 1.6,0.625 1.6,1.475c0,0.425 -0.15,0.825 -0.4,1.15l-4.325,5.975l4.725,6.525c0.225,0.325 0.375,0.725 0.375,1.15z"/><path d="M206.24905,14.74985c0,0.325 -0.075,0.6 -0.25,0.85l-5.075,7.4v6.35c0,0.9 -0.775,1.625 -1.675,1.625c-0.875,0 -1.65,-0.725 -1.65,-1.625v-6.35l-5.075,-7.4c-0.175,-0.25 -0.25,-0.525 -0.25,-0.85c0,-0.85 0.675,-1.525 1.55,-1.525c0.5,0 0.925,0.225 1.225,0.625l4.2,6.3l4.225,-6.3c0.275,-0.4 0.725,-0.625 1.225,-0.625c0.85,0 1.55,0.675 1.55,1.525z"/><path d="M220.32405,16.87485l-8.6,10.95h7.7c0.825,0 1.5,0.65 1.5,1.5c0,0.825 -0.675,1.475 -1.5,1.475h-8.8c-1.975,0 -3.175,-1.975 -1.925,-3.575l8.6,-10.95h-7.125c-0.8,0 -1.5,-0.65 -1.5,-1.475c0,-0.85 0.7,-1.5 1.5,-1.5h8.2c2,0 3.175,1.975 1.95,3.575z"/><path d="M28.74915,79.35015v9.975c0,0.9 -0.8,1.625 -1.675,1.625c-0.9,0 -1.65,-0.725 -1.65,-1.625v-0.475c-0.2,0.775 -1.525,2.125 -3.7,2.125c-2.75,0 -6.05,-2.125 -6.05,-6.675c0,-4.45 3.325,-6.65 6.05,-6.65c1.775,0 3.2,0.95 3.7,2.125v-0.425c0,-0.875 0.75,-1.625 1.65,-1.625c0.875,0 1.675,0.75 1.675,1.625zM25.57415,84.30015c0,-2.825 -1.85,-3.85 -3.25,-3.85c-1.65,0 -3.375,1.3 -3.375,3.85c0,2.575 1.725,3.85 3.375,3.85c1.4,0 3.25,-1.025 3.25,-3.85z"/><path d="M44.82415,84.30015c0,4.55 -3.3,6.675 -6.05,6.675c-2.175,0 -3.5,-1.35 -3.7,-2.125v0.475c0,0.9 -0.75,1.625 -1.65,1.625c-0.875,0 -1.675,-0.725 -1.675,-1.625v-14.75c0,-0.875 0.775,-1.625 1.675,-1.625c0.875,0 1.625,0.75 1.625,1.625v4.5c0.025,0.1 0.025,0.175 0.025,0.275v0.425c0.5,-1.175 1.925,-2.125 3.7,-2.125c2.725,0 6.05,2.2 6.05,6.65zM41.54915,84.30015c0,-2.55 -1.725,-3.85 -3.375,-3.85c-1.4,0 -3.25,1.025 -3.25,3.85c0,2.825 1.85,3.85 3.25,3.85c1.65,0 3.375,-1.275 3.375,-3.85z"/><path d="M58.12415,88.02515c0,0.8 -0.6,1.2 -0.925,1.5c-1.05,0.925 -2.275,1.4 -3.9,1.4c-3.025,0 -6.675,-2.175 -6.675,-6.625c0,-4.475 3.65,-6.65 6.675,-6.65c1.625,0 2.85,0.45 3.9,1.375c0.325,0.325 0.925,0.725 0.925,1.525c0,0.775 -0.65,1.25 -1.325,1.25c-0.6,0 -1.075,-0.35 -1.275,-0.525c-0.575,-0.55 -1.425,-0.775 -2.1,-0.775c-1.975,0 -3.55,1.375 -3.55,3.8c0,2.4 1.575,3.775 3.55,3.775c0.675,0 1.525,-0.225 2.1,-0.775c0.2,-0.175 0.675,-0.525 1.275,-0.525c0.675,0 1.325,0.475 1.325,1.25z"/><path d="M72.99905,74.57515v14.75c0,0.9 -0.8,1.625 -1.675,1.625c-0.9,0 -1.65,-0.725 -1.65,-1.625v-0.475c-0.2,0.775 -1.525,2.125 -3.7,2.125c-2.75,0 -6.0499,-2.125 -6.0499,-6.675c0,-4.45 3.3249,-6.65 6.0499,-6.65c1.775,0 3.2,0.95 3.7,2.125v-0.425c0,-0.1 0,-0.175 0.025,-0.275v-4.5c0,-0.875 0.75,-1.625 1.625,-1.625c0.9,0 1.675,0.75 1.675,1.625zM69.82405,84.30015c0,-2.825 -1.85,-3.85 -3.25,-3.85c-1.65,0 -3.375,1.3 -3.375,3.85c0,2.575 1.725,3.85 3.375,3.85c1.4,0 3.25,-1.025 3.25,-3.85z"/><path d="M88.37405,83.77515c0,1.3 -0.725,1.75 -2.05,1.75l-7.425,-0.05c0.3,1.825 1.75,2.8 3.575,2.8c0.9,0 1.325,-0.2 2.075,-0.525c0.45,-0.2 0.8,-0.4 1.225,-0.4c0.7,0 1.125,0.5 1.125,1.125c0,0.4 -0.175,0.85 -0.8,1.375c-0.925,0.65 -2.175,1.075 -3.75,1.075c-3.325,0 -6.85,-2.05 -6.85,-6.6c0,-4.5 3.725,-6.675 6.575,-6.675c2.85,0 6.3,2.25 6.3,6.125zM78.89905,83.22515h6.25c-0.25,-1.925 -1.65,-2.725 -3.075,-2.725c-1.425,0 -2.95,0.8 -3.175,2.725z"/><path d="M99.67405,74.65015c0,0.7 -0.525,1.175 -1.225,1.175c-0.225,0 -0.575,-0.075 -1.05,-0.225c-0.325,-0.125 -0.525,-0.2 -0.85,-0.2c-1.4,0 -1.575,1.15 -1.575,1.65v0.75h2.05c0.8,0 1.325,0.525 1.325,1.3c0,0.75 -0.525,1.275 -1.325,1.275h-2.05v8.95c0,0.9 -0.75,1.625 -1.65,1.625c-0.875,0 -1.625,-0.725 -1.625,-1.625v-8.95h-0.75c-0.8,0 -1.325,-0.525 -1.325,-1.275c0,-0.775 0.525,-1.3 1.325,-1.3h0.75v-0.925c0,-3.5 2.775,-4.25 4.375,-4.25c1.1,0 2.05,0.275 2.725,0.7c0.575,0.35 0.875,0.775 0.875,1.325z"/><path d="M111.99905,89.32515c0,0.125 -0.025,0.25 -0.05,0.375v0.85c0,4.075 -3.8,5.375 -6.45,5.375c-1.55,0 -2.8,-0.425 -3.35,-0.675c-0.7,-0.3 -1.075,-0.8 -1.075,-1.4c0,-0.75 0.6,-1.3 1.3,-1.3c0.15,0 0.35,0.025 0.675,0.125c0.5,0.125 1.35,0.425 2.475,0.425c2.025,0 3.15,-1.075 3.15,-2.55v-1.7c-0.2,0.775 -1.525,2.125 -3.7,2.125c-2.75,0 -6.05,-2.125 -6.05,-6.675c0,-4.45 3.325,-6.65 6.05,-6.65c1.775,0 3.2,0.95 3.7,2.125v-0.425c0,-0.875 0.75,-1.625 1.65,-1.625c0.875,0 1.675,0.75 1.675,1.625zM108.82405,84.30015c0,-2.825 -1.85,-3.85 -3.25,-3.85c-1.65,0 -3.375,1.3 -3.375,3.85c0,2.575 1.725,3.85 3.375,3.85c1.4,0 3.25,-1.025 3.25,-3.85z"/><path d="M127.27405,83.65015v5.65c0,0.9 -0.75,1.625 -1.65,1.625c-0.875,0 -1.625,-0.725 -1.625,-1.625v-5.65c0,-2.25 -1.175,-3.175 -2.65,-3.175c-2.25,0 -3,2.1 -3.1,2.8v6.025c0,0.9 -0.75,1.625 -1.625,1.625c-0.9,0 -1.65,-0.725 -1.65,-1.625v-14.725c0,-0.875 0.75,-1.625 1.65,-1.625c0.875,0 1.625,0.75 1.625,1.625v6.05c0.1,-0.9 1.575,-2.95 4.275,-2.95c2.525,0 4.75,1.65 4.75,5.975z"/><path d="M130.27405,74.32515c0,-0.875 0.775,-1.625 1.675,-1.625c0.875,0 1.65,0.75 1.65,1.625c0,0.875 -0.775,1.625 -1.65,1.625c-0.9,0 -1.675,-0.75 -1.675,-1.625zM133.57405,79.37515v9.9c0,0.925 -0.75,1.675 -1.625,1.675c-0.9,0 -1.65,-0.75 -1.65,-1.675v-9.9c0,-0.9 0.75,-1.65 1.65,-1.65c0.875,0 1.625,0.75 1.625,1.65z"/><path d="M137.39905,74.32515c0,-0.875 0.775,-1.625 1.65,-1.625c0.9,0 1.675,0.75 1.675,1.625c0,0.875 -0.775,1.625 -1.675,1.625c-0.875,0 -1.65,-0.75 -1.65,-1.625zM140.69905,79.40015v12.675c0,2.5 -1.55,3.85 -3.825,3.85c-0.65,0 -1.325,-0.1 -2.025,-0.4c-0.55,-0.3 -1.25,-0.825 -1.25,-1.675c0,-0.95 0.875,-1.725 1.85,-1.425c0.25,0.05 0.525,0.325 0.975,0.325c0.925,0 1,-0.925 1,-1.55v-11.8c0,-0.925 0.75,-1.675 1.625,-1.675c0.9,0 1.65,0.75 1.65,1.675z"/><path d="M155.42405,89.50015c0,0.75 -0.625,1.425 -1.45,1.425c-0.4,0 -0.775,-0.175 -1,-0.45l-4.475,-4.975l-1.5,1.4v2.4c0,0.9 -0.75,1.625 -1.625,1.625c-0.9,0 -1.65,-0.725 -1.65,-1.625v-14.725c0,-0.875 0.75,-1.625 1.65,-1.625c0.875,0 1.625,0.75 1.625,1.625v8.475l4.95,-4.85c0.275,-0.275 0.675,-0.475 1.1,-0.475c0.825,0 1.475,0.7 1.475,1.475c0,0.425 -0.15,0.775 -0.4,1.05l-3.6,3.35l4.475,4.9c0.225,0.225 0.425,0.575 0.425,1z"/><path d="M159.19905,90.92515c-0.9,0 -1.65,-0.725 -1.65,-1.625v-14.725c0,-0.875 0.75,-1.625 1.65,-1.625c0.875,0 1.625,0.75 1.625,1.625v14.725c0,0.9 -0.75,1.625 -1.625,1.625z"/><path d="M185.14905,83.65015v5.65c0,0.9 -0.75,1.625 -1.65,1.625c-0.875,0 -1.625,-0.725 -1.625,-1.625v-5.65c0,-2.25 -1.175,-3.175 -2.65,-3.175c-2.25,0 -3.025,2.1 -3.1,2.8v-0.025v0.4v5.65c0,0.9 -0.75,1.625 -1.65,1.625c-0.875,0 -1.625,-0.725 -1.625,-1.625v-5.65c0,-2.25 -1.175,-3.175 -2.65,-3.175c-2.25,0 -3,2.1 -3.1,2.8v6.025c0,0.9 -0.75,1.625 -1.625,1.625c-0.9,0 -1.65,-0.725 -1.65,-1.625v-9.925c0,-0.9 0.75,-1.65 1.65,-1.65c0.875,0 1.625,0.75 1.625,1.65v1.25c0.1,-0.9 1.575,-2.95 4.275,-2.95c1.875,0 3.575,0.9 4.325,3.125c0.7,-1.55 2.275,-3.125 4.7,-3.125c2.525,0 4.75,1.65 4.75,5.975z"/><path d="M200.44905,83.65015v5.65c0,0.9 -0.75,1.625 -1.65,1.625c-0.875,0 -1.625,-0.725 -1.625,-1.625v-5.65c0,-2.25 -1.175,-3.175 -2.65,-3.175c-2.25,0 -3,2.1 -3.1,2.8v6.025c0,0.9 -0.75,1.625 -1.625,1.625c-0.9,0 -1.65,-0.725 -1.65,-1.625v-9.925c0,-0.9 0.75,-1.65 1.65,-1.65c0.875,0 1.625,0.75 1.625,1.65v1.25c0.1,-0.9 1.575,-2.95 4.275,-2.95c2.525,0 4.75,1.65 4.75,5.975z"/><path d="M216.29905,84.32515c0,4.475 -3.825,6.65 -6.675,6.65c-2.875,0 -6.675,-2.175 -6.675,-6.65c0,-4.45 3.8,-6.675 6.675,-6.675c2.85,0 6.675,2.225 6.675,6.675zM206.19905,84.32515c0,2.4 1.65,3.8 3.425,3.8c1.75,0 3.425,-1.4 3.425,-3.8c0,-2.425 -1.675,-3.825 -3.425,-3.825c-1.775,0 -3.425,1.4 -3.425,3.825z"/><path d="M231.27405,84.30015c0,4.55 -3.3,6.675 -6.05,6.675c-2.175,0 -3.5,-1.35 -3.7,-2.125v0.475c0,0.1 0,0.2 -0.025,0.275v4.5c0,0.9 -0.775,1.625 -1.65,1.625c-0.9,0 -1.65,-0.725 -1.65,-1.625v-14.75c0,-0.875 0.8,-1.625 1.675,-1.625c0.9,0 1.65,0.75 1.65,1.625v0.425c0.5,-1.175 1.925,-2.125 3.7,-2.125c2.725,0 6.05,2.2 6.05,6.65zM227.99905,84.30015c0,-2.55 -1.725,-3.85 -3.375,-3.85c-1.4,0 -3.25,1.025 -3.25,3.85c0,2.825 1.85,3.85 3.25,3.85c1.65,0 3.375,-1.275 3.375,-3.85z"/><path d="M28.74915,109.35015v14.75c0,0.9 -0.75,1.625 -1.65,1.625c-0.875,0 -1.65,-0.725 -1.65,-1.625v-4.5c-0.025,-0.075 -0.025,-0.175 -0.025,-0.275v-0.475c-0.2,0.775 -1.525,2.125 -3.7,2.125c-2.75,0 -6.05,-2.125 -6.05,-6.675c0,-4.45 3.325,-6.65 6.05,-6.65c1.775,0 3.2,0.95 3.7,2.125v-0.425c0,-0.875 0.75,-1.625 1.65,-1.625c0.875,0 1.675,0.75 1.675,1.625zM25.57415,114.30015c0,-2.825 -1.85,-3.85 -3.25,-3.85c-1.65,0 -3.375,1.3 -3.375,3.85c0,2.575 1.725,3.85 3.375,3.85c1.4,0 3.25,-1.025 3.25,-3.85z"/><path d="M40.47415,109.17515c0,0.925 -0.7,1.55 -2.1,1.55c-1.975,0 -3.225,1.525 -3.35,2.55v6.025c0,0.875 -0.75,1.625 -1.625,1.625c-0.9,0 -1.65,-0.75 -1.65,-1.625v-9.925c0,-0.9 0.75,-1.65 1.65,-1.65c0.875,0 1.625,0.75 1.625,1.65v1.25c0.1,-0.9 1.65,-2.95 3.9,-2.95c1.025,0 1.55,0.7 1.55,1.5z"/><path d="M50.82415,109.47515c0.15,0.225 0.4,0.575 0.4,1.1c0,0.8 -0.55,1.225 -1.275,1.225c-0.475,0 -0.95,-0.175 -1.375,-0.7c-0.5,-0.575 -1.075,-0.85 -1.8,-0.85c-0.975,0 -1.55,0.475 -1.55,1.175c0,0.4 0.15,0.925 1.3,1.25l1.525,0.45c2,0.55 3.675,1.5 3.675,3.725c0,2.75 -2.55,4.075 -5.15,4.075c-2.25,0 -3.6,-0.95 -4.3,-1.8c-0.125,-0.175 -0.675,-0.8 -0.675,-1.575c0,-0.55 0.35,-1.25 1.25,-1.25c0.675,0 1.05,0.425 1.35,0.8c0.725,0.9 1.525,1.15 2.375,1.15c1.225,0 1.9,-0.525 1.9,-1.225c0,-0.425 -0.275,-0.975 -1.475,-1.325l-1.425,-0.425c-2.525,-0.7 -3.575,-2.05 -3.575,-3.825c0,-2.5 2.3,-3.8 4.675,-3.8c1.7,0 3.325,0.675 4.15,1.825z"/><path d="M61.14915,119.17515c0,1.15 -1.125,1.75 -2.825,1.75c-1.7,0 -3.425,-0.55 -3.425,-4.025v-6.525h-0.725c-0.8,0 -1.325,-0.525 -1.325,-1.275c0,-0.775 0.525,-1.3 1.325,-1.3h0.725v-1.7c0,-0.9 0.75,-1.65 1.65,-1.65c0.9,0 1.625,0.75 1.625,1.65v1.7h1.65c0.825,0 1.325,0.525 1.325,1.3c0,0.75 -0.5,1.275 -1.325,1.275h-1.65v6.625c0,0.725 0.25,1.1 0.8,1.1c0.275,0 0.675,-0.1 0.95,-0.1c0.75,-0.05 1.225,0.4 1.225,1.175z"/><path d="M63.39905,115.00015v-5.65c0,-0.9 0.75,-1.625 1.65,-1.625c0.875,0 1.625,0.725 1.625,1.625v5.65c0,2.25 1.175,3.175 2.65,3.175c2.25,0 3,-2.1 3.1,-2.8v-6.025c0,-0.9 0.75,-1.625 1.625,-1.625c0.9,0 1.65,0.725 1.65,1.625v9.925c0,0.9 -0.75,1.65 -1.65,1.65c-0.875,0 -1.625,-0.75 -1.625,-1.65v-1.25c-0.1,0.9 -1.575,2.95 -4.275,2.95c-2.525,0 -4.75,-1.65 -4.75,-5.975z"/><path d="M90.42405,109.20015c0,0.3 -0.1,0.55 -0.2,0.75l-4.4,9.65c-0.375,0.775 -0.875,1.25 -1.65,1.25c-0.775,0 -1.275,-0.475 -1.625,-1.25l-4.425,-9.65c-0.075,-0.2 -0.175,-0.45 -0.175,-0.75c0,-0.8 0.65,-1.475 1.5,-1.475c0.625,0 1.225,0.35 1.575,1.15l3.15,7.4l3.175,-7.4c0.325,-0.8 0.925,-1.15 1.55,-1.15c0.875,0 1.525,0.675 1.525,1.475z"/><path d="M111.49905,109.27515c0,0.225 -0.15,0.475 -0.225,0.75l-3.35,9.575c-0.275,0.825 -0.875,1.25 -1.55,1.25c-0.725,0 -1.3,-0.425 -1.625,-1.25l-3.05,-7.15l-3.05,7.15c-0.325,0.825 -0.925,1.25 -1.6,1.25c-0.725,0 -1.3,-0.425 -1.575,-1.25l-3.325,-9.575c-0.1,-0.275 -0.225,-0.525 -0.225,-0.75c0,-0.875 0.675,-1.55 1.55,-1.55c0.575,0 1.2,0.35 1.375,0.875l2.4,7.525l2.975,-7.4c0.275,-0.65 0.775,-1 1.475,-1c0.725,0 1.225,0.35 1.475,1l2.975,7.4l2.4,-7.525c0.175,-0.525 0.8,-0.875 1.4,-0.875c0.85,0 1.55,0.675 1.55,1.55z"/><path d="M124.62405,119.47515c0,0.8 -0.725,1.45 -1.5,1.45c-0.475,0 -0.85,-0.25 -1.15,-0.6l-3.1,-3.85l-3.1,3.85c-0.3,0.35 -0.675,0.6 -1.15,0.6c-0.775,0 -1.5,-0.65 -1.5,-1.45c0,-0.325 0.125,-0.625 0.325,-0.875l3.6,-4.3l-3.55,-4.25c-0.2,-0.25 -0.325,-0.525 -0.325,-0.875c0,-0.8 0.725,-1.45 1.5,-1.45c0.475,0 0.875,0.225 1.15,0.6l3.05,3.775l3.05,-3.775c0.3,-0.375 0.675,-0.6 1.15,-0.6c0.75,0 1.475,0.65 1.475,1.45c0,0.35 -0.1,0.625 -0.325,0.875l-3.525,4.25l3.575,4.3c0.225,0.25 0.35,0.55 0.35,0.875z"/><path d="M139.17405,109.20015c0,0.3 -0.1,0.55 -0.2,0.75l-6.475,14.575c-0.35,0.8 -0.95,1.15 -1.575,1.15c-0.85,0 -1.45,-0.675 -1.45,-1.475c0,-0.3 0.1,-0.55 0.175,-0.75l1.425,-3.25l-4.65,-10.25c-0.075,-0.2 -0.175,-0.45 -0.175,-0.75c0,-0.8 0.65,-1.475 1.5,-1.475c0.625,0 1.225,0.35 1.575,1.15l3.35,7.75l3.425,-7.75c0.35,-0.8 0.925,-1.15 1.55,-1.15c0.875,0 1.525,0.675 1.525,1.475z"/><path d="M150.59905,111.50015l-6.225,6.475h5.625c0.775,0 1.425,0.625 1.425,1.4c0,0.8 -0.65,1.425 -1.425,1.425h-6.725c-2.025,0 -3.15,-2.075 -1.625,-3.75l6.175,-6.45h-5.2c-0.775,0 -1.425,-0.6 -1.425,-1.4c0,-0.775 0.65,-1.4 1.425,-1.4h6.25c2,0 3.225,2.075 1.725,3.7z"/><path d="M167.67405,111.72515v0.6c0,5.7 -3.525,8.6 -7.075,8.6c-3.5,0 -7.05,-2.9 -7.05,-8.6v-0.6c0,-5.7 3.55,-8.6 7.05,-8.6c3.55,0 7.075,2.9 7.075,8.6zM156.82405,111.72515v0.6c0,2.675 0.975,5.775 3.775,5.775c2.825,0 3.8,-3.1 3.8,-5.775v-0.6c0,-2.65 -0.975,-5.8 -3.8,-5.8c-2.8,0 -3.775,3.15 -3.775,5.8z"/><path d="M175.74905,105.15015v14.175c0,0.875 -0.75,1.625 -1.65,1.625c-0.875,0 -1.625,-0.75 -1.625,-1.625v-13.225h-1.625c-0.775,0 -1.425,-0.6 -1.425,-1.4c0,-0.775 0.65,-1.4 1.425,-1.4h3.025c1.075,0 1.875,0.775 1.875,1.85z"/><path d="M190.22405,108.37515c0,2.2 -1.475,3.4 -4.6,6.45l-3.175,3.075h6.4c0.775,0 1.425,0.625 1.425,1.45c0,0.825 -0.65,1.45 -1.425,1.45h-7.6c-2.325,0 -3.5,-2.45 -1.825,-4.1l2.925,-2.825c3.275,-3.175 4.575,-4.175 4.575,-5.675c0,-1.65 -1.425,-2.2 -2.4,-2.2c-0.875,0 -2.1,0.4 -2.55,1.925c-0.175,0.65 -0.825,1.25 -1.675,1.25c-1.2,0 -1.725,-1.075 -1.375,-2.325c0.65,-2 2.525,-3.725 5.45,-3.725c3.5,0 5.85,2.5 5.85,5.25z"/><path d="M203.42405,106.72515l-2.95,3.675c1.975,0.4 4.325,2.2 4.325,5.1c0,3.3 -2.8,5.55 -6.3,5.55c-2.5,0 -4.875,-1.1 -5.875,-3.625c-0.35,-0.975 0.2,-2.1 1.35,-2.1c0.775,0 1.275,0.475 1.45,0.925c0.65,1.625 2.2,1.975 3.075,1.975c0.925,0 3.025,-0.475 3.025,-2.725c0,-2.1 -2.275,-2.725 -3.35,-3c-0.7,-0.15 -1.15,-0.75 -1.15,-1.325c0,-0.525 0.375,-0.925 0.775,-1.45l2.75,-3.625h-6.05c-0.775,0 -1.425,-0.6 -1.425,-1.4c0,-0.775 0.65,-1.4 1.425,-1.4h6.975c1.95,0 3.15,1.875 1.95,3.425z"/><path d="M217.97405,114.07515c0.775,0 1.425,0.6 1.425,1.325c0,0.775 -0.65,1.35 -1.425,1.35h-0.625v2.6c0,0.9 -0.75,1.625 -1.65,1.625c-0.875,0 -1.625,-0.725 -1.625,-1.625v-2.6h-4.85c-2.1,0 -2.775,-1.575 -1.675,-3.1l6.575,-9.375c1.1,-1.55 3.225,-1.05 3.225,0.775v9.025zM210.52405,114.07515h3.55v-5.175z"/><path d="M231.62405,104.70015c0,0.8 -0.65,1.4 -1.425,1.4h-5.075l-0.375,3.625c0.175,-0.025 1.175,-0.675 2.825,-0.675c3.05,0 5.625,2.375 5.625,5.975c0,3.5 -2.725,6.025 -6.375,6.025c-2.1,0 -3.825,-0.775 -4.975,-2.1c-0.225,-0.225 -0.475,-0.675 -0.475,-1.175c0,-0.8 0.6,-1.425 1.475,-1.425c0.525,0 0.975,0.275 1.225,0.575c0.55,0.7 1.45,1.3 2.675,1.3c1.4,0 3.175,-0.8 3.175,-3.2c0,-2.15 -1.55,-3.15 -2.975,-3.15c-0.65,0 -1.325,0.2 -2.075,0.675c-0.3,0.175 -0.925,0.275 -1.35,0.275c-1.3,0 -2.075,-1.05 -1.925,-2.35l0.675,-5.625c0.125,-0.925 0.85,-1.55 1.775,-1.55h6.15c0.775,0 1.425,0.625 1.425,1.4z"/><path d="M24.94915,134.57515c0,0.325 -0.15,0.65 -0.325,0.9l-3.225,4.15c0.075,0.075 0.175,0.1 0.325,0.1c2.95,0 5.825,2.4 5.825,5.75c0,3.3 -2.875,5.575 -5.825,5.575c-3,0 -5.925,-2.275 -5.925,-5.95c0,-2.7 1.75,-4.575 3.6,-7.175l2.95,-4.175c0.25,-0.4 0.7,-0.625 1.175,-0.625c0.825,0 1.425,0.65 1.425,1.45zM18.87415,145.47515c0,1.5 1.225,2.725 2.8,2.725c1.6,0 2.75,-1.25 2.75,-2.725c0,-1.45 -1.15,-2.725 -2.75,-2.725c-1.775,0 -2.8,1.275 -2.8,2.725z"/><path d="M39.59915,136.37515l-6.525,13.675c-0.25,0.55 -0.75,0.925 -1.4,0.925c-0.85,0 -1.525,-0.725 -1.525,-1.575c0,-0.25 0.05,-0.475 0.15,-0.65l6.2,-12.65h-6.525c-0.775,0 -1.425,-0.6 -1.425,-1.4c0,-0.775 0.65,-1.4 1.425,-1.4h7.65c1.7,0 2.725,1.525 1.975,3.075z"/><path d="M54.12415,145.32515c0,3.575 -3.125,5.7 -6.2,5.7c-3.05,0 -6.225,-2.125 -6.225,-5.7c0,-2 1.025,-3.5 2.425,-4.45c-0.8,-0.825 -1.3,-1.9 -1.3,-3.075c0,-2.55 1.875,-4.675 5.1,-4.675c3.225,0 5.1,2.125 5.1,4.675c0,1.2 -0.5,2.275 -1.325,3.1c1.4,0.925 2.425,2.425 2.425,4.425zM47.92415,139.75015c1.225,0 1.95,-0.95 1.95,-1.925c0,-1 -0.775,-1.875 -1.95,-1.875c-1.175,0 -1.95,0.875 -1.95,1.875c0,0.975 0.725,1.925 1.95,1.925zM50.72415,145.32515c0,-1.85 -1.425,-2.85 -2.8,-2.85c-1.375,0 -2.825,1 -2.825,2.85c0,1.65 1.3,2.875 2.825,2.875c1.525,0 2.8,-1.225 2.8,-2.875z"/><path d="M58.89915,149.55015c0,-0.325 0.15,-0.65 0.325,-0.9l3.2249,-4.15c-0.075,-0.075 -0.175,-0.1 -0.325,-0.1c-2.9499,0 -5.8249,-2.4 -5.8249,-5.75c0,-3.3 2.875,-5.575 5.8249,-5.575c3,0 5.925,2.275 5.925,5.95c0,2.7 -1.75,4.575 -3.6,7.175l-2.9499,4.175c-0.25,0.4 -0.7,0.625 -1.175,0.625c-0.825,0 -1.425,-0.65 -1.425,-1.45zM64.97405,138.65015c0,-1.5 -1.225,-2.725 -2.8,-2.725c-1.5999,0 -2.7499,1.25 -2.7499,2.725c0,1.45 1.15,2.725 2.7499,2.725c1.775,0 2.8,-1.275 2.8,-2.725z"/></g><path d="M67.625,149.27785c0,-1.31168 1.06332,-2.375 2.375,-2.375c1.31168,0 2.375,1.06332 2.375,2.375c0,1.31168 -1.06332,2.375 -2.375,2.375c-1.31168,0 -2.375,-1.06332 -2.375,-2.375z" fill-rule="nonzero" stroke-width="0" stroke-linecap="butt" stroke-linejoin="miter"/></g></g></g></svg>