<svg version="1.1" xmlns="http://www.w3.org/2000/svg" xmlns:xlink="http://www.w3.org/1999/xlink" width="47.48268" height="34.5196" viewBox="0,0,47.48268,34.5196"><g transform="translate(-10.75532,-320.59852)"><g data-paper-data="{&quot;isPaintingLayer&quot;:true}" fill="#ffffff" fill-rule="nonzero" stroke="none" stroke-width="0" stroke-linecap="butt" stroke-linejoin="miter" stroke-miterlimit="10" stroke-dasharray="" stroke-dashoffset="0" style="mix-blend-mode: normal"><g><path d="M27.41382,343.48587v-13.80109c0,0 24.57444,0 28.6799,0c1.12257,0 2.14428,1.01515 2.14428,1.93346c0,1.2832 -0.22074,6.56533 -0.22074,9.47006c0,2.24537 -0.80097,2.39757 -1.92354,2.39757c-4.10546,0 -28.6799,0 -28.6799,0z"/><path d="M12.80423,331.27148c3.23569,-1.77963 14.05957,-7.73276 18.91127,-10.4012c1.46708,-0.80689 2.38808,0.28176 2.38808,1.96565c0,4.49991 0,21.06667 0,29.30533c0,2.099 -3.34877,3.8948 -4.71353,2.4618c-5.15278,-5.41042 -15.25096,-15.86032 -18.12766,-18.88085c-1.14244,-1.19956 -0.23663,-3.47258 1.54184,-4.45073z"/></g></g></g></svg>