<svg version="1.1" xmlns="http://www.w3.org/2000/svg" xmlns:xlink="http://www.w3.org/1999/xlink" width="137.35649" height="109.21285" viewBox="0,0,137.35649,109.21285"><g transform="translate(-159.5381,-180.82915)"><g data-paper-data="{&quot;isPaintingLayer&quot;:true}" fill-rule="evenodd" stroke="none" stroke-width="1" stroke-linecap="round" stroke-linejoin="round" stroke-miterlimit="10" stroke-dasharray="" stroke-dashoffset="0" style="mix-blend-mode: normal"><g><path d="M196.26845,249.34309c0.88728,1.02737 1.35427,1.86797 1.35427,2.80194c0,1.40098 -1.12078,2.52174 -2.61513,2.52174c-0.98068,0 -1.91466,-0.60709 -2.52174,-1.26088c-1.30757,-1.35427 -2.42834,-2.10145 -4.48309,-2.10145c-2.84863,0 -4.4831,1.44765 -4.4831,3.50241c0,1.54106 0.84058,2.94204 3.64253,4.01611l1.82126,0.70049c7.28504,2.75523 10.22708,5.41708 10.22708,9.90018c0,6.44446 -6.39775,9.66669 -11.81483,9.66669c-3.68922,0 -7.56523,-1.49437 -9.85348,-4.3897c-0.46699,-0.5604 -1.30757,-1.63446 -1.30757,-3.03542c0,-1.30757 0.84058,-2.66184 2.56844,-2.66184c1.40096,0 2.33495,0.88728 2.98873,1.77457c1.63447,2.05476 3.82932,2.70853 5.60388,2.70853c2.28825,0 5.41708,-0.88728 5.41708,-4.0628c0,-2.42834 -1.63447,-3.54912 -5.23029,-4.95009l-1.96136,-0.74718c-4.80999,-1.86797 -8.35911,-4.2029 -8.35911,-8.96619c0,-5.55717 4.66989,-9.01289 10.50726,-9.01289c4.1095,0 6.63126,1.54106 8.49921,3.59582z" fill="#ffffff"/><path d="M227.17084,265.02003v10.55397c0,1.68116 -1.40096,3.03542 -3.08213,3.03542c-1.63447,0 -3.03543,-1.35427 -3.03543,-3.03542v-10.55397c0,-4.2029 -2.19486,-5.93076 -4.95009,-5.93076c-4.2029,0 -5.60388,3.92271 -5.79067,5.23029v11.25446c0,1.68116 -1.40096,3.03542 -3.03542,3.03542c-1.68116,0 -3.08214,-1.35427 -3.08214,-3.03542v-27.50568c0,-1.63447 1.40098,-3.03543 3.08214,-3.03543c1.63447,0 3.03542,1.40098 3.03542,3.03543v11.30115c0.1868,-1.68116 2.94203,-5.51048 7.98551,-5.51048c4.71658,0 8.87279,3.08213 8.87279,11.16105z" fill="#ffffff"/><path d="M256.33679,267.26745c0,8.35911 -7.14494,12.42192 -12.46861,12.42192c-5.37038,0 -12.46861,-4.06281 -12.46861,-12.42192c0,-8.31242 7.09825,-12.46861 12.46861,-12.46861c5.32369,0 12.46861,4.1562 12.46861,12.46861zM237.47042,267.26745c0,4.48309 3.08213,7.09825 6.39776,7.09825c3.26893,0 6.39776,-2.61515 6.39776,-7.09825c0,-4.5298 -3.12883,-7.14494 -6.39776,-7.14494c-3.31562,0 -6.39776,2.61513 -6.39776,7.14494z" fill="#ffffff"/><path d="M286.28255,264.26113c0,8.49921 -6.16426,12.46861 -11.30115,12.46861c-4.0628,0 -6.53786,-2.52174 -6.91145,-3.96942v0.88728c0,0.1868 0,0.37358 -0.04669,0.51368v8.40581c0,1.68116 -1.44767,3.03543 -3.08214,3.03543c-1.68116,0 -3.08214,-1.35427 -3.08214,-3.03543v-27.55238c0,-1.63447 1.49437,-3.03543 3.12883,-3.03543c1.68116,0 3.08213,1.40096 3.08213,3.03543v0.79388c0.93397,-2.19486 3.59582,-3.96942 6.91145,-3.96942c5.09018,0 11.30115,4.1095 11.30115,12.42192zM280.16499,264.26113c0,-4.76329 -3.22223,-7.19164 -6.30436,-7.19164c-2.61513,0 -6.07086,1.91466 -6.07086,7.19164c0,5.27698 3.45573,7.19164 6.07086,7.19164c3.08214,0 6.30436,-2.38165 6.30436,-7.19164z" fill="#ffffff"/><path d="M174.45444,238.89222h108.52983c7.6822,0 13.91033,4.56167 13.91033,10.18912v30.77154c0,5.62711 -6.22813,10.18913 -13.91033,10.18913h-108.52983c-7.68245,0 -13.91033,-4.56202 -13.91033,-10.18913v-30.77154c0,-5.62746 6.22788,-10.18912 13.91033,-10.18912z" fill="#636363" opacity="0.0863"/></g><g><g fill="#ffffff"><path d="M207.25544,200.92966c0,6.47048 -5.05506,11.3739 -12.94097,11.3739h-6.16719v9.45297c0,1.87038 -1.51652,3.43745 -3.3869,3.43745c-1.92092,0 -3.43745,-1.56707 -3.43745,-3.43745v-28.56112c0,-2.17368 1.56707,-3.74074 3.74074,-3.74074h9.25078c7.88591,0 12.94097,5.10561 12.94097,11.47501zM200.63331,200.92966c0,-4.14515 -2.83084,-5.66167 -6.62214,-5.66167h-5.86388v11.22225h5.86388c3.7913,0 6.62214,-1.36488 6.62214,-5.56057z"/><path d="M217.16813,226.27994c-1.81982,0 -3.33634,-1.46598 -3.33634,-3.2858v-29.77434c0,-1.76927 1.51652,-3.2858 3.33634,-3.2858c1.76927,0 3.28579,1.51652 3.28579,3.2858v29.77434c0,1.81982 -1.51651,3.2858 -3.28579,3.2858z"/><path d="M256.39498,199.87498v20.16972c0,1.81982 -1.61763,3.2858 -3.3869,3.2858c-1.81982,0 -3.33634,-1.46598 -3.33634,-3.2858v-0.96047c-0.4044,1.56707 -3.08359,4.29681 -7.48149,4.29681c-5.56057,0 -12.23326,-4.2968 -12.23326,-13.49703c0,-8.99802 6.72323,-13.44648 12.23326,-13.44648c3.58909,0 6.47048,1.92092 7.48149,4.2968v-0.85935c0,-1.76927 1.51652,-3.2858 3.33634,-3.2858c1.76927,0 3.3869,1.51651 3.3869,3.2858zM249.97505,209.88401c0,-5.71223 -3.74074,-7.7848 -6.57158,-7.7848c-3.33633,0 -6.82435,2.62864 -6.82435,7.7848c0,5.20672 3.48799,7.7848 6.82435,7.7848c2.83084,0 6.57158,-2.07257 6.57158,-7.7848z"/><path d="M286.67706,199.23246c0,0.6066 -0.2022,1.11211 -0.4044,1.51651l-13.09262,29.47103c-0.70771,1.61763 -1.92092,2.32533 -3.18469,2.32533c-1.71873,0 -2.93193,-1.36487 -2.93193,-2.98249c0,-0.6066 0.2022,-1.11211 0.35386,-1.51652l2.88139,-6.57158l-9.40243,-20.72577c-0.15165,-0.4044 -0.35386,-0.90991 -0.35386,-1.51651c0,-1.61763 1.31432,-2.98249 3.03304,-2.98249c1.26376,0 2.47699,0.70771 3.18469,2.32533l6.77379,15.6707l6.92545,-15.6707c0.70771,-1.61763 1.87038,-2.32533 3.13414,-2.32533c1.76927,0 3.0836,1.36488 3.0836,2.98249z"/></g><path d="M173.44843,180.82915h108.52983c7.6822,0 13.91033,4.56167 13.91033,10.18912v30.77154c0,5.62711 -6.22813,10.18913 -13.91033,10.18913h-108.52983c-7.68245,0 -13.91033,-4.56202 -13.91033,-10.18913v-30.77154c0,-5.62746 6.22788,-10.18912 13.91033,-10.18912z" fill="#636363" opacity="0.0863"/></g></g></g></svg>