<svg version="1.1" xmlns="http://www.w3.org/2000/svg" xmlns:xlink="http://www.w3.org/1999/xlink" width="194.10962" height="233.97872" viewBox="0,0,194.10962,233.97872"><defs><linearGradient x1="237.64105" y1="159.46491" x2="237.64105" y2="77.71951" gradientUnits="userSpaceOnUse" id="color-1"><stop offset="0" stop-color="#313131"/><stop offset="1" stop-color="#262626"/></linearGradient><linearGradient x1="237.64105" y1="48.55518" x2="237.64105" y2="130.30057" gradientUnits="userSpaceOnUse" id="color-2"><stop offset="0" stop-color="#313131"/><stop offset="1" stop-color="#262626"/></linearGradient><linearGradient x1="248.33816" y1="69.79923" x2="230.32852" y2="97.19264" gradientUnits="userSpaceOnUse" id="color-3"><stop offset="0" stop-color="#a52929" stop-opacity="0"/><stop offset="1" stop-color="#a52929"/></linearGradient></defs><g transform="translate(-93.63117,74.51382)"><g data-paper-data="{&quot;isPaintingLayer&quot;:true}" stroke="none" stroke-miterlimit="10" stroke-dasharray="" stroke-dashoffset="0" style="mix-blend-mode: normal"><path d="" data-paper-data="{&quot;origPos&quot;:null}" fill="#ffffff" fill-rule="evenodd" stroke-width="1" stroke-linecap="round" stroke-linejoin="round"/><path d="" data-paper-data="{&quot;origPos&quot;:null}" fill="#000000" fill-rule="evenodd" stroke-width="1" stroke-linecap="round" stroke-linejoin="round"/><g fill-rule="nonzero" stroke-width="0" stroke-linecap="butt" stroke-linejoin="miter"><g data-paper-data="{&quot;index&quot;:null}"><path d="M287.67332,77.71951l-0.08131,69.99028c0,0 -0.33462,4.821 -2.23487,7.78312c-2.41792,3.76909 -6.53423,3.97199 -6.53423,3.97199l-82.32208,-0.18914c0,0 -4.12177,-0.09612 -6.39749,-3.40456c-2.3436,-3.40712 -2.59844,-9.0936 -2.59844,-9.0936l0.00168,-68.54065z" data-paper-data="{&quot;origPos&quot;:null,&quot;origRot&quot;:0,&quot;index&quot;:null}" fill="url(#color-1)"/><path d="M287.56872,85.76201v36.66189c0,0 -14.04009,6.92211 -28.87917,6.54635c-14.87709,-0.37672 -23.56209,-7.46192 -35.5573,-7.69204c-11.99522,-0.23011 -35.52268,7.25601 -35.52268,7.25601v-42.7722z" data-paper-data="{&quot;origPos&quot;:null}" fill="#343434"/><path d="M287.74075,58.87314l-0.09455,42.7722c0,0 -17.14689,-11.30506 -29.17525,-11.07495c-12.02835,0.23011 -21.84186,11.13427 -36.76006,11.51099c-14.88007,0.37575 -34.17827,-6.54636 -34.17827,-6.54636l-0.02714,-36.66189z" data-paper-data="{&quot;origPos&quot;:null,&quot;index&quot;:null}" fill="#3b3b3b"/></g><g><path d="M187.50661,129.78315l-0.00167,-68.54065c0,0 0.25484,-5.68648 2.59844,-9.0936c2.27571,-3.30845 6.39749,-3.40456 6.39749,-3.40456l82.32208,-0.18915c0,0 4.11631,0.20292 6.53424,3.972c1.90025,2.96212 2.23487,7.78311 2.23487,7.78311l0.08131,69.99028z" data-paper-data="{&quot;origPos&quot;:null,&quot;origRot&quot;:0,&quot;index&quot;:null}" fill="url(#color-2)"/><path d="M187.60959,122.25809v-42.7722c0,0 23.52746,7.48611 35.52268,7.25601c11.99522,-0.23011 20.68021,-7.31532 35.55731,-7.69204c14.83908,-0.37575 28.87917,6.54636 28.87917,6.54636v36.66189z" data-paper-data="{&quot;origPos&quot;:null}" fill="#343434"/><path d="M187.50551,149.14696l0.02714,-36.66189c0,0 19.2982,-6.92211 34.17828,-6.54636c14.91819,0.37672 24.73171,11.28088 36.76006,11.51099c12.02835,0.23011 29.17525,-11.07495 29.17525,-11.07495l0.09455,42.77221z" data-paper-data="{&quot;origPos&quot;:null,&quot;index&quot;:null}" fill="#3b3b3b"/></g><path d="M93.63117,89.11982v-163.63364h119.86856v163.63364z" fill="none"/></g><path d="M202.41437,111.21353h64.30971c4.55211,0 8.24261,3.7968 8.24261,8.48068v25.61199c0,4.6836 -3.6905,8.48069 -8.24261,8.48069h-64.30971c-4.55226,0 -8.24261,-3.79709 -8.24261,-8.48069v-25.61199c0,-4.68389 3.69035,-8.48068 8.24261,-8.48068z" fill="#636363" fill-rule="evenodd" stroke-width="1" stroke-linecap="round" stroke-linejoin="round" opacity="0.0863"/><path d="M128.92438,108.00558v-105.25484h90.90191v105.25485z" fill="none" fill-rule="nonzero" stroke-width="0" stroke-linecap="butt" stroke-linejoin="miter"/><path d="M222.0961,83.49594c0,-9.2877 7.71738,-16.81683 17.23725,-16.81683c9.51988,0 17.23725,7.52915 17.23725,16.81683c0,9.2877 -7.71737,16.81682 -17.23725,16.81682c-9.51986,0 -17.23725,-7.52914 -17.23725,-16.81682z" fill="#e03838" fill-rule="nonzero" stroke-width="0" stroke-linecap="butt" stroke-linejoin="miter"/><path d="M252.69599,92.28113c-4.97324,7.56449 -14.98748,9.76344 -22.36745,4.9115c-7.37998,-4.85194 -9.33104,-14.91743 -4.35782,-22.48188c4.97324,-7.56449 14.98748,-9.76344 22.36745,-4.9115c7.37998,4.85194 9.33104,14.91743 4.35782,22.48188z" data-paper-data="{&quot;index&quot;:null}" fill="url(#color-3)" fill-rule="nonzero" stroke-width="0" stroke-linecap="butt" stroke-linejoin="miter"/><path d="M229.31897,84.40832c0,-6.61416 5.49587,-11.97597 12.27537,-11.97597c6.77949,0 12.27536,5.36183 12.27536,11.97597c0,6.61417 -5.49587,11.97597 -12.27536,11.97597c-6.77949,0 -12.27537,-5.36182 -12.27537,-11.97597z" fill="#ffffff" fill-rule="nonzero" stroke-width="0" stroke-linecap="butt" stroke-linejoin="miter"/><path d="M236.5358,84.82927c0,-3.24317 2.69483,-5.87228 6.01908,-5.87228c3.32425,0 6.01909,2.6291 6.01909,5.87228c0,3.24317 -2.69484,5.87227 -6.01909,5.87227c-3.32425,0 -6.01908,-2.6291 -6.01908,-5.87227z" fill="#000000" fill-rule="nonzero" stroke-width="0" stroke-linecap="butt" stroke-linejoin="miter"/><g fill="#ffffff" fill-rule="evenodd" stroke-width="1" stroke-linecap="round" stroke-linejoin="round"><path d="M217.97082,131.86972c0,0.97931 -0.54616,1.31829 -1.54429,1.31829l-5.59333,-0.03767c0.226,1.3748 1.3183,2.10927 2.69309,2.10927c0.67798,0 0.99813,-0.15067 1.56312,-0.39549c0.33899,-0.15066 0.60265,-0.30132 0.9228,-0.30132c0.52732,0 0.84748,0.37665 0.84748,0.84748c0,0.30132 -0.13183,0.64031 -0.60265,1.0358c-0.69681,0.48965 -1.63845,0.80981 -2.82492,0.80981c-2.50476,0 -5.16019,-1.54429 -5.16019,-4.97186c0,-3.3899 2.80609,-5.02835 4.95302,-5.02835c2.14694,0 4.74586,1.69495 4.74586,4.61403zM210.83319,131.4554h4.70819c-0.18833,-1.45013 -1.24296,-2.05277 -2.31643,-2.05277c-1.07347,0 -2.22227,0.60265 -2.39176,2.05277z"/><path d="M205.88025,128.25382c0.113,0.1695 0.30132,0.43316 0.30132,0.82865c0,0.60265 -0.41432,0.9228 -0.96048,0.9228c-0.35782,0 -0.71564,-0.13183 -1.0358,-0.52732c-0.37665,-0.43315 -0.80981,-0.64031 -1.35596,-0.64031c-0.73448,0 -1.16764,0.35782 -1.16764,0.88514c0,0.30132 0.113,0.69681 0.97931,0.94163l1.1488,0.33899c1.50663,0.41432 2.76842,1.12997 2.76842,2.80609c0,2.07161 -1.92094,3.06974 -3.87955,3.06974c-1.69495,0 -2.71192,-0.71564 -3.23924,-1.35596c-0.09417,-0.13183 -0.50849,-0.60265 -0.50849,-1.18646c0,-0.41432 0.26366,-0.94164 0.94164,-0.94164c0.50849,0 0.79097,0.32016 1.01697,0.60265c0.54615,0.67798 1.1488,0.86631 1.78912,0.86631c0.92281,0 1.4313,-0.39549 1.4313,-0.92281c0,-0.32015 -0.20716,-0.73448 -1.11114,-0.99813l-1.07347,-0.32016c-1.90211,-0.52732 -2.69309,-1.54429 -2.69309,-2.88142c0,-1.88328 1.73261,-2.86258 3.52173,-2.86258c1.28063,0 2.50477,0.50848 3.12625,1.37479z"/><path d="M221.22889,137.25589c-0.67798,0 -1.24296,-0.54615 -1.24296,-1.22413v-11.09251c0,-0.65914 0.56499,-1.22413 1.24296,-1.22413c0.65914,0 1.22413,0.56498 1.22413,1.22413v11.09251c0,0.67798 -0.56499,1.22413 -1.22413,1.22413z"/><path d="M233.79035,131.86972c0,0.97931 -0.54615,1.31829 -1.54428,1.31829l-5.59334,-0.03767c0.226,1.3748 1.3183,2.10927 2.69309,2.10927c0.67798,0 0.99813,-0.15067 1.56312,-0.39549c0.33899,-0.15066 0.60265,-0.30132 0.9228,-0.30132c0.52732,0 0.84748,0.37665 0.84748,0.84748c0,0.30132 -0.13182,0.64031 -0.60264,1.0358c-0.69681,0.48965 -1.63845,0.80981 -2.82492,0.80981c-2.50476,0 -5.16018,-1.54429 -5.16018,-4.97186c0,-3.3899 2.80608,-5.02835 4.95302,-5.02835c2.14694,0 4.74586,1.69495 4.74586,4.61403zM226.65273,131.4554h4.70819c-0.18833,-1.45013 -1.24296,-2.05277 -2.31643,-2.05277c-1.07347,0 -2.22227,0.60265 -2.39176,2.05277z"/><path d="M243.7718,135.44795c0,0.60265 -0.45199,0.90397 -0.69681,1.12996c-0.79098,0.69681 -1.71379,1.05463 -2.93792,1.05463c-2.27876,0 -5.02836,-1.63845 -5.02836,-4.99068c0,-3.37107 2.74959,-5.00952 5.02836,-5.00952c1.22413,0 2.14694,0.33899 2.93792,1.0358c0.24482,0.24482 0.69681,0.54615 0.69681,1.1488c0,0.58381 -0.48965,0.94164 -0.99814,0.94164c-0.45199,0 -0.80982,-0.26365 -0.96048,-0.39549c-0.43315,-0.41432 -1.07346,-0.58382 -1.58195,-0.58382c-1.48779,0 -2.67426,1.0358 -2.67426,2.86258c0,1.80794 1.18647,2.84375 2.67426,2.84375c0.50849,0 1.14879,-0.1695 1.58195,-0.58382c0.15066,-0.13183 0.50849,-0.39549 0.96048,-0.39549c0.50849,0 0.99814,0.35783 0.99814,0.94164z"/><path d="M250.94709,136.31425c0,0.86631 -0.84748,1.3183 -2.12811,1.3183c-1.28063,0 -2.58009,-0.41432 -2.58009,-3.03207v-4.91536h-0.54615c-0.60265,0 -0.99814,-0.39549 -0.99814,-0.96047c0,-0.58381 0.39549,-0.9793 0.99814,-0.9793h0.54615v-1.28063c0,-0.67798 0.56499,-1.24296 1.24296,-1.24296c0.67798,0 1.22413,0.56498 1.22413,1.24296v1.28063h1.24296c0.62148,0 0.99813,0.39549 0.99813,0.9793c0,0.56499 -0.37665,0.96047 -0.99813,0.96047h-1.24296v4.99069c0,0.54615 0.18833,0.82864 0.60265,0.82864c0.20716,0 0.50849,-0.07533 0.71564,-0.07533c0.56499,-0.03767 0.92281,0.30132 0.92281,0.88514z"/><path d="M262.02821,131.86406c0,0.97931 -0.54615,1.31829 -1.54429,1.31829l-5.59334,-0.03767c0.226,1.3748 1.31829,2.10927 2.69308,2.10927c0.67798,0 0.99814,-0.15067 1.56313,-0.39549c0.33899,-0.15066 0.60265,-0.30133 0.92281,-0.30133c0.52732,0 0.84747,0.37665 0.84747,0.84748c0,0.30132 -0.13183,0.64032 -0.60265,1.03581c-0.69682,0.48965 -1.63845,0.80981 -2.82492,0.80981c-2.50476,0 -5.16018,-1.54429 -5.16018,-4.97186c0,-3.3899 2.80609,-5.02836 4.95302,-5.02836c2.14694,0 4.74586,1.69495 4.74586,4.61404zM254.89059,131.44974h4.7082c-0.18833,-1.45013 -1.24296,-2.05277 -2.31643,-2.05277c-1.07347,0 -2.22227,0.60264 -2.39177,2.05277z"/><path d="M272.66873,125.68691v11.11134c0,0.67798 -0.60265,1.22413 -1.2618,1.22413c-0.67798,0 -1.24297,-0.54615 -1.24297,-1.22413v-0.35782c-0.15066,0.58381 -1.1488,1.60079 -2.78725,1.60079c-2.0716,0 -4.55746,-1.60079 -4.55746,-5.02836c0,-3.35224 2.50468,-5.00952 4.55746,-5.00952c1.33713,0 2.4106,0.71565 2.78725,1.60079v-0.32016c0,-0.07533 0,-0.13183 0.01884,-0.20716v-3.3899c0,-0.65914 0.56499,-1.22413 1.22413,-1.22413c0.67798,0 1.2618,0.56499 1.2618,1.22413zM270.27697,133.01286c0,-2.12811 -1.39362,-2.90025 -2.44826,-2.90025c-1.24297,0 -2.54243,0.9793 -2.54243,2.90025c0,1.93977 1.29946,2.90025 2.54243,2.90025c1.05463,0 2.44826,-0.77214 2.44826,-2.90025z"/></g></g></g></svg>