<svg version="1.1" xmlns="http://www.w3.org/2000/svg" xmlns:xlink="http://www.w3.org/1999/xlink" width="21.97817" height="23.85913" viewBox="0,0,21.97817,23.85913"><g transform="translate(-229.01093,-168.07044)"><g data-paper-data="{&quot;isPaintingLayer&quot;:true}" stroke="none" stroke-miterlimit="10" stroke-dasharray="" stroke-dashoffset="0" style="mix-blend-mode: normal"><path d="" fill="#000000" fill-rule="nonzero" stroke-width="0.5" stroke-linecap="butt" stroke-linejoin="miter"/><path d="" fill="#000000" fill-rule="nonzero" stroke-width="0.5" stroke-linecap="butt" stroke-linejoin="miter"/><path d="M229.01214,180.94109c0,-6.06878 4.91969,-10.98848 10.98848,-10.98848c6.06878,0 10.98848,4.9197 10.98848,10.98848c0,6.06878 -4.9197,10.98848 -10.98848,10.98848c-6.06878,0 -10.98848,-4.91968 -10.98848,-10.98848z" fill="#ffc310" fill-rule="evenodd" stroke-width="1" stroke-linecap="round" stroke-linejoin="round"/><path d="M229.01093,179.05892c0,-6.06878 4.9197,-10.98848 10.98848,-10.98848c6.06878,0 10.98848,4.91969 10.98848,10.98848c0,6.06878 -4.9197,10.98848 -10.98848,10.98848c-6.06878,0 -10.98848,-4.9197 -10.98848,-10.98848z" fill="#fff45e" fill-rule="evenodd" stroke-width="1" stroke-linecap="round" stroke-linejoin="round"/><path d="M231.46096,178.95846c0,-4.67388 3.78882,-8.46271 8.46268,-8.46271c4.67388,0 8.46271,3.78882 8.46271,8.46271c0,4.67388 -3.78882,8.46268 -8.46271,8.46268c-4.67388,0 -8.46268,-3.78883 -8.46268,-8.46268z" fill="#ffbe1b" fill-rule="evenodd" stroke-width="1" stroke-linecap="round" stroke-linejoin="round"/></g></g></svg>