<svg version="1.1" xmlns="http://www.w3.org/2000/svg" xmlns:xlink="http://www.w3.org/1999/xlink" width="354.58021" height="57.75071" viewBox="0,0,354.58021,57.75071"><g transform="translate(-69.83625,-25.25096)"><g data-paper-data="{&quot;isPaintingLayer&quot;:true}" fill="#ffffff" stroke="none" stroke-miterlimit="10" stroke-dasharray="" stroke-dashoffset="0" style="mix-blend-mode: normal"><path d="M105.3521,61.5645c0,2.02423 -1.41083,3.37373 -3.68043,4.84589c-2.57605,1.59485 -5.94977,2.63763 -10.12092,2.63763c-10.85725,0 -21.7145,-8.9557 -21.7145,-21.89853c0,-12.94283 10.9186,-21.89853 21.59183,-21.89853c4.29383,0 7.66755,1.10413 10.2436,2.63763c2.2696,1.47218 3.68043,2.82166 3.68043,4.84589c0,2.39228 -1.90155,3.74176 -3.86445,3.74176c-1.53326,0 -2.63739,-0.79743 -3.31214,-1.28816c-0.92011,-0.61341 -3.18971,-2.08557 -6.62477,-2.08557c-6.93147,0 -13.06551,6.13404 -13.06551,14.04696c0,7.91291 6.0727,14.04696 13.12685,14.04696c3.31239,0 5.64332,-1.47217 6.56342,-2.08558c0.67475,-0.49072 1.71753,-1.28815 3.31214,-1.28815c1.9629,0 3.86445,1.34949 3.86445,3.74177z" fill-rule="evenodd" stroke-width="1" stroke-linecap="round" stroke-linejoin="round"/><path d="M142.24164,51.74693c0,10.97993 -9.38509,16.31656 -16.37789,16.31656c-7.05415,0 -16.37789,-5.33661 -16.37789,-16.31656c0,-10.9186 9.32374,-16.37789 16.37789,-16.37789c6.99281,0 16.37789,5.45929 16.37789,16.37789zM117.46011,51.74693c0,5.88869 4.04846,9.32375 8.40364,9.32375c4.29383,0 8.40364,-3.43506 8.40364,-9.32375c0,-5.95001 -4.10981,-9.38509 -8.40364,-9.38509c-4.35516,0 -8.40364,3.43506 -8.40364,9.38509z" fill-rule="evenodd" stroke-width="1" stroke-linecap="round" stroke-linejoin="round"/><path d="M176.92538,50.09074v13.86294c0,2.20825 -1.84021,3.98713 -4.04846,3.98713c-2.14691,0 -3.98713,-1.77887 -3.98713,-3.98713v-13.86293c0,-5.52064 -2.883,-7.79024 -6.50208,-7.79024c-5.52064,0 -7.36085,5.15259 -7.60622,6.87013v14.78303c0,2.20826 -1.84021,3.98713 -3.98713,3.98713c-2.20826,0 -4.04846,-1.77887 -4.04846,-3.98713v-24.35215c0,-2.20826 1.8402,-4.04846 4.04846,-4.04846c2.14691,0 3.98713,1.84021 3.98713,4.04847v3.06703c0.24535,-2.20826 3.86445,-7.23817 10.48922,-7.23817c6.19538,0 11.65468,4.04847 11.65468,14.66036z" fill-rule="evenodd" stroke-width="1" stroke-linecap="round" stroke-linejoin="round"/><path d="M213.92538,51.09074v13.86293c0,2.20826 -1.84021,3.98713 -4.04846,3.98713c-2.14691,0 -3.98713,-1.77888 -3.98713,-3.98713v-13.86293c0,-5.52064 -2.883,-7.79024 -6.50208,-7.79024c-5.52064,0 -7.36085,5.15259 -7.60622,6.87012v14.78303c0,2.20826 -1.84021,3.98713 -3.98713,3.98713c-2.20826,0 -4.04846,-1.77888 -4.04846,-3.98713v-24.35215c0,-2.20826 1.8402,-4.04846 4.04846,-4.04846c2.14691,0 3.98713,1.84021 3.98713,4.04847v3.06703c0.24535,-2.20826 3.86445,-7.23817 10.48922,-7.23817c6.19538,0 11.65468,4.04847 11.65468,14.66036z" fill-rule="evenodd" stroke-width="1" stroke-linecap="round" stroke-linejoin="round"/><path d="M249.678,51.19024c0,3.18971 -1.77888,4.29384 -5.02992,4.29384l-18.21811,-0.12268c0.73608,4.47785 4.29383,6.87012 8.77168,6.87012c2.20826,0 3.25104,-0.49073 5.09126,-1.28815c1.10413,-0.49072 1.9629,-0.98145 3.00568,-0.98145c1.71753,0 2.76033,1.22681 2.76033,2.76033c0,0.98145 -0.42938,2.08558 -1.9629,3.37373c-2.2696,1.59485 -5.33661,2.63764 -9.20107,2.63764c-8.15827,0 -16.80727,-5.02991 -16.80727,-16.19387c0,-11.04127 9.13972,-16.3779 16.13254,-16.3779c6.99281,0 15.45779,5.52064 15.45779,15.02841zM226.42998,49.84074h15.33511c-0.61341,-4.72321 -4.04847,-6.68611 -7.54487,-6.68611c-3.4964,0 -7.23817,1.9629 -7.79024,6.68611z" fill-rule="evenodd" stroke-width="1" stroke-linecap="round" stroke-linejoin="round"/><path d="M281.45633,62.61811c0,1.9629 -1.47218,2.94434 -2.2696,3.68043c-2.5763,2.2696 -5.58198,3.43506 -9.5691,3.43506c-7.42219,0 -16.37789,-5.33662 -16.37789,-16.25522c0,-10.97993 8.9557,-16.31655 16.37789,-16.31655c3.98713,0 6.99281,1.10413 9.5691,3.37373c0.79742,0.79742 2.2696,1.77888 2.2696,3.74176c0,1.90155 -1.59486,3.06703 -3.25104,3.06703c-1.47217,0 -2.63763,-0.85877 -3.12836,-1.28815c-1.41083,-1.34949 -3.4964,-1.90155 -5.15259,-1.90155c-4.84589,0 -8.71034,3.37373 -8.71034,9.32374c0,5.88869 3.86445,9.2624 8.71034,9.2624c1.6562,0 3.74176,-0.55207 5.15259,-1.90155c0.49072,-0.42938 1.6562,-1.28815 3.12836,-1.28815c1.6562,0 3.25104,1.16547 3.25104,3.06702z" fill-rule="evenodd" stroke-width="1" stroke-linecap="round" stroke-linejoin="round"/><path d="M304.87852,65.04827c0,2.82166 -2.76032,4.29383 -6.93146,4.29383c-4.17115,0 -8.40365,-1.34948 -8.40365,-9.8758v-16.00986h-1.77887c-1.9629,0 -3.25104,-1.28814 -3.25104,-3.12835c0,-1.90155 1.28815,-3.18971 3.25104,-3.18971h1.77887v-4.17115c0,-2.20826 1.84021,-4.04846 4.04847,-4.04846c2.20826,0 3.98713,1.84021 3.98713,4.04846v4.17115h4.04846c2.02423,0 3.25104,1.28815 3.25104,3.18971c0,1.84021 -1.22681,3.12835 -3.25104,3.12835h-4.04846v16.25522c0,1.77888 0.6134,2.69898 1.9629,2.69898c0.67475,0 1.6562,-0.24536 2.33093,-0.24536c1.84021,-0.12268 3.00568,0.98145 3.00568,2.883z" fill-rule="evenodd" stroke-width="1" stroke-linecap="round" stroke-linejoin="round"/><path d="M312.48456,30.00356c0,-2.14691 1.90156,-3.98713 4.10981,-3.98713c2.14691,0 4.04846,1.8402 4.04846,3.98713c0,2.14691 -1.90155,3.98714 -4.04846,3.98714c-2.20826,0 -4.10981,-1.84021 -4.10981,-3.98714zM320.58149,42.39432v24.29081c0,2.2696 -1.84021,4.10981 -3.98713,4.10981c-2.20826,0 -4.04846,-1.8402 -4.04846,-4.10981v-24.29081c0,-2.20826 1.84021,-4.04846 4.04846,-4.04846c2.14691,0 3.98713,1.8402 3.98713,4.04846z" fill-rule="evenodd" stroke-width="1" stroke-linecap="round" stroke-linejoin="round"/><path d="M357.66712,52.88354v13.86293c0,2.20826 -1.84021,3.98713 -4.04847,3.98713c-2.14691,0 -3.98713,-1.77888 -3.98713,-3.98713v-13.86293c0,-5.52064 -2.883,-7.79024 -6.50208,-7.79024c-5.52064,0 -7.36085,5.15259 -7.60622,6.87012v14.78304c0,2.20826 -1.84021,3.98713 -3.98713,3.98713c-2.20826,0 -4.04846,-1.77887 -4.04846,-3.98713v-24.35215c0,-2.20826 1.84021,-4.04847 4.04846,-4.04847c2.14691,0 3.98713,1.84021 3.98713,4.04847v3.06703c0.24536,-2.20826 3.86445,-7.23817 10.48921,-7.23817c6.19538,0 11.65468,4.04847 11.65468,14.66036z" fill-rule="evenodd" stroke-width="1" stroke-linecap="round" stroke-linejoin="round"/><path d="M392.64471,66.8078c0,0.3067 -0.06134,0.61341 -0.12268,0.92011v2.08558c0,9.99849 -9.32374,13.18818 -15.82583,13.18818c-3.80311,0 -6.87012,-1.04278 -8.21962,-1.6562c-1.71753,-0.73608 -2.63763,-1.9629 -2.63763,-3.43506c0,-1.84021 1.47217,-3.18971 3.1897,-3.18971c0.36805,0 0.85878,0.06134 1.6562,0.3067c1.22681,0.3067 3.31238,1.04278 6.07271,1.04278c4.96858,0 7.72889,-2.63764 7.72889,-6.25672v-4.17116c-0.49072,1.90155 -3.74176,5.21394 -9.07837,5.21394c-6.74744,0 -14.84438,-5.21394 -14.84438,-16.37789c0,-10.9186 8.15828,-16.31655 14.84438,-16.31655c4.35516,0 7.85157,2.33093 9.07837,5.21393v-1.04278c0,-2.14691 1.84021,-3.98714 4.04847,-3.98714c2.14691,0 4.10981,1.84021 4.10981,3.98714zM384.85447,54.47839c0,-6.93147 -4.53919,-9.44642 -7.97425,-9.44642c-4.04846,0 -8.28096,3.1897 -8.28096,9.44642c0,6.31806 4.23248,9.44643 8.28096,9.44643c3.43506,0 7.97425,-2.51496 7.97425,-9.44643z" fill-rule="evenodd" stroke-width="1" stroke-linecap="round" stroke-linejoin="round"/><path d="M397.26178,75.36372c0,-3.21835 2.60898,-5.82734 5.82734,-5.82734c3.21836,0 5.82734,2.60899 5.82734,5.82734c0,3.21835 -2.60898,5.82734 -5.82734,5.82734c-3.21835,0 -5.82734,-2.60899 -5.82734,-5.82734z" fill-rule="nonzero" stroke-width="0" stroke-linecap="butt" stroke-linejoin="miter"/><path d="M412.76178,75.36372c0,-3.21836 2.60898,-5.82734 5.82734,-5.82734c3.21835,0 5.82734,2.60898 5.82734,5.82734c0,3.21836 -2.60899,5.82734 -5.82734,5.82734c-3.21835,0 -5.82734,-2.60898 -5.82734,-5.82734z" fill-rule="nonzero" stroke-width="0" stroke-linecap="butt" stroke-linejoin="miter"/></g></g></svg>