<svg version="1.1" xmlns="http://www.w3.org/2000/svg" xmlns:xlink="http://www.w3.org/1999/xlink" width="431.85397" height="155.2603" viewBox="0,0,431.85397,155.2603"><g transform="translate(-28.38591,-12.33822)"><g data-paper-data="{&quot;isPaintingLayer&quot;:true}" fill="#ffffff" fill-rule="evenodd" stroke="none" stroke-width="1" stroke-linecap="round" stroke-linejoin="round" stroke-miterlimit="10" stroke-dasharray="" stroke-dashoffset="0" style="mix-blend-mode: normal"><g><path d="M76.07514,18.01159v47.19588c0,3.53557 -2.30224,5.4267 -5.18004,5.4267c-2.38447,0 -4.27559,-1.23334 -5.7556,-3.2889l-25.48906,-34.69802v32.31355c0,3.04225 -2.46668,5.67337 -5.50893,5.67337c-3.20669,0 -5.7556,-2.63114 -5.7556,-5.67337v-47.2781c0,-3.45336 2.30224,-5.34449 5.26226,-5.34449c2.38447,0 4.27559,1.23334 5.67337,3.20669l25.48906,34.78025v-32.31355c0,-3.04225 2.54891,-5.67337 5.59116,-5.67337c3.20669,0 5.67337,2.63114 5.67337,5.67337z"/><path d="M129.09898,45.71507c0,4.27559 -2.38447,5.7556 -6.74227,5.7556l-24.42018,-0.16444c0.98667,6.00227 5.7556,9.20894 11.75785,9.20894c2.96002,0 4.3578,-0.65778 6.8245,-1.72668c1.48001,-0.65778 2.63114,-1.31557 4.02892,-1.31557c2.30224,0 3.70003,1.64445 3.70003,3.70003c0,1.31557 -0.57555,2.79558 -2.63114,4.52226c-3.04225,2.13779 -7.15338,3.53557 -12.33342,3.53557c-10.93563,0 -22.52904,-6.74227 -22.52904,-21.70681c0,-14.8001 12.25119,-21.95348 21.6246,-21.95348c9.3734,0 20.72014,7.40005 20.72014,20.14459zM97.93654,43.90616h20.5557c-0.82223,-6.33115 -5.4267,-8.96229 -10.1134,-8.96229c-4.6867,0 -9.70229,2.63114 -10.4423,8.96229z"/><path d="M172.68692,66.62926c0,2.63114 -2.38447,4.76891 -4.93337,4.76891c-1.56224,0 -2.79558,-0.82223 -3.78225,-1.97335l-10.19563,-12.66231l-10.19563,12.66231c-0.98667,1.15113 -2.22002,1.97335 -3.78225,1.97335c-2.54891,0 -4.93337,-2.13779 -4.93337,-4.76891c0,-1.0689 0.41111,-2.05556 1.0689,-2.87779l11.84008,-14.14232l-11.67564,-13.97788c-0.65778,-0.82223 -1.0689,-1.72668 -1.0689,-2.87779c0,-2.63114 2.38447,-4.76891 4.93337,-4.76891c1.56224,0 2.87779,0.74001 3.78225,1.97335l10.03119,12.41564l10.03119,-12.41564c0.98667,-1.23334 2.22002,-1.97335 3.78225,-1.97335c2.46668,0 4.85114,2.13779 4.85114,4.76891c0,1.15113 -0.32888,2.05556 -1.0689,2.87779l-11.59341,13.97788l11.75785,14.14232c0.74001,0.82223 1.15113,1.80889 1.15113,2.87779z"/><path d="M206.55055,66.23201c0,3.78225 -3.70003,5.7556 -9.29117,5.7556c-5.59116,0 -11.26453,-1.80889 -11.26453,-13.23786v-21.46016h-2.38447c-2.63114,0 -4.3578,-1.72668 -4.3578,-4.19336c0,-2.54891 1.72668,-4.27559 4.3578,-4.27559h2.38447v-5.59116c0,-2.96002 2.46668,-5.4267 5.4267,-5.4267c2.96002,0 5.34449,2.46668 5.34449,5.4267v5.59116h5.4267c2.71335,0 4.3578,1.72668 4.3578,4.27559c0,2.46668 -1.64445,4.19336 -4.3578,4.19336h-5.4267v21.78904c0,2.38447 0.82223,3.6178 2.63114,3.6178c0.90446,0 2.22002,-0.32888 3.12446,-0.32888c2.46668,-0.16444 4.02892,1.31557 4.02892,3.86448z"/><path d="M285.20443,63.59295c0,0.41111 -0.08223,0.82223 -0.16444,1.23334v2.79558c0,13.40232 -12.49787,17.67789 -21.21348,17.67789c-5.09781,0 -9.20894,-1.39778 -11.01786,-2.22002c-2.30224,-0.98667 -3.53557,-2.63114 -3.53557,-4.60447c0,-2.46668 1.97335,-4.27559 4.27559,-4.27559c0.49334,0 1.15113,0.08223 2.22002,0.41111c1.64445,0.41111 4.44003,1.39778 8.14006,1.39778c6.66005,0 10.36007,-3.53557 10.36007,-8.38672v-5.59116c-0.65778,2.54891 -5.01559,6.98894 -12.16896,6.98894c-9.0445,0 -19.89792,-6.98894 -19.89792,-21.95348c0,-14.63566 10.93563,-21.87127 19.89792,-21.87127c5.83781,0 10.52451,3.12446 12.16896,6.98894v-1.39778c0,-2.87779 2.46668,-5.34449 5.4267,-5.34449c2.87779,0 5.50893,2.46668 5.50893,5.34449zM274.76213,47.06619c0,-9.29117 -6.08448,-12.66231 -10.68895,-12.66231c-5.4267,0 -11.10008,4.27559 -11.10008,12.66231c0,8.46895 5.67337,12.66231 11.10008,12.66231c4.60447,0 10.68895,-3.37113 10.68895,-12.66231z"/><path d="M334.48471,39.47107v32.80689c0,2.96002 -2.63114,5.34449 -5.50893,5.34449c-2.96002,0 -5.4267,-2.38447 -5.4267,-5.34449v-1.56224c-0.65778,2.54891 -5.01559,6.98894 -12.16896,6.98894c-9.0445,0 -19.89792,-6.98894 -19.89792,-21.95348c0,-14.63566 10.93563,-21.87127 19.89792,-21.87127c5.83781,0 10.52451,3.12446 12.16896,6.98894v-1.39778c0,-2.87779 2.46668,-5.34449 5.4267,-5.34449c2.87779,0 5.50893,2.46668 5.50893,5.34449zM324.04243,55.75118c0,-9.29117 -6.08448,-12.66231 -10.68895,-12.66231c-5.4267,0 -11.10008,4.27559 -11.10008,12.66231c0,8.46895 5.67337,12.66231 11.10008,12.66231c4.60447,0 10.68895,-3.37113 10.68895,-12.66231z"/><path d="M411.14635,53.61339v18.58235c0,2.96002 -2.46668,5.34449 -5.4267,5.34449c-2.87779,0 -5.34449,-2.38447 -5.34449,-5.34449v-18.58235c0,-7.40005 -3.86448,-10.4423 -8.71562,-10.4423c-7.40005,0 -9.94896,6.90671 -10.19563,9.20894v-0.08223v1.31557v18.58235c0,2.96002 -2.46668,5.34449 -5.4267,5.34449c-2.87779,0 -5.34449,-2.38447 -5.34449,-5.34449v-18.58235c0,-7.40005 -3.86448,-10.4423 -8.71562,-10.4423c-7.40005,0 -9.86673,6.90671 -10.19563,9.20894v19.81569c0,2.96002 -2.46668,5.34449 -5.34449,5.34449c-2.96002,0 -5.4267,-2.38447 -5.4267,-5.34449v-32.64245c0,-2.96002 2.46668,-5.4267 5.4267,-5.4267c2.87779,0 5.34449,2.46668 5.34449,5.4267v4.11115c0.32888,-2.96002 5.18004,-9.70229 14.06011,-9.70229c6.16671,0 11.75785,2.96002 14.22455,10.27784c2.30224,-5.09781 7.48228,-10.27784 15.45789,-10.27784c8.30451,0 15.62233,5.4267 15.62233,19.65124z"/><path d="M460.23988,54.0245c0,4.27559 -2.38447,5.7556 -6.74227,5.7556l-24.42018,-0.16444c0.98667,6.00227 5.7556,9.20894 11.75785,9.20894c2.96002,0 4.3578,-0.65778 6.8245,-1.72668c1.48001,-0.65778 2.63114,-1.31557 4.02892,-1.31557c2.30224,0 3.70003,1.64445 3.70003,3.70003c0,1.31557 -0.57555,2.79558 -2.63114,4.52226c-3.04225,2.13779 -7.15338,3.53557 -12.33342,3.53557c-10.93563,0 -22.52904,-6.74227 -22.52904,-21.70681c0,-14.8001 12.25119,-21.95348 21.6246,-21.95348c9.3734,0 20.72014,7.40005 20.72014,20.14459zM429.07744,52.21559h20.5557c-0.82223,-6.33115 -5.4267,-8.96229 -10.1134,-8.96229c-4.6867,0 -9.70229,2.63114 -10.4423,8.96229z"/><path d="M199.20682,97.03903c0,-3.71365 3.28924,-6.8968 7.109,-6.8968c3.71365,0 7.00289,3.18313 7.00289,6.8968c0,3.71365 -3.28924,6.8968 -7.00289,6.8968c-3.81976,0 -7.109,-3.18313 -7.109,-6.8968zM213.2126,118.47213v42.01738c0,3.92588 -3.18313,7.109 -6.8968,7.109c-3.81976,0 -7.00289,-3.18313 -7.00289,-7.109v-42.01738c0,-3.81976 3.18313,-7.00289 7.00289,-7.00289c3.71365,0 6.8968,3.18313 6.8968,7.00289z"/><path d="M279.6154,136.61601v23.97962c0,3.81976 -3.18313,6.8968 -7.00289,6.8968c-3.71365,0 -6.8968,-3.07704 -6.8968,-6.8968v-23.97962c0,-9.54941 -4.98692,-13.47528 -11.24708,-13.47528c-9.54941,0 -12.73253,8.91277 -13.15696,11.88369v25.57118c0,3.81976 -3.18313,6.8968 -6.8968,6.8968c-3.81976,0 -7.00289,-3.07704 -7.00289,-6.8968v-42.1235c0,-3.81976 3.18313,-7.00289 7.00289,-7.00289c3.71365,0 6.8968,3.18313 6.8968,7.00289v5.30524c0.42441,-3.81976 6.6846,-12.52033 18.14388,-12.52033c10.71656,0 20.15985,7.00289 20.15985,25.35898z"/></g></g></g></svg>