<svg version="1.1" xmlns="http://www.w3.org/2000/svg" xmlns:xlink="http://www.w3.org/1999/xlink" width="21.47451" height="20.97512" viewBox="0,0,21.47451,20.97512"><defs><linearGradient x1="245.34798" y1="171.86549" x2="234.65201" y2="188.13451" gradientUnits="userSpaceOnUse" id="color-1"><stop offset="0" stop-color="#a52929" stop-opacity="0"/><stop offset="1" stop-color="#a52929"/></linearGradient></defs><g transform="translate(-229.26275,-169.51244)"><g data-paper-data="{&quot;isPaintingLayer&quot;:true}" fill-rule="nonzero" stroke-linecap="butt" stroke-linejoin="miter" stroke-miterlimit="10" stroke-dasharray="" stroke-dashoffset="0" style="mix-blend-mode: normal"><path d="" fill="#000000" stroke="none" stroke-width="0.5"/><path d="" fill="#000000" stroke="none" stroke-width="0.5"/><path d="M229.76275,180c0,-5.51599 4.58337,-9.98756 10.23725,-9.98756c5.65388,0 10.23725,4.47158 10.23725,9.98756c0,5.51599 -4.58337,9.98756 -10.23725,9.98756c-5.65387,0 -10.23725,-4.47158 -10.23725,-9.98756z" fill="#e03838" stroke="#e7edf3" stroke-width="1"/><path d="M247.93611,185.21755c-2.95362,4.49257 -8.90111,5.79853 -13.28409,2.91695c-4.38299,-2.88158 -5.54173,-8.8595 -2.58812,-13.35205c2.95362,-4.49257 8.90111,-5.79853 13.28409,-2.91695c4.38299,2.88158 5.54173,8.8595 2.58812,13.35205z" data-paper-data="{&quot;index&quot;:null}" fill="url(#color-1)" stroke="none" stroke-width="0"/></g></g></svg>