<svg version="1.1" xmlns="http://www.w3.org/2000/svg" xmlns:xlink="http://www.w3.org/1999/xlink" width="413.67011" height="317.95724" viewBox="0,0,413.67011,317.95724"><g transform="translate(-33.16495,-21.02138)"><g data-paper-data="{&quot;isPaintingLayer&quot;:true}" fill="#fa4848" fill-rule="evenodd" stroke="none" stroke-width="1" stroke-linecap="round" stroke-linejoin="round" stroke-miterlimit="10" stroke-dasharray="" stroke-dashoffset="0" style="mix-blend-mode: normal"><g><path d="M63.64942,51.78986c0,1.56209 -1.32541,2.8875 -3.07685,2.8875c-1.42008,0 -2.55615,-0.80471 -3.07685,-2.03545l-2.36681,-5.58566h-13.44346l-2.36681,5.58566c-0.5207,1.23074 -1.65676,2.03545 -3.02951,2.03545c-1.75144,0 -3.12418,-1.32541 -3.12418,-2.8875c0,-0.66271 0.18934,-1.27808 0.42603,-1.79877l11.73936,-26.46089c0.66271,-1.60943 1.65676,-2.36681 3.07685,-2.36681c1.42008,0 2.41414,0.75738 3.12418,2.36681l11.73936,26.46089c0.23668,0.5207 0.37869,1.13607 0.37869,1.79877zM52.95145,41.99128l-4.54427,-10.69796l-4.54427,10.69796z"/><path d="M92.47711,44.83145c0,5.72767 -4.16558,9.65657 -12.21272,9.65657h-8.61517c-2.03545,0 -3.50287,-1.46742 -3.50287,-3.50287v-26.12953c0,-2.03545 1.46742,-3.50287 3.50287,-3.50287h8.14181c5.86968,0 10.41394,2.79283 10.41394,8.33116c0,2.69816 -1.13607,5.15964 -4.40226,6.39038c5.01763,1.89344 6.67439,5.01763 6.67439,8.75718zM74.53672,34.32283h5.25431c2.60349,0 4.21291,-1.56209 4.21291,-3.88156c0,-2.36681 -1.60943,-3.69222 -4.21291,-3.69222h-5.25431zM86.27608,44.26341c0,-2.60349 -1.56209,-5.06496 -6.01169,-5.06496h-5.72767v9.89325h5.72767c4.40226,0 6.01169,-2.27213 6.01169,-4.82828z"/><path d="M124.14477,49.04436c0,1.56209 -1.08873,2.60349 -2.84017,3.73955c-1.98793,1.23074 -4.59141,2.03545 -7.81027,2.03545c-8.37849,0 -16.75698,-6.91107 -16.75698,-16.89899c0,-9.98792 8.42583,-16.89899 16.66231,-16.89899c3.31353,0 5.91701,0.85205 7.90494,2.03545c1.75144,1.13607 2.84017,2.17746 2.84017,3.73955c0,1.84611 -1.46742,2.8875 -2.98218,2.8875c-1.18321,0 -2.03526,-0.61537 -2.55596,-0.99406c-0.71004,-0.47336 -2.46148,-1.60943 -5.1123,-1.60943c-5.34898,0 -10.08259,4.73361 -10.08259,10.83997c0,6.10636 4.68628,10.83997 10.12993,10.83997c2.55615,0 4.35492,-1.13607 5.06496,-1.60943c0.5207,-0.37869 1.32541,-0.99406 2.55596,-0.99406c1.51476,0 2.98218,1.04139 2.98218,2.8875z"/><path d="M156.04931,37.77837c0,10.88731 -7.57378,16.70965 -16.94633,16.70965h-6.95841c-2.03545,0 -3.50287,-1.46742 -3.50287,-3.50287v-26.12953c0,-2.03545 1.46742,-3.50287 3.50287,-3.50287h6.95841c9.37255,0 16.94633,5.82234 16.94633,16.42563zM149.65894,37.77837c0,-7.62111 -3.88156,-11.02931 -10.55595,-11.02931h-4.07091v22.34264h4.07091c6.67439,0 10.55595,-3.4082 10.55595,-11.31333z"/><path d="M180.47477,48.90235c1.51476,0 2.84017,1.27808 2.84017,2.79283c0,1.56209 -1.32541,2.79283 -2.84017,2.79283h-16.18895c-2.03545,0 -3.50287,-1.46742 -3.50287,-3.50287v-26.12953c0,-2.03545 1.46742,-3.50287 3.50287,-3.50287h15.71559c1.51476,0 2.84017,1.23074 2.84017,2.74549c0,1.56209 -1.32541,2.84017 -2.84017,2.84017h-12.82809v8.23648h8.42583c1.56209,0 2.79283,1.23074 2.79283,2.65082c0,1.46742 -1.23074,2.69816 -2.79283,2.69816h-8.42583v8.37849z"/><path d="M207.03032,26.9384h-12.82809v8.99386h10.50862c1.51476,0 2.79283,1.1834 2.79283,2.74549c0,1.51476 -1.27808,2.69816 -2.79283,2.69816h-10.50862v10.17726c0,1.75144 -1.42008,3.26619 -3.17152,3.26619c-1.75144,0 -3.21886,-1.51476 -3.21886,-3.26619v-26.69757c0,-2.03545 1.46742,-3.50287 3.50287,-3.50287h15.71559c1.51476,0 2.84017,1.23074 2.84017,2.74549c0,1.56209 -1.32541,2.84017 -2.84017,2.84017z"/><path d="M245.37258,40.76054c-0.37869,9.27788 -7.3371,14.05883 -14.67419,14.05883c-8.42583,0 -16.80432,-6.91107 -16.80432,-16.89899c0,-9.98792 8.42583,-16.89899 16.66231,-16.89899c3.31353,0 5.91701,0.85205 7.90513,2.03545c1.75144,1.13607 2.84017,2.17746 2.84017,3.73955c0,1.84611 -1.46742,2.8875 -2.98218,2.8875c-1.1834,0 -2.03545,-0.61537 -2.55615,-0.99406c-0.71004,-0.47336 -2.46148,-1.60943 -5.1123,-1.60943c-5.34898,0 -10.08259,4.73361 -10.08259,10.83997c0,6.10636 4.68628,10.83997 10.12993,10.83997c3.73955,0 7.90513,-2.31947 8.47316,-6.72173h-5.39632c-1.46742,0 -2.79283,-1.08873 -2.79283,-2.60349c0,-1.56209 1.32541,-2.65082 2.79283,-2.65082h8.18915c2.36681,0 3.55021,1.65676 3.4082,3.97623z"/><path d="M274.20025,21.21073c1.75144,0 3.12418,1.46742 3.12418,3.21886v26.98158c0,1.75144 -1.37275,3.21886 -3.12418,3.21886c-1.79877,0 -3.21886,-1.46742 -3.21886,-3.21886v-10.50862h-14.29551v10.50862c0,1.75144 -1.42008,3.21886 -3.17152,3.21886c-1.79877,0 -3.21886,-1.46742 -3.21886,-3.21886v-26.98158c0,-1.75144 1.42008,-3.21886 3.21886,-3.21886c1.75144,0 3.17152,1.46742 3.17152,3.21886v11.02931h14.29551v-11.02931c0,-1.75144 1.42008,-3.21886 3.21886,-3.21886z"/><path d="M289.48983,24.47692v27.07626c0,1.75144 -1.46742,3.26619 -3.21886,3.26619c-1.79877,0 -3.26619,-1.51476 -3.26619,-3.26619v-27.07626c0,-1.75144 1.46742,-3.26619 3.26619,-3.26619c1.75144,0 3.21886,1.51476 3.21886,3.26619z"/><path d="M314.53063,24.28757v18.31908c0,9.46722 -5.77501,12.21272 -11.31333,12.21272c-3.21886,0 -5.53833,-0.89939 -7.28976,-2.08279c-0.94672,-0.61537 -1.94078,-1.7041 -1.94078,-3.12418c0,-1.37275 0.89939,-2.65082 2.65082,-2.65082c1.04139,0 1.98812,0.47336 2.36681,0.75738c1.51476,0.89939 2.41414,1.37275 4.02357,1.37275c2.36681,0 5.01763,-0.99406 5.01763,-6.48505v-18.31908c0,-1.65676 1.46742,-3.07685 3.21886,-3.07685c1.79877,0 3.26619,1.42008 3.26619,3.07685z"/><path d="M348.09193,52.02654c0,1.51476 -1.27808,2.79283 -2.84017,2.79283c-0.80471,0 -1.56209,-0.37869 -2.08279,-0.94672l-11.55001,-13.06477l-5.01763,5.20697v5.58566c0,1.75144 -1.46742,3.21886 -3.21886,3.21886c-1.75144,0 -3.17152,-1.46742 -3.17152,-3.17152v-27.40761c0,-1.75144 1.42008,-3.21886 3.17152,-3.21886c1.75144,0 3.21886,1.46742 3.21886,3.21886v13.25411l15.05288,-15.38424c0.5207,-0.56803 1.37275,-1.08873 2.27213,-1.08873c1.56209,0 2.8875,1.27808 2.8875,2.84017c0,0.71004 -0.33135,1.42008 -0.66271,1.84611l-10.55595,10.98198l11.78669,13.44346c0.42603,0.47336 0.71004,1.1834 0.71004,1.89344z"/><path d="M370.81327,48.85502c1.51476,0 2.84017,1.23074 2.84017,2.84017c0,1.56209 -1.32541,2.79283 -2.84017,2.79283h-14.95821c-2.03545,0 -3.50287,-1.46742 -3.50287,-3.50287v-26.50822c0,-1.79877 1.42008,-3.26619 3.21886,-3.26619c1.75144,0 3.17152,1.46742 3.17152,3.26619v24.3781z"/><path d="M413.69979,24.1929v27.17093c0,1.75144 -1.46742,3.26619 -3.31353,3.26619c-1.75144,0 -3.21886,-1.51476 -3.21886,-3.26619v-15.90493l-8.47316,15.95227c-0.61537,1.13607 -1.65676,1.79877 -2.79283,1.79877c-1.08873,0 -2.13013,-0.66271 -2.74549,-1.79877l-8.5205,-15.95227v15.90493c0,1.75144 -1.42008,3.26619 -3.17152,3.26619c-1.84611,0 -3.31353,-1.51476 -3.31353,-3.26619v-27.17093c0,-1.98812 1.51476,-2.98218 2.93484,-2.98218c1.32541,0 2.55615,0.99406 3.21886,2.13013l11.59735,20.87523l11.64468,-20.87523c0.66271,-1.13607 1.89344,-2.13013 3.21886,-2.13013c1.42008,0 2.93484,0.99406 2.93484,2.98218z"/><path d="M446.83507,24.47692v27.17093c0,2.03545 -1.32541,3.12418 -2.98218,3.12418c-1.37275,0 -2.46148,-0.71004 -3.31353,-1.89344l-14.67419,-19.97584v18.60309c0,1.75144 -1.42008,3.26619 -3.17152,3.26619c-1.84611,0 -3.31353,-1.51476 -3.31353,-3.26619v-27.21826c0,-1.98812 1.32541,-3.07685 3.02951,-3.07685c1.37275,0 2.46148,0.71004 3.26619,1.84611l14.67419,20.02318v-18.60309c0,-1.75144 1.46742,-3.26619 3.21886,-3.26619c1.84611,0 3.26619,1.51476 3.26619,3.26619z"/><path d="M66.86827,94.72371c0,9.98792 -8.18915,16.89899 -16.5203,16.89899c-8.28382,0 -16.47297,-6.91107 -16.47297,-16.89899c0,-9.98792 8.18915,-16.89899 16.47297,-16.89899c8.33116,0 16.5203,6.91107 16.5203,16.89899zM40.5494,94.72371c0,6.48505 4.5916,10.83997 9.79858,10.83997c5.25431,0 9.84591,-4.35492 9.84591,-10.83997c0,-6.48505 -4.54427,-10.83997 -9.84591,-10.83997c-5.20697,0 -9.79858,4.35492 -9.79858,10.83997z"/><path d="M96.35868,88.90137c0,6.05902 -4.73361,10.65063 -12.11804,10.65063h-5.77501v8.85185c0,1.75144 -1.42008,3.21886 -3.17152,3.21886c-1.79877,0 -3.21886,-1.46742 -3.21886,-3.21886v-26.7449c0,-2.03545 1.46742,-3.50287 3.50287,-3.50287h8.66251c7.38443,0 12.11804,4.78095 12.11804,10.7453zM90.15764,88.90137c0,-3.88156 -2.65082,-5.30164 -6.20103,-5.30164h-5.49099v10.50862h5.49099c3.55021,0 6.20103,-1.27808 6.20103,-5.20697z"/><path d="M129.96712,107.36245c0.42603,0.5207 0.71004,1.13607 0.71004,1.79877c0,1.46742 -1.1834,2.65082 -2.65082,2.65082c-0.71004,0 -1.37275,-0.28402 -1.84611,-0.75738l-1.46742,-1.51476c-2.41414,1.32541 -5.11211,2.08279 -7.85761,2.08279c-8.28382,0 -16.47297,-6.91107 -16.47297,-16.89899c0,-9.98792 8.18915,-16.89899 16.47297,-16.89899c8.33097,0 16.52011,6.91107 16.52011,16.89899c0,4.63894 -1.75144,8.61517 -4.49693,11.55001zM120.26341,104.94831l-2.60349,-2.69816c-0.47336,-0.47336 -0.80471,-1.08873 -0.80471,-1.79877c0,-1.42008 1.1834,-2.65082 2.65082,-2.65082c0.71004,0 1.41989,0.28402 1.84592,0.80471l3.07685,3.17152c1.42008,-1.84611 2.27213,-4.26025 2.27213,-7.05308c0,-6.48505 -4.54427,-10.83997 -9.84572,-10.83997c-5.20697,0 -9.79858,4.35492 -9.79858,10.83997c0,6.48505 4.5916,10.83997 9.79858,10.83997c1.1834,0 2.31947,-0.23668 3.4082,-0.61537z"/><path d="M163.29175,108.45118c0,1.65676 -1.23074,2.98218 -2.8875,2.98218c-0.99406,0 -1.84611,-0.47336 -2.36681,-1.1834l-8.37849,-10.69796h-4.68628v8.85185c0,1.75144 -1.42008,3.21886 -3.17152,3.21886c-1.79877,0 -3.21886,-1.46742 -3.21886,-3.21886v-26.7449c0,-2.03545 1.46742,-3.50287 3.50287,-3.50287h8.66251c7.38443,0 12.11804,4.78095 12.11804,10.7453c0,4.44959 -2.55615,8.09448 -6.86374,9.75124l6.53238,7.85779c0.42603,0.5207 0.75738,1.1834 0.75738,1.94078zM144.97266,94.10834h5.49099c3.55021,0 6.20103,-1.27808 6.20103,-5.20697c0,-3.88156 -2.65082,-5.30164 -6.20103,-5.30164h-5.49099z"/><path d="M187.38584,81.4696c0.89939,1.04139 1.37275,1.89344 1.37275,2.84017c0,1.42008 -1.13607,2.55615 -2.65082,2.55615c-0.99406,0 -1.94078,-0.61537 -2.55615,-1.27808c-1.32541,-1.37275 -2.46148,-2.13013 -4.54427,-2.13013c-2.8875,0 -4.54427,1.46742 -4.54427,3.55021c0,1.56209 0.85205,2.98218 3.69222,4.07091l1.84611,0.71004c7.38443,2.79283 10.36661,5.49099 10.36661,10.03526c0,6.53238 -6.48505,9.79858 -11.97604,9.79858c-3.73955,0 -7.66845,-1.51476 -9.98792,-4.44959c-0.47336,-0.56803 -1.32541,-1.65676 -1.32541,-3.07685c0,-1.32541 0.85205,-2.69816 2.60349,-2.69816c1.42008,0 2.36681,0.89939 3.02951,1.79877c1.65676,2.08279 3.88156,2.74549 5.68033,2.74549c2.31947,0 5.49099,-0.89939 5.49099,-4.11824c0,-2.46148 -1.65676,-3.59754 -5.30164,-5.01763l-1.98812,-0.75738c-4.87562,-1.89344 -8.47316,-4.26025 -8.47316,-9.08853c0,-5.633 4.73361,-9.13587 10.65063,-9.13587c4.16558,0 6.72173,1.56209 8.61517,3.64488z"/><path d="M219.10103,80.99624c0,1.56209 -1.27808,2.79283 -2.79283,2.79283h-6.72173v24.47277c0,1.84611 -1.46742,3.36086 -3.17152,3.36086c-1.75144,0 -3.21886,-1.51476 -3.21886,-3.36086v-24.47277h-6.67439c-1.51476,0 -2.84017,-1.23074 -2.84017,-2.79283c0,-1.60943 1.32541,-2.84017 2.84017,-2.84017h19.78649c1.51476,0 2.79283,1.23074 2.79283,2.84017z"/><path d="M250.01151,81.09091v18.31908c0,7.66845 -5.86968,12.21272 -13.20678,12.21272c-7.38443,0 -13.20678,-4.54427 -13.20678,-12.21272v-18.31908c0,-1.65676 1.37275,-3.07685 3.12418,-3.07685c1.75144,0 3.26619,1.42008 3.26619,3.07685v18.2244c0,4.97029 3.17152,6.95841 6.8164,6.95841c3.69222,0 6.8164,-1.98812 6.8164,-6.95841v-18.2244c0,-1.65676 1.51476,-3.07685 3.31353,-3.07685c1.75144,0 3.07685,1.42008 3.07685,3.07685z"/><path d="M285.22956,80.90156c0,0.66271 -0.14201,1.27808 -0.37869,1.79877l-11.73936,26.46089c-0.71004,1.60943 -1.7041,2.36681 -3.12418,2.36681c-1.42008,0 -2.41414,-0.75738 -3.07685,-2.36681l-11.73936,-26.46089c-0.23668,-0.5207 -0.42603,-1.13607 -0.42603,-1.79877c0,-1.56209 1.37275,-2.8875 3.12418,-2.8875c1.37275,0 2.50881,0.80471 3.02951,2.03545l9.08853,21.34859l9.08853,-21.34859c0.5207,-1.23074 1.65676,-2.03545 3.07685,-2.03545c1.75144,0 3.07685,1.32541 3.07685,2.8875z"/><path d="M333.65441,80.90156c0,0.66271 -0.23668,1.27808 -0.37869,1.79877l-8.14181,26.46089c-0.47336,1.60943 -1.75144,2.36681 -3.36086,2.36681c-1.65676,0 -2.79283,-0.75738 -3.36086,-2.36681l-7.28976,-19.88117l-7.3371,19.88117c-0.56803,1.60943 -1.7041,2.36681 -3.31353,2.36681c-1.60943,0 -2.8875,-0.75738 -3.4082,-2.36681l-8.09448,-26.46089c-0.18934,-0.5207 -0.42603,-1.13607 -0.42603,-1.79877c0,-1.56209 1.37275,-2.8875 3.12418,-2.8875c1.37275,0 2.69816,0.80471 3.02951,2.03545l6.01169,21.34859l7.57378,-21.30125c0.56803,-1.56209 1.60943,-2.08279 2.79283,-2.08279c1.13607,0 2.31947,0.5207 2.8875,2.08279l7.57378,21.30125l5.96435,-21.34859c0.33135,-1.23074 1.65676,-2.03545 3.07685,-2.03545c1.75144,0 3.07685,1.32541 3.07685,2.8875z"/><path d="M363.9022,108.82987c0,1.60943 -1.1834,2.79283 -2.98218,2.79283c-1.08873,0 -1.98812,-0.42603 -2.65082,-1.37275l-7.57378,-10.88731l-7.62111,10.88731c-0.66271,0.94672 -1.56209,1.37275 -2.60349,1.37275c-1.79877,0 -3.02951,-1.1834 -3.02951,-2.79283c0,-0.80471 0.28402,-1.56209 0.71004,-2.17746l8.94653,-12.35473l-8.18915,-11.31333c-0.42603,-0.61537 -0.71004,-1.37275 -0.71004,-2.17746c0,-1.60943 1.23074,-2.79283 2.98218,-2.79283c1.08873,0 1.98812,0.42603 2.65082,1.37275l6.86374,9.79858l6.8164,-9.79858c0.66271,-0.94672 1.60943,-1.37275 2.65082,-1.37275c1.79877,0 3.02951,1.1834 3.02951,2.79283c0,0.80471 -0.28402,1.56209 -0.75738,2.17746l-8.18915,11.31333l8.94653,12.35473c0.42603,0.61537 0.71004,1.37275 0.71004,2.17746z"/><path d="M394.24465,80.90156c0,0.61537 -0.14201,1.13607 -0.47336,1.60943l-9.60923,14.01149v12.02337c0,1.7041 -1.46742,3.07685 -3.17152,3.07685c-1.65676,0 -3.12418,-1.37275 -3.12418,-3.07685v-12.02337l-9.60923,-14.01149c-0.33135,-0.47336 -0.47336,-0.99406 -0.47336,-1.60943c0,-1.60943 1.27808,-2.8875 2.93484,-2.8875c0.94672,0 1.75144,0.42603 2.31947,1.1834l7.95247,11.9287l7.9998,-11.9287c0.5207,-0.75738 1.37275,-1.1834 2.31947,-1.1834c1.60943,0 2.93484,1.27808 2.93484,2.8875z"/><path d="M420.89488,84.92513l-16.28362,20.73322h14.57952c1.56209,0 2.84017,1.23074 2.84017,2.84017c0,1.56209 -1.27808,2.79283 -2.84017,2.79283h-16.66231c-3.73955,0 -6.01169,-3.73955 -3.64488,-6.76906l16.28362,-20.73322h-13.49079c-1.51476,0 -2.84017,-1.23074 -2.84017,-2.79283c0,-1.60943 1.32541,-2.84017 2.84017,-2.84017h15.52624c3.78689,0 6.01169,3.73955 3.69222,6.76906z"/><path d="M58.15842,203.21865v18.88711c0,1.7041 -1.51476,3.07685 -3.17152,3.07685c-1.7041,0 -3.12418,-1.37275 -3.12418,-3.07685v-0.89939c-0.37869,1.46742 -2.8875,4.02357 -7.00574,4.02357c-5.20697,0 -11.45534,-4.02357 -11.45534,-12.63874c0,-8.42583 6.2957,-12.59141 11.45534,-12.59141c3.36086,0 6.05902,1.79877 7.00574,4.02357v-0.80471c0,-1.65676 1.42008,-3.07685 3.12418,-3.07685c1.65676,0 3.17152,1.42008 3.17152,3.07685zM52.14674,212.5912c0,-5.34898 -3.50287,-7.28976 -6.15369,-7.28976c-3.12418,0 -6.39038,2.46148 -6.39038,7.28976c0,4.87562 3.26619,7.28976 6.39038,7.28976c2.65082,0 6.15369,-1.94078 6.15369,-7.28976z"/><path d="M88.59554,212.5912c0,8.61517 -6.24837,12.63874 -11.45534,12.63874c-4.11824,0 -6.62706,-2.55615 -7.00574,-4.02357v0.89939c0,1.7041 -1.42008,3.07685 -3.12418,3.07685c-1.65676,0 -3.17152,-1.37275 -3.17152,-3.07685v-27.92831c0,-1.65676 1.46742,-3.07685 3.17152,-3.07685c1.65676,0 3.07685,1.42008 3.07685,3.07685v8.5205c0.04734,0.18934 0.04734,0.33135 0.04734,0.5207v0.80471c0.94672,-2.2248 3.64488,-4.02357 7.00574,-4.02357c5.15964,0 11.45534,4.16558 11.45534,12.59141zM82.39451,212.5912c0,-4.82828 -3.26619,-7.28976 -6.39038,-7.28976c-2.65082,0 -6.15369,1.94078 -6.15369,7.28976c0,5.34898 3.50287,7.28976 6.15369,7.28976c3.12418,0 6.39038,-2.41414 6.39038,-7.28976z"/><path d="M113.77837,219.64428c0,1.51476 -1.13607,2.27213 -1.75144,2.84017c-1.98812,1.75144 -4.30759,2.65082 -7.38443,2.65082c-5.72767,0 -12.63874,-4.11824 -12.63874,-12.54407c0,-8.47316 6.91107,-12.59141 12.63874,-12.59141c3.07685,0 5.39632,0.85205 7.38443,2.60349c0.61537,0.61537 1.75144,1.37275 1.75144,2.8875c0,1.46742 -1.23074,2.36681 -2.50881,2.36681c-1.13607,0 -2.03545,-0.66271 -2.41414,-0.99406c-1.08873,-1.04139 -2.69816,-1.46742 -3.97623,-1.46742c-3.73955,0 -6.72173,2.60349 -6.72173,7.19509c0,4.54427 2.98218,7.14775 6.72173,7.14775c1.27808,0 2.8875,-0.42603 3.97623,-1.46742c0.37869,-0.33135 1.27808,-0.99406 2.41414,-0.99406c1.27808,0 2.50881,0.89939 2.50881,2.36681z"/><path d="M141.94315,194.17745v27.92831c0,1.7041 -1.51476,3.07685 -3.17152,3.07685c-1.7041,0 -3.12418,-1.37275 -3.12418,-3.07685v-0.89939c-0.37869,1.46742 -2.8875,4.02357 -7.00574,4.02357c-5.20697,0 -11.45515,-4.02357 -11.45515,-12.63874c0,-8.42583 6.29551,-12.59141 11.45515,-12.59141c3.36086,0 6.05902,1.79877 7.00574,4.02357v-0.80471c0,-0.18934 0,-0.33135 0.04734,-0.5207v-8.5205c0,-1.65676 1.42008,-3.07685 3.07685,-3.07685c1.7041,0 3.17152,1.42008 3.17152,3.07685zM135.93147,212.5912c0,-5.34898 -3.50287,-7.28976 -6.15369,-7.28976c-3.12418,0 -6.39038,2.46148 -6.39038,7.28976c0,4.87562 3.26619,7.28976 6.39038,7.28976c2.65082,0 6.15369,-1.94078 6.15369,-7.28976z"/><path d="M171.05486,211.59714c0,2.46148 -1.37275,3.31353 -3.88156,3.31353l-14.05883,-0.09467c0.56803,3.45554 3.31353,5.30164 6.76906,5.30164c1.7041,0 2.50881,-0.37869 3.9289,-0.99406c0.85205,-0.37869 1.51476,-0.75738 2.31947,-0.75738c1.32541,0 2.13013,0.94672 2.13013,2.13013c0,0.75738 -0.33135,1.60943 -1.51476,2.60349c-1.75144,1.23074 -4.11824,2.03545 -7.10042,2.03545c-6.2957,0 -12.97009,-3.88156 -12.97009,-12.49673c0,-8.5205 7.05308,-12.63874 12.4494,-12.63874c5.39632,0 11.9287,4.26025 11.9287,11.59735zM153.11448,210.55574h11.83403c-0.47336,-3.64488 -3.12418,-5.15964 -5.82234,-5.15964c-2.69816,0 -5.58566,1.51476 -6.01169,5.15964z"/><path d="M192.45079,194.31946c0,1.32541 -0.99406,2.2248 -2.31947,2.2248c-0.42603,0 -1.08873,-0.14201 -1.98812,-0.42603c-0.61537,-0.23668 -0.99406,-0.37869 -1.60943,-0.37869c-2.65082,0 -2.98218,2.17746 -2.98218,3.12418v1.42008h3.88156c1.51476,0 2.50881,0.99406 2.50881,2.46148c0,1.42008 -0.99406,2.41414 -2.50881,2.41414h-3.88156v16.94633c0,1.7041 -1.42008,3.07685 -3.12418,3.07685c-1.65676,0 -3.07685,-1.37275 -3.07685,-3.07685v-16.94633h-1.42008c-1.51476,0 -2.50881,-0.99406 -2.50881,-2.41414c0,-1.46742 0.99406,-2.46148 2.50881,-2.46148h1.42008v-1.75144c0,-6.62706 5.25431,-8.04714 8.28382,-8.04714c2.08279,0 3.88156,0.5207 5.15964,1.32541c1.08873,0.66271 1.65676,1.46742 1.65676,2.50881z"/><path d="M215.78751,222.10575c0,0.23668 -0.04734,0.47336 -0.09467,0.71004v1.60943c0,7.71579 -7.19509,10.17726 -12.21272,10.17726c-2.93484,0 -5.30164,-0.80471 -6.34304,-1.27808c-1.32541,-0.56803 -2.03545,-1.51476 -2.03545,-2.65082c0,-1.42008 1.13607,-2.46148 2.46148,-2.46148c0.28402,0 0.66271,0.04734 1.27808,0.23668c0.94672,0.23668 2.55615,0.80471 4.68628,0.80471c3.83423,0 5.96435,-2.03545 5.96435,-4.82828v-3.21886c-0.37869,1.46742 -2.8875,4.02357 -7.00574,4.02357c-5.20697,0 -11.45534,-4.02357 -11.45534,-12.63874c0,-8.42583 6.2957,-12.59141 11.45534,-12.59141c3.36086,0 6.05902,1.79877 7.00574,4.02357v-0.80471c0,-1.65676 1.42008,-3.07685 3.12418,-3.07685c1.65676,0 3.17152,1.42008 3.17152,3.07685zM209.77581,212.5912c0,-5.34898 -3.50287,-7.28976 -6.15369,-7.28976c-3.12418,0 -6.39038,2.46148 -6.39038,7.28976c0,4.87562 3.26619,7.28976 6.39038,7.28976c2.65082,0 6.15369,-1.94078 6.15369,-7.28976z"/><path d="M244.70985,211.36046v10.69796c0,1.7041 -1.42008,3.07685 -3.12418,3.07685c-1.65676,0 -3.07685,-1.37275 -3.07685,-3.07685v-10.69796c0,-4.26025 -2.2248,-6.01169 -5.01763,-6.01169c-4.26025,0 -5.68033,3.97623 -5.86968,5.30164v11.408c0,1.7041 -1.42008,3.07685 -3.07685,3.07685c-1.7041,0 -3.12418,-1.37275 -3.12418,-3.07685v-27.88097c0,-1.65676 1.42008,-3.07685 3.12418,-3.07685c1.65676,0 3.07685,1.42008 3.07685,3.07685v11.45534c0.18934,-1.7041 2.98218,-5.58566 8.09448,-5.58566c4.78095,0 8.99386,3.12418 8.99386,11.31333z"/><path d="M250.39019,193.70409c0,-1.65676 1.46742,-3.07685 3.17152,-3.07685c1.65676,0 3.12418,1.42008 3.12418,3.07685c0,1.65676 -1.46742,3.07685 -3.12418,3.07685c-1.7041,0 -3.17152,-1.42008 -3.17152,-3.07685zM256.63856,203.26598v18.7451c0,1.75144 -1.42008,3.17152 -3.07685,3.17152c-1.7041,0 -3.12418,-1.42008 -3.12418,-3.17152v-18.7451c0,-1.7041 1.42008,-3.12418 3.12418,-3.12418c1.65676,0 3.07685,1.42008 3.07685,3.12418z"/><path d="M263.881,193.70409c0,-1.65676 1.46742,-3.07685 3.12418,-3.07685c1.7041,0 3.17152,1.42008 3.17152,3.07685c0,1.65676 -1.46742,3.07685 -3.17152,3.07685c-1.65676,0 -3.12418,-1.42008 -3.12418,-3.07685zM270.12935,203.31332v23.99941c0,4.73361 -2.93484,7.28976 -7.24243,7.28976c-1.23074,0 -2.50881,-0.18934 -3.83423,-0.75738c-1.04139,-0.56803 -2.36681,-1.56209 -2.36681,-3.17152c0,-1.79877 1.65676,-3.26619 3.50287,-2.69816c0.47336,0.09467 0.99406,0.61537 1.84611,0.61537c1.75144,0 1.89344,-1.75144 1.89344,-2.93484v-22.34264c0,-1.75144 1.42008,-3.17152 3.07685,-3.17152c1.7041,0 3.12418,1.42008 3.12418,3.17152z"/><path d="M298.01032,222.43711c0,1.42008 -1.1834,2.69816 -2.74549,2.69816c-0.75738,0 -1.46742,-0.33135 -1.89344,-0.85205l-8.47316,-9.41989l-2.84017,2.65082v4.54427c0,1.7041 -1.42008,3.07685 -3.07685,3.07685c-1.7041,0 -3.12418,-1.37275 -3.12418,-3.07685v-27.88097c0,-1.65676 1.42008,-3.07685 3.12418,-3.07685c1.65676,0 3.07685,1.42008 3.07685,3.07685v16.04694l9.37255,-9.18321c0.5207,-0.5207 1.27808,-0.89939 2.08279,-0.89939c1.56209,0 2.79283,1.32541 2.79283,2.79283c0,0.80471 -0.28402,1.46742 -0.75738,1.98812l-6.8164,6.34304l8.47316,9.27788c0.42603,0.42603 0.80471,1.08873 0.80471,1.89344z"/><path d="M305.15808,225.13527c-1.7041,0 -3.12418,-1.37275 -3.12418,-3.07685v-27.88097c0,-1.65676 1.42008,-3.07685 3.12418,-3.07685c1.65676,0 3.07685,1.42008 3.07685,3.07685v27.88097c0,1.7041 -1.42008,3.07685 -3.07685,3.07685z"/><path d="M354.29297,211.36046v10.69796c0,1.7041 -1.42008,3.07685 -3.12418,3.07685c-1.65676,0 -3.07685,-1.37275 -3.07685,-3.07685v-10.69796c0,-4.26025 -2.2248,-6.01169 -5.01763,-6.01169c-4.26025,0 -5.72767,3.97623 -5.86968,5.30164v-0.04734v0.75738v10.69796c0,1.7041 -1.42008,3.07685 -3.12418,3.07685c-1.65676,0 -3.07685,-1.37275 -3.07685,-3.07685v-10.69796c0,-4.26025 -2.2248,-6.01169 -5.01763,-6.01169c-4.26025,0 -5.68033,3.97623 -5.86968,5.30164v11.408c0,1.7041 -1.42008,3.07685 -3.07685,3.07685c-1.7041,0 -3.12418,-1.37275 -3.12418,-3.07685v-18.79244c0,-1.7041 1.42008,-3.12418 3.12418,-3.12418c1.65676,0 3.07685,1.42008 3.07685,3.12418v2.36681c0.18934,-1.7041 2.98218,-5.58566 8.09448,-5.58566c3.55021,0 6.76906,1.7041 8.18915,5.91701c1.32541,-2.93484 4.30759,-5.91701 8.89919,-5.91701c4.78095,0 8.99386,3.12418 8.99386,11.31333z"/><path d="M383.26267,211.36046v10.69796c0,1.7041 -1.42008,3.07685 -3.12418,3.07685c-1.65676,0 -3.07685,-1.37275 -3.07685,-3.07685v-10.69796c0,-4.26025 -2.2248,-6.01169 -5.01763,-6.01169c-4.26025,0 -5.68033,3.97623 -5.86968,5.30164v11.408c0,1.7041 -1.42008,3.07685 -3.07685,3.07685c-1.7041,0 -3.12418,-1.37275 -3.12418,-3.07685v-18.79244c0,-1.7041 1.42008,-3.12418 3.12418,-3.12418c1.65676,0 3.07685,1.42008 3.07685,3.12418v2.36681c0.18934,-1.7041 2.98218,-5.58566 8.09448,-5.58566c4.78095,0 8.99386,3.12418 8.99386,11.31333z"/><path d="M413.27376,212.63853c0,8.47316 -7.24243,12.59141 -12.63874,12.59141c-5.44365,0 -12.63874,-4.11824 -12.63874,-12.59141c0,-8.42583 7.19509,-12.63874 12.63874,-12.63874c5.39632,0 12.63874,4.21291 12.63874,12.63874zM394.14997,212.63853c0,4.54427 3.12418,7.19509 6.48505,7.19509c3.31353,0 6.48505,-2.65082 6.48505,-7.19509c0,-4.5916 -3.17152,-7.24243 -6.48505,-7.24243c-3.36086,0 -6.48505,2.65082 -6.48505,7.24243z"/><path d="M441.62809,212.5912c0,8.61517 -6.24837,12.63874 -11.45534,12.63874c-4.11824,0 -6.62706,-2.55615 -7.00574,-4.02357v0.89939c0,0.18934 0,0.37869 -0.04734,0.5207v8.5205c0,1.7041 -1.46742,3.07685 -3.12418,3.07685c-1.7041,0 -3.12418,-1.37275 -3.12418,-3.07685v-27.92831c0,-1.65676 1.51476,-3.07685 3.17152,-3.07685c1.7041,0 3.12418,1.42008 3.12418,3.07685v0.80471c0.94672,-2.2248 3.64488,-4.02357 7.00574,-4.02357c5.15964,0 11.45534,4.16558 11.45534,12.59141zM435.42706,212.5912c0,-4.82828 -3.26619,-7.28976 -6.39038,-7.28976c-2.65082,0 -6.15369,1.94078 -6.15369,7.28976c0,5.34898 3.50287,7.28976 6.15369,7.28976c3.12418,0 6.39038,-2.41414 6.39038,-7.28976z"/><path d="M58.15842,260.02199v27.92831c0,1.7041 -1.42008,3.07685 -3.12418,3.07685c-1.65676,0 -3.12418,-1.37275 -3.12418,-3.07685v-8.5205c-0.04734,-0.14201 -0.04734,-0.33135 -0.04734,-0.5207v-0.89939c-0.37869,1.46742 -2.8875,4.02357 -7.00574,4.02357c-5.20697,0 -11.45534,-4.02357 -11.45534,-12.63874c0,-8.42583 6.2957,-12.59141 11.45534,-12.59141c3.36086,0 6.05902,1.79877 7.00574,4.02357v-0.80471c0,-1.65676 1.42008,-3.07685 3.12418,-3.07685c1.65676,0 3.17152,1.42008 3.17152,3.07685zM52.14674,269.39454c0,-5.34898 -3.50287,-7.28976 -6.15369,-7.28976c-3.12418,0 -6.39038,2.46148 -6.39038,7.28976c0,4.87562 3.26619,7.28976 6.39038,7.28976c2.65082,0 6.15369,-1.94078 6.15369,-7.28976z"/><path d="M80.35906,259.69064c0,1.75144 -1.32541,2.93484 -3.97623,2.93484c-3.73955,0 -6.10636,2.8875 -6.34304,4.82828v11.408c0,1.65676 -1.42008,3.07685 -3.07685,3.07685c-1.7041,0 -3.12418,-1.42008 -3.12418,-3.07685v-18.79244c0,-1.7041 1.42008,-3.12418 3.12418,-3.12418c1.65676,0 3.07685,1.42008 3.07685,3.12418v2.36681c0.18934,-1.7041 3.12418,-5.58566 7.38443,-5.58566c1.94078,0 2.93484,1.32541 2.93484,2.84017z"/><path d="M99.95621,260.25867c0.28402,0.42603 0.75738,1.08873 0.75738,2.08279c0,1.51476 -1.04139,2.31947 -2.41414,2.31947c-0.89939,0 -1.79877,-0.33135 -2.60349,-1.32541c-0.94672,-1.08873 -2.03545,-1.60943 -3.4082,-1.60943c-1.84611,0 -2.93484,0.89939 -2.93484,2.2248c0,0.75738 0.28402,1.75144 2.46148,2.36681l2.8875,0.85205c3.78689,1.04139 6.95841,2.84017 6.95841,7.05308c0,5.20697 -4.82828,7.71579 -9.75124,7.71579c-4.26025,0 -6.8164,-1.79877 -8.14181,-3.4082c-0.23668,-0.33135 -1.27808,-1.51476 -1.27808,-2.98218c0,-1.04139 0.66271,-2.36681 2.36681,-2.36681c1.27808,0 1.98812,0.80471 2.55615,1.51476c1.37275,1.7041 2.8875,2.17746 4.49693,2.17746c2.31947,0 3.59754,-0.99406 3.59754,-2.31947c0,-0.80471 -0.5207,-1.84611 -2.79283,-2.50881l-2.69816,-0.80471c-4.78095,-1.32541 -6.76906,-3.88156 -6.76906,-7.24243c0,-4.73361 4.35492,-7.19509 8.85185,-7.19509c3.21886,0 6.2957,1.27808 7.85779,3.45554z"/><path d="M119.50603,278.62508c0,2.17746 -2.13013,3.31353 -5.34898,3.31353c-3.21886,0 -6.48505,-1.04139 -6.48505,-7.62111v-12.35473h-1.37275c-1.51476,0 -2.50881,-0.99406 -2.50881,-2.41414c0,-1.46742 0.99406,-2.46148 2.50881,-2.46148h1.37275v-3.21886c0,-1.7041 1.42008,-3.12418 3.12418,-3.12418c1.7041,0 3.07685,1.42008 3.07685,3.12418v3.21886h3.12418c1.56209,0 2.50881,0.99406 2.50881,2.46148c0,1.42008 -0.94672,2.41414 -2.50881,2.41414h-3.12418v12.54407c0,1.37275 0.47336,2.08279 1.51476,2.08279c0.5207,0 1.27808,-0.18934 1.79877,-0.18934c1.42008,-0.09467 2.31947,0.75738 2.31947,2.2248z"/><path d="M123.7661,270.71995v-10.69796c0,-1.7041 1.42008,-3.07685 3.12418,-3.07685c1.65676,0 3.07685,1.37275 3.07685,3.07685v10.69796c0,4.26025 2.2248,6.01169 5.01763,6.01169c4.26025,0 5.68033,-3.97623 5.86968,-5.30164v-11.408c0,-1.7041 1.42008,-3.07685 3.07685,-3.07685c1.7041,0 3.12418,1.37275 3.12418,3.07685v18.79244c0,1.7041 -1.42008,3.12418 -3.12418,3.12418c-1.65676,0 -3.07685,-1.42008 -3.07685,-3.12418v-2.36681c-0.18934,1.7041 -2.98218,5.58566 -8.09448,5.58566c-4.78095,0 -8.99386,-3.12418 -8.99386,-11.31333z"/><path d="M174.93644,259.73797c0,0.56803 -0.18934,1.04139 -0.37869,1.42008l-8.33116,18.27174c-0.71004,1.46742 -1.65676,2.36681 -3.12418,2.36681c-1.46742,0 -2.41414,-0.89939 -3.07685,-2.36681l-8.37849,-18.27174c-0.14201,-0.37869 -0.33135,-0.85205 -0.33135,-1.42008c0,-1.51476 1.23074,-2.79283 2.84017,-2.79283c1.1834,0 2.31947,0.66271 2.98218,2.17746l5.96435,14.01149l6.01169,-14.01149c0.61537,-1.51476 1.75144,-2.17746 2.93484,-2.17746c1.65676,0 2.8875,1.27808 2.8875,2.79283z"/><path d="M214.84077,259.87998c0,0.42603 -0.28402,0.89939 -0.42603,1.42008l-6.34304,18.12973c-0.5207,1.56209 -1.65676,2.36681 -2.93484,2.36681c-1.37275,0 -2.46148,-0.80471 -3.07685,-2.36681l-5.77501,-13.53813l-5.77501,13.53813c-0.61537,1.56209 -1.75144,2.36681 -3.02951,2.36681c-1.37275,0 -2.46148,-0.80471 -2.98218,-2.36681l-6.2957,-18.12973c-0.18934,-0.5207 -0.42603,-0.99406 -0.42603,-1.42008c0,-1.65676 1.27808,-2.93484 2.93484,-2.93484c1.08873,0 2.27213,0.66271 2.60349,1.65676l4.54427,14.24817l5.633,-14.01149c0.5207,-1.23074 1.46742,-1.89344 2.79283,-1.89344c1.37275,0 2.31947,0.66271 2.79283,1.89344l5.633,14.01149l4.54427,-14.24817c0.33135,-0.99406 1.51476,-1.65676 2.65082,-1.65676c1.60943,0 2.93484,1.27808 2.93484,2.93484z"/><path d="M239.69222,279.19312c0,1.51476 -1.37275,2.74549 -2.84017,2.74549c-0.89939,0 -1.60943,-0.47336 -2.17746,-1.13607l-5.86968,-7.28976l-5.86968,7.28976c-0.56803,0.66271 -1.27808,1.13607 -2.17746,1.13607c-1.46742,0 -2.84017,-1.23074 -2.84017,-2.74549c0,-0.61537 0.23668,-1.1834 0.61537,-1.65676l6.8164,-8.14181l-6.72173,-8.04714c-0.37869,-0.47336 -0.61537,-0.99406 -0.61537,-1.65676c0,-1.51476 1.37275,-2.74549 2.84017,-2.74549c0.89939,0 1.65676,0.42603 2.17746,1.13607l5.77501,7.14775l5.77501,-7.14775c0.56803,-0.71004 1.27808,-1.13607 2.17746,-1.13607c1.42008,0 2.79283,1.23074 2.79283,2.74549c0,0.66271 -0.18934,1.1834 -0.61537,1.65676l-6.67439,8.04714l6.76906,8.14181c0.42603,0.47336 0.66271,1.04139 0.66271,1.65676z"/><path d="M267.24186,259.73797c0,0.56803 -0.18934,1.04139 -0.37869,1.42008l-12.26005,27.59695c-0.66271,1.51476 -1.79877,2.17746 -2.98218,2.17746c-1.60943,0 -2.74549,-1.27808 -2.74549,-2.79283c0,-0.56803 0.18934,-1.04139 0.33135,-1.42008l2.69816,-6.15369l-8.80452,-19.40781c-0.14201,-0.37869 -0.33135,-0.85205 -0.33135,-1.42008c0,-1.51476 1.23074,-2.79283 2.84017,-2.79283c1.1834,0 2.31947,0.66271 2.98218,2.17746l6.34304,14.67419l6.48505,-14.67419c0.66271,-1.51476 1.75144,-2.17746 2.93484,-2.17746c1.65676,0 2.8875,1.27808 2.8875,2.79283z"/><path d="M288.87446,264.0929l-11.78669,12.26005h10.65063c1.46742,0 2.69816,1.1834 2.69816,2.65082c0,1.51476 -1.23074,2.69816 -2.69816,2.69816h-12.73341c-3.83423,0 -5.96435,-3.9289 -3.07685,-7.10042l11.69202,-12.21272h-9.84591c-1.46742,0 -2.69816,-1.13607 -2.69816,-2.65082c0,-1.46742 1.23074,-2.65082 2.69816,-2.65082h11.83403c3.78689,0 6.10636,3.9289 3.26619,7.00574z"/><path d="M321.20502,264.51892v1.13607c0,10.79263 -6.67439,16.28362 -13.39612,16.28362c-6.62706,0 -13.34878,-5.49099 -13.34878,-16.28362v-1.13607c0,-10.79263 6.72173,-16.28362 13.34878,-16.28362c6.72173,0 13.39612,5.49099 13.39612,16.28362zM300.66116,264.51892v1.13607c0,5.06496 1.84611,10.93464 7.14775,10.93464c5.34898,0 7.19509,-5.86968 7.19509,-10.93464v-1.13607c0,-5.01763 -1.84611,-10.98198 -7.19509,-10.98198c-5.30164,0 -7.14775,5.96435 -7.14775,10.98198z"/><path d="M336.49458,252.06952v26.83958c0,1.65676 -1.42008,3.07685 -3.12418,3.07685c-1.65676,0 -3.07685,-1.42008 -3.07685,-3.07685v-25.0408h-3.07685c-1.46742,0 -2.69816,-1.13607 -2.69816,-2.65082c0,-1.46742 1.23074,-2.65082 2.69816,-2.65082h5.72767c2.03545,0 3.55021,1.46742 3.55021,3.50287z"/><path d="M363.9022,258.17588c0,4.16558 -2.79283,6.43771 -8.70984,12.21272l-6.01169,5.82234h12.11804c1.46742,0 2.69816,1.1834 2.69816,2.74549c0,1.56209 -1.23074,2.74549 -2.69816,2.74549h-14.39018c-4.40226,0 -6.62706,-4.63894 -3.45554,-7.76312l5.53833,-5.34898c6.20103,-6.01169 8.66251,-7.90513 8.66251,-10.7453c0,-3.12418 -2.69816,-4.16558 -4.54427,-4.16558c-1.65676,0 -3.97623,0.75738 -4.82828,3.64488c-0.33135,1.23074 -1.56209,2.36681 -3.17152,2.36681c-2.27213,0 -3.26619,-2.03545 -2.60349,-4.40226c1.23074,-3.78689 4.78095,-7.05308 10.31927,-7.05308c6.62706,0 11.07665,4.73361 11.07665,9.94058z"/><path d="M388.89567,255.0517l-5.58566,6.95841c3.73955,0.75738 8.18915,4.16558 8.18915,9.65657c0,6.24837 -5.30164,10.50862 -11.9287,10.50862c-4.73361,0 -9.23054,-2.08279 -11.12399,-6.86374c-0.66271,-1.84611 0.37869,-3.97623 2.55615,-3.97623c1.46742,0 2.41414,0.89939 2.74549,1.75144c1.23074,3.07685 4.16558,3.73955 5.82234,3.73955c1.75144,0 5.72767,-0.89939 5.72767,-5.15964c0,-3.97623 -4.30759,-5.15964 -6.34304,-5.68033c-1.32541,-0.28402 -2.17746,-1.42008 -2.17746,-2.50881c0,-0.99406 0.71004,-1.75144 1.46742,-2.74549l5.20697,-6.86374h-11.45534c-1.46742,0 -2.69816,-1.13607 -2.69816,-2.65082c0,-1.46742 1.23074,-2.65082 2.69816,-2.65082h13.20678c3.69222,0 5.96435,3.55021 3.69222,6.48505z"/><path d="M416.44528,268.96852c1.46742,0 2.69816,1.13607 2.69816,2.50881c0,1.46742 -1.23074,2.55615 -2.69816,2.55615h-1.1834v4.92296c0,1.7041 -1.42008,3.07685 -3.12418,3.07685c-1.65676,0 -3.07685,-1.37275 -3.07685,-3.07685v-4.92296h-9.18321c-3.97623,0 -5.25431,-2.98218 -3.17152,-5.86968l12.4494,-17.75104c2.08279,-2.93484 6.10636,-1.98812 6.10636,1.46742v17.08834zM402.33913,268.96852h6.72173v-9.79858z"/><path d="M442.29079,251.21746c0,1.51476 -1.23074,2.65082 -2.69816,2.65082h-9.60923l-0.71004,6.86374c0.33135,-0.04734 2.2248,-1.27808 5.34898,-1.27808c5.77501,0 10.65063,4.49693 10.65063,11.31333c0,6.62706 -5.15964,11.408 -12.07071,11.408c-3.97623,0 -7.24243,-1.46742 -9.41989,-3.97623c-0.42603,-0.42603 -0.89939,-1.27808 -0.89939,-2.2248c0,-1.51476 1.13607,-2.69816 2.79283,-2.69816c0.99406,0 1.84611,0.5207 2.31947,1.08873c1.04139,1.32541 2.74549,2.46148 5.06496,2.46148c2.65082,0 6.01169,-1.51476 6.01169,-6.05902c0,-4.07091 -2.93484,-5.96435 -5.633,-5.96435c-1.23074,0 -2.50881,0.37869 -3.9289,1.27808c-0.56803,0.33135 -1.75144,0.5207 -2.55615,0.5207c-2.46148,0 -3.9289,-1.98812 -3.64488,-4.44959l1.27808,-10.65063c0.23668,-1.75144 1.60943,-2.93484 3.36086,-2.93484h11.64468c1.46742,0 2.69816,1.1834 2.69816,2.65082z"/><path d="M50.96334,307.78413c0,0.61537 -0.28402,1.23074 -0.61537,1.7041l-6.10636,7.85779c0.14201,0.14201 0.33135,0.18934 0.61537,0.18934c5.58566,0 11.02931,4.54427 11.02931,10.88731c0,6.24837 -5.44365,10.55595 -11.02931,10.55595c-5.68033,0 -11.21866,-4.30759 -11.21866,-11.26599c0,-5.1123 3.31353,-8.66251 6.8164,-13.58546l5.58566,-7.90513c0.47336,-0.75738 1.32541,-1.1834 2.2248,-1.1834c1.56209,0 2.69816,1.23074 2.69816,2.74549zM39.46066,328.42267c0,2.84017 2.31947,5.15964 5.30164,5.15964c3.02951,0 5.20697,-2.36681 5.20697,-5.15964c0,-2.74549 -2.17746,-5.15964 -5.20697,-5.15964c-3.36086,0 -5.30164,2.41414 -5.30164,5.15964z"/><path d="M78.70231,311.19233l-12.35473,25.89285c-0.47336,1.04139 -1.42008,1.75144 -2.65082,1.75144c-1.60943,0 -2.8875,-1.37275 -2.8875,-2.98218c0,-0.47336 0.09467,-0.89939 0.28402,-1.23074l11.73936,-23.95207h-12.35473c-1.46742,0 -2.69816,-1.13607 -2.69816,-2.65082c0,-1.46742 1.23074,-2.65082 2.69816,-2.65082h14.48485c3.21886,0 5.15964,2.8875 3.73955,5.82234z"/><path d="M106.20459,328.13866c0,6.76906 -5.91701,10.79263 -11.73936,10.79263c-5.77501,0 -11.78669,-4.02357 -11.78669,-10.79263c0,-3.78689 1.94078,-6.62706 4.5916,-8.42583c-1.51476,-1.56209 -2.46148,-3.59754 -2.46148,-5.82234c0,-4.82828 3.55021,-8.85185 9.65657,-8.85185c6.10636,0 9.65657,4.02357 9.65657,8.85185c0,2.27213 -0.94672,4.30759 -2.50881,5.86968c2.65082,1.75144 4.5916,4.5916 4.5916,8.37849zM94.46524,317.5827c2.31947,0 3.69222,-1.79877 3.69222,-3.64488c0,-1.89344 -1.46742,-3.55021 -3.69222,-3.55021c-2.2248,0 -3.69222,1.65676 -3.69222,3.55021c0,1.84611 1.37275,3.64488 3.69222,3.64488zM99.76688,328.13866c0,-3.50287 -2.69816,-5.39632 -5.30164,-5.39632c-2.60349,0 -5.34898,1.89344 -5.34898,5.39632c0,3.12418 2.46148,5.44365 5.34898,5.44365c2.8875,0 5.30164,-2.31947 5.30164,-5.44365z"/><path d="M115.24577,336.13846c0,-0.61537 0.28402,-1.23074 0.61537,-1.7041l6.10617,-7.85779c-0.14201,-0.14201 -0.33135,-0.18934 -0.61537,-0.18934c-5.58547,0 -11.02912,-4.54427 -11.02912,-10.88731c0,-6.24837 5.44365,-10.55595 11.02912,-10.55595c5.68033,0 11.21866,4.30759 11.21866,11.26599c0,5.1123 -3.31353,8.66251 -6.8164,13.58546l-5.58547,7.90513c-0.47336,0.75738 -1.32541,1.1834 -2.2248,1.1834c-1.56209,0 -2.69816,-1.23074 -2.69816,-2.74549zM126.74828,315.49991c0,-2.84017 -2.31947,-5.15964 -5.30164,-5.15964c-3.02932,0 -5.20678,2.36681 -5.20678,5.15964c0,2.74549 2.17746,5.15964 5.20678,5.15964c3.36086,0 5.30164,-2.41414 5.30164,-5.15964z"/></g></g></g></svg>