<svg version="1.1" xmlns="http://www.w3.org/2000/svg" xmlns:xlink="http://www.w3.org/1999/xlink" width="73.73778" height="14.32609" viewBox="0,0,73.73778,14.32609"><g transform="translate(-65.93094,-125.71512)"><g data-paper-data="{&quot;isPaintingLayer&quot;:true}" fill="#ffffff" fill-rule="evenodd" stroke="none" stroke-width="1" stroke-linecap="round" stroke-linejoin="round" stroke-miterlimit="10" stroke-dasharray="" stroke-dashoffset="0" style="mix-blend-mode: normal"><path d="M84.97081,133.86972c0,0.97931 -0.54615,1.31829 -1.54429,1.31829l-5.59333,-0.03767c0.22599,1.3748 1.31829,2.10927 2.69309,2.10927c0.67798,0 0.99814,-0.15067 1.56312,-0.39549c0.33899,-0.15066 0.60265,-0.30132 0.92281,-0.30132c0.52732,0 0.84747,0.37665 0.84747,0.84748c0,0.30132 -0.13183,0.64031 -0.60265,1.0358c-0.69682,0.48965 -1.63845,0.80981 -2.82491,0.80981c-2.50476,0 -5.16019,-1.54429 -5.16019,-4.97186c0,-3.3899 2.80609,-5.02835 4.95303,-5.02835c2.14693,0 4.74586,1.69495 4.74586,4.61403zM77.83318,133.4554h4.7082c-0.18833,-1.45013 -1.24296,-2.05277 -2.31643,-2.05277c-1.07347,0 -2.22227,0.60265 -2.39177,2.05277z"/><path d="M72.88024,130.25382c0.11299,0.1695 0.30133,0.43316 0.30133,0.82865c0,0.60265 -0.41433,0.9228 -0.96048,0.9228c-0.35783,0 -0.71565,-0.13183 -1.0358,-0.52732c-0.37665,-0.43315 -0.80981,-0.64031 -1.35596,-0.64031c-0.73448,0 -1.16764,0.35782 -1.16764,0.88514c0,0.30132 0.113,0.69681 0.97931,0.94163l1.1488,0.33899c1.50662,0.41432 2.76842,1.12997 2.76842,2.80609c0,2.07161 -1.92095,3.06974 -3.87956,3.06974c-1.69495,0 -2.71191,-0.71564 -3.23923,-1.35596c-0.09417,-0.13183 -0.50848,-0.60265 -0.50848,-1.18646c0,-0.41432 0.26365,-0.94164 0.94163,-0.94164c0.50848,0 0.79098,0.32016 1.01697,0.60265c0.54615,0.67798 1.1488,0.86631 1.78911,0.86631c0.9228,0 1.4313,-0.39549 1.4313,-0.92281c0,-0.32015 -0.20716,-0.73448 -1.11114,-0.99813l-1.07347,-0.32016c-1.90211,-0.52732 -2.69309,-1.54429 -2.69309,-2.88142c0,-1.88328 1.73262,-2.86258 3.52173,-2.86258c1.28063,0 2.50476,0.50848 3.12624,1.37479z"/><path d="M88.22888,139.25589c-0.67798,0 -1.24296,-0.54615 -1.24296,-1.22413v-11.09251c0,-0.65914 0.56498,-1.22413 1.24296,-1.22413c0.65914,0 1.22413,0.56499 1.22413,1.22413v11.09251c0,0.67798 -0.56499,1.22413 -1.22413,1.22413z"/><path d="M100.79034,133.86972c0,0.97931 -0.54615,1.31829 -1.54429,1.31829l-5.59334,-0.03767c0.22599,1.3748 1.31829,2.10927 2.69309,2.10927c0.67798,0 0.99814,-0.15067 1.56312,-0.39549c0.33899,-0.15066 0.60265,-0.30132 0.9228,-0.30132c0.52732,0 0.84748,0.37665 0.84748,0.84748c0,0.30132 -0.13182,0.64031 -0.60264,1.0358c-0.69682,0.48965 -1.63846,0.80981 -2.82492,0.80981c-2.50476,0 -5.16018,-1.54429 -5.16018,-4.97186c0,-3.3899 2.80608,-5.02835 4.95302,-5.02835c2.14693,0 4.74586,1.69495 4.74586,4.61403zM93.65272,133.4554h4.7082c-0.18833,-1.45013 -1.24296,-2.05277 -2.31643,-2.05277c-1.07347,0 -2.22227,0.60265 -2.39176,2.05277z"/><path d="M110.77179,137.44795c0,0.60265 -0.45198,0.90397 -0.69681,1.12996c-0.79098,0.69681 -1.71378,1.05463 -2.93791,1.05463c-2.27876,0 -5.02836,-1.63845 -5.02836,-4.99068c0,-3.37107 2.74959,-5.00952 5.02836,-5.00952c1.22413,0 2.14694,0.33899 2.93791,1.0358c0.24483,0.24482 0.69681,0.54615 0.69681,1.1488c0,0.58381 -0.48965,0.94164 -0.99813,0.94164c-0.45198,0 -0.80982,-0.26365 -0.96048,-0.39549c-0.43315,-0.41432 -1.07347,-0.58382 -1.58195,-0.58382c-1.48779,0 -2.67426,1.0358 -2.67426,2.86258c0,1.80794 1.18646,2.84375 2.67426,2.84375c0.50848,0 1.1488,-0.1695 1.58195,-0.58382c0.15066,-0.13183 0.50849,-0.39549 0.96048,-0.39549c0.50848,0 0.99813,0.35783 0.99813,0.94164z"/><path d="M117.94708,138.31425c0,0.86631 -0.84748,1.3183 -2.12811,1.3183c-1.28063,0 -2.58009,-0.41432 -2.58009,-3.03207v-4.91536h-0.54615c-0.60265,0 -0.99814,-0.39549 -0.99814,-0.96047c0,-0.58381 0.39549,-0.9793 0.99814,-0.9793h0.54615v-1.28063c0,-0.67798 0.56498,-1.24296 1.24296,-1.24296c0.67798,0 1.22413,0.56498 1.22413,1.24296v1.28063h1.24296c0.62148,0 0.99814,0.39549 0.99814,0.9793c0,0.56499 -0.37665,0.96047 -0.99814,0.96047h-1.24296v4.99069c0,0.54615 0.18833,0.82864 0.60265,0.82864c0.20716,0 0.50849,-0.07533 0.71565,-0.07533c0.56498,-0.03767 0.9228,0.30132 0.9228,0.88514z"/><path d="M129.0282,133.86406c0,0.97931 -0.54615,1.31829 -1.54429,1.31829l-5.59333,-0.03767c0.22599,1.3748 1.31829,2.10927 2.69308,2.10927c0.67798,0 0.99814,-0.15067 1.56312,-0.39549c0.33899,-0.15066 0.60265,-0.30133 0.92281,-0.30133c0.52732,0 0.84747,0.37665 0.84747,0.84748c0,0.30132 -0.13183,0.64032 -0.60265,1.03581c-0.69682,0.48965 -1.63845,0.80981 -2.82491,0.80981c-2.50476,0 -5.16019,-1.54429 -5.16019,-4.97186c0,-3.3899 2.80609,-5.02836 4.95303,-5.02836c2.14693,0 4.74586,1.69495 4.74586,4.61404zM121.89058,133.44974h4.7082c-0.18833,-1.45013 -1.24296,-2.05277 -2.31643,-2.05277c-1.07347,0 -2.22227,0.60264 -2.39177,2.05277z"/><path d="M139.66872,127.68691v11.11134c0,0.67798 -0.60265,1.22413 -1.2618,1.22413c-0.67798,0 -1.24296,-0.54615 -1.24296,-1.22413v-0.35782c-0.15066,0.58381 -1.1488,1.60079 -2.78725,1.60079c-2.07161,0 -4.55746,-1.60079 -4.55746,-5.02836c0,-3.35224 2.50468,-5.00952 4.55746,-5.00952c1.33712,0 2.4106,0.71565 2.78725,1.60079v-0.32016c0,-0.07533 0,-0.13183 0.01883,-0.20716v-3.3899c0,-0.65914 0.56499,-1.22413 1.22413,-1.22413c0.67798,0 1.2618,0.56499 1.2618,1.22413zM137.27695,135.01286c0,-2.12811 -1.39362,-2.90025 -2.44826,-2.90025c-1.24296,0 -2.54243,0.9793 -2.54243,2.90025c0,1.93977 1.29946,2.90025 2.54243,2.90025c1.05463,0 2.44826,-0.77214 2.44826,-2.90025z"/></g></g></svg>