<svg version="1.1" xmlns="http://www.w3.org/2000/svg" xmlns:xlink="http://www.w3.org/1999/xlink" width="168.2669" height="170.63143" viewBox="0,0,168.2669,170.63143"><g transform="translate(-198,-37.11843)"><g data-paper-data="{&quot;isPaintingLayer&quot;:true}" fill="#000000" fill-rule="nonzero" stroke="none" stroke-linecap="butt" stroke-linejoin="miter" stroke-miterlimit="10" stroke-dasharray="" stroke-dashoffset="0" style="mix-blend-mode: normal"><path d="M229.47483,180c0,-5.81289 4.71228,-10.52517 10.52517,-10.52517c5.81289,0 10.52517,4.71228 10.52517,10.52517c0,5.81289 -4.71228,10.52517 -10.52517,10.52517c-5.81289,0 -10.52517,-4.71228 -10.52517,-10.52517z" stroke-width="0"/><path d="M198,41.66665v0z" stroke-width="0"/><path d="" stroke-width="0.5"/><path d="M365.86351,206.51604c0.1382,0.41066 0.27322,0.82191 0.40339,1.23382c-0.05504,-0.10875 -0.11118,-0.21686 -0.16841,-0.32432c-0.10853,-0.20377 -0.23667,-0.39133 -0.38013,-0.56633c0.04797,-0.11407 0.09632,-0.22845 0.14515,-0.34317z" stroke-width="0.5"/><path d="" stroke-width="0.5"/><path d="" stroke-width="0.5"/><path d="" stroke-width="0.5"/><path d="M239.97548,37.11843c0.07216,-0.00037 0.00792,0.07627 -0.06255,0.16545c-0.212,-0.05347 -0.4241,-0.10656 -0.63629,-0.15927c0.2335,-0.0029 0.46645,-0.00498 0.69884,-0.00617z" stroke-width="0.5"/></g></g></svg>