<svg version="1.1" xmlns="http://www.w3.org/2000/svg" xmlns:xlink="http://www.w3.org/1999/xlink" width="69.05" height="18.475" viewBox="0,0,69.05,18.475"><g transform="translate(-68.28384,-123.02372)"><g data-paper-data="{&quot;isPaintingLayer&quot;:true}" fill="#ffffff" fill-rule="evenodd" stroke="none" stroke-width="1" stroke-linecap="round" stroke-linejoin="round" stroke-miterlimit="10" stroke-dasharray="" stroke-dashoffset="0" style="mix-blend-mode: normal"><path d="M93.55874,133.84872c0,1.3 -0.725,1.75 -2.05,1.75l-7.425,-0.05c0.3,1.825 1.75,2.8 3.575,2.8c0.9,0 1.325,-0.2 2.075,-0.525c0.45,-0.2 0.8,-0.4 1.225,-0.4c0.7,0 1.125,0.5 1.125,1.125c0,0.4 -0.175,0.85 -0.8,1.375c-0.925,0.65 -2.175,1.075 -3.75,1.075c-3.325,0 -6.85,-2.05 -6.85,-6.6c0,-4.5 3.725,-6.675 6.575,-6.675c2.85,0 6.3,2.25 6.3,6.125zM84.08374,133.29872h6.25c-0.25,-1.925 -1.65,-2.725 -3.075,-2.725c-1.425,0 -2.95,0.8 -3.175,2.725z"/><path d="M77.50884,129.04872c0.15,0.225 0.4,0.575 0.4,1.1c0,0.8 -0.55,1.225 -1.275,1.225c-0.475,0 -0.95,-0.175 -1.375,-0.7c-0.5,-0.575 -1.075,-0.85 -1.8,-0.85c-0.975,0 -1.55,0.475 -1.55,1.175c0,0.4 0.15,0.925 1.3,1.25l1.525,0.45c2,0.55 3.675,1.5 3.675,3.725c0,2.75 -2.55,4.075 -5.15,4.075c-2.25,0 -3.6,-0.95 -4.3,-1.8c-0.125,-0.175 -0.675,-0.8 -0.675,-1.575c0,-0.55 0.35,-1.25 1.25,-1.25c0.675,0 1.05,0.425 1.35,0.8c0.725,0.9 1.525,1.15 2.375,1.15c1.225,0 1.9,-0.525 1.9,-1.225c0,-0.425 -0.275,-0.975 -1.475,-1.325l-1.425,-0.425c-2.525,-0.7 -3.575,-2.05 -3.575,-3.825c0,-2.5 2.3,-3.8 4.675,-3.8c1.7,0 3.325,0.675 4.15,1.825z"/><path d="M97.88374,140.99872c-0.9,0 -1.65,-0.725 -1.65,-1.625v-14.725c0,-0.875 0.75,-1.625 1.65,-1.625c0.875,0 1.625,0.75 1.625,1.625v14.725c0,0.9 -0.75,1.625 -1.625,1.625z"/><path d="M114.55874,133.84872c0,1.3 -0.725,1.75 -2.05,1.75l-7.425,-0.05c0.3,1.825 1.75,2.8 3.575,2.8c0.9,0 1.325,-0.2 2.075,-0.525c0.45,-0.2 0.8,-0.4 1.225,-0.4c0.7,0 1.125,0.5 1.125,1.125c0,0.4 -0.175,0.85 -0.8,1.375c-0.925,0.65 -2.175,1.075 -3.75,1.075c-3.325,0 -6.85,-2.05 -6.85,-6.6c0,-4.5 3.725,-6.675 6.575,-6.675c2.85,0 6.3,2.25 6.3,6.125zM105.08374,133.29872h6.25c-0.25,-1.925 -1.65,-2.725 -3.075,-2.725c-1.425,0 -2.95,0.8 -3.175,2.725z"/><path d="M127.80884,138.59872c0,0.8 -0.6,1.2 -0.925,1.5c-1.05,0.925 -2.275,1.4 -3.9,1.4c-3.025,0 -6.675,-2.175 -6.675,-6.625c0,-4.475 3.65,-6.65 6.675,-6.65c1.625,0 2.85,0.45 3.9,1.375c0.325,0.325 0.925,0.725 0.925,1.525c0,0.775 -0.65,1.25 -1.325,1.25c-0.6,0 -1.075,-0.35 -1.275,-0.525c-0.575,-0.55 -1.425,-0.775 -2.1,-0.775c-1.975,0 -3.55,1.375 -3.55,3.8c0,2.4 1.575,3.775 3.55,3.775c0.675,0 1.525,-0.225 2.1,-0.775c0.2,-0.175 0.675,-0.525 1.275,-0.525c0.675,0 1.325,0.475 1.325,1.25z"/><path d="M137.33384,139.74872c0,1.15 -1.125,1.75 -2.825,1.75c-1.7,0 -3.425,-0.55 -3.425,-4.025v-6.525h-0.725c-0.8,0 -1.325,-0.525 -1.325,-1.275c0,-0.775 0.525,-1.3 1.325,-1.3h0.725v-1.7c0,-0.9 0.75,-1.65 1.65,-1.65c0.9,0 1.625,0.75 1.625,1.65v1.7h1.65c0.825,0 1.325,0.525 1.325,1.3c0,0.75 -0.5,1.275 -1.325,1.275h-1.65v6.625c0,0.725 0.25,1.1 0.8,1.1c0.275,0 0.675,-0.1 0.95,-0.1c0.75,-0.05 1.225,0.4 1.225,1.175z"/></g></g></svg>