<svg version="1.1" xmlns="http://www.w3.org/2000/svg" xmlns:xlink="http://www.w3.org/1999/xlink" width="21.84135" height="21.33302" viewBox="0,0,21.84135,21.33302"><defs><linearGradient x1="245.4438" y1="171.71975" x2="234.55619" y2="188.28025" gradientUnits="userSpaceOnUse" id="color-1"><stop offset="0" stop-color="#aaaeb3" stop-opacity="0"/><stop offset="1" stop-color="#aaaeb3"/></linearGradient></defs><g transform="translate(-229.07932,-169.33349)"><g data-paper-data="{&quot;isPaintingLayer&quot;:true}" fill-rule="nonzero" stroke-linecap="butt" stroke-linejoin="miter" stroke-miterlimit="10" stroke-dasharray="" stroke-dashoffset="0" style="mix-blend-mode: normal"><path d="" fill="#000000" stroke="none" stroke-width="0.5"/><path d="" fill="#000000" stroke="none" stroke-width="0.5"/><path d="M229.57932,180c0,-5.61481 4.66549,-10.16651 10.42068,-10.16651c5.75518,0 10.42068,4.5517 10.42068,10.16651c0,5.61481 -4.66549,10.16651 -10.42068,10.16651c-5.75518,0 -10.42068,-4.5517 -10.42068,-10.16651z" fill="#d5dae0" stroke="#e7edf3" stroke-width="1"/><path d="M248.0783,185.31103c-3.00654,4.57306 -9.06059,5.90242 -13.52211,2.96922c-4.46152,-2.93321 -5.64102,-9.01824 -2.63449,-13.59128c3.00654,-4.57306 9.06059,-5.90242 13.52211,-2.96922c4.46152,2.93321 5.64102,9.01824 2.63449,13.59128z" data-paper-data="{&quot;index&quot;:null}" fill="url(#color-1)" stroke="none" stroke-width="0"/></g></g></svg>