<svg version="1.1" xmlns="http://www.w3.org/2000/svg" xmlns:xlink="http://www.w3.org/1999/xlink" width="110.0479" height="40.56961" viewBox="0,0,110.0479,40.56961"><g transform="translate(-171.24666,-13.30018)"><g data-paper-data="{&quot;isPaintingLayer&quot;:true}" fill="#ffffff" fill-rule="evenodd" stroke="none" stroke-width="1" stroke-linecap="round" stroke-linejoin="round" stroke-miterlimit="10" stroke-dasharray="" stroke-dashoffset="0" style="mix-blend-mode: normal"><path d="M191.28046,17.61035c0.88728,1.02737 1.35427,1.86797 1.35427,2.80194c0,1.40098 -1.12078,2.52174 -2.61513,2.52174c-0.98068,0 -1.91466,-0.60709 -2.52174,-1.26088c-1.30757,-1.35427 -2.42834,-2.10145 -4.48309,-2.10145c-2.84863,0 -4.4831,1.44765 -4.4831,3.50241c0,1.54106 0.84058,2.94204 3.64253,4.01611l1.82126,0.70049c7.28504,2.75523 10.22708,5.41708 10.22708,9.90018c0,6.44446 -6.39775,9.66669 -11.81483,9.66669c-3.68922,0 -7.56523,-1.49437 -9.85348,-4.3897c-0.46699,-0.5604 -1.30757,-1.63446 -1.30757,-3.03542c0,-1.30757 0.84058,-2.66184 2.56844,-2.66184c1.40096,0 2.33495,0.88728 2.98873,1.77457c1.63447,2.05476 3.82932,2.70853 5.60388,2.70853c2.28825,0 5.41708,-0.88728 5.41708,-4.0628c0,-2.42834 -1.63447,-3.54912 -5.23029,-4.95009l-1.96136,-0.74718c-4.80999,-1.86797 -8.35911,-4.2029 -8.35911,-8.96619c0,-5.55717 4.66989,-9.01289 10.50726,-9.01289c4.1095,0 6.63126,1.54106 8.49921,3.59582z"/><path d="M222.18285,33.2873v10.55397c0,1.68116 -1.40096,3.03542 -3.08213,3.03542c-1.63447,0 -3.03543,-1.35427 -3.03543,-3.03542v-10.55397c0,-4.2029 -2.19486,-5.93076 -4.95009,-5.93076c-4.2029,0 -5.60388,3.92271 -5.79067,5.23029v11.25446c0,1.68116 -1.40096,3.03542 -3.03542,3.03542c-1.68116,0 -3.08214,-1.35427 -3.08214,-3.03542v-27.50568c0,-1.63447 1.40098,-3.03543 3.08214,-3.03543c1.63447,0 3.03542,1.40098 3.03542,3.03543v11.30115c0.1868,-1.68116 2.94203,-5.51048 7.98551,-5.51048c4.71658,0 8.87279,3.08213 8.87279,11.16105z"/><path d="M251.3488,35.53472c0,8.35911 -7.14494,12.42192 -12.46861,12.42192c-5.37038,0 -12.46861,-4.06281 -12.46861,-12.42192c0,-8.31242 7.09825,-12.46861 12.46861,-12.46861c5.32369,0 12.46861,4.1562 12.46861,12.46861zM232.48243,35.53472c0,4.48309 3.08213,7.09825 6.39776,7.09825c3.26893,0 6.39776,-2.61515 6.39776,-7.09825c0,-4.5298 -3.12883,-7.14494 -6.39776,-7.14494c-3.31562,0 -6.39776,2.61513 -6.39776,7.14494z"/><path d="M281.29456,32.5284c0,8.49921 -6.16426,12.46861 -11.30115,12.46861c-4.0628,0 -6.53786,-2.52174 -6.91145,-3.96942v0.88728c0,0.1868 0,0.37358 -0.04669,0.51368v8.40581c0,1.68116 -1.44767,3.03543 -3.08214,3.03543c-1.68116,0 -3.08214,-1.35427 -3.08214,-3.03543v-27.55238c0,-1.63447 1.49437,-3.03543 3.12883,-3.03543c1.68116,0 3.08213,1.40096 3.08213,3.03543v0.79388c0.93397,-2.19486 3.59582,-3.96942 6.91145,-3.96942c5.09018,0 11.30115,4.1095 11.30115,12.42192zM275.177,32.5284c0,-4.76329 -3.22223,-7.19164 -6.30436,-7.19164c-2.61513,0 -6.07086,1.91466 -6.07086,7.19164c0,5.27698 3.45573,7.19164 6.07086,7.19164c3.08214,0 6.30436,-2.38165 6.30436,-7.19164z"/></g></g></svg>