<svg version="1.1" xmlns="http://www.w3.org/2000/svg" xmlns:xlink="http://www.w3.org/1999/xlink" width="38.14554" height="89.49655" viewBox="0,0,38.14554,89.49655"><defs><linearGradient x1="266.79794" y1="228.67053" x2="273.21958" y2="228.67053" gradientUnits="userSpaceOnUse" id="color-1"><stop offset="0" stop-color="#b1b1b3"/><stop offset="1" stop-color="#cacccc"/></linearGradient><linearGradient x1="263.58641" y1="187.52926" x2="276.08053" y2="187.52926" gradientUnits="userSpaceOnUse" id="color-2"><stop offset="0" stop-color="#b4b4b6"/><stop offset="1" stop-color="#c7c9c9"/></linearGradient></defs><g transform="translate(-239.18499,-180.34454)"><g data-paper-data="{&quot;isPaintingLayer&quot;:true}" fill-rule="nonzero" stroke-width="2.5" stroke-linecap="butt" stroke-linejoin="miter" stroke-miterlimit="10" stroke-dasharray="" stroke-dashoffset="0" style="mix-blend-mode: normal"><path d="M240.435,195.17367c0,0 6.89428,2.71685 9.97066,2.71685c2.39958,0 5.44556,-3.36348 8.94803,-4.02581c3.67675,-0.69529 7.75579,1.30897 7.75579,1.30897v20.33518c0,0 -3.06967,-1.66859 -6.75259,-0.8666c-3.68949,0.80342 -7.99443,4.07742 -10.44521,4.07742c-3.56212,0 -9.47669,-3.21082 -9.47669,-3.21082z" fill="#175aa3" stroke="#124680"/><path d="M266.79794,268.5911v-79.84113h6.42163v79.84113z" fill="url(#color-1)" stroke="#99999b"/><path d="M276.08053,187.52926c0,3.27765 -2.7969,5.93471 -6.24706,5.93471c-3.45016,0 -6.24706,-2.65706 -6.24706,-5.93471c0,-3.27765 2.7969,-5.93471 6.24706,-5.93471c3.45016,0 6.24706,2.65706 6.24706,5.93471z" fill="url(#color-2)" stroke="#99999b"/></g></g></svg>