<svg version="1.1" xmlns="http://www.w3.org/2000/svg" xmlns:xlink="http://www.w3.org/1999/xlink" width="441.76202" height="339.54939" viewBox="0,0,441.76202,339.54939"><g transform="translate(1.36957,1.50113)"><g data-paper-data="{&quot;isPaintingLayer&quot;:true}" fill="#fa4848" fill-rule="evenodd" stroke="none" stroke-width="1" stroke-linecap="round" stroke-linejoin="round" stroke-miterlimit="10" stroke-dasharray="" stroke-dashoffset="0" style="mix-blend-mode: normal"><path d="M31.18506,31.3568c0,1.66817 -1.41542,3.08359 -3.2858,3.08359c-1.51651,0 -2.72974,-0.85936 -3.2858,-2.17368l-2.52753,-5.96498h-14.35639l-2.52753,5.96498c-0.55606,1.31432 -1.76927,2.17368 -3.23524,2.17368c-1.87038,0 -3.33633,-1.41541 -3.33633,-3.08359c0,-0.70771 0.2022,-1.36487 0.45496,-1.92092l12.53657,-28.25782c0.70771,-1.71873 1.76927,-2.52753 3.2858,-2.52753c1.51652,0 2.57808,0.80881 3.33633,2.52753l12.53658,28.25782c0.25276,0.55606 0.40441,1.21322 0.40441,1.92092zM19.7606,20.89281l-4.85286,-11.42444l-4.85286,11.42444z"/><path d="M61.97041,23.92585c0,6.11663 -4.44846,10.31234 -13.04207,10.31234h-9.20021c-2.17368,0 -3.74074,-1.56707 -3.74074,-3.74074v-27.90396c0,-2.17367 1.56707,-3.74075 3.74074,-3.74075h8.69471c6.26829,0 11.12114,2.98249 11.12114,8.89692c0,2.88139 -1.21322,5.51003 -4.70121,6.82435c5.35837,2.02203 7.12764,5.35837 7.12764,9.35186zM42.8117,12.7036h5.61112c2.78029,0 4.49901,-1.66817 4.49901,-4.14515c0,-2.52753 -1.71873,-3.94296 -4.49901,-3.94296h-5.61112zM55.34828,23.31924c0,-2.78029 -1.66817,-5.40893 -6.41994,-5.40893h-6.11663v10.56509h6.11663c4.70121,0 6.41994,-2.42643 6.41994,-5.15617z"/><path d="M95.78859,28.42486c0,1.66817 -1.16266,2.78029 -3.03304,3.9935c-2.12293,1.31432 -4.9032,2.17368 -8.34066,2.17368c-8.94746,0 -17.89494,-7.38039 -17.89494,-18.04658c0,-10.66619 8.99802,-18.04658 17.79383,-18.04658c3.53855,0 6.31883,0.90992 8.44176,2.17367c1.87038,1.21322 3.03304,2.32533 3.03304,3.9935c0,1.97148 -1.56706,3.0836 -3.18469,3.0836c-1.26356,0 -2.17348,-0.65716 -2.72954,-1.06157c-0.75827,-0.50551 -2.62863,-1.71873 -5.45947,-1.71873c-5.71223,0 -10.7673,5.05506 -10.7673,11.57611c0,6.52104 5.00452,11.57611 10.81785,11.57611c2.72973,0 4.65066,-1.21322 5.40892,-1.71873c0.55606,-0.40441 1.41542,-1.06157 2.72954,-1.06157c1.61763,0 3.18469,1.11211 3.18469,3.0836z"/><path d="M129.85974,16.3938c0,11.62666 -8.08811,17.84439 -18.09714,17.84439h-7.43094c-2.17367,0 -3.74074,-1.56707 -3.74074,-3.74074v-27.90396c0,-2.17367 1.56707,-3.74075 3.74074,-3.74075h7.43094c10.00903,0 18.09714,6.21773 18.09714,17.54108zM123.0354,16.3938c0,-8.13864 -4.14515,-11.77829 -11.27279,-11.77829h-4.34737v23.8599h4.34737c7.12764,0 11.27279,-3.63965 11.27279,-12.08161z"/><path d="M155.94389,28.2732c1.61763,0 3.03304,1.36488 3.03304,2.98249c0,1.66817 -1.41541,2.9825 -3.03304,2.9825h-17.28832c-2.17368,0 -3.74075,-1.56707 -3.74075,-3.74075v-27.90396c0,-2.17367 1.56707,-3.74074 3.74075,-3.74074h16.78282c1.61763,0 3.03305,1.31432 3.03305,2.93193c0,1.66817 -1.41542,3.03304 -3.03305,3.03304h-13.69923v8.79581h8.99803c1.66817,0 2.98249,1.31432 2.98249,2.83083c0,1.56706 -1.31432,2.88139 -2.98249,2.88139h-8.99803v8.94746z"/><path d="M184.30281,4.81771h-13.69923v9.60462h11.22225c1.61763,0 2.98249,1.26376 2.98249,2.93193c0,1.61763 -1.36488,2.88139 -2.98249,2.88139h-11.22225v10.86839c0,1.87038 -1.51652,3.48799 -3.3869,3.48799c-1.87038,0 -3.43745,-1.61763 -3.43745,-3.48799v-28.51058c0,-2.17367 1.56707,-3.74074 3.74074,-3.74074h16.78283c1.61763,0 3.03304,1.31433 3.03304,2.93193c0,1.66817 -1.41541,3.03304 -3.03304,3.03304z"/><path d="M225.24884,19.57849c-0.4044,9.90793 -7.83536,15.01356 -15.6707,15.01356c-8.99802,0 -17.94548,-7.3804 -17.94548,-18.04659c0,-10.66619 8.99802,-18.04659 17.79383,-18.04659c3.53855,0 6.31883,0.90992 8.44196,2.17368c1.87038,1.21322 3.03304,2.32533 3.03304,3.9935c0,1.97148 -1.56707,3.08359 -3.1847,3.08359c-1.26376,0 -2.17367,-0.65717 -2.72973,-1.06157c-0.75827,-0.50551 -2.62864,-1.71872 -5.45948,-1.71872c-5.71223,0 -10.76729,5.05506 -10.76729,11.5761c0,6.52104 5.00452,11.5761 10.81785,11.5761c3.99349,0 8.44196,-2.47698 9.04856,-7.17819h-5.76277c-1.56707,0 -2.98249,-1.16266 -2.98249,-2.78029c0,-1.66817 1.41542,-2.83083 2.98249,-2.83083h8.74526c2.52754,0 3.79131,1.76927 3.63965,4.24625z"/><path d="M256.03418,-1.29893c1.87038,0 3.33634,1.56707 3.33634,3.43745v28.81387c0,1.87038 -1.46598,3.43744 -3.33634,3.43744c-1.92092,0 -3.43744,-1.56706 -3.43744,-3.43744v-11.22225h-15.26631v11.22225c0,1.87038 -1.51651,3.43744 -3.38689,3.43744c-1.92092,0 -3.43745,-1.56706 -3.43745,-3.43744v-28.81387c0,-1.87038 1.51651,-3.43745 3.43745,-3.43745c1.87038,0 3.38689,1.56707 3.38689,3.43745v11.7783h15.26631v-11.7783c0,-1.87038 1.51651,-3.43745 3.43744,-3.43745z"/><path d="M272.36206,2.18906v28.91498c0,1.87038 -1.56707,3.48799 -3.43745,3.48799c-1.92092,0 -3.48799,-1.61763 -3.48799,-3.48799v-28.91498c0,-1.87038 1.56707,-3.48799 3.48799,-3.48799c1.87038,0 3.43745,1.61763 3.43745,3.48799z"/><path d="M299.10336,1.98686v19.56311c0,10.11013 -6.16718,13.04207 -12.0816,13.04207c-3.43745,0 -5.91443,-0.96047 -7.7848,-2.22423c-1.01101,-0.65716 -2.07258,-1.81982 -2.07258,-3.33634c0,-1.46597 0.96047,-2.83084 2.83084,-2.83084c1.11211,0 2.12313,0.5055 2.52753,0.80881c1.61763,0.96046 2.57808,1.46597 4.2968,1.46597c2.52753,0 5.35837,-1.06156 5.35837,-6.92544v-19.56311c0,-1.76927 1.56707,-3.2858 3.43745,-3.2858c1.92092,0 3.48799,1.51652 3.48799,3.2858z"/><path d="M334.94376,31.60955c0,1.61763 -1.36487,2.98249 -3.03304,2.98249c-0.85935,0 -1.66817,-0.40441 -2.22423,-1.01101l-12.33436,-13.95198l-5.35837,5.56058v5.96498c0,1.87038 -1.56707,3.43745 -3.43745,3.43745c-1.87038,0 -3.3869,-1.56707 -3.3869,-3.3869v-29.26883c0,-1.87038 1.51652,-3.43744 3.3869,-3.43744c1.87038,0 3.43745,1.56706 3.43745,3.43744v14.15418l16.0751,-16.42896c0.55606,-0.6066 1.46597,-1.16266 2.42643,-1.16266c1.66817,0 3.08359,1.36487 3.08359,3.03304c0,0.75826 -0.35386,1.51652 -0.70771,1.97148l-11.27279,11.72776l12.58711,14.3564c0.45496,0.50551 0.75826,1.26376 0.75826,2.02203z"/><path d="M359.20808,28.22266c1.61763,0 3.03305,1.31433 3.03305,3.03304c0,1.66817 -1.41541,2.98249 -3.03305,2.98249h-15.97401c-2.17368,0 -3.74074,-1.56707 -3.74074,-3.74074v-28.30837c0,-1.92092 1.51652,-3.48799 3.43745,-3.48799c1.87038,0 3.3869,1.56706 3.3869,3.48799v26.03359z"/><path d="M405.00699,1.88576v29.01608c0,1.87038 -1.56706,3.48799 -3.53855,3.48799c-1.87038,0 -3.43745,-1.61763 -3.43745,-3.48799v-16.98501l-9.04856,17.03557c-0.65716,1.21322 -1.76927,1.92092 -2.98249,1.92092c-1.16266,0 -2.27479,-0.70771 -2.93193,-1.92092l-9.09912,-17.03557v16.98502c0,1.87038 -1.51651,3.48799 -3.38689,3.48799c-1.97147,0 -3.53855,-1.61763 -3.53855,-3.48799v-29.01608c0,-2.12313 1.61763,-3.1847 3.13415,-3.1847c1.41541,0 2.72973,1.06157 3.43745,2.27479l12.38491,22.29285l12.43546,-22.29285c0.70771,-1.21322 2.02202,-2.27479 3.43745,-2.27479c1.51651,0 3.13414,1.06157 3.13414,3.1847z"/><path d="M440.39245,2.18906v29.01608c0,2.17367 -1.41542,3.33634 -3.1847,3.33634c-1.46598,0 -2.62864,-0.75827 -3.53855,-2.02203l-15.6707,-21.33238v19.86641c0,1.87038 -1.51652,3.48799 -3.3869,3.48799c-1.97147,0 -3.53855,-1.61763 -3.53855,-3.48799v-29.06662c0,-2.12313 1.41542,-3.2858 3.23524,-3.2858c1.46598,0 2.62863,0.75826 3.48799,1.97148l15.6707,21.38293v-19.86641c0,-1.87038 1.56707,-3.48799 3.43745,-3.48799c1.97147,0 3.48799,1.61763 3.48799,3.48799z"/><path d="M34.6225,77.20624c0,10.66619 -8.74527,18.04658 -17.64218,18.04658c-8.84637,0 -17.59163,-7.38039 -17.59163,-18.04658c0,-10.66619 8.74527,-18.04658 17.59163,-18.04658c8.89692,0 17.64218,7.38039 17.64218,18.04658zM6.51634,77.20624c0,6.92544 4.90341,11.5761 10.46398,11.5761c5.61113,0 10.51454,-4.65066 10.51454,-11.5761c0,-6.92544 -4.85286,-11.57611 -10.51454,-11.57611c-5.56058,0 -10.46398,4.65066 -10.46398,11.57611z"/><path d="M66.11556,70.98852c0,6.47048 -5.05506,11.3739 -12.94097,11.3739h-6.16719v9.45297c0,1.87038 -1.51652,3.43745 -3.3869,3.43745c-1.92092,0 -3.43745,-1.56707 -3.43745,-3.43745v-28.56112c0,-2.17368 1.56707,-3.74074 3.74074,-3.74074h9.25078c7.88591,0 12.94097,5.10561 12.94097,11.47501zM59.49343,70.98852c0,-4.14515 -2.83084,-5.66167 -6.62214,-5.66167h-5.86388v11.22225h5.86388c3.7913,0 6.62214,-1.36488 6.62214,-5.56057z"/><path d="M102.00633,90.70327c0.45496,0.55606 0.75826,1.21322 0.75826,1.92092c0,1.56706 -1.26376,2.83084 -2.83083,2.83084c-0.75827,0 -1.46598,-0.30331 -1.97148,-0.80882l-1.56707,-1.61763c-2.57808,1.41542 -5.45927,2.22423 -8.39121,2.22423c-8.84637,0 -17.59163,-7.3804 -17.59163,-18.04659c0,-10.66619 8.74527,-18.04659 17.59163,-18.04659c8.89672,0 17.64198,7.3804 17.64198,18.04659c0,4.95397 -1.87039,9.20021 -4.80232,12.33436zM91.64364,88.12519l-2.78029,-2.88139c-0.50551,-0.50551 -0.85935,-1.16266 -0.85935,-1.92092c0,-1.51652 1.26376,-2.83084 2.83083,-2.83084c0.75827,0 1.51631,0.3033 1.97127,0.85935l3.2858,3.38689c1.51651,-1.97148 2.42644,-4.54955 2.42644,-7.53205c0,-6.92545 -4.85286,-11.5761 -10.51433,-11.5761c-5.56057,0 -10.46399,4.65066 -10.46399,11.5761c0,6.92545 4.90342,11.57611 10.46399,11.57611c1.26376,0 2.47698,-0.25276 3.63965,-0.65716z"/><path d="M137.59399,91.86594c0,1.76927 -1.31432,3.1847 -3.08359,3.1847c-1.06157,0 -1.97148,-0.50551 -2.52754,-1.26376l-8.94746,-11.42444h-5.00452v9.45297c0,1.87038 -1.51652,3.43745 -3.3869,3.43745c-1.92092,0 -3.43745,-1.56707 -3.43745,-3.43745v-28.56112c0,-2.17368 1.56707,-3.74074 3.74075,-3.74074h9.25077c7.88591,0 12.94097,5.10561 12.94097,11.47501c0,4.75176 -2.72973,8.64417 -7.32986,10.41343l6.97599,8.3914c0.45496,0.55606 0.80881,1.26376 0.80881,2.07257zM118.03088,76.54909h5.86388c3.7913,0 6.62213,-1.36488 6.62213,-5.56057c0,-4.14515 -2.83084,-5.66167 -6.62213,-5.66167h-5.86388z"/><path d="M163.32428,63.05206c0.96047,1.11211 1.46597,2.02202 1.46597,3.03304c0,1.51652 -1.21322,2.72974 -2.83083,2.72974c-1.06157,0 -2.07258,-0.65716 -2.72974,-1.36487c-1.41542,-1.46597 -2.62863,-2.27479 -4.85286,-2.27479c-3.08359,0 -4.85286,1.56707 -4.85286,3.7913c0,1.66817 0.90992,3.1847 3.94296,4.34737l1.97147,0.75826c7.8859,2.98249 11.0706,5.86388 11.0706,10.71675c0,6.97599 -6.92545,10.46398 -12.78932,10.46398c-3.99349,0 -8.18921,-1.61763 -10.66619,-4.75176c-0.50551,-0.6066 -1.41541,-1.76927 -1.41541,-3.2858c0,-1.41542 0.90991,-2.88139 2.78028,-2.88139c1.51652,0 2.52754,0.96047 3.23525,1.92093c1.76927,2.22423 4.14515,2.93192 6.06607,2.93192c2.47698,0 5.86388,-0.96046 5.86388,-4.3979c0,-2.62864 -1.76927,-3.84185 -5.66166,-5.35838l-2.12313,-0.80881c-5.20672,-2.02203 -9.04856,-4.54956 -9.04856,-9.70572c0,-6.01553 5.05507,-9.75627 11.3739,-9.75627c4.44846,0 7.17819,1.66816 9.20022,3.89239z"/><path d="M197.19322,62.54655c0,1.66817 -1.36488,2.98249 -2.98249,2.98249h-7.17819v26.13469c0,1.97148 -1.56707,3.58909 -3.38689,3.58909c-1.87038,0 -3.43745,-1.61763 -3.43745,-3.58909v-26.13469h-7.12764c-1.61763,0 -3.03304,-1.31432 -3.03304,-2.98249c0,-1.71873 1.41541,-3.03304 3.03304,-3.03304h21.13017c1.61763,0 2.98249,1.31432 2.98249,3.03304z"/><path d="M230.2028,62.64766v19.56311c0,8.18921 -6.26829,13.04207 -14.10364,13.04207c-7.88591,0 -14.10364,-4.85286 -14.10364,-13.04207v-19.56311c0,-1.76927 1.46598,-3.2858 3.33634,-3.2858c1.87038,0 3.48799,1.51651 3.48799,3.2858v19.46199c0,5.30782 3.38689,7.43095 7.27929,7.43095c3.94295,0 7.27929,-2.12313 7.27929,-7.43095v-19.46199c0,-1.76927 1.61763,-3.2858 3.53855,-3.2858c1.87038,0 3.28579,1.51651 3.28579,3.2858z"/><path d="M267.81248,62.44545c0,0.70771 -0.15165,1.36487 -0.40441,1.92092l-12.53658,28.25782c-0.75826,1.71873 -1.81982,2.52753 -3.33633,2.52753c-1.51652,0 -2.57808,-0.80881 -3.2858,-2.52753l-12.53657,-28.25782c-0.25275,-0.55606 -0.45495,-1.21322 -0.45495,-1.92092c0,-1.66817 1.46597,-3.08359 3.33633,-3.08359c1.46598,0 2.67919,0.85935 3.23524,2.17367l9.70573,22.79836l9.70572,-22.79836c0.55606,-1.31432 1.76928,-2.17367 3.2858,-2.17367c1.87038,0 3.28579,1.41541 3.28579,3.08359z"/><path d="M319.52581,62.44545c0,0.70771 -0.25275,1.36487 -0.40441,1.92092l-8.69472,28.25782c-0.50551,1.71873 -1.87038,2.52753 -3.58909,2.52753c-1.76927,0 -2.98249,-0.80881 -3.58909,-2.52753l-7.7848,-21.23128l-7.83536,21.23128c-0.6066,1.71873 -1.81982,2.52753 -3.53855,2.52753c-1.71873,0 -3.08359,-0.80881 -3.63965,-2.52753l-8.64416,-28.25782c-0.2022,-0.55606 -0.45496,-1.21322 -0.45496,-1.92092c0,-1.66817 1.46598,-3.08359 3.33634,-3.08359c1.46597,0 2.88139,0.85935 3.23525,2.17367l6.41994,22.79836l8.0881,-22.74779c0.6066,-1.66817 1.71874,-2.22423 2.9825,-2.22423c1.21322,0 2.47698,0.55605 3.08359,2.22423l8.08811,22.74779l6.36939,-22.79836c0.35385,-1.31432 1.76927,-2.17367 3.28579,-2.17367c1.87038,0 3.28579,1.41541 3.28579,3.08359z"/><path d="M351.82769,92.27034c0,1.71873 -1.26376,2.98249 -3.18469,2.98249c-1.16266,0 -2.12313,-0.45496 -2.83084,-1.46597l-8.08811,-11.62666l-8.13865,11.62666c-0.70771,1.01101 -1.66817,1.46597 -2.78029,1.46597c-1.92092,0 -3.23524,-1.26376 -3.23524,-2.98249c0,-0.85936 0.30331,-1.66817 0.75826,-2.32533l9.55409,-13.19373l-8.74527,-12.08161c-0.45496,-0.65716 -0.75826,-1.46597 -0.75826,-2.32533c0,-1.71873 1.31433,-2.98249 3.1847,-2.98249c1.16266,0 2.12313,0.45496 2.83083,1.46597l7.32985,10.46399l7.2793,-10.46399c0.70771,-1.011 1.71872,-1.46597 2.83083,-1.46597c1.92092,0 3.23524,1.26376 3.23524,2.98249c0,0.85936 -0.3033,1.66816 -0.80881,2.32533l-8.74527,12.08161l9.55408,13.19373c0.45496,0.65716 0.75826,1.46597 0.75826,2.32533z"/><path d="M384.23067,62.44545c0,0.65716 -0.15166,1.21322 -0.50551,1.71873l-10.26178,14.96299v12.83987c0,1.81982 -1.56707,3.2858 -3.3869,3.2858c-1.76927,0 -3.33634,-1.46597 -3.33634,-3.2858v-12.83987l-10.26178,-14.96299c-0.35385,-0.50551 -0.50551,-1.06157 -0.50551,-1.71873c0,-1.71873 1.36487,-3.08359 3.13414,-3.08359c1.01101,0 1.87038,0.45495 2.47698,1.26376l8.49251,12.73877l8.54305,-12.73877c0.55606,-0.80881 1.46598,-1.26376 2.47699,-1.26376c1.71873,0 3.13414,1.36487 3.13414,3.08359z"/><path d="M412.69069,66.74225l-17.38942,22.1412h15.5696c1.66817,0 3.03305,1.31432 3.03305,3.03305c0,1.66817 -1.36487,2.98249 -3.03305,2.98249h-17.79383c-3.99349,0 -6.41994,-3.9935 -3.89239,-7.22874l17.38942,-22.14119h-14.40693c-1.61763,0 -3.03304,-1.31432 -3.03304,-2.98249c0,-1.71873 1.41541,-3.03304 3.03304,-3.03304h16.58061c4.04406,0 6.41994,3.99349 3.94296,7.22874z"/><path d="M25.32117,193.06897v20.16972c0,1.81982 -1.61763,3.2858 -3.3869,3.2858c-1.81982,0 -3.33634,-1.46598 -3.33634,-3.2858v-0.96047c-0.4044,1.56707 -3.08359,4.29681 -7.48149,4.29681c-5.56057,0 -12.23326,-4.2968 -12.23326,-13.49703c0,-8.99802 6.72323,-13.44648 12.23326,-13.44648c3.58909,0 6.47048,1.92092 7.48149,4.2968v-0.85935c0,-1.76927 1.51652,-3.2858 3.33634,-3.2858c1.76927,0 3.3869,1.51651 3.3869,3.2858zM18.90124,203.078c0,-5.71223 -3.74074,-7.7848 -6.57158,-7.7848c-3.33633,0 -6.82435,2.62864 -6.82435,7.7848c0,5.20672 3.48799,7.7848 6.82435,7.7848c2.83084,0 6.57158,-2.07257 6.57158,-7.7848z"/><path d="M57.82525,203.078c0,9.20022 -6.6727,13.49703 -12.23326,13.49703c-4.39791,0 -7.0771,-2.72974 -7.48149,-4.29681v0.96047c0,1.81982 -1.51652,3.2858 -3.33633,3.2858c-1.76927,0 -3.3869,-1.46598 -3.3869,-3.2858v-29.8249c0,-1.76927 1.56707,-3.2858 3.3869,-3.2858c1.76927,0 3.28579,1.51652 3.28579,3.2858v9.09911c0.05055,0.2022 0.05055,0.35385 0.05055,0.55606v0.85935c1.01101,-2.37588 3.8924,-4.2968 7.4815,-4.2968c5.51002,0 12.23325,4.44846 12.23325,13.44648zM51.2031,203.078c0,-5.15616 -3.48799,-7.7848 -6.82434,-7.7848c-2.83084,0 -6.57158,2.07257 -6.57158,7.7848c0,5.71223 3.74074,7.7848 6.57158,7.7848c3.33634,0 6.82434,-2.57808 6.82434,-7.7848z"/><path d="M84.7182,210.61005c0,1.61763 -1.21322,2.42643 -1.87038,3.03304c-2.12313,1.87038 -4.60012,2.83084 -7.88591,2.83084c-6.11664,0 -13.49703,-4.39791 -13.49703,-13.39593c0,-9.04856 7.3804,-13.44648 13.49703,-13.44648c3.2858,0 5.76278,0.90992 7.88591,2.78029c0.65716,0.65716 1.87038,1.46597 1.87038,3.08359c0,1.56707 -1.31432,2.52754 -2.67919,2.52754c-1.21322,0 -2.17368,-0.70771 -2.57808,-1.06157c-1.16266,-1.11211 -2.88138,-1.56707 -4.24625,-1.56707c-3.9935,0 -7.17819,2.78029 -7.17819,7.6837c0,4.85286 3.1847,7.63315 7.17819,7.63315c1.36487,0 3.08359,-0.45495 4.24625,-1.56707c0.4044,-0.35386 1.36487,-1.06157 2.57808,-1.06157c1.36487,0 2.67919,0.96047 2.67919,2.52753z"/><path d="M114.79564,183.41379v29.8249c0,1.81982 -1.61763,3.2858 -3.3869,3.2858c-1.81982,0 -3.33634,-1.46598 -3.33634,-3.2858v-0.96047c-0.4044,1.56707 -3.08359,4.29681 -7.48149,4.29681c-5.56057,0 -12.23306,-4.2968 -12.23306,-13.49703c0,-8.99802 6.72304,-13.44648 12.23306,-13.44648c3.58909,0 6.47048,1.92092 7.48149,4.2968v-0.85935c0,-0.2022 0,-0.35385 0.05055,-0.55606v-9.09911c0,-1.76927 1.51651,-3.2858 3.2858,-3.2858c1.81982,0 3.3869,1.51652 3.3869,3.2858zM108.37571,203.078c0,-5.71223 -3.74074,-7.7848 -6.57158,-7.7848c-3.33634,0 -6.82435,2.62864 -6.82435,7.7848c0,5.20672 3.48799,7.7848 6.82435,7.7848c2.83084,0 6.57158,-2.07257 6.57158,-7.7848z"/><path d="M145.8843,202.01643c0,2.62864 -1.46597,3.53855 -4.14515,3.53855l-15.01355,-0.10111c0.6066,3.69021 3.53855,5.66166 7.22874,5.66166c1.81982,0 2.67919,-0.4044 4.19572,-1.06156c0.90992,-0.4044 1.61762,-0.80882 2.47698,-0.80882c1.41542,0 2.27479,1.01101 2.27479,2.27479c0,0.80881 -0.35386,1.71873 -1.61763,2.78029c-1.87038,1.31432 -4.3979,2.17368 -7.5826,2.17368c-6.72323,0 -13.85088,-4.14516 -13.85088,-13.34537c0,-9.09912 7.53205,-13.49703 13.29483,-13.49703c5.76278,0 12.73876,4.54956 12.73876,12.38491zM126.7256,200.90431h12.63766c-0.50551,-3.89239 -3.33633,-5.51002 -6.21772,-5.51002c-2.88139,0 -5.96498,1.61763 -6.41994,5.51002z"/><path d="M168.73319,183.56544c0,1.41542 -1.06156,2.37588 -2.47698,2.37588c-0.45496,0 -1.16266,-0.15165 -2.12313,-0.45495c-0.65716,-0.25276 -1.06156,-0.40441 -1.71872,-0.40441c-2.83084,0 -3.18469,2.32533 -3.18469,3.33634v1.51652h4.14515c1.61763,0 2.67918,1.06156 2.67918,2.62863c0,1.51651 -1.06157,2.57808 -2.67918,2.57808h-4.14515v18.09714c0,1.81982 -1.51652,3.2858 -3.33634,3.2858c-1.76927,0 -3.2858,-1.46598 -3.2858,-3.2858v-18.09714h-1.51652c-1.61763,0 -2.67918,-1.06157 -2.67918,-2.57808c0,-1.56707 1.06157,-2.62863 2.67918,-2.62863h1.51652v-1.87039c0,-7.0771 5.61112,-8.59361 8.84637,-8.59361c2.22423,0 4.14515,0.55606 5.51002,1.41542c1.16266,0.70771 1.76927,1.56706 1.76927,2.67918z"/><path d="M193.65469,213.23867c0,0.25276 -0.05056,0.50551 -0.10111,0.75827v1.71873c0,8.23976 -7.6837,10.86838 -13.04207,10.86838c-3.13414,0 -5.66167,-0.85935 -6.77379,-1.36487c-1.41542,-0.6066 -2.17367,-1.61763 -2.17367,-2.83084c0,-1.51651 1.21322,-2.62864 2.62863,-2.62864c0.3033,0 0.70772,0.05055 1.36488,0.25276c1.01101,0.25276 2.72973,0.85935 5.00452,0.85935c4.09461,0 6.36939,-2.17367 6.36939,-5.15616v-3.43745c-0.4044,1.56707 -3.08359,4.2968 -7.4815,4.2968c-5.56057,0 -12.23325,-4.2968 -12.23325,-13.49703c0,-8.99802 6.72323,-13.44648 12.23325,-13.44648c3.58909,0 6.47048,1.92093 7.4815,4.29681v-0.85935c0,-1.76927 1.51651,-3.2858 3.33633,-3.2858c1.76927,0 3.3869,1.51651 3.3869,3.2858zM187.23474,203.078c0,-5.71223 -3.74074,-7.7848 -6.57158,-7.7848c-3.33633,0 -6.82435,2.62864 -6.82435,7.7848c0,5.20672 3.488,7.7848 6.82435,7.7848c2.83084,0 6.57158,-2.07257 6.57158,-7.7848z"/><path d="M224.54112,201.76368v11.42444c0,1.81982 -1.51651,3.2858 -3.33634,3.2858c-1.76927,0 -3.2858,-1.46598 -3.2858,-3.2858v-11.42444c0,-4.54956 -2.37588,-6.41994 -5.35837,-6.41994c-4.54956,0 -6.06607,4.24625 -6.26829,5.66167v12.1827c0,1.81982 -1.51651,3.2858 -3.2858,3.2858c-1.81982,0 -3.33634,-1.46598 -3.33634,-3.2858v-29.77434c0,-1.76927 1.51652,-3.2858 3.33634,-3.2858c1.76927,0 3.2858,1.51651 3.2858,3.2858v12.23326c0.2022,-1.81982 3.1847,-5.96498 8.64417,-5.96498c5.10561,0 9.60463,3.33634 9.60463,12.08161z"/><path d="M230.60721,182.90829c0,-1.76927 1.56707,-3.2858 3.3869,-3.2858c1.76927,0 3.33633,1.51651 3.33633,3.2858c0,1.76927 -1.56707,3.2858 -3.33633,3.2858c-1.81982,0 -3.3869,-1.51651 -3.3869,-3.2858zM237.27989,193.11951v20.01806c0,1.87038 -1.51651,3.3869 -3.28579,3.3869c-1.81982,0 -3.33634,-1.51652 -3.33634,-3.3869v-20.01806c0,-1.81982 1.51652,-3.33634 3.33634,-3.33634c1.76927,0 3.28579,1.51652 3.28579,3.33634z"/><path d="M245.01415,182.90829c0,-1.76927 1.56707,-3.2858 3.33634,-3.2858c1.81982,0 3.3869,1.51651 3.3869,3.2858c0,1.76927 -1.56707,3.2858 -3.3869,3.2858c-1.76927,0 -3.33634,-1.51651 -3.33634,-3.2858zM251.68683,193.17007v25.62918c0,5.05507 -3.13414,7.7848 -7.73426,7.7848c-1.31432,0 -2.67918,-0.2022 -4.09461,-0.80881c-1.11211,-0.6066 -2.52753,-1.66817 -2.52753,-3.3869c0,-1.92092 1.76926,-3.48799 3.74074,-2.88138c0.50551,0.1011 1.06157,0.65716 1.97147,0.65716c1.87038,0 2.02202,-1.87038 2.02202,-3.13414v-23.8599c0,-1.87038 1.51652,-3.3869 3.2858,-3.3869c1.81982,0 3.33633,1.51652 3.33633,3.3869z"/><path d="M281.46117,213.59254c0,1.51651 -1.26376,2.88139 -2.93193,2.88139c-0.80882,0 -1.56707,-0.35386 -2.02203,-0.90992l-9.04856,-10.05958l-3.03304,2.83084v4.85286c0,1.81982 -1.51652,3.2858 -3.2858,3.2858c-1.81982,0 -3.33633,-1.46598 -3.33633,-3.2858v-29.77434c0,-1.76927 1.51651,-3.2858 3.33633,-3.2858c1.76927,0 3.2858,1.51652 3.2858,3.2858v17.13667l10.00903,-9.80684c0.55606,-0.55606 1.36487,-0.96047 2.22423,-0.96047c1.66817,0 2.9825,1.41542 2.9825,2.98249c0,0.85935 -0.30331,1.56707 -0.80882,2.12313l-7.2793,6.77379l9.04857,9.90793c0.45496,0.45496 0.85935,1.16266 0.85935,2.02202z"/><path d="M289.09432,216.47393c-1.81982,0 -3.33634,-1.46598 -3.33634,-3.2858v-29.77434c0,-1.76927 1.51652,-3.2858 3.33634,-3.2858c1.76927,0 3.28579,1.51652 3.28579,3.2858v29.77434c0,1.81982 -1.51651,3.2858 -3.28579,3.2858z"/><path d="M341.56591,201.76368v11.42444c0,1.81982 -1.51651,3.2858 -3.33633,3.2858c-1.76927,0 -3.2858,-1.46598 -3.2858,-3.2858v-11.42444c0,-4.54956 -2.37588,-6.41994 -5.35837,-6.41994c-4.54955,0 -6.11663,4.24625 -6.26829,5.66167v-0.05055v0.80882v11.42444c0,1.81982 -1.51651,3.2858 -3.33633,3.2858c-1.76927,0 -3.28579,-1.46598 -3.28579,-3.2858v-11.42444c0,-4.54956 -2.37589,-6.41994 -5.35838,-6.41994c-4.54955,0 -6.06607,4.24625 -6.26828,5.66167v12.1827c0,1.81982 -1.51652,3.2858 -3.2858,3.2858c-1.81982,0 -3.33633,-1.46598 -3.33633,-3.2858v-20.06862c0,-1.81982 1.51651,-3.33633 3.33633,-3.33633c1.76927,0 3.2858,1.51651 3.2858,3.33633v2.52754c0.2022,-1.81982 3.1847,-5.96499 8.64417,-5.96499c3.7913,0 7.22874,1.81983 8.74527,6.31883c1.41541,-3.13414 4.60011,-6.31883 9.50352,-6.31883c5.10561,0 9.60462,3.33633 9.60462,12.0816z"/><path d="M372.50291,201.76368v11.42444c0,1.81982 -1.51651,3.2858 -3.33633,3.2858c-1.76927,0 -3.28579,-1.46598 -3.28579,-3.2858v-11.42444c0,-4.54956 -2.37588,-6.41994 -5.35837,-6.41994c-4.54956,0 -6.06607,4.24625 -6.26829,5.66167v12.1827c0,1.81982 -1.51652,3.2858 -3.2858,3.2858c-1.81982,0 -3.33633,-1.46598 -3.33633,-3.2858v-20.06862c0,-1.81982 1.51651,-3.33634 3.33633,-3.33634c1.76927,0 3.2858,1.51652 3.2858,3.33634v2.52754c0.2022,-1.81982 3.18469,-5.96498 8.64416,-5.96498c5.10561,0 9.60462,3.33634 9.60462,12.08161z"/><path d="M404.55202,203.12854c0,9.04857 -7.73426,13.44648 -13.49703,13.44648c-5.81332,0 -13.49703,-4.39791 -13.49703,-13.44648c0,-8.99802 7.6837,-13.49703 13.49703,-13.49703c5.76278,0 13.49703,4.49901 13.49703,13.49703zM384.12956,203.12854c0,4.85286 3.33633,7.6837 6.92545,7.6837c3.53855,0 6.92545,-2.83084 6.92545,-7.6837c0,-4.90342 -3.3869,-7.73425 -6.92545,-7.73425c-3.58909,0 -6.92545,2.83083 -6.92545,7.73425z"/><path d="M434.83187,203.078c0,9.20022 -6.67269,13.49703 -12.23326,13.49703c-4.39791,0 -7.07711,-2.72974 -7.4815,-4.29681v0.96047c0,0.2022 0,0.40441 -0.05055,0.55606v9.09911c0,1.81982 -1.56707,3.2858 -3.33634,3.2858c-1.81982,0 -3.33633,-1.46598 -3.33633,-3.2858v-29.8249c0,-1.76927 1.61762,-3.2858 3.38689,-3.2858c1.81982,0 3.33633,1.51651 3.33633,3.2858v0.85935c1.01101,-2.37588 3.8924,-4.2968 7.4815,-4.2968c5.51002,0 12.23326,4.44846 12.23326,13.44648zM428.20973,203.078c0,-5.15616 -3.48799,-7.7848 -6.82434,-7.7848c-2.83084,0 -6.57159,2.07257 -6.57159,7.7848c0,5.71223 3.74075,7.7848 6.57159,7.7848c3.33634,0 6.82434,-2.57808 6.82434,-7.7848z"/><path d="M25.32117,253.72977v29.8249c0,1.81982 -1.51651,3.2858 -3.33633,3.2858c-1.76927,0 -3.33633,-1.46598 -3.33633,-3.2858v-9.09912c-0.05055,-0.15165 -0.05056,-0.35385 -0.05056,-0.55606v-0.96046c-0.4044,1.56706 -3.08359,4.2968 -7.48149,4.2968c-5.56057,0 -12.23326,-4.29681 -12.23326,-13.49703c0,-8.99802 6.72323,-13.44647 12.23326,-13.44647c3.58909,0 6.47048,1.92092 7.48149,4.2968v-0.85935c0,-1.76927 1.51652,-3.2858 3.33634,-3.2858c1.76927,0 3.3869,1.51652 3.3869,3.2858zM18.90124,263.73879c0,-5.71223 -3.74074,-7.7848 -6.57158,-7.7848c-3.33633,0 -6.82435,2.62864 -6.82435,7.7848c0,5.20672 3.48799,7.7848 6.82435,7.7848c2.83084,0 6.57158,-2.07258 6.57158,-7.7848z"/><path d="M49.02943,253.37591c0,1.87038 -1.41541,3.13414 -4.24625,3.13414c-3.9935,0 -6.52104,3.08359 -6.77379,5.15616v12.18271c0,1.76927 -1.51652,3.28579 -3.2858,3.28579c-1.81982,0 -3.33633,-1.51651 -3.33633,-3.28579v-20.06862c0,-1.81982 1.51652,-3.33634 3.33633,-3.33634c1.76927,0 3.2858,1.51652 3.2858,3.33634v2.52753c0.2022,-1.81982 3.33634,-5.96498 7.88591,-5.96498c2.07257,0 3.13414,1.41541 3.13414,3.03304z"/><path d="M69.9574,253.98252c0.3033,0.45496 0.80881,1.16266 0.80881,2.22423c0,1.61763 -1.11211,2.47698 -2.57808,2.47698c-0.96046,0 -1.92092,-0.35385 -2.78029,-1.41541c-1.011,-1.16266 -2.17368,-1.71873 -3.63965,-1.71873c-1.97148,0 -3.13414,0.96046 -3.13414,2.37588c0,0.80881 0.3033,1.87038 2.62863,2.52753l3.08359,0.90992c4.04406,1.11211 7.43094,3.03304 7.43094,7.53205c0,5.56058 -5.15616,8.23976 -10.41343,8.23976c-4.54956,0 -7.27929,-1.92092 -8.69472,-3.63965c-0.25276,-0.35385 -1.36488,-1.61763 -1.36488,-3.18469c0,-1.11211 0.70771,-2.52754 2.52753,-2.52754c1.36488,0 2.12313,0.85935 2.72974,1.61763c1.46597,1.81982 3.08359,2.32533 4.80231,2.32533c2.47698,0 3.84185,-1.06157 3.84185,-2.47699c0,-0.85935 -0.55606,-1.97148 -2.98249,-2.67919l-2.88139,-0.85935c-5.10562,-1.41542 -7.22874,-4.14515 -7.22874,-7.73425c0,-5.05507 4.65065,-7.6837 9.45296,-7.6837c3.43745,0 6.72323,1.36487 8.39141,3.6902z"/><path d="M90.83484,273.59617c0,2.32533 -2.27479,3.53855 -5.71223,3.53855c-3.43745,0 -6.92545,-1.11211 -6.92545,-8.13865v-13.19372h-1.46597c-1.61763,0 -2.67919,-1.06157 -2.67919,-2.57808c0,-1.56706 1.06157,-2.62863 2.67919,-2.62863h1.46597v-3.43745c0,-1.81982 1.51652,-3.33633 3.33634,-3.33633c1.81982,0 3.2858,1.51651 3.2858,3.33633v3.43745h3.33634c1.66817,0 2.67918,1.06157 2.67918,2.62863c0,1.51652 -1.011,2.57808 -2.67918,2.57808h-3.33634v13.39593c0,1.46597 0.50551,2.22422 1.61763,2.22422c0.55606,0 1.36487,-0.2022 1.92092,-0.2022c1.51651,-0.1011 2.47699,0.80882 2.47699,2.37588z"/><path d="M95.38419,265.15421v-11.42444c0,-1.81982 1.51652,-3.2858 3.33634,-3.2858c1.76927,0 3.2858,1.46598 3.2858,3.2858v11.42444c0,4.54956 2.37588,6.41994 5.35837,6.41994c4.54956,0 6.06607,-4.24625 6.26828,-5.66167v-12.1827c0,-1.81982 1.51651,-3.2858 3.2858,-3.2858c1.81982,0 3.33634,1.46598 3.33634,3.2858v20.06862c0,1.81982 -1.51652,3.33633 -3.33634,3.33633c-1.76927,0 -3.2858,-1.51651 -3.2858,-3.33633v-2.52753c-0.2022,1.81982 -3.1847,5.96498 -8.64416,5.96498c-5.10561,0 -9.60463,-3.33633 -9.60463,-12.08161z"/><path d="M150.02946,253.42646c0,0.6066 -0.2022,1.11211 -0.40441,1.51651l-8.89692,19.51256c-0.75826,1.56707 -1.76927,2.52753 -3.33633,2.52753c-1.56707,0 -2.57808,-0.96046 -3.2858,-2.52753l-8.94746,-19.51256c-0.15165,-0.4044 -0.35386,-0.90991 -0.35386,-1.51651c0,-1.61763 1.31432,-2.9825 3.03304,-2.9825c1.26376,0 2.47699,0.70772 3.18469,2.32533l6.36939,14.96299l6.41994,-14.96299c0.65716,-1.61763 1.87038,-2.32533 3.13414,-2.32533c1.76927,0 3.08359,1.36488 3.08359,2.9825z"/><path d="M192.64366,253.57811c0,0.45496 -0.3033,0.96047 -0.45496,1.51652l-6.77378,19.3609c-0.55606,1.66817 -1.76927,2.52753 -3.13414,2.52753c-1.46597,0 -2.62863,-0.85935 -3.28579,-2.52753l-6.16719,-14.45749l-6.16719,14.45749c-0.65716,1.66817 -1.87038,2.52753 -3.23524,2.52753c-1.46598,0 -2.62863,-0.85935 -3.18469,-2.52753l-6.72323,-19.3609c-0.2022,-0.55606 -0.45496,-1.06157 -0.45496,-1.51652c0,-1.76927 1.36487,-3.13414 3.13414,-3.13414c1.16266,0 2.42643,0.70772 2.78029,1.76927l4.85286,15.21575l6.01554,-14.963c0.55606,-1.31432 1.56706,-2.02202 2.98249,-2.02202c1.46598,0 2.47698,0.70772 2.98249,2.02202l6.01553,14.963l4.85286,-15.21575c0.35386,-1.06157 1.61762,-1.76927 2.83084,-1.76927c1.71873,0 3.13414,1.36488 3.13414,3.13414z"/><path d="M219.18275,274.20279c0,1.61763 -1.46598,2.93193 -3.03305,2.93193c-0.96046,0 -1.71873,-0.50551 -2.32532,-1.21322l-6.26829,-7.78481l-6.26829,7.78481c-0.6066,0.70771 -1.36487,1.21322 -2.32533,1.21322c-1.56707,0 -3.03304,-1.31432 -3.03304,-2.93193c0,-0.65716 0.25276,-1.26376 0.65716,-1.76927l7.27929,-8.69472l-7.1782,-8.59362c-0.40441,-0.50551 -0.65716,-1.06157 -0.65716,-1.76927c0,-1.61763 1.46598,-2.93193 3.03305,-2.93193c0.96046,0 1.76926,0.45495 2.32532,1.21322l6.16718,7.63315l6.16718,-7.63315c0.6066,-0.75826 1.36488,-1.21322 2.32533,-1.21322c1.51651,0 2.98249,1.31432 2.98249,2.93193c0,0.70771 -0.2022,1.26376 -0.65716,1.76927l-7.12764,8.59362l7.22874,8.69472c0.45496,0.50551 0.70771,1.11211 0.70771,1.76927z"/><path d="M248.60324,253.42646c0,0.6066 -0.2022,1.11211 -0.4044,1.51651l-13.09262,29.47103c-0.70771,1.61763 -1.92092,2.32533 -3.18469,2.32533c-1.71873,0 -2.93193,-1.36487 -2.93193,-2.98249c0,-0.6066 0.2022,-1.11211 0.35386,-1.51652l2.88139,-6.57158l-9.40243,-20.72577c-0.15165,-0.4044 -0.35386,-0.90991 -0.35386,-1.51651c0,-1.61763 1.31432,-2.98249 3.03304,-2.98249c1.26376,0 2.47699,0.70771 3.18469,2.32533l6.77379,15.6707l6.92545,-15.6707c0.70771,-1.61763 1.87038,-2.32533 3.13414,-2.32533c1.76927,0 3.0836,1.36488 3.0836,2.98249z"/><path d="M271.7049,258.07713l-12.58711,13.09263h11.3739c1.56707,0 2.88139,1.26376 2.88139,2.83083c0,1.61763 -1.31432,2.88139 -2.88139,2.88139h-13.59812c-4.09461,0 -6.36939,-4.19572 -3.2858,-7.5826l12.48602,-13.04207h-10.51454c-1.56706,0 -2.88139,-1.21322 -2.88139,-2.83083c0,-1.56707 1.31432,-2.83084 2.88139,-2.83084h12.63767c4.04406,0 6.52104,4.19571 3.48799,7.48149z"/><path d="M306.231,258.53208v1.21322c0,11.52555 -7.12764,17.38943 -14.30584,17.38943c-7.0771,0 -14.25528,-5.86388 -14.25528,-17.38943v-1.21322c0,-11.52554 7.17819,-17.38942 14.25528,-17.38942c7.17819,0 14.30584,5.86388 14.30584,17.38942zM284.29202,258.53208v1.21322c0,5.40892 1.97147,11.67719 7.63315,11.67719c5.71223,0 7.6837,-6.26828 7.6837,-11.67719v-1.21322c0,-5.35837 -1.97148,-11.72776 -7.6837,-11.72776c-5.66167,0 -7.63315,6.36939 -7.63315,11.72776z"/><path d="M322.55884,245.23725v28.66223c0,1.76927 -1.51652,3.28579 -3.33633,3.28579c-1.76927,0 -3.28579,-1.51651 -3.28579,-3.28579v-26.7413h-3.2858c-1.56707,0 -2.88139,-1.21322 -2.88139,-2.83083c0,-1.56707 1.31432,-2.83084 2.88139,-2.83084h6.11663c2.17368,0 3.7913,1.56707 3.7913,3.74074z"/><path d="M351.82769,251.75829c0,4.44846 -2.98249,6.87489 -9.30132,13.04207l-6.41994,6.21773h12.94097c1.56707,0 2.88139,1.26376 2.88139,2.93193c0,1.66817 -1.31433,2.93193 -2.88139,2.93193h-15.3674c-4.70121,0 -7.0771,-4.95396 -3.69021,-8.29031l5.91443,-5.71223c6.62213,-6.41994 9.25077,-8.44196 9.25077,-11.475c0,-3.33633 -2.88139,-4.44846 -4.85286,-4.44846c-1.76927,0 -4.24625,0.80882 -5.15616,3.8924c-0.35386,1.31432 -1.66816,2.52753 -3.3869,2.52753c-2.42643,0 -3.48799,-2.17368 -2.78029,-4.70121c1.31432,-4.04406 5.10562,-7.53205 11.02005,-7.53205c7.0771,0 11.82885,5.05507 11.82885,10.61564z"/><path d="M378.51844,248.42195l-5.96498,7.43095c3.9935,0.80882 8.74527,4.44846 8.74527,10.31233c0,6.6727 -5.66167,11.22225 -12.73877,11.22225c-5.05507,0 -9.85737,-2.22423 -11.87941,-7.32986c-0.70771,-1.97147 0.4044,-4.24625 2.72974,-4.24625c1.56706,0 2.57808,0.96046 2.93193,1.87038c1.31432,3.28579 4.44846,3.9935 6.21773,3.9935c1.87038,0 6.11664,-0.96047 6.11664,-5.51003c0,-4.24625 -4.60012,-5.51002 -6.77379,-6.06607c-1.41541,-0.30331 -2.32533,-1.51652 -2.32533,-2.67918c0,-1.06157 0.75826,-1.87038 1.56707,-2.93193l5.56057,-7.32986h-12.23326c-1.56706,0 -2.88139,-1.21322 -2.88139,-2.83084c0,-1.56707 1.31432,-2.83083 2.88139,-2.83083h14.10364c3.94296,0 6.36939,3.7913 3.94296,6.92545z"/><path d="M407.93892,263.28385c1.56706,0 2.88139,1.21322 2.88139,2.67919c0,1.56707 -1.31433,2.72973 -2.88139,2.72973h-1.26376v5.25727c0,1.81982 -1.51652,3.28579 -3.33633,3.28579c-1.76927,0 -3.2858,-1.46597 -3.2858,-3.28579v-5.25727h-9.80684c-4.24625,0 -5.61113,-3.1847 -3.3869,-6.26828l13.29482,-18.95649c2.22423,-3.13414 6.52104,-2.12313 6.52104,1.56706v18.24879zM392.87483,263.28385h7.1782v-10.46398z"/><path d="M435.53957,244.32733c0,1.61763 -1.31432,2.83083 -2.88138,2.83083h-10.26179l-0.75826,7.32986c0.35386,-0.05055 2.37589,-1.36488 5.71223,-1.36488c6.16719,0 11.3739,4.80231 11.3739,12.0816c0,7.0771 -5.51002,12.18271 -12.89041,12.18271c-4.24625,0 -7.73425,-1.56707 -10.05958,-4.24625c-0.45496,-0.45496 -0.96047,-1.36487 -0.96047,-2.37588c0,-1.61763 1.21322,-2.88139 2.98249,-2.88139c1.06157,0 1.97147,0.55606 2.47699,1.16266c1.11211,1.41542 2.93193,2.62864 5.40892,2.62864c2.83084,0 6.41994,-1.61763 6.41994,-6.47048c0,-4.34737 -3.13415,-6.36938 -6.01553,-6.36938c-1.31432,0 -2.67918,0.4044 -4.19571,1.36487c-0.6066,0.35385 -1.87038,0.55606 -2.72973,0.55606c-2.62864,0 -4.19571,-2.12313 -3.8924,-4.75176l1.36487,-11.3739c0.25276,-1.87038 1.71873,-3.13414 3.58909,-3.13414h12.43546c1.56707,0 2.88139,1.26376 2.88139,2.83084z"/><path d="M17.63748,304.73539c0,0.65716 -0.3033,1.31432 -0.65716,1.81982l-6.52104,8.3914c0.15166,0.15166 0.35386,0.2022 0.65716,0.2022c5.96498,0 11.7783,4.85287 11.7783,11.62666c0,6.67269 -5.81332,11.27279 -11.7783,11.27279c-6.06607,0 -11.98051,-4.60012 -11.98051,-12.03106c0,-5.45947 3.53854,-9.25077 7.27929,-14.50803l5.96498,-8.44196c0.50551,-0.80882 1.41541,-1.26376 2.37588,-1.26376c1.66817,0 2.88139,1.31432 2.88139,2.93193zM5.35366,326.77547c0,3.03304 2.47698,5.51002 5.66166,5.51002c3.23524,0 5.56057,-2.52753 5.56057,-5.51002c0,-2.93193 -2.32533,-5.51003 -5.56057,-5.51003c-3.58909,0 -5.66166,2.57808 -5.66166,5.51003z"/><path d="M47.26017,308.37503l-13.19372,27.65121c-0.50551,1.11211 -1.51652,1.87038 -2.83084,1.87038c-1.71873,0 -3.08359,-1.46597 -3.08359,-3.18469c0,-0.50551 0.1011,-0.96046 0.30331,-1.31432l12.53657,-25.57863h-13.19372c-1.56707,0 -2.88139,-1.21322 -2.88139,-2.83084c0,-1.56707 1.31432,-2.83084 2.88139,-2.83084h15.4685c3.43745,0 5.51002,3.08359 3.9935,6.21773z"/><path d="M76.6301,326.47217c0,7.22874 -6.31883,11.52554 -12.53658,11.52554c-6.16718,0 -12.58711,-4.2968 -12.58711,-11.52554c0,-4.04406 2.07257,-7.0771 4.90341,-8.99802c-1.61763,-1.66817 -2.62864,-3.84185 -2.62864,-6.21773c0,-5.15616 3.79131,-9.45297 10.31234,-9.45297c6.52104,0 10.31233,4.29681 10.31233,9.45297c0,2.42643 -1.011,4.60012 -2.67918,6.26829c2.83084,1.87038 4.90342,4.90341 4.90342,8.94746zM64.09353,315.19936c2.47698,0 3.94296,-1.92092 3.94296,-3.89239c0,-2.02202 -1.56707,-3.7913 -3.94296,-3.7913c-2.37588,0 -3.94296,1.76927 -3.94296,3.7913c0,1.97147 1.46598,3.89239 3.94296,3.89239zM69.75522,326.47217c0,-3.74075 -2.88139,-5.76278 -5.66166,-5.76278c-2.78029,0 -5.71223,2.02202 -5.71223,5.76278c0,3.33633 2.62864,5.81332 5.71223,5.81332c3.08359,0 5.66166,-2.47698 5.66166,-5.81332z"/><path d="M86.28527,335.01523c0,-0.65716 0.3033,-1.31432 0.65716,-1.81983l6.52083,-8.3914c-0.15165,-0.15166 -0.35386,-0.2022 -0.65717,-0.2022c-5.96477,0 -11.7781,-4.85287 -11.7781,-11.62666c0,-6.67269 5.81332,-11.27279 11.7781,-11.27279c6.06607,0 11.98051,4.60012 11.98051,12.03106c0,5.45947 -3.53855,9.25078 -7.27929,14.50804l-5.96477,8.44196c-0.50551,0.80882 -1.41542,1.26376 -2.37588,1.26376c-1.66817,0 -2.88139,-1.31432 -2.88139,-2.93193zM98.56889,312.97514c0,-3.03304 -2.47698,-5.51003 -5.66166,-5.51003c-3.23503,0 -5.56036,2.52754 -5.56036,5.51003c0,2.93193 2.32533,5.51003 5.56036,5.51003c3.58909,0 5.66166,-2.57808 5.66166,-5.51003z"/></g></g></svg>