<svg version="1.1" xmlns="http://www.w3.org/2000/svg" xmlns:xlink="http://www.w3.org/1999/xlink" width="275.33554" height="233.97872" viewBox="0,0,275.33554,233.97872"><defs><linearGradient x1="102.50587" y1="159.46491" x2="102.50587" y2="77.71951" gradientUnits="userSpaceOnUse" id="color-1"><stop offset="0" stop-color="#313131"/><stop offset="1" stop-color="#262626"/></linearGradient><linearGradient x1="102.50587" y1="48.55518" x2="102.50587" y2="130.30057" gradientUnits="userSpaceOnUse" id="color-2"><stop offset="0" stop-color="#313131"/><stop offset="1" stop-color="#262626"/></linearGradient></defs><g transform="translate(41.50401,74.51382)"><g data-paper-data="{&quot;isPaintingLayer&quot;:true}" stroke="none" stroke-miterlimit="10" stroke-dasharray="" stroke-dashoffset="0" style="mix-blend-mode: normal"><g data-paper-data="{&quot;index&quot;:null}" fill-rule="nonzero" stroke-width="0" stroke-linecap="butt" stroke-linejoin="miter"><path d="M152.53818,77.71951l-0.08131,69.99028c0,0 -0.33462,4.821 -2.23487,7.78312c-2.41792,3.76909 -6.53423,3.97199 -6.53423,3.97199l-82.32208,-0.18914c0,0 -4.12177,-0.09612 -6.39749,-3.40456c-2.3436,-3.40712 -2.59844,-9.0936 -2.59844,-9.0936l0.00168,-68.54065z" data-paper-data="{&quot;origPos&quot;:null,&quot;origRot&quot;:0,&quot;index&quot;:null}" fill="url(#color-1)"/><path d="M152.43358,85.76201v36.66189c0,0 -14.04009,6.92211 -28.87917,6.54635c-14.87709,-0.37672 -23.56209,-7.46192 -35.5573,-7.69204c-11.99522,-0.23011 -35.52268,7.25601 -35.52268,7.25601v-42.7722z" data-paper-data="{&quot;origPos&quot;:null}" fill="#343434"/><path d="M152.60561,58.87314l-0.09455,42.7722c0,0 -17.14689,-11.30506 -29.17525,-11.07495c-12.02835,0.23011 -21.84186,11.13427 -36.76006,11.51099c-14.88007,0.37575 -34.17827,-6.54636 -34.17827,-6.54636l-0.02714,-36.66189z" data-paper-data="{&quot;origPos&quot;:null,&quot;index&quot;:null}" fill="#3b3b3b"/></g><g fill-rule="nonzero" stroke-width="0" stroke-linecap="butt" stroke-linejoin="miter"><path d="M52.37143,129.78315l-0.00167,-68.54065c0,0 0.25484,-5.68648 2.59844,-9.0936c2.27571,-3.30845 6.39749,-3.40456 6.39749,-3.40456l82.32208,-0.18915c0,0 4.11631,0.20292 6.53424,3.972c1.90025,2.96212 2.23487,7.78311 2.23487,7.78311l0.08131,69.99028z" data-paper-data="{&quot;origPos&quot;:null,&quot;origRot&quot;:0,&quot;index&quot;:null}" fill="url(#color-2)"/><path d="M52.47442,122.25809v-42.7722c0,0 23.52746,7.48611 35.52268,7.25601c11.99522,-0.23011 20.68021,-7.31532 35.55731,-7.69204c14.83908,-0.37575 28.87917,6.54636 28.87917,6.54636v36.66189z" data-paper-data="{&quot;origPos&quot;:null}" fill="#343434"/><path d="M52.37033,149.14696l0.02714,-36.66189c0,0 19.2982,-6.92211 34.17828,-6.54636c14.91819,0.37672 24.73171,11.28088 36.76006,11.51099c12.02835,0.23011 29.17525,-11.07495 29.17525,-11.07495l0.09455,42.77221z" data-paper-data="{&quot;origPos&quot;:null,&quot;index&quot;:null}" fill="#3b3b3b"/></g><path d="M-41.50401,89.11982v-163.63364h119.86856v163.63364z" fill="none" fill-rule="nonzero" stroke-width="0" stroke-linecap="butt" stroke-linejoin="miter"/><path d="M161.27921,60.21354h64.30971c4.55211,0 8.24261,3.7968 8.24261,8.48068v25.61199c0,4.6836 -3.6905,8.48069 -8.24261,8.48069h-64.30971c-4.55226,0 -8.24261,-3.79709 -8.24261,-8.48069v-25.61199c0,-4.68389 3.69035,-8.48068 8.24261,-8.48068z" fill="#636363" fill-rule="evenodd" stroke-width="1" stroke-linecap="round" stroke-linejoin="round" opacity="0.0863"/></g></g></svg>