<svg version="1.1" xmlns="http://www.w3.org/2000/svg" xmlns:xlink="http://www.w3.org/1999/xlink" width="95" height="110"><g transform="translate(-213.32486,-102.01146)"><g data-paper-data="{&quot;isPaintingLayer&quot;:true}" stroke="none" stroke-miterlimit="10" stroke-dasharray="" stroke-dashoffset="0" style="mix-blend-mode: normal"><path d="M277.41767,162.77067c0,10.725 -9.375,17.1 -18.6,17.1c-9.15,0 -18.675,-6.375 -18.675,-17.1c0,-6 3.075,-10.5 7.275,-13.35c-2.4,-2.475 -3.9,-5.7 -3.9,-9.225c0,-7.65 5.625,-14.025 15.3,-14.025c9.675,0 15.3,6.375 15.3,14.025c0,3.6 -1.5,6.825 -3.975,9.3c4.2,2.775 7.275,7.275 7.275,13.275zM258.81767,146.04567c3.675,0 5.85,-2.85 5.85,-5.775c0,-3 -2.325,-5.625 -5.85,-5.625c-3.525,0 -5.85,2.625 -5.85,5.625c0,2.925 2.175,5.775 5.85,5.775zM267.21767,162.77067c0,-5.55 -4.275,-8.55 -8.4,-8.55c-4.125,0 -8.475,3 -8.475,8.55c0,4.95 3.9,8.625 8.475,8.625c4.575,0 8.4,-3.675 8.4,-8.625z" data-paper-data="{&quot;origPos&quot;:null}" fill="#000000" fill-rule="evenodd" stroke-width="1" stroke-linecap="round" stroke-linejoin="round"/><path d="M213.32486,212.01146v-110h95v110z" fill="none" fill-rule="nonzero" stroke-width="0" stroke-linecap="butt" stroke-linejoin="miter"/></g></g></svg>