<svg version="1.1" xmlns="http://www.w3.org/2000/svg" xmlns:xlink="http://www.w3.org/1999/xlink" width="54.99018" height="39.97752" viewBox="0,0,54.99018,39.97752"><g transform="translate(-19.76433,-8.2862)"><g data-paper-data="{&quot;isPaintingLayer&quot;:true}" fill="#ffffff" fill-rule="nonzero" stroke="none" stroke-width="0" stroke-linecap="butt" stroke-linejoin="miter" stroke-miterlimit="10" stroke-dasharray="" stroke-dashoffset="0" style="mix-blend-mode: normal"><g><path d="M39.05671,34.79229v-15.98319c0,0 28.45992,0 33.21449,0c1.30006,0 2.48331,1.17566 2.48331,2.23916c0,1.48609 -0.25564,7.60338 -0.25564,10.96738c0,2.60039 -0.92761,2.77665 -2.22767,2.77665c-4.75458,0 -33.21449,0 -33.21449,0z"/><path d="M22.1372,20.64667c3.74729,-2.06101 16.28253,-8.95539 21.90134,-12.04574c1.69904,-0.93447 2.76566,0.32631 2.76566,2.27644c0,5.21139 0,24.39753 0,33.93881c0,2.43087 -3.87825,4.51061 -5.45879,2.85104c-5.96749,-6.26586 -17.6623,-18.368 -20.99383,-21.86611c-1.32307,-1.38922 -0.27404,-4.02163 1.78562,-5.15444z"/></g></g></g></svg>