<svg version="1.1" xmlns="http://www.w3.org/2000/svg" xmlns:xlink="http://www.w3.org/1999/xlink" width="101" height="101.44445" viewBox="0,0,101,101.44445"><g transform="translate(-189.33333,-125.22222)"><g data-paper-data="{&quot;isPaintingLayer&quot;:true}" fill-rule="nonzero" stroke="none" stroke-width="0" stroke-linecap="butt" stroke-linejoin="miter" stroke-miterlimit="10" stroke-dasharray="" stroke-dashoffset="0" style="mix-blend-mode: normal"><path d="M193.33333,180c0,-25.77329 20.89338,-46.66667 46.66667,-46.66667c25.77329,0 46.66667,20.89338 46.66667,46.66667c0,25.77329 -20.89338,46.66667 -46.66667,46.66667c-25.77329,0 -46.66667,-20.89338 -46.66667,-46.66667z" fill="#9966ff"/><path d="M226.33333,135.05555c0,-5.4308 4.40253,-9.83333 9.83333,-9.83333c5.4308,0 9.83333,4.40253 9.83333,9.83333c0,5.4308 -4.40253,9.83333 -9.83333,9.83333c-5.4308,0 -9.83333,-4.40253 -9.83333,-9.83333z" fill="#ffffff"/><path d="M251,138.05555c0,-4.32623 3.5071,-7.83333 7.83333,-7.83333c4.32623,0 7.83333,3.5071 7.83333,7.83333c0,4.32623 -3.5071,7.83333 -7.83333,7.83333c-4.32623,0 -7.83333,-3.5071 -7.83333,-7.83333z" fill="#ffffff"/><path d="M206.66667,140.05555c0,-4.32623 3.5071,-7.83333 7.83333,-7.83333c4.32623,0 7.83333,3.5071 7.83333,7.83333c0,4.32623 -3.5071,7.83334 -7.83333,7.83334c-4.32623,0 -7.83333,-3.5071 -7.83333,-7.83334z" fill="#ffffff"/><path d="M268,148.05555c0,-3.40576 2.76091,-6.16666 6.16666,-6.16666c3.40576,0 6.16667,2.76091 6.16667,6.16666c0,3.40576 -2.76091,6.16667 -6.16667,6.16667c-3.40576,0 -6.16666,-2.76091 -6.16666,-6.16667z" fill="#ffffff"/><path d="M194.66667,153.38888c0,-3.40575 2.76091,-6.16667 6.16667,-6.16667c3.40575,0 6.16666,2.76091 6.16666,6.16667c0,3.40575 -2.76091,6.16667 -6.16666,6.16667c-3.40575,0 -6.16667,-2.76091 -6.16667,-6.16667z" fill="#ffffff"/><path d="M278.66667,161.55555c0,-2.57733 2.08934,-4.66667 4.66666,-4.66667c2.57733,0 4.66667,2.08934 4.66667,4.66667c0,2.57733 -2.08934,4.66667 -4.66667,4.66667c-2.57733,0 -4.66666,-2.08934 -4.66666,-4.66667z" fill="#ffffff"/><path d="M190.33333,166.88889c0,-2.57733 2.08933,-4.66666 4.66666,-4.66666c2.57733,0 4.66667,2.08934 4.66667,4.66666c0,2.57733 -2.08934,4.66666 -4.66667,4.66666c-2.57733,0 -4.66666,-2.08934 -4.66666,-4.66666z" fill="#ffffff"/><path d="M284.33333,173.88888c0,-1.65686 1.34314,-3 3,-3c1.65686,0 3,1.34314 3,3c0,1.65686 -1.34314,3 -3,3c-1.65686,0 -3,-1.34315 -3,-3z" fill="#ffffff"/><path d="M189.33333,179.88888c0,-1.65686 1.34314,-3 3,-3c1.65686,0 3,1.34314 3,3c0,1.65686 -1.34314,3 -3,3c-1.65686,0 -3,-1.34314 -3,-3z" fill="#ffffff"/><path d="M192.33333,192.88889c0,-1.65686 1.34314,-3 3,-3c1.65686,0 3,1.34314 3,3c0,1.65686 -1.34314,3 -3,3c-1.65686,0 -3,-1.34314 -3,-3z" fill="#ffffff"/></g></g></svg>