<svg version="1.1" xmlns="http://www.w3.org/2000/svg" xmlns:xlink="http://www.w3.org/1999/xlink" width="194.10962" height="233.97872" viewBox="0,0,194.10962,233.97872"><defs><linearGradient x1="237.64105" y1="159.46491" x2="237.64105" y2="77.71951" gradientUnits="userSpaceOnUse" id="color-1"><stop offset="0" stop-color="#313131"/><stop offset="1" stop-color="#262626"/></linearGradient><linearGradient x1="237.64105" y1="48.55518" x2="237.64105" y2="130.30057" gradientUnits="userSpaceOnUse" id="color-2"><stop offset="0" stop-color="#313131"/><stop offset="1" stop-color="#262626"/></linearGradient><linearGradient x1="248.33816" y1="69.79923" x2="230.32852" y2="97.19264" gradientUnits="userSpaceOnUse" id="color-3"><stop offset="0" stop-color="#a52929" stop-opacity="0"/><stop offset="1" stop-color="#a52929"/></linearGradient></defs><g transform="translate(-93.63117,74.51382)"><g data-paper-data="{&quot;isPaintingLayer&quot;:true}" stroke="none" stroke-miterlimit="10" stroke-dasharray="" stroke-dashoffset="0" style="mix-blend-mode: normal"><path d="" data-paper-data="{&quot;origPos&quot;:null}" fill="#ffffff" fill-rule="evenodd" stroke-width="1" stroke-linecap="round" stroke-linejoin="round"/><path d="" data-paper-data="{&quot;origPos&quot;:null}" fill="#000000" fill-rule="evenodd" stroke-width="1" stroke-linecap="round" stroke-linejoin="round"/><g fill-rule="nonzero" stroke-width="0" stroke-linecap="butt" stroke-linejoin="miter"><g data-paper-data="{&quot;index&quot;:null}"><path d="M287.67332,77.71951l-0.08131,69.99028c0,0 -0.33462,4.821 -2.23487,7.78312c-2.41792,3.76909 -6.53423,3.97199 -6.53423,3.97199l-82.32208,-0.18914c0,0 -4.12177,-0.09612 -6.39749,-3.40456c-2.3436,-3.40712 -2.59844,-9.0936 -2.59844,-9.0936l0.00168,-68.54065z" data-paper-data="{&quot;origPos&quot;:null,&quot;origRot&quot;:0,&quot;index&quot;:null}" fill="url(#color-1)"/><path d="M287.56872,85.76201v36.66189c0,0 -14.04009,6.92211 -28.87917,6.54635c-14.87709,-0.37672 -23.56209,-7.46192 -35.5573,-7.69204c-11.99522,-0.23011 -35.52268,7.25601 -35.52268,7.25601v-42.7722z" data-paper-data="{&quot;origPos&quot;:null}" fill="#343434"/><path d="M287.74075,58.87314l-0.09455,42.7722c0,0 -17.14689,-11.30506 -29.17525,-11.07495c-12.02835,0.23011 -21.84186,11.13427 -36.76006,11.51099c-14.88007,0.37575 -34.17827,-6.54636 -34.17827,-6.54636l-0.02714,-36.66189z" data-paper-data="{&quot;origPos&quot;:null,&quot;index&quot;:null}" fill="#3b3b3b"/></g><g><path d="M187.50661,129.78315l-0.00167,-68.54065c0,0 0.25484,-5.68648 2.59844,-9.0936c2.27571,-3.30845 6.39749,-3.40456 6.39749,-3.40456l82.32208,-0.18915c0,0 4.11631,0.20292 6.53424,3.972c1.90025,2.96212 2.23487,7.78311 2.23487,7.78311l0.08131,69.99028z" data-paper-data="{&quot;origPos&quot;:null,&quot;origRot&quot;:0,&quot;index&quot;:null}" fill="url(#color-2)"/><path d="M187.60959,122.25809v-42.7722c0,0 23.52746,7.48611 35.52268,7.25601c11.99522,-0.23011 20.68021,-7.31532 35.55731,-7.69204c14.83908,-0.37575 28.87917,6.54636 28.87917,6.54636v36.66189z" data-paper-data="{&quot;origPos&quot;:null}" fill="#343434"/><path d="M187.50551,149.14696l0.02714,-36.66189c0,0 19.2982,-6.92211 34.17828,-6.54636c14.91819,0.37672 24.73171,11.28088 36.76006,11.51099c12.02835,0.23011 29.17525,-11.07495 29.17525,-11.07495l0.09455,42.77221z" data-paper-data="{&quot;origPos&quot;:null,&quot;index&quot;:null}" fill="#3b3b3b"/></g><path d="M93.63117,89.11982v-163.63364h119.86856v163.63364z" fill="none"/></g><path d="M202.41437,111.21353h64.30971c4.55211,0 8.24261,3.7968 8.24261,8.48068v25.61199c0,4.6836 -3.6905,8.48069 -8.24261,8.48069h-64.30971c-4.55226,0 -8.24261,-3.79709 -8.24261,-8.48069v-25.61199c0,-4.68389 3.69035,-8.48068 8.24261,-8.48068z" fill="#636363" fill-rule="evenodd" stroke-width="1" stroke-linecap="round" stroke-linejoin="round" opacity="0.0863"/><path d="M128.92438,108.00558v-105.25484h90.90191v105.25485z" fill="none" fill-rule="nonzero" stroke-width="0" stroke-linecap="butt" stroke-linejoin="miter"/><path d="M222.0961,83.49594c0,-9.2877 7.71738,-16.81683 17.23725,-16.81683c9.51988,0 17.23725,7.52915 17.23725,16.81683c0,9.2877 -7.71737,16.81682 -17.23725,16.81682c-9.51986,0 -17.23725,-7.52914 -17.23725,-16.81682z" fill="#e03838" fill-rule="nonzero" stroke-width="0" stroke-linecap="butt" stroke-linejoin="miter"/><path d="M252.69599,92.28113c-4.97324,7.56449 -14.98748,9.76344 -22.36745,4.9115c-7.37998,-4.85194 -9.33104,-14.91743 -4.35782,-22.48188c4.97324,-7.56449 14.98748,-9.76344 22.36745,-4.9115c7.37998,4.85194 9.33104,14.91743 4.35782,22.48188z" data-paper-data="{&quot;index&quot;:null}" fill="url(#color-3)" fill-rule="nonzero" stroke-width="0" stroke-linecap="butt" stroke-linejoin="miter"/><path d="M229.31897,84.40832c0,-6.61416 5.49587,-11.97597 12.27537,-11.97597c6.77949,0 12.27536,5.36183 12.27536,11.97597c0,6.61417 -5.49587,11.97597 -12.27536,11.97597c-6.77949,0 -12.27537,-5.36182 -12.27537,-11.97597z" fill="#ffffff" fill-rule="nonzero" stroke-width="0" stroke-linecap="butt" stroke-linejoin="miter"/><path d="M236.5358,84.82927c0,-3.24317 2.69483,-5.87228 6.01908,-5.87228c3.32425,0 6.01909,2.6291 6.01909,5.87228c0,3.24317 -2.69484,5.87227 -6.01909,5.87227c-3.32425,0 -6.01908,-2.6291 -6.01908,-5.87227z" fill="#000000" fill-rule="nonzero" stroke-width="0" stroke-linecap="butt" stroke-linejoin="miter"/><g fill="#fafafa" fill-rule="evenodd" stroke-width="1" stroke-linecap="round" stroke-linejoin="round"><path d="M228.55875,133.84872c0,1.3 -0.725,1.75 -2.05,1.75l-7.425,-0.05c0.3,1.825 1.75,2.8 3.575,2.8c0.9,0 1.325,-0.2 2.075,-0.525c0.45,-0.2 0.8,-0.4 1.225,-0.4c0.7,0 1.125,0.5 1.125,1.125c0,0.4 -0.175,0.85 -0.8,1.375c-0.925,0.65 -2.175,1.075 -3.75,1.075c-3.325,0 -6.85,-2.05 -6.85,-6.6c0,-4.5 3.725,-6.675 6.575,-6.675c2.85,0 6.3,2.25 6.3,6.125zM219.08375,133.29872h6.25c-0.25,-1.925 -1.65,-2.725 -3.075,-2.725c-1.425,0 -2.95,0.8 -3.175,2.725z"/><path d="M212.50885,129.04872c0.15,0.225 0.4,0.575 0.4,1.1c0,0.8 -0.55,1.225 -1.275,1.225c-0.475,0 -0.95,-0.175 -1.375,-0.7c-0.5,-0.575 -1.075,-0.85 -1.8,-0.85c-0.975,0 -1.55,0.475 -1.55,1.175c0,0.4 0.15,0.925 1.3,1.25l1.525,0.45c2,0.55 3.675,1.5 3.675,3.725c0,2.75 -2.55,4.075 -5.15,4.075c-2.25,0 -3.6,-0.95 -4.3,-1.8c-0.125,-0.175 -0.675,-0.8 -0.675,-1.575c0,-0.55 0.35,-1.25 1.25,-1.25c0.675,0 1.05,0.425 1.35,0.8c0.725,0.9 1.525,1.15 2.375,1.15c1.225,0 1.9,-0.525 1.9,-1.225c0,-0.425 -0.275,-0.975 -1.475,-1.325l-1.425,-0.425c-2.525,-0.7 -3.575,-2.05 -3.575,-3.825c0,-2.5 2.3,-3.8 4.675,-3.8c1.7,0 3.325,0.675 4.15,1.825z"/><path d="M232.88375,140.99872c-0.9,0 -1.65,-0.725 -1.65,-1.625v-14.725c0,-0.875 0.75,-1.625 1.65,-1.625c0.875,0 1.625,0.75 1.625,1.625v14.725c0,0.9 -0.75,1.625 -1.625,1.625z"/><path d="M249.55875,133.84872c0,1.3 -0.725,1.75 -2.05,1.75l-7.425,-0.05c0.3,1.825 1.75,2.8 3.575,2.8c0.9,0 1.325,-0.2 2.075,-0.525c0.45,-0.2 0.8,-0.4 1.225,-0.4c0.7,0 1.125,0.5 1.125,1.125c0,0.4 -0.175,0.85 -0.8,1.375c-0.925,0.65 -2.175,1.075 -3.75,1.075c-3.325,0 -6.85,-2.05 -6.85,-6.6c0,-4.5 3.725,-6.675 6.575,-6.675c2.85,0 6.3,2.25 6.3,6.125zM240.08375,133.29872h6.25c-0.25,-1.925 -1.65,-2.725 -3.075,-2.725c-1.425,0 -2.95,0.8 -3.175,2.725z"/><path d="M262.80885,138.59872c0,0.8 -0.6,1.2 -0.925,1.5c-1.05,0.925 -2.275,1.4 -3.9,1.4c-3.025,0 -6.675,-2.175 -6.675,-6.625c0,-4.475 3.65,-6.65 6.675,-6.65c1.625,0 2.85,0.45 3.9,1.375c0.325,0.325 0.925,0.725 0.925,1.525c0,0.775 -0.65,1.25 -1.325,1.25c-0.6,0 -1.075,-0.35 -1.275,-0.525c-0.575,-0.55 -1.425,-0.775 -2.1,-0.775c-1.975,0 -3.55,1.375 -3.55,3.8c0,2.4 1.575,3.775 3.55,3.775c0.675,0 1.525,-0.225 2.1,-0.775c0.2,-0.175 0.675,-0.525 1.275,-0.525c0.675,0 1.325,0.475 1.325,1.25z"/><path d="M272.33385,139.74872c0,1.15 -1.125,1.75 -2.825,1.75c-1.7,0 -3.425,-0.55 -3.425,-4.025v-6.525h-0.725c-0.8,0 -1.325,-0.525 -1.325,-1.275c0,-0.775 0.525,-1.3 1.325,-1.3h0.725v-1.7c0,-0.9 0.75,-1.65 1.65,-1.65c0.9,0 1.625,0.75 1.625,1.65v1.7h1.65c0.825,0 1.325,0.525 1.325,1.3c0,0.75 -0.5,1.275 -1.325,1.275h-1.65v6.625c0,0.725 0.25,1.1 0.8,1.1c0.275,0 0.675,-0.1 0.95,-0.1c0.75,-0.05 1.225,0.4 1.225,1.175z"/></g></g></g></svg>