<svg version="1.1" xmlns="http://www.w3.org/2000/svg" xmlns:xlink="http://www.w3.org/1999/xlink" width="59.09698" height="59.09734" viewBox="0,0,59.09698,59.09734"><g transform="translate(-210.45151,-150.45133)"><g data-paper-data="{&quot;isPaintingLayer&quot;:true}" fill="#ffffff" fill-rule="evenodd" stroke="none" stroke-width="1" stroke-linecap="round" stroke-linejoin="round" stroke-miterlimit="10" stroke-dasharray="" stroke-dashoffset="0" style="mix-blend-mode: normal"><path d="M247.31735,157.82453v44.23923c0,4.13347 -3.35147,7.48492 -7.2615,7.48492c-4.02173,0 -7.3732,-3.35145 -7.3732,-7.48492v-44.23923c0,-4.02174 3.35146,-7.3732 7.3732,-7.3732c3.91002,0 7.2615,3.35146 7.2615,7.3732z"/><path d="M217.85366,172.59451l44.23888,0.1764c4.13343,0.01648 7.47149,3.38128 7.4559,7.29128c-0.01603,4.0217 -3.38083,7.35978 -7.51426,7.3433l-44.23888,-0.1764c-4.0217,-0.01603 -7.35977,-3.38083 -7.34373,-7.40253c0.01559,-3.90999 3.38038,-7.24807 7.40209,-7.23204z" data-paper-data="{&quot;index&quot;:null}"/></g></g></svg>