<svg version="1.1" xmlns="http://www.w3.org/2000/svg" xmlns:xlink="http://www.w3.org/1999/xlink" width="136.35049" height="51.71618" viewBox="0,0,136.35049,51.71618"><g transform="translate(-159.5381,-180.82915)"><g data-paper-data="{&quot;isPaintingLayer&quot;:true}" fill-rule="evenodd" stroke="none" stroke-width="1" stroke-linecap="round" stroke-linejoin="round" stroke-miterlimit="10" stroke-dasharray="" stroke-dashoffset="0" style="mix-blend-mode: normal"><g><g fill="#ffffff"><path d="M207.25544,200.92966c0,6.47048 -5.05506,11.3739 -12.94097,11.3739h-6.16719v9.45297c0,1.87038 -1.51652,3.43745 -3.3869,3.43745c-1.92092,0 -3.43745,-1.56707 -3.43745,-3.43745v-28.56112c0,-2.17368 1.56707,-3.74074 3.74074,-3.74074h9.25078c7.88591,0 12.94097,5.10561 12.94097,11.47501zM200.63331,200.92966c0,-4.14515 -2.83084,-5.66167 -6.62214,-5.66167h-5.86388v11.22225h5.86388c3.7913,0 6.62214,-1.36488 6.62214,-5.56057z"/><path d="M217.16813,226.27994c-1.81982,0 -3.33634,-1.46598 -3.33634,-3.2858v-29.77434c0,-1.76927 1.51652,-3.2858 3.33634,-3.2858c1.76927,0 3.28579,1.51652 3.28579,3.2858v29.77434c0,1.81982 -1.51651,3.2858 -3.28579,3.2858z"/><path d="M256.39498,199.87498v20.16972c0,1.81982 -1.61763,3.2858 -3.3869,3.2858c-1.81982,0 -3.33634,-1.46598 -3.33634,-3.2858v-0.96047c-0.4044,1.56707 -3.08359,4.29681 -7.48149,4.29681c-5.56057,0 -12.23326,-4.2968 -12.23326,-13.49703c0,-8.99802 6.72323,-13.44648 12.23326,-13.44648c3.58909,0 6.47048,1.92092 7.48149,4.2968v-0.85935c0,-1.76927 1.51652,-3.2858 3.33634,-3.2858c1.76927,0 3.3869,1.51651 3.3869,3.2858zM249.97505,209.88401c0,-5.71223 -3.74074,-7.7848 -6.57158,-7.7848c-3.33633,0 -6.82435,2.62864 -6.82435,7.7848c0,5.20672 3.48799,7.7848 6.82435,7.7848c2.83084,0 6.57158,-2.07257 6.57158,-7.7848z"/><path d="M286.67706,199.23246c0,0.6066 -0.2022,1.11211 -0.4044,1.51651l-13.09262,29.47103c-0.70771,1.61763 -1.92092,2.32533 -3.18469,2.32533c-1.71873,0 -2.93193,-1.36487 -2.93193,-2.98249c0,-0.6066 0.2022,-1.11211 0.35386,-1.51652l2.88139,-6.57158l-9.40243,-20.72577c-0.15165,-0.4044 -0.35386,-0.90991 -0.35386,-1.51651c0,-1.61763 1.31432,-2.98249 3.03304,-2.98249c1.26376,0 2.47699,0.70771 3.18469,2.32533l6.77379,15.6707l6.92545,-15.6707c0.70771,-1.61763 1.87038,-2.32533 3.13414,-2.32533c1.76927,0 3.0836,1.36488 3.0836,2.98249z"/></g><path d="M173.44843,180.82915h108.52983c7.6822,0 13.91033,4.56167 13.91033,10.18912v30.77154c0,5.62711 -6.22813,10.18913 -13.91033,10.18913h-108.52983c-7.68245,0 -13.91033,-4.56202 -13.91033,-10.18913v-30.77154c0,-5.62746 6.22788,-10.18912 13.91033,-10.18912z" fill="#636363" opacity="0.0863"/></g></g></g></svg>