<svg version="1.1" xmlns="http://www.w3.org/2000/svg" xmlns:xlink="http://www.w3.org/1999/xlink" width="22.4772" height="21.95336" viewBox="0,0,22.4772,21.95336"><defs><linearGradient x1="245.60989" y1="171.46712" x2="234.3901" y2="188.53288" gradientUnits="userSpaceOnUse" id="color-1"><stop offset="0" stop-color="#2b66ad" stop-opacity="0"/><stop offset="1" stop-color="#2b66ad"/></linearGradient></defs><g transform="translate(-228.7614,-169.02332)"><g data-paper-data="{&quot;isPaintingLayer&quot;:true}" fill-rule="nonzero" stroke-linecap="butt" stroke-linejoin="miter" stroke-miterlimit="10" stroke-dasharray="" stroke-dashoffset="0" style="mix-blend-mode: normal"><path d="" fill="#000000" stroke="none" stroke-width="0.5"/><path d="" fill="#000000" stroke="none" stroke-width="0.5"/><path d="M229.2614,180c0,-5.78611 4.80784,-10.47668 10.7386,-10.47668c5.93077,0 10.7386,4.69058 10.7386,10.47668c0,5.78611 -4.80784,10.47668 -10.7386,10.47668c-5.93077,0 -10.7386,-4.69058 -10.7386,-10.47668z" fill="#3783e0" stroke="#e7edf3" stroke-width="1"/><path d="M248.32476,185.47307c-3.09826,4.71258 -9.33702,6.0825 -13.93466,3.05981c-4.59763,-3.02269 -5.81313,-9.29337 -2.71486,-14.00595c3.09826,-4.71258 9.33702,-6.0825 13.93466,-3.05981c4.59763,3.02269 5.81313,9.29337 2.71486,14.00595z" data-paper-data="{&quot;index&quot;:null}" fill="url(#color-1)" stroke="none" stroke-width="0"/></g></g></svg>