<svg version="1.1" xmlns="http://www.w3.org/2000/svg" xmlns:xlink="http://www.w3.org/1999/xlink" width="53.93362" height="46.8341" viewBox="0,0,53.93362,46.8341"><g transform="translate(-214.10284,-156.36106)"><g data-paper-data="{&quot;isPaintingLayer&quot;:true}" fill="#ffffff" fill-rule="nonzero" stroke="#000000" stroke-width="2" stroke-linecap="round" stroke-linejoin="miter" stroke-miterlimit="10" stroke-dasharray="" stroke-dashoffset="0" style="mix-blend-mode: normal"><path d="M252.35611,199.18143c0,0 -8.3518,-9.66475 -13.18361,-8.48357c-4.60117,1.12481 -13.60689,7.8714 -13.60689,7.8714c0,0 4.82638,-6.80469 4.52187,-9.45415c-0.59113,-5.14316 -11.13516,-11.48467 -11.13516,-11.48467c0,0 12.47183,1.89845 14.56657,-0.05209c3.21658,-2.99518 7.18403,-16.80324 7.18403,-16.80324c0,0 2.51557,14.09145 7.28923,16.79708c2.28818,1.2969 13.05552,-4.72303 13.05552,-4.72303c0,0 -12.31326,11.29346 -12.38594,14.24744c-0.12622,5.13049 3.81992,12.12827 3.81992,12.12827"/></g></g></svg>