<svg version="1.1" xmlns="http://www.w3.org/2000/svg" xmlns:xlink="http://www.w3.org/1999/xlink" width="609.60961" height="470.42129" viewBox="0,0,609.60961,470.42129"><g transform="translate(29.16277,26.63143)"><g data-paper-data="{&quot;isPaintingLayer&quot;:true}" fill-rule="nonzero" stroke-linejoin="miter" stroke-miterlimit="10" stroke-dasharray="" stroke-dashoffset="0" style="mix-blend-mode: normal"><path d="M-29.16277,443.78987v-470.42129h609.60961v470.42129z" fill="#54d171" stroke="none" stroke-width="0" stroke-linecap="butt"/><path d="M154.14203,30v-34h283v34z" fill="#ffe000" stroke="none" stroke-width="0" stroke-linecap="butt"/><path d="M105.67418,108.33943c70.20627,6.91112 67.30372,42.90615 112.98542,54.11651c55.99247,13.74064 33.20225,-60.99499 93.19335,-90.78546c103.62675,-33.04451 156.65587,66.70567 109.33737,128.75829c-34.9026,50.00532 -38.23881,75.33244 -24.18935,123.72795" fill="none" stroke="#a0862f" stroke-width="45" stroke-linecap="round"/><path d="M225.12503,165.17501c0,-7.24874 5.87626,-13.125 13.125,-13.125c7.24874,0 13.125,5.87626 13.125,13.125c0,7.24874 -5.87626,13.125 -13.125,13.125c-7.24874,0 -13.125,-5.87626 -13.125,-13.125z" fill="#ffab00" stroke="#433729" stroke-width="4" stroke-linecap="butt"/><path d="M253.62503,127.17502c0,-7.24873 5.87626,-13.125 13.125,-13.125c7.24874,0 13.125,5.87627 13.125,13.125c0,7.24874 -5.87626,13.125 -13.125,13.125c-7.24874,0 -13.125,-5.87626 -13.125,-13.125z" fill="#ffab00" stroke="#433729" stroke-width="4" stroke-linecap="butt"/><path d="M279.12503,87.17501c0,-7.24873 5.87626,-13.125 13.125,-13.125c7.24874,0 13.125,5.87627 13.125,13.125c0,7.24873 -5.87626,13.125 -13.125,13.125c-7.24874,0 -13.125,-5.87627 -13.125,-13.125z" fill="#fff300" stroke="#3d3f14" stroke-width="4" stroke-linecap="butt"/><path d="M180.62503,152.67501c0,-7.24874 5.87626,-13.125 13.125,-13.125c7.24874,0 13.125,5.87626 13.125,13.125c0,7.24874 -5.87626,13.125 -13.125,13.125c-7.24874,0 -13.125,-5.87626 -13.125,-13.125z" fill="#ffab00" stroke="#433729" stroke-width="4" stroke-linecap="butt"/><path d="M443.22751,95.80314l-13.18959,1.03724l4.47378,-7.27894l-7.16498,-6.50279l9.39786,-1.62771l-1.33031,-8.65201l10.47991,7.23253" fill="#ffd557" stroke="#940000" stroke-width="4" stroke-linecap="round"/><path d="M321.12503,67.17501c0,-7.24873 5.87626,-13.125 13.125,-13.125c7.24874,0 13.125,5.87626 13.125,13.125c0,7.24873 -5.87626,13.125 -13.125,13.125c-7.24874,0 -13.125,-5.87627 -13.125,-13.125z" fill="#fff300" stroke="#3d3f14" stroke-width="4" stroke-linecap="butt"/><path d="M469.53244,101.80595l-25.59741,-5.62572l3.58,-16.28926l25.59741,5.62572z" fill="#d1d1d1" stroke="#353535" stroke-width="4" stroke-linecap="butt"/><path d="M500.70454,119.06513l-36.31495,-7.98118l7.90659,-35.97557l36.31496,7.98118z" fill="#d1d1d1" stroke="#353535" stroke-width="4" stroke-linecap="butt"/><path d="M215.61086,76.94858l2.19137,-11.10279l26.58117,5.0918l-2.19138,11.10279z" fill="#c0ecec" stroke="#353535" stroke-width="4" stroke-linecap="butt"/><path d="M219.33527,59.22408l2.19138,-11.10279l26.58116,5.0918l-2.19138,11.1028z" fill="#c0ecec" stroke="#353535" stroke-width="4" stroke-linecap="butt"/><path d="M187.25067,35.30091l40.24624,8.30767l-8.23002,39.87012l-40.24625,-8.30768z" fill="#c0ecec" stroke="#353535" stroke-width="4" stroke-linecap="butt"/><path d="M145.62502,126.67502c0,-7.24874 5.87626,-13.125 13.125,-13.125c7.24874,0 13.125,5.87626 13.125,13.125c0,7.24874 -5.87626,13.125 -13.125,13.125c-7.24874,0 -13.125,-5.87626 -13.125,-13.125z" fill="#ffab00" stroke="#433729" stroke-width="4" stroke-linecap="butt"/><path d="M322.29557,196.8079l-5.67158,-25.58729l16.28282,-3.60919l5.67158,25.58729z" fill="#d1d1d1" stroke="#353535" stroke-width="4" stroke-linecap="butt"/><path d="M319.76104,232.34881l-8.04626,-36.30059l35.96134,-7.97107l8.04627,36.30059z" fill="#d1d1d1" stroke="#353535" stroke-width="4" stroke-linecap="butt"/><text transform="translate(158.14203,20.5) scale(0.63001,0.63001)" font-size="40" xml:space="preserve" fill="#ff0000" fill-rule="nonzero" stroke="none" stroke-width="1" stroke-linecap="butt" stroke-linejoin="miter" stroke-miterlimit="10" stroke-dasharray="" stroke-dashoffset="0" font-family="Sans Serif" font-weight="normal" text-anchor="start" style="mix-blend-mode: normal"><tspan x="0" dy="0">NEW: Turret Upgrades!</tspan></text></g></g></svg>