<svg version="1.1" xmlns="http://www.w3.org/2000/svg" xmlns:xlink="http://www.w3.org/1999/xlink" width="446.36736" height="317.92145" viewBox="0,0,446.36736,317.92145"><g transform="translate(-47.36086,-49.47346)"><g data-paper-data="{&quot;isPaintingLayer&quot;:true}" fill="none" fill-rule="nonzero" stroke="#ffffff" stroke-width="3" stroke-linecap="round" stroke-linejoin="miter" stroke-miterlimit="10" stroke-dasharray="" stroke-dashoffset="0" style="mix-blend-mode: normal"><path d="M104.30179,365.89491c0,0 15.77455,-38.12297 10.82679,-66.05773c-4.86559,-27.47081 -62.00542,-42.9854 -65.27785,-82.17422c-3.65783,-43.80416 2.3219,-69.82104 26.35213,-108.35721c8.28254,-13.28232 35.98985,-33.6553 60.97954,-31.19531c70.20627,6.91112 43.27969,71.44069 88.96139,82.65105c55.99247,13.74064 39.69174,-98.51752 106.68284,-108.30799c116.62675,-17.04451 117.65887,118.21918 68.34037,144.2718c-10.36206,5.47379 -58.25382,9.77689 -93.75391,26.64086c-27.14247,12.89376 -26.65077,49.59067 -1.20275,69.48211c37.20166,29.07867 186.01788,-2.55396 186.01788,-2.55396"/></g></g></svg>