<svg version="1.1" xmlns="http://www.w3.org/2000/svg" xmlns:xlink="http://www.w3.org/1999/xlink" width="19.25837" height="17.90647" viewBox="0,0,19.25837,17.90647"><g transform="translate(-230.54023,-170.18923)"><g data-paper-data="{&quot;isPaintingLayer&quot;:true}" fill="#ff0000" fill-rule="nonzero" stroke="none" stroke-width="0" stroke-linecap="butt" stroke-linejoin="miter" stroke-miterlimit="10" stroke-dasharray="" stroke-dashoffset="0" style="mix-blend-mode: normal"><path d="M232.18333,180.07257l7.90584,-8.02313l7.90584,8.02313l-7.90584,8.02313z"/><path d="M230.54023,176.05246c0,-3.14822 2.51483,-5.70036 5.61702,-5.70036c3.1022,0 5.61702,2.55214 5.61702,5.70036c0,3.14822 -2.51483,5.70036 -5.61702,5.70036c-3.1022,0 -5.61702,-2.55214 -5.61702,-5.70036z"/><path d="M238.56455,175.88959c0,-3.14822 2.51483,-5.70036 5.61702,-5.70036c3.1022,0 5.61702,2.55214 5.61702,5.70036c0,3.14822 -2.51483,5.70036 -5.61702,5.70036c-3.1022,0 -5.61702,-2.55214 -5.61702,-5.70036z"/></g></g></svg>