<svg version="1.1" xmlns="http://www.w3.org/2000/svg" xmlns:xlink="http://www.w3.org/1999/xlink" width="487.37749" height="359.72688" viewBox="0,0,487.37749,359.72688"><g transform="translate(-32.35073,-33.66804)"><g data-paper-data="{&quot;isPaintingLayer&quot;:true}" fill="none" fill-rule="nonzero" stroke="#96791c" stroke-width="45" stroke-linecap="round" stroke-linejoin="miter" stroke-miterlimit="10" stroke-dasharray="" stroke-dashoffset="0" style="mix-blend-mode: normal"><path d="M109.30179,370.89491c0,0 13.27455,-35.12297 10.82679,-66.05773c-3.36559,-36.47081 -62.00542,-42.4854 -65.27785,-81.67422c-3.65783,-43.80416 2.3219,-70.32104 26.35213,-108.85721c8.28254,-13.28232 35.98985,-33.6553 60.97954,-31.19531c70.20627,6.91112 43.27969,71.44069 88.96139,82.65105c55.99247,13.74064 37.69174,-99.51752 106.18284,-107.80799c11.78514,-1.72235 20.89504,-2.89457 30.39598,-1.78547c84.52117,9.86666 82.77925,122.13726 38.44439,145.55727c-10.36206,5.47379 -58.25382,9.77689 -93.75391,26.64086c-27.14247,12.89376 -26.65077,49.59067 -1.20275,69.48211c37.20166,29.07867 186.01788,-2.55396 186.01788,-2.55396"/></g></g></svg>