<svg version="1.1" xmlns="http://www.w3.org/2000/svg" xmlns:xlink="http://www.w3.org/1999/xlink" width="77.36473" height="66.08333" viewBox="0,0,77.36473,66.08333"><g transform="translate(-206.78528,-146.95835)"><g data-paper-data="{&quot;isPaintingLayer&quot;:true}" fill-rule="nonzero" stroke-width="4" stroke-linecap="butt" stroke-linejoin="miter" stroke-miterlimit="10" stroke-dasharray="" stroke-dashoffset="0" style="mix-blend-mode: normal"><path d="M209.13139,201.77029c0,-13.44212 -0.34611,-36.47862 -0.34611,-43.60976c0,-5.30245 5.61299,-9.20218 10.18859,-9.20218c7.2431,0 29.19638,0 42.22532,0c5.93309,0 10.01553,5.3219 10.01553,9.02912c0,6.92024 0,30.11954 0,43.4367c0,5.72048 -4.31831,9.61751 -8.28498,9.61751c-7.46254,0 -31.15268,0 -44.12892,0c-4.60008,0 -9.66943,-3.73329 -9.66943,-9.2714z" fill="#97c7d3" stroke="#353535"/><path d="M222.30001,195.75001v-12.7h59.85v12.7z" fill="#97c7d3" stroke="#353535"/><path d="M222.30001,176.95001v-12.7h59.85v12.7z" fill="#97c7d3" stroke="#353535"/><path d="M221.95835,198.04168v-36.08333h36.08333v36.08333z" fill="#97c7d3" stroke="#353535"/></g></g></svg>