<svg version="1.1" xmlns="http://www.w3.org/2000/svg" xmlns:xlink="http://www.w3.org/1999/xlink" width="82.68661" height="66.08333" viewBox="0,0,82.68661,66.08333"><g transform="translate(-206.78528,-146.95834)"><g data-paper-data="{&quot;isPaintingLayer&quot;:true}" fill-rule="nonzero" stroke-width="4" stroke-linejoin="miter" stroke-miterlimit="10" stroke-dasharray="" stroke-dashoffset="0" style="mix-blend-mode: normal"><path d="M209.13139,201.77029c0,-13.44212 -0.34611,-36.47862 -0.34611,-43.60976c0,-5.30245 5.61299,-9.20218 10.18859,-9.20218c7.2431,0 29.19638,0 42.22532,0c5.93309,0 10.01553,5.3219 10.01553,9.02912c0,6.92024 0,30.11954 0,43.4367c0,5.72048 -4.31831,9.61751 -8.28498,9.61751c-7.46254,0 -31.15268,0 -44.12892,0c-4.60008,0 -9.66943,-3.73329 -9.66943,-9.2714z" fill="#d4b981" stroke="#4e4430" stroke-linecap="butt"/><path d="M239.63785,195.25106l0.48161,-31.00105l47.32823,6.9833l-0.2408,17.27526z" fill="#dfe88e" stroke="#001e35" stroke-linecap="butt"/><path d="M221.95834,198.04167v-36.08333h36.08333v36.08333z" fill="#d4b981" stroke="#4e4430" stroke-linecap="butt"/><path d="M261.8,167.17988c0,0 0.99751,-4.24385 2.46575,-3.62441c4.24742,1.79195 0.02675,27.64223 2.77802,30.76013c2.13372,2.41805 3.35623,-3.2066 3.35623,-3.2066" fill="none" stroke="#0090ff" stroke-linecap="round"/><path d="M273.6,168.82798c0,0 0.90228,-3.83872 2.23036,-3.27842c3.84195,1.62088 0.02419,25.00342 2.51282,27.82367c1.93003,2.18722 3.03583,-2.90048 3.03583,-2.90048" fill="none" stroke="#0090ff" stroke-linecap="round"/></g></g></svg>